G04 #@! TF.FileFunction,Copper,L2,Bot,Signal*
%FSLAX46Y46*%
G04 Gerber Fmt 4.6, Leading zero omitted, Abs format (unit mm)*
G04 Created by KiCad (PCBNEW 4.0.7) date 10/23/19 08:49:17*
%MOMM*%
%LPD*%
G01*
G04 APERTURE LIST*
%ADD10C,0.100000*%
%ADD11C,2.000000*%
%ADD12R,2.000000X3.200000*%
%ADD13R,2.000000X2.000000*%
%ADD14C,1.600000*%
%ADD15O,1.600000X1.600000*%
%ADD16R,1.700000X1.700000*%
%ADD17O,1.700000X1.700000*%
%ADD18R,1.300000X1.500000*%
%ADD19R,1.500000X1.300000*%
%ADD20C,4.064000*%
%ADD21R,1.250000X1.500000*%
%ADD22R,1.500000X1.250000*%
%ADD23C,0.600000*%
%ADD24C,0.350000*%
%ADD25C,0.500000*%
G04 APERTURE END LIST*
D10*
D11*
X133836400Y-69770400D03*
X138836400Y-69770400D03*
D12*
X130736400Y-62770400D03*
X141936400Y-62770400D03*
D11*
X133836400Y-55270400D03*
X136336400Y-55270400D03*
D13*
X138836400Y-55270400D03*
D14*
X127635000Y-61988700D03*
D15*
X127635000Y-54368700D03*
D16*
X118021100Y-70269100D03*
D17*
X120561100Y-70269100D03*
X118021100Y-67729100D03*
X120561100Y-67729100D03*
X118021100Y-65189100D03*
X120561100Y-65189100D03*
X118021100Y-62649100D03*
X120561100Y-62649100D03*
X118021100Y-60109100D03*
X120561100Y-60109100D03*
X118021100Y-57569100D03*
X120561100Y-57569100D03*
X118021100Y-55029100D03*
X120561100Y-55029100D03*
D16*
X115570000Y-75184000D03*
D17*
X113030000Y-75184000D03*
D18*
X125082300Y-64405500D03*
X125082300Y-61705500D03*
D14*
X127635000Y-71805800D03*
D15*
X127635000Y-64185800D03*
D18*
X125031500Y-56950600D03*
X125031500Y-54250600D03*
D19*
X137875000Y-76200000D03*
X135175000Y-76200000D03*
D14*
X139954000Y-73152000D03*
D15*
X132334000Y-73152000D03*
D18*
X119761000Y-74850000D03*
X119761000Y-77550000D03*
D14*
X130556000Y-76327000D03*
D15*
X122936000Y-76327000D03*
D11*
X141660000Y-87376000D03*
X137160000Y-87376000D03*
X141660000Y-80876000D03*
X137160000Y-80876000D03*
X132008000Y-87376000D03*
X127508000Y-87376000D03*
X132008000Y-80876000D03*
X127508000Y-80876000D03*
X122356000Y-87376000D03*
X117856000Y-87376000D03*
X122356000Y-80876000D03*
X117856000Y-80876000D03*
D16*
X104000000Y-55000000D03*
D17*
X104000000Y-57540000D03*
X104000000Y-60080000D03*
X104000000Y-62620000D03*
X104000000Y-65160000D03*
X104000000Y-67700000D03*
X104000000Y-70240000D03*
X104000000Y-72780000D03*
X104000000Y-75320000D03*
X104000000Y-77860000D03*
X104000000Y-80400000D03*
X104000000Y-82940000D03*
X104000000Y-85480000D03*
X104000000Y-88020000D03*
D20*
X111000000Y-55500000D03*
X148000000Y-87500000D03*
X111000000Y-87500000D03*
X148000000Y-55500000D03*
D21*
X145542000Y-67774500D03*
X145542000Y-70274500D03*
D14*
X145542000Y-61912500D03*
X148042000Y-61912500D03*
D21*
X145491200Y-75164000D03*
X145491200Y-72664000D03*
D14*
X148082000Y-64770000D03*
X145582000Y-64770000D03*
D22*
X115194400Y-81280000D03*
X112694400Y-81280000D03*
D14*
X115570000Y-78384400D03*
X113070000Y-78384400D03*
D23*
X109347000Y-75184000D03*
X107950000Y-79629000D03*
X107315000Y-76581000D03*
X107823000Y-62484000D03*
X146761200Y-71831200D03*
X146659600Y-69037200D03*
X112014000Y-63627000D03*
X100965000Y-61468000D03*
X139192000Y-53276500D03*
D24*
X118021100Y-70269100D02*
X118021100Y-70142100D01*
X118021100Y-70142100D02*
X119090440Y-69016880D01*
X109169200Y-81203800D02*
X109169200Y-82850800D01*
X109169200Y-82850800D02*
X104000000Y-88020000D01*
X130556000Y-76327000D02*
X130556000Y-77279500D01*
X135970000Y-78105000D02*
X137875000Y-76200000D01*
X131381500Y-78105000D02*
X135970000Y-78105000D01*
X130556000Y-77279500D02*
X131381500Y-78105000D01*
X137875000Y-76200000D02*
X137875000Y-75231000D01*
X137875000Y-75231000D02*
X139954000Y-73152000D01*
X125082300Y-64405500D02*
X125256300Y-64405500D01*
X125256300Y-64405500D02*
X127635000Y-61988700D01*
X125031500Y-56950600D02*
X125031500Y-56997600D01*
X125031500Y-56997600D02*
X126631700Y-58381900D01*
X126631700Y-58381900D02*
X126631700Y-60540900D01*
X126631700Y-60540900D02*
X127635000Y-61988700D01*
X127635000Y-61988700D02*
X127635000Y-62322700D01*
X118021100Y-70269100D02*
X118021100Y-70142100D01*
X121701560Y-69006720D02*
X127635000Y-71805800D01*
X119090440Y-69016880D02*
X121701560Y-69006720D01*
X127635000Y-71805800D02*
X126873000Y-71907400D01*
X126873000Y-71907400D02*
X130556000Y-76327000D01*
X119761000Y-74850000D02*
X121492000Y-74850000D01*
X121492000Y-74850000D02*
X127635000Y-71805800D01*
X109220000Y-81153000D02*
X109169200Y-81203800D01*
X109220000Y-75311000D02*
X109220000Y-81153000D01*
X109347000Y-75184000D02*
X109220000Y-75311000D01*
X103926640Y-70358000D02*
X103571040Y-70002400D01*
X120561100Y-70269100D02*
X119207280Y-71429880D01*
X119207280Y-71429880D02*
X117563900Y-72783700D01*
X117563900Y-72783700D02*
X115163600Y-72783700D01*
X115163600Y-72783700D02*
X115163600Y-72771000D01*
X108331000Y-79248000D02*
X107950000Y-79629000D01*
X108331000Y-74168000D02*
X108331000Y-79248000D01*
X109474000Y-72771000D02*
X108331000Y-74168000D01*
X115163600Y-72771000D02*
X109474000Y-72771000D01*
X118021100Y-67729100D02*
X108712000Y-67818000D01*
X107315000Y-69215000D02*
X107315000Y-76581000D01*
X108712000Y-67818000D02*
X107315000Y-69215000D01*
X118021100Y-67729100D02*
X118021100Y-67983100D01*
X122356000Y-83058000D02*
X115570000Y-83058000D01*
X115570000Y-83058000D02*
X115194400Y-82682400D01*
X115194400Y-82682400D02*
X115194400Y-81280000D01*
X115194400Y-81280000D02*
X115194400Y-81818800D01*
X115570000Y-78384400D02*
X115570000Y-80904400D01*
X115570000Y-80904400D02*
X115194400Y-81280000D01*
X122356000Y-80876000D02*
X122356000Y-83058000D01*
X122356000Y-83058000D02*
X122356000Y-87376000D01*
X138836400Y-69770400D02*
X140293500Y-69745000D01*
X123444000Y-78740000D02*
X122356000Y-80876000D01*
X138684000Y-78800000D02*
X123444000Y-78740000D01*
X141414500Y-76835000D02*
X138684000Y-78800000D01*
X141414500Y-70866000D02*
X141414500Y-76835000D01*
X140293500Y-69745000D02*
X141414500Y-70866000D01*
X132334000Y-73152000D02*
X133118000Y-73152000D01*
X133118000Y-73152000D02*
X138836400Y-69770400D01*
X132334000Y-73152000D02*
X132334000Y-73359000D01*
X132334000Y-73359000D02*
X135175000Y-76200000D01*
X120561100Y-67729100D02*
X134598000Y-67818000D01*
X134598000Y-67818000D02*
X138836400Y-69770400D01*
X115356640Y-62341760D02*
X118021100Y-65189100D01*
X107950000Y-62357000D02*
X115356640Y-62341760D01*
X107823000Y-62484000D02*
X107950000Y-62357000D01*
X117894100Y-65062100D02*
X118021100Y-65189100D01*
X145491200Y-72664000D02*
X145928400Y-72664000D01*
X145928400Y-72664000D02*
X146761200Y-71831200D01*
X145542000Y-70274500D02*
X145542000Y-70154800D01*
X145542000Y-70154800D02*
X146659600Y-69037200D01*
X103621840Y-82892900D02*
X105308400Y-82892900D01*
X107823000Y-63627000D02*
X112014000Y-63627000D01*
X106299000Y-65151000D02*
X107823000Y-63627000D01*
X106299000Y-81661000D02*
X106299000Y-65151000D01*
X105308400Y-82892900D02*
X106299000Y-81661000D01*
X104000000Y-65160000D02*
X104339500Y-65160000D01*
X104339500Y-65160000D02*
X105498900Y-66319400D01*
X102450900Y-71230900D02*
X104000000Y-72780000D01*
X102450900Y-69545200D02*
X102450900Y-71230900D01*
X103035100Y-68961000D02*
X102450900Y-69545200D01*
X104584500Y-68961000D02*
X103035100Y-68961000D01*
X105498900Y-68046600D02*
X104584500Y-68961000D01*
X105498900Y-66319400D02*
X105498900Y-68046600D01*
X104000000Y-65160000D02*
X104000000Y-64516300D01*
X104000000Y-64516300D02*
X107073700Y-61442600D01*
X107073700Y-61442600D02*
X119263160Y-61366400D01*
X119263160Y-61366400D02*
X120561100Y-62649100D01*
X120561100Y-62649100D02*
X120434100Y-62649100D01*
X120561100Y-62649100D02*
X120561100Y-62776100D01*
X102362000Y-75272900D02*
X103672640Y-75272900D01*
X100965000Y-73787000D02*
X102362000Y-75272900D01*
X100965000Y-61468000D02*
X100965000Y-73787000D01*
X118021100Y-60109100D02*
X103926640Y-60198000D01*
X103926640Y-60198000D02*
X103571040Y-59842400D01*
X103964740Y-67640200D02*
X102781100Y-67640200D01*
X101727000Y-59146440D02*
X103518021Y-57660232D01*
X101727000Y-66802000D02*
X101727000Y-59146440D01*
X102781100Y-67640200D02*
X101727000Y-66802000D01*
X103518021Y-57660232D02*
X105001381Y-57660232D01*
X119545100Y-58839100D02*
X120561100Y-60109100D01*
X106680000Y-58928000D02*
X119545100Y-58839100D01*
X105001381Y-57660232D02*
X106680000Y-58928000D01*
X145542000Y-61912500D02*
X144106900Y-61912500D01*
X144106900Y-61912500D02*
X143764000Y-61569600D01*
X145542000Y-67774500D02*
X143764000Y-67774500D01*
X143764000Y-67774500D02*
X143807500Y-67818000D01*
X143807500Y-67818000D02*
X143827500Y-67818000D01*
X143827500Y-67818000D02*
X143764000Y-67818000D01*
X118021100Y-57569100D02*
X118178580Y-57569100D01*
X118178580Y-57569100D02*
X119481600Y-56266080D01*
X119481600Y-56266080D02*
X123016020Y-56266080D01*
X123016020Y-56266080D02*
X125031500Y-54250600D01*
X118021100Y-57569100D02*
X118630700Y-57569100D01*
X118630700Y-57569100D02*
X117652800Y-57023000D01*
X141660000Y-80876000D02*
X141660000Y-87376000D01*
X136944100Y-53238400D02*
X139407900Y-55270400D01*
X139407900Y-55270400D02*
X143764000Y-60477400D01*
X143764000Y-78479900D02*
X141660000Y-80876000D01*
X143764000Y-60477400D02*
X143764000Y-61569600D01*
X143764000Y-61569600D02*
X143764000Y-67818000D01*
X143764000Y-67818000D02*
X143764000Y-78479900D01*
X127635000Y-54368700D02*
X127635000Y-54241700D01*
X127635000Y-54241700D02*
X128663700Y-53187600D01*
X134493000Y-53213000D02*
X136944100Y-53238400D01*
X128663700Y-53187600D02*
X134493000Y-53213000D01*
X125031500Y-54250600D02*
X127588000Y-54415700D01*
X127588000Y-54415700D02*
X127635000Y-54368700D01*
X118021100Y-57569100D02*
X118021100Y-57315100D01*
X148082000Y-64770000D02*
X149796500Y-64770000D01*
X149796500Y-64770000D02*
X149809200Y-64782700D01*
X149809200Y-64782700D02*
X149809200Y-64820800D01*
X149809200Y-64820800D02*
X149796500Y-64820800D01*
X145491200Y-75164000D02*
X149422800Y-75164000D01*
X149422800Y-75164000D02*
X149796500Y-74790300D01*
X139192000Y-53276500D02*
X139255500Y-53213000D01*
X139255500Y-53213000D02*
X141414500Y-53213000D01*
X141414500Y-53213000D02*
X149796500Y-61595000D01*
X149796500Y-61595000D02*
X149796500Y-64820800D01*
X149796500Y-64820800D02*
X149796500Y-74790300D01*
X149796500Y-74790300D02*
X149796500Y-80327500D01*
X149796500Y-80327500D02*
X144589500Y-85534500D01*
X144589500Y-85534500D02*
X144589500Y-87630000D01*
X144589500Y-87630000D02*
X142938500Y-89281000D01*
X142938500Y-89281000D02*
X133913000Y-89281000D01*
X133913000Y-89281000D02*
X132008000Y-87376000D01*
X127635000Y-64185800D02*
X127635000Y-64681100D01*
X127635000Y-64681100D02*
X126428500Y-65887600D01*
X126428500Y-65887600D02*
X123888500Y-65887600D01*
X123888500Y-65887600D02*
X123469400Y-65468500D01*
X123469400Y-65468500D02*
X123469400Y-63318400D01*
X123469400Y-63318400D02*
X125082300Y-61705500D01*
X127635000Y-64185800D02*
X127800100Y-64185800D01*
X127800100Y-64185800D02*
X129421939Y-65807639D01*
X125082300Y-61705500D02*
X124908300Y-61705500D01*
X132008000Y-80876000D02*
X132008000Y-87376000D01*
X120561100Y-57569100D02*
X120895100Y-57569100D01*
X120895100Y-57569100D02*
X125082300Y-61705500D01*
X125082300Y-61705500D02*
X125082300Y-61150500D01*
X127635000Y-64185800D02*
X128143000Y-64185800D01*
X128143000Y-64185800D02*
X127711200Y-64643000D01*
X133832600Y-63893700D02*
X133836400Y-55270400D01*
X129421939Y-65807639D02*
X131470400Y-65786000D01*
X131470400Y-65786000D02*
X133832600Y-63893700D01*
X125082300Y-61705500D02*
X125129300Y-61705500D01*
X120561100Y-57569100D02*
X120561100Y-57997100D01*
X119761000Y-77550000D02*
X121713000Y-77550000D01*
X121713000Y-77550000D02*
X122936000Y-76327000D01*
X115570000Y-75184000D02*
X116332000Y-75184000D01*
X116332000Y-75184000D02*
X117957600Y-75946000D01*
X117957600Y-75946000D02*
X119761000Y-77550000D01*
D25*
G36*
X129035401Y-75947178D02*
X129006270Y-76017333D01*
X129005732Y-76633961D01*
X129241208Y-77203857D01*
X129676849Y-77640260D01*
X129717110Y-77656978D01*
X129839516Y-77840172D01*
X123447642Y-77815007D01*
X123303695Y-77843051D01*
X123158046Y-77860309D01*
X123127618Y-77877355D01*
X123093385Y-77884024D01*
X122971124Y-77965022D01*
X122843170Y-78036701D01*
X122821581Y-78064094D01*
X122792506Y-78083356D01*
X122710544Y-78204982D01*
X122619765Y-78320165D01*
X122209368Y-79125871D01*
X122009431Y-79125696D01*
X121365999Y-79391557D01*
X120873287Y-79883410D01*
X120606304Y-80526376D01*
X120605696Y-81222569D01*
X120871557Y-81866001D01*
X121138091Y-82133000D01*
X119126968Y-82133000D01*
X120003869Y-81256099D01*
X119632462Y-80884692D01*
X119646455Y-80791642D01*
X119542448Y-80268759D01*
X119286452Y-80152655D01*
X118563107Y-80876000D01*
X118916661Y-81229554D01*
X118209554Y-81936661D01*
X117856000Y-81583107D01*
X117502447Y-81936661D01*
X116795340Y-81229554D01*
X117148893Y-80876000D01*
X116658380Y-80385487D01*
X116656796Y-80377067D01*
X116495000Y-80125628D01*
X116495000Y-79651133D01*
X116700944Y-79445548D01*
X117132655Y-79445548D01*
X117856000Y-80168893D01*
X118579345Y-79445548D01*
X118463241Y-79189552D01*
X117771642Y-79085545D01*
X117248759Y-79189552D01*
X117132655Y-79445548D01*
X116700944Y-79445548D01*
X116883260Y-79263551D01*
X117119730Y-78694067D01*
X117120268Y-78077439D01*
X116884792Y-77507543D01*
X116449151Y-77071140D01*
X115879667Y-76834670D01*
X115263039Y-76834132D01*
X114693143Y-77069608D01*
X114256740Y-77505249D01*
X114073468Y-77946618D01*
X113635685Y-78384400D01*
X114074010Y-78822725D01*
X114255208Y-79261257D01*
X114645000Y-79651731D01*
X114645000Y-79890307D01*
X114444400Y-79890307D01*
X114166467Y-79942604D01*
X114030652Y-80029998D01*
X113944402Y-80029998D01*
X113944402Y-79897000D01*
X113480325Y-79897000D01*
X113650017Y-79863246D01*
X113735119Y-79615205D01*
X113070000Y-78950085D01*
X112404881Y-79615205D01*
X112489983Y-79863246D01*
X112678228Y-79897000D01*
X111444398Y-79897000D01*
X111444398Y-80083028D01*
X111301798Y-80225628D01*
X111186400Y-80504225D01*
X111186400Y-80778000D01*
X111375900Y-80967500D01*
X112319400Y-80967500D01*
X112319400Y-80655000D01*
X113069400Y-80655000D01*
X113069400Y-80967500D01*
X113444400Y-80967500D01*
X113444400Y-81592500D01*
X113069400Y-81592500D01*
X113069400Y-82473500D01*
X113258900Y-82663000D01*
X113595176Y-82663000D01*
X113873773Y-82547601D01*
X113891372Y-82530002D01*
X114030622Y-82530002D01*
X114146892Y-82609446D01*
X114269400Y-82634255D01*
X114269400Y-82682400D01*
X114339811Y-83036383D01*
X114540326Y-83336474D01*
X114915924Y-83712071D01*
X114915926Y-83712074D01*
X115074306Y-83817900D01*
X115216018Y-83912589D01*
X115570000Y-83983001D01*
X115570005Y-83983000D01*
X121431000Y-83983000D01*
X121431000Y-85864699D01*
X121365999Y-85891557D01*
X120873287Y-86383410D01*
X120606304Y-87026376D01*
X120605696Y-87722569D01*
X120871557Y-88366001D01*
X121363410Y-88858713D01*
X122006376Y-89125696D01*
X122702569Y-89126304D01*
X123346001Y-88860443D01*
X123400086Y-88806452D01*
X126784655Y-88806452D01*
X126900759Y-89062448D01*
X127592358Y-89166455D01*
X128115241Y-89062448D01*
X128231345Y-88806452D01*
X127508000Y-88083107D01*
X126784655Y-88806452D01*
X123400086Y-88806452D01*
X123838713Y-88368590D01*
X124105696Y-87725624D01*
X124105927Y-87460358D01*
X125717545Y-87460358D01*
X125821552Y-87983241D01*
X126077548Y-88099345D01*
X126800893Y-87376000D01*
X128215107Y-87376000D01*
X128938452Y-88099345D01*
X129194448Y-87983241D01*
X129298455Y-87291642D01*
X129194448Y-86768759D01*
X128938452Y-86652655D01*
X128215107Y-87376000D01*
X126800893Y-87376000D01*
X126077548Y-86652655D01*
X125821552Y-86768759D01*
X125717545Y-87460358D01*
X124105927Y-87460358D01*
X124106304Y-87029431D01*
X123840443Y-86385999D01*
X123400760Y-85945548D01*
X126784655Y-85945548D01*
X127508000Y-86668893D01*
X128231345Y-85945548D01*
X128115241Y-85689552D01*
X127423642Y-85585545D01*
X126900759Y-85689552D01*
X126784655Y-85945548D01*
X123400760Y-85945548D01*
X123348590Y-85893287D01*
X123281000Y-85865221D01*
X123281000Y-82387301D01*
X123346001Y-82360443D01*
X123400086Y-82306452D01*
X126784655Y-82306452D01*
X126900759Y-82562448D01*
X127592358Y-82666455D01*
X128115241Y-82562448D01*
X128231345Y-82306452D01*
X127508000Y-81583107D01*
X126784655Y-82306452D01*
X123400086Y-82306452D01*
X123838713Y-81868590D01*
X124105696Y-81225624D01*
X124106304Y-80529431D01*
X123866380Y-79948771D01*
X124009784Y-79667235D01*
X126180252Y-79675780D01*
X125360131Y-80495901D01*
X125731538Y-80867308D01*
X125717545Y-80960358D01*
X125821552Y-81483241D01*
X126077548Y-81599345D01*
X126800893Y-80876000D01*
X126447340Y-80522447D01*
X127154447Y-79815340D01*
X127508000Y-80168893D01*
X127861554Y-79815340D01*
X128568661Y-80522447D01*
X128215107Y-80876000D01*
X128938452Y-81599345D01*
X129194448Y-81483241D01*
X129287539Y-80864231D01*
X129655869Y-80495901D01*
X128846244Y-79686276D01*
X130715394Y-79693635D01*
X130525287Y-79883410D01*
X130258304Y-80526376D01*
X130257696Y-81222569D01*
X130523557Y-81866001D01*
X131015410Y-82358713D01*
X131083000Y-82386779D01*
X131083000Y-85864699D01*
X131017999Y-85891557D01*
X130525287Y-86383410D01*
X130258304Y-87026376D01*
X130257696Y-87722569D01*
X130523557Y-88366001D01*
X131015410Y-88858713D01*
X131658376Y-89125696D01*
X132354569Y-89126304D01*
X132422208Y-89098356D01*
X133073852Y-89750000D01*
X112683850Y-89750000D01*
X113357090Y-89077934D01*
X113469819Y-88806452D01*
X117132655Y-88806452D01*
X117248759Y-89062448D01*
X117940358Y-89166455D01*
X118463241Y-89062448D01*
X118579345Y-88806452D01*
X117856000Y-88083107D01*
X117132655Y-88806452D01*
X113469819Y-88806452D01*
X113781516Y-88055802D01*
X113782035Y-87460358D01*
X116065545Y-87460358D01*
X116169552Y-87983241D01*
X116425548Y-88099345D01*
X117148893Y-87376000D01*
X118563107Y-87376000D01*
X119286452Y-88099345D01*
X119542448Y-87983241D01*
X119646455Y-87291642D01*
X119542448Y-86768759D01*
X119286452Y-86652655D01*
X118563107Y-87376000D01*
X117148893Y-87376000D01*
X116425548Y-86652655D01*
X116169552Y-86768759D01*
X116065545Y-87460358D01*
X113782035Y-87460358D01*
X113782482Y-86949054D01*
X113367842Y-85945548D01*
X117132655Y-85945548D01*
X117856000Y-86668893D01*
X118579345Y-85945548D01*
X118463241Y-85689552D01*
X117771642Y-85585545D01*
X117248759Y-85689552D01*
X117132655Y-85945548D01*
X113367842Y-85945548D01*
X113359840Y-85926182D01*
X112577934Y-85142910D01*
X111555802Y-84718484D01*
X110449054Y-84717518D01*
X109426182Y-85140160D01*
X108642910Y-85922066D01*
X108218484Y-86944198D01*
X108217518Y-88050946D01*
X108640160Y-89073818D01*
X109315163Y-89750000D01*
X101250000Y-89750000D01*
X101250000Y-75440548D01*
X101688077Y-75906503D01*
X101699873Y-75914922D01*
X101707926Y-75926974D01*
X101846346Y-76019464D01*
X101981845Y-76116172D01*
X101995966Y-76119436D01*
X102008018Y-76127489D01*
X102171288Y-76159965D01*
X102333489Y-76197461D01*
X102347786Y-76195073D01*
X102362000Y-76197900D01*
X102667919Y-76197900D01*
X102837283Y-76451371D01*
X103044756Y-76590000D01*
X102837283Y-76728629D01*
X102490447Y-77247707D01*
X102368654Y-77860000D01*
X102490447Y-78472293D01*
X102837283Y-78991371D01*
X103044756Y-79130000D01*
X102837283Y-79268629D01*
X102490447Y-79787707D01*
X102368654Y-80400000D01*
X102490447Y-81012293D01*
X102837283Y-81531371D01*
X103044756Y-81670000D01*
X102837283Y-81808629D01*
X102490447Y-82327707D01*
X102368654Y-82940000D01*
X102490447Y-83552293D01*
X102749998Y-83940739D01*
X102749998Y-84495466D01*
X102534759Y-84817631D01*
X102646664Y-85055000D01*
X103575000Y-85055000D01*
X103575000Y-84630000D01*
X104425000Y-84630000D01*
X104425000Y-85055000D01*
X104850000Y-85055000D01*
X104850000Y-85861852D01*
X104806852Y-85905000D01*
X104425000Y-85905000D01*
X104425000Y-86286852D01*
X104381852Y-86330000D01*
X103575000Y-86330000D01*
X103575000Y-85905000D01*
X102646664Y-85905000D01*
X102534759Y-86142369D01*
X102749998Y-86464534D01*
X102749998Y-87019261D01*
X102490447Y-87407707D01*
X102368654Y-88020000D01*
X102490447Y-88632293D01*
X102837283Y-89151371D01*
X103356361Y-89498207D01*
X103968654Y-89620000D01*
X104031346Y-89620000D01*
X104643639Y-89498207D01*
X105162717Y-89151371D01*
X105509553Y-88632293D01*
X105631346Y-88020000D01*
X105577724Y-87750424D01*
X109823274Y-83504874D01*
X110023789Y-83204782D01*
X110094201Y-82850800D01*
X110094200Y-82850795D01*
X110094200Y-81782000D01*
X111186400Y-81782000D01*
X111186400Y-82055775D01*
X111301798Y-82334372D01*
X111515027Y-82547601D01*
X111793624Y-82663000D01*
X112129900Y-82663000D01*
X112319400Y-82473500D01*
X112319400Y-81592500D01*
X111375900Y-81592500D01*
X111186400Y-81782000D01*
X110094200Y-81782000D01*
X110094200Y-81408391D01*
X110145000Y-81153000D01*
X110145000Y-78414464D01*
X111481761Y-78414464D01*
X111591154Y-78964417D01*
X111839195Y-79049519D01*
X112504315Y-78384400D01*
X111839195Y-77719281D01*
X111591154Y-77804383D01*
X111481761Y-78414464D01*
X110145000Y-78414464D01*
X110145000Y-75871022D01*
X110236628Y-75779554D01*
X110396818Y-75393774D01*
X110397182Y-74976058D01*
X110237666Y-74590000D01*
X109942554Y-74294372D01*
X109556774Y-74134182D01*
X109553828Y-74134179D01*
X109912338Y-73696000D01*
X112385451Y-73696000D01*
X111898629Y-74021283D01*
X111551793Y-74540361D01*
X111430000Y-75152654D01*
X111430000Y-75215346D01*
X111551793Y-75827639D01*
X111898629Y-76346717D01*
X112417707Y-76693553D01*
X112986743Y-76806742D01*
X112489983Y-76905554D01*
X112404881Y-77153595D01*
X113070000Y-77818715D01*
X113735119Y-77153595D01*
X113650017Y-76905554D01*
X113085435Y-76804319D01*
X113642293Y-76693553D01*
X114069491Y-76408109D01*
X114171862Y-76567198D01*
X114422492Y-76738446D01*
X114720000Y-76798693D01*
X116420000Y-76798693D01*
X116697933Y-76746396D01*
X116953198Y-76582138D01*
X116997378Y-76517478D01*
X117443290Y-76726499D01*
X118346307Y-77529670D01*
X118346307Y-78300000D01*
X118398604Y-78577933D01*
X118562862Y-78833198D01*
X118813492Y-79004446D01*
X119111000Y-79064693D01*
X120411000Y-79064693D01*
X120688933Y-79012396D01*
X120944198Y-78848138D01*
X121115446Y-78597508D01*
X121140255Y-78475000D01*
X121713000Y-78475000D01*
X122066983Y-78404589D01*
X122367074Y-78204074D01*
X122729236Y-77841912D01*
X122905634Y-77877000D01*
X122966366Y-77877000D01*
X123559525Y-77759013D01*
X124062382Y-77423016D01*
X124398379Y-76920159D01*
X124516366Y-76327000D01*
X124398379Y-75733841D01*
X124062382Y-75230984D01*
X123559525Y-74894987D01*
X123505942Y-74884329D01*
X126792475Y-73255667D01*
X129035401Y-75947178D01*
X129035401Y-75947178D01*
G37*
X129035401Y-75947178D02*
X129006270Y-76017333D01*
X129005732Y-76633961D01*
X129241208Y-77203857D01*
X129676849Y-77640260D01*
X129717110Y-77656978D01*
X129839516Y-77840172D01*
X123447642Y-77815007D01*
X123303695Y-77843051D01*
X123158046Y-77860309D01*
X123127618Y-77877355D01*
X123093385Y-77884024D01*
X122971124Y-77965022D01*
X122843170Y-78036701D01*
X122821581Y-78064094D01*
X122792506Y-78083356D01*
X122710544Y-78204982D01*
X122619765Y-78320165D01*
X122209368Y-79125871D01*
X122009431Y-79125696D01*
X121365999Y-79391557D01*
X120873287Y-79883410D01*
X120606304Y-80526376D01*
X120605696Y-81222569D01*
X120871557Y-81866001D01*
X121138091Y-82133000D01*
X119126968Y-82133000D01*
X120003869Y-81256099D01*
X119632462Y-80884692D01*
X119646455Y-80791642D01*
X119542448Y-80268759D01*
X119286452Y-80152655D01*
X118563107Y-80876000D01*
X118916661Y-81229554D01*
X118209554Y-81936661D01*
X117856000Y-81583107D01*
X117502447Y-81936661D01*
X116795340Y-81229554D01*
X117148893Y-80876000D01*
X116658380Y-80385487D01*
X116656796Y-80377067D01*
X116495000Y-80125628D01*
X116495000Y-79651133D01*
X116700944Y-79445548D01*
X117132655Y-79445548D01*
X117856000Y-80168893D01*
X118579345Y-79445548D01*
X118463241Y-79189552D01*
X117771642Y-79085545D01*
X117248759Y-79189552D01*
X117132655Y-79445548D01*
X116700944Y-79445548D01*
X116883260Y-79263551D01*
X117119730Y-78694067D01*
X117120268Y-78077439D01*
X116884792Y-77507543D01*
X116449151Y-77071140D01*
X115879667Y-76834670D01*
X115263039Y-76834132D01*
X114693143Y-77069608D01*
X114256740Y-77505249D01*
X114073468Y-77946618D01*
X113635685Y-78384400D01*
X114074010Y-78822725D01*
X114255208Y-79261257D01*
X114645000Y-79651731D01*
X114645000Y-79890307D01*
X114444400Y-79890307D01*
X114166467Y-79942604D01*
X114030652Y-80029998D01*
X113944402Y-80029998D01*
X113944402Y-79897000D01*
X113480325Y-79897000D01*
X113650017Y-79863246D01*
X113735119Y-79615205D01*
X113070000Y-78950085D01*
X112404881Y-79615205D01*
X112489983Y-79863246D01*
X112678228Y-79897000D01*
X111444398Y-79897000D01*
X111444398Y-80083028D01*
X111301798Y-80225628D01*
X111186400Y-80504225D01*
X111186400Y-80778000D01*
X111375900Y-80967500D01*
X112319400Y-80967500D01*
X112319400Y-80655000D01*
X113069400Y-80655000D01*
X113069400Y-80967500D01*
X113444400Y-80967500D01*
X113444400Y-81592500D01*
X113069400Y-81592500D01*
X113069400Y-82473500D01*
X113258900Y-82663000D01*
X113595176Y-82663000D01*
X113873773Y-82547601D01*
X113891372Y-82530002D01*
X114030622Y-82530002D01*
X114146892Y-82609446D01*
X114269400Y-82634255D01*
X114269400Y-82682400D01*
X114339811Y-83036383D01*
X114540326Y-83336474D01*
X114915924Y-83712071D01*
X114915926Y-83712074D01*
X115074306Y-83817900D01*
X115216018Y-83912589D01*
X115570000Y-83983001D01*
X115570005Y-83983000D01*
X121431000Y-83983000D01*
X121431000Y-85864699D01*
X121365999Y-85891557D01*
X120873287Y-86383410D01*
X120606304Y-87026376D01*
X120605696Y-87722569D01*
X120871557Y-88366001D01*
X121363410Y-88858713D01*
X122006376Y-89125696D01*
X122702569Y-89126304D01*
X123346001Y-88860443D01*
X123400086Y-88806452D01*
X126784655Y-88806452D01*
X126900759Y-89062448D01*
X127592358Y-89166455D01*
X128115241Y-89062448D01*
X128231345Y-88806452D01*
X127508000Y-88083107D01*
X126784655Y-88806452D01*
X123400086Y-88806452D01*
X123838713Y-88368590D01*
X124105696Y-87725624D01*
X124105927Y-87460358D01*
X125717545Y-87460358D01*
X125821552Y-87983241D01*
X126077548Y-88099345D01*
X126800893Y-87376000D01*
X128215107Y-87376000D01*
X128938452Y-88099345D01*
X129194448Y-87983241D01*
X129298455Y-87291642D01*
X129194448Y-86768759D01*
X128938452Y-86652655D01*
X128215107Y-87376000D01*
X126800893Y-87376000D01*
X126077548Y-86652655D01*
X125821552Y-86768759D01*
X125717545Y-87460358D01*
X124105927Y-87460358D01*
X124106304Y-87029431D01*
X123840443Y-86385999D01*
X123400760Y-85945548D01*
X126784655Y-85945548D01*
X127508000Y-86668893D01*
X128231345Y-85945548D01*
X128115241Y-85689552D01*
X127423642Y-85585545D01*
X126900759Y-85689552D01*
X126784655Y-85945548D01*
X123400760Y-85945548D01*
X123348590Y-85893287D01*
X123281000Y-85865221D01*
X123281000Y-82387301D01*
X123346001Y-82360443D01*
X123400086Y-82306452D01*
X126784655Y-82306452D01*
X126900759Y-82562448D01*
X127592358Y-82666455D01*
X128115241Y-82562448D01*
X128231345Y-82306452D01*
X127508000Y-81583107D01*
X126784655Y-82306452D01*
X123400086Y-82306452D01*
X123838713Y-81868590D01*
X124105696Y-81225624D01*
X124106304Y-80529431D01*
X123866380Y-79948771D01*
X124009784Y-79667235D01*
X126180252Y-79675780D01*
X125360131Y-80495901D01*
X125731538Y-80867308D01*
X125717545Y-80960358D01*
X125821552Y-81483241D01*
X126077548Y-81599345D01*
X126800893Y-80876000D01*
X126447340Y-80522447D01*
X127154447Y-79815340D01*
X127508000Y-80168893D01*
X127861554Y-79815340D01*
X128568661Y-80522447D01*
X128215107Y-80876000D01*
X128938452Y-81599345D01*
X129194448Y-81483241D01*
X129287539Y-80864231D01*
X129655869Y-80495901D01*
X128846244Y-79686276D01*
X130715394Y-79693635D01*
X130525287Y-79883410D01*
X130258304Y-80526376D01*
X130257696Y-81222569D01*
X130523557Y-81866001D01*
X131015410Y-82358713D01*
X131083000Y-82386779D01*
X131083000Y-85864699D01*
X131017999Y-85891557D01*
X130525287Y-86383410D01*
X130258304Y-87026376D01*
X130257696Y-87722569D01*
X130523557Y-88366001D01*
X131015410Y-88858713D01*
X131658376Y-89125696D01*
X132354569Y-89126304D01*
X132422208Y-89098356D01*
X133073852Y-89750000D01*
X112683850Y-89750000D01*
X113357090Y-89077934D01*
X113469819Y-88806452D01*
X117132655Y-88806452D01*
X117248759Y-89062448D01*
X117940358Y-89166455D01*
X118463241Y-89062448D01*
X118579345Y-88806452D01*
X117856000Y-88083107D01*
X117132655Y-88806452D01*
X113469819Y-88806452D01*
X113781516Y-88055802D01*
X113782035Y-87460358D01*
X116065545Y-87460358D01*
X116169552Y-87983241D01*
X116425548Y-88099345D01*
X117148893Y-87376000D01*
X118563107Y-87376000D01*
X119286452Y-88099345D01*
X119542448Y-87983241D01*
X119646455Y-87291642D01*
X119542448Y-86768759D01*
X119286452Y-86652655D01*
X118563107Y-87376000D01*
X117148893Y-87376000D01*
X116425548Y-86652655D01*
X116169552Y-86768759D01*
X116065545Y-87460358D01*
X113782035Y-87460358D01*
X113782482Y-86949054D01*
X113367842Y-85945548D01*
X117132655Y-85945548D01*
X117856000Y-86668893D01*
X118579345Y-85945548D01*
X118463241Y-85689552D01*
X117771642Y-85585545D01*
X117248759Y-85689552D01*
X117132655Y-85945548D01*
X113367842Y-85945548D01*
X113359840Y-85926182D01*
X112577934Y-85142910D01*
X111555802Y-84718484D01*
X110449054Y-84717518D01*
X109426182Y-85140160D01*
X108642910Y-85922066D01*
X108218484Y-86944198D01*
X108217518Y-88050946D01*
X108640160Y-89073818D01*
X109315163Y-89750000D01*
X101250000Y-89750000D01*
X101250000Y-75440548D01*
X101688077Y-75906503D01*
X101699873Y-75914922D01*
X101707926Y-75926974D01*
X101846346Y-76019464D01*
X101981845Y-76116172D01*
X101995966Y-76119436D01*
X102008018Y-76127489D01*
X102171288Y-76159965D01*
X102333489Y-76197461D01*
X102347786Y-76195073D01*
X102362000Y-76197900D01*
X102667919Y-76197900D01*
X102837283Y-76451371D01*
X103044756Y-76590000D01*
X102837283Y-76728629D01*
X102490447Y-77247707D01*
X102368654Y-77860000D01*
X102490447Y-78472293D01*
X102837283Y-78991371D01*
X103044756Y-79130000D01*
X102837283Y-79268629D01*
X102490447Y-79787707D01*
X102368654Y-80400000D01*
X102490447Y-81012293D01*
X102837283Y-81531371D01*
X103044756Y-81670000D01*
X102837283Y-81808629D01*
X102490447Y-82327707D01*
X102368654Y-82940000D01*
X102490447Y-83552293D01*
X102749998Y-83940739D01*
X102749998Y-84495466D01*
X102534759Y-84817631D01*
X102646664Y-85055000D01*
X103575000Y-85055000D01*
X103575000Y-84630000D01*
X104425000Y-84630000D01*
X104425000Y-85055000D01*
X104850000Y-85055000D01*
X104850000Y-85861852D01*
X104806852Y-85905000D01*
X104425000Y-85905000D01*
X104425000Y-86286852D01*
X104381852Y-86330000D01*
X103575000Y-86330000D01*
X103575000Y-85905000D01*
X102646664Y-85905000D01*
X102534759Y-86142369D01*
X102749998Y-86464534D01*
X102749998Y-87019261D01*
X102490447Y-87407707D01*
X102368654Y-88020000D01*
X102490447Y-88632293D01*
X102837283Y-89151371D01*
X103356361Y-89498207D01*
X103968654Y-89620000D01*
X104031346Y-89620000D01*
X104643639Y-89498207D01*
X105162717Y-89151371D01*
X105509553Y-88632293D01*
X105631346Y-88020000D01*
X105577724Y-87750424D01*
X109823274Y-83504874D01*
X110023789Y-83204782D01*
X110094201Y-82850800D01*
X110094200Y-82850795D01*
X110094200Y-81782000D01*
X111186400Y-81782000D01*
X111186400Y-82055775D01*
X111301798Y-82334372D01*
X111515027Y-82547601D01*
X111793624Y-82663000D01*
X112129900Y-82663000D01*
X112319400Y-82473500D01*
X112319400Y-81592500D01*
X111375900Y-81592500D01*
X111186400Y-81782000D01*
X110094200Y-81782000D01*
X110094200Y-81408391D01*
X110145000Y-81153000D01*
X110145000Y-78414464D01*
X111481761Y-78414464D01*
X111591154Y-78964417D01*
X111839195Y-79049519D01*
X112504315Y-78384400D01*
X111839195Y-77719281D01*
X111591154Y-77804383D01*
X111481761Y-78414464D01*
X110145000Y-78414464D01*
X110145000Y-75871022D01*
X110236628Y-75779554D01*
X110396818Y-75393774D01*
X110397182Y-74976058D01*
X110237666Y-74590000D01*
X109942554Y-74294372D01*
X109556774Y-74134182D01*
X109553828Y-74134179D01*
X109912338Y-73696000D01*
X112385451Y-73696000D01*
X111898629Y-74021283D01*
X111551793Y-74540361D01*
X111430000Y-75152654D01*
X111430000Y-75215346D01*
X111551793Y-75827639D01*
X111898629Y-76346717D01*
X112417707Y-76693553D01*
X112986743Y-76806742D01*
X112489983Y-76905554D01*
X112404881Y-77153595D01*
X113070000Y-77818715D01*
X113735119Y-77153595D01*
X113650017Y-76905554D01*
X113085435Y-76804319D01*
X113642293Y-76693553D01*
X114069491Y-76408109D01*
X114171862Y-76567198D01*
X114422492Y-76738446D01*
X114720000Y-76798693D01*
X116420000Y-76798693D01*
X116697933Y-76746396D01*
X116953198Y-76582138D01*
X116997378Y-76517478D01*
X117443290Y-76726499D01*
X118346307Y-77529670D01*
X118346307Y-78300000D01*
X118398604Y-78577933D01*
X118562862Y-78833198D01*
X118813492Y-79004446D01*
X119111000Y-79064693D01*
X120411000Y-79064693D01*
X120688933Y-79012396D01*
X120944198Y-78848138D01*
X121115446Y-78597508D01*
X121140255Y-78475000D01*
X121713000Y-78475000D01*
X122066983Y-78404589D01*
X122367074Y-78204074D01*
X122729236Y-77841912D01*
X122905634Y-77877000D01*
X122966366Y-77877000D01*
X123559525Y-77759013D01*
X124062382Y-77423016D01*
X124398379Y-76920159D01*
X124516366Y-76327000D01*
X124398379Y-75733841D01*
X124062382Y-75230984D01*
X123559525Y-74894987D01*
X123505942Y-74884329D01*
X126792475Y-73255667D01*
X129035401Y-75947178D01*
G36*
X136336400Y-54563293D02*
X136680054Y-54219639D01*
X136793025Y-54312811D01*
X137071707Y-54591493D01*
X137071707Y-55242200D01*
X137043507Y-55270400D01*
X137071707Y-55298600D01*
X137071707Y-55949307D01*
X136689954Y-56331061D01*
X136336400Y-55977507D01*
X135613055Y-56700852D01*
X135729159Y-56956848D01*
X136348169Y-57049939D01*
X136716499Y-57418269D01*
X137313753Y-56821015D01*
X137538892Y-56974846D01*
X137836400Y-57035093D01*
X139678208Y-57035093D01*
X142498014Y-60405707D01*
X140936400Y-60405707D01*
X140658467Y-60458004D01*
X140403202Y-60622262D01*
X140231954Y-60872892D01*
X140171707Y-61170400D01*
X140171707Y-64370400D01*
X140224004Y-64648333D01*
X140388262Y-64903598D01*
X140638892Y-65074846D01*
X140936400Y-65135093D01*
X142839000Y-65135093D01*
X142839000Y-78131421D01*
X141965433Y-79126265D01*
X141313431Y-79125696D01*
X140669999Y-79391557D01*
X140177287Y-79883410D01*
X139910304Y-80526376D01*
X139909696Y-81222569D01*
X140175557Y-81866001D01*
X140667410Y-82358713D01*
X140735000Y-82386779D01*
X140735000Y-85864699D01*
X140669999Y-85891557D01*
X140177287Y-86383410D01*
X139910304Y-87026376D01*
X139909696Y-87722569D01*
X140171425Y-88356000D01*
X138707968Y-88356000D01*
X139307869Y-87756099D01*
X138936462Y-87384692D01*
X138950455Y-87291642D01*
X138846448Y-86768759D01*
X138590452Y-86652655D01*
X137867107Y-87376000D01*
X138220661Y-87729554D01*
X137594214Y-88356000D01*
X137432893Y-88356000D01*
X137160000Y-88083107D01*
X136887107Y-88356000D01*
X136725786Y-88356000D01*
X136099340Y-87729554D01*
X136452893Y-87376000D01*
X135729548Y-86652655D01*
X135473552Y-86768759D01*
X135380461Y-87387769D01*
X135012131Y-87756099D01*
X135612032Y-88356000D01*
X134296148Y-88356000D01*
X133730725Y-87790577D01*
X133757696Y-87725624D01*
X133758304Y-87029431D01*
X133492443Y-86385999D01*
X133052760Y-85945548D01*
X136436655Y-85945548D01*
X137160000Y-86668893D01*
X137883345Y-85945548D01*
X137767241Y-85689552D01*
X137075642Y-85585545D01*
X136552759Y-85689552D01*
X136436655Y-85945548D01*
X133052760Y-85945548D01*
X133000590Y-85893287D01*
X132933000Y-85865221D01*
X132933000Y-82387301D01*
X132998001Y-82360443D01*
X133052086Y-82306452D01*
X136436655Y-82306452D01*
X136552759Y-82562448D01*
X137244358Y-82666455D01*
X137767241Y-82562448D01*
X137883345Y-82306452D01*
X137160000Y-81583107D01*
X136436655Y-82306452D01*
X133052086Y-82306452D01*
X133490713Y-81868590D01*
X133757696Y-81225624D01*
X133758304Y-80529431D01*
X133492443Y-79885999D01*
X133310614Y-79703852D01*
X135794401Y-79713631D01*
X135012131Y-80495901D01*
X135383538Y-80867308D01*
X135369545Y-80960358D01*
X135473552Y-81483241D01*
X135729548Y-81599345D01*
X136452893Y-80876000D01*
X136099340Y-80522447D01*
X136806447Y-79815340D01*
X137160000Y-80168893D01*
X137513554Y-79815340D01*
X138220661Y-80522447D01*
X137867107Y-80876000D01*
X138590452Y-81599345D01*
X138846448Y-81483241D01*
X138939539Y-80864231D01*
X139307869Y-80495901D01*
X138536394Y-79724426D01*
X138680358Y-79724993D01*
X138787137Y-79704190D01*
X138895863Y-79700411D01*
X138962616Y-79670003D01*
X139034615Y-79655976D01*
X139125310Y-79595891D01*
X139224308Y-79550794D01*
X141954808Y-77585795D01*
X142006078Y-77530832D01*
X142068574Y-77489074D01*
X142128016Y-77400113D01*
X142200996Y-77321877D01*
X142227330Y-77251479D01*
X142269089Y-77188982D01*
X142289962Y-77084045D01*
X142327447Y-76983837D01*
X142324836Y-76908721D01*
X142339500Y-76835000D01*
X142339500Y-70866000D01*
X142269089Y-70512018D01*
X142068574Y-70211926D01*
X142068571Y-70211924D01*
X140947574Y-69090926D01*
X140940751Y-69086367D01*
X140936074Y-69079625D01*
X140790971Y-68986287D01*
X140647483Y-68890411D01*
X140639434Y-68888810D01*
X140632533Y-68884371D01*
X140462750Y-68853666D01*
X140341120Y-68829472D01*
X140320843Y-68780399D01*
X139828990Y-68287687D01*
X139186024Y-68020704D01*
X138489831Y-68020096D01*
X137846399Y-68285957D01*
X137839557Y-68292787D01*
X134985010Y-66977852D01*
X134970092Y-66974275D01*
X134957388Y-66965670D01*
X134795134Y-66932327D01*
X134634041Y-66893702D01*
X134618886Y-66896107D01*
X134603859Y-66893019D01*
X121867224Y-66812354D01*
X121811102Y-66728361D01*
X121811102Y-66173634D01*
X122026341Y-65851469D01*
X121914436Y-65614100D01*
X120986100Y-65614100D01*
X120986100Y-66039100D01*
X120136100Y-66039100D01*
X120136100Y-65614100D01*
X119711100Y-65614100D01*
X119711100Y-64764100D01*
X120136100Y-64764100D01*
X120136100Y-64339100D01*
X120986100Y-64339100D01*
X120986100Y-64764100D01*
X121914436Y-64764100D01*
X122026341Y-64526731D01*
X121811102Y-64204566D01*
X121811102Y-63649839D01*
X122070653Y-63261393D01*
X122192446Y-62649100D01*
X122070653Y-62036807D01*
X121723817Y-61517729D01*
X121516344Y-61379100D01*
X121723817Y-61240471D01*
X122070653Y-60721393D01*
X122185490Y-60144071D01*
X123667607Y-61608207D01*
X123667607Y-61812045D01*
X122815326Y-62664326D01*
X122614811Y-62964417D01*
X122565501Y-63212316D01*
X122544400Y-63318400D01*
X122544400Y-65468500D01*
X122614811Y-65822483D01*
X122815326Y-66122574D01*
X123234426Y-66541674D01*
X123534517Y-66742189D01*
X123888500Y-66812600D01*
X126428500Y-66812600D01*
X126782483Y-66742189D01*
X127082574Y-66541674D01*
X127913474Y-65710774D01*
X127999762Y-65693610D01*
X128767865Y-66461713D01*
X128772002Y-66464477D01*
X128774810Y-66468585D01*
X128921870Y-66564616D01*
X129067957Y-66662228D01*
X129072839Y-66663199D01*
X129077004Y-66665919D01*
X129249560Y-66698351D01*
X129421939Y-66732640D01*
X129426823Y-66731668D01*
X129431710Y-66732587D01*
X131480170Y-66710948D01*
X131603185Y-66685125D01*
X131728426Y-66674284D01*
X131778343Y-66648357D01*
X131833389Y-66636802D01*
X131937163Y-66565866D01*
X132048716Y-66507925D01*
X134410916Y-64615625D01*
X134443836Y-64576466D01*
X134486386Y-64548062D01*
X134559054Y-64439410D01*
X134643163Y-64339360D01*
X134658591Y-64290585D01*
X134687033Y-64248059D01*
X134712591Y-64119867D01*
X134752009Y-63995247D01*
X134747597Y-63944280D01*
X134757600Y-63894108D01*
X134760734Y-56781976D01*
X134826401Y-56754843D01*
X135319113Y-56262990D01*
X135586096Y-55620024D01*
X135586364Y-55313329D01*
X135629293Y-55270400D01*
X135586439Y-55227546D01*
X135586704Y-54923831D01*
X135493741Y-54698845D01*
X135982847Y-54209740D01*
X136336400Y-54563293D01*
X136336400Y-54563293D01*
G37*
X136336400Y-54563293D02*
X136680054Y-54219639D01*
X136793025Y-54312811D01*
X137071707Y-54591493D01*
X137071707Y-55242200D01*
X137043507Y-55270400D01*
X137071707Y-55298600D01*
X137071707Y-55949307D01*
X136689954Y-56331061D01*
X136336400Y-55977507D01*
X135613055Y-56700852D01*
X135729159Y-56956848D01*
X136348169Y-57049939D01*
X136716499Y-57418269D01*
X137313753Y-56821015D01*
X137538892Y-56974846D01*
X137836400Y-57035093D01*
X139678208Y-57035093D01*
X142498014Y-60405707D01*
X140936400Y-60405707D01*
X140658467Y-60458004D01*
X140403202Y-60622262D01*
X140231954Y-60872892D01*
X140171707Y-61170400D01*
X140171707Y-64370400D01*
X140224004Y-64648333D01*
X140388262Y-64903598D01*
X140638892Y-65074846D01*
X140936400Y-65135093D01*
X142839000Y-65135093D01*
X142839000Y-78131421D01*
X141965433Y-79126265D01*
X141313431Y-79125696D01*
X140669999Y-79391557D01*
X140177287Y-79883410D01*
X139910304Y-80526376D01*
X139909696Y-81222569D01*
X140175557Y-81866001D01*
X140667410Y-82358713D01*
X140735000Y-82386779D01*
X140735000Y-85864699D01*
X140669999Y-85891557D01*
X140177287Y-86383410D01*
X139910304Y-87026376D01*
X139909696Y-87722569D01*
X140171425Y-88356000D01*
X138707968Y-88356000D01*
X139307869Y-87756099D01*
X138936462Y-87384692D01*
X138950455Y-87291642D01*
X138846448Y-86768759D01*
X138590452Y-86652655D01*
X137867107Y-87376000D01*
X138220661Y-87729554D01*
X137594214Y-88356000D01*
X137432893Y-88356000D01*
X137160000Y-88083107D01*
X136887107Y-88356000D01*
X136725786Y-88356000D01*
X136099340Y-87729554D01*
X136452893Y-87376000D01*
X135729548Y-86652655D01*
X135473552Y-86768759D01*
X135380461Y-87387769D01*
X135012131Y-87756099D01*
X135612032Y-88356000D01*
X134296148Y-88356000D01*
X133730725Y-87790577D01*
X133757696Y-87725624D01*
X133758304Y-87029431D01*
X133492443Y-86385999D01*
X133052760Y-85945548D01*
X136436655Y-85945548D01*
X137160000Y-86668893D01*
X137883345Y-85945548D01*
X137767241Y-85689552D01*
X137075642Y-85585545D01*
X136552759Y-85689552D01*
X136436655Y-85945548D01*
X133052760Y-85945548D01*
X133000590Y-85893287D01*
X132933000Y-85865221D01*
X132933000Y-82387301D01*
X132998001Y-82360443D01*
X133052086Y-82306452D01*
X136436655Y-82306452D01*
X136552759Y-82562448D01*
X137244358Y-82666455D01*
X137767241Y-82562448D01*
X137883345Y-82306452D01*
X137160000Y-81583107D01*
X136436655Y-82306452D01*
X133052086Y-82306452D01*
X133490713Y-81868590D01*
X133757696Y-81225624D01*
X133758304Y-80529431D01*
X133492443Y-79885999D01*
X133310614Y-79703852D01*
X135794401Y-79713631D01*
X135012131Y-80495901D01*
X135383538Y-80867308D01*
X135369545Y-80960358D01*
X135473552Y-81483241D01*
X135729548Y-81599345D01*
X136452893Y-80876000D01*
X136099340Y-80522447D01*
X136806447Y-79815340D01*
X137160000Y-80168893D01*
X137513554Y-79815340D01*
X138220661Y-80522447D01*
X137867107Y-80876000D01*
X138590452Y-81599345D01*
X138846448Y-81483241D01*
X138939539Y-80864231D01*
X139307869Y-80495901D01*
X138536394Y-79724426D01*
X138680358Y-79724993D01*
X138787137Y-79704190D01*
X138895863Y-79700411D01*
X138962616Y-79670003D01*
X139034615Y-79655976D01*
X139125310Y-79595891D01*
X139224308Y-79550794D01*
X141954808Y-77585795D01*
X142006078Y-77530832D01*
X142068574Y-77489074D01*
X142128016Y-77400113D01*
X142200996Y-77321877D01*
X142227330Y-77251479D01*
X142269089Y-77188982D01*
X142289962Y-77084045D01*
X142327447Y-76983837D01*
X142324836Y-76908721D01*
X142339500Y-76835000D01*
X142339500Y-70866000D01*
X142269089Y-70512018D01*
X142068574Y-70211926D01*
X142068571Y-70211924D01*
X140947574Y-69090926D01*
X140940751Y-69086367D01*
X140936074Y-69079625D01*
X140790971Y-68986287D01*
X140647483Y-68890411D01*
X140639434Y-68888810D01*
X140632533Y-68884371D01*
X140462750Y-68853666D01*
X140341120Y-68829472D01*
X140320843Y-68780399D01*
X139828990Y-68287687D01*
X139186024Y-68020704D01*
X138489831Y-68020096D01*
X137846399Y-68285957D01*
X137839557Y-68292787D01*
X134985010Y-66977852D01*
X134970092Y-66974275D01*
X134957388Y-66965670D01*
X134795134Y-66932327D01*
X134634041Y-66893702D01*
X134618886Y-66896107D01*
X134603859Y-66893019D01*
X121867224Y-66812354D01*
X121811102Y-66728361D01*
X121811102Y-66173634D01*
X122026341Y-65851469D01*
X121914436Y-65614100D01*
X120986100Y-65614100D01*
X120986100Y-66039100D01*
X120136100Y-66039100D01*
X120136100Y-65614100D01*
X119711100Y-65614100D01*
X119711100Y-64764100D01*
X120136100Y-64764100D01*
X120136100Y-64339100D01*
X120986100Y-64339100D01*
X120986100Y-64764100D01*
X121914436Y-64764100D01*
X122026341Y-64526731D01*
X121811102Y-64204566D01*
X121811102Y-63649839D01*
X122070653Y-63261393D01*
X122192446Y-62649100D01*
X122070653Y-62036807D01*
X121723817Y-61517729D01*
X121516344Y-61379100D01*
X121723817Y-61240471D01*
X122070653Y-60721393D01*
X122185490Y-60144071D01*
X123667607Y-61608207D01*
X123667607Y-61812045D01*
X122815326Y-62664326D01*
X122614811Y-62964417D01*
X122565501Y-63212316D01*
X122544400Y-63318400D01*
X122544400Y-65468500D01*
X122614811Y-65822483D01*
X122815326Y-66122574D01*
X123234426Y-66541674D01*
X123534517Y-66742189D01*
X123888500Y-66812600D01*
X126428500Y-66812600D01*
X126782483Y-66742189D01*
X127082574Y-66541674D01*
X127913474Y-65710774D01*
X127999762Y-65693610D01*
X128767865Y-66461713D01*
X128772002Y-66464477D01*
X128774810Y-66468585D01*
X128921870Y-66564616D01*
X129067957Y-66662228D01*
X129072839Y-66663199D01*
X129077004Y-66665919D01*
X129249560Y-66698351D01*
X129421939Y-66732640D01*
X129426823Y-66731668D01*
X129431710Y-66732587D01*
X131480170Y-66710948D01*
X131603185Y-66685125D01*
X131728426Y-66674284D01*
X131778343Y-66648357D01*
X131833389Y-66636802D01*
X131937163Y-66565866D01*
X132048716Y-66507925D01*
X134410916Y-64615625D01*
X134443836Y-64576466D01*
X134486386Y-64548062D01*
X134559054Y-64439410D01*
X134643163Y-64339360D01*
X134658591Y-64290585D01*
X134687033Y-64248059D01*
X134712591Y-64119867D01*
X134752009Y-63995247D01*
X134747597Y-63944280D01*
X134757600Y-63894108D01*
X134760734Y-56781976D01*
X134826401Y-56754843D01*
X135319113Y-56262990D01*
X135586096Y-55620024D01*
X135586364Y-55313329D01*
X135629293Y-55270400D01*
X135586439Y-55227546D01*
X135586704Y-54923831D01*
X135493741Y-54698845D01*
X135982847Y-54209740D01*
X136336400Y-54563293D01*
G36*
X132350050Y-68728782D02*
X131688531Y-69390301D01*
X132059938Y-69761708D01*
X132045945Y-69854758D01*
X132149952Y-70377641D01*
X132405948Y-70493745D01*
X133129293Y-69770400D01*
X132775740Y-69416847D01*
X133456795Y-68735791D01*
X133509230Y-68736123D01*
X133836400Y-69063293D01*
X134159452Y-68740241D01*
X134220844Y-68740630D01*
X134897061Y-69416847D01*
X134543507Y-69770400D01*
X134897061Y-70123954D01*
X134189954Y-70831061D01*
X133836400Y-70477507D01*
X133113055Y-71200852D01*
X133229159Y-71456848D01*
X133848169Y-71549939D01*
X133908268Y-71610038D01*
X133316609Y-71959918D01*
X132957525Y-71719987D01*
X132364366Y-71602000D01*
X132303634Y-71602000D01*
X131710475Y-71719987D01*
X131207618Y-72055984D01*
X130871621Y-72558841D01*
X130753634Y-73152000D01*
X130871621Y-73745159D01*
X131207618Y-74248016D01*
X131710475Y-74584013D01*
X132303634Y-74702000D01*
X132364366Y-74702000D01*
X132368108Y-74701256D01*
X133660307Y-75993455D01*
X133660307Y-76850000D01*
X133712604Y-77127933D01*
X133746108Y-77180000D01*
X131880119Y-77180000D01*
X132105730Y-76636667D01*
X132106268Y-76020039D01*
X131870792Y-75450143D01*
X131435151Y-75013740D01*
X130865667Y-74777270D01*
X130468350Y-74776923D01*
X128826407Y-72806591D01*
X128948260Y-72684951D01*
X129184730Y-72115467D01*
X129185268Y-71498839D01*
X128949792Y-70928943D01*
X128514151Y-70492540D01*
X127944667Y-70256070D01*
X127328039Y-70255532D01*
X126895580Y-70434220D01*
X123157002Y-68670559D01*
X132350050Y-68728782D01*
X132350050Y-68728782D01*
G37*
X132350050Y-68728782D02*
X131688531Y-69390301D01*
X132059938Y-69761708D01*
X132045945Y-69854758D01*
X132149952Y-70377641D01*
X132405948Y-70493745D01*
X133129293Y-69770400D01*
X132775740Y-69416847D01*
X133456795Y-68735791D01*
X133509230Y-68736123D01*
X133836400Y-69063293D01*
X134159452Y-68740241D01*
X134220844Y-68740630D01*
X134897061Y-69416847D01*
X134543507Y-69770400D01*
X134897061Y-70123954D01*
X134189954Y-70831061D01*
X133836400Y-70477507D01*
X133113055Y-71200852D01*
X133229159Y-71456848D01*
X133848169Y-71549939D01*
X133908268Y-71610038D01*
X133316609Y-71959918D01*
X132957525Y-71719987D01*
X132364366Y-71602000D01*
X132303634Y-71602000D01*
X131710475Y-71719987D01*
X131207618Y-72055984D01*
X130871621Y-72558841D01*
X130753634Y-73152000D01*
X130871621Y-73745159D01*
X131207618Y-74248016D01*
X131710475Y-74584013D01*
X132303634Y-74702000D01*
X132364366Y-74702000D01*
X132368108Y-74701256D01*
X133660307Y-75993455D01*
X133660307Y-76850000D01*
X133712604Y-77127933D01*
X133746108Y-77180000D01*
X131880119Y-77180000D01*
X132105730Y-76636667D01*
X132106268Y-76020039D01*
X131870792Y-75450143D01*
X131435151Y-75013740D01*
X130865667Y-74777270D01*
X130468350Y-74776923D01*
X128826407Y-72806591D01*
X128948260Y-72684951D01*
X129184730Y-72115467D01*
X129185268Y-71498839D01*
X128949792Y-70928943D01*
X128514151Y-70492540D01*
X127944667Y-70256070D01*
X127328039Y-70255532D01*
X126895580Y-70434220D01*
X123157002Y-68670559D01*
X132350050Y-68728782D01*
G36*
X147427503Y-60534151D02*
X147376881Y-60681695D01*
X148042000Y-61346815D01*
X148141083Y-61247731D01*
X148706769Y-61813417D01*
X148607685Y-61912500D01*
X148871500Y-62176315D01*
X148871500Y-62214371D01*
X148324843Y-62761028D01*
X148042000Y-62478185D01*
X147376881Y-63143305D01*
X147449283Y-63354331D01*
X147205143Y-63455208D01*
X146768740Y-63890849D01*
X146585468Y-64332218D01*
X146147685Y-64770000D01*
X146586010Y-65208325D01*
X146767208Y-65646857D01*
X147202849Y-66083260D01*
X147772333Y-66319730D01*
X148388961Y-66320268D01*
X148871500Y-66120887D01*
X148871500Y-74239000D01*
X146847964Y-74239000D01*
X146828596Y-74136067D01*
X146741202Y-74000252D01*
X146741202Y-73860972D01*
X146758801Y-73843373D01*
X146874200Y-73564776D01*
X146874200Y-73228500D01*
X146684700Y-73039000D01*
X145803700Y-73039000D01*
X145803700Y-73414000D01*
X145178700Y-73414000D01*
X145178700Y-73039000D01*
X144866200Y-73039000D01*
X144866200Y-72289000D01*
X145178700Y-72289000D01*
X145178700Y-71643800D01*
X145229500Y-71593000D01*
X145229500Y-71345500D01*
X145803700Y-71345500D01*
X145803700Y-72289000D01*
X146684700Y-72289000D01*
X146874200Y-72099500D01*
X146874200Y-71763224D01*
X146764672Y-71498802D01*
X146809601Y-71453873D01*
X146925000Y-71175276D01*
X146925000Y-70839000D01*
X146735500Y-70649500D01*
X145854500Y-70649500D01*
X145854500Y-71294700D01*
X145803700Y-71345500D01*
X145229500Y-71345500D01*
X145229500Y-70649500D01*
X144917000Y-70649500D01*
X144917000Y-69899500D01*
X145229500Y-69899500D01*
X145229500Y-69524500D01*
X145854500Y-69524500D01*
X145854500Y-69899500D01*
X146735500Y-69899500D01*
X146925000Y-69710000D01*
X146925000Y-69373724D01*
X146809601Y-69095127D01*
X146792002Y-69077528D01*
X146792002Y-68938278D01*
X146871446Y-68822008D01*
X146931693Y-68524500D01*
X146931693Y-67024500D01*
X146879396Y-66746567D01*
X146715138Y-66491302D01*
X146464508Y-66320054D01*
X146167000Y-66259807D01*
X146106913Y-66259807D01*
X146162017Y-66248846D01*
X146247119Y-66000805D01*
X145582000Y-65335685D01*
X145299157Y-65618528D01*
X144733472Y-65052843D01*
X145016315Y-64770000D01*
X144733472Y-64487157D01*
X145299157Y-63921472D01*
X145582000Y-64204315D01*
X146247119Y-63539195D01*
X146174717Y-63328169D01*
X146418857Y-63227292D01*
X146855260Y-62791651D01*
X147038532Y-62350282D01*
X147476315Y-61912500D01*
X147037990Y-61474175D01*
X146856792Y-61035643D01*
X146421151Y-60599240D01*
X145851667Y-60362770D01*
X145235039Y-60362232D01*
X144689000Y-60587850D01*
X144689000Y-60477400D01*
X144661653Y-60339915D01*
X144646598Y-60200550D01*
X144626687Y-60164130D01*
X144618589Y-60123418D01*
X144540710Y-60006864D01*
X144473469Y-59883869D01*
X140601093Y-55255081D01*
X140601093Y-54270400D01*
X140576180Y-54138000D01*
X141031352Y-54138000D01*
X147427503Y-60534151D01*
X147427503Y-60534151D01*
G37*
X147427503Y-60534151D02*
X147376881Y-60681695D01*
X148042000Y-61346815D01*
X148141083Y-61247731D01*
X148706769Y-61813417D01*
X148607685Y-61912500D01*
X148871500Y-62176315D01*
X148871500Y-62214371D01*
X148324843Y-62761028D01*
X148042000Y-62478185D01*
X147376881Y-63143305D01*
X147449283Y-63354331D01*
X147205143Y-63455208D01*
X146768740Y-63890849D01*
X146585468Y-64332218D01*
X146147685Y-64770000D01*
X146586010Y-65208325D01*
X146767208Y-65646857D01*
X147202849Y-66083260D01*
X147772333Y-66319730D01*
X148388961Y-66320268D01*
X148871500Y-66120887D01*
X148871500Y-74239000D01*
X146847964Y-74239000D01*
X146828596Y-74136067D01*
X146741202Y-74000252D01*
X146741202Y-73860972D01*
X146758801Y-73843373D01*
X146874200Y-73564776D01*
X146874200Y-73228500D01*
X146684700Y-73039000D01*
X145803700Y-73039000D01*
X145803700Y-73414000D01*
X145178700Y-73414000D01*
X145178700Y-73039000D01*
X144866200Y-73039000D01*
X144866200Y-72289000D01*
X145178700Y-72289000D01*
X145178700Y-71643800D01*
X145229500Y-71593000D01*
X145229500Y-71345500D01*
X145803700Y-71345500D01*
X145803700Y-72289000D01*
X146684700Y-72289000D01*
X146874200Y-72099500D01*
X146874200Y-71763224D01*
X146764672Y-71498802D01*
X146809601Y-71453873D01*
X146925000Y-71175276D01*
X146925000Y-70839000D01*
X146735500Y-70649500D01*
X145854500Y-70649500D01*
X145854500Y-71294700D01*
X145803700Y-71345500D01*
X145229500Y-71345500D01*
X145229500Y-70649500D01*
X144917000Y-70649500D01*
X144917000Y-69899500D01*
X145229500Y-69899500D01*
X145229500Y-69524500D01*
X145854500Y-69524500D01*
X145854500Y-69899500D01*
X146735500Y-69899500D01*
X146925000Y-69710000D01*
X146925000Y-69373724D01*
X146809601Y-69095127D01*
X146792002Y-69077528D01*
X146792002Y-68938278D01*
X146871446Y-68822008D01*
X146931693Y-68524500D01*
X146931693Y-67024500D01*
X146879396Y-66746567D01*
X146715138Y-66491302D01*
X146464508Y-66320054D01*
X146167000Y-66259807D01*
X146106913Y-66259807D01*
X146162017Y-66248846D01*
X146247119Y-66000805D01*
X145582000Y-65335685D01*
X145299157Y-65618528D01*
X144733472Y-65052843D01*
X145016315Y-64770000D01*
X144733472Y-64487157D01*
X145299157Y-63921472D01*
X145582000Y-64204315D01*
X146247119Y-63539195D01*
X146174717Y-63328169D01*
X146418857Y-63227292D01*
X146855260Y-62791651D01*
X147038532Y-62350282D01*
X147476315Y-61912500D01*
X147037990Y-61474175D01*
X146856792Y-61035643D01*
X146421151Y-60599240D01*
X145851667Y-60362770D01*
X145235039Y-60362232D01*
X144689000Y-60587850D01*
X144689000Y-60477400D01*
X144661653Y-60339915D01*
X144646598Y-60200550D01*
X144626687Y-60164130D01*
X144618589Y-60123418D01*
X144540710Y-60006864D01*
X144473469Y-59883869D01*
X140601093Y-55255081D01*
X140601093Y-54270400D01*
X140576180Y-54138000D01*
X141031352Y-54138000D01*
X147427503Y-60534151D01*
M02*
