M48
;DRILL file {KiCad 4.0.7} date 10/22/19 22:36:23
;FORMAT={-:-/ absolute / metric / decimal}
FMAT,2
METRIC,TZ
T1C0.400
T2C0.800
T3C1.000
T4C1.100
T5C1.500
T6C3.048
%
G90
G05
M71
T1
X100.965Y-61.468
X107.315Y-76.581
X107.823Y-62.484
X107.95Y-79.629
X109.347Y-75.184
X112.014Y-63.627
X136.334Y-53.276
T2
X122.936Y-76.327
X124.46Y-54.483
X124.46Y-62.103
X124.46Y-64.262
X124.46Y-71.882
X130.556Y-76.327
X132.334Y-73.152
X139.954Y-73.152
T3
X104.Y-55.
X104.Y-57.54
X104.Y-60.08
X104.Y-62.62
X104.Y-65.16
X104.Y-67.7
X104.Y-70.24
X104.Y-72.78
X104.Y-75.32
X104.Y-77.86
X104.Y-80.4
X104.Y-82.94
X104.Y-85.48
X104.Y-88.02
X113.157Y-77.47
X114.935Y-55.118
X114.935Y-57.658
X114.935Y-60.198
X114.935Y-62.738
X114.935Y-65.278
X114.935Y-67.818
X114.935Y-70.358
X115.697Y-77.47
X117.475Y-55.118
X117.475Y-57.658
X117.475Y-60.198
X117.475Y-62.738
X117.475Y-65.278
X117.475Y-67.818
X117.475Y-70.358
X131.525Y-55.245
X131.525Y-69.745
X134.025Y-55.245
X136.525Y-55.245
X136.525Y-69.745
T4
X114.935Y-81.13
X114.935Y-87.63
X119.435Y-81.13
X119.435Y-87.63
X125.095Y-81.13
X125.095Y-87.63
X129.595Y-81.13
X129.595Y-87.63
X135.255Y-81.13
X135.255Y-87.63
X139.755Y-81.13
X139.755Y-87.63
T6
X99.Y-93.5
X99.025Y-49.5
X142.Y-49.5
X142.Y-93.5
T5
X128.425Y-62.095G85X128.425Y-63.395
G05
X139.625Y-62.095G85X139.625Y-63.395
G05
T0
M30
