G04 #@! TF.FileFunction,Copper,L1,Top,Signal*
%FSLAX46Y46*%
G04 Gerber Fmt 4.6, Leading zero omitted, Abs format (unit mm)*
G04 Created by KiCad (PCBNEW 4.0.7) date 10/23/19 08:34:23*
%MOMM*%
%LPD*%
G01*
G04 APERTURE LIST*
%ADD10C,0.100000*%
%ADD11C,1.600000*%
%ADD12O,1.600000X1.600000*%
%ADD13R,1.700000X1.700000*%
%ADD14O,1.700000X1.700000*%
%ADD15C,2.000000*%
%ADD16R,2.000000X3.200000*%
%ADD17R,2.000000X2.000000*%
%ADD18C,4.064000*%
%ADD19C,0.600000*%
%ADD20C,0.350000*%
%ADD21C,0.500000*%
G04 APERTURE END LIST*
D10*
D11*
X127635000Y-61988700D03*
D12*
X127635000Y-54368700D03*
D13*
X118021100Y-70269100D03*
D14*
X120561100Y-70269100D03*
X118021100Y-67729100D03*
X120561100Y-67729100D03*
X118021100Y-65189100D03*
X120561100Y-65189100D03*
X118021100Y-62649100D03*
X120561100Y-62649100D03*
X118021100Y-60109100D03*
X120561100Y-60109100D03*
X118021100Y-57569100D03*
X120561100Y-57569100D03*
X118021100Y-55029100D03*
X120561100Y-55029100D03*
D13*
X115697000Y-77470000D03*
D14*
X113157000Y-77470000D03*
D11*
X127635000Y-71805800D03*
D12*
X127635000Y-64185800D03*
D11*
X139954000Y-73152000D03*
D12*
X132334000Y-73152000D03*
D11*
X130556000Y-76327000D03*
D12*
X122936000Y-76327000D03*
D15*
X141660000Y-87376000D03*
X137160000Y-87376000D03*
X141660000Y-80876000D03*
X137160000Y-80876000D03*
X132008000Y-87376000D03*
X127508000Y-87376000D03*
X132008000Y-80876000D03*
X127508000Y-80876000D03*
X122356000Y-87376000D03*
X117856000Y-87376000D03*
X122356000Y-80876000D03*
X117856000Y-80876000D03*
D13*
X104000000Y-55000000D03*
D14*
X104000000Y-57540000D03*
X104000000Y-60080000D03*
X104000000Y-62620000D03*
X104000000Y-65160000D03*
X104000000Y-67700000D03*
X104000000Y-70240000D03*
X104000000Y-72780000D03*
X104000000Y-75320000D03*
X104000000Y-77860000D03*
X104000000Y-80400000D03*
X104000000Y-82940000D03*
X104000000Y-85480000D03*
X104000000Y-88020000D03*
D15*
X133836400Y-69770400D03*
X138836400Y-69770400D03*
D16*
X130736400Y-62770400D03*
X141936400Y-62770400D03*
D15*
X133836400Y-55270400D03*
X136336400Y-55270400D03*
D17*
X138836400Y-55270400D03*
D18*
X111000000Y-55500000D03*
X148000000Y-87500000D03*
X111000000Y-87500000D03*
X148000000Y-55500000D03*
D19*
X109347000Y-75184000D03*
X107950000Y-79629000D03*
X107315000Y-76581000D03*
X107823000Y-62484000D03*
X112014000Y-63627000D03*
X100965000Y-61468000D03*
X138061700Y-53213000D03*
D20*
X127635000Y-61988700D02*
X128143000Y-61988700D01*
X128143000Y-61988700D02*
X129138680Y-63243460D01*
X129138680Y-63243460D02*
X129138680Y-70482460D01*
X129138680Y-70482460D02*
X127635000Y-71805800D01*
X109347000Y-70002400D02*
X109347000Y-75184000D01*
X103571040Y-70002400D02*
X109347000Y-70002400D01*
X109347000Y-70002400D02*
X117665500Y-69913500D01*
X117665500Y-69913500D02*
X118021100Y-70269100D01*
X107950000Y-79629000D02*
X109601000Y-79629000D01*
X109601000Y-79629000D02*
X113157000Y-77470000D01*
X107416600Y-80162400D02*
X103571040Y-80162400D01*
X107950000Y-79629000D02*
X107416600Y-80162400D01*
X104622600Y-77622400D02*
X103571040Y-77622400D01*
X107315000Y-76581000D02*
X104622600Y-77622400D01*
X103571040Y-62382400D02*
X107721400Y-62382400D01*
X107721400Y-62382400D02*
X107823000Y-62484000D01*
X112903000Y-62738000D02*
X118021100Y-62649100D01*
X112014000Y-63627000D02*
X112903000Y-62738000D01*
X103571040Y-59842400D02*
X102590600Y-59842400D01*
X102590600Y-59842400D02*
X100965000Y-61468000D01*
X133836400Y-55270400D02*
X133836400Y-54618900D01*
X133836400Y-54618900D02*
X134429500Y-53263800D01*
X134429500Y-53263800D02*
X138061700Y-53213000D01*
D21*
G36*
X108642910Y-53922066D02*
X108218484Y-54944198D01*
X108217518Y-56050946D01*
X108640160Y-57073818D01*
X109422066Y-57857090D01*
X110444198Y-58281516D01*
X111550946Y-58282482D01*
X112573818Y-57859840D01*
X113357090Y-57077934D01*
X113781516Y-56055802D01*
X113782482Y-54949054D01*
X113359840Y-53926182D01*
X112684837Y-53250000D01*
X126533851Y-53250000D01*
X126202987Y-53745175D01*
X126085000Y-54338334D01*
X126085000Y-54399066D01*
X126202987Y-54992225D01*
X126538984Y-55495082D01*
X127041841Y-55831079D01*
X127635000Y-55949066D01*
X128228159Y-55831079D01*
X128731016Y-55495082D01*
X129067013Y-54992225D01*
X129185000Y-54399066D01*
X129185000Y-54338334D01*
X129067013Y-53745175D01*
X128736149Y-53250000D01*
X133425821Y-53250000D01*
X133267375Y-53612013D01*
X132846399Y-53785957D01*
X132353687Y-54277810D01*
X132086704Y-54920776D01*
X132086096Y-55616969D01*
X132351957Y-56260401D01*
X132843810Y-56753113D01*
X133486776Y-57020096D01*
X134182969Y-57020704D01*
X134826401Y-56754843D01*
X135319113Y-56262990D01*
X135586096Y-55620024D01*
X135586364Y-55313329D01*
X135629293Y-55270400D01*
X135586439Y-55227546D01*
X135586704Y-54923831D01*
X135493741Y-54698845D01*
X135982847Y-54209740D01*
X136336400Y-54563293D01*
X136689954Y-54209740D01*
X137071707Y-54591493D01*
X137071707Y-55242200D01*
X137043507Y-55270400D01*
X137071707Y-55298600D01*
X137071707Y-55949307D01*
X136689954Y-56331061D01*
X136336400Y-55977507D01*
X135613055Y-56700852D01*
X135729159Y-56956848D01*
X136348169Y-57049939D01*
X136716499Y-57418269D01*
X137313753Y-56821015D01*
X137538892Y-56974846D01*
X137836400Y-57035093D01*
X139836400Y-57035093D01*
X140114333Y-56982796D01*
X140369598Y-56818538D01*
X140540846Y-56567908D01*
X140601093Y-56270400D01*
X140601093Y-54270400D01*
X140548796Y-53992467D01*
X140384538Y-53737202D01*
X140133908Y-53565954D01*
X139836400Y-53505707D01*
X139077081Y-53505707D01*
X139111518Y-53422774D01*
X139111669Y-53250000D01*
X146316150Y-53250000D01*
X145642910Y-53922066D01*
X145218484Y-54944198D01*
X145217518Y-56050946D01*
X145640160Y-57073818D01*
X146422066Y-57857090D01*
X147444198Y-58281516D01*
X148550946Y-58282482D01*
X149573818Y-57859840D01*
X149750000Y-57683965D01*
X149750000Y-85315277D01*
X149577934Y-85142910D01*
X148555802Y-84718484D01*
X147449054Y-84717518D01*
X146426182Y-85140160D01*
X145642910Y-85922066D01*
X145218484Y-86944198D01*
X145217518Y-88050946D01*
X145640160Y-89073818D01*
X146315163Y-89750000D01*
X112683850Y-89750000D01*
X113357090Y-89077934D01*
X113469819Y-88806452D01*
X117132655Y-88806452D01*
X117248759Y-89062448D01*
X117940358Y-89166455D01*
X118463241Y-89062448D01*
X118579345Y-88806452D01*
X117856000Y-88083107D01*
X117132655Y-88806452D01*
X113469819Y-88806452D01*
X113781516Y-88055802D01*
X113782035Y-87460358D01*
X116065545Y-87460358D01*
X116169552Y-87983241D01*
X116425548Y-88099345D01*
X117148893Y-87376000D01*
X118563107Y-87376000D01*
X119286452Y-88099345D01*
X119542448Y-87983241D01*
X119581649Y-87722569D01*
X120605696Y-87722569D01*
X120871557Y-88366001D01*
X121363410Y-88858713D01*
X122006376Y-89125696D01*
X122702569Y-89126304D01*
X123346001Y-88860443D01*
X123400086Y-88806452D01*
X126784655Y-88806452D01*
X126900759Y-89062448D01*
X127592358Y-89166455D01*
X128115241Y-89062448D01*
X128231345Y-88806452D01*
X127508000Y-88083107D01*
X126784655Y-88806452D01*
X123400086Y-88806452D01*
X123838713Y-88368590D01*
X124105696Y-87725624D01*
X124105927Y-87460358D01*
X125717545Y-87460358D01*
X125821552Y-87983241D01*
X126077548Y-88099345D01*
X126800893Y-87376000D01*
X128215107Y-87376000D01*
X128938452Y-88099345D01*
X129194448Y-87983241D01*
X129233649Y-87722569D01*
X130257696Y-87722569D01*
X130523557Y-88366001D01*
X131015410Y-88858713D01*
X131658376Y-89125696D01*
X132354569Y-89126304D01*
X132998001Y-88860443D01*
X133052086Y-88806452D01*
X136436655Y-88806452D01*
X136552759Y-89062448D01*
X137244358Y-89166455D01*
X137767241Y-89062448D01*
X137883345Y-88806452D01*
X137160000Y-88083107D01*
X136436655Y-88806452D01*
X133052086Y-88806452D01*
X133490713Y-88368590D01*
X133757696Y-87725624D01*
X133757927Y-87460358D01*
X135369545Y-87460358D01*
X135473552Y-87983241D01*
X135729548Y-88099345D01*
X136452893Y-87376000D01*
X137867107Y-87376000D01*
X138590452Y-88099345D01*
X138846448Y-87983241D01*
X138885649Y-87722569D01*
X139909696Y-87722569D01*
X140175557Y-88366001D01*
X140667410Y-88858713D01*
X141310376Y-89125696D01*
X142006569Y-89126304D01*
X142650001Y-88860443D01*
X143142713Y-88368590D01*
X143409696Y-87725624D01*
X143410304Y-87029431D01*
X143144443Y-86385999D01*
X142652590Y-85893287D01*
X142009624Y-85626304D01*
X141313431Y-85625696D01*
X140669999Y-85891557D01*
X140177287Y-86383410D01*
X139910304Y-87026376D01*
X139909696Y-87722569D01*
X138885649Y-87722569D01*
X138950455Y-87291642D01*
X138846448Y-86768759D01*
X138590452Y-86652655D01*
X137867107Y-87376000D01*
X136452893Y-87376000D01*
X135729548Y-86652655D01*
X135473552Y-86768759D01*
X135369545Y-87460358D01*
X133757927Y-87460358D01*
X133758304Y-87029431D01*
X133492443Y-86385999D01*
X133052760Y-85945548D01*
X136436655Y-85945548D01*
X137160000Y-86668893D01*
X137883345Y-85945548D01*
X137767241Y-85689552D01*
X137075642Y-85585545D01*
X136552759Y-85689552D01*
X136436655Y-85945548D01*
X133052760Y-85945548D01*
X133000590Y-85893287D01*
X132357624Y-85626304D01*
X131661431Y-85625696D01*
X131017999Y-85891557D01*
X130525287Y-86383410D01*
X130258304Y-87026376D01*
X130257696Y-87722569D01*
X129233649Y-87722569D01*
X129298455Y-87291642D01*
X129194448Y-86768759D01*
X128938452Y-86652655D01*
X128215107Y-87376000D01*
X126800893Y-87376000D01*
X126077548Y-86652655D01*
X125821552Y-86768759D01*
X125717545Y-87460358D01*
X124105927Y-87460358D01*
X124106304Y-87029431D01*
X123840443Y-86385999D01*
X123400760Y-85945548D01*
X126784655Y-85945548D01*
X127508000Y-86668893D01*
X128231345Y-85945548D01*
X128115241Y-85689552D01*
X127423642Y-85585545D01*
X126900759Y-85689552D01*
X126784655Y-85945548D01*
X123400760Y-85945548D01*
X123348590Y-85893287D01*
X122705624Y-85626304D01*
X122009431Y-85625696D01*
X121365999Y-85891557D01*
X120873287Y-86383410D01*
X120606304Y-87026376D01*
X120605696Y-87722569D01*
X119581649Y-87722569D01*
X119646455Y-87291642D01*
X119542448Y-86768759D01*
X119286452Y-86652655D01*
X118563107Y-87376000D01*
X117148893Y-87376000D01*
X116425548Y-86652655D01*
X116169552Y-86768759D01*
X116065545Y-87460358D01*
X113782035Y-87460358D01*
X113782482Y-86949054D01*
X113367842Y-85945548D01*
X117132655Y-85945548D01*
X117856000Y-86668893D01*
X118579345Y-85945548D01*
X118463241Y-85689552D01*
X117771642Y-85585545D01*
X117248759Y-85689552D01*
X117132655Y-85945548D01*
X113367842Y-85945548D01*
X113359840Y-85926182D01*
X112577934Y-85142910D01*
X111555802Y-84718484D01*
X110449054Y-84717518D01*
X109426182Y-85140160D01*
X108642910Y-85922066D01*
X108218484Y-86944198D01*
X108217518Y-88050946D01*
X108640160Y-89073818D01*
X109315163Y-89750000D01*
X101250000Y-89750000D01*
X101250000Y-88020000D01*
X102368654Y-88020000D01*
X102490447Y-88632293D01*
X102837283Y-89151371D01*
X103356361Y-89498207D01*
X103968654Y-89620000D01*
X104031346Y-89620000D01*
X104643639Y-89498207D01*
X105162717Y-89151371D01*
X105509553Y-88632293D01*
X105631346Y-88020000D01*
X105509553Y-87407707D01*
X105250002Y-87019261D01*
X105250002Y-86464534D01*
X105465241Y-86142369D01*
X105353336Y-85905000D01*
X104425000Y-85905000D01*
X104425000Y-86330000D01*
X103575000Y-86330000D01*
X103575000Y-85905000D01*
X102646664Y-85905000D01*
X102534759Y-86142369D01*
X102749998Y-86464534D01*
X102749998Y-87019261D01*
X102490447Y-87407707D01*
X102368654Y-88020000D01*
X101250000Y-88020000D01*
X101250000Y-62486342D01*
X101559000Y-62358666D01*
X101854628Y-62063554D01*
X101980339Y-61760809D01*
X102714113Y-61027034D01*
X102837283Y-61211371D01*
X103044756Y-61350000D01*
X102837283Y-61488629D01*
X102490447Y-62007707D01*
X102368654Y-62620000D01*
X102490447Y-63232293D01*
X102837283Y-63751371D01*
X103044756Y-63890000D01*
X102837283Y-64028629D01*
X102490447Y-64547707D01*
X102368654Y-65160000D01*
X102490447Y-65772293D01*
X102837283Y-66291371D01*
X103044756Y-66430000D01*
X102837283Y-66568629D01*
X102490447Y-67087707D01*
X102368654Y-67700000D01*
X102490447Y-68312293D01*
X102837283Y-68831371D01*
X103044756Y-68970000D01*
X102837283Y-69108629D01*
X102490447Y-69627707D01*
X102368654Y-70240000D01*
X102490447Y-70852293D01*
X102837283Y-71371371D01*
X103044756Y-71510000D01*
X102837283Y-71648629D01*
X102490447Y-72167707D01*
X102368654Y-72780000D01*
X102490447Y-73392293D01*
X102837283Y-73911371D01*
X103044756Y-74050000D01*
X102837283Y-74188629D01*
X102490447Y-74707707D01*
X102368654Y-75320000D01*
X102490447Y-75932293D01*
X102837283Y-76451371D01*
X103044756Y-76590000D01*
X102837283Y-76728629D01*
X102490447Y-77247707D01*
X102368654Y-77860000D01*
X102490447Y-78472293D01*
X102837283Y-78991371D01*
X103044756Y-79130000D01*
X102837283Y-79268629D01*
X102490447Y-79787707D01*
X102368654Y-80400000D01*
X102490447Y-81012293D01*
X102837283Y-81531371D01*
X103044756Y-81670000D01*
X102837283Y-81808629D01*
X102490447Y-82327707D01*
X102368654Y-82940000D01*
X102490447Y-83552293D01*
X102749998Y-83940739D01*
X102749998Y-84495466D01*
X102534759Y-84817631D01*
X102646664Y-85055000D01*
X103575000Y-85055000D01*
X103575000Y-84630000D01*
X104425000Y-84630000D01*
X104425000Y-85055000D01*
X105353336Y-85055000D01*
X105465241Y-84817631D01*
X105250002Y-84495466D01*
X105250002Y-83940739D01*
X105509553Y-83552293D01*
X105631346Y-82940000D01*
X105509553Y-82327707D01*
X105495351Y-82306452D01*
X117132655Y-82306452D01*
X117248759Y-82562448D01*
X117940358Y-82666455D01*
X118463241Y-82562448D01*
X118579345Y-82306452D01*
X117856000Y-81583107D01*
X117132655Y-82306452D01*
X105495351Y-82306452D01*
X105162717Y-81808629D01*
X104955244Y-81670000D01*
X105162717Y-81531371D01*
X105459368Y-81087400D01*
X107416600Y-81087400D01*
X107770583Y-81016989D01*
X107855337Y-80960358D01*
X116065545Y-80960358D01*
X116169552Y-81483241D01*
X116425548Y-81599345D01*
X117148893Y-80876000D01*
X118563107Y-80876000D01*
X119286452Y-81599345D01*
X119542448Y-81483241D01*
X119581649Y-81222569D01*
X120605696Y-81222569D01*
X120871557Y-81866001D01*
X121363410Y-82358713D01*
X122006376Y-82625696D01*
X122702569Y-82626304D01*
X123346001Y-82360443D01*
X123400086Y-82306452D01*
X126784655Y-82306452D01*
X126900759Y-82562448D01*
X127592358Y-82666455D01*
X128115241Y-82562448D01*
X128231345Y-82306452D01*
X127508000Y-81583107D01*
X126784655Y-82306452D01*
X123400086Y-82306452D01*
X123838713Y-81868590D01*
X124105696Y-81225624D01*
X124105927Y-80960358D01*
X125717545Y-80960358D01*
X125821552Y-81483241D01*
X126077548Y-81599345D01*
X126800893Y-80876000D01*
X128215107Y-80876000D01*
X128938452Y-81599345D01*
X129194448Y-81483241D01*
X129233649Y-81222569D01*
X130257696Y-81222569D01*
X130523557Y-81866001D01*
X131015410Y-82358713D01*
X131658376Y-82625696D01*
X132354569Y-82626304D01*
X132998001Y-82360443D01*
X133052086Y-82306452D01*
X136436655Y-82306452D01*
X136552759Y-82562448D01*
X137244358Y-82666455D01*
X137767241Y-82562448D01*
X137883345Y-82306452D01*
X137160000Y-81583107D01*
X136436655Y-82306452D01*
X133052086Y-82306452D01*
X133490713Y-81868590D01*
X133757696Y-81225624D01*
X133757927Y-80960358D01*
X135369545Y-80960358D01*
X135473552Y-81483241D01*
X135729548Y-81599345D01*
X136452893Y-80876000D01*
X137867107Y-80876000D01*
X138590452Y-81599345D01*
X138846448Y-81483241D01*
X138885649Y-81222569D01*
X139909696Y-81222569D01*
X140175557Y-81866001D01*
X140667410Y-82358713D01*
X141310376Y-82625696D01*
X142006569Y-82626304D01*
X142650001Y-82360443D01*
X143142713Y-81868590D01*
X143409696Y-81225624D01*
X143410304Y-80529431D01*
X143144443Y-79885999D01*
X142652590Y-79393287D01*
X142009624Y-79126304D01*
X141313431Y-79125696D01*
X140669999Y-79391557D01*
X140177287Y-79883410D01*
X139910304Y-80526376D01*
X139909696Y-81222569D01*
X138885649Y-81222569D01*
X138950455Y-80791642D01*
X138846448Y-80268759D01*
X138590452Y-80152655D01*
X137867107Y-80876000D01*
X136452893Y-80876000D01*
X135729548Y-80152655D01*
X135473552Y-80268759D01*
X135369545Y-80960358D01*
X133757927Y-80960358D01*
X133758304Y-80529431D01*
X133492443Y-79885999D01*
X133052760Y-79445548D01*
X136436655Y-79445548D01*
X137160000Y-80168893D01*
X137883345Y-79445548D01*
X137767241Y-79189552D01*
X137075642Y-79085545D01*
X136552759Y-79189552D01*
X136436655Y-79445548D01*
X133052760Y-79445548D01*
X133000590Y-79393287D01*
X132357624Y-79126304D01*
X131661431Y-79125696D01*
X131017999Y-79391557D01*
X130525287Y-79883410D01*
X130258304Y-80526376D01*
X130257696Y-81222569D01*
X129233649Y-81222569D01*
X129298455Y-80791642D01*
X129194448Y-80268759D01*
X128938452Y-80152655D01*
X128215107Y-80876000D01*
X126800893Y-80876000D01*
X126077548Y-80152655D01*
X125821552Y-80268759D01*
X125717545Y-80960358D01*
X124105927Y-80960358D01*
X124106304Y-80529431D01*
X123840443Y-79885999D01*
X123400760Y-79445548D01*
X126784655Y-79445548D01*
X127508000Y-80168893D01*
X128231345Y-79445548D01*
X128115241Y-79189552D01*
X127423642Y-79085545D01*
X126900759Y-79189552D01*
X126784655Y-79445548D01*
X123400760Y-79445548D01*
X123348590Y-79393287D01*
X122705624Y-79126304D01*
X122009431Y-79125696D01*
X121365999Y-79391557D01*
X120873287Y-79883410D01*
X120606304Y-80526376D01*
X120605696Y-81222569D01*
X119581649Y-81222569D01*
X119646455Y-80791642D01*
X119542448Y-80268759D01*
X119286452Y-80152655D01*
X118563107Y-80876000D01*
X117148893Y-80876000D01*
X116425548Y-80152655D01*
X116169552Y-80268759D01*
X116065545Y-80960358D01*
X107855337Y-80960358D01*
X108070674Y-80816474D01*
X108243189Y-80643959D01*
X108460905Y-80554000D01*
X109601000Y-80554000D01*
X109670816Y-80540113D01*
X109741934Y-80543201D01*
X109846174Y-80505232D01*
X109954982Y-80483589D01*
X110014171Y-80444040D01*
X110081055Y-80419678D01*
X111685505Y-79445548D01*
X117132655Y-79445548D01*
X117856000Y-80168893D01*
X118579345Y-79445548D01*
X118463241Y-79189552D01*
X117771642Y-79085545D01*
X117248759Y-79189552D01*
X117132655Y-79445548D01*
X111685505Y-79445548D01*
X112501061Y-78950390D01*
X112544707Y-78979553D01*
X113157000Y-79101346D01*
X113769293Y-78979553D01*
X114196491Y-78694109D01*
X114298862Y-78853198D01*
X114549492Y-79024446D01*
X114847000Y-79084693D01*
X116547000Y-79084693D01*
X116824933Y-79032396D01*
X117080198Y-78868138D01*
X117251446Y-78617508D01*
X117311693Y-78320000D01*
X117311693Y-76620000D01*
X117259396Y-76342067D01*
X117249701Y-76327000D01*
X121355634Y-76327000D01*
X121473621Y-76920159D01*
X121809618Y-77423016D01*
X122312475Y-77759013D01*
X122905634Y-77877000D01*
X122966366Y-77877000D01*
X123559525Y-77759013D01*
X124062382Y-77423016D01*
X124398379Y-76920159D01*
X124455307Y-76633961D01*
X129005732Y-76633961D01*
X129241208Y-77203857D01*
X129676849Y-77640260D01*
X130246333Y-77876730D01*
X130862961Y-77877268D01*
X131432857Y-77641792D01*
X131869260Y-77206151D01*
X132105730Y-76636667D01*
X132106268Y-76020039D01*
X131870792Y-75450143D01*
X131435151Y-75013740D01*
X130865667Y-74777270D01*
X130249039Y-74776732D01*
X129679143Y-75012208D01*
X129242740Y-75447849D01*
X129006270Y-76017333D01*
X129005732Y-76633961D01*
X124455307Y-76633961D01*
X124516366Y-76327000D01*
X124398379Y-75733841D01*
X124062382Y-75230984D01*
X123559525Y-74894987D01*
X122966366Y-74777000D01*
X122905634Y-74777000D01*
X122312475Y-74894987D01*
X121809618Y-75230984D01*
X121473621Y-75733841D01*
X121355634Y-76327000D01*
X117249701Y-76327000D01*
X117095138Y-76086802D01*
X116844508Y-75915554D01*
X116547000Y-75855307D01*
X114847000Y-75855307D01*
X114569067Y-75907604D01*
X114313802Y-76071862D01*
X114195394Y-76245158D01*
X113769293Y-75960447D01*
X113157000Y-75838654D01*
X112544707Y-75960447D01*
X112025629Y-76307283D01*
X111678793Y-76826361D01*
X111574955Y-77348387D01*
X109342181Y-78704000D01*
X108460369Y-78704000D01*
X108159774Y-78579182D01*
X107742058Y-78578818D01*
X107356000Y-78738334D01*
X107060372Y-79033446D01*
X106975683Y-79237400D01*
X105115979Y-79237400D01*
X104955244Y-79130000D01*
X105162717Y-78991371D01*
X105509553Y-78472293D01*
X105552905Y-78254348D01*
X107164824Y-77630870D01*
X107522942Y-77631182D01*
X107909000Y-77471666D01*
X108204628Y-77176554D01*
X108364818Y-76790774D01*
X108365182Y-76373058D01*
X108205666Y-75987000D01*
X107910554Y-75691372D01*
X107524774Y-75531182D01*
X107107058Y-75530818D01*
X106721000Y-75690334D01*
X106510623Y-75900344D01*
X105189449Y-76411364D01*
X105509553Y-75932293D01*
X105631346Y-75320000D01*
X105509553Y-74707707D01*
X105162717Y-74188629D01*
X104955244Y-74050000D01*
X105162717Y-73911371D01*
X105509553Y-73392293D01*
X105631346Y-72780000D01*
X105509553Y-72167707D01*
X105162717Y-71648629D01*
X104955244Y-71510000D01*
X105162717Y-71371371D01*
X105459368Y-70927400D01*
X108422000Y-70927400D01*
X108422000Y-74673631D01*
X108297182Y-74974226D01*
X108296818Y-75391942D01*
X108456334Y-75778000D01*
X108751446Y-76073628D01*
X109137226Y-76233818D01*
X109554942Y-76234182D01*
X109941000Y-76074666D01*
X110236628Y-75779554D01*
X110396818Y-75393774D01*
X110397182Y-74976058D01*
X110272000Y-74673095D01*
X110272000Y-70917567D01*
X116406407Y-70852009D01*
X116406407Y-71119100D01*
X116458704Y-71397033D01*
X116622962Y-71652298D01*
X116873592Y-71823546D01*
X117171100Y-71883793D01*
X118871100Y-71883793D01*
X119149033Y-71831496D01*
X119404298Y-71667238D01*
X119527585Y-71486801D01*
X119917461Y-71747307D01*
X120529754Y-71869100D01*
X120592446Y-71869100D01*
X121204739Y-71747307D01*
X121723817Y-71400471D01*
X122070653Y-70881393D01*
X122192446Y-70269100D01*
X122070653Y-69656807D01*
X121723817Y-69137729D01*
X121516344Y-68999100D01*
X121723817Y-68860471D01*
X122070653Y-68341393D01*
X122192446Y-67729100D01*
X122070653Y-67116807D01*
X121811102Y-66728361D01*
X121811102Y-66173634D01*
X122026341Y-65851469D01*
X121914436Y-65614100D01*
X120986100Y-65614100D01*
X120986100Y-66039100D01*
X120136100Y-66039100D01*
X120136100Y-65614100D01*
X119711100Y-65614100D01*
X119711100Y-64764100D01*
X120136100Y-64764100D01*
X120136100Y-64339100D01*
X120986100Y-64339100D01*
X120986100Y-64764100D01*
X121914436Y-64764100D01*
X122026341Y-64526731D01*
X121811102Y-64204566D01*
X121811102Y-63649839D01*
X122070653Y-63261393D01*
X122192446Y-62649100D01*
X122122143Y-62295661D01*
X126084732Y-62295661D01*
X126320208Y-62865557D01*
X126528858Y-63074572D01*
X126202987Y-63562275D01*
X126085000Y-64155434D01*
X126085000Y-64216166D01*
X126202987Y-64809325D01*
X126538984Y-65312182D01*
X127041841Y-65648179D01*
X127635000Y-65766166D01*
X128213680Y-65651059D01*
X128213680Y-70064320D01*
X127979408Y-70270496D01*
X127944667Y-70256070D01*
X127328039Y-70255532D01*
X126758143Y-70491008D01*
X126321740Y-70926649D01*
X126085270Y-71496133D01*
X126084732Y-72112761D01*
X126320208Y-72682657D01*
X126755849Y-73119060D01*
X127325333Y-73355530D01*
X127941961Y-73356068D01*
X128435843Y-73152000D01*
X130753634Y-73152000D01*
X130871621Y-73745159D01*
X131207618Y-74248016D01*
X131710475Y-74584013D01*
X132303634Y-74702000D01*
X132364366Y-74702000D01*
X132957525Y-74584013D01*
X133460382Y-74248016D01*
X133796379Y-73745159D01*
X133853307Y-73458961D01*
X138403732Y-73458961D01*
X138639208Y-74028857D01*
X139074849Y-74465260D01*
X139644333Y-74701730D01*
X140260961Y-74702268D01*
X140830857Y-74466792D01*
X141267260Y-74031151D01*
X141503730Y-73461667D01*
X141504268Y-72845039D01*
X141268792Y-72275143D01*
X140833151Y-71838740D01*
X140263667Y-71602270D01*
X139647039Y-71601732D01*
X139077143Y-71837208D01*
X138640740Y-72272849D01*
X138404270Y-72842333D01*
X138403732Y-73458961D01*
X133853307Y-73458961D01*
X133914366Y-73152000D01*
X133796379Y-72558841D01*
X133460382Y-72055984D01*
X132957525Y-71719987D01*
X132364366Y-71602000D01*
X132303634Y-71602000D01*
X131710475Y-71719987D01*
X131207618Y-72055984D01*
X130871621Y-72558841D01*
X130753634Y-73152000D01*
X128435843Y-73152000D01*
X128511857Y-73120592D01*
X128948260Y-72684951D01*
X129184730Y-72115467D01*
X129185115Y-71673796D01*
X129722510Y-71200852D01*
X133113055Y-71200852D01*
X133229159Y-71456848D01*
X133920758Y-71560855D01*
X134443641Y-71456848D01*
X134559745Y-71200852D01*
X133836400Y-70477507D01*
X133113055Y-71200852D01*
X129722510Y-71200852D01*
X129749787Y-71176847D01*
X129767924Y-71153125D01*
X129792754Y-71136534D01*
X129876950Y-71010525D01*
X129969000Y-70890130D01*
X129976679Y-70861271D01*
X129993269Y-70836442D01*
X130022834Y-70687807D01*
X130061804Y-70541348D01*
X130057854Y-70511747D01*
X130063680Y-70482460D01*
X130063680Y-69854758D01*
X132045945Y-69854758D01*
X132149952Y-70377641D01*
X132405948Y-70493745D01*
X133129293Y-69770400D01*
X134543507Y-69770400D01*
X135266852Y-70493745D01*
X135522848Y-70377641D01*
X135562049Y-70116969D01*
X137086096Y-70116969D01*
X137351957Y-70760401D01*
X137843810Y-71253113D01*
X138486776Y-71520096D01*
X139182969Y-71520704D01*
X139826401Y-71254843D01*
X140319113Y-70762990D01*
X140586096Y-70120024D01*
X140586704Y-69423831D01*
X140320843Y-68780399D01*
X139828990Y-68287687D01*
X139186024Y-68020704D01*
X138489831Y-68020096D01*
X137846399Y-68285957D01*
X137353687Y-68777810D01*
X137086704Y-69420776D01*
X137086096Y-70116969D01*
X135562049Y-70116969D01*
X135626855Y-69686042D01*
X135522848Y-69163159D01*
X135266852Y-69047055D01*
X134543507Y-69770400D01*
X133129293Y-69770400D01*
X132405948Y-69047055D01*
X132149952Y-69163159D01*
X132045945Y-69854758D01*
X130063680Y-69854758D01*
X130063680Y-68339948D01*
X133113055Y-68339948D01*
X133836400Y-69063293D01*
X134559745Y-68339948D01*
X134443641Y-68083952D01*
X133752042Y-67979945D01*
X133229159Y-68083952D01*
X133113055Y-68339948D01*
X130063680Y-68339948D01*
X130063680Y-65135093D01*
X131736400Y-65135093D01*
X132014333Y-65082796D01*
X132269598Y-64918538D01*
X132440846Y-64667908D01*
X132501093Y-64370400D01*
X132501093Y-61170400D01*
X140171707Y-61170400D01*
X140171707Y-64370400D01*
X140224004Y-64648333D01*
X140388262Y-64903598D01*
X140638892Y-65074846D01*
X140936400Y-65135093D01*
X142936400Y-65135093D01*
X143214333Y-65082796D01*
X143469598Y-64918538D01*
X143640846Y-64667908D01*
X143701093Y-64370400D01*
X143701093Y-61170400D01*
X143648796Y-60892467D01*
X143484538Y-60637202D01*
X143233908Y-60465954D01*
X142936400Y-60405707D01*
X140936400Y-60405707D01*
X140658467Y-60458004D01*
X140403202Y-60622262D01*
X140231954Y-60872892D01*
X140171707Y-61170400D01*
X132501093Y-61170400D01*
X132448796Y-60892467D01*
X132284538Y-60637202D01*
X132033908Y-60465954D01*
X131736400Y-60405707D01*
X129736400Y-60405707D01*
X129458467Y-60458004D01*
X129203202Y-60622262D01*
X129031954Y-60872892D01*
X128972457Y-61166696D01*
X128949792Y-61111843D01*
X128514151Y-60675440D01*
X127944667Y-60438970D01*
X127328039Y-60438432D01*
X126758143Y-60673908D01*
X126321740Y-61109549D01*
X126085270Y-61679033D01*
X126084732Y-62295661D01*
X122122143Y-62295661D01*
X122070653Y-62036807D01*
X121723817Y-61517729D01*
X121516344Y-61379100D01*
X121723817Y-61240471D01*
X122070653Y-60721393D01*
X122192446Y-60109100D01*
X122070653Y-59496807D01*
X121723817Y-58977729D01*
X121516344Y-58839100D01*
X121723817Y-58700471D01*
X122070653Y-58181393D01*
X122192446Y-57569100D01*
X122070653Y-56956807D01*
X121723817Y-56437729D01*
X121516344Y-56299100D01*
X121723817Y-56160471D01*
X122070653Y-55641393D01*
X122192446Y-55029100D01*
X122070653Y-54416807D01*
X121723817Y-53897729D01*
X121204739Y-53550893D01*
X120592446Y-53429100D01*
X120529754Y-53429100D01*
X119917461Y-53550893D01*
X119398383Y-53897729D01*
X119291100Y-54058290D01*
X119183817Y-53897729D01*
X118664739Y-53550893D01*
X118052446Y-53429100D01*
X117989754Y-53429100D01*
X117377461Y-53550893D01*
X116858383Y-53897729D01*
X116511547Y-54416807D01*
X116389754Y-55029100D01*
X116511547Y-55641393D01*
X116858383Y-56160471D01*
X117065856Y-56299100D01*
X116858383Y-56437729D01*
X116511547Y-56956807D01*
X116389754Y-57569100D01*
X116511547Y-58181393D01*
X116858383Y-58700471D01*
X117065856Y-58839100D01*
X116858383Y-58977729D01*
X116511547Y-59496807D01*
X116389754Y-60109100D01*
X116511547Y-60721393D01*
X116858383Y-61240471D01*
X117065856Y-61379100D01*
X116858383Y-61517729D01*
X116705312Y-61746816D01*
X112886935Y-61813140D01*
X112718314Y-61849736D01*
X112549017Y-61883411D01*
X112542217Y-61887955D01*
X112534230Y-61889688D01*
X112392444Y-61988030D01*
X112248926Y-62083926D01*
X111720810Y-62612042D01*
X111420000Y-62736334D01*
X111124372Y-63031446D01*
X110964182Y-63417226D01*
X110963818Y-63834942D01*
X111123334Y-64221000D01*
X111418446Y-64516628D01*
X111804226Y-64676818D01*
X112221942Y-64677182D01*
X112608000Y-64517666D01*
X112903628Y-64222554D01*
X113029339Y-63919809D01*
X113292779Y-63656369D01*
X116735504Y-63596569D01*
X116858383Y-63780471D01*
X117065856Y-63919100D01*
X116858383Y-64057729D01*
X116511547Y-64576807D01*
X116389754Y-65189100D01*
X116511547Y-65801393D01*
X116858383Y-66320471D01*
X117065856Y-66459100D01*
X116858383Y-66597729D01*
X116511547Y-67116807D01*
X116389754Y-67729100D01*
X116511547Y-68341393D01*
X116796991Y-68768591D01*
X116637902Y-68870962D01*
X116549478Y-69000374D01*
X109342074Y-69077400D01*
X105115979Y-69077400D01*
X104955244Y-68970000D01*
X105162717Y-68831371D01*
X105509553Y-68312293D01*
X105631346Y-67700000D01*
X105509553Y-67087707D01*
X105162717Y-66568629D01*
X104955244Y-66430000D01*
X105162717Y-66291371D01*
X105509553Y-65772293D01*
X105631346Y-65160000D01*
X105509553Y-64547707D01*
X105162717Y-64028629D01*
X104955244Y-63890000D01*
X105162717Y-63751371D01*
X105459368Y-63307400D01*
X107161334Y-63307400D01*
X107227446Y-63373628D01*
X107613226Y-63533818D01*
X108030942Y-63534182D01*
X108417000Y-63374666D01*
X108712628Y-63079554D01*
X108872818Y-62693774D01*
X108873182Y-62276058D01*
X108713666Y-61890000D01*
X108418554Y-61594372D01*
X108032774Y-61434182D01*
X107615058Y-61433818D01*
X107557985Y-61457400D01*
X105115979Y-61457400D01*
X104955244Y-61350000D01*
X105162717Y-61211371D01*
X105509553Y-60692293D01*
X105631346Y-60080000D01*
X105509553Y-59467707D01*
X105162717Y-58948629D01*
X104955244Y-58810000D01*
X105162717Y-58671371D01*
X105509553Y-58152293D01*
X105631346Y-57540000D01*
X105509553Y-56927707D01*
X105224109Y-56500509D01*
X105383198Y-56398138D01*
X105554446Y-56147508D01*
X105614693Y-55850000D01*
X105614693Y-54150000D01*
X105562396Y-53872067D01*
X105398138Y-53616802D01*
X105147508Y-53445554D01*
X104850000Y-53385307D01*
X103150000Y-53385307D01*
X102872067Y-53437604D01*
X102616802Y-53601862D01*
X102445554Y-53852492D01*
X102385307Y-54150000D01*
X102385307Y-55850000D01*
X102437604Y-56127933D01*
X102601862Y-56383198D01*
X102775158Y-56501606D01*
X102490447Y-56927707D01*
X102368654Y-57540000D01*
X102490447Y-58152293D01*
X102837283Y-58671371D01*
X103044756Y-58810000D01*
X102884021Y-58917400D01*
X102590605Y-58917400D01*
X102590600Y-58917399D01*
X102236618Y-58987811D01*
X101936526Y-59188326D01*
X101936524Y-59188329D01*
X101250000Y-59874852D01*
X101250000Y-53250000D01*
X109316150Y-53250000D01*
X108642910Y-53922066D01*
X108642910Y-53922066D01*
G37*
X108642910Y-53922066D02*
X108218484Y-54944198D01*
X108217518Y-56050946D01*
X108640160Y-57073818D01*
X109422066Y-57857090D01*
X110444198Y-58281516D01*
X111550946Y-58282482D01*
X112573818Y-57859840D01*
X113357090Y-57077934D01*
X113781516Y-56055802D01*
X113782482Y-54949054D01*
X113359840Y-53926182D01*
X112684837Y-53250000D01*
X126533851Y-53250000D01*
X126202987Y-53745175D01*
X126085000Y-54338334D01*
X126085000Y-54399066D01*
X126202987Y-54992225D01*
X126538984Y-55495082D01*
X127041841Y-55831079D01*
X127635000Y-55949066D01*
X128228159Y-55831079D01*
X128731016Y-55495082D01*
X129067013Y-54992225D01*
X129185000Y-54399066D01*
X129185000Y-54338334D01*
X129067013Y-53745175D01*
X128736149Y-53250000D01*
X133425821Y-53250000D01*
X133267375Y-53612013D01*
X132846399Y-53785957D01*
X132353687Y-54277810D01*
X132086704Y-54920776D01*
X132086096Y-55616969D01*
X132351957Y-56260401D01*
X132843810Y-56753113D01*
X133486776Y-57020096D01*
X134182969Y-57020704D01*
X134826401Y-56754843D01*
X135319113Y-56262990D01*
X135586096Y-55620024D01*
X135586364Y-55313329D01*
X135629293Y-55270400D01*
X135586439Y-55227546D01*
X135586704Y-54923831D01*
X135493741Y-54698845D01*
X135982847Y-54209740D01*
X136336400Y-54563293D01*
X136689954Y-54209740D01*
X137071707Y-54591493D01*
X137071707Y-55242200D01*
X137043507Y-55270400D01*
X137071707Y-55298600D01*
X137071707Y-55949307D01*
X136689954Y-56331061D01*
X136336400Y-55977507D01*
X135613055Y-56700852D01*
X135729159Y-56956848D01*
X136348169Y-57049939D01*
X136716499Y-57418269D01*
X137313753Y-56821015D01*
X137538892Y-56974846D01*
X137836400Y-57035093D01*
X139836400Y-57035093D01*
X140114333Y-56982796D01*
X140369598Y-56818538D01*
X140540846Y-56567908D01*
X140601093Y-56270400D01*
X140601093Y-54270400D01*
X140548796Y-53992467D01*
X140384538Y-53737202D01*
X140133908Y-53565954D01*
X139836400Y-53505707D01*
X139077081Y-53505707D01*
X139111518Y-53422774D01*
X139111669Y-53250000D01*
X146316150Y-53250000D01*
X145642910Y-53922066D01*
X145218484Y-54944198D01*
X145217518Y-56050946D01*
X145640160Y-57073818D01*
X146422066Y-57857090D01*
X147444198Y-58281516D01*
X148550946Y-58282482D01*
X149573818Y-57859840D01*
X149750000Y-57683965D01*
X149750000Y-85315277D01*
X149577934Y-85142910D01*
X148555802Y-84718484D01*
X147449054Y-84717518D01*
X146426182Y-85140160D01*
X145642910Y-85922066D01*
X145218484Y-86944198D01*
X145217518Y-88050946D01*
X145640160Y-89073818D01*
X146315163Y-89750000D01*
X112683850Y-89750000D01*
X113357090Y-89077934D01*
X113469819Y-88806452D01*
X117132655Y-88806452D01*
X117248759Y-89062448D01*
X117940358Y-89166455D01*
X118463241Y-89062448D01*
X118579345Y-88806452D01*
X117856000Y-88083107D01*
X117132655Y-88806452D01*
X113469819Y-88806452D01*
X113781516Y-88055802D01*
X113782035Y-87460358D01*
X116065545Y-87460358D01*
X116169552Y-87983241D01*
X116425548Y-88099345D01*
X117148893Y-87376000D01*
X118563107Y-87376000D01*
X119286452Y-88099345D01*
X119542448Y-87983241D01*
X119581649Y-87722569D01*
X120605696Y-87722569D01*
X120871557Y-88366001D01*
X121363410Y-88858713D01*
X122006376Y-89125696D01*
X122702569Y-89126304D01*
X123346001Y-88860443D01*
X123400086Y-88806452D01*
X126784655Y-88806452D01*
X126900759Y-89062448D01*
X127592358Y-89166455D01*
X128115241Y-89062448D01*
X128231345Y-88806452D01*
X127508000Y-88083107D01*
X126784655Y-88806452D01*
X123400086Y-88806452D01*
X123838713Y-88368590D01*
X124105696Y-87725624D01*
X124105927Y-87460358D01*
X125717545Y-87460358D01*
X125821552Y-87983241D01*
X126077548Y-88099345D01*
X126800893Y-87376000D01*
X128215107Y-87376000D01*
X128938452Y-88099345D01*
X129194448Y-87983241D01*
X129233649Y-87722569D01*
X130257696Y-87722569D01*
X130523557Y-88366001D01*
X131015410Y-88858713D01*
X131658376Y-89125696D01*
X132354569Y-89126304D01*
X132998001Y-88860443D01*
X133052086Y-88806452D01*
X136436655Y-88806452D01*
X136552759Y-89062448D01*
X137244358Y-89166455D01*
X137767241Y-89062448D01*
X137883345Y-88806452D01*
X137160000Y-88083107D01*
X136436655Y-88806452D01*
X133052086Y-88806452D01*
X133490713Y-88368590D01*
X133757696Y-87725624D01*
X133757927Y-87460358D01*
X135369545Y-87460358D01*
X135473552Y-87983241D01*
X135729548Y-88099345D01*
X136452893Y-87376000D01*
X137867107Y-87376000D01*
X138590452Y-88099345D01*
X138846448Y-87983241D01*
X138885649Y-87722569D01*
X139909696Y-87722569D01*
X140175557Y-88366001D01*
X140667410Y-88858713D01*
X141310376Y-89125696D01*
X142006569Y-89126304D01*
X142650001Y-88860443D01*
X143142713Y-88368590D01*
X143409696Y-87725624D01*
X143410304Y-87029431D01*
X143144443Y-86385999D01*
X142652590Y-85893287D01*
X142009624Y-85626304D01*
X141313431Y-85625696D01*
X140669999Y-85891557D01*
X140177287Y-86383410D01*
X139910304Y-87026376D01*
X139909696Y-87722569D01*
X138885649Y-87722569D01*
X138950455Y-87291642D01*
X138846448Y-86768759D01*
X138590452Y-86652655D01*
X137867107Y-87376000D01*
X136452893Y-87376000D01*
X135729548Y-86652655D01*
X135473552Y-86768759D01*
X135369545Y-87460358D01*
X133757927Y-87460358D01*
X133758304Y-87029431D01*
X133492443Y-86385999D01*
X133052760Y-85945548D01*
X136436655Y-85945548D01*
X137160000Y-86668893D01*
X137883345Y-85945548D01*
X137767241Y-85689552D01*
X137075642Y-85585545D01*
X136552759Y-85689552D01*
X136436655Y-85945548D01*
X133052760Y-85945548D01*
X133000590Y-85893287D01*
X132357624Y-85626304D01*
X131661431Y-85625696D01*
X131017999Y-85891557D01*
X130525287Y-86383410D01*
X130258304Y-87026376D01*
X130257696Y-87722569D01*
X129233649Y-87722569D01*
X129298455Y-87291642D01*
X129194448Y-86768759D01*
X128938452Y-86652655D01*
X128215107Y-87376000D01*
X126800893Y-87376000D01*
X126077548Y-86652655D01*
X125821552Y-86768759D01*
X125717545Y-87460358D01*
X124105927Y-87460358D01*
X124106304Y-87029431D01*
X123840443Y-86385999D01*
X123400760Y-85945548D01*
X126784655Y-85945548D01*
X127508000Y-86668893D01*
X128231345Y-85945548D01*
X128115241Y-85689552D01*
X127423642Y-85585545D01*
X126900759Y-85689552D01*
X126784655Y-85945548D01*
X123400760Y-85945548D01*
X123348590Y-85893287D01*
X122705624Y-85626304D01*
X122009431Y-85625696D01*
X121365999Y-85891557D01*
X120873287Y-86383410D01*
X120606304Y-87026376D01*
X120605696Y-87722569D01*
X119581649Y-87722569D01*
X119646455Y-87291642D01*
X119542448Y-86768759D01*
X119286452Y-86652655D01*
X118563107Y-87376000D01*
X117148893Y-87376000D01*
X116425548Y-86652655D01*
X116169552Y-86768759D01*
X116065545Y-87460358D01*
X113782035Y-87460358D01*
X113782482Y-86949054D01*
X113367842Y-85945548D01*
X117132655Y-85945548D01*
X117856000Y-86668893D01*
X118579345Y-85945548D01*
X118463241Y-85689552D01*
X117771642Y-85585545D01*
X117248759Y-85689552D01*
X117132655Y-85945548D01*
X113367842Y-85945548D01*
X113359840Y-85926182D01*
X112577934Y-85142910D01*
X111555802Y-84718484D01*
X110449054Y-84717518D01*
X109426182Y-85140160D01*
X108642910Y-85922066D01*
X108218484Y-86944198D01*
X108217518Y-88050946D01*
X108640160Y-89073818D01*
X109315163Y-89750000D01*
X101250000Y-89750000D01*
X101250000Y-88020000D01*
X102368654Y-88020000D01*
X102490447Y-88632293D01*
X102837283Y-89151371D01*
X103356361Y-89498207D01*
X103968654Y-89620000D01*
X104031346Y-89620000D01*
X104643639Y-89498207D01*
X105162717Y-89151371D01*
X105509553Y-88632293D01*
X105631346Y-88020000D01*
X105509553Y-87407707D01*
X105250002Y-87019261D01*
X105250002Y-86464534D01*
X105465241Y-86142369D01*
X105353336Y-85905000D01*
X104425000Y-85905000D01*
X104425000Y-86330000D01*
X103575000Y-86330000D01*
X103575000Y-85905000D01*
X102646664Y-85905000D01*
X102534759Y-86142369D01*
X102749998Y-86464534D01*
X102749998Y-87019261D01*
X102490447Y-87407707D01*
X102368654Y-88020000D01*
X101250000Y-88020000D01*
X101250000Y-62486342D01*
X101559000Y-62358666D01*
X101854628Y-62063554D01*
X101980339Y-61760809D01*
X102714113Y-61027034D01*
X102837283Y-61211371D01*
X103044756Y-61350000D01*
X102837283Y-61488629D01*
X102490447Y-62007707D01*
X102368654Y-62620000D01*
X102490447Y-63232293D01*
X102837283Y-63751371D01*
X103044756Y-63890000D01*
X102837283Y-64028629D01*
X102490447Y-64547707D01*
X102368654Y-65160000D01*
X102490447Y-65772293D01*
X102837283Y-66291371D01*
X103044756Y-66430000D01*
X102837283Y-66568629D01*
X102490447Y-67087707D01*
X102368654Y-67700000D01*
X102490447Y-68312293D01*
X102837283Y-68831371D01*
X103044756Y-68970000D01*
X102837283Y-69108629D01*
X102490447Y-69627707D01*
X102368654Y-70240000D01*
X102490447Y-70852293D01*
X102837283Y-71371371D01*
X103044756Y-71510000D01*
X102837283Y-71648629D01*
X102490447Y-72167707D01*
X102368654Y-72780000D01*
X102490447Y-73392293D01*
X102837283Y-73911371D01*
X103044756Y-74050000D01*
X102837283Y-74188629D01*
X102490447Y-74707707D01*
X102368654Y-75320000D01*
X102490447Y-75932293D01*
X102837283Y-76451371D01*
X103044756Y-76590000D01*
X102837283Y-76728629D01*
X102490447Y-77247707D01*
X102368654Y-77860000D01*
X102490447Y-78472293D01*
X102837283Y-78991371D01*
X103044756Y-79130000D01*
X102837283Y-79268629D01*
X102490447Y-79787707D01*
X102368654Y-80400000D01*
X102490447Y-81012293D01*
X102837283Y-81531371D01*
X103044756Y-81670000D01*
X102837283Y-81808629D01*
X102490447Y-82327707D01*
X102368654Y-82940000D01*
X102490447Y-83552293D01*
X102749998Y-83940739D01*
X102749998Y-84495466D01*
X102534759Y-84817631D01*
X102646664Y-85055000D01*
X103575000Y-85055000D01*
X103575000Y-84630000D01*
X104425000Y-84630000D01*
X104425000Y-85055000D01*
X105353336Y-85055000D01*
X105465241Y-84817631D01*
X105250002Y-84495466D01*
X105250002Y-83940739D01*
X105509553Y-83552293D01*
X105631346Y-82940000D01*
X105509553Y-82327707D01*
X105495351Y-82306452D01*
X117132655Y-82306452D01*
X117248759Y-82562448D01*
X117940358Y-82666455D01*
X118463241Y-82562448D01*
X118579345Y-82306452D01*
X117856000Y-81583107D01*
X117132655Y-82306452D01*
X105495351Y-82306452D01*
X105162717Y-81808629D01*
X104955244Y-81670000D01*
X105162717Y-81531371D01*
X105459368Y-81087400D01*
X107416600Y-81087400D01*
X107770583Y-81016989D01*
X107855337Y-80960358D01*
X116065545Y-80960358D01*
X116169552Y-81483241D01*
X116425548Y-81599345D01*
X117148893Y-80876000D01*
X118563107Y-80876000D01*
X119286452Y-81599345D01*
X119542448Y-81483241D01*
X119581649Y-81222569D01*
X120605696Y-81222569D01*
X120871557Y-81866001D01*
X121363410Y-82358713D01*
X122006376Y-82625696D01*
X122702569Y-82626304D01*
X123346001Y-82360443D01*
X123400086Y-82306452D01*
X126784655Y-82306452D01*
X126900759Y-82562448D01*
X127592358Y-82666455D01*
X128115241Y-82562448D01*
X128231345Y-82306452D01*
X127508000Y-81583107D01*
X126784655Y-82306452D01*
X123400086Y-82306452D01*
X123838713Y-81868590D01*
X124105696Y-81225624D01*
X124105927Y-80960358D01*
X125717545Y-80960358D01*
X125821552Y-81483241D01*
X126077548Y-81599345D01*
X126800893Y-80876000D01*
X128215107Y-80876000D01*
X128938452Y-81599345D01*
X129194448Y-81483241D01*
X129233649Y-81222569D01*
X130257696Y-81222569D01*
X130523557Y-81866001D01*
X131015410Y-82358713D01*
X131658376Y-82625696D01*
X132354569Y-82626304D01*
X132998001Y-82360443D01*
X133052086Y-82306452D01*
X136436655Y-82306452D01*
X136552759Y-82562448D01*
X137244358Y-82666455D01*
X137767241Y-82562448D01*
X137883345Y-82306452D01*
X137160000Y-81583107D01*
X136436655Y-82306452D01*
X133052086Y-82306452D01*
X133490713Y-81868590D01*
X133757696Y-81225624D01*
X133757927Y-80960358D01*
X135369545Y-80960358D01*
X135473552Y-81483241D01*
X135729548Y-81599345D01*
X136452893Y-80876000D01*
X137867107Y-80876000D01*
X138590452Y-81599345D01*
X138846448Y-81483241D01*
X138885649Y-81222569D01*
X139909696Y-81222569D01*
X140175557Y-81866001D01*
X140667410Y-82358713D01*
X141310376Y-82625696D01*
X142006569Y-82626304D01*
X142650001Y-82360443D01*
X143142713Y-81868590D01*
X143409696Y-81225624D01*
X143410304Y-80529431D01*
X143144443Y-79885999D01*
X142652590Y-79393287D01*
X142009624Y-79126304D01*
X141313431Y-79125696D01*
X140669999Y-79391557D01*
X140177287Y-79883410D01*
X139910304Y-80526376D01*
X139909696Y-81222569D01*
X138885649Y-81222569D01*
X138950455Y-80791642D01*
X138846448Y-80268759D01*
X138590452Y-80152655D01*
X137867107Y-80876000D01*
X136452893Y-80876000D01*
X135729548Y-80152655D01*
X135473552Y-80268759D01*
X135369545Y-80960358D01*
X133757927Y-80960358D01*
X133758304Y-80529431D01*
X133492443Y-79885999D01*
X133052760Y-79445548D01*
X136436655Y-79445548D01*
X137160000Y-80168893D01*
X137883345Y-79445548D01*
X137767241Y-79189552D01*
X137075642Y-79085545D01*
X136552759Y-79189552D01*
X136436655Y-79445548D01*
X133052760Y-79445548D01*
X133000590Y-79393287D01*
X132357624Y-79126304D01*
X131661431Y-79125696D01*
X131017999Y-79391557D01*
X130525287Y-79883410D01*
X130258304Y-80526376D01*
X130257696Y-81222569D01*
X129233649Y-81222569D01*
X129298455Y-80791642D01*
X129194448Y-80268759D01*
X128938452Y-80152655D01*
X128215107Y-80876000D01*
X126800893Y-80876000D01*
X126077548Y-80152655D01*
X125821552Y-80268759D01*
X125717545Y-80960358D01*
X124105927Y-80960358D01*
X124106304Y-80529431D01*
X123840443Y-79885999D01*
X123400760Y-79445548D01*
X126784655Y-79445548D01*
X127508000Y-80168893D01*
X128231345Y-79445548D01*
X128115241Y-79189552D01*
X127423642Y-79085545D01*
X126900759Y-79189552D01*
X126784655Y-79445548D01*
X123400760Y-79445548D01*
X123348590Y-79393287D01*
X122705624Y-79126304D01*
X122009431Y-79125696D01*
X121365999Y-79391557D01*
X120873287Y-79883410D01*
X120606304Y-80526376D01*
X120605696Y-81222569D01*
X119581649Y-81222569D01*
X119646455Y-80791642D01*
X119542448Y-80268759D01*
X119286452Y-80152655D01*
X118563107Y-80876000D01*
X117148893Y-80876000D01*
X116425548Y-80152655D01*
X116169552Y-80268759D01*
X116065545Y-80960358D01*
X107855337Y-80960358D01*
X108070674Y-80816474D01*
X108243189Y-80643959D01*
X108460905Y-80554000D01*
X109601000Y-80554000D01*
X109670816Y-80540113D01*
X109741934Y-80543201D01*
X109846174Y-80505232D01*
X109954982Y-80483589D01*
X110014171Y-80444040D01*
X110081055Y-80419678D01*
X111685505Y-79445548D01*
X117132655Y-79445548D01*
X117856000Y-80168893D01*
X118579345Y-79445548D01*
X118463241Y-79189552D01*
X117771642Y-79085545D01*
X117248759Y-79189552D01*
X117132655Y-79445548D01*
X111685505Y-79445548D01*
X112501061Y-78950390D01*
X112544707Y-78979553D01*
X113157000Y-79101346D01*
X113769293Y-78979553D01*
X114196491Y-78694109D01*
X114298862Y-78853198D01*
X114549492Y-79024446D01*
X114847000Y-79084693D01*
X116547000Y-79084693D01*
X116824933Y-79032396D01*
X117080198Y-78868138D01*
X117251446Y-78617508D01*
X117311693Y-78320000D01*
X117311693Y-76620000D01*
X117259396Y-76342067D01*
X117249701Y-76327000D01*
X121355634Y-76327000D01*
X121473621Y-76920159D01*
X121809618Y-77423016D01*
X122312475Y-77759013D01*
X122905634Y-77877000D01*
X122966366Y-77877000D01*
X123559525Y-77759013D01*
X124062382Y-77423016D01*
X124398379Y-76920159D01*
X124455307Y-76633961D01*
X129005732Y-76633961D01*
X129241208Y-77203857D01*
X129676849Y-77640260D01*
X130246333Y-77876730D01*
X130862961Y-77877268D01*
X131432857Y-77641792D01*
X131869260Y-77206151D01*
X132105730Y-76636667D01*
X132106268Y-76020039D01*
X131870792Y-75450143D01*
X131435151Y-75013740D01*
X130865667Y-74777270D01*
X130249039Y-74776732D01*
X129679143Y-75012208D01*
X129242740Y-75447849D01*
X129006270Y-76017333D01*
X129005732Y-76633961D01*
X124455307Y-76633961D01*
X124516366Y-76327000D01*
X124398379Y-75733841D01*
X124062382Y-75230984D01*
X123559525Y-74894987D01*
X122966366Y-74777000D01*
X122905634Y-74777000D01*
X122312475Y-74894987D01*
X121809618Y-75230984D01*
X121473621Y-75733841D01*
X121355634Y-76327000D01*
X117249701Y-76327000D01*
X117095138Y-76086802D01*
X116844508Y-75915554D01*
X116547000Y-75855307D01*
X114847000Y-75855307D01*
X114569067Y-75907604D01*
X114313802Y-76071862D01*
X114195394Y-76245158D01*
X113769293Y-75960447D01*
X113157000Y-75838654D01*
X112544707Y-75960447D01*
X112025629Y-76307283D01*
X111678793Y-76826361D01*
X111574955Y-77348387D01*
X109342181Y-78704000D01*
X108460369Y-78704000D01*
X108159774Y-78579182D01*
X107742058Y-78578818D01*
X107356000Y-78738334D01*
X107060372Y-79033446D01*
X106975683Y-79237400D01*
X105115979Y-79237400D01*
X104955244Y-79130000D01*
X105162717Y-78991371D01*
X105509553Y-78472293D01*
X105552905Y-78254348D01*
X107164824Y-77630870D01*
X107522942Y-77631182D01*
X107909000Y-77471666D01*
X108204628Y-77176554D01*
X108364818Y-76790774D01*
X108365182Y-76373058D01*
X108205666Y-75987000D01*
X107910554Y-75691372D01*
X107524774Y-75531182D01*
X107107058Y-75530818D01*
X106721000Y-75690334D01*
X106510623Y-75900344D01*
X105189449Y-76411364D01*
X105509553Y-75932293D01*
X105631346Y-75320000D01*
X105509553Y-74707707D01*
X105162717Y-74188629D01*
X104955244Y-74050000D01*
X105162717Y-73911371D01*
X105509553Y-73392293D01*
X105631346Y-72780000D01*
X105509553Y-72167707D01*
X105162717Y-71648629D01*
X104955244Y-71510000D01*
X105162717Y-71371371D01*
X105459368Y-70927400D01*
X108422000Y-70927400D01*
X108422000Y-74673631D01*
X108297182Y-74974226D01*
X108296818Y-75391942D01*
X108456334Y-75778000D01*
X108751446Y-76073628D01*
X109137226Y-76233818D01*
X109554942Y-76234182D01*
X109941000Y-76074666D01*
X110236628Y-75779554D01*
X110396818Y-75393774D01*
X110397182Y-74976058D01*
X110272000Y-74673095D01*
X110272000Y-70917567D01*
X116406407Y-70852009D01*
X116406407Y-71119100D01*
X116458704Y-71397033D01*
X116622962Y-71652298D01*
X116873592Y-71823546D01*
X117171100Y-71883793D01*
X118871100Y-71883793D01*
X119149033Y-71831496D01*
X119404298Y-71667238D01*
X119527585Y-71486801D01*
X119917461Y-71747307D01*
X120529754Y-71869100D01*
X120592446Y-71869100D01*
X121204739Y-71747307D01*
X121723817Y-71400471D01*
X122070653Y-70881393D01*
X122192446Y-70269100D01*
X122070653Y-69656807D01*
X121723817Y-69137729D01*
X121516344Y-68999100D01*
X121723817Y-68860471D01*
X122070653Y-68341393D01*
X122192446Y-67729100D01*
X122070653Y-67116807D01*
X121811102Y-66728361D01*
X121811102Y-66173634D01*
X122026341Y-65851469D01*
X121914436Y-65614100D01*
X120986100Y-65614100D01*
X120986100Y-66039100D01*
X120136100Y-66039100D01*
X120136100Y-65614100D01*
X119711100Y-65614100D01*
X119711100Y-64764100D01*
X120136100Y-64764100D01*
X120136100Y-64339100D01*
X120986100Y-64339100D01*
X120986100Y-64764100D01*
X121914436Y-64764100D01*
X122026341Y-64526731D01*
X121811102Y-64204566D01*
X121811102Y-63649839D01*
X122070653Y-63261393D01*
X122192446Y-62649100D01*
X122122143Y-62295661D01*
X126084732Y-62295661D01*
X126320208Y-62865557D01*
X126528858Y-63074572D01*
X126202987Y-63562275D01*
X126085000Y-64155434D01*
X126085000Y-64216166D01*
X126202987Y-64809325D01*
X126538984Y-65312182D01*
X127041841Y-65648179D01*
X127635000Y-65766166D01*
X128213680Y-65651059D01*
X128213680Y-70064320D01*
X127979408Y-70270496D01*
X127944667Y-70256070D01*
X127328039Y-70255532D01*
X126758143Y-70491008D01*
X126321740Y-70926649D01*
X126085270Y-71496133D01*
X126084732Y-72112761D01*
X126320208Y-72682657D01*
X126755849Y-73119060D01*
X127325333Y-73355530D01*
X127941961Y-73356068D01*
X128435843Y-73152000D01*
X130753634Y-73152000D01*
X130871621Y-73745159D01*
X131207618Y-74248016D01*
X131710475Y-74584013D01*
X132303634Y-74702000D01*
X132364366Y-74702000D01*
X132957525Y-74584013D01*
X133460382Y-74248016D01*
X133796379Y-73745159D01*
X133853307Y-73458961D01*
X138403732Y-73458961D01*
X138639208Y-74028857D01*
X139074849Y-74465260D01*
X139644333Y-74701730D01*
X140260961Y-74702268D01*
X140830857Y-74466792D01*
X141267260Y-74031151D01*
X141503730Y-73461667D01*
X141504268Y-72845039D01*
X141268792Y-72275143D01*
X140833151Y-71838740D01*
X140263667Y-71602270D01*
X139647039Y-71601732D01*
X139077143Y-71837208D01*
X138640740Y-72272849D01*
X138404270Y-72842333D01*
X138403732Y-73458961D01*
X133853307Y-73458961D01*
X133914366Y-73152000D01*
X133796379Y-72558841D01*
X133460382Y-72055984D01*
X132957525Y-71719987D01*
X132364366Y-71602000D01*
X132303634Y-71602000D01*
X131710475Y-71719987D01*
X131207618Y-72055984D01*
X130871621Y-72558841D01*
X130753634Y-73152000D01*
X128435843Y-73152000D01*
X128511857Y-73120592D01*
X128948260Y-72684951D01*
X129184730Y-72115467D01*
X129185115Y-71673796D01*
X129722510Y-71200852D01*
X133113055Y-71200852D01*
X133229159Y-71456848D01*
X133920758Y-71560855D01*
X134443641Y-71456848D01*
X134559745Y-71200852D01*
X133836400Y-70477507D01*
X133113055Y-71200852D01*
X129722510Y-71200852D01*
X129749787Y-71176847D01*
X129767924Y-71153125D01*
X129792754Y-71136534D01*
X129876950Y-71010525D01*
X129969000Y-70890130D01*
X129976679Y-70861271D01*
X129993269Y-70836442D01*
X130022834Y-70687807D01*
X130061804Y-70541348D01*
X130057854Y-70511747D01*
X130063680Y-70482460D01*
X130063680Y-69854758D01*
X132045945Y-69854758D01*
X132149952Y-70377641D01*
X132405948Y-70493745D01*
X133129293Y-69770400D01*
X134543507Y-69770400D01*
X135266852Y-70493745D01*
X135522848Y-70377641D01*
X135562049Y-70116969D01*
X137086096Y-70116969D01*
X137351957Y-70760401D01*
X137843810Y-71253113D01*
X138486776Y-71520096D01*
X139182969Y-71520704D01*
X139826401Y-71254843D01*
X140319113Y-70762990D01*
X140586096Y-70120024D01*
X140586704Y-69423831D01*
X140320843Y-68780399D01*
X139828990Y-68287687D01*
X139186024Y-68020704D01*
X138489831Y-68020096D01*
X137846399Y-68285957D01*
X137353687Y-68777810D01*
X137086704Y-69420776D01*
X137086096Y-70116969D01*
X135562049Y-70116969D01*
X135626855Y-69686042D01*
X135522848Y-69163159D01*
X135266852Y-69047055D01*
X134543507Y-69770400D01*
X133129293Y-69770400D01*
X132405948Y-69047055D01*
X132149952Y-69163159D01*
X132045945Y-69854758D01*
X130063680Y-69854758D01*
X130063680Y-68339948D01*
X133113055Y-68339948D01*
X133836400Y-69063293D01*
X134559745Y-68339948D01*
X134443641Y-68083952D01*
X133752042Y-67979945D01*
X133229159Y-68083952D01*
X133113055Y-68339948D01*
X130063680Y-68339948D01*
X130063680Y-65135093D01*
X131736400Y-65135093D01*
X132014333Y-65082796D01*
X132269598Y-64918538D01*
X132440846Y-64667908D01*
X132501093Y-64370400D01*
X132501093Y-61170400D01*
X140171707Y-61170400D01*
X140171707Y-64370400D01*
X140224004Y-64648333D01*
X140388262Y-64903598D01*
X140638892Y-65074846D01*
X140936400Y-65135093D01*
X142936400Y-65135093D01*
X143214333Y-65082796D01*
X143469598Y-64918538D01*
X143640846Y-64667908D01*
X143701093Y-64370400D01*
X143701093Y-61170400D01*
X143648796Y-60892467D01*
X143484538Y-60637202D01*
X143233908Y-60465954D01*
X142936400Y-60405707D01*
X140936400Y-60405707D01*
X140658467Y-60458004D01*
X140403202Y-60622262D01*
X140231954Y-60872892D01*
X140171707Y-61170400D01*
X132501093Y-61170400D01*
X132448796Y-60892467D01*
X132284538Y-60637202D01*
X132033908Y-60465954D01*
X131736400Y-60405707D01*
X129736400Y-60405707D01*
X129458467Y-60458004D01*
X129203202Y-60622262D01*
X129031954Y-60872892D01*
X128972457Y-61166696D01*
X128949792Y-61111843D01*
X128514151Y-60675440D01*
X127944667Y-60438970D01*
X127328039Y-60438432D01*
X126758143Y-60673908D01*
X126321740Y-61109549D01*
X126085270Y-61679033D01*
X126084732Y-62295661D01*
X122122143Y-62295661D01*
X122070653Y-62036807D01*
X121723817Y-61517729D01*
X121516344Y-61379100D01*
X121723817Y-61240471D01*
X122070653Y-60721393D01*
X122192446Y-60109100D01*
X122070653Y-59496807D01*
X121723817Y-58977729D01*
X121516344Y-58839100D01*
X121723817Y-58700471D01*
X122070653Y-58181393D01*
X122192446Y-57569100D01*
X122070653Y-56956807D01*
X121723817Y-56437729D01*
X121516344Y-56299100D01*
X121723817Y-56160471D01*
X122070653Y-55641393D01*
X122192446Y-55029100D01*
X122070653Y-54416807D01*
X121723817Y-53897729D01*
X121204739Y-53550893D01*
X120592446Y-53429100D01*
X120529754Y-53429100D01*
X119917461Y-53550893D01*
X119398383Y-53897729D01*
X119291100Y-54058290D01*
X119183817Y-53897729D01*
X118664739Y-53550893D01*
X118052446Y-53429100D01*
X117989754Y-53429100D01*
X117377461Y-53550893D01*
X116858383Y-53897729D01*
X116511547Y-54416807D01*
X116389754Y-55029100D01*
X116511547Y-55641393D01*
X116858383Y-56160471D01*
X117065856Y-56299100D01*
X116858383Y-56437729D01*
X116511547Y-56956807D01*
X116389754Y-57569100D01*
X116511547Y-58181393D01*
X116858383Y-58700471D01*
X117065856Y-58839100D01*
X116858383Y-58977729D01*
X116511547Y-59496807D01*
X116389754Y-60109100D01*
X116511547Y-60721393D01*
X116858383Y-61240471D01*
X117065856Y-61379100D01*
X116858383Y-61517729D01*
X116705312Y-61746816D01*
X112886935Y-61813140D01*
X112718314Y-61849736D01*
X112549017Y-61883411D01*
X112542217Y-61887955D01*
X112534230Y-61889688D01*
X112392444Y-61988030D01*
X112248926Y-62083926D01*
X111720810Y-62612042D01*
X111420000Y-62736334D01*
X111124372Y-63031446D01*
X110964182Y-63417226D01*
X110963818Y-63834942D01*
X111123334Y-64221000D01*
X111418446Y-64516628D01*
X111804226Y-64676818D01*
X112221942Y-64677182D01*
X112608000Y-64517666D01*
X112903628Y-64222554D01*
X113029339Y-63919809D01*
X113292779Y-63656369D01*
X116735504Y-63596569D01*
X116858383Y-63780471D01*
X117065856Y-63919100D01*
X116858383Y-64057729D01*
X116511547Y-64576807D01*
X116389754Y-65189100D01*
X116511547Y-65801393D01*
X116858383Y-66320471D01*
X117065856Y-66459100D01*
X116858383Y-66597729D01*
X116511547Y-67116807D01*
X116389754Y-67729100D01*
X116511547Y-68341393D01*
X116796991Y-68768591D01*
X116637902Y-68870962D01*
X116549478Y-69000374D01*
X109342074Y-69077400D01*
X105115979Y-69077400D01*
X104955244Y-68970000D01*
X105162717Y-68831371D01*
X105509553Y-68312293D01*
X105631346Y-67700000D01*
X105509553Y-67087707D01*
X105162717Y-66568629D01*
X104955244Y-66430000D01*
X105162717Y-66291371D01*
X105509553Y-65772293D01*
X105631346Y-65160000D01*
X105509553Y-64547707D01*
X105162717Y-64028629D01*
X104955244Y-63890000D01*
X105162717Y-63751371D01*
X105459368Y-63307400D01*
X107161334Y-63307400D01*
X107227446Y-63373628D01*
X107613226Y-63533818D01*
X108030942Y-63534182D01*
X108417000Y-63374666D01*
X108712628Y-63079554D01*
X108872818Y-62693774D01*
X108873182Y-62276058D01*
X108713666Y-61890000D01*
X108418554Y-61594372D01*
X108032774Y-61434182D01*
X107615058Y-61433818D01*
X107557985Y-61457400D01*
X105115979Y-61457400D01*
X104955244Y-61350000D01*
X105162717Y-61211371D01*
X105509553Y-60692293D01*
X105631346Y-60080000D01*
X105509553Y-59467707D01*
X105162717Y-58948629D01*
X104955244Y-58810000D01*
X105162717Y-58671371D01*
X105509553Y-58152293D01*
X105631346Y-57540000D01*
X105509553Y-56927707D01*
X105224109Y-56500509D01*
X105383198Y-56398138D01*
X105554446Y-56147508D01*
X105614693Y-55850000D01*
X105614693Y-54150000D01*
X105562396Y-53872067D01*
X105398138Y-53616802D01*
X105147508Y-53445554D01*
X104850000Y-53385307D01*
X103150000Y-53385307D01*
X102872067Y-53437604D01*
X102616802Y-53601862D01*
X102445554Y-53852492D01*
X102385307Y-54150000D01*
X102385307Y-55850000D01*
X102437604Y-56127933D01*
X102601862Y-56383198D01*
X102775158Y-56501606D01*
X102490447Y-56927707D01*
X102368654Y-57540000D01*
X102490447Y-58152293D01*
X102837283Y-58671371D01*
X103044756Y-58810000D01*
X102884021Y-58917400D01*
X102590605Y-58917400D01*
X102590600Y-58917399D01*
X102236618Y-58987811D01*
X101936526Y-59188326D01*
X101936524Y-59188329D01*
X101250000Y-59874852D01*
X101250000Y-53250000D01*
X109316150Y-53250000D01*
X108642910Y-53922066D01*
M02*
