M48
;DRILL file {KiCad 4.0.7} date 10/23/19 08:49:19
;FORMAT={-:-/ absolute / metric / decimal}
FMAT,2
METRIC,TZ
T1C0.400
T2C0.800
T3C1.000
T4C1.100
T5C1.500
T6C3.048
%
G90
G05
M71
T1
X100.965Y-61.468
X107.315Y-76.581
X107.823Y-62.484
X107.95Y-79.629
X109.347Y-75.184
X112.014Y-63.627
X139.192Y-53.276
X146.66Y-69.037
X146.761Y-71.831
T2
X113.07Y-78.384
X115.57Y-78.384
X122.936Y-76.327
X127.635Y-54.369
X127.635Y-61.989
X127.635Y-64.186
X127.635Y-71.806
X130.556Y-76.327
X132.334Y-73.152
X139.954Y-73.152
X145.542Y-61.912
X145.582Y-64.77
X148.042Y-61.912
X148.082Y-64.77
T3
X104.Y-55.
X104.Y-57.54
X104.Y-60.08
X104.Y-62.62
X104.Y-65.16
X104.Y-67.7
X104.Y-70.24
X104.Y-72.78
X104.Y-75.32
X104.Y-77.86
X104.Y-80.4
X104.Y-82.94
X104.Y-85.48
X104.Y-88.02
X113.03Y-75.184
X115.57Y-75.184
X118.021Y-55.029
X118.021Y-57.569
X118.021Y-60.109
X118.021Y-62.649
X118.021Y-65.189
X118.021Y-67.729
X118.021Y-70.269
X120.561Y-55.029
X120.561Y-57.569
X120.561Y-60.109
X120.561Y-62.649
X120.561Y-65.189
X120.561Y-67.729
X120.561Y-70.269
X133.836Y-55.27
X133.836Y-69.77
X136.336Y-55.27
X138.836Y-55.27
X138.836Y-69.77
T4
X117.856Y-80.876
X117.856Y-87.376
X122.356Y-80.876
X122.356Y-87.376
X127.508Y-80.876
X127.508Y-87.376
X132.008Y-80.876
X132.008Y-87.376
X137.16Y-80.876
X137.16Y-87.376
X141.66Y-80.876
X141.66Y-87.376
T6
X111.Y-55.5
X111.Y-87.5
X148.Y-55.5
X148.Y-87.5
T5
X130.736Y-62.12G85X130.736Y-63.42
G05
X141.936Y-62.12G85X141.936Y-63.42
G05
T0
M30
