G04 #@! TF.FileFunction,Copper,L1,Top,Signal*
%FSLAX46Y46*%
G04 Gerber Fmt 4.6, Leading zero omitted, Abs format (unit mm)*
G04 Created by KiCad (PCBNEW 4.0.7) date 11/10/19 19:17:38*
%MOMM*%
%LPD*%
G01*
G04 APERTURE LIST*
%ADD10C,0.100000*%
%ADD11C,2.000000*%
%ADD12R,3.200000X2.000000*%
%ADD13R,2.000000X2.000000*%
%ADD14C,1.600000*%
%ADD15O,1.600000X1.600000*%
%ADD16R,1.700000X1.700000*%
%ADD17O,1.700000X1.700000*%
%ADD18C,4.064000*%
%ADD19C,0.600000*%
%ADD20C,0.350000*%
%ADD21C,0.500000*%
G04 APERTURE END LIST*
D10*
D11*
X116750000Y-81250000D03*
X116750000Y-86250000D03*
D12*
X123750000Y-78150000D03*
X123750000Y-89350000D03*
D11*
X131250000Y-81250000D03*
X131250000Y-83750000D03*
D13*
X131250000Y-86250000D03*
D14*
X138400000Y-66200000D03*
D15*
X138400000Y-73820000D03*
D16*
X118021100Y-70269100D03*
D17*
X120561100Y-70269100D03*
X118021100Y-67729100D03*
X120561100Y-67729100D03*
X118021100Y-65189100D03*
X120561100Y-65189100D03*
X118021100Y-62649100D03*
X120561100Y-62649100D03*
X118021100Y-60109100D03*
X120561100Y-60109100D03*
X118021100Y-57569100D03*
X120561100Y-57569100D03*
X118021100Y-55029100D03*
X120561100Y-55029100D03*
D14*
X136200000Y-66900000D03*
D15*
X136200000Y-59280000D03*
D14*
X136700000Y-75500000D03*
D15*
X136700000Y-83120000D03*
D14*
X113000000Y-81800000D03*
D15*
X113000000Y-74180000D03*
D11*
X126500000Y-74500000D03*
X126500000Y-70000000D03*
X133000000Y-74500000D03*
X133000000Y-70000000D03*
X126500000Y-66500000D03*
X126500000Y-62000000D03*
X133000000Y-66500000D03*
X133000000Y-62000000D03*
X126500000Y-58500000D03*
X126500000Y-54000000D03*
X133000000Y-58500000D03*
X133000000Y-54000000D03*
D16*
X104000000Y-55000000D03*
D17*
X104000000Y-57540000D03*
X104000000Y-60080000D03*
X104000000Y-62620000D03*
X104000000Y-65160000D03*
X104000000Y-67700000D03*
X104000000Y-70240000D03*
X104000000Y-72780000D03*
X104000000Y-75320000D03*
X104000000Y-77860000D03*
X104000000Y-80400000D03*
X104000000Y-82940000D03*
X104000000Y-85480000D03*
X104000000Y-88020000D03*
D18*
X111000000Y-55500000D03*
X138000000Y-87500000D03*
X111000000Y-87500000D03*
X138000000Y-55500000D03*
D19*
X111739680Y-71973440D03*
X107411520Y-76992480D03*
X107269280Y-74249280D03*
X124000000Y-64700000D03*
X107823000Y-62484000D03*
X112014000Y-63627000D03*
X101700000Y-61368000D03*
X121800000Y-58800000D03*
X124300000Y-69100000D03*
X101000000Y-68000000D03*
D20*
X113449766Y-69958554D02*
X116006946Y-69931225D01*
X116006946Y-69931225D02*
X117665500Y-69913500D01*
X117665500Y-69913500D02*
X118021100Y-70269100D01*
X111739680Y-71973440D02*
X111739680Y-71668640D01*
X111739680Y-71668640D02*
X113449766Y-69958554D01*
X104000000Y-80400000D02*
X104004000Y-80400000D01*
X104004000Y-80400000D02*
X107411520Y-76992480D01*
X104622600Y-77622400D02*
X103571040Y-77622400D01*
X107269280Y-74249280D02*
X104622600Y-77622400D01*
X120561100Y-67729100D02*
X120970900Y-67729100D01*
X120970900Y-67729100D02*
X124000000Y-64700000D01*
X103571040Y-62382400D02*
X107721400Y-62382400D01*
X107721400Y-62382400D02*
X107823000Y-62484000D01*
X112903000Y-62738000D02*
X118021100Y-62649100D01*
X112014000Y-63627000D02*
X112903000Y-62738000D01*
X103571040Y-59842400D02*
X102590600Y-59842400D01*
X102590600Y-59842400D02*
X101700000Y-61368000D01*
X118021100Y-57569100D02*
X118021100Y-57821100D01*
X118021100Y-57821100D02*
X119000000Y-58800000D01*
X119000000Y-58800000D02*
X121800000Y-58800000D01*
X124300000Y-69100000D02*
X126500000Y-66900000D01*
X126500000Y-66900000D02*
X126500000Y-66500000D01*
X101000000Y-68000000D02*
X103240000Y-70240000D01*
X103240000Y-70240000D02*
X104000000Y-70240000D01*
D21*
G36*
X109295631Y-53270484D02*
X108642910Y-53922066D01*
X108218484Y-54944198D01*
X108217518Y-56050946D01*
X108640160Y-57073818D01*
X109422066Y-57857090D01*
X110444198Y-58281516D01*
X111550946Y-58282482D01*
X112573818Y-57859840D01*
X113357090Y-57077934D01*
X113781516Y-56055802D01*
X113782482Y-54949054D01*
X113359840Y-53926182D01*
X112713710Y-53278923D01*
X124663603Y-53308429D01*
X124352131Y-53619901D01*
X124723538Y-53991308D01*
X124709545Y-54084358D01*
X124813552Y-54607241D01*
X125069548Y-54723345D01*
X125792893Y-54000000D01*
X125439340Y-53646447D01*
X125774613Y-53311173D01*
X127228977Y-53314763D01*
X127560661Y-53646447D01*
X127207107Y-54000000D01*
X127930452Y-54723345D01*
X128186448Y-54607241D01*
X128279539Y-53988231D01*
X128647869Y-53619901D01*
X128345488Y-53317520D01*
X131147593Y-53324439D01*
X130852131Y-53619901D01*
X131223538Y-53991308D01*
X131209545Y-54084358D01*
X131313552Y-54607241D01*
X131569548Y-54723345D01*
X132292893Y-54000000D01*
X131939340Y-53646447D01*
X132258604Y-53327182D01*
X133745066Y-53330852D01*
X134060661Y-53646447D01*
X133707107Y-54000000D01*
X134430452Y-54723345D01*
X134686448Y-54607241D01*
X134779539Y-53988231D01*
X135147869Y-53619901D01*
X134861578Y-53333610D01*
X136229013Y-53336986D01*
X135642910Y-53922066D01*
X135218484Y-54944198D01*
X135217518Y-56050946D01*
X135640160Y-57073818D01*
X136280961Y-57715738D01*
X136200000Y-57699634D01*
X135606841Y-57817621D01*
X135103984Y-58153618D01*
X134767987Y-58656475D01*
X134749785Y-58747984D01*
X134750304Y-58153431D01*
X134484443Y-57509999D01*
X133992590Y-57017287D01*
X133349624Y-56750304D01*
X132653431Y-56749696D01*
X132009999Y-57015557D01*
X131517287Y-57507410D01*
X131250304Y-58150376D01*
X131249696Y-58846569D01*
X131515557Y-59490001D01*
X132007410Y-59982713D01*
X132650376Y-60249696D01*
X132713510Y-60249751D01*
X132392759Y-60313552D01*
X132276655Y-60569548D01*
X133000000Y-61292893D01*
X133723345Y-60569548D01*
X133607241Y-60313552D01*
X133185737Y-60250164D01*
X133346569Y-60250304D01*
X133990001Y-59984443D01*
X134482713Y-59492590D01*
X134711058Y-58942674D01*
X134650000Y-59249634D01*
X134650000Y-59310366D01*
X134767987Y-59903525D01*
X135103984Y-60406382D01*
X135606841Y-60742379D01*
X136200000Y-60860366D01*
X136793159Y-60742379D01*
X137296016Y-60406382D01*
X137632013Y-59903525D01*
X137750000Y-59310366D01*
X137750000Y-59249634D01*
X137632013Y-58656475D01*
X137357389Y-58245470D01*
X137444198Y-58281516D01*
X138550946Y-58282482D01*
X139573818Y-57859840D01*
X140357090Y-57077934D01*
X140781516Y-56055802D01*
X140782482Y-54949054D01*
X140359840Y-53926182D01*
X139780425Y-53345754D01*
X141175000Y-53349198D01*
X141175000Y-89849197D01*
X139588404Y-89845279D01*
X140357090Y-89077934D01*
X140781516Y-88055802D01*
X140782482Y-86949054D01*
X140359840Y-85926182D01*
X139577934Y-85142910D01*
X138555802Y-84718484D01*
X137449054Y-84717518D01*
X136426182Y-85140160D01*
X135642910Y-85922066D01*
X135218484Y-86944198D01*
X135217518Y-88050946D01*
X135640160Y-89073818D01*
X136402423Y-89837413D01*
X126114693Y-89812011D01*
X126114693Y-88350000D01*
X126062396Y-88072067D01*
X125898138Y-87816802D01*
X125647508Y-87645554D01*
X125350000Y-87585307D01*
X122150000Y-87585307D01*
X121872067Y-87637604D01*
X121616802Y-87801862D01*
X121445554Y-88052492D01*
X121385307Y-88350000D01*
X121385307Y-89800334D01*
X112655022Y-89778777D01*
X113357090Y-89077934D01*
X113781516Y-88055802D01*
X113782482Y-86949054D01*
X113636839Y-86596569D01*
X114999696Y-86596569D01*
X115265557Y-87240001D01*
X115757410Y-87732713D01*
X116400376Y-87999696D01*
X117096569Y-88000304D01*
X117740001Y-87734443D01*
X118232713Y-87242590D01*
X118499696Y-86599624D01*
X118500304Y-85903431D01*
X118234443Y-85259999D01*
X117742590Y-84767287D01*
X117099624Y-84500304D01*
X116403431Y-84499696D01*
X115759999Y-84765557D01*
X115267287Y-85257410D01*
X115000304Y-85900376D01*
X114999696Y-86596569D01*
X113636839Y-86596569D01*
X113359840Y-85926182D01*
X112577934Y-85142910D01*
X111555802Y-84718484D01*
X110449054Y-84717518D01*
X109426182Y-85140160D01*
X108642910Y-85922066D01*
X108218484Y-86944198D01*
X108217518Y-88050946D01*
X108640160Y-89073818D01*
X109335708Y-89770582D01*
X101250000Y-89750617D01*
X101250000Y-88020000D01*
X102368654Y-88020000D01*
X102490447Y-88632293D01*
X102837283Y-89151371D01*
X103356361Y-89498207D01*
X103968654Y-89620000D01*
X104031346Y-89620000D01*
X104643639Y-89498207D01*
X105162717Y-89151371D01*
X105509553Y-88632293D01*
X105631346Y-88020000D01*
X105509553Y-87407707D01*
X105250002Y-87019261D01*
X105250002Y-86464534D01*
X105465241Y-86142369D01*
X105353336Y-85905000D01*
X104425000Y-85905000D01*
X104425000Y-86330000D01*
X103575000Y-86330000D01*
X103575000Y-85905000D01*
X102646664Y-85905000D01*
X102534759Y-86142369D01*
X102749998Y-86464534D01*
X102749998Y-87019261D01*
X102490447Y-87407707D01*
X102368654Y-88020000D01*
X101250000Y-88020000D01*
X101250000Y-69558148D01*
X102477114Y-70785262D01*
X102490447Y-70852293D01*
X102837283Y-71371371D01*
X103044756Y-71510000D01*
X102837283Y-71648629D01*
X102490447Y-72167707D01*
X102368654Y-72780000D01*
X102490447Y-73392293D01*
X102837283Y-73911371D01*
X103044756Y-74050000D01*
X102837283Y-74188629D01*
X102490447Y-74707707D01*
X102368654Y-75320000D01*
X102490447Y-75932293D01*
X102837283Y-76451371D01*
X103044756Y-76590000D01*
X102837283Y-76728629D01*
X102490447Y-77247707D01*
X102368654Y-77860000D01*
X102490447Y-78472293D01*
X102837283Y-78991371D01*
X103044756Y-79130000D01*
X102837283Y-79268629D01*
X102490447Y-79787707D01*
X102368654Y-80400000D01*
X102490447Y-81012293D01*
X102837283Y-81531371D01*
X103044756Y-81670000D01*
X102837283Y-81808629D01*
X102490447Y-82327707D01*
X102368654Y-82940000D01*
X102490447Y-83552293D01*
X102749998Y-83940739D01*
X102749998Y-84495466D01*
X102534759Y-84817631D01*
X102646664Y-85055000D01*
X103575000Y-85055000D01*
X103575000Y-84630000D01*
X104425000Y-84630000D01*
X104425000Y-85055000D01*
X105353336Y-85055000D01*
X105465241Y-84817631D01*
X105250002Y-84495466D01*
X105250002Y-84130099D01*
X129102131Y-84130099D01*
X129699385Y-84727353D01*
X129545554Y-84952492D01*
X129485307Y-85250000D01*
X129485307Y-87250000D01*
X129537604Y-87527933D01*
X129701862Y-87783198D01*
X129952492Y-87954446D01*
X130250000Y-88014693D01*
X132250000Y-88014693D01*
X132527933Y-87962396D01*
X132783198Y-87798138D01*
X132954446Y-87547508D01*
X133014693Y-87250000D01*
X133014693Y-85250000D01*
X132962396Y-84972067D01*
X132803239Y-84724729D01*
X133397869Y-84130099D01*
X133026462Y-83758692D01*
X133040455Y-83665642D01*
X132936448Y-83142759D01*
X132819314Y-83089634D01*
X135150000Y-83089634D01*
X135150000Y-83150366D01*
X135267987Y-83743525D01*
X135603984Y-84246382D01*
X136106841Y-84582379D01*
X136700000Y-84700366D01*
X137293159Y-84582379D01*
X137796016Y-84246382D01*
X138132013Y-83743525D01*
X138250000Y-83150366D01*
X138250000Y-83089634D01*
X138132013Y-82496475D01*
X137796016Y-81993618D01*
X137293159Y-81657621D01*
X136700000Y-81539634D01*
X136106841Y-81657621D01*
X135603984Y-81993618D01*
X135267987Y-82496475D01*
X135150000Y-83089634D01*
X132819314Y-83089634D01*
X132680452Y-83026655D01*
X131957107Y-83750000D01*
X132310661Y-84103554D01*
X131928907Y-84485307D01*
X131278200Y-84485307D01*
X131250000Y-84457107D01*
X131221800Y-84485307D01*
X130571093Y-84485307D01*
X130189340Y-84103554D01*
X130542893Y-83750000D01*
X129819548Y-83026655D01*
X129563552Y-83142759D01*
X129470461Y-83761769D01*
X129102131Y-84130099D01*
X105250002Y-84130099D01*
X105250002Y-83940739D01*
X105509553Y-83552293D01*
X105631346Y-82940000D01*
X105509553Y-82327707D01*
X105362056Y-82106961D01*
X111449732Y-82106961D01*
X111685208Y-82676857D01*
X112120849Y-83113260D01*
X112690333Y-83349730D01*
X113306961Y-83350268D01*
X113876857Y-83114792D01*
X114311956Y-82680452D01*
X116026655Y-82680452D01*
X116142759Y-82936448D01*
X116834358Y-83040455D01*
X117357241Y-82936448D01*
X117473345Y-82680452D01*
X116750000Y-81957107D01*
X116026655Y-82680452D01*
X114311956Y-82680452D01*
X114313260Y-82679151D01*
X114549730Y-82109667D01*
X114550268Y-81493039D01*
X114484703Y-81334358D01*
X114959545Y-81334358D01*
X115063552Y-81857241D01*
X115319548Y-81973345D01*
X116042893Y-81250000D01*
X117457107Y-81250000D01*
X118180452Y-81973345D01*
X118436448Y-81857241D01*
X118475649Y-81596569D01*
X129499696Y-81596569D01*
X129765557Y-82240001D01*
X130257410Y-82732713D01*
X130900376Y-82999696D01*
X131207071Y-82999964D01*
X131250000Y-83042893D01*
X131292854Y-83000039D01*
X131596569Y-83000304D01*
X132240001Y-82734443D01*
X132732713Y-82242590D01*
X132999696Y-81599624D01*
X133000304Y-80903431D01*
X132734443Y-80259999D01*
X132242590Y-79767287D01*
X131599624Y-79500304D01*
X130903431Y-79499696D01*
X130259999Y-79765557D01*
X129767287Y-80257410D01*
X129500304Y-80900376D01*
X129499696Y-81596569D01*
X118475649Y-81596569D01*
X118540455Y-81165642D01*
X118436448Y-80642759D01*
X118180452Y-80526655D01*
X117457107Y-81250000D01*
X116042893Y-81250000D01*
X115319548Y-80526655D01*
X115063552Y-80642759D01*
X114959545Y-81334358D01*
X114484703Y-81334358D01*
X114314792Y-80923143D01*
X113879151Y-80486740D01*
X113309667Y-80250270D01*
X112693039Y-80249732D01*
X112123143Y-80485208D01*
X111686740Y-80920849D01*
X111450270Y-81490333D01*
X111449732Y-82106961D01*
X105362056Y-82106961D01*
X105162717Y-81808629D01*
X104955244Y-81670000D01*
X105162717Y-81531371D01*
X105509553Y-81012293D01*
X105631346Y-80400000D01*
X105578388Y-80133760D01*
X105892600Y-79819548D01*
X116026655Y-79819548D01*
X116750000Y-80542893D01*
X117473345Y-79819548D01*
X117357241Y-79563552D01*
X116665642Y-79459545D01*
X116142759Y-79563552D01*
X116026655Y-79819548D01*
X105892600Y-79819548D01*
X107704710Y-78007438D01*
X108005520Y-77883146D01*
X108301148Y-77588034D01*
X108461338Y-77202254D01*
X108461383Y-77150000D01*
X121385307Y-77150000D01*
X121385307Y-79150000D01*
X121437604Y-79427933D01*
X121601862Y-79683198D01*
X121852492Y-79854446D01*
X122150000Y-79914693D01*
X125350000Y-79914693D01*
X125627933Y-79862396D01*
X125883198Y-79698138D01*
X126054446Y-79447508D01*
X126114693Y-79150000D01*
X126114693Y-77150000D01*
X126062396Y-76872067D01*
X125898138Y-76616802D01*
X125647508Y-76445554D01*
X125350000Y-76385307D01*
X122150000Y-76385307D01*
X121872067Y-76437604D01*
X121616802Y-76601862D01*
X121445554Y-76852492D01*
X121385307Y-77150000D01*
X108461383Y-77150000D01*
X108461702Y-76784538D01*
X108302186Y-76398480D01*
X108007074Y-76102852D01*
X107621294Y-75942662D01*
X107203578Y-75942298D01*
X107074913Y-75995461D01*
X107690007Y-75211541D01*
X107863280Y-75139946D01*
X108158908Y-74844834D01*
X108319098Y-74459054D01*
X108319462Y-74041338D01*
X108159946Y-73655280D01*
X107864834Y-73359652D01*
X107479054Y-73199462D01*
X107061338Y-73199098D01*
X106675280Y-73358614D01*
X106379652Y-73653726D01*
X106219462Y-74039506D01*
X106219419Y-74088832D01*
X105554910Y-74935731D01*
X105509553Y-74707707D01*
X105162717Y-74188629D01*
X104955244Y-74050000D01*
X105162717Y-73911371D01*
X105509553Y-73392293D01*
X105631346Y-72780000D01*
X105512274Y-72181382D01*
X110689498Y-72181382D01*
X110849014Y-72567440D01*
X111144126Y-72863068D01*
X111529906Y-73023258D01*
X111947622Y-73023622D01*
X111950909Y-73022264D01*
X111903984Y-73053618D01*
X111567987Y-73556475D01*
X111450000Y-74149634D01*
X111450000Y-74210366D01*
X111567987Y-74803525D01*
X111903984Y-75306382D01*
X112406841Y-75642379D01*
X113000000Y-75760366D01*
X113593159Y-75642379D01*
X114096016Y-75306382D01*
X114403252Y-74846569D01*
X124749696Y-74846569D01*
X125015557Y-75490001D01*
X125507410Y-75982713D01*
X126150376Y-76249696D01*
X126846569Y-76250304D01*
X127490001Y-75984443D01*
X127982713Y-75492590D01*
X128249696Y-74849624D01*
X128249698Y-74846569D01*
X131249696Y-74846569D01*
X131515557Y-75490001D01*
X132007410Y-75982713D01*
X132650376Y-76249696D01*
X133346569Y-76250304D01*
X133990001Y-75984443D01*
X134167792Y-75806961D01*
X135149732Y-75806961D01*
X135385208Y-76376857D01*
X135820849Y-76813260D01*
X136390333Y-77049730D01*
X137006961Y-77050268D01*
X137576857Y-76814792D01*
X138013260Y-76379151D01*
X138249730Y-75809667D01*
X138250113Y-75370552D01*
X138400000Y-75400366D01*
X138993159Y-75282379D01*
X139496016Y-74946382D01*
X139832013Y-74443525D01*
X139950000Y-73850366D01*
X139950000Y-73789634D01*
X139832013Y-73196475D01*
X139496016Y-72693618D01*
X138993159Y-72357621D01*
X138400000Y-72239634D01*
X137806841Y-72357621D01*
X137303984Y-72693618D01*
X136967987Y-73196475D01*
X136850000Y-73789634D01*
X136850000Y-73850366D01*
X136869848Y-73950148D01*
X136393039Y-73949732D01*
X135823143Y-74185208D01*
X135386740Y-74620849D01*
X135150270Y-75190333D01*
X135149732Y-75806961D01*
X134167792Y-75806961D01*
X134482713Y-75492590D01*
X134749696Y-74849624D01*
X134750304Y-74153431D01*
X134484443Y-73509999D01*
X133992590Y-73017287D01*
X133349624Y-72750304D01*
X132653431Y-72749696D01*
X132009999Y-73015557D01*
X131517287Y-73507410D01*
X131250304Y-74150376D01*
X131249696Y-74846569D01*
X128249698Y-74846569D01*
X128250304Y-74153431D01*
X127984443Y-73509999D01*
X127492590Y-73017287D01*
X126849624Y-72750304D01*
X126153431Y-72749696D01*
X125509999Y-73015557D01*
X125017287Y-73507410D01*
X124750304Y-74150376D01*
X124749696Y-74846569D01*
X114403252Y-74846569D01*
X114432013Y-74803525D01*
X114550000Y-74210366D01*
X114550000Y-74149634D01*
X114432013Y-73556475D01*
X114096016Y-73053618D01*
X113593159Y-72717621D01*
X113000000Y-72599634D01*
X112498731Y-72699343D01*
X112629308Y-72568994D01*
X112789498Y-72183214D01*
X112789721Y-71926747D01*
X113837000Y-70879468D01*
X116016831Y-70856172D01*
X116406407Y-70852009D01*
X116406407Y-71119100D01*
X116458704Y-71397033D01*
X116622962Y-71652298D01*
X116873592Y-71823546D01*
X117171100Y-71883793D01*
X118871100Y-71883793D01*
X119149033Y-71831496D01*
X119404298Y-71667238D01*
X119527585Y-71486801D01*
X119917461Y-71747307D01*
X120529754Y-71869100D01*
X120592446Y-71869100D01*
X121204739Y-71747307D01*
X121678947Y-71430452D01*
X125776655Y-71430452D01*
X125892759Y-71686448D01*
X126584358Y-71790455D01*
X127107241Y-71686448D01*
X127223345Y-71430452D01*
X132276655Y-71430452D01*
X132392759Y-71686448D01*
X133084358Y-71790455D01*
X133607241Y-71686448D01*
X133723345Y-71430452D01*
X133000000Y-70707107D01*
X132276655Y-71430452D01*
X127223345Y-71430452D01*
X126500000Y-70707107D01*
X125776655Y-71430452D01*
X121678947Y-71430452D01*
X121723817Y-71400471D01*
X122070653Y-70881393D01*
X122192446Y-70269100D01*
X122070653Y-69656807D01*
X121837550Y-69307942D01*
X123249818Y-69307942D01*
X123409334Y-69694000D01*
X123704446Y-69989628D01*
X124090226Y-70149818D01*
X124507942Y-70150182D01*
X124712347Y-70065723D01*
X124709545Y-70084358D01*
X124813552Y-70607241D01*
X125069548Y-70723345D01*
X125792893Y-70000000D01*
X127207107Y-70000000D01*
X127930452Y-70723345D01*
X128186448Y-70607241D01*
X128265082Y-70084358D01*
X131209545Y-70084358D01*
X131313552Y-70607241D01*
X131569548Y-70723345D01*
X132292893Y-70000000D01*
X133707107Y-70000000D01*
X134430452Y-70723345D01*
X134686448Y-70607241D01*
X134790455Y-69915642D01*
X134686448Y-69392759D01*
X134430452Y-69276655D01*
X133707107Y-70000000D01*
X132292893Y-70000000D01*
X131569548Y-69276655D01*
X131313552Y-69392759D01*
X131209545Y-70084358D01*
X128265082Y-70084358D01*
X128290455Y-69915642D01*
X128186448Y-69392759D01*
X127930452Y-69276655D01*
X127207107Y-70000000D01*
X125792893Y-70000000D01*
X125439340Y-69646447D01*
X126146447Y-68939340D01*
X126500000Y-69292893D01*
X127223345Y-68569548D01*
X127107241Y-68313552D01*
X126685737Y-68250164D01*
X126846569Y-68250304D01*
X127490001Y-67984443D01*
X127982713Y-67492590D01*
X128249696Y-66849624D01*
X128249698Y-66846569D01*
X131249696Y-66846569D01*
X131515557Y-67490001D01*
X132007410Y-67982713D01*
X132650376Y-68249696D01*
X132713510Y-68249751D01*
X132392759Y-68313552D01*
X132276655Y-68569548D01*
X133000000Y-69292893D01*
X133723345Y-68569548D01*
X133607241Y-68313552D01*
X133185737Y-68250164D01*
X133346569Y-68250304D01*
X133990001Y-67984443D01*
X134482713Y-67492590D01*
X134649834Y-67090118D01*
X134649732Y-67206961D01*
X134885208Y-67776857D01*
X135320849Y-68213260D01*
X135890333Y-68449730D01*
X136506961Y-68450268D01*
X137076857Y-68214792D01*
X137513260Y-67779151D01*
X137608547Y-67549675D01*
X138090333Y-67749730D01*
X138706961Y-67750268D01*
X139276857Y-67514792D01*
X139713260Y-67079151D01*
X139949730Y-66509667D01*
X139950268Y-65893039D01*
X139714792Y-65323143D01*
X139279151Y-64886740D01*
X138709667Y-64650270D01*
X138093039Y-64649732D01*
X137523143Y-64885208D01*
X137086740Y-65320849D01*
X136991453Y-65550325D01*
X136509667Y-65350270D01*
X135893039Y-65349732D01*
X135323143Y-65585208D01*
X134886740Y-66020849D01*
X134750132Y-66349837D01*
X134750304Y-66153431D01*
X134484443Y-65509999D01*
X133992590Y-65017287D01*
X133349624Y-64750304D01*
X132653431Y-64749696D01*
X132009999Y-65015557D01*
X131517287Y-65507410D01*
X131250304Y-66150376D01*
X131249696Y-66846569D01*
X128249698Y-66846569D01*
X128250304Y-66153431D01*
X127984443Y-65509999D01*
X127492590Y-65017287D01*
X126849624Y-64750304D01*
X126153431Y-64749696D01*
X125509999Y-65015557D01*
X125017287Y-65507410D01*
X124750304Y-66150376D01*
X124749696Y-66846569D01*
X124894597Y-67197255D01*
X124006810Y-68085042D01*
X123706000Y-68209334D01*
X123410372Y-68504446D01*
X123250182Y-68890226D01*
X123249818Y-69307942D01*
X121837550Y-69307942D01*
X121723817Y-69137729D01*
X121516344Y-68999100D01*
X121723817Y-68860471D01*
X122070653Y-68341393D01*
X122170942Y-67837206D01*
X124293190Y-65714958D01*
X124594000Y-65590666D01*
X124889628Y-65295554D01*
X125049818Y-64909774D01*
X125050182Y-64492058D01*
X124890666Y-64106000D01*
X124595554Y-63810372D01*
X124209774Y-63650182D01*
X123792058Y-63649818D01*
X123406000Y-63809334D01*
X123110372Y-64104446D01*
X122984661Y-64407191D01*
X121777752Y-65614100D01*
X120986100Y-65614100D01*
X120986100Y-66039100D01*
X120136100Y-66039100D01*
X120136100Y-65614100D01*
X119711100Y-65614100D01*
X119711100Y-64764100D01*
X120136100Y-64764100D01*
X120136100Y-64339100D01*
X120986100Y-64339100D01*
X120986100Y-64764100D01*
X121914436Y-64764100D01*
X122026341Y-64526731D01*
X121811102Y-64204566D01*
X121811102Y-63649839D01*
X121957691Y-63430452D01*
X125776655Y-63430452D01*
X125892759Y-63686448D01*
X126584358Y-63790455D01*
X127107241Y-63686448D01*
X127223345Y-63430452D01*
X132276655Y-63430452D01*
X132392759Y-63686448D01*
X133084358Y-63790455D01*
X133607241Y-63686448D01*
X133723345Y-63430452D01*
X133000000Y-62707107D01*
X132276655Y-63430452D01*
X127223345Y-63430452D01*
X126500000Y-62707107D01*
X125776655Y-63430452D01*
X121957691Y-63430452D01*
X122070653Y-63261393D01*
X122192446Y-62649100D01*
X122080112Y-62084358D01*
X124709545Y-62084358D01*
X124813552Y-62607241D01*
X125069548Y-62723345D01*
X125792893Y-62000000D01*
X127207107Y-62000000D01*
X127930452Y-62723345D01*
X128186448Y-62607241D01*
X128265082Y-62084358D01*
X131209545Y-62084358D01*
X131313552Y-62607241D01*
X131569548Y-62723345D01*
X132292893Y-62000000D01*
X133707107Y-62000000D01*
X134430452Y-62723345D01*
X134686448Y-62607241D01*
X134790455Y-61915642D01*
X134686448Y-61392759D01*
X134430452Y-61276655D01*
X133707107Y-62000000D01*
X132292893Y-62000000D01*
X131569548Y-61276655D01*
X131313552Y-61392759D01*
X131209545Y-62084358D01*
X128265082Y-62084358D01*
X128290455Y-61915642D01*
X128186448Y-61392759D01*
X127930452Y-61276655D01*
X127207107Y-62000000D01*
X125792893Y-62000000D01*
X125069548Y-61276655D01*
X124813552Y-61392759D01*
X124709545Y-62084358D01*
X122080112Y-62084358D01*
X122070653Y-62036807D01*
X121723817Y-61517729D01*
X121516344Y-61379100D01*
X121723817Y-61240471D01*
X122070653Y-60721393D01*
X122192446Y-60109100D01*
X122130843Y-59799400D01*
X122394000Y-59690666D01*
X122689628Y-59395554D01*
X122849818Y-59009774D01*
X122849960Y-58846569D01*
X124749696Y-58846569D01*
X125015557Y-59490001D01*
X125507410Y-59982713D01*
X126150376Y-60249696D01*
X126213510Y-60249751D01*
X125892759Y-60313552D01*
X125776655Y-60569548D01*
X126500000Y-61292893D01*
X127223345Y-60569548D01*
X127107241Y-60313552D01*
X126685737Y-60250164D01*
X126846569Y-60250304D01*
X127490001Y-59984443D01*
X127982713Y-59492590D01*
X128249696Y-58849624D01*
X128250304Y-58153431D01*
X127984443Y-57509999D01*
X127492590Y-57017287D01*
X126849624Y-56750304D01*
X126153431Y-56749696D01*
X125509999Y-57015557D01*
X125017287Y-57507410D01*
X124750304Y-58150376D01*
X124749696Y-58846569D01*
X122849960Y-58846569D01*
X122850182Y-58592058D01*
X122690666Y-58206000D01*
X122395554Y-57910372D01*
X122145238Y-57806431D01*
X122192446Y-57569100D01*
X122070653Y-56956807D01*
X121723817Y-56437729D01*
X121516344Y-56299100D01*
X121723817Y-56160471D01*
X122070653Y-55641393D01*
X122112611Y-55430452D01*
X125776655Y-55430452D01*
X125892759Y-55686448D01*
X126584358Y-55790455D01*
X127107241Y-55686448D01*
X127223345Y-55430452D01*
X132276655Y-55430452D01*
X132392759Y-55686448D01*
X133084358Y-55790455D01*
X133607241Y-55686448D01*
X133723345Y-55430452D01*
X133000000Y-54707107D01*
X132276655Y-55430452D01*
X127223345Y-55430452D01*
X126500000Y-54707107D01*
X125776655Y-55430452D01*
X122112611Y-55430452D01*
X122192446Y-55029100D01*
X122070653Y-54416807D01*
X121723817Y-53897729D01*
X121204739Y-53550893D01*
X120592446Y-53429100D01*
X120529754Y-53429100D01*
X119917461Y-53550893D01*
X119398383Y-53897729D01*
X119291100Y-54058290D01*
X119183817Y-53897729D01*
X118664739Y-53550893D01*
X118052446Y-53429100D01*
X117989754Y-53429100D01*
X117377461Y-53550893D01*
X116858383Y-53897729D01*
X116511547Y-54416807D01*
X116389754Y-55029100D01*
X116511547Y-55641393D01*
X116858383Y-56160471D01*
X117065856Y-56299100D01*
X116858383Y-56437729D01*
X116511547Y-56956807D01*
X116389754Y-57569100D01*
X116511547Y-58181393D01*
X116858383Y-58700471D01*
X117065856Y-58839100D01*
X116858383Y-58977729D01*
X116511547Y-59496807D01*
X116389754Y-60109100D01*
X116511547Y-60721393D01*
X116858383Y-61240471D01*
X117065856Y-61379100D01*
X116858383Y-61517729D01*
X116705312Y-61746816D01*
X112886935Y-61813140D01*
X112718314Y-61849736D01*
X112549017Y-61883411D01*
X112542217Y-61887955D01*
X112534230Y-61889688D01*
X112392444Y-61988030D01*
X112248926Y-62083926D01*
X111720810Y-62612042D01*
X111420000Y-62736334D01*
X111124372Y-63031446D01*
X110964182Y-63417226D01*
X110963818Y-63834942D01*
X111123334Y-64221000D01*
X111418446Y-64516628D01*
X111804226Y-64676818D01*
X112221942Y-64677182D01*
X112608000Y-64517666D01*
X112903628Y-64222554D01*
X113029339Y-63919809D01*
X113292779Y-63656369D01*
X116735504Y-63596569D01*
X116858383Y-63780471D01*
X117065856Y-63919100D01*
X116858383Y-64057729D01*
X116511547Y-64576807D01*
X116389754Y-65189100D01*
X116511547Y-65801393D01*
X116858383Y-66320471D01*
X117065856Y-66459100D01*
X116858383Y-66597729D01*
X116511547Y-67116807D01*
X116389754Y-67729100D01*
X116511547Y-68341393D01*
X116796991Y-68768591D01*
X116637902Y-68870962D01*
X116549478Y-69000374D01*
X115997061Y-69006278D01*
X113439881Y-69033607D01*
X113268049Y-69069700D01*
X113095784Y-69103965D01*
X113091597Y-69106762D01*
X113086672Y-69107797D01*
X112941733Y-69206899D01*
X112795692Y-69304480D01*
X111085606Y-71014566D01*
X110885091Y-71314657D01*
X110885091Y-71314658D01*
X110878079Y-71349907D01*
X110850052Y-71377886D01*
X110689862Y-71763666D01*
X110689498Y-72181382D01*
X105512274Y-72181382D01*
X105509553Y-72167707D01*
X105162717Y-71648629D01*
X104955244Y-71510000D01*
X105162717Y-71371371D01*
X105509553Y-70852293D01*
X105631346Y-70240000D01*
X105509553Y-69627707D01*
X105162717Y-69108629D01*
X104955244Y-68970000D01*
X105162717Y-68831371D01*
X105509553Y-68312293D01*
X105631346Y-67700000D01*
X105509553Y-67087707D01*
X105162717Y-66568629D01*
X104955244Y-66430000D01*
X105162717Y-66291371D01*
X105509553Y-65772293D01*
X105631346Y-65160000D01*
X105509553Y-64547707D01*
X105162717Y-64028629D01*
X104955244Y-63890000D01*
X105162717Y-63751371D01*
X105459368Y-63307400D01*
X107161334Y-63307400D01*
X107227446Y-63373628D01*
X107613226Y-63533818D01*
X108030942Y-63534182D01*
X108417000Y-63374666D01*
X108712628Y-63079554D01*
X108872818Y-62693774D01*
X108873182Y-62276058D01*
X108713666Y-61890000D01*
X108418554Y-61594372D01*
X108032774Y-61434182D01*
X107615058Y-61433818D01*
X107557985Y-61457400D01*
X105115979Y-61457400D01*
X104955244Y-61350000D01*
X105162717Y-61211371D01*
X105509553Y-60692293D01*
X105631346Y-60080000D01*
X105509553Y-59467707D01*
X105162717Y-58948629D01*
X104955244Y-58810000D01*
X105162717Y-58671371D01*
X105509553Y-58152293D01*
X105631346Y-57540000D01*
X105509553Y-56927707D01*
X105224109Y-56500509D01*
X105383198Y-56398138D01*
X105554446Y-56147508D01*
X105614693Y-55850000D01*
X105614693Y-54150000D01*
X105562396Y-53872067D01*
X105398138Y-53616802D01*
X105147508Y-53445554D01*
X104850000Y-53385307D01*
X103150000Y-53385307D01*
X102872067Y-53437604D01*
X102616802Y-53601862D01*
X102445554Y-53852492D01*
X102385307Y-54150000D01*
X102385307Y-55850000D01*
X102437604Y-56127933D01*
X102601862Y-56383198D01*
X102775158Y-56501606D01*
X102490447Y-56927707D01*
X102368654Y-57540000D01*
X102490447Y-58152293D01*
X102837283Y-58671371D01*
X103044756Y-58810000D01*
X102884021Y-58917400D01*
X102590600Y-58917400D01*
X102474078Y-58940578D01*
X102355485Y-58947779D01*
X102298637Y-58975475D01*
X102236618Y-58987811D01*
X102137834Y-59053816D01*
X102031026Y-59105852D01*
X101989104Y-59153194D01*
X101936526Y-59188326D01*
X101870518Y-59287114D01*
X101791757Y-59376059D01*
X101250000Y-60304090D01*
X101250000Y-53250618D01*
X109295631Y-53270484D01*
X109295631Y-53270484D01*
G37*
X109295631Y-53270484D02*
X108642910Y-53922066D01*
X108218484Y-54944198D01*
X108217518Y-56050946D01*
X108640160Y-57073818D01*
X109422066Y-57857090D01*
X110444198Y-58281516D01*
X111550946Y-58282482D01*
X112573818Y-57859840D01*
X113357090Y-57077934D01*
X113781516Y-56055802D01*
X113782482Y-54949054D01*
X113359840Y-53926182D01*
X112713710Y-53278923D01*
X124663603Y-53308429D01*
X124352131Y-53619901D01*
X124723538Y-53991308D01*
X124709545Y-54084358D01*
X124813552Y-54607241D01*
X125069548Y-54723345D01*
X125792893Y-54000000D01*
X125439340Y-53646447D01*
X125774613Y-53311173D01*
X127228977Y-53314763D01*
X127560661Y-53646447D01*
X127207107Y-54000000D01*
X127930452Y-54723345D01*
X128186448Y-54607241D01*
X128279539Y-53988231D01*
X128647869Y-53619901D01*
X128345488Y-53317520D01*
X131147593Y-53324439D01*
X130852131Y-53619901D01*
X131223538Y-53991308D01*
X131209545Y-54084358D01*
X131313552Y-54607241D01*
X131569548Y-54723345D01*
X132292893Y-54000000D01*
X131939340Y-53646447D01*
X132258604Y-53327182D01*
X133745066Y-53330852D01*
X134060661Y-53646447D01*
X133707107Y-54000000D01*
X134430452Y-54723345D01*
X134686448Y-54607241D01*
X134779539Y-53988231D01*
X135147869Y-53619901D01*
X134861578Y-53333610D01*
X136229013Y-53336986D01*
X135642910Y-53922066D01*
X135218484Y-54944198D01*
X135217518Y-56050946D01*
X135640160Y-57073818D01*
X136280961Y-57715738D01*
X136200000Y-57699634D01*
X135606841Y-57817621D01*
X135103984Y-58153618D01*
X134767987Y-58656475D01*
X134749785Y-58747984D01*
X134750304Y-58153431D01*
X134484443Y-57509999D01*
X133992590Y-57017287D01*
X133349624Y-56750304D01*
X132653431Y-56749696D01*
X132009999Y-57015557D01*
X131517287Y-57507410D01*
X131250304Y-58150376D01*
X131249696Y-58846569D01*
X131515557Y-59490001D01*
X132007410Y-59982713D01*
X132650376Y-60249696D01*
X132713510Y-60249751D01*
X132392759Y-60313552D01*
X132276655Y-60569548D01*
X133000000Y-61292893D01*
X133723345Y-60569548D01*
X133607241Y-60313552D01*
X133185737Y-60250164D01*
X133346569Y-60250304D01*
X133990001Y-59984443D01*
X134482713Y-59492590D01*
X134711058Y-58942674D01*
X134650000Y-59249634D01*
X134650000Y-59310366D01*
X134767987Y-59903525D01*
X135103984Y-60406382D01*
X135606841Y-60742379D01*
X136200000Y-60860366D01*
X136793159Y-60742379D01*
X137296016Y-60406382D01*
X137632013Y-59903525D01*
X137750000Y-59310366D01*
X137750000Y-59249634D01*
X137632013Y-58656475D01*
X137357389Y-58245470D01*
X137444198Y-58281516D01*
X138550946Y-58282482D01*
X139573818Y-57859840D01*
X140357090Y-57077934D01*
X140781516Y-56055802D01*
X140782482Y-54949054D01*
X140359840Y-53926182D01*
X139780425Y-53345754D01*
X141175000Y-53349198D01*
X141175000Y-89849197D01*
X139588404Y-89845279D01*
X140357090Y-89077934D01*
X140781516Y-88055802D01*
X140782482Y-86949054D01*
X140359840Y-85926182D01*
X139577934Y-85142910D01*
X138555802Y-84718484D01*
X137449054Y-84717518D01*
X136426182Y-85140160D01*
X135642910Y-85922066D01*
X135218484Y-86944198D01*
X135217518Y-88050946D01*
X135640160Y-89073818D01*
X136402423Y-89837413D01*
X126114693Y-89812011D01*
X126114693Y-88350000D01*
X126062396Y-88072067D01*
X125898138Y-87816802D01*
X125647508Y-87645554D01*
X125350000Y-87585307D01*
X122150000Y-87585307D01*
X121872067Y-87637604D01*
X121616802Y-87801862D01*
X121445554Y-88052492D01*
X121385307Y-88350000D01*
X121385307Y-89800334D01*
X112655022Y-89778777D01*
X113357090Y-89077934D01*
X113781516Y-88055802D01*
X113782482Y-86949054D01*
X113636839Y-86596569D01*
X114999696Y-86596569D01*
X115265557Y-87240001D01*
X115757410Y-87732713D01*
X116400376Y-87999696D01*
X117096569Y-88000304D01*
X117740001Y-87734443D01*
X118232713Y-87242590D01*
X118499696Y-86599624D01*
X118500304Y-85903431D01*
X118234443Y-85259999D01*
X117742590Y-84767287D01*
X117099624Y-84500304D01*
X116403431Y-84499696D01*
X115759999Y-84765557D01*
X115267287Y-85257410D01*
X115000304Y-85900376D01*
X114999696Y-86596569D01*
X113636839Y-86596569D01*
X113359840Y-85926182D01*
X112577934Y-85142910D01*
X111555802Y-84718484D01*
X110449054Y-84717518D01*
X109426182Y-85140160D01*
X108642910Y-85922066D01*
X108218484Y-86944198D01*
X108217518Y-88050946D01*
X108640160Y-89073818D01*
X109335708Y-89770582D01*
X101250000Y-89750617D01*
X101250000Y-88020000D01*
X102368654Y-88020000D01*
X102490447Y-88632293D01*
X102837283Y-89151371D01*
X103356361Y-89498207D01*
X103968654Y-89620000D01*
X104031346Y-89620000D01*
X104643639Y-89498207D01*
X105162717Y-89151371D01*
X105509553Y-88632293D01*
X105631346Y-88020000D01*
X105509553Y-87407707D01*
X105250002Y-87019261D01*
X105250002Y-86464534D01*
X105465241Y-86142369D01*
X105353336Y-85905000D01*
X104425000Y-85905000D01*
X104425000Y-86330000D01*
X103575000Y-86330000D01*
X103575000Y-85905000D01*
X102646664Y-85905000D01*
X102534759Y-86142369D01*
X102749998Y-86464534D01*
X102749998Y-87019261D01*
X102490447Y-87407707D01*
X102368654Y-88020000D01*
X101250000Y-88020000D01*
X101250000Y-69558148D01*
X102477114Y-70785262D01*
X102490447Y-70852293D01*
X102837283Y-71371371D01*
X103044756Y-71510000D01*
X102837283Y-71648629D01*
X102490447Y-72167707D01*
X102368654Y-72780000D01*
X102490447Y-73392293D01*
X102837283Y-73911371D01*
X103044756Y-74050000D01*
X102837283Y-74188629D01*
X102490447Y-74707707D01*
X102368654Y-75320000D01*
X102490447Y-75932293D01*
X102837283Y-76451371D01*
X103044756Y-76590000D01*
X102837283Y-76728629D01*
X102490447Y-77247707D01*
X102368654Y-77860000D01*
X102490447Y-78472293D01*
X102837283Y-78991371D01*
X103044756Y-79130000D01*
X102837283Y-79268629D01*
X102490447Y-79787707D01*
X102368654Y-80400000D01*
X102490447Y-81012293D01*
X102837283Y-81531371D01*
X103044756Y-81670000D01*
X102837283Y-81808629D01*
X102490447Y-82327707D01*
X102368654Y-82940000D01*
X102490447Y-83552293D01*
X102749998Y-83940739D01*
X102749998Y-84495466D01*
X102534759Y-84817631D01*
X102646664Y-85055000D01*
X103575000Y-85055000D01*
X103575000Y-84630000D01*
X104425000Y-84630000D01*
X104425000Y-85055000D01*
X105353336Y-85055000D01*
X105465241Y-84817631D01*
X105250002Y-84495466D01*
X105250002Y-84130099D01*
X129102131Y-84130099D01*
X129699385Y-84727353D01*
X129545554Y-84952492D01*
X129485307Y-85250000D01*
X129485307Y-87250000D01*
X129537604Y-87527933D01*
X129701862Y-87783198D01*
X129952492Y-87954446D01*
X130250000Y-88014693D01*
X132250000Y-88014693D01*
X132527933Y-87962396D01*
X132783198Y-87798138D01*
X132954446Y-87547508D01*
X133014693Y-87250000D01*
X133014693Y-85250000D01*
X132962396Y-84972067D01*
X132803239Y-84724729D01*
X133397869Y-84130099D01*
X133026462Y-83758692D01*
X133040455Y-83665642D01*
X132936448Y-83142759D01*
X132819314Y-83089634D01*
X135150000Y-83089634D01*
X135150000Y-83150366D01*
X135267987Y-83743525D01*
X135603984Y-84246382D01*
X136106841Y-84582379D01*
X136700000Y-84700366D01*
X137293159Y-84582379D01*
X137796016Y-84246382D01*
X138132013Y-83743525D01*
X138250000Y-83150366D01*
X138250000Y-83089634D01*
X138132013Y-82496475D01*
X137796016Y-81993618D01*
X137293159Y-81657621D01*
X136700000Y-81539634D01*
X136106841Y-81657621D01*
X135603984Y-81993618D01*
X135267987Y-82496475D01*
X135150000Y-83089634D01*
X132819314Y-83089634D01*
X132680452Y-83026655D01*
X131957107Y-83750000D01*
X132310661Y-84103554D01*
X131928907Y-84485307D01*
X131278200Y-84485307D01*
X131250000Y-84457107D01*
X131221800Y-84485307D01*
X130571093Y-84485307D01*
X130189340Y-84103554D01*
X130542893Y-83750000D01*
X129819548Y-83026655D01*
X129563552Y-83142759D01*
X129470461Y-83761769D01*
X129102131Y-84130099D01*
X105250002Y-84130099D01*
X105250002Y-83940739D01*
X105509553Y-83552293D01*
X105631346Y-82940000D01*
X105509553Y-82327707D01*
X105362056Y-82106961D01*
X111449732Y-82106961D01*
X111685208Y-82676857D01*
X112120849Y-83113260D01*
X112690333Y-83349730D01*
X113306961Y-83350268D01*
X113876857Y-83114792D01*
X114311956Y-82680452D01*
X116026655Y-82680452D01*
X116142759Y-82936448D01*
X116834358Y-83040455D01*
X117357241Y-82936448D01*
X117473345Y-82680452D01*
X116750000Y-81957107D01*
X116026655Y-82680452D01*
X114311956Y-82680452D01*
X114313260Y-82679151D01*
X114549730Y-82109667D01*
X114550268Y-81493039D01*
X114484703Y-81334358D01*
X114959545Y-81334358D01*
X115063552Y-81857241D01*
X115319548Y-81973345D01*
X116042893Y-81250000D01*
X117457107Y-81250000D01*
X118180452Y-81973345D01*
X118436448Y-81857241D01*
X118475649Y-81596569D01*
X129499696Y-81596569D01*
X129765557Y-82240001D01*
X130257410Y-82732713D01*
X130900376Y-82999696D01*
X131207071Y-82999964D01*
X131250000Y-83042893D01*
X131292854Y-83000039D01*
X131596569Y-83000304D01*
X132240001Y-82734443D01*
X132732713Y-82242590D01*
X132999696Y-81599624D01*
X133000304Y-80903431D01*
X132734443Y-80259999D01*
X132242590Y-79767287D01*
X131599624Y-79500304D01*
X130903431Y-79499696D01*
X130259999Y-79765557D01*
X129767287Y-80257410D01*
X129500304Y-80900376D01*
X129499696Y-81596569D01*
X118475649Y-81596569D01*
X118540455Y-81165642D01*
X118436448Y-80642759D01*
X118180452Y-80526655D01*
X117457107Y-81250000D01*
X116042893Y-81250000D01*
X115319548Y-80526655D01*
X115063552Y-80642759D01*
X114959545Y-81334358D01*
X114484703Y-81334358D01*
X114314792Y-80923143D01*
X113879151Y-80486740D01*
X113309667Y-80250270D01*
X112693039Y-80249732D01*
X112123143Y-80485208D01*
X111686740Y-80920849D01*
X111450270Y-81490333D01*
X111449732Y-82106961D01*
X105362056Y-82106961D01*
X105162717Y-81808629D01*
X104955244Y-81670000D01*
X105162717Y-81531371D01*
X105509553Y-81012293D01*
X105631346Y-80400000D01*
X105578388Y-80133760D01*
X105892600Y-79819548D01*
X116026655Y-79819548D01*
X116750000Y-80542893D01*
X117473345Y-79819548D01*
X117357241Y-79563552D01*
X116665642Y-79459545D01*
X116142759Y-79563552D01*
X116026655Y-79819548D01*
X105892600Y-79819548D01*
X107704710Y-78007438D01*
X108005520Y-77883146D01*
X108301148Y-77588034D01*
X108461338Y-77202254D01*
X108461383Y-77150000D01*
X121385307Y-77150000D01*
X121385307Y-79150000D01*
X121437604Y-79427933D01*
X121601862Y-79683198D01*
X121852492Y-79854446D01*
X122150000Y-79914693D01*
X125350000Y-79914693D01*
X125627933Y-79862396D01*
X125883198Y-79698138D01*
X126054446Y-79447508D01*
X126114693Y-79150000D01*
X126114693Y-77150000D01*
X126062396Y-76872067D01*
X125898138Y-76616802D01*
X125647508Y-76445554D01*
X125350000Y-76385307D01*
X122150000Y-76385307D01*
X121872067Y-76437604D01*
X121616802Y-76601862D01*
X121445554Y-76852492D01*
X121385307Y-77150000D01*
X108461383Y-77150000D01*
X108461702Y-76784538D01*
X108302186Y-76398480D01*
X108007074Y-76102852D01*
X107621294Y-75942662D01*
X107203578Y-75942298D01*
X107074913Y-75995461D01*
X107690007Y-75211541D01*
X107863280Y-75139946D01*
X108158908Y-74844834D01*
X108319098Y-74459054D01*
X108319462Y-74041338D01*
X108159946Y-73655280D01*
X107864834Y-73359652D01*
X107479054Y-73199462D01*
X107061338Y-73199098D01*
X106675280Y-73358614D01*
X106379652Y-73653726D01*
X106219462Y-74039506D01*
X106219419Y-74088832D01*
X105554910Y-74935731D01*
X105509553Y-74707707D01*
X105162717Y-74188629D01*
X104955244Y-74050000D01*
X105162717Y-73911371D01*
X105509553Y-73392293D01*
X105631346Y-72780000D01*
X105512274Y-72181382D01*
X110689498Y-72181382D01*
X110849014Y-72567440D01*
X111144126Y-72863068D01*
X111529906Y-73023258D01*
X111947622Y-73023622D01*
X111950909Y-73022264D01*
X111903984Y-73053618D01*
X111567987Y-73556475D01*
X111450000Y-74149634D01*
X111450000Y-74210366D01*
X111567987Y-74803525D01*
X111903984Y-75306382D01*
X112406841Y-75642379D01*
X113000000Y-75760366D01*
X113593159Y-75642379D01*
X114096016Y-75306382D01*
X114403252Y-74846569D01*
X124749696Y-74846569D01*
X125015557Y-75490001D01*
X125507410Y-75982713D01*
X126150376Y-76249696D01*
X126846569Y-76250304D01*
X127490001Y-75984443D01*
X127982713Y-75492590D01*
X128249696Y-74849624D01*
X128249698Y-74846569D01*
X131249696Y-74846569D01*
X131515557Y-75490001D01*
X132007410Y-75982713D01*
X132650376Y-76249696D01*
X133346569Y-76250304D01*
X133990001Y-75984443D01*
X134167792Y-75806961D01*
X135149732Y-75806961D01*
X135385208Y-76376857D01*
X135820849Y-76813260D01*
X136390333Y-77049730D01*
X137006961Y-77050268D01*
X137576857Y-76814792D01*
X138013260Y-76379151D01*
X138249730Y-75809667D01*
X138250113Y-75370552D01*
X138400000Y-75400366D01*
X138993159Y-75282379D01*
X139496016Y-74946382D01*
X139832013Y-74443525D01*
X139950000Y-73850366D01*
X139950000Y-73789634D01*
X139832013Y-73196475D01*
X139496016Y-72693618D01*
X138993159Y-72357621D01*
X138400000Y-72239634D01*
X137806841Y-72357621D01*
X137303984Y-72693618D01*
X136967987Y-73196475D01*
X136850000Y-73789634D01*
X136850000Y-73850366D01*
X136869848Y-73950148D01*
X136393039Y-73949732D01*
X135823143Y-74185208D01*
X135386740Y-74620849D01*
X135150270Y-75190333D01*
X135149732Y-75806961D01*
X134167792Y-75806961D01*
X134482713Y-75492590D01*
X134749696Y-74849624D01*
X134750304Y-74153431D01*
X134484443Y-73509999D01*
X133992590Y-73017287D01*
X133349624Y-72750304D01*
X132653431Y-72749696D01*
X132009999Y-73015557D01*
X131517287Y-73507410D01*
X131250304Y-74150376D01*
X131249696Y-74846569D01*
X128249698Y-74846569D01*
X128250304Y-74153431D01*
X127984443Y-73509999D01*
X127492590Y-73017287D01*
X126849624Y-72750304D01*
X126153431Y-72749696D01*
X125509999Y-73015557D01*
X125017287Y-73507410D01*
X124750304Y-74150376D01*
X124749696Y-74846569D01*
X114403252Y-74846569D01*
X114432013Y-74803525D01*
X114550000Y-74210366D01*
X114550000Y-74149634D01*
X114432013Y-73556475D01*
X114096016Y-73053618D01*
X113593159Y-72717621D01*
X113000000Y-72599634D01*
X112498731Y-72699343D01*
X112629308Y-72568994D01*
X112789498Y-72183214D01*
X112789721Y-71926747D01*
X113837000Y-70879468D01*
X116016831Y-70856172D01*
X116406407Y-70852009D01*
X116406407Y-71119100D01*
X116458704Y-71397033D01*
X116622962Y-71652298D01*
X116873592Y-71823546D01*
X117171100Y-71883793D01*
X118871100Y-71883793D01*
X119149033Y-71831496D01*
X119404298Y-71667238D01*
X119527585Y-71486801D01*
X119917461Y-71747307D01*
X120529754Y-71869100D01*
X120592446Y-71869100D01*
X121204739Y-71747307D01*
X121678947Y-71430452D01*
X125776655Y-71430452D01*
X125892759Y-71686448D01*
X126584358Y-71790455D01*
X127107241Y-71686448D01*
X127223345Y-71430452D01*
X132276655Y-71430452D01*
X132392759Y-71686448D01*
X133084358Y-71790455D01*
X133607241Y-71686448D01*
X133723345Y-71430452D01*
X133000000Y-70707107D01*
X132276655Y-71430452D01*
X127223345Y-71430452D01*
X126500000Y-70707107D01*
X125776655Y-71430452D01*
X121678947Y-71430452D01*
X121723817Y-71400471D01*
X122070653Y-70881393D01*
X122192446Y-70269100D01*
X122070653Y-69656807D01*
X121837550Y-69307942D01*
X123249818Y-69307942D01*
X123409334Y-69694000D01*
X123704446Y-69989628D01*
X124090226Y-70149818D01*
X124507942Y-70150182D01*
X124712347Y-70065723D01*
X124709545Y-70084358D01*
X124813552Y-70607241D01*
X125069548Y-70723345D01*
X125792893Y-70000000D01*
X127207107Y-70000000D01*
X127930452Y-70723345D01*
X128186448Y-70607241D01*
X128265082Y-70084358D01*
X131209545Y-70084358D01*
X131313552Y-70607241D01*
X131569548Y-70723345D01*
X132292893Y-70000000D01*
X133707107Y-70000000D01*
X134430452Y-70723345D01*
X134686448Y-70607241D01*
X134790455Y-69915642D01*
X134686448Y-69392759D01*
X134430452Y-69276655D01*
X133707107Y-70000000D01*
X132292893Y-70000000D01*
X131569548Y-69276655D01*
X131313552Y-69392759D01*
X131209545Y-70084358D01*
X128265082Y-70084358D01*
X128290455Y-69915642D01*
X128186448Y-69392759D01*
X127930452Y-69276655D01*
X127207107Y-70000000D01*
X125792893Y-70000000D01*
X125439340Y-69646447D01*
X126146447Y-68939340D01*
X126500000Y-69292893D01*
X127223345Y-68569548D01*
X127107241Y-68313552D01*
X126685737Y-68250164D01*
X126846569Y-68250304D01*
X127490001Y-67984443D01*
X127982713Y-67492590D01*
X128249696Y-66849624D01*
X128249698Y-66846569D01*
X131249696Y-66846569D01*
X131515557Y-67490001D01*
X132007410Y-67982713D01*
X132650376Y-68249696D01*
X132713510Y-68249751D01*
X132392759Y-68313552D01*
X132276655Y-68569548D01*
X133000000Y-69292893D01*
X133723345Y-68569548D01*
X133607241Y-68313552D01*
X133185737Y-68250164D01*
X133346569Y-68250304D01*
X133990001Y-67984443D01*
X134482713Y-67492590D01*
X134649834Y-67090118D01*
X134649732Y-67206961D01*
X134885208Y-67776857D01*
X135320849Y-68213260D01*
X135890333Y-68449730D01*
X136506961Y-68450268D01*
X137076857Y-68214792D01*
X137513260Y-67779151D01*
X137608547Y-67549675D01*
X138090333Y-67749730D01*
X138706961Y-67750268D01*
X139276857Y-67514792D01*
X139713260Y-67079151D01*
X139949730Y-66509667D01*
X139950268Y-65893039D01*
X139714792Y-65323143D01*
X139279151Y-64886740D01*
X138709667Y-64650270D01*
X138093039Y-64649732D01*
X137523143Y-64885208D01*
X137086740Y-65320849D01*
X136991453Y-65550325D01*
X136509667Y-65350270D01*
X135893039Y-65349732D01*
X135323143Y-65585208D01*
X134886740Y-66020849D01*
X134750132Y-66349837D01*
X134750304Y-66153431D01*
X134484443Y-65509999D01*
X133992590Y-65017287D01*
X133349624Y-64750304D01*
X132653431Y-64749696D01*
X132009999Y-65015557D01*
X131517287Y-65507410D01*
X131250304Y-66150376D01*
X131249696Y-66846569D01*
X128249698Y-66846569D01*
X128250304Y-66153431D01*
X127984443Y-65509999D01*
X127492590Y-65017287D01*
X126849624Y-64750304D01*
X126153431Y-64749696D01*
X125509999Y-65015557D01*
X125017287Y-65507410D01*
X124750304Y-66150376D01*
X124749696Y-66846569D01*
X124894597Y-67197255D01*
X124006810Y-68085042D01*
X123706000Y-68209334D01*
X123410372Y-68504446D01*
X123250182Y-68890226D01*
X123249818Y-69307942D01*
X121837550Y-69307942D01*
X121723817Y-69137729D01*
X121516344Y-68999100D01*
X121723817Y-68860471D01*
X122070653Y-68341393D01*
X122170942Y-67837206D01*
X124293190Y-65714958D01*
X124594000Y-65590666D01*
X124889628Y-65295554D01*
X125049818Y-64909774D01*
X125050182Y-64492058D01*
X124890666Y-64106000D01*
X124595554Y-63810372D01*
X124209774Y-63650182D01*
X123792058Y-63649818D01*
X123406000Y-63809334D01*
X123110372Y-64104446D01*
X122984661Y-64407191D01*
X121777752Y-65614100D01*
X120986100Y-65614100D01*
X120986100Y-66039100D01*
X120136100Y-66039100D01*
X120136100Y-65614100D01*
X119711100Y-65614100D01*
X119711100Y-64764100D01*
X120136100Y-64764100D01*
X120136100Y-64339100D01*
X120986100Y-64339100D01*
X120986100Y-64764100D01*
X121914436Y-64764100D01*
X122026341Y-64526731D01*
X121811102Y-64204566D01*
X121811102Y-63649839D01*
X121957691Y-63430452D01*
X125776655Y-63430452D01*
X125892759Y-63686448D01*
X126584358Y-63790455D01*
X127107241Y-63686448D01*
X127223345Y-63430452D01*
X132276655Y-63430452D01*
X132392759Y-63686448D01*
X133084358Y-63790455D01*
X133607241Y-63686448D01*
X133723345Y-63430452D01*
X133000000Y-62707107D01*
X132276655Y-63430452D01*
X127223345Y-63430452D01*
X126500000Y-62707107D01*
X125776655Y-63430452D01*
X121957691Y-63430452D01*
X122070653Y-63261393D01*
X122192446Y-62649100D01*
X122080112Y-62084358D01*
X124709545Y-62084358D01*
X124813552Y-62607241D01*
X125069548Y-62723345D01*
X125792893Y-62000000D01*
X127207107Y-62000000D01*
X127930452Y-62723345D01*
X128186448Y-62607241D01*
X128265082Y-62084358D01*
X131209545Y-62084358D01*
X131313552Y-62607241D01*
X131569548Y-62723345D01*
X132292893Y-62000000D01*
X133707107Y-62000000D01*
X134430452Y-62723345D01*
X134686448Y-62607241D01*
X134790455Y-61915642D01*
X134686448Y-61392759D01*
X134430452Y-61276655D01*
X133707107Y-62000000D01*
X132292893Y-62000000D01*
X131569548Y-61276655D01*
X131313552Y-61392759D01*
X131209545Y-62084358D01*
X128265082Y-62084358D01*
X128290455Y-61915642D01*
X128186448Y-61392759D01*
X127930452Y-61276655D01*
X127207107Y-62000000D01*
X125792893Y-62000000D01*
X125069548Y-61276655D01*
X124813552Y-61392759D01*
X124709545Y-62084358D01*
X122080112Y-62084358D01*
X122070653Y-62036807D01*
X121723817Y-61517729D01*
X121516344Y-61379100D01*
X121723817Y-61240471D01*
X122070653Y-60721393D01*
X122192446Y-60109100D01*
X122130843Y-59799400D01*
X122394000Y-59690666D01*
X122689628Y-59395554D01*
X122849818Y-59009774D01*
X122849960Y-58846569D01*
X124749696Y-58846569D01*
X125015557Y-59490001D01*
X125507410Y-59982713D01*
X126150376Y-60249696D01*
X126213510Y-60249751D01*
X125892759Y-60313552D01*
X125776655Y-60569548D01*
X126500000Y-61292893D01*
X127223345Y-60569548D01*
X127107241Y-60313552D01*
X126685737Y-60250164D01*
X126846569Y-60250304D01*
X127490001Y-59984443D01*
X127982713Y-59492590D01*
X128249696Y-58849624D01*
X128250304Y-58153431D01*
X127984443Y-57509999D01*
X127492590Y-57017287D01*
X126849624Y-56750304D01*
X126153431Y-56749696D01*
X125509999Y-57015557D01*
X125017287Y-57507410D01*
X124750304Y-58150376D01*
X124749696Y-58846569D01*
X122849960Y-58846569D01*
X122850182Y-58592058D01*
X122690666Y-58206000D01*
X122395554Y-57910372D01*
X122145238Y-57806431D01*
X122192446Y-57569100D01*
X122070653Y-56956807D01*
X121723817Y-56437729D01*
X121516344Y-56299100D01*
X121723817Y-56160471D01*
X122070653Y-55641393D01*
X122112611Y-55430452D01*
X125776655Y-55430452D01*
X125892759Y-55686448D01*
X126584358Y-55790455D01*
X127107241Y-55686448D01*
X127223345Y-55430452D01*
X132276655Y-55430452D01*
X132392759Y-55686448D01*
X133084358Y-55790455D01*
X133607241Y-55686448D01*
X133723345Y-55430452D01*
X133000000Y-54707107D01*
X132276655Y-55430452D01*
X127223345Y-55430452D01*
X126500000Y-54707107D01*
X125776655Y-55430452D01*
X122112611Y-55430452D01*
X122192446Y-55029100D01*
X122070653Y-54416807D01*
X121723817Y-53897729D01*
X121204739Y-53550893D01*
X120592446Y-53429100D01*
X120529754Y-53429100D01*
X119917461Y-53550893D01*
X119398383Y-53897729D01*
X119291100Y-54058290D01*
X119183817Y-53897729D01*
X118664739Y-53550893D01*
X118052446Y-53429100D01*
X117989754Y-53429100D01*
X117377461Y-53550893D01*
X116858383Y-53897729D01*
X116511547Y-54416807D01*
X116389754Y-55029100D01*
X116511547Y-55641393D01*
X116858383Y-56160471D01*
X117065856Y-56299100D01*
X116858383Y-56437729D01*
X116511547Y-56956807D01*
X116389754Y-57569100D01*
X116511547Y-58181393D01*
X116858383Y-58700471D01*
X117065856Y-58839100D01*
X116858383Y-58977729D01*
X116511547Y-59496807D01*
X116389754Y-60109100D01*
X116511547Y-60721393D01*
X116858383Y-61240471D01*
X117065856Y-61379100D01*
X116858383Y-61517729D01*
X116705312Y-61746816D01*
X112886935Y-61813140D01*
X112718314Y-61849736D01*
X112549017Y-61883411D01*
X112542217Y-61887955D01*
X112534230Y-61889688D01*
X112392444Y-61988030D01*
X112248926Y-62083926D01*
X111720810Y-62612042D01*
X111420000Y-62736334D01*
X111124372Y-63031446D01*
X110964182Y-63417226D01*
X110963818Y-63834942D01*
X111123334Y-64221000D01*
X111418446Y-64516628D01*
X111804226Y-64676818D01*
X112221942Y-64677182D01*
X112608000Y-64517666D01*
X112903628Y-64222554D01*
X113029339Y-63919809D01*
X113292779Y-63656369D01*
X116735504Y-63596569D01*
X116858383Y-63780471D01*
X117065856Y-63919100D01*
X116858383Y-64057729D01*
X116511547Y-64576807D01*
X116389754Y-65189100D01*
X116511547Y-65801393D01*
X116858383Y-66320471D01*
X117065856Y-66459100D01*
X116858383Y-66597729D01*
X116511547Y-67116807D01*
X116389754Y-67729100D01*
X116511547Y-68341393D01*
X116796991Y-68768591D01*
X116637902Y-68870962D01*
X116549478Y-69000374D01*
X115997061Y-69006278D01*
X113439881Y-69033607D01*
X113268049Y-69069700D01*
X113095784Y-69103965D01*
X113091597Y-69106762D01*
X113086672Y-69107797D01*
X112941733Y-69206899D01*
X112795692Y-69304480D01*
X111085606Y-71014566D01*
X110885091Y-71314657D01*
X110885091Y-71314658D01*
X110878079Y-71349907D01*
X110850052Y-71377886D01*
X110689862Y-71763666D01*
X110689498Y-72181382D01*
X105512274Y-72181382D01*
X105509553Y-72167707D01*
X105162717Y-71648629D01*
X104955244Y-71510000D01*
X105162717Y-71371371D01*
X105509553Y-70852293D01*
X105631346Y-70240000D01*
X105509553Y-69627707D01*
X105162717Y-69108629D01*
X104955244Y-68970000D01*
X105162717Y-68831371D01*
X105509553Y-68312293D01*
X105631346Y-67700000D01*
X105509553Y-67087707D01*
X105162717Y-66568629D01*
X104955244Y-66430000D01*
X105162717Y-66291371D01*
X105509553Y-65772293D01*
X105631346Y-65160000D01*
X105509553Y-64547707D01*
X105162717Y-64028629D01*
X104955244Y-63890000D01*
X105162717Y-63751371D01*
X105459368Y-63307400D01*
X107161334Y-63307400D01*
X107227446Y-63373628D01*
X107613226Y-63533818D01*
X108030942Y-63534182D01*
X108417000Y-63374666D01*
X108712628Y-63079554D01*
X108872818Y-62693774D01*
X108873182Y-62276058D01*
X108713666Y-61890000D01*
X108418554Y-61594372D01*
X108032774Y-61434182D01*
X107615058Y-61433818D01*
X107557985Y-61457400D01*
X105115979Y-61457400D01*
X104955244Y-61350000D01*
X105162717Y-61211371D01*
X105509553Y-60692293D01*
X105631346Y-60080000D01*
X105509553Y-59467707D01*
X105162717Y-58948629D01*
X104955244Y-58810000D01*
X105162717Y-58671371D01*
X105509553Y-58152293D01*
X105631346Y-57540000D01*
X105509553Y-56927707D01*
X105224109Y-56500509D01*
X105383198Y-56398138D01*
X105554446Y-56147508D01*
X105614693Y-55850000D01*
X105614693Y-54150000D01*
X105562396Y-53872067D01*
X105398138Y-53616802D01*
X105147508Y-53445554D01*
X104850000Y-53385307D01*
X103150000Y-53385307D01*
X102872067Y-53437604D01*
X102616802Y-53601862D01*
X102445554Y-53852492D01*
X102385307Y-54150000D01*
X102385307Y-55850000D01*
X102437604Y-56127933D01*
X102601862Y-56383198D01*
X102775158Y-56501606D01*
X102490447Y-56927707D01*
X102368654Y-57540000D01*
X102490447Y-58152293D01*
X102837283Y-58671371D01*
X103044756Y-58810000D01*
X102884021Y-58917400D01*
X102590600Y-58917400D01*
X102474078Y-58940578D01*
X102355485Y-58947779D01*
X102298637Y-58975475D01*
X102236618Y-58987811D01*
X102137834Y-59053816D01*
X102031026Y-59105852D01*
X101989104Y-59153194D01*
X101936526Y-59188326D01*
X101870518Y-59287114D01*
X101791757Y-59376059D01*
X101250000Y-60304090D01*
X101250000Y-53250618D01*
X109295631Y-53270484D01*
M02*
