M48
;DRILL file {KiCad 4.0.7} date 11/10/19 19:17:39
;FORMAT={-:-/ absolute / metric / decimal}
FMAT,2
METRIC,TZ
T1C0.400
T2C0.800
T3C1.000
T4C1.100
T5C1.500
T6C3.048
%
G90
G05
M71
T1
X101.Y-68.
X101.7Y-61.368
X107.269Y-74.249
X107.412Y-76.992
X107.823Y-62.484
X111.74Y-71.973
X112.014Y-63.627
X121.8Y-58.8
X124.Y-64.7
X124.3Y-69.1
T2
X113.Y-74.18
X113.Y-81.8
X136.2Y-59.28
X136.2Y-66.9
X136.7Y-75.5
X136.7Y-83.12
X138.4Y-66.2
X138.4Y-73.82
T3
X104.Y-55.
X104.Y-57.54
X104.Y-60.08
X104.Y-62.62
X104.Y-65.16
X104.Y-67.7
X104.Y-70.24
X104.Y-72.78
X104.Y-75.32
X104.Y-77.86
X104.Y-80.4
X104.Y-82.94
X104.Y-85.48
X104.Y-88.02
X116.75Y-81.25
X116.75Y-86.25
X118.021Y-55.029
X118.021Y-57.569
X118.021Y-60.109
X118.021Y-62.649
X118.021Y-65.189
X118.021Y-67.729
X118.021Y-70.269
X120.561Y-55.029
X120.561Y-57.569
X120.561Y-60.109
X120.561Y-62.649
X120.561Y-65.189
X120.561Y-67.729
X120.561Y-70.269
X131.25Y-81.25
X131.25Y-83.75
X131.25Y-86.25
T4
X126.5Y-54.
X126.5Y-58.5
X126.5Y-62.
X126.5Y-66.5
X126.5Y-70.
X126.5Y-74.5
X133.Y-54.
X133.Y-58.5
X133.Y-62.
X133.Y-66.5
X133.Y-70.
X133.Y-74.5
T6
X111.Y-55.5
X111.Y-87.5
X138.Y-55.5
X138.Y-87.5
T5
X124.4Y-78.15G85X123.1Y-78.15
G05
X124.4Y-89.35G85X123.1Y-89.35
G05
T0
M30
