G04 #@! TF.FileFunction,Copper,L2,Bot,Signal*
%FSLAX46Y46*%
G04 Gerber Fmt 4.6, Leading zero omitted, Abs format (unit mm)*
G04 Created by KiCad (PCBNEW 4.0.7) date 11/10/19 19:17:38*
%MOMM*%
%LPD*%
G01*
G04 APERTURE LIST*
%ADD10C,0.100000*%
%ADD11C,2.000000*%
%ADD12R,3.200000X2.000000*%
%ADD13R,2.000000X2.000000*%
%ADD14C,1.600000*%
%ADD15O,1.600000X1.600000*%
%ADD16R,1.700000X1.700000*%
%ADD17O,1.700000X1.700000*%
%ADD18R,1.300000X1.500000*%
%ADD19C,4.064000*%
%ADD20C,0.600000*%
%ADD21C,0.350000*%
%ADD22C,0.500000*%
G04 APERTURE END LIST*
D10*
D11*
X116750000Y-81250000D03*
X116750000Y-86250000D03*
D12*
X123750000Y-78150000D03*
X123750000Y-89350000D03*
D11*
X131250000Y-81250000D03*
X131250000Y-83750000D03*
D13*
X131250000Y-86250000D03*
D14*
X138400000Y-66200000D03*
D15*
X138400000Y-73820000D03*
D16*
X118021100Y-70269100D03*
D17*
X120561100Y-70269100D03*
X118021100Y-67729100D03*
X120561100Y-67729100D03*
X118021100Y-65189100D03*
X120561100Y-65189100D03*
X118021100Y-62649100D03*
X120561100Y-62649100D03*
X118021100Y-60109100D03*
X120561100Y-60109100D03*
X118021100Y-57569100D03*
X120561100Y-57569100D03*
X118021100Y-55029100D03*
X120561100Y-55029100D03*
D18*
X138700000Y-60150000D03*
X138700000Y-62850000D03*
D14*
X136200000Y-66900000D03*
D15*
X136200000Y-59280000D03*
D18*
X136000000Y-69650000D03*
X136000000Y-72350000D03*
X134200000Y-80450000D03*
X134200000Y-83150000D03*
D14*
X136700000Y-75500000D03*
D15*
X136700000Y-83120000D03*
D18*
X110000000Y-81950000D03*
X110000000Y-79250000D03*
D14*
X113000000Y-81800000D03*
D15*
X113000000Y-74180000D03*
D11*
X126500000Y-74500000D03*
X126500000Y-70000000D03*
X133000000Y-74500000D03*
X133000000Y-70000000D03*
X126500000Y-66500000D03*
X126500000Y-62000000D03*
X133000000Y-66500000D03*
X133000000Y-62000000D03*
X126500000Y-58500000D03*
X126500000Y-54000000D03*
X133000000Y-58500000D03*
X133000000Y-54000000D03*
D16*
X104000000Y-55000000D03*
D17*
X104000000Y-57540000D03*
X104000000Y-60080000D03*
X104000000Y-62620000D03*
X104000000Y-65160000D03*
X104000000Y-67700000D03*
X104000000Y-70240000D03*
X104000000Y-72780000D03*
X104000000Y-75320000D03*
X104000000Y-77860000D03*
X104000000Y-80400000D03*
X104000000Y-82940000D03*
X104000000Y-85480000D03*
X104000000Y-88020000D03*
D19*
X111000000Y-55500000D03*
X138000000Y-87500000D03*
X111000000Y-87500000D03*
X138000000Y-55500000D03*
D20*
X111739680Y-71973440D03*
X107411520Y-76992480D03*
X107269280Y-74249280D03*
X124000000Y-64700000D03*
X107823000Y-62484000D03*
X112014000Y-63627000D03*
X101700000Y-61368000D03*
X121800000Y-58800000D03*
X124300000Y-69100000D03*
X101000000Y-68000000D03*
D21*
X136700000Y-75500000D02*
X136700000Y-80000000D01*
X136700000Y-80000000D02*
X137150000Y-80450000D01*
X138400000Y-66200000D02*
X138400000Y-66600000D01*
X138400000Y-66600000D02*
X139900000Y-68100000D01*
X139200000Y-75500000D02*
X136700000Y-75500000D01*
X139900000Y-74700000D02*
X139200000Y-75500000D01*
X139900000Y-68100000D02*
X139900000Y-74700000D01*
X138400000Y-66200000D02*
X138500000Y-66200000D01*
X138500000Y-66200000D02*
X140000000Y-64700000D01*
X140000000Y-61450000D02*
X138700000Y-60150000D01*
X140000000Y-64700000D02*
X140000000Y-61450000D01*
X136000000Y-69650000D02*
X136000000Y-67100000D01*
X136000000Y-67100000D02*
X136200000Y-66900000D01*
X136200000Y-66900000D02*
X137700000Y-66400000D01*
X137700000Y-66400000D02*
X138400000Y-66200000D01*
X134200000Y-80450000D02*
X137150000Y-80450000D01*
X137150000Y-80450000D02*
X137250000Y-80450000D01*
X137250000Y-80450000D02*
X138700000Y-81800000D01*
X138700000Y-81800000D02*
X138700000Y-83600000D01*
X138700000Y-83600000D02*
X138300000Y-84300000D01*
X138300000Y-84300000D02*
X134900000Y-84300000D01*
X134900000Y-84300000D02*
X134300000Y-85200000D01*
X134300000Y-85200000D02*
X134300000Y-87800000D01*
X134300000Y-87800000D02*
X132800000Y-89000000D01*
X132800000Y-89000000D02*
X128400000Y-89000000D01*
X128400000Y-89000000D02*
X124600000Y-85200000D01*
X124600000Y-85200000D02*
X121000000Y-85200000D01*
X121000000Y-85200000D02*
X118000000Y-88200000D01*
X118000000Y-88200000D02*
X115800000Y-88200000D01*
X115800000Y-88200000D02*
X114800000Y-87200000D01*
X114800000Y-87200000D02*
X114800000Y-83600000D01*
X114800000Y-83600000D02*
X113000000Y-81800000D01*
X110000000Y-81950000D02*
X112850000Y-81950000D01*
X112850000Y-81950000D02*
X113000000Y-81800000D01*
X106903520Y-85445600D02*
X106903520Y-85046480D01*
X106903520Y-85046480D02*
X110000000Y-81950000D01*
X104308800Y-88020000D02*
X106903520Y-85445600D01*
X109524800Y-76789280D02*
X109524800Y-72461120D01*
X106903520Y-79430880D02*
X109524800Y-76789280D01*
X106903520Y-85445600D02*
X106903520Y-79430880D01*
X104000000Y-88020000D02*
X104308800Y-88020000D01*
X118021100Y-70269100D02*
X118021100Y-70142100D01*
X110012480Y-71973440D02*
X111739680Y-71973440D01*
X109524800Y-72461120D02*
X110012480Y-71973440D01*
X112800000Y-71241920D02*
X112800000Y-73980000D01*
X112800000Y-73980000D02*
X113000000Y-74180000D01*
X110000000Y-79250000D02*
X111350000Y-79250000D01*
X113000000Y-77600000D02*
X113000000Y-74180000D01*
X111350000Y-79250000D02*
X113000000Y-77600000D01*
X115448080Y-72059800D02*
X118770400Y-72059800D01*
X114630200Y-71241920D02*
X115448080Y-72059800D01*
X109382560Y-71241920D02*
X112800000Y-71241920D01*
X112800000Y-71241920D02*
X114630200Y-71241920D01*
X108305600Y-72318880D02*
X109382560Y-71241920D01*
X108305600Y-76098400D02*
X108305600Y-72318880D01*
X107411520Y-76992480D02*
X108305600Y-76098400D01*
X118770400Y-72059800D02*
X120561100Y-70269100D01*
X118021100Y-67729100D02*
X108712000Y-67818000D01*
X107315000Y-69215000D02*
X107269280Y-74249280D01*
X108712000Y-67818000D02*
X107315000Y-69215000D01*
X118021100Y-67729100D02*
X118021100Y-67983100D01*
X126500000Y-58500000D02*
X133000000Y-58500000D01*
X125100000Y-58500000D02*
X126500000Y-58500000D01*
X124100000Y-59500000D02*
X125100000Y-58500000D01*
X124100000Y-64600000D02*
X124100000Y-59500000D01*
X124000000Y-64700000D02*
X124100000Y-64600000D01*
X136700000Y-83120000D02*
X136700000Y-82900000D01*
X136700000Y-82900000D02*
X136450000Y-82650000D01*
X136450000Y-82650000D02*
X134200000Y-83150000D01*
X118600000Y-84200000D02*
X125000000Y-84200000D01*
X133600000Y-84150000D02*
X134200000Y-83150000D01*
X133600000Y-87400000D02*
X133600000Y-84150000D01*
X132600000Y-88000000D02*
X133600000Y-87400000D01*
X128800000Y-88000000D02*
X132600000Y-88000000D01*
X125000000Y-84200000D02*
X128800000Y-88000000D01*
X134330000Y-83020000D02*
X134200000Y-83150000D01*
X116750000Y-86250000D02*
X117950000Y-86250000D01*
X117950000Y-86250000D02*
X118600000Y-85600000D01*
X118600000Y-85600000D02*
X118600000Y-84200000D01*
X118600000Y-84200000D02*
X118600000Y-73800000D01*
X118600000Y-73800000D02*
X119000000Y-73400000D01*
X119000000Y-73400000D02*
X121200000Y-73400000D01*
X121200000Y-73400000D02*
X122200000Y-72400000D01*
X122200000Y-72400000D02*
X122200000Y-69368000D01*
X122200000Y-69368000D02*
X120561100Y-67729100D01*
X115356640Y-62341760D02*
X118021100Y-65189100D01*
X107950000Y-62357000D02*
X115356640Y-62341760D01*
X107823000Y-62484000D02*
X107950000Y-62357000D01*
X117894100Y-65062100D02*
X118021100Y-65189100D01*
X103621840Y-82892900D02*
X105308400Y-82892900D01*
X107823000Y-63627000D02*
X112014000Y-63627000D01*
X106299000Y-65151000D02*
X107823000Y-63627000D01*
X106299000Y-81661000D02*
X106299000Y-65151000D01*
X105308400Y-82892900D02*
X106299000Y-81661000D01*
X104000000Y-65160000D02*
X104339500Y-65160000D01*
X104339500Y-65160000D02*
X105498900Y-66319400D01*
X102450900Y-71230900D02*
X104000000Y-72780000D01*
X102450900Y-69545200D02*
X102450900Y-71230900D01*
X103035100Y-68961000D02*
X102450900Y-69545200D01*
X104584500Y-68961000D02*
X103035100Y-68961000D01*
X105498900Y-68046600D02*
X104584500Y-68961000D01*
X105498900Y-66319400D02*
X105498900Y-68046600D01*
X104000000Y-65160000D02*
X104000000Y-64516300D01*
X104000000Y-64516300D02*
X107073700Y-61442600D01*
X107073700Y-61442600D02*
X119263160Y-61366400D01*
X119263160Y-61366400D02*
X120561100Y-62649100D01*
X120561100Y-62649100D02*
X120434100Y-62649100D01*
X120561100Y-62649100D02*
X120561100Y-62776100D01*
X102362000Y-75272900D02*
X103672640Y-75272900D01*
X101700000Y-73687000D02*
X102362000Y-75272900D01*
X101700000Y-61368000D02*
X101700000Y-73687000D01*
X118021100Y-60109100D02*
X103926640Y-60198000D01*
X103926640Y-60198000D02*
X103571040Y-59842400D01*
X103964740Y-67640200D02*
X102781100Y-67640200D01*
X102500000Y-59046440D02*
X103518021Y-57660232D01*
X102500000Y-66702000D02*
X102500000Y-59046440D01*
X102781100Y-67640200D02*
X102500000Y-66702000D01*
X103518021Y-57660232D02*
X105001381Y-57660232D01*
X119545100Y-58839100D02*
X120561100Y-60109100D01*
X106680000Y-58928000D02*
X119545100Y-58839100D01*
X105001381Y-57660232D02*
X106680000Y-58928000D01*
X131250000Y-86250000D02*
X131850000Y-86250000D01*
X131850000Y-86250000D02*
X132900000Y-85200000D01*
X132900000Y-85200000D02*
X132900000Y-74600000D01*
X132900000Y-74600000D02*
X133000000Y-74500000D01*
X133000000Y-74500000D02*
X132600000Y-74500000D01*
X132600000Y-74500000D02*
X131200000Y-73100000D01*
X122100000Y-66100000D02*
X122200000Y-66100000D01*
X122200000Y-66000000D02*
X122100000Y-66100000D01*
X124100000Y-67900000D02*
X122200000Y-66000000D01*
X130400000Y-67900000D02*
X124100000Y-67900000D01*
X131200000Y-68700000D02*
X130400000Y-67900000D01*
X131200000Y-73100000D02*
X131200000Y-68700000D01*
X133000000Y-74500000D02*
X133600000Y-74500000D01*
X133600000Y-74500000D02*
X134650000Y-73450000D01*
X134650000Y-73450000D02*
X136000000Y-72350000D01*
X138400000Y-73820000D02*
X138020000Y-73820000D01*
X138020000Y-73820000D02*
X137650000Y-73450000D01*
X137650000Y-73450000D02*
X136000000Y-72350000D01*
X126500000Y-74500000D02*
X133000000Y-74500000D01*
X122200000Y-59200000D02*
X122200000Y-66100000D01*
X121800000Y-58800000D02*
X122200000Y-59200000D01*
X118021100Y-57569100D02*
X118630700Y-57569100D01*
X118021100Y-57569100D02*
X118021100Y-57315100D01*
X131250000Y-81250000D02*
X130750000Y-81250000D01*
X130750000Y-81250000D02*
X124300000Y-74800000D01*
X124300000Y-74800000D02*
X124300000Y-69100000D01*
X136000000Y-63000000D02*
X138550000Y-63000000D01*
X138550000Y-63000000D02*
X138700000Y-62850000D01*
X133000000Y-66500000D02*
X133000000Y-66300000D01*
X133000000Y-66300000D02*
X136000000Y-63300000D01*
X136000000Y-63300000D02*
X136000000Y-63000000D01*
X136000000Y-63000000D02*
X136200000Y-59280000D01*
X120561100Y-57569100D02*
X122269100Y-57569100D01*
X124400000Y-66500000D02*
X126500000Y-66500000D01*
X123200000Y-65300000D02*
X124400000Y-66500000D01*
X123200000Y-58500000D02*
X123200000Y-65300000D01*
X122269100Y-57569100D02*
X123200000Y-58500000D01*
X133000000Y-66500000D02*
X126500000Y-66500000D01*
X120561100Y-57569100D02*
X120895100Y-57569100D01*
X120561100Y-57569100D02*
X120561100Y-57997100D01*
X120561100Y-55029100D02*
X120561100Y-53761100D01*
X101000000Y-54600000D02*
X101000000Y-68000000D01*
X102900000Y-52700000D02*
X101000000Y-54600000D01*
X119500000Y-52700000D02*
X102900000Y-52700000D01*
X120561100Y-53761100D02*
X119500000Y-52700000D01*
X103926640Y-70358000D02*
X103571040Y-70002400D01*
D22*
G36*
X101508385Y-75629223D02*
X101608312Y-75777891D01*
X101707926Y-75926974D01*
X101709000Y-75927692D01*
X101709721Y-75928764D01*
X101859040Y-76027945D01*
X102008018Y-76127489D01*
X102009284Y-76127741D01*
X102010361Y-76128456D01*
X102186135Y-76162918D01*
X102362000Y-76197900D01*
X102667919Y-76197900D01*
X102837283Y-76451371D01*
X103044756Y-76590000D01*
X102837283Y-76728629D01*
X102490447Y-77247707D01*
X102368654Y-77860000D01*
X102490447Y-78472293D01*
X102837283Y-78991371D01*
X103044756Y-79130000D01*
X102837283Y-79268629D01*
X102490447Y-79787707D01*
X102368654Y-80400000D01*
X102490447Y-81012293D01*
X102837283Y-81531371D01*
X103044756Y-81670000D01*
X102837283Y-81808629D01*
X102490447Y-82327707D01*
X102368654Y-82940000D01*
X102490447Y-83552293D01*
X102749998Y-83940739D01*
X102749998Y-84495466D01*
X102534759Y-84817631D01*
X102646664Y-85055000D01*
X103575000Y-85055000D01*
X103575000Y-84630000D01*
X104425000Y-84630000D01*
X104425000Y-85055000D01*
X104850000Y-85055000D01*
X104850000Y-85905000D01*
X104425000Y-85905000D01*
X104425000Y-86330000D01*
X103575000Y-86330000D01*
X103575000Y-85905000D01*
X102646664Y-85905000D01*
X102534759Y-86142369D01*
X102749998Y-86464534D01*
X102749998Y-87019261D01*
X102490447Y-87407707D01*
X102368654Y-88020000D01*
X102490447Y-88632293D01*
X102837283Y-89151371D01*
X103356361Y-89498207D01*
X103968654Y-89620000D01*
X104031346Y-89620000D01*
X104643639Y-89498207D01*
X105162717Y-89151371D01*
X105509553Y-88632293D01*
X105631346Y-88020000D01*
X105629825Y-88012356D01*
X107555018Y-86102240D01*
X107556054Y-86100703D01*
X107557594Y-86099674D01*
X107656832Y-85951153D01*
X107756711Y-85802939D01*
X107757080Y-85801122D01*
X107758109Y-85799582D01*
X107792960Y-85624374D01*
X107828513Y-85449236D01*
X107828159Y-85447417D01*
X107828520Y-85445600D01*
X107828520Y-85429628D01*
X109793455Y-83464693D01*
X110650000Y-83464693D01*
X110927933Y-83412396D01*
X111183198Y-83248138D01*
X111354446Y-82997508D01*
X111379255Y-82875000D01*
X111883005Y-82875000D01*
X112120849Y-83113260D01*
X112690333Y-83349730D01*
X113242064Y-83350211D01*
X113875000Y-83983147D01*
X113875000Y-87200000D01*
X113945411Y-87553983D01*
X114145926Y-87854074D01*
X115145924Y-88854071D01*
X115145926Y-88854074D01*
X115364320Y-89000000D01*
X115446018Y-89054589D01*
X115800000Y-89125001D01*
X115800005Y-89125000D01*
X118000000Y-89125000D01*
X118353983Y-89054589D01*
X118654074Y-88854074D01*
X121383148Y-86125000D01*
X124216852Y-86125000D01*
X127745924Y-89654071D01*
X127745926Y-89654074D01*
X127989346Y-89816722D01*
X126114693Y-89812088D01*
X126114693Y-88350000D01*
X126062396Y-88072067D01*
X125898138Y-87816802D01*
X125647508Y-87645554D01*
X125350000Y-87585307D01*
X122150000Y-87585307D01*
X121872067Y-87637604D01*
X121616802Y-87801862D01*
X121445554Y-88052492D01*
X121385307Y-88350000D01*
X121385307Y-89800396D01*
X112654987Y-89778813D01*
X113357090Y-89077934D01*
X113781516Y-88055802D01*
X113782482Y-86949054D01*
X113359840Y-85926182D01*
X112577934Y-85142910D01*
X111555802Y-84718484D01*
X110449054Y-84717518D01*
X109426182Y-85140160D01*
X108642910Y-85922066D01*
X108218484Y-86944198D01*
X108217518Y-88050946D01*
X108640160Y-89073818D01*
X109335734Y-89770607D01*
X101250000Y-89750618D01*
X101250000Y-75010231D01*
X101508385Y-75629223D01*
X101508385Y-75629223D01*
G37*
X101508385Y-75629223D02*
X101608312Y-75777891D01*
X101707926Y-75926974D01*
X101709000Y-75927692D01*
X101709721Y-75928764D01*
X101859040Y-76027945D01*
X102008018Y-76127489D01*
X102009284Y-76127741D01*
X102010361Y-76128456D01*
X102186135Y-76162918D01*
X102362000Y-76197900D01*
X102667919Y-76197900D01*
X102837283Y-76451371D01*
X103044756Y-76590000D01*
X102837283Y-76728629D01*
X102490447Y-77247707D01*
X102368654Y-77860000D01*
X102490447Y-78472293D01*
X102837283Y-78991371D01*
X103044756Y-79130000D01*
X102837283Y-79268629D01*
X102490447Y-79787707D01*
X102368654Y-80400000D01*
X102490447Y-81012293D01*
X102837283Y-81531371D01*
X103044756Y-81670000D01*
X102837283Y-81808629D01*
X102490447Y-82327707D01*
X102368654Y-82940000D01*
X102490447Y-83552293D01*
X102749998Y-83940739D01*
X102749998Y-84495466D01*
X102534759Y-84817631D01*
X102646664Y-85055000D01*
X103575000Y-85055000D01*
X103575000Y-84630000D01*
X104425000Y-84630000D01*
X104425000Y-85055000D01*
X104850000Y-85055000D01*
X104850000Y-85905000D01*
X104425000Y-85905000D01*
X104425000Y-86330000D01*
X103575000Y-86330000D01*
X103575000Y-85905000D01*
X102646664Y-85905000D01*
X102534759Y-86142369D01*
X102749998Y-86464534D01*
X102749998Y-87019261D01*
X102490447Y-87407707D01*
X102368654Y-88020000D01*
X102490447Y-88632293D01*
X102837283Y-89151371D01*
X103356361Y-89498207D01*
X103968654Y-89620000D01*
X104031346Y-89620000D01*
X104643639Y-89498207D01*
X105162717Y-89151371D01*
X105509553Y-88632293D01*
X105631346Y-88020000D01*
X105629825Y-88012356D01*
X107555018Y-86102240D01*
X107556054Y-86100703D01*
X107557594Y-86099674D01*
X107656832Y-85951153D01*
X107756711Y-85802939D01*
X107757080Y-85801122D01*
X107758109Y-85799582D01*
X107792960Y-85624374D01*
X107828513Y-85449236D01*
X107828159Y-85447417D01*
X107828520Y-85445600D01*
X107828520Y-85429628D01*
X109793455Y-83464693D01*
X110650000Y-83464693D01*
X110927933Y-83412396D01*
X111183198Y-83248138D01*
X111354446Y-82997508D01*
X111379255Y-82875000D01*
X111883005Y-82875000D01*
X112120849Y-83113260D01*
X112690333Y-83349730D01*
X113242064Y-83350211D01*
X113875000Y-83983147D01*
X113875000Y-87200000D01*
X113945411Y-87553983D01*
X114145926Y-87854074D01*
X115145924Y-88854071D01*
X115145926Y-88854074D01*
X115364320Y-89000000D01*
X115446018Y-89054589D01*
X115800000Y-89125001D01*
X115800005Y-89125000D01*
X118000000Y-89125000D01*
X118353983Y-89054589D01*
X118654074Y-88854074D01*
X121383148Y-86125000D01*
X124216852Y-86125000D01*
X127745924Y-89654071D01*
X127745926Y-89654074D01*
X127989346Y-89816722D01*
X126114693Y-89812088D01*
X126114693Y-88350000D01*
X126062396Y-88072067D01*
X125898138Y-87816802D01*
X125647508Y-87645554D01*
X125350000Y-87585307D01*
X122150000Y-87585307D01*
X121872067Y-87637604D01*
X121616802Y-87801862D01*
X121445554Y-88052492D01*
X121385307Y-88350000D01*
X121385307Y-89800396D01*
X112654987Y-89778813D01*
X113357090Y-89077934D01*
X113781516Y-88055802D01*
X113782482Y-86949054D01*
X113359840Y-85926182D01*
X112577934Y-85142910D01*
X111555802Y-84718484D01*
X110449054Y-84717518D01*
X109426182Y-85140160D01*
X108642910Y-85922066D01*
X108218484Y-86944198D01*
X108217518Y-88050946D01*
X108640160Y-89073818D01*
X109335734Y-89770607D01*
X101250000Y-89750618D01*
X101250000Y-75010231D01*
X101508385Y-75629223D01*
G36*
X123406243Y-68514391D02*
X123250182Y-68890226D01*
X123249818Y-69307942D01*
X123375000Y-69610905D01*
X123375000Y-74800000D01*
X123445411Y-75153983D01*
X123645926Y-75454074D01*
X124577159Y-76385307D01*
X122150000Y-76385307D01*
X121872067Y-76437604D01*
X121616802Y-76601862D01*
X121445554Y-76852492D01*
X121385307Y-77150000D01*
X121385307Y-79150000D01*
X121437604Y-79427933D01*
X121601862Y-79683198D01*
X121852492Y-79854446D01*
X122150000Y-79914693D01*
X125350000Y-79914693D01*
X125627933Y-79862396D01*
X125883198Y-79698138D01*
X126054446Y-79447508D01*
X126114693Y-79150000D01*
X126114693Y-77922841D01*
X129499948Y-81308095D01*
X129499696Y-81596569D01*
X129765557Y-82240001D01*
X130257410Y-82732713D01*
X130900376Y-82999696D01*
X131207071Y-82999964D01*
X131250000Y-83042893D01*
X131292854Y-83000039D01*
X131596569Y-83000304D01*
X131821555Y-82907341D01*
X131975000Y-83060786D01*
X131975000Y-83732107D01*
X131957107Y-83750000D01*
X131975000Y-83767893D01*
X131975000Y-84439214D01*
X131928907Y-84485307D01*
X131278200Y-84485307D01*
X131250000Y-84457107D01*
X131221800Y-84485307D01*
X130571093Y-84485307D01*
X130189340Y-84103554D01*
X130542893Y-83750000D01*
X129819548Y-83026655D01*
X129563552Y-83142759D01*
X129470461Y-83761769D01*
X129102131Y-84130099D01*
X129699385Y-84727353D01*
X129545554Y-84952492D01*
X129485307Y-85250000D01*
X129485307Y-87075000D01*
X129183147Y-87075000D01*
X125654074Y-83545926D01*
X125353983Y-83345411D01*
X125000000Y-83275000D01*
X119525000Y-83275000D01*
X119525000Y-74325000D01*
X121200000Y-74325000D01*
X121553983Y-74254589D01*
X121854074Y-74054074D01*
X122854071Y-73054076D01*
X122854074Y-73054074D01*
X123054589Y-72753982D01*
X123069235Y-72680353D01*
X123125001Y-72400000D01*
X123125000Y-72399995D01*
X123125000Y-69368005D01*
X123125001Y-69368000D01*
X123054589Y-69014018D01*
X123026246Y-68971600D01*
X122854074Y-68713926D01*
X122854071Y-68713924D01*
X122138824Y-67998676D01*
X122192446Y-67729100D01*
X122086046Y-67194194D01*
X123406243Y-68514391D01*
X123406243Y-68514391D01*
G37*
X123406243Y-68514391D02*
X123250182Y-68890226D01*
X123249818Y-69307942D01*
X123375000Y-69610905D01*
X123375000Y-74800000D01*
X123445411Y-75153983D01*
X123645926Y-75454074D01*
X124577159Y-76385307D01*
X122150000Y-76385307D01*
X121872067Y-76437604D01*
X121616802Y-76601862D01*
X121445554Y-76852492D01*
X121385307Y-77150000D01*
X121385307Y-79150000D01*
X121437604Y-79427933D01*
X121601862Y-79683198D01*
X121852492Y-79854446D01*
X122150000Y-79914693D01*
X125350000Y-79914693D01*
X125627933Y-79862396D01*
X125883198Y-79698138D01*
X126054446Y-79447508D01*
X126114693Y-79150000D01*
X126114693Y-77922841D01*
X129499948Y-81308095D01*
X129499696Y-81596569D01*
X129765557Y-82240001D01*
X130257410Y-82732713D01*
X130900376Y-82999696D01*
X131207071Y-82999964D01*
X131250000Y-83042893D01*
X131292854Y-83000039D01*
X131596569Y-83000304D01*
X131821555Y-82907341D01*
X131975000Y-83060786D01*
X131975000Y-83732107D01*
X131957107Y-83750000D01*
X131975000Y-83767893D01*
X131975000Y-84439214D01*
X131928907Y-84485307D01*
X131278200Y-84485307D01*
X131250000Y-84457107D01*
X131221800Y-84485307D01*
X130571093Y-84485307D01*
X130189340Y-84103554D01*
X130542893Y-83750000D01*
X129819548Y-83026655D01*
X129563552Y-83142759D01*
X129470461Y-83761769D01*
X129102131Y-84130099D01*
X129699385Y-84727353D01*
X129545554Y-84952492D01*
X129485307Y-85250000D01*
X129485307Y-87075000D01*
X129183147Y-87075000D01*
X125654074Y-83545926D01*
X125353983Y-83345411D01*
X125000000Y-83275000D01*
X119525000Y-83275000D01*
X119525000Y-74325000D01*
X121200000Y-74325000D01*
X121553983Y-74254589D01*
X121854074Y-74054074D01*
X122854071Y-73054076D01*
X122854074Y-73054074D01*
X123054589Y-72753982D01*
X123069235Y-72680353D01*
X123125001Y-72400000D01*
X123125000Y-72399995D01*
X123125000Y-69368005D01*
X123125001Y-69368000D01*
X123054589Y-69014018D01*
X123026246Y-68971600D01*
X122854074Y-68713926D01*
X122854071Y-68713924D01*
X122138824Y-67998676D01*
X122192446Y-67729100D01*
X122086046Y-67194194D01*
X123406243Y-68514391D01*
G36*
X114794006Y-72713874D02*
X115094097Y-72914389D01*
X115448080Y-72984800D01*
X118107052Y-72984800D01*
X117945926Y-73145926D01*
X117745411Y-73446017D01*
X117693897Y-73705000D01*
X117675000Y-73800000D01*
X117675000Y-79647032D01*
X117130099Y-79102131D01*
X116758692Y-79473538D01*
X116665642Y-79459545D01*
X116142759Y-79563552D01*
X116026655Y-79819548D01*
X116750000Y-80542893D01*
X117103554Y-80189340D01*
X117675000Y-80760786D01*
X117675000Y-81032107D01*
X117457107Y-81250000D01*
X117675000Y-81467893D01*
X117675000Y-81739214D01*
X117103554Y-82310661D01*
X116750000Y-81957107D01*
X116026655Y-82680452D01*
X116142759Y-82936448D01*
X116761769Y-83029539D01*
X117130099Y-83397869D01*
X117675000Y-82852968D01*
X117675000Y-84739221D01*
X117099624Y-84500304D01*
X116403431Y-84499696D01*
X115759999Y-84765557D01*
X115725000Y-84800495D01*
X115725000Y-83600000D01*
X115654589Y-83246018D01*
X115454074Y-82945926D01*
X115454071Y-82945924D01*
X114549789Y-82041642D01*
X114550268Y-81493039D01*
X114484703Y-81334358D01*
X114959545Y-81334358D01*
X115063552Y-81857241D01*
X115319548Y-81973345D01*
X116042893Y-81250000D01*
X115319548Y-80526655D01*
X115063552Y-80642759D01*
X114959545Y-81334358D01*
X114484703Y-81334358D01*
X114314792Y-80923143D01*
X113879151Y-80486740D01*
X113309667Y-80250270D01*
X112693039Y-80249732D01*
X112123143Y-80485208D01*
X111686740Y-80920849D01*
X111643493Y-81025000D01*
X111381764Y-81025000D01*
X111362396Y-80922067D01*
X111198138Y-80666802D01*
X111101452Y-80600740D01*
X111183198Y-80548138D01*
X111354446Y-80297508D01*
X111380482Y-80168937D01*
X111703983Y-80104589D01*
X112004074Y-79904074D01*
X113654074Y-78254074D01*
X113854588Y-77953983D01*
X113854589Y-77953982D01*
X113925000Y-77600000D01*
X113925000Y-75420651D01*
X114096016Y-75306382D01*
X114432013Y-74803525D01*
X114550000Y-74210366D01*
X114550000Y-74149634D01*
X114432013Y-73556475D01*
X114096016Y-73053618D01*
X113725000Y-72805714D01*
X113725000Y-72166920D01*
X114247052Y-72166920D01*
X114794006Y-72713874D01*
X114794006Y-72713874D01*
G37*
X114794006Y-72713874D02*
X115094097Y-72914389D01*
X115448080Y-72984800D01*
X118107052Y-72984800D01*
X117945926Y-73145926D01*
X117745411Y-73446017D01*
X117693897Y-73705000D01*
X117675000Y-73800000D01*
X117675000Y-79647032D01*
X117130099Y-79102131D01*
X116758692Y-79473538D01*
X116665642Y-79459545D01*
X116142759Y-79563552D01*
X116026655Y-79819548D01*
X116750000Y-80542893D01*
X117103554Y-80189340D01*
X117675000Y-80760786D01*
X117675000Y-81032107D01*
X117457107Y-81250000D01*
X117675000Y-81467893D01*
X117675000Y-81739214D01*
X117103554Y-82310661D01*
X116750000Y-81957107D01*
X116026655Y-82680452D01*
X116142759Y-82936448D01*
X116761769Y-83029539D01*
X117130099Y-83397869D01*
X117675000Y-82852968D01*
X117675000Y-84739221D01*
X117099624Y-84500304D01*
X116403431Y-84499696D01*
X115759999Y-84765557D01*
X115725000Y-84800495D01*
X115725000Y-83600000D01*
X115654589Y-83246018D01*
X115454074Y-82945926D01*
X115454071Y-82945924D01*
X114549789Y-82041642D01*
X114550268Y-81493039D01*
X114484703Y-81334358D01*
X114959545Y-81334358D01*
X115063552Y-81857241D01*
X115319548Y-81973345D01*
X116042893Y-81250000D01*
X115319548Y-80526655D01*
X115063552Y-80642759D01*
X114959545Y-81334358D01*
X114484703Y-81334358D01*
X114314792Y-80923143D01*
X113879151Y-80486740D01*
X113309667Y-80250270D01*
X112693039Y-80249732D01*
X112123143Y-80485208D01*
X111686740Y-80920849D01*
X111643493Y-81025000D01*
X111381764Y-81025000D01*
X111362396Y-80922067D01*
X111198138Y-80666802D01*
X111101452Y-80600740D01*
X111183198Y-80548138D01*
X111354446Y-80297508D01*
X111380482Y-80168937D01*
X111703983Y-80104589D01*
X112004074Y-79904074D01*
X113654074Y-78254074D01*
X113854588Y-77953983D01*
X113854589Y-77953982D01*
X113925000Y-77600000D01*
X113925000Y-75420651D01*
X114096016Y-75306382D01*
X114432013Y-74803525D01*
X114550000Y-74210366D01*
X114550000Y-74149634D01*
X114432013Y-73556475D01*
X114096016Y-73053618D01*
X113725000Y-72805714D01*
X113725000Y-72166920D01*
X114247052Y-72166920D01*
X114794006Y-72713874D01*
G36*
X130275000Y-69083148D02*
X130275000Y-73100000D01*
X130345411Y-73453983D01*
X130426272Y-73575000D01*
X128011301Y-73575000D01*
X127984443Y-73509999D01*
X127492590Y-73017287D01*
X126849624Y-72750304D01*
X126153431Y-72749696D01*
X125509999Y-73015557D01*
X125225000Y-73300059D01*
X125225000Y-71430452D01*
X125776655Y-71430452D01*
X125892759Y-71686448D01*
X126584358Y-71790455D01*
X127107241Y-71686448D01*
X127223345Y-71430452D01*
X126500000Y-70707107D01*
X125776655Y-71430452D01*
X125225000Y-71430452D01*
X125225000Y-70567893D01*
X125792893Y-70000000D01*
X125439340Y-69646447D01*
X126146447Y-68939340D01*
X126500000Y-69292893D01*
X126853554Y-68939340D01*
X127560661Y-69646447D01*
X127207107Y-70000000D01*
X127930452Y-70723345D01*
X128186448Y-70607241D01*
X128279539Y-69988231D01*
X128647869Y-69619901D01*
X127852968Y-68825000D01*
X130016852Y-68825000D01*
X130275000Y-69083148D01*
X130275000Y-69083148D01*
G37*
X130275000Y-69083148D02*
X130275000Y-73100000D01*
X130345411Y-73453983D01*
X130426272Y-73575000D01*
X128011301Y-73575000D01*
X127984443Y-73509999D01*
X127492590Y-73017287D01*
X126849624Y-72750304D01*
X126153431Y-72749696D01*
X125509999Y-73015557D01*
X125225000Y-73300059D01*
X125225000Y-71430452D01*
X125776655Y-71430452D01*
X125892759Y-71686448D01*
X126584358Y-71790455D01*
X127107241Y-71686448D01*
X127223345Y-71430452D01*
X126500000Y-70707107D01*
X125776655Y-71430452D01*
X125225000Y-71430452D01*
X125225000Y-70567893D01*
X125792893Y-70000000D01*
X125439340Y-69646447D01*
X126146447Y-68939340D01*
X126500000Y-69292893D01*
X126853554Y-68939340D01*
X127560661Y-69646447D01*
X127207107Y-70000000D01*
X127930452Y-70723345D01*
X128186448Y-70607241D01*
X128279539Y-69988231D01*
X128647869Y-69619901D01*
X127852968Y-68825000D01*
X130016852Y-68825000D01*
X130275000Y-69083148D01*
G36*
X134649732Y-67206961D02*
X134885208Y-67776857D01*
X135075000Y-67966981D01*
X135075000Y-68187052D01*
X135072067Y-68187604D01*
X134816802Y-68351862D01*
X134645554Y-68602492D01*
X134585307Y-68900000D01*
X134585307Y-69346888D01*
X134430452Y-69276655D01*
X133707107Y-70000000D01*
X134430452Y-70723345D01*
X134629189Y-70633210D01*
X134637604Y-70677933D01*
X134801862Y-70933198D01*
X134898548Y-70999260D01*
X134816802Y-71051862D01*
X134645554Y-71302492D01*
X134585307Y-71600000D01*
X134585307Y-72309527D01*
X134065703Y-72732908D01*
X134035434Y-72769527D01*
X133995926Y-72795926D01*
X133838534Y-72953318D01*
X133349624Y-72750304D01*
X132653431Y-72749696D01*
X132302745Y-72894597D01*
X132125000Y-72716852D01*
X132125000Y-71652968D01*
X132619901Y-72147869D01*
X132991308Y-71776462D01*
X133084358Y-71790455D01*
X133607241Y-71686448D01*
X133723345Y-71430452D01*
X133000000Y-70707107D01*
X132646447Y-71060661D01*
X132125000Y-70539214D01*
X132125000Y-70167893D01*
X132292893Y-70000000D01*
X132125000Y-69832107D01*
X132125000Y-69460786D01*
X132646447Y-68939340D01*
X133000000Y-69292893D01*
X133723345Y-68569548D01*
X133607241Y-68313552D01*
X133185737Y-68250164D01*
X133346569Y-68250304D01*
X133990001Y-67984443D01*
X134482713Y-67492590D01*
X134649834Y-67090118D01*
X134649732Y-67206961D01*
X134649732Y-67206961D01*
G37*
X134649732Y-67206961D02*
X134885208Y-67776857D01*
X135075000Y-67966981D01*
X135075000Y-68187052D01*
X135072067Y-68187604D01*
X134816802Y-68351862D01*
X134645554Y-68602492D01*
X134585307Y-68900000D01*
X134585307Y-69346888D01*
X134430452Y-69276655D01*
X133707107Y-70000000D01*
X134430452Y-70723345D01*
X134629189Y-70633210D01*
X134637604Y-70677933D01*
X134801862Y-70933198D01*
X134898548Y-70999260D01*
X134816802Y-71051862D01*
X134645554Y-71302492D01*
X134585307Y-71600000D01*
X134585307Y-72309527D01*
X134065703Y-72732908D01*
X134035434Y-72769527D01*
X133995926Y-72795926D01*
X133838534Y-72953318D01*
X133349624Y-72750304D01*
X132653431Y-72749696D01*
X132302745Y-72894597D01*
X132125000Y-72716852D01*
X132125000Y-71652968D01*
X132619901Y-72147869D01*
X132991308Y-71776462D01*
X133084358Y-71790455D01*
X133607241Y-71686448D01*
X133723345Y-71430452D01*
X133000000Y-70707107D01*
X132646447Y-71060661D01*
X132125000Y-70539214D01*
X132125000Y-70167893D01*
X132292893Y-70000000D01*
X132125000Y-69832107D01*
X132125000Y-69460786D01*
X132646447Y-68939340D01*
X133000000Y-69292893D01*
X133723345Y-68569548D01*
X133607241Y-68313552D01*
X133185737Y-68250164D01*
X133346569Y-68250304D01*
X133990001Y-67984443D01*
X134482713Y-67492590D01*
X134649834Y-67090118D01*
X134649732Y-67206961D01*
G36*
X120986100Y-64764100D02*
X121275000Y-64764100D01*
X121275000Y-65614100D01*
X120986100Y-65614100D01*
X120986100Y-66039100D01*
X120136100Y-66039100D01*
X120136100Y-65614100D01*
X119711100Y-65614100D01*
X119711100Y-64764100D01*
X120136100Y-64764100D01*
X120136100Y-64339100D01*
X120986100Y-64339100D01*
X120986100Y-64764100D01*
X120986100Y-64764100D01*
G37*
X120986100Y-64764100D02*
X121275000Y-64764100D01*
X121275000Y-65614100D01*
X120986100Y-65614100D01*
X120986100Y-66039100D01*
X120136100Y-66039100D01*
X120136100Y-65614100D01*
X119711100Y-65614100D01*
X119711100Y-64764100D01*
X120136100Y-64764100D01*
X120136100Y-64339100D01*
X120986100Y-64339100D01*
X120986100Y-64764100D01*
G36*
X134650000Y-59249634D02*
X134650000Y-59310366D01*
X134767987Y-59903525D01*
X135103984Y-60406382D01*
X135209322Y-60476766D01*
X135078313Y-62913539D01*
X133241642Y-64750210D01*
X132653431Y-64749696D01*
X132009999Y-65015557D01*
X131517287Y-65507410D01*
X131489221Y-65575000D01*
X128011301Y-65575000D01*
X127984443Y-65509999D01*
X127492590Y-65017287D01*
X126849624Y-64750304D01*
X126153431Y-64749696D01*
X125509999Y-65015557D01*
X125017287Y-65507410D01*
X124989221Y-65575000D01*
X124783148Y-65575000D01*
X124696496Y-65488348D01*
X124889628Y-65295554D01*
X125049818Y-64909774D01*
X125050182Y-64492058D01*
X125025000Y-64431113D01*
X125025000Y-63430452D01*
X125776655Y-63430452D01*
X125892759Y-63686448D01*
X126584358Y-63790455D01*
X127107241Y-63686448D01*
X127223345Y-63430452D01*
X132276655Y-63430452D01*
X132392759Y-63686448D01*
X133084358Y-63790455D01*
X133607241Y-63686448D01*
X133723345Y-63430452D01*
X133000000Y-62707107D01*
X132276655Y-63430452D01*
X127223345Y-63430452D01*
X126500000Y-62707107D01*
X125776655Y-63430452D01*
X125025000Y-63430452D01*
X125025000Y-62703141D01*
X125069548Y-62723345D01*
X125792893Y-62000000D01*
X127207107Y-62000000D01*
X127930452Y-62723345D01*
X128186448Y-62607241D01*
X128265082Y-62084358D01*
X131209545Y-62084358D01*
X131313552Y-62607241D01*
X131569548Y-62723345D01*
X132292893Y-62000000D01*
X133707107Y-62000000D01*
X134430452Y-62723345D01*
X134686448Y-62607241D01*
X134790455Y-61915642D01*
X134686448Y-61392759D01*
X134430452Y-61276655D01*
X133707107Y-62000000D01*
X132292893Y-62000000D01*
X131569548Y-61276655D01*
X131313552Y-61392759D01*
X131209545Y-62084358D01*
X128265082Y-62084358D01*
X128290455Y-61915642D01*
X128186448Y-61392759D01*
X127930452Y-61276655D01*
X127207107Y-62000000D01*
X125792893Y-62000000D01*
X125069548Y-61276655D01*
X125025000Y-61296859D01*
X125025000Y-59883148D01*
X125216676Y-59691471D01*
X125507410Y-59982713D01*
X126150376Y-60249696D01*
X126213510Y-60249751D01*
X125892759Y-60313552D01*
X125776655Y-60569548D01*
X126500000Y-61292893D01*
X127223345Y-60569548D01*
X127107241Y-60313552D01*
X126685737Y-60250164D01*
X126846569Y-60250304D01*
X127490001Y-59984443D01*
X127982713Y-59492590D01*
X128010779Y-59425000D01*
X131488699Y-59425000D01*
X131515557Y-59490001D01*
X132007410Y-59982713D01*
X132650376Y-60249696D01*
X132713510Y-60249751D01*
X132392759Y-60313552D01*
X132276655Y-60569548D01*
X133000000Y-61292893D01*
X133723345Y-60569548D01*
X133607241Y-60313552D01*
X133185737Y-60250164D01*
X133346569Y-60250304D01*
X133990001Y-59984443D01*
X134482713Y-59492590D01*
X134711058Y-58942674D01*
X134650000Y-59249634D01*
X134650000Y-59249634D01*
G37*
X134650000Y-59249634D02*
X134650000Y-59310366D01*
X134767987Y-59903525D01*
X135103984Y-60406382D01*
X135209322Y-60476766D01*
X135078313Y-62913539D01*
X133241642Y-64750210D01*
X132653431Y-64749696D01*
X132009999Y-65015557D01*
X131517287Y-65507410D01*
X131489221Y-65575000D01*
X128011301Y-65575000D01*
X127984443Y-65509999D01*
X127492590Y-65017287D01*
X126849624Y-64750304D01*
X126153431Y-64749696D01*
X125509999Y-65015557D01*
X125017287Y-65507410D01*
X124989221Y-65575000D01*
X124783148Y-65575000D01*
X124696496Y-65488348D01*
X124889628Y-65295554D01*
X125049818Y-64909774D01*
X125050182Y-64492058D01*
X125025000Y-64431113D01*
X125025000Y-63430452D01*
X125776655Y-63430452D01*
X125892759Y-63686448D01*
X126584358Y-63790455D01*
X127107241Y-63686448D01*
X127223345Y-63430452D01*
X132276655Y-63430452D01*
X132392759Y-63686448D01*
X133084358Y-63790455D01*
X133607241Y-63686448D01*
X133723345Y-63430452D01*
X133000000Y-62707107D01*
X132276655Y-63430452D01*
X127223345Y-63430452D01*
X126500000Y-62707107D01*
X125776655Y-63430452D01*
X125025000Y-63430452D01*
X125025000Y-62703141D01*
X125069548Y-62723345D01*
X125792893Y-62000000D01*
X127207107Y-62000000D01*
X127930452Y-62723345D01*
X128186448Y-62607241D01*
X128265082Y-62084358D01*
X131209545Y-62084358D01*
X131313552Y-62607241D01*
X131569548Y-62723345D01*
X132292893Y-62000000D01*
X133707107Y-62000000D01*
X134430452Y-62723345D01*
X134686448Y-62607241D01*
X134790455Y-61915642D01*
X134686448Y-61392759D01*
X134430452Y-61276655D01*
X133707107Y-62000000D01*
X132292893Y-62000000D01*
X131569548Y-61276655D01*
X131313552Y-61392759D01*
X131209545Y-62084358D01*
X128265082Y-62084358D01*
X128290455Y-61915642D01*
X128186448Y-61392759D01*
X127930452Y-61276655D01*
X127207107Y-62000000D01*
X125792893Y-62000000D01*
X125069548Y-61276655D01*
X125025000Y-61296859D01*
X125025000Y-59883148D01*
X125216676Y-59691471D01*
X125507410Y-59982713D01*
X126150376Y-60249696D01*
X126213510Y-60249751D01*
X125892759Y-60313552D01*
X125776655Y-60569548D01*
X126500000Y-61292893D01*
X127223345Y-60569548D01*
X127107241Y-60313552D01*
X126685737Y-60250164D01*
X126846569Y-60250304D01*
X127490001Y-59984443D01*
X127982713Y-59492590D01*
X128010779Y-59425000D01*
X131488699Y-59425000D01*
X131515557Y-59490001D01*
X132007410Y-59982713D01*
X132650376Y-60249696D01*
X132713510Y-60249751D01*
X132392759Y-60313552D01*
X132276655Y-60569548D01*
X133000000Y-61292893D01*
X133723345Y-60569548D01*
X133607241Y-60313552D01*
X133185737Y-60250164D01*
X133346569Y-60250304D01*
X133990001Y-59984443D01*
X134482713Y-59492590D01*
X134711058Y-58942674D01*
X134650000Y-59249634D01*
G36*
X124663531Y-53308501D02*
X124352131Y-53619901D01*
X124723538Y-53991308D01*
X124709545Y-54084358D01*
X124813552Y-54607241D01*
X125069548Y-54723345D01*
X125792893Y-54000000D01*
X125439340Y-53646447D01*
X125774539Y-53311247D01*
X127229057Y-53314843D01*
X127560661Y-53646447D01*
X127207107Y-54000000D01*
X127930452Y-54723345D01*
X128186448Y-54607241D01*
X128279539Y-53988231D01*
X128647869Y-53619901D01*
X128345571Y-53317603D01*
X131147501Y-53324531D01*
X130852131Y-53619901D01*
X131223538Y-53991308D01*
X131209545Y-54084358D01*
X131313552Y-54607241D01*
X131569548Y-54723345D01*
X132292893Y-54000000D01*
X131939340Y-53646447D01*
X132258509Y-53327277D01*
X133745166Y-53330952D01*
X134060661Y-53646447D01*
X133707107Y-54000000D01*
X134430452Y-54723345D01*
X134686448Y-54607241D01*
X134779539Y-53988231D01*
X135147869Y-53619901D01*
X134861680Y-53333712D01*
X136228905Y-53337093D01*
X135642910Y-53922066D01*
X135218484Y-54944198D01*
X135217518Y-56050946D01*
X135640160Y-57073818D01*
X136280961Y-57715738D01*
X136200000Y-57699634D01*
X135606841Y-57817621D01*
X135103984Y-58153618D01*
X134767987Y-58656475D01*
X134749785Y-58747984D01*
X134750304Y-58153431D01*
X134484443Y-57509999D01*
X133992590Y-57017287D01*
X133349624Y-56750304D01*
X132653431Y-56749696D01*
X132009999Y-57015557D01*
X131517287Y-57507410D01*
X131489221Y-57575000D01*
X128011301Y-57575000D01*
X127984443Y-57509999D01*
X127492590Y-57017287D01*
X126849624Y-56750304D01*
X126153431Y-56749696D01*
X125509999Y-57015557D01*
X125017287Y-57507410D01*
X124979248Y-57599018D01*
X124746018Y-57645411D01*
X124445926Y-57845926D01*
X124445924Y-57845929D01*
X124069728Y-58222125D01*
X124054589Y-58146018D01*
X123854074Y-57845926D01*
X123854071Y-57845924D01*
X122923174Y-56915026D01*
X122623083Y-56714511D01*
X122269100Y-56644100D01*
X121861709Y-56644100D01*
X121723817Y-56437729D01*
X121516344Y-56299100D01*
X121723817Y-56160471D01*
X122070653Y-55641393D01*
X122112611Y-55430452D01*
X125776655Y-55430452D01*
X125892759Y-55686448D01*
X126584358Y-55790455D01*
X127107241Y-55686448D01*
X127223345Y-55430452D01*
X132276655Y-55430452D01*
X132392759Y-55686448D01*
X133084358Y-55790455D01*
X133607241Y-55686448D01*
X133723345Y-55430452D01*
X133000000Y-54707107D01*
X132276655Y-55430452D01*
X127223345Y-55430452D01*
X126500000Y-54707107D01*
X125776655Y-55430452D01*
X122112611Y-55430452D01*
X122192446Y-55029100D01*
X122070653Y-54416807D01*
X121723817Y-53897729D01*
X121481005Y-53735488D01*
X121445023Y-53554589D01*
X121415689Y-53407117D01*
X121344313Y-53300295D01*
X124663531Y-53308501D01*
X124663531Y-53308501D01*
G37*
X124663531Y-53308501D02*
X124352131Y-53619901D01*
X124723538Y-53991308D01*
X124709545Y-54084358D01*
X124813552Y-54607241D01*
X125069548Y-54723345D01*
X125792893Y-54000000D01*
X125439340Y-53646447D01*
X125774539Y-53311247D01*
X127229057Y-53314843D01*
X127560661Y-53646447D01*
X127207107Y-54000000D01*
X127930452Y-54723345D01*
X128186448Y-54607241D01*
X128279539Y-53988231D01*
X128647869Y-53619901D01*
X128345571Y-53317603D01*
X131147501Y-53324531D01*
X130852131Y-53619901D01*
X131223538Y-53991308D01*
X131209545Y-54084358D01*
X131313552Y-54607241D01*
X131569548Y-54723345D01*
X132292893Y-54000000D01*
X131939340Y-53646447D01*
X132258509Y-53327277D01*
X133745166Y-53330952D01*
X134060661Y-53646447D01*
X133707107Y-54000000D01*
X134430452Y-54723345D01*
X134686448Y-54607241D01*
X134779539Y-53988231D01*
X135147869Y-53619901D01*
X134861680Y-53333712D01*
X136228905Y-53337093D01*
X135642910Y-53922066D01*
X135218484Y-54944198D01*
X135217518Y-56050946D01*
X135640160Y-57073818D01*
X136280961Y-57715738D01*
X136200000Y-57699634D01*
X135606841Y-57817621D01*
X135103984Y-58153618D01*
X134767987Y-58656475D01*
X134749785Y-58747984D01*
X134750304Y-58153431D01*
X134484443Y-57509999D01*
X133992590Y-57017287D01*
X133349624Y-56750304D01*
X132653431Y-56749696D01*
X132009999Y-57015557D01*
X131517287Y-57507410D01*
X131489221Y-57575000D01*
X128011301Y-57575000D01*
X127984443Y-57509999D01*
X127492590Y-57017287D01*
X126849624Y-56750304D01*
X126153431Y-56749696D01*
X125509999Y-57015557D01*
X125017287Y-57507410D01*
X124979248Y-57599018D01*
X124746018Y-57645411D01*
X124445926Y-57845926D01*
X124445924Y-57845929D01*
X124069728Y-58222125D01*
X124054589Y-58146018D01*
X123854074Y-57845926D01*
X123854071Y-57845924D01*
X122923174Y-56915026D01*
X122623083Y-56714511D01*
X122269100Y-56644100D01*
X121861709Y-56644100D01*
X121723817Y-56437729D01*
X121516344Y-56299100D01*
X121723817Y-56160471D01*
X122070653Y-55641393D01*
X122112611Y-55430452D01*
X125776655Y-55430452D01*
X125892759Y-55686448D01*
X126584358Y-55790455D01*
X127107241Y-55686448D01*
X127223345Y-55430452D01*
X132276655Y-55430452D01*
X132392759Y-55686448D01*
X133084358Y-55790455D01*
X133607241Y-55686448D01*
X133723345Y-55430452D01*
X133000000Y-54707107D01*
X132276655Y-55430452D01*
X127223345Y-55430452D01*
X126500000Y-54707107D01*
X125776655Y-55430452D01*
X122112611Y-55430452D01*
X122192446Y-55029100D01*
X122070653Y-54416807D01*
X121723817Y-53897729D01*
X121481005Y-53735488D01*
X121445023Y-53554589D01*
X121415689Y-53407117D01*
X121344313Y-53300295D01*
X124663531Y-53308501D01*
M02*
