G04 #@! TF.FileFunction,Soldermask,Top*
%FSLAX46Y46*%
G04 Gerber Fmt 4.6, Leading zero omitted, Abs format (unit mm)*
G04 Created by KiCad (PCBNEW 4.0.7) date 11/10/19 19:17:38*
%MOMM*%
%LPD*%
G01*
G04 APERTURE LIST*
%ADD10C,0.100000*%
%ADD11C,2.400000*%
%ADD12R,3.600000X2.400000*%
%ADD13R,2.400000X2.400000*%
%ADD14C,2.000000*%
%ADD15O,2.000000X2.000000*%
%ADD16R,2.100000X2.100000*%
%ADD17O,2.100000X2.100000*%
%ADD18C,4.464000*%
G04 APERTURE END LIST*
D10*
D11*
X116750000Y-81250000D03*
X116750000Y-86250000D03*
D12*
X123750000Y-78150000D03*
X123750000Y-89350000D03*
D11*
X131250000Y-81250000D03*
X131250000Y-83750000D03*
D13*
X131250000Y-86250000D03*
D14*
X138400000Y-66200000D03*
D15*
X138400000Y-73820000D03*
D16*
X118021100Y-70269100D03*
D17*
X120561100Y-70269100D03*
X118021100Y-67729100D03*
X120561100Y-67729100D03*
X118021100Y-65189100D03*
X120561100Y-65189100D03*
X118021100Y-62649100D03*
X120561100Y-62649100D03*
X118021100Y-60109100D03*
X120561100Y-60109100D03*
X118021100Y-57569100D03*
X120561100Y-57569100D03*
X118021100Y-55029100D03*
X120561100Y-55029100D03*
D14*
X136200000Y-66900000D03*
D15*
X136200000Y-59280000D03*
D14*
X136700000Y-75500000D03*
D15*
X136700000Y-83120000D03*
D14*
X113000000Y-81800000D03*
D15*
X113000000Y-74180000D03*
D11*
X126500000Y-74500000D03*
X126500000Y-70000000D03*
X133000000Y-74500000D03*
X133000000Y-70000000D03*
X126500000Y-66500000D03*
X126500000Y-62000000D03*
X133000000Y-66500000D03*
X133000000Y-62000000D03*
X126500000Y-58500000D03*
X126500000Y-54000000D03*
X133000000Y-58500000D03*
X133000000Y-54000000D03*
D16*
X104000000Y-55000000D03*
D17*
X104000000Y-57540000D03*
X104000000Y-60080000D03*
X104000000Y-62620000D03*
X104000000Y-65160000D03*
X104000000Y-67700000D03*
X104000000Y-70240000D03*
X104000000Y-72780000D03*
X104000000Y-75320000D03*
X104000000Y-77860000D03*
X104000000Y-80400000D03*
X104000000Y-82940000D03*
X104000000Y-85480000D03*
X104000000Y-88020000D03*
D18*
X111000000Y-55500000D03*
X138000000Y-87500000D03*
X111000000Y-87500000D03*
X138000000Y-55500000D03*
M02*
