G04 #@! TF.FileFunction,Copper,L2,Bot,Signal*
%FSLAX46Y46*%
G04 Gerber Fmt 4.6, Leading zero omitted, Abs format (unit mm)*
G04 Created by KiCad (PCBNEW 4.0.7) date 10/22/19 22:36:22*
%MOMM*%
%LPD*%
G01*
G04 APERTURE LIST*
%ADD10C,0.100000*%
%ADD11C,1.600000*%
%ADD12O,1.600000X1.600000*%
%ADD13R,1.700000X1.700000*%
%ADD14O,1.700000X1.700000*%
%ADD15R,1.300000X1.500000*%
%ADD16R,1.500000X1.300000*%
%ADD17C,2.000000*%
%ADD18R,2.000000X3.200000*%
%ADD19R,2.000000X2.000000*%
%ADD20C,4.064000*%
%ADD21C,0.600000*%
%ADD22C,0.350000*%
%ADD23C,0.500000*%
G04 APERTURE END LIST*
D10*
D11*
X124460000Y-62103000D03*
D12*
X124460000Y-54483000D03*
D13*
X114935000Y-70358000D03*
D14*
X117475000Y-70358000D03*
X114935000Y-67818000D03*
X117475000Y-67818000D03*
X114935000Y-65278000D03*
X117475000Y-65278000D03*
X114935000Y-62738000D03*
X117475000Y-62738000D03*
X114935000Y-60198000D03*
X117475000Y-60198000D03*
X114935000Y-57658000D03*
X117475000Y-57658000D03*
X114935000Y-55118000D03*
X117475000Y-55118000D03*
D13*
X115697000Y-77470000D03*
D14*
X113157000Y-77470000D03*
D15*
X121920000Y-64469000D03*
X121920000Y-61769000D03*
D11*
X124460000Y-71882000D03*
D12*
X124460000Y-64262000D03*
D15*
X121793000Y-57230000D03*
X121793000Y-54530000D03*
D16*
X137875000Y-76200000D03*
X135175000Y-76200000D03*
D11*
X139954000Y-73152000D03*
D12*
X132334000Y-73152000D03*
D15*
X119761000Y-74850000D03*
X119761000Y-77550000D03*
D11*
X130556000Y-76327000D03*
D12*
X122936000Y-76327000D03*
D17*
X139755000Y-87630000D03*
X135255000Y-87630000D03*
X139755000Y-81130000D03*
X135255000Y-81130000D03*
X129595000Y-87630000D03*
X125095000Y-87630000D03*
X129595000Y-81130000D03*
X125095000Y-81130000D03*
X119435000Y-87630000D03*
X114935000Y-87630000D03*
X119435000Y-81130000D03*
X114935000Y-81130000D03*
D13*
X104000000Y-55000000D03*
D14*
X104000000Y-57540000D03*
X104000000Y-60080000D03*
X104000000Y-62620000D03*
X104000000Y-65160000D03*
X104000000Y-67700000D03*
X104000000Y-70240000D03*
X104000000Y-72780000D03*
X104000000Y-75320000D03*
X104000000Y-77860000D03*
X104000000Y-80400000D03*
X104000000Y-82940000D03*
X104000000Y-85480000D03*
X104000000Y-88020000D03*
D17*
X131525000Y-69745000D03*
X136525000Y-69745000D03*
D18*
X128425000Y-62745000D03*
X139625000Y-62745000D03*
D17*
X131525000Y-55245000D03*
X134025000Y-55245000D03*
D19*
X136525000Y-55245000D03*
D20*
X99025000Y-49500000D03*
X142000000Y-93500000D03*
X99000000Y-93500000D03*
X142000000Y-49500000D03*
D21*
X109347000Y-75184000D03*
X107950000Y-79629000D03*
X107315000Y-76581000D03*
X107823000Y-62484000D03*
X112014000Y-63627000D03*
X100965000Y-61468000D03*
X136334500Y-53276500D03*
D22*
X109169200Y-81203800D02*
X109169200Y-82850800D01*
X109169200Y-82850800D02*
X104000000Y-88020000D01*
X130556000Y-76327000D02*
X130556000Y-77279500D01*
X135970000Y-78105000D02*
X137875000Y-76200000D01*
X131381500Y-78105000D02*
X135970000Y-78105000D01*
X130556000Y-77279500D02*
X131381500Y-78105000D01*
X137875000Y-76200000D02*
X137875000Y-75231000D01*
X137875000Y-75231000D02*
X139954000Y-73152000D01*
X121920000Y-64469000D02*
X122094000Y-64469000D01*
X122094000Y-64469000D02*
X124460000Y-62103000D01*
X121793000Y-57230000D02*
X121793000Y-57277000D01*
X121793000Y-57277000D02*
X123571000Y-59055000D01*
X123571000Y-59055000D02*
X123571000Y-61214000D01*
X123571000Y-61214000D02*
X124460000Y-62103000D01*
X124460000Y-62103000D02*
X124460000Y-62437000D01*
X114935000Y-70358000D02*
X114935000Y-70231000D01*
X114935000Y-70231000D02*
X116078000Y-69088000D01*
X121666000Y-69088000D02*
X124460000Y-71882000D01*
X116078000Y-69088000D02*
X121666000Y-69088000D01*
X124460000Y-71882000D02*
X126111000Y-71882000D01*
X126111000Y-71882000D02*
X130556000Y-76327000D01*
X119761000Y-74850000D02*
X121492000Y-74850000D01*
X121492000Y-74850000D02*
X124460000Y-71882000D01*
X109220000Y-81153000D02*
X109169200Y-81203800D01*
X109220000Y-75311000D02*
X109220000Y-81153000D01*
X109347000Y-75184000D02*
X109220000Y-75311000D01*
X103926640Y-70358000D02*
X103571040Y-70002400D01*
X117475000Y-70358000D02*
X117475000Y-71247000D01*
X108331000Y-79248000D02*
X107950000Y-79629000D01*
X108331000Y-74168000D02*
X108331000Y-79248000D01*
X109474000Y-72771000D02*
X108331000Y-74168000D01*
X115697000Y-72771000D02*
X109474000Y-72771000D01*
X117475000Y-71247000D02*
X115697000Y-72771000D01*
X114935000Y-67818000D02*
X108712000Y-67818000D01*
X107315000Y-69215000D02*
X107315000Y-76581000D01*
X108712000Y-67818000D02*
X107315000Y-69215000D01*
X114935000Y-67818000D02*
X114935000Y-68072000D01*
X119435000Y-81130000D02*
X119435000Y-87630000D01*
X136525000Y-69745000D02*
X140293500Y-69745000D01*
X120999500Y-78800000D02*
X119435000Y-81130000D01*
X138684000Y-78800000D02*
X120999500Y-78800000D01*
X141414500Y-76835000D02*
X138684000Y-78800000D01*
X141414500Y-70866000D02*
X141414500Y-76835000D01*
X140293500Y-69745000D02*
X141414500Y-70866000D01*
X132334000Y-73152000D02*
X133118000Y-73152000D01*
X133118000Y-73152000D02*
X136525000Y-69745000D01*
X132334000Y-73152000D02*
X132334000Y-73359000D01*
X132334000Y-73359000D02*
X135175000Y-76200000D01*
X117475000Y-67818000D02*
X134598000Y-67818000D01*
X134598000Y-67818000D02*
X136525000Y-69745000D01*
X112014000Y-62357000D02*
X114935000Y-65278000D01*
X107950000Y-62357000D02*
X112014000Y-62357000D01*
X107823000Y-62484000D02*
X107950000Y-62357000D01*
X114808000Y-65151000D02*
X114935000Y-65278000D01*
X103621840Y-82892900D02*
X105308400Y-82892900D01*
X107823000Y-63627000D02*
X112014000Y-63627000D01*
X106299000Y-65151000D02*
X107823000Y-63627000D01*
X106299000Y-81661000D02*
X106299000Y-65151000D01*
X105308400Y-82892900D02*
X106299000Y-81661000D01*
X104000000Y-65160000D02*
X104339500Y-65160000D01*
X104339500Y-65160000D02*
X105498900Y-66319400D01*
X102450900Y-71230900D02*
X104000000Y-72780000D01*
X102450900Y-69545200D02*
X102450900Y-71230900D01*
X103035100Y-68961000D02*
X102450900Y-69545200D01*
X104584500Y-68961000D02*
X103035100Y-68961000D01*
X105498900Y-68046600D02*
X104584500Y-68961000D01*
X105498900Y-66319400D02*
X105498900Y-68046600D01*
X104000000Y-65160000D02*
X104000000Y-64516300D01*
X104000000Y-64516300D02*
X107073700Y-61442600D01*
X107073700Y-61442600D02*
X116179600Y-61442600D01*
X116179600Y-61442600D02*
X117475000Y-62738000D01*
X117475000Y-62738000D02*
X117348000Y-62738000D01*
X117475000Y-62738000D02*
X117475000Y-62865000D01*
X102362000Y-75272900D02*
X103672640Y-75272900D01*
X100965000Y-73787000D02*
X102362000Y-75272900D01*
X100965000Y-61468000D02*
X100965000Y-73787000D01*
X114935000Y-60198000D02*
X103926640Y-60198000D01*
X103926640Y-60198000D02*
X103571040Y-59842400D01*
X103964740Y-67640200D02*
X102781100Y-67640200D01*
X101727000Y-59146440D02*
X103518021Y-57660232D01*
X101727000Y-66802000D02*
X101727000Y-59146440D01*
X102781100Y-67640200D02*
X101727000Y-66802000D01*
X103518021Y-57660232D02*
X105001381Y-57660232D01*
X116205000Y-58928000D02*
X117475000Y-60198000D01*
X106680000Y-58928000D02*
X116205000Y-58928000D01*
X105001381Y-57660232D02*
X106680000Y-58928000D01*
X139755000Y-81130000D02*
X139755000Y-87630000D01*
X136525000Y-55245000D02*
X137096500Y-55245000D01*
X137096500Y-55245000D02*
X142113000Y-60515500D01*
X142113000Y-78518000D02*
X139755000Y-81130000D01*
X142113000Y-60515500D02*
X142113000Y-78518000D01*
X124460000Y-54483000D02*
X124460000Y-54356000D01*
X124460000Y-54356000D02*
X125603000Y-53213000D01*
X134493000Y-53213000D02*
X136525000Y-55245000D01*
X125603000Y-53213000D02*
X134493000Y-53213000D01*
X121793000Y-54530000D02*
X124413000Y-54530000D01*
X124413000Y-54530000D02*
X124460000Y-54483000D01*
X114935000Y-57658000D02*
X114935000Y-57404000D01*
X114935000Y-57404000D02*
X116205000Y-56134000D01*
X116205000Y-56134000D02*
X116205000Y-54229000D01*
X116205000Y-54229000D02*
X117094000Y-53340000D01*
X117094000Y-53340000D02*
X120603000Y-53340000D01*
X120603000Y-53340000D02*
X121793000Y-54530000D01*
X142682250Y-81282250D02*
X142682250Y-87917750D01*
X131165000Y-89200000D02*
X129595000Y-87630000D01*
X141400000Y-89200000D02*
X131165000Y-89200000D01*
X142682250Y-87917750D02*
X141400000Y-89200000D01*
X129595000Y-81130000D02*
X129595000Y-87630000D01*
X142684500Y-81280000D02*
X142682250Y-81282250D01*
X142684500Y-58229500D02*
X142684500Y-81280000D01*
X137795000Y-53340000D02*
X142684500Y-58229500D01*
X136398000Y-53340000D02*
X137795000Y-53340000D01*
X136334500Y-53276500D02*
X136398000Y-53340000D01*
X121920000Y-61769000D02*
X121238000Y-61769000D01*
X125857000Y-66421000D02*
X126492000Y-65786000D01*
X120904000Y-66421000D02*
X125857000Y-66421000D01*
X120269000Y-65786000D02*
X120904000Y-66421000D01*
X120269000Y-62738000D02*
X120269000Y-65786000D01*
X121238000Y-61769000D02*
X120269000Y-62738000D01*
X117475000Y-57658000D02*
X117809000Y-57658000D01*
X117809000Y-57658000D02*
X121920000Y-61769000D01*
X121920000Y-61769000D02*
X121920000Y-61214000D01*
X124460000Y-64262000D02*
X124968000Y-64262000D01*
X124968000Y-64262000D02*
X125349000Y-64643000D01*
X125349000Y-64643000D02*
X126492000Y-65786000D01*
X131525000Y-64182000D02*
X131525000Y-55245000D01*
X126492000Y-65786000D02*
X129921000Y-65786000D01*
X129921000Y-65786000D02*
X131525000Y-64182000D01*
X121920000Y-61769000D02*
X121967000Y-61769000D01*
X123698000Y-64262000D02*
X124460000Y-64262000D01*
X117475000Y-57658000D02*
X117475000Y-58086000D01*
X119761000Y-77550000D02*
X121713000Y-77550000D01*
X121713000Y-77550000D02*
X122936000Y-76327000D01*
X115697000Y-77470000D02*
X116459000Y-77470000D01*
X116459000Y-77470000D02*
X117936000Y-77550000D01*
X117936000Y-77550000D02*
X119761000Y-77550000D01*
D23*
G36*
X140426182Y-47140160D02*
X139642910Y-47922066D01*
X139218484Y-48944198D01*
X139217518Y-50050946D01*
X139640160Y-51073818D01*
X140422066Y-51857090D01*
X141444198Y-52281516D01*
X142550946Y-52282482D01*
X143573818Y-51859840D01*
X144175000Y-51259706D01*
X144175000Y-91741019D01*
X143577934Y-91142910D01*
X142555802Y-90718484D01*
X141449054Y-90717518D01*
X140426182Y-91140160D01*
X139642910Y-91922066D01*
X139218484Y-92944198D01*
X139217518Y-94050946D01*
X139640160Y-95073818D01*
X140422066Y-95857090D01*
X141187679Y-96175000D01*
X99811072Y-96175000D01*
X100573818Y-95859840D01*
X101357090Y-95077934D01*
X101781516Y-94055802D01*
X101782482Y-92949054D01*
X101359840Y-91926182D01*
X100577934Y-91142910D01*
X99555802Y-90718484D01*
X98449054Y-90717518D01*
X97426182Y-91140160D01*
X96825000Y-91740294D01*
X96825000Y-61675942D01*
X99914818Y-61675942D01*
X100040000Y-61978905D01*
X100040000Y-73787000D01*
X100072477Y-73950275D01*
X100099907Y-74114474D01*
X100107583Y-74126767D01*
X100110411Y-74140982D01*
X100202903Y-74279407D01*
X100291077Y-74420603D01*
X101688077Y-75906503D01*
X101699873Y-75914922D01*
X101707926Y-75926974D01*
X101846346Y-76019464D01*
X101981845Y-76116172D01*
X101995966Y-76119436D01*
X102008018Y-76127489D01*
X102171288Y-76159965D01*
X102333489Y-76197461D01*
X102347786Y-76195073D01*
X102362000Y-76197900D01*
X102667919Y-76197900D01*
X102837283Y-76451371D01*
X103044756Y-76590000D01*
X102837283Y-76728629D01*
X102490447Y-77247707D01*
X102368654Y-77860000D01*
X102490447Y-78472293D01*
X102837283Y-78991371D01*
X103044756Y-79130000D01*
X102837283Y-79268629D01*
X102490447Y-79787707D01*
X102368654Y-80400000D01*
X102490447Y-81012293D01*
X102837283Y-81531371D01*
X103044756Y-81670000D01*
X102837283Y-81808629D01*
X102490447Y-82327707D01*
X102368654Y-82940000D01*
X102490447Y-83552293D01*
X102749998Y-83940739D01*
X102749998Y-84495466D01*
X102534759Y-84817631D01*
X102646664Y-85055000D01*
X103575000Y-85055000D01*
X103575000Y-84630000D01*
X104425000Y-84630000D01*
X104425000Y-85055000D01*
X104850000Y-85055000D01*
X104850000Y-85861852D01*
X104806852Y-85905000D01*
X104425000Y-85905000D01*
X104425000Y-86286852D01*
X104381852Y-86330000D01*
X103575000Y-86330000D01*
X103575000Y-85905000D01*
X102646664Y-85905000D01*
X102534759Y-86142369D01*
X102749998Y-86464534D01*
X102749998Y-87019261D01*
X102490447Y-87407707D01*
X102368654Y-88020000D01*
X102490447Y-88632293D01*
X102837283Y-89151371D01*
X103356361Y-89498207D01*
X103968654Y-89620000D01*
X104031346Y-89620000D01*
X104643639Y-89498207D01*
X105162717Y-89151371D01*
X105223466Y-89060452D01*
X114211655Y-89060452D01*
X114327759Y-89316448D01*
X115019358Y-89420455D01*
X115542241Y-89316448D01*
X115658345Y-89060452D01*
X114935000Y-88337107D01*
X114211655Y-89060452D01*
X105223466Y-89060452D01*
X105509553Y-88632293D01*
X105631346Y-88020000D01*
X105577724Y-87750424D01*
X105613790Y-87714358D01*
X113144545Y-87714358D01*
X113248552Y-88237241D01*
X113504548Y-88353345D01*
X114227893Y-87630000D01*
X115642107Y-87630000D01*
X116365452Y-88353345D01*
X116621448Y-88237241D01*
X116725455Y-87545642D01*
X116621448Y-87022759D01*
X116365452Y-86906655D01*
X115642107Y-87630000D01*
X114227893Y-87630000D01*
X113504548Y-86906655D01*
X113248552Y-87022759D01*
X113144545Y-87714358D01*
X105613790Y-87714358D01*
X107128600Y-86199548D01*
X114211655Y-86199548D01*
X114935000Y-86922893D01*
X115658345Y-86199548D01*
X115542241Y-85943552D01*
X114850642Y-85839545D01*
X114327759Y-85943552D01*
X114211655Y-86199548D01*
X107128600Y-86199548D01*
X109823274Y-83504874D01*
X110023789Y-83204782D01*
X110094201Y-82850800D01*
X110094200Y-82850795D01*
X110094200Y-82560452D01*
X114211655Y-82560452D01*
X114327759Y-82816448D01*
X115019358Y-82920455D01*
X115542241Y-82816448D01*
X115658345Y-82560452D01*
X114935000Y-81837107D01*
X114211655Y-82560452D01*
X110094200Y-82560452D01*
X110094200Y-81408391D01*
X110132795Y-81214358D01*
X113144545Y-81214358D01*
X113248552Y-81737241D01*
X113504548Y-81853345D01*
X114227893Y-81130000D01*
X115642107Y-81130000D01*
X116365452Y-81853345D01*
X116621448Y-81737241D01*
X116725455Y-81045642D01*
X116621448Y-80522759D01*
X116365452Y-80406655D01*
X115642107Y-81130000D01*
X114227893Y-81130000D01*
X113504548Y-80406655D01*
X113248552Y-80522759D01*
X113144545Y-81214358D01*
X110132795Y-81214358D01*
X110145000Y-81153000D01*
X110145000Y-79699548D01*
X114211655Y-79699548D01*
X114935000Y-80422893D01*
X115658345Y-79699548D01*
X115542241Y-79443552D01*
X114850642Y-79339545D01*
X114327759Y-79443552D01*
X114211655Y-79699548D01*
X110145000Y-79699548D01*
X110145000Y-75871022D01*
X110236628Y-75779554D01*
X110396818Y-75393774D01*
X110397182Y-74976058D01*
X110237666Y-74590000D01*
X109942554Y-74294372D01*
X109556774Y-74134182D01*
X109553828Y-74134179D01*
X109912338Y-73696000D01*
X115697000Y-73696000D01*
X115839814Y-73667593D01*
X115984396Y-73650221D01*
X116015728Y-73632601D01*
X116050982Y-73625589D01*
X116172061Y-73544687D01*
X116298982Y-73473312D01*
X118076982Y-71949313D01*
X118099186Y-71921044D01*
X118129074Y-71901074D01*
X118209974Y-71779998D01*
X118217941Y-71769856D01*
X118637717Y-71489371D01*
X118984553Y-70970293D01*
X119106346Y-70358000D01*
X119037721Y-70013000D01*
X121282852Y-70013000D01*
X122910211Y-71640359D01*
X122909789Y-72124063D01*
X121137394Y-73896458D01*
X121123396Y-73822067D01*
X120959138Y-73566802D01*
X120708508Y-73395554D01*
X120411000Y-73335307D01*
X119111000Y-73335307D01*
X118833067Y-73387604D01*
X118577802Y-73551862D01*
X118406554Y-73802492D01*
X118346307Y-74100000D01*
X118346307Y-75600000D01*
X118398604Y-75877933D01*
X118562862Y-76133198D01*
X118659548Y-76199260D01*
X118577802Y-76251862D01*
X118406554Y-76502492D01*
X118381745Y-76625000D01*
X117961030Y-76625000D01*
X117305958Y-76589519D01*
X117259396Y-76342067D01*
X117095138Y-76086802D01*
X116844508Y-75915554D01*
X116547000Y-75855307D01*
X114847000Y-75855307D01*
X114569067Y-75907604D01*
X114313802Y-76071862D01*
X114195394Y-76245158D01*
X113769293Y-75960447D01*
X113157000Y-75838654D01*
X112544707Y-75960447D01*
X112025629Y-76307283D01*
X111678793Y-76826361D01*
X111557000Y-77438654D01*
X111557000Y-77501346D01*
X111678793Y-78113639D01*
X112025629Y-78632717D01*
X112544707Y-78979553D01*
X113157000Y-79101346D01*
X113769293Y-78979553D01*
X114196491Y-78694109D01*
X114298862Y-78853198D01*
X114549492Y-79024446D01*
X114847000Y-79084693D01*
X116547000Y-79084693D01*
X116824933Y-79032396D01*
X117080198Y-78868138D01*
X117251446Y-78617508D01*
X117287147Y-78441211D01*
X117885972Y-78473646D01*
X117911101Y-78470047D01*
X117936000Y-78475000D01*
X118379236Y-78475000D01*
X118398604Y-78577933D01*
X118562862Y-78833198D01*
X118813492Y-79004446D01*
X119111000Y-79064693D01*
X119707592Y-79064693D01*
X119495842Y-79380052D01*
X119088431Y-79379696D01*
X118444999Y-79645557D01*
X117952287Y-80137410D01*
X117685304Y-80780376D01*
X117684696Y-81476569D01*
X117950557Y-82120001D01*
X118442410Y-82612713D01*
X118510000Y-82640779D01*
X118510000Y-86118699D01*
X118444999Y-86145557D01*
X117952287Y-86637410D01*
X117685304Y-87280376D01*
X117684696Y-87976569D01*
X117950557Y-88620001D01*
X118442410Y-89112713D01*
X119085376Y-89379696D01*
X119781569Y-89380304D01*
X120425001Y-89114443D01*
X120479086Y-89060452D01*
X124371655Y-89060452D01*
X124487759Y-89316448D01*
X125179358Y-89420455D01*
X125702241Y-89316448D01*
X125818345Y-89060452D01*
X125095000Y-88337107D01*
X124371655Y-89060452D01*
X120479086Y-89060452D01*
X120917713Y-88622590D01*
X121184696Y-87979624D01*
X121184927Y-87714358D01*
X123304545Y-87714358D01*
X123408552Y-88237241D01*
X123664548Y-88353345D01*
X124387893Y-87630000D01*
X125802107Y-87630000D01*
X126525452Y-88353345D01*
X126781448Y-88237241D01*
X126885455Y-87545642D01*
X126781448Y-87022759D01*
X126525452Y-86906655D01*
X125802107Y-87630000D01*
X124387893Y-87630000D01*
X123664548Y-86906655D01*
X123408552Y-87022759D01*
X123304545Y-87714358D01*
X121184927Y-87714358D01*
X121185304Y-87283431D01*
X120919443Y-86639999D01*
X120479760Y-86199548D01*
X124371655Y-86199548D01*
X125095000Y-86922893D01*
X125818345Y-86199548D01*
X125702241Y-85943552D01*
X125010642Y-85839545D01*
X124487759Y-85943552D01*
X124371655Y-86199548D01*
X120479760Y-86199548D01*
X120427590Y-86147287D01*
X120360000Y-86119221D01*
X120360000Y-82641301D01*
X120425001Y-82614443D01*
X120479086Y-82560452D01*
X124371655Y-82560452D01*
X124487759Y-82816448D01*
X125179358Y-82920455D01*
X125702241Y-82816448D01*
X125818345Y-82560452D01*
X125095000Y-81837107D01*
X124371655Y-82560452D01*
X120479086Y-82560452D01*
X120917713Y-82122590D01*
X121184696Y-81479624D01*
X121184927Y-81214358D01*
X123304545Y-81214358D01*
X123408552Y-81737241D01*
X123664548Y-81853345D01*
X124387893Y-81130000D01*
X125802107Y-81130000D01*
X126525452Y-81853345D01*
X126781448Y-81737241D01*
X126885455Y-81045642D01*
X126781448Y-80522759D01*
X126525452Y-80406655D01*
X125802107Y-81130000D01*
X124387893Y-81130000D01*
X123664548Y-80406655D01*
X123408552Y-80522759D01*
X123304545Y-81214358D01*
X121184927Y-81214358D01*
X121185304Y-80783431D01*
X121031623Y-80411496D01*
X121492577Y-79725000D01*
X124397107Y-79725000D01*
X125095000Y-80422893D01*
X125792893Y-79725000D01*
X128525417Y-79725000D01*
X128112287Y-80137410D01*
X127845304Y-80780376D01*
X127844696Y-81476569D01*
X128110557Y-82120001D01*
X128602410Y-82612713D01*
X128670000Y-82640779D01*
X128670000Y-86118699D01*
X128604999Y-86145557D01*
X128112287Y-86637410D01*
X127845304Y-87280376D01*
X127844696Y-87976569D01*
X128110557Y-88620001D01*
X128602410Y-89112713D01*
X129245376Y-89379696D01*
X129941569Y-89380304D01*
X130009208Y-89352356D01*
X130510926Y-89854074D01*
X130811017Y-90054589D01*
X131165000Y-90125000D01*
X141400000Y-90125000D01*
X141753983Y-90054589D01*
X142054074Y-89854074D01*
X143336324Y-88571824D01*
X143536839Y-88271733D01*
X143607250Y-87917750D01*
X143607250Y-81291312D01*
X143609500Y-81280000D01*
X143609500Y-58229500D01*
X143578452Y-58073411D01*
X143539089Y-57875517D01*
X143338574Y-57575426D01*
X138449074Y-52685926D01*
X138148983Y-52485411D01*
X137795000Y-52415000D01*
X136958133Y-52415000D01*
X136930054Y-52386872D01*
X136544274Y-52226682D01*
X136126558Y-52226318D01*
X135740500Y-52385834D01*
X135444872Y-52680946D01*
X135393298Y-52805150D01*
X135147074Y-52558926D01*
X134846983Y-52358411D01*
X134493000Y-52288000D01*
X125603000Y-52288000D01*
X125249017Y-52358411D01*
X124948926Y-52558926D01*
X124581125Y-52926727D01*
X124460000Y-52902634D01*
X123866841Y-53020621D01*
X123363984Y-53356618D01*
X123198021Y-53605000D01*
X123174764Y-53605000D01*
X123155396Y-53502067D01*
X122991138Y-53246802D01*
X122740508Y-53075554D01*
X122443000Y-53015307D01*
X121586455Y-53015307D01*
X121257074Y-52685926D01*
X120956983Y-52485411D01*
X120603000Y-52415000D01*
X117094000Y-52415000D01*
X116740017Y-52485411D01*
X116439926Y-52685926D01*
X115550926Y-53574926D01*
X115515919Y-53627317D01*
X114966346Y-53518000D01*
X114903654Y-53518000D01*
X114291361Y-53639793D01*
X113772283Y-53986629D01*
X113425447Y-54505707D01*
X113303654Y-55118000D01*
X113425447Y-55730293D01*
X113772283Y-56249371D01*
X113979756Y-56388000D01*
X113772283Y-56526629D01*
X113425447Y-57045707D01*
X113303654Y-57658000D01*
X113372279Y-58003000D01*
X106990056Y-58003000D01*
X105558855Y-56922094D01*
X105480470Y-56884181D01*
X105224109Y-56500509D01*
X105383198Y-56398138D01*
X105554446Y-56147508D01*
X105614693Y-55850000D01*
X105614693Y-54150000D01*
X105562396Y-53872067D01*
X105398138Y-53616802D01*
X105147508Y-53445554D01*
X104850000Y-53385307D01*
X103150000Y-53385307D01*
X102872067Y-53437604D01*
X102616802Y-53601862D01*
X102445554Y-53852492D01*
X102385307Y-54150000D01*
X102385307Y-55850000D01*
X102437604Y-56127933D01*
X102601862Y-56383198D01*
X102775158Y-56501606D01*
X102490447Y-56927707D01*
X102399150Y-57386686D01*
X101136311Y-58434604D01*
X101108985Y-58468272D01*
X101072926Y-58492366D01*
X100996057Y-58607408D01*
X100908866Y-58714835D01*
X100896503Y-58756402D01*
X100872411Y-58792458D01*
X100845419Y-58928158D01*
X100805975Y-59060776D01*
X100810460Y-59103909D01*
X100802000Y-59146440D01*
X100802000Y-60417857D01*
X100757058Y-60417818D01*
X100371000Y-60577334D01*
X100075372Y-60872446D01*
X99915182Y-61258226D01*
X99914818Y-61675942D01*
X96825000Y-61675942D01*
X96825000Y-51233937D01*
X97447066Y-51857090D01*
X98469198Y-52281516D01*
X99575946Y-52282482D01*
X100598818Y-51859840D01*
X101382090Y-51077934D01*
X101806516Y-50055802D01*
X101807482Y-48949054D01*
X101384840Y-47926182D01*
X100602934Y-47142910D01*
X99837321Y-46825000D01*
X141188928Y-46825000D01*
X140426182Y-47140160D01*
X140426182Y-47140160D01*
G37*
X140426182Y-47140160D02*
X139642910Y-47922066D01*
X139218484Y-48944198D01*
X139217518Y-50050946D01*
X139640160Y-51073818D01*
X140422066Y-51857090D01*
X141444198Y-52281516D01*
X142550946Y-52282482D01*
X143573818Y-51859840D01*
X144175000Y-51259706D01*
X144175000Y-91741019D01*
X143577934Y-91142910D01*
X142555802Y-90718484D01*
X141449054Y-90717518D01*
X140426182Y-91140160D01*
X139642910Y-91922066D01*
X139218484Y-92944198D01*
X139217518Y-94050946D01*
X139640160Y-95073818D01*
X140422066Y-95857090D01*
X141187679Y-96175000D01*
X99811072Y-96175000D01*
X100573818Y-95859840D01*
X101357090Y-95077934D01*
X101781516Y-94055802D01*
X101782482Y-92949054D01*
X101359840Y-91926182D01*
X100577934Y-91142910D01*
X99555802Y-90718484D01*
X98449054Y-90717518D01*
X97426182Y-91140160D01*
X96825000Y-91740294D01*
X96825000Y-61675942D01*
X99914818Y-61675942D01*
X100040000Y-61978905D01*
X100040000Y-73787000D01*
X100072477Y-73950275D01*
X100099907Y-74114474D01*
X100107583Y-74126767D01*
X100110411Y-74140982D01*
X100202903Y-74279407D01*
X100291077Y-74420603D01*
X101688077Y-75906503D01*
X101699873Y-75914922D01*
X101707926Y-75926974D01*
X101846346Y-76019464D01*
X101981845Y-76116172D01*
X101995966Y-76119436D01*
X102008018Y-76127489D01*
X102171288Y-76159965D01*
X102333489Y-76197461D01*
X102347786Y-76195073D01*
X102362000Y-76197900D01*
X102667919Y-76197900D01*
X102837283Y-76451371D01*
X103044756Y-76590000D01*
X102837283Y-76728629D01*
X102490447Y-77247707D01*
X102368654Y-77860000D01*
X102490447Y-78472293D01*
X102837283Y-78991371D01*
X103044756Y-79130000D01*
X102837283Y-79268629D01*
X102490447Y-79787707D01*
X102368654Y-80400000D01*
X102490447Y-81012293D01*
X102837283Y-81531371D01*
X103044756Y-81670000D01*
X102837283Y-81808629D01*
X102490447Y-82327707D01*
X102368654Y-82940000D01*
X102490447Y-83552293D01*
X102749998Y-83940739D01*
X102749998Y-84495466D01*
X102534759Y-84817631D01*
X102646664Y-85055000D01*
X103575000Y-85055000D01*
X103575000Y-84630000D01*
X104425000Y-84630000D01*
X104425000Y-85055000D01*
X104850000Y-85055000D01*
X104850000Y-85861852D01*
X104806852Y-85905000D01*
X104425000Y-85905000D01*
X104425000Y-86286852D01*
X104381852Y-86330000D01*
X103575000Y-86330000D01*
X103575000Y-85905000D01*
X102646664Y-85905000D01*
X102534759Y-86142369D01*
X102749998Y-86464534D01*
X102749998Y-87019261D01*
X102490447Y-87407707D01*
X102368654Y-88020000D01*
X102490447Y-88632293D01*
X102837283Y-89151371D01*
X103356361Y-89498207D01*
X103968654Y-89620000D01*
X104031346Y-89620000D01*
X104643639Y-89498207D01*
X105162717Y-89151371D01*
X105223466Y-89060452D01*
X114211655Y-89060452D01*
X114327759Y-89316448D01*
X115019358Y-89420455D01*
X115542241Y-89316448D01*
X115658345Y-89060452D01*
X114935000Y-88337107D01*
X114211655Y-89060452D01*
X105223466Y-89060452D01*
X105509553Y-88632293D01*
X105631346Y-88020000D01*
X105577724Y-87750424D01*
X105613790Y-87714358D01*
X113144545Y-87714358D01*
X113248552Y-88237241D01*
X113504548Y-88353345D01*
X114227893Y-87630000D01*
X115642107Y-87630000D01*
X116365452Y-88353345D01*
X116621448Y-88237241D01*
X116725455Y-87545642D01*
X116621448Y-87022759D01*
X116365452Y-86906655D01*
X115642107Y-87630000D01*
X114227893Y-87630000D01*
X113504548Y-86906655D01*
X113248552Y-87022759D01*
X113144545Y-87714358D01*
X105613790Y-87714358D01*
X107128600Y-86199548D01*
X114211655Y-86199548D01*
X114935000Y-86922893D01*
X115658345Y-86199548D01*
X115542241Y-85943552D01*
X114850642Y-85839545D01*
X114327759Y-85943552D01*
X114211655Y-86199548D01*
X107128600Y-86199548D01*
X109823274Y-83504874D01*
X110023789Y-83204782D01*
X110094201Y-82850800D01*
X110094200Y-82850795D01*
X110094200Y-82560452D01*
X114211655Y-82560452D01*
X114327759Y-82816448D01*
X115019358Y-82920455D01*
X115542241Y-82816448D01*
X115658345Y-82560452D01*
X114935000Y-81837107D01*
X114211655Y-82560452D01*
X110094200Y-82560452D01*
X110094200Y-81408391D01*
X110132795Y-81214358D01*
X113144545Y-81214358D01*
X113248552Y-81737241D01*
X113504548Y-81853345D01*
X114227893Y-81130000D01*
X115642107Y-81130000D01*
X116365452Y-81853345D01*
X116621448Y-81737241D01*
X116725455Y-81045642D01*
X116621448Y-80522759D01*
X116365452Y-80406655D01*
X115642107Y-81130000D01*
X114227893Y-81130000D01*
X113504548Y-80406655D01*
X113248552Y-80522759D01*
X113144545Y-81214358D01*
X110132795Y-81214358D01*
X110145000Y-81153000D01*
X110145000Y-79699548D01*
X114211655Y-79699548D01*
X114935000Y-80422893D01*
X115658345Y-79699548D01*
X115542241Y-79443552D01*
X114850642Y-79339545D01*
X114327759Y-79443552D01*
X114211655Y-79699548D01*
X110145000Y-79699548D01*
X110145000Y-75871022D01*
X110236628Y-75779554D01*
X110396818Y-75393774D01*
X110397182Y-74976058D01*
X110237666Y-74590000D01*
X109942554Y-74294372D01*
X109556774Y-74134182D01*
X109553828Y-74134179D01*
X109912338Y-73696000D01*
X115697000Y-73696000D01*
X115839814Y-73667593D01*
X115984396Y-73650221D01*
X116015728Y-73632601D01*
X116050982Y-73625589D01*
X116172061Y-73544687D01*
X116298982Y-73473312D01*
X118076982Y-71949313D01*
X118099186Y-71921044D01*
X118129074Y-71901074D01*
X118209974Y-71779998D01*
X118217941Y-71769856D01*
X118637717Y-71489371D01*
X118984553Y-70970293D01*
X119106346Y-70358000D01*
X119037721Y-70013000D01*
X121282852Y-70013000D01*
X122910211Y-71640359D01*
X122909789Y-72124063D01*
X121137394Y-73896458D01*
X121123396Y-73822067D01*
X120959138Y-73566802D01*
X120708508Y-73395554D01*
X120411000Y-73335307D01*
X119111000Y-73335307D01*
X118833067Y-73387604D01*
X118577802Y-73551862D01*
X118406554Y-73802492D01*
X118346307Y-74100000D01*
X118346307Y-75600000D01*
X118398604Y-75877933D01*
X118562862Y-76133198D01*
X118659548Y-76199260D01*
X118577802Y-76251862D01*
X118406554Y-76502492D01*
X118381745Y-76625000D01*
X117961030Y-76625000D01*
X117305958Y-76589519D01*
X117259396Y-76342067D01*
X117095138Y-76086802D01*
X116844508Y-75915554D01*
X116547000Y-75855307D01*
X114847000Y-75855307D01*
X114569067Y-75907604D01*
X114313802Y-76071862D01*
X114195394Y-76245158D01*
X113769293Y-75960447D01*
X113157000Y-75838654D01*
X112544707Y-75960447D01*
X112025629Y-76307283D01*
X111678793Y-76826361D01*
X111557000Y-77438654D01*
X111557000Y-77501346D01*
X111678793Y-78113639D01*
X112025629Y-78632717D01*
X112544707Y-78979553D01*
X113157000Y-79101346D01*
X113769293Y-78979553D01*
X114196491Y-78694109D01*
X114298862Y-78853198D01*
X114549492Y-79024446D01*
X114847000Y-79084693D01*
X116547000Y-79084693D01*
X116824933Y-79032396D01*
X117080198Y-78868138D01*
X117251446Y-78617508D01*
X117287147Y-78441211D01*
X117885972Y-78473646D01*
X117911101Y-78470047D01*
X117936000Y-78475000D01*
X118379236Y-78475000D01*
X118398604Y-78577933D01*
X118562862Y-78833198D01*
X118813492Y-79004446D01*
X119111000Y-79064693D01*
X119707592Y-79064693D01*
X119495842Y-79380052D01*
X119088431Y-79379696D01*
X118444999Y-79645557D01*
X117952287Y-80137410D01*
X117685304Y-80780376D01*
X117684696Y-81476569D01*
X117950557Y-82120001D01*
X118442410Y-82612713D01*
X118510000Y-82640779D01*
X118510000Y-86118699D01*
X118444999Y-86145557D01*
X117952287Y-86637410D01*
X117685304Y-87280376D01*
X117684696Y-87976569D01*
X117950557Y-88620001D01*
X118442410Y-89112713D01*
X119085376Y-89379696D01*
X119781569Y-89380304D01*
X120425001Y-89114443D01*
X120479086Y-89060452D01*
X124371655Y-89060452D01*
X124487759Y-89316448D01*
X125179358Y-89420455D01*
X125702241Y-89316448D01*
X125818345Y-89060452D01*
X125095000Y-88337107D01*
X124371655Y-89060452D01*
X120479086Y-89060452D01*
X120917713Y-88622590D01*
X121184696Y-87979624D01*
X121184927Y-87714358D01*
X123304545Y-87714358D01*
X123408552Y-88237241D01*
X123664548Y-88353345D01*
X124387893Y-87630000D01*
X125802107Y-87630000D01*
X126525452Y-88353345D01*
X126781448Y-88237241D01*
X126885455Y-87545642D01*
X126781448Y-87022759D01*
X126525452Y-86906655D01*
X125802107Y-87630000D01*
X124387893Y-87630000D01*
X123664548Y-86906655D01*
X123408552Y-87022759D01*
X123304545Y-87714358D01*
X121184927Y-87714358D01*
X121185304Y-87283431D01*
X120919443Y-86639999D01*
X120479760Y-86199548D01*
X124371655Y-86199548D01*
X125095000Y-86922893D01*
X125818345Y-86199548D01*
X125702241Y-85943552D01*
X125010642Y-85839545D01*
X124487759Y-85943552D01*
X124371655Y-86199548D01*
X120479760Y-86199548D01*
X120427590Y-86147287D01*
X120360000Y-86119221D01*
X120360000Y-82641301D01*
X120425001Y-82614443D01*
X120479086Y-82560452D01*
X124371655Y-82560452D01*
X124487759Y-82816448D01*
X125179358Y-82920455D01*
X125702241Y-82816448D01*
X125818345Y-82560452D01*
X125095000Y-81837107D01*
X124371655Y-82560452D01*
X120479086Y-82560452D01*
X120917713Y-82122590D01*
X121184696Y-81479624D01*
X121184927Y-81214358D01*
X123304545Y-81214358D01*
X123408552Y-81737241D01*
X123664548Y-81853345D01*
X124387893Y-81130000D01*
X125802107Y-81130000D01*
X126525452Y-81853345D01*
X126781448Y-81737241D01*
X126885455Y-81045642D01*
X126781448Y-80522759D01*
X126525452Y-80406655D01*
X125802107Y-81130000D01*
X124387893Y-81130000D01*
X123664548Y-80406655D01*
X123408552Y-80522759D01*
X123304545Y-81214358D01*
X121184927Y-81214358D01*
X121185304Y-80783431D01*
X121031623Y-80411496D01*
X121492577Y-79725000D01*
X124397107Y-79725000D01*
X125095000Y-80422893D01*
X125792893Y-79725000D01*
X128525417Y-79725000D01*
X128112287Y-80137410D01*
X127845304Y-80780376D01*
X127844696Y-81476569D01*
X128110557Y-82120001D01*
X128602410Y-82612713D01*
X128670000Y-82640779D01*
X128670000Y-86118699D01*
X128604999Y-86145557D01*
X128112287Y-86637410D01*
X127845304Y-87280376D01*
X127844696Y-87976569D01*
X128110557Y-88620001D01*
X128602410Y-89112713D01*
X129245376Y-89379696D01*
X129941569Y-89380304D01*
X130009208Y-89352356D01*
X130510926Y-89854074D01*
X130811017Y-90054589D01*
X131165000Y-90125000D01*
X141400000Y-90125000D01*
X141753983Y-90054589D01*
X142054074Y-89854074D01*
X143336324Y-88571824D01*
X143536839Y-88271733D01*
X143607250Y-87917750D01*
X143607250Y-81291312D01*
X143609500Y-81280000D01*
X143609500Y-58229500D01*
X143578452Y-58073411D01*
X143539089Y-57875517D01*
X143338574Y-57575426D01*
X138449074Y-52685926D01*
X138148983Y-52485411D01*
X137795000Y-52415000D01*
X136958133Y-52415000D01*
X136930054Y-52386872D01*
X136544274Y-52226682D01*
X136126558Y-52226318D01*
X135740500Y-52385834D01*
X135444872Y-52680946D01*
X135393298Y-52805150D01*
X135147074Y-52558926D01*
X134846983Y-52358411D01*
X134493000Y-52288000D01*
X125603000Y-52288000D01*
X125249017Y-52358411D01*
X124948926Y-52558926D01*
X124581125Y-52926727D01*
X124460000Y-52902634D01*
X123866841Y-53020621D01*
X123363984Y-53356618D01*
X123198021Y-53605000D01*
X123174764Y-53605000D01*
X123155396Y-53502067D01*
X122991138Y-53246802D01*
X122740508Y-53075554D01*
X122443000Y-53015307D01*
X121586455Y-53015307D01*
X121257074Y-52685926D01*
X120956983Y-52485411D01*
X120603000Y-52415000D01*
X117094000Y-52415000D01*
X116740017Y-52485411D01*
X116439926Y-52685926D01*
X115550926Y-53574926D01*
X115515919Y-53627317D01*
X114966346Y-53518000D01*
X114903654Y-53518000D01*
X114291361Y-53639793D01*
X113772283Y-53986629D01*
X113425447Y-54505707D01*
X113303654Y-55118000D01*
X113425447Y-55730293D01*
X113772283Y-56249371D01*
X113979756Y-56388000D01*
X113772283Y-56526629D01*
X113425447Y-57045707D01*
X113303654Y-57658000D01*
X113372279Y-58003000D01*
X106990056Y-58003000D01*
X105558855Y-56922094D01*
X105480470Y-56884181D01*
X105224109Y-56500509D01*
X105383198Y-56398138D01*
X105554446Y-56147508D01*
X105614693Y-55850000D01*
X105614693Y-54150000D01*
X105562396Y-53872067D01*
X105398138Y-53616802D01*
X105147508Y-53445554D01*
X104850000Y-53385307D01*
X103150000Y-53385307D01*
X102872067Y-53437604D01*
X102616802Y-53601862D01*
X102445554Y-53852492D01*
X102385307Y-54150000D01*
X102385307Y-55850000D01*
X102437604Y-56127933D01*
X102601862Y-56383198D01*
X102775158Y-56501606D01*
X102490447Y-56927707D01*
X102399150Y-57386686D01*
X101136311Y-58434604D01*
X101108985Y-58468272D01*
X101072926Y-58492366D01*
X100996057Y-58607408D01*
X100908866Y-58714835D01*
X100896503Y-58756402D01*
X100872411Y-58792458D01*
X100845419Y-58928158D01*
X100805975Y-59060776D01*
X100810460Y-59103909D01*
X100802000Y-59146440D01*
X100802000Y-60417857D01*
X100757058Y-60417818D01*
X100371000Y-60577334D01*
X100075372Y-60872446D01*
X99915182Y-61258226D01*
X99914818Y-61675942D01*
X96825000Y-61675942D01*
X96825000Y-51233937D01*
X97447066Y-51857090D01*
X98469198Y-52281516D01*
X99575946Y-52282482D01*
X100598818Y-51859840D01*
X101382090Y-51077934D01*
X101806516Y-50055802D01*
X101807482Y-48949054D01*
X101384840Y-47926182D01*
X100602934Y-47142910D01*
X99837321Y-46825000D01*
X141188928Y-46825000D01*
X140426182Y-47140160D01*
G36*
X138272287Y-80137410D02*
X138005304Y-80780376D01*
X138004696Y-81476569D01*
X138270557Y-82120001D01*
X138762410Y-82612713D01*
X138830000Y-82640779D01*
X138830000Y-86118699D01*
X138764999Y-86145557D01*
X138272287Y-86637410D01*
X138005304Y-87280376D01*
X138004696Y-87976569D01*
X138128005Y-88275000D01*
X137137968Y-88275000D01*
X137402869Y-88010099D01*
X137031462Y-87638692D01*
X137045455Y-87545642D01*
X136941448Y-87022759D01*
X136685452Y-86906655D01*
X135962107Y-87630000D01*
X136315661Y-87983554D01*
X136024214Y-88275000D01*
X134485786Y-88275000D01*
X134194340Y-87983554D01*
X134547893Y-87630000D01*
X133824548Y-86906655D01*
X133568552Y-87022759D01*
X133475461Y-87641769D01*
X133107131Y-88010099D01*
X133372032Y-88275000D01*
X131548148Y-88275000D01*
X131317725Y-88044577D01*
X131344696Y-87979624D01*
X131345304Y-87283431D01*
X131079443Y-86639999D01*
X130639760Y-86199548D01*
X134531655Y-86199548D01*
X135255000Y-86922893D01*
X135978345Y-86199548D01*
X135862241Y-85943552D01*
X135170642Y-85839545D01*
X134647759Y-85943552D01*
X134531655Y-86199548D01*
X130639760Y-86199548D01*
X130587590Y-86147287D01*
X130520000Y-86119221D01*
X130520000Y-82641301D01*
X130585001Y-82614443D01*
X130639086Y-82560452D01*
X134531655Y-82560452D01*
X134647759Y-82816448D01*
X135339358Y-82920455D01*
X135862241Y-82816448D01*
X135978345Y-82560452D01*
X135255000Y-81837107D01*
X134531655Y-82560452D01*
X130639086Y-82560452D01*
X131077713Y-82122590D01*
X131344696Y-81479624D01*
X131344927Y-81214358D01*
X133464545Y-81214358D01*
X133568552Y-81737241D01*
X133824548Y-81853345D01*
X134547893Y-81130000D01*
X135962107Y-81130000D01*
X136685452Y-81853345D01*
X136941448Y-81737241D01*
X137045455Y-81045642D01*
X136941448Y-80522759D01*
X136685452Y-80406655D01*
X135962107Y-81130000D01*
X134547893Y-81130000D01*
X133824548Y-80406655D01*
X133568552Y-80522759D01*
X133464545Y-81214358D01*
X131344927Y-81214358D01*
X131345304Y-80783431D01*
X131079443Y-80139999D01*
X130665168Y-79725000D01*
X134557107Y-79725000D01*
X135255000Y-80422893D01*
X135952893Y-79725000D01*
X138684000Y-79725000D01*
X138685770Y-79724648D01*
X138272287Y-80137410D01*
X138272287Y-80137410D01*
G37*
X138272287Y-80137410D02*
X138005304Y-80780376D01*
X138004696Y-81476569D01*
X138270557Y-82120001D01*
X138762410Y-82612713D01*
X138830000Y-82640779D01*
X138830000Y-86118699D01*
X138764999Y-86145557D01*
X138272287Y-86637410D01*
X138005304Y-87280376D01*
X138004696Y-87976569D01*
X138128005Y-88275000D01*
X137137968Y-88275000D01*
X137402869Y-88010099D01*
X137031462Y-87638692D01*
X137045455Y-87545642D01*
X136941448Y-87022759D01*
X136685452Y-86906655D01*
X135962107Y-87630000D01*
X136315661Y-87983554D01*
X136024214Y-88275000D01*
X134485786Y-88275000D01*
X134194340Y-87983554D01*
X134547893Y-87630000D01*
X133824548Y-86906655D01*
X133568552Y-87022759D01*
X133475461Y-87641769D01*
X133107131Y-88010099D01*
X133372032Y-88275000D01*
X131548148Y-88275000D01*
X131317725Y-88044577D01*
X131344696Y-87979624D01*
X131345304Y-87283431D01*
X131079443Y-86639999D01*
X130639760Y-86199548D01*
X134531655Y-86199548D01*
X135255000Y-86922893D01*
X135978345Y-86199548D01*
X135862241Y-85943552D01*
X135170642Y-85839545D01*
X134647759Y-85943552D01*
X134531655Y-86199548D01*
X130639760Y-86199548D01*
X130587590Y-86147287D01*
X130520000Y-86119221D01*
X130520000Y-82641301D01*
X130585001Y-82614443D01*
X130639086Y-82560452D01*
X134531655Y-82560452D01*
X134647759Y-82816448D01*
X135339358Y-82920455D01*
X135862241Y-82816448D01*
X135978345Y-82560452D01*
X135255000Y-81837107D01*
X134531655Y-82560452D01*
X130639086Y-82560452D01*
X131077713Y-82122590D01*
X131344696Y-81479624D01*
X131344927Y-81214358D01*
X133464545Y-81214358D01*
X133568552Y-81737241D01*
X133824548Y-81853345D01*
X134547893Y-81130000D01*
X135962107Y-81130000D01*
X136685452Y-81853345D01*
X136941448Y-81737241D01*
X137045455Y-81045642D01*
X136941448Y-80522759D01*
X136685452Y-80406655D01*
X135962107Y-81130000D01*
X134547893Y-81130000D01*
X133824548Y-80406655D01*
X133568552Y-80522759D01*
X133464545Y-81214358D01*
X131344927Y-81214358D01*
X131345304Y-80783431D01*
X131079443Y-80139999D01*
X130665168Y-79725000D01*
X134557107Y-79725000D01*
X135255000Y-80422893D01*
X135952893Y-79725000D01*
X138684000Y-79725000D01*
X138685770Y-79724648D01*
X138272287Y-80137410D01*
G36*
X129377131Y-69364901D02*
X129748538Y-69736308D01*
X129734545Y-69829358D01*
X129838552Y-70352241D01*
X130094548Y-70468345D01*
X130817893Y-69745000D01*
X130464340Y-69391447D01*
X131112786Y-68743000D01*
X131230107Y-68743000D01*
X131525000Y-69037893D01*
X131819893Y-68743000D01*
X131937214Y-68743000D01*
X132585661Y-69391447D01*
X132232107Y-69745000D01*
X132955452Y-70468345D01*
X133211448Y-70352241D01*
X133304539Y-69733231D01*
X133672869Y-69364901D01*
X133050968Y-68743000D01*
X134214852Y-68743000D01*
X134802275Y-69330423D01*
X134775304Y-69395376D01*
X134774696Y-70091569D01*
X134802644Y-70159209D01*
X133127975Y-71833877D01*
X132957525Y-71719987D01*
X132364366Y-71602000D01*
X132303634Y-71602000D01*
X131710475Y-71719987D01*
X131207618Y-72055984D01*
X130871621Y-72558841D01*
X130753634Y-73152000D01*
X130871621Y-73745159D01*
X131207618Y-74248016D01*
X131710475Y-74584013D01*
X132303634Y-74702000D01*
X132364366Y-74702000D01*
X132368108Y-74701256D01*
X133660307Y-75993455D01*
X133660307Y-76850000D01*
X133712604Y-77127933D01*
X133746108Y-77180000D01*
X131880119Y-77180000D01*
X132105730Y-76636667D01*
X132106268Y-76020039D01*
X131870792Y-75450143D01*
X131435151Y-75013740D01*
X130865667Y-74777270D01*
X130313937Y-74776789D01*
X126765074Y-71227926D01*
X126686542Y-71175452D01*
X130801655Y-71175452D01*
X130917759Y-71431448D01*
X131609358Y-71535455D01*
X132132241Y-71431448D01*
X132248345Y-71175452D01*
X131525000Y-70452107D01*
X130801655Y-71175452D01*
X126686542Y-71175452D01*
X126464983Y-71027411D01*
X126111000Y-70957000D01*
X125726733Y-70957000D01*
X125339151Y-70568740D01*
X124769667Y-70332270D01*
X124217937Y-70331789D01*
X122629148Y-68743000D01*
X129999032Y-68743000D01*
X129377131Y-69364901D01*
X129377131Y-69364901D01*
G37*
X129377131Y-69364901D02*
X129748538Y-69736308D01*
X129734545Y-69829358D01*
X129838552Y-70352241D01*
X130094548Y-70468345D01*
X130817893Y-69745000D01*
X130464340Y-69391447D01*
X131112786Y-68743000D01*
X131230107Y-68743000D01*
X131525000Y-69037893D01*
X131819893Y-68743000D01*
X131937214Y-68743000D01*
X132585661Y-69391447D01*
X132232107Y-69745000D01*
X132955452Y-70468345D01*
X133211448Y-70352241D01*
X133304539Y-69733231D01*
X133672869Y-69364901D01*
X133050968Y-68743000D01*
X134214852Y-68743000D01*
X134802275Y-69330423D01*
X134775304Y-69395376D01*
X134774696Y-70091569D01*
X134802644Y-70159209D01*
X133127975Y-71833877D01*
X132957525Y-71719987D01*
X132364366Y-71602000D01*
X132303634Y-71602000D01*
X131710475Y-71719987D01*
X131207618Y-72055984D01*
X130871621Y-72558841D01*
X130753634Y-73152000D01*
X130871621Y-73745159D01*
X131207618Y-74248016D01*
X131710475Y-74584013D01*
X132303634Y-74702000D01*
X132364366Y-74702000D01*
X132368108Y-74701256D01*
X133660307Y-75993455D01*
X133660307Y-76850000D01*
X133712604Y-77127933D01*
X133746108Y-77180000D01*
X131880119Y-77180000D01*
X132105730Y-76636667D01*
X132106268Y-76020039D01*
X131870792Y-75450143D01*
X131435151Y-75013740D01*
X130865667Y-74777270D01*
X130313937Y-74776789D01*
X126765074Y-71227926D01*
X126686542Y-71175452D01*
X130801655Y-71175452D01*
X130917759Y-71431448D01*
X131609358Y-71535455D01*
X132132241Y-71431448D01*
X132248345Y-71175452D01*
X131525000Y-70452107D01*
X130801655Y-71175452D01*
X126686542Y-71175452D01*
X126464983Y-71027411D01*
X126111000Y-70957000D01*
X125726733Y-70957000D01*
X125339151Y-70568740D01*
X124769667Y-70332270D01*
X124217937Y-70331789D01*
X122629148Y-68743000D01*
X129999032Y-68743000D01*
X129377131Y-69364901D01*
G36*
X134025000Y-54537893D02*
X134267373Y-54295521D01*
X134760307Y-54788455D01*
X134760307Y-55216800D01*
X134732107Y-55245000D01*
X134760307Y-55273200D01*
X134760307Y-55923907D01*
X134378554Y-56305661D01*
X134025000Y-55952107D01*
X133301655Y-56675452D01*
X133417759Y-56931448D01*
X134036769Y-57024539D01*
X134405099Y-57392869D01*
X135002353Y-56795615D01*
X135227492Y-56949446D01*
X135525000Y-57009693D01*
X137499132Y-57009693D01*
X140726960Y-60400954D01*
X140625000Y-60380307D01*
X138625000Y-60380307D01*
X138347067Y-60432604D01*
X138091802Y-60596862D01*
X137920554Y-60847492D01*
X137860307Y-61145000D01*
X137860307Y-64345000D01*
X137912604Y-64622933D01*
X138076862Y-64878198D01*
X138327492Y-65049446D01*
X138625000Y-65109693D01*
X140625000Y-65109693D01*
X140902933Y-65057396D01*
X141158198Y-64893138D01*
X141188000Y-64849521D01*
X141188000Y-69331352D01*
X140947574Y-69090926D01*
X140647483Y-68890411D01*
X140293500Y-68820000D01*
X138036301Y-68820000D01*
X138009443Y-68754999D01*
X137517590Y-68262287D01*
X136874624Y-67995304D01*
X136178431Y-67994696D01*
X136110792Y-68022644D01*
X135252074Y-67163926D01*
X134951983Y-66963411D01*
X134598000Y-66893000D01*
X126693148Y-66893000D01*
X126875147Y-66711000D01*
X129921000Y-66711000D01*
X130274983Y-66640589D01*
X130575074Y-66440074D01*
X132179071Y-64836076D01*
X132179074Y-64836074D01*
X132379589Y-64535982D01*
X132383504Y-64516300D01*
X132450001Y-64182000D01*
X132450000Y-64181995D01*
X132450000Y-56756301D01*
X132515001Y-56729443D01*
X133007713Y-56237590D01*
X133274696Y-55594624D01*
X133274964Y-55287929D01*
X133317893Y-55245000D01*
X133275039Y-55202146D01*
X133275304Y-54898431D01*
X133182341Y-54673445D01*
X133671447Y-54184340D01*
X134025000Y-54537893D01*
X134025000Y-54537893D01*
G37*
X134025000Y-54537893D02*
X134267373Y-54295521D01*
X134760307Y-54788455D01*
X134760307Y-55216800D01*
X134732107Y-55245000D01*
X134760307Y-55273200D01*
X134760307Y-55923907D01*
X134378554Y-56305661D01*
X134025000Y-55952107D01*
X133301655Y-56675452D01*
X133417759Y-56931448D01*
X134036769Y-57024539D01*
X134405099Y-57392869D01*
X135002353Y-56795615D01*
X135227492Y-56949446D01*
X135525000Y-57009693D01*
X137499132Y-57009693D01*
X140726960Y-60400954D01*
X140625000Y-60380307D01*
X138625000Y-60380307D01*
X138347067Y-60432604D01*
X138091802Y-60596862D01*
X137920554Y-60847492D01*
X137860307Y-61145000D01*
X137860307Y-64345000D01*
X137912604Y-64622933D01*
X138076862Y-64878198D01*
X138327492Y-65049446D01*
X138625000Y-65109693D01*
X140625000Y-65109693D01*
X140902933Y-65057396D01*
X141158198Y-64893138D01*
X141188000Y-64849521D01*
X141188000Y-69331352D01*
X140947574Y-69090926D01*
X140647483Y-68890411D01*
X140293500Y-68820000D01*
X138036301Y-68820000D01*
X138009443Y-68754999D01*
X137517590Y-68262287D01*
X136874624Y-67995304D01*
X136178431Y-67994696D01*
X136110792Y-68022644D01*
X135252074Y-67163926D01*
X134951983Y-66963411D01*
X134598000Y-66893000D01*
X126693148Y-66893000D01*
X126875147Y-66711000D01*
X129921000Y-66711000D01*
X130274983Y-66640589D01*
X130575074Y-66440074D01*
X132179071Y-64836076D01*
X132179074Y-64836074D01*
X132379589Y-64535982D01*
X132383504Y-64516300D01*
X132450001Y-64182000D01*
X132450000Y-64181995D01*
X132450000Y-56756301D01*
X132515001Y-56729443D01*
X133007713Y-56237590D01*
X133274696Y-55594624D01*
X133274964Y-55287929D01*
X133317893Y-55245000D01*
X133275039Y-55202146D01*
X133275304Y-54898431D01*
X133182341Y-54673445D01*
X133671447Y-54184340D01*
X134025000Y-54537893D01*
G36*
X120270852Y-61428000D02*
X119614926Y-62083926D01*
X119414411Y-62384017D01*
X119366758Y-62623589D01*
X119344000Y-62738000D01*
X119344000Y-65786000D01*
X119414411Y-66139983D01*
X119614926Y-66440074D01*
X120067853Y-66893000D01*
X118775609Y-66893000D01*
X118725002Y-66817261D01*
X118725002Y-66262534D01*
X118940241Y-65940369D01*
X118828336Y-65703000D01*
X117900000Y-65703000D01*
X117900000Y-66128000D01*
X117050000Y-66128000D01*
X117050000Y-65703000D01*
X116625000Y-65703000D01*
X116625000Y-64853000D01*
X117050000Y-64853000D01*
X117050000Y-64428000D01*
X117900000Y-64428000D01*
X117900000Y-64853000D01*
X118828336Y-64853000D01*
X118940241Y-64615631D01*
X118725002Y-64293466D01*
X118725002Y-63738739D01*
X118984553Y-63350293D01*
X119106346Y-62738000D01*
X118984553Y-62125707D01*
X118637717Y-61606629D01*
X118430244Y-61468000D01*
X118637717Y-61329371D01*
X118984553Y-60810293D01*
X119095480Y-60252628D01*
X120270852Y-61428000D01*
X120270852Y-61428000D01*
G37*
X120270852Y-61428000D02*
X119614926Y-62083926D01*
X119414411Y-62384017D01*
X119366758Y-62623589D01*
X119344000Y-62738000D01*
X119344000Y-65786000D01*
X119414411Y-66139983D01*
X119614926Y-66440074D01*
X120067853Y-66893000D01*
X118775609Y-66893000D01*
X118725002Y-66817261D01*
X118725002Y-66262534D01*
X118940241Y-65940369D01*
X118828336Y-65703000D01*
X117900000Y-65703000D01*
X117900000Y-66128000D01*
X117050000Y-66128000D01*
X117050000Y-65703000D01*
X116625000Y-65703000D01*
X116625000Y-64853000D01*
X117050000Y-64853000D01*
X117050000Y-64428000D01*
X117900000Y-64428000D01*
X117900000Y-64853000D01*
X118828336Y-64853000D01*
X118940241Y-64615631D01*
X118725002Y-64293466D01*
X118725002Y-63738739D01*
X118984553Y-63350293D01*
X119106346Y-62738000D01*
X118984553Y-62125707D01*
X118637717Y-61606629D01*
X118430244Y-61468000D01*
X118637717Y-61329371D01*
X118984553Y-60810293D01*
X119095480Y-60252628D01*
X120270852Y-61428000D01*
M02*
