G04 #@! TF.FileFunction,Legend,Bot*
%FSLAX46Y46*%
G04 Gerber Fmt 4.6, Leading zero omitted, Abs format (unit mm)*
G04 Created by KiCad (PCBNEW 4.0.7) date 10/23/19 08:49:17*
%MOMM*%
%LPD*%
G01*
G04 APERTURE LIST*
%ADD10C,0.100000*%
%ADD11C,0.150000*%
%ADD12C,0.300000*%
%ADD13C,0.120000*%
G04 APERTURE END LIST*
D10*
D11*
X146760181Y-67674457D02*
X147760181Y-68007790D01*
X146760181Y-68341124D01*
X147760181Y-68674457D02*
X146760181Y-68674457D01*
X147760181Y-69245886D01*
X146760181Y-69245886D01*
X147474467Y-69674457D02*
X147474467Y-70150648D01*
X147760181Y-69579219D02*
X146760181Y-69912552D01*
X147760181Y-70245886D01*
X147760181Y-71817315D02*
X147760181Y-71341124D01*
X146760181Y-71341124D01*
X147664943Y-72722077D02*
X147712562Y-72674458D01*
X147760181Y-72531601D01*
X147760181Y-72436363D01*
X147712562Y-72293505D01*
X147617324Y-72198267D01*
X147522086Y-72150648D01*
X147331610Y-72103029D01*
X147188752Y-72103029D01*
X146998276Y-72150648D01*
X146903038Y-72198267D01*
X146807800Y-72293505D01*
X146760181Y-72436363D01*
X146760181Y-72531601D01*
X146807800Y-72674458D01*
X146855419Y-72722077D01*
X147760181Y-73150648D02*
X146760181Y-73150648D01*
X146760181Y-73388743D01*
X146807800Y-73531601D01*
X146903038Y-73626839D01*
X146998276Y-73674458D01*
X147188752Y-73722077D01*
X147331610Y-73722077D01*
X147522086Y-73674458D01*
X147617324Y-73626839D01*
X147712562Y-73531601D01*
X147760181Y-73388743D01*
X147760181Y-73150648D01*
X147760181Y-74912553D02*
X146760181Y-74912553D01*
X147760181Y-75388743D02*
X146760181Y-75388743D01*
X147760181Y-75960172D01*
X146760181Y-75960172D01*
X146760181Y-76293505D02*
X146760181Y-76864934D01*
X147760181Y-76579219D02*
X146760181Y-76579219D01*
X147236371Y-77198267D02*
X147236371Y-77531601D01*
X147760181Y-77674458D02*
X147760181Y-77198267D01*
X146760181Y-77198267D01*
X146760181Y-77674458D01*
X147760181Y-78674458D02*
X147283990Y-78341124D01*
X147760181Y-78103029D02*
X146760181Y-78103029D01*
X146760181Y-78483982D01*
X146807800Y-78579220D01*
X146855419Y-78626839D01*
X146950657Y-78674458D01*
X147093514Y-78674458D01*
X147188752Y-78626839D01*
X147236371Y-78579220D01*
X147283990Y-78483982D01*
X147283990Y-78103029D01*
X147236371Y-79436363D02*
X147236371Y-79103029D01*
X147760181Y-79103029D02*
X146760181Y-79103029D01*
X146760181Y-79579220D01*
X147474467Y-79912553D02*
X147474467Y-80388744D01*
X147760181Y-79817315D02*
X146760181Y-80150648D01*
X147760181Y-80483982D01*
X147664943Y-81388744D02*
X147712562Y-81341125D01*
X147760181Y-81198268D01*
X147760181Y-81103030D01*
X147712562Y-80960172D01*
X147617324Y-80864934D01*
X147522086Y-80817315D01*
X147331610Y-80769696D01*
X147188752Y-80769696D01*
X146998276Y-80817315D01*
X146903038Y-80864934D01*
X146807800Y-80960172D01*
X146760181Y-81103030D01*
X146760181Y-81198268D01*
X146807800Y-81341125D01*
X146855419Y-81388744D01*
X147236371Y-81817315D02*
X147236371Y-82150649D01*
X147760181Y-82293506D02*
X147760181Y-81817315D01*
X146760181Y-81817315D01*
X146760181Y-82293506D01*
X149410181Y-67079219D02*
X148410181Y-67079219D01*
X149410181Y-67650648D02*
X148838752Y-67222076D01*
X148410181Y-67650648D02*
X148981610Y-67079219D01*
X148410181Y-67983981D02*
X149410181Y-68222076D01*
X148695895Y-68412553D01*
X149410181Y-68603029D01*
X148410181Y-68841124D01*
X148743514Y-69650648D02*
X149410181Y-69650648D01*
X148362562Y-69412552D02*
X149076848Y-69174457D01*
X149076848Y-69793505D01*
X148410181Y-70031600D02*
X148410181Y-70603029D01*
X149410181Y-70317314D02*
X148410181Y-70317314D01*
X149410181Y-70936362D02*
X148410181Y-70936362D01*
X149314943Y-72745886D02*
X149362562Y-72698267D01*
X149410181Y-72555410D01*
X149410181Y-72460172D01*
X149362562Y-72317314D01*
X149267324Y-72222076D01*
X149172086Y-72174457D01*
X148981610Y-72126838D01*
X148838752Y-72126838D01*
X148648276Y-72174457D01*
X148553038Y-72222076D01*
X148457800Y-72317314D01*
X148410181Y-72460172D01*
X148410181Y-72555410D01*
X148457800Y-72698267D01*
X148505419Y-72745886D01*
X149314943Y-73745886D02*
X149362562Y-73698267D01*
X149410181Y-73555410D01*
X149410181Y-73460172D01*
X149362562Y-73317314D01*
X149267324Y-73222076D01*
X149172086Y-73174457D01*
X148981610Y-73126838D01*
X148838752Y-73126838D01*
X148648276Y-73174457D01*
X148553038Y-73222076D01*
X148457800Y-73317314D01*
X148410181Y-73460172D01*
X148410181Y-73555410D01*
X148457800Y-73698267D01*
X148505419Y-73745886D01*
X149029229Y-74174457D02*
X149029229Y-74936362D01*
X148886371Y-75745886D02*
X148933990Y-75888743D01*
X148981610Y-75936362D01*
X149076848Y-75983981D01*
X149219705Y-75983981D01*
X149314943Y-75936362D01*
X149362562Y-75888743D01*
X149410181Y-75793505D01*
X149410181Y-75412552D01*
X148410181Y-75412552D01*
X148410181Y-75745886D01*
X148457800Y-75841124D01*
X148505419Y-75888743D01*
X148600657Y-75936362D01*
X148695895Y-75936362D01*
X148791133Y-75888743D01*
X148838752Y-75841124D01*
X148886371Y-75745886D01*
X148886371Y-75412552D01*
X148933990Y-76603028D02*
X149410181Y-76603028D01*
X148410181Y-76269695D02*
X148933990Y-76603028D01*
X148410181Y-76936362D01*
X149029229Y-77269695D02*
X149029229Y-78031600D01*
X149362562Y-78460171D02*
X149410181Y-78603028D01*
X149410181Y-78841124D01*
X149362562Y-78936362D01*
X149314943Y-78983981D01*
X149219705Y-79031600D01*
X149124467Y-79031600D01*
X149029229Y-78983981D01*
X148981610Y-78936362D01*
X148933990Y-78841124D01*
X148886371Y-78650647D01*
X148838752Y-78555409D01*
X148791133Y-78507790D01*
X148695895Y-78460171D01*
X148600657Y-78460171D01*
X148505419Y-78507790D01*
X148457800Y-78555409D01*
X148410181Y-78650647D01*
X148410181Y-78888743D01*
X148457800Y-79031600D01*
X149124467Y-79412552D02*
X149124467Y-79888743D01*
X149410181Y-79317314D02*
X148410181Y-79650647D01*
X149410181Y-79983981D01*
X148743514Y-81507791D02*
X149410181Y-81507791D01*
X148362562Y-81269695D02*
X149076848Y-81031600D01*
X149076848Y-81650648D01*
X149314943Y-82031600D02*
X149362562Y-82079219D01*
X149410181Y-82031600D01*
X149362562Y-81983981D01*
X149314943Y-82031600D01*
X149410181Y-82031600D01*
X148410181Y-82698266D02*
X148410181Y-82793505D01*
X148457800Y-82888743D01*
X148505419Y-82936362D01*
X148600657Y-82983981D01*
X148791133Y-83031600D01*
X149029229Y-83031600D01*
X149219705Y-82983981D01*
X149314943Y-82936362D01*
X149362562Y-82888743D01*
X149410181Y-82793505D01*
X149410181Y-82698266D01*
X149362562Y-82603028D01*
X149314943Y-82555409D01*
X149219705Y-82507790D01*
X149029229Y-82460171D01*
X148791133Y-82460171D01*
X148600657Y-82507790D01*
X148505419Y-82555409D01*
X148457800Y-82603028D01*
X148410181Y-82698266D01*
D12*
X113571428Y-71178571D02*
X114428571Y-71178571D01*
X113999999Y-71178571D02*
X113999999Y-69678571D01*
X114142856Y-69892857D01*
X114285714Y-70035714D01*
X114428571Y-70107143D01*
D13*
X128615000Y-61388700D02*
X128945000Y-61388700D01*
X128945000Y-61388700D02*
X128945000Y-54968700D01*
X128945000Y-54968700D02*
X128615000Y-54968700D01*
X126655000Y-61388700D02*
X126325000Y-61388700D01*
X126325000Y-61388700D02*
X126325000Y-54968700D01*
X126325000Y-54968700D02*
X126655000Y-54968700D01*
X116691100Y-53699100D02*
X121891100Y-53699100D01*
X116691100Y-68999100D02*
X116691100Y-53699100D01*
X121891100Y-71599100D02*
X121891100Y-53699100D01*
X116691100Y-68999100D02*
X119291100Y-68999100D01*
X119291100Y-68999100D02*
X119291100Y-71599100D01*
X119291100Y-71599100D02*
X121891100Y-71599100D01*
X116691100Y-70269100D02*
X116691100Y-71599100D01*
X116691100Y-71599100D02*
X118021100Y-71599100D01*
X111700000Y-76514000D02*
X111700000Y-73854000D01*
X114300000Y-76514000D02*
X111700000Y-76514000D01*
X114300000Y-73854000D02*
X111700000Y-73854000D01*
X114300000Y-76514000D02*
X114300000Y-73854000D01*
X115570000Y-76514000D02*
X116900000Y-76514000D01*
X116900000Y-76514000D02*
X116900000Y-75184000D01*
X124202300Y-62455500D02*
X124202300Y-63655500D01*
X125962300Y-63655500D02*
X125962300Y-62455500D01*
X128615000Y-71205800D02*
X128945000Y-71205800D01*
X128945000Y-71205800D02*
X128945000Y-64785800D01*
X128945000Y-64785800D02*
X128615000Y-64785800D01*
X126655000Y-71205800D02*
X126325000Y-71205800D01*
X126325000Y-71205800D02*
X126325000Y-64785800D01*
X126325000Y-64785800D02*
X126655000Y-64785800D01*
X124151500Y-55000600D02*
X124151500Y-56200600D01*
X125911500Y-56200600D02*
X125911500Y-55000600D01*
X135925000Y-77080000D02*
X137125000Y-77080000D01*
X137125000Y-75320000D02*
X135925000Y-75320000D01*
X139354000Y-72172000D02*
X139354000Y-71842000D01*
X139354000Y-71842000D02*
X132934000Y-71842000D01*
X132934000Y-71842000D02*
X132934000Y-72172000D01*
X139354000Y-74132000D02*
X139354000Y-74462000D01*
X139354000Y-74462000D02*
X132934000Y-74462000D01*
X132934000Y-74462000D02*
X132934000Y-74132000D01*
X120641000Y-76800000D02*
X120641000Y-75600000D01*
X118881000Y-75600000D02*
X118881000Y-76800000D01*
X129956000Y-75347000D02*
X129956000Y-75017000D01*
X129956000Y-75017000D02*
X123536000Y-75017000D01*
X123536000Y-75017000D02*
X123536000Y-75347000D01*
X129956000Y-77307000D02*
X129956000Y-77637000D01*
X129956000Y-77637000D02*
X123536000Y-77637000D01*
X123536000Y-77637000D02*
X123536000Y-77307000D01*
X105330000Y-89350000D02*
X102670000Y-89350000D01*
X105330000Y-56270000D02*
X105330000Y-89350000D01*
X102670000Y-56270000D02*
X102670000Y-89350000D01*
X105330000Y-56270000D02*
X102670000Y-56270000D01*
X105330000Y-55000000D02*
X105330000Y-53670000D01*
X105330000Y-53670000D02*
X104000000Y-53670000D01*
X113286000Y-55500000D02*
G75*
G03X113286000Y-55500000I-2286000J0D01*
G01*
X150286000Y-87500000D02*
G75*
G03X150286000Y-87500000I-2286000J0D01*
G01*
X113286000Y-87500000D02*
G75*
G03X113286000Y-87500000I-2286000J0D01*
G01*
X150286000Y-55500000D02*
G75*
G03X150286000Y-55500000I-2286000J0D01*
G01*
X144692000Y-69524500D02*
X144692000Y-68524500D01*
X146392000Y-68524500D02*
X146392000Y-69524500D01*
X144232000Y-63222500D02*
X149352000Y-63222500D01*
X144232000Y-60602500D02*
X149352000Y-60602500D01*
X144232000Y-63222500D02*
X144232000Y-60602500D01*
X149352000Y-63222500D02*
X149352000Y-60602500D01*
X146341200Y-73414000D02*
X146341200Y-74414000D01*
X144641200Y-74414000D02*
X144641200Y-73414000D01*
X149392000Y-63460000D02*
X144272000Y-63460000D01*
X149392000Y-66080000D02*
X144272000Y-66080000D01*
X149392000Y-63460000D02*
X149392000Y-66080000D01*
X144272000Y-63460000D02*
X144272000Y-66080000D01*
X113444400Y-80430000D02*
X114444400Y-80430000D01*
X114444400Y-82130000D02*
X113444400Y-82130000D01*
X116880000Y-77074400D02*
X111760000Y-77074400D01*
X116880000Y-79694400D02*
X111760000Y-79694400D01*
X116880000Y-77074400D02*
X116880000Y-79694400D01*
X111760000Y-77074400D02*
X111760000Y-79694400D01*
D11*
X128168661Y-58291434D02*
X127692470Y-57958100D01*
X128168661Y-57720005D02*
X127168661Y-57720005D01*
X127168661Y-58100958D01*
X127216280Y-58196196D01*
X127263899Y-58243815D01*
X127359137Y-58291434D01*
X127501994Y-58291434D01*
X127597232Y-58243815D01*
X127644851Y-58196196D01*
X127692470Y-58100958D01*
X127692470Y-57720005D01*
X127501994Y-59148577D02*
X128168661Y-59148577D01*
X127121042Y-58910481D02*
X127835328Y-58672386D01*
X127835328Y-59291434D01*
X119333333Y-52452381D02*
X119333333Y-53166667D01*
X119380953Y-53309524D01*
X119476191Y-53404762D01*
X119619048Y-53452381D01*
X119714286Y-53452381D01*
X118333333Y-53452381D02*
X118904762Y-53452381D01*
X118619048Y-53452381D02*
X118619048Y-52452381D01*
X118714286Y-52595238D01*
X118809524Y-52690476D01*
X118904762Y-52738095D01*
X110094781Y-74452267D02*
X110809067Y-74452267D01*
X110951924Y-74404647D01*
X111047162Y-74309409D01*
X111094781Y-74166552D01*
X111094781Y-74071314D01*
X111094781Y-74928457D02*
X110094781Y-74928457D01*
X110094781Y-75309410D01*
X110142400Y-75404648D01*
X110190019Y-75452267D01*
X110285257Y-75499886D01*
X110428114Y-75499886D01*
X110523352Y-75452267D01*
X110570971Y-75404648D01*
X110618590Y-75309410D01*
X110618590Y-74928457D01*
X111094781Y-76452267D02*
X111094781Y-75880838D01*
X111094781Y-76166552D02*
X110094781Y-76166552D01*
X110237638Y-76071314D01*
X110332876Y-75976076D01*
X110380495Y-75880838D01*
X125121966Y-60459881D02*
X125455300Y-59983690D01*
X125693395Y-60459881D02*
X125693395Y-59459881D01*
X125312442Y-59459881D01*
X125217204Y-59507500D01*
X125169585Y-59555119D01*
X125121966Y-59650357D01*
X125121966Y-59793214D01*
X125169585Y-59888452D01*
X125217204Y-59936071D01*
X125312442Y-59983690D01*
X125693395Y-59983690D01*
X124169585Y-60459881D02*
X124741014Y-60459881D01*
X124455300Y-60459881D02*
X124455300Y-59459881D01*
X124550538Y-59602738D01*
X124645776Y-59697976D01*
X124741014Y-59745595D01*
X128046741Y-67986614D02*
X127570550Y-67653280D01*
X128046741Y-67415185D02*
X127046741Y-67415185D01*
X127046741Y-67796138D01*
X127094360Y-67891376D01*
X127141979Y-67938995D01*
X127237217Y-67986614D01*
X127380074Y-67986614D01*
X127475312Y-67938995D01*
X127522931Y-67891376D01*
X127570550Y-67796138D01*
X127570550Y-67415185D01*
X127141979Y-68367566D02*
X127094360Y-68415185D01*
X127046741Y-68510423D01*
X127046741Y-68748519D01*
X127094360Y-68843757D01*
X127141979Y-68891376D01*
X127237217Y-68938995D01*
X127332455Y-68938995D01*
X127475312Y-68891376D01*
X128046741Y-68319947D01*
X128046741Y-68938995D01*
X125405166Y-53172981D02*
X125738500Y-52696790D01*
X125976595Y-53172981D02*
X125976595Y-52172981D01*
X125595642Y-52172981D01*
X125500404Y-52220600D01*
X125452785Y-52268219D01*
X125405166Y-52363457D01*
X125405166Y-52506314D01*
X125452785Y-52601552D01*
X125500404Y-52649171D01*
X125595642Y-52696790D01*
X125976595Y-52696790D01*
X125071833Y-52172981D02*
X124452785Y-52172981D01*
X124786119Y-52553933D01*
X124643261Y-52553933D01*
X124548023Y-52601552D01*
X124500404Y-52649171D01*
X124452785Y-52744410D01*
X124452785Y-52982505D01*
X124500404Y-53077743D01*
X124548023Y-53125362D01*
X124643261Y-53172981D01*
X124928976Y-53172981D01*
X125024214Y-53125362D01*
X125071833Y-53077743D01*
X140501666Y-76652381D02*
X140835000Y-76176190D01*
X141073095Y-76652381D02*
X141073095Y-75652381D01*
X140692142Y-75652381D01*
X140596904Y-75700000D01*
X140549285Y-75747619D01*
X140501666Y-75842857D01*
X140501666Y-75985714D01*
X140549285Y-76080952D01*
X140596904Y-76128571D01*
X140692142Y-76176190D01*
X141073095Y-76176190D01*
X139596904Y-75652381D02*
X140073095Y-75652381D01*
X140120714Y-76128571D01*
X140073095Y-76080952D01*
X139977857Y-76033333D01*
X139739761Y-76033333D01*
X139644523Y-76080952D01*
X139596904Y-76128571D01*
X139549285Y-76223810D01*
X139549285Y-76461905D01*
X139596904Y-76557143D01*
X139644523Y-76604762D01*
X139739761Y-76652381D01*
X139977857Y-76652381D01*
X140073095Y-76604762D01*
X140120714Y-76557143D01*
X136366546Y-73599301D02*
X136699880Y-73123110D01*
X136937975Y-73599301D02*
X136937975Y-72599301D01*
X136557022Y-72599301D01*
X136461784Y-72646920D01*
X136414165Y-72694539D01*
X136366546Y-72789777D01*
X136366546Y-72932634D01*
X136414165Y-73027872D01*
X136461784Y-73075491D01*
X136557022Y-73123110D01*
X136937975Y-73123110D01*
X135509403Y-72599301D02*
X135699880Y-72599301D01*
X135795118Y-72646920D01*
X135842737Y-72694539D01*
X135937975Y-72837396D01*
X135985594Y-73027872D01*
X135985594Y-73408825D01*
X135937975Y-73504063D01*
X135890356Y-73551682D01*
X135795118Y-73599301D01*
X135604641Y-73599301D01*
X135509403Y-73551682D01*
X135461784Y-73504063D01*
X135414165Y-73408825D01*
X135414165Y-73170730D01*
X135461784Y-73075491D01*
X135509403Y-73027872D01*
X135604641Y-72980253D01*
X135795118Y-72980253D01*
X135890356Y-73027872D01*
X135937975Y-73075491D01*
X135985594Y-73170730D01*
X119766666Y-73652381D02*
X120100000Y-73176190D01*
X120338095Y-73652381D02*
X120338095Y-72652381D01*
X119957142Y-72652381D01*
X119861904Y-72700000D01*
X119814285Y-72747619D01*
X119766666Y-72842857D01*
X119766666Y-72985714D01*
X119814285Y-73080952D01*
X119861904Y-73128571D01*
X119957142Y-73176190D01*
X120338095Y-73176190D01*
X119433333Y-72652381D02*
X118766666Y-72652381D01*
X119195238Y-73652381D01*
X127039666Y-76891141D02*
X127373000Y-76414950D01*
X127611095Y-76891141D02*
X127611095Y-75891141D01*
X127230142Y-75891141D01*
X127134904Y-75938760D01*
X127087285Y-75986379D01*
X127039666Y-76081617D01*
X127039666Y-76224474D01*
X127087285Y-76319712D01*
X127134904Y-76367331D01*
X127230142Y-76414950D01*
X127611095Y-76414950D01*
X126468238Y-76319712D02*
X126563476Y-76272093D01*
X126611095Y-76224474D01*
X126658714Y-76129236D01*
X126658714Y-76081617D01*
X126611095Y-75986379D01*
X126563476Y-75938760D01*
X126468238Y-75891141D01*
X126277761Y-75891141D01*
X126182523Y-75938760D01*
X126134904Y-75986379D01*
X126087285Y-76081617D01*
X126087285Y-76129236D01*
X126134904Y-76224474D01*
X126182523Y-76272093D01*
X126277761Y-76319712D01*
X126468238Y-76319712D01*
X126563476Y-76367331D01*
X126611095Y-76414950D01*
X126658714Y-76510189D01*
X126658714Y-76700665D01*
X126611095Y-76795903D01*
X126563476Y-76843522D01*
X126468238Y-76891141D01*
X126277761Y-76891141D01*
X126182523Y-76843522D01*
X126134904Y-76795903D01*
X126087285Y-76700665D01*
X126087285Y-76510189D01*
X126134904Y-76414950D01*
X126182523Y-76367331D01*
X126277761Y-76319712D01*
X105952381Y-53122381D02*
X105952381Y-52122381D01*
X105714286Y-52122381D01*
X105571428Y-52170000D01*
X105476190Y-52265238D01*
X105428571Y-52360476D01*
X105380952Y-52550952D01*
X105380952Y-52693810D01*
X105428571Y-52884286D01*
X105476190Y-52979524D01*
X105571428Y-53074762D01*
X105714286Y-53122381D01*
X105952381Y-53122381D01*
X104952381Y-53122381D02*
X104952381Y-52122381D01*
X104523810Y-53074762D02*
X104380953Y-53122381D01*
X104142857Y-53122381D01*
X104047619Y-53074762D01*
X104000000Y-53027143D01*
X103952381Y-52931905D01*
X103952381Y-52836667D01*
X104000000Y-52741429D01*
X104047619Y-52693810D01*
X104142857Y-52646190D01*
X104333334Y-52598571D01*
X104428572Y-52550952D01*
X104476191Y-52503333D01*
X104523810Y-52408095D01*
X104523810Y-52312857D01*
X104476191Y-52217619D01*
X104428572Y-52170000D01*
X104333334Y-52122381D01*
X104095238Y-52122381D01*
X103952381Y-52170000D01*
X103523810Y-53122381D02*
X103523810Y-52122381D01*
X103142857Y-52122381D01*
X103047619Y-52170000D01*
X103000000Y-52217619D01*
X102952381Y-52312857D01*
X102952381Y-52455714D01*
X103000000Y-52550952D01*
X103047619Y-52598571D01*
X103142857Y-52646190D01*
X103523810Y-52646190D01*
X102000000Y-53122381D02*
X102571429Y-53122381D01*
X102285715Y-53122381D02*
X102285715Y-52122381D01*
X102380953Y-52265238D01*
X102476191Y-52360476D01*
X102571429Y-52408095D01*
X111333333Y-58000381D02*
X111333333Y-58714667D01*
X111380953Y-58857524D01*
X111476191Y-58952762D01*
X111619048Y-59000381D01*
X111714286Y-59000381D01*
X110904762Y-58095619D02*
X110857143Y-58048000D01*
X110761905Y-58000381D01*
X110523809Y-58000381D01*
X110428571Y-58048000D01*
X110380952Y-58095619D01*
X110333333Y-58190857D01*
X110333333Y-58286095D01*
X110380952Y-58428952D01*
X110952381Y-59000381D01*
X110333333Y-59000381D01*
X148333333Y-83904381D02*
X148333333Y-84618667D01*
X148380953Y-84761524D01*
X148476191Y-84856762D01*
X148619048Y-84904381D01*
X148714286Y-84904381D01*
X147952381Y-83904381D02*
X147333333Y-83904381D01*
X147666667Y-84285333D01*
X147523809Y-84285333D01*
X147428571Y-84332952D01*
X147380952Y-84380571D01*
X147333333Y-84475810D01*
X147333333Y-84713905D01*
X147380952Y-84809143D01*
X147428571Y-84856762D01*
X147523809Y-84904381D01*
X147809524Y-84904381D01*
X147904762Y-84856762D01*
X147952381Y-84809143D01*
X107404381Y-87166667D02*
X108118667Y-87166667D01*
X108261524Y-87119047D01*
X108356762Y-87023809D01*
X108404381Y-86880952D01*
X108404381Y-86785714D01*
X107737714Y-88071429D02*
X108404381Y-88071429D01*
X107356762Y-87833333D02*
X108071048Y-87595238D01*
X108071048Y-88214286D01*
X148333333Y-58000381D02*
X148333333Y-58714667D01*
X148380953Y-58857524D01*
X148476191Y-58952762D01*
X148619048Y-59000381D01*
X148714286Y-59000381D01*
X147380952Y-58000381D02*
X147857143Y-58000381D01*
X147904762Y-58476571D01*
X147857143Y-58428952D01*
X147761905Y-58381333D01*
X147523809Y-58381333D01*
X147428571Y-58428952D01*
X147380952Y-58476571D01*
X147333333Y-58571810D01*
X147333333Y-58809905D01*
X147380952Y-58905143D01*
X147428571Y-58952762D01*
X147523809Y-59000381D01*
X147761905Y-59000381D01*
X147857143Y-58952762D01*
X147904762Y-58905143D01*
X144149143Y-68857834D02*
X144196762Y-68810215D01*
X144244381Y-68667358D01*
X144244381Y-68572120D01*
X144196762Y-68429262D01*
X144101524Y-68334024D01*
X144006286Y-68286405D01*
X143815810Y-68238786D01*
X143672952Y-68238786D01*
X143482476Y-68286405D01*
X143387238Y-68334024D01*
X143292000Y-68429262D01*
X143244381Y-68572120D01*
X143244381Y-68667358D01*
X143292000Y-68810215D01*
X143339619Y-68857834D01*
X144244381Y-69810215D02*
X144244381Y-69238786D01*
X144244381Y-69524500D02*
X143244381Y-69524500D01*
X143387238Y-69429262D01*
X143482476Y-69334024D01*
X143530095Y-69238786D01*
X150725143Y-61809334D02*
X150772762Y-61761715D01*
X150820381Y-61618858D01*
X150820381Y-61523620D01*
X150772762Y-61380762D01*
X150677524Y-61285524D01*
X150582286Y-61237905D01*
X150391810Y-61190286D01*
X150248952Y-61190286D01*
X150058476Y-61237905D01*
X149963238Y-61285524D01*
X149868000Y-61380762D01*
X149820381Y-61523620D01*
X149820381Y-61618858D01*
X149868000Y-61761715D01*
X149915619Y-61809334D01*
X149915619Y-62190286D02*
X149868000Y-62237905D01*
X149820381Y-62333143D01*
X149820381Y-62571239D01*
X149868000Y-62666477D01*
X149915619Y-62714096D01*
X150010857Y-62761715D01*
X150106095Y-62761715D01*
X150248952Y-62714096D01*
X150820381Y-62142667D01*
X150820381Y-62761715D01*
X144273543Y-73594934D02*
X144321162Y-73547315D01*
X144368781Y-73404458D01*
X144368781Y-73309220D01*
X144321162Y-73166362D01*
X144225924Y-73071124D01*
X144130686Y-73023505D01*
X143940210Y-72975886D01*
X143797352Y-72975886D01*
X143606876Y-73023505D01*
X143511638Y-73071124D01*
X143416400Y-73166362D01*
X143368781Y-73309220D01*
X143368781Y-73404458D01*
X143416400Y-73547315D01*
X143464019Y-73594934D01*
X143368781Y-73928267D02*
X143368781Y-74547315D01*
X143749733Y-74213981D01*
X143749733Y-74356839D01*
X143797352Y-74452077D01*
X143844971Y-74499696D01*
X143940210Y-74547315D01*
X144178305Y-74547315D01*
X144273543Y-74499696D01*
X144321162Y-74452077D01*
X144368781Y-74356839D01*
X144368781Y-74071124D01*
X144321162Y-73975886D01*
X144273543Y-73928267D01*
X150674343Y-64400134D02*
X150721962Y-64352515D01*
X150769581Y-64209658D01*
X150769581Y-64114420D01*
X150721962Y-63971562D01*
X150626724Y-63876324D01*
X150531486Y-63828705D01*
X150341010Y-63781086D01*
X150198152Y-63781086D01*
X150007676Y-63828705D01*
X149912438Y-63876324D01*
X149817200Y-63971562D01*
X149769581Y-64114420D01*
X149769581Y-64209658D01*
X149817200Y-64352515D01*
X149864819Y-64400134D01*
X150102914Y-65257277D02*
X150769581Y-65257277D01*
X149721962Y-65019181D02*
X150436248Y-64781086D01*
X150436248Y-65400134D01*
X111202743Y-81214934D02*
X111250362Y-81167315D01*
X111297981Y-81024458D01*
X111297981Y-80929220D01*
X111250362Y-80786362D01*
X111155124Y-80691124D01*
X111059886Y-80643505D01*
X110869410Y-80595886D01*
X110726552Y-80595886D01*
X110536076Y-80643505D01*
X110440838Y-80691124D01*
X110345600Y-80786362D01*
X110297981Y-80929220D01*
X110297981Y-81024458D01*
X110345600Y-81167315D01*
X110393219Y-81214934D01*
X110297981Y-82119696D02*
X110297981Y-81643505D01*
X110774171Y-81595886D01*
X110726552Y-81643505D01*
X110678933Y-81738743D01*
X110678933Y-81976839D01*
X110726552Y-82072077D01*
X110774171Y-82119696D01*
X110869410Y-82167315D01*
X111107505Y-82167315D01*
X111202743Y-82119696D01*
X111250362Y-82072077D01*
X111297981Y-81976839D01*
X111297981Y-81738743D01*
X111250362Y-81643505D01*
X111202743Y-81595886D01*
X111101143Y-78420934D02*
X111148762Y-78373315D01*
X111196381Y-78230458D01*
X111196381Y-78135220D01*
X111148762Y-77992362D01*
X111053524Y-77897124D01*
X110958286Y-77849505D01*
X110767810Y-77801886D01*
X110624952Y-77801886D01*
X110434476Y-77849505D01*
X110339238Y-77897124D01*
X110244000Y-77992362D01*
X110196381Y-78135220D01*
X110196381Y-78230458D01*
X110244000Y-78373315D01*
X110291619Y-78420934D01*
X110196381Y-79278077D02*
X110196381Y-79087600D01*
X110244000Y-78992362D01*
X110291619Y-78944743D01*
X110434476Y-78849505D01*
X110624952Y-78801886D01*
X111005905Y-78801886D01*
X111101143Y-78849505D01*
X111148762Y-78897124D01*
X111196381Y-78992362D01*
X111196381Y-79182839D01*
X111148762Y-79278077D01*
X111101143Y-79325696D01*
X111005905Y-79373315D01*
X110767810Y-79373315D01*
X110672571Y-79325696D01*
X110624952Y-79278077D01*
X110577333Y-79182839D01*
X110577333Y-78992362D01*
X110624952Y-78897124D01*
X110672571Y-78849505D01*
X110767810Y-78801886D01*
M02*
