G04 #@! TF.FileFunction,Soldermask,Bot*
%FSLAX46Y46*%
G04 Gerber Fmt 4.6, Leading zero omitted, Abs format (unit mm)*
G04 Created by KiCad (PCBNEW 4.0.7) date 10/23/19 08:34:23*
%MOMM*%
%LPD*%
G01*
G04 APERTURE LIST*
%ADD10C,0.100000*%
%ADD11C,2.000000*%
%ADD12O,2.000000X2.000000*%
%ADD13R,2.100000X2.100000*%
%ADD14O,2.100000X2.100000*%
%ADD15R,1.700000X1.900000*%
%ADD16R,1.900000X1.700000*%
%ADD17C,2.400000*%
%ADD18R,2.400000X3.600000*%
%ADD19R,2.400000X2.400000*%
%ADD20C,4.464000*%
G04 APERTURE END LIST*
D10*
D11*
X127635000Y-61988700D03*
D12*
X127635000Y-54368700D03*
D13*
X118021100Y-70269100D03*
D14*
X120561100Y-70269100D03*
X118021100Y-67729100D03*
X120561100Y-67729100D03*
X118021100Y-65189100D03*
X120561100Y-65189100D03*
X118021100Y-62649100D03*
X120561100Y-62649100D03*
X118021100Y-60109100D03*
X120561100Y-60109100D03*
X118021100Y-57569100D03*
X120561100Y-57569100D03*
X118021100Y-55029100D03*
X120561100Y-55029100D03*
D13*
X115697000Y-77470000D03*
D14*
X113157000Y-77470000D03*
D15*
X125082300Y-64405500D03*
X125082300Y-61705500D03*
D11*
X127635000Y-71805800D03*
D12*
X127635000Y-64185800D03*
D15*
X125031500Y-56950600D03*
X125031500Y-54250600D03*
D16*
X137875000Y-76200000D03*
X135175000Y-76200000D03*
D11*
X139954000Y-73152000D03*
D12*
X132334000Y-73152000D03*
D15*
X119761000Y-74850000D03*
X119761000Y-77550000D03*
D11*
X130556000Y-76327000D03*
D12*
X122936000Y-76327000D03*
D17*
X141660000Y-87376000D03*
X137160000Y-87376000D03*
X141660000Y-80876000D03*
X137160000Y-80876000D03*
X132008000Y-87376000D03*
X127508000Y-87376000D03*
X132008000Y-80876000D03*
X127508000Y-80876000D03*
X122356000Y-87376000D03*
X117856000Y-87376000D03*
X122356000Y-80876000D03*
X117856000Y-80876000D03*
D13*
X104000000Y-55000000D03*
D14*
X104000000Y-57540000D03*
X104000000Y-60080000D03*
X104000000Y-62620000D03*
X104000000Y-65160000D03*
X104000000Y-67700000D03*
X104000000Y-70240000D03*
X104000000Y-72780000D03*
X104000000Y-75320000D03*
X104000000Y-77860000D03*
X104000000Y-80400000D03*
X104000000Y-82940000D03*
X104000000Y-85480000D03*
X104000000Y-88020000D03*
D17*
X133836400Y-69770400D03*
X138836400Y-69770400D03*
D18*
X130736400Y-62770400D03*
X141936400Y-62770400D03*
D17*
X133836400Y-55270400D03*
X136336400Y-55270400D03*
D19*
X138836400Y-55270400D03*
D20*
X111000000Y-55500000D03*
X148000000Y-87500000D03*
X111000000Y-87500000D03*
X148000000Y-55500000D03*
M02*
