G04 #@! TF.FileFunction,Legend,Bot*
%FSLAX46Y46*%
G04 Gerber Fmt 4.6, Leading zero omitted, Abs format (unit mm)*
G04 Created by KiCad (PCBNEW 4.0.7) date 11/10/19 19:17:38*
%MOMM*%
%LPD*%
G01*
G04 APERTURE LIST*
%ADD10C,0.100000*%
%ADD11C,0.150000*%
%ADD12C,0.300000*%
%ADD13C,0.120000*%
G04 APERTURE END LIST*
D10*
D11*
X106977381Y-62928571D02*
X107977381Y-63261904D01*
X106977381Y-63595238D01*
X107977381Y-63928571D02*
X106977381Y-63928571D01*
X107977381Y-64500000D01*
X106977381Y-64500000D01*
X107691667Y-64928571D02*
X107691667Y-65404762D01*
X107977381Y-64833333D02*
X106977381Y-65166666D01*
X107977381Y-65500000D01*
X107977381Y-67071429D02*
X107977381Y-66595238D01*
X106977381Y-66595238D01*
X107882143Y-67976191D02*
X107929762Y-67928572D01*
X107977381Y-67785715D01*
X107977381Y-67690477D01*
X107929762Y-67547619D01*
X107834524Y-67452381D01*
X107739286Y-67404762D01*
X107548810Y-67357143D01*
X107405952Y-67357143D01*
X107215476Y-67404762D01*
X107120238Y-67452381D01*
X107025000Y-67547619D01*
X106977381Y-67690477D01*
X106977381Y-67785715D01*
X107025000Y-67928572D01*
X107072619Y-67976191D01*
X107977381Y-68404762D02*
X106977381Y-68404762D01*
X106977381Y-68642857D01*
X107025000Y-68785715D01*
X107120238Y-68880953D01*
X107215476Y-68928572D01*
X107405952Y-68976191D01*
X107548810Y-68976191D01*
X107739286Y-68928572D01*
X107834524Y-68880953D01*
X107929762Y-68785715D01*
X107977381Y-68642857D01*
X107977381Y-68404762D01*
X109627381Y-62333333D02*
X108627381Y-62333333D01*
X109627381Y-62809523D02*
X108627381Y-62809523D01*
X109627381Y-63380952D01*
X108627381Y-63380952D01*
X108627381Y-63714285D02*
X108627381Y-64285714D01*
X109627381Y-63999999D02*
X108627381Y-63999999D01*
X109103571Y-64619047D02*
X109103571Y-64952381D01*
X109627381Y-65095238D02*
X109627381Y-64619047D01*
X108627381Y-64619047D01*
X108627381Y-65095238D01*
X109627381Y-66095238D02*
X109151190Y-65761904D01*
X109627381Y-65523809D02*
X108627381Y-65523809D01*
X108627381Y-65904762D01*
X108675000Y-66000000D01*
X108722619Y-66047619D01*
X108817857Y-66095238D01*
X108960714Y-66095238D01*
X109055952Y-66047619D01*
X109103571Y-66000000D01*
X109151190Y-65904762D01*
X109151190Y-65523809D01*
X109103571Y-66857143D02*
X109103571Y-66523809D01*
X109627381Y-66523809D02*
X108627381Y-66523809D01*
X108627381Y-67000000D01*
X109341667Y-67333333D02*
X109341667Y-67809524D01*
X109627381Y-67238095D02*
X108627381Y-67571428D01*
X109627381Y-67904762D01*
X109532143Y-68809524D02*
X109579762Y-68761905D01*
X109627381Y-68619048D01*
X109627381Y-68523810D01*
X109579762Y-68380952D01*
X109484524Y-68285714D01*
X109389286Y-68238095D01*
X109198810Y-68190476D01*
X109055952Y-68190476D01*
X108865476Y-68238095D01*
X108770238Y-68285714D01*
X108675000Y-68380952D01*
X108627381Y-68523810D01*
X108627381Y-68619048D01*
X108675000Y-68761905D01*
X108722619Y-68809524D01*
X109103571Y-69238095D02*
X109103571Y-69571429D01*
X109627381Y-69714286D02*
X109627381Y-69238095D01*
X108627381Y-69238095D01*
X108627381Y-69714286D01*
X111277381Y-64071429D02*
X110277381Y-64071429D01*
X111277381Y-64642858D02*
X110705952Y-64214286D01*
X110277381Y-64642858D02*
X110848810Y-64071429D01*
X110277381Y-64976191D02*
X111277381Y-65214286D01*
X110563095Y-65404763D01*
X111277381Y-65595239D01*
X110277381Y-65833334D01*
X110610714Y-66642858D02*
X111277381Y-66642858D01*
X110229762Y-66404762D02*
X110944048Y-66166667D01*
X110944048Y-66785715D01*
X110277381Y-67023810D02*
X110277381Y-67595239D01*
X111277381Y-67309524D02*
X110277381Y-67309524D01*
X111277381Y-67928572D02*
X110277381Y-67928572D01*
X112832143Y-61166667D02*
X112879762Y-61119048D01*
X112927381Y-60976191D01*
X112927381Y-60880953D01*
X112879762Y-60738095D01*
X112784524Y-60642857D01*
X112689286Y-60595238D01*
X112498810Y-60547619D01*
X112355952Y-60547619D01*
X112165476Y-60595238D01*
X112070238Y-60642857D01*
X111975000Y-60738095D01*
X111927381Y-60880953D01*
X111927381Y-60976191D01*
X111975000Y-61119048D01*
X112022619Y-61166667D01*
X112832143Y-62166667D02*
X112879762Y-62119048D01*
X112927381Y-61976191D01*
X112927381Y-61880953D01*
X112879762Y-61738095D01*
X112784524Y-61642857D01*
X112689286Y-61595238D01*
X112498810Y-61547619D01*
X112355952Y-61547619D01*
X112165476Y-61595238D01*
X112070238Y-61642857D01*
X111975000Y-61738095D01*
X111927381Y-61880953D01*
X111927381Y-61976191D01*
X111975000Y-62119048D01*
X112022619Y-62166667D01*
X112546429Y-62595238D02*
X112546429Y-63357143D01*
X112403571Y-64166667D02*
X112451190Y-64309524D01*
X112498810Y-64357143D01*
X112594048Y-64404762D01*
X112736905Y-64404762D01*
X112832143Y-64357143D01*
X112879762Y-64309524D01*
X112927381Y-64214286D01*
X112927381Y-63833333D01*
X111927381Y-63833333D01*
X111927381Y-64166667D01*
X111975000Y-64261905D01*
X112022619Y-64309524D01*
X112117857Y-64357143D01*
X112213095Y-64357143D01*
X112308333Y-64309524D01*
X112355952Y-64261905D01*
X112403571Y-64166667D01*
X112403571Y-63833333D01*
X112451190Y-65023809D02*
X112927381Y-65023809D01*
X111927381Y-64690476D02*
X112451190Y-65023809D01*
X111927381Y-65357143D01*
X112546429Y-65690476D02*
X112546429Y-66452381D01*
X112879762Y-66880952D02*
X112927381Y-67023809D01*
X112927381Y-67261905D01*
X112879762Y-67357143D01*
X112832143Y-67404762D01*
X112736905Y-67452381D01*
X112641667Y-67452381D01*
X112546429Y-67404762D01*
X112498810Y-67357143D01*
X112451190Y-67261905D01*
X112403571Y-67071428D01*
X112355952Y-66976190D01*
X112308333Y-66928571D01*
X112213095Y-66880952D01*
X112117857Y-66880952D01*
X112022619Y-66928571D01*
X111975000Y-66976190D01*
X111927381Y-67071428D01*
X111927381Y-67309524D01*
X111975000Y-67452381D01*
X112641667Y-67833333D02*
X112641667Y-68309524D01*
X112927381Y-67738095D02*
X111927381Y-68071428D01*
X112927381Y-68404762D01*
X112260714Y-69928572D02*
X112927381Y-69928572D01*
X111879762Y-69690476D02*
X112594048Y-69452381D01*
X112594048Y-70071429D01*
X112832143Y-70452381D02*
X112879762Y-70500000D01*
X112927381Y-70452381D01*
X112879762Y-70404762D01*
X112832143Y-70452381D01*
X112927381Y-70452381D01*
X111927381Y-71119047D02*
X111927381Y-71214286D01*
X111975000Y-71309524D01*
X112022619Y-71357143D01*
X112117857Y-71404762D01*
X112308333Y-71452381D01*
X112546429Y-71452381D01*
X112736905Y-71404762D01*
X112832143Y-71357143D01*
X112879762Y-71309524D01*
X112927381Y-71214286D01*
X112927381Y-71119047D01*
X112879762Y-71023809D01*
X112832143Y-70976190D01*
X112736905Y-70928571D01*
X112546429Y-70880952D01*
X112308333Y-70880952D01*
X112117857Y-70928571D01*
X112022619Y-70976190D01*
X111975000Y-71023809D01*
X111927381Y-71119047D01*
D12*
X113571428Y-71178571D02*
X114428571Y-71178571D01*
X113999999Y-71178571D02*
X113999999Y-69678571D01*
X114142856Y-69892857D01*
X114285714Y-70035714D01*
X114428571Y-70107143D01*
D13*
X137420000Y-66800000D02*
X137090000Y-66800000D01*
X137090000Y-66800000D02*
X137090000Y-73220000D01*
X137090000Y-73220000D02*
X137420000Y-73220000D01*
X139380000Y-66800000D02*
X139710000Y-66800000D01*
X139710000Y-66800000D02*
X139710000Y-73220000D01*
X139710000Y-73220000D02*
X139380000Y-73220000D01*
X116691100Y-53699100D02*
X121891100Y-53699100D01*
X116691100Y-68999100D02*
X116691100Y-53699100D01*
X121891100Y-71599100D02*
X121891100Y-53699100D01*
X116691100Y-68999100D02*
X119291100Y-68999100D01*
X119291100Y-68999100D02*
X119291100Y-71599100D01*
X119291100Y-71599100D02*
X121891100Y-71599100D01*
X116691100Y-70269100D02*
X116691100Y-71599100D01*
X116691100Y-71599100D02*
X118021100Y-71599100D01*
X139580000Y-62100000D02*
X139580000Y-60900000D01*
X137820000Y-60900000D02*
X137820000Y-62100000D01*
X137180000Y-66300000D02*
X137510000Y-66300000D01*
X137510000Y-66300000D02*
X137510000Y-59880000D01*
X137510000Y-59880000D02*
X137180000Y-59880000D01*
X135220000Y-66300000D02*
X134890000Y-66300000D01*
X134890000Y-66300000D02*
X134890000Y-59880000D01*
X134890000Y-59880000D02*
X135220000Y-59880000D01*
X136880000Y-71600000D02*
X136880000Y-70400000D01*
X135120000Y-70400000D02*
X135120000Y-71600000D01*
X135080000Y-82400000D02*
X135080000Y-81200000D01*
X133320000Y-81200000D02*
X133320000Y-82400000D01*
X135720000Y-76100000D02*
X135390000Y-76100000D01*
X135390000Y-76100000D02*
X135390000Y-82520000D01*
X135390000Y-82520000D02*
X135720000Y-82520000D01*
X137680000Y-76100000D02*
X138010000Y-76100000D01*
X138010000Y-76100000D02*
X138010000Y-82520000D01*
X138010000Y-82520000D02*
X137680000Y-82520000D01*
X109120000Y-80000000D02*
X109120000Y-81200000D01*
X110880000Y-81200000D02*
X110880000Y-80000000D01*
X113980000Y-81200000D02*
X114310000Y-81200000D01*
X114310000Y-81200000D02*
X114310000Y-74780000D01*
X114310000Y-74780000D02*
X113980000Y-74780000D01*
X112020000Y-81200000D02*
X111690000Y-81200000D01*
X111690000Y-81200000D02*
X111690000Y-74780000D01*
X111690000Y-74780000D02*
X112020000Y-74780000D01*
X105330000Y-89350000D02*
X102670000Y-89350000D01*
X105330000Y-56270000D02*
X105330000Y-89350000D01*
X102670000Y-56270000D02*
X102670000Y-89350000D01*
X105330000Y-56270000D02*
X102670000Y-56270000D01*
X105330000Y-55000000D02*
X105330000Y-53670000D01*
X105330000Y-53670000D02*
X104000000Y-53670000D01*
X113286000Y-55500000D02*
G75*
G03X113286000Y-55500000I-2286000J0D01*
G01*
X140286000Y-87500000D02*
G75*
G03X140286000Y-87500000I-2286000J0D01*
G01*
X113286000Y-87500000D02*
G75*
G03X113286000Y-87500000I-2286000J0D01*
G01*
X140286000Y-55500000D02*
G75*
G03X140286000Y-55500000I-2286000J0D01*
G01*
D11*
X138771101Y-69563934D02*
X138294910Y-69230600D01*
X138771101Y-68992505D02*
X137771101Y-68992505D01*
X137771101Y-69373458D01*
X137818720Y-69468696D01*
X137866339Y-69516315D01*
X137961577Y-69563934D01*
X138104434Y-69563934D01*
X138199672Y-69516315D01*
X138247291Y-69468696D01*
X138294910Y-69373458D01*
X138294910Y-68992505D01*
X138104434Y-70421077D02*
X138771101Y-70421077D01*
X137723482Y-70182981D02*
X138437768Y-69944886D01*
X138437768Y-70563934D01*
X119333333Y-52452381D02*
X119333333Y-53166667D01*
X119380953Y-53309524D01*
X119476191Y-53404762D01*
X119619048Y-53452381D01*
X119714286Y-53452381D01*
X118333333Y-53452381D02*
X118904762Y-53452381D01*
X118619048Y-53452381D02*
X118619048Y-52452381D01*
X118714286Y-52595238D01*
X118809524Y-52690476D01*
X118904762Y-52738095D01*
X138993666Y-65000381D02*
X139327000Y-64524190D01*
X139565095Y-65000381D02*
X139565095Y-64000381D01*
X139184142Y-64000381D01*
X139088904Y-64048000D01*
X139041285Y-64095619D01*
X138993666Y-64190857D01*
X138993666Y-64333714D01*
X139041285Y-64428952D01*
X139088904Y-64476571D01*
X139184142Y-64524190D01*
X139565095Y-64524190D01*
X138041285Y-65000381D02*
X138612714Y-65000381D01*
X138327000Y-65000381D02*
X138327000Y-64000381D01*
X138422238Y-64143238D01*
X138517476Y-64238476D01*
X138612714Y-64286095D01*
X136611741Y-63080814D02*
X136135550Y-62747480D01*
X136611741Y-62509385D02*
X135611741Y-62509385D01*
X135611741Y-62890338D01*
X135659360Y-62985576D01*
X135706979Y-63033195D01*
X135802217Y-63080814D01*
X135945074Y-63080814D01*
X136040312Y-63033195D01*
X136087931Y-62985576D01*
X136135550Y-62890338D01*
X136135550Y-62509385D01*
X135706979Y-63461766D02*
X135659360Y-63509385D01*
X135611741Y-63604623D01*
X135611741Y-63842719D01*
X135659360Y-63937957D01*
X135706979Y-63985576D01*
X135802217Y-64033195D01*
X135897455Y-64033195D01*
X136040312Y-63985576D01*
X136611741Y-63414147D01*
X136611741Y-64033195D01*
X135959666Y-74332381D02*
X136293000Y-73856190D01*
X136531095Y-74332381D02*
X136531095Y-73332381D01*
X136150142Y-73332381D01*
X136054904Y-73380000D01*
X136007285Y-73427619D01*
X135959666Y-73522857D01*
X135959666Y-73665714D01*
X136007285Y-73760952D01*
X136054904Y-73808571D01*
X136150142Y-73856190D01*
X136531095Y-73856190D01*
X135626333Y-73332381D02*
X135007285Y-73332381D01*
X135340619Y-73713333D01*
X135197761Y-73713333D01*
X135102523Y-73760952D01*
X135054904Y-73808571D01*
X135007285Y-73903810D01*
X135007285Y-74141905D01*
X135054904Y-74237143D01*
X135102523Y-74284762D01*
X135197761Y-74332381D01*
X135483476Y-74332381D01*
X135578714Y-74284762D01*
X135626333Y-74237143D01*
X134652381Y-77823334D02*
X134176190Y-77490000D01*
X134652381Y-77251905D02*
X133652381Y-77251905D01*
X133652381Y-77632858D01*
X133700000Y-77728096D01*
X133747619Y-77775715D01*
X133842857Y-77823334D01*
X133985714Y-77823334D01*
X134080952Y-77775715D01*
X134128571Y-77728096D01*
X134176190Y-77632858D01*
X134176190Y-77251905D01*
X133652381Y-78728096D02*
X133652381Y-78251905D01*
X134128571Y-78204286D01*
X134080952Y-78251905D01*
X134033333Y-78347143D01*
X134033333Y-78585239D01*
X134080952Y-78680477D01*
X134128571Y-78728096D01*
X134223810Y-78775715D01*
X134461905Y-78775715D01*
X134557143Y-78728096D01*
X134604762Y-78680477D01*
X134652381Y-78585239D01*
X134652381Y-78347143D01*
X134604762Y-78251905D01*
X134557143Y-78204286D01*
X137147301Y-79087454D02*
X136671110Y-78754120D01*
X137147301Y-78516025D02*
X136147301Y-78516025D01*
X136147301Y-78896978D01*
X136194920Y-78992216D01*
X136242539Y-79039835D01*
X136337777Y-79087454D01*
X136480634Y-79087454D01*
X136575872Y-79039835D01*
X136623491Y-78992216D01*
X136671110Y-78896978D01*
X136671110Y-78516025D01*
X136147301Y-79944597D02*
X136147301Y-79754120D01*
X136194920Y-79658882D01*
X136242539Y-79611263D01*
X136385396Y-79516025D01*
X136575872Y-79468406D01*
X136956825Y-79468406D01*
X137052063Y-79516025D01*
X137099682Y-79563644D01*
X137147301Y-79658882D01*
X137147301Y-79849359D01*
X137099682Y-79944597D01*
X137052063Y-79992216D01*
X136956825Y-80039835D01*
X136718730Y-80039835D01*
X136623491Y-79992216D01*
X136575872Y-79944597D01*
X136528253Y-79849359D01*
X136528253Y-79658882D01*
X136575872Y-79563644D01*
X136623491Y-79516025D01*
X136718730Y-79468406D01*
X110327666Y-84052381D02*
X110661000Y-83576190D01*
X110899095Y-84052381D02*
X110899095Y-83052381D01*
X110518142Y-83052381D01*
X110422904Y-83100000D01*
X110375285Y-83147619D01*
X110327666Y-83242857D01*
X110327666Y-83385714D01*
X110375285Y-83480952D01*
X110422904Y-83528571D01*
X110518142Y-83576190D01*
X110899095Y-83576190D01*
X109994333Y-83052381D02*
X109327666Y-83052381D01*
X109756238Y-84052381D01*
X113340621Y-77950334D02*
X112864430Y-77617000D01*
X113340621Y-77378905D02*
X112340621Y-77378905D01*
X112340621Y-77759858D01*
X112388240Y-77855096D01*
X112435859Y-77902715D01*
X112531097Y-77950334D01*
X112673954Y-77950334D01*
X112769192Y-77902715D01*
X112816811Y-77855096D01*
X112864430Y-77759858D01*
X112864430Y-77378905D01*
X112769192Y-78521762D02*
X112721573Y-78426524D01*
X112673954Y-78378905D01*
X112578716Y-78331286D01*
X112531097Y-78331286D01*
X112435859Y-78378905D01*
X112388240Y-78426524D01*
X112340621Y-78521762D01*
X112340621Y-78712239D01*
X112388240Y-78807477D01*
X112435859Y-78855096D01*
X112531097Y-78902715D01*
X112578716Y-78902715D01*
X112673954Y-78855096D01*
X112721573Y-78807477D01*
X112769192Y-78712239D01*
X112769192Y-78521762D01*
X112816811Y-78426524D01*
X112864430Y-78378905D01*
X112959669Y-78331286D01*
X113150145Y-78331286D01*
X113245383Y-78378905D01*
X113293002Y-78426524D01*
X113340621Y-78521762D01*
X113340621Y-78712239D01*
X113293002Y-78807477D01*
X113245383Y-78855096D01*
X113150145Y-78902715D01*
X112959669Y-78902715D01*
X112864430Y-78855096D01*
X112816811Y-78807477D01*
X112769192Y-78712239D01*
X105952381Y-53122381D02*
X105952381Y-52122381D01*
X105714286Y-52122381D01*
X105571428Y-52170000D01*
X105476190Y-52265238D01*
X105428571Y-52360476D01*
X105380952Y-52550952D01*
X105380952Y-52693810D01*
X105428571Y-52884286D01*
X105476190Y-52979524D01*
X105571428Y-53074762D01*
X105714286Y-53122381D01*
X105952381Y-53122381D01*
X104952381Y-53122381D02*
X104952381Y-52122381D01*
X104523810Y-53074762D02*
X104380953Y-53122381D01*
X104142857Y-53122381D01*
X104047619Y-53074762D01*
X104000000Y-53027143D01*
X103952381Y-52931905D01*
X103952381Y-52836667D01*
X104000000Y-52741429D01*
X104047619Y-52693810D01*
X104142857Y-52646190D01*
X104333334Y-52598571D01*
X104428572Y-52550952D01*
X104476191Y-52503333D01*
X104523810Y-52408095D01*
X104523810Y-52312857D01*
X104476191Y-52217619D01*
X104428572Y-52170000D01*
X104333334Y-52122381D01*
X104095238Y-52122381D01*
X103952381Y-52170000D01*
X103523810Y-53122381D02*
X103523810Y-52122381D01*
X103142857Y-52122381D01*
X103047619Y-52170000D01*
X103000000Y-52217619D01*
X102952381Y-52312857D01*
X102952381Y-52455714D01*
X103000000Y-52550952D01*
X103047619Y-52598571D01*
X103142857Y-52646190D01*
X103523810Y-52646190D01*
X102000000Y-53122381D02*
X102571429Y-53122381D01*
X102285715Y-53122381D02*
X102285715Y-52122381D01*
X102380953Y-52265238D01*
X102476191Y-52360476D01*
X102571429Y-52408095D01*
X111333333Y-58000381D02*
X111333333Y-58714667D01*
X111380953Y-58857524D01*
X111476191Y-58952762D01*
X111619048Y-59000381D01*
X111714286Y-59000381D01*
X110904762Y-58095619D02*
X110857143Y-58048000D01*
X110761905Y-58000381D01*
X110523809Y-58000381D01*
X110428571Y-58048000D01*
X110380952Y-58095619D01*
X110333333Y-58190857D01*
X110333333Y-58286095D01*
X110380952Y-58428952D01*
X110952381Y-59000381D01*
X110333333Y-59000381D01*
X133947901Y-86656587D02*
X134662187Y-86656587D01*
X134805044Y-86608967D01*
X134900282Y-86513729D01*
X134947901Y-86370872D01*
X134947901Y-86275634D01*
X133947901Y-87037539D02*
X133947901Y-87656587D01*
X134328853Y-87323253D01*
X134328853Y-87466111D01*
X134376472Y-87561349D01*
X134424091Y-87608968D01*
X134519330Y-87656587D01*
X134757425Y-87656587D01*
X134852663Y-87608968D01*
X134900282Y-87561349D01*
X134947901Y-87466111D01*
X134947901Y-87180396D01*
X134900282Y-87085158D01*
X134852663Y-87037539D01*
X107404381Y-87166667D02*
X108118667Y-87166667D01*
X108261524Y-87119047D01*
X108356762Y-87023809D01*
X108404381Y-86880952D01*
X108404381Y-86785714D01*
X107737714Y-88071429D02*
X108404381Y-88071429D01*
X107356762Y-87833333D02*
X108071048Y-87595238D01*
X108071048Y-88214286D01*
X134130781Y-55140267D02*
X134845067Y-55140267D01*
X134987924Y-55092647D01*
X135083162Y-54997409D01*
X135130781Y-54854552D01*
X135130781Y-54759314D01*
X134130781Y-56092648D02*
X134130781Y-55616457D01*
X134606971Y-55568838D01*
X134559352Y-55616457D01*
X134511733Y-55711695D01*
X134511733Y-55949791D01*
X134559352Y-56045029D01*
X134606971Y-56092648D01*
X134702210Y-56140267D01*
X134940305Y-56140267D01*
X135035543Y-56092648D01*
X135083162Y-56045029D01*
X135130781Y-55949791D01*
X135130781Y-55711695D01*
X135083162Y-55616457D01*
X135035543Y-55568838D01*
M02*
