G04 #@! TF.FileFunction,Copper,L2,Bot,Signal*
%FSLAX46Y46*%
G04 Gerber Fmt 4.6, Leading zero omitted, Abs format (unit mm)*
G04 Created by KiCad (PCBNEW 4.0.7) date 10/23/19 09:18:07*
%MOMM*%
%LPD*%
G01*
G04 APERTURE LIST*
%ADD10C,0.100000*%
%ADD11C,2.000000*%
%ADD12R,2.000000X3.200000*%
%ADD13R,2.000000X2.000000*%
%ADD14C,1.600000*%
%ADD15O,1.600000X1.600000*%
%ADD16R,1.700000X1.700000*%
%ADD17O,1.700000X1.700000*%
%ADD18R,1.300000X1.500000*%
%ADD19R,1.500000X1.300000*%
%ADD20C,4.064000*%
%ADD21R,1.250000X1.500000*%
%ADD22C,0.600000*%
%ADD23C,0.350000*%
%ADD24C,0.500000*%
G04 APERTURE END LIST*
D10*
D11*
X133836400Y-69770400D03*
X138836400Y-69770400D03*
D12*
X130736400Y-62770400D03*
X141936400Y-62770400D03*
D11*
X133836400Y-55270400D03*
X136336400Y-55270400D03*
D13*
X138836400Y-55270400D03*
D14*
X127635000Y-61988700D03*
D15*
X127635000Y-54368700D03*
D16*
X118021100Y-70269100D03*
D17*
X120561100Y-70269100D03*
X118021100Y-67729100D03*
X120561100Y-67729100D03*
X118021100Y-65189100D03*
X120561100Y-65189100D03*
X118021100Y-62649100D03*
X120561100Y-62649100D03*
X118021100Y-60109100D03*
X120561100Y-60109100D03*
X118021100Y-57569100D03*
X120561100Y-57569100D03*
X118021100Y-55029100D03*
X120561100Y-55029100D03*
D16*
X111648240Y-77086460D03*
D17*
X111648240Y-74546460D03*
D18*
X125082300Y-64405500D03*
X125082300Y-61705500D03*
D14*
X127635000Y-71805800D03*
D15*
X127635000Y-64185800D03*
D18*
X125031500Y-56950600D03*
X125031500Y-54250600D03*
D19*
X137875000Y-76200000D03*
X135175000Y-76200000D03*
D14*
X139954000Y-73152000D03*
D15*
X132334000Y-73152000D03*
D18*
X119761000Y-74850000D03*
X119761000Y-77550000D03*
D14*
X130556000Y-76327000D03*
D15*
X122936000Y-76327000D03*
D11*
X141660000Y-87376000D03*
X137160000Y-87376000D03*
X141660000Y-80876000D03*
X137160000Y-80876000D03*
X132008000Y-87376000D03*
X127508000Y-87376000D03*
X132008000Y-80876000D03*
X127508000Y-80876000D03*
X122356000Y-87376000D03*
X117856000Y-87376000D03*
X122356000Y-80876000D03*
X117856000Y-80876000D03*
D16*
X104000000Y-55000000D03*
D17*
X104000000Y-57540000D03*
X104000000Y-60080000D03*
X104000000Y-62620000D03*
X104000000Y-65160000D03*
X104000000Y-67700000D03*
X104000000Y-70240000D03*
X104000000Y-72780000D03*
X104000000Y-75320000D03*
X104000000Y-77860000D03*
X104000000Y-80400000D03*
X104000000Y-82940000D03*
X104000000Y-85480000D03*
X104000000Y-88020000D03*
D20*
X111000000Y-55500000D03*
X148000000Y-87500000D03*
X111000000Y-87500000D03*
X148000000Y-55500000D03*
D21*
X148691600Y-70439600D03*
X148691600Y-67939600D03*
D14*
X148361400Y-62407800D03*
X148361400Y-64907800D03*
D21*
X145389600Y-71775000D03*
X145389600Y-74275000D03*
D14*
X145034000Y-79552800D03*
X145034000Y-77052800D03*
D21*
X115404900Y-84894100D03*
X115404900Y-87394100D03*
D14*
X111861600Y-82791300D03*
X109361600Y-82791300D03*
D19*
X145309600Y-59690000D03*
X148009600Y-59690000D03*
D14*
X145656300Y-61912500D03*
D15*
X145656300Y-69532500D03*
D19*
X148111200Y-82499200D03*
X145411200Y-82499200D03*
D14*
X148234400Y-80467200D03*
D15*
X148234400Y-72847200D03*
D19*
X109515920Y-80271620D03*
X112215920Y-80271620D03*
D14*
X115112800Y-74515980D03*
D15*
X115112800Y-82135980D03*
D22*
X111739680Y-71973440D03*
X107411520Y-76992480D03*
X107269280Y-74249280D03*
X107823000Y-62484000D03*
X112014000Y-63627000D03*
X100965000Y-61468000D03*
X138328400Y-53187600D03*
D23*
X104308800Y-88020000D02*
X106903520Y-85445600D01*
X110012480Y-71973440D02*
X111739680Y-71973440D01*
X109524800Y-72461120D02*
X110012480Y-71973440D01*
X109524800Y-76789280D02*
X109524800Y-72461120D01*
X106903520Y-79430880D02*
X109524800Y-76789280D01*
X106903520Y-85445600D02*
X106903520Y-79430880D01*
X104000000Y-88020000D02*
X104308800Y-88020000D01*
X118021100Y-70269100D02*
X118021100Y-70142100D01*
X118021100Y-70142100D02*
X119090440Y-69016880D01*
X130556000Y-76327000D02*
X130556000Y-77279500D01*
X135970000Y-78105000D02*
X137875000Y-76200000D01*
X131381500Y-78105000D02*
X135970000Y-78105000D01*
X130556000Y-77279500D02*
X131381500Y-78105000D01*
X137875000Y-76200000D02*
X137875000Y-75231000D01*
X137875000Y-75231000D02*
X139954000Y-73152000D01*
X125082300Y-64405500D02*
X125256300Y-64405500D01*
X125256300Y-64405500D02*
X127635000Y-61988700D01*
X125031500Y-56950600D02*
X125031500Y-56997600D01*
X125031500Y-56997600D02*
X126631700Y-58381900D01*
X126631700Y-58381900D02*
X126631700Y-60540900D01*
X126631700Y-60540900D02*
X127635000Y-61988700D01*
X127635000Y-61988700D02*
X127635000Y-62322700D01*
X118021100Y-70269100D02*
X118021100Y-70142100D01*
X121701560Y-69006720D02*
X127635000Y-71805800D01*
X119090440Y-69016880D02*
X121701560Y-69006720D01*
X127635000Y-71805800D02*
X126873000Y-71907400D01*
X126873000Y-71907400D02*
X130556000Y-76327000D01*
X119761000Y-74850000D02*
X121492000Y-74850000D01*
X121492000Y-74850000D02*
X127635000Y-71805800D01*
X103926640Y-70358000D02*
X103571040Y-70002400D01*
X111648240Y-74546460D02*
X111648240Y-74442320D01*
X111648240Y-74442320D02*
X112897920Y-73192640D01*
X112897920Y-73192640D02*
X112897920Y-71241920D01*
X107411520Y-76992480D02*
X108305600Y-76098400D01*
X108305600Y-76098400D02*
X108305600Y-72318880D01*
X108305600Y-72318880D02*
X109382560Y-71241920D01*
X109382560Y-71241920D02*
X112897920Y-71241920D01*
X112897920Y-71241920D02*
X114630200Y-71241920D01*
X114630200Y-71241920D02*
X115448080Y-72059800D01*
X115448080Y-72059800D02*
X118770400Y-72059800D01*
X118770400Y-72059800D02*
X120561100Y-70269100D01*
X118021100Y-67729100D02*
X108712000Y-67818000D01*
X107315000Y-69215000D02*
X107269280Y-74249280D01*
X108712000Y-67818000D02*
X107315000Y-69215000D01*
X118021100Y-67729100D02*
X118021100Y-67983100D01*
X122356000Y-80876000D02*
X121223900Y-80876000D01*
X121223900Y-80876000D02*
X119557800Y-79209900D01*
X119557800Y-79209900D02*
X116357400Y-79209900D01*
X116357400Y-79209900D02*
X114966750Y-77819250D01*
X109515920Y-80271620D02*
X109608620Y-80271620D01*
X109608620Y-80271620D02*
X111089440Y-78790800D01*
X111089440Y-78790800D02*
X113995200Y-78790800D01*
X113995200Y-78790800D02*
X114966750Y-77819250D01*
X114966750Y-77819250D02*
X115112800Y-77673200D01*
X115112800Y-77673200D02*
X115112800Y-74515980D01*
X122356000Y-80876000D02*
X122356000Y-83058000D01*
X122356000Y-83058000D02*
X122356000Y-87376000D01*
X138836400Y-69770400D02*
X140293500Y-69745000D01*
X123444000Y-78740000D02*
X122356000Y-80876000D01*
X138684000Y-78800000D02*
X123444000Y-78740000D01*
X141414500Y-76835000D02*
X138684000Y-78800000D01*
X141414500Y-70866000D02*
X141414500Y-76835000D01*
X140293500Y-69745000D02*
X141414500Y-70866000D01*
X132334000Y-73152000D02*
X133118000Y-73152000D01*
X133118000Y-73152000D02*
X138836400Y-69770400D01*
X132334000Y-73152000D02*
X132334000Y-73359000D01*
X132334000Y-73359000D02*
X135175000Y-76200000D01*
X120561100Y-67729100D02*
X134598000Y-67818000D01*
X134598000Y-67818000D02*
X138836400Y-69770400D01*
X115356640Y-62341760D02*
X118021100Y-65189100D01*
X107950000Y-62357000D02*
X115356640Y-62341760D01*
X107823000Y-62484000D02*
X107950000Y-62357000D01*
X117894100Y-65062100D02*
X118021100Y-65189100D01*
X148361400Y-64907800D02*
X148539200Y-67787200D01*
X148539200Y-67787200D02*
X148691600Y-67939600D01*
X145034000Y-77052800D02*
X145034000Y-74630600D01*
X145034000Y-74630600D02*
X145389600Y-74275000D01*
X148158200Y-64693800D02*
X147853400Y-64693800D01*
X103621840Y-82892900D02*
X105308400Y-82892900D01*
X107823000Y-63627000D02*
X112014000Y-63627000D01*
X106299000Y-65151000D02*
X107823000Y-63627000D01*
X106299000Y-81661000D02*
X106299000Y-65151000D01*
X105308400Y-82892900D02*
X106299000Y-81661000D01*
X104000000Y-65160000D02*
X104339500Y-65160000D01*
X104339500Y-65160000D02*
X105498900Y-66319400D01*
X102450900Y-71230900D02*
X104000000Y-72780000D01*
X102450900Y-69545200D02*
X102450900Y-71230900D01*
X103035100Y-68961000D02*
X102450900Y-69545200D01*
X104584500Y-68961000D02*
X103035100Y-68961000D01*
X105498900Y-68046600D02*
X104584500Y-68961000D01*
X105498900Y-66319400D02*
X105498900Y-68046600D01*
X104000000Y-65160000D02*
X104000000Y-64516300D01*
X104000000Y-64516300D02*
X107073700Y-61442600D01*
X107073700Y-61442600D02*
X119263160Y-61366400D01*
X119263160Y-61366400D02*
X120561100Y-62649100D01*
X120561100Y-62649100D02*
X120434100Y-62649100D01*
X120561100Y-62649100D02*
X120561100Y-62776100D01*
X102362000Y-75272900D02*
X103672640Y-75272900D01*
X100965000Y-73787000D02*
X102362000Y-75272900D01*
X100965000Y-61468000D02*
X100965000Y-73787000D01*
X118021100Y-60109100D02*
X103926640Y-60198000D01*
X103926640Y-60198000D02*
X103571040Y-59842400D01*
X103964740Y-67640200D02*
X102781100Y-67640200D01*
X101727000Y-59146440D02*
X103518021Y-57660232D01*
X101727000Y-66802000D02*
X101727000Y-59146440D01*
X102781100Y-67640200D02*
X101727000Y-66802000D01*
X103518021Y-57660232D02*
X105001381Y-57660232D01*
X119545100Y-58839100D02*
X120561100Y-60109100D01*
X106680000Y-58928000D02*
X119545100Y-58839100D01*
X105001381Y-57660232D02*
X106680000Y-58928000D01*
X145643600Y-61925200D02*
X144119600Y-61925200D01*
X144119600Y-61925200D02*
X143764000Y-61569600D01*
X143764000Y-60477400D02*
X144522200Y-60477400D01*
X144522200Y-60477400D02*
X145309600Y-59690000D01*
X118021100Y-57569100D02*
X118178580Y-57569100D01*
X118178580Y-57569100D02*
X119481600Y-56266080D01*
X119481600Y-56266080D02*
X123016020Y-56266080D01*
X123016020Y-56266080D02*
X125031500Y-54250600D01*
X118021100Y-57569100D02*
X118630700Y-57569100D01*
X118630700Y-57569100D02*
X117652800Y-57023000D01*
X141660000Y-80876000D02*
X141660000Y-87376000D01*
X136944100Y-53238400D02*
X139407900Y-55270400D01*
X139407900Y-55270400D02*
X143764000Y-60477400D01*
X143764000Y-78479900D02*
X141660000Y-80876000D01*
X127635000Y-54368700D02*
X127635000Y-54241700D01*
X127635000Y-54241700D02*
X128663700Y-53187600D01*
X134493000Y-53213000D02*
X136944100Y-53238400D01*
X128663700Y-53187600D02*
X134493000Y-53213000D01*
X125031500Y-54250600D02*
X127588000Y-54415700D01*
X127588000Y-54415700D02*
X127635000Y-54368700D01*
X118021100Y-57569100D02*
X118021100Y-57315100D01*
X143764000Y-60477400D02*
X143764000Y-61569600D01*
X143764000Y-67818000D02*
X143764000Y-78479900D01*
X143764000Y-61569600D02*
X143764000Y-61925200D01*
X143764000Y-61925200D02*
X143764000Y-67818000D01*
X148234400Y-80467200D02*
X150139400Y-80467200D01*
X150139400Y-80467200D02*
X150571200Y-80035400D01*
X148111200Y-82499200D02*
X148111200Y-80590400D01*
X148111200Y-80590400D02*
X148234400Y-80467200D01*
X138328400Y-53187600D02*
X138379200Y-53136800D01*
X138379200Y-53136800D02*
X144018000Y-53136800D01*
X144018000Y-53136800D02*
X144780000Y-53898800D01*
X144780000Y-53898800D02*
X144780000Y-57556400D01*
X144780000Y-57556400D02*
X145542000Y-58318400D01*
X145542000Y-58318400D02*
X149910800Y-58318400D01*
X149910800Y-58318400D02*
X150571200Y-58978800D01*
X150571200Y-58978800D02*
X150571200Y-80035400D01*
X150571200Y-80035400D02*
X150571200Y-82804000D01*
X150571200Y-82804000D02*
X148844000Y-84531200D01*
X148844000Y-84531200D02*
X145694400Y-84531200D01*
X145694400Y-84531200D02*
X144678400Y-85547200D01*
X144678400Y-85547200D02*
X144678400Y-88493600D01*
X144678400Y-88493600D02*
X144018000Y-89154000D01*
X144018000Y-89154000D02*
X133786000Y-89154000D01*
X133786000Y-89154000D02*
X132008000Y-87376000D01*
X127635000Y-64185800D02*
X127635000Y-64681100D01*
X127635000Y-64681100D02*
X126428500Y-65887600D01*
X126428500Y-65887600D02*
X123888500Y-65887600D01*
X123888500Y-65887600D02*
X123469400Y-65468500D01*
X123469400Y-65468500D02*
X123469400Y-63318400D01*
X123469400Y-63318400D02*
X125082300Y-61705500D01*
X127635000Y-64185800D02*
X127800100Y-64185800D01*
X127800100Y-64185800D02*
X129421939Y-65807639D01*
X125082300Y-61705500D02*
X124908300Y-61705500D01*
X132008000Y-80876000D02*
X132008000Y-87376000D01*
X120561100Y-57569100D02*
X120895100Y-57569100D01*
X120895100Y-57569100D02*
X125082300Y-61705500D01*
X125082300Y-61705500D02*
X125082300Y-61150500D01*
X127635000Y-64185800D02*
X128143000Y-64185800D01*
X128143000Y-64185800D02*
X127711200Y-64643000D01*
X133832600Y-63893700D02*
X133836400Y-55270400D01*
X129421939Y-65807639D02*
X131470400Y-65786000D01*
X131470400Y-65786000D02*
X133832600Y-63893700D01*
X125082300Y-61705500D02*
X125129300Y-61705500D01*
X120561100Y-57569100D02*
X120561100Y-57997100D01*
X111648240Y-77086460D02*
X112374680Y-77086460D01*
X112374680Y-77086460D02*
X113436400Y-76024740D01*
X113436400Y-76024740D02*
X113436400Y-73789540D01*
X113436400Y-73789540D02*
X114218720Y-73007220D01*
X114218720Y-73007220D02*
X117096540Y-73007220D01*
X117096540Y-73007220D02*
X118186200Y-74096880D01*
X118186200Y-74096880D02*
X118186200Y-77030580D01*
X118186200Y-77030580D02*
X118705620Y-77550000D01*
X118705620Y-77550000D02*
X119761000Y-77550000D01*
X119761000Y-77550000D02*
X121713000Y-77550000D01*
X121713000Y-77550000D02*
X122936000Y-76327000D01*
X145542000Y-70274500D02*
X145542000Y-70154800D01*
X148691600Y-70439600D02*
X147681000Y-70439600D01*
X147681000Y-70439600D02*
X146786600Y-69545200D01*
X146786600Y-69545200D02*
X145643600Y-69545200D01*
X148361400Y-62407800D02*
X147802600Y-62407800D01*
X147802600Y-62407800D02*
X146964400Y-63398400D01*
X146964400Y-63398400D02*
X146964400Y-67939600D01*
X145643600Y-69545200D02*
X145643600Y-68173600D01*
X145643600Y-68173600D02*
X145877600Y-67939600D01*
X145877600Y-67939600D02*
X146964400Y-67939600D01*
X148009600Y-59690000D02*
X147831800Y-61878200D01*
X147831800Y-61878200D02*
X148361400Y-62407800D01*
X145034000Y-79552800D02*
X145034000Y-82122000D01*
X145034000Y-82122000D02*
X145411200Y-82499200D01*
X145034000Y-79552800D02*
X145796000Y-79552800D01*
X145796000Y-79552800D02*
X146659600Y-78689200D01*
X146659600Y-78689200D02*
X146659600Y-71775000D01*
X145389600Y-71775000D02*
X146659600Y-71775000D01*
X146659600Y-71775000D02*
X147162200Y-71775000D01*
X147162200Y-71775000D02*
X148234400Y-72847200D01*
X115112800Y-82135980D02*
X115112800Y-84602000D01*
X115112800Y-84602000D02*
X115404900Y-84894100D01*
X111861600Y-82791300D02*
X114457480Y-82791300D01*
X114457480Y-82791300D02*
X115112800Y-82135980D01*
X111861600Y-82791300D02*
X111861600Y-80625940D01*
X111861600Y-80625940D02*
X112215920Y-80271620D01*
X111968600Y-80518940D02*
X112215920Y-80271620D01*
D24*
G36*
X101688077Y-75906503D02*
X101699873Y-75914922D01*
X101707926Y-75926974D01*
X101846346Y-76019464D01*
X101981845Y-76116172D01*
X101995966Y-76119436D01*
X102008018Y-76127489D01*
X102171288Y-76159965D01*
X102333489Y-76197461D01*
X102347786Y-76195073D01*
X102362000Y-76197900D01*
X102667919Y-76197900D01*
X102837283Y-76451371D01*
X103044756Y-76590000D01*
X102837283Y-76728629D01*
X102490447Y-77247707D01*
X102368654Y-77860000D01*
X102490447Y-78472293D01*
X102837283Y-78991371D01*
X103044756Y-79130000D01*
X102837283Y-79268629D01*
X102490447Y-79787707D01*
X102368654Y-80400000D01*
X102490447Y-81012293D01*
X102837283Y-81531371D01*
X103044756Y-81670000D01*
X102837283Y-81808629D01*
X102490447Y-82327707D01*
X102368654Y-82940000D01*
X102490447Y-83552293D01*
X102749998Y-83940739D01*
X102749998Y-84495466D01*
X102534759Y-84817631D01*
X102646664Y-85055000D01*
X103575000Y-85055000D01*
X103575000Y-84630000D01*
X104425000Y-84630000D01*
X104425000Y-85055000D01*
X104850000Y-85055000D01*
X104850000Y-85905000D01*
X104425000Y-85905000D01*
X104425000Y-86330000D01*
X103575000Y-86330000D01*
X103575000Y-85905000D01*
X102646664Y-85905000D01*
X102534759Y-86142369D01*
X102749998Y-86464534D01*
X102749998Y-87019261D01*
X102490447Y-87407707D01*
X102368654Y-88020000D01*
X102490447Y-88632293D01*
X102837283Y-89151371D01*
X103356361Y-89498207D01*
X103968654Y-89620000D01*
X104031346Y-89620000D01*
X104643639Y-89498207D01*
X105162717Y-89151371D01*
X105509553Y-88632293D01*
X105631346Y-88020000D01*
X105629825Y-88012356D01*
X107555018Y-86102240D01*
X107556054Y-86100703D01*
X107557594Y-86099674D01*
X107656832Y-85951153D01*
X107756711Y-85802939D01*
X107757080Y-85801122D01*
X107758109Y-85799582D01*
X107792960Y-85624374D01*
X107828513Y-85449236D01*
X107828159Y-85447417D01*
X107828520Y-85445600D01*
X107828520Y-84022105D01*
X108696481Y-84022105D01*
X108781583Y-84270146D01*
X109391664Y-84379539D01*
X109941617Y-84270146D01*
X110026719Y-84022105D01*
X109361600Y-83356985D01*
X108696481Y-84022105D01*
X107828520Y-84022105D01*
X107828520Y-83098666D01*
X107882754Y-83371317D01*
X108130795Y-83456419D01*
X108795915Y-82791300D01*
X108130795Y-82126181D01*
X107882754Y-82211283D01*
X107828520Y-82513744D01*
X107828520Y-79811937D01*
X108001227Y-79637891D01*
X108001227Y-80921620D01*
X108053524Y-81199553D01*
X108217782Y-81454818D01*
X108468412Y-81626066D01*
X108765920Y-81686313D01*
X108822299Y-81686313D01*
X109361600Y-82225615D01*
X109900901Y-81686313D01*
X110265920Y-81686313D01*
X110543853Y-81634016D01*
X110799118Y-81469758D01*
X110865180Y-81373072D01*
X110917782Y-81454818D01*
X110936600Y-81467676D01*
X110936600Y-81524567D01*
X110548340Y-81912149D01*
X110365068Y-82353518D01*
X109927285Y-82791300D01*
X110365610Y-83229625D01*
X110546808Y-83668157D01*
X110982449Y-84104560D01*
X111551933Y-84341030D01*
X112168561Y-84341568D01*
X112738457Y-84106092D01*
X113128931Y-83716300D01*
X114164479Y-83716300D01*
X114075454Y-83846592D01*
X114015207Y-84144100D01*
X114015207Y-85644100D01*
X114067504Y-85922033D01*
X114154898Y-86057848D01*
X114154898Y-86197128D01*
X114137299Y-86214727D01*
X114021900Y-86493324D01*
X114021900Y-86829600D01*
X114211400Y-87019100D01*
X115092400Y-87019100D01*
X115092400Y-86644100D01*
X115717400Y-86644100D01*
X115717400Y-86986632D01*
X115708131Y-86995901D01*
X115717400Y-87005170D01*
X115717400Y-87019100D01*
X115731330Y-87019100D01*
X116029900Y-87317670D01*
X116029900Y-87434330D01*
X115708131Y-87756099D01*
X115721132Y-87769100D01*
X115717400Y-87769100D01*
X115717400Y-88712600D01*
X115906900Y-88902100D01*
X116180675Y-88902100D01*
X116459272Y-88786702D01*
X116599003Y-88646971D01*
X117475901Y-89523869D01*
X117847308Y-89152462D01*
X117940358Y-89166455D01*
X118463241Y-89062448D01*
X118579345Y-88806452D01*
X117856000Y-88083107D01*
X117502447Y-88436661D01*
X116795340Y-87729554D01*
X117148893Y-87376000D01*
X118563107Y-87376000D01*
X119286452Y-88099345D01*
X119542448Y-87983241D01*
X119646455Y-87291642D01*
X119542448Y-86768759D01*
X119286452Y-86652655D01*
X118563107Y-87376000D01*
X117148893Y-87376000D01*
X116795340Y-87022447D01*
X117502447Y-86315340D01*
X117856000Y-86668893D01*
X118579345Y-85945548D01*
X118463241Y-85689552D01*
X117844231Y-85596461D01*
X117475901Y-85228131D01*
X116673774Y-86030258D01*
X116734346Y-85941608D01*
X116794593Y-85644100D01*
X116794593Y-84144100D01*
X116742296Y-83866167D01*
X116578038Y-83610902D01*
X116327408Y-83439654D01*
X116037800Y-83381007D01*
X116037800Y-83376631D01*
X116208816Y-83262362D01*
X116544813Y-82759505D01*
X116655430Y-82203398D01*
X117475901Y-83023869D01*
X117847308Y-82652462D01*
X117940358Y-82666455D01*
X118463241Y-82562448D01*
X118579345Y-82306452D01*
X117856000Y-81583107D01*
X117502447Y-81936661D01*
X116795340Y-81229554D01*
X117148893Y-80876000D01*
X116795340Y-80522447D01*
X117182886Y-80134900D01*
X117822007Y-80134900D01*
X117856000Y-80168893D01*
X117889993Y-80134900D01*
X118529114Y-80134900D01*
X118916661Y-80522447D01*
X118563107Y-80876000D01*
X119286452Y-81599345D01*
X119542448Y-81483241D01*
X119635539Y-80864231D01*
X119769761Y-80730009D01*
X120569826Y-81530074D01*
X120794893Y-81680459D01*
X120871557Y-81866001D01*
X121363410Y-82358713D01*
X121431000Y-82386779D01*
X121431000Y-85864699D01*
X121365999Y-85891557D01*
X120873287Y-86383410D01*
X120606304Y-87026376D01*
X120605696Y-87722569D01*
X120871557Y-88366001D01*
X121363410Y-88858713D01*
X122006376Y-89125696D01*
X122702569Y-89126304D01*
X123346001Y-88860443D01*
X123400086Y-88806452D01*
X126784655Y-88806452D01*
X126900759Y-89062448D01*
X127592358Y-89166455D01*
X128115241Y-89062448D01*
X128231345Y-88806452D01*
X127508000Y-88083107D01*
X126784655Y-88806452D01*
X123400086Y-88806452D01*
X123838713Y-88368590D01*
X124105696Y-87725624D01*
X124105927Y-87460358D01*
X125717545Y-87460358D01*
X125821552Y-87983241D01*
X126077548Y-88099345D01*
X126800893Y-87376000D01*
X128215107Y-87376000D01*
X128938452Y-88099345D01*
X129194448Y-87983241D01*
X129298455Y-87291642D01*
X129194448Y-86768759D01*
X128938452Y-86652655D01*
X128215107Y-87376000D01*
X126800893Y-87376000D01*
X126077548Y-86652655D01*
X125821552Y-86768759D01*
X125717545Y-87460358D01*
X124105927Y-87460358D01*
X124106304Y-87029431D01*
X123840443Y-86385999D01*
X123400760Y-85945548D01*
X126784655Y-85945548D01*
X127508000Y-86668893D01*
X128231345Y-85945548D01*
X128115241Y-85689552D01*
X127423642Y-85585545D01*
X126900759Y-85689552D01*
X126784655Y-85945548D01*
X123400760Y-85945548D01*
X123348590Y-85893287D01*
X123281000Y-85865221D01*
X123281000Y-82387301D01*
X123346001Y-82360443D01*
X123400086Y-82306452D01*
X126784655Y-82306452D01*
X126900759Y-82562448D01*
X127592358Y-82666455D01*
X128115241Y-82562448D01*
X128231345Y-82306452D01*
X127508000Y-81583107D01*
X126784655Y-82306452D01*
X123400086Y-82306452D01*
X123838713Y-81868590D01*
X124105696Y-81225624D01*
X124106304Y-80529431D01*
X123866380Y-79948771D01*
X124009784Y-79667235D01*
X126180252Y-79675780D01*
X125360131Y-80495901D01*
X125731538Y-80867308D01*
X125717545Y-80960358D01*
X125821552Y-81483241D01*
X126077548Y-81599345D01*
X126800893Y-80876000D01*
X126447340Y-80522447D01*
X127154447Y-79815340D01*
X127508000Y-80168893D01*
X127861554Y-79815340D01*
X128568661Y-80522447D01*
X128215107Y-80876000D01*
X128938452Y-81599345D01*
X129194448Y-81483241D01*
X129287539Y-80864231D01*
X129655869Y-80495901D01*
X128846244Y-79686276D01*
X130715394Y-79693635D01*
X130525287Y-79883410D01*
X130258304Y-80526376D01*
X130257696Y-81222569D01*
X130523557Y-81866001D01*
X131015410Y-82358713D01*
X131083000Y-82386779D01*
X131083000Y-85864699D01*
X131017999Y-85891557D01*
X130525287Y-86383410D01*
X130258304Y-87026376D01*
X130257696Y-87722569D01*
X130523557Y-88366001D01*
X131015410Y-88858713D01*
X131658376Y-89125696D01*
X132354569Y-89126304D01*
X132422208Y-89098356D01*
X133073852Y-89750000D01*
X112683850Y-89750000D01*
X113357090Y-89077934D01*
X113781516Y-88055802D01*
X113781600Y-87958600D01*
X114021900Y-87958600D01*
X114021900Y-88294876D01*
X114137299Y-88573473D01*
X114350528Y-88786702D01*
X114629125Y-88902100D01*
X114902900Y-88902100D01*
X115092400Y-88712600D01*
X115092400Y-87769100D01*
X114211400Y-87769100D01*
X114021900Y-87958600D01*
X113781600Y-87958600D01*
X113782482Y-86949054D01*
X113359840Y-85926182D01*
X112577934Y-85142910D01*
X111555802Y-84718484D01*
X110449054Y-84717518D01*
X109426182Y-85140160D01*
X108642910Y-85922066D01*
X108218484Y-86944198D01*
X108217518Y-88050946D01*
X108640160Y-89073818D01*
X109315163Y-89750000D01*
X101250000Y-89750000D01*
X101250000Y-75440548D01*
X101688077Y-75906503D01*
X101688077Y-75906503D01*
G37*
X101688077Y-75906503D02*
X101699873Y-75914922D01*
X101707926Y-75926974D01*
X101846346Y-76019464D01*
X101981845Y-76116172D01*
X101995966Y-76119436D01*
X102008018Y-76127489D01*
X102171288Y-76159965D01*
X102333489Y-76197461D01*
X102347786Y-76195073D01*
X102362000Y-76197900D01*
X102667919Y-76197900D01*
X102837283Y-76451371D01*
X103044756Y-76590000D01*
X102837283Y-76728629D01*
X102490447Y-77247707D01*
X102368654Y-77860000D01*
X102490447Y-78472293D01*
X102837283Y-78991371D01*
X103044756Y-79130000D01*
X102837283Y-79268629D01*
X102490447Y-79787707D01*
X102368654Y-80400000D01*
X102490447Y-81012293D01*
X102837283Y-81531371D01*
X103044756Y-81670000D01*
X102837283Y-81808629D01*
X102490447Y-82327707D01*
X102368654Y-82940000D01*
X102490447Y-83552293D01*
X102749998Y-83940739D01*
X102749998Y-84495466D01*
X102534759Y-84817631D01*
X102646664Y-85055000D01*
X103575000Y-85055000D01*
X103575000Y-84630000D01*
X104425000Y-84630000D01*
X104425000Y-85055000D01*
X104850000Y-85055000D01*
X104850000Y-85905000D01*
X104425000Y-85905000D01*
X104425000Y-86330000D01*
X103575000Y-86330000D01*
X103575000Y-85905000D01*
X102646664Y-85905000D01*
X102534759Y-86142369D01*
X102749998Y-86464534D01*
X102749998Y-87019261D01*
X102490447Y-87407707D01*
X102368654Y-88020000D01*
X102490447Y-88632293D01*
X102837283Y-89151371D01*
X103356361Y-89498207D01*
X103968654Y-89620000D01*
X104031346Y-89620000D01*
X104643639Y-89498207D01*
X105162717Y-89151371D01*
X105509553Y-88632293D01*
X105631346Y-88020000D01*
X105629825Y-88012356D01*
X107555018Y-86102240D01*
X107556054Y-86100703D01*
X107557594Y-86099674D01*
X107656832Y-85951153D01*
X107756711Y-85802939D01*
X107757080Y-85801122D01*
X107758109Y-85799582D01*
X107792960Y-85624374D01*
X107828513Y-85449236D01*
X107828159Y-85447417D01*
X107828520Y-85445600D01*
X107828520Y-84022105D01*
X108696481Y-84022105D01*
X108781583Y-84270146D01*
X109391664Y-84379539D01*
X109941617Y-84270146D01*
X110026719Y-84022105D01*
X109361600Y-83356985D01*
X108696481Y-84022105D01*
X107828520Y-84022105D01*
X107828520Y-83098666D01*
X107882754Y-83371317D01*
X108130795Y-83456419D01*
X108795915Y-82791300D01*
X108130795Y-82126181D01*
X107882754Y-82211283D01*
X107828520Y-82513744D01*
X107828520Y-79811937D01*
X108001227Y-79637891D01*
X108001227Y-80921620D01*
X108053524Y-81199553D01*
X108217782Y-81454818D01*
X108468412Y-81626066D01*
X108765920Y-81686313D01*
X108822299Y-81686313D01*
X109361600Y-82225615D01*
X109900901Y-81686313D01*
X110265920Y-81686313D01*
X110543853Y-81634016D01*
X110799118Y-81469758D01*
X110865180Y-81373072D01*
X110917782Y-81454818D01*
X110936600Y-81467676D01*
X110936600Y-81524567D01*
X110548340Y-81912149D01*
X110365068Y-82353518D01*
X109927285Y-82791300D01*
X110365610Y-83229625D01*
X110546808Y-83668157D01*
X110982449Y-84104560D01*
X111551933Y-84341030D01*
X112168561Y-84341568D01*
X112738457Y-84106092D01*
X113128931Y-83716300D01*
X114164479Y-83716300D01*
X114075454Y-83846592D01*
X114015207Y-84144100D01*
X114015207Y-85644100D01*
X114067504Y-85922033D01*
X114154898Y-86057848D01*
X114154898Y-86197128D01*
X114137299Y-86214727D01*
X114021900Y-86493324D01*
X114021900Y-86829600D01*
X114211400Y-87019100D01*
X115092400Y-87019100D01*
X115092400Y-86644100D01*
X115717400Y-86644100D01*
X115717400Y-86986632D01*
X115708131Y-86995901D01*
X115717400Y-87005170D01*
X115717400Y-87019100D01*
X115731330Y-87019100D01*
X116029900Y-87317670D01*
X116029900Y-87434330D01*
X115708131Y-87756099D01*
X115721132Y-87769100D01*
X115717400Y-87769100D01*
X115717400Y-88712600D01*
X115906900Y-88902100D01*
X116180675Y-88902100D01*
X116459272Y-88786702D01*
X116599003Y-88646971D01*
X117475901Y-89523869D01*
X117847308Y-89152462D01*
X117940358Y-89166455D01*
X118463241Y-89062448D01*
X118579345Y-88806452D01*
X117856000Y-88083107D01*
X117502447Y-88436661D01*
X116795340Y-87729554D01*
X117148893Y-87376000D01*
X118563107Y-87376000D01*
X119286452Y-88099345D01*
X119542448Y-87983241D01*
X119646455Y-87291642D01*
X119542448Y-86768759D01*
X119286452Y-86652655D01*
X118563107Y-87376000D01*
X117148893Y-87376000D01*
X116795340Y-87022447D01*
X117502447Y-86315340D01*
X117856000Y-86668893D01*
X118579345Y-85945548D01*
X118463241Y-85689552D01*
X117844231Y-85596461D01*
X117475901Y-85228131D01*
X116673774Y-86030258D01*
X116734346Y-85941608D01*
X116794593Y-85644100D01*
X116794593Y-84144100D01*
X116742296Y-83866167D01*
X116578038Y-83610902D01*
X116327408Y-83439654D01*
X116037800Y-83381007D01*
X116037800Y-83376631D01*
X116208816Y-83262362D01*
X116544813Y-82759505D01*
X116655430Y-82203398D01*
X117475901Y-83023869D01*
X117847308Y-82652462D01*
X117940358Y-82666455D01*
X118463241Y-82562448D01*
X118579345Y-82306452D01*
X117856000Y-81583107D01*
X117502447Y-81936661D01*
X116795340Y-81229554D01*
X117148893Y-80876000D01*
X116795340Y-80522447D01*
X117182886Y-80134900D01*
X117822007Y-80134900D01*
X117856000Y-80168893D01*
X117889993Y-80134900D01*
X118529114Y-80134900D01*
X118916661Y-80522447D01*
X118563107Y-80876000D01*
X119286452Y-81599345D01*
X119542448Y-81483241D01*
X119635539Y-80864231D01*
X119769761Y-80730009D01*
X120569826Y-81530074D01*
X120794893Y-81680459D01*
X120871557Y-81866001D01*
X121363410Y-82358713D01*
X121431000Y-82386779D01*
X121431000Y-85864699D01*
X121365999Y-85891557D01*
X120873287Y-86383410D01*
X120606304Y-87026376D01*
X120605696Y-87722569D01*
X120871557Y-88366001D01*
X121363410Y-88858713D01*
X122006376Y-89125696D01*
X122702569Y-89126304D01*
X123346001Y-88860443D01*
X123400086Y-88806452D01*
X126784655Y-88806452D01*
X126900759Y-89062448D01*
X127592358Y-89166455D01*
X128115241Y-89062448D01*
X128231345Y-88806452D01*
X127508000Y-88083107D01*
X126784655Y-88806452D01*
X123400086Y-88806452D01*
X123838713Y-88368590D01*
X124105696Y-87725624D01*
X124105927Y-87460358D01*
X125717545Y-87460358D01*
X125821552Y-87983241D01*
X126077548Y-88099345D01*
X126800893Y-87376000D01*
X128215107Y-87376000D01*
X128938452Y-88099345D01*
X129194448Y-87983241D01*
X129298455Y-87291642D01*
X129194448Y-86768759D01*
X128938452Y-86652655D01*
X128215107Y-87376000D01*
X126800893Y-87376000D01*
X126077548Y-86652655D01*
X125821552Y-86768759D01*
X125717545Y-87460358D01*
X124105927Y-87460358D01*
X124106304Y-87029431D01*
X123840443Y-86385999D01*
X123400760Y-85945548D01*
X126784655Y-85945548D01*
X127508000Y-86668893D01*
X128231345Y-85945548D01*
X128115241Y-85689552D01*
X127423642Y-85585545D01*
X126900759Y-85689552D01*
X126784655Y-85945548D01*
X123400760Y-85945548D01*
X123348590Y-85893287D01*
X123281000Y-85865221D01*
X123281000Y-82387301D01*
X123346001Y-82360443D01*
X123400086Y-82306452D01*
X126784655Y-82306452D01*
X126900759Y-82562448D01*
X127592358Y-82666455D01*
X128115241Y-82562448D01*
X128231345Y-82306452D01*
X127508000Y-81583107D01*
X126784655Y-82306452D01*
X123400086Y-82306452D01*
X123838713Y-81868590D01*
X124105696Y-81225624D01*
X124106304Y-80529431D01*
X123866380Y-79948771D01*
X124009784Y-79667235D01*
X126180252Y-79675780D01*
X125360131Y-80495901D01*
X125731538Y-80867308D01*
X125717545Y-80960358D01*
X125821552Y-81483241D01*
X126077548Y-81599345D01*
X126800893Y-80876000D01*
X126447340Y-80522447D01*
X127154447Y-79815340D01*
X127508000Y-80168893D01*
X127861554Y-79815340D01*
X128568661Y-80522447D01*
X128215107Y-80876000D01*
X128938452Y-81599345D01*
X129194448Y-81483241D01*
X129287539Y-80864231D01*
X129655869Y-80495901D01*
X128846244Y-79686276D01*
X130715394Y-79693635D01*
X130525287Y-79883410D01*
X130258304Y-80526376D01*
X130257696Y-81222569D01*
X130523557Y-81866001D01*
X131015410Y-82358713D01*
X131083000Y-82386779D01*
X131083000Y-85864699D01*
X131017999Y-85891557D01*
X130525287Y-86383410D01*
X130258304Y-87026376D01*
X130257696Y-87722569D01*
X130523557Y-88366001D01*
X131015410Y-88858713D01*
X131658376Y-89125696D01*
X132354569Y-89126304D01*
X132422208Y-89098356D01*
X133073852Y-89750000D01*
X112683850Y-89750000D01*
X113357090Y-89077934D01*
X113781516Y-88055802D01*
X113781600Y-87958600D01*
X114021900Y-87958600D01*
X114021900Y-88294876D01*
X114137299Y-88573473D01*
X114350528Y-88786702D01*
X114629125Y-88902100D01*
X114902900Y-88902100D01*
X115092400Y-88712600D01*
X115092400Y-87769100D01*
X114211400Y-87769100D01*
X114021900Y-87958600D01*
X113781600Y-87958600D01*
X113782482Y-86949054D01*
X113359840Y-85926182D01*
X112577934Y-85142910D01*
X111555802Y-84718484D01*
X110449054Y-84717518D01*
X109426182Y-85140160D01*
X108642910Y-85922066D01*
X108218484Y-86944198D01*
X108217518Y-88050946D01*
X108640160Y-89073818D01*
X109315163Y-89750000D01*
X101250000Y-89750000D01*
X101250000Y-75440548D01*
X101688077Y-75906503D01*
G36*
X136336400Y-54563293D02*
X136680054Y-54219639D01*
X136793025Y-54312811D01*
X137071707Y-54591493D01*
X137071707Y-55242200D01*
X137043507Y-55270400D01*
X137071707Y-55298600D01*
X137071707Y-55949307D01*
X136689954Y-56331061D01*
X136336400Y-55977507D01*
X135613055Y-56700852D01*
X135729159Y-56956848D01*
X136348169Y-57049939D01*
X136716499Y-57418269D01*
X137313753Y-56821015D01*
X137538892Y-56974846D01*
X137836400Y-57035093D01*
X139678208Y-57035093D01*
X142498014Y-60405707D01*
X140936400Y-60405707D01*
X140658467Y-60458004D01*
X140403202Y-60622262D01*
X140231954Y-60872892D01*
X140171707Y-61170400D01*
X140171707Y-64370400D01*
X140224004Y-64648333D01*
X140388262Y-64903598D01*
X140638892Y-65074846D01*
X140936400Y-65135093D01*
X142839000Y-65135093D01*
X142839000Y-78131421D01*
X141965433Y-79126265D01*
X141313431Y-79125696D01*
X140669999Y-79391557D01*
X140177287Y-79883410D01*
X139910304Y-80526376D01*
X139909696Y-81222569D01*
X140175557Y-81866001D01*
X140667410Y-82358713D01*
X140735000Y-82386779D01*
X140735000Y-85864699D01*
X140669999Y-85891557D01*
X140177287Y-86383410D01*
X139910304Y-87026376D01*
X139909696Y-87722569D01*
X140118949Y-88229000D01*
X138834968Y-88229000D01*
X139307869Y-87756099D01*
X138936462Y-87384692D01*
X138950455Y-87291642D01*
X138846448Y-86768759D01*
X138590452Y-86652655D01*
X137867107Y-87376000D01*
X138220661Y-87729554D01*
X137721214Y-88229000D01*
X137305893Y-88229000D01*
X137160000Y-88083107D01*
X137014107Y-88229000D01*
X136598786Y-88229000D01*
X136099340Y-87729554D01*
X136452893Y-87376000D01*
X135729548Y-86652655D01*
X135473552Y-86768759D01*
X135380461Y-87387769D01*
X135012131Y-87756099D01*
X135485032Y-88229000D01*
X134169148Y-88229000D01*
X133730725Y-87790577D01*
X133757696Y-87725624D01*
X133758304Y-87029431D01*
X133492443Y-86385999D01*
X133052760Y-85945548D01*
X136436655Y-85945548D01*
X137160000Y-86668893D01*
X137883345Y-85945548D01*
X137767241Y-85689552D01*
X137075642Y-85585545D01*
X136552759Y-85689552D01*
X136436655Y-85945548D01*
X133052760Y-85945548D01*
X133000590Y-85893287D01*
X132933000Y-85865221D01*
X132933000Y-82387301D01*
X132998001Y-82360443D01*
X133052086Y-82306452D01*
X136436655Y-82306452D01*
X136552759Y-82562448D01*
X137244358Y-82666455D01*
X137767241Y-82562448D01*
X137883345Y-82306452D01*
X137160000Y-81583107D01*
X136436655Y-82306452D01*
X133052086Y-82306452D01*
X133490713Y-81868590D01*
X133757696Y-81225624D01*
X133758304Y-80529431D01*
X133492443Y-79885999D01*
X133310614Y-79703852D01*
X135794401Y-79713631D01*
X135012131Y-80495901D01*
X135383538Y-80867308D01*
X135369545Y-80960358D01*
X135473552Y-81483241D01*
X135729548Y-81599345D01*
X136452893Y-80876000D01*
X136099340Y-80522447D01*
X136806447Y-79815340D01*
X137160000Y-80168893D01*
X137513554Y-79815340D01*
X138220661Y-80522447D01*
X137867107Y-80876000D01*
X138590452Y-81599345D01*
X138846448Y-81483241D01*
X138939539Y-80864231D01*
X139307869Y-80495901D01*
X138536394Y-79724426D01*
X138680358Y-79724993D01*
X138787137Y-79704190D01*
X138895863Y-79700411D01*
X138962616Y-79670003D01*
X139034615Y-79655976D01*
X139125310Y-79595891D01*
X139224308Y-79550794D01*
X141954808Y-77585795D01*
X142006078Y-77530832D01*
X142068574Y-77489074D01*
X142128016Y-77400113D01*
X142200996Y-77321877D01*
X142227330Y-77251479D01*
X142269089Y-77188982D01*
X142289962Y-77084045D01*
X142327447Y-76983837D01*
X142324836Y-76908721D01*
X142339500Y-76835000D01*
X142339500Y-70866000D01*
X142269089Y-70512018D01*
X142068574Y-70211926D01*
X142068571Y-70211924D01*
X140947574Y-69090926D01*
X140940751Y-69086367D01*
X140936074Y-69079625D01*
X140790971Y-68986287D01*
X140647483Y-68890411D01*
X140639434Y-68888810D01*
X140632533Y-68884371D01*
X140462750Y-68853666D01*
X140341120Y-68829472D01*
X140320843Y-68780399D01*
X139828990Y-68287687D01*
X139186024Y-68020704D01*
X138489831Y-68020096D01*
X137846399Y-68285957D01*
X137839557Y-68292787D01*
X134985010Y-66977852D01*
X134970092Y-66974275D01*
X134957388Y-66965670D01*
X134795134Y-66932327D01*
X134634041Y-66893702D01*
X134618886Y-66896107D01*
X134603859Y-66893019D01*
X121867224Y-66812354D01*
X121811102Y-66728361D01*
X121811102Y-66173634D01*
X122026341Y-65851469D01*
X121914436Y-65614100D01*
X120986100Y-65614100D01*
X120986100Y-66039100D01*
X120136100Y-66039100D01*
X120136100Y-65614100D01*
X119711100Y-65614100D01*
X119711100Y-64764100D01*
X120136100Y-64764100D01*
X120136100Y-64339100D01*
X120986100Y-64339100D01*
X120986100Y-64764100D01*
X121914436Y-64764100D01*
X122026341Y-64526731D01*
X121811102Y-64204566D01*
X121811102Y-63649839D01*
X122070653Y-63261393D01*
X122192446Y-62649100D01*
X122070653Y-62036807D01*
X121723817Y-61517729D01*
X121516344Y-61379100D01*
X121723817Y-61240471D01*
X122070653Y-60721393D01*
X122185490Y-60144071D01*
X123667607Y-61608207D01*
X123667607Y-61812045D01*
X122815326Y-62664326D01*
X122614811Y-62964417D01*
X122565501Y-63212316D01*
X122544400Y-63318400D01*
X122544400Y-65468500D01*
X122614811Y-65822483D01*
X122815326Y-66122574D01*
X123234426Y-66541674D01*
X123534517Y-66742189D01*
X123888500Y-66812600D01*
X126428500Y-66812600D01*
X126782483Y-66742189D01*
X127082574Y-66541674D01*
X127913474Y-65710774D01*
X127999762Y-65693610D01*
X128767865Y-66461713D01*
X128772002Y-66464477D01*
X128774810Y-66468585D01*
X128921870Y-66564616D01*
X129067957Y-66662228D01*
X129072839Y-66663199D01*
X129077004Y-66665919D01*
X129249560Y-66698351D01*
X129421939Y-66732640D01*
X129426823Y-66731668D01*
X129431710Y-66732587D01*
X131480170Y-66710948D01*
X131603185Y-66685125D01*
X131728426Y-66674284D01*
X131778343Y-66648357D01*
X131833389Y-66636802D01*
X131937163Y-66565866D01*
X132048716Y-66507925D01*
X134410916Y-64615625D01*
X134443836Y-64576466D01*
X134486386Y-64548062D01*
X134559054Y-64439410D01*
X134643163Y-64339360D01*
X134658591Y-64290585D01*
X134687033Y-64248059D01*
X134712591Y-64119867D01*
X134752009Y-63995247D01*
X134747597Y-63944280D01*
X134757600Y-63894108D01*
X134760734Y-56781976D01*
X134826401Y-56754843D01*
X135319113Y-56262990D01*
X135586096Y-55620024D01*
X135586364Y-55313329D01*
X135629293Y-55270400D01*
X135586439Y-55227546D01*
X135586704Y-54923831D01*
X135493741Y-54698845D01*
X135982847Y-54209740D01*
X136336400Y-54563293D01*
X136336400Y-54563293D01*
G37*
X136336400Y-54563293D02*
X136680054Y-54219639D01*
X136793025Y-54312811D01*
X137071707Y-54591493D01*
X137071707Y-55242200D01*
X137043507Y-55270400D01*
X137071707Y-55298600D01*
X137071707Y-55949307D01*
X136689954Y-56331061D01*
X136336400Y-55977507D01*
X135613055Y-56700852D01*
X135729159Y-56956848D01*
X136348169Y-57049939D01*
X136716499Y-57418269D01*
X137313753Y-56821015D01*
X137538892Y-56974846D01*
X137836400Y-57035093D01*
X139678208Y-57035093D01*
X142498014Y-60405707D01*
X140936400Y-60405707D01*
X140658467Y-60458004D01*
X140403202Y-60622262D01*
X140231954Y-60872892D01*
X140171707Y-61170400D01*
X140171707Y-64370400D01*
X140224004Y-64648333D01*
X140388262Y-64903598D01*
X140638892Y-65074846D01*
X140936400Y-65135093D01*
X142839000Y-65135093D01*
X142839000Y-78131421D01*
X141965433Y-79126265D01*
X141313431Y-79125696D01*
X140669999Y-79391557D01*
X140177287Y-79883410D01*
X139910304Y-80526376D01*
X139909696Y-81222569D01*
X140175557Y-81866001D01*
X140667410Y-82358713D01*
X140735000Y-82386779D01*
X140735000Y-85864699D01*
X140669999Y-85891557D01*
X140177287Y-86383410D01*
X139910304Y-87026376D01*
X139909696Y-87722569D01*
X140118949Y-88229000D01*
X138834968Y-88229000D01*
X139307869Y-87756099D01*
X138936462Y-87384692D01*
X138950455Y-87291642D01*
X138846448Y-86768759D01*
X138590452Y-86652655D01*
X137867107Y-87376000D01*
X138220661Y-87729554D01*
X137721214Y-88229000D01*
X137305893Y-88229000D01*
X137160000Y-88083107D01*
X137014107Y-88229000D01*
X136598786Y-88229000D01*
X136099340Y-87729554D01*
X136452893Y-87376000D01*
X135729548Y-86652655D01*
X135473552Y-86768759D01*
X135380461Y-87387769D01*
X135012131Y-87756099D01*
X135485032Y-88229000D01*
X134169148Y-88229000D01*
X133730725Y-87790577D01*
X133757696Y-87725624D01*
X133758304Y-87029431D01*
X133492443Y-86385999D01*
X133052760Y-85945548D01*
X136436655Y-85945548D01*
X137160000Y-86668893D01*
X137883345Y-85945548D01*
X137767241Y-85689552D01*
X137075642Y-85585545D01*
X136552759Y-85689552D01*
X136436655Y-85945548D01*
X133052760Y-85945548D01*
X133000590Y-85893287D01*
X132933000Y-85865221D01*
X132933000Y-82387301D01*
X132998001Y-82360443D01*
X133052086Y-82306452D01*
X136436655Y-82306452D01*
X136552759Y-82562448D01*
X137244358Y-82666455D01*
X137767241Y-82562448D01*
X137883345Y-82306452D01*
X137160000Y-81583107D01*
X136436655Y-82306452D01*
X133052086Y-82306452D01*
X133490713Y-81868590D01*
X133757696Y-81225624D01*
X133758304Y-80529431D01*
X133492443Y-79885999D01*
X133310614Y-79703852D01*
X135794401Y-79713631D01*
X135012131Y-80495901D01*
X135383538Y-80867308D01*
X135369545Y-80960358D01*
X135473552Y-81483241D01*
X135729548Y-81599345D01*
X136452893Y-80876000D01*
X136099340Y-80522447D01*
X136806447Y-79815340D01*
X137160000Y-80168893D01*
X137513554Y-79815340D01*
X138220661Y-80522447D01*
X137867107Y-80876000D01*
X138590452Y-81599345D01*
X138846448Y-81483241D01*
X138939539Y-80864231D01*
X139307869Y-80495901D01*
X138536394Y-79724426D01*
X138680358Y-79724993D01*
X138787137Y-79704190D01*
X138895863Y-79700411D01*
X138962616Y-79670003D01*
X139034615Y-79655976D01*
X139125310Y-79595891D01*
X139224308Y-79550794D01*
X141954808Y-77585795D01*
X142006078Y-77530832D01*
X142068574Y-77489074D01*
X142128016Y-77400113D01*
X142200996Y-77321877D01*
X142227330Y-77251479D01*
X142269089Y-77188982D01*
X142289962Y-77084045D01*
X142327447Y-76983837D01*
X142324836Y-76908721D01*
X142339500Y-76835000D01*
X142339500Y-70866000D01*
X142269089Y-70512018D01*
X142068574Y-70211926D01*
X142068571Y-70211924D01*
X140947574Y-69090926D01*
X140940751Y-69086367D01*
X140936074Y-69079625D01*
X140790971Y-68986287D01*
X140647483Y-68890411D01*
X140639434Y-68888810D01*
X140632533Y-68884371D01*
X140462750Y-68853666D01*
X140341120Y-68829472D01*
X140320843Y-68780399D01*
X139828990Y-68287687D01*
X139186024Y-68020704D01*
X138489831Y-68020096D01*
X137846399Y-68285957D01*
X137839557Y-68292787D01*
X134985010Y-66977852D01*
X134970092Y-66974275D01*
X134957388Y-66965670D01*
X134795134Y-66932327D01*
X134634041Y-66893702D01*
X134618886Y-66896107D01*
X134603859Y-66893019D01*
X121867224Y-66812354D01*
X121811102Y-66728361D01*
X121811102Y-66173634D01*
X122026341Y-65851469D01*
X121914436Y-65614100D01*
X120986100Y-65614100D01*
X120986100Y-66039100D01*
X120136100Y-66039100D01*
X120136100Y-65614100D01*
X119711100Y-65614100D01*
X119711100Y-64764100D01*
X120136100Y-64764100D01*
X120136100Y-64339100D01*
X120986100Y-64339100D01*
X120986100Y-64764100D01*
X121914436Y-64764100D01*
X122026341Y-64526731D01*
X121811102Y-64204566D01*
X121811102Y-63649839D01*
X122070653Y-63261393D01*
X122192446Y-62649100D01*
X122070653Y-62036807D01*
X121723817Y-61517729D01*
X121516344Y-61379100D01*
X121723817Y-61240471D01*
X122070653Y-60721393D01*
X122185490Y-60144071D01*
X123667607Y-61608207D01*
X123667607Y-61812045D01*
X122815326Y-62664326D01*
X122614811Y-62964417D01*
X122565501Y-63212316D01*
X122544400Y-63318400D01*
X122544400Y-65468500D01*
X122614811Y-65822483D01*
X122815326Y-66122574D01*
X123234426Y-66541674D01*
X123534517Y-66742189D01*
X123888500Y-66812600D01*
X126428500Y-66812600D01*
X126782483Y-66742189D01*
X127082574Y-66541674D01*
X127913474Y-65710774D01*
X127999762Y-65693610D01*
X128767865Y-66461713D01*
X128772002Y-66464477D01*
X128774810Y-66468585D01*
X128921870Y-66564616D01*
X129067957Y-66662228D01*
X129072839Y-66663199D01*
X129077004Y-66665919D01*
X129249560Y-66698351D01*
X129421939Y-66732640D01*
X129426823Y-66731668D01*
X129431710Y-66732587D01*
X131480170Y-66710948D01*
X131603185Y-66685125D01*
X131728426Y-66674284D01*
X131778343Y-66648357D01*
X131833389Y-66636802D01*
X131937163Y-66565866D01*
X132048716Y-66507925D01*
X134410916Y-64615625D01*
X134443836Y-64576466D01*
X134486386Y-64548062D01*
X134559054Y-64439410D01*
X134643163Y-64339360D01*
X134658591Y-64290585D01*
X134687033Y-64248059D01*
X134712591Y-64119867D01*
X134752009Y-63995247D01*
X134747597Y-63944280D01*
X134757600Y-63894108D01*
X134760734Y-56781976D01*
X134826401Y-56754843D01*
X135319113Y-56262990D01*
X135586096Y-55620024D01*
X135586364Y-55313329D01*
X135629293Y-55270400D01*
X135586439Y-55227546D01*
X135586704Y-54923831D01*
X135493741Y-54698845D01*
X135982847Y-54209740D01*
X136336400Y-54563293D01*
G36*
X145734600Y-76622029D02*
X145734600Y-76917885D01*
X145599685Y-77052800D01*
X145734600Y-77187715D01*
X145734600Y-77483571D01*
X145316843Y-77901328D01*
X145034000Y-77618485D01*
X144751157Y-77901328D01*
X144689000Y-77839171D01*
X144689000Y-76266429D01*
X144751157Y-76204272D01*
X145034000Y-76487115D01*
X145316843Y-76204272D01*
X145734600Y-76622029D01*
X145734600Y-76622029D01*
G37*
X145734600Y-76622029D02*
X145734600Y-76917885D01*
X145599685Y-77052800D01*
X145734600Y-77187715D01*
X145734600Y-77483571D01*
X145316843Y-77901328D01*
X145034000Y-77618485D01*
X144751157Y-77901328D01*
X144689000Y-77839171D01*
X144689000Y-76266429D01*
X144751157Y-76204272D01*
X145034000Y-76487115D01*
X145316843Y-76204272D01*
X145734600Y-76622029D01*
G36*
X132350050Y-68728782D02*
X131688531Y-69390301D01*
X132059938Y-69761708D01*
X132045945Y-69854758D01*
X132149952Y-70377641D01*
X132405948Y-70493745D01*
X133129293Y-69770400D01*
X132775740Y-69416847D01*
X133456795Y-68735791D01*
X133509230Y-68736123D01*
X133836400Y-69063293D01*
X134159452Y-68740241D01*
X134220844Y-68740630D01*
X134897061Y-69416847D01*
X134543507Y-69770400D01*
X134897061Y-70123954D01*
X134189954Y-70831061D01*
X133836400Y-70477507D01*
X133113055Y-71200852D01*
X133229159Y-71456848D01*
X133848169Y-71549939D01*
X133908268Y-71610038D01*
X133316609Y-71959918D01*
X132957525Y-71719987D01*
X132364366Y-71602000D01*
X132303634Y-71602000D01*
X131710475Y-71719987D01*
X131207618Y-72055984D01*
X130871621Y-72558841D01*
X130753634Y-73152000D01*
X130871621Y-73745159D01*
X131207618Y-74248016D01*
X131710475Y-74584013D01*
X132303634Y-74702000D01*
X132364366Y-74702000D01*
X132368108Y-74701256D01*
X133660307Y-75993455D01*
X133660307Y-76850000D01*
X133712604Y-77127933D01*
X133746108Y-77180000D01*
X131880119Y-77180000D01*
X132105730Y-76636667D01*
X132106268Y-76020039D01*
X131870792Y-75450143D01*
X131435151Y-75013740D01*
X130865667Y-74777270D01*
X130468350Y-74776923D01*
X128826407Y-72806591D01*
X128948260Y-72684951D01*
X129184730Y-72115467D01*
X129185268Y-71498839D01*
X128949792Y-70928943D01*
X128514151Y-70492540D01*
X127944667Y-70256070D01*
X127328039Y-70255532D01*
X126895580Y-70434220D01*
X123157002Y-68670559D01*
X132350050Y-68728782D01*
X132350050Y-68728782D01*
G37*
X132350050Y-68728782D02*
X131688531Y-69390301D01*
X132059938Y-69761708D01*
X132045945Y-69854758D01*
X132149952Y-70377641D01*
X132405948Y-70493745D01*
X133129293Y-69770400D01*
X132775740Y-69416847D01*
X133456795Y-68735791D01*
X133509230Y-68736123D01*
X133836400Y-69063293D01*
X134159452Y-68740241D01*
X134220844Y-68740630D01*
X134897061Y-69416847D01*
X134543507Y-69770400D01*
X134897061Y-70123954D01*
X134189954Y-70831061D01*
X133836400Y-70477507D01*
X133113055Y-71200852D01*
X133229159Y-71456848D01*
X133848169Y-71549939D01*
X133908268Y-71610038D01*
X133316609Y-71959918D01*
X132957525Y-71719987D01*
X132364366Y-71602000D01*
X132303634Y-71602000D01*
X131710475Y-71719987D01*
X131207618Y-72055984D01*
X130871621Y-72558841D01*
X130753634Y-73152000D01*
X130871621Y-73745159D01*
X131207618Y-74248016D01*
X131710475Y-74584013D01*
X132303634Y-74702000D01*
X132364366Y-74702000D01*
X132368108Y-74701256D01*
X133660307Y-75993455D01*
X133660307Y-76850000D01*
X133712604Y-77127933D01*
X133746108Y-77180000D01*
X131880119Y-77180000D01*
X132105730Y-76636667D01*
X132106268Y-76020039D01*
X131870792Y-75450143D01*
X131435151Y-75013740D01*
X130865667Y-74777270D01*
X130468350Y-74776923D01*
X128826407Y-72806591D01*
X128948260Y-72684951D01*
X129184730Y-72115467D01*
X129185268Y-71498839D01*
X128949792Y-70928943D01*
X128514151Y-70492540D01*
X127944667Y-70256070D01*
X127328039Y-70255532D01*
X126895580Y-70434220D01*
X123157002Y-68670559D01*
X132350050Y-68728782D01*
G36*
X145702100Y-73900000D02*
X145734600Y-73900000D01*
X145734600Y-74650000D01*
X145702100Y-74650000D01*
X145702100Y-75025000D01*
X145077100Y-75025000D01*
X145077100Y-74650000D01*
X144764600Y-74650000D01*
X144764600Y-73900000D01*
X145077100Y-73900000D01*
X145077100Y-73525000D01*
X145702100Y-73525000D01*
X145702100Y-73900000D01*
X145702100Y-73900000D01*
G37*
X145702100Y-73900000D02*
X145734600Y-73900000D01*
X145734600Y-74650000D01*
X145702100Y-74650000D01*
X145702100Y-75025000D01*
X145077100Y-75025000D01*
X145077100Y-74650000D01*
X144764600Y-74650000D01*
X144764600Y-73900000D01*
X145077100Y-73900000D01*
X145077100Y-73525000D01*
X145702100Y-73525000D01*
X145702100Y-73900000D01*
G36*
X149004100Y-67564600D02*
X149316600Y-67564600D01*
X149316600Y-68314600D01*
X149004100Y-68314600D01*
X149004100Y-68689600D01*
X148379100Y-68689600D01*
X148379100Y-68314600D01*
X148066600Y-68314600D01*
X148066600Y-67564600D01*
X148379100Y-67564600D01*
X148379100Y-67189600D01*
X149004100Y-67189600D01*
X149004100Y-67564600D01*
X149004100Y-67564600D01*
G37*
X149004100Y-67564600D02*
X149316600Y-67564600D01*
X149316600Y-68314600D01*
X149004100Y-68314600D01*
X149004100Y-68689600D01*
X148379100Y-68689600D01*
X148379100Y-68314600D01*
X148066600Y-68314600D01*
X148066600Y-67564600D01*
X148379100Y-67564600D01*
X148379100Y-67189600D01*
X149004100Y-67189600D01*
X149004100Y-67564600D01*
G36*
X149646200Y-64261206D02*
X149592205Y-64242681D01*
X148927085Y-64907800D01*
X149592205Y-65572919D01*
X149646200Y-65554394D01*
X149646200Y-66431600D01*
X148715419Y-66431600D01*
X148941417Y-66386646D01*
X149026519Y-66138605D01*
X148361400Y-65473485D01*
X148078557Y-65756328D01*
X147889400Y-65567171D01*
X147889400Y-64248429D01*
X148078557Y-64059272D01*
X148361400Y-64342115D01*
X148799725Y-63903790D01*
X149238257Y-63722592D01*
X149646200Y-63315361D01*
X149646200Y-64261206D01*
X149646200Y-64261206D01*
G37*
X149646200Y-64261206D02*
X149592205Y-64242681D01*
X148927085Y-64907800D01*
X149592205Y-65572919D01*
X149646200Y-65554394D01*
X149646200Y-66431600D01*
X148715419Y-66431600D01*
X148941417Y-66386646D01*
X149026519Y-66138605D01*
X148361400Y-65473485D01*
X148078557Y-65756328D01*
X147889400Y-65567171D01*
X147889400Y-64248429D01*
X148078557Y-64059272D01*
X148361400Y-64342115D01*
X148799725Y-63903790D01*
X149238257Y-63722592D01*
X149646200Y-63315361D01*
X149646200Y-64261206D01*
M02*
