G04 #@! TF.FileFunction,Legend,Top*
%FSLAX46Y46*%
G04 Gerber Fmt 4.6, Leading zero omitted, Abs format (unit mm)*
G04 Created by KiCad (PCBNEW 4.0.7) date 11/25/19 22:23:23*
%MOMM*%
%LPD*%
G01*
G04 APERTURE LIST*
%ADD10C,0.100000*%
%ADD11C,0.200000*%
%ADD12C,0.150000*%
%ADD13C,0.120000*%
%ADD14C,0.010000*%
%ADD15C,0.254000*%
G04 APERTURE END LIST*
D10*
D11*
X107150000Y-60025000D02*
X107150000Y-60050000D01*
X86275000Y-60025000D02*
X107150000Y-60025000D01*
D12*
X85714286Y-61902381D02*
X86047619Y-62902381D01*
X86380953Y-61902381D01*
X86714286Y-62902381D02*
X86714286Y-61902381D01*
X87285715Y-62902381D01*
X87285715Y-61902381D01*
X87714286Y-62616667D02*
X88190477Y-62616667D01*
X87619048Y-62902381D02*
X87952381Y-61902381D01*
X88285715Y-62902381D01*
X88619048Y-62521429D02*
X89380953Y-62521429D01*
X90047619Y-61902381D02*
X90238096Y-61902381D01*
X90333334Y-61950000D01*
X90428572Y-62045238D01*
X90476191Y-62235714D01*
X90476191Y-62569048D01*
X90428572Y-62759524D01*
X90333334Y-62854762D01*
X90238096Y-62902381D01*
X90047619Y-62902381D01*
X89952381Y-62854762D01*
X89857143Y-62759524D01*
X89809524Y-62569048D01*
X89809524Y-62235714D01*
X89857143Y-62045238D01*
X89952381Y-61950000D01*
X90047619Y-61902381D01*
X90904762Y-62521429D02*
X91666667Y-62521429D01*
X92142857Y-62902381D02*
X92142857Y-61902381D01*
X92476191Y-62616667D01*
X92809524Y-61902381D01*
X92809524Y-62902381D01*
X93285714Y-62902381D02*
X93285714Y-61902381D01*
X93666666Y-61902381D02*
X94333333Y-61902381D01*
X93666666Y-62902381D01*
X94333333Y-62902381D01*
X94714285Y-62378571D02*
X95047619Y-62378571D01*
X95190476Y-62902381D02*
X94714285Y-62902381D01*
X94714285Y-61902381D01*
X95190476Y-61902381D01*
X96190476Y-62902381D02*
X95857142Y-62426190D01*
X95619047Y-62902381D02*
X95619047Y-61902381D01*
X96000000Y-61902381D01*
X96095238Y-61950000D01*
X96142857Y-61997619D01*
X96190476Y-62092857D01*
X96190476Y-62235714D01*
X96142857Y-62330952D01*
X96095238Y-62378571D01*
X96000000Y-62426190D01*
X95619047Y-62426190D01*
X86023809Y-63552381D02*
X86595238Y-63552381D01*
X86309523Y-64552381D02*
X86309523Y-63552381D01*
X86928571Y-64028571D02*
X87261905Y-64028571D01*
X87404762Y-64552381D02*
X86928571Y-64552381D01*
X86928571Y-63552381D01*
X87404762Y-63552381D01*
X87785714Y-64504762D02*
X87928571Y-64552381D01*
X88166667Y-64552381D01*
X88261905Y-64504762D01*
X88309524Y-64457143D01*
X88357143Y-64361905D01*
X88357143Y-64266667D01*
X88309524Y-64171429D01*
X88261905Y-64123810D01*
X88166667Y-64076190D01*
X87976190Y-64028571D01*
X87880952Y-63980952D01*
X87833333Y-63933333D01*
X87785714Y-63838095D01*
X87785714Y-63742857D01*
X87833333Y-63647619D01*
X87880952Y-63600000D01*
X87976190Y-63552381D01*
X88214286Y-63552381D01*
X88357143Y-63600000D01*
X88642857Y-63552381D02*
X89214286Y-63552381D01*
X88928571Y-64552381D02*
X88928571Y-63552381D01*
X90642858Y-64028571D02*
X90309524Y-64028571D01*
X90309524Y-64552381D02*
X90309524Y-63552381D01*
X90785715Y-63552381D01*
X91166667Y-64552381D02*
X91166667Y-63552381D01*
X91547619Y-63552381D02*
X92214286Y-64552381D01*
X92214286Y-63552381D02*
X91547619Y-64552381D01*
X92452381Y-63552381D02*
X93023810Y-63552381D01*
X92738095Y-64552381D02*
X92738095Y-63552381D01*
X93357143Y-63552381D02*
X93357143Y-64361905D01*
X93404762Y-64457143D01*
X93452381Y-64504762D01*
X93547619Y-64552381D01*
X93738096Y-64552381D01*
X93833334Y-64504762D01*
X93880953Y-64457143D01*
X93928572Y-64361905D01*
X93928572Y-63552381D01*
X94976191Y-64552381D02*
X94642857Y-64076190D01*
X94404762Y-64552381D02*
X94404762Y-63552381D01*
X94785715Y-63552381D01*
X94880953Y-63600000D01*
X94928572Y-63647619D01*
X94976191Y-63742857D01*
X94976191Y-63885714D01*
X94928572Y-63980952D01*
X94880953Y-64028571D01*
X94785715Y-64076190D01*
X94404762Y-64076190D01*
X95404762Y-64028571D02*
X95738096Y-64028571D01*
X95880953Y-64552381D02*
X95404762Y-64552381D01*
X95404762Y-63552381D01*
X95880953Y-63552381D01*
X84357143Y-65678571D02*
X84500000Y-65726190D01*
X84547619Y-65773810D01*
X84595238Y-65869048D01*
X84595238Y-66011905D01*
X84547619Y-66107143D01*
X84500000Y-66154762D01*
X84404762Y-66202381D01*
X84023809Y-66202381D01*
X84023809Y-65202381D01*
X84357143Y-65202381D01*
X84452381Y-65250000D01*
X84500000Y-65297619D01*
X84547619Y-65392857D01*
X84547619Y-65488095D01*
X84500000Y-65583333D01*
X84452381Y-65630952D01*
X84357143Y-65678571D01*
X84023809Y-65678571D01*
X85214285Y-65726190D02*
X85214285Y-66202381D01*
X84880952Y-65202381D02*
X85214285Y-65726190D01*
X85547619Y-65202381D01*
X86642857Y-66202381D02*
X86642857Y-65202381D01*
X86880952Y-65202381D01*
X87023810Y-65250000D01*
X87119048Y-65345238D01*
X87166667Y-65440476D01*
X87214286Y-65630952D01*
X87214286Y-65773810D01*
X87166667Y-65964286D01*
X87119048Y-66059524D01*
X87023810Y-66154762D01*
X86880952Y-66202381D01*
X86642857Y-66202381D01*
X88404762Y-66202381D02*
X88404762Y-65202381D01*
X88738096Y-65916667D01*
X89071429Y-65202381D01*
X89071429Y-66202381D01*
X89500000Y-65916667D02*
X89976191Y-65916667D01*
X89404762Y-66202381D02*
X89738095Y-65202381D01*
X90071429Y-66202381D01*
X90976191Y-66202381D02*
X90642857Y-65726190D01*
X90404762Y-66202381D02*
X90404762Y-65202381D01*
X90785715Y-65202381D01*
X90880953Y-65250000D01*
X90928572Y-65297619D01*
X90976191Y-65392857D01*
X90976191Y-65535714D01*
X90928572Y-65630952D01*
X90880953Y-65678571D01*
X90785715Y-65726190D01*
X90404762Y-65726190D01*
X91404762Y-66202381D02*
X91404762Y-65202381D01*
X91976191Y-66202381D02*
X91547619Y-65630952D01*
X91976191Y-65202381D02*
X91404762Y-65773810D01*
X92357143Y-66154762D02*
X92500000Y-66202381D01*
X92738096Y-66202381D01*
X92833334Y-66154762D01*
X92880953Y-66107143D01*
X92928572Y-66011905D01*
X92928572Y-65916667D01*
X92880953Y-65821429D01*
X92833334Y-65773810D01*
X92738096Y-65726190D01*
X92547619Y-65678571D01*
X92452381Y-65630952D01*
X92404762Y-65583333D01*
X92357143Y-65488095D01*
X92357143Y-65392857D01*
X92404762Y-65297619D01*
X92452381Y-65250000D01*
X92547619Y-65202381D01*
X92785715Y-65202381D01*
X92928572Y-65250000D01*
X94119048Y-66202381D02*
X94119048Y-65202381D01*
X94690477Y-66202381D02*
X94261905Y-65630952D01*
X94690477Y-65202381D02*
X94119048Y-65773810D01*
X95023810Y-65202381D02*
X95261905Y-66202381D01*
X95452382Y-65488095D01*
X95642858Y-66202381D01*
X95880953Y-65202381D01*
X96690477Y-65535714D02*
X96690477Y-66202381D01*
X96452381Y-65154762D02*
X96214286Y-65869048D01*
X96833334Y-65869048D01*
X97071429Y-65202381D02*
X97642858Y-65202381D01*
X97357143Y-66202381D02*
X97357143Y-65202381D01*
X97976191Y-66202381D02*
X97976191Y-65202381D01*
X86166667Y-67757143D02*
X86119048Y-67804762D01*
X85976191Y-67852381D01*
X85880953Y-67852381D01*
X85738095Y-67804762D01*
X85642857Y-67709524D01*
X85595238Y-67614286D01*
X85547619Y-67423810D01*
X85547619Y-67280952D01*
X85595238Y-67090476D01*
X85642857Y-66995238D01*
X85738095Y-66900000D01*
X85880953Y-66852381D01*
X85976191Y-66852381D01*
X86119048Y-66900000D01*
X86166667Y-66947619D01*
X87166667Y-67757143D02*
X87119048Y-67804762D01*
X86976191Y-67852381D01*
X86880953Y-67852381D01*
X86738095Y-67804762D01*
X86642857Y-67709524D01*
X86595238Y-67614286D01*
X86547619Y-67423810D01*
X86547619Y-67280952D01*
X86595238Y-67090476D01*
X86642857Y-66995238D01*
X86738095Y-66900000D01*
X86880953Y-66852381D01*
X86976191Y-66852381D01*
X87119048Y-66900000D01*
X87166667Y-66947619D01*
X87595238Y-67471429D02*
X88357143Y-67471429D01*
X89166667Y-67328571D02*
X89309524Y-67376190D01*
X89357143Y-67423810D01*
X89404762Y-67519048D01*
X89404762Y-67661905D01*
X89357143Y-67757143D01*
X89309524Y-67804762D01*
X89214286Y-67852381D01*
X88833333Y-67852381D01*
X88833333Y-66852381D01*
X89166667Y-66852381D01*
X89261905Y-66900000D01*
X89309524Y-66947619D01*
X89357143Y-67042857D01*
X89357143Y-67138095D01*
X89309524Y-67233333D01*
X89261905Y-67280952D01*
X89166667Y-67328571D01*
X88833333Y-67328571D01*
X90023809Y-67376190D02*
X90023809Y-67852381D01*
X89690476Y-66852381D02*
X90023809Y-67376190D01*
X90357143Y-66852381D01*
X90690476Y-67471429D02*
X91452381Y-67471429D01*
X91880952Y-67804762D02*
X92023809Y-67852381D01*
X92261905Y-67852381D01*
X92357143Y-67804762D01*
X92404762Y-67757143D01*
X92452381Y-67661905D01*
X92452381Y-67566667D01*
X92404762Y-67471429D01*
X92357143Y-67423810D01*
X92261905Y-67376190D01*
X92071428Y-67328571D01*
X91976190Y-67280952D01*
X91928571Y-67233333D01*
X91880952Y-67138095D01*
X91880952Y-67042857D01*
X91928571Y-66947619D01*
X91976190Y-66900000D01*
X92071428Y-66852381D01*
X92309524Y-66852381D01*
X92452381Y-66900000D01*
X92833333Y-67566667D02*
X93309524Y-67566667D01*
X92738095Y-67852381D02*
X93071428Y-66852381D01*
X93404762Y-67852381D01*
X94928572Y-67185714D02*
X94928572Y-67852381D01*
X94690476Y-66804762D02*
X94452381Y-67519048D01*
X95071429Y-67519048D01*
X95452381Y-67757143D02*
X95500000Y-67804762D01*
X95452381Y-67852381D01*
X95404762Y-67804762D01*
X95452381Y-67757143D01*
X95452381Y-67852381D01*
X96119047Y-66852381D02*
X96214286Y-66852381D01*
X96309524Y-66900000D01*
X96357143Y-66947619D01*
X96404762Y-67042857D01*
X96452381Y-67233333D01*
X96452381Y-67471429D01*
X96404762Y-67661905D01*
X96357143Y-67757143D01*
X96309524Y-67804762D01*
X96214286Y-67852381D01*
X96119047Y-67852381D01*
X96023809Y-67804762D01*
X95976190Y-67757143D01*
X95928571Y-67661905D01*
X95880952Y-67471429D01*
X95880952Y-67233333D01*
X95928571Y-67042857D01*
X95976190Y-66947619D01*
X96023809Y-66900000D01*
X96119047Y-66852381D01*
D11*
X87175000Y-59975000D02*
X87100000Y-59975000D01*
X107075000Y-65000000D02*
X107075000Y-65050000D01*
X114046000Y-73660000D02*
X141732000Y-73660000D01*
X102260400Y-118186200D02*
X102539800Y-118186200D01*
X102260400Y-102768400D02*
X102260400Y-118186200D01*
X58000000Y-60000000D02*
X58000000Y-51000000D01*
X87000000Y-60000000D02*
X58000000Y-60000000D01*
X141732000Y-50546000D02*
X141986000Y-50546000D01*
X141732000Y-73660000D02*
X141732000Y-50546000D01*
X116840000Y-118364000D02*
X116840000Y-135128000D01*
X100838000Y-118110000D02*
X100838000Y-118364000D01*
X119126000Y-118110000D02*
X100838000Y-118110000D01*
X119126000Y-102616000D02*
X119126000Y-118110000D01*
X114300000Y-102616000D02*
X119126000Y-102616000D01*
X100838000Y-118110000D02*
X83058000Y-118110000D01*
X83058000Y-102616000D02*
X83058000Y-102870000D01*
X114300000Y-102616000D02*
X83058000Y-102616000D01*
X114300000Y-73660000D02*
X114300000Y-102616000D01*
X107188000Y-73660000D02*
X114300000Y-73660000D01*
X107188000Y-73660000D02*
X107188000Y-50292000D01*
X50546000Y-135128000D02*
X50546000Y-135382000D01*
X74168000Y-135128000D02*
X50546000Y-135128000D01*
X74168000Y-135128000D02*
X91440000Y-135128000D01*
X74168000Y-149352000D02*
X74168000Y-135128000D01*
X91440000Y-135128000D02*
X108966000Y-135128000D01*
X91440000Y-149352000D02*
X91440000Y-135128000D01*
X109220000Y-135128000D02*
X127508000Y-135128000D01*
X109220000Y-149606000D02*
X109220000Y-135128000D01*
X144272000Y-135128000D02*
X144272000Y-134366000D01*
X127508000Y-135128000D02*
X144272000Y-135128000D01*
X127508000Y-149352000D02*
X127508000Y-135128000D01*
D12*
X118532143Y-99857143D02*
X118579762Y-99904762D01*
X118627381Y-100047619D01*
X118627381Y-100142857D01*
X118579762Y-100285715D01*
X118484524Y-100380953D01*
X118389286Y-100428572D01*
X118198810Y-100476191D01*
X118055952Y-100476191D01*
X117865476Y-100428572D01*
X117770238Y-100380953D01*
X117675000Y-100285715D01*
X117627381Y-100142857D01*
X117627381Y-100047619D01*
X117675000Y-99904762D01*
X117722619Y-99857143D01*
X118627381Y-98952381D02*
X118627381Y-99428572D01*
X117627381Y-99428572D01*
X118341667Y-98666667D02*
X118341667Y-98190476D01*
X118627381Y-98761905D02*
X117627381Y-98428572D01*
X118627381Y-98095238D01*
X118627381Y-97761905D02*
X117627381Y-97761905D01*
X118341667Y-97428571D01*
X117627381Y-97095238D01*
X118627381Y-97095238D01*
X118627381Y-96619048D02*
X117627381Y-96619048D01*
X117627381Y-96238095D01*
X117675000Y-96142857D01*
X117722619Y-96095238D01*
X117817857Y-96047619D01*
X117960714Y-96047619D01*
X118055952Y-96095238D01*
X118103571Y-96142857D01*
X118151190Y-96238095D01*
X118151190Y-96619048D01*
X117627381Y-94666667D02*
X117627381Y-94476190D01*
X117675000Y-94380952D01*
X117770238Y-94285714D01*
X117960714Y-94238095D01*
X118294048Y-94238095D01*
X118484524Y-94285714D01*
X118579762Y-94380952D01*
X118627381Y-94476190D01*
X118627381Y-94666667D01*
X118579762Y-94761905D01*
X118484524Y-94857143D01*
X118294048Y-94904762D01*
X117960714Y-94904762D01*
X117770238Y-94857143D01*
X117675000Y-94761905D01*
X117627381Y-94666667D01*
X118627381Y-93238095D02*
X118151190Y-93571429D01*
X118627381Y-93809524D02*
X117627381Y-93809524D01*
X117627381Y-93428571D01*
X117675000Y-93333333D01*
X117722619Y-93285714D01*
X117817857Y-93238095D01*
X117960714Y-93238095D01*
X118055952Y-93285714D01*
X118103571Y-93333333D01*
X118151190Y-93428571D01*
X118151190Y-93809524D01*
X117627381Y-92190476D02*
X118627381Y-91857143D01*
X117627381Y-91523809D01*
X118341667Y-91238095D02*
X118341667Y-90761904D01*
X118627381Y-91333333D02*
X117627381Y-91000000D01*
X118627381Y-90666666D01*
X118532143Y-89761904D02*
X118579762Y-89809523D01*
X118627381Y-89952380D01*
X118627381Y-90047618D01*
X118579762Y-90190476D01*
X118484524Y-90285714D01*
X118389286Y-90333333D01*
X118198810Y-90380952D01*
X118055952Y-90380952D01*
X117865476Y-90333333D01*
X117770238Y-90285714D01*
X117675000Y-90190476D01*
X117627381Y-90047618D01*
X117627381Y-89952380D01*
X117675000Y-89809523D01*
X117722619Y-89761904D01*
X117627381Y-89333333D02*
X118436905Y-89333333D01*
X118532143Y-89285714D01*
X118579762Y-89238095D01*
X118627381Y-89142857D01*
X118627381Y-88952380D01*
X118579762Y-88857142D01*
X118532143Y-88809523D01*
X118436905Y-88761904D01*
X117627381Y-88761904D01*
X117627381Y-88285714D02*
X118436905Y-88285714D01*
X118532143Y-88238095D01*
X118579762Y-88190476D01*
X118627381Y-88095238D01*
X118627381Y-87904761D01*
X118579762Y-87809523D01*
X118532143Y-87761904D01*
X118436905Y-87714285D01*
X117627381Y-87714285D01*
X118627381Y-87238095D02*
X117627381Y-87238095D01*
X118341667Y-86904761D01*
X117627381Y-86571428D01*
X118627381Y-86571428D01*
X120277381Y-98357143D02*
X119277381Y-98357143D01*
X119277381Y-97976190D01*
X119325000Y-97880952D01*
X119372619Y-97833333D01*
X119467857Y-97785714D01*
X119610714Y-97785714D01*
X119705952Y-97833333D01*
X119753571Y-97880952D01*
X119801190Y-97976190D01*
X119801190Y-98357143D01*
X119991667Y-97404762D02*
X119991667Y-96928571D01*
X120277381Y-97500000D02*
X119277381Y-97166667D01*
X120277381Y-96833333D01*
X120277381Y-95928571D02*
X119801190Y-96261905D01*
X120277381Y-96500000D02*
X119277381Y-96500000D01*
X119277381Y-96119047D01*
X119325000Y-96023809D01*
X119372619Y-95976190D01*
X119467857Y-95928571D01*
X119610714Y-95928571D01*
X119705952Y-95976190D01*
X119753571Y-96023809D01*
X119801190Y-96119047D01*
X119801190Y-96500000D01*
X119277381Y-95642857D02*
X119277381Y-95071428D01*
X120277381Y-95357143D02*
X119277381Y-95357143D01*
X120277381Y-93976190D02*
X119277381Y-93976190D01*
X119753571Y-93976190D02*
X119753571Y-93404761D01*
X120277381Y-93404761D02*
X119277381Y-93404761D01*
X119277381Y-92738095D02*
X119277381Y-92547618D01*
X119325000Y-92452380D01*
X119420238Y-92357142D01*
X119610714Y-92309523D01*
X119944048Y-92309523D01*
X120134524Y-92357142D01*
X120229762Y-92452380D01*
X120277381Y-92547618D01*
X120277381Y-92738095D01*
X120229762Y-92833333D01*
X120134524Y-92928571D01*
X119944048Y-92976190D01*
X119610714Y-92976190D01*
X119420238Y-92928571D01*
X119325000Y-92833333D01*
X119277381Y-92738095D01*
X120277381Y-91404761D02*
X120277381Y-91880952D01*
X119277381Y-91880952D01*
X120277381Y-91071428D02*
X119277381Y-91071428D01*
X119277381Y-90833333D01*
X119325000Y-90690475D01*
X119420238Y-90595237D01*
X119515476Y-90547618D01*
X119705952Y-90499999D01*
X119848810Y-90499999D01*
X120039286Y-90547618D01*
X120134524Y-90595237D01*
X120229762Y-90690475D01*
X120277381Y-90833333D01*
X120277381Y-91071428D01*
X119753571Y-90071428D02*
X119753571Y-89738094D01*
X120277381Y-89595237D02*
X120277381Y-90071428D01*
X119277381Y-90071428D01*
X119277381Y-89595237D01*
X120277381Y-88595237D02*
X119801190Y-88928571D01*
X120277381Y-89166666D02*
X119277381Y-89166666D01*
X119277381Y-88785713D01*
X119325000Y-88690475D01*
X119372619Y-88642856D01*
X119467857Y-88595237D01*
X119610714Y-88595237D01*
X119705952Y-88642856D01*
X119753571Y-88690475D01*
X119801190Y-88785713D01*
X119801190Y-89166666D01*
X91659524Y-59554762D02*
X91802381Y-59602381D01*
X92040477Y-59602381D01*
X92135715Y-59554762D01*
X92183334Y-59507143D01*
X92230953Y-59411905D01*
X92230953Y-59316667D01*
X92183334Y-59221429D01*
X92135715Y-59173810D01*
X92040477Y-59126190D01*
X91850000Y-59078571D01*
X91754762Y-59030952D01*
X91707143Y-58983333D01*
X91659524Y-58888095D01*
X91659524Y-58792857D01*
X91707143Y-58697619D01*
X91754762Y-58650000D01*
X91850000Y-58602381D01*
X92088096Y-58602381D01*
X92230953Y-58650000D01*
X93230953Y-59507143D02*
X93183334Y-59554762D01*
X93040477Y-59602381D01*
X92945239Y-59602381D01*
X92802381Y-59554762D01*
X92707143Y-59459524D01*
X92659524Y-59364286D01*
X92611905Y-59173810D01*
X92611905Y-59030952D01*
X92659524Y-58840476D01*
X92707143Y-58745238D01*
X92802381Y-58650000D01*
X92945239Y-58602381D01*
X93040477Y-58602381D01*
X93183334Y-58650000D01*
X93230953Y-58697619D01*
X94230953Y-59602381D02*
X93897619Y-59126190D01*
X93659524Y-59602381D02*
X93659524Y-58602381D01*
X94040477Y-58602381D01*
X94135715Y-58650000D01*
X94183334Y-58697619D01*
X94230953Y-58792857D01*
X94230953Y-58935714D01*
X94183334Y-59030952D01*
X94135715Y-59078571D01*
X94040477Y-59126190D01*
X93659524Y-59126190D01*
X94659524Y-59078571D02*
X94992858Y-59078571D01*
X95135715Y-59602381D02*
X94659524Y-59602381D01*
X94659524Y-58602381D01*
X95135715Y-58602381D01*
X95469048Y-58602381D02*
X95707143Y-59602381D01*
X95897620Y-58888095D01*
X96088096Y-59602381D01*
X96326191Y-58602381D01*
X97326191Y-58602381D02*
X97897620Y-58602381D01*
X97611905Y-59602381D02*
X97611905Y-58602381D01*
X98230953Y-59078571D02*
X98564287Y-59078571D01*
X98707144Y-59602381D02*
X98230953Y-59602381D01*
X98230953Y-58602381D01*
X98707144Y-58602381D01*
X99707144Y-59602381D02*
X99373810Y-59126190D01*
X99135715Y-59602381D02*
X99135715Y-58602381D01*
X99516668Y-58602381D01*
X99611906Y-58650000D01*
X99659525Y-58697619D01*
X99707144Y-58792857D01*
X99707144Y-58935714D01*
X99659525Y-59030952D01*
X99611906Y-59078571D01*
X99516668Y-59126190D01*
X99135715Y-59126190D01*
X100135715Y-59602381D02*
X100135715Y-58602381D01*
X100469049Y-59316667D01*
X100802382Y-58602381D01*
X100802382Y-59602381D01*
X101278572Y-59602381D02*
X101278572Y-58602381D01*
X101754762Y-59602381D02*
X101754762Y-58602381D01*
X102326191Y-59602381D01*
X102326191Y-58602381D01*
X102754762Y-59316667D02*
X103230953Y-59316667D01*
X102659524Y-59602381D02*
X102992857Y-58602381D01*
X103326191Y-59602381D01*
X104135715Y-59602381D02*
X103659524Y-59602381D01*
X103659524Y-58602381D01*
X99457048Y-139168619D02*
X99361810Y-139121000D01*
X99266572Y-139025762D01*
X99123715Y-138882905D01*
X99028476Y-138835286D01*
X98933238Y-138835286D01*
X98980857Y-139073381D02*
X98885619Y-139025762D01*
X98790381Y-138930524D01*
X98742762Y-138740048D01*
X98742762Y-138406714D01*
X98790381Y-138216238D01*
X98885619Y-138121000D01*
X98980857Y-138073381D01*
X99171334Y-138073381D01*
X99266572Y-138121000D01*
X99361810Y-138216238D01*
X99409429Y-138406714D01*
X99409429Y-138740048D01*
X99361810Y-138930524D01*
X99266572Y-139025762D01*
X99171334Y-139073381D01*
X98980857Y-139073381D01*
X99838000Y-138073381D02*
X99838000Y-138882905D01*
X99885619Y-138978143D01*
X99933238Y-139025762D01*
X100028476Y-139073381D01*
X100218953Y-139073381D01*
X100314191Y-139025762D01*
X100361810Y-138978143D01*
X100409429Y-138882905D01*
X100409429Y-138073381D01*
X100885619Y-139073381D02*
X100885619Y-138073381D01*
X101933238Y-138978143D02*
X101885619Y-139025762D01*
X101742762Y-139073381D01*
X101647524Y-139073381D01*
X101504666Y-139025762D01*
X101409428Y-138930524D01*
X101361809Y-138835286D01*
X101314190Y-138644810D01*
X101314190Y-138501952D01*
X101361809Y-138311476D01*
X101409428Y-138216238D01*
X101504666Y-138121000D01*
X101647524Y-138073381D01*
X101742762Y-138073381D01*
X101885619Y-138121000D01*
X101933238Y-138168619D01*
X102361809Y-139073381D02*
X102361809Y-138073381D01*
X102933238Y-139073381D02*
X102504666Y-138501952D01*
X102933238Y-138073381D02*
X102361809Y-138644810D01*
X98623714Y-140675762D02*
X98766571Y-140723381D01*
X99004667Y-140723381D01*
X99099905Y-140675762D01*
X99147524Y-140628143D01*
X99195143Y-140532905D01*
X99195143Y-140437667D01*
X99147524Y-140342429D01*
X99099905Y-140294810D01*
X99004667Y-140247190D01*
X98814190Y-140199571D01*
X98718952Y-140151952D01*
X98671333Y-140104333D01*
X98623714Y-140009095D01*
X98623714Y-139913857D01*
X98671333Y-139818619D01*
X98718952Y-139771000D01*
X98814190Y-139723381D01*
X99052286Y-139723381D01*
X99195143Y-139771000D01*
X99623714Y-140723381D02*
X99623714Y-139723381D01*
X99623714Y-140199571D02*
X100195143Y-140199571D01*
X100195143Y-140723381D02*
X100195143Y-139723381D01*
X100861809Y-139723381D02*
X101052286Y-139723381D01*
X101147524Y-139771000D01*
X101242762Y-139866238D01*
X101290381Y-140056714D01*
X101290381Y-140390048D01*
X101242762Y-140580524D01*
X101147524Y-140675762D01*
X101052286Y-140723381D01*
X100861809Y-140723381D01*
X100766571Y-140675762D01*
X100671333Y-140580524D01*
X100623714Y-140390048D01*
X100623714Y-140056714D01*
X100671333Y-139866238D01*
X100766571Y-139771000D01*
X100861809Y-139723381D01*
X102290381Y-140723381D02*
X101957047Y-140247190D01*
X101718952Y-140723381D02*
X101718952Y-139723381D01*
X102099905Y-139723381D01*
X102195143Y-139771000D01*
X102242762Y-139818619D01*
X102290381Y-139913857D01*
X102290381Y-140056714D01*
X102242762Y-140151952D01*
X102195143Y-140199571D01*
X102099905Y-140247190D01*
X101718952Y-140247190D01*
X102576095Y-139723381D02*
X103147524Y-139723381D01*
X102861809Y-140723381D02*
X102861809Y-139723381D01*
X73604381Y-143382857D02*
X73604381Y-143859048D01*
X72604381Y-143859048D01*
X72604381Y-142859048D02*
X72604381Y-142668571D01*
X72652000Y-142573333D01*
X72747238Y-142478095D01*
X72937714Y-142430476D01*
X73271048Y-142430476D01*
X73461524Y-142478095D01*
X73556762Y-142573333D01*
X73604381Y-142668571D01*
X73604381Y-142859048D01*
X73556762Y-142954286D01*
X73461524Y-143049524D01*
X73271048Y-143097143D01*
X72937714Y-143097143D01*
X72747238Y-143049524D01*
X72652000Y-142954286D01*
X72604381Y-142859048D01*
X73318667Y-142049524D02*
X73318667Y-141573333D01*
X73604381Y-142144762D02*
X72604381Y-141811429D01*
X73604381Y-141478095D01*
X73604381Y-141144762D02*
X72604381Y-141144762D01*
X72604381Y-140906667D01*
X72652000Y-140763809D01*
X72747238Y-140668571D01*
X72842476Y-140620952D01*
X73032952Y-140573333D01*
X73175810Y-140573333D01*
X73366286Y-140620952D01*
X73461524Y-140668571D01*
X73556762Y-140763809D01*
X73604381Y-140906667D01*
X73604381Y-141144762D01*
X101039562Y-112348686D02*
X101087181Y-112205829D01*
X101087181Y-111967733D01*
X101039562Y-111872495D01*
X100991943Y-111824876D01*
X100896705Y-111777257D01*
X100801467Y-111777257D01*
X100706229Y-111824876D01*
X100658610Y-111872495D01*
X100610990Y-111967733D01*
X100563371Y-112158210D01*
X100515752Y-112253448D01*
X100468133Y-112301067D01*
X100372895Y-112348686D01*
X100277657Y-112348686D01*
X100182419Y-112301067D01*
X100134800Y-112253448D01*
X100087181Y-112158210D01*
X100087181Y-111920114D01*
X100134800Y-111777257D01*
X101087181Y-111348686D02*
X100087181Y-111348686D01*
X100563371Y-111348686D02*
X100563371Y-110777257D01*
X101087181Y-110777257D02*
X100087181Y-110777257D01*
X100087181Y-110110591D02*
X100087181Y-109920114D01*
X100134800Y-109824876D01*
X100230038Y-109729638D01*
X100420514Y-109682019D01*
X100753848Y-109682019D01*
X100944324Y-109729638D01*
X101039562Y-109824876D01*
X101087181Y-109920114D01*
X101087181Y-110110591D01*
X101039562Y-110205829D01*
X100944324Y-110301067D01*
X100753848Y-110348686D01*
X100420514Y-110348686D01*
X100230038Y-110301067D01*
X100134800Y-110205829D01*
X100087181Y-110110591D01*
X101087181Y-108682019D02*
X100610990Y-109015353D01*
X101087181Y-109253448D02*
X100087181Y-109253448D01*
X100087181Y-108872495D01*
X100134800Y-108777257D01*
X100182419Y-108729638D01*
X100277657Y-108682019D01*
X100420514Y-108682019D01*
X100515752Y-108729638D01*
X100563371Y-108777257D01*
X100610990Y-108872495D01*
X100610990Y-109253448D01*
X100087181Y-108396305D02*
X100087181Y-107824876D01*
X101087181Y-108110591D02*
X100087181Y-108110591D01*
X100544381Y-131373333D02*
X100544381Y-130801904D01*
X101544381Y-131087619D02*
X100544381Y-131087619D01*
X101544381Y-130468571D02*
X100544381Y-130468571D01*
X101020571Y-130468571D02*
X101020571Y-129897142D01*
X101544381Y-129897142D02*
X100544381Y-129897142D01*
X101544381Y-128849523D02*
X101068190Y-129182857D01*
X101544381Y-129420952D02*
X100544381Y-129420952D01*
X100544381Y-129039999D01*
X100592000Y-128944761D01*
X100639619Y-128897142D01*
X100734857Y-128849523D01*
X100877714Y-128849523D01*
X100972952Y-128897142D01*
X101020571Y-128944761D01*
X101068190Y-129039999D01*
X101068190Y-129420952D01*
X100544381Y-128420952D02*
X101353905Y-128420952D01*
X101449143Y-128373333D01*
X101496762Y-128325714D01*
X101544381Y-128230476D01*
X101544381Y-128039999D01*
X101496762Y-127944761D01*
X101449143Y-127897142D01*
X101353905Y-127849523D01*
X100544381Y-127849523D01*
X116165381Y-112315429D02*
X116165381Y-112124952D01*
X116213000Y-112029714D01*
X116308238Y-111934476D01*
X116498714Y-111886857D01*
X116832048Y-111886857D01*
X117022524Y-111934476D01*
X117117762Y-112029714D01*
X117165381Y-112124952D01*
X117165381Y-112315429D01*
X117117762Y-112410667D01*
X117022524Y-112505905D01*
X116832048Y-112553524D01*
X116498714Y-112553524D01*
X116308238Y-112505905D01*
X116213000Y-112410667D01*
X116165381Y-112315429D01*
X117165381Y-111458286D02*
X116165381Y-111458286D01*
X116165381Y-111077333D01*
X116213000Y-110982095D01*
X116260619Y-110934476D01*
X116355857Y-110886857D01*
X116498714Y-110886857D01*
X116593952Y-110934476D01*
X116641571Y-110982095D01*
X116689190Y-111077333D01*
X116689190Y-111458286D01*
X116641571Y-110458286D02*
X116641571Y-110124952D01*
X117165381Y-109982095D02*
X117165381Y-110458286D01*
X116165381Y-110458286D01*
X116165381Y-109982095D01*
X117165381Y-109553524D02*
X116165381Y-109553524D01*
X117165381Y-108982095D01*
X116165381Y-108982095D01*
X86194048Y-139197619D02*
X86098810Y-139150000D01*
X86003572Y-139054762D01*
X85860715Y-138911905D01*
X85765476Y-138864286D01*
X85670238Y-138864286D01*
X85717857Y-139102381D02*
X85622619Y-139054762D01*
X85527381Y-138959524D01*
X85479762Y-138769048D01*
X85479762Y-138435714D01*
X85527381Y-138245238D01*
X85622619Y-138150000D01*
X85717857Y-138102381D01*
X85908334Y-138102381D01*
X86003572Y-138150000D01*
X86098810Y-138245238D01*
X86146429Y-138435714D01*
X86146429Y-138769048D01*
X86098810Y-138959524D01*
X86003572Y-139054762D01*
X85908334Y-139102381D01*
X85717857Y-139102381D01*
X86575000Y-138102381D02*
X86575000Y-138911905D01*
X86622619Y-139007143D01*
X86670238Y-139054762D01*
X86765476Y-139102381D01*
X86955953Y-139102381D01*
X87051191Y-139054762D01*
X87098810Y-139007143D01*
X87146429Y-138911905D01*
X87146429Y-138102381D01*
X87622619Y-139102381D02*
X87622619Y-138102381D01*
X88670238Y-139007143D02*
X88622619Y-139054762D01*
X88479762Y-139102381D01*
X88384524Y-139102381D01*
X88241666Y-139054762D01*
X88146428Y-138959524D01*
X88098809Y-138864286D01*
X88051190Y-138673810D01*
X88051190Y-138530952D01*
X88098809Y-138340476D01*
X88146428Y-138245238D01*
X88241666Y-138150000D01*
X88384524Y-138102381D01*
X88479762Y-138102381D01*
X88622619Y-138150000D01*
X88670238Y-138197619D01*
X89098809Y-139102381D02*
X89098809Y-138102381D01*
X89670238Y-139102381D02*
X89241666Y-138530952D01*
X89670238Y-138102381D02*
X89098809Y-138673810D01*
X86432143Y-140752381D02*
X85955952Y-140752381D01*
X85955952Y-139752381D01*
X86955952Y-139752381D02*
X87146429Y-139752381D01*
X87241667Y-139800000D01*
X87336905Y-139895238D01*
X87384524Y-140085714D01*
X87384524Y-140419048D01*
X87336905Y-140609524D01*
X87241667Y-140704762D01*
X87146429Y-140752381D01*
X86955952Y-140752381D01*
X86860714Y-140704762D01*
X86765476Y-140609524D01*
X86717857Y-140419048D01*
X86717857Y-140085714D01*
X86765476Y-139895238D01*
X86860714Y-139800000D01*
X86955952Y-139752381D01*
X87765476Y-140466667D02*
X88241667Y-140466667D01*
X87670238Y-140752381D02*
X88003571Y-139752381D01*
X88336905Y-140752381D01*
X88670238Y-140752381D02*
X88670238Y-139752381D01*
X88908333Y-139752381D01*
X89051191Y-139800000D01*
X89146429Y-139895238D01*
X89194048Y-139990476D01*
X89241667Y-140180952D01*
X89241667Y-140323810D01*
X89194048Y-140514286D01*
X89146429Y-140609524D01*
X89051191Y-140704762D01*
X88908333Y-140752381D01*
X88670238Y-140752381D01*
X117594048Y-139422619D02*
X117498810Y-139375000D01*
X117403572Y-139279762D01*
X117260715Y-139136905D01*
X117165476Y-139089286D01*
X117070238Y-139089286D01*
X117117857Y-139327381D02*
X117022619Y-139279762D01*
X116927381Y-139184524D01*
X116879762Y-138994048D01*
X116879762Y-138660714D01*
X116927381Y-138470238D01*
X117022619Y-138375000D01*
X117117857Y-138327381D01*
X117308334Y-138327381D01*
X117403572Y-138375000D01*
X117498810Y-138470238D01*
X117546429Y-138660714D01*
X117546429Y-138994048D01*
X117498810Y-139184524D01*
X117403572Y-139279762D01*
X117308334Y-139327381D01*
X117117857Y-139327381D01*
X117975000Y-138327381D02*
X117975000Y-139136905D01*
X118022619Y-139232143D01*
X118070238Y-139279762D01*
X118165476Y-139327381D01*
X118355953Y-139327381D01*
X118451191Y-139279762D01*
X118498810Y-139232143D01*
X118546429Y-139136905D01*
X118546429Y-138327381D01*
X119022619Y-139327381D02*
X119022619Y-138327381D01*
X120070238Y-139232143D02*
X120022619Y-139279762D01*
X119879762Y-139327381D01*
X119784524Y-139327381D01*
X119641666Y-139279762D01*
X119546428Y-139184524D01*
X119498809Y-139089286D01*
X119451190Y-138898810D01*
X119451190Y-138755952D01*
X119498809Y-138565476D01*
X119546428Y-138470238D01*
X119641666Y-138375000D01*
X119784524Y-138327381D01*
X119879762Y-138327381D01*
X120022619Y-138375000D01*
X120070238Y-138422619D01*
X120498809Y-139327381D02*
X120498809Y-138327381D01*
X121070238Y-139327381D02*
X120641666Y-138755952D01*
X121070238Y-138327381D02*
X120498809Y-138898810D01*
X117403571Y-139977381D02*
X117594048Y-139977381D01*
X117689286Y-140025000D01*
X117784524Y-140120238D01*
X117832143Y-140310714D01*
X117832143Y-140644048D01*
X117784524Y-140834524D01*
X117689286Y-140929762D01*
X117594048Y-140977381D01*
X117403571Y-140977381D01*
X117308333Y-140929762D01*
X117213095Y-140834524D01*
X117165476Y-140644048D01*
X117165476Y-140310714D01*
X117213095Y-140120238D01*
X117308333Y-140025000D01*
X117403571Y-139977381D01*
X118260714Y-140977381D02*
X118260714Y-139977381D01*
X118641667Y-139977381D01*
X118736905Y-140025000D01*
X118784524Y-140072619D01*
X118832143Y-140167857D01*
X118832143Y-140310714D01*
X118784524Y-140405952D01*
X118736905Y-140453571D01*
X118641667Y-140501190D01*
X118260714Y-140501190D01*
X119260714Y-140453571D02*
X119594048Y-140453571D01*
X119736905Y-140977381D02*
X119260714Y-140977381D01*
X119260714Y-139977381D01*
X119736905Y-139977381D01*
X120165476Y-140977381D02*
X120165476Y-139977381D01*
X120736905Y-140977381D01*
X120736905Y-139977381D01*
X135017048Y-138152619D02*
X134921810Y-138105000D01*
X134826572Y-138009762D01*
X134683715Y-137866905D01*
X134588476Y-137819286D01*
X134493238Y-137819286D01*
X134540857Y-138057381D02*
X134445619Y-138009762D01*
X134350381Y-137914524D01*
X134302762Y-137724048D01*
X134302762Y-137390714D01*
X134350381Y-137200238D01*
X134445619Y-137105000D01*
X134540857Y-137057381D01*
X134731334Y-137057381D01*
X134826572Y-137105000D01*
X134921810Y-137200238D01*
X134969429Y-137390714D01*
X134969429Y-137724048D01*
X134921810Y-137914524D01*
X134826572Y-138009762D01*
X134731334Y-138057381D01*
X134540857Y-138057381D01*
X135398000Y-137057381D02*
X135398000Y-137866905D01*
X135445619Y-137962143D01*
X135493238Y-138009762D01*
X135588476Y-138057381D01*
X135778953Y-138057381D01*
X135874191Y-138009762D01*
X135921810Y-137962143D01*
X135969429Y-137866905D01*
X135969429Y-137057381D01*
X136445619Y-138057381D02*
X136445619Y-137057381D01*
X137493238Y-137962143D02*
X137445619Y-138009762D01*
X137302762Y-138057381D01*
X137207524Y-138057381D01*
X137064666Y-138009762D01*
X136969428Y-137914524D01*
X136921809Y-137819286D01*
X136874190Y-137628810D01*
X136874190Y-137485952D01*
X136921809Y-137295476D01*
X136969428Y-137200238D01*
X137064666Y-137105000D01*
X137207524Y-137057381D01*
X137302762Y-137057381D01*
X137445619Y-137105000D01*
X137493238Y-137152619D01*
X137921809Y-138057381D02*
X137921809Y-137057381D01*
X138493238Y-138057381D02*
X138064666Y-137485952D01*
X138493238Y-137057381D02*
X137921809Y-137628810D01*
X134564667Y-138707381D02*
X135136096Y-138707381D01*
X134850381Y-139707381D02*
X134850381Y-138707381D01*
X135469429Y-139707381D02*
X135469429Y-138707381D01*
X135469429Y-139183571D02*
X136040858Y-139183571D01*
X136040858Y-139707381D02*
X136040858Y-138707381D01*
X137088477Y-139707381D02*
X136755143Y-139231190D01*
X136517048Y-139707381D02*
X136517048Y-138707381D01*
X136898001Y-138707381D01*
X136993239Y-138755000D01*
X137040858Y-138802619D01*
X137088477Y-138897857D01*
X137088477Y-139040714D01*
X137040858Y-139135952D01*
X136993239Y-139183571D01*
X136898001Y-139231190D01*
X136517048Y-139231190D01*
X137517048Y-138707381D02*
X137517048Y-139516905D01*
X137564667Y-139612143D01*
X137612286Y-139659762D01*
X137707524Y-139707381D01*
X137898001Y-139707381D01*
X137993239Y-139659762D01*
X138040858Y-139612143D01*
X138088477Y-139516905D01*
X138088477Y-138707381D01*
X58604762Y-128802381D02*
X59176191Y-128802381D01*
X58890476Y-129802381D02*
X58890476Y-128802381D01*
X59509524Y-129278571D02*
X59842858Y-129278571D01*
X59985715Y-129802381D02*
X59509524Y-129802381D01*
X59509524Y-128802381D01*
X59985715Y-128802381D01*
X60366667Y-129754762D02*
X60509524Y-129802381D01*
X60747620Y-129802381D01*
X60842858Y-129754762D01*
X60890477Y-129707143D01*
X60938096Y-129611905D01*
X60938096Y-129516667D01*
X60890477Y-129421429D01*
X60842858Y-129373810D01*
X60747620Y-129326190D01*
X60557143Y-129278571D01*
X60461905Y-129230952D01*
X60414286Y-129183333D01*
X60366667Y-129088095D01*
X60366667Y-128992857D01*
X60414286Y-128897619D01*
X60461905Y-128850000D01*
X60557143Y-128802381D01*
X60795239Y-128802381D01*
X60938096Y-128850000D01*
X61223810Y-128802381D02*
X61795239Y-128802381D01*
X61509524Y-129802381D02*
X61509524Y-128802381D01*
X59057143Y-131452381D02*
X58580952Y-131452381D01*
X58580952Y-130452381D01*
X59580952Y-130452381D02*
X59771429Y-130452381D01*
X59866667Y-130500000D01*
X59961905Y-130595238D01*
X60009524Y-130785714D01*
X60009524Y-131119048D01*
X59961905Y-131309524D01*
X59866667Y-131404762D01*
X59771429Y-131452381D01*
X59580952Y-131452381D01*
X59485714Y-131404762D01*
X59390476Y-131309524D01*
X59342857Y-131119048D01*
X59342857Y-130785714D01*
X59390476Y-130595238D01*
X59485714Y-130500000D01*
X59580952Y-130452381D01*
X60390476Y-131166667D02*
X60866667Y-131166667D01*
X60295238Y-131452381D02*
X60628571Y-130452381D01*
X60961905Y-131452381D01*
X61295238Y-131452381D02*
X61295238Y-130452381D01*
X61533333Y-130452381D01*
X61676191Y-130500000D01*
X61771429Y-130595238D01*
X61819048Y-130690476D01*
X61866667Y-130880952D01*
X61866667Y-131023810D01*
X61819048Y-131214286D01*
X61771429Y-131309524D01*
X61676191Y-131404762D01*
X61533333Y-131452381D01*
X61295238Y-131452381D01*
X59104762Y-109377381D02*
X59676191Y-109377381D01*
X59390476Y-110377381D02*
X59390476Y-109377381D01*
X60009524Y-109853571D02*
X60342858Y-109853571D01*
X60485715Y-110377381D02*
X60009524Y-110377381D01*
X60009524Y-109377381D01*
X60485715Y-109377381D01*
X60866667Y-110329762D02*
X61009524Y-110377381D01*
X61247620Y-110377381D01*
X61342858Y-110329762D01*
X61390477Y-110282143D01*
X61438096Y-110186905D01*
X61438096Y-110091667D01*
X61390477Y-109996429D01*
X61342858Y-109948810D01*
X61247620Y-109901190D01*
X61057143Y-109853571D01*
X60961905Y-109805952D01*
X60914286Y-109758333D01*
X60866667Y-109663095D01*
X60866667Y-109567857D01*
X60914286Y-109472619D01*
X60961905Y-109425000D01*
X61057143Y-109377381D01*
X61295239Y-109377381D01*
X61438096Y-109425000D01*
X61723810Y-109377381D02*
X62295239Y-109377381D01*
X62009524Y-110377381D02*
X62009524Y-109377381D01*
X59557143Y-112027381D02*
X59080952Y-112027381D01*
X59080952Y-111027381D01*
X60080952Y-111027381D02*
X60271429Y-111027381D01*
X60366667Y-111075000D01*
X60461905Y-111170238D01*
X60509524Y-111360714D01*
X60509524Y-111694048D01*
X60461905Y-111884524D01*
X60366667Y-111979762D01*
X60271429Y-112027381D01*
X60080952Y-112027381D01*
X59985714Y-111979762D01*
X59890476Y-111884524D01*
X59842857Y-111694048D01*
X59842857Y-111360714D01*
X59890476Y-111170238D01*
X59985714Y-111075000D01*
X60080952Y-111027381D01*
X60890476Y-111741667D02*
X61366667Y-111741667D01*
X60795238Y-112027381D02*
X61128571Y-111027381D01*
X61461905Y-112027381D01*
X61795238Y-112027381D02*
X61795238Y-111027381D01*
X62033333Y-111027381D01*
X62176191Y-111075000D01*
X62271429Y-111170238D01*
X62319048Y-111265476D01*
X62366667Y-111455952D01*
X62366667Y-111598810D01*
X62319048Y-111789286D01*
X62271429Y-111884524D01*
X62176191Y-111979762D01*
X62033333Y-112027381D01*
X61795238Y-112027381D01*
X59304762Y-88677381D02*
X59876191Y-88677381D01*
X59590476Y-89677381D02*
X59590476Y-88677381D01*
X60209524Y-89153571D02*
X60542858Y-89153571D01*
X60685715Y-89677381D02*
X60209524Y-89677381D01*
X60209524Y-88677381D01*
X60685715Y-88677381D01*
X61066667Y-89629762D02*
X61209524Y-89677381D01*
X61447620Y-89677381D01*
X61542858Y-89629762D01*
X61590477Y-89582143D01*
X61638096Y-89486905D01*
X61638096Y-89391667D01*
X61590477Y-89296429D01*
X61542858Y-89248810D01*
X61447620Y-89201190D01*
X61257143Y-89153571D01*
X61161905Y-89105952D01*
X61114286Y-89058333D01*
X61066667Y-88963095D01*
X61066667Y-88867857D01*
X61114286Y-88772619D01*
X61161905Y-88725000D01*
X61257143Y-88677381D01*
X61495239Y-88677381D01*
X61638096Y-88725000D01*
X61923810Y-88677381D02*
X62495239Y-88677381D01*
X62209524Y-89677381D02*
X62209524Y-88677381D01*
X59757143Y-91327381D02*
X59280952Y-91327381D01*
X59280952Y-90327381D01*
X60280952Y-90327381D02*
X60471429Y-90327381D01*
X60566667Y-90375000D01*
X60661905Y-90470238D01*
X60709524Y-90660714D01*
X60709524Y-90994048D01*
X60661905Y-91184524D01*
X60566667Y-91279762D01*
X60471429Y-91327381D01*
X60280952Y-91327381D01*
X60185714Y-91279762D01*
X60090476Y-91184524D01*
X60042857Y-90994048D01*
X60042857Y-90660714D01*
X60090476Y-90470238D01*
X60185714Y-90375000D01*
X60280952Y-90327381D01*
X61090476Y-91041667D02*
X61566667Y-91041667D01*
X60995238Y-91327381D02*
X61328571Y-90327381D01*
X61661905Y-91327381D01*
X61995238Y-91327381D02*
X61995238Y-90327381D01*
X62233333Y-90327381D01*
X62376191Y-90375000D01*
X62471429Y-90470238D01*
X62519048Y-90565476D01*
X62566667Y-90755952D01*
X62566667Y-90898810D01*
X62519048Y-91089286D01*
X62471429Y-91184524D01*
X62376191Y-91279762D01*
X62233333Y-91327381D01*
X61995238Y-91327381D01*
X59679762Y-69427381D02*
X60251191Y-69427381D01*
X59965476Y-70427381D02*
X59965476Y-69427381D01*
X60584524Y-69903571D02*
X60917858Y-69903571D01*
X61060715Y-70427381D02*
X60584524Y-70427381D01*
X60584524Y-69427381D01*
X61060715Y-69427381D01*
X61441667Y-70379762D02*
X61584524Y-70427381D01*
X61822620Y-70427381D01*
X61917858Y-70379762D01*
X61965477Y-70332143D01*
X62013096Y-70236905D01*
X62013096Y-70141667D01*
X61965477Y-70046429D01*
X61917858Y-69998810D01*
X61822620Y-69951190D01*
X61632143Y-69903571D01*
X61536905Y-69855952D01*
X61489286Y-69808333D01*
X61441667Y-69713095D01*
X61441667Y-69617857D01*
X61489286Y-69522619D01*
X61536905Y-69475000D01*
X61632143Y-69427381D01*
X61870239Y-69427381D01*
X62013096Y-69475000D01*
X62298810Y-69427381D02*
X62870239Y-69427381D01*
X62584524Y-70427381D02*
X62584524Y-69427381D01*
X60132143Y-72077381D02*
X59655952Y-72077381D01*
X59655952Y-71077381D01*
X60655952Y-71077381D02*
X60846429Y-71077381D01*
X60941667Y-71125000D01*
X61036905Y-71220238D01*
X61084524Y-71410714D01*
X61084524Y-71744048D01*
X61036905Y-71934524D01*
X60941667Y-72029762D01*
X60846429Y-72077381D01*
X60655952Y-72077381D01*
X60560714Y-72029762D01*
X60465476Y-71934524D01*
X60417857Y-71744048D01*
X60417857Y-71410714D01*
X60465476Y-71220238D01*
X60560714Y-71125000D01*
X60655952Y-71077381D01*
X61465476Y-71791667D02*
X61941667Y-71791667D01*
X61370238Y-72077381D02*
X61703571Y-71077381D01*
X62036905Y-72077381D01*
X62370238Y-72077381D02*
X62370238Y-71077381D01*
X62608333Y-71077381D01*
X62751191Y-71125000D01*
X62846429Y-71220238D01*
X62894048Y-71315476D01*
X62941667Y-71505952D01*
X62941667Y-71648810D01*
X62894048Y-71839286D01*
X62846429Y-71934524D01*
X62751191Y-72029762D01*
X62608333Y-72077381D01*
X62370238Y-72077381D01*
X83971381Y-99972286D02*
X83971381Y-99305619D01*
X84971381Y-99972286D01*
X84971381Y-99305619D01*
X84971381Y-98924667D02*
X83971381Y-98924667D01*
X84447571Y-98115143D02*
X84447571Y-98448477D01*
X84971381Y-98448477D02*
X83971381Y-98448477D01*
X83971381Y-97972286D01*
X84923762Y-96877048D02*
X84971381Y-96734191D01*
X84971381Y-96496095D01*
X84923762Y-96400857D01*
X84876143Y-96353238D01*
X84780905Y-96305619D01*
X84685667Y-96305619D01*
X84590429Y-96353238D01*
X84542810Y-96400857D01*
X84495190Y-96496095D01*
X84447571Y-96686572D01*
X84399952Y-96781810D01*
X84352333Y-96829429D01*
X84257095Y-96877048D01*
X84161857Y-96877048D01*
X84066619Y-96829429D01*
X84019000Y-96781810D01*
X83971381Y-96686572D01*
X83971381Y-96448476D01*
X84019000Y-96305619D01*
X83971381Y-95686572D02*
X83971381Y-95496095D01*
X84019000Y-95400857D01*
X84114238Y-95305619D01*
X84304714Y-95258000D01*
X84638048Y-95258000D01*
X84828524Y-95305619D01*
X84923762Y-95400857D01*
X84971381Y-95496095D01*
X84971381Y-95686572D01*
X84923762Y-95781810D01*
X84828524Y-95877048D01*
X84638048Y-95924667D01*
X84304714Y-95924667D01*
X84114238Y-95877048D01*
X84019000Y-95781810D01*
X83971381Y-95686572D01*
X84876143Y-94258000D02*
X84923762Y-94305619D01*
X84971381Y-94448476D01*
X84971381Y-94543714D01*
X84923762Y-94686572D01*
X84828524Y-94781810D01*
X84733286Y-94829429D01*
X84542810Y-94877048D01*
X84399952Y-94877048D01*
X84209476Y-94829429D01*
X84114238Y-94781810D01*
X84019000Y-94686572D01*
X83971381Y-94543714D01*
X83971381Y-94448476D01*
X84019000Y-94305619D01*
X84066619Y-94258000D01*
X84971381Y-93829429D02*
X83971381Y-93829429D01*
X84971381Y-93258000D02*
X84399952Y-93686572D01*
X83971381Y-93258000D02*
X84542810Y-93829429D01*
X84447571Y-92829429D02*
X84447571Y-92496095D01*
X84971381Y-92353238D02*
X84971381Y-92829429D01*
X83971381Y-92829429D01*
X83971381Y-92353238D01*
X83971381Y-92067524D02*
X83971381Y-91496095D01*
X84971381Y-91781810D02*
X83971381Y-91781810D01*
X85621381Y-100734191D02*
X85621381Y-100162762D01*
X86621381Y-100448477D02*
X85621381Y-100448477D01*
X86097571Y-99829429D02*
X86097571Y-99496095D01*
X86621381Y-99353238D02*
X86621381Y-99829429D01*
X85621381Y-99829429D01*
X85621381Y-99353238D01*
X86573762Y-98972286D02*
X86621381Y-98829429D01*
X86621381Y-98591333D01*
X86573762Y-98496095D01*
X86526143Y-98448476D01*
X86430905Y-98400857D01*
X86335667Y-98400857D01*
X86240429Y-98448476D01*
X86192810Y-98496095D01*
X86145190Y-98591333D01*
X86097571Y-98781810D01*
X86049952Y-98877048D01*
X86002333Y-98924667D01*
X85907095Y-98972286D01*
X85811857Y-98972286D01*
X85716619Y-98924667D01*
X85669000Y-98877048D01*
X85621381Y-98781810D01*
X85621381Y-98543714D01*
X85669000Y-98400857D01*
X85621381Y-98115143D02*
X85621381Y-97543714D01*
X86621381Y-97829429D02*
X85621381Y-97829429D01*
X86097571Y-96115142D02*
X86097571Y-96448476D01*
X86621381Y-96448476D02*
X85621381Y-96448476D01*
X85621381Y-95972285D01*
X86621381Y-95591333D02*
X85621381Y-95591333D01*
X85621381Y-95210381D02*
X86621381Y-94543714D01*
X85621381Y-94543714D02*
X86621381Y-95210381D01*
X85621381Y-94305619D02*
X85621381Y-93734190D01*
X86621381Y-94019905D02*
X85621381Y-94019905D01*
X85621381Y-93400857D02*
X86430905Y-93400857D01*
X86526143Y-93353238D01*
X86573762Y-93305619D01*
X86621381Y-93210381D01*
X86621381Y-93019904D01*
X86573762Y-92924666D01*
X86526143Y-92877047D01*
X86430905Y-92829428D01*
X85621381Y-92829428D01*
X86621381Y-91781809D02*
X86145190Y-92115143D01*
X86621381Y-92353238D02*
X85621381Y-92353238D01*
X85621381Y-91972285D01*
X85669000Y-91877047D01*
X85716619Y-91829428D01*
X85811857Y-91781809D01*
X85954714Y-91781809D01*
X86049952Y-91829428D01*
X86097571Y-91877047D01*
X86145190Y-91972285D01*
X86145190Y-92353238D01*
X86097571Y-91353238D02*
X86097571Y-91019904D01*
X86621381Y-90877047D02*
X86621381Y-91353238D01*
X85621381Y-91353238D01*
X85621381Y-90877047D01*
X109879381Y-69746286D02*
X109879381Y-69079619D01*
X110879381Y-69746286D01*
X110879381Y-69079619D01*
X110879381Y-68698667D02*
X109879381Y-68698667D01*
X110355571Y-67889143D02*
X110355571Y-68222477D01*
X110879381Y-68222477D02*
X109879381Y-68222477D01*
X109879381Y-67746286D01*
X110831762Y-66651048D02*
X110879381Y-66508191D01*
X110879381Y-66270095D01*
X110831762Y-66174857D01*
X110784143Y-66127238D01*
X110688905Y-66079619D01*
X110593667Y-66079619D01*
X110498429Y-66127238D01*
X110450810Y-66174857D01*
X110403190Y-66270095D01*
X110355571Y-66460572D01*
X110307952Y-66555810D01*
X110260333Y-66603429D01*
X110165095Y-66651048D01*
X110069857Y-66651048D01*
X109974619Y-66603429D01*
X109927000Y-66555810D01*
X109879381Y-66460572D01*
X109879381Y-66222476D01*
X109927000Y-66079619D01*
X109879381Y-65460572D02*
X109879381Y-65270095D01*
X109927000Y-65174857D01*
X110022238Y-65079619D01*
X110212714Y-65032000D01*
X110546048Y-65032000D01*
X110736524Y-65079619D01*
X110831762Y-65174857D01*
X110879381Y-65270095D01*
X110879381Y-65460572D01*
X110831762Y-65555810D01*
X110736524Y-65651048D01*
X110546048Y-65698667D01*
X110212714Y-65698667D01*
X110022238Y-65651048D01*
X109927000Y-65555810D01*
X109879381Y-65460572D01*
X110784143Y-64032000D02*
X110831762Y-64079619D01*
X110879381Y-64222476D01*
X110879381Y-64317714D01*
X110831762Y-64460572D01*
X110736524Y-64555810D01*
X110641286Y-64603429D01*
X110450810Y-64651048D01*
X110307952Y-64651048D01*
X110117476Y-64603429D01*
X110022238Y-64555810D01*
X109927000Y-64460572D01*
X109879381Y-64317714D01*
X109879381Y-64222476D01*
X109927000Y-64079619D01*
X109974619Y-64032000D01*
X110879381Y-63603429D02*
X109879381Y-63603429D01*
X110879381Y-63032000D02*
X110307952Y-63460572D01*
X109879381Y-63032000D02*
X110450810Y-63603429D01*
X110355571Y-62603429D02*
X110355571Y-62270095D01*
X110879381Y-62127238D02*
X110879381Y-62603429D01*
X109879381Y-62603429D01*
X109879381Y-62127238D01*
X109879381Y-61841524D02*
X109879381Y-61270095D01*
X110879381Y-61555810D02*
X109879381Y-61555810D01*
X111529381Y-70508191D02*
X111529381Y-69936762D01*
X112529381Y-70222477D02*
X111529381Y-70222477D01*
X112005571Y-69603429D02*
X112005571Y-69270095D01*
X112529381Y-69127238D02*
X112529381Y-69603429D01*
X111529381Y-69603429D01*
X111529381Y-69127238D01*
X112481762Y-68746286D02*
X112529381Y-68603429D01*
X112529381Y-68365333D01*
X112481762Y-68270095D01*
X112434143Y-68222476D01*
X112338905Y-68174857D01*
X112243667Y-68174857D01*
X112148429Y-68222476D01*
X112100810Y-68270095D01*
X112053190Y-68365333D01*
X112005571Y-68555810D01*
X111957952Y-68651048D01*
X111910333Y-68698667D01*
X111815095Y-68746286D01*
X111719857Y-68746286D01*
X111624619Y-68698667D01*
X111577000Y-68651048D01*
X111529381Y-68555810D01*
X111529381Y-68317714D01*
X111577000Y-68174857D01*
X111529381Y-67889143D02*
X111529381Y-67317714D01*
X112529381Y-67603429D02*
X111529381Y-67603429D01*
X112005571Y-65889142D02*
X112005571Y-66222476D01*
X112529381Y-66222476D02*
X111529381Y-66222476D01*
X111529381Y-65746285D01*
X112529381Y-65365333D02*
X111529381Y-65365333D01*
X111529381Y-64984381D02*
X112529381Y-64317714D01*
X111529381Y-64317714D02*
X112529381Y-64984381D01*
X111529381Y-64079619D02*
X111529381Y-63508190D01*
X112529381Y-63793905D02*
X111529381Y-63793905D01*
X111529381Y-63174857D02*
X112338905Y-63174857D01*
X112434143Y-63127238D01*
X112481762Y-63079619D01*
X112529381Y-62984381D01*
X112529381Y-62793904D01*
X112481762Y-62698666D01*
X112434143Y-62651047D01*
X112338905Y-62603428D01*
X111529381Y-62603428D01*
X112529381Y-61555809D02*
X112053190Y-61889143D01*
X112529381Y-62127238D02*
X111529381Y-62127238D01*
X111529381Y-61746285D01*
X111577000Y-61651047D01*
X111624619Y-61603428D01*
X111719857Y-61555809D01*
X111862714Y-61555809D01*
X111957952Y-61603428D01*
X112005571Y-61651047D01*
X112053190Y-61746285D01*
X112053190Y-62127238D01*
X112005571Y-61127238D02*
X112005571Y-60793904D01*
X112529381Y-60651047D02*
X112529381Y-61127238D01*
X111529381Y-61127238D01*
X111529381Y-60651047D01*
D13*
X55286000Y-53000000D02*
G75*
G03X55286000Y-53000000I-2286000J0D01*
G01*
X149286000Y-53000000D02*
G75*
G03X149286000Y-53000000I-2286000J0D01*
G01*
X55286000Y-147000000D02*
G75*
G03X55286000Y-147000000I-2286000J0D01*
G01*
X149286000Y-147000000D02*
G75*
G03X149286000Y-147000000I-2286000J0D01*
G01*
X59700000Y-65370000D02*
X60900000Y-65370000D01*
X60900000Y-67130000D02*
X59700000Y-67130000D01*
X60200000Y-84395000D02*
X61400000Y-84395000D01*
X61400000Y-86155000D02*
X60200000Y-86155000D01*
X59525000Y-105070000D02*
X60725000Y-105070000D01*
X60725000Y-106830000D02*
X59525000Y-106830000D01*
X59700000Y-124020000D02*
X60900000Y-124020000D01*
X60900000Y-125780000D02*
X59700000Y-125780000D01*
X81924000Y-140554000D02*
X81924000Y-139354000D01*
X83684000Y-139354000D02*
X83684000Y-140554000D01*
X111951589Y-81468663D02*
G75*
G03X111938000Y-78006000I-4763589J1712663D01*
G01*
X108900663Y-74992411D02*
G75*
G03X105438000Y-75006000I-1712663J-4763589D01*
G01*
X102424411Y-78043337D02*
G75*
G03X102438000Y-81506000I4763589J-1712663D01*
G01*
X105475337Y-84519589D02*
G75*
G03X108938000Y-84506000I1712663J4763589D01*
G01*
X93663589Y-81722663D02*
G75*
G03X93650000Y-78260000I-4763589J1712663D01*
G01*
X90612663Y-75246411D02*
G75*
G03X87150000Y-75260000I-1712663J-4763589D01*
G01*
X84136411Y-78297337D02*
G75*
G03X84150000Y-81760000I4763589J-1712663D01*
G01*
X87187337Y-84773589D02*
G75*
G03X90650000Y-84760000I1712663J4763589D01*
G01*
X104837411Y-108586837D02*
G75*
G03X104851000Y-112049500I4763589J-1712663D01*
G01*
X107888337Y-115063089D02*
G75*
G03X111351000Y-115049500I1712663J4763589D01*
G01*
X114364589Y-112012163D02*
G75*
G03X114351000Y-108549500I-4763589J1712663D01*
G01*
X111313663Y-105535911D02*
G75*
G03X107851000Y-105549500I-1712663J-4763589D01*
G01*
X87386411Y-124262337D02*
G75*
G03X87400000Y-127725000I4763589J-1712663D01*
G01*
X90437337Y-130738589D02*
G75*
G03X93900000Y-130725000I1712663J4763589D01*
G01*
X96913589Y-127687663D02*
G75*
G03X96900000Y-124225000I-4763589J1712663D01*
G01*
X93862663Y-121211411D02*
G75*
G03X90400000Y-121225000I-1712663J-4763589D01*
G01*
X104761411Y-124262337D02*
G75*
G03X104775000Y-127725000I4763589J-1712663D01*
G01*
X107812337Y-130738589D02*
G75*
G03X111275000Y-130725000I1712663J4763589D01*
G01*
X114288589Y-127687663D02*
G75*
G03X114275000Y-124225000I-4763589J1712663D01*
G01*
X111237663Y-121211411D02*
G75*
G03X107775000Y-121225000I-1712663J-4763589D01*
G01*
X88784611Y-108751937D02*
G75*
G03X88798200Y-112214600I4763589J-1712663D01*
G01*
X91835537Y-115228189D02*
G75*
G03X95298200Y-115214600I1712663J4763589D01*
G01*
X98311789Y-112177263D02*
G75*
G03X98298200Y-108714600I-4763589J1712663D01*
G01*
X95260863Y-105701011D02*
G75*
G03X91798200Y-105714600I-1712663J-4763589D01*
G01*
X61784411Y-140527337D02*
G75*
G03X61798000Y-143990000I4763589J-1712663D01*
G01*
X64835337Y-147003589D02*
G75*
G03X68298000Y-146990000I1712663J4763589D01*
G01*
X71311589Y-143952663D02*
G75*
G03X71298000Y-140490000I-4763589J1712663D01*
G01*
X68260663Y-137476411D02*
G75*
G03X64798000Y-137490000I-1712663J-4763589D01*
G01*
X58258000Y-143628000D02*
X57058000Y-143628000D01*
X57058000Y-141868000D02*
X58258000Y-141868000D01*
X71628000Y-51562000D02*
X81788000Y-51562000D01*
X71628000Y-50292000D02*
X71628000Y-57912000D01*
X71628000Y-57912000D02*
X81788000Y-57912000D01*
X81788000Y-57912000D02*
X81788000Y-50292000D01*
X81788000Y-50292000D02*
X71628000Y-50292000D01*
X133096000Y-110490000D02*
G75*
G03X133096000Y-110490000I-2286000J0D01*
G01*
X147986000Y-63500000D02*
G75*
G03X147986000Y-63500000I-2286000J0D01*
G01*
X119950411Y-123509337D02*
G75*
G03X119964000Y-126972000I4763589J-1712663D01*
G01*
X123001337Y-129985589D02*
G75*
G03X126464000Y-129972000I1712663J4763589D01*
G01*
X129477589Y-126934663D02*
G75*
G03X129464000Y-123472000I-4763589J1712663D01*
G01*
X126426663Y-120458411D02*
G75*
G03X122964000Y-120472000I-1712663J-4763589D01*
G01*
X114748000Y-64786000D02*
G75*
G02X114748000Y-66786000I0J-1000000D01*
G01*
X114748000Y-66786000D02*
X114748000Y-68036000D01*
X114748000Y-68036000D02*
X135188000Y-68036000D01*
X135188000Y-68036000D02*
X135188000Y-63536000D01*
X135188000Y-63536000D02*
X114748000Y-63536000D01*
X114748000Y-63536000D02*
X114748000Y-64786000D01*
X114688000Y-71036000D02*
X135248000Y-71036000D01*
X135248000Y-71036000D02*
X135248000Y-60536000D01*
X135248000Y-60536000D02*
X114688000Y-60536000D01*
X114688000Y-60536000D02*
X114688000Y-71036000D01*
X87770000Y-94040000D02*
G75*
G02X87770000Y-96040000I0J-1000000D01*
G01*
X87770000Y-96040000D02*
X87770000Y-97290000D01*
X87770000Y-97290000D02*
X108210000Y-97290000D01*
X108210000Y-97290000D02*
X108210000Y-92790000D01*
X108210000Y-92790000D02*
X87770000Y-92790000D01*
X87770000Y-92790000D02*
X87770000Y-94040000D01*
X87710000Y-100290000D02*
X108270000Y-100290000D01*
X108270000Y-100290000D02*
X108270000Y-89790000D01*
X108270000Y-89790000D02*
X87710000Y-89790000D01*
X87710000Y-89790000D02*
X87710000Y-100290000D01*
X58258000Y-141342000D02*
X57058000Y-141342000D01*
X57058000Y-139582000D02*
X58258000Y-139582000D01*
X79638000Y-140554000D02*
X79638000Y-139354000D01*
X81398000Y-139354000D02*
X81398000Y-140554000D01*
X82804000Y-51562000D02*
X92964000Y-51562000D01*
X82804000Y-50292000D02*
X82804000Y-57912000D01*
X82804000Y-57912000D02*
X92964000Y-57912000D01*
X92964000Y-57912000D02*
X92964000Y-50292000D01*
X92964000Y-50292000D02*
X82804000Y-50292000D01*
D14*
G36*
X102168123Y-62753611D02*
X102192894Y-62976899D01*
X102209924Y-63315889D01*
X102219295Y-63745387D01*
X102221090Y-64240201D01*
X102215391Y-64775139D01*
X102202282Y-65325007D01*
X102181845Y-65864613D01*
X102156376Y-66334497D01*
X102007851Y-67924482D01*
X101769402Y-69426599D01*
X101545863Y-70443511D01*
X101428820Y-70899507D01*
X101326543Y-71247163D01*
X101228102Y-71516893D01*
X101122568Y-71739109D01*
X101015818Y-71918478D01*
X100884085Y-72117234D01*
X100788024Y-72252522D01*
X100746533Y-72297866D01*
X100746111Y-72296308D01*
X100767458Y-72215305D01*
X100824005Y-72036360D01*
X100904509Y-71794781D01*
X100923692Y-71738564D01*
X100976156Y-71574208D01*
X101023829Y-71395657D01*
X101068717Y-71188472D01*
X101112830Y-70938215D01*
X101158175Y-70630448D01*
X101206761Y-70250732D01*
X101260596Y-69784630D01*
X101321687Y-69217704D01*
X101392044Y-68535514D01*
X101452111Y-67939444D01*
X101542962Y-66836525D01*
X101581576Y-65859528D01*
X101567675Y-65003178D01*
X101500979Y-64262200D01*
X101381210Y-63631319D01*
X101208089Y-63105261D01*
X101194983Y-63074569D01*
X101098973Y-62822376D01*
X101058951Y-62645371D01*
X101071180Y-62576709D01*
X101169787Y-62541746D01*
X101367148Y-62511399D01*
X101620921Y-62492141D01*
X101626015Y-62491924D01*
X102116600Y-62471388D01*
X102168123Y-62753611D01*
X102168123Y-62753611D01*
G37*
X102168123Y-62753611D02*
X102192894Y-62976899D01*
X102209924Y-63315889D01*
X102219295Y-63745387D01*
X102221090Y-64240201D01*
X102215391Y-64775139D01*
X102202282Y-65325007D01*
X102181845Y-65864613D01*
X102156376Y-66334497D01*
X102007851Y-67924482D01*
X101769402Y-69426599D01*
X101545863Y-70443511D01*
X101428820Y-70899507D01*
X101326543Y-71247163D01*
X101228102Y-71516893D01*
X101122568Y-71739109D01*
X101015818Y-71918478D01*
X100884085Y-72117234D01*
X100788024Y-72252522D01*
X100746533Y-72297866D01*
X100746111Y-72296308D01*
X100767458Y-72215305D01*
X100824005Y-72036360D01*
X100904509Y-71794781D01*
X100923692Y-71738564D01*
X100976156Y-71574208D01*
X101023829Y-71395657D01*
X101068717Y-71188472D01*
X101112830Y-70938215D01*
X101158175Y-70630448D01*
X101206761Y-70250732D01*
X101260596Y-69784630D01*
X101321687Y-69217704D01*
X101392044Y-68535514D01*
X101452111Y-67939444D01*
X101542962Y-66836525D01*
X101581576Y-65859528D01*
X101567675Y-65003178D01*
X101500979Y-64262200D01*
X101381210Y-63631319D01*
X101208089Y-63105261D01*
X101194983Y-63074569D01*
X101098973Y-62822376D01*
X101058951Y-62645371D01*
X101071180Y-62576709D01*
X101169787Y-62541746D01*
X101367148Y-62511399D01*
X101620921Y-62492141D01*
X101626015Y-62491924D01*
X102116600Y-62471388D01*
X102168123Y-62753611D01*
G36*
X102543263Y-68692823D02*
X102698140Y-68825533D01*
X102916855Y-69026986D01*
X103183286Y-69281042D01*
X103481316Y-69571557D01*
X103794825Y-69882389D01*
X104107692Y-70197398D01*
X104403800Y-70500440D01*
X104667028Y-70775373D01*
X104881256Y-71006056D01*
X105030366Y-71176346D01*
X105098238Y-71270102D01*
X105100398Y-71280751D01*
X105057105Y-71345047D01*
X104974226Y-71351528D01*
X104831451Y-71293004D01*
X104608471Y-71162287D01*
X104415815Y-71038418D01*
X104146595Y-70871740D01*
X103794779Y-70667474D01*
X103404298Y-70450503D01*
X103019085Y-70245710D01*
X102987065Y-70229184D01*
X102086667Y-69765755D01*
X102086667Y-69410297D01*
X102118772Y-69142589D01*
X102202850Y-68901408D01*
X102320544Y-68723560D01*
X102453497Y-68645853D01*
X102468341Y-68645000D01*
X102543263Y-68692823D01*
X102543263Y-68692823D01*
G37*
X102543263Y-68692823D02*
X102698140Y-68825533D01*
X102916855Y-69026986D01*
X103183286Y-69281042D01*
X103481316Y-69571557D01*
X103794825Y-69882389D01*
X104107692Y-70197398D01*
X104403800Y-70500440D01*
X104667028Y-70775373D01*
X104881256Y-71006056D01*
X105030366Y-71176346D01*
X105098238Y-71270102D01*
X105100398Y-71280751D01*
X105057105Y-71345047D01*
X104974226Y-71351528D01*
X104831451Y-71293004D01*
X104608471Y-71162287D01*
X104415815Y-71038418D01*
X104146595Y-70871740D01*
X103794779Y-70667474D01*
X103404298Y-70450503D01*
X103019085Y-70245710D01*
X102987065Y-70229184D01*
X102086667Y-69765755D01*
X102086667Y-69410297D01*
X102118772Y-69142589D01*
X102202850Y-68901408D01*
X102320544Y-68723560D01*
X102453497Y-68645853D01*
X102468341Y-68645000D01*
X102543263Y-68692823D01*
G36*
X100928784Y-68440488D02*
X100974075Y-68484420D01*
X100978701Y-68598823D01*
X100952594Y-68817396D01*
X100950548Y-68832488D01*
X100893069Y-69101207D01*
X100810032Y-69299752D01*
X100768330Y-69353735D01*
X100644762Y-69424751D01*
X100412753Y-69518052D01*
X100101447Y-69624581D01*
X99739989Y-69735284D01*
X99357525Y-69841105D01*
X98983199Y-69932989D01*
X98735278Y-69985395D01*
X98467224Y-70043996D01*
X98138294Y-70125557D01*
X97796492Y-70217150D01*
X97489819Y-70305848D01*
X97266277Y-70378724D01*
X97244611Y-70386827D01*
X97159494Y-70381539D01*
X97147778Y-70351652D01*
X97124181Y-70224293D01*
X97107639Y-70174718D01*
X97123863Y-70105729D01*
X97234546Y-70024848D01*
X97456195Y-69921810D01*
X97619167Y-69856694D01*
X97915414Y-69735263D01*
X98302584Y-69566750D01*
X98745484Y-69367380D01*
X99208924Y-69153374D01*
X99657711Y-68940958D01*
X100056653Y-68746353D01*
X100333177Y-68605540D01*
X100556264Y-68505340D01*
X100756700Y-68443245D01*
X100832895Y-68433333D01*
X100928784Y-68440488D01*
X100928784Y-68440488D01*
G37*
X100928784Y-68440488D02*
X100974075Y-68484420D01*
X100978701Y-68598823D01*
X100952594Y-68817396D01*
X100950548Y-68832488D01*
X100893069Y-69101207D01*
X100810032Y-69299752D01*
X100768330Y-69353735D01*
X100644762Y-69424751D01*
X100412753Y-69518052D01*
X100101447Y-69624581D01*
X99739989Y-69735284D01*
X99357525Y-69841105D01*
X98983199Y-69932989D01*
X98735278Y-69985395D01*
X98467224Y-70043996D01*
X98138294Y-70125557D01*
X97796492Y-70217150D01*
X97489819Y-70305848D01*
X97266277Y-70378724D01*
X97244611Y-70386827D01*
X97159494Y-70381539D01*
X97147778Y-70351652D01*
X97124181Y-70224293D01*
X97107639Y-70174718D01*
X97123863Y-70105729D01*
X97234546Y-70024848D01*
X97456195Y-69921810D01*
X97619167Y-69856694D01*
X97915414Y-69735263D01*
X98302584Y-69566750D01*
X98745484Y-69367380D01*
X99208924Y-69153374D01*
X99657711Y-68940958D01*
X100056653Y-68746353D01*
X100333177Y-68605540D01*
X100556264Y-68505340D01*
X100756700Y-68443245D01*
X100832895Y-68433333D01*
X100928784Y-68440488D01*
G36*
X101332491Y-65727120D02*
X101353579Y-65825659D01*
X101344471Y-66011548D01*
X101312530Y-66236118D01*
X101265116Y-66450697D01*
X101209593Y-66606616D01*
X101195952Y-66629793D01*
X101076888Y-66721920D01*
X100832928Y-66842053D01*
X100476485Y-66985677D01*
X100019976Y-67148275D01*
X99475815Y-67325330D01*
X98856418Y-67512325D01*
X98453056Y-67627633D01*
X98070555Y-67735157D01*
X97732898Y-67830712D01*
X97464733Y-67907274D01*
X97290703Y-67957817D01*
X97238232Y-67973905D01*
X97127874Y-67952683D01*
X97104612Y-67926681D01*
X97097059Y-67866533D01*
X97150944Y-67792029D01*
X97278342Y-67695843D01*
X97491330Y-67570646D01*
X97801982Y-67409112D01*
X98222374Y-67203913D01*
X98558889Y-67044265D01*
X99006224Y-66831478D01*
X99478674Y-66603097D01*
X99933317Y-66380108D01*
X100327230Y-66183494D01*
X100507681Y-66091503D01*
X100808404Y-65941024D01*
X101062477Y-65822522D01*
X101244787Y-65747090D01*
X101330224Y-65725823D01*
X101332491Y-65727120D01*
X101332491Y-65727120D01*
G37*
X101332491Y-65727120D02*
X101353579Y-65825659D01*
X101344471Y-66011548D01*
X101312530Y-66236118D01*
X101265116Y-66450697D01*
X101209593Y-66606616D01*
X101195952Y-66629793D01*
X101076888Y-66721920D01*
X100832928Y-66842053D01*
X100476485Y-66985677D01*
X100019976Y-67148275D01*
X99475815Y-67325330D01*
X98856418Y-67512325D01*
X98453056Y-67627633D01*
X98070555Y-67735157D01*
X97732898Y-67830712D01*
X97464733Y-67907274D01*
X97290703Y-67957817D01*
X97238232Y-67973905D01*
X97127874Y-67952683D01*
X97104612Y-67926681D01*
X97097059Y-67866533D01*
X97150944Y-67792029D01*
X97278342Y-67695843D01*
X97491330Y-67570646D01*
X97801982Y-67409112D01*
X98222374Y-67203913D01*
X98558889Y-67044265D01*
X99006224Y-66831478D01*
X99478674Y-66603097D01*
X99933317Y-66380108D01*
X100327230Y-66183494D01*
X100507681Y-66091503D01*
X100808404Y-65941024D01*
X101062477Y-65822522D01*
X101244787Y-65747090D01*
X101330224Y-65725823D01*
X101332491Y-65727120D01*
G36*
X102606539Y-65912770D02*
X102693222Y-65959223D01*
X102895676Y-66041007D01*
X103194994Y-66151324D01*
X103572270Y-66283376D01*
X104008600Y-66430366D01*
X104415000Y-66563008D01*
X105042100Y-66768637D01*
X105542291Y-66941593D01*
X105925033Y-67085486D01*
X106199785Y-67203926D01*
X106376006Y-67300522D01*
X106408195Y-67323538D01*
X106564368Y-67456748D01*
X106659372Y-67561969D01*
X106672778Y-67592595D01*
X106616426Y-67645517D01*
X106485175Y-67647792D01*
X106335733Y-67599680D01*
X106320000Y-67590962D01*
X106120346Y-67510201D01*
X105784109Y-67420705D01*
X105315487Y-67323356D01*
X104718679Y-67219038D01*
X104097161Y-67123111D01*
X103637746Y-67054067D01*
X103296289Y-66997639D01*
X103050812Y-66948292D01*
X102879335Y-66900492D01*
X102759877Y-66848706D01*
X102670458Y-66787399D01*
X102633473Y-66754582D01*
X102483861Y-66558142D01*
X102439488Y-66319206D01*
X102439445Y-66309236D01*
X102455050Y-66042874D01*
X102499665Y-65897096D01*
X102569992Y-65879729D01*
X102606539Y-65912770D01*
X102606539Y-65912770D01*
G37*
X102606539Y-65912770D02*
X102693222Y-65959223D01*
X102895676Y-66041007D01*
X103194994Y-66151324D01*
X103572270Y-66283376D01*
X104008600Y-66430366D01*
X104415000Y-66563008D01*
X105042100Y-66768637D01*
X105542291Y-66941593D01*
X105925033Y-67085486D01*
X106199785Y-67203926D01*
X106376006Y-67300522D01*
X106408195Y-67323538D01*
X106564368Y-67456748D01*
X106659372Y-67561969D01*
X106672778Y-67592595D01*
X106616426Y-67645517D01*
X106485175Y-67647792D01*
X106335733Y-67599680D01*
X106320000Y-67590962D01*
X106120346Y-67510201D01*
X105784109Y-67420705D01*
X105315487Y-67323356D01*
X104718679Y-67219038D01*
X104097161Y-67123111D01*
X103637746Y-67054067D01*
X103296289Y-66997639D01*
X103050812Y-66948292D01*
X102879335Y-66900492D01*
X102759877Y-66848706D01*
X102670458Y-66787399D01*
X102633473Y-66754582D01*
X102483861Y-66558142D01*
X102439488Y-66319206D01*
X102439445Y-66309236D01*
X102455050Y-66042874D01*
X102499665Y-65897096D01*
X102569992Y-65879729D01*
X102606539Y-65912770D01*
D12*
X140312381Y-53928333D02*
X141026667Y-53928333D01*
X141169524Y-53975953D01*
X141264762Y-54071191D01*
X141312381Y-54214048D01*
X141312381Y-54309286D01*
X140407619Y-53499762D02*
X140360000Y-53452143D01*
X140312381Y-53356905D01*
X140312381Y-53118809D01*
X140360000Y-53023571D01*
X140407619Y-52975952D01*
X140502857Y-52928333D01*
X140598095Y-52928333D01*
X140740952Y-52975952D01*
X141312381Y-53547381D01*
X141312381Y-52928333D01*
X52047877Y-55992781D02*
X52047877Y-56707067D01*
X52000257Y-56849924D01*
X51905019Y-56945162D01*
X51762162Y-56992781D01*
X51666924Y-56992781D01*
X53047877Y-56992781D02*
X52476448Y-56992781D01*
X52762162Y-56992781D02*
X52762162Y-55992781D01*
X52666924Y-56135638D01*
X52571686Y-56230876D01*
X52476448Y-56278495D01*
X53619305Y-56421352D02*
X53524067Y-56373733D01*
X53476448Y-56326114D01*
X53428829Y-56230876D01*
X53428829Y-56183257D01*
X53476448Y-56088019D01*
X53524067Y-56040400D01*
X53619305Y-55992781D01*
X53809782Y-55992781D01*
X53905020Y-56040400D01*
X53952639Y-56088019D01*
X54000258Y-56183257D01*
X54000258Y-56230876D01*
X53952639Y-56326114D01*
X53905020Y-56373733D01*
X53809782Y-56421352D01*
X53619305Y-56421352D01*
X53524067Y-56468971D01*
X53476448Y-56516590D01*
X53428829Y-56611829D01*
X53428829Y-56802305D01*
X53476448Y-56897543D01*
X53524067Y-56945162D01*
X53619305Y-56992781D01*
X53809782Y-56992781D01*
X53905020Y-56945162D01*
X53952639Y-56897543D01*
X54000258Y-56802305D01*
X54000258Y-56611829D01*
X53952639Y-56516590D01*
X53905020Y-56468971D01*
X53809782Y-56421352D01*
X146269177Y-55941981D02*
X146269177Y-56656267D01*
X146221557Y-56799124D01*
X146126319Y-56894362D01*
X145983462Y-56941981D01*
X145888224Y-56941981D01*
X147269177Y-56941981D02*
X146697748Y-56941981D01*
X146983462Y-56941981D02*
X146983462Y-55941981D01*
X146888224Y-56084838D01*
X146792986Y-56180076D01*
X146697748Y-56227695D01*
X147745367Y-56941981D02*
X147935843Y-56941981D01*
X148031082Y-56894362D01*
X148078701Y-56846743D01*
X148173939Y-56703886D01*
X148221558Y-56513410D01*
X148221558Y-56132457D01*
X148173939Y-56037219D01*
X148126320Y-55989600D01*
X148031082Y-55941981D01*
X147840605Y-55941981D01*
X147745367Y-55989600D01*
X147697748Y-56037219D01*
X147650129Y-56132457D01*
X147650129Y-56370552D01*
X147697748Y-56465790D01*
X147745367Y-56513410D01*
X147840605Y-56561029D01*
X148031082Y-56561029D01*
X148126320Y-56513410D01*
X148173939Y-56465790D01*
X148221558Y-56370552D01*
X52190477Y-143404381D02*
X52190477Y-144118667D01*
X52142857Y-144261524D01*
X52047619Y-144356762D01*
X51904762Y-144404381D01*
X51809524Y-144404381D01*
X52619048Y-143499619D02*
X52666667Y-143452000D01*
X52761905Y-143404381D01*
X53000001Y-143404381D01*
X53095239Y-143452000D01*
X53142858Y-143499619D01*
X53190477Y-143594857D01*
X53190477Y-143690095D01*
X53142858Y-143832952D01*
X52571429Y-144404381D01*
X53190477Y-144404381D01*
X53809524Y-143404381D02*
X53904763Y-143404381D01*
X54000001Y-143452000D01*
X54047620Y-143499619D01*
X54095239Y-143594857D01*
X54142858Y-143785333D01*
X54142858Y-144023429D01*
X54095239Y-144213905D01*
X54047620Y-144309143D01*
X54000001Y-144356762D01*
X53904763Y-144404381D01*
X53809524Y-144404381D01*
X53714286Y-144356762D01*
X53666667Y-144309143D01*
X53619048Y-144213905D01*
X53571429Y-144023429D01*
X53571429Y-143785333D01*
X53619048Y-143594857D01*
X53666667Y-143499619D01*
X53714286Y-143452000D01*
X53809524Y-143404381D01*
X146190477Y-143404381D02*
X146190477Y-144118667D01*
X146142857Y-144261524D01*
X146047619Y-144356762D01*
X145904762Y-144404381D01*
X145809524Y-144404381D01*
X146619048Y-143499619D02*
X146666667Y-143452000D01*
X146761905Y-143404381D01*
X147000001Y-143404381D01*
X147095239Y-143452000D01*
X147142858Y-143499619D01*
X147190477Y-143594857D01*
X147190477Y-143690095D01*
X147142858Y-143832952D01*
X146571429Y-144404381D01*
X147190477Y-144404381D01*
X148142858Y-144404381D02*
X147571429Y-144404381D01*
X147857143Y-144404381D02*
X147857143Y-143404381D01*
X147761905Y-143547238D01*
X147666667Y-143642476D01*
X147571429Y-143690095D01*
X107922381Y-53978333D02*
X108636667Y-53978333D01*
X108779524Y-54025953D01*
X108874762Y-54121191D01*
X108922381Y-54264048D01*
X108922381Y-54359286D01*
X108922381Y-53454524D02*
X108922381Y-53264048D01*
X108874762Y-53168809D01*
X108827143Y-53121190D01*
X108684286Y-53025952D01*
X108493810Y-52978333D01*
X108112857Y-52978333D01*
X108017619Y-53025952D01*
X107970000Y-53073571D01*
X107922381Y-53168809D01*
X107922381Y-53359286D01*
X107970000Y-53454524D01*
X108017619Y-53502143D01*
X108112857Y-53549762D01*
X108350952Y-53549762D01*
X108446190Y-53502143D01*
X108493810Y-53454524D01*
X108541429Y-53359286D01*
X108541429Y-53168809D01*
X108493810Y-53073571D01*
X108446190Y-53025952D01*
X108350952Y-52978333D01*
X57187381Y-63483333D02*
X57901667Y-63483333D01*
X58044524Y-63530953D01*
X58139762Y-63626191D01*
X58187381Y-63769048D01*
X58187381Y-63864286D01*
X57187381Y-62578571D02*
X57187381Y-62769048D01*
X57235000Y-62864286D01*
X57282619Y-62911905D01*
X57425476Y-63007143D01*
X57615952Y-63054762D01*
X57996905Y-63054762D01*
X58092143Y-63007143D01*
X58139762Y-62959524D01*
X58187381Y-62864286D01*
X58187381Y-62673809D01*
X58139762Y-62578571D01*
X58092143Y-62530952D01*
X57996905Y-62483333D01*
X57758810Y-62483333D01*
X57663571Y-62530952D01*
X57615952Y-62578571D01*
X57568333Y-62673809D01*
X57568333Y-62864286D01*
X57615952Y-62959524D01*
X57663571Y-63007143D01*
X57758810Y-63054762D01*
X57062381Y-82508333D02*
X57776667Y-82508333D01*
X57919524Y-82555953D01*
X58014762Y-82651191D01*
X58062381Y-82794048D01*
X58062381Y-82889286D01*
X57062381Y-82127381D02*
X57062381Y-81460714D01*
X58062381Y-81889286D01*
X57062381Y-103559523D02*
X57776667Y-103559523D01*
X57919524Y-103607143D01*
X58014762Y-103702381D01*
X58062381Y-103845238D01*
X58062381Y-103940476D01*
X58062381Y-102559523D02*
X58062381Y-103130952D01*
X58062381Y-102845238D02*
X57062381Y-102845238D01*
X57205238Y-102940476D01*
X57300476Y-103035714D01*
X57348095Y-103130952D01*
X57062381Y-101940476D02*
X57062381Y-101845237D01*
X57110000Y-101749999D01*
X57157619Y-101702380D01*
X57252857Y-101654761D01*
X57443333Y-101607142D01*
X57681429Y-101607142D01*
X57871905Y-101654761D01*
X57967143Y-101702380D01*
X58014762Y-101749999D01*
X58062381Y-101845237D01*
X58062381Y-101940476D01*
X58014762Y-102035714D01*
X57967143Y-102083333D01*
X57871905Y-102130952D01*
X57681429Y-102178571D01*
X57443333Y-102178571D01*
X57252857Y-102130952D01*
X57157619Y-102083333D01*
X57110000Y-102035714D01*
X57062381Y-101940476D01*
X56987381Y-122484523D02*
X57701667Y-122484523D01*
X57844524Y-122532143D01*
X57939762Y-122627381D01*
X57987381Y-122770238D01*
X57987381Y-122865476D01*
X57987381Y-121484523D02*
X57987381Y-122055952D01*
X57987381Y-121770238D02*
X56987381Y-121770238D01*
X57130238Y-121865476D01*
X57225476Y-121960714D01*
X57273095Y-122055952D01*
X57987381Y-120532142D02*
X57987381Y-121103571D01*
X57987381Y-120817857D02*
X56987381Y-120817857D01*
X57130238Y-120913095D01*
X57225476Y-121008333D01*
X57273095Y-121103571D01*
X60133334Y-68402381D02*
X59800000Y-67926190D01*
X59561905Y-68402381D02*
X59561905Y-67402381D01*
X59942858Y-67402381D01*
X60038096Y-67450000D01*
X60085715Y-67497619D01*
X60133334Y-67592857D01*
X60133334Y-67735714D01*
X60085715Y-67830952D01*
X60038096Y-67878571D01*
X59942858Y-67926190D01*
X59561905Y-67926190D01*
X61085715Y-68402381D02*
X60514286Y-68402381D01*
X60800000Y-68402381D02*
X60800000Y-67402381D01*
X60704762Y-67545238D01*
X60609524Y-67640476D01*
X60514286Y-67688095D01*
X60633334Y-87427381D02*
X60300000Y-86951190D01*
X60061905Y-87427381D02*
X60061905Y-86427381D01*
X60442858Y-86427381D01*
X60538096Y-86475000D01*
X60585715Y-86522619D01*
X60633334Y-86617857D01*
X60633334Y-86760714D01*
X60585715Y-86855952D01*
X60538096Y-86903571D01*
X60442858Y-86951190D01*
X60061905Y-86951190D01*
X61014286Y-86522619D02*
X61061905Y-86475000D01*
X61157143Y-86427381D01*
X61395239Y-86427381D01*
X61490477Y-86475000D01*
X61538096Y-86522619D01*
X61585715Y-86617857D01*
X61585715Y-86713095D01*
X61538096Y-86855952D01*
X60966667Y-87427381D01*
X61585715Y-87427381D01*
X59958334Y-108102381D02*
X59625000Y-107626190D01*
X59386905Y-108102381D02*
X59386905Y-107102381D01*
X59767858Y-107102381D01*
X59863096Y-107150000D01*
X59910715Y-107197619D01*
X59958334Y-107292857D01*
X59958334Y-107435714D01*
X59910715Y-107530952D01*
X59863096Y-107578571D01*
X59767858Y-107626190D01*
X59386905Y-107626190D01*
X60815477Y-107435714D02*
X60815477Y-108102381D01*
X60577381Y-107054762D02*
X60339286Y-107769048D01*
X60958334Y-107769048D01*
X60133334Y-127052381D02*
X59800000Y-126576190D01*
X59561905Y-127052381D02*
X59561905Y-126052381D01*
X59942858Y-126052381D01*
X60038096Y-126100000D01*
X60085715Y-126147619D01*
X60133334Y-126242857D01*
X60133334Y-126385714D01*
X60085715Y-126480952D01*
X60038096Y-126528571D01*
X59942858Y-126576190D01*
X59561905Y-126576190D01*
X61038096Y-126052381D02*
X60561905Y-126052381D01*
X60514286Y-126528571D01*
X60561905Y-126480952D01*
X60657143Y-126433333D01*
X60895239Y-126433333D01*
X60990477Y-126480952D01*
X61038096Y-126528571D01*
X61085715Y-126623810D01*
X61085715Y-126861905D01*
X61038096Y-126957143D01*
X60990477Y-127004762D01*
X60895239Y-127052381D01*
X60657143Y-127052381D01*
X60561905Y-127004762D01*
X60514286Y-126957143D01*
X142317381Y-139858333D02*
X143031667Y-139858333D01*
X143174524Y-139905953D01*
X143269762Y-140001191D01*
X143317381Y-140144048D01*
X143317381Y-140239286D01*
X142745952Y-139239286D02*
X142698333Y-139334524D01*
X142650714Y-139382143D01*
X142555476Y-139429762D01*
X142507857Y-139429762D01*
X142412619Y-139382143D01*
X142365000Y-139334524D01*
X142317381Y-139239286D01*
X142317381Y-139048809D01*
X142365000Y-138953571D01*
X142412619Y-138905952D01*
X142507857Y-138858333D01*
X142555476Y-138858333D01*
X142650714Y-138905952D01*
X142698333Y-138953571D01*
X142745952Y-139048809D01*
X142745952Y-139239286D01*
X142793571Y-139334524D01*
X142841190Y-139382143D01*
X142936429Y-139429762D01*
X143126905Y-139429762D01*
X143222143Y-139382143D01*
X143269762Y-139334524D01*
X143317381Y-139239286D01*
X143317381Y-139048809D01*
X143269762Y-138953571D01*
X143222143Y-138905952D01*
X143126905Y-138858333D01*
X142936429Y-138858333D01*
X142841190Y-138905952D01*
X142793571Y-138953571D01*
X142745952Y-139048809D01*
X132165477Y-142067381D02*
X132165477Y-142781667D01*
X132117857Y-142924524D01*
X132022619Y-143019762D01*
X131879762Y-143067381D01*
X131784524Y-143067381D01*
X133165477Y-143067381D02*
X132594048Y-143067381D01*
X132879762Y-143067381D02*
X132879762Y-142067381D01*
X132784524Y-142210238D01*
X132689286Y-142305476D01*
X132594048Y-142353095D01*
X133546429Y-142162619D02*
X133594048Y-142115000D01*
X133689286Y-142067381D01*
X133927382Y-142067381D01*
X134022620Y-142115000D01*
X134070239Y-142162619D01*
X134117858Y-142257857D01*
X134117858Y-142353095D01*
X134070239Y-142495952D01*
X133498810Y-143067381D01*
X134117858Y-143067381D01*
X115040477Y-142067381D02*
X115040477Y-142781667D01*
X114992857Y-142924524D01*
X114897619Y-143019762D01*
X114754762Y-143067381D01*
X114659524Y-143067381D01*
X116040477Y-143067381D02*
X115469048Y-143067381D01*
X115754762Y-143067381D02*
X115754762Y-142067381D01*
X115659524Y-142210238D01*
X115564286Y-142305476D01*
X115469048Y-142353095D01*
X116373810Y-142067381D02*
X116992858Y-142067381D01*
X116659524Y-142448333D01*
X116802382Y-142448333D01*
X116897620Y-142495952D01*
X116945239Y-142543571D01*
X116992858Y-142638810D01*
X116992858Y-142876905D01*
X116945239Y-142972143D01*
X116897620Y-143019762D01*
X116802382Y-143067381D01*
X116516667Y-143067381D01*
X116421429Y-143019762D01*
X116373810Y-142972143D01*
X96540477Y-142392381D02*
X96540477Y-143106667D01*
X96492857Y-143249524D01*
X96397619Y-143344762D01*
X96254762Y-143392381D01*
X96159524Y-143392381D01*
X97540477Y-143392381D02*
X96969048Y-143392381D01*
X97254762Y-143392381D02*
X97254762Y-142392381D01*
X97159524Y-142535238D01*
X97064286Y-142630476D01*
X96969048Y-142678095D01*
X98397620Y-142725714D02*
X98397620Y-143392381D01*
X98159524Y-142344762D02*
X97921429Y-143059048D01*
X98540477Y-143059048D01*
X77715477Y-142317381D02*
X77715477Y-143031667D01*
X77667857Y-143174524D01*
X77572619Y-143269762D01*
X77429762Y-143317381D01*
X77334524Y-143317381D01*
X78715477Y-143317381D02*
X78144048Y-143317381D01*
X78429762Y-143317381D02*
X78429762Y-142317381D01*
X78334524Y-142460238D01*
X78239286Y-142555476D01*
X78144048Y-142603095D01*
X79620239Y-142317381D02*
X79144048Y-142317381D01*
X79096429Y-142793571D01*
X79144048Y-142745952D01*
X79239286Y-142698333D01*
X79477382Y-142698333D01*
X79572620Y-142745952D01*
X79620239Y-142793571D01*
X79667858Y-142888810D01*
X79667858Y-143126905D01*
X79620239Y-143222143D01*
X79572620Y-143269762D01*
X79477382Y-143317381D01*
X79239286Y-143317381D01*
X79144048Y-143269762D01*
X79096429Y-143222143D01*
X84956381Y-140120666D02*
X84480190Y-140454000D01*
X84956381Y-140692095D02*
X83956381Y-140692095D01*
X83956381Y-140311142D01*
X84004000Y-140215904D01*
X84051619Y-140168285D01*
X84146857Y-140120666D01*
X84289714Y-140120666D01*
X84384952Y-140168285D01*
X84432571Y-140215904D01*
X84480190Y-140311142D01*
X84480190Y-140692095D01*
X83956381Y-139787333D02*
X83956381Y-139168285D01*
X84337333Y-139501619D01*
X84337333Y-139358761D01*
X84384952Y-139263523D01*
X84432571Y-139215904D01*
X84527810Y-139168285D01*
X84765905Y-139168285D01*
X84861143Y-139215904D01*
X84908762Y-139263523D01*
X84956381Y-139358761D01*
X84956381Y-139644476D01*
X84908762Y-139739714D01*
X84861143Y-139787333D01*
X107104667Y-85458381D02*
X107104667Y-86172667D01*
X107057047Y-86315524D01*
X106961809Y-86410762D01*
X106818952Y-86458381D01*
X106723714Y-86458381D01*
X108104667Y-86458381D02*
X107533238Y-86458381D01*
X107818952Y-86458381D02*
X107818952Y-85458381D01*
X107723714Y-85601238D01*
X107628476Y-85696476D01*
X107533238Y-85744095D01*
X88816667Y-85712381D02*
X88816667Y-86426667D01*
X88769047Y-86569524D01*
X88673809Y-86664762D01*
X88530952Y-86712381D01*
X88435714Y-86712381D01*
X89197619Y-85712381D02*
X89816667Y-85712381D01*
X89483333Y-86093333D01*
X89626191Y-86093333D01*
X89721429Y-86140952D01*
X89769048Y-86188571D01*
X89816667Y-86283810D01*
X89816667Y-86521905D01*
X89769048Y-86617143D01*
X89721429Y-86664762D01*
X89626191Y-86712381D01*
X89340476Y-86712381D01*
X89245238Y-86664762D01*
X89197619Y-86617143D01*
X108541477Y-103501881D02*
X108541477Y-104216167D01*
X108493857Y-104359024D01*
X108398619Y-104454262D01*
X108255762Y-104501881D01*
X108160524Y-104501881D01*
X109541477Y-104501881D02*
X108970048Y-104501881D01*
X109255762Y-104501881D02*
X109255762Y-103501881D01*
X109160524Y-103644738D01*
X109065286Y-103739976D01*
X108970048Y-103787595D01*
X110398620Y-103501881D02*
X110208143Y-103501881D01*
X110112905Y-103549500D01*
X110065286Y-103597119D01*
X109970048Y-103739976D01*
X109922429Y-103930452D01*
X109922429Y-104311405D01*
X109970048Y-104406643D01*
X110017667Y-104454262D01*
X110112905Y-104501881D01*
X110303382Y-104501881D01*
X110398620Y-104454262D01*
X110446239Y-104406643D01*
X110493858Y-104311405D01*
X110493858Y-104073310D01*
X110446239Y-103978071D01*
X110398620Y-103930452D01*
X110303382Y-103882833D01*
X110112905Y-103882833D01*
X110017667Y-103930452D01*
X109970048Y-103978071D01*
X109922429Y-104073310D01*
X91090477Y-119177381D02*
X91090477Y-119891667D01*
X91042857Y-120034524D01*
X90947619Y-120129762D01*
X90804762Y-120177381D01*
X90709524Y-120177381D01*
X92090477Y-120177381D02*
X91519048Y-120177381D01*
X91804762Y-120177381D02*
X91804762Y-119177381D01*
X91709524Y-119320238D01*
X91614286Y-119415476D01*
X91519048Y-119463095D01*
X92423810Y-119177381D02*
X93090477Y-119177381D01*
X92661905Y-120177381D01*
X108465477Y-119177381D02*
X108465477Y-119891667D01*
X108417857Y-120034524D01*
X108322619Y-120129762D01*
X108179762Y-120177381D01*
X108084524Y-120177381D01*
X108894048Y-119272619D02*
X108941667Y-119225000D01*
X109036905Y-119177381D01*
X109275001Y-119177381D01*
X109370239Y-119225000D01*
X109417858Y-119272619D01*
X109465477Y-119367857D01*
X109465477Y-119463095D01*
X109417858Y-119605952D01*
X108846429Y-120177381D01*
X109465477Y-120177381D01*
X109846429Y-119272619D02*
X109894048Y-119225000D01*
X109989286Y-119177381D01*
X110227382Y-119177381D01*
X110322620Y-119225000D01*
X110370239Y-119272619D01*
X110417858Y-119367857D01*
X110417858Y-119463095D01*
X110370239Y-119605952D01*
X109798810Y-120177381D01*
X110417858Y-120177381D01*
X92488677Y-103666981D02*
X92488677Y-104381267D01*
X92441057Y-104524124D01*
X92345819Y-104619362D01*
X92202962Y-104666981D01*
X92107724Y-104666981D01*
X92917248Y-103762219D02*
X92964867Y-103714600D01*
X93060105Y-103666981D01*
X93298201Y-103666981D01*
X93393439Y-103714600D01*
X93441058Y-103762219D01*
X93488677Y-103857457D01*
X93488677Y-103952695D01*
X93441058Y-104095552D01*
X92869629Y-104666981D01*
X93488677Y-104666981D01*
X93822010Y-103666981D02*
X94441058Y-103666981D01*
X94107724Y-104047933D01*
X94250582Y-104047933D01*
X94345820Y-104095552D01*
X94393439Y-104143171D01*
X94441058Y-104238410D01*
X94441058Y-104476505D01*
X94393439Y-104571743D01*
X94345820Y-104619362D01*
X94250582Y-104666981D01*
X93964867Y-104666981D01*
X93869629Y-104619362D01*
X93822010Y-104571743D01*
X59142381Y-146351523D02*
X59856667Y-146351523D01*
X59999524Y-146399143D01*
X60094762Y-146494381D01*
X60142381Y-146637238D01*
X60142381Y-146732476D01*
X59237619Y-145922952D02*
X59190000Y-145875333D01*
X59142381Y-145780095D01*
X59142381Y-145541999D01*
X59190000Y-145446761D01*
X59237619Y-145399142D01*
X59332857Y-145351523D01*
X59428095Y-145351523D01*
X59570952Y-145399142D01*
X60142381Y-145970571D01*
X60142381Y-145351523D01*
X59475714Y-144494380D02*
X60142381Y-144494380D01*
X59094762Y-144732476D02*
X59809048Y-144970571D01*
X59809048Y-144351523D01*
X57491334Y-144978381D02*
X57158000Y-144502190D01*
X56919905Y-144978381D02*
X56919905Y-143978381D01*
X57300858Y-143978381D01*
X57396096Y-144026000D01*
X57443715Y-144073619D01*
X57491334Y-144168857D01*
X57491334Y-144311714D01*
X57443715Y-144406952D01*
X57396096Y-144454571D01*
X57300858Y-144502190D01*
X56919905Y-144502190D01*
X58348477Y-143978381D02*
X58158000Y-143978381D01*
X58062762Y-144026000D01*
X58015143Y-144073619D01*
X57919905Y-144216476D01*
X57872286Y-144406952D01*
X57872286Y-144787905D01*
X57919905Y-144883143D01*
X57967524Y-144930762D01*
X58062762Y-144978381D01*
X58253239Y-144978381D01*
X58348477Y-144930762D01*
X58396096Y-144883143D01*
X58443715Y-144787905D01*
X58443715Y-144549810D01*
X58396096Y-144454571D01*
X58348477Y-144406952D01*
X58253239Y-144359333D01*
X58062762Y-144359333D01*
X57967524Y-144406952D01*
X57919905Y-144454571D01*
X57872286Y-144549810D01*
X66175477Y-56072381D02*
X66175477Y-56786667D01*
X66127857Y-56929524D01*
X66032619Y-57024762D01*
X65889762Y-57072381D01*
X65794524Y-57072381D01*
X66604048Y-56167619D02*
X66651667Y-56120000D01*
X66746905Y-56072381D01*
X66985001Y-56072381D01*
X67080239Y-56120000D01*
X67127858Y-56167619D01*
X67175477Y-56262857D01*
X67175477Y-56358095D01*
X67127858Y-56500952D01*
X66556429Y-57072381D01*
X67175477Y-57072381D01*
X67508810Y-56072381D02*
X68175477Y-56072381D01*
X67746905Y-57072381D01*
X75548477Y-58314381D02*
X75548477Y-59028667D01*
X75500857Y-59171524D01*
X75405619Y-59266762D01*
X75262762Y-59314381D01*
X75167524Y-59314381D01*
X75977048Y-58409619D02*
X76024667Y-58362000D01*
X76119905Y-58314381D01*
X76358001Y-58314381D01*
X76453239Y-58362000D01*
X76500858Y-58409619D01*
X76548477Y-58504857D01*
X76548477Y-58600095D01*
X76500858Y-58742952D01*
X75929429Y-59314381D01*
X76548477Y-59314381D01*
X77119905Y-58742952D02*
X77024667Y-58695333D01*
X76977048Y-58647714D01*
X76929429Y-58552476D01*
X76929429Y-58504857D01*
X76977048Y-58409619D01*
X77024667Y-58362000D01*
X77119905Y-58314381D01*
X77310382Y-58314381D01*
X77405620Y-58362000D01*
X77453239Y-58409619D01*
X77500858Y-58504857D01*
X77500858Y-58552476D01*
X77453239Y-58647714D01*
X77405620Y-58695333D01*
X77310382Y-58742952D01*
X77119905Y-58742952D01*
X77024667Y-58790571D01*
X76977048Y-58838190D01*
X76929429Y-58933429D01*
X76929429Y-59123905D01*
X76977048Y-59219143D01*
X77024667Y-59266762D01*
X77119905Y-59314381D01*
X77310382Y-59314381D01*
X77405620Y-59266762D01*
X77453239Y-59219143D01*
X77500858Y-59123905D01*
X77500858Y-58933429D01*
X77453239Y-58838190D01*
X77405620Y-58790571D01*
X77310382Y-58742952D01*
X142200381Y-122602523D02*
X142914667Y-122602523D01*
X143057524Y-122650143D01*
X143152762Y-122745381D01*
X143200381Y-122888238D01*
X143200381Y-122983476D01*
X142295619Y-122173952D02*
X142248000Y-122126333D01*
X142200381Y-122031095D01*
X142200381Y-121792999D01*
X142248000Y-121697761D01*
X142295619Y-121650142D01*
X142390857Y-121602523D01*
X142486095Y-121602523D01*
X142628952Y-121650142D01*
X143200381Y-122221571D01*
X143200381Y-121602523D01*
X143200381Y-121126333D02*
X143200381Y-120935857D01*
X143152762Y-120840618D01*
X143105143Y-120792999D01*
X142962286Y-120697761D01*
X142771810Y-120650142D01*
X142390857Y-120650142D01*
X142295619Y-120697761D01*
X142248000Y-120745380D01*
X142200381Y-120840618D01*
X142200381Y-121031095D01*
X142248000Y-121126333D01*
X142295619Y-121173952D01*
X142390857Y-121221571D01*
X142628952Y-121221571D01*
X142724190Y-121173952D01*
X142771810Y-121126333D01*
X142819429Y-121031095D01*
X142819429Y-120840618D01*
X142771810Y-120745380D01*
X142724190Y-120697761D01*
X142628952Y-120650142D01*
X129746477Y-114514381D02*
X129746477Y-115228667D01*
X129698857Y-115371524D01*
X129603619Y-115466762D01*
X129460762Y-115514381D01*
X129365524Y-115514381D01*
X130127429Y-114514381D02*
X130746477Y-114514381D01*
X130413143Y-114895333D01*
X130556001Y-114895333D01*
X130651239Y-114942952D01*
X130698858Y-114990571D01*
X130746477Y-115085810D01*
X130746477Y-115323905D01*
X130698858Y-115419143D01*
X130651239Y-115466762D01*
X130556001Y-115514381D01*
X130270286Y-115514381D01*
X130175048Y-115466762D01*
X130127429Y-115419143D01*
X131365524Y-114514381D02*
X131460763Y-114514381D01*
X131556001Y-114562000D01*
X131603620Y-114609619D01*
X131651239Y-114704857D01*
X131698858Y-114895333D01*
X131698858Y-115133429D01*
X131651239Y-115323905D01*
X131603620Y-115419143D01*
X131556001Y-115466762D01*
X131460763Y-115514381D01*
X131365524Y-115514381D01*
X131270286Y-115466762D01*
X131222667Y-115419143D01*
X131175048Y-115323905D01*
X131127429Y-115133429D01*
X131127429Y-114895333D01*
X131175048Y-114704857D01*
X131222667Y-114609619D01*
X131270286Y-114562000D01*
X131365524Y-114514381D01*
X144636477Y-58634381D02*
X144636477Y-59348667D01*
X144588857Y-59491524D01*
X144493619Y-59586762D01*
X144350762Y-59634381D01*
X144255524Y-59634381D01*
X145017429Y-58634381D02*
X145636477Y-58634381D01*
X145303143Y-59015333D01*
X145446001Y-59015333D01*
X145541239Y-59062952D01*
X145588858Y-59110571D01*
X145636477Y-59205810D01*
X145636477Y-59443905D01*
X145588858Y-59539143D01*
X145541239Y-59586762D01*
X145446001Y-59634381D01*
X145160286Y-59634381D01*
X145065048Y-59586762D01*
X145017429Y-59539143D01*
X146588858Y-59634381D02*
X146017429Y-59634381D01*
X146303143Y-59634381D02*
X146303143Y-58634381D01*
X146207905Y-58777238D01*
X146112667Y-58872476D01*
X146017429Y-58920095D01*
X123654477Y-118424381D02*
X123654477Y-119138667D01*
X123606857Y-119281524D01*
X123511619Y-119376762D01*
X123368762Y-119424381D01*
X123273524Y-119424381D01*
X124035429Y-118424381D02*
X124654477Y-118424381D01*
X124321143Y-118805333D01*
X124464001Y-118805333D01*
X124559239Y-118852952D01*
X124606858Y-118900571D01*
X124654477Y-118995810D01*
X124654477Y-119233905D01*
X124606858Y-119329143D01*
X124559239Y-119376762D01*
X124464001Y-119424381D01*
X124178286Y-119424381D01*
X124083048Y-119376762D01*
X124035429Y-119329143D01*
X125035429Y-118519619D02*
X125083048Y-118472000D01*
X125178286Y-118424381D01*
X125416382Y-118424381D01*
X125511620Y-118472000D01*
X125559239Y-118519619D01*
X125606858Y-118614857D01*
X125606858Y-118710095D01*
X125559239Y-118852952D01*
X124987810Y-119424381D01*
X125606858Y-119424381D01*
X113200381Y-66119333D02*
X113914667Y-66119333D01*
X114057524Y-66166953D01*
X114152762Y-66262191D01*
X114200381Y-66405048D01*
X114200381Y-66500286D01*
X113533714Y-65214571D02*
X114200381Y-65214571D01*
X113152762Y-65452667D02*
X113867048Y-65690762D01*
X113867048Y-65071714D01*
X89422381Y-95773333D02*
X90136667Y-95773333D01*
X90279524Y-95820953D01*
X90374762Y-95916191D01*
X90422381Y-96059048D01*
X90422381Y-96154286D01*
X89422381Y-94820952D02*
X89422381Y-95297143D01*
X89898571Y-95344762D01*
X89850952Y-95297143D01*
X89803333Y-95201905D01*
X89803333Y-94963809D01*
X89850952Y-94868571D01*
X89898571Y-94820952D01*
X89993810Y-94773333D01*
X90231905Y-94773333D01*
X90327143Y-94820952D01*
X90374762Y-94868571D01*
X90422381Y-94963809D01*
X90422381Y-95201905D01*
X90374762Y-95297143D01*
X90327143Y-95344762D01*
X57491334Y-139214381D02*
X57158000Y-138738190D01*
X56919905Y-139214381D02*
X56919905Y-138214381D01*
X57300858Y-138214381D01*
X57396096Y-138262000D01*
X57443715Y-138309619D01*
X57491334Y-138404857D01*
X57491334Y-138547714D01*
X57443715Y-138642952D01*
X57396096Y-138690571D01*
X57300858Y-138738190D01*
X56919905Y-138738190D01*
X57824667Y-138214381D02*
X58491334Y-138214381D01*
X58062762Y-139214381D01*
X79192381Y-140120666D02*
X78716190Y-140454000D01*
X79192381Y-140692095D02*
X78192381Y-140692095D01*
X78192381Y-140311142D01*
X78240000Y-140215904D01*
X78287619Y-140168285D01*
X78382857Y-140120666D01*
X78525714Y-140120666D01*
X78620952Y-140168285D01*
X78668571Y-140215904D01*
X78716190Y-140311142D01*
X78716190Y-140692095D01*
X78620952Y-139549238D02*
X78573333Y-139644476D01*
X78525714Y-139692095D01*
X78430476Y-139739714D01*
X78382857Y-139739714D01*
X78287619Y-139692095D01*
X78240000Y-139644476D01*
X78192381Y-139549238D01*
X78192381Y-139358761D01*
X78240000Y-139263523D01*
X78287619Y-139215904D01*
X78382857Y-139168285D01*
X78430476Y-139168285D01*
X78525714Y-139215904D01*
X78573333Y-139263523D01*
X78620952Y-139358761D01*
X78620952Y-139549238D01*
X78668571Y-139644476D01*
X78716190Y-139692095D01*
X78811429Y-139739714D01*
X79001905Y-139739714D01*
X79097143Y-139692095D01*
X79144762Y-139644476D01*
X79192381Y-139549238D01*
X79192381Y-139358761D01*
X79144762Y-139263523D01*
X79097143Y-139215904D01*
X79001905Y-139168285D01*
X78811429Y-139168285D01*
X78716190Y-139215904D01*
X78668571Y-139263523D01*
X78620952Y-139358761D01*
X87074477Y-58634381D02*
X87074477Y-59348667D01*
X87026857Y-59491524D01*
X86931619Y-59586762D01*
X86788762Y-59634381D01*
X86693524Y-59634381D01*
X87503048Y-58729619D02*
X87550667Y-58682000D01*
X87645905Y-58634381D01*
X87884001Y-58634381D01*
X87979239Y-58682000D01*
X88026858Y-58729619D01*
X88074477Y-58824857D01*
X88074477Y-58920095D01*
X88026858Y-59062952D01*
X87455429Y-59634381D01*
X88074477Y-59634381D01*
X88979239Y-58634381D02*
X88503048Y-58634381D01*
X88455429Y-59110571D01*
X88503048Y-59062952D01*
X88598286Y-59015333D01*
X88836382Y-59015333D01*
X88931620Y-59062952D01*
X88979239Y-59110571D01*
X89026858Y-59205810D01*
X89026858Y-59443905D01*
X88979239Y-59539143D01*
X88931620Y-59586762D01*
X88836382Y-59634381D01*
X88598286Y-59634381D01*
X88503048Y-59586762D01*
X88455429Y-59539143D01*
X99520477Y-56856381D02*
X99520477Y-57570667D01*
X99472857Y-57713524D01*
X99377619Y-57808762D01*
X99234762Y-57856381D01*
X99139524Y-57856381D01*
X100425239Y-57189714D02*
X100425239Y-57856381D01*
X100187143Y-56808762D02*
X99949048Y-57523048D01*
X100568096Y-57523048D01*
X101139524Y-56856381D02*
X101234763Y-56856381D01*
X101330001Y-56904000D01*
X101377620Y-56951619D01*
X101425239Y-57046857D01*
X101472858Y-57237333D01*
X101472858Y-57475429D01*
X101425239Y-57665905D01*
X101377620Y-57761143D01*
X101330001Y-57808762D01*
X101234763Y-57856381D01*
X101139524Y-57856381D01*
X101044286Y-57808762D01*
X100996667Y-57761143D01*
X100949048Y-57665905D01*
X100901429Y-57475429D01*
X100901429Y-57237333D01*
X100949048Y-57046857D01*
X100996667Y-56951619D01*
X101044286Y-56904000D01*
X101139524Y-56856381D01*
D15*
G36*
X82998085Y-135273000D02*
X63877085Y-135273000D01*
X63926915Y-60664000D01*
X83047915Y-60664000D01*
X82998085Y-135273000D01*
X82998085Y-135273000D01*
G37*
X82998085Y-135273000D02*
X63877085Y-135273000D01*
X63926915Y-60664000D01*
X83047915Y-60664000D01*
X82998085Y-135273000D01*
M02*
