G04 #@! TF.FileFunction,Soldermask,Bot*
%FSLAX46Y46*%
G04 Gerber Fmt 4.6, Leading zero omitted, Abs format (unit mm)*
G04 Created by KiCad (PCBNEW 4.0.7) date 10/23/19 14:22:32*
%MOMM*%
%LPD*%
G01*
G04 APERTURE LIST*
%ADD10C,0.100000*%
%ADD11R,2.900000X5.480000*%
%ADD12C,5.400000*%
%ADD13R,2.000000X2.800000*%
%ADD14O,2.000000X2.800000*%
%ADD15R,2.100000X2.100000*%
%ADD16O,2.100000X2.100000*%
%ADD17R,5.480000X2.900000*%
%ADD18C,4.210000*%
%ADD19C,3.956000*%
%ADD20R,3.400000X3.400000*%
%ADD21C,3.400000*%
%ADD22C,7.400000*%
G04 APERTURE END LIST*
D10*
D11*
X137460000Y-53770000D03*
X129960000Y-53770000D03*
D12*
X53000000Y-53000000D03*
X147000000Y-53000000D03*
X53000000Y-147000000D03*
X147000000Y-147000000D03*
D11*
X119570000Y-53570000D03*
X112070000Y-53570000D03*
D13*
X116078000Y-69596000D03*
D14*
X133858000Y-61976000D03*
X118618000Y-69596000D03*
X131318000Y-61976000D03*
X121158000Y-69596000D03*
X128778000Y-61976000D03*
X123698000Y-69596000D03*
X126238000Y-61976000D03*
X126238000Y-69596000D03*
X123698000Y-61976000D03*
X128778000Y-69596000D03*
X121158000Y-61976000D03*
X131318000Y-69596000D03*
X118618000Y-61976000D03*
X133858000Y-69596000D03*
X116078000Y-61976000D03*
D13*
X89154000Y-100076000D03*
D14*
X106934000Y-92456000D03*
X91694000Y-100076000D03*
X104394000Y-92456000D03*
X94234000Y-100076000D03*
X101854000Y-92456000D03*
X96774000Y-100076000D03*
X99314000Y-92456000D03*
X99314000Y-100076000D03*
X96774000Y-92456000D03*
X101854000Y-100076000D03*
X94234000Y-92456000D03*
X104394000Y-100076000D03*
X91694000Y-92456000D03*
X106934000Y-100076000D03*
X89154000Y-92456000D03*
D15*
X123698000Y-58166000D03*
D16*
X126238000Y-58166000D03*
D15*
X97028000Y-87884000D03*
D16*
X99568000Y-87884000D03*
D17*
X53925000Y-62575000D03*
X53925000Y-70075000D03*
X53800000Y-81600000D03*
X53800000Y-89100000D03*
X53800000Y-102175000D03*
X53800000Y-109675000D03*
X53725000Y-121100000D03*
X53725000Y-128600000D03*
X146675000Y-140100000D03*
X146675000Y-132600000D03*
D11*
X132400000Y-146425000D03*
X139900000Y-146425000D03*
X115275000Y-146425000D03*
X122775000Y-146425000D03*
X97150000Y-146500000D03*
X104650000Y-146500000D03*
X77950000Y-146675000D03*
X85450000Y-146675000D03*
D18*
X110363000Y-82931000D03*
D19*
X107188000Y-79756000D03*
D18*
X104013000Y-82931000D03*
X110363000Y-76581000D03*
X104013000Y-76581000D03*
X92075000Y-83185000D03*
D19*
X88900000Y-80010000D03*
D18*
X85725000Y-83185000D03*
X92075000Y-76835000D03*
X85725000Y-76835000D03*
X106426000Y-107124500D03*
D19*
X109601000Y-110299500D03*
D18*
X112776000Y-107124500D03*
X106426000Y-113474500D03*
X112776000Y-113474500D03*
X88975000Y-122800000D03*
D19*
X92150000Y-125975000D03*
D18*
X95325000Y-122800000D03*
X88975000Y-129150000D03*
X95325000Y-129150000D03*
X106350000Y-122800000D03*
D19*
X109525000Y-125975000D03*
D18*
X112700000Y-122800000D03*
X106350000Y-129150000D03*
X112700000Y-129150000D03*
X90373200Y-107289600D03*
D19*
X93548200Y-110464600D03*
D18*
X96723200Y-107289600D03*
X90373200Y-113639600D03*
X96723200Y-113639600D03*
X63373000Y-139065000D03*
D19*
X66548000Y-142240000D03*
D18*
X69723000Y-139065000D03*
X63373000Y-145415000D03*
X69723000Y-145415000D03*
X98044000Y-59436000D03*
D19*
X101219000Y-62611000D03*
D18*
X104394000Y-59436000D03*
X98044000Y-65786000D03*
X104394000Y-65786000D03*
D11*
X70044000Y-53848000D03*
X62544000Y-53848000D03*
D20*
X85344000Y-54610000D03*
D21*
X90424000Y-54610000D03*
D17*
X146558000Y-122368000D03*
X146558000Y-114868000D03*
D22*
X130810000Y-110490000D03*
X145400000Y-77500000D03*
D18*
X121539000Y-122047000D03*
D19*
X124714000Y-125222000D03*
D18*
X127889000Y-122047000D03*
X121539000Y-128397000D03*
X127889000Y-128397000D03*
M02*
