G04 #@! TF.FileFunction,Copper,L2,Bot,Signal*
%FSLAX46Y46*%
G04 Gerber Fmt 4.6, Leading zero omitted, Abs format (unit mm)*
G04 Created by KiCad (PCBNEW 4.0.7) date 11/25/19 22:23:23*
%MOMM*%
%LPD*%
G01*
G04 APERTURE LIST*
%ADD10C,0.100000*%
%ADD11R,2.500000X5.080000*%
%ADD12C,5.000000*%
%ADD13R,5.080000X2.500000*%
%ADD14C,3.810000*%
%ADD15C,3.556000*%
%ADD16R,3.000000X3.000000*%
%ADD17C,3.000000*%
%ADD18C,7.000000*%
%ADD19R,1.600000X2.400000*%
%ADD20O,1.600000X2.400000*%
%ADD21C,0.600000*%
%ADD22C,0.500000*%
%ADD23C,1.000000*%
%ADD24C,0.030000*%
G04 APERTURE END LIST*
D10*
D11*
X137460000Y-53770000D03*
X129960000Y-53770000D03*
D12*
X53000000Y-53000000D03*
X147000000Y-53000000D03*
X53000000Y-147000000D03*
X147000000Y-147000000D03*
D11*
X119570000Y-53570000D03*
X112070000Y-53570000D03*
D13*
X53925000Y-62575000D03*
X53925000Y-70075000D03*
X53800000Y-81600000D03*
X53800000Y-89100000D03*
X53800000Y-102175000D03*
X53800000Y-109675000D03*
X53725000Y-121100000D03*
X53725000Y-128600000D03*
X146675000Y-140100000D03*
X146675000Y-132600000D03*
D11*
X132400000Y-146425000D03*
X139900000Y-146425000D03*
X115275000Y-146425000D03*
X122775000Y-146425000D03*
X96775000Y-146750000D03*
X104275000Y-146750000D03*
X77950000Y-146675000D03*
X85450000Y-146675000D03*
D14*
X110363000Y-82931000D03*
D15*
X107188000Y-79756000D03*
D14*
X104013000Y-82931000D03*
X110363000Y-76581000D03*
X104013000Y-76581000D03*
X92075000Y-83185000D03*
D15*
X88900000Y-80010000D03*
D14*
X85725000Y-83185000D03*
X92075000Y-76835000D03*
X85725000Y-76835000D03*
X106426000Y-107124500D03*
D15*
X109601000Y-110299500D03*
D14*
X112776000Y-107124500D03*
X106426000Y-113474500D03*
X112776000Y-113474500D03*
X88975000Y-122800000D03*
D15*
X92150000Y-125975000D03*
D14*
X95325000Y-122800000D03*
X88975000Y-129150000D03*
X95325000Y-129150000D03*
X106350000Y-122800000D03*
D15*
X109525000Y-125975000D03*
D14*
X112700000Y-122800000D03*
X106350000Y-129150000D03*
X112700000Y-129150000D03*
X90373200Y-107289600D03*
D15*
X93548200Y-110464600D03*
D14*
X96723200Y-107289600D03*
X90373200Y-113639600D03*
X96723200Y-113639600D03*
X63373000Y-139065000D03*
D15*
X66548000Y-142240000D03*
D14*
X69723000Y-139065000D03*
X63373000Y-145415000D03*
X69723000Y-145415000D03*
D11*
X67560000Y-52810000D03*
X60060000Y-52810000D03*
D16*
X79248000Y-54102000D03*
D17*
X74168000Y-54102000D03*
D13*
X146558000Y-122368000D03*
X146558000Y-114868000D03*
D18*
X130810000Y-110490000D03*
X145700000Y-63500000D03*
D14*
X121539000Y-122047000D03*
D15*
X124714000Y-125222000D03*
D14*
X127889000Y-122047000D03*
X121539000Y-128397000D03*
X127889000Y-128397000D03*
D19*
X116078000Y-69596000D03*
D20*
X133858000Y-61976000D03*
X118618000Y-69596000D03*
X131318000Y-61976000D03*
X121158000Y-69596000D03*
X128778000Y-61976000D03*
X123698000Y-69596000D03*
X126238000Y-61976000D03*
X126238000Y-69596000D03*
X123698000Y-61976000D03*
X128778000Y-69596000D03*
X121158000Y-61976000D03*
X131318000Y-69596000D03*
X118618000Y-61976000D03*
X133858000Y-69596000D03*
X116078000Y-61976000D03*
D19*
X89100000Y-98850000D03*
D20*
X106880000Y-91230000D03*
X91640000Y-98850000D03*
X104340000Y-91230000D03*
X94180000Y-98850000D03*
X101800000Y-91230000D03*
X96720000Y-98850000D03*
X99260000Y-91230000D03*
X99260000Y-98850000D03*
X96720000Y-91230000D03*
X101800000Y-98850000D03*
X94180000Y-91230000D03*
X104340000Y-98850000D03*
X91640000Y-91230000D03*
X106880000Y-98850000D03*
X89100000Y-91230000D03*
D16*
X90424000Y-54102000D03*
D17*
X85344000Y-54102000D03*
D11*
X104334000Y-52832000D03*
X96834000Y-52832000D03*
D21*
X57404000Y-54356000D03*
X57658000Y-52070000D03*
X70612000Y-54102000D03*
X70358000Y-51816000D03*
X94234000Y-54610000D03*
X94234000Y-52324000D03*
X106680000Y-54610000D03*
X106680000Y-52324000D03*
X141400000Y-115900000D03*
X143000000Y-115700000D03*
X56388000Y-144780000D03*
X54356000Y-142748000D03*
X54356000Y-140462000D03*
X56388000Y-138430000D03*
X78740000Y-138430000D03*
X84582000Y-138430000D03*
X80518000Y-136652000D03*
X82804000Y-136652000D03*
X93218000Y-145034000D03*
X93472000Y-147066000D03*
X107950000Y-144780000D03*
X107950000Y-147320000D03*
X140462000Y-52070000D03*
X140208000Y-55118000D03*
X108712000Y-52578000D03*
X108712000Y-54610000D03*
X75184000Y-145542000D03*
X75184000Y-147320000D03*
X88900000Y-144780000D03*
X88900000Y-147066000D03*
X111760000Y-144780000D03*
X112014000Y-146812000D03*
X125476000Y-145034000D03*
X125222000Y-147320000D03*
X129032000Y-144780000D03*
X129286000Y-147320000D03*
X142748000Y-145034000D03*
X143002000Y-147574000D03*
X144526000Y-143002000D03*
X146812000Y-142748000D03*
X143256000Y-129286000D03*
X146304000Y-129286000D03*
X143510000Y-125730000D03*
X146304000Y-125730000D03*
X126492000Y-54102000D03*
X126492000Y-52070000D03*
X122682000Y-54102000D03*
X122936000Y-52070000D03*
X63225000Y-125025000D03*
X63450000Y-85375000D03*
X62150000Y-83750000D03*
X62225000Y-86825000D03*
X62900000Y-106000000D03*
X61525000Y-107550000D03*
X61450000Y-104250000D03*
X61825000Y-126750000D03*
X61650000Y-123250000D03*
X56150000Y-131475000D03*
X53925000Y-131550000D03*
X55500000Y-118525000D03*
X53725000Y-118675000D03*
X55825000Y-112825000D03*
X53875000Y-112775000D03*
X55375000Y-99975000D03*
X53600000Y-99850000D03*
X56325000Y-91750000D03*
X53525000Y-91750000D03*
X56000000Y-78850000D03*
X53700000Y-78675000D03*
X55700000Y-73800000D03*
X53650000Y-73725000D03*
X55300000Y-60150000D03*
X53925000Y-60250000D03*
X63125000Y-66175000D03*
X61625000Y-67725000D03*
X61600000Y-64775000D03*
D22*
X57404000Y-52324000D02*
X57404000Y-54356000D01*
X57658000Y-52070000D02*
X57404000Y-52324000D01*
X70612000Y-52070000D02*
X70612000Y-54102000D01*
X70358000Y-51816000D02*
X70612000Y-52070000D01*
X94234000Y-52324000D02*
X94234000Y-54610000D01*
X106680000Y-52324000D02*
X106680000Y-54610000D01*
D23*
X127889000Y-128397000D02*
X135903000Y-128397000D01*
X135903000Y-128397000D02*
X141932000Y-122368000D01*
X141932000Y-122368000D02*
X146558000Y-122368000D01*
X146558000Y-114868000D02*
X143332000Y-114868000D01*
X143332000Y-114868000D02*
X136153000Y-122047000D01*
X136153000Y-122047000D02*
X127889000Y-122047000D01*
X146558000Y-122368000D02*
X146558000Y-114868000D01*
X129960000Y-53770000D02*
X129960000Y-51340000D01*
X129960000Y-51340000D02*
X130700000Y-50600000D01*
X130700000Y-50600000D02*
X136100000Y-50600000D01*
X136100000Y-50600000D02*
X136700000Y-51200000D01*
X136700000Y-51200000D02*
X136700000Y-53010000D01*
X136700000Y-53010000D02*
X137460000Y-53770000D01*
X112070000Y-53570000D02*
X112070000Y-51730000D01*
X112070000Y-51730000D02*
X113000000Y-50800000D01*
X113000000Y-50800000D02*
X118400000Y-50800000D01*
X118400000Y-50800000D02*
X119570000Y-51970000D01*
X119570000Y-51970000D02*
X119570000Y-53570000D01*
D22*
X142800000Y-115900000D02*
X141400000Y-115900000D01*
X143000000Y-115700000D02*
X142800000Y-115900000D01*
X93218000Y-146812000D02*
X93218000Y-145034000D01*
X93472000Y-147066000D02*
X93218000Y-146812000D01*
X107950000Y-147320000D02*
X107950000Y-144780000D01*
D23*
X117157500Y-117665500D02*
X121539000Y-122047000D01*
X117157500Y-107950000D02*
X117157500Y-117665500D01*
X116332000Y-107124500D02*
X117157500Y-107950000D01*
X112776000Y-107124500D02*
X116332000Y-107124500D01*
X112776000Y-107124500D02*
X106426000Y-107124500D01*
X112776000Y-113474500D02*
X112776000Y-107124500D01*
X106426000Y-113474500D02*
X112776000Y-113474500D01*
X106426000Y-107124500D02*
X106426000Y-113474500D01*
X106880000Y-98850000D02*
X106934000Y-106616500D01*
X106934000Y-106616500D02*
X106426000Y-107124500D01*
D22*
X140462000Y-54864000D02*
X140462000Y-52070000D01*
X140208000Y-55118000D02*
X140462000Y-54864000D01*
X108712000Y-54610000D02*
X108712000Y-52578000D01*
X75184000Y-147320000D02*
X75184000Y-145542000D01*
X88900000Y-147066000D02*
X88900000Y-144780000D01*
X111760000Y-146558000D02*
X111760000Y-144780000D01*
X112014000Y-146812000D02*
X111760000Y-146558000D01*
X125476000Y-147066000D02*
X125476000Y-145034000D01*
X125222000Y-147320000D02*
X125476000Y-147066000D01*
X129032000Y-147066000D02*
X129032000Y-144780000D01*
X129286000Y-147320000D02*
X129032000Y-147066000D01*
X142748000Y-147320000D02*
X142748000Y-145034000D01*
X143002000Y-147574000D02*
X142748000Y-147320000D01*
X146558000Y-143002000D02*
X144526000Y-143002000D01*
X146812000Y-142748000D02*
X146558000Y-143002000D01*
X146304000Y-129286000D02*
X143256000Y-129286000D01*
X146304000Y-125730000D02*
X143510000Y-125730000D01*
X126492000Y-52070000D02*
X126492000Y-54102000D01*
X122682000Y-52324000D02*
X122682000Y-54102000D01*
X122936000Y-52070000D02*
X122682000Y-52324000D01*
D23*
X131318000Y-78867000D02*
X131064000Y-69850000D01*
X131064000Y-69850000D02*
X131318000Y-69596000D01*
D22*
X62225000Y-86825000D02*
X62225000Y-86850000D01*
X61825000Y-126750000D02*
X61800000Y-126750000D01*
X54000000Y-131475000D02*
X56150000Y-131475000D01*
X53925000Y-131550000D02*
X54000000Y-131475000D01*
X53875000Y-118525000D02*
X55500000Y-118525000D01*
X53725000Y-118675000D02*
X53875000Y-118525000D01*
X53925000Y-112825000D02*
X55825000Y-112825000D01*
X53875000Y-112775000D02*
X53925000Y-112825000D01*
X53725000Y-99975000D02*
X55375000Y-99975000D01*
X53600000Y-99850000D02*
X53725000Y-99975000D01*
X53525000Y-91750000D02*
X56325000Y-91750000D01*
X53875000Y-78850000D02*
X56000000Y-78850000D01*
X53700000Y-78675000D02*
X53875000Y-78850000D01*
X53725000Y-73800000D02*
X55700000Y-73800000D01*
X53650000Y-73725000D02*
X53725000Y-73800000D01*
X54025000Y-60150000D02*
X55300000Y-60150000D01*
X53925000Y-60250000D02*
X54025000Y-60150000D01*
D24*
G36*
X147000000Y-51232233D02*
X147180313Y-51051921D01*
X148948080Y-52819688D01*
X148767767Y-53000000D01*
X148948080Y-53180313D01*
X147180313Y-54948080D01*
X147000000Y-54767767D01*
X145993289Y-55774478D01*
X146355259Y-56014036D01*
X147557759Y-56031338D01*
X147644741Y-56014036D01*
X147806723Y-55906833D01*
X148129199Y-56229309D01*
X149085000Y-55273508D01*
X149085000Y-62215107D01*
X147800107Y-63500000D01*
X149085000Y-64784893D01*
X149085000Y-80385000D01*
X115300000Y-80385000D01*
X115294164Y-80386182D01*
X115289248Y-80389541D01*
X115286026Y-80394548D01*
X115285000Y-80400000D01*
X115285000Y-106985000D01*
X115210831Y-106985000D01*
X115220211Y-106731738D01*
X115184460Y-106552006D01*
X114964595Y-106282943D01*
X114262538Y-106985000D01*
X111289462Y-106985000D01*
X110587405Y-106282943D01*
X110367540Y-106552006D01*
X110351503Y-106985000D01*
X108860831Y-106985000D01*
X108870211Y-106731738D01*
X108834460Y-106552006D01*
X108614595Y-106282943D01*
X107912538Y-106985000D01*
X106200000Y-106985000D01*
X106194164Y-106986182D01*
X106189248Y-106989541D01*
X106186026Y-106994548D01*
X106185000Y-107000000D01*
X106185000Y-108712538D01*
X105584443Y-109313095D01*
X105853506Y-109532960D01*
X106185000Y-109545238D01*
X106185000Y-111035910D01*
X106033238Y-111030289D01*
X105853506Y-111066040D01*
X105584443Y-111285905D01*
X106185000Y-111886462D01*
X106185000Y-113800000D01*
X106186182Y-113805836D01*
X106189541Y-113810752D01*
X106194548Y-113813974D01*
X106200000Y-113815000D01*
X108113538Y-113815000D01*
X108614595Y-114316057D01*
X108834460Y-114046994D01*
X108843053Y-113815000D01*
X110333725Y-113815000D01*
X110331789Y-113867262D01*
X110367540Y-114046994D01*
X110587405Y-114316057D01*
X111088462Y-113815000D01*
X114463538Y-113815000D01*
X114964595Y-114316057D01*
X115184460Y-114046994D01*
X115193053Y-113815000D01*
X119185000Y-113815000D01*
X119185000Y-114900000D01*
X119186182Y-114905836D01*
X119189541Y-114910752D01*
X119194548Y-114913974D01*
X119200000Y-114915000D01*
X143495000Y-114915000D01*
X143495000Y-116353002D01*
X143549250Y-116353002D01*
X143574622Y-116414256D01*
X143721744Y-116561378D01*
X143913969Y-116641000D01*
X145157250Y-116641000D01*
X145288000Y-116510250D01*
X145288000Y-115493000D01*
X145053000Y-115493000D01*
X145053000Y-114915000D01*
X148063000Y-114915000D01*
X148063000Y-115493000D01*
X147828000Y-115493000D01*
X147828000Y-116510250D01*
X147958750Y-116641000D01*
X149202031Y-116641000D01*
X149385000Y-116565212D01*
X149385000Y-120670788D01*
X149202031Y-120595000D01*
X147958750Y-120595000D01*
X147828000Y-120725750D01*
X147828000Y-121743000D01*
X148063000Y-121743000D01*
X148063000Y-122993000D01*
X147828000Y-122993000D01*
X147828000Y-124010250D01*
X147958750Y-124141000D01*
X149202031Y-124141000D01*
X149385000Y-124065212D01*
X149385000Y-130854325D01*
X149319031Y-130827000D01*
X148075750Y-130827000D01*
X147945000Y-130957750D01*
X147945000Y-131975000D01*
X148180000Y-131975000D01*
X148180000Y-133225000D01*
X147945000Y-133225000D01*
X147945000Y-134242250D01*
X148075750Y-134373000D01*
X149319031Y-134373000D01*
X149385000Y-134345675D01*
X149385000Y-138354325D01*
X149319031Y-138327000D01*
X148075750Y-138327000D01*
X147945000Y-138457750D01*
X147945000Y-139475000D01*
X148180000Y-139475000D01*
X148180000Y-140725000D01*
X147945000Y-140725000D01*
X147945000Y-141742250D01*
X148075750Y-141873000D01*
X149319031Y-141873000D01*
X149385000Y-141845675D01*
X149385000Y-146382767D01*
X148767767Y-147000000D01*
X149385000Y-147617233D01*
X149385000Y-149485000D01*
X147717233Y-149485000D01*
X147000000Y-148767767D01*
X146282767Y-149485000D01*
X141385002Y-149485000D01*
X141385002Y-149433750D01*
X141446256Y-149408378D01*
X141593378Y-149261256D01*
X141673000Y-149069031D01*
X141673000Y-147825750D01*
X141542250Y-147695000D01*
X140525000Y-147695000D01*
X140525000Y-147930000D01*
X139275000Y-147930000D01*
X139275000Y-147695000D01*
X138257750Y-147695000D01*
X138127000Y-147825750D01*
X138127000Y-149069031D01*
X138206622Y-149261256D01*
X138353744Y-149408378D01*
X138414998Y-149433750D01*
X138414998Y-149485000D01*
X133885002Y-149485000D01*
X133885002Y-149433750D01*
X133946256Y-149408378D01*
X134093378Y-149261256D01*
X134173000Y-149069031D01*
X134173000Y-147825750D01*
X134042250Y-147695000D01*
X133025000Y-147695000D01*
X133025000Y-147930000D01*
X131775000Y-147930000D01*
X131775000Y-147695000D01*
X130757750Y-147695000D01*
X130627000Y-147825750D01*
X130627000Y-149069031D01*
X130706622Y-149261256D01*
X130853744Y-149408378D01*
X130914998Y-149433750D01*
X130914998Y-149485000D01*
X124260002Y-149485000D01*
X124260002Y-149433750D01*
X124321256Y-149408378D01*
X124468378Y-149261256D01*
X124548000Y-149069031D01*
X124548000Y-147825750D01*
X124417250Y-147695000D01*
X123400000Y-147695000D01*
X123400000Y-147930000D01*
X122150000Y-147930000D01*
X122150000Y-147695000D01*
X121525000Y-147695000D01*
X121525000Y-147557759D01*
X143968662Y-147557759D01*
X143985964Y-147644741D01*
X144225522Y-148006711D01*
X145232233Y-147000000D01*
X144225522Y-145993289D01*
X143985964Y-146355259D01*
X143968662Y-147557759D01*
X121525000Y-147557759D01*
X121525000Y-145155000D01*
X122150000Y-145155000D01*
X122150000Y-143492750D01*
X123400000Y-143492750D01*
X123400000Y-145155000D01*
X124417250Y-145155000D01*
X124548000Y-145024250D01*
X124548000Y-143780969D01*
X130627000Y-143780969D01*
X130627000Y-145024250D01*
X130757750Y-145155000D01*
X131775000Y-145155000D01*
X131775000Y-143492750D01*
X133025000Y-143492750D01*
X133025000Y-145155000D01*
X134042250Y-145155000D01*
X134173000Y-145024250D01*
X134173000Y-143780969D01*
X138127000Y-143780969D01*
X138127000Y-145024250D01*
X138257750Y-145155000D01*
X139275000Y-145155000D01*
X139275000Y-143492750D01*
X140525000Y-143492750D01*
X140525000Y-145155000D01*
X141542250Y-145155000D01*
X141673000Y-145024250D01*
X141673000Y-144225522D01*
X145993289Y-144225522D01*
X147000000Y-145232233D01*
X148006711Y-144225522D01*
X147644741Y-143985964D01*
X146442241Y-143968662D01*
X146355259Y-143985964D01*
X145993289Y-144225522D01*
X141673000Y-144225522D01*
X141673000Y-143780969D01*
X141593378Y-143588744D01*
X141446256Y-143441622D01*
X141254031Y-143362000D01*
X140655750Y-143362000D01*
X140525000Y-143492750D01*
X139275000Y-143492750D01*
X139144250Y-143362000D01*
X138545969Y-143362000D01*
X138353744Y-143441622D01*
X138206622Y-143588744D01*
X138127000Y-143780969D01*
X134173000Y-143780969D01*
X134093378Y-143588744D01*
X133946256Y-143441622D01*
X133754031Y-143362000D01*
X133155750Y-143362000D01*
X133025000Y-143492750D01*
X131775000Y-143492750D01*
X131644250Y-143362000D01*
X131045969Y-143362000D01*
X130853744Y-143441622D01*
X130706622Y-143588744D01*
X130627000Y-143780969D01*
X124548000Y-143780969D01*
X124468378Y-143588744D01*
X124321256Y-143441622D01*
X124129031Y-143362000D01*
X123530750Y-143362000D01*
X123400000Y-143492750D01*
X122150000Y-143492750D01*
X122019250Y-143362000D01*
X121515000Y-143362000D01*
X121515000Y-141700000D01*
X121513818Y-141694164D01*
X121510459Y-141689248D01*
X121505452Y-141686026D01*
X121500000Y-141685000D01*
X116700000Y-141685000D01*
X116694164Y-141686182D01*
X116689248Y-141689541D01*
X116686026Y-141694548D01*
X116685006Y-141700414D01*
X116686348Y-141706215D01*
X116689393Y-141710607D01*
X116763786Y-141785000D01*
X116700000Y-141785000D01*
X116694164Y-141786182D01*
X116689248Y-141789541D01*
X116686026Y-141794548D01*
X116685000Y-141800000D01*
X116685000Y-143385183D01*
X116629031Y-143362000D01*
X116030750Y-143362000D01*
X115900000Y-143492750D01*
X115900000Y-145155000D01*
X116525000Y-145155000D01*
X116525000Y-147695000D01*
X115900000Y-147695000D01*
X115900000Y-147930000D01*
X114650000Y-147930000D01*
X114650000Y-147695000D01*
X113632750Y-147695000D01*
X113502000Y-147825750D01*
X113502000Y-149069031D01*
X113581622Y-149261256D01*
X113728744Y-149408378D01*
X113789998Y-149433750D01*
X113789998Y-149485000D01*
X106010320Y-149485000D01*
X106048000Y-149394031D01*
X106048000Y-148150750D01*
X105917250Y-148020000D01*
X104900000Y-148020000D01*
X104900000Y-148255000D01*
X103650000Y-148255000D01*
X103650000Y-148020000D01*
X102632750Y-148020000D01*
X102502000Y-148150750D01*
X102502000Y-149394031D01*
X102539680Y-149485000D01*
X98510320Y-149485000D01*
X98548000Y-149394031D01*
X98548000Y-148150750D01*
X98417250Y-148020000D01*
X97400000Y-148020000D01*
X97400000Y-148255000D01*
X96150000Y-148255000D01*
X96150000Y-148020000D01*
X95132750Y-148020000D01*
X95002000Y-148150750D01*
X95002000Y-149394031D01*
X95039680Y-149485000D01*
X87154254Y-149485000D01*
X87223000Y-149319031D01*
X87223000Y-148075750D01*
X87092250Y-147945000D01*
X86075000Y-147945000D01*
X86075000Y-148180000D01*
X84825000Y-148180000D01*
X84825000Y-147945000D01*
X84200000Y-147945000D01*
X84200000Y-145405000D01*
X84825000Y-145405000D01*
X84825000Y-143742750D01*
X86075000Y-143742750D01*
X86075000Y-145405000D01*
X87092250Y-145405000D01*
X87223000Y-145274250D01*
X87223000Y-144105969D01*
X95002000Y-144105969D01*
X95002000Y-145349250D01*
X95132750Y-145480000D01*
X96150000Y-145480000D01*
X96150000Y-143817750D01*
X97400000Y-143817750D01*
X97400000Y-145480000D01*
X98417250Y-145480000D01*
X98548000Y-145349250D01*
X98548000Y-144105969D01*
X102502000Y-144105969D01*
X102502000Y-145349250D01*
X102632750Y-145480000D01*
X103650000Y-145480000D01*
X103650000Y-143817750D01*
X104900000Y-143817750D01*
X104900000Y-145480000D01*
X105917250Y-145480000D01*
X106048000Y-145349250D01*
X106048000Y-144105969D01*
X105968378Y-143913744D01*
X105835603Y-143780969D01*
X113502000Y-143780969D01*
X113502000Y-145024250D01*
X113632750Y-145155000D01*
X114650000Y-145155000D01*
X114650000Y-143492750D01*
X114519250Y-143362000D01*
X113920969Y-143362000D01*
X113728744Y-143441622D01*
X113581622Y-143588744D01*
X113502000Y-143780969D01*
X105835603Y-143780969D01*
X105821256Y-143766622D01*
X105629031Y-143687000D01*
X105030750Y-143687000D01*
X104900000Y-143817750D01*
X103650000Y-143817750D01*
X103519250Y-143687000D01*
X102920969Y-143687000D01*
X102728744Y-143766622D01*
X102581622Y-143913744D01*
X102502000Y-144105969D01*
X98548000Y-144105969D01*
X98468378Y-143913744D01*
X98321256Y-143766622D01*
X98129031Y-143687000D01*
X97530750Y-143687000D01*
X97400000Y-143817750D01*
X96150000Y-143817750D01*
X96019250Y-143687000D01*
X95420969Y-143687000D01*
X95228744Y-143766622D01*
X95081622Y-143913744D01*
X95002000Y-144105969D01*
X87223000Y-144105969D01*
X87223000Y-144030969D01*
X87143378Y-143838744D01*
X86996256Y-143691622D01*
X86804031Y-143612000D01*
X86205750Y-143612000D01*
X86075000Y-143742750D01*
X84825000Y-143742750D01*
X84694250Y-143612000D01*
X84095969Y-143612000D01*
X84015000Y-143645538D01*
X84015000Y-140855750D01*
X143612000Y-140855750D01*
X143612000Y-141454031D01*
X143691622Y-141646256D01*
X143838744Y-141793378D01*
X144030969Y-141873000D01*
X145274250Y-141873000D01*
X145405000Y-141742250D01*
X145405000Y-140725000D01*
X143742750Y-140725000D01*
X143612000Y-140855750D01*
X84015000Y-140855750D01*
X84015000Y-139900000D01*
X84013818Y-139894164D01*
X84010459Y-139889248D01*
X84005452Y-139886026D01*
X84000000Y-139885000D01*
X79100000Y-139885000D01*
X79094164Y-139886182D01*
X79089248Y-139889541D01*
X79086026Y-139894548D01*
X79085006Y-139900414D01*
X79086584Y-139906708D01*
X79285000Y-140303540D01*
X79285000Y-143500000D01*
X79286182Y-143505836D01*
X79289541Y-143510752D01*
X79294548Y-143513974D01*
X79300414Y-143514994D01*
X79306708Y-143513416D01*
X79485000Y-143424270D01*
X79485000Y-143686960D01*
X79304031Y-143612000D01*
X78705750Y-143612000D01*
X78575000Y-143742750D01*
X78575000Y-145405000D01*
X79200000Y-145405000D01*
X79200000Y-147945000D01*
X78575000Y-147945000D01*
X78575000Y-148180000D01*
X77325000Y-148180000D01*
X77325000Y-147945000D01*
X76307750Y-147945000D01*
X76177000Y-148075750D01*
X76177000Y-149319031D01*
X76245746Y-149485000D01*
X53717233Y-149485000D01*
X53000000Y-148767767D01*
X52282767Y-149485000D01*
X50315000Y-149485000D01*
X50315000Y-147917233D01*
X51232233Y-147000000D01*
X54767767Y-147000000D01*
X55774478Y-148006711D01*
X56014036Y-147644741D01*
X56014628Y-147603595D01*
X62531443Y-147603595D01*
X62800506Y-147823460D01*
X63765762Y-147859211D01*
X63945494Y-147823460D01*
X64214557Y-147603595D01*
X68881443Y-147603595D01*
X69150506Y-147823460D01*
X70115762Y-147859211D01*
X70295494Y-147823460D01*
X70564557Y-147603595D01*
X69723000Y-146762038D01*
X68881443Y-147603595D01*
X64214557Y-147603595D01*
X63373000Y-146762038D01*
X62531443Y-147603595D01*
X56014628Y-147603595D01*
X56031338Y-146442241D01*
X56014036Y-146355259D01*
X55774478Y-145993289D01*
X54767767Y-147000000D01*
X51232233Y-147000000D01*
X50315000Y-146082767D01*
X50315000Y-145807762D01*
X60928789Y-145807762D01*
X60964540Y-145987494D01*
X61184405Y-146256557D01*
X62025962Y-145415000D01*
X64720038Y-145415000D01*
X65561595Y-146256557D01*
X65781460Y-145987494D01*
X65788116Y-145807762D01*
X67278789Y-145807762D01*
X67314540Y-145987494D01*
X67534405Y-146256557D01*
X68375962Y-145415000D01*
X71070038Y-145415000D01*
X71911595Y-146256557D01*
X72131460Y-145987494D01*
X72167211Y-145022238D01*
X72131460Y-144842506D01*
X71911595Y-144573443D01*
X71070038Y-145415000D01*
X68375962Y-145415000D01*
X67534405Y-144573443D01*
X67314540Y-144842506D01*
X67278789Y-145807762D01*
X65788116Y-145807762D01*
X65817211Y-145022238D01*
X65781460Y-144842506D01*
X65561595Y-144573443D01*
X64720038Y-145415000D01*
X62025962Y-145415000D01*
X61184405Y-144573443D01*
X60964540Y-144842506D01*
X60928789Y-145807762D01*
X50315000Y-145807762D01*
X50315000Y-144225522D01*
X51993289Y-144225522D01*
X53000000Y-145232233D01*
X54006711Y-144225522D01*
X53644741Y-143985964D01*
X52442241Y-143968662D01*
X52355259Y-143985964D01*
X51993289Y-144225522D01*
X50315000Y-144225522D01*
X50315000Y-139300000D01*
X57585000Y-139300000D01*
X57585000Y-144200000D01*
X57586182Y-144205836D01*
X57589541Y-144210752D01*
X57594548Y-144213974D01*
X57600000Y-144215000D01*
X61200000Y-144215000D01*
X61205836Y-144213818D01*
X61210752Y-144210459D01*
X61213974Y-144205452D01*
X61215000Y-144200000D01*
X61215000Y-143615000D01*
X62920038Y-143615000D01*
X63373000Y-144067962D01*
X63825962Y-143615000D01*
X65104531Y-143615000D01*
X65417582Y-143928598D01*
X66149829Y-144232653D01*
X66942693Y-144233345D01*
X67675469Y-143930568D01*
X68236598Y-143370418D01*
X68296397Y-143226405D01*
X68881443Y-143226405D01*
X69723000Y-144067962D01*
X69759993Y-144030969D01*
X76177000Y-144030969D01*
X76177000Y-145274250D01*
X76307750Y-145405000D01*
X77325000Y-145405000D01*
X77325000Y-143742750D01*
X77194250Y-143612000D01*
X76595969Y-143612000D01*
X76403744Y-143691622D01*
X76256622Y-143838744D01*
X76177000Y-144030969D01*
X69759993Y-144030969D01*
X70564557Y-143226405D01*
X70295494Y-143006540D01*
X69330238Y-142970789D01*
X69150506Y-143006540D01*
X68881443Y-143226405D01*
X68296397Y-143226405D01*
X68540653Y-142638171D01*
X68541345Y-141845307D01*
X68296855Y-141253595D01*
X68881443Y-141253595D01*
X69150506Y-141473460D01*
X70115762Y-141509211D01*
X70295494Y-141473460D01*
X70564557Y-141253595D01*
X69723000Y-140412038D01*
X68881443Y-141253595D01*
X68296855Y-141253595D01*
X68238568Y-141112531D01*
X67678418Y-140551402D01*
X66946171Y-140247347D01*
X66153307Y-140246655D01*
X65420531Y-140549432D01*
X65284726Y-140685000D01*
X65253564Y-140685000D01*
X66173337Y-139765227D01*
X65865872Y-139457762D01*
X67278789Y-139457762D01*
X67314540Y-139637494D01*
X67534405Y-139906557D01*
X68375962Y-139065000D01*
X71070038Y-139065000D01*
X71911595Y-139906557D01*
X72131460Y-139637494D01*
X72164480Y-138745969D01*
X143612000Y-138745969D01*
X143612000Y-139344250D01*
X143742750Y-139475000D01*
X145405000Y-139475000D01*
X145405000Y-138457750D01*
X145274250Y-138327000D01*
X144030969Y-138327000D01*
X143838744Y-138406622D01*
X143691622Y-138553744D01*
X143612000Y-138745969D01*
X72164480Y-138745969D01*
X72167211Y-138672238D01*
X72131460Y-138492506D01*
X71911595Y-138223443D01*
X71070038Y-139065000D01*
X68375962Y-139065000D01*
X67534405Y-138223443D01*
X67314540Y-138492506D01*
X67278789Y-139457762D01*
X65865872Y-139457762D01*
X65790894Y-139382784D01*
X65817211Y-138672238D01*
X65781460Y-138492506D01*
X65561595Y-138223443D01*
X64720038Y-139065000D01*
X65110715Y-139455677D01*
X63881392Y-140685000D01*
X63645962Y-140685000D01*
X63373000Y-140412038D01*
X63100038Y-140685000D01*
X62864608Y-140685000D01*
X61635285Y-139455677D01*
X62025962Y-139065000D01*
X61184405Y-138223443D01*
X60964540Y-138492506D01*
X60935188Y-139285000D01*
X57600000Y-139285000D01*
X57594164Y-139286182D01*
X57589248Y-139289541D01*
X57586026Y-139294548D01*
X57585000Y-139300000D01*
X50315000Y-139300000D01*
X50315000Y-136876405D01*
X62531443Y-136876405D01*
X63373000Y-137717962D01*
X64214557Y-136876405D01*
X68881443Y-136876405D01*
X69723000Y-137717962D01*
X70564557Y-136876405D01*
X70295494Y-136656540D01*
X69330238Y-136620789D01*
X69150506Y-136656540D01*
X68881443Y-136876405D01*
X64214557Y-136876405D01*
X63945494Y-136656540D01*
X62980238Y-136620789D01*
X62800506Y-136656540D01*
X62531443Y-136876405D01*
X50315000Y-136876405D01*
X50315000Y-133355750D01*
X143612000Y-133355750D01*
X143612000Y-133954031D01*
X143691622Y-134146256D01*
X143838744Y-134293378D01*
X144030969Y-134373000D01*
X145274250Y-134373000D01*
X145405000Y-134242250D01*
X145405000Y-133225000D01*
X143742750Y-133225000D01*
X143612000Y-133355750D01*
X50315000Y-133355750D01*
X50315000Y-131338595D01*
X88133443Y-131338595D01*
X88402506Y-131558460D01*
X89367762Y-131594211D01*
X89547494Y-131558460D01*
X89816557Y-131338595D01*
X94483443Y-131338595D01*
X94752506Y-131558460D01*
X95717762Y-131594211D01*
X95897494Y-131558460D01*
X96166557Y-131338595D01*
X105508443Y-131338595D01*
X105777506Y-131558460D01*
X106742762Y-131594211D01*
X106922494Y-131558460D01*
X107191557Y-131338595D01*
X111858443Y-131338595D01*
X112127506Y-131558460D01*
X113092762Y-131594211D01*
X113272494Y-131558460D01*
X113541557Y-131338595D01*
X113448931Y-131245969D01*
X143612000Y-131245969D01*
X143612000Y-131844250D01*
X143742750Y-131975000D01*
X145405000Y-131975000D01*
X145405000Y-130957750D01*
X145274250Y-130827000D01*
X144030969Y-130827000D01*
X143838744Y-130906622D01*
X143691622Y-131053744D01*
X143612000Y-131245969D01*
X113448931Y-131245969D01*
X112788557Y-130585595D01*
X120697443Y-130585595D01*
X120966506Y-130805460D01*
X121931762Y-130841211D01*
X122111494Y-130805460D01*
X122380557Y-130585595D01*
X127047443Y-130585595D01*
X127316506Y-130805460D01*
X128281762Y-130841211D01*
X128461494Y-130805460D01*
X128730557Y-130585595D01*
X127889000Y-129744038D01*
X127047443Y-130585595D01*
X122380557Y-130585595D01*
X121539000Y-129744038D01*
X120697443Y-130585595D01*
X112788557Y-130585595D01*
X112700000Y-130497038D01*
X111858443Y-131338595D01*
X107191557Y-131338595D01*
X106350000Y-130497038D01*
X105508443Y-131338595D01*
X96166557Y-131338595D01*
X95325000Y-130497038D01*
X94483443Y-131338595D01*
X89816557Y-131338595D01*
X88975000Y-130497038D01*
X88133443Y-131338595D01*
X50315000Y-131338595D01*
X50315000Y-129355750D01*
X50662000Y-129355750D01*
X50662000Y-129954031D01*
X50741622Y-130146256D01*
X50888744Y-130293378D01*
X51080969Y-130373000D01*
X52324250Y-130373000D01*
X52455000Y-130242250D01*
X52455000Y-129225000D01*
X54995000Y-129225000D01*
X54995000Y-130242250D01*
X55125750Y-130373000D01*
X56369031Y-130373000D01*
X56561256Y-130293378D01*
X56708378Y-130146256D01*
X56788000Y-129954031D01*
X56788000Y-129542762D01*
X86530789Y-129542762D01*
X86566540Y-129722494D01*
X86786405Y-129991557D01*
X87627962Y-129150000D01*
X90322038Y-129150000D01*
X91163595Y-129991557D01*
X91383460Y-129722494D01*
X91390116Y-129542762D01*
X92880789Y-129542762D01*
X92916540Y-129722494D01*
X93136405Y-129991557D01*
X93977962Y-129150000D01*
X96672038Y-129150000D01*
X97513595Y-129991557D01*
X97733460Y-129722494D01*
X97740116Y-129542762D01*
X103905789Y-129542762D01*
X103941540Y-129722494D01*
X104161405Y-129991557D01*
X105002962Y-129150000D01*
X107697038Y-129150000D01*
X108538595Y-129991557D01*
X108758460Y-129722494D01*
X108765116Y-129542762D01*
X110255789Y-129542762D01*
X110291540Y-129722494D01*
X110511405Y-129991557D01*
X111352962Y-129150000D01*
X114047038Y-129150000D01*
X114888595Y-129991557D01*
X115108460Y-129722494D01*
X115143006Y-128789762D01*
X119094789Y-128789762D01*
X119130540Y-128969494D01*
X119350405Y-129238557D01*
X120191962Y-128397000D01*
X122886038Y-128397000D01*
X123727595Y-129238557D01*
X123947460Y-128969494D01*
X123954116Y-128789762D01*
X125444789Y-128789762D01*
X125480540Y-128969494D01*
X125700405Y-129238557D01*
X126541962Y-128397000D01*
X129236038Y-128397000D01*
X130077595Y-129238557D01*
X130297460Y-128969494D01*
X130333211Y-128004238D01*
X130297460Y-127824506D01*
X130077595Y-127555443D01*
X129236038Y-128397000D01*
X126541962Y-128397000D01*
X125700405Y-127555443D01*
X125480540Y-127824506D01*
X125444789Y-128789762D01*
X123954116Y-128789762D01*
X123983211Y-128004238D01*
X123947460Y-127824506D01*
X123727595Y-127555443D01*
X122886038Y-128397000D01*
X120191962Y-128397000D01*
X119350405Y-127555443D01*
X119130540Y-127824506D01*
X119094789Y-128789762D01*
X115143006Y-128789762D01*
X115144211Y-128757238D01*
X115108460Y-128577506D01*
X114888595Y-128308443D01*
X114047038Y-129150000D01*
X111352962Y-129150000D01*
X110511405Y-128308443D01*
X110291540Y-128577506D01*
X110255789Y-129542762D01*
X108765116Y-129542762D01*
X108794211Y-128757238D01*
X108758460Y-128577506D01*
X108538595Y-128308443D01*
X107697038Y-129150000D01*
X105002962Y-129150000D01*
X104161405Y-128308443D01*
X103941540Y-128577506D01*
X103905789Y-129542762D01*
X97740116Y-129542762D01*
X97769211Y-128757238D01*
X97733460Y-128577506D01*
X97513595Y-128308443D01*
X96672038Y-129150000D01*
X93977962Y-129150000D01*
X93136405Y-128308443D01*
X92916540Y-128577506D01*
X92880789Y-129542762D01*
X91390116Y-129542762D01*
X91419211Y-128757238D01*
X91383460Y-128577506D01*
X91163595Y-128308443D01*
X90322038Y-129150000D01*
X87627962Y-129150000D01*
X86786405Y-128308443D01*
X86566540Y-128577506D01*
X86530789Y-129542762D01*
X56788000Y-129542762D01*
X56788000Y-129355750D01*
X56657250Y-129225000D01*
X54995000Y-129225000D01*
X52455000Y-129225000D01*
X50792750Y-129225000D01*
X50662000Y-129355750D01*
X50315000Y-129355750D01*
X50315000Y-127215000D01*
X50674828Y-127215000D01*
X50662000Y-127245969D01*
X50662000Y-127844250D01*
X50792750Y-127975000D01*
X52455000Y-127975000D01*
X52455000Y-127350000D01*
X54995000Y-127350000D01*
X54995000Y-127975000D01*
X56657250Y-127975000D01*
X56788000Y-127844250D01*
X56788000Y-127245969D01*
X56775172Y-127215000D01*
X57000000Y-127215000D01*
X57005836Y-127213818D01*
X57010752Y-127210459D01*
X57013974Y-127205452D01*
X57015000Y-127200000D01*
X57015000Y-126961405D01*
X88133443Y-126961405D01*
X88975000Y-127802962D01*
X89816557Y-126961405D01*
X89547494Y-126741540D01*
X88582238Y-126705789D01*
X88402506Y-126741540D01*
X88133443Y-126961405D01*
X57015000Y-126961405D01*
X57015000Y-126369693D01*
X90156655Y-126369693D01*
X90459432Y-127102469D01*
X91019582Y-127663598D01*
X91751829Y-127967653D01*
X92544693Y-127968345D01*
X93277469Y-127665568D01*
X93838598Y-127105418D01*
X93898397Y-126961405D01*
X94483443Y-126961405D01*
X95325000Y-127802962D01*
X96166557Y-126961405D01*
X105508443Y-126961405D01*
X106350000Y-127802962D01*
X107191557Y-126961405D01*
X106922494Y-126741540D01*
X105957238Y-126705789D01*
X105777506Y-126741540D01*
X105508443Y-126961405D01*
X96166557Y-126961405D01*
X95897494Y-126741540D01*
X94932238Y-126705789D01*
X94752506Y-126741540D01*
X94483443Y-126961405D01*
X93898397Y-126961405D01*
X94142653Y-126373171D01*
X94142656Y-126369693D01*
X107531655Y-126369693D01*
X107834432Y-127102469D01*
X108394582Y-127663598D01*
X109126829Y-127967653D01*
X109919693Y-127968345D01*
X110652469Y-127665568D01*
X111213598Y-127105418D01*
X111273397Y-126961405D01*
X111858443Y-126961405D01*
X112700000Y-127802962D01*
X113541557Y-126961405D01*
X113272494Y-126741540D01*
X112307238Y-126705789D01*
X112127506Y-126741540D01*
X111858443Y-126961405D01*
X111273397Y-126961405D01*
X111517653Y-126373171D01*
X111517796Y-126208405D01*
X120697443Y-126208405D01*
X121539000Y-127049962D01*
X122380557Y-126208405D01*
X122111494Y-125988540D01*
X121146238Y-125952789D01*
X120966506Y-125988540D01*
X120697443Y-126208405D01*
X111517796Y-126208405D01*
X111518313Y-125616693D01*
X122720655Y-125616693D01*
X123023432Y-126349469D01*
X123583582Y-126910598D01*
X124315829Y-127214653D01*
X125108693Y-127215345D01*
X125841469Y-126912568D01*
X126402598Y-126352418D01*
X126462397Y-126208405D01*
X127047443Y-126208405D01*
X127889000Y-127049962D01*
X128730557Y-126208405D01*
X128461494Y-125988540D01*
X127496238Y-125952789D01*
X127316506Y-125988540D01*
X127047443Y-126208405D01*
X126462397Y-126208405D01*
X126706653Y-125620171D01*
X126707345Y-124827307D01*
X126462855Y-124235595D01*
X127047443Y-124235595D01*
X127316506Y-124455460D01*
X128281762Y-124491211D01*
X128461494Y-124455460D01*
X128730557Y-124235595D01*
X127889000Y-123394038D01*
X127047443Y-124235595D01*
X126462855Y-124235595D01*
X126404568Y-124094531D01*
X125844418Y-123533402D01*
X125112171Y-123229347D01*
X124319307Y-123228655D01*
X123586531Y-123531432D01*
X123025402Y-124091582D01*
X122721347Y-124823829D01*
X122720655Y-125616693D01*
X111518313Y-125616693D01*
X111518345Y-125580307D01*
X111273855Y-124988595D01*
X111858443Y-124988595D01*
X112127506Y-125208460D01*
X113092762Y-125244211D01*
X113272494Y-125208460D01*
X113541557Y-124988595D01*
X112788557Y-124235595D01*
X120697443Y-124235595D01*
X120966506Y-124455460D01*
X121931762Y-124491211D01*
X122111494Y-124455460D01*
X122380557Y-124235595D01*
X121539000Y-123394038D01*
X120697443Y-124235595D01*
X112788557Y-124235595D01*
X112700000Y-124147038D01*
X111858443Y-124988595D01*
X111273855Y-124988595D01*
X111215568Y-124847531D01*
X110655418Y-124286402D01*
X109923171Y-123982347D01*
X109130307Y-123981655D01*
X108397531Y-124284432D01*
X107836402Y-124844582D01*
X107532347Y-125576829D01*
X107531655Y-126369693D01*
X94142656Y-126369693D01*
X94143345Y-125580307D01*
X93898855Y-124988595D01*
X94483443Y-124988595D01*
X94752506Y-125208460D01*
X95717762Y-125244211D01*
X95897494Y-125208460D01*
X96166557Y-124988595D01*
X105508443Y-124988595D01*
X105777506Y-125208460D01*
X106742762Y-125244211D01*
X106922494Y-125208460D01*
X107191557Y-124988595D01*
X106350000Y-124147038D01*
X105508443Y-124988595D01*
X96166557Y-124988595D01*
X95325000Y-124147038D01*
X94483443Y-124988595D01*
X93898855Y-124988595D01*
X93840568Y-124847531D01*
X93280418Y-124286402D01*
X92548171Y-123982347D01*
X91755307Y-123981655D01*
X91022531Y-124284432D01*
X90461402Y-124844582D01*
X90157347Y-125576829D01*
X90156655Y-126369693D01*
X57015000Y-126369693D01*
X57015000Y-126315000D01*
X60200000Y-126315000D01*
X60205836Y-126313818D01*
X60210752Y-126310459D01*
X60213974Y-126305452D01*
X60215000Y-126300000D01*
X60215000Y-124988595D01*
X88133443Y-124988595D01*
X88402506Y-125208460D01*
X89367762Y-125244211D01*
X89547494Y-125208460D01*
X89816557Y-124988595D01*
X88975000Y-124147038D01*
X88133443Y-124988595D01*
X60215000Y-124988595D01*
X60215000Y-123500000D01*
X60213818Y-123494164D01*
X60210459Y-123489248D01*
X60205452Y-123486026D01*
X60200000Y-123485000D01*
X56815000Y-123485000D01*
X56815000Y-123192762D01*
X86530789Y-123192762D01*
X86566540Y-123372494D01*
X86786405Y-123641557D01*
X87627962Y-122800000D01*
X90322038Y-122800000D01*
X91163595Y-123641557D01*
X91383460Y-123372494D01*
X91390116Y-123192762D01*
X92880789Y-123192762D01*
X92916540Y-123372494D01*
X93136405Y-123641557D01*
X93977962Y-122800000D01*
X96672038Y-122800000D01*
X97513595Y-123641557D01*
X97733460Y-123372494D01*
X97740116Y-123192762D01*
X103905789Y-123192762D01*
X103941540Y-123372494D01*
X104161405Y-123641557D01*
X105002962Y-122800000D01*
X107697038Y-122800000D01*
X108538595Y-123641557D01*
X108758460Y-123372494D01*
X108765116Y-123192762D01*
X110255789Y-123192762D01*
X110291540Y-123372494D01*
X110511405Y-123641557D01*
X111352962Y-122800000D01*
X114047038Y-122800000D01*
X114888595Y-123641557D01*
X115108460Y-123372494D01*
X115117672Y-123123750D01*
X143495000Y-123123750D01*
X143495000Y-123722031D01*
X143574622Y-123914256D01*
X143721744Y-124061378D01*
X143913969Y-124141000D01*
X145157250Y-124141000D01*
X145288000Y-124010250D01*
X145288000Y-122993000D01*
X143625750Y-122993000D01*
X143495000Y-123123750D01*
X115117672Y-123123750D01*
X115143006Y-122439762D01*
X119094789Y-122439762D01*
X119130540Y-122619494D01*
X119350405Y-122888557D01*
X120191962Y-122047000D01*
X122886038Y-122047000D01*
X123727595Y-122888557D01*
X123947460Y-122619494D01*
X123954116Y-122439762D01*
X125444789Y-122439762D01*
X125480540Y-122619494D01*
X125700405Y-122888557D01*
X126541962Y-122047000D01*
X129236038Y-122047000D01*
X130077595Y-122888557D01*
X130297460Y-122619494D01*
X130333211Y-121654238D01*
X130297460Y-121474506D01*
X130077595Y-121205443D01*
X129236038Y-122047000D01*
X126541962Y-122047000D01*
X125700405Y-121205443D01*
X125480540Y-121474506D01*
X125444789Y-122439762D01*
X123954116Y-122439762D01*
X123983211Y-121654238D01*
X123947460Y-121474506D01*
X123727595Y-121205443D01*
X122886038Y-122047000D01*
X120191962Y-122047000D01*
X119350405Y-121205443D01*
X119130540Y-121474506D01*
X119094789Y-122439762D01*
X115143006Y-122439762D01*
X115144211Y-122407238D01*
X115108460Y-122227506D01*
X114888595Y-121958443D01*
X114047038Y-122800000D01*
X111352962Y-122800000D01*
X110511405Y-121958443D01*
X110291540Y-122227506D01*
X110255789Y-123192762D01*
X108765116Y-123192762D01*
X108794211Y-122407238D01*
X108758460Y-122227506D01*
X108538595Y-121958443D01*
X107697038Y-122800000D01*
X105002962Y-122800000D01*
X104161405Y-121958443D01*
X103941540Y-122227506D01*
X103905789Y-123192762D01*
X97740116Y-123192762D01*
X97769211Y-122407238D01*
X97733460Y-122227506D01*
X97513595Y-121958443D01*
X96672038Y-122800000D01*
X93977962Y-122800000D01*
X93136405Y-121958443D01*
X92916540Y-122227506D01*
X92880789Y-123192762D01*
X91390116Y-123192762D01*
X91419211Y-122407238D01*
X91383460Y-122227506D01*
X91163595Y-121958443D01*
X90322038Y-122800000D01*
X87627962Y-122800000D01*
X86786405Y-121958443D01*
X86566540Y-122227506D01*
X86530789Y-123192762D01*
X56815000Y-123192762D01*
X56815000Y-122500000D01*
X56813818Y-122494164D01*
X56810459Y-122489248D01*
X56805452Y-122486026D01*
X56800000Y-122485000D01*
X56775172Y-122485000D01*
X56788000Y-122454031D01*
X56788000Y-121855750D01*
X56657250Y-121725000D01*
X54995000Y-121725000D01*
X54995000Y-122350000D01*
X52455000Y-122350000D01*
X52455000Y-121725000D01*
X50792750Y-121725000D01*
X50662000Y-121855750D01*
X50662000Y-122454031D01*
X50674828Y-122485000D01*
X50315000Y-122485000D01*
X50315000Y-120611405D01*
X88133443Y-120611405D01*
X88975000Y-121452962D01*
X89816557Y-120611405D01*
X94483443Y-120611405D01*
X95325000Y-121452962D01*
X96166557Y-120611405D01*
X105508443Y-120611405D01*
X106350000Y-121452962D01*
X107191557Y-120611405D01*
X111858443Y-120611405D01*
X112700000Y-121452962D01*
X113138993Y-121013969D01*
X143495000Y-121013969D01*
X143495000Y-121612250D01*
X143625750Y-121743000D01*
X145288000Y-121743000D01*
X145288000Y-120725750D01*
X145157250Y-120595000D01*
X143913969Y-120595000D01*
X143721744Y-120674622D01*
X143574622Y-120821744D01*
X143495000Y-121013969D01*
X113138993Y-121013969D01*
X113541557Y-120611405D01*
X113272494Y-120391540D01*
X112307238Y-120355789D01*
X112127506Y-120391540D01*
X111858443Y-120611405D01*
X107191557Y-120611405D01*
X106922494Y-120391540D01*
X105957238Y-120355789D01*
X105777506Y-120391540D01*
X105508443Y-120611405D01*
X96166557Y-120611405D01*
X95897494Y-120391540D01*
X94932238Y-120355789D01*
X94752506Y-120391540D01*
X94483443Y-120611405D01*
X89816557Y-120611405D01*
X89547494Y-120391540D01*
X88582238Y-120355789D01*
X88402506Y-120391540D01*
X88133443Y-120611405D01*
X50315000Y-120611405D01*
X50315000Y-119745969D01*
X50662000Y-119745969D01*
X50662000Y-120344250D01*
X50792750Y-120475000D01*
X52455000Y-120475000D01*
X52455000Y-119457750D01*
X54995000Y-119457750D01*
X54995000Y-120475000D01*
X56657250Y-120475000D01*
X56788000Y-120344250D01*
X56788000Y-119858405D01*
X120697443Y-119858405D01*
X121539000Y-120699962D01*
X122380557Y-119858405D01*
X127047443Y-119858405D01*
X127889000Y-120699962D01*
X128730557Y-119858405D01*
X128461494Y-119638540D01*
X127496238Y-119602789D01*
X127316506Y-119638540D01*
X127047443Y-119858405D01*
X122380557Y-119858405D01*
X122111494Y-119638540D01*
X121146238Y-119602789D01*
X120966506Y-119638540D01*
X120697443Y-119858405D01*
X56788000Y-119858405D01*
X56788000Y-119745969D01*
X56708378Y-119553744D01*
X56561256Y-119406622D01*
X56369031Y-119327000D01*
X55125750Y-119327000D01*
X54995000Y-119457750D01*
X52455000Y-119457750D01*
X52324250Y-119327000D01*
X51080969Y-119327000D01*
X50888744Y-119406622D01*
X50741622Y-119553744D01*
X50662000Y-119745969D01*
X50315000Y-119745969D01*
X50315000Y-115828195D01*
X89531643Y-115828195D01*
X89800706Y-116048060D01*
X90765962Y-116083811D01*
X90945694Y-116048060D01*
X91214757Y-115828195D01*
X95881643Y-115828195D01*
X96150706Y-116048060D01*
X97115962Y-116083811D01*
X97295694Y-116048060D01*
X97564757Y-115828195D01*
X97399657Y-115663095D01*
X105584443Y-115663095D01*
X105853506Y-115882960D01*
X106818762Y-115918711D01*
X106998494Y-115882960D01*
X107267557Y-115663095D01*
X111934443Y-115663095D01*
X112203506Y-115882960D01*
X113168762Y-115918711D01*
X113348494Y-115882960D01*
X113617557Y-115663095D01*
X112776000Y-114821538D01*
X111934443Y-115663095D01*
X107267557Y-115663095D01*
X106426000Y-114821538D01*
X105584443Y-115663095D01*
X97399657Y-115663095D01*
X96723200Y-114986638D01*
X95881643Y-115828195D01*
X91214757Y-115828195D01*
X90373200Y-114986638D01*
X89531643Y-115828195D01*
X50315000Y-115828195D01*
X50315000Y-114032362D01*
X87928989Y-114032362D01*
X87964740Y-114212094D01*
X88184605Y-114481157D01*
X89026162Y-113639600D01*
X91720238Y-113639600D01*
X92561795Y-114481157D01*
X92781660Y-114212094D01*
X92788316Y-114032362D01*
X94278989Y-114032362D01*
X94314740Y-114212094D01*
X94534605Y-114481157D01*
X95376162Y-113639600D01*
X98070238Y-113639600D01*
X98911795Y-114481157D01*
X99131660Y-114212094D01*
X99144431Y-113867262D01*
X103981789Y-113867262D01*
X104017540Y-114046994D01*
X104237405Y-114316057D01*
X105078962Y-113474500D01*
X104237405Y-112632943D01*
X104017540Y-112902006D01*
X103981789Y-113867262D01*
X99144431Y-113867262D01*
X99167411Y-113246838D01*
X99131660Y-113067106D01*
X98911795Y-112798043D01*
X98070238Y-113639600D01*
X95376162Y-113639600D01*
X94534605Y-112798043D01*
X94314740Y-113067106D01*
X94278989Y-114032362D01*
X92788316Y-114032362D01*
X92817411Y-113246838D01*
X92781660Y-113067106D01*
X92561795Y-112798043D01*
X91720238Y-113639600D01*
X89026162Y-113639600D01*
X88184605Y-112798043D01*
X87964740Y-113067106D01*
X87928989Y-114032362D01*
X50315000Y-114032362D01*
X50315000Y-112528028D01*
X92742008Y-112528028D01*
X92991263Y-112743615D01*
X93905799Y-112783266D01*
X94105137Y-112743615D01*
X94354392Y-112528028D01*
X93548200Y-111721836D01*
X92742008Y-112528028D01*
X50315000Y-112528028D01*
X50315000Y-111451005D01*
X89531643Y-111451005D01*
X90373200Y-112292562D01*
X91214757Y-111451005D01*
X95881643Y-111451005D01*
X96723200Y-112292562D01*
X97564757Y-111451005D01*
X97295694Y-111231140D01*
X96330438Y-111195389D01*
X96150706Y-111231140D01*
X95881643Y-111451005D01*
X91214757Y-111451005D01*
X90945694Y-111231140D01*
X89980438Y-111195389D01*
X89800706Y-111231140D01*
X89531643Y-111451005D01*
X50315000Y-111451005D01*
X50315000Y-110430750D01*
X50737000Y-110430750D01*
X50737000Y-111029031D01*
X50816622Y-111221256D01*
X50963744Y-111368378D01*
X51155969Y-111448000D01*
X52399250Y-111448000D01*
X52530000Y-111317250D01*
X52530000Y-110300000D01*
X55070000Y-110300000D01*
X55070000Y-111317250D01*
X55200750Y-111448000D01*
X56444031Y-111448000D01*
X56636256Y-111368378D01*
X56783378Y-111221256D01*
X56863000Y-111029031D01*
X56863000Y-110822199D01*
X91229534Y-110822199D01*
X91269185Y-111021537D01*
X91484772Y-111270792D01*
X92290964Y-110464600D01*
X94805436Y-110464600D01*
X95611628Y-111270792D01*
X95827215Y-111021537D01*
X95866866Y-110107001D01*
X95827215Y-109907663D01*
X95611628Y-109658408D01*
X94805436Y-110464600D01*
X92290964Y-110464600D01*
X91484772Y-109658408D01*
X91269185Y-109907663D01*
X91229534Y-110822199D01*
X56863000Y-110822199D01*
X56863000Y-110430750D01*
X56732250Y-110300000D01*
X55070000Y-110300000D01*
X52530000Y-110300000D01*
X50867750Y-110300000D01*
X50737000Y-110430750D01*
X50315000Y-110430750D01*
X50315000Y-109478195D01*
X89531643Y-109478195D01*
X89800706Y-109698060D01*
X90765962Y-109733811D01*
X90945694Y-109698060D01*
X91214757Y-109478195D01*
X95881643Y-109478195D01*
X96150706Y-109698060D01*
X97115962Y-109733811D01*
X97295694Y-109698060D01*
X97564757Y-109478195D01*
X96723200Y-108636638D01*
X95881643Y-109478195D01*
X91214757Y-109478195D01*
X90373200Y-108636638D01*
X89531643Y-109478195D01*
X50315000Y-109478195D01*
X50315000Y-108215000D01*
X50780894Y-108215000D01*
X50737000Y-108320969D01*
X50737000Y-108919250D01*
X50867750Y-109050000D01*
X52530000Y-109050000D01*
X52530000Y-108425000D01*
X55070000Y-108425000D01*
X55070000Y-109050000D01*
X56732250Y-109050000D01*
X56863000Y-108919250D01*
X56863000Y-108401172D01*
X92742008Y-108401172D01*
X93548200Y-109207364D01*
X94354392Y-108401172D01*
X94105137Y-108185585D01*
X93190601Y-108145934D01*
X92991263Y-108185585D01*
X92742008Y-108401172D01*
X56863000Y-108401172D01*
X56863000Y-108320969D01*
X56819106Y-108215000D01*
X57400000Y-108215000D01*
X57405836Y-108213818D01*
X57410752Y-108210459D01*
X57413974Y-108205452D01*
X57415000Y-108200000D01*
X57415000Y-107682362D01*
X87928989Y-107682362D01*
X87964740Y-107862094D01*
X88184605Y-108131157D01*
X89026162Y-107289600D01*
X91720238Y-107289600D01*
X92561795Y-108131157D01*
X92781660Y-107862094D01*
X92788316Y-107682362D01*
X94278989Y-107682362D01*
X94314740Y-107862094D01*
X94534605Y-108131157D01*
X95376162Y-107289600D01*
X98070238Y-107289600D01*
X98911795Y-108131157D01*
X99131660Y-107862094D01*
X99144431Y-107517262D01*
X103981789Y-107517262D01*
X104017540Y-107696994D01*
X104237405Y-107966057D01*
X105078962Y-107124500D01*
X104237405Y-106282943D01*
X104017540Y-106552006D01*
X103981789Y-107517262D01*
X99144431Y-107517262D01*
X99167411Y-106896838D01*
X99131660Y-106717106D01*
X98911795Y-106448043D01*
X98070238Y-107289600D01*
X95376162Y-107289600D01*
X94534605Y-106448043D01*
X94314740Y-106717106D01*
X94278989Y-107682362D01*
X92788316Y-107682362D01*
X92817411Y-106896838D01*
X92781660Y-106717106D01*
X92561795Y-106448043D01*
X91720238Y-107289600D01*
X89026162Y-107289600D01*
X88184605Y-106448043D01*
X87964740Y-106717106D01*
X87928989Y-107682362D01*
X57415000Y-107682362D01*
X57415000Y-107215000D01*
X60000000Y-107215000D01*
X60005836Y-107213818D01*
X60010752Y-107210459D01*
X60013974Y-107205452D01*
X60015000Y-107200000D01*
X60015000Y-105101005D01*
X89531643Y-105101005D01*
X90373200Y-105942562D01*
X91214757Y-105101005D01*
X95881643Y-105101005D01*
X96723200Y-105942562D01*
X97564757Y-105101005D01*
X97362714Y-104935905D01*
X105584443Y-104935905D01*
X106426000Y-105777462D01*
X107267557Y-104935905D01*
X111934443Y-104935905D01*
X112776000Y-105777462D01*
X113617557Y-104935905D01*
X113348494Y-104716040D01*
X112383238Y-104680289D01*
X112203506Y-104716040D01*
X111934443Y-104935905D01*
X107267557Y-104935905D01*
X106998494Y-104716040D01*
X106033238Y-104680289D01*
X105853506Y-104716040D01*
X105584443Y-104935905D01*
X97362714Y-104935905D01*
X97295694Y-104881140D01*
X96330438Y-104845389D01*
X96150706Y-104881140D01*
X95881643Y-105101005D01*
X91214757Y-105101005D01*
X90945694Y-104881140D01*
X89980438Y-104845389D01*
X89800706Y-104881140D01*
X89531643Y-105101005D01*
X60015000Y-105101005D01*
X60015000Y-104600000D01*
X60013818Y-104594164D01*
X60010459Y-104589248D01*
X60005452Y-104586026D01*
X60000000Y-104585000D01*
X57215000Y-104585000D01*
X57215000Y-103700000D01*
X57213818Y-103694164D01*
X57210459Y-103689248D01*
X57205452Y-103686026D01*
X57200000Y-103685000D01*
X56798396Y-103685000D01*
X56863000Y-103529031D01*
X56863000Y-102930750D01*
X56732250Y-102800000D01*
X55070000Y-102800000D01*
X55070000Y-103425000D01*
X52530000Y-103425000D01*
X52530000Y-102800000D01*
X50867750Y-102800000D01*
X50737000Y-102930750D01*
X50737000Y-103529031D01*
X50801604Y-103685000D01*
X50315000Y-103685000D01*
X50315000Y-100820969D01*
X50737000Y-100820969D01*
X50737000Y-101419250D01*
X50867750Y-101550000D01*
X52530000Y-101550000D01*
X52530000Y-100532750D01*
X55070000Y-100532750D01*
X55070000Y-101550000D01*
X56732250Y-101550000D01*
X56863000Y-101419250D01*
X56863000Y-100820969D01*
X56783378Y-100628744D01*
X56636256Y-100481622D01*
X56444031Y-100402000D01*
X55200750Y-100402000D01*
X55070000Y-100532750D01*
X52530000Y-100532750D01*
X52399250Y-100402000D01*
X51155969Y-100402000D01*
X50963744Y-100481622D01*
X50816622Y-100628744D01*
X50737000Y-100820969D01*
X50315000Y-100820969D01*
X50315000Y-99580750D01*
X87777000Y-99580750D01*
X87777000Y-100154031D01*
X87856622Y-100346256D01*
X88003744Y-100493378D01*
X88195969Y-100573000D01*
X88569250Y-100573000D01*
X88700000Y-100442250D01*
X88700000Y-99450000D01*
X89500000Y-99450000D01*
X89500000Y-100442250D01*
X89630750Y-100573000D01*
X90004031Y-100573000D01*
X90196256Y-100493378D01*
X90343378Y-100346256D01*
X90423000Y-100154031D01*
X90423000Y-99670328D01*
X90655797Y-100087686D01*
X91047648Y-100432982D01*
X91240000Y-100373147D01*
X91240000Y-99450000D01*
X92040000Y-99450000D01*
X92040000Y-100373147D01*
X92232352Y-100432982D01*
X92624203Y-100087686D01*
X92869854Y-99647283D01*
X92950146Y-99647283D01*
X93195797Y-100087686D01*
X93587648Y-100432982D01*
X93780000Y-100373147D01*
X93780000Y-99450000D01*
X94580000Y-99450000D01*
X94580000Y-100373147D01*
X94772352Y-100432982D01*
X95164203Y-100087686D01*
X95409854Y-99647283D01*
X95490146Y-99647283D01*
X95735797Y-100087686D01*
X96127648Y-100432982D01*
X96320000Y-100373147D01*
X96320000Y-99450000D01*
X97120000Y-99450000D01*
X97120000Y-100373147D01*
X97312352Y-100432982D01*
X97704203Y-100087686D01*
X97949854Y-99647283D01*
X98030146Y-99647283D01*
X98275797Y-100087686D01*
X98667648Y-100432982D01*
X98860000Y-100373147D01*
X98860000Y-99450000D01*
X99660000Y-99450000D01*
X99660000Y-100373147D01*
X99852352Y-100432982D01*
X100244203Y-100087686D01*
X100489854Y-99647283D01*
X100570146Y-99647283D01*
X100815797Y-100087686D01*
X101207648Y-100432982D01*
X101400000Y-100373147D01*
X101400000Y-99450000D01*
X102200000Y-99450000D01*
X102200000Y-100373147D01*
X102392352Y-100432982D01*
X102784203Y-100087686D01*
X103029854Y-99647283D01*
X103110146Y-99647283D01*
X103355797Y-100087686D01*
X103747648Y-100432982D01*
X103940000Y-100373147D01*
X103940000Y-99450000D01*
X104740000Y-99450000D01*
X104740000Y-100373147D01*
X104932352Y-100432982D01*
X105324203Y-100087686D01*
X105569854Y-99647283D01*
X105650146Y-99647283D01*
X105895797Y-100087686D01*
X106287648Y-100432982D01*
X106480000Y-100373147D01*
X106480000Y-99450000D01*
X107280000Y-99450000D01*
X107280000Y-100373147D01*
X107472352Y-100432982D01*
X107864203Y-100087686D01*
X108109854Y-99647283D01*
X108026111Y-99450000D01*
X107280000Y-99450000D01*
X106480000Y-99450000D01*
X105733889Y-99450000D01*
X105650146Y-99647283D01*
X105569854Y-99647283D01*
X105486111Y-99450000D01*
X104740000Y-99450000D01*
X103940000Y-99450000D01*
X103193889Y-99450000D01*
X103110146Y-99647283D01*
X103029854Y-99647283D01*
X102946111Y-99450000D01*
X102200000Y-99450000D01*
X101400000Y-99450000D01*
X100653889Y-99450000D01*
X100570146Y-99647283D01*
X100489854Y-99647283D01*
X100406111Y-99450000D01*
X99660000Y-99450000D01*
X98860000Y-99450000D01*
X98113889Y-99450000D01*
X98030146Y-99647283D01*
X97949854Y-99647283D01*
X97866111Y-99450000D01*
X97120000Y-99450000D01*
X96320000Y-99450000D01*
X95573889Y-99450000D01*
X95490146Y-99647283D01*
X95409854Y-99647283D01*
X95326111Y-99450000D01*
X94580000Y-99450000D01*
X93780000Y-99450000D01*
X93033889Y-99450000D01*
X92950146Y-99647283D01*
X92869854Y-99647283D01*
X92786111Y-99450000D01*
X92040000Y-99450000D01*
X91240000Y-99450000D01*
X90493889Y-99450000D01*
X90423000Y-99617001D01*
X90423000Y-99580750D01*
X90292250Y-99450000D01*
X89500000Y-99450000D01*
X88700000Y-99450000D01*
X87907750Y-99450000D01*
X87777000Y-99580750D01*
X50315000Y-99580750D01*
X50315000Y-97545969D01*
X87777000Y-97545969D01*
X87777000Y-98119250D01*
X87907750Y-98250000D01*
X88700000Y-98250000D01*
X88700000Y-97257750D01*
X89500000Y-97257750D01*
X89500000Y-98250000D01*
X90292250Y-98250000D01*
X90423000Y-98119250D01*
X90423000Y-98082999D01*
X90493889Y-98250000D01*
X91240000Y-98250000D01*
X91240000Y-97326853D01*
X92040000Y-97326853D01*
X92040000Y-98250000D01*
X92786111Y-98250000D01*
X92869854Y-98052717D01*
X92950146Y-98052717D01*
X93033889Y-98250000D01*
X93780000Y-98250000D01*
X93780000Y-97326853D01*
X94580000Y-97326853D01*
X94580000Y-98250000D01*
X95326111Y-98250000D01*
X95409854Y-98052717D01*
X95490146Y-98052717D01*
X95573889Y-98250000D01*
X96320000Y-98250000D01*
X96320000Y-97326853D01*
X97120000Y-97326853D01*
X97120000Y-98250000D01*
X97866111Y-98250000D01*
X97949854Y-98052717D01*
X98030146Y-98052717D01*
X98113889Y-98250000D01*
X98860000Y-98250000D01*
X98860000Y-97326853D01*
X99660000Y-97326853D01*
X99660000Y-98250000D01*
X100406111Y-98250000D01*
X100489854Y-98052717D01*
X100570146Y-98052717D01*
X100653889Y-98250000D01*
X101400000Y-98250000D01*
X101400000Y-97326853D01*
X102200000Y-97326853D01*
X102200000Y-98250000D01*
X102946111Y-98250000D01*
X103029854Y-98052717D01*
X103110146Y-98052717D01*
X103193889Y-98250000D01*
X103940000Y-98250000D01*
X103940000Y-97326853D01*
X104740000Y-97326853D01*
X104740000Y-98250000D01*
X105486111Y-98250000D01*
X105569854Y-98052717D01*
X105650146Y-98052717D01*
X105733889Y-98250000D01*
X106480000Y-98250000D01*
X106480000Y-97326853D01*
X107280000Y-97326853D01*
X107280000Y-98250000D01*
X108026111Y-98250000D01*
X108109854Y-98052717D01*
X107864203Y-97612314D01*
X107472352Y-97267018D01*
X107280000Y-97326853D01*
X106480000Y-97326853D01*
X106287648Y-97267018D01*
X105895797Y-97612314D01*
X105650146Y-98052717D01*
X105569854Y-98052717D01*
X105324203Y-97612314D01*
X104932352Y-97267018D01*
X104740000Y-97326853D01*
X103940000Y-97326853D01*
X103747648Y-97267018D01*
X103355797Y-97612314D01*
X103110146Y-98052717D01*
X103029854Y-98052717D01*
X102784203Y-97612314D01*
X102392352Y-97267018D01*
X102200000Y-97326853D01*
X101400000Y-97326853D01*
X101207648Y-97267018D01*
X100815797Y-97612314D01*
X100570146Y-98052717D01*
X100489854Y-98052717D01*
X100244203Y-97612314D01*
X99852352Y-97267018D01*
X99660000Y-97326853D01*
X98860000Y-97326853D01*
X98667648Y-97267018D01*
X98275797Y-97612314D01*
X98030146Y-98052717D01*
X97949854Y-98052717D01*
X97704203Y-97612314D01*
X97312352Y-97267018D01*
X97120000Y-97326853D01*
X96320000Y-97326853D01*
X96127648Y-97267018D01*
X95735797Y-97612314D01*
X95490146Y-98052717D01*
X95409854Y-98052717D01*
X95164203Y-97612314D01*
X94772352Y-97267018D01*
X94580000Y-97326853D01*
X93780000Y-97326853D01*
X93587648Y-97267018D01*
X93195797Y-97612314D01*
X92950146Y-98052717D01*
X92869854Y-98052717D01*
X92624203Y-97612314D01*
X92232352Y-97267018D01*
X92040000Y-97326853D01*
X91240000Y-97326853D01*
X91047648Y-97267018D01*
X90655797Y-97612314D01*
X90423000Y-98029672D01*
X90423000Y-97545969D01*
X90343378Y-97353744D01*
X90196256Y-97206622D01*
X90004031Y-97127000D01*
X89630750Y-97127000D01*
X89500000Y-97257750D01*
X88700000Y-97257750D01*
X88569250Y-97127000D01*
X88195969Y-97127000D01*
X88003744Y-97206622D01*
X87856622Y-97353744D01*
X87777000Y-97545969D01*
X50315000Y-97545969D01*
X50315000Y-89855750D01*
X50737000Y-89855750D01*
X50737000Y-90454031D01*
X50816622Y-90646256D01*
X50963744Y-90793378D01*
X51155969Y-90873000D01*
X52399250Y-90873000D01*
X52530000Y-90742250D01*
X52530000Y-89725000D01*
X55070000Y-89725000D01*
X55070000Y-90742250D01*
X55200750Y-90873000D01*
X56444031Y-90873000D01*
X56636256Y-90793378D01*
X56783378Y-90646256D01*
X56863000Y-90454031D01*
X56863000Y-89855750D01*
X56732250Y-89725000D01*
X55070000Y-89725000D01*
X52530000Y-89725000D01*
X50867750Y-89725000D01*
X50737000Y-89855750D01*
X50315000Y-89855750D01*
X50315000Y-87815000D01*
X50737000Y-87815000D01*
X50737000Y-88344250D01*
X50867750Y-88475000D01*
X52530000Y-88475000D01*
X52530000Y-87850000D01*
X55070000Y-87850000D01*
X55070000Y-88475000D01*
X56732250Y-88475000D01*
X56863000Y-88344250D01*
X56863000Y-87815000D01*
X57100000Y-87815000D01*
X57105836Y-87813818D01*
X57110752Y-87810459D01*
X57113974Y-87805452D01*
X57115000Y-87800000D01*
X57115000Y-86515000D01*
X60700000Y-86515000D01*
X60705836Y-86513818D01*
X60710752Y-86510459D01*
X60713974Y-86505452D01*
X60715000Y-86500000D01*
X60715000Y-83900000D01*
X60713818Y-83894164D01*
X60710459Y-83889248D01*
X60705452Y-83886026D01*
X60700000Y-83885000D01*
X56615000Y-83885000D01*
X56615000Y-83577762D01*
X83280789Y-83577762D01*
X83316540Y-83757494D01*
X83536405Y-84026557D01*
X84377962Y-83185000D01*
X83536405Y-82343443D01*
X83316540Y-82612506D01*
X83280789Y-83577762D01*
X56615000Y-83577762D01*
X56615000Y-83302183D01*
X56636256Y-83293378D01*
X56783378Y-83146256D01*
X56863000Y-82954031D01*
X56863000Y-82355750D01*
X56732250Y-82225000D01*
X55070000Y-82225000D01*
X55070000Y-82850000D01*
X52530000Y-82850000D01*
X52530000Y-82225000D01*
X50867750Y-82225000D01*
X50737000Y-82355750D01*
X50737000Y-82885000D01*
X50315000Y-82885000D01*
X50315000Y-80245969D01*
X50737000Y-80245969D01*
X50737000Y-80844250D01*
X50867750Y-80975000D01*
X52530000Y-80975000D01*
X52530000Y-79957750D01*
X55070000Y-79957750D01*
X55070000Y-80975000D01*
X56732250Y-80975000D01*
X56863000Y-80844250D01*
X56863000Y-80245969D01*
X56783378Y-80053744D01*
X56636256Y-79906622D01*
X56444031Y-79827000D01*
X55200750Y-79827000D01*
X55070000Y-79957750D01*
X52530000Y-79957750D01*
X52399250Y-79827000D01*
X51155969Y-79827000D01*
X50963744Y-79906622D01*
X50816622Y-80053744D01*
X50737000Y-80245969D01*
X50315000Y-80245969D01*
X50315000Y-79023595D01*
X84883443Y-79023595D01*
X85152506Y-79243460D01*
X86067229Y-79277339D01*
X86425227Y-79635337D01*
X86685000Y-79375564D01*
X86685000Y-80644436D01*
X86425227Y-80384663D01*
X86042784Y-80767106D01*
X85332238Y-80740789D01*
X85152506Y-80776540D01*
X84883443Y-80996405D01*
X85725000Y-81837962D01*
X86115677Y-81447285D01*
X86685000Y-82016608D01*
X86685000Y-84353392D01*
X86115677Y-84922715D01*
X85725000Y-84532038D01*
X84883443Y-85373595D01*
X85152506Y-85593460D01*
X86067229Y-85627339D01*
X86425227Y-85985337D01*
X86685000Y-85725564D01*
X86685000Y-93800000D01*
X86686182Y-93805836D01*
X86689541Y-93810752D01*
X86694548Y-93813974D01*
X86700000Y-93815000D01*
X109200000Y-93815000D01*
X109205836Y-93813818D01*
X109210752Y-93810459D01*
X109213974Y-93805452D01*
X109215000Y-93800000D01*
X109215000Y-85283564D01*
X109662773Y-85731337D01*
X110045216Y-85348894D01*
X110755762Y-85375211D01*
X110935494Y-85339460D01*
X111204557Y-85119595D01*
X110363000Y-84278038D01*
X109972323Y-84668715D01*
X109215000Y-83911392D01*
X109215000Y-82931000D01*
X111710038Y-82931000D01*
X112551595Y-83772557D01*
X112771460Y-83503494D01*
X112807211Y-82538238D01*
X112771460Y-82358506D01*
X112551595Y-82089443D01*
X111710038Y-82931000D01*
X109215000Y-82931000D01*
X109215000Y-81950608D01*
X109972323Y-81193285D01*
X110363000Y-81583962D01*
X111204557Y-80742405D01*
X110935494Y-80522540D01*
X110020771Y-80488661D01*
X109662773Y-80130663D01*
X109215000Y-80578436D01*
X109215000Y-78933564D01*
X109662773Y-79381337D01*
X110045216Y-78998894D01*
X110755762Y-79025211D01*
X110935494Y-78989460D01*
X111204557Y-78769595D01*
X110363000Y-77928038D01*
X109972323Y-78318715D01*
X108625285Y-76971677D01*
X109015962Y-76581000D01*
X111710038Y-76581000D01*
X112551595Y-77422557D01*
X112771460Y-77153494D01*
X112807211Y-76188238D01*
X112771460Y-76008506D01*
X112551595Y-75739443D01*
X111710038Y-76581000D01*
X109015962Y-76581000D01*
X108174405Y-75739443D01*
X107954540Y-76008506D01*
X107920661Y-76923229D01*
X107562663Y-77281227D01*
X108066436Y-77785000D01*
X107638317Y-77785000D01*
X107586171Y-77763347D01*
X106793307Y-77762655D01*
X106739228Y-77785000D01*
X106309564Y-77785000D01*
X106813337Y-77281227D01*
X106430894Y-76898784D01*
X106457211Y-76188238D01*
X106421460Y-76008506D01*
X106201595Y-75739443D01*
X105360038Y-76581000D01*
X105750715Y-76971677D01*
X104403677Y-78318715D01*
X104013000Y-77928038D01*
X103171443Y-78769595D01*
X103440506Y-78989460D01*
X104355229Y-79023339D01*
X104713227Y-79381337D01*
X105285000Y-78809564D01*
X105285000Y-79141920D01*
X105195347Y-79357829D01*
X105194655Y-80150693D01*
X105285000Y-80369345D01*
X105285000Y-80702436D01*
X104713227Y-80130663D01*
X104330784Y-80513106D01*
X103620238Y-80486789D01*
X103440506Y-80522540D01*
X103171443Y-80742405D01*
X104013000Y-81583962D01*
X104403677Y-81193285D01*
X105285000Y-82074608D01*
X105285000Y-83787392D01*
X104403677Y-84668715D01*
X104013000Y-84278038D01*
X103171443Y-85119595D01*
X103440506Y-85339460D01*
X104355229Y-85373339D01*
X104713227Y-85731337D01*
X105285000Y-85159564D01*
X105285000Y-89385000D01*
X90415000Y-89385000D01*
X90415000Y-85025564D01*
X91374773Y-85985337D01*
X91757216Y-85602894D01*
X92467762Y-85629211D01*
X92647494Y-85593460D01*
X92916557Y-85373595D01*
X92075000Y-84532038D01*
X91684323Y-84922715D01*
X90415000Y-83653392D01*
X90415000Y-83497962D01*
X90727962Y-83185000D01*
X93422038Y-83185000D01*
X94263595Y-84026557D01*
X94483460Y-83757494D01*
X94499524Y-83323762D01*
X101568789Y-83323762D01*
X101604540Y-83503494D01*
X101824405Y-83772557D01*
X102665962Y-82931000D01*
X101824405Y-82089443D01*
X101604540Y-82358506D01*
X101568789Y-83323762D01*
X94499524Y-83323762D01*
X94519211Y-82792238D01*
X94483460Y-82612506D01*
X94263595Y-82343443D01*
X93422038Y-83185000D01*
X90727962Y-83185000D01*
X90415000Y-82872038D01*
X90415000Y-82716608D01*
X91684323Y-81447285D01*
X92075000Y-81837962D01*
X92916557Y-80996405D01*
X92647494Y-80776540D01*
X91732771Y-80742661D01*
X91374773Y-80384663D01*
X90415000Y-81344436D01*
X90415000Y-81313713D01*
X90588598Y-81140418D01*
X90892653Y-80408171D01*
X90893345Y-79615307D01*
X90590568Y-78882531D01*
X90415000Y-78706656D01*
X90415000Y-78675564D01*
X91374773Y-79635337D01*
X91757216Y-79252894D01*
X92467762Y-79279211D01*
X92647494Y-79243460D01*
X92916557Y-79023595D01*
X92075000Y-78182038D01*
X91684323Y-78572715D01*
X90337285Y-77225677D01*
X90727962Y-76835000D01*
X93422038Y-76835000D01*
X94263595Y-77676557D01*
X94483460Y-77407494D01*
X94499524Y-76973762D01*
X101568789Y-76973762D01*
X101604540Y-77153494D01*
X101824405Y-77422557D01*
X102665962Y-76581000D01*
X101824405Y-75739443D01*
X101604540Y-76008506D01*
X101568789Y-76973762D01*
X94499524Y-76973762D01*
X94519211Y-76442238D01*
X94483460Y-76262506D01*
X94263595Y-75993443D01*
X93422038Y-76835000D01*
X90727962Y-76835000D01*
X89886405Y-75993443D01*
X89666540Y-76262506D01*
X89632661Y-77177229D01*
X89274663Y-77535227D01*
X90224436Y-78485000D01*
X90193731Y-78485000D01*
X90030418Y-78321402D01*
X89298171Y-78017347D01*
X88505307Y-78016655D01*
X87772531Y-78319432D01*
X87606674Y-78485000D01*
X87575564Y-78485000D01*
X88525337Y-77535227D01*
X88142894Y-77152784D01*
X88169211Y-76442238D01*
X88133460Y-76262506D01*
X87913595Y-75993443D01*
X87072038Y-76835000D01*
X87462715Y-77225677D01*
X86115677Y-78572715D01*
X85725000Y-78182038D01*
X84883443Y-79023595D01*
X50315000Y-79023595D01*
X50315000Y-77227762D01*
X83280789Y-77227762D01*
X83316540Y-77407494D01*
X83536405Y-77676557D01*
X84377962Y-76835000D01*
X83536405Y-75993443D01*
X83316540Y-76262506D01*
X83280789Y-77227762D01*
X50315000Y-77227762D01*
X50315000Y-74646405D01*
X84883443Y-74646405D01*
X85725000Y-75487962D01*
X86566557Y-74646405D01*
X91233443Y-74646405D01*
X92075000Y-75487962D01*
X92916557Y-74646405D01*
X92647494Y-74426540D01*
X91725870Y-74392405D01*
X103171443Y-74392405D01*
X104013000Y-75233962D01*
X104854557Y-74392405D01*
X109521443Y-74392405D01*
X110363000Y-75233962D01*
X111204557Y-74392405D01*
X110935494Y-74172540D01*
X109970238Y-74136789D01*
X109790506Y-74172540D01*
X109521443Y-74392405D01*
X104854557Y-74392405D01*
X104585494Y-74172540D01*
X103620238Y-74136789D01*
X103440506Y-74172540D01*
X103171443Y-74392405D01*
X91725870Y-74392405D01*
X91682238Y-74390789D01*
X91502506Y-74426540D01*
X91233443Y-74646405D01*
X86566557Y-74646405D01*
X86297494Y-74426540D01*
X85332238Y-74390789D01*
X85152506Y-74426540D01*
X84883443Y-74646405D01*
X50315000Y-74646405D01*
X50315000Y-70830750D01*
X50862000Y-70830750D01*
X50862000Y-71429031D01*
X50941622Y-71621256D01*
X51088744Y-71768378D01*
X51280969Y-71848000D01*
X52524250Y-71848000D01*
X52655000Y-71717250D01*
X52655000Y-70700000D01*
X55195000Y-70700000D01*
X55195000Y-71717250D01*
X55325750Y-71848000D01*
X56569031Y-71848000D01*
X56761256Y-71768378D01*
X56908378Y-71621256D01*
X56988000Y-71429031D01*
X56988000Y-70830750D01*
X56857250Y-70700000D01*
X55195000Y-70700000D01*
X52655000Y-70700000D01*
X50992750Y-70700000D01*
X50862000Y-70830750D01*
X50315000Y-70830750D01*
X50315000Y-70326750D01*
X114755000Y-70326750D01*
X114755000Y-70900031D01*
X114834622Y-71092256D01*
X114981744Y-71239378D01*
X115173969Y-71319000D01*
X115547250Y-71319000D01*
X115678000Y-71188250D01*
X115678000Y-70196000D01*
X116478000Y-70196000D01*
X116478000Y-71188250D01*
X116608750Y-71319000D01*
X116982031Y-71319000D01*
X117174256Y-71239378D01*
X117321378Y-71092256D01*
X117401000Y-70900031D01*
X117401000Y-70416328D01*
X117633797Y-70833686D01*
X118025648Y-71178982D01*
X118218000Y-71119147D01*
X118218000Y-70196000D01*
X119018000Y-70196000D01*
X119018000Y-71119147D01*
X119210352Y-71178982D01*
X119602203Y-70833686D01*
X119847854Y-70393283D01*
X119928146Y-70393283D01*
X120173797Y-70833686D01*
X120565648Y-71178982D01*
X120758000Y-71119147D01*
X120758000Y-70196000D01*
X121558000Y-70196000D01*
X121558000Y-71119147D01*
X121750352Y-71178982D01*
X122142203Y-70833686D01*
X122387854Y-70393283D01*
X122468146Y-70393283D01*
X122713797Y-70833686D01*
X123105648Y-71178982D01*
X123298000Y-71119147D01*
X123298000Y-70196000D01*
X124098000Y-70196000D01*
X124098000Y-71119147D01*
X124290352Y-71178982D01*
X124682203Y-70833686D01*
X124927854Y-70393283D01*
X125008146Y-70393283D01*
X125253797Y-70833686D01*
X125645648Y-71178982D01*
X125838000Y-71119147D01*
X125838000Y-70196000D01*
X126638000Y-70196000D01*
X126638000Y-71119147D01*
X126830352Y-71178982D01*
X127222203Y-70833686D01*
X127467854Y-70393283D01*
X127548146Y-70393283D01*
X127793797Y-70833686D01*
X128185648Y-71178982D01*
X128378000Y-71119147D01*
X128378000Y-70196000D01*
X129178000Y-70196000D01*
X129178000Y-71119147D01*
X129370352Y-71178982D01*
X129762203Y-70833686D01*
X130007854Y-70393283D01*
X130088146Y-70393283D01*
X130333797Y-70833686D01*
X130725648Y-71178982D01*
X130918000Y-71119147D01*
X130918000Y-70196000D01*
X131718000Y-70196000D01*
X131718000Y-71119147D01*
X131910352Y-71178982D01*
X132302203Y-70833686D01*
X132547854Y-70393283D01*
X132628146Y-70393283D01*
X132873797Y-70833686D01*
X133265648Y-71178982D01*
X133458000Y-71119147D01*
X133458000Y-70196000D01*
X134258000Y-70196000D01*
X134258000Y-71119147D01*
X134450352Y-71178982D01*
X134842203Y-70833686D01*
X135087854Y-70393283D01*
X135004111Y-70196000D01*
X134258000Y-70196000D01*
X133458000Y-70196000D01*
X132711889Y-70196000D01*
X132628146Y-70393283D01*
X132547854Y-70393283D01*
X132464111Y-70196000D01*
X131718000Y-70196000D01*
X130918000Y-70196000D01*
X130171889Y-70196000D01*
X130088146Y-70393283D01*
X130007854Y-70393283D01*
X129924111Y-70196000D01*
X129178000Y-70196000D01*
X128378000Y-70196000D01*
X127631889Y-70196000D01*
X127548146Y-70393283D01*
X127467854Y-70393283D01*
X127384111Y-70196000D01*
X126638000Y-70196000D01*
X125838000Y-70196000D01*
X125091889Y-70196000D01*
X125008146Y-70393283D01*
X124927854Y-70393283D01*
X124844111Y-70196000D01*
X124098000Y-70196000D01*
X123298000Y-70196000D01*
X122551889Y-70196000D01*
X122468146Y-70393283D01*
X122387854Y-70393283D01*
X122304111Y-70196000D01*
X121558000Y-70196000D01*
X120758000Y-70196000D01*
X120011889Y-70196000D01*
X119928146Y-70393283D01*
X119847854Y-70393283D01*
X119764111Y-70196000D01*
X119018000Y-70196000D01*
X118218000Y-70196000D01*
X117471889Y-70196000D01*
X117401000Y-70363001D01*
X117401000Y-70326750D01*
X117270250Y-70196000D01*
X116478000Y-70196000D01*
X115678000Y-70196000D01*
X114885750Y-70196000D01*
X114755000Y-70326750D01*
X50315000Y-70326750D01*
X50315000Y-68615000D01*
X50905894Y-68615000D01*
X50862000Y-68720969D01*
X50862000Y-69319250D01*
X50992750Y-69450000D01*
X52655000Y-69450000D01*
X52655000Y-68825000D01*
X55195000Y-68825000D01*
X55195000Y-69450000D01*
X56857250Y-69450000D01*
X56988000Y-69319250D01*
X56988000Y-68720969D01*
X56944106Y-68615000D01*
X57000000Y-68615000D01*
X57005836Y-68613818D01*
X57010752Y-68610459D01*
X57013974Y-68605452D01*
X57015000Y-68600000D01*
X57015000Y-68291969D01*
X114755000Y-68291969D01*
X114755000Y-68865250D01*
X114885750Y-68996000D01*
X115678000Y-68996000D01*
X115678000Y-68003750D01*
X116478000Y-68003750D01*
X116478000Y-68996000D01*
X117270250Y-68996000D01*
X117401000Y-68865250D01*
X117401000Y-68828999D01*
X117471889Y-68996000D01*
X118218000Y-68996000D01*
X118218000Y-68072853D01*
X119018000Y-68072853D01*
X119018000Y-68996000D01*
X119764111Y-68996000D01*
X119847854Y-68798717D01*
X119928146Y-68798717D01*
X120011889Y-68996000D01*
X120758000Y-68996000D01*
X120758000Y-68072853D01*
X121558000Y-68072853D01*
X121558000Y-68996000D01*
X122304111Y-68996000D01*
X122387854Y-68798717D01*
X122468146Y-68798717D01*
X122551889Y-68996000D01*
X123298000Y-68996000D01*
X123298000Y-68072853D01*
X124098000Y-68072853D01*
X124098000Y-68996000D01*
X124844111Y-68996000D01*
X124927854Y-68798717D01*
X125008146Y-68798717D01*
X125091889Y-68996000D01*
X125838000Y-68996000D01*
X125838000Y-68072853D01*
X126638000Y-68072853D01*
X126638000Y-68996000D01*
X127384111Y-68996000D01*
X127467854Y-68798717D01*
X127548146Y-68798717D01*
X127631889Y-68996000D01*
X128378000Y-68996000D01*
X128378000Y-68072853D01*
X129178000Y-68072853D01*
X129178000Y-68996000D01*
X129924111Y-68996000D01*
X130007854Y-68798717D01*
X130088146Y-68798717D01*
X130171889Y-68996000D01*
X130918000Y-68996000D01*
X130918000Y-68072853D01*
X131718000Y-68072853D01*
X131718000Y-68996000D01*
X132464111Y-68996000D01*
X132547854Y-68798717D01*
X132628146Y-68798717D01*
X132711889Y-68996000D01*
X133458000Y-68996000D01*
X133458000Y-68072853D01*
X134258000Y-68072853D01*
X134258000Y-68996000D01*
X135004111Y-68996000D01*
X135087854Y-68798717D01*
X134842203Y-68358314D01*
X134450352Y-68013018D01*
X134258000Y-68072853D01*
X133458000Y-68072853D01*
X133265648Y-68013018D01*
X132873797Y-68358314D01*
X132628146Y-68798717D01*
X132547854Y-68798717D01*
X132302203Y-68358314D01*
X131910352Y-68013018D01*
X131718000Y-68072853D01*
X130918000Y-68072853D01*
X130725648Y-68013018D01*
X130333797Y-68358314D01*
X130088146Y-68798717D01*
X130007854Y-68798717D01*
X129762203Y-68358314D01*
X129370352Y-68013018D01*
X129178000Y-68072853D01*
X128378000Y-68072853D01*
X128185648Y-68013018D01*
X127793797Y-68358314D01*
X127548146Y-68798717D01*
X127467854Y-68798717D01*
X127222203Y-68358314D01*
X126830352Y-68013018D01*
X126638000Y-68072853D01*
X125838000Y-68072853D01*
X125645648Y-68013018D01*
X125253797Y-68358314D01*
X125008146Y-68798717D01*
X124927854Y-68798717D01*
X124682203Y-68358314D01*
X124290352Y-68013018D01*
X124098000Y-68072853D01*
X123298000Y-68072853D01*
X123105648Y-68013018D01*
X122713797Y-68358314D01*
X122468146Y-68798717D01*
X122387854Y-68798717D01*
X122142203Y-68358314D01*
X121750352Y-68013018D01*
X121558000Y-68072853D01*
X120758000Y-68072853D01*
X120565648Y-68013018D01*
X120173797Y-68358314D01*
X119928146Y-68798717D01*
X119847854Y-68798717D01*
X119602203Y-68358314D01*
X119210352Y-68013018D01*
X119018000Y-68072853D01*
X118218000Y-68072853D01*
X118025648Y-68013018D01*
X117633797Y-68358314D01*
X117401000Y-68775672D01*
X117401000Y-68291969D01*
X117321378Y-68099744D01*
X117174256Y-67952622D01*
X116982031Y-67873000D01*
X116608750Y-67873000D01*
X116478000Y-68003750D01*
X115678000Y-68003750D01*
X115547250Y-67873000D01*
X115173969Y-67873000D01*
X114981744Y-67952622D01*
X114834622Y-68099744D01*
X114755000Y-68291969D01*
X57015000Y-68291969D01*
X57015000Y-67515000D01*
X60300000Y-67515000D01*
X60305836Y-67513818D01*
X60310752Y-67510459D01*
X60313974Y-67505452D01*
X60315000Y-67500000D01*
X60315000Y-67154294D01*
X144145813Y-67154294D01*
X144653954Y-67466192D01*
X146251376Y-67564588D01*
X146746046Y-67466192D01*
X147254187Y-67154294D01*
X145700000Y-65600107D01*
X144145813Y-67154294D01*
X60315000Y-67154294D01*
X60315000Y-64800000D01*
X60313818Y-64794164D01*
X60310459Y-64789248D01*
X60305452Y-64786026D01*
X60300000Y-64785000D01*
X57015000Y-64785000D01*
X57015000Y-64051376D01*
X141635412Y-64051376D01*
X141733808Y-64546046D01*
X142045706Y-65054187D01*
X143599893Y-63500000D01*
X142045706Y-61945813D01*
X141733808Y-62453954D01*
X141635412Y-64051376D01*
X57015000Y-64051376D01*
X57015000Y-63800000D01*
X57013818Y-63794164D01*
X57010459Y-63789248D01*
X57005452Y-63786026D01*
X57000000Y-63785000D01*
X56988000Y-63785000D01*
X56988000Y-63330750D01*
X56857250Y-63200000D01*
X55195000Y-63200000D01*
X55195000Y-63785000D01*
X52655000Y-63785000D01*
X52655000Y-63200000D01*
X50992750Y-63200000D01*
X50862000Y-63330750D01*
X50862000Y-63785000D01*
X50315000Y-63785000D01*
X50315000Y-61220969D01*
X50862000Y-61220969D01*
X50862000Y-61819250D01*
X50992750Y-61950000D01*
X52655000Y-61950000D01*
X52655000Y-60932750D01*
X55195000Y-60932750D01*
X55195000Y-61950000D01*
X56857250Y-61950000D01*
X56988000Y-61819250D01*
X56988000Y-61220969D01*
X56908378Y-61028744D01*
X56761256Y-60881622D01*
X56569031Y-60802000D01*
X55325750Y-60802000D01*
X55195000Y-60932750D01*
X52655000Y-60932750D01*
X52524250Y-60802000D01*
X51280969Y-60802000D01*
X51088744Y-60881622D01*
X50941622Y-61028744D01*
X50862000Y-61220969D01*
X50315000Y-61220969D01*
X50315000Y-55774478D01*
X51993289Y-55774478D01*
X52355259Y-56014036D01*
X53557759Y-56031338D01*
X53644741Y-56014036D01*
X54006711Y-55774478D01*
X53000000Y-54767767D01*
X51993289Y-55774478D01*
X50315000Y-55774478D01*
X50315000Y-54210750D01*
X58287000Y-54210750D01*
X58287000Y-55454031D01*
X58366622Y-55646256D01*
X58513744Y-55793378D01*
X58705969Y-55873000D01*
X59304250Y-55873000D01*
X59435000Y-55742250D01*
X59435000Y-54080000D01*
X58417750Y-54080000D01*
X58287000Y-54210750D01*
X50315000Y-54210750D01*
X50315000Y-53917233D01*
X51232233Y-53000000D01*
X54767767Y-53000000D01*
X55774478Y-54006711D01*
X56014036Y-53644741D01*
X56031338Y-52442241D01*
X56014036Y-52355259D01*
X55774478Y-51993289D01*
X54767767Y-53000000D01*
X51232233Y-53000000D01*
X50315000Y-52082767D01*
X50315000Y-50715000D01*
X51400000Y-50715000D01*
X51405836Y-50713818D01*
X51410752Y-50710459D01*
X51413974Y-50705452D01*
X51414994Y-50699586D01*
X51413652Y-50693785D01*
X51410158Y-50688963D01*
X51406092Y-50686293D01*
X50571543Y-50315382D01*
X52091261Y-50323494D01*
X53000000Y-51232233D01*
X53899088Y-50333145D01*
X58287000Y-50356568D01*
X58287000Y-51409250D01*
X58417750Y-51540000D01*
X59435000Y-51540000D01*
X59435000Y-51305000D01*
X60685000Y-51305000D01*
X60685000Y-51540000D01*
X61310000Y-51540000D01*
X61310000Y-54080000D01*
X60685000Y-54080000D01*
X60685000Y-55742250D01*
X60815750Y-55873000D01*
X61414031Y-55873000D01*
X61575000Y-55806325D01*
X61575000Y-56980000D01*
X61576182Y-56985836D01*
X61579541Y-56990752D01*
X61584548Y-56993974D01*
X61590066Y-56995000D01*
X66150066Y-56975000D01*
X66155896Y-56973792D01*
X66160798Y-56970412D01*
X66163998Y-56965391D01*
X66165000Y-56960000D01*
X66165000Y-55891233D01*
X73439428Y-55891233D01*
X73645365Y-56097322D01*
X74448725Y-56145440D01*
X74690635Y-56097322D01*
X74896572Y-55891233D01*
X74168000Y-55162660D01*
X73439428Y-55891233D01*
X66165000Y-55891233D01*
X66165000Y-55856030D01*
X66205969Y-55873000D01*
X66804250Y-55873000D01*
X66935000Y-55742250D01*
X66935000Y-54080000D01*
X68185000Y-54080000D01*
X68185000Y-55742250D01*
X68315750Y-55873000D01*
X68914031Y-55873000D01*
X69106256Y-55793378D01*
X69253378Y-55646256D01*
X69333000Y-55454031D01*
X69333000Y-54382725D01*
X72124560Y-54382725D01*
X72172678Y-54624635D01*
X72378767Y-54830572D01*
X73107340Y-54102000D01*
X75228660Y-54102000D01*
X75957233Y-54830572D01*
X76163322Y-54624635D01*
X76211440Y-53821275D01*
X76163322Y-53579365D01*
X75957233Y-53373428D01*
X75228660Y-54102000D01*
X73107340Y-54102000D01*
X72378767Y-53373428D01*
X72172678Y-53579365D01*
X72124560Y-54382725D01*
X69333000Y-54382725D01*
X69333000Y-54210750D01*
X69202250Y-54080000D01*
X68185000Y-54080000D01*
X66935000Y-54080000D01*
X66310000Y-54080000D01*
X66310000Y-52312767D01*
X73439428Y-52312767D01*
X74168000Y-53041340D01*
X74607339Y-52602000D01*
X77528788Y-52602000D01*
X77528788Y-55602000D01*
X77543780Y-55681674D01*
X77590867Y-55754850D01*
X77662714Y-55803941D01*
X77748000Y-55821212D01*
X80748000Y-55821212D01*
X80827674Y-55806220D01*
X80900850Y-55759133D01*
X80949941Y-55687286D01*
X80967212Y-55602000D01*
X80967212Y-54441638D01*
X83628703Y-54441638D01*
X83889246Y-55072200D01*
X84371262Y-55555059D01*
X85001369Y-55816702D01*
X85683638Y-55817297D01*
X86314200Y-55556754D01*
X86797059Y-55074738D01*
X86835255Y-54982750D01*
X88401000Y-54982750D01*
X88401000Y-55706031D01*
X88480622Y-55898256D01*
X88627744Y-56045378D01*
X88819969Y-56125000D01*
X89543250Y-56125000D01*
X89674000Y-55994250D01*
X89674000Y-54852000D01*
X91174000Y-54852000D01*
X91174000Y-55994250D01*
X91304750Y-56125000D01*
X92028031Y-56125000D01*
X92220256Y-56045378D01*
X92367378Y-55898256D01*
X92447000Y-55706031D01*
X92447000Y-54982750D01*
X92316250Y-54852000D01*
X91174000Y-54852000D01*
X89674000Y-54852000D01*
X88531750Y-54852000D01*
X88401000Y-54982750D01*
X86835255Y-54982750D01*
X87058702Y-54444631D01*
X87058886Y-54232750D01*
X95061000Y-54232750D01*
X95061000Y-55476031D01*
X95140622Y-55668256D01*
X95287744Y-55815378D01*
X95479969Y-55895000D01*
X96078250Y-55895000D01*
X96209000Y-55764250D01*
X96209000Y-54102000D01*
X95191750Y-54102000D01*
X95061000Y-54232750D01*
X87058886Y-54232750D01*
X87059297Y-53762362D01*
X86798754Y-53131800D01*
X86316738Y-52648941D01*
X85953157Y-52497969D01*
X88401000Y-52497969D01*
X88401000Y-53221250D01*
X88531750Y-53352000D01*
X89674000Y-53352000D01*
X89674000Y-52209750D01*
X91174000Y-52209750D01*
X91174000Y-53352000D01*
X92316250Y-53352000D01*
X92447000Y-53221250D01*
X92447000Y-52497969D01*
X92367378Y-52305744D01*
X92220256Y-52158622D01*
X92028031Y-52079000D01*
X91304750Y-52079000D01*
X91174000Y-52209750D01*
X89674000Y-52209750D01*
X89543250Y-52079000D01*
X88819969Y-52079000D01*
X88627744Y-52158622D01*
X88480622Y-52305744D01*
X88401000Y-52497969D01*
X85953157Y-52497969D01*
X85686631Y-52387298D01*
X85004362Y-52386703D01*
X84373800Y-52647246D01*
X83890941Y-53129262D01*
X83629298Y-53759369D01*
X83628703Y-54441638D01*
X80967212Y-54441638D01*
X80967212Y-52602000D01*
X80952220Y-52522326D01*
X80905133Y-52449150D01*
X80833286Y-52400059D01*
X80748000Y-52382788D01*
X77748000Y-52382788D01*
X77668326Y-52397780D01*
X77595150Y-52444867D01*
X77546059Y-52516714D01*
X77528788Y-52602000D01*
X74607339Y-52602000D01*
X74896572Y-52312767D01*
X74690635Y-52106678D01*
X73887275Y-52058560D01*
X73645365Y-52106678D01*
X73439428Y-52312767D01*
X66310000Y-52312767D01*
X66310000Y-51540000D01*
X66935000Y-51540000D01*
X66935000Y-51305000D01*
X68185000Y-51305000D01*
X68185000Y-51540000D01*
X69202250Y-51540000D01*
X69333000Y-51409250D01*
X69333000Y-50370967D01*
X95061000Y-50338365D01*
X95061000Y-51431250D01*
X95191750Y-51562000D01*
X96209000Y-51562000D01*
X96209000Y-51327000D01*
X97459000Y-51327000D01*
X97459000Y-51562000D01*
X98084000Y-51562000D01*
X98084000Y-54102000D01*
X97459000Y-54102000D01*
X97459000Y-55764250D01*
X97589750Y-55895000D01*
X98188031Y-55895000D01*
X98283000Y-55855663D01*
X98283000Y-56642000D01*
X98284182Y-56647836D01*
X98287541Y-56652752D01*
X98292548Y-56655974D01*
X98298000Y-56657000D01*
X103124000Y-56657000D01*
X103129836Y-56655818D01*
X103134752Y-56652459D01*
X103137974Y-56647452D01*
X103139000Y-56642000D01*
X103139000Y-55895000D01*
X103578250Y-55895000D01*
X103709000Y-55764250D01*
X103709000Y-54102000D01*
X104959000Y-54102000D01*
X104959000Y-55764250D01*
X105089750Y-55895000D01*
X105688031Y-55895000D01*
X105880256Y-55815378D01*
X106027378Y-55668256D01*
X106107000Y-55476031D01*
X106107000Y-54970750D01*
X110297000Y-54970750D01*
X110297000Y-56214031D01*
X110376622Y-56406256D01*
X110523744Y-56553378D01*
X110715969Y-56633000D01*
X111314250Y-56633000D01*
X111445000Y-56502250D01*
X111445000Y-54840000D01*
X110427750Y-54840000D01*
X110297000Y-54970750D01*
X106107000Y-54970750D01*
X106107000Y-54232750D01*
X105976250Y-54102000D01*
X104959000Y-54102000D01*
X103709000Y-54102000D01*
X103139000Y-54102000D01*
X103139000Y-51562000D01*
X103709000Y-51562000D01*
X103709000Y-51327000D01*
X104959000Y-51327000D01*
X104959000Y-51562000D01*
X105976250Y-51562000D01*
X106107000Y-51431250D01*
X106107000Y-50925969D01*
X110297000Y-50925969D01*
X110297000Y-52169250D01*
X110427750Y-52300000D01*
X111445000Y-52300000D01*
X111445000Y-50637750D01*
X111314250Y-50507000D01*
X110715969Y-50507000D01*
X110523744Y-50586622D01*
X110376622Y-50733744D01*
X110297000Y-50925969D01*
X106107000Y-50925969D01*
X106107000Y-50324368D01*
X113485000Y-50315019D01*
X113485000Y-50532254D01*
X113424031Y-50507000D01*
X112825750Y-50507000D01*
X112695000Y-50637750D01*
X112695000Y-52300000D01*
X113320000Y-52300000D01*
X113320000Y-54840000D01*
X112695000Y-54840000D01*
X112695000Y-56502250D01*
X112825750Y-56633000D01*
X113424031Y-56633000D01*
X113485000Y-56607746D01*
X113485000Y-63600000D01*
X113486182Y-63605836D01*
X113489541Y-63610752D01*
X113494548Y-63613974D01*
X113500000Y-63615000D01*
X136200000Y-63615000D01*
X136205836Y-63613818D01*
X136210752Y-63610459D01*
X136213974Y-63605452D01*
X136215000Y-63600000D01*
X136215000Y-59845706D01*
X144145813Y-59845706D01*
X145700000Y-61399893D01*
X147254187Y-59845706D01*
X146746046Y-59533808D01*
X145148624Y-59435412D01*
X144653954Y-59533808D01*
X144145813Y-59845706D01*
X136215000Y-59845706D01*
X136215000Y-59600000D01*
X136213818Y-59594164D01*
X136210459Y-59589248D01*
X136205452Y-59586026D01*
X136200000Y-59585000D01*
X136115000Y-59585000D01*
X136115000Y-56833000D01*
X136704250Y-56833000D01*
X136835000Y-56702250D01*
X136835000Y-55040000D01*
X138085000Y-55040000D01*
X138085000Y-56702250D01*
X138215750Y-56833000D01*
X138814031Y-56833000D01*
X139006256Y-56753378D01*
X139153378Y-56606256D01*
X139233000Y-56414031D01*
X139233000Y-55170750D01*
X139102250Y-55040000D01*
X138085000Y-55040000D01*
X136835000Y-55040000D01*
X136210000Y-55040000D01*
X136210000Y-53557759D01*
X143968662Y-53557759D01*
X143985964Y-53644741D01*
X144225522Y-54006711D01*
X145232233Y-53000000D01*
X144225522Y-51993289D01*
X143985964Y-52355259D01*
X143968662Y-53557759D01*
X136210000Y-53557759D01*
X136210000Y-52500000D01*
X136835000Y-52500000D01*
X136835000Y-50837750D01*
X138085000Y-50837750D01*
X138085000Y-52500000D01*
X139102250Y-52500000D01*
X139233000Y-52369250D01*
X139233000Y-51125969D01*
X139153378Y-50933744D01*
X139006256Y-50786622D01*
X138814031Y-50707000D01*
X138215750Y-50707000D01*
X138085000Y-50837750D01*
X136835000Y-50837750D01*
X136704250Y-50707000D01*
X136115000Y-50707000D01*
X136115000Y-50315000D01*
X146082767Y-50315000D01*
X147000000Y-51232233D01*
X147000000Y-51232233D01*
G37*
X147000000Y-51232233D02*
X147180313Y-51051921D01*
X148948080Y-52819688D01*
X148767767Y-53000000D01*
X148948080Y-53180313D01*
X147180313Y-54948080D01*
X147000000Y-54767767D01*
X145993289Y-55774478D01*
X146355259Y-56014036D01*
X147557759Y-56031338D01*
X147644741Y-56014036D01*
X147806723Y-55906833D01*
X148129199Y-56229309D01*
X149085000Y-55273508D01*
X149085000Y-62215107D01*
X147800107Y-63500000D01*
X149085000Y-64784893D01*
X149085000Y-80385000D01*
X115300000Y-80385000D01*
X115294164Y-80386182D01*
X115289248Y-80389541D01*
X115286026Y-80394548D01*
X115285000Y-80400000D01*
X115285000Y-106985000D01*
X115210831Y-106985000D01*
X115220211Y-106731738D01*
X115184460Y-106552006D01*
X114964595Y-106282943D01*
X114262538Y-106985000D01*
X111289462Y-106985000D01*
X110587405Y-106282943D01*
X110367540Y-106552006D01*
X110351503Y-106985000D01*
X108860831Y-106985000D01*
X108870211Y-106731738D01*
X108834460Y-106552006D01*
X108614595Y-106282943D01*
X107912538Y-106985000D01*
X106200000Y-106985000D01*
X106194164Y-106986182D01*
X106189248Y-106989541D01*
X106186026Y-106994548D01*
X106185000Y-107000000D01*
X106185000Y-108712538D01*
X105584443Y-109313095D01*
X105853506Y-109532960D01*
X106185000Y-109545238D01*
X106185000Y-111035910D01*
X106033238Y-111030289D01*
X105853506Y-111066040D01*
X105584443Y-111285905D01*
X106185000Y-111886462D01*
X106185000Y-113800000D01*
X106186182Y-113805836D01*
X106189541Y-113810752D01*
X106194548Y-113813974D01*
X106200000Y-113815000D01*
X108113538Y-113815000D01*
X108614595Y-114316057D01*
X108834460Y-114046994D01*
X108843053Y-113815000D01*
X110333725Y-113815000D01*
X110331789Y-113867262D01*
X110367540Y-114046994D01*
X110587405Y-114316057D01*
X111088462Y-113815000D01*
X114463538Y-113815000D01*
X114964595Y-114316057D01*
X115184460Y-114046994D01*
X115193053Y-113815000D01*
X119185000Y-113815000D01*
X119185000Y-114900000D01*
X119186182Y-114905836D01*
X119189541Y-114910752D01*
X119194548Y-114913974D01*
X119200000Y-114915000D01*
X143495000Y-114915000D01*
X143495000Y-116353002D01*
X143549250Y-116353002D01*
X143574622Y-116414256D01*
X143721744Y-116561378D01*
X143913969Y-116641000D01*
X145157250Y-116641000D01*
X145288000Y-116510250D01*
X145288000Y-115493000D01*
X145053000Y-115493000D01*
X145053000Y-114915000D01*
X148063000Y-114915000D01*
X148063000Y-115493000D01*
X147828000Y-115493000D01*
X147828000Y-116510250D01*
X147958750Y-116641000D01*
X149202031Y-116641000D01*
X149385000Y-116565212D01*
X149385000Y-120670788D01*
X149202031Y-120595000D01*
X147958750Y-120595000D01*
X147828000Y-120725750D01*
X147828000Y-121743000D01*
X148063000Y-121743000D01*
X148063000Y-122993000D01*
X147828000Y-122993000D01*
X147828000Y-124010250D01*
X147958750Y-124141000D01*
X149202031Y-124141000D01*
X149385000Y-124065212D01*
X149385000Y-130854325D01*
X149319031Y-130827000D01*
X148075750Y-130827000D01*
X147945000Y-130957750D01*
X147945000Y-131975000D01*
X148180000Y-131975000D01*
X148180000Y-133225000D01*
X147945000Y-133225000D01*
X147945000Y-134242250D01*
X148075750Y-134373000D01*
X149319031Y-134373000D01*
X149385000Y-134345675D01*
X149385000Y-138354325D01*
X149319031Y-138327000D01*
X148075750Y-138327000D01*
X147945000Y-138457750D01*
X147945000Y-139475000D01*
X148180000Y-139475000D01*
X148180000Y-140725000D01*
X147945000Y-140725000D01*
X147945000Y-141742250D01*
X148075750Y-141873000D01*
X149319031Y-141873000D01*
X149385000Y-141845675D01*
X149385000Y-146382767D01*
X148767767Y-147000000D01*
X149385000Y-147617233D01*
X149385000Y-149485000D01*
X147717233Y-149485000D01*
X147000000Y-148767767D01*
X146282767Y-149485000D01*
X141385002Y-149485000D01*
X141385002Y-149433750D01*
X141446256Y-149408378D01*
X141593378Y-149261256D01*
X141673000Y-149069031D01*
X141673000Y-147825750D01*
X141542250Y-147695000D01*
X140525000Y-147695000D01*
X140525000Y-147930000D01*
X139275000Y-147930000D01*
X139275000Y-147695000D01*
X138257750Y-147695000D01*
X138127000Y-147825750D01*
X138127000Y-149069031D01*
X138206622Y-149261256D01*
X138353744Y-149408378D01*
X138414998Y-149433750D01*
X138414998Y-149485000D01*
X133885002Y-149485000D01*
X133885002Y-149433750D01*
X133946256Y-149408378D01*
X134093378Y-149261256D01*
X134173000Y-149069031D01*
X134173000Y-147825750D01*
X134042250Y-147695000D01*
X133025000Y-147695000D01*
X133025000Y-147930000D01*
X131775000Y-147930000D01*
X131775000Y-147695000D01*
X130757750Y-147695000D01*
X130627000Y-147825750D01*
X130627000Y-149069031D01*
X130706622Y-149261256D01*
X130853744Y-149408378D01*
X130914998Y-149433750D01*
X130914998Y-149485000D01*
X124260002Y-149485000D01*
X124260002Y-149433750D01*
X124321256Y-149408378D01*
X124468378Y-149261256D01*
X124548000Y-149069031D01*
X124548000Y-147825750D01*
X124417250Y-147695000D01*
X123400000Y-147695000D01*
X123400000Y-147930000D01*
X122150000Y-147930000D01*
X122150000Y-147695000D01*
X121525000Y-147695000D01*
X121525000Y-147557759D01*
X143968662Y-147557759D01*
X143985964Y-147644741D01*
X144225522Y-148006711D01*
X145232233Y-147000000D01*
X144225522Y-145993289D01*
X143985964Y-146355259D01*
X143968662Y-147557759D01*
X121525000Y-147557759D01*
X121525000Y-145155000D01*
X122150000Y-145155000D01*
X122150000Y-143492750D01*
X123400000Y-143492750D01*
X123400000Y-145155000D01*
X124417250Y-145155000D01*
X124548000Y-145024250D01*
X124548000Y-143780969D01*
X130627000Y-143780969D01*
X130627000Y-145024250D01*
X130757750Y-145155000D01*
X131775000Y-145155000D01*
X131775000Y-143492750D01*
X133025000Y-143492750D01*
X133025000Y-145155000D01*
X134042250Y-145155000D01*
X134173000Y-145024250D01*
X134173000Y-143780969D01*
X138127000Y-143780969D01*
X138127000Y-145024250D01*
X138257750Y-145155000D01*
X139275000Y-145155000D01*
X139275000Y-143492750D01*
X140525000Y-143492750D01*
X140525000Y-145155000D01*
X141542250Y-145155000D01*
X141673000Y-145024250D01*
X141673000Y-144225522D01*
X145993289Y-144225522D01*
X147000000Y-145232233D01*
X148006711Y-144225522D01*
X147644741Y-143985964D01*
X146442241Y-143968662D01*
X146355259Y-143985964D01*
X145993289Y-144225522D01*
X141673000Y-144225522D01*
X141673000Y-143780969D01*
X141593378Y-143588744D01*
X141446256Y-143441622D01*
X141254031Y-143362000D01*
X140655750Y-143362000D01*
X140525000Y-143492750D01*
X139275000Y-143492750D01*
X139144250Y-143362000D01*
X138545969Y-143362000D01*
X138353744Y-143441622D01*
X138206622Y-143588744D01*
X138127000Y-143780969D01*
X134173000Y-143780969D01*
X134093378Y-143588744D01*
X133946256Y-143441622D01*
X133754031Y-143362000D01*
X133155750Y-143362000D01*
X133025000Y-143492750D01*
X131775000Y-143492750D01*
X131644250Y-143362000D01*
X131045969Y-143362000D01*
X130853744Y-143441622D01*
X130706622Y-143588744D01*
X130627000Y-143780969D01*
X124548000Y-143780969D01*
X124468378Y-143588744D01*
X124321256Y-143441622D01*
X124129031Y-143362000D01*
X123530750Y-143362000D01*
X123400000Y-143492750D01*
X122150000Y-143492750D01*
X122019250Y-143362000D01*
X121515000Y-143362000D01*
X121515000Y-141700000D01*
X121513818Y-141694164D01*
X121510459Y-141689248D01*
X121505452Y-141686026D01*
X121500000Y-141685000D01*
X116700000Y-141685000D01*
X116694164Y-141686182D01*
X116689248Y-141689541D01*
X116686026Y-141694548D01*
X116685006Y-141700414D01*
X116686348Y-141706215D01*
X116689393Y-141710607D01*
X116763786Y-141785000D01*
X116700000Y-141785000D01*
X116694164Y-141786182D01*
X116689248Y-141789541D01*
X116686026Y-141794548D01*
X116685000Y-141800000D01*
X116685000Y-143385183D01*
X116629031Y-143362000D01*
X116030750Y-143362000D01*
X115900000Y-143492750D01*
X115900000Y-145155000D01*
X116525000Y-145155000D01*
X116525000Y-147695000D01*
X115900000Y-147695000D01*
X115900000Y-147930000D01*
X114650000Y-147930000D01*
X114650000Y-147695000D01*
X113632750Y-147695000D01*
X113502000Y-147825750D01*
X113502000Y-149069031D01*
X113581622Y-149261256D01*
X113728744Y-149408378D01*
X113789998Y-149433750D01*
X113789998Y-149485000D01*
X106010320Y-149485000D01*
X106048000Y-149394031D01*
X106048000Y-148150750D01*
X105917250Y-148020000D01*
X104900000Y-148020000D01*
X104900000Y-148255000D01*
X103650000Y-148255000D01*
X103650000Y-148020000D01*
X102632750Y-148020000D01*
X102502000Y-148150750D01*
X102502000Y-149394031D01*
X102539680Y-149485000D01*
X98510320Y-149485000D01*
X98548000Y-149394031D01*
X98548000Y-148150750D01*
X98417250Y-148020000D01*
X97400000Y-148020000D01*
X97400000Y-148255000D01*
X96150000Y-148255000D01*
X96150000Y-148020000D01*
X95132750Y-148020000D01*
X95002000Y-148150750D01*
X95002000Y-149394031D01*
X95039680Y-149485000D01*
X87154254Y-149485000D01*
X87223000Y-149319031D01*
X87223000Y-148075750D01*
X87092250Y-147945000D01*
X86075000Y-147945000D01*
X86075000Y-148180000D01*
X84825000Y-148180000D01*
X84825000Y-147945000D01*
X84200000Y-147945000D01*
X84200000Y-145405000D01*
X84825000Y-145405000D01*
X84825000Y-143742750D01*
X86075000Y-143742750D01*
X86075000Y-145405000D01*
X87092250Y-145405000D01*
X87223000Y-145274250D01*
X87223000Y-144105969D01*
X95002000Y-144105969D01*
X95002000Y-145349250D01*
X95132750Y-145480000D01*
X96150000Y-145480000D01*
X96150000Y-143817750D01*
X97400000Y-143817750D01*
X97400000Y-145480000D01*
X98417250Y-145480000D01*
X98548000Y-145349250D01*
X98548000Y-144105969D01*
X102502000Y-144105969D01*
X102502000Y-145349250D01*
X102632750Y-145480000D01*
X103650000Y-145480000D01*
X103650000Y-143817750D01*
X104900000Y-143817750D01*
X104900000Y-145480000D01*
X105917250Y-145480000D01*
X106048000Y-145349250D01*
X106048000Y-144105969D01*
X105968378Y-143913744D01*
X105835603Y-143780969D01*
X113502000Y-143780969D01*
X113502000Y-145024250D01*
X113632750Y-145155000D01*
X114650000Y-145155000D01*
X114650000Y-143492750D01*
X114519250Y-143362000D01*
X113920969Y-143362000D01*
X113728744Y-143441622D01*
X113581622Y-143588744D01*
X113502000Y-143780969D01*
X105835603Y-143780969D01*
X105821256Y-143766622D01*
X105629031Y-143687000D01*
X105030750Y-143687000D01*
X104900000Y-143817750D01*
X103650000Y-143817750D01*
X103519250Y-143687000D01*
X102920969Y-143687000D01*
X102728744Y-143766622D01*
X102581622Y-143913744D01*
X102502000Y-144105969D01*
X98548000Y-144105969D01*
X98468378Y-143913744D01*
X98321256Y-143766622D01*
X98129031Y-143687000D01*
X97530750Y-143687000D01*
X97400000Y-143817750D01*
X96150000Y-143817750D01*
X96019250Y-143687000D01*
X95420969Y-143687000D01*
X95228744Y-143766622D01*
X95081622Y-143913744D01*
X95002000Y-144105969D01*
X87223000Y-144105969D01*
X87223000Y-144030969D01*
X87143378Y-143838744D01*
X86996256Y-143691622D01*
X86804031Y-143612000D01*
X86205750Y-143612000D01*
X86075000Y-143742750D01*
X84825000Y-143742750D01*
X84694250Y-143612000D01*
X84095969Y-143612000D01*
X84015000Y-143645538D01*
X84015000Y-140855750D01*
X143612000Y-140855750D01*
X143612000Y-141454031D01*
X143691622Y-141646256D01*
X143838744Y-141793378D01*
X144030969Y-141873000D01*
X145274250Y-141873000D01*
X145405000Y-141742250D01*
X145405000Y-140725000D01*
X143742750Y-140725000D01*
X143612000Y-140855750D01*
X84015000Y-140855750D01*
X84015000Y-139900000D01*
X84013818Y-139894164D01*
X84010459Y-139889248D01*
X84005452Y-139886026D01*
X84000000Y-139885000D01*
X79100000Y-139885000D01*
X79094164Y-139886182D01*
X79089248Y-139889541D01*
X79086026Y-139894548D01*
X79085006Y-139900414D01*
X79086584Y-139906708D01*
X79285000Y-140303540D01*
X79285000Y-143500000D01*
X79286182Y-143505836D01*
X79289541Y-143510752D01*
X79294548Y-143513974D01*
X79300414Y-143514994D01*
X79306708Y-143513416D01*
X79485000Y-143424270D01*
X79485000Y-143686960D01*
X79304031Y-143612000D01*
X78705750Y-143612000D01*
X78575000Y-143742750D01*
X78575000Y-145405000D01*
X79200000Y-145405000D01*
X79200000Y-147945000D01*
X78575000Y-147945000D01*
X78575000Y-148180000D01*
X77325000Y-148180000D01*
X77325000Y-147945000D01*
X76307750Y-147945000D01*
X76177000Y-148075750D01*
X76177000Y-149319031D01*
X76245746Y-149485000D01*
X53717233Y-149485000D01*
X53000000Y-148767767D01*
X52282767Y-149485000D01*
X50315000Y-149485000D01*
X50315000Y-147917233D01*
X51232233Y-147000000D01*
X54767767Y-147000000D01*
X55774478Y-148006711D01*
X56014036Y-147644741D01*
X56014628Y-147603595D01*
X62531443Y-147603595D01*
X62800506Y-147823460D01*
X63765762Y-147859211D01*
X63945494Y-147823460D01*
X64214557Y-147603595D01*
X68881443Y-147603595D01*
X69150506Y-147823460D01*
X70115762Y-147859211D01*
X70295494Y-147823460D01*
X70564557Y-147603595D01*
X69723000Y-146762038D01*
X68881443Y-147603595D01*
X64214557Y-147603595D01*
X63373000Y-146762038D01*
X62531443Y-147603595D01*
X56014628Y-147603595D01*
X56031338Y-146442241D01*
X56014036Y-146355259D01*
X55774478Y-145993289D01*
X54767767Y-147000000D01*
X51232233Y-147000000D01*
X50315000Y-146082767D01*
X50315000Y-145807762D01*
X60928789Y-145807762D01*
X60964540Y-145987494D01*
X61184405Y-146256557D01*
X62025962Y-145415000D01*
X64720038Y-145415000D01*
X65561595Y-146256557D01*
X65781460Y-145987494D01*
X65788116Y-145807762D01*
X67278789Y-145807762D01*
X67314540Y-145987494D01*
X67534405Y-146256557D01*
X68375962Y-145415000D01*
X71070038Y-145415000D01*
X71911595Y-146256557D01*
X72131460Y-145987494D01*
X72167211Y-145022238D01*
X72131460Y-144842506D01*
X71911595Y-144573443D01*
X71070038Y-145415000D01*
X68375962Y-145415000D01*
X67534405Y-144573443D01*
X67314540Y-144842506D01*
X67278789Y-145807762D01*
X65788116Y-145807762D01*
X65817211Y-145022238D01*
X65781460Y-144842506D01*
X65561595Y-144573443D01*
X64720038Y-145415000D01*
X62025962Y-145415000D01*
X61184405Y-144573443D01*
X60964540Y-144842506D01*
X60928789Y-145807762D01*
X50315000Y-145807762D01*
X50315000Y-144225522D01*
X51993289Y-144225522D01*
X53000000Y-145232233D01*
X54006711Y-144225522D01*
X53644741Y-143985964D01*
X52442241Y-143968662D01*
X52355259Y-143985964D01*
X51993289Y-144225522D01*
X50315000Y-144225522D01*
X50315000Y-139300000D01*
X57585000Y-139300000D01*
X57585000Y-144200000D01*
X57586182Y-144205836D01*
X57589541Y-144210752D01*
X57594548Y-144213974D01*
X57600000Y-144215000D01*
X61200000Y-144215000D01*
X61205836Y-144213818D01*
X61210752Y-144210459D01*
X61213974Y-144205452D01*
X61215000Y-144200000D01*
X61215000Y-143615000D01*
X62920038Y-143615000D01*
X63373000Y-144067962D01*
X63825962Y-143615000D01*
X65104531Y-143615000D01*
X65417582Y-143928598D01*
X66149829Y-144232653D01*
X66942693Y-144233345D01*
X67675469Y-143930568D01*
X68236598Y-143370418D01*
X68296397Y-143226405D01*
X68881443Y-143226405D01*
X69723000Y-144067962D01*
X69759993Y-144030969D01*
X76177000Y-144030969D01*
X76177000Y-145274250D01*
X76307750Y-145405000D01*
X77325000Y-145405000D01*
X77325000Y-143742750D01*
X77194250Y-143612000D01*
X76595969Y-143612000D01*
X76403744Y-143691622D01*
X76256622Y-143838744D01*
X76177000Y-144030969D01*
X69759993Y-144030969D01*
X70564557Y-143226405D01*
X70295494Y-143006540D01*
X69330238Y-142970789D01*
X69150506Y-143006540D01*
X68881443Y-143226405D01*
X68296397Y-143226405D01*
X68540653Y-142638171D01*
X68541345Y-141845307D01*
X68296855Y-141253595D01*
X68881443Y-141253595D01*
X69150506Y-141473460D01*
X70115762Y-141509211D01*
X70295494Y-141473460D01*
X70564557Y-141253595D01*
X69723000Y-140412038D01*
X68881443Y-141253595D01*
X68296855Y-141253595D01*
X68238568Y-141112531D01*
X67678418Y-140551402D01*
X66946171Y-140247347D01*
X66153307Y-140246655D01*
X65420531Y-140549432D01*
X65284726Y-140685000D01*
X65253564Y-140685000D01*
X66173337Y-139765227D01*
X65865872Y-139457762D01*
X67278789Y-139457762D01*
X67314540Y-139637494D01*
X67534405Y-139906557D01*
X68375962Y-139065000D01*
X71070038Y-139065000D01*
X71911595Y-139906557D01*
X72131460Y-139637494D01*
X72164480Y-138745969D01*
X143612000Y-138745969D01*
X143612000Y-139344250D01*
X143742750Y-139475000D01*
X145405000Y-139475000D01*
X145405000Y-138457750D01*
X145274250Y-138327000D01*
X144030969Y-138327000D01*
X143838744Y-138406622D01*
X143691622Y-138553744D01*
X143612000Y-138745969D01*
X72164480Y-138745969D01*
X72167211Y-138672238D01*
X72131460Y-138492506D01*
X71911595Y-138223443D01*
X71070038Y-139065000D01*
X68375962Y-139065000D01*
X67534405Y-138223443D01*
X67314540Y-138492506D01*
X67278789Y-139457762D01*
X65865872Y-139457762D01*
X65790894Y-139382784D01*
X65817211Y-138672238D01*
X65781460Y-138492506D01*
X65561595Y-138223443D01*
X64720038Y-139065000D01*
X65110715Y-139455677D01*
X63881392Y-140685000D01*
X63645962Y-140685000D01*
X63373000Y-140412038D01*
X63100038Y-140685000D01*
X62864608Y-140685000D01*
X61635285Y-139455677D01*
X62025962Y-139065000D01*
X61184405Y-138223443D01*
X60964540Y-138492506D01*
X60935188Y-139285000D01*
X57600000Y-139285000D01*
X57594164Y-139286182D01*
X57589248Y-139289541D01*
X57586026Y-139294548D01*
X57585000Y-139300000D01*
X50315000Y-139300000D01*
X50315000Y-136876405D01*
X62531443Y-136876405D01*
X63373000Y-137717962D01*
X64214557Y-136876405D01*
X68881443Y-136876405D01*
X69723000Y-137717962D01*
X70564557Y-136876405D01*
X70295494Y-136656540D01*
X69330238Y-136620789D01*
X69150506Y-136656540D01*
X68881443Y-136876405D01*
X64214557Y-136876405D01*
X63945494Y-136656540D01*
X62980238Y-136620789D01*
X62800506Y-136656540D01*
X62531443Y-136876405D01*
X50315000Y-136876405D01*
X50315000Y-133355750D01*
X143612000Y-133355750D01*
X143612000Y-133954031D01*
X143691622Y-134146256D01*
X143838744Y-134293378D01*
X144030969Y-134373000D01*
X145274250Y-134373000D01*
X145405000Y-134242250D01*
X145405000Y-133225000D01*
X143742750Y-133225000D01*
X143612000Y-133355750D01*
X50315000Y-133355750D01*
X50315000Y-131338595D01*
X88133443Y-131338595D01*
X88402506Y-131558460D01*
X89367762Y-131594211D01*
X89547494Y-131558460D01*
X89816557Y-131338595D01*
X94483443Y-131338595D01*
X94752506Y-131558460D01*
X95717762Y-131594211D01*
X95897494Y-131558460D01*
X96166557Y-131338595D01*
X105508443Y-131338595D01*
X105777506Y-131558460D01*
X106742762Y-131594211D01*
X106922494Y-131558460D01*
X107191557Y-131338595D01*
X111858443Y-131338595D01*
X112127506Y-131558460D01*
X113092762Y-131594211D01*
X113272494Y-131558460D01*
X113541557Y-131338595D01*
X113448931Y-131245969D01*
X143612000Y-131245969D01*
X143612000Y-131844250D01*
X143742750Y-131975000D01*
X145405000Y-131975000D01*
X145405000Y-130957750D01*
X145274250Y-130827000D01*
X144030969Y-130827000D01*
X143838744Y-130906622D01*
X143691622Y-131053744D01*
X143612000Y-131245969D01*
X113448931Y-131245969D01*
X112788557Y-130585595D01*
X120697443Y-130585595D01*
X120966506Y-130805460D01*
X121931762Y-130841211D01*
X122111494Y-130805460D01*
X122380557Y-130585595D01*
X127047443Y-130585595D01*
X127316506Y-130805460D01*
X128281762Y-130841211D01*
X128461494Y-130805460D01*
X128730557Y-130585595D01*
X127889000Y-129744038D01*
X127047443Y-130585595D01*
X122380557Y-130585595D01*
X121539000Y-129744038D01*
X120697443Y-130585595D01*
X112788557Y-130585595D01*
X112700000Y-130497038D01*
X111858443Y-131338595D01*
X107191557Y-131338595D01*
X106350000Y-130497038D01*
X105508443Y-131338595D01*
X96166557Y-131338595D01*
X95325000Y-130497038D01*
X94483443Y-131338595D01*
X89816557Y-131338595D01*
X88975000Y-130497038D01*
X88133443Y-131338595D01*
X50315000Y-131338595D01*
X50315000Y-129355750D01*
X50662000Y-129355750D01*
X50662000Y-129954031D01*
X50741622Y-130146256D01*
X50888744Y-130293378D01*
X51080969Y-130373000D01*
X52324250Y-130373000D01*
X52455000Y-130242250D01*
X52455000Y-129225000D01*
X54995000Y-129225000D01*
X54995000Y-130242250D01*
X55125750Y-130373000D01*
X56369031Y-130373000D01*
X56561256Y-130293378D01*
X56708378Y-130146256D01*
X56788000Y-129954031D01*
X56788000Y-129542762D01*
X86530789Y-129542762D01*
X86566540Y-129722494D01*
X86786405Y-129991557D01*
X87627962Y-129150000D01*
X90322038Y-129150000D01*
X91163595Y-129991557D01*
X91383460Y-129722494D01*
X91390116Y-129542762D01*
X92880789Y-129542762D01*
X92916540Y-129722494D01*
X93136405Y-129991557D01*
X93977962Y-129150000D01*
X96672038Y-129150000D01*
X97513595Y-129991557D01*
X97733460Y-129722494D01*
X97740116Y-129542762D01*
X103905789Y-129542762D01*
X103941540Y-129722494D01*
X104161405Y-129991557D01*
X105002962Y-129150000D01*
X107697038Y-129150000D01*
X108538595Y-129991557D01*
X108758460Y-129722494D01*
X108765116Y-129542762D01*
X110255789Y-129542762D01*
X110291540Y-129722494D01*
X110511405Y-129991557D01*
X111352962Y-129150000D01*
X114047038Y-129150000D01*
X114888595Y-129991557D01*
X115108460Y-129722494D01*
X115143006Y-128789762D01*
X119094789Y-128789762D01*
X119130540Y-128969494D01*
X119350405Y-129238557D01*
X120191962Y-128397000D01*
X122886038Y-128397000D01*
X123727595Y-129238557D01*
X123947460Y-128969494D01*
X123954116Y-128789762D01*
X125444789Y-128789762D01*
X125480540Y-128969494D01*
X125700405Y-129238557D01*
X126541962Y-128397000D01*
X129236038Y-128397000D01*
X130077595Y-129238557D01*
X130297460Y-128969494D01*
X130333211Y-128004238D01*
X130297460Y-127824506D01*
X130077595Y-127555443D01*
X129236038Y-128397000D01*
X126541962Y-128397000D01*
X125700405Y-127555443D01*
X125480540Y-127824506D01*
X125444789Y-128789762D01*
X123954116Y-128789762D01*
X123983211Y-128004238D01*
X123947460Y-127824506D01*
X123727595Y-127555443D01*
X122886038Y-128397000D01*
X120191962Y-128397000D01*
X119350405Y-127555443D01*
X119130540Y-127824506D01*
X119094789Y-128789762D01*
X115143006Y-128789762D01*
X115144211Y-128757238D01*
X115108460Y-128577506D01*
X114888595Y-128308443D01*
X114047038Y-129150000D01*
X111352962Y-129150000D01*
X110511405Y-128308443D01*
X110291540Y-128577506D01*
X110255789Y-129542762D01*
X108765116Y-129542762D01*
X108794211Y-128757238D01*
X108758460Y-128577506D01*
X108538595Y-128308443D01*
X107697038Y-129150000D01*
X105002962Y-129150000D01*
X104161405Y-128308443D01*
X103941540Y-128577506D01*
X103905789Y-129542762D01*
X97740116Y-129542762D01*
X97769211Y-128757238D01*
X97733460Y-128577506D01*
X97513595Y-128308443D01*
X96672038Y-129150000D01*
X93977962Y-129150000D01*
X93136405Y-128308443D01*
X92916540Y-128577506D01*
X92880789Y-129542762D01*
X91390116Y-129542762D01*
X91419211Y-128757238D01*
X91383460Y-128577506D01*
X91163595Y-128308443D01*
X90322038Y-129150000D01*
X87627962Y-129150000D01*
X86786405Y-128308443D01*
X86566540Y-128577506D01*
X86530789Y-129542762D01*
X56788000Y-129542762D01*
X56788000Y-129355750D01*
X56657250Y-129225000D01*
X54995000Y-129225000D01*
X52455000Y-129225000D01*
X50792750Y-129225000D01*
X50662000Y-129355750D01*
X50315000Y-129355750D01*
X50315000Y-127215000D01*
X50674828Y-127215000D01*
X50662000Y-127245969D01*
X50662000Y-127844250D01*
X50792750Y-127975000D01*
X52455000Y-127975000D01*
X52455000Y-127350000D01*
X54995000Y-127350000D01*
X54995000Y-127975000D01*
X56657250Y-127975000D01*
X56788000Y-127844250D01*
X56788000Y-127245969D01*
X56775172Y-127215000D01*
X57000000Y-127215000D01*
X57005836Y-127213818D01*
X57010752Y-127210459D01*
X57013974Y-127205452D01*
X57015000Y-127200000D01*
X57015000Y-126961405D01*
X88133443Y-126961405D01*
X88975000Y-127802962D01*
X89816557Y-126961405D01*
X89547494Y-126741540D01*
X88582238Y-126705789D01*
X88402506Y-126741540D01*
X88133443Y-126961405D01*
X57015000Y-126961405D01*
X57015000Y-126369693D01*
X90156655Y-126369693D01*
X90459432Y-127102469D01*
X91019582Y-127663598D01*
X91751829Y-127967653D01*
X92544693Y-127968345D01*
X93277469Y-127665568D01*
X93838598Y-127105418D01*
X93898397Y-126961405D01*
X94483443Y-126961405D01*
X95325000Y-127802962D01*
X96166557Y-126961405D01*
X105508443Y-126961405D01*
X106350000Y-127802962D01*
X107191557Y-126961405D01*
X106922494Y-126741540D01*
X105957238Y-126705789D01*
X105777506Y-126741540D01*
X105508443Y-126961405D01*
X96166557Y-126961405D01*
X95897494Y-126741540D01*
X94932238Y-126705789D01*
X94752506Y-126741540D01*
X94483443Y-126961405D01*
X93898397Y-126961405D01*
X94142653Y-126373171D01*
X94142656Y-126369693D01*
X107531655Y-126369693D01*
X107834432Y-127102469D01*
X108394582Y-127663598D01*
X109126829Y-127967653D01*
X109919693Y-127968345D01*
X110652469Y-127665568D01*
X111213598Y-127105418D01*
X111273397Y-126961405D01*
X111858443Y-126961405D01*
X112700000Y-127802962D01*
X113541557Y-126961405D01*
X113272494Y-126741540D01*
X112307238Y-126705789D01*
X112127506Y-126741540D01*
X111858443Y-126961405D01*
X111273397Y-126961405D01*
X111517653Y-126373171D01*
X111517796Y-126208405D01*
X120697443Y-126208405D01*
X121539000Y-127049962D01*
X122380557Y-126208405D01*
X122111494Y-125988540D01*
X121146238Y-125952789D01*
X120966506Y-125988540D01*
X120697443Y-126208405D01*
X111517796Y-126208405D01*
X111518313Y-125616693D01*
X122720655Y-125616693D01*
X123023432Y-126349469D01*
X123583582Y-126910598D01*
X124315829Y-127214653D01*
X125108693Y-127215345D01*
X125841469Y-126912568D01*
X126402598Y-126352418D01*
X126462397Y-126208405D01*
X127047443Y-126208405D01*
X127889000Y-127049962D01*
X128730557Y-126208405D01*
X128461494Y-125988540D01*
X127496238Y-125952789D01*
X127316506Y-125988540D01*
X127047443Y-126208405D01*
X126462397Y-126208405D01*
X126706653Y-125620171D01*
X126707345Y-124827307D01*
X126462855Y-124235595D01*
X127047443Y-124235595D01*
X127316506Y-124455460D01*
X128281762Y-124491211D01*
X128461494Y-124455460D01*
X128730557Y-124235595D01*
X127889000Y-123394038D01*
X127047443Y-124235595D01*
X126462855Y-124235595D01*
X126404568Y-124094531D01*
X125844418Y-123533402D01*
X125112171Y-123229347D01*
X124319307Y-123228655D01*
X123586531Y-123531432D01*
X123025402Y-124091582D01*
X122721347Y-124823829D01*
X122720655Y-125616693D01*
X111518313Y-125616693D01*
X111518345Y-125580307D01*
X111273855Y-124988595D01*
X111858443Y-124988595D01*
X112127506Y-125208460D01*
X113092762Y-125244211D01*
X113272494Y-125208460D01*
X113541557Y-124988595D01*
X112788557Y-124235595D01*
X120697443Y-124235595D01*
X120966506Y-124455460D01*
X121931762Y-124491211D01*
X122111494Y-124455460D01*
X122380557Y-124235595D01*
X121539000Y-123394038D01*
X120697443Y-124235595D01*
X112788557Y-124235595D01*
X112700000Y-124147038D01*
X111858443Y-124988595D01*
X111273855Y-124988595D01*
X111215568Y-124847531D01*
X110655418Y-124286402D01*
X109923171Y-123982347D01*
X109130307Y-123981655D01*
X108397531Y-124284432D01*
X107836402Y-124844582D01*
X107532347Y-125576829D01*
X107531655Y-126369693D01*
X94142656Y-126369693D01*
X94143345Y-125580307D01*
X93898855Y-124988595D01*
X94483443Y-124988595D01*
X94752506Y-125208460D01*
X95717762Y-125244211D01*
X95897494Y-125208460D01*
X96166557Y-124988595D01*
X105508443Y-124988595D01*
X105777506Y-125208460D01*
X106742762Y-125244211D01*
X106922494Y-125208460D01*
X107191557Y-124988595D01*
X106350000Y-124147038D01*
X105508443Y-124988595D01*
X96166557Y-124988595D01*
X95325000Y-124147038D01*
X94483443Y-124988595D01*
X93898855Y-124988595D01*
X93840568Y-124847531D01*
X93280418Y-124286402D01*
X92548171Y-123982347D01*
X91755307Y-123981655D01*
X91022531Y-124284432D01*
X90461402Y-124844582D01*
X90157347Y-125576829D01*
X90156655Y-126369693D01*
X57015000Y-126369693D01*
X57015000Y-126315000D01*
X60200000Y-126315000D01*
X60205836Y-126313818D01*
X60210752Y-126310459D01*
X60213974Y-126305452D01*
X60215000Y-126300000D01*
X60215000Y-124988595D01*
X88133443Y-124988595D01*
X88402506Y-125208460D01*
X89367762Y-125244211D01*
X89547494Y-125208460D01*
X89816557Y-124988595D01*
X88975000Y-124147038D01*
X88133443Y-124988595D01*
X60215000Y-124988595D01*
X60215000Y-123500000D01*
X60213818Y-123494164D01*
X60210459Y-123489248D01*
X60205452Y-123486026D01*
X60200000Y-123485000D01*
X56815000Y-123485000D01*
X56815000Y-123192762D01*
X86530789Y-123192762D01*
X86566540Y-123372494D01*
X86786405Y-123641557D01*
X87627962Y-122800000D01*
X90322038Y-122800000D01*
X91163595Y-123641557D01*
X91383460Y-123372494D01*
X91390116Y-123192762D01*
X92880789Y-123192762D01*
X92916540Y-123372494D01*
X93136405Y-123641557D01*
X93977962Y-122800000D01*
X96672038Y-122800000D01*
X97513595Y-123641557D01*
X97733460Y-123372494D01*
X97740116Y-123192762D01*
X103905789Y-123192762D01*
X103941540Y-123372494D01*
X104161405Y-123641557D01*
X105002962Y-122800000D01*
X107697038Y-122800000D01*
X108538595Y-123641557D01*
X108758460Y-123372494D01*
X108765116Y-123192762D01*
X110255789Y-123192762D01*
X110291540Y-123372494D01*
X110511405Y-123641557D01*
X111352962Y-122800000D01*
X114047038Y-122800000D01*
X114888595Y-123641557D01*
X115108460Y-123372494D01*
X115117672Y-123123750D01*
X143495000Y-123123750D01*
X143495000Y-123722031D01*
X143574622Y-123914256D01*
X143721744Y-124061378D01*
X143913969Y-124141000D01*
X145157250Y-124141000D01*
X145288000Y-124010250D01*
X145288000Y-122993000D01*
X143625750Y-122993000D01*
X143495000Y-123123750D01*
X115117672Y-123123750D01*
X115143006Y-122439762D01*
X119094789Y-122439762D01*
X119130540Y-122619494D01*
X119350405Y-122888557D01*
X120191962Y-122047000D01*
X122886038Y-122047000D01*
X123727595Y-122888557D01*
X123947460Y-122619494D01*
X123954116Y-122439762D01*
X125444789Y-122439762D01*
X125480540Y-122619494D01*
X125700405Y-122888557D01*
X126541962Y-122047000D01*
X129236038Y-122047000D01*
X130077595Y-122888557D01*
X130297460Y-122619494D01*
X130333211Y-121654238D01*
X130297460Y-121474506D01*
X130077595Y-121205443D01*
X129236038Y-122047000D01*
X126541962Y-122047000D01*
X125700405Y-121205443D01*
X125480540Y-121474506D01*
X125444789Y-122439762D01*
X123954116Y-122439762D01*
X123983211Y-121654238D01*
X123947460Y-121474506D01*
X123727595Y-121205443D01*
X122886038Y-122047000D01*
X120191962Y-122047000D01*
X119350405Y-121205443D01*
X119130540Y-121474506D01*
X119094789Y-122439762D01*
X115143006Y-122439762D01*
X115144211Y-122407238D01*
X115108460Y-122227506D01*
X114888595Y-121958443D01*
X114047038Y-122800000D01*
X111352962Y-122800000D01*
X110511405Y-121958443D01*
X110291540Y-122227506D01*
X110255789Y-123192762D01*
X108765116Y-123192762D01*
X108794211Y-122407238D01*
X108758460Y-122227506D01*
X108538595Y-121958443D01*
X107697038Y-122800000D01*
X105002962Y-122800000D01*
X104161405Y-121958443D01*
X103941540Y-122227506D01*
X103905789Y-123192762D01*
X97740116Y-123192762D01*
X97769211Y-122407238D01*
X97733460Y-122227506D01*
X97513595Y-121958443D01*
X96672038Y-122800000D01*
X93977962Y-122800000D01*
X93136405Y-121958443D01*
X92916540Y-122227506D01*
X92880789Y-123192762D01*
X91390116Y-123192762D01*
X91419211Y-122407238D01*
X91383460Y-122227506D01*
X91163595Y-121958443D01*
X90322038Y-122800000D01*
X87627962Y-122800000D01*
X86786405Y-121958443D01*
X86566540Y-122227506D01*
X86530789Y-123192762D01*
X56815000Y-123192762D01*
X56815000Y-122500000D01*
X56813818Y-122494164D01*
X56810459Y-122489248D01*
X56805452Y-122486026D01*
X56800000Y-122485000D01*
X56775172Y-122485000D01*
X56788000Y-122454031D01*
X56788000Y-121855750D01*
X56657250Y-121725000D01*
X54995000Y-121725000D01*
X54995000Y-122350000D01*
X52455000Y-122350000D01*
X52455000Y-121725000D01*
X50792750Y-121725000D01*
X50662000Y-121855750D01*
X50662000Y-122454031D01*
X50674828Y-122485000D01*
X50315000Y-122485000D01*
X50315000Y-120611405D01*
X88133443Y-120611405D01*
X88975000Y-121452962D01*
X89816557Y-120611405D01*
X94483443Y-120611405D01*
X95325000Y-121452962D01*
X96166557Y-120611405D01*
X105508443Y-120611405D01*
X106350000Y-121452962D01*
X107191557Y-120611405D01*
X111858443Y-120611405D01*
X112700000Y-121452962D01*
X113138993Y-121013969D01*
X143495000Y-121013969D01*
X143495000Y-121612250D01*
X143625750Y-121743000D01*
X145288000Y-121743000D01*
X145288000Y-120725750D01*
X145157250Y-120595000D01*
X143913969Y-120595000D01*
X143721744Y-120674622D01*
X143574622Y-120821744D01*
X143495000Y-121013969D01*
X113138993Y-121013969D01*
X113541557Y-120611405D01*
X113272494Y-120391540D01*
X112307238Y-120355789D01*
X112127506Y-120391540D01*
X111858443Y-120611405D01*
X107191557Y-120611405D01*
X106922494Y-120391540D01*
X105957238Y-120355789D01*
X105777506Y-120391540D01*
X105508443Y-120611405D01*
X96166557Y-120611405D01*
X95897494Y-120391540D01*
X94932238Y-120355789D01*
X94752506Y-120391540D01*
X94483443Y-120611405D01*
X89816557Y-120611405D01*
X89547494Y-120391540D01*
X88582238Y-120355789D01*
X88402506Y-120391540D01*
X88133443Y-120611405D01*
X50315000Y-120611405D01*
X50315000Y-119745969D01*
X50662000Y-119745969D01*
X50662000Y-120344250D01*
X50792750Y-120475000D01*
X52455000Y-120475000D01*
X52455000Y-119457750D01*
X54995000Y-119457750D01*
X54995000Y-120475000D01*
X56657250Y-120475000D01*
X56788000Y-120344250D01*
X56788000Y-119858405D01*
X120697443Y-119858405D01*
X121539000Y-120699962D01*
X122380557Y-119858405D01*
X127047443Y-119858405D01*
X127889000Y-120699962D01*
X128730557Y-119858405D01*
X128461494Y-119638540D01*
X127496238Y-119602789D01*
X127316506Y-119638540D01*
X127047443Y-119858405D01*
X122380557Y-119858405D01*
X122111494Y-119638540D01*
X121146238Y-119602789D01*
X120966506Y-119638540D01*
X120697443Y-119858405D01*
X56788000Y-119858405D01*
X56788000Y-119745969D01*
X56708378Y-119553744D01*
X56561256Y-119406622D01*
X56369031Y-119327000D01*
X55125750Y-119327000D01*
X54995000Y-119457750D01*
X52455000Y-119457750D01*
X52324250Y-119327000D01*
X51080969Y-119327000D01*
X50888744Y-119406622D01*
X50741622Y-119553744D01*
X50662000Y-119745969D01*
X50315000Y-119745969D01*
X50315000Y-115828195D01*
X89531643Y-115828195D01*
X89800706Y-116048060D01*
X90765962Y-116083811D01*
X90945694Y-116048060D01*
X91214757Y-115828195D01*
X95881643Y-115828195D01*
X96150706Y-116048060D01*
X97115962Y-116083811D01*
X97295694Y-116048060D01*
X97564757Y-115828195D01*
X97399657Y-115663095D01*
X105584443Y-115663095D01*
X105853506Y-115882960D01*
X106818762Y-115918711D01*
X106998494Y-115882960D01*
X107267557Y-115663095D01*
X111934443Y-115663095D01*
X112203506Y-115882960D01*
X113168762Y-115918711D01*
X113348494Y-115882960D01*
X113617557Y-115663095D01*
X112776000Y-114821538D01*
X111934443Y-115663095D01*
X107267557Y-115663095D01*
X106426000Y-114821538D01*
X105584443Y-115663095D01*
X97399657Y-115663095D01*
X96723200Y-114986638D01*
X95881643Y-115828195D01*
X91214757Y-115828195D01*
X90373200Y-114986638D01*
X89531643Y-115828195D01*
X50315000Y-115828195D01*
X50315000Y-114032362D01*
X87928989Y-114032362D01*
X87964740Y-114212094D01*
X88184605Y-114481157D01*
X89026162Y-113639600D01*
X91720238Y-113639600D01*
X92561795Y-114481157D01*
X92781660Y-114212094D01*
X92788316Y-114032362D01*
X94278989Y-114032362D01*
X94314740Y-114212094D01*
X94534605Y-114481157D01*
X95376162Y-113639600D01*
X98070238Y-113639600D01*
X98911795Y-114481157D01*
X99131660Y-114212094D01*
X99144431Y-113867262D01*
X103981789Y-113867262D01*
X104017540Y-114046994D01*
X104237405Y-114316057D01*
X105078962Y-113474500D01*
X104237405Y-112632943D01*
X104017540Y-112902006D01*
X103981789Y-113867262D01*
X99144431Y-113867262D01*
X99167411Y-113246838D01*
X99131660Y-113067106D01*
X98911795Y-112798043D01*
X98070238Y-113639600D01*
X95376162Y-113639600D01*
X94534605Y-112798043D01*
X94314740Y-113067106D01*
X94278989Y-114032362D01*
X92788316Y-114032362D01*
X92817411Y-113246838D01*
X92781660Y-113067106D01*
X92561795Y-112798043D01*
X91720238Y-113639600D01*
X89026162Y-113639600D01*
X88184605Y-112798043D01*
X87964740Y-113067106D01*
X87928989Y-114032362D01*
X50315000Y-114032362D01*
X50315000Y-112528028D01*
X92742008Y-112528028D01*
X92991263Y-112743615D01*
X93905799Y-112783266D01*
X94105137Y-112743615D01*
X94354392Y-112528028D01*
X93548200Y-111721836D01*
X92742008Y-112528028D01*
X50315000Y-112528028D01*
X50315000Y-111451005D01*
X89531643Y-111451005D01*
X90373200Y-112292562D01*
X91214757Y-111451005D01*
X95881643Y-111451005D01*
X96723200Y-112292562D01*
X97564757Y-111451005D01*
X97295694Y-111231140D01*
X96330438Y-111195389D01*
X96150706Y-111231140D01*
X95881643Y-111451005D01*
X91214757Y-111451005D01*
X90945694Y-111231140D01*
X89980438Y-111195389D01*
X89800706Y-111231140D01*
X89531643Y-111451005D01*
X50315000Y-111451005D01*
X50315000Y-110430750D01*
X50737000Y-110430750D01*
X50737000Y-111029031D01*
X50816622Y-111221256D01*
X50963744Y-111368378D01*
X51155969Y-111448000D01*
X52399250Y-111448000D01*
X52530000Y-111317250D01*
X52530000Y-110300000D01*
X55070000Y-110300000D01*
X55070000Y-111317250D01*
X55200750Y-111448000D01*
X56444031Y-111448000D01*
X56636256Y-111368378D01*
X56783378Y-111221256D01*
X56863000Y-111029031D01*
X56863000Y-110822199D01*
X91229534Y-110822199D01*
X91269185Y-111021537D01*
X91484772Y-111270792D01*
X92290964Y-110464600D01*
X94805436Y-110464600D01*
X95611628Y-111270792D01*
X95827215Y-111021537D01*
X95866866Y-110107001D01*
X95827215Y-109907663D01*
X95611628Y-109658408D01*
X94805436Y-110464600D01*
X92290964Y-110464600D01*
X91484772Y-109658408D01*
X91269185Y-109907663D01*
X91229534Y-110822199D01*
X56863000Y-110822199D01*
X56863000Y-110430750D01*
X56732250Y-110300000D01*
X55070000Y-110300000D01*
X52530000Y-110300000D01*
X50867750Y-110300000D01*
X50737000Y-110430750D01*
X50315000Y-110430750D01*
X50315000Y-109478195D01*
X89531643Y-109478195D01*
X89800706Y-109698060D01*
X90765962Y-109733811D01*
X90945694Y-109698060D01*
X91214757Y-109478195D01*
X95881643Y-109478195D01*
X96150706Y-109698060D01*
X97115962Y-109733811D01*
X97295694Y-109698060D01*
X97564757Y-109478195D01*
X96723200Y-108636638D01*
X95881643Y-109478195D01*
X91214757Y-109478195D01*
X90373200Y-108636638D01*
X89531643Y-109478195D01*
X50315000Y-109478195D01*
X50315000Y-108215000D01*
X50780894Y-108215000D01*
X50737000Y-108320969D01*
X50737000Y-108919250D01*
X50867750Y-109050000D01*
X52530000Y-109050000D01*
X52530000Y-108425000D01*
X55070000Y-108425000D01*
X55070000Y-109050000D01*
X56732250Y-109050000D01*
X56863000Y-108919250D01*
X56863000Y-108401172D01*
X92742008Y-108401172D01*
X93548200Y-109207364D01*
X94354392Y-108401172D01*
X94105137Y-108185585D01*
X93190601Y-108145934D01*
X92991263Y-108185585D01*
X92742008Y-108401172D01*
X56863000Y-108401172D01*
X56863000Y-108320969D01*
X56819106Y-108215000D01*
X57400000Y-108215000D01*
X57405836Y-108213818D01*
X57410752Y-108210459D01*
X57413974Y-108205452D01*
X57415000Y-108200000D01*
X57415000Y-107682362D01*
X87928989Y-107682362D01*
X87964740Y-107862094D01*
X88184605Y-108131157D01*
X89026162Y-107289600D01*
X91720238Y-107289600D01*
X92561795Y-108131157D01*
X92781660Y-107862094D01*
X92788316Y-107682362D01*
X94278989Y-107682362D01*
X94314740Y-107862094D01*
X94534605Y-108131157D01*
X95376162Y-107289600D01*
X98070238Y-107289600D01*
X98911795Y-108131157D01*
X99131660Y-107862094D01*
X99144431Y-107517262D01*
X103981789Y-107517262D01*
X104017540Y-107696994D01*
X104237405Y-107966057D01*
X105078962Y-107124500D01*
X104237405Y-106282943D01*
X104017540Y-106552006D01*
X103981789Y-107517262D01*
X99144431Y-107517262D01*
X99167411Y-106896838D01*
X99131660Y-106717106D01*
X98911795Y-106448043D01*
X98070238Y-107289600D01*
X95376162Y-107289600D01*
X94534605Y-106448043D01*
X94314740Y-106717106D01*
X94278989Y-107682362D01*
X92788316Y-107682362D01*
X92817411Y-106896838D01*
X92781660Y-106717106D01*
X92561795Y-106448043D01*
X91720238Y-107289600D01*
X89026162Y-107289600D01*
X88184605Y-106448043D01*
X87964740Y-106717106D01*
X87928989Y-107682362D01*
X57415000Y-107682362D01*
X57415000Y-107215000D01*
X60000000Y-107215000D01*
X60005836Y-107213818D01*
X60010752Y-107210459D01*
X60013974Y-107205452D01*
X60015000Y-107200000D01*
X60015000Y-105101005D01*
X89531643Y-105101005D01*
X90373200Y-105942562D01*
X91214757Y-105101005D01*
X95881643Y-105101005D01*
X96723200Y-105942562D01*
X97564757Y-105101005D01*
X97362714Y-104935905D01*
X105584443Y-104935905D01*
X106426000Y-105777462D01*
X107267557Y-104935905D01*
X111934443Y-104935905D01*
X112776000Y-105777462D01*
X113617557Y-104935905D01*
X113348494Y-104716040D01*
X112383238Y-104680289D01*
X112203506Y-104716040D01*
X111934443Y-104935905D01*
X107267557Y-104935905D01*
X106998494Y-104716040D01*
X106033238Y-104680289D01*
X105853506Y-104716040D01*
X105584443Y-104935905D01*
X97362714Y-104935905D01*
X97295694Y-104881140D01*
X96330438Y-104845389D01*
X96150706Y-104881140D01*
X95881643Y-105101005D01*
X91214757Y-105101005D01*
X90945694Y-104881140D01*
X89980438Y-104845389D01*
X89800706Y-104881140D01*
X89531643Y-105101005D01*
X60015000Y-105101005D01*
X60015000Y-104600000D01*
X60013818Y-104594164D01*
X60010459Y-104589248D01*
X60005452Y-104586026D01*
X60000000Y-104585000D01*
X57215000Y-104585000D01*
X57215000Y-103700000D01*
X57213818Y-103694164D01*
X57210459Y-103689248D01*
X57205452Y-103686026D01*
X57200000Y-103685000D01*
X56798396Y-103685000D01*
X56863000Y-103529031D01*
X56863000Y-102930750D01*
X56732250Y-102800000D01*
X55070000Y-102800000D01*
X55070000Y-103425000D01*
X52530000Y-103425000D01*
X52530000Y-102800000D01*
X50867750Y-102800000D01*
X50737000Y-102930750D01*
X50737000Y-103529031D01*
X50801604Y-103685000D01*
X50315000Y-103685000D01*
X50315000Y-100820969D01*
X50737000Y-100820969D01*
X50737000Y-101419250D01*
X50867750Y-101550000D01*
X52530000Y-101550000D01*
X52530000Y-100532750D01*
X55070000Y-100532750D01*
X55070000Y-101550000D01*
X56732250Y-101550000D01*
X56863000Y-101419250D01*
X56863000Y-100820969D01*
X56783378Y-100628744D01*
X56636256Y-100481622D01*
X56444031Y-100402000D01*
X55200750Y-100402000D01*
X55070000Y-100532750D01*
X52530000Y-100532750D01*
X52399250Y-100402000D01*
X51155969Y-100402000D01*
X50963744Y-100481622D01*
X50816622Y-100628744D01*
X50737000Y-100820969D01*
X50315000Y-100820969D01*
X50315000Y-99580750D01*
X87777000Y-99580750D01*
X87777000Y-100154031D01*
X87856622Y-100346256D01*
X88003744Y-100493378D01*
X88195969Y-100573000D01*
X88569250Y-100573000D01*
X88700000Y-100442250D01*
X88700000Y-99450000D01*
X89500000Y-99450000D01*
X89500000Y-100442250D01*
X89630750Y-100573000D01*
X90004031Y-100573000D01*
X90196256Y-100493378D01*
X90343378Y-100346256D01*
X90423000Y-100154031D01*
X90423000Y-99670328D01*
X90655797Y-100087686D01*
X91047648Y-100432982D01*
X91240000Y-100373147D01*
X91240000Y-99450000D01*
X92040000Y-99450000D01*
X92040000Y-100373147D01*
X92232352Y-100432982D01*
X92624203Y-100087686D01*
X92869854Y-99647283D01*
X92950146Y-99647283D01*
X93195797Y-100087686D01*
X93587648Y-100432982D01*
X93780000Y-100373147D01*
X93780000Y-99450000D01*
X94580000Y-99450000D01*
X94580000Y-100373147D01*
X94772352Y-100432982D01*
X95164203Y-100087686D01*
X95409854Y-99647283D01*
X95490146Y-99647283D01*
X95735797Y-100087686D01*
X96127648Y-100432982D01*
X96320000Y-100373147D01*
X96320000Y-99450000D01*
X97120000Y-99450000D01*
X97120000Y-100373147D01*
X97312352Y-100432982D01*
X97704203Y-100087686D01*
X97949854Y-99647283D01*
X98030146Y-99647283D01*
X98275797Y-100087686D01*
X98667648Y-100432982D01*
X98860000Y-100373147D01*
X98860000Y-99450000D01*
X99660000Y-99450000D01*
X99660000Y-100373147D01*
X99852352Y-100432982D01*
X100244203Y-100087686D01*
X100489854Y-99647283D01*
X100570146Y-99647283D01*
X100815797Y-100087686D01*
X101207648Y-100432982D01*
X101400000Y-100373147D01*
X101400000Y-99450000D01*
X102200000Y-99450000D01*
X102200000Y-100373147D01*
X102392352Y-100432982D01*
X102784203Y-100087686D01*
X103029854Y-99647283D01*
X103110146Y-99647283D01*
X103355797Y-100087686D01*
X103747648Y-100432982D01*
X103940000Y-100373147D01*
X103940000Y-99450000D01*
X104740000Y-99450000D01*
X104740000Y-100373147D01*
X104932352Y-100432982D01*
X105324203Y-100087686D01*
X105569854Y-99647283D01*
X105650146Y-99647283D01*
X105895797Y-100087686D01*
X106287648Y-100432982D01*
X106480000Y-100373147D01*
X106480000Y-99450000D01*
X107280000Y-99450000D01*
X107280000Y-100373147D01*
X107472352Y-100432982D01*
X107864203Y-100087686D01*
X108109854Y-99647283D01*
X108026111Y-99450000D01*
X107280000Y-99450000D01*
X106480000Y-99450000D01*
X105733889Y-99450000D01*
X105650146Y-99647283D01*
X105569854Y-99647283D01*
X105486111Y-99450000D01*
X104740000Y-99450000D01*
X103940000Y-99450000D01*
X103193889Y-99450000D01*
X103110146Y-99647283D01*
X103029854Y-99647283D01*
X102946111Y-99450000D01*
X102200000Y-99450000D01*
X101400000Y-99450000D01*
X100653889Y-99450000D01*
X100570146Y-99647283D01*
X100489854Y-99647283D01*
X100406111Y-99450000D01*
X99660000Y-99450000D01*
X98860000Y-99450000D01*
X98113889Y-99450000D01*
X98030146Y-99647283D01*
X97949854Y-99647283D01*
X97866111Y-99450000D01*
X97120000Y-99450000D01*
X96320000Y-99450000D01*
X95573889Y-99450000D01*
X95490146Y-99647283D01*
X95409854Y-99647283D01*
X95326111Y-99450000D01*
X94580000Y-99450000D01*
X93780000Y-99450000D01*
X93033889Y-99450000D01*
X92950146Y-99647283D01*
X92869854Y-99647283D01*
X92786111Y-99450000D01*
X92040000Y-99450000D01*
X91240000Y-99450000D01*
X90493889Y-99450000D01*
X90423000Y-99617001D01*
X90423000Y-99580750D01*
X90292250Y-99450000D01*
X89500000Y-99450000D01*
X88700000Y-99450000D01*
X87907750Y-99450000D01*
X87777000Y-99580750D01*
X50315000Y-99580750D01*
X50315000Y-97545969D01*
X87777000Y-97545969D01*
X87777000Y-98119250D01*
X87907750Y-98250000D01*
X88700000Y-98250000D01*
X88700000Y-97257750D01*
X89500000Y-97257750D01*
X89500000Y-98250000D01*
X90292250Y-98250000D01*
X90423000Y-98119250D01*
X90423000Y-98082999D01*
X90493889Y-98250000D01*
X91240000Y-98250000D01*
X91240000Y-97326853D01*
X92040000Y-97326853D01*
X92040000Y-98250000D01*
X92786111Y-98250000D01*
X92869854Y-98052717D01*
X92950146Y-98052717D01*
X93033889Y-98250000D01*
X93780000Y-98250000D01*
X93780000Y-97326853D01*
X94580000Y-97326853D01*
X94580000Y-98250000D01*
X95326111Y-98250000D01*
X95409854Y-98052717D01*
X95490146Y-98052717D01*
X95573889Y-98250000D01*
X96320000Y-98250000D01*
X96320000Y-97326853D01*
X97120000Y-97326853D01*
X97120000Y-98250000D01*
X97866111Y-98250000D01*
X97949854Y-98052717D01*
X98030146Y-98052717D01*
X98113889Y-98250000D01*
X98860000Y-98250000D01*
X98860000Y-97326853D01*
X99660000Y-97326853D01*
X99660000Y-98250000D01*
X100406111Y-98250000D01*
X100489854Y-98052717D01*
X100570146Y-98052717D01*
X100653889Y-98250000D01*
X101400000Y-98250000D01*
X101400000Y-97326853D01*
X102200000Y-97326853D01*
X102200000Y-98250000D01*
X102946111Y-98250000D01*
X103029854Y-98052717D01*
X103110146Y-98052717D01*
X103193889Y-98250000D01*
X103940000Y-98250000D01*
X103940000Y-97326853D01*
X104740000Y-97326853D01*
X104740000Y-98250000D01*
X105486111Y-98250000D01*
X105569854Y-98052717D01*
X105650146Y-98052717D01*
X105733889Y-98250000D01*
X106480000Y-98250000D01*
X106480000Y-97326853D01*
X107280000Y-97326853D01*
X107280000Y-98250000D01*
X108026111Y-98250000D01*
X108109854Y-98052717D01*
X107864203Y-97612314D01*
X107472352Y-97267018D01*
X107280000Y-97326853D01*
X106480000Y-97326853D01*
X106287648Y-97267018D01*
X105895797Y-97612314D01*
X105650146Y-98052717D01*
X105569854Y-98052717D01*
X105324203Y-97612314D01*
X104932352Y-97267018D01*
X104740000Y-97326853D01*
X103940000Y-97326853D01*
X103747648Y-97267018D01*
X103355797Y-97612314D01*
X103110146Y-98052717D01*
X103029854Y-98052717D01*
X102784203Y-97612314D01*
X102392352Y-97267018D01*
X102200000Y-97326853D01*
X101400000Y-97326853D01*
X101207648Y-97267018D01*
X100815797Y-97612314D01*
X100570146Y-98052717D01*
X100489854Y-98052717D01*
X100244203Y-97612314D01*
X99852352Y-97267018D01*
X99660000Y-97326853D01*
X98860000Y-97326853D01*
X98667648Y-97267018D01*
X98275797Y-97612314D01*
X98030146Y-98052717D01*
X97949854Y-98052717D01*
X97704203Y-97612314D01*
X97312352Y-97267018D01*
X97120000Y-97326853D01*
X96320000Y-97326853D01*
X96127648Y-97267018D01*
X95735797Y-97612314D01*
X95490146Y-98052717D01*
X95409854Y-98052717D01*
X95164203Y-97612314D01*
X94772352Y-97267018D01*
X94580000Y-97326853D01*
X93780000Y-97326853D01*
X93587648Y-97267018D01*
X93195797Y-97612314D01*
X92950146Y-98052717D01*
X92869854Y-98052717D01*
X92624203Y-97612314D01*
X92232352Y-97267018D01*
X92040000Y-97326853D01*
X91240000Y-97326853D01*
X91047648Y-97267018D01*
X90655797Y-97612314D01*
X90423000Y-98029672D01*
X90423000Y-97545969D01*
X90343378Y-97353744D01*
X90196256Y-97206622D01*
X90004031Y-97127000D01*
X89630750Y-97127000D01*
X89500000Y-97257750D01*
X88700000Y-97257750D01*
X88569250Y-97127000D01*
X88195969Y-97127000D01*
X88003744Y-97206622D01*
X87856622Y-97353744D01*
X87777000Y-97545969D01*
X50315000Y-97545969D01*
X50315000Y-89855750D01*
X50737000Y-89855750D01*
X50737000Y-90454031D01*
X50816622Y-90646256D01*
X50963744Y-90793378D01*
X51155969Y-90873000D01*
X52399250Y-90873000D01*
X52530000Y-90742250D01*
X52530000Y-89725000D01*
X55070000Y-89725000D01*
X55070000Y-90742250D01*
X55200750Y-90873000D01*
X56444031Y-90873000D01*
X56636256Y-90793378D01*
X56783378Y-90646256D01*
X56863000Y-90454031D01*
X56863000Y-89855750D01*
X56732250Y-89725000D01*
X55070000Y-89725000D01*
X52530000Y-89725000D01*
X50867750Y-89725000D01*
X50737000Y-89855750D01*
X50315000Y-89855750D01*
X50315000Y-87815000D01*
X50737000Y-87815000D01*
X50737000Y-88344250D01*
X50867750Y-88475000D01*
X52530000Y-88475000D01*
X52530000Y-87850000D01*
X55070000Y-87850000D01*
X55070000Y-88475000D01*
X56732250Y-88475000D01*
X56863000Y-88344250D01*
X56863000Y-87815000D01*
X57100000Y-87815000D01*
X57105836Y-87813818D01*
X57110752Y-87810459D01*
X57113974Y-87805452D01*
X57115000Y-87800000D01*
X57115000Y-86515000D01*
X60700000Y-86515000D01*
X60705836Y-86513818D01*
X60710752Y-86510459D01*
X60713974Y-86505452D01*
X60715000Y-86500000D01*
X60715000Y-83900000D01*
X60713818Y-83894164D01*
X60710459Y-83889248D01*
X60705452Y-83886026D01*
X60700000Y-83885000D01*
X56615000Y-83885000D01*
X56615000Y-83577762D01*
X83280789Y-83577762D01*
X83316540Y-83757494D01*
X83536405Y-84026557D01*
X84377962Y-83185000D01*
X83536405Y-82343443D01*
X83316540Y-82612506D01*
X83280789Y-83577762D01*
X56615000Y-83577762D01*
X56615000Y-83302183D01*
X56636256Y-83293378D01*
X56783378Y-83146256D01*
X56863000Y-82954031D01*
X56863000Y-82355750D01*
X56732250Y-82225000D01*
X55070000Y-82225000D01*
X55070000Y-82850000D01*
X52530000Y-82850000D01*
X52530000Y-82225000D01*
X50867750Y-82225000D01*
X50737000Y-82355750D01*
X50737000Y-82885000D01*
X50315000Y-82885000D01*
X50315000Y-80245969D01*
X50737000Y-80245969D01*
X50737000Y-80844250D01*
X50867750Y-80975000D01*
X52530000Y-80975000D01*
X52530000Y-79957750D01*
X55070000Y-79957750D01*
X55070000Y-80975000D01*
X56732250Y-80975000D01*
X56863000Y-80844250D01*
X56863000Y-80245969D01*
X56783378Y-80053744D01*
X56636256Y-79906622D01*
X56444031Y-79827000D01*
X55200750Y-79827000D01*
X55070000Y-79957750D01*
X52530000Y-79957750D01*
X52399250Y-79827000D01*
X51155969Y-79827000D01*
X50963744Y-79906622D01*
X50816622Y-80053744D01*
X50737000Y-80245969D01*
X50315000Y-80245969D01*
X50315000Y-79023595D01*
X84883443Y-79023595D01*
X85152506Y-79243460D01*
X86067229Y-79277339D01*
X86425227Y-79635337D01*
X86685000Y-79375564D01*
X86685000Y-80644436D01*
X86425227Y-80384663D01*
X86042784Y-80767106D01*
X85332238Y-80740789D01*
X85152506Y-80776540D01*
X84883443Y-80996405D01*
X85725000Y-81837962D01*
X86115677Y-81447285D01*
X86685000Y-82016608D01*
X86685000Y-84353392D01*
X86115677Y-84922715D01*
X85725000Y-84532038D01*
X84883443Y-85373595D01*
X85152506Y-85593460D01*
X86067229Y-85627339D01*
X86425227Y-85985337D01*
X86685000Y-85725564D01*
X86685000Y-93800000D01*
X86686182Y-93805836D01*
X86689541Y-93810752D01*
X86694548Y-93813974D01*
X86700000Y-93815000D01*
X109200000Y-93815000D01*
X109205836Y-93813818D01*
X109210752Y-93810459D01*
X109213974Y-93805452D01*
X109215000Y-93800000D01*
X109215000Y-85283564D01*
X109662773Y-85731337D01*
X110045216Y-85348894D01*
X110755762Y-85375211D01*
X110935494Y-85339460D01*
X111204557Y-85119595D01*
X110363000Y-84278038D01*
X109972323Y-84668715D01*
X109215000Y-83911392D01*
X109215000Y-82931000D01*
X111710038Y-82931000D01*
X112551595Y-83772557D01*
X112771460Y-83503494D01*
X112807211Y-82538238D01*
X112771460Y-82358506D01*
X112551595Y-82089443D01*
X111710038Y-82931000D01*
X109215000Y-82931000D01*
X109215000Y-81950608D01*
X109972323Y-81193285D01*
X110363000Y-81583962D01*
X111204557Y-80742405D01*
X110935494Y-80522540D01*
X110020771Y-80488661D01*
X109662773Y-80130663D01*
X109215000Y-80578436D01*
X109215000Y-78933564D01*
X109662773Y-79381337D01*
X110045216Y-78998894D01*
X110755762Y-79025211D01*
X110935494Y-78989460D01*
X111204557Y-78769595D01*
X110363000Y-77928038D01*
X109972323Y-78318715D01*
X108625285Y-76971677D01*
X109015962Y-76581000D01*
X111710038Y-76581000D01*
X112551595Y-77422557D01*
X112771460Y-77153494D01*
X112807211Y-76188238D01*
X112771460Y-76008506D01*
X112551595Y-75739443D01*
X111710038Y-76581000D01*
X109015962Y-76581000D01*
X108174405Y-75739443D01*
X107954540Y-76008506D01*
X107920661Y-76923229D01*
X107562663Y-77281227D01*
X108066436Y-77785000D01*
X107638317Y-77785000D01*
X107586171Y-77763347D01*
X106793307Y-77762655D01*
X106739228Y-77785000D01*
X106309564Y-77785000D01*
X106813337Y-77281227D01*
X106430894Y-76898784D01*
X106457211Y-76188238D01*
X106421460Y-76008506D01*
X106201595Y-75739443D01*
X105360038Y-76581000D01*
X105750715Y-76971677D01*
X104403677Y-78318715D01*
X104013000Y-77928038D01*
X103171443Y-78769595D01*
X103440506Y-78989460D01*
X104355229Y-79023339D01*
X104713227Y-79381337D01*
X105285000Y-78809564D01*
X105285000Y-79141920D01*
X105195347Y-79357829D01*
X105194655Y-80150693D01*
X105285000Y-80369345D01*
X105285000Y-80702436D01*
X104713227Y-80130663D01*
X104330784Y-80513106D01*
X103620238Y-80486789D01*
X103440506Y-80522540D01*
X103171443Y-80742405D01*
X104013000Y-81583962D01*
X104403677Y-81193285D01*
X105285000Y-82074608D01*
X105285000Y-83787392D01*
X104403677Y-84668715D01*
X104013000Y-84278038D01*
X103171443Y-85119595D01*
X103440506Y-85339460D01*
X104355229Y-85373339D01*
X104713227Y-85731337D01*
X105285000Y-85159564D01*
X105285000Y-89385000D01*
X90415000Y-89385000D01*
X90415000Y-85025564D01*
X91374773Y-85985337D01*
X91757216Y-85602894D01*
X92467762Y-85629211D01*
X92647494Y-85593460D01*
X92916557Y-85373595D01*
X92075000Y-84532038D01*
X91684323Y-84922715D01*
X90415000Y-83653392D01*
X90415000Y-83497962D01*
X90727962Y-83185000D01*
X93422038Y-83185000D01*
X94263595Y-84026557D01*
X94483460Y-83757494D01*
X94499524Y-83323762D01*
X101568789Y-83323762D01*
X101604540Y-83503494D01*
X101824405Y-83772557D01*
X102665962Y-82931000D01*
X101824405Y-82089443D01*
X101604540Y-82358506D01*
X101568789Y-83323762D01*
X94499524Y-83323762D01*
X94519211Y-82792238D01*
X94483460Y-82612506D01*
X94263595Y-82343443D01*
X93422038Y-83185000D01*
X90727962Y-83185000D01*
X90415000Y-82872038D01*
X90415000Y-82716608D01*
X91684323Y-81447285D01*
X92075000Y-81837962D01*
X92916557Y-80996405D01*
X92647494Y-80776540D01*
X91732771Y-80742661D01*
X91374773Y-80384663D01*
X90415000Y-81344436D01*
X90415000Y-81313713D01*
X90588598Y-81140418D01*
X90892653Y-80408171D01*
X90893345Y-79615307D01*
X90590568Y-78882531D01*
X90415000Y-78706656D01*
X90415000Y-78675564D01*
X91374773Y-79635337D01*
X91757216Y-79252894D01*
X92467762Y-79279211D01*
X92647494Y-79243460D01*
X92916557Y-79023595D01*
X92075000Y-78182038D01*
X91684323Y-78572715D01*
X90337285Y-77225677D01*
X90727962Y-76835000D01*
X93422038Y-76835000D01*
X94263595Y-77676557D01*
X94483460Y-77407494D01*
X94499524Y-76973762D01*
X101568789Y-76973762D01*
X101604540Y-77153494D01*
X101824405Y-77422557D01*
X102665962Y-76581000D01*
X101824405Y-75739443D01*
X101604540Y-76008506D01*
X101568789Y-76973762D01*
X94499524Y-76973762D01*
X94519211Y-76442238D01*
X94483460Y-76262506D01*
X94263595Y-75993443D01*
X93422038Y-76835000D01*
X90727962Y-76835000D01*
X89886405Y-75993443D01*
X89666540Y-76262506D01*
X89632661Y-77177229D01*
X89274663Y-77535227D01*
X90224436Y-78485000D01*
X90193731Y-78485000D01*
X90030418Y-78321402D01*
X89298171Y-78017347D01*
X88505307Y-78016655D01*
X87772531Y-78319432D01*
X87606674Y-78485000D01*
X87575564Y-78485000D01*
X88525337Y-77535227D01*
X88142894Y-77152784D01*
X88169211Y-76442238D01*
X88133460Y-76262506D01*
X87913595Y-75993443D01*
X87072038Y-76835000D01*
X87462715Y-77225677D01*
X86115677Y-78572715D01*
X85725000Y-78182038D01*
X84883443Y-79023595D01*
X50315000Y-79023595D01*
X50315000Y-77227762D01*
X83280789Y-77227762D01*
X83316540Y-77407494D01*
X83536405Y-77676557D01*
X84377962Y-76835000D01*
X83536405Y-75993443D01*
X83316540Y-76262506D01*
X83280789Y-77227762D01*
X50315000Y-77227762D01*
X50315000Y-74646405D01*
X84883443Y-74646405D01*
X85725000Y-75487962D01*
X86566557Y-74646405D01*
X91233443Y-74646405D01*
X92075000Y-75487962D01*
X92916557Y-74646405D01*
X92647494Y-74426540D01*
X91725870Y-74392405D01*
X103171443Y-74392405D01*
X104013000Y-75233962D01*
X104854557Y-74392405D01*
X109521443Y-74392405D01*
X110363000Y-75233962D01*
X111204557Y-74392405D01*
X110935494Y-74172540D01*
X109970238Y-74136789D01*
X109790506Y-74172540D01*
X109521443Y-74392405D01*
X104854557Y-74392405D01*
X104585494Y-74172540D01*
X103620238Y-74136789D01*
X103440506Y-74172540D01*
X103171443Y-74392405D01*
X91725870Y-74392405D01*
X91682238Y-74390789D01*
X91502506Y-74426540D01*
X91233443Y-74646405D01*
X86566557Y-74646405D01*
X86297494Y-74426540D01*
X85332238Y-74390789D01*
X85152506Y-74426540D01*
X84883443Y-74646405D01*
X50315000Y-74646405D01*
X50315000Y-70830750D01*
X50862000Y-70830750D01*
X50862000Y-71429031D01*
X50941622Y-71621256D01*
X51088744Y-71768378D01*
X51280969Y-71848000D01*
X52524250Y-71848000D01*
X52655000Y-71717250D01*
X52655000Y-70700000D01*
X55195000Y-70700000D01*
X55195000Y-71717250D01*
X55325750Y-71848000D01*
X56569031Y-71848000D01*
X56761256Y-71768378D01*
X56908378Y-71621256D01*
X56988000Y-71429031D01*
X56988000Y-70830750D01*
X56857250Y-70700000D01*
X55195000Y-70700000D01*
X52655000Y-70700000D01*
X50992750Y-70700000D01*
X50862000Y-70830750D01*
X50315000Y-70830750D01*
X50315000Y-70326750D01*
X114755000Y-70326750D01*
X114755000Y-70900031D01*
X114834622Y-71092256D01*
X114981744Y-71239378D01*
X115173969Y-71319000D01*
X115547250Y-71319000D01*
X115678000Y-71188250D01*
X115678000Y-70196000D01*
X116478000Y-70196000D01*
X116478000Y-71188250D01*
X116608750Y-71319000D01*
X116982031Y-71319000D01*
X117174256Y-71239378D01*
X117321378Y-71092256D01*
X117401000Y-70900031D01*
X117401000Y-70416328D01*
X117633797Y-70833686D01*
X118025648Y-71178982D01*
X118218000Y-71119147D01*
X118218000Y-70196000D01*
X119018000Y-70196000D01*
X119018000Y-71119147D01*
X119210352Y-71178982D01*
X119602203Y-70833686D01*
X119847854Y-70393283D01*
X119928146Y-70393283D01*
X120173797Y-70833686D01*
X120565648Y-71178982D01*
X120758000Y-71119147D01*
X120758000Y-70196000D01*
X121558000Y-70196000D01*
X121558000Y-71119147D01*
X121750352Y-71178982D01*
X122142203Y-70833686D01*
X122387854Y-70393283D01*
X122468146Y-70393283D01*
X122713797Y-70833686D01*
X123105648Y-71178982D01*
X123298000Y-71119147D01*
X123298000Y-70196000D01*
X124098000Y-70196000D01*
X124098000Y-71119147D01*
X124290352Y-71178982D01*
X124682203Y-70833686D01*
X124927854Y-70393283D01*
X125008146Y-70393283D01*
X125253797Y-70833686D01*
X125645648Y-71178982D01*
X125838000Y-71119147D01*
X125838000Y-70196000D01*
X126638000Y-70196000D01*
X126638000Y-71119147D01*
X126830352Y-71178982D01*
X127222203Y-70833686D01*
X127467854Y-70393283D01*
X127548146Y-70393283D01*
X127793797Y-70833686D01*
X128185648Y-71178982D01*
X128378000Y-71119147D01*
X128378000Y-70196000D01*
X129178000Y-70196000D01*
X129178000Y-71119147D01*
X129370352Y-71178982D01*
X129762203Y-70833686D01*
X130007854Y-70393283D01*
X130088146Y-70393283D01*
X130333797Y-70833686D01*
X130725648Y-71178982D01*
X130918000Y-71119147D01*
X130918000Y-70196000D01*
X131718000Y-70196000D01*
X131718000Y-71119147D01*
X131910352Y-71178982D01*
X132302203Y-70833686D01*
X132547854Y-70393283D01*
X132628146Y-70393283D01*
X132873797Y-70833686D01*
X133265648Y-71178982D01*
X133458000Y-71119147D01*
X133458000Y-70196000D01*
X134258000Y-70196000D01*
X134258000Y-71119147D01*
X134450352Y-71178982D01*
X134842203Y-70833686D01*
X135087854Y-70393283D01*
X135004111Y-70196000D01*
X134258000Y-70196000D01*
X133458000Y-70196000D01*
X132711889Y-70196000D01*
X132628146Y-70393283D01*
X132547854Y-70393283D01*
X132464111Y-70196000D01*
X131718000Y-70196000D01*
X130918000Y-70196000D01*
X130171889Y-70196000D01*
X130088146Y-70393283D01*
X130007854Y-70393283D01*
X129924111Y-70196000D01*
X129178000Y-70196000D01*
X128378000Y-70196000D01*
X127631889Y-70196000D01*
X127548146Y-70393283D01*
X127467854Y-70393283D01*
X127384111Y-70196000D01*
X126638000Y-70196000D01*
X125838000Y-70196000D01*
X125091889Y-70196000D01*
X125008146Y-70393283D01*
X124927854Y-70393283D01*
X124844111Y-70196000D01*
X124098000Y-70196000D01*
X123298000Y-70196000D01*
X122551889Y-70196000D01*
X122468146Y-70393283D01*
X122387854Y-70393283D01*
X122304111Y-70196000D01*
X121558000Y-70196000D01*
X120758000Y-70196000D01*
X120011889Y-70196000D01*
X119928146Y-70393283D01*
X119847854Y-70393283D01*
X119764111Y-70196000D01*
X119018000Y-70196000D01*
X118218000Y-70196000D01*
X117471889Y-70196000D01*
X117401000Y-70363001D01*
X117401000Y-70326750D01*
X117270250Y-70196000D01*
X116478000Y-70196000D01*
X115678000Y-70196000D01*
X114885750Y-70196000D01*
X114755000Y-70326750D01*
X50315000Y-70326750D01*
X50315000Y-68615000D01*
X50905894Y-68615000D01*
X50862000Y-68720969D01*
X50862000Y-69319250D01*
X50992750Y-69450000D01*
X52655000Y-69450000D01*
X52655000Y-68825000D01*
X55195000Y-68825000D01*
X55195000Y-69450000D01*
X56857250Y-69450000D01*
X56988000Y-69319250D01*
X56988000Y-68720969D01*
X56944106Y-68615000D01*
X57000000Y-68615000D01*
X57005836Y-68613818D01*
X57010752Y-68610459D01*
X57013974Y-68605452D01*
X57015000Y-68600000D01*
X57015000Y-68291969D01*
X114755000Y-68291969D01*
X114755000Y-68865250D01*
X114885750Y-68996000D01*
X115678000Y-68996000D01*
X115678000Y-68003750D01*
X116478000Y-68003750D01*
X116478000Y-68996000D01*
X117270250Y-68996000D01*
X117401000Y-68865250D01*
X117401000Y-68828999D01*
X117471889Y-68996000D01*
X118218000Y-68996000D01*
X118218000Y-68072853D01*
X119018000Y-68072853D01*
X119018000Y-68996000D01*
X119764111Y-68996000D01*
X119847854Y-68798717D01*
X119928146Y-68798717D01*
X120011889Y-68996000D01*
X120758000Y-68996000D01*
X120758000Y-68072853D01*
X121558000Y-68072853D01*
X121558000Y-68996000D01*
X122304111Y-68996000D01*
X122387854Y-68798717D01*
X122468146Y-68798717D01*
X122551889Y-68996000D01*
X123298000Y-68996000D01*
X123298000Y-68072853D01*
X124098000Y-68072853D01*
X124098000Y-68996000D01*
X124844111Y-68996000D01*
X124927854Y-68798717D01*
X125008146Y-68798717D01*
X125091889Y-68996000D01*
X125838000Y-68996000D01*
X125838000Y-68072853D01*
X126638000Y-68072853D01*
X126638000Y-68996000D01*
X127384111Y-68996000D01*
X127467854Y-68798717D01*
X127548146Y-68798717D01*
X127631889Y-68996000D01*
X128378000Y-68996000D01*
X128378000Y-68072853D01*
X129178000Y-68072853D01*
X129178000Y-68996000D01*
X129924111Y-68996000D01*
X130007854Y-68798717D01*
X130088146Y-68798717D01*
X130171889Y-68996000D01*
X130918000Y-68996000D01*
X130918000Y-68072853D01*
X131718000Y-68072853D01*
X131718000Y-68996000D01*
X132464111Y-68996000D01*
X132547854Y-68798717D01*
X132628146Y-68798717D01*
X132711889Y-68996000D01*
X133458000Y-68996000D01*
X133458000Y-68072853D01*
X134258000Y-68072853D01*
X134258000Y-68996000D01*
X135004111Y-68996000D01*
X135087854Y-68798717D01*
X134842203Y-68358314D01*
X134450352Y-68013018D01*
X134258000Y-68072853D01*
X133458000Y-68072853D01*
X133265648Y-68013018D01*
X132873797Y-68358314D01*
X132628146Y-68798717D01*
X132547854Y-68798717D01*
X132302203Y-68358314D01*
X131910352Y-68013018D01*
X131718000Y-68072853D01*
X130918000Y-68072853D01*
X130725648Y-68013018D01*
X130333797Y-68358314D01*
X130088146Y-68798717D01*
X130007854Y-68798717D01*
X129762203Y-68358314D01*
X129370352Y-68013018D01*
X129178000Y-68072853D01*
X128378000Y-68072853D01*
X128185648Y-68013018D01*
X127793797Y-68358314D01*
X127548146Y-68798717D01*
X127467854Y-68798717D01*
X127222203Y-68358314D01*
X126830352Y-68013018D01*
X126638000Y-68072853D01*
X125838000Y-68072853D01*
X125645648Y-68013018D01*
X125253797Y-68358314D01*
X125008146Y-68798717D01*
X124927854Y-68798717D01*
X124682203Y-68358314D01*
X124290352Y-68013018D01*
X124098000Y-68072853D01*
X123298000Y-68072853D01*
X123105648Y-68013018D01*
X122713797Y-68358314D01*
X122468146Y-68798717D01*
X122387854Y-68798717D01*
X122142203Y-68358314D01*
X121750352Y-68013018D01*
X121558000Y-68072853D01*
X120758000Y-68072853D01*
X120565648Y-68013018D01*
X120173797Y-68358314D01*
X119928146Y-68798717D01*
X119847854Y-68798717D01*
X119602203Y-68358314D01*
X119210352Y-68013018D01*
X119018000Y-68072853D01*
X118218000Y-68072853D01*
X118025648Y-68013018D01*
X117633797Y-68358314D01*
X117401000Y-68775672D01*
X117401000Y-68291969D01*
X117321378Y-68099744D01*
X117174256Y-67952622D01*
X116982031Y-67873000D01*
X116608750Y-67873000D01*
X116478000Y-68003750D01*
X115678000Y-68003750D01*
X115547250Y-67873000D01*
X115173969Y-67873000D01*
X114981744Y-67952622D01*
X114834622Y-68099744D01*
X114755000Y-68291969D01*
X57015000Y-68291969D01*
X57015000Y-67515000D01*
X60300000Y-67515000D01*
X60305836Y-67513818D01*
X60310752Y-67510459D01*
X60313974Y-67505452D01*
X60315000Y-67500000D01*
X60315000Y-67154294D01*
X144145813Y-67154294D01*
X144653954Y-67466192D01*
X146251376Y-67564588D01*
X146746046Y-67466192D01*
X147254187Y-67154294D01*
X145700000Y-65600107D01*
X144145813Y-67154294D01*
X60315000Y-67154294D01*
X60315000Y-64800000D01*
X60313818Y-64794164D01*
X60310459Y-64789248D01*
X60305452Y-64786026D01*
X60300000Y-64785000D01*
X57015000Y-64785000D01*
X57015000Y-64051376D01*
X141635412Y-64051376D01*
X141733808Y-64546046D01*
X142045706Y-65054187D01*
X143599893Y-63500000D01*
X142045706Y-61945813D01*
X141733808Y-62453954D01*
X141635412Y-64051376D01*
X57015000Y-64051376D01*
X57015000Y-63800000D01*
X57013818Y-63794164D01*
X57010459Y-63789248D01*
X57005452Y-63786026D01*
X57000000Y-63785000D01*
X56988000Y-63785000D01*
X56988000Y-63330750D01*
X56857250Y-63200000D01*
X55195000Y-63200000D01*
X55195000Y-63785000D01*
X52655000Y-63785000D01*
X52655000Y-63200000D01*
X50992750Y-63200000D01*
X50862000Y-63330750D01*
X50862000Y-63785000D01*
X50315000Y-63785000D01*
X50315000Y-61220969D01*
X50862000Y-61220969D01*
X50862000Y-61819250D01*
X50992750Y-61950000D01*
X52655000Y-61950000D01*
X52655000Y-60932750D01*
X55195000Y-60932750D01*
X55195000Y-61950000D01*
X56857250Y-61950000D01*
X56988000Y-61819250D01*
X56988000Y-61220969D01*
X56908378Y-61028744D01*
X56761256Y-60881622D01*
X56569031Y-60802000D01*
X55325750Y-60802000D01*
X55195000Y-60932750D01*
X52655000Y-60932750D01*
X52524250Y-60802000D01*
X51280969Y-60802000D01*
X51088744Y-60881622D01*
X50941622Y-61028744D01*
X50862000Y-61220969D01*
X50315000Y-61220969D01*
X50315000Y-55774478D01*
X51993289Y-55774478D01*
X52355259Y-56014036D01*
X53557759Y-56031338D01*
X53644741Y-56014036D01*
X54006711Y-55774478D01*
X53000000Y-54767767D01*
X51993289Y-55774478D01*
X50315000Y-55774478D01*
X50315000Y-54210750D01*
X58287000Y-54210750D01*
X58287000Y-55454031D01*
X58366622Y-55646256D01*
X58513744Y-55793378D01*
X58705969Y-55873000D01*
X59304250Y-55873000D01*
X59435000Y-55742250D01*
X59435000Y-54080000D01*
X58417750Y-54080000D01*
X58287000Y-54210750D01*
X50315000Y-54210750D01*
X50315000Y-53917233D01*
X51232233Y-53000000D01*
X54767767Y-53000000D01*
X55774478Y-54006711D01*
X56014036Y-53644741D01*
X56031338Y-52442241D01*
X56014036Y-52355259D01*
X55774478Y-51993289D01*
X54767767Y-53000000D01*
X51232233Y-53000000D01*
X50315000Y-52082767D01*
X50315000Y-50715000D01*
X51400000Y-50715000D01*
X51405836Y-50713818D01*
X51410752Y-50710459D01*
X51413974Y-50705452D01*
X51414994Y-50699586D01*
X51413652Y-50693785D01*
X51410158Y-50688963D01*
X51406092Y-50686293D01*
X50571543Y-50315382D01*
X52091261Y-50323494D01*
X53000000Y-51232233D01*
X53899088Y-50333145D01*
X58287000Y-50356568D01*
X58287000Y-51409250D01*
X58417750Y-51540000D01*
X59435000Y-51540000D01*
X59435000Y-51305000D01*
X60685000Y-51305000D01*
X60685000Y-51540000D01*
X61310000Y-51540000D01*
X61310000Y-54080000D01*
X60685000Y-54080000D01*
X60685000Y-55742250D01*
X60815750Y-55873000D01*
X61414031Y-55873000D01*
X61575000Y-55806325D01*
X61575000Y-56980000D01*
X61576182Y-56985836D01*
X61579541Y-56990752D01*
X61584548Y-56993974D01*
X61590066Y-56995000D01*
X66150066Y-56975000D01*
X66155896Y-56973792D01*
X66160798Y-56970412D01*
X66163998Y-56965391D01*
X66165000Y-56960000D01*
X66165000Y-55891233D01*
X73439428Y-55891233D01*
X73645365Y-56097322D01*
X74448725Y-56145440D01*
X74690635Y-56097322D01*
X74896572Y-55891233D01*
X74168000Y-55162660D01*
X73439428Y-55891233D01*
X66165000Y-55891233D01*
X66165000Y-55856030D01*
X66205969Y-55873000D01*
X66804250Y-55873000D01*
X66935000Y-55742250D01*
X66935000Y-54080000D01*
X68185000Y-54080000D01*
X68185000Y-55742250D01*
X68315750Y-55873000D01*
X68914031Y-55873000D01*
X69106256Y-55793378D01*
X69253378Y-55646256D01*
X69333000Y-55454031D01*
X69333000Y-54382725D01*
X72124560Y-54382725D01*
X72172678Y-54624635D01*
X72378767Y-54830572D01*
X73107340Y-54102000D01*
X75228660Y-54102000D01*
X75957233Y-54830572D01*
X76163322Y-54624635D01*
X76211440Y-53821275D01*
X76163322Y-53579365D01*
X75957233Y-53373428D01*
X75228660Y-54102000D01*
X73107340Y-54102000D01*
X72378767Y-53373428D01*
X72172678Y-53579365D01*
X72124560Y-54382725D01*
X69333000Y-54382725D01*
X69333000Y-54210750D01*
X69202250Y-54080000D01*
X68185000Y-54080000D01*
X66935000Y-54080000D01*
X66310000Y-54080000D01*
X66310000Y-52312767D01*
X73439428Y-52312767D01*
X74168000Y-53041340D01*
X74607339Y-52602000D01*
X77528788Y-52602000D01*
X77528788Y-55602000D01*
X77543780Y-55681674D01*
X77590867Y-55754850D01*
X77662714Y-55803941D01*
X77748000Y-55821212D01*
X80748000Y-55821212D01*
X80827674Y-55806220D01*
X80900850Y-55759133D01*
X80949941Y-55687286D01*
X80967212Y-55602000D01*
X80967212Y-54441638D01*
X83628703Y-54441638D01*
X83889246Y-55072200D01*
X84371262Y-55555059D01*
X85001369Y-55816702D01*
X85683638Y-55817297D01*
X86314200Y-55556754D01*
X86797059Y-55074738D01*
X86835255Y-54982750D01*
X88401000Y-54982750D01*
X88401000Y-55706031D01*
X88480622Y-55898256D01*
X88627744Y-56045378D01*
X88819969Y-56125000D01*
X89543250Y-56125000D01*
X89674000Y-55994250D01*
X89674000Y-54852000D01*
X91174000Y-54852000D01*
X91174000Y-55994250D01*
X91304750Y-56125000D01*
X92028031Y-56125000D01*
X92220256Y-56045378D01*
X92367378Y-55898256D01*
X92447000Y-55706031D01*
X92447000Y-54982750D01*
X92316250Y-54852000D01*
X91174000Y-54852000D01*
X89674000Y-54852000D01*
X88531750Y-54852000D01*
X88401000Y-54982750D01*
X86835255Y-54982750D01*
X87058702Y-54444631D01*
X87058886Y-54232750D01*
X95061000Y-54232750D01*
X95061000Y-55476031D01*
X95140622Y-55668256D01*
X95287744Y-55815378D01*
X95479969Y-55895000D01*
X96078250Y-55895000D01*
X96209000Y-55764250D01*
X96209000Y-54102000D01*
X95191750Y-54102000D01*
X95061000Y-54232750D01*
X87058886Y-54232750D01*
X87059297Y-53762362D01*
X86798754Y-53131800D01*
X86316738Y-52648941D01*
X85953157Y-52497969D01*
X88401000Y-52497969D01*
X88401000Y-53221250D01*
X88531750Y-53352000D01*
X89674000Y-53352000D01*
X89674000Y-52209750D01*
X91174000Y-52209750D01*
X91174000Y-53352000D01*
X92316250Y-53352000D01*
X92447000Y-53221250D01*
X92447000Y-52497969D01*
X92367378Y-52305744D01*
X92220256Y-52158622D01*
X92028031Y-52079000D01*
X91304750Y-52079000D01*
X91174000Y-52209750D01*
X89674000Y-52209750D01*
X89543250Y-52079000D01*
X88819969Y-52079000D01*
X88627744Y-52158622D01*
X88480622Y-52305744D01*
X88401000Y-52497969D01*
X85953157Y-52497969D01*
X85686631Y-52387298D01*
X85004362Y-52386703D01*
X84373800Y-52647246D01*
X83890941Y-53129262D01*
X83629298Y-53759369D01*
X83628703Y-54441638D01*
X80967212Y-54441638D01*
X80967212Y-52602000D01*
X80952220Y-52522326D01*
X80905133Y-52449150D01*
X80833286Y-52400059D01*
X80748000Y-52382788D01*
X77748000Y-52382788D01*
X77668326Y-52397780D01*
X77595150Y-52444867D01*
X77546059Y-52516714D01*
X77528788Y-52602000D01*
X74607339Y-52602000D01*
X74896572Y-52312767D01*
X74690635Y-52106678D01*
X73887275Y-52058560D01*
X73645365Y-52106678D01*
X73439428Y-52312767D01*
X66310000Y-52312767D01*
X66310000Y-51540000D01*
X66935000Y-51540000D01*
X66935000Y-51305000D01*
X68185000Y-51305000D01*
X68185000Y-51540000D01*
X69202250Y-51540000D01*
X69333000Y-51409250D01*
X69333000Y-50370967D01*
X95061000Y-50338365D01*
X95061000Y-51431250D01*
X95191750Y-51562000D01*
X96209000Y-51562000D01*
X96209000Y-51327000D01*
X97459000Y-51327000D01*
X97459000Y-51562000D01*
X98084000Y-51562000D01*
X98084000Y-54102000D01*
X97459000Y-54102000D01*
X97459000Y-55764250D01*
X97589750Y-55895000D01*
X98188031Y-55895000D01*
X98283000Y-55855663D01*
X98283000Y-56642000D01*
X98284182Y-56647836D01*
X98287541Y-56652752D01*
X98292548Y-56655974D01*
X98298000Y-56657000D01*
X103124000Y-56657000D01*
X103129836Y-56655818D01*
X103134752Y-56652459D01*
X103137974Y-56647452D01*
X103139000Y-56642000D01*
X103139000Y-55895000D01*
X103578250Y-55895000D01*
X103709000Y-55764250D01*
X103709000Y-54102000D01*
X104959000Y-54102000D01*
X104959000Y-55764250D01*
X105089750Y-55895000D01*
X105688031Y-55895000D01*
X105880256Y-55815378D01*
X106027378Y-55668256D01*
X106107000Y-55476031D01*
X106107000Y-54970750D01*
X110297000Y-54970750D01*
X110297000Y-56214031D01*
X110376622Y-56406256D01*
X110523744Y-56553378D01*
X110715969Y-56633000D01*
X111314250Y-56633000D01*
X111445000Y-56502250D01*
X111445000Y-54840000D01*
X110427750Y-54840000D01*
X110297000Y-54970750D01*
X106107000Y-54970750D01*
X106107000Y-54232750D01*
X105976250Y-54102000D01*
X104959000Y-54102000D01*
X103709000Y-54102000D01*
X103139000Y-54102000D01*
X103139000Y-51562000D01*
X103709000Y-51562000D01*
X103709000Y-51327000D01*
X104959000Y-51327000D01*
X104959000Y-51562000D01*
X105976250Y-51562000D01*
X106107000Y-51431250D01*
X106107000Y-50925969D01*
X110297000Y-50925969D01*
X110297000Y-52169250D01*
X110427750Y-52300000D01*
X111445000Y-52300000D01*
X111445000Y-50637750D01*
X111314250Y-50507000D01*
X110715969Y-50507000D01*
X110523744Y-50586622D01*
X110376622Y-50733744D01*
X110297000Y-50925969D01*
X106107000Y-50925969D01*
X106107000Y-50324368D01*
X113485000Y-50315019D01*
X113485000Y-50532254D01*
X113424031Y-50507000D01*
X112825750Y-50507000D01*
X112695000Y-50637750D01*
X112695000Y-52300000D01*
X113320000Y-52300000D01*
X113320000Y-54840000D01*
X112695000Y-54840000D01*
X112695000Y-56502250D01*
X112825750Y-56633000D01*
X113424031Y-56633000D01*
X113485000Y-56607746D01*
X113485000Y-63600000D01*
X113486182Y-63605836D01*
X113489541Y-63610752D01*
X113494548Y-63613974D01*
X113500000Y-63615000D01*
X136200000Y-63615000D01*
X136205836Y-63613818D01*
X136210752Y-63610459D01*
X136213974Y-63605452D01*
X136215000Y-63600000D01*
X136215000Y-59845706D01*
X144145813Y-59845706D01*
X145700000Y-61399893D01*
X147254187Y-59845706D01*
X146746046Y-59533808D01*
X145148624Y-59435412D01*
X144653954Y-59533808D01*
X144145813Y-59845706D01*
X136215000Y-59845706D01*
X136215000Y-59600000D01*
X136213818Y-59594164D01*
X136210459Y-59589248D01*
X136205452Y-59586026D01*
X136200000Y-59585000D01*
X136115000Y-59585000D01*
X136115000Y-56833000D01*
X136704250Y-56833000D01*
X136835000Y-56702250D01*
X136835000Y-55040000D01*
X138085000Y-55040000D01*
X138085000Y-56702250D01*
X138215750Y-56833000D01*
X138814031Y-56833000D01*
X139006256Y-56753378D01*
X139153378Y-56606256D01*
X139233000Y-56414031D01*
X139233000Y-55170750D01*
X139102250Y-55040000D01*
X138085000Y-55040000D01*
X136835000Y-55040000D01*
X136210000Y-55040000D01*
X136210000Y-53557759D01*
X143968662Y-53557759D01*
X143985964Y-53644741D01*
X144225522Y-54006711D01*
X145232233Y-53000000D01*
X144225522Y-51993289D01*
X143985964Y-52355259D01*
X143968662Y-53557759D01*
X136210000Y-53557759D01*
X136210000Y-52500000D01*
X136835000Y-52500000D01*
X136835000Y-50837750D01*
X138085000Y-50837750D01*
X138085000Y-52500000D01*
X139102250Y-52500000D01*
X139233000Y-52369250D01*
X139233000Y-51125969D01*
X139153378Y-50933744D01*
X139006256Y-50786622D01*
X138814031Y-50707000D01*
X138215750Y-50707000D01*
X138085000Y-50837750D01*
X136835000Y-50837750D01*
X136704250Y-50707000D01*
X136115000Y-50707000D01*
X136115000Y-50315000D01*
X146082767Y-50315000D01*
X147000000Y-51232233D01*
G36*
X131364050Y-50414736D02*
X131289393Y-50489393D01*
X131286102Y-50494356D01*
X131285000Y-50500000D01*
X131285000Y-50707000D01*
X130715750Y-50707000D01*
X130585000Y-50837750D01*
X130585000Y-52500000D01*
X131210000Y-52500000D01*
X131210000Y-55040000D01*
X130585000Y-55040000D01*
X130585000Y-56702250D01*
X130715750Y-56833000D01*
X131285000Y-56833000D01*
X131285000Y-59585000D01*
X117815000Y-59585000D01*
X117815000Y-56257487D01*
X117876622Y-56406256D01*
X118023744Y-56553378D01*
X118215969Y-56633000D01*
X118814250Y-56633000D01*
X118945000Y-56502250D01*
X118945000Y-54840000D01*
X120195000Y-54840000D01*
X120195000Y-56502250D01*
X120325750Y-56633000D01*
X120924031Y-56633000D01*
X121116256Y-56553378D01*
X121263378Y-56406256D01*
X121343000Y-56214031D01*
X121343000Y-55170750D01*
X128187000Y-55170750D01*
X128187000Y-56414031D01*
X128266622Y-56606256D01*
X128413744Y-56753378D01*
X128605969Y-56833000D01*
X129204250Y-56833000D01*
X129335000Y-56702250D01*
X129335000Y-55040000D01*
X128317750Y-55040000D01*
X128187000Y-55170750D01*
X121343000Y-55170750D01*
X121343000Y-54970750D01*
X121212250Y-54840000D01*
X120195000Y-54840000D01*
X118945000Y-54840000D01*
X118320000Y-54840000D01*
X118320000Y-52300000D01*
X118945000Y-52300000D01*
X118945000Y-50637750D01*
X120195000Y-50637750D01*
X120195000Y-52300000D01*
X121212250Y-52300000D01*
X121343000Y-52169250D01*
X121343000Y-51125969D01*
X128187000Y-51125969D01*
X128187000Y-52369250D01*
X128317750Y-52500000D01*
X129335000Y-52500000D01*
X129335000Y-50837750D01*
X129204250Y-50707000D01*
X128605969Y-50707000D01*
X128413744Y-50786622D01*
X128266622Y-50933744D01*
X128187000Y-51125969D01*
X121343000Y-51125969D01*
X121343000Y-50925969D01*
X121263378Y-50733744D01*
X121116256Y-50586622D01*
X120924031Y-50507000D01*
X120325750Y-50507000D01*
X120195000Y-50637750D01*
X118945000Y-50637750D01*
X118814250Y-50507000D01*
X118215969Y-50507000D01*
X118023744Y-50586622D01*
X117876622Y-50733744D01*
X117815000Y-50882513D01*
X117815000Y-50315111D01*
X131364050Y-50414736D01*
X131364050Y-50414736D01*
G37*
X131364050Y-50414736D02*
X131289393Y-50489393D01*
X131286102Y-50494356D01*
X131285000Y-50500000D01*
X131285000Y-50707000D01*
X130715750Y-50707000D01*
X130585000Y-50837750D01*
X130585000Y-52500000D01*
X131210000Y-52500000D01*
X131210000Y-55040000D01*
X130585000Y-55040000D01*
X130585000Y-56702250D01*
X130715750Y-56833000D01*
X131285000Y-56833000D01*
X131285000Y-59585000D01*
X117815000Y-59585000D01*
X117815000Y-56257487D01*
X117876622Y-56406256D01*
X118023744Y-56553378D01*
X118215969Y-56633000D01*
X118814250Y-56633000D01*
X118945000Y-56502250D01*
X118945000Y-54840000D01*
X120195000Y-54840000D01*
X120195000Y-56502250D01*
X120325750Y-56633000D01*
X120924031Y-56633000D01*
X121116256Y-56553378D01*
X121263378Y-56406256D01*
X121343000Y-56214031D01*
X121343000Y-55170750D01*
X128187000Y-55170750D01*
X128187000Y-56414031D01*
X128266622Y-56606256D01*
X128413744Y-56753378D01*
X128605969Y-56833000D01*
X129204250Y-56833000D01*
X129335000Y-56702250D01*
X129335000Y-55040000D01*
X128317750Y-55040000D01*
X128187000Y-55170750D01*
X121343000Y-55170750D01*
X121343000Y-54970750D01*
X121212250Y-54840000D01*
X120195000Y-54840000D01*
X118945000Y-54840000D01*
X118320000Y-54840000D01*
X118320000Y-52300000D01*
X118945000Y-52300000D01*
X118945000Y-50637750D01*
X120195000Y-50637750D01*
X120195000Y-52300000D01*
X121212250Y-52300000D01*
X121343000Y-52169250D01*
X121343000Y-51125969D01*
X128187000Y-51125969D01*
X128187000Y-52369250D01*
X128317750Y-52500000D01*
X129335000Y-52500000D01*
X129335000Y-50837750D01*
X129204250Y-50707000D01*
X128605969Y-50707000D01*
X128413744Y-50786622D01*
X128266622Y-50933744D01*
X128187000Y-51125969D01*
X121343000Y-51125969D01*
X121343000Y-50925969D01*
X121263378Y-50733744D01*
X121116256Y-50586622D01*
X120924031Y-50507000D01*
X120325750Y-50507000D01*
X120195000Y-50637750D01*
X118945000Y-50637750D01*
X118814250Y-50507000D01*
X118215969Y-50507000D01*
X118023744Y-50586622D01*
X117876622Y-50733744D01*
X117815000Y-50882513D01*
X117815000Y-50315111D01*
X131364050Y-50414736D01*
M02*
