G04 #@! TF.FileFunction,Soldermask,Bot*
%FSLAX46Y46*%
G04 Gerber Fmt 4.6, Leading zero omitted, Abs format (unit mm)*
G04 Created by KiCad (PCBNEW 4.0.7) date 05/05/20 20:17:16*
%MOMM*%
%LPD*%
G01*
G04 APERTURE LIST*
%ADD10C,0.100000*%
%ADD11R,2.900000X5.480000*%
%ADD12C,5.400000*%
%ADD13R,5.480000X2.900000*%
%ADD14C,4.210000*%
%ADD15C,3.956000*%
%ADD16R,3.400000X3.400000*%
%ADD17C,3.400000*%
%ADD18C,7.400000*%
%ADD19R,2.000000X2.800000*%
%ADD20O,2.000000X2.800000*%
%ADD21O,1.900000X0.800000*%
%ADD22O,1.900000X1.000000*%
%ADD23O,1.400000X0.800000*%
%ADD24O,1.900000X1.600000*%
%ADD25O,1.900000X1.400000*%
%ADD26O,1.650000X0.800000*%
%ADD27O,1.900000X1.200000*%
%ADD28C,1.900000*%
G04 APERTURE END LIST*
D10*
D11*
X137460000Y-53770000D03*
X129960000Y-53770000D03*
D12*
X53000000Y-53000000D03*
X147000000Y-53000000D03*
X53000000Y-147000000D03*
X147000000Y-147000000D03*
D11*
X119570000Y-53570000D03*
X112070000Y-53570000D03*
D13*
X53925000Y-62575000D03*
X53925000Y-70075000D03*
X53800000Y-81600000D03*
X53800000Y-89100000D03*
X53800000Y-102175000D03*
X53800000Y-109675000D03*
X53725000Y-121100000D03*
X53725000Y-128600000D03*
X146675000Y-140100000D03*
X146675000Y-132600000D03*
D11*
X132400000Y-146425000D03*
X139900000Y-146425000D03*
X115275000Y-146425000D03*
X122775000Y-146425000D03*
X96775000Y-146750000D03*
X104275000Y-146750000D03*
X77950000Y-146675000D03*
X85450000Y-146675000D03*
D14*
X110363000Y-82931000D03*
D15*
X107188000Y-79756000D03*
D14*
X104013000Y-82931000D03*
X110363000Y-76581000D03*
X104013000Y-76581000D03*
X92075000Y-83185000D03*
D15*
X88900000Y-80010000D03*
D14*
X85725000Y-83185000D03*
X92075000Y-76835000D03*
X85725000Y-76835000D03*
X106426000Y-107124500D03*
D15*
X109601000Y-110299500D03*
D14*
X112776000Y-107124500D03*
X106426000Y-113474500D03*
X112776000Y-113474500D03*
X88975000Y-122800000D03*
D15*
X92150000Y-125975000D03*
D14*
X95325000Y-122800000D03*
X88975000Y-129150000D03*
X95325000Y-129150000D03*
X106350000Y-122800000D03*
D15*
X109525000Y-125975000D03*
D14*
X112700000Y-122800000D03*
X106350000Y-129150000D03*
X112700000Y-129150000D03*
X90373200Y-107289600D03*
D15*
X93548200Y-110464600D03*
D14*
X96723200Y-107289600D03*
X90373200Y-113639600D03*
X96723200Y-113639600D03*
X63373000Y-139065000D03*
D15*
X66548000Y-142240000D03*
D14*
X69723000Y-139065000D03*
X63373000Y-145415000D03*
X69723000Y-145415000D03*
D11*
X67560000Y-52810000D03*
X60060000Y-52810000D03*
D16*
X79248000Y-54102000D03*
D17*
X74168000Y-54102000D03*
D13*
X146558000Y-122368000D03*
X146558000Y-114868000D03*
D18*
X130810000Y-110490000D03*
X145700000Y-63500000D03*
D14*
X121539000Y-122047000D03*
D15*
X124714000Y-125222000D03*
D14*
X127889000Y-122047000D03*
X121539000Y-128397000D03*
X127889000Y-128397000D03*
D19*
X116078000Y-69596000D03*
D20*
X133858000Y-61976000D03*
X118618000Y-69596000D03*
X131318000Y-61976000D03*
X121158000Y-69596000D03*
X128778000Y-61976000D03*
X123698000Y-69596000D03*
X126238000Y-61976000D03*
X126238000Y-69596000D03*
X123698000Y-61976000D03*
X128778000Y-69596000D03*
X121158000Y-61976000D03*
X131318000Y-69596000D03*
X118618000Y-61976000D03*
X133858000Y-69596000D03*
X116078000Y-61976000D03*
D19*
X89100000Y-98850000D03*
D20*
X106880000Y-91230000D03*
X91640000Y-98850000D03*
X104340000Y-91230000D03*
X94180000Y-98850000D03*
X101800000Y-91230000D03*
X96720000Y-98850000D03*
X99260000Y-91230000D03*
X99260000Y-98850000D03*
X96720000Y-91230000D03*
X101800000Y-98850000D03*
X94180000Y-91230000D03*
X104340000Y-98850000D03*
X91640000Y-91230000D03*
X106880000Y-98850000D03*
X89100000Y-91230000D03*
D16*
X90424000Y-54102000D03*
D17*
X85344000Y-54102000D03*
D11*
X104334000Y-52832000D03*
X96834000Y-52832000D03*
D21*
X141200000Y-84900000D03*
D22*
X137800000Y-85000000D03*
D23*
X148500000Y-84900000D03*
D24*
X127400000Y-86000000D03*
D25*
X131100000Y-85600000D03*
D26*
X145000000Y-84900000D03*
D27*
X134500000Y-85300000D03*
D28*
X123300000Y-86500000D03*
M02*
