G04 #@! TF.FileFunction,Soldermask,Top*
%FSLAX46Y46*%
G04 Gerber Fmt 4.6, Leading zero omitted, Abs format (unit mm)*
G04 Created by KiCad (PCBNEW 4.0.7) date 10/23/19 00:29:10*
%MOMM*%
%LPD*%
G01*
G04 APERTURE LIST*
%ADD10C,0.100000*%
%ADD11R,2.900000X5.480000*%
%ADD12R,1.900000X5.480000*%
%ADD13C,5.400000*%
%ADD14R,2.000000X2.800000*%
%ADD15O,2.000000X2.800000*%
%ADD16R,2.100000X2.100000*%
%ADD17O,2.100000X2.100000*%
%ADD18R,5.480000X2.900000*%
%ADD19R,5.480000X1.900000*%
%ADD20R,1.900000X1.700000*%
%ADD21R,1.700000X1.900000*%
%ADD22C,4.210000*%
%ADD23C,3.956000*%
%ADD24R,3.400000X3.400000*%
%ADD25C,3.400000*%
%ADD26C,7.400000*%
G04 APERTURE END LIST*
D10*
D11*
X137460000Y-53770000D03*
X129960000Y-53770000D03*
D12*
X133710000Y-53770000D03*
D13*
X53000000Y-53000000D03*
X147000000Y-53000000D03*
X53000000Y-147000000D03*
X147000000Y-147000000D03*
D11*
X119570000Y-53570000D03*
X112070000Y-53570000D03*
D12*
X115820000Y-53570000D03*
D14*
X116078000Y-69596000D03*
D15*
X133858000Y-61976000D03*
X118618000Y-69596000D03*
X131318000Y-61976000D03*
X121158000Y-69596000D03*
X128778000Y-61976000D03*
X123698000Y-69596000D03*
X126238000Y-61976000D03*
X126238000Y-69596000D03*
X123698000Y-61976000D03*
X128778000Y-69596000D03*
X121158000Y-61976000D03*
X131318000Y-69596000D03*
X118618000Y-61976000D03*
X133858000Y-69596000D03*
X116078000Y-61976000D03*
D14*
X89154000Y-100076000D03*
D15*
X106934000Y-92456000D03*
X91694000Y-100076000D03*
X104394000Y-92456000D03*
X94234000Y-100076000D03*
X101854000Y-92456000D03*
X96774000Y-100076000D03*
X99314000Y-92456000D03*
X99314000Y-100076000D03*
X96774000Y-92456000D03*
X101854000Y-100076000D03*
X94234000Y-92456000D03*
X104394000Y-100076000D03*
X91694000Y-92456000D03*
X106934000Y-100076000D03*
X89154000Y-92456000D03*
D16*
X123698000Y-58166000D03*
D17*
X126238000Y-58166000D03*
D16*
X97028000Y-87884000D03*
D17*
X99568000Y-87884000D03*
D18*
X53925000Y-62575000D03*
X53925000Y-70075000D03*
D19*
X53925000Y-66325000D03*
D18*
X53800000Y-81600000D03*
X53800000Y-89100000D03*
D19*
X53800000Y-85350000D03*
D18*
X53800000Y-102175000D03*
X53800000Y-109675000D03*
D19*
X53800000Y-105925000D03*
D18*
X53725000Y-121100000D03*
X53725000Y-128600000D03*
D19*
X53725000Y-124850000D03*
D20*
X61650000Y-66250000D03*
X58950000Y-66250000D03*
X62150000Y-85275000D03*
X59450000Y-85275000D03*
X61475000Y-105950000D03*
X58775000Y-105950000D03*
X61650000Y-124900000D03*
X58950000Y-124900000D03*
D18*
X146675000Y-140100000D03*
X146675000Y-132600000D03*
D19*
X146675000Y-136350000D03*
D11*
X132400000Y-146425000D03*
X139900000Y-146425000D03*
D12*
X136150000Y-146425000D03*
D11*
X115275000Y-146425000D03*
X122775000Y-146425000D03*
D12*
X119025000Y-146425000D03*
D11*
X97150000Y-146500000D03*
X104650000Y-146500000D03*
D12*
X100900000Y-146500000D03*
D11*
X77950000Y-146675000D03*
X85450000Y-146675000D03*
D12*
X81700000Y-146675000D03*
D21*
X81600000Y-138575000D03*
X81600000Y-141275000D03*
D22*
X110363000Y-82931000D03*
D23*
X107188000Y-79756000D03*
D22*
X104013000Y-82931000D03*
X110363000Y-76581000D03*
X104013000Y-76581000D03*
X92075000Y-83185000D03*
D23*
X88900000Y-80010000D03*
D22*
X85725000Y-83185000D03*
X92075000Y-76835000D03*
X85725000Y-76835000D03*
X88925000Y-107350000D03*
D23*
X92100000Y-110525000D03*
D22*
X95275000Y-107350000D03*
X88925000Y-113700000D03*
X95275000Y-113700000D03*
X88975000Y-122800000D03*
D23*
X92150000Y-125975000D03*
D22*
X95325000Y-122800000D03*
X88975000Y-129150000D03*
X95325000Y-129150000D03*
X106350000Y-122800000D03*
D23*
X109525000Y-125975000D03*
D22*
X112700000Y-122800000D03*
X106350000Y-129150000D03*
X112700000Y-129150000D03*
X106450000Y-107325000D03*
D23*
X109625000Y-110500000D03*
D22*
X112800000Y-107325000D03*
X106450000Y-113675000D03*
X112800000Y-113675000D03*
X63373000Y-139065000D03*
D23*
X66548000Y-142240000D03*
D22*
X69723000Y-139065000D03*
X63373000Y-145415000D03*
X69723000Y-145415000D03*
D20*
X56308000Y-142240000D03*
X59008000Y-142240000D03*
D22*
X94869000Y-64135000D03*
D23*
X98044000Y-67310000D03*
D22*
X101219000Y-64135000D03*
X94869000Y-70485000D03*
X101219000Y-70485000D03*
D24*
X97790000Y-54610000D03*
D25*
X102870000Y-54610000D03*
D11*
X70044000Y-53848000D03*
X62544000Y-53848000D03*
D12*
X66294000Y-53848000D03*
D24*
X85344000Y-54610000D03*
D25*
X90424000Y-54610000D03*
D18*
X146558000Y-122368000D03*
X146558000Y-114868000D03*
D19*
X146558000Y-118618000D03*
D26*
X130810000Y-106426000D03*
X131064000Y-82804000D03*
D22*
X121539000Y-122047000D03*
D23*
X124714000Y-125222000D03*
D22*
X127889000Y-122047000D03*
X121539000Y-128397000D03*
X127889000Y-128397000D03*
M02*
