M48
;DRILL file {KiCad 4.0.7} date 10/23/19 14:22:34
;FORMAT={-:-/ absolute / metric / decimal}
FMAT,2
METRIC,TZ
T1C0.400
T2C0.800
T3C1.000
T4C1.270
T5C1.520
T6C1.524
T7C3.048
T8C3.800
%
G90
G05
M71
T1
X53.525Y-91.75
X53.6Y-99.85
X53.65Y-73.725
X53.7Y-78.675
X53.725Y-118.675
X53.875Y-112.775
X53.925Y-60.25
X53.925Y-131.55
X54.356Y-141.986
X55.3Y-60.15
X55.375Y-99.975
X55.5Y-118.525
X55.7Y-73.8
X55.825Y-112.825
X56.Y-78.85
X56.134Y-139.446
X56.15Y-131.475
X56.325Y-91.75
X56.642Y-144.272
X59.69Y-53.086
X59.69Y-54.864
X61.45Y-104.25
X61.525Y-107.55
X61.6Y-64.775
X61.625Y-67.725
X61.65Y-123.25
X61.825Y-126.75
X62.15Y-83.75
X62.225Y-86.825
X62.9Y-106.
X63.125Y-66.175
X63.225Y-125.025
X63.45Y-85.375
X72.644Y-53.086
X72.644Y-54.864
X75.184Y-145.542
X75.184Y-147.32
X79.75Y-138.425
X81.575Y-136.85
X83.6Y-138.65
X88.9Y-144.78
X88.9Y-147.066
X93.218Y-145.034
X93.472Y-147.066
X107.95Y-144.78
X107.95Y-147.32
X108.712Y-52.578
X108.712Y-54.61
X111.76Y-144.78
X112.014Y-146.812
X122.682Y-54.102
X122.936Y-52.07
X125.222Y-147.32
X125.476Y-145.034
X126.492Y-52.07
X126.492Y-54.102
X129.032Y-144.78
X129.286Y-147.32
X140.208Y-55.118
X140.462Y-52.07
X141.732Y-116.332
X141.986Y-114.3
X142.748Y-145.034
X143.002Y-147.574
X143.256Y-129.286
X143.51Y-125.73
X144.526Y-143.002
X146.304Y-125.73
X146.304Y-129.286
X146.812Y-142.748
T2
X89.154Y-92.456
X89.154Y-100.076
X91.694Y-92.456
X91.694Y-100.076
X94.234Y-92.456
X94.234Y-100.076
X96.774Y-92.456
X96.774Y-100.076
X99.314Y-92.456
X99.314Y-100.076
X101.854Y-92.456
X101.854Y-100.076
X104.394Y-92.456
X104.394Y-100.076
X106.934Y-92.456
X106.934Y-100.076
X116.078Y-61.976
X116.078Y-69.596
X118.618Y-61.976
X118.618Y-69.596
X121.158Y-61.976
X121.158Y-69.596
X123.698Y-61.976
X123.698Y-69.596
X126.238Y-61.976
X126.238Y-69.596
X128.778Y-61.976
X128.778Y-69.596
X131.318Y-61.976
X131.318Y-69.596
X133.858Y-61.976
X133.858Y-69.596
T3
X97.028Y-87.884
X99.568Y-87.884
X123.698Y-58.166
X126.238Y-58.166
T4
X66.548Y-142.24
X88.9Y-80.01
X92.15Y-125.975
X93.548Y-110.465
X101.219Y-62.611
X107.188Y-79.756
X109.525Y-125.975
X109.601Y-110.299
X124.714Y-125.222
T5
X85.344Y-54.61
X90.424Y-54.61
T6
X63.373Y-139.065
X63.373Y-145.415
X69.723Y-139.065
X69.723Y-145.415
X85.725Y-76.835
X85.725Y-83.185
X88.975Y-122.8
X88.975Y-129.15
X90.373Y-107.29
X90.373Y-113.64
X92.075Y-76.835
X92.075Y-83.185
X95.325Y-122.8
X95.325Y-129.15
X96.723Y-107.29
X96.723Y-113.64
X98.044Y-59.436
X98.044Y-65.786
X104.013Y-76.581
X104.013Y-82.931
X104.394Y-59.436
X104.394Y-65.786
X106.35Y-122.8
X106.35Y-129.15
X106.426Y-107.124
X106.426Y-113.474
X110.363Y-76.581
X110.363Y-82.931
X112.7Y-122.8
X112.7Y-129.15
X112.776Y-107.124
X112.776Y-113.474
X121.539Y-122.047
X121.539Y-128.397
X127.889Y-122.047
X127.889Y-128.397
T7
X53.Y-53.
X53.Y-147.
X147.Y-53.
X147.Y-147.
T8
X130.81Y-110.49
X145.4Y-77.5
T0
M30
