G04 #@! TF.FileFunction,Soldermask,Top*
%FSLAX46Y46*%
G04 Gerber Fmt 4.6, Leading zero omitted, Abs format (unit mm)*
G04 Created by KiCad (PCBNEW 4.0.7) date 11/25/19 22:23:23*
%MOMM*%
%LPD*%
G01*
G04 APERTURE LIST*
%ADD10C,0.100000*%
%ADD11R,2.900000X5.480000*%
%ADD12R,1.900000X5.480000*%
%ADD13C,5.400000*%
%ADD14R,5.480000X2.900000*%
%ADD15R,5.480000X1.900000*%
%ADD16R,1.900000X1.700000*%
%ADD17R,1.700000X1.900000*%
%ADD18C,4.210000*%
%ADD19C,3.956000*%
%ADD20R,3.400000X3.400000*%
%ADD21C,3.400000*%
%ADD22C,7.400000*%
%ADD23R,2.000000X2.800000*%
%ADD24O,2.000000X2.800000*%
%ADD25C,0.800000*%
%ADD26C,1.000000*%
%ADD27C,1.600000*%
%ADD28C,1.400000*%
%ADD29C,1.200000*%
%ADD30C,1.900000*%
%ADD31C,0.500000*%
G04 APERTURE END LIST*
D10*
D11*
X137460000Y-53770000D03*
X129960000Y-53770000D03*
D12*
X133710000Y-53770000D03*
D13*
X53000000Y-53000000D03*
X147000000Y-53000000D03*
X53000000Y-147000000D03*
X147000000Y-147000000D03*
D11*
X119570000Y-53570000D03*
X112070000Y-53570000D03*
D12*
X115820000Y-53570000D03*
D14*
X53925000Y-62575000D03*
X53925000Y-70075000D03*
D15*
X53925000Y-66325000D03*
D14*
X53800000Y-81600000D03*
X53800000Y-89100000D03*
D15*
X53800000Y-85350000D03*
D14*
X53800000Y-102175000D03*
X53800000Y-109675000D03*
D15*
X53800000Y-105925000D03*
D14*
X53725000Y-121100000D03*
X53725000Y-128600000D03*
D15*
X53725000Y-124850000D03*
D16*
X61650000Y-66250000D03*
X58950000Y-66250000D03*
X62150000Y-85275000D03*
X59450000Y-85275000D03*
X61475000Y-105950000D03*
X58775000Y-105950000D03*
X61650000Y-124900000D03*
X58950000Y-124900000D03*
D14*
X146675000Y-140100000D03*
X146675000Y-132600000D03*
D15*
X146675000Y-136350000D03*
D11*
X132400000Y-146425000D03*
X139900000Y-146425000D03*
D12*
X136150000Y-146425000D03*
D11*
X115275000Y-146425000D03*
X122775000Y-146425000D03*
D12*
X119025000Y-146425000D03*
D11*
X96775000Y-146750000D03*
X104275000Y-146750000D03*
D12*
X100525000Y-146750000D03*
D11*
X77950000Y-146675000D03*
X85450000Y-146675000D03*
D12*
X81700000Y-146675000D03*
D17*
X82804000Y-138604000D03*
X82804000Y-141304000D03*
D18*
X110363000Y-82931000D03*
D19*
X107188000Y-79756000D03*
D18*
X104013000Y-82931000D03*
X110363000Y-76581000D03*
X104013000Y-76581000D03*
X92075000Y-83185000D03*
D19*
X88900000Y-80010000D03*
D18*
X85725000Y-83185000D03*
X92075000Y-76835000D03*
X85725000Y-76835000D03*
X106426000Y-107124500D03*
D19*
X109601000Y-110299500D03*
D18*
X112776000Y-107124500D03*
X106426000Y-113474500D03*
X112776000Y-113474500D03*
X88975000Y-122800000D03*
D19*
X92150000Y-125975000D03*
D18*
X95325000Y-122800000D03*
X88975000Y-129150000D03*
X95325000Y-129150000D03*
X106350000Y-122800000D03*
D19*
X109525000Y-125975000D03*
D18*
X112700000Y-122800000D03*
X106350000Y-129150000D03*
X112700000Y-129150000D03*
X90373200Y-107289600D03*
D19*
X93548200Y-110464600D03*
D18*
X96723200Y-107289600D03*
X90373200Y-113639600D03*
X96723200Y-113639600D03*
X63373000Y-139065000D03*
D19*
X66548000Y-142240000D03*
D18*
X69723000Y-139065000D03*
X63373000Y-145415000D03*
X69723000Y-145415000D03*
D16*
X56308000Y-142748000D03*
X59008000Y-142748000D03*
D11*
X67560000Y-52810000D03*
X60060000Y-52810000D03*
D12*
X63810000Y-52810000D03*
D20*
X79248000Y-54102000D03*
D21*
X74168000Y-54102000D03*
D14*
X146558000Y-122368000D03*
X146558000Y-114868000D03*
D15*
X146558000Y-118618000D03*
D22*
X130810000Y-110490000D03*
X145700000Y-63500000D03*
D18*
X121539000Y-122047000D03*
D19*
X124714000Y-125222000D03*
D18*
X127889000Y-122047000D03*
X121539000Y-128397000D03*
X127889000Y-128397000D03*
D23*
X116078000Y-69596000D03*
D24*
X133858000Y-61976000D03*
X118618000Y-69596000D03*
X131318000Y-61976000D03*
X121158000Y-69596000D03*
X128778000Y-61976000D03*
X123698000Y-69596000D03*
X126238000Y-61976000D03*
X126238000Y-69596000D03*
X123698000Y-61976000D03*
X128778000Y-69596000D03*
X121158000Y-61976000D03*
X131318000Y-69596000D03*
X118618000Y-61976000D03*
X133858000Y-69596000D03*
X116078000Y-61976000D03*
D23*
X89100000Y-98850000D03*
D24*
X106880000Y-91230000D03*
X91640000Y-98850000D03*
X104340000Y-91230000D03*
X94180000Y-98850000D03*
X101800000Y-91230000D03*
X96720000Y-98850000D03*
X99260000Y-91230000D03*
X99260000Y-98850000D03*
X96720000Y-91230000D03*
X101800000Y-98850000D03*
X94180000Y-91230000D03*
X104340000Y-98850000D03*
X91640000Y-91230000D03*
X106880000Y-98850000D03*
X89100000Y-91230000D03*
D16*
X56308000Y-140462000D03*
X59008000Y-140462000D03*
D17*
X80518000Y-138604000D03*
X80518000Y-141304000D03*
D20*
X90424000Y-54102000D03*
D21*
X85344000Y-54102000D03*
D11*
X104334000Y-52832000D03*
X96834000Y-52832000D03*
D12*
X100584000Y-52832000D03*
D25*
X141190000Y-84200000D03*
D26*
X137660000Y-84550000D03*
D25*
X148800000Y-84210000D03*
D27*
X127350000Y-85830000D03*
D28*
X130930000Y-85360000D03*
D25*
X144980000Y-84200000D03*
D29*
X134450000Y-84990000D03*
D30*
X123190000Y-86250000D03*
D31*
G36*
X149250000Y-106250000D02*
X121750000Y-106250000D01*
X121750000Y-74250000D01*
X149250000Y-74250000D01*
X149250000Y-106250000D01*
X149250000Y-106250000D01*
G37*
X149250000Y-106250000D02*
X121750000Y-106250000D01*
X121750000Y-74250000D01*
X149250000Y-74250000D01*
X149250000Y-106250000D01*
M02*
