G04 #@! TF.FileFunction,Copper,L2,Bot,Signal*
%FSLAX46Y46*%
G04 Gerber Fmt 4.6, Leading zero omitted, Abs format (unit mm)*
G04 Created by KiCad (PCBNEW 4.0.7) date 10/25/19 00:48:06*
%MOMM*%
%LPD*%
G01*
G04 APERTURE LIST*
%ADD10C,0.100000*%
%ADD11R,2.500000X5.080000*%
%ADD12C,5.000000*%
%ADD13R,1.600000X2.400000*%
%ADD14O,1.600000X2.400000*%
%ADD15R,5.080000X2.500000*%
%ADD16C,3.810000*%
%ADD17C,3.556000*%
%ADD18R,3.000000X3.000000*%
%ADD19C,3.000000*%
%ADD20C,7.000000*%
%ADD21C,0.600000*%
%ADD22C,0.500000*%
%ADD23C,1.000000*%
G04 APERTURE END LIST*
D10*
D11*
X137460000Y-53770000D03*
X129960000Y-53770000D03*
D12*
X53000000Y-53000000D03*
X147000000Y-53000000D03*
X53000000Y-147000000D03*
X147000000Y-147000000D03*
D11*
X119570000Y-53570000D03*
X112070000Y-53570000D03*
D13*
X116078000Y-69596000D03*
D14*
X133858000Y-61976000D03*
X118618000Y-69596000D03*
X131318000Y-61976000D03*
X121158000Y-69596000D03*
X128778000Y-61976000D03*
X123698000Y-69596000D03*
X126238000Y-61976000D03*
X126238000Y-69596000D03*
X123698000Y-61976000D03*
X128778000Y-69596000D03*
X121158000Y-61976000D03*
X131318000Y-69596000D03*
X118618000Y-61976000D03*
X133858000Y-69596000D03*
X116078000Y-61976000D03*
D13*
X89100000Y-98850000D03*
D14*
X106880000Y-91230000D03*
X91640000Y-98850000D03*
X104340000Y-91230000D03*
X94180000Y-98850000D03*
X101800000Y-91230000D03*
X96720000Y-98850000D03*
X99260000Y-91230000D03*
X99260000Y-98850000D03*
X96720000Y-91230000D03*
X101800000Y-98850000D03*
X94180000Y-91230000D03*
X104340000Y-98850000D03*
X91640000Y-91230000D03*
X106880000Y-98850000D03*
X89100000Y-91230000D03*
D15*
X53925000Y-62575000D03*
X53925000Y-70075000D03*
X53800000Y-81600000D03*
X53800000Y-89100000D03*
X53800000Y-102175000D03*
X53800000Y-109675000D03*
X53725000Y-121100000D03*
X53725000Y-128600000D03*
X146675000Y-140100000D03*
X146675000Y-132600000D03*
D11*
X132400000Y-146425000D03*
X139900000Y-146425000D03*
X115275000Y-146425000D03*
X122775000Y-146425000D03*
X96775000Y-146750000D03*
X104275000Y-146750000D03*
X77950000Y-146675000D03*
X85450000Y-146675000D03*
D16*
X110363000Y-82931000D03*
D17*
X107188000Y-79756000D03*
D16*
X104013000Y-82931000D03*
X110363000Y-76581000D03*
X104013000Y-76581000D03*
X92075000Y-83185000D03*
D17*
X88900000Y-80010000D03*
D16*
X85725000Y-83185000D03*
X92075000Y-76835000D03*
X85725000Y-76835000D03*
X106426000Y-107124500D03*
D17*
X109601000Y-110299500D03*
D16*
X112776000Y-107124500D03*
X106426000Y-113474500D03*
X112776000Y-113474500D03*
X88975000Y-122800000D03*
D17*
X92150000Y-125975000D03*
D16*
X95325000Y-122800000D03*
X88975000Y-129150000D03*
X95325000Y-129150000D03*
X106350000Y-122800000D03*
D17*
X109525000Y-125975000D03*
D16*
X112700000Y-122800000D03*
X106350000Y-129150000D03*
X112700000Y-129150000D03*
X90373200Y-107289600D03*
D17*
X93548200Y-110464600D03*
D16*
X96723200Y-107289600D03*
X90373200Y-113639600D03*
X96723200Y-113639600D03*
X63373000Y-139065000D03*
D17*
X66548000Y-142240000D03*
D16*
X69723000Y-139065000D03*
X63373000Y-145415000D03*
X69723000Y-145415000D03*
X95525000Y-53225000D03*
D17*
X98700000Y-56400000D03*
D16*
X101875000Y-53225000D03*
X95525000Y-59575000D03*
X101875000Y-59575000D03*
D11*
X70044000Y-53848000D03*
X62544000Y-53848000D03*
D18*
X82100000Y-54400000D03*
D19*
X87180000Y-54400000D03*
D15*
X146558000Y-122368000D03*
X146558000Y-114868000D03*
D20*
X130810000Y-110490000D03*
X145700000Y-63500000D03*
D16*
X121539000Y-122047000D03*
D17*
X124714000Y-125222000D03*
D16*
X127889000Y-122047000D03*
X121539000Y-128397000D03*
X127889000Y-128397000D03*
D21*
X93218000Y-145034000D03*
X93472000Y-147066000D03*
X107950000Y-144780000D03*
X107950000Y-147320000D03*
X140462000Y-52070000D03*
X140208000Y-55118000D03*
X108712000Y-52578000D03*
X108712000Y-54610000D03*
X75184000Y-145542000D03*
X75184000Y-147320000D03*
X88900000Y-144780000D03*
X88900000Y-147066000D03*
X111760000Y-144780000D03*
X112014000Y-146812000D03*
X125476000Y-145034000D03*
X125222000Y-147320000D03*
X129032000Y-144780000D03*
X129286000Y-147320000D03*
X142748000Y-145034000D03*
X143002000Y-147574000D03*
X144526000Y-143002000D03*
X146812000Y-142748000D03*
X143256000Y-129286000D03*
X146304000Y-129286000D03*
X143510000Y-125730000D03*
X146304000Y-125730000D03*
X141732000Y-116332000D03*
X141986000Y-114300000D03*
X126492000Y-54102000D03*
X126492000Y-52070000D03*
X122682000Y-54102000D03*
X122936000Y-52070000D03*
X56642000Y-144272000D03*
X54356000Y-141986000D03*
X56134000Y-139446000D03*
X72644000Y-54864000D03*
X72644000Y-53086000D03*
X59690000Y-54864000D03*
X59690000Y-53086000D03*
X79750000Y-138425000D03*
X81575000Y-136850000D03*
X83600000Y-138650000D03*
X63225000Y-125025000D03*
X63450000Y-85375000D03*
X62150000Y-83750000D03*
X62225000Y-86825000D03*
X62900000Y-106000000D03*
X61525000Y-107550000D03*
X61450000Y-104250000D03*
X61825000Y-126750000D03*
X61650000Y-123250000D03*
X56150000Y-131475000D03*
X53925000Y-131550000D03*
X55500000Y-118525000D03*
X53725000Y-118675000D03*
X55825000Y-112825000D03*
X53875000Y-112775000D03*
X55375000Y-99975000D03*
X53600000Y-99850000D03*
X56325000Y-91750000D03*
X53525000Y-91750000D03*
X56000000Y-78850000D03*
X53700000Y-78675000D03*
X55700000Y-73800000D03*
X53650000Y-73725000D03*
X55300000Y-60150000D03*
X53925000Y-60250000D03*
X63125000Y-66175000D03*
X61625000Y-67725000D03*
X61600000Y-64775000D03*
D22*
X93218000Y-146812000D02*
X93218000Y-145034000D01*
X93472000Y-147066000D02*
X93218000Y-146812000D01*
X107950000Y-147320000D02*
X107950000Y-144780000D01*
D23*
X117157500Y-117665500D02*
X121539000Y-122047000D01*
X117157500Y-107950000D02*
X117157500Y-117665500D01*
X116332000Y-107124500D02*
X117157500Y-107950000D01*
X112776000Y-107124500D02*
X116332000Y-107124500D01*
X112776000Y-107124500D02*
X106426000Y-107124500D01*
X112776000Y-113474500D02*
X112776000Y-107124500D01*
X106426000Y-113474500D02*
X112776000Y-113474500D01*
X106426000Y-107124500D02*
X106426000Y-113474500D01*
X106880000Y-98850000D02*
X106934000Y-106616500D01*
X106934000Y-106616500D02*
X106426000Y-107124500D01*
D22*
X140462000Y-54864000D02*
X140462000Y-52070000D01*
X140208000Y-55118000D02*
X140462000Y-54864000D01*
X108712000Y-54610000D02*
X108712000Y-52578000D01*
X75184000Y-147320000D02*
X75184000Y-145542000D01*
X88900000Y-147066000D02*
X88900000Y-144780000D01*
X111760000Y-146558000D02*
X111760000Y-144780000D01*
X112014000Y-146812000D02*
X111760000Y-146558000D01*
X125476000Y-147066000D02*
X125476000Y-145034000D01*
X125222000Y-147320000D02*
X125476000Y-147066000D01*
X129032000Y-147066000D02*
X129032000Y-144780000D01*
X129286000Y-147320000D02*
X129032000Y-147066000D01*
X142748000Y-147320000D02*
X142748000Y-145034000D01*
X143002000Y-147574000D02*
X142748000Y-147320000D01*
X146558000Y-143002000D02*
X144526000Y-143002000D01*
X146812000Y-142748000D02*
X146558000Y-143002000D01*
X146304000Y-129286000D02*
X143256000Y-129286000D01*
X146304000Y-125730000D02*
X143510000Y-125730000D01*
X141732000Y-114554000D02*
X141732000Y-116332000D01*
X141986000Y-114300000D02*
X141732000Y-114554000D01*
X126492000Y-52070000D02*
X126492000Y-54102000D01*
X122682000Y-52324000D02*
X122682000Y-54102000D01*
X122936000Y-52070000D02*
X122682000Y-52324000D01*
D23*
X131318000Y-78867000D02*
X131064000Y-69850000D01*
X131064000Y-69850000D02*
X131318000Y-69596000D01*
D22*
X72644000Y-53086000D02*
X72644000Y-54864000D01*
X59690000Y-53086000D02*
X59690000Y-54864000D01*
X62225000Y-86825000D02*
X62225000Y-86850000D01*
X61825000Y-126750000D02*
X61800000Y-126750000D01*
X54000000Y-131475000D02*
X56150000Y-131475000D01*
X53925000Y-131550000D02*
X54000000Y-131475000D01*
X53875000Y-118525000D02*
X55500000Y-118525000D01*
X53725000Y-118675000D02*
X53875000Y-118525000D01*
X53925000Y-112825000D02*
X55825000Y-112825000D01*
X53875000Y-112775000D02*
X53925000Y-112825000D01*
X53725000Y-99975000D02*
X55375000Y-99975000D01*
X53600000Y-99850000D02*
X53725000Y-99975000D01*
X53525000Y-91750000D02*
X56325000Y-91750000D01*
X53875000Y-78850000D02*
X56000000Y-78850000D01*
X53700000Y-78675000D02*
X53875000Y-78850000D01*
X53725000Y-73800000D02*
X55700000Y-73800000D01*
X53650000Y-73725000D02*
X53725000Y-73800000D01*
X54025000Y-60150000D02*
X55300000Y-60150000D01*
X53925000Y-60250000D02*
X54025000Y-60150000D01*
G36*
X60651398Y-50878628D02*
X60536000Y-51157225D01*
X60536000Y-52408500D01*
X60725500Y-52598000D01*
X61919000Y-52598000D01*
X61919000Y-52578000D01*
X63169000Y-52578000D01*
X63169000Y-52598000D01*
X64362500Y-52598000D01*
X64552000Y-52408500D01*
X64552000Y-51157225D01*
X64436602Y-50878628D01*
X64382974Y-50825000D01*
X68205026Y-50825000D01*
X68151398Y-50878628D01*
X68036000Y-51157225D01*
X68036000Y-52408500D01*
X68225500Y-52598000D01*
X69419000Y-52598000D01*
X69419000Y-52578000D01*
X70669000Y-52578000D01*
X70669000Y-52598000D01*
X71862500Y-52598000D01*
X72052000Y-52408500D01*
X72052000Y-51157225D01*
X71936602Y-50878628D01*
X71882974Y-50825000D01*
X94608712Y-50825000D01*
X94544470Y-50897431D01*
X95525000Y-51877962D01*
X96505530Y-50897431D01*
X96441288Y-50825000D01*
X100958712Y-50825000D01*
X100894470Y-50897431D01*
X101875000Y-51877962D01*
X102855530Y-50897431D01*
X102791288Y-50825000D01*
X110084461Y-50825000D01*
X110062000Y-50879225D01*
X110062000Y-52130500D01*
X110251500Y-52320000D01*
X111445000Y-52320000D01*
X111445000Y-52300000D01*
X112695000Y-52300000D01*
X112695000Y-52320000D01*
X113888500Y-52320000D01*
X114078000Y-52130500D01*
X114078000Y-50879225D01*
X114055539Y-50825000D01*
X117584461Y-50825000D01*
X117562000Y-50879225D01*
X117562000Y-52130500D01*
X117751500Y-52320000D01*
X118945000Y-52320000D01*
X118945000Y-52300000D01*
X120195000Y-52300000D01*
X120195000Y-52320000D01*
X121388500Y-52320000D01*
X121578000Y-52130500D01*
X121578000Y-50879225D01*
X121555539Y-50825000D01*
X128057303Y-50825000D01*
X127952000Y-51079225D01*
X127952000Y-52330500D01*
X128141500Y-52520000D01*
X129335000Y-52520000D01*
X129335000Y-52500000D01*
X130585000Y-52500000D01*
X130585000Y-52520000D01*
X131778500Y-52520000D01*
X131968000Y-52330500D01*
X131968000Y-51079225D01*
X131862697Y-50825000D01*
X135557303Y-50825000D01*
X135452000Y-51079225D01*
X135452000Y-52330500D01*
X135641500Y-52520000D01*
X136835000Y-52520000D01*
X136835000Y-52500000D01*
X138085000Y-52500000D01*
X138085000Y-52520000D01*
X139278500Y-52520000D01*
X139468000Y-52330500D01*
X139468000Y-51079225D01*
X139362697Y-50825000D01*
X144484152Y-50825000D01*
X143770691Y-51538461D01*
X144085231Y-51853001D01*
X143775382Y-52202263D01*
X143715561Y-53496996D01*
X143775382Y-53797737D01*
X144085232Y-54147001D01*
X145232233Y-53000000D01*
X145218091Y-52985858D01*
X146985858Y-51218091D01*
X147000000Y-51232233D01*
X147014143Y-51218091D01*
X148781910Y-52985858D01*
X148767767Y-53000000D01*
X148781910Y-53014143D01*
X147014143Y-54781910D01*
X147000000Y-54767767D01*
X145852999Y-55914768D01*
X146202263Y-56224618D01*
X147496996Y-56284439D01*
X147797737Y-56224618D01*
X148146999Y-55914769D01*
X148461539Y-56229309D01*
X149148811Y-55542037D01*
X149128299Y-61839468D01*
X147467767Y-63500000D01*
X149117517Y-65149750D01*
X149066324Y-80866520D01*
X116010967Y-80408024D01*
X115913439Y-80426370D01*
X115830733Y-80481214D01*
X115775880Y-80563914D01*
X115757502Y-80658971D01*
X115857502Y-106409471D01*
X115868898Y-106464643D01*
X115407144Y-106472263D01*
X115392885Y-106400577D01*
X115103569Y-106143970D01*
X114764674Y-106482864D01*
X110851893Y-106547432D01*
X110448431Y-106143970D01*
X110159115Y-106400577D01*
X110147440Y-106559056D01*
X109077919Y-106576705D01*
X109042885Y-106400577D01*
X108753569Y-106143970D01*
X108308131Y-106589408D01*
X106421875Y-106620534D01*
X106324949Y-106641833D01*
X106243946Y-106699163D01*
X106191630Y-106783491D01*
X106176000Y-106870500D01*
X106176000Y-108721538D01*
X105445470Y-109452069D01*
X105702077Y-109741385D01*
X106176000Y-109776299D01*
X106176000Y-110785867D01*
X106093379Y-110779780D01*
X105702077Y-110857615D01*
X105445470Y-111146931D01*
X106176000Y-111877462D01*
X106176000Y-113728500D01*
X106195696Y-113825764D01*
X106251682Y-113907702D01*
X106335136Y-113961403D01*
X106426000Y-113978500D01*
X108277039Y-113978500D01*
X108753569Y-114455030D01*
X109042885Y-114198423D01*
X109059087Y-113978500D01*
X110115369Y-113978500D01*
X110159115Y-114198423D01*
X110448431Y-114455030D01*
X110924961Y-113978500D01*
X114627039Y-113978500D01*
X115103569Y-114455030D01*
X115392885Y-114198423D01*
X115409087Y-113978500D01*
X116205000Y-113978500D01*
X116302264Y-113958804D01*
X116384202Y-113902818D01*
X116437903Y-113819364D01*
X116454991Y-113730619D01*
X116514486Y-106710268D01*
X116504143Y-106656867D01*
X129083192Y-106604997D01*
X128405714Y-106884925D01*
X127209127Y-108079425D01*
X126560740Y-109640914D01*
X126559264Y-111331668D01*
X127204925Y-112894286D01*
X128399425Y-114090873D01*
X129960914Y-114739260D01*
X131651668Y-114740736D01*
X133214286Y-114095075D01*
X133843233Y-113467224D01*
X143260000Y-113467224D01*
X143260000Y-114053500D01*
X143449500Y-114243000D01*
X145308000Y-114243000D01*
X145308000Y-113049500D01*
X145118500Y-112860000D01*
X143867225Y-112860000D01*
X143588628Y-112975398D01*
X143375399Y-113188627D01*
X143260000Y-113467224D01*
X133843233Y-113467224D01*
X134410873Y-112900575D01*
X135059260Y-111339086D01*
X135060736Y-109648332D01*
X134415075Y-108085714D01*
X133220575Y-106889127D01*
X132502358Y-106590897D01*
X140272187Y-106558858D01*
X140212013Y-112455949D01*
X140230716Y-112553409D01*
X140285863Y-112635914D01*
X140368764Y-112690463D01*
X140462000Y-112708500D01*
X149175000Y-112708500D01*
X149175000Y-112860000D01*
X147997500Y-112860000D01*
X147808000Y-113049500D01*
X147808000Y-114243000D01*
X147828000Y-114243000D01*
X147828000Y-115493000D01*
X147808000Y-115493000D01*
X147808000Y-116686500D01*
X147997500Y-116876000D01*
X149175000Y-116876000D01*
X149175000Y-120360000D01*
X147997500Y-120360000D01*
X147808000Y-120549500D01*
X147808000Y-121743000D01*
X147828000Y-121743000D01*
X147828000Y-122993000D01*
X147808000Y-122993000D01*
X147808000Y-124186500D01*
X147997500Y-124376000D01*
X149175000Y-124376000D01*
X149175000Y-130592000D01*
X148114500Y-130592000D01*
X147925000Y-130781500D01*
X147925000Y-131975000D01*
X147945000Y-131975000D01*
X147945000Y-133225000D01*
X147925000Y-133225000D01*
X147925000Y-134418500D01*
X148114500Y-134608000D01*
X149175000Y-134608000D01*
X149175000Y-138092000D01*
X148114500Y-138092000D01*
X147925000Y-138281500D01*
X147925000Y-139475000D01*
X147945000Y-139475000D01*
X147945000Y-140725000D01*
X147925000Y-140725000D01*
X147925000Y-141918500D01*
X148114500Y-142108000D01*
X149175000Y-142108000D01*
X149175000Y-144484152D01*
X148461539Y-143770691D01*
X148146999Y-144085231D01*
X147797737Y-143775382D01*
X146503004Y-143715561D01*
X146202263Y-143775382D01*
X145852999Y-144085232D01*
X147000000Y-145232233D01*
X147014143Y-145218091D01*
X148781910Y-146985858D01*
X148767767Y-147000000D01*
X148781910Y-147014143D01*
X147014143Y-148781910D01*
X147000000Y-148767767D01*
X146985858Y-148781910D01*
X145218091Y-147014143D01*
X145232233Y-147000000D01*
X144085232Y-145852999D01*
X143775382Y-146202263D01*
X143715561Y-147496996D01*
X143775382Y-147797737D01*
X144085231Y-148146999D01*
X143770691Y-148461539D01*
X144474652Y-149165500D01*
X141887403Y-149165500D01*
X141908000Y-149115775D01*
X141908000Y-147864500D01*
X141718500Y-147675000D01*
X140525000Y-147675000D01*
X140525000Y-147695000D01*
X139275000Y-147695000D01*
X139275000Y-147675000D01*
X138081500Y-147675000D01*
X137892000Y-147864500D01*
X137892000Y-149115775D01*
X137912597Y-149165500D01*
X134387403Y-149165500D01*
X134408000Y-149115775D01*
X134408000Y-147864500D01*
X134218500Y-147675000D01*
X133025000Y-147675000D01*
X133025000Y-147695000D01*
X131775000Y-147695000D01*
X131775000Y-147675000D01*
X130581500Y-147675000D01*
X130392000Y-147864500D01*
X130392000Y-149115775D01*
X130412597Y-149165500D01*
X124762403Y-149165500D01*
X124783000Y-149115775D01*
X124783000Y-147864500D01*
X124593500Y-147675000D01*
X123400000Y-147675000D01*
X123400000Y-147695000D01*
X122150000Y-147695000D01*
X122150000Y-147675000D01*
X121525000Y-147675000D01*
X121525000Y-145175000D01*
X122150000Y-145175000D01*
X122150000Y-143316500D01*
X123400000Y-143316500D01*
X123400000Y-145175000D01*
X124593500Y-145175000D01*
X124783000Y-144985500D01*
X124783000Y-143734225D01*
X130392000Y-143734225D01*
X130392000Y-144985500D01*
X130581500Y-145175000D01*
X131775000Y-145175000D01*
X131775000Y-143316500D01*
X133025000Y-143316500D01*
X133025000Y-145175000D01*
X134218500Y-145175000D01*
X134408000Y-144985500D01*
X134408000Y-143734225D01*
X137892000Y-143734225D01*
X137892000Y-144985500D01*
X138081500Y-145175000D01*
X139275000Y-145175000D01*
X139275000Y-143316500D01*
X140525000Y-143316500D01*
X140525000Y-145175000D01*
X141718500Y-145175000D01*
X141908000Y-144985500D01*
X141908000Y-143734225D01*
X141792602Y-143455628D01*
X141579373Y-143242399D01*
X141300776Y-143127000D01*
X140714500Y-143127000D01*
X140525000Y-143316500D01*
X139275000Y-143316500D01*
X139085500Y-143127000D01*
X138499224Y-143127000D01*
X138220627Y-143242399D01*
X138007398Y-143455628D01*
X137892000Y-143734225D01*
X134408000Y-143734225D01*
X134292602Y-143455628D01*
X134079373Y-143242399D01*
X133800776Y-143127000D01*
X133214500Y-143127000D01*
X133025000Y-143316500D01*
X131775000Y-143316500D01*
X131585500Y-143127000D01*
X130999224Y-143127000D01*
X130720627Y-143242399D01*
X130507398Y-143455628D01*
X130392000Y-143734225D01*
X124783000Y-143734225D01*
X124667602Y-143455628D01*
X124454373Y-143242399D01*
X124175776Y-143127000D01*
X123589500Y-143127000D01*
X123400000Y-143316500D01*
X122150000Y-143316500D01*
X121960500Y-143127000D01*
X121374224Y-143127000D01*
X121217500Y-143191917D01*
X121217500Y-142240000D01*
X121197804Y-142142736D01*
X121141818Y-142060798D01*
X121058364Y-142007097D01*
X120967500Y-141990000D01*
X116967000Y-141990000D01*
X116869736Y-142009696D01*
X116787798Y-142065682D01*
X116734097Y-142149136D01*
X116717000Y-142240000D01*
X116717000Y-143144076D01*
X116675776Y-143127000D01*
X116089500Y-143127000D01*
X115900000Y-143316500D01*
X115900000Y-145175000D01*
X116525000Y-145175000D01*
X116525000Y-147675000D01*
X115900000Y-147675000D01*
X115900000Y-147695000D01*
X114650000Y-147695000D01*
X114650000Y-147675000D01*
X113456500Y-147675000D01*
X113267000Y-147864500D01*
X113267000Y-149115775D01*
X113291532Y-149175000D01*
X106283000Y-149175000D01*
X106283000Y-148189500D01*
X106093500Y-148000000D01*
X104900000Y-148000000D01*
X104900000Y-148020000D01*
X103650000Y-148020000D01*
X103650000Y-148000000D01*
X102456500Y-148000000D01*
X102267000Y-148189500D01*
X102267000Y-149175000D01*
X98783000Y-149175000D01*
X98783000Y-148189500D01*
X98593500Y-148000000D01*
X97400000Y-148000000D01*
X97400000Y-148020000D01*
X96150000Y-148020000D01*
X96150000Y-148000000D01*
X94956500Y-148000000D01*
X94767000Y-148189500D01*
X94767000Y-149175000D01*
X87458000Y-149175000D01*
X87458000Y-148114500D01*
X87268500Y-147925000D01*
X86075000Y-147925000D01*
X86075000Y-147945000D01*
X84825000Y-147945000D01*
X84825000Y-147925000D01*
X83631500Y-147925000D01*
X83442000Y-148114500D01*
X83442000Y-149175000D01*
X79958000Y-149175000D01*
X79958000Y-148114500D01*
X79768500Y-147925000D01*
X78575000Y-147925000D01*
X78575000Y-147945000D01*
X77325000Y-147945000D01*
X77325000Y-147925000D01*
X76131500Y-147925000D01*
X75942000Y-148114500D01*
X75942000Y-149175000D01*
X55515848Y-149175000D01*
X56229309Y-148461539D01*
X55914769Y-148146999D01*
X56224618Y-147797737D01*
X56227166Y-147742569D01*
X62392470Y-147742569D01*
X62649077Y-148031885D01*
X63705621Y-148109720D01*
X64096923Y-148031885D01*
X64353530Y-147742569D01*
X68742470Y-147742569D01*
X68999077Y-148031885D01*
X70055621Y-148109720D01*
X70446923Y-148031885D01*
X70703530Y-147742569D01*
X69723000Y-146762038D01*
X68742470Y-147742569D01*
X64353530Y-147742569D01*
X63373000Y-146762038D01*
X62392470Y-147742569D01*
X56227166Y-147742569D01*
X56284439Y-146503004D01*
X56224618Y-146202263D01*
X55914768Y-145852999D01*
X54767767Y-147000000D01*
X54781910Y-147014143D01*
X53014143Y-148781910D01*
X53000000Y-148767767D01*
X52985858Y-148781910D01*
X51218091Y-147014143D01*
X51232233Y-147000000D01*
X51218091Y-146985858D01*
X52456328Y-145747621D01*
X60678280Y-145747621D01*
X60756115Y-146138923D01*
X61045431Y-146395530D01*
X62025962Y-145415000D01*
X61045431Y-144434470D01*
X60756115Y-144691077D01*
X60678280Y-145747621D01*
X52456328Y-145747621D01*
X52985858Y-145218091D01*
X53000000Y-145232233D01*
X54147001Y-144085232D01*
X53797737Y-143775382D01*
X52503004Y-143715561D01*
X52202263Y-143775382D01*
X51853001Y-144085231D01*
X51538461Y-143770691D01*
X50825000Y-144484152D01*
X50825000Y-141392569D01*
X62392470Y-141392569D01*
X62649077Y-141681885D01*
X63705621Y-141759720D01*
X64037570Y-141693691D01*
X64020440Y-141734944D01*
X64019563Y-142740644D01*
X64041626Y-142794041D01*
X63040379Y-142720280D01*
X62649077Y-142798115D01*
X62392470Y-143087431D01*
X63373000Y-144067962D01*
X63597507Y-143843455D01*
X64944545Y-145190493D01*
X64720038Y-145415000D01*
X65700569Y-146395530D01*
X65989885Y-146138923D01*
X66067720Y-145082379D01*
X66001691Y-144750430D01*
X66042944Y-144767560D01*
X67048644Y-144768437D01*
X67102041Y-144746374D01*
X67028280Y-145747621D01*
X67106115Y-146138923D01*
X67395431Y-146395530D01*
X68375962Y-145415000D01*
X71070038Y-145415000D01*
X72050569Y-146395530D01*
X72339885Y-146138923D01*
X72417720Y-145082379D01*
X72339885Y-144691077D01*
X72050569Y-144434470D01*
X71070038Y-145415000D01*
X68375962Y-145415000D01*
X68151455Y-145190493D01*
X69498493Y-143843455D01*
X69723000Y-144067962D01*
X69806736Y-143984225D01*
X75942000Y-143984225D01*
X75942000Y-145235500D01*
X76131500Y-145425000D01*
X77325000Y-145425000D01*
X77325000Y-143566500D01*
X78575000Y-143566500D01*
X78575000Y-145425000D01*
X79768500Y-145425000D01*
X79958000Y-145235500D01*
X79958000Y-143984225D01*
X83442000Y-143984225D01*
X83442000Y-145235500D01*
X83631500Y-145425000D01*
X84825000Y-145425000D01*
X84825000Y-143566500D01*
X86075000Y-143566500D01*
X86075000Y-145425000D01*
X87268500Y-145425000D01*
X87458000Y-145235500D01*
X87458000Y-144059225D01*
X94767000Y-144059225D01*
X94767000Y-145310500D01*
X94956500Y-145500000D01*
X96150000Y-145500000D01*
X96150000Y-143641500D01*
X97400000Y-143641500D01*
X97400000Y-145500000D01*
X98593500Y-145500000D01*
X98783000Y-145310500D01*
X98783000Y-144059225D01*
X102267000Y-144059225D01*
X102267000Y-145310500D01*
X102456500Y-145500000D01*
X103650000Y-145500000D01*
X103650000Y-143641500D01*
X104900000Y-143641500D01*
X104900000Y-145500000D01*
X106093500Y-145500000D01*
X106283000Y-145310500D01*
X106283000Y-144059225D01*
X106167602Y-143780628D01*
X106121199Y-143734225D01*
X113267000Y-143734225D01*
X113267000Y-144985500D01*
X113456500Y-145175000D01*
X114650000Y-145175000D01*
X114650000Y-143316500D01*
X114460500Y-143127000D01*
X113874224Y-143127000D01*
X113595627Y-143242399D01*
X113382398Y-143455628D01*
X113267000Y-143734225D01*
X106121199Y-143734225D01*
X105954373Y-143567399D01*
X105675776Y-143452000D01*
X105089500Y-143452000D01*
X104900000Y-143641500D01*
X103650000Y-143641500D01*
X103460500Y-143452000D01*
X102874224Y-143452000D01*
X102595627Y-143567399D01*
X102382398Y-143780628D01*
X102267000Y-144059225D01*
X98783000Y-144059225D01*
X98667602Y-143780628D01*
X98454373Y-143567399D01*
X98175776Y-143452000D01*
X97589500Y-143452000D01*
X97400000Y-143641500D01*
X96150000Y-143641500D01*
X95960500Y-143452000D01*
X95374224Y-143452000D01*
X95095627Y-143567399D01*
X94882398Y-143780628D01*
X94767000Y-144059225D01*
X87458000Y-144059225D01*
X87458000Y-143984225D01*
X87342602Y-143705628D01*
X87129373Y-143492399D01*
X86850776Y-143377000D01*
X86264500Y-143377000D01*
X86075000Y-143566500D01*
X84825000Y-143566500D01*
X84635500Y-143377000D01*
X84049224Y-143377000D01*
X83770627Y-143492399D01*
X83557398Y-143705628D01*
X83442000Y-143984225D01*
X79958000Y-143984225D01*
X79842602Y-143705628D01*
X79629373Y-143492399D01*
X79350776Y-143377000D01*
X78764500Y-143377000D01*
X78575000Y-143566500D01*
X77325000Y-143566500D01*
X77135500Y-143377000D01*
X76549224Y-143377000D01*
X76270627Y-143492399D01*
X76057398Y-143705628D01*
X75942000Y-143984225D01*
X69806736Y-143984225D01*
X70703530Y-143087431D01*
X70446923Y-142798115D01*
X69390379Y-142720280D01*
X69058430Y-142786309D01*
X69075560Y-142745056D01*
X69076437Y-141739356D01*
X69054374Y-141685959D01*
X70055621Y-141759720D01*
X70446923Y-141681885D01*
X70703530Y-141392569D01*
X70225462Y-140914500D01*
X143377000Y-140914500D01*
X143377000Y-141500776D01*
X143492399Y-141779373D01*
X143705628Y-141992602D01*
X143984225Y-142108000D01*
X145235500Y-142108000D01*
X145425000Y-141918500D01*
X145425000Y-140725000D01*
X143566500Y-140725000D01*
X143377000Y-140914500D01*
X70225462Y-140914500D01*
X69723000Y-140412038D01*
X69498493Y-140636545D01*
X68151455Y-139289507D01*
X68375962Y-139065000D01*
X71070038Y-139065000D01*
X72050569Y-140045530D01*
X72339885Y-139788923D01*
X72417720Y-138732379D01*
X72411126Y-138699224D01*
X143377000Y-138699224D01*
X143377000Y-139285500D01*
X143566500Y-139475000D01*
X145425000Y-139475000D01*
X145425000Y-138281500D01*
X145235500Y-138092000D01*
X143984225Y-138092000D01*
X143705628Y-138207398D01*
X143492399Y-138420627D01*
X143377000Y-138699224D01*
X72411126Y-138699224D01*
X72339885Y-138341077D01*
X72050569Y-138084470D01*
X71070038Y-139065000D01*
X68375962Y-139065000D01*
X67395431Y-138084470D01*
X67106115Y-138341077D01*
X67028280Y-139397621D01*
X67094309Y-139729570D01*
X67053056Y-139712440D01*
X66047356Y-139711563D01*
X65993959Y-139733626D01*
X66067720Y-138732379D01*
X65989885Y-138341077D01*
X65700569Y-138084470D01*
X64720038Y-139065000D01*
X64944545Y-139289507D01*
X63597507Y-140636545D01*
X63373000Y-140412038D01*
X62392470Y-141392569D01*
X50825000Y-141392569D01*
X50825000Y-139397621D01*
X60678280Y-139397621D01*
X60756115Y-139788923D01*
X61045431Y-140045530D01*
X62025962Y-139065000D01*
X61045431Y-138084470D01*
X60756115Y-138341077D01*
X60678280Y-139397621D01*
X50825000Y-139397621D01*
X50825000Y-136737431D01*
X62392470Y-136737431D01*
X63373000Y-137717962D01*
X64353530Y-136737431D01*
X68742470Y-136737431D01*
X69723000Y-137717962D01*
X70703530Y-136737431D01*
X70446923Y-136448115D01*
X69390379Y-136370280D01*
X68999077Y-136448115D01*
X68742470Y-136737431D01*
X64353530Y-136737431D01*
X64096923Y-136448115D01*
X63040379Y-136370280D01*
X62649077Y-136448115D01*
X62392470Y-136737431D01*
X50825000Y-136737431D01*
X50825000Y-133414500D01*
X143377000Y-133414500D01*
X143377000Y-134000776D01*
X143492399Y-134279373D01*
X143705628Y-134492602D01*
X143984225Y-134608000D01*
X145235500Y-134608000D01*
X145425000Y-134418500D01*
X145425000Y-133225000D01*
X143566500Y-133225000D01*
X143377000Y-133414500D01*
X50825000Y-133414500D01*
X50825000Y-131477569D01*
X87994470Y-131477569D01*
X88251077Y-131766885D01*
X89307621Y-131844720D01*
X89698923Y-131766885D01*
X89955530Y-131477569D01*
X94344470Y-131477569D01*
X94601077Y-131766885D01*
X95657621Y-131844720D01*
X96048923Y-131766885D01*
X96305530Y-131477569D01*
X105369470Y-131477569D01*
X105626077Y-131766885D01*
X106682621Y-131844720D01*
X107073923Y-131766885D01*
X107330530Y-131477569D01*
X111719470Y-131477569D01*
X111976077Y-131766885D01*
X113032621Y-131844720D01*
X113423923Y-131766885D01*
X113680530Y-131477569D01*
X113402186Y-131199224D01*
X143377000Y-131199224D01*
X143377000Y-131785500D01*
X143566500Y-131975000D01*
X145425000Y-131975000D01*
X145425000Y-130781500D01*
X145235500Y-130592000D01*
X143984225Y-130592000D01*
X143705628Y-130707398D01*
X143492399Y-130920627D01*
X143377000Y-131199224D01*
X113402186Y-131199224D01*
X112927531Y-130724569D01*
X120558470Y-130724569D01*
X120815077Y-131013885D01*
X121871621Y-131091720D01*
X122262923Y-131013885D01*
X122519530Y-130724569D01*
X126908470Y-130724569D01*
X127165077Y-131013885D01*
X128221621Y-131091720D01*
X128612923Y-131013885D01*
X128869530Y-130724569D01*
X127889000Y-129744038D01*
X126908470Y-130724569D01*
X122519530Y-130724569D01*
X121539000Y-129744038D01*
X120558470Y-130724569D01*
X112927531Y-130724569D01*
X112700000Y-130497038D01*
X111719470Y-131477569D01*
X107330530Y-131477569D01*
X106350000Y-130497038D01*
X105369470Y-131477569D01*
X96305530Y-131477569D01*
X95325000Y-130497038D01*
X94344470Y-131477569D01*
X89955530Y-131477569D01*
X88975000Y-130497038D01*
X87994470Y-131477569D01*
X50825000Y-131477569D01*
X50825000Y-130521337D01*
X51034225Y-130608000D01*
X52285500Y-130608000D01*
X52475000Y-130418500D01*
X52475000Y-129225000D01*
X54975000Y-129225000D01*
X54975000Y-130418500D01*
X55164500Y-130608000D01*
X56415775Y-130608000D01*
X56694372Y-130492602D01*
X56907601Y-130279373D01*
X57023000Y-130000776D01*
X57023000Y-129482621D01*
X86280280Y-129482621D01*
X86358115Y-129873923D01*
X86647431Y-130130530D01*
X87627962Y-129150000D01*
X86647431Y-128169470D01*
X86358115Y-128426077D01*
X86280280Y-129482621D01*
X57023000Y-129482621D01*
X57023000Y-129414500D01*
X56833500Y-129225000D01*
X54975000Y-129225000D01*
X52475000Y-129225000D01*
X52455000Y-129225000D01*
X52455000Y-127975000D01*
X52475000Y-127975000D01*
X52475000Y-126781500D01*
X54975000Y-126781500D01*
X54975000Y-127975000D01*
X56833500Y-127975000D01*
X57023000Y-127785500D01*
X57023000Y-127199224D01*
X56907601Y-126920627D01*
X56694372Y-126707398D01*
X56415775Y-126592000D01*
X55164500Y-126592000D01*
X54975000Y-126781500D01*
X52475000Y-126781500D01*
X52285500Y-126592000D01*
X51034225Y-126592000D01*
X50825000Y-126678663D01*
X50825000Y-125127569D01*
X87994470Y-125127569D01*
X88251077Y-125416885D01*
X89307621Y-125494720D01*
X89639570Y-125428691D01*
X89622440Y-125469944D01*
X89621563Y-126475644D01*
X89643626Y-126529041D01*
X88642379Y-126455280D01*
X88251077Y-126533115D01*
X87994470Y-126822431D01*
X88975000Y-127802962D01*
X89199507Y-127578455D01*
X90546545Y-128925493D01*
X90322038Y-129150000D01*
X91302569Y-130130530D01*
X91591885Y-129873923D01*
X91669720Y-128817379D01*
X91603691Y-128485430D01*
X91644944Y-128502560D01*
X92650644Y-128503437D01*
X92704041Y-128481374D01*
X92630280Y-129482621D01*
X92708115Y-129873923D01*
X92997431Y-130130530D01*
X93977962Y-129150000D01*
X96672038Y-129150000D01*
X97652569Y-130130530D01*
X97941885Y-129873923D01*
X97970711Y-129482621D01*
X103655280Y-129482621D01*
X103733115Y-129873923D01*
X104022431Y-130130530D01*
X105002962Y-129150000D01*
X104022431Y-128169470D01*
X103733115Y-128426077D01*
X103655280Y-129482621D01*
X97970711Y-129482621D01*
X98019720Y-128817379D01*
X97941885Y-128426077D01*
X97652569Y-128169470D01*
X96672038Y-129150000D01*
X93977962Y-129150000D01*
X93753455Y-128925493D01*
X95100493Y-127578455D01*
X95325000Y-127802962D01*
X96305530Y-126822431D01*
X96048923Y-126533115D01*
X94992379Y-126455280D01*
X94660430Y-126521309D01*
X94677560Y-126480056D01*
X94678437Y-125474356D01*
X94656374Y-125420959D01*
X95657621Y-125494720D01*
X96048923Y-125416885D01*
X96305530Y-125127569D01*
X105369470Y-125127569D01*
X105626077Y-125416885D01*
X106682621Y-125494720D01*
X107014570Y-125428691D01*
X106997440Y-125469944D01*
X106996563Y-126475644D01*
X107018626Y-126529041D01*
X106017379Y-126455280D01*
X105626077Y-126533115D01*
X105369470Y-126822431D01*
X106350000Y-127802962D01*
X106574507Y-127578455D01*
X107921545Y-128925493D01*
X107697038Y-129150000D01*
X108677569Y-130130530D01*
X108966885Y-129873923D01*
X109044720Y-128817379D01*
X108978691Y-128485430D01*
X109019944Y-128502560D01*
X110025644Y-128503437D01*
X110079041Y-128481374D01*
X110005280Y-129482621D01*
X110083115Y-129873923D01*
X110372431Y-130130530D01*
X111352962Y-129150000D01*
X114047038Y-129150000D01*
X115027569Y-130130530D01*
X115316885Y-129873923D01*
X115394720Y-128817379D01*
X115377264Y-128729621D01*
X118844280Y-128729621D01*
X118922115Y-129120923D01*
X119211431Y-129377530D01*
X120191962Y-128397000D01*
X119211431Y-127416470D01*
X118922115Y-127673077D01*
X118844280Y-128729621D01*
X115377264Y-128729621D01*
X115316885Y-128426077D01*
X115027569Y-128169470D01*
X114047038Y-129150000D01*
X111352962Y-129150000D01*
X111128455Y-128925493D01*
X112475493Y-127578455D01*
X112700000Y-127802962D01*
X113680530Y-126822431D01*
X113423923Y-126533115D01*
X112367379Y-126455280D01*
X112035430Y-126521309D01*
X112052560Y-126480056D01*
X112053437Y-125474356D01*
X112031374Y-125420959D01*
X113032621Y-125494720D01*
X113423923Y-125416885D01*
X113680530Y-125127569D01*
X112927531Y-124374569D01*
X120558470Y-124374569D01*
X120815077Y-124663885D01*
X121871621Y-124741720D01*
X122203570Y-124675691D01*
X122186440Y-124716944D01*
X122185563Y-125722644D01*
X122207626Y-125776041D01*
X121206379Y-125702280D01*
X120815077Y-125780115D01*
X120558470Y-126069431D01*
X121539000Y-127049962D01*
X121763507Y-126825455D01*
X123110545Y-128172493D01*
X122886038Y-128397000D01*
X123866569Y-129377530D01*
X124155885Y-129120923D01*
X124233720Y-128064379D01*
X124167691Y-127732430D01*
X124208944Y-127749560D01*
X125214644Y-127750437D01*
X125268041Y-127728374D01*
X125194280Y-128729621D01*
X125272115Y-129120923D01*
X125561431Y-129377530D01*
X126541962Y-128397000D01*
X129236038Y-128397000D01*
X130216569Y-129377530D01*
X130505885Y-129120923D01*
X130583720Y-128064379D01*
X130505885Y-127673077D01*
X130216569Y-127416470D01*
X129236038Y-128397000D01*
X126541962Y-128397000D01*
X126317455Y-128172493D01*
X127664493Y-126825455D01*
X127889000Y-127049962D01*
X128869530Y-126069431D01*
X128612923Y-125780115D01*
X127556379Y-125702280D01*
X127224430Y-125768309D01*
X127241560Y-125727056D01*
X127242437Y-124721356D01*
X127220374Y-124667959D01*
X128221621Y-124741720D01*
X128612923Y-124663885D01*
X128869530Y-124374569D01*
X127889000Y-123394038D01*
X127664493Y-123618545D01*
X127228448Y-123182500D01*
X143260000Y-123182500D01*
X143260000Y-123768776D01*
X143375399Y-124047373D01*
X143588628Y-124260602D01*
X143867225Y-124376000D01*
X145118500Y-124376000D01*
X145308000Y-124186500D01*
X145308000Y-122993000D01*
X143449500Y-122993000D01*
X143260000Y-123182500D01*
X127228448Y-123182500D01*
X126317455Y-122271507D01*
X126541962Y-122047000D01*
X129236038Y-122047000D01*
X130216569Y-123027530D01*
X130505885Y-122770923D01*
X130583720Y-121714379D01*
X130505885Y-121323077D01*
X130216569Y-121066470D01*
X129236038Y-122047000D01*
X126541962Y-122047000D01*
X125561431Y-121066470D01*
X125272115Y-121323077D01*
X125194280Y-122379621D01*
X125260309Y-122711570D01*
X125219056Y-122694440D01*
X124213356Y-122693563D01*
X124159959Y-122715626D01*
X124233720Y-121714379D01*
X124155885Y-121323077D01*
X123866569Y-121066470D01*
X122886038Y-122047000D01*
X123110545Y-122271507D01*
X121763507Y-123618545D01*
X121539000Y-123394038D01*
X120558470Y-124374569D01*
X112927531Y-124374569D01*
X112700000Y-124147038D01*
X112475493Y-124371545D01*
X111128455Y-123024507D01*
X111352962Y-122800000D01*
X114047038Y-122800000D01*
X115027569Y-123780530D01*
X115316885Y-123523923D01*
X115394720Y-122467379D01*
X115377264Y-122379621D01*
X118844280Y-122379621D01*
X118922115Y-122770923D01*
X119211431Y-123027530D01*
X120191962Y-122047000D01*
X119211431Y-121066470D01*
X118922115Y-121323077D01*
X118844280Y-122379621D01*
X115377264Y-122379621D01*
X115316885Y-122076077D01*
X115027569Y-121819470D01*
X114047038Y-122800000D01*
X111352962Y-122800000D01*
X110372431Y-121819470D01*
X110083115Y-122076077D01*
X110005280Y-123132621D01*
X110071309Y-123464570D01*
X110030056Y-123447440D01*
X109024356Y-123446563D01*
X108970959Y-123468626D01*
X109044720Y-122467379D01*
X108966885Y-122076077D01*
X108677569Y-121819470D01*
X107697038Y-122800000D01*
X107921545Y-123024507D01*
X106574507Y-124371545D01*
X106350000Y-124147038D01*
X105369470Y-125127569D01*
X96305530Y-125127569D01*
X95325000Y-124147038D01*
X95100493Y-124371545D01*
X93753455Y-123024507D01*
X93977962Y-122800000D01*
X96672038Y-122800000D01*
X97652569Y-123780530D01*
X97941885Y-123523923D01*
X97970711Y-123132621D01*
X103655280Y-123132621D01*
X103733115Y-123523923D01*
X104022431Y-123780530D01*
X105002962Y-122800000D01*
X104022431Y-121819470D01*
X103733115Y-122076077D01*
X103655280Y-123132621D01*
X97970711Y-123132621D01*
X98019720Y-122467379D01*
X97941885Y-122076077D01*
X97652569Y-121819470D01*
X96672038Y-122800000D01*
X93977962Y-122800000D01*
X92997431Y-121819470D01*
X92708115Y-122076077D01*
X92630280Y-123132621D01*
X92696309Y-123464570D01*
X92655056Y-123447440D01*
X91649356Y-123446563D01*
X91595959Y-123468626D01*
X91669720Y-122467379D01*
X91591885Y-122076077D01*
X91302569Y-121819470D01*
X90322038Y-122800000D01*
X90546545Y-123024507D01*
X89199507Y-124371545D01*
X88975000Y-124147038D01*
X87994470Y-125127569D01*
X50825000Y-125127569D01*
X50825000Y-123132621D01*
X86280280Y-123132621D01*
X86358115Y-123523923D01*
X86647431Y-123780530D01*
X87627962Y-122800000D01*
X86647431Y-121819470D01*
X86358115Y-122076077D01*
X86280280Y-123132621D01*
X50825000Y-123132621D01*
X50825000Y-123021337D01*
X51034225Y-123108000D01*
X52285500Y-123108000D01*
X52475000Y-122918500D01*
X52475000Y-121725000D01*
X54975000Y-121725000D01*
X54975000Y-122918500D01*
X55164500Y-123108000D01*
X56415775Y-123108000D01*
X56694372Y-122992602D01*
X56907601Y-122779373D01*
X57023000Y-122500776D01*
X57023000Y-121914500D01*
X56833500Y-121725000D01*
X54975000Y-121725000D01*
X52475000Y-121725000D01*
X52455000Y-121725000D01*
X52455000Y-120475000D01*
X52475000Y-120475000D01*
X52475000Y-119281500D01*
X54975000Y-119281500D01*
X54975000Y-120475000D01*
X56833500Y-120475000D01*
X56836069Y-120472431D01*
X87994470Y-120472431D01*
X88975000Y-121452962D01*
X89955530Y-120472431D01*
X94344470Y-120472431D01*
X95325000Y-121452962D01*
X96305530Y-120472431D01*
X105369470Y-120472431D01*
X106350000Y-121452962D01*
X107330530Y-120472431D01*
X111719470Y-120472431D01*
X112700000Y-121452962D01*
X113185737Y-120967224D01*
X143260000Y-120967224D01*
X143260000Y-121553500D01*
X143449500Y-121743000D01*
X145308000Y-121743000D01*
X145308000Y-120549500D01*
X145118500Y-120360000D01*
X143867225Y-120360000D01*
X143588628Y-120475398D01*
X143375399Y-120688627D01*
X143260000Y-120967224D01*
X113185737Y-120967224D01*
X113680530Y-120472431D01*
X113423923Y-120183115D01*
X112367379Y-120105280D01*
X111976077Y-120183115D01*
X111719470Y-120472431D01*
X107330530Y-120472431D01*
X107073923Y-120183115D01*
X106017379Y-120105280D01*
X105626077Y-120183115D01*
X105369470Y-120472431D01*
X96305530Y-120472431D01*
X96048923Y-120183115D01*
X94992379Y-120105280D01*
X94601077Y-120183115D01*
X94344470Y-120472431D01*
X89955530Y-120472431D01*
X89698923Y-120183115D01*
X88642379Y-120105280D01*
X88251077Y-120183115D01*
X87994470Y-120472431D01*
X56836069Y-120472431D01*
X57023000Y-120285500D01*
X57023000Y-119719431D01*
X120558470Y-119719431D01*
X121539000Y-120699962D01*
X122519530Y-119719431D01*
X126908470Y-119719431D01*
X127889000Y-120699962D01*
X128869530Y-119719431D01*
X128612923Y-119430115D01*
X127556379Y-119352280D01*
X127165077Y-119430115D01*
X126908470Y-119719431D01*
X122519530Y-119719431D01*
X122262923Y-119430115D01*
X121206379Y-119352280D01*
X120815077Y-119430115D01*
X120558470Y-119719431D01*
X57023000Y-119719431D01*
X57023000Y-119699224D01*
X56907601Y-119420627D01*
X56694372Y-119207398D01*
X56415775Y-119092000D01*
X55164500Y-119092000D01*
X54975000Y-119281500D01*
X52475000Y-119281500D01*
X52285500Y-119092000D01*
X51034225Y-119092000D01*
X50825000Y-119178663D01*
X50825000Y-115967169D01*
X89392670Y-115967169D01*
X89649277Y-116256485D01*
X90705821Y-116334320D01*
X91097123Y-116256485D01*
X91353730Y-115967169D01*
X95742670Y-115967169D01*
X95999277Y-116256485D01*
X97055821Y-116334320D01*
X97447123Y-116256485D01*
X97703730Y-115967169D01*
X97538631Y-115802069D01*
X105445470Y-115802069D01*
X105702077Y-116091385D01*
X106758621Y-116169220D01*
X107149923Y-116091385D01*
X107406530Y-115802069D01*
X111795470Y-115802069D01*
X112052077Y-116091385D01*
X113108621Y-116169220D01*
X113499923Y-116091385D01*
X113756530Y-115802069D01*
X113636962Y-115682500D01*
X143260000Y-115682500D01*
X143260000Y-116268776D01*
X143375399Y-116547373D01*
X143588628Y-116760602D01*
X143867225Y-116876000D01*
X145118500Y-116876000D01*
X145308000Y-116686500D01*
X145308000Y-115493000D01*
X143449500Y-115493000D01*
X143260000Y-115682500D01*
X113636962Y-115682500D01*
X112776000Y-114821538D01*
X111795470Y-115802069D01*
X107406530Y-115802069D01*
X106426000Y-114821538D01*
X105445470Y-115802069D01*
X97538631Y-115802069D01*
X96723200Y-114986638D01*
X95742670Y-115967169D01*
X91353730Y-115967169D01*
X90373200Y-114986638D01*
X89392670Y-115967169D01*
X50825000Y-115967169D01*
X50825000Y-113972221D01*
X87678480Y-113972221D01*
X87756315Y-114363523D01*
X88045631Y-114620130D01*
X89026162Y-113639600D01*
X91720238Y-113639600D01*
X92700769Y-114620130D01*
X92990085Y-114363523D01*
X93067920Y-113306979D01*
X92999782Y-112964426D01*
X93845820Y-113033098D01*
X94101410Y-112982257D01*
X94028480Y-113972221D01*
X94106315Y-114363523D01*
X94395631Y-114620130D01*
X95376162Y-113639600D01*
X98070238Y-113639600D01*
X99050769Y-114620130D01*
X99340085Y-114363523D01*
X99381074Y-113807121D01*
X103731280Y-113807121D01*
X103809115Y-114198423D01*
X104098431Y-114455030D01*
X105078962Y-113474500D01*
X104098431Y-112493970D01*
X103809115Y-112750577D01*
X103731280Y-113807121D01*
X99381074Y-113807121D01*
X99417920Y-113306979D01*
X99340085Y-112915677D01*
X99050769Y-112659070D01*
X98070238Y-113639600D01*
X95376162Y-113639600D01*
X94452240Y-112715679D01*
X94493013Y-112666649D01*
X93548200Y-111721836D01*
X92603387Y-112666649D01*
X92644160Y-112715679D01*
X91720238Y-113639600D01*
X89026162Y-113639600D01*
X88045631Y-112659070D01*
X87756315Y-112915677D01*
X87678480Y-113972221D01*
X50825000Y-113972221D01*
X50825000Y-111561974D01*
X50830628Y-111567602D01*
X51109225Y-111683000D01*
X52360500Y-111683000D01*
X52550000Y-111493500D01*
X52550000Y-110300000D01*
X55050000Y-110300000D01*
X55050000Y-111493500D01*
X55239500Y-111683000D01*
X56490775Y-111683000D01*
X56769372Y-111567602D01*
X56982601Y-111354373D01*
X57098000Y-111075776D01*
X57098000Y-110489500D01*
X56908500Y-110300000D01*
X55050000Y-110300000D01*
X52550000Y-110300000D01*
X52530000Y-110300000D01*
X52530000Y-109617169D01*
X89392670Y-109617169D01*
X89649277Y-109906485D01*
X90705821Y-109984320D01*
X91048374Y-109916182D01*
X90979702Y-110762220D01*
X91030543Y-111017810D01*
X90040579Y-110944880D01*
X89649277Y-111022715D01*
X89392670Y-111312031D01*
X90373200Y-112292562D01*
X91297121Y-111368640D01*
X91346151Y-111409413D01*
X92290964Y-110464600D01*
X94805436Y-110464600D01*
X95750249Y-111409413D01*
X95799279Y-111368640D01*
X96723200Y-112292562D01*
X97703730Y-111312031D01*
X97447123Y-111022715D01*
X96390579Y-110944880D01*
X96048026Y-111013018D01*
X96116698Y-110166980D01*
X96065857Y-109911390D01*
X97055821Y-109984320D01*
X97447123Y-109906485D01*
X97703730Y-109617169D01*
X96723200Y-108636638D01*
X95799279Y-109560560D01*
X95750249Y-109519787D01*
X94805436Y-110464600D01*
X92290964Y-110464600D01*
X91346151Y-109519787D01*
X91297121Y-109560560D01*
X90373200Y-108636638D01*
X89392670Y-109617169D01*
X52530000Y-109617169D01*
X52530000Y-109050000D01*
X52550000Y-109050000D01*
X52550000Y-107856500D01*
X55050000Y-107856500D01*
X55050000Y-109050000D01*
X56908500Y-109050000D01*
X57098000Y-108860500D01*
X57098000Y-108274224D01*
X56982601Y-107995627D01*
X56769372Y-107782398D01*
X56490775Y-107667000D01*
X55239500Y-107667000D01*
X55050000Y-107856500D01*
X52550000Y-107856500D01*
X52360500Y-107667000D01*
X51109225Y-107667000D01*
X50830628Y-107782398D01*
X50825000Y-107788026D01*
X50825000Y-107622221D01*
X87678480Y-107622221D01*
X87756315Y-108013523D01*
X88045631Y-108270130D01*
X89026162Y-107289600D01*
X91720238Y-107289600D01*
X92644160Y-108213521D01*
X92603387Y-108262551D01*
X93548200Y-109207364D01*
X94493013Y-108262551D01*
X94452240Y-108213521D01*
X95376162Y-107289600D01*
X98070238Y-107289600D01*
X99050769Y-108270130D01*
X99340085Y-108013523D01*
X99381074Y-107457121D01*
X103731280Y-107457121D01*
X103809115Y-107848423D01*
X104098431Y-108105030D01*
X105078962Y-107124500D01*
X104098431Y-106143970D01*
X103809115Y-106400577D01*
X103731280Y-107457121D01*
X99381074Y-107457121D01*
X99417920Y-106956979D01*
X99340085Y-106565677D01*
X99050769Y-106309070D01*
X98070238Y-107289600D01*
X95376162Y-107289600D01*
X94395631Y-106309070D01*
X94106315Y-106565677D01*
X94028480Y-107622221D01*
X94096618Y-107964774D01*
X93250580Y-107896102D01*
X92994990Y-107946943D01*
X93067920Y-106956979D01*
X92990085Y-106565677D01*
X92700769Y-106309070D01*
X91720238Y-107289600D01*
X89026162Y-107289600D01*
X88045631Y-106309070D01*
X87756315Y-106565677D01*
X87678480Y-107622221D01*
X50825000Y-107622221D01*
X50825000Y-104962031D01*
X89392670Y-104962031D01*
X90373200Y-105942562D01*
X91353730Y-104962031D01*
X95742670Y-104962031D01*
X96723200Y-105942562D01*
X97703730Y-104962031D01*
X97557296Y-104796931D01*
X105445470Y-104796931D01*
X106426000Y-105777462D01*
X107406530Y-104796931D01*
X111795470Y-104796931D01*
X112776000Y-105777462D01*
X113756530Y-104796931D01*
X113499923Y-104507615D01*
X112443379Y-104429780D01*
X112052077Y-104507615D01*
X111795470Y-104796931D01*
X107406530Y-104796931D01*
X107149923Y-104507615D01*
X106093379Y-104429780D01*
X105702077Y-104507615D01*
X105445470Y-104796931D01*
X97557296Y-104796931D01*
X97447123Y-104672715D01*
X96390579Y-104594880D01*
X95999277Y-104672715D01*
X95742670Y-104962031D01*
X91353730Y-104962031D01*
X91097123Y-104672715D01*
X90040579Y-104594880D01*
X89649277Y-104672715D01*
X89392670Y-104962031D01*
X50825000Y-104962031D01*
X50825000Y-104061974D01*
X50830628Y-104067602D01*
X51109225Y-104183000D01*
X52360500Y-104183000D01*
X52550000Y-103993500D01*
X52550000Y-102800000D01*
X55050000Y-102800000D01*
X55050000Y-103993500D01*
X55239500Y-104183000D01*
X56490775Y-104183000D01*
X56769372Y-104067602D01*
X56982601Y-103854373D01*
X57098000Y-103575776D01*
X57098000Y-102989500D01*
X56908500Y-102800000D01*
X55050000Y-102800000D01*
X52550000Y-102800000D01*
X52530000Y-102800000D01*
X52530000Y-101550000D01*
X52550000Y-101550000D01*
X52550000Y-100356500D01*
X55050000Y-100356500D01*
X55050000Y-101550000D01*
X56908500Y-101550000D01*
X57098000Y-101360500D01*
X57098000Y-100774224D01*
X56982601Y-100495627D01*
X56769372Y-100282398D01*
X56490775Y-100167000D01*
X55239500Y-100167000D01*
X55050000Y-100356500D01*
X52550000Y-100356500D01*
X52360500Y-100167000D01*
X51109225Y-100167000D01*
X50830628Y-100282398D01*
X50825000Y-100288026D01*
X50825000Y-99639500D01*
X87542000Y-99639500D01*
X87542000Y-100200776D01*
X87657399Y-100479373D01*
X87870628Y-100692602D01*
X88149225Y-100808000D01*
X88510500Y-100808000D01*
X88700000Y-100618500D01*
X88700000Y-99450000D01*
X89500000Y-99450000D01*
X89500000Y-100618500D01*
X89689500Y-100808000D01*
X90050775Y-100808000D01*
X90329372Y-100692602D01*
X90542601Y-100479373D01*
X90600394Y-100339850D01*
X90908948Y-100596466D01*
X91009369Y-100674665D01*
X91240000Y-100558737D01*
X91240000Y-99450000D01*
X92040000Y-99450000D01*
X92040000Y-100558737D01*
X92270631Y-100674665D01*
X92371052Y-100596466D01*
X92830674Y-100214211D01*
X92910000Y-100063441D01*
X92989326Y-100214211D01*
X93448948Y-100596466D01*
X93549369Y-100674665D01*
X93780000Y-100558737D01*
X93780000Y-99450000D01*
X94580000Y-99450000D01*
X94580000Y-100558737D01*
X94810631Y-100674665D01*
X94911052Y-100596466D01*
X95370674Y-100214211D01*
X95450000Y-100063441D01*
X95529326Y-100214211D01*
X95988948Y-100596466D01*
X96089369Y-100674665D01*
X96320000Y-100558737D01*
X96320000Y-99450000D01*
X97120000Y-99450000D01*
X97120000Y-100558737D01*
X97350631Y-100674665D01*
X97451052Y-100596466D01*
X97910674Y-100214211D01*
X97990000Y-100063441D01*
X98069326Y-100214211D01*
X98528948Y-100596466D01*
X98629369Y-100674665D01*
X98860000Y-100558737D01*
X98860000Y-99450000D01*
X99660000Y-99450000D01*
X99660000Y-100558737D01*
X99890631Y-100674665D01*
X99991052Y-100596466D01*
X100450674Y-100214211D01*
X100530000Y-100063441D01*
X100609326Y-100214211D01*
X101068948Y-100596466D01*
X101169369Y-100674665D01*
X101400000Y-100558737D01*
X101400000Y-99450000D01*
X102200000Y-99450000D01*
X102200000Y-100558737D01*
X102430631Y-100674665D01*
X102531052Y-100596466D01*
X102990674Y-100214211D01*
X103070000Y-100063441D01*
X103149326Y-100214211D01*
X103608948Y-100596466D01*
X103709369Y-100674665D01*
X103940000Y-100558737D01*
X103940000Y-99450000D01*
X104740000Y-99450000D01*
X104740000Y-100558737D01*
X104970631Y-100674665D01*
X105071052Y-100596466D01*
X105530674Y-100214211D01*
X105610000Y-100063441D01*
X105689326Y-100214211D01*
X106148948Y-100596466D01*
X106249369Y-100674665D01*
X106480000Y-100558737D01*
X106480000Y-99450000D01*
X107280000Y-99450000D01*
X107280000Y-100558737D01*
X107510631Y-100674665D01*
X107611052Y-100596466D01*
X108070674Y-100214211D01*
X108349027Y-99685164D01*
X108209516Y-99450000D01*
X107280000Y-99450000D01*
X106480000Y-99450000D01*
X104740000Y-99450000D01*
X103940000Y-99450000D01*
X102200000Y-99450000D01*
X101400000Y-99450000D01*
X99660000Y-99450000D01*
X98860000Y-99450000D01*
X97120000Y-99450000D01*
X96320000Y-99450000D01*
X94580000Y-99450000D01*
X93780000Y-99450000D01*
X92040000Y-99450000D01*
X91240000Y-99450000D01*
X89500000Y-99450000D01*
X88700000Y-99450000D01*
X87731500Y-99450000D01*
X87542000Y-99639500D01*
X50825000Y-99639500D01*
X50825000Y-97499224D01*
X87542000Y-97499224D01*
X87542000Y-98060500D01*
X87731500Y-98250000D01*
X88700000Y-98250000D01*
X88700000Y-97081500D01*
X89500000Y-97081500D01*
X89500000Y-98250000D01*
X91240000Y-98250000D01*
X91240000Y-97141263D01*
X92040000Y-97141263D01*
X92040000Y-98250000D01*
X93780000Y-98250000D01*
X93780000Y-97141263D01*
X94580000Y-97141263D01*
X94580000Y-98250000D01*
X96320000Y-98250000D01*
X96320000Y-97141263D01*
X97120000Y-97141263D01*
X97120000Y-98250000D01*
X98860000Y-98250000D01*
X98860000Y-97141263D01*
X99660000Y-97141263D01*
X99660000Y-98250000D01*
X101400000Y-98250000D01*
X101400000Y-97141263D01*
X102200000Y-97141263D01*
X102200000Y-98250000D01*
X103940000Y-98250000D01*
X103940000Y-97141263D01*
X104740000Y-97141263D01*
X104740000Y-98250000D01*
X106480000Y-98250000D01*
X106480000Y-97141263D01*
X107280000Y-97141263D01*
X107280000Y-98250000D01*
X108209516Y-98250000D01*
X108349027Y-98014836D01*
X108070674Y-97485789D01*
X107611052Y-97103534D01*
X107510631Y-97025335D01*
X107280000Y-97141263D01*
X106480000Y-97141263D01*
X106249369Y-97025335D01*
X106148948Y-97103534D01*
X105689326Y-97485789D01*
X105610000Y-97636559D01*
X105530674Y-97485789D01*
X105071052Y-97103534D01*
X104970631Y-97025335D01*
X104740000Y-97141263D01*
X103940000Y-97141263D01*
X103709369Y-97025335D01*
X103608948Y-97103534D01*
X103149326Y-97485789D01*
X103070000Y-97636559D01*
X102990674Y-97485789D01*
X102531052Y-97103534D01*
X102430631Y-97025335D01*
X102200000Y-97141263D01*
X101400000Y-97141263D01*
X101169369Y-97025335D01*
X101068948Y-97103534D01*
X100609326Y-97485789D01*
X100530000Y-97636559D01*
X100450674Y-97485789D01*
X99991052Y-97103534D01*
X99890631Y-97025335D01*
X99660000Y-97141263D01*
X98860000Y-97141263D01*
X98629369Y-97025335D01*
X98528948Y-97103534D01*
X98069326Y-97485789D01*
X97990000Y-97636559D01*
X97910674Y-97485789D01*
X97451052Y-97103534D01*
X97350631Y-97025335D01*
X97120000Y-97141263D01*
X96320000Y-97141263D01*
X96089369Y-97025335D01*
X95988948Y-97103534D01*
X95529326Y-97485789D01*
X95450000Y-97636559D01*
X95370674Y-97485789D01*
X94911052Y-97103534D01*
X94810631Y-97025335D01*
X94580000Y-97141263D01*
X93780000Y-97141263D01*
X93549369Y-97025335D01*
X93448948Y-97103534D01*
X92989326Y-97485789D01*
X92910000Y-97636559D01*
X92830674Y-97485789D01*
X92371052Y-97103534D01*
X92270631Y-97025335D01*
X92040000Y-97141263D01*
X91240000Y-97141263D01*
X91009369Y-97025335D01*
X90908948Y-97103534D01*
X90600394Y-97360150D01*
X90542601Y-97220627D01*
X90329372Y-97007398D01*
X90050775Y-96892000D01*
X89689500Y-96892000D01*
X89500000Y-97081500D01*
X88700000Y-97081500D01*
X88510500Y-96892000D01*
X88149225Y-96892000D01*
X87870628Y-97007398D01*
X87657399Y-97220627D01*
X87542000Y-97499224D01*
X50825000Y-97499224D01*
X50825000Y-90986974D01*
X50830628Y-90992602D01*
X51109225Y-91108000D01*
X52360500Y-91108000D01*
X52550000Y-90918500D01*
X52550000Y-89725000D01*
X55050000Y-89725000D01*
X55050000Y-90918500D01*
X55239500Y-91108000D01*
X56490775Y-91108000D01*
X56769372Y-90992602D01*
X56970177Y-90791797D01*
X87550000Y-90791797D01*
X87550000Y-91668203D01*
X87667987Y-92261362D01*
X88003984Y-92764219D01*
X88506841Y-93100216D01*
X89100000Y-93218203D01*
X89693159Y-93100216D01*
X90196016Y-92764219D01*
X90370000Y-92503833D01*
X90543984Y-92764219D01*
X91046841Y-93100216D01*
X91640000Y-93218203D01*
X92233159Y-93100216D01*
X92736016Y-92764219D01*
X92910000Y-92503833D01*
X93083984Y-92764219D01*
X93586841Y-93100216D01*
X94180000Y-93218203D01*
X94773159Y-93100216D01*
X95276016Y-92764219D01*
X95450000Y-92503833D01*
X95623984Y-92764219D01*
X96126841Y-93100216D01*
X96720000Y-93218203D01*
X97313159Y-93100216D01*
X97816016Y-92764219D01*
X97990000Y-92503833D01*
X98163984Y-92764219D01*
X98666841Y-93100216D01*
X99260000Y-93218203D01*
X99853159Y-93100216D01*
X100356016Y-92764219D01*
X100530000Y-92503833D01*
X100703984Y-92764219D01*
X101206841Y-93100216D01*
X101800000Y-93218203D01*
X102393159Y-93100216D01*
X102896016Y-92764219D01*
X103070000Y-92503833D01*
X103243984Y-92764219D01*
X103746841Y-93100216D01*
X104340000Y-93218203D01*
X104933159Y-93100216D01*
X105436016Y-92764219D01*
X105610000Y-92503833D01*
X105783984Y-92764219D01*
X106286841Y-93100216D01*
X106880000Y-93218203D01*
X107473159Y-93100216D01*
X107976016Y-92764219D01*
X108312013Y-92261362D01*
X108430000Y-91668203D01*
X108430000Y-90791797D01*
X108312013Y-90198638D01*
X107976016Y-89695781D01*
X107473159Y-89359784D01*
X106880000Y-89241797D01*
X106286841Y-89359784D01*
X105783984Y-89695781D01*
X105610000Y-89956167D01*
X105436016Y-89695781D01*
X104933159Y-89359784D01*
X104340000Y-89241797D01*
X103746841Y-89359784D01*
X103243984Y-89695781D01*
X103070000Y-89956167D01*
X102896016Y-89695781D01*
X102393159Y-89359784D01*
X101800000Y-89241797D01*
X101206841Y-89359784D01*
X100703984Y-89695781D01*
X100530000Y-89956167D01*
X100356016Y-89695781D01*
X99853159Y-89359784D01*
X99260000Y-89241797D01*
X98666841Y-89359784D01*
X98163984Y-89695781D01*
X97990000Y-89956167D01*
X97816016Y-89695781D01*
X97313159Y-89359784D01*
X96720000Y-89241797D01*
X96126841Y-89359784D01*
X95623984Y-89695781D01*
X95450000Y-89956167D01*
X95276016Y-89695781D01*
X94773159Y-89359784D01*
X94180000Y-89241797D01*
X93586841Y-89359784D01*
X93083984Y-89695781D01*
X92910000Y-89956167D01*
X92736016Y-89695781D01*
X92233159Y-89359784D01*
X91640000Y-89241797D01*
X91046841Y-89359784D01*
X90543984Y-89695781D01*
X90370000Y-89956167D01*
X90196016Y-89695781D01*
X89693159Y-89359784D01*
X89100000Y-89241797D01*
X88506841Y-89359784D01*
X88003984Y-89695781D01*
X87667987Y-90198638D01*
X87550000Y-90791797D01*
X56970177Y-90791797D01*
X56982601Y-90779373D01*
X57098000Y-90500776D01*
X57098000Y-89914500D01*
X56908500Y-89725000D01*
X55050000Y-89725000D01*
X52550000Y-89725000D01*
X52530000Y-89725000D01*
X52530000Y-88475000D01*
X52550000Y-88475000D01*
X52550000Y-87281500D01*
X55050000Y-87281500D01*
X55050000Y-88475000D01*
X56908500Y-88475000D01*
X57098000Y-88285500D01*
X57098000Y-87699224D01*
X56982601Y-87420627D01*
X56769372Y-87207398D01*
X56490775Y-87092000D01*
X55239500Y-87092000D01*
X55050000Y-87281500D01*
X52550000Y-87281500D01*
X52360500Y-87092000D01*
X51109225Y-87092000D01*
X50830628Y-87207398D01*
X50825000Y-87213026D01*
X50825000Y-85512569D01*
X84744470Y-85512569D01*
X85001077Y-85801885D01*
X86057621Y-85879720D01*
X86448923Y-85801885D01*
X86705530Y-85512569D01*
X91094470Y-85512569D01*
X91351077Y-85801885D01*
X92407621Y-85879720D01*
X92798923Y-85801885D01*
X93055530Y-85512569D01*
X92801531Y-85258569D01*
X103032470Y-85258569D01*
X103289077Y-85547885D01*
X104345621Y-85625720D01*
X104736923Y-85547885D01*
X104993530Y-85258569D01*
X109382470Y-85258569D01*
X109639077Y-85547885D01*
X110695621Y-85625720D01*
X111086923Y-85547885D01*
X111343530Y-85258569D01*
X110363000Y-84278038D01*
X109382470Y-85258569D01*
X104993530Y-85258569D01*
X104013000Y-84278038D01*
X103032470Y-85258569D01*
X92801531Y-85258569D01*
X92075000Y-84532038D01*
X91094470Y-85512569D01*
X86705530Y-85512569D01*
X85725000Y-84532038D01*
X84744470Y-85512569D01*
X50825000Y-85512569D01*
X50825000Y-83486974D01*
X50830628Y-83492602D01*
X51109225Y-83608000D01*
X52360500Y-83608000D01*
X52550000Y-83418500D01*
X52550000Y-82225000D01*
X55050000Y-82225000D01*
X55050000Y-83418500D01*
X55239500Y-83608000D01*
X56490775Y-83608000D01*
X56708970Y-83517621D01*
X83030280Y-83517621D01*
X83108115Y-83908923D01*
X83397431Y-84165530D01*
X84377962Y-83185000D01*
X83397431Y-82204470D01*
X83108115Y-82461077D01*
X83030280Y-83517621D01*
X56708970Y-83517621D01*
X56769372Y-83492602D01*
X56982601Y-83279373D01*
X57098000Y-83000776D01*
X57098000Y-82414500D01*
X56908500Y-82225000D01*
X55050000Y-82225000D01*
X52550000Y-82225000D01*
X52530000Y-82225000D01*
X52530000Y-80975000D01*
X52550000Y-80975000D01*
X52550000Y-79781500D01*
X55050000Y-79781500D01*
X55050000Y-80975000D01*
X56908500Y-80975000D01*
X57098000Y-80785500D01*
X57098000Y-80199224D01*
X56982601Y-79920627D01*
X56769372Y-79707398D01*
X56490775Y-79592000D01*
X55239500Y-79592000D01*
X55050000Y-79781500D01*
X52550000Y-79781500D01*
X52360500Y-79592000D01*
X51109225Y-79592000D01*
X50830628Y-79707398D01*
X50825000Y-79713026D01*
X50825000Y-79162569D01*
X84744470Y-79162569D01*
X85001077Y-79451885D01*
X86057621Y-79529720D01*
X86389570Y-79463691D01*
X86372440Y-79504944D01*
X86371563Y-80510644D01*
X86393626Y-80564041D01*
X85392379Y-80490280D01*
X85001077Y-80568115D01*
X84744470Y-80857431D01*
X85725000Y-81837962D01*
X85949507Y-81613455D01*
X87296545Y-82960493D01*
X87072038Y-83185000D01*
X88052569Y-84165530D01*
X88341885Y-83908923D01*
X88419720Y-82852379D01*
X88353691Y-82520430D01*
X88394944Y-82537560D01*
X89400644Y-82538437D01*
X89454041Y-82516374D01*
X89380280Y-83517621D01*
X89458115Y-83908923D01*
X89747431Y-84165530D01*
X90727962Y-83185000D01*
X93422038Y-83185000D01*
X94402569Y-84165530D01*
X94691885Y-83908923D01*
X94739424Y-83263621D01*
X101318280Y-83263621D01*
X101396115Y-83654923D01*
X101685431Y-83911530D01*
X102665962Y-82931000D01*
X101685431Y-81950470D01*
X101396115Y-82207077D01*
X101318280Y-83263621D01*
X94739424Y-83263621D01*
X94769720Y-82852379D01*
X94691885Y-82461077D01*
X94402569Y-82204470D01*
X93422038Y-83185000D01*
X90727962Y-83185000D01*
X90503455Y-82960493D01*
X91850493Y-81613455D01*
X92075000Y-81837962D01*
X93055530Y-80857431D01*
X92798923Y-80568115D01*
X91742379Y-80490280D01*
X91410430Y-80556309D01*
X91427560Y-80515056D01*
X91428437Y-79509356D01*
X91406374Y-79455959D01*
X92407621Y-79529720D01*
X92798923Y-79451885D01*
X93055530Y-79162569D01*
X92801531Y-78908569D01*
X103032470Y-78908569D01*
X103289077Y-79197885D01*
X104345621Y-79275720D01*
X104677570Y-79209691D01*
X104660440Y-79250944D01*
X104659563Y-80256644D01*
X104681626Y-80310041D01*
X103680379Y-80236280D01*
X103289077Y-80314115D01*
X103032470Y-80603431D01*
X104013000Y-81583962D01*
X104237507Y-81359455D01*
X105584545Y-82706493D01*
X105360038Y-82931000D01*
X106340569Y-83911530D01*
X106629885Y-83654923D01*
X106707720Y-82598379D01*
X106641691Y-82266430D01*
X106682944Y-82283560D01*
X107688644Y-82284437D01*
X107742041Y-82262374D01*
X107668280Y-83263621D01*
X107746115Y-83654923D01*
X108035431Y-83911530D01*
X109015962Y-82931000D01*
X111710038Y-82931000D01*
X112690569Y-83911530D01*
X112979885Y-83654923D01*
X113057720Y-82598379D01*
X112979885Y-82207077D01*
X112690569Y-81950470D01*
X111710038Y-82931000D01*
X109015962Y-82931000D01*
X108791455Y-82706493D01*
X110138493Y-81359455D01*
X110363000Y-81583962D01*
X111343530Y-80603431D01*
X111086923Y-80314115D01*
X110030379Y-80236280D01*
X109698430Y-80302309D01*
X109715560Y-80261056D01*
X109716437Y-79255356D01*
X109694374Y-79201959D01*
X110695621Y-79275720D01*
X111086923Y-79197885D01*
X111343530Y-78908569D01*
X110363000Y-77928038D01*
X110138493Y-78152545D01*
X108791455Y-76805507D01*
X109015962Y-76581000D01*
X111710038Y-76581000D01*
X112690569Y-77561530D01*
X112979885Y-77304923D01*
X113057720Y-76248379D01*
X112979885Y-75857077D01*
X112690569Y-75600470D01*
X111710038Y-76581000D01*
X109015962Y-76581000D01*
X108035431Y-75600470D01*
X107746115Y-75857077D01*
X107668280Y-76913621D01*
X107734309Y-77245570D01*
X107693056Y-77228440D01*
X106687356Y-77227563D01*
X106633959Y-77249626D01*
X106707720Y-76248379D01*
X106629885Y-75857077D01*
X106340569Y-75600470D01*
X105360038Y-76581000D01*
X105584545Y-76805507D01*
X104237507Y-78152545D01*
X104013000Y-77928038D01*
X103032470Y-78908569D01*
X92801531Y-78908569D01*
X92075000Y-78182038D01*
X91850493Y-78406545D01*
X90503455Y-77059507D01*
X90727962Y-76835000D01*
X93422038Y-76835000D01*
X94402569Y-77815530D01*
X94691885Y-77558923D01*
X94739424Y-76913621D01*
X101318280Y-76913621D01*
X101396115Y-77304923D01*
X101685431Y-77561530D01*
X102665962Y-76581000D01*
X101685431Y-75600470D01*
X101396115Y-75857077D01*
X101318280Y-76913621D01*
X94739424Y-76913621D01*
X94769720Y-76502379D01*
X94691885Y-76111077D01*
X94402569Y-75854470D01*
X93422038Y-76835000D01*
X90727962Y-76835000D01*
X89747431Y-75854470D01*
X89458115Y-76111077D01*
X89380280Y-77167621D01*
X89446309Y-77499570D01*
X89405056Y-77482440D01*
X88399356Y-77481563D01*
X88345959Y-77503626D01*
X88419720Y-76502379D01*
X88341885Y-76111077D01*
X88052569Y-75854470D01*
X87072038Y-76835000D01*
X87296545Y-77059507D01*
X85949507Y-78406545D01*
X85725000Y-78182038D01*
X84744470Y-79162569D01*
X50825000Y-79162569D01*
X50825000Y-77167621D01*
X83030280Y-77167621D01*
X83108115Y-77558923D01*
X83397431Y-77815530D01*
X84377962Y-76835000D01*
X83397431Y-75854470D01*
X83108115Y-76111077D01*
X83030280Y-77167621D01*
X50825000Y-77167621D01*
X50825000Y-74507431D01*
X84744470Y-74507431D01*
X85725000Y-75487962D01*
X86705530Y-74507431D01*
X91094470Y-74507431D01*
X92075000Y-75487962D01*
X93055530Y-74507431D01*
X92830247Y-74253431D01*
X103032470Y-74253431D01*
X104013000Y-75233962D01*
X104993530Y-74253431D01*
X109382470Y-74253431D01*
X110363000Y-75233962D01*
X111343530Y-74253431D01*
X111086923Y-73964115D01*
X110030379Y-73886280D01*
X109639077Y-73964115D01*
X109382470Y-74253431D01*
X104993530Y-74253431D01*
X104736923Y-73964115D01*
X103680379Y-73886280D01*
X103289077Y-73964115D01*
X103032470Y-74253431D01*
X92830247Y-74253431D01*
X92798923Y-74218115D01*
X91742379Y-74140280D01*
X91351077Y-74218115D01*
X91094470Y-74507431D01*
X86705530Y-74507431D01*
X86448923Y-74218115D01*
X85392379Y-74140280D01*
X85001077Y-74218115D01*
X84744470Y-74507431D01*
X50825000Y-74507431D01*
X50825000Y-71836974D01*
X50955628Y-71967602D01*
X51234225Y-72083000D01*
X52485500Y-72083000D01*
X52675000Y-71893500D01*
X52675000Y-70700000D01*
X55175000Y-70700000D01*
X55175000Y-71893500D01*
X55364500Y-72083000D01*
X56615775Y-72083000D01*
X56894372Y-71967602D01*
X57107601Y-71754373D01*
X57223000Y-71475776D01*
X57223000Y-70889500D01*
X57033500Y-70700000D01*
X55175000Y-70700000D01*
X52675000Y-70700000D01*
X52655000Y-70700000D01*
X52655000Y-70385500D01*
X114520000Y-70385500D01*
X114520000Y-70946776D01*
X114635399Y-71225373D01*
X114848628Y-71438602D01*
X115127225Y-71554000D01*
X115488500Y-71554000D01*
X115678000Y-71364500D01*
X115678000Y-70196000D01*
X116478000Y-70196000D01*
X116478000Y-71364500D01*
X116667500Y-71554000D01*
X117028775Y-71554000D01*
X117307372Y-71438602D01*
X117520601Y-71225373D01*
X117578394Y-71085850D01*
X117886948Y-71342466D01*
X117987369Y-71420665D01*
X118218000Y-71304737D01*
X118218000Y-70196000D01*
X119018000Y-70196000D01*
X119018000Y-71304737D01*
X119248631Y-71420665D01*
X119349052Y-71342466D01*
X119808674Y-70960211D01*
X119888000Y-70809441D01*
X119967326Y-70960211D01*
X120426948Y-71342466D01*
X120527369Y-71420665D01*
X120758000Y-71304737D01*
X120758000Y-70196000D01*
X121558000Y-70196000D01*
X121558000Y-71304737D01*
X121788631Y-71420665D01*
X121889052Y-71342466D01*
X122348674Y-70960211D01*
X122428000Y-70809441D01*
X122507326Y-70960211D01*
X122966948Y-71342466D01*
X123067369Y-71420665D01*
X123298000Y-71304737D01*
X123298000Y-70196000D01*
X124098000Y-70196000D01*
X124098000Y-71304737D01*
X124328631Y-71420665D01*
X124429052Y-71342466D01*
X124888674Y-70960211D01*
X124968000Y-70809441D01*
X125047326Y-70960211D01*
X125506948Y-71342466D01*
X125607369Y-71420665D01*
X125838000Y-71304737D01*
X125838000Y-70196000D01*
X126638000Y-70196000D01*
X126638000Y-71304737D01*
X126868631Y-71420665D01*
X126969052Y-71342466D01*
X127428674Y-70960211D01*
X127508000Y-70809441D01*
X127587326Y-70960211D01*
X128046948Y-71342466D01*
X128147369Y-71420665D01*
X128378000Y-71304737D01*
X128378000Y-70196000D01*
X129178000Y-70196000D01*
X129178000Y-71304737D01*
X129408631Y-71420665D01*
X129509052Y-71342466D01*
X129968674Y-70960211D01*
X130048000Y-70809441D01*
X130127326Y-70960211D01*
X130586948Y-71342466D01*
X130687369Y-71420665D01*
X130918000Y-71304737D01*
X130918000Y-70196000D01*
X131718000Y-70196000D01*
X131718000Y-71304737D01*
X131948631Y-71420665D01*
X132049052Y-71342466D01*
X132508674Y-70960211D01*
X132588000Y-70809441D01*
X132667326Y-70960211D01*
X133126948Y-71342466D01*
X133227369Y-71420665D01*
X133458000Y-71304737D01*
X133458000Y-70196000D01*
X134258000Y-70196000D01*
X134258000Y-71304737D01*
X134488631Y-71420665D01*
X134589052Y-71342466D01*
X135048674Y-70960211D01*
X135327027Y-70431164D01*
X135187516Y-70196000D01*
X134258000Y-70196000D01*
X133458000Y-70196000D01*
X131718000Y-70196000D01*
X130918000Y-70196000D01*
X129178000Y-70196000D01*
X128378000Y-70196000D01*
X126638000Y-70196000D01*
X125838000Y-70196000D01*
X124098000Y-70196000D01*
X123298000Y-70196000D01*
X121558000Y-70196000D01*
X120758000Y-70196000D01*
X119018000Y-70196000D01*
X118218000Y-70196000D01*
X116478000Y-70196000D01*
X115678000Y-70196000D01*
X114709500Y-70196000D01*
X114520000Y-70385500D01*
X52655000Y-70385500D01*
X52655000Y-69450000D01*
X52675000Y-69450000D01*
X52675000Y-68256500D01*
X55175000Y-68256500D01*
X55175000Y-69450000D01*
X57033500Y-69450000D01*
X57223000Y-69260500D01*
X57223000Y-68674224D01*
X57107601Y-68395627D01*
X56957198Y-68245224D01*
X114520000Y-68245224D01*
X114520000Y-68806500D01*
X114709500Y-68996000D01*
X115678000Y-68996000D01*
X115678000Y-67827500D01*
X116478000Y-67827500D01*
X116478000Y-68996000D01*
X118218000Y-68996000D01*
X118218000Y-67887263D01*
X119018000Y-67887263D01*
X119018000Y-68996000D01*
X120758000Y-68996000D01*
X120758000Y-67887263D01*
X121558000Y-67887263D01*
X121558000Y-68996000D01*
X123298000Y-68996000D01*
X123298000Y-67887263D01*
X124098000Y-67887263D01*
X124098000Y-68996000D01*
X125838000Y-68996000D01*
X125838000Y-67887263D01*
X126638000Y-67887263D01*
X126638000Y-68996000D01*
X128378000Y-68996000D01*
X128378000Y-67887263D01*
X129178000Y-67887263D01*
X129178000Y-68996000D01*
X130918000Y-68996000D01*
X130918000Y-67887263D01*
X131718000Y-67887263D01*
X131718000Y-68996000D01*
X133458000Y-68996000D01*
X133458000Y-67887263D01*
X134258000Y-67887263D01*
X134258000Y-68996000D01*
X135187516Y-68996000D01*
X135327027Y-68760836D01*
X135048674Y-68231789D01*
X134589052Y-67849534D01*
X134488631Y-67771335D01*
X134258000Y-67887263D01*
X133458000Y-67887263D01*
X133227369Y-67771335D01*
X133126948Y-67849534D01*
X132667326Y-68231789D01*
X132588000Y-68382559D01*
X132508674Y-68231789D01*
X132049052Y-67849534D01*
X131948631Y-67771335D01*
X131718000Y-67887263D01*
X130918000Y-67887263D01*
X130687369Y-67771335D01*
X130586948Y-67849534D01*
X130127326Y-68231789D01*
X130048000Y-68382559D01*
X129968674Y-68231789D01*
X129509052Y-67849534D01*
X129408631Y-67771335D01*
X129178000Y-67887263D01*
X128378000Y-67887263D01*
X128147369Y-67771335D01*
X128046948Y-67849534D01*
X127587326Y-68231789D01*
X127508000Y-68382559D01*
X127428674Y-68231789D01*
X126969052Y-67849534D01*
X126868631Y-67771335D01*
X126638000Y-67887263D01*
X125838000Y-67887263D01*
X125607369Y-67771335D01*
X125506948Y-67849534D01*
X125047326Y-68231789D01*
X124968000Y-68382559D01*
X124888674Y-68231789D01*
X124429052Y-67849534D01*
X124328631Y-67771335D01*
X124098000Y-67887263D01*
X123298000Y-67887263D01*
X123067369Y-67771335D01*
X122966948Y-67849534D01*
X122507326Y-68231789D01*
X122428000Y-68382559D01*
X122348674Y-68231789D01*
X121889052Y-67849534D01*
X121788631Y-67771335D01*
X121558000Y-67887263D01*
X120758000Y-67887263D01*
X120527369Y-67771335D01*
X120426948Y-67849534D01*
X119967326Y-68231789D01*
X119888000Y-68382559D01*
X119808674Y-68231789D01*
X119349052Y-67849534D01*
X119248631Y-67771335D01*
X119018000Y-67887263D01*
X118218000Y-67887263D01*
X117987369Y-67771335D01*
X117886948Y-67849534D01*
X117578394Y-68106150D01*
X117520601Y-67966627D01*
X117307372Y-67753398D01*
X117028775Y-67638000D01*
X116667500Y-67638000D01*
X116478000Y-67827500D01*
X115678000Y-67827500D01*
X115488500Y-67638000D01*
X115127225Y-67638000D01*
X114848628Y-67753398D01*
X114635399Y-67966627D01*
X114520000Y-68245224D01*
X56957198Y-68245224D01*
X56894372Y-68182398D01*
X56615775Y-68067000D01*
X55364500Y-68067000D01*
X55175000Y-68256500D01*
X52675000Y-68256500D01*
X52485500Y-68067000D01*
X51234225Y-68067000D01*
X50955628Y-68182398D01*
X50825000Y-68313026D01*
X50825000Y-67183520D01*
X143784247Y-67183520D01*
X144267511Y-67598279D01*
X145944896Y-67834506D01*
X147132489Y-67598279D01*
X147615753Y-67183520D01*
X145700000Y-65267767D01*
X143784247Y-67183520D01*
X50825000Y-67183520D01*
X50825000Y-64336974D01*
X50955628Y-64467602D01*
X51234225Y-64583000D01*
X52485500Y-64583000D01*
X52675000Y-64393500D01*
X52675000Y-63200000D01*
X55175000Y-63200000D01*
X55175000Y-64393500D01*
X55364500Y-64583000D01*
X56615775Y-64583000D01*
X56894372Y-64467602D01*
X57107601Y-64254373D01*
X57223000Y-63975776D01*
X57223000Y-63389500D01*
X57033500Y-63200000D01*
X55175000Y-63200000D01*
X52675000Y-63200000D01*
X52655000Y-63200000D01*
X52655000Y-61950000D01*
X52675000Y-61950000D01*
X52675000Y-60756500D01*
X55175000Y-60756500D01*
X55175000Y-61950000D01*
X57033500Y-61950000D01*
X57080931Y-61902569D01*
X94544470Y-61902569D01*
X94801077Y-62191885D01*
X95857621Y-62269720D01*
X96248923Y-62191885D01*
X96505530Y-61902569D01*
X100894470Y-61902569D01*
X101151077Y-62191885D01*
X102207621Y-62269720D01*
X102598923Y-62191885D01*
X102855530Y-61902569D01*
X102490759Y-61537797D01*
X114528000Y-61537797D01*
X114528000Y-62414203D01*
X114645987Y-63007362D01*
X114981984Y-63510219D01*
X115484841Y-63846216D01*
X116078000Y-63964203D01*
X116671159Y-63846216D01*
X117174016Y-63510219D01*
X117348000Y-63249833D01*
X117521984Y-63510219D01*
X118024841Y-63846216D01*
X118618000Y-63964203D01*
X119211159Y-63846216D01*
X119714016Y-63510219D01*
X119888000Y-63249833D01*
X120061984Y-63510219D01*
X120564841Y-63846216D01*
X121158000Y-63964203D01*
X121751159Y-63846216D01*
X122254016Y-63510219D01*
X122428000Y-63249833D01*
X122601984Y-63510219D01*
X123104841Y-63846216D01*
X123698000Y-63964203D01*
X124291159Y-63846216D01*
X124794016Y-63510219D01*
X124968000Y-63249833D01*
X125141984Y-63510219D01*
X125644841Y-63846216D01*
X126238000Y-63964203D01*
X126831159Y-63846216D01*
X127334016Y-63510219D01*
X127508000Y-63249833D01*
X127681984Y-63510219D01*
X128184841Y-63846216D01*
X128778000Y-63964203D01*
X129371159Y-63846216D01*
X129874016Y-63510219D01*
X130048000Y-63249833D01*
X130221984Y-63510219D01*
X130724841Y-63846216D01*
X131318000Y-63964203D01*
X131911159Y-63846216D01*
X132414016Y-63510219D01*
X132588000Y-63249833D01*
X132761984Y-63510219D01*
X133264841Y-63846216D01*
X133858000Y-63964203D01*
X134451159Y-63846216D01*
X134602795Y-63744896D01*
X141365494Y-63744896D01*
X141601721Y-64932489D01*
X142016480Y-65415753D01*
X143932233Y-63500000D01*
X142016480Y-61584247D01*
X141601721Y-62067511D01*
X141365494Y-63744896D01*
X134602795Y-63744896D01*
X134954016Y-63510219D01*
X135290013Y-63007362D01*
X135408000Y-62414203D01*
X135408000Y-61537797D01*
X135290013Y-60944638D01*
X134954016Y-60441781D01*
X134451159Y-60105784D01*
X133858000Y-59987797D01*
X133264841Y-60105784D01*
X132761984Y-60441781D01*
X132588000Y-60702167D01*
X132414016Y-60441781D01*
X131911159Y-60105784D01*
X131318000Y-59987797D01*
X130724841Y-60105784D01*
X130221984Y-60441781D01*
X130048000Y-60702167D01*
X129874016Y-60441781D01*
X129371159Y-60105784D01*
X128778000Y-59987797D01*
X128184841Y-60105784D01*
X127681984Y-60441781D01*
X127508000Y-60702167D01*
X127334016Y-60441781D01*
X126831159Y-60105784D01*
X126238000Y-59987797D01*
X125644841Y-60105784D01*
X125141984Y-60441781D01*
X124968000Y-60702167D01*
X124794016Y-60441781D01*
X124291159Y-60105784D01*
X123698000Y-59987797D01*
X123104841Y-60105784D01*
X122601984Y-60441781D01*
X122428000Y-60702167D01*
X122254016Y-60441781D01*
X121751159Y-60105784D01*
X121158000Y-59987797D01*
X120564841Y-60105784D01*
X120061984Y-60441781D01*
X119888000Y-60702167D01*
X119714016Y-60441781D01*
X119211159Y-60105784D01*
X118618000Y-59987797D01*
X118024841Y-60105784D01*
X117521984Y-60441781D01*
X117348000Y-60702167D01*
X117174016Y-60441781D01*
X116671159Y-60105784D01*
X116078000Y-59987797D01*
X115484841Y-60105784D01*
X114981984Y-60441781D01*
X114645987Y-60944638D01*
X114528000Y-61537797D01*
X102490759Y-61537797D01*
X101875000Y-60922038D01*
X100894470Y-61902569D01*
X96505530Y-61902569D01*
X95525000Y-60922038D01*
X94544470Y-61902569D01*
X57080931Y-61902569D01*
X57223000Y-61760500D01*
X57223000Y-61174224D01*
X57107601Y-60895627D01*
X56894372Y-60682398D01*
X56615775Y-60567000D01*
X55364500Y-60567000D01*
X55175000Y-60756500D01*
X52675000Y-60756500D01*
X52485500Y-60567000D01*
X51234225Y-60567000D01*
X50955628Y-60682398D01*
X50825000Y-60813026D01*
X50825000Y-59907621D01*
X92830280Y-59907621D01*
X92908115Y-60298923D01*
X93197431Y-60555530D01*
X94177962Y-59575000D01*
X93197431Y-58594470D01*
X92908115Y-58851077D01*
X92830280Y-59907621D01*
X50825000Y-59907621D01*
X50825000Y-55515848D01*
X51538461Y-56229309D01*
X51853001Y-55914769D01*
X52202263Y-56224618D01*
X53496996Y-56284439D01*
X53797737Y-56224618D01*
X54147001Y-55914768D01*
X53519733Y-55287500D01*
X60536000Y-55287500D01*
X60536000Y-56538775D01*
X60651398Y-56817372D01*
X60864627Y-57030601D01*
X61143224Y-57146000D01*
X61729500Y-57146000D01*
X61919000Y-56956500D01*
X61919000Y-55098000D01*
X63169000Y-55098000D01*
X63169000Y-56956500D01*
X63358500Y-57146000D01*
X63944776Y-57146000D01*
X64223373Y-57030601D01*
X64436602Y-56817372D01*
X64552000Y-56538775D01*
X64552000Y-55287500D01*
X68036000Y-55287500D01*
X68036000Y-56538775D01*
X68151398Y-56817372D01*
X68364627Y-57030601D01*
X68643224Y-57146000D01*
X69229500Y-57146000D01*
X69419000Y-56956500D01*
X69419000Y-55098000D01*
X70669000Y-55098000D01*
X70669000Y-56956500D01*
X70858500Y-57146000D01*
X71444776Y-57146000D01*
X71723373Y-57030601D01*
X71936602Y-56817372D01*
X72052000Y-56538775D01*
X72052000Y-55287500D01*
X71862500Y-55098000D01*
X70669000Y-55098000D01*
X69419000Y-55098000D01*
X68225500Y-55098000D01*
X68036000Y-55287500D01*
X64552000Y-55287500D01*
X64362500Y-55098000D01*
X63169000Y-55098000D01*
X61919000Y-55098000D01*
X60725500Y-55098000D01*
X60536000Y-55287500D01*
X53519733Y-55287500D01*
X53000000Y-54767767D01*
X52985858Y-54781910D01*
X51218091Y-53014143D01*
X51232233Y-53000000D01*
X51218091Y-52985858D01*
X52985858Y-51218091D01*
X53000000Y-51232233D01*
X53014143Y-51218091D01*
X54781910Y-52985858D01*
X54767767Y-53000000D01*
X55914768Y-54147001D01*
X56224618Y-53797737D01*
X56266096Y-52900000D01*
X79835307Y-52900000D01*
X79835307Y-55900000D01*
X79887604Y-56177933D01*
X80051862Y-56433198D01*
X80302492Y-56604446D01*
X80600000Y-56664693D01*
X83600000Y-56664693D01*
X83877933Y-56612396D01*
X84133198Y-56448138D01*
X84215994Y-56326961D01*
X86313699Y-56326961D01*
X86507361Y-56601784D01*
X87401149Y-56691592D01*
X87852639Y-56601784D01*
X88046301Y-56326961D01*
X87271909Y-55552569D01*
X94544470Y-55552569D01*
X94801077Y-55841885D01*
X95857621Y-55919720D01*
X96189570Y-55853691D01*
X96172440Y-55894944D01*
X96171563Y-56900644D01*
X96193626Y-56954041D01*
X95192379Y-56880280D01*
X94801077Y-56958115D01*
X94544470Y-57247431D01*
X95525000Y-58227962D01*
X95749507Y-58003455D01*
X97096545Y-59350493D01*
X96872038Y-59575000D01*
X97852569Y-60555530D01*
X98141885Y-60298923D01*
X98219720Y-59242379D01*
X98153691Y-58910430D01*
X98194944Y-58927560D01*
X99200644Y-58928437D01*
X99254041Y-58906374D01*
X99180280Y-59907621D01*
X99258115Y-60298923D01*
X99547431Y-60555530D01*
X100527962Y-59575000D01*
X103222038Y-59575000D01*
X104202569Y-60555530D01*
X104491885Y-60298923D01*
X104527426Y-59816480D01*
X143784247Y-59816480D01*
X145700000Y-61732233D01*
X147615753Y-59816480D01*
X147132489Y-59401721D01*
X145455104Y-59165494D01*
X144267511Y-59401721D01*
X143784247Y-59816480D01*
X104527426Y-59816480D01*
X104569720Y-59242379D01*
X104491885Y-58851077D01*
X104202569Y-58594470D01*
X103222038Y-59575000D01*
X100527962Y-59575000D01*
X100303455Y-59350493D01*
X101650493Y-58003455D01*
X101875000Y-58227962D01*
X102855530Y-57247431D01*
X102598923Y-56958115D01*
X101542379Y-56880280D01*
X101210430Y-56946309D01*
X101227560Y-56905056D01*
X101228437Y-55899356D01*
X101206374Y-55845959D01*
X102207621Y-55919720D01*
X102598923Y-55841885D01*
X102855530Y-55552569D01*
X102312462Y-55009500D01*
X110062000Y-55009500D01*
X110062000Y-56260775D01*
X110177398Y-56539372D01*
X110390627Y-56752601D01*
X110669224Y-56868000D01*
X111255500Y-56868000D01*
X111445000Y-56678500D01*
X111445000Y-54820000D01*
X112695000Y-54820000D01*
X112695000Y-56678500D01*
X112884500Y-56868000D01*
X113470776Y-56868000D01*
X113749373Y-56752601D01*
X113962602Y-56539372D01*
X114078000Y-56260775D01*
X114078000Y-55009500D01*
X117562000Y-55009500D01*
X117562000Y-56260775D01*
X117677398Y-56539372D01*
X117890627Y-56752601D01*
X118169224Y-56868000D01*
X118755500Y-56868000D01*
X118945000Y-56678500D01*
X118945000Y-54820000D01*
X120195000Y-54820000D01*
X120195000Y-56678500D01*
X120384500Y-56868000D01*
X120970776Y-56868000D01*
X121249373Y-56752601D01*
X121462602Y-56539372D01*
X121578000Y-56260775D01*
X121578000Y-55209500D01*
X127952000Y-55209500D01*
X127952000Y-56460775D01*
X128067398Y-56739372D01*
X128280627Y-56952601D01*
X128559224Y-57068000D01*
X129145500Y-57068000D01*
X129335000Y-56878500D01*
X129335000Y-55020000D01*
X130585000Y-55020000D01*
X130585000Y-56878500D01*
X130774500Y-57068000D01*
X131360776Y-57068000D01*
X131639373Y-56952601D01*
X131852602Y-56739372D01*
X131968000Y-56460775D01*
X131968000Y-55209500D01*
X135452000Y-55209500D01*
X135452000Y-56460775D01*
X135567398Y-56739372D01*
X135780627Y-56952601D01*
X136059224Y-57068000D01*
X136645500Y-57068000D01*
X136835000Y-56878500D01*
X136835000Y-55020000D01*
X138085000Y-55020000D01*
X138085000Y-56878500D01*
X138274500Y-57068000D01*
X138860776Y-57068000D01*
X139139373Y-56952601D01*
X139352602Y-56739372D01*
X139468000Y-56460775D01*
X139468000Y-55209500D01*
X139278500Y-55020000D01*
X138085000Y-55020000D01*
X136835000Y-55020000D01*
X135641500Y-55020000D01*
X135452000Y-55209500D01*
X131968000Y-55209500D01*
X131778500Y-55020000D01*
X130585000Y-55020000D01*
X129335000Y-55020000D01*
X128141500Y-55020000D01*
X127952000Y-55209500D01*
X121578000Y-55209500D01*
X121578000Y-55009500D01*
X121388500Y-54820000D01*
X120195000Y-54820000D01*
X118945000Y-54820000D01*
X117751500Y-54820000D01*
X117562000Y-55009500D01*
X114078000Y-55009500D01*
X113888500Y-54820000D01*
X112695000Y-54820000D01*
X111445000Y-54820000D01*
X110251500Y-54820000D01*
X110062000Y-55009500D01*
X102312462Y-55009500D01*
X101875000Y-54572038D01*
X101650493Y-54796545D01*
X100303455Y-53449507D01*
X100527962Y-53225000D01*
X103222038Y-53225000D01*
X104202569Y-54205530D01*
X104491885Y-53948923D01*
X104569720Y-52892379D01*
X104491885Y-52501077D01*
X104202569Y-52244470D01*
X103222038Y-53225000D01*
X100527962Y-53225000D01*
X99547431Y-52244470D01*
X99258115Y-52501077D01*
X99180280Y-53557621D01*
X99246309Y-53889570D01*
X99205056Y-53872440D01*
X98199356Y-53871563D01*
X98145959Y-53893626D01*
X98219720Y-52892379D01*
X98141885Y-52501077D01*
X97852569Y-52244470D01*
X96872038Y-53225000D01*
X97096545Y-53449507D01*
X95749507Y-54796545D01*
X95525000Y-54572038D01*
X94544470Y-55552569D01*
X87271909Y-55552569D01*
X87180000Y-55460660D01*
X86313699Y-56326961D01*
X84215994Y-56326961D01*
X84304446Y-56197508D01*
X84364693Y-55900000D01*
X84364693Y-54621149D01*
X84888408Y-54621149D01*
X84978216Y-55072639D01*
X85253039Y-55266301D01*
X86119340Y-54400000D01*
X88240660Y-54400000D01*
X89106961Y-55266301D01*
X89381784Y-55072639D01*
X89471592Y-54178851D01*
X89381784Y-53727361D01*
X89140909Y-53557621D01*
X92830280Y-53557621D01*
X92908115Y-53948923D01*
X93197431Y-54205530D01*
X94177962Y-53225000D01*
X93197431Y-52244470D01*
X92908115Y-52501077D01*
X92830280Y-53557621D01*
X89140909Y-53557621D01*
X89106961Y-53533699D01*
X88240660Y-54400000D01*
X86119340Y-54400000D01*
X85253039Y-53533699D01*
X84978216Y-53727361D01*
X84888408Y-54621149D01*
X84364693Y-54621149D01*
X84364693Y-52900000D01*
X84312396Y-52622067D01*
X84216500Y-52473039D01*
X86313699Y-52473039D01*
X87180000Y-53339340D01*
X88046301Y-52473039D01*
X87852639Y-52198216D01*
X86958851Y-52108408D01*
X86507361Y-52198216D01*
X86313699Y-52473039D01*
X84216500Y-52473039D01*
X84148138Y-52366802D01*
X83897508Y-52195554D01*
X83600000Y-52135307D01*
X80600000Y-52135307D01*
X80322067Y-52187604D01*
X80066802Y-52351862D01*
X79895554Y-52602492D01*
X79835307Y-52900000D01*
X56266096Y-52900000D01*
X56284439Y-52503004D01*
X56224618Y-52202263D01*
X55914769Y-51853001D01*
X56229309Y-51538461D01*
X55515848Y-50825000D01*
X60705026Y-50825000D01*
X60651398Y-50878628D01*
X60651398Y-50878628D01*
G37*
X60651398Y-50878628D02*
X60536000Y-51157225D01*
X60536000Y-52408500D01*
X60725500Y-52598000D01*
X61919000Y-52598000D01*
X61919000Y-52578000D01*
X63169000Y-52578000D01*
X63169000Y-52598000D01*
X64362500Y-52598000D01*
X64552000Y-52408500D01*
X64552000Y-51157225D01*
X64436602Y-50878628D01*
X64382974Y-50825000D01*
X68205026Y-50825000D01*
X68151398Y-50878628D01*
X68036000Y-51157225D01*
X68036000Y-52408500D01*
X68225500Y-52598000D01*
X69419000Y-52598000D01*
X69419000Y-52578000D01*
X70669000Y-52578000D01*
X70669000Y-52598000D01*
X71862500Y-52598000D01*
X72052000Y-52408500D01*
X72052000Y-51157225D01*
X71936602Y-50878628D01*
X71882974Y-50825000D01*
X94608712Y-50825000D01*
X94544470Y-50897431D01*
X95525000Y-51877962D01*
X96505530Y-50897431D01*
X96441288Y-50825000D01*
X100958712Y-50825000D01*
X100894470Y-50897431D01*
X101875000Y-51877962D01*
X102855530Y-50897431D01*
X102791288Y-50825000D01*
X110084461Y-50825000D01*
X110062000Y-50879225D01*
X110062000Y-52130500D01*
X110251500Y-52320000D01*
X111445000Y-52320000D01*
X111445000Y-52300000D01*
X112695000Y-52300000D01*
X112695000Y-52320000D01*
X113888500Y-52320000D01*
X114078000Y-52130500D01*
X114078000Y-50879225D01*
X114055539Y-50825000D01*
X117584461Y-50825000D01*
X117562000Y-50879225D01*
X117562000Y-52130500D01*
X117751500Y-52320000D01*
X118945000Y-52320000D01*
X118945000Y-52300000D01*
X120195000Y-52300000D01*
X120195000Y-52320000D01*
X121388500Y-52320000D01*
X121578000Y-52130500D01*
X121578000Y-50879225D01*
X121555539Y-50825000D01*
X128057303Y-50825000D01*
X127952000Y-51079225D01*
X127952000Y-52330500D01*
X128141500Y-52520000D01*
X129335000Y-52520000D01*
X129335000Y-52500000D01*
X130585000Y-52500000D01*
X130585000Y-52520000D01*
X131778500Y-52520000D01*
X131968000Y-52330500D01*
X131968000Y-51079225D01*
X131862697Y-50825000D01*
X135557303Y-50825000D01*
X135452000Y-51079225D01*
X135452000Y-52330500D01*
X135641500Y-52520000D01*
X136835000Y-52520000D01*
X136835000Y-52500000D01*
X138085000Y-52500000D01*
X138085000Y-52520000D01*
X139278500Y-52520000D01*
X139468000Y-52330500D01*
X139468000Y-51079225D01*
X139362697Y-50825000D01*
X144484152Y-50825000D01*
X143770691Y-51538461D01*
X144085231Y-51853001D01*
X143775382Y-52202263D01*
X143715561Y-53496996D01*
X143775382Y-53797737D01*
X144085232Y-54147001D01*
X145232233Y-53000000D01*
X145218091Y-52985858D01*
X146985858Y-51218091D01*
X147000000Y-51232233D01*
X147014143Y-51218091D01*
X148781910Y-52985858D01*
X148767767Y-53000000D01*
X148781910Y-53014143D01*
X147014143Y-54781910D01*
X147000000Y-54767767D01*
X145852999Y-55914768D01*
X146202263Y-56224618D01*
X147496996Y-56284439D01*
X147797737Y-56224618D01*
X148146999Y-55914769D01*
X148461539Y-56229309D01*
X149148811Y-55542037D01*
X149128299Y-61839468D01*
X147467767Y-63500000D01*
X149117517Y-65149750D01*
X149066324Y-80866520D01*
X116010967Y-80408024D01*
X115913439Y-80426370D01*
X115830733Y-80481214D01*
X115775880Y-80563914D01*
X115757502Y-80658971D01*
X115857502Y-106409471D01*
X115868898Y-106464643D01*
X115407144Y-106472263D01*
X115392885Y-106400577D01*
X115103569Y-106143970D01*
X114764674Y-106482864D01*
X110851893Y-106547432D01*
X110448431Y-106143970D01*
X110159115Y-106400577D01*
X110147440Y-106559056D01*
X109077919Y-106576705D01*
X109042885Y-106400577D01*
X108753569Y-106143970D01*
X108308131Y-106589408D01*
X106421875Y-106620534D01*
X106324949Y-106641833D01*
X106243946Y-106699163D01*
X106191630Y-106783491D01*
X106176000Y-106870500D01*
X106176000Y-108721538D01*
X105445470Y-109452069D01*
X105702077Y-109741385D01*
X106176000Y-109776299D01*
X106176000Y-110785867D01*
X106093379Y-110779780D01*
X105702077Y-110857615D01*
X105445470Y-111146931D01*
X106176000Y-111877462D01*
X106176000Y-113728500D01*
X106195696Y-113825764D01*
X106251682Y-113907702D01*
X106335136Y-113961403D01*
X106426000Y-113978500D01*
X108277039Y-113978500D01*
X108753569Y-114455030D01*
X109042885Y-114198423D01*
X109059087Y-113978500D01*
X110115369Y-113978500D01*
X110159115Y-114198423D01*
X110448431Y-114455030D01*
X110924961Y-113978500D01*
X114627039Y-113978500D01*
X115103569Y-114455030D01*
X115392885Y-114198423D01*
X115409087Y-113978500D01*
X116205000Y-113978500D01*
X116302264Y-113958804D01*
X116384202Y-113902818D01*
X116437903Y-113819364D01*
X116454991Y-113730619D01*
X116514486Y-106710268D01*
X116504143Y-106656867D01*
X129083192Y-106604997D01*
X128405714Y-106884925D01*
X127209127Y-108079425D01*
X126560740Y-109640914D01*
X126559264Y-111331668D01*
X127204925Y-112894286D01*
X128399425Y-114090873D01*
X129960914Y-114739260D01*
X131651668Y-114740736D01*
X133214286Y-114095075D01*
X133843233Y-113467224D01*
X143260000Y-113467224D01*
X143260000Y-114053500D01*
X143449500Y-114243000D01*
X145308000Y-114243000D01*
X145308000Y-113049500D01*
X145118500Y-112860000D01*
X143867225Y-112860000D01*
X143588628Y-112975398D01*
X143375399Y-113188627D01*
X143260000Y-113467224D01*
X133843233Y-113467224D01*
X134410873Y-112900575D01*
X135059260Y-111339086D01*
X135060736Y-109648332D01*
X134415075Y-108085714D01*
X133220575Y-106889127D01*
X132502358Y-106590897D01*
X140272187Y-106558858D01*
X140212013Y-112455949D01*
X140230716Y-112553409D01*
X140285863Y-112635914D01*
X140368764Y-112690463D01*
X140462000Y-112708500D01*
X149175000Y-112708500D01*
X149175000Y-112860000D01*
X147997500Y-112860000D01*
X147808000Y-113049500D01*
X147808000Y-114243000D01*
X147828000Y-114243000D01*
X147828000Y-115493000D01*
X147808000Y-115493000D01*
X147808000Y-116686500D01*
X147997500Y-116876000D01*
X149175000Y-116876000D01*
X149175000Y-120360000D01*
X147997500Y-120360000D01*
X147808000Y-120549500D01*
X147808000Y-121743000D01*
X147828000Y-121743000D01*
X147828000Y-122993000D01*
X147808000Y-122993000D01*
X147808000Y-124186500D01*
X147997500Y-124376000D01*
X149175000Y-124376000D01*
X149175000Y-130592000D01*
X148114500Y-130592000D01*
X147925000Y-130781500D01*
X147925000Y-131975000D01*
X147945000Y-131975000D01*
X147945000Y-133225000D01*
X147925000Y-133225000D01*
X147925000Y-134418500D01*
X148114500Y-134608000D01*
X149175000Y-134608000D01*
X149175000Y-138092000D01*
X148114500Y-138092000D01*
X147925000Y-138281500D01*
X147925000Y-139475000D01*
X147945000Y-139475000D01*
X147945000Y-140725000D01*
X147925000Y-140725000D01*
X147925000Y-141918500D01*
X148114500Y-142108000D01*
X149175000Y-142108000D01*
X149175000Y-144484152D01*
X148461539Y-143770691D01*
X148146999Y-144085231D01*
X147797737Y-143775382D01*
X146503004Y-143715561D01*
X146202263Y-143775382D01*
X145852999Y-144085232D01*
X147000000Y-145232233D01*
X147014143Y-145218091D01*
X148781910Y-146985858D01*
X148767767Y-147000000D01*
X148781910Y-147014143D01*
X147014143Y-148781910D01*
X147000000Y-148767767D01*
X146985858Y-148781910D01*
X145218091Y-147014143D01*
X145232233Y-147000000D01*
X144085232Y-145852999D01*
X143775382Y-146202263D01*
X143715561Y-147496996D01*
X143775382Y-147797737D01*
X144085231Y-148146999D01*
X143770691Y-148461539D01*
X144474652Y-149165500D01*
X141887403Y-149165500D01*
X141908000Y-149115775D01*
X141908000Y-147864500D01*
X141718500Y-147675000D01*
X140525000Y-147675000D01*
X140525000Y-147695000D01*
X139275000Y-147695000D01*
X139275000Y-147675000D01*
X138081500Y-147675000D01*
X137892000Y-147864500D01*
X137892000Y-149115775D01*
X137912597Y-149165500D01*
X134387403Y-149165500D01*
X134408000Y-149115775D01*
X134408000Y-147864500D01*
X134218500Y-147675000D01*
X133025000Y-147675000D01*
X133025000Y-147695000D01*
X131775000Y-147695000D01*
X131775000Y-147675000D01*
X130581500Y-147675000D01*
X130392000Y-147864500D01*
X130392000Y-149115775D01*
X130412597Y-149165500D01*
X124762403Y-149165500D01*
X124783000Y-149115775D01*
X124783000Y-147864500D01*
X124593500Y-147675000D01*
X123400000Y-147675000D01*
X123400000Y-147695000D01*
X122150000Y-147695000D01*
X122150000Y-147675000D01*
X121525000Y-147675000D01*
X121525000Y-145175000D01*
X122150000Y-145175000D01*
X122150000Y-143316500D01*
X123400000Y-143316500D01*
X123400000Y-145175000D01*
X124593500Y-145175000D01*
X124783000Y-144985500D01*
X124783000Y-143734225D01*
X130392000Y-143734225D01*
X130392000Y-144985500D01*
X130581500Y-145175000D01*
X131775000Y-145175000D01*
X131775000Y-143316500D01*
X133025000Y-143316500D01*
X133025000Y-145175000D01*
X134218500Y-145175000D01*
X134408000Y-144985500D01*
X134408000Y-143734225D01*
X137892000Y-143734225D01*
X137892000Y-144985500D01*
X138081500Y-145175000D01*
X139275000Y-145175000D01*
X139275000Y-143316500D01*
X140525000Y-143316500D01*
X140525000Y-145175000D01*
X141718500Y-145175000D01*
X141908000Y-144985500D01*
X141908000Y-143734225D01*
X141792602Y-143455628D01*
X141579373Y-143242399D01*
X141300776Y-143127000D01*
X140714500Y-143127000D01*
X140525000Y-143316500D01*
X139275000Y-143316500D01*
X139085500Y-143127000D01*
X138499224Y-143127000D01*
X138220627Y-143242399D01*
X138007398Y-143455628D01*
X137892000Y-143734225D01*
X134408000Y-143734225D01*
X134292602Y-143455628D01*
X134079373Y-143242399D01*
X133800776Y-143127000D01*
X133214500Y-143127000D01*
X133025000Y-143316500D01*
X131775000Y-143316500D01*
X131585500Y-143127000D01*
X130999224Y-143127000D01*
X130720627Y-143242399D01*
X130507398Y-143455628D01*
X130392000Y-143734225D01*
X124783000Y-143734225D01*
X124667602Y-143455628D01*
X124454373Y-143242399D01*
X124175776Y-143127000D01*
X123589500Y-143127000D01*
X123400000Y-143316500D01*
X122150000Y-143316500D01*
X121960500Y-143127000D01*
X121374224Y-143127000D01*
X121217500Y-143191917D01*
X121217500Y-142240000D01*
X121197804Y-142142736D01*
X121141818Y-142060798D01*
X121058364Y-142007097D01*
X120967500Y-141990000D01*
X116967000Y-141990000D01*
X116869736Y-142009696D01*
X116787798Y-142065682D01*
X116734097Y-142149136D01*
X116717000Y-142240000D01*
X116717000Y-143144076D01*
X116675776Y-143127000D01*
X116089500Y-143127000D01*
X115900000Y-143316500D01*
X115900000Y-145175000D01*
X116525000Y-145175000D01*
X116525000Y-147675000D01*
X115900000Y-147675000D01*
X115900000Y-147695000D01*
X114650000Y-147695000D01*
X114650000Y-147675000D01*
X113456500Y-147675000D01*
X113267000Y-147864500D01*
X113267000Y-149115775D01*
X113291532Y-149175000D01*
X106283000Y-149175000D01*
X106283000Y-148189500D01*
X106093500Y-148000000D01*
X104900000Y-148000000D01*
X104900000Y-148020000D01*
X103650000Y-148020000D01*
X103650000Y-148000000D01*
X102456500Y-148000000D01*
X102267000Y-148189500D01*
X102267000Y-149175000D01*
X98783000Y-149175000D01*
X98783000Y-148189500D01*
X98593500Y-148000000D01*
X97400000Y-148000000D01*
X97400000Y-148020000D01*
X96150000Y-148020000D01*
X96150000Y-148000000D01*
X94956500Y-148000000D01*
X94767000Y-148189500D01*
X94767000Y-149175000D01*
X87458000Y-149175000D01*
X87458000Y-148114500D01*
X87268500Y-147925000D01*
X86075000Y-147925000D01*
X86075000Y-147945000D01*
X84825000Y-147945000D01*
X84825000Y-147925000D01*
X83631500Y-147925000D01*
X83442000Y-148114500D01*
X83442000Y-149175000D01*
X79958000Y-149175000D01*
X79958000Y-148114500D01*
X79768500Y-147925000D01*
X78575000Y-147925000D01*
X78575000Y-147945000D01*
X77325000Y-147945000D01*
X77325000Y-147925000D01*
X76131500Y-147925000D01*
X75942000Y-148114500D01*
X75942000Y-149175000D01*
X55515848Y-149175000D01*
X56229309Y-148461539D01*
X55914769Y-148146999D01*
X56224618Y-147797737D01*
X56227166Y-147742569D01*
X62392470Y-147742569D01*
X62649077Y-148031885D01*
X63705621Y-148109720D01*
X64096923Y-148031885D01*
X64353530Y-147742569D01*
X68742470Y-147742569D01*
X68999077Y-148031885D01*
X70055621Y-148109720D01*
X70446923Y-148031885D01*
X70703530Y-147742569D01*
X69723000Y-146762038D01*
X68742470Y-147742569D01*
X64353530Y-147742569D01*
X63373000Y-146762038D01*
X62392470Y-147742569D01*
X56227166Y-147742569D01*
X56284439Y-146503004D01*
X56224618Y-146202263D01*
X55914768Y-145852999D01*
X54767767Y-147000000D01*
X54781910Y-147014143D01*
X53014143Y-148781910D01*
X53000000Y-148767767D01*
X52985858Y-148781910D01*
X51218091Y-147014143D01*
X51232233Y-147000000D01*
X51218091Y-146985858D01*
X52456328Y-145747621D01*
X60678280Y-145747621D01*
X60756115Y-146138923D01*
X61045431Y-146395530D01*
X62025962Y-145415000D01*
X61045431Y-144434470D01*
X60756115Y-144691077D01*
X60678280Y-145747621D01*
X52456328Y-145747621D01*
X52985858Y-145218091D01*
X53000000Y-145232233D01*
X54147001Y-144085232D01*
X53797737Y-143775382D01*
X52503004Y-143715561D01*
X52202263Y-143775382D01*
X51853001Y-144085231D01*
X51538461Y-143770691D01*
X50825000Y-144484152D01*
X50825000Y-141392569D01*
X62392470Y-141392569D01*
X62649077Y-141681885D01*
X63705621Y-141759720D01*
X64037570Y-141693691D01*
X64020440Y-141734944D01*
X64019563Y-142740644D01*
X64041626Y-142794041D01*
X63040379Y-142720280D01*
X62649077Y-142798115D01*
X62392470Y-143087431D01*
X63373000Y-144067962D01*
X63597507Y-143843455D01*
X64944545Y-145190493D01*
X64720038Y-145415000D01*
X65700569Y-146395530D01*
X65989885Y-146138923D01*
X66067720Y-145082379D01*
X66001691Y-144750430D01*
X66042944Y-144767560D01*
X67048644Y-144768437D01*
X67102041Y-144746374D01*
X67028280Y-145747621D01*
X67106115Y-146138923D01*
X67395431Y-146395530D01*
X68375962Y-145415000D01*
X71070038Y-145415000D01*
X72050569Y-146395530D01*
X72339885Y-146138923D01*
X72417720Y-145082379D01*
X72339885Y-144691077D01*
X72050569Y-144434470D01*
X71070038Y-145415000D01*
X68375962Y-145415000D01*
X68151455Y-145190493D01*
X69498493Y-143843455D01*
X69723000Y-144067962D01*
X69806736Y-143984225D01*
X75942000Y-143984225D01*
X75942000Y-145235500D01*
X76131500Y-145425000D01*
X77325000Y-145425000D01*
X77325000Y-143566500D01*
X78575000Y-143566500D01*
X78575000Y-145425000D01*
X79768500Y-145425000D01*
X79958000Y-145235500D01*
X79958000Y-143984225D01*
X83442000Y-143984225D01*
X83442000Y-145235500D01*
X83631500Y-145425000D01*
X84825000Y-145425000D01*
X84825000Y-143566500D01*
X86075000Y-143566500D01*
X86075000Y-145425000D01*
X87268500Y-145425000D01*
X87458000Y-145235500D01*
X87458000Y-144059225D01*
X94767000Y-144059225D01*
X94767000Y-145310500D01*
X94956500Y-145500000D01*
X96150000Y-145500000D01*
X96150000Y-143641500D01*
X97400000Y-143641500D01*
X97400000Y-145500000D01*
X98593500Y-145500000D01*
X98783000Y-145310500D01*
X98783000Y-144059225D01*
X102267000Y-144059225D01*
X102267000Y-145310500D01*
X102456500Y-145500000D01*
X103650000Y-145500000D01*
X103650000Y-143641500D01*
X104900000Y-143641500D01*
X104900000Y-145500000D01*
X106093500Y-145500000D01*
X106283000Y-145310500D01*
X106283000Y-144059225D01*
X106167602Y-143780628D01*
X106121199Y-143734225D01*
X113267000Y-143734225D01*
X113267000Y-144985500D01*
X113456500Y-145175000D01*
X114650000Y-145175000D01*
X114650000Y-143316500D01*
X114460500Y-143127000D01*
X113874224Y-143127000D01*
X113595627Y-143242399D01*
X113382398Y-143455628D01*
X113267000Y-143734225D01*
X106121199Y-143734225D01*
X105954373Y-143567399D01*
X105675776Y-143452000D01*
X105089500Y-143452000D01*
X104900000Y-143641500D01*
X103650000Y-143641500D01*
X103460500Y-143452000D01*
X102874224Y-143452000D01*
X102595627Y-143567399D01*
X102382398Y-143780628D01*
X102267000Y-144059225D01*
X98783000Y-144059225D01*
X98667602Y-143780628D01*
X98454373Y-143567399D01*
X98175776Y-143452000D01*
X97589500Y-143452000D01*
X97400000Y-143641500D01*
X96150000Y-143641500D01*
X95960500Y-143452000D01*
X95374224Y-143452000D01*
X95095627Y-143567399D01*
X94882398Y-143780628D01*
X94767000Y-144059225D01*
X87458000Y-144059225D01*
X87458000Y-143984225D01*
X87342602Y-143705628D01*
X87129373Y-143492399D01*
X86850776Y-143377000D01*
X86264500Y-143377000D01*
X86075000Y-143566500D01*
X84825000Y-143566500D01*
X84635500Y-143377000D01*
X84049224Y-143377000D01*
X83770627Y-143492399D01*
X83557398Y-143705628D01*
X83442000Y-143984225D01*
X79958000Y-143984225D01*
X79842602Y-143705628D01*
X79629373Y-143492399D01*
X79350776Y-143377000D01*
X78764500Y-143377000D01*
X78575000Y-143566500D01*
X77325000Y-143566500D01*
X77135500Y-143377000D01*
X76549224Y-143377000D01*
X76270627Y-143492399D01*
X76057398Y-143705628D01*
X75942000Y-143984225D01*
X69806736Y-143984225D01*
X70703530Y-143087431D01*
X70446923Y-142798115D01*
X69390379Y-142720280D01*
X69058430Y-142786309D01*
X69075560Y-142745056D01*
X69076437Y-141739356D01*
X69054374Y-141685959D01*
X70055621Y-141759720D01*
X70446923Y-141681885D01*
X70703530Y-141392569D01*
X70225462Y-140914500D01*
X143377000Y-140914500D01*
X143377000Y-141500776D01*
X143492399Y-141779373D01*
X143705628Y-141992602D01*
X143984225Y-142108000D01*
X145235500Y-142108000D01*
X145425000Y-141918500D01*
X145425000Y-140725000D01*
X143566500Y-140725000D01*
X143377000Y-140914500D01*
X70225462Y-140914500D01*
X69723000Y-140412038D01*
X69498493Y-140636545D01*
X68151455Y-139289507D01*
X68375962Y-139065000D01*
X71070038Y-139065000D01*
X72050569Y-140045530D01*
X72339885Y-139788923D01*
X72417720Y-138732379D01*
X72411126Y-138699224D01*
X143377000Y-138699224D01*
X143377000Y-139285500D01*
X143566500Y-139475000D01*
X145425000Y-139475000D01*
X145425000Y-138281500D01*
X145235500Y-138092000D01*
X143984225Y-138092000D01*
X143705628Y-138207398D01*
X143492399Y-138420627D01*
X143377000Y-138699224D01*
X72411126Y-138699224D01*
X72339885Y-138341077D01*
X72050569Y-138084470D01*
X71070038Y-139065000D01*
X68375962Y-139065000D01*
X67395431Y-138084470D01*
X67106115Y-138341077D01*
X67028280Y-139397621D01*
X67094309Y-139729570D01*
X67053056Y-139712440D01*
X66047356Y-139711563D01*
X65993959Y-139733626D01*
X66067720Y-138732379D01*
X65989885Y-138341077D01*
X65700569Y-138084470D01*
X64720038Y-139065000D01*
X64944545Y-139289507D01*
X63597507Y-140636545D01*
X63373000Y-140412038D01*
X62392470Y-141392569D01*
X50825000Y-141392569D01*
X50825000Y-139397621D01*
X60678280Y-139397621D01*
X60756115Y-139788923D01*
X61045431Y-140045530D01*
X62025962Y-139065000D01*
X61045431Y-138084470D01*
X60756115Y-138341077D01*
X60678280Y-139397621D01*
X50825000Y-139397621D01*
X50825000Y-136737431D01*
X62392470Y-136737431D01*
X63373000Y-137717962D01*
X64353530Y-136737431D01*
X68742470Y-136737431D01*
X69723000Y-137717962D01*
X70703530Y-136737431D01*
X70446923Y-136448115D01*
X69390379Y-136370280D01*
X68999077Y-136448115D01*
X68742470Y-136737431D01*
X64353530Y-136737431D01*
X64096923Y-136448115D01*
X63040379Y-136370280D01*
X62649077Y-136448115D01*
X62392470Y-136737431D01*
X50825000Y-136737431D01*
X50825000Y-133414500D01*
X143377000Y-133414500D01*
X143377000Y-134000776D01*
X143492399Y-134279373D01*
X143705628Y-134492602D01*
X143984225Y-134608000D01*
X145235500Y-134608000D01*
X145425000Y-134418500D01*
X145425000Y-133225000D01*
X143566500Y-133225000D01*
X143377000Y-133414500D01*
X50825000Y-133414500D01*
X50825000Y-131477569D01*
X87994470Y-131477569D01*
X88251077Y-131766885D01*
X89307621Y-131844720D01*
X89698923Y-131766885D01*
X89955530Y-131477569D01*
X94344470Y-131477569D01*
X94601077Y-131766885D01*
X95657621Y-131844720D01*
X96048923Y-131766885D01*
X96305530Y-131477569D01*
X105369470Y-131477569D01*
X105626077Y-131766885D01*
X106682621Y-131844720D01*
X107073923Y-131766885D01*
X107330530Y-131477569D01*
X111719470Y-131477569D01*
X111976077Y-131766885D01*
X113032621Y-131844720D01*
X113423923Y-131766885D01*
X113680530Y-131477569D01*
X113402186Y-131199224D01*
X143377000Y-131199224D01*
X143377000Y-131785500D01*
X143566500Y-131975000D01*
X145425000Y-131975000D01*
X145425000Y-130781500D01*
X145235500Y-130592000D01*
X143984225Y-130592000D01*
X143705628Y-130707398D01*
X143492399Y-130920627D01*
X143377000Y-131199224D01*
X113402186Y-131199224D01*
X112927531Y-130724569D01*
X120558470Y-130724569D01*
X120815077Y-131013885D01*
X121871621Y-131091720D01*
X122262923Y-131013885D01*
X122519530Y-130724569D01*
X126908470Y-130724569D01*
X127165077Y-131013885D01*
X128221621Y-131091720D01*
X128612923Y-131013885D01*
X128869530Y-130724569D01*
X127889000Y-129744038D01*
X126908470Y-130724569D01*
X122519530Y-130724569D01*
X121539000Y-129744038D01*
X120558470Y-130724569D01*
X112927531Y-130724569D01*
X112700000Y-130497038D01*
X111719470Y-131477569D01*
X107330530Y-131477569D01*
X106350000Y-130497038D01*
X105369470Y-131477569D01*
X96305530Y-131477569D01*
X95325000Y-130497038D01*
X94344470Y-131477569D01*
X89955530Y-131477569D01*
X88975000Y-130497038D01*
X87994470Y-131477569D01*
X50825000Y-131477569D01*
X50825000Y-130521337D01*
X51034225Y-130608000D01*
X52285500Y-130608000D01*
X52475000Y-130418500D01*
X52475000Y-129225000D01*
X54975000Y-129225000D01*
X54975000Y-130418500D01*
X55164500Y-130608000D01*
X56415775Y-130608000D01*
X56694372Y-130492602D01*
X56907601Y-130279373D01*
X57023000Y-130000776D01*
X57023000Y-129482621D01*
X86280280Y-129482621D01*
X86358115Y-129873923D01*
X86647431Y-130130530D01*
X87627962Y-129150000D01*
X86647431Y-128169470D01*
X86358115Y-128426077D01*
X86280280Y-129482621D01*
X57023000Y-129482621D01*
X57023000Y-129414500D01*
X56833500Y-129225000D01*
X54975000Y-129225000D01*
X52475000Y-129225000D01*
X52455000Y-129225000D01*
X52455000Y-127975000D01*
X52475000Y-127975000D01*
X52475000Y-126781500D01*
X54975000Y-126781500D01*
X54975000Y-127975000D01*
X56833500Y-127975000D01*
X57023000Y-127785500D01*
X57023000Y-127199224D01*
X56907601Y-126920627D01*
X56694372Y-126707398D01*
X56415775Y-126592000D01*
X55164500Y-126592000D01*
X54975000Y-126781500D01*
X52475000Y-126781500D01*
X52285500Y-126592000D01*
X51034225Y-126592000D01*
X50825000Y-126678663D01*
X50825000Y-125127569D01*
X87994470Y-125127569D01*
X88251077Y-125416885D01*
X89307621Y-125494720D01*
X89639570Y-125428691D01*
X89622440Y-125469944D01*
X89621563Y-126475644D01*
X89643626Y-126529041D01*
X88642379Y-126455280D01*
X88251077Y-126533115D01*
X87994470Y-126822431D01*
X88975000Y-127802962D01*
X89199507Y-127578455D01*
X90546545Y-128925493D01*
X90322038Y-129150000D01*
X91302569Y-130130530D01*
X91591885Y-129873923D01*
X91669720Y-128817379D01*
X91603691Y-128485430D01*
X91644944Y-128502560D01*
X92650644Y-128503437D01*
X92704041Y-128481374D01*
X92630280Y-129482621D01*
X92708115Y-129873923D01*
X92997431Y-130130530D01*
X93977962Y-129150000D01*
X96672038Y-129150000D01*
X97652569Y-130130530D01*
X97941885Y-129873923D01*
X97970711Y-129482621D01*
X103655280Y-129482621D01*
X103733115Y-129873923D01*
X104022431Y-130130530D01*
X105002962Y-129150000D01*
X104022431Y-128169470D01*
X103733115Y-128426077D01*
X103655280Y-129482621D01*
X97970711Y-129482621D01*
X98019720Y-128817379D01*
X97941885Y-128426077D01*
X97652569Y-128169470D01*
X96672038Y-129150000D01*
X93977962Y-129150000D01*
X93753455Y-128925493D01*
X95100493Y-127578455D01*
X95325000Y-127802962D01*
X96305530Y-126822431D01*
X96048923Y-126533115D01*
X94992379Y-126455280D01*
X94660430Y-126521309D01*
X94677560Y-126480056D01*
X94678437Y-125474356D01*
X94656374Y-125420959D01*
X95657621Y-125494720D01*
X96048923Y-125416885D01*
X96305530Y-125127569D01*
X105369470Y-125127569D01*
X105626077Y-125416885D01*
X106682621Y-125494720D01*
X107014570Y-125428691D01*
X106997440Y-125469944D01*
X106996563Y-126475644D01*
X107018626Y-126529041D01*
X106017379Y-126455280D01*
X105626077Y-126533115D01*
X105369470Y-126822431D01*
X106350000Y-127802962D01*
X106574507Y-127578455D01*
X107921545Y-128925493D01*
X107697038Y-129150000D01*
X108677569Y-130130530D01*
X108966885Y-129873923D01*
X109044720Y-128817379D01*
X108978691Y-128485430D01*
X109019944Y-128502560D01*
X110025644Y-128503437D01*
X110079041Y-128481374D01*
X110005280Y-129482621D01*
X110083115Y-129873923D01*
X110372431Y-130130530D01*
X111352962Y-129150000D01*
X114047038Y-129150000D01*
X115027569Y-130130530D01*
X115316885Y-129873923D01*
X115394720Y-128817379D01*
X115377264Y-128729621D01*
X118844280Y-128729621D01*
X118922115Y-129120923D01*
X119211431Y-129377530D01*
X120191962Y-128397000D01*
X119211431Y-127416470D01*
X118922115Y-127673077D01*
X118844280Y-128729621D01*
X115377264Y-128729621D01*
X115316885Y-128426077D01*
X115027569Y-128169470D01*
X114047038Y-129150000D01*
X111352962Y-129150000D01*
X111128455Y-128925493D01*
X112475493Y-127578455D01*
X112700000Y-127802962D01*
X113680530Y-126822431D01*
X113423923Y-126533115D01*
X112367379Y-126455280D01*
X112035430Y-126521309D01*
X112052560Y-126480056D01*
X112053437Y-125474356D01*
X112031374Y-125420959D01*
X113032621Y-125494720D01*
X113423923Y-125416885D01*
X113680530Y-125127569D01*
X112927531Y-124374569D01*
X120558470Y-124374569D01*
X120815077Y-124663885D01*
X121871621Y-124741720D01*
X122203570Y-124675691D01*
X122186440Y-124716944D01*
X122185563Y-125722644D01*
X122207626Y-125776041D01*
X121206379Y-125702280D01*
X120815077Y-125780115D01*
X120558470Y-126069431D01*
X121539000Y-127049962D01*
X121763507Y-126825455D01*
X123110545Y-128172493D01*
X122886038Y-128397000D01*
X123866569Y-129377530D01*
X124155885Y-129120923D01*
X124233720Y-128064379D01*
X124167691Y-127732430D01*
X124208944Y-127749560D01*
X125214644Y-127750437D01*
X125268041Y-127728374D01*
X125194280Y-128729621D01*
X125272115Y-129120923D01*
X125561431Y-129377530D01*
X126541962Y-128397000D01*
X129236038Y-128397000D01*
X130216569Y-129377530D01*
X130505885Y-129120923D01*
X130583720Y-128064379D01*
X130505885Y-127673077D01*
X130216569Y-127416470D01*
X129236038Y-128397000D01*
X126541962Y-128397000D01*
X126317455Y-128172493D01*
X127664493Y-126825455D01*
X127889000Y-127049962D01*
X128869530Y-126069431D01*
X128612923Y-125780115D01*
X127556379Y-125702280D01*
X127224430Y-125768309D01*
X127241560Y-125727056D01*
X127242437Y-124721356D01*
X127220374Y-124667959D01*
X128221621Y-124741720D01*
X128612923Y-124663885D01*
X128869530Y-124374569D01*
X127889000Y-123394038D01*
X127664493Y-123618545D01*
X127228448Y-123182500D01*
X143260000Y-123182500D01*
X143260000Y-123768776D01*
X143375399Y-124047373D01*
X143588628Y-124260602D01*
X143867225Y-124376000D01*
X145118500Y-124376000D01*
X145308000Y-124186500D01*
X145308000Y-122993000D01*
X143449500Y-122993000D01*
X143260000Y-123182500D01*
X127228448Y-123182500D01*
X126317455Y-122271507D01*
X126541962Y-122047000D01*
X129236038Y-122047000D01*
X130216569Y-123027530D01*
X130505885Y-122770923D01*
X130583720Y-121714379D01*
X130505885Y-121323077D01*
X130216569Y-121066470D01*
X129236038Y-122047000D01*
X126541962Y-122047000D01*
X125561431Y-121066470D01*
X125272115Y-121323077D01*
X125194280Y-122379621D01*
X125260309Y-122711570D01*
X125219056Y-122694440D01*
X124213356Y-122693563D01*
X124159959Y-122715626D01*
X124233720Y-121714379D01*
X124155885Y-121323077D01*
X123866569Y-121066470D01*
X122886038Y-122047000D01*
X123110545Y-122271507D01*
X121763507Y-123618545D01*
X121539000Y-123394038D01*
X120558470Y-124374569D01*
X112927531Y-124374569D01*
X112700000Y-124147038D01*
X112475493Y-124371545D01*
X111128455Y-123024507D01*
X111352962Y-122800000D01*
X114047038Y-122800000D01*
X115027569Y-123780530D01*
X115316885Y-123523923D01*
X115394720Y-122467379D01*
X115377264Y-122379621D01*
X118844280Y-122379621D01*
X118922115Y-122770923D01*
X119211431Y-123027530D01*
X120191962Y-122047000D01*
X119211431Y-121066470D01*
X118922115Y-121323077D01*
X118844280Y-122379621D01*
X115377264Y-122379621D01*
X115316885Y-122076077D01*
X115027569Y-121819470D01*
X114047038Y-122800000D01*
X111352962Y-122800000D01*
X110372431Y-121819470D01*
X110083115Y-122076077D01*
X110005280Y-123132621D01*
X110071309Y-123464570D01*
X110030056Y-123447440D01*
X109024356Y-123446563D01*
X108970959Y-123468626D01*
X109044720Y-122467379D01*
X108966885Y-122076077D01*
X108677569Y-121819470D01*
X107697038Y-122800000D01*
X107921545Y-123024507D01*
X106574507Y-124371545D01*
X106350000Y-124147038D01*
X105369470Y-125127569D01*
X96305530Y-125127569D01*
X95325000Y-124147038D01*
X95100493Y-124371545D01*
X93753455Y-123024507D01*
X93977962Y-122800000D01*
X96672038Y-122800000D01*
X97652569Y-123780530D01*
X97941885Y-123523923D01*
X97970711Y-123132621D01*
X103655280Y-123132621D01*
X103733115Y-123523923D01*
X104022431Y-123780530D01*
X105002962Y-122800000D01*
X104022431Y-121819470D01*
X103733115Y-122076077D01*
X103655280Y-123132621D01*
X97970711Y-123132621D01*
X98019720Y-122467379D01*
X97941885Y-122076077D01*
X97652569Y-121819470D01*
X96672038Y-122800000D01*
X93977962Y-122800000D01*
X92997431Y-121819470D01*
X92708115Y-122076077D01*
X92630280Y-123132621D01*
X92696309Y-123464570D01*
X92655056Y-123447440D01*
X91649356Y-123446563D01*
X91595959Y-123468626D01*
X91669720Y-122467379D01*
X91591885Y-122076077D01*
X91302569Y-121819470D01*
X90322038Y-122800000D01*
X90546545Y-123024507D01*
X89199507Y-124371545D01*
X88975000Y-124147038D01*
X87994470Y-125127569D01*
X50825000Y-125127569D01*
X50825000Y-123132621D01*
X86280280Y-123132621D01*
X86358115Y-123523923D01*
X86647431Y-123780530D01*
X87627962Y-122800000D01*
X86647431Y-121819470D01*
X86358115Y-122076077D01*
X86280280Y-123132621D01*
X50825000Y-123132621D01*
X50825000Y-123021337D01*
X51034225Y-123108000D01*
X52285500Y-123108000D01*
X52475000Y-122918500D01*
X52475000Y-121725000D01*
X54975000Y-121725000D01*
X54975000Y-122918500D01*
X55164500Y-123108000D01*
X56415775Y-123108000D01*
X56694372Y-122992602D01*
X56907601Y-122779373D01*
X57023000Y-122500776D01*
X57023000Y-121914500D01*
X56833500Y-121725000D01*
X54975000Y-121725000D01*
X52475000Y-121725000D01*
X52455000Y-121725000D01*
X52455000Y-120475000D01*
X52475000Y-120475000D01*
X52475000Y-119281500D01*
X54975000Y-119281500D01*
X54975000Y-120475000D01*
X56833500Y-120475000D01*
X56836069Y-120472431D01*
X87994470Y-120472431D01*
X88975000Y-121452962D01*
X89955530Y-120472431D01*
X94344470Y-120472431D01*
X95325000Y-121452962D01*
X96305530Y-120472431D01*
X105369470Y-120472431D01*
X106350000Y-121452962D01*
X107330530Y-120472431D01*
X111719470Y-120472431D01*
X112700000Y-121452962D01*
X113185737Y-120967224D01*
X143260000Y-120967224D01*
X143260000Y-121553500D01*
X143449500Y-121743000D01*
X145308000Y-121743000D01*
X145308000Y-120549500D01*
X145118500Y-120360000D01*
X143867225Y-120360000D01*
X143588628Y-120475398D01*
X143375399Y-120688627D01*
X143260000Y-120967224D01*
X113185737Y-120967224D01*
X113680530Y-120472431D01*
X113423923Y-120183115D01*
X112367379Y-120105280D01*
X111976077Y-120183115D01*
X111719470Y-120472431D01*
X107330530Y-120472431D01*
X107073923Y-120183115D01*
X106017379Y-120105280D01*
X105626077Y-120183115D01*
X105369470Y-120472431D01*
X96305530Y-120472431D01*
X96048923Y-120183115D01*
X94992379Y-120105280D01*
X94601077Y-120183115D01*
X94344470Y-120472431D01*
X89955530Y-120472431D01*
X89698923Y-120183115D01*
X88642379Y-120105280D01*
X88251077Y-120183115D01*
X87994470Y-120472431D01*
X56836069Y-120472431D01*
X57023000Y-120285500D01*
X57023000Y-119719431D01*
X120558470Y-119719431D01*
X121539000Y-120699962D01*
X122519530Y-119719431D01*
X126908470Y-119719431D01*
X127889000Y-120699962D01*
X128869530Y-119719431D01*
X128612923Y-119430115D01*
X127556379Y-119352280D01*
X127165077Y-119430115D01*
X126908470Y-119719431D01*
X122519530Y-119719431D01*
X122262923Y-119430115D01*
X121206379Y-119352280D01*
X120815077Y-119430115D01*
X120558470Y-119719431D01*
X57023000Y-119719431D01*
X57023000Y-119699224D01*
X56907601Y-119420627D01*
X56694372Y-119207398D01*
X56415775Y-119092000D01*
X55164500Y-119092000D01*
X54975000Y-119281500D01*
X52475000Y-119281500D01*
X52285500Y-119092000D01*
X51034225Y-119092000D01*
X50825000Y-119178663D01*
X50825000Y-115967169D01*
X89392670Y-115967169D01*
X89649277Y-116256485D01*
X90705821Y-116334320D01*
X91097123Y-116256485D01*
X91353730Y-115967169D01*
X95742670Y-115967169D01*
X95999277Y-116256485D01*
X97055821Y-116334320D01*
X97447123Y-116256485D01*
X97703730Y-115967169D01*
X97538631Y-115802069D01*
X105445470Y-115802069D01*
X105702077Y-116091385D01*
X106758621Y-116169220D01*
X107149923Y-116091385D01*
X107406530Y-115802069D01*
X111795470Y-115802069D01*
X112052077Y-116091385D01*
X113108621Y-116169220D01*
X113499923Y-116091385D01*
X113756530Y-115802069D01*
X113636962Y-115682500D01*
X143260000Y-115682500D01*
X143260000Y-116268776D01*
X143375399Y-116547373D01*
X143588628Y-116760602D01*
X143867225Y-116876000D01*
X145118500Y-116876000D01*
X145308000Y-116686500D01*
X145308000Y-115493000D01*
X143449500Y-115493000D01*
X143260000Y-115682500D01*
X113636962Y-115682500D01*
X112776000Y-114821538D01*
X111795470Y-115802069D01*
X107406530Y-115802069D01*
X106426000Y-114821538D01*
X105445470Y-115802069D01*
X97538631Y-115802069D01*
X96723200Y-114986638D01*
X95742670Y-115967169D01*
X91353730Y-115967169D01*
X90373200Y-114986638D01*
X89392670Y-115967169D01*
X50825000Y-115967169D01*
X50825000Y-113972221D01*
X87678480Y-113972221D01*
X87756315Y-114363523D01*
X88045631Y-114620130D01*
X89026162Y-113639600D01*
X91720238Y-113639600D01*
X92700769Y-114620130D01*
X92990085Y-114363523D01*
X93067920Y-113306979D01*
X92999782Y-112964426D01*
X93845820Y-113033098D01*
X94101410Y-112982257D01*
X94028480Y-113972221D01*
X94106315Y-114363523D01*
X94395631Y-114620130D01*
X95376162Y-113639600D01*
X98070238Y-113639600D01*
X99050769Y-114620130D01*
X99340085Y-114363523D01*
X99381074Y-113807121D01*
X103731280Y-113807121D01*
X103809115Y-114198423D01*
X104098431Y-114455030D01*
X105078962Y-113474500D01*
X104098431Y-112493970D01*
X103809115Y-112750577D01*
X103731280Y-113807121D01*
X99381074Y-113807121D01*
X99417920Y-113306979D01*
X99340085Y-112915677D01*
X99050769Y-112659070D01*
X98070238Y-113639600D01*
X95376162Y-113639600D01*
X94452240Y-112715679D01*
X94493013Y-112666649D01*
X93548200Y-111721836D01*
X92603387Y-112666649D01*
X92644160Y-112715679D01*
X91720238Y-113639600D01*
X89026162Y-113639600D01*
X88045631Y-112659070D01*
X87756315Y-112915677D01*
X87678480Y-113972221D01*
X50825000Y-113972221D01*
X50825000Y-111561974D01*
X50830628Y-111567602D01*
X51109225Y-111683000D01*
X52360500Y-111683000D01*
X52550000Y-111493500D01*
X52550000Y-110300000D01*
X55050000Y-110300000D01*
X55050000Y-111493500D01*
X55239500Y-111683000D01*
X56490775Y-111683000D01*
X56769372Y-111567602D01*
X56982601Y-111354373D01*
X57098000Y-111075776D01*
X57098000Y-110489500D01*
X56908500Y-110300000D01*
X55050000Y-110300000D01*
X52550000Y-110300000D01*
X52530000Y-110300000D01*
X52530000Y-109617169D01*
X89392670Y-109617169D01*
X89649277Y-109906485D01*
X90705821Y-109984320D01*
X91048374Y-109916182D01*
X90979702Y-110762220D01*
X91030543Y-111017810D01*
X90040579Y-110944880D01*
X89649277Y-111022715D01*
X89392670Y-111312031D01*
X90373200Y-112292562D01*
X91297121Y-111368640D01*
X91346151Y-111409413D01*
X92290964Y-110464600D01*
X94805436Y-110464600D01*
X95750249Y-111409413D01*
X95799279Y-111368640D01*
X96723200Y-112292562D01*
X97703730Y-111312031D01*
X97447123Y-111022715D01*
X96390579Y-110944880D01*
X96048026Y-111013018D01*
X96116698Y-110166980D01*
X96065857Y-109911390D01*
X97055821Y-109984320D01*
X97447123Y-109906485D01*
X97703730Y-109617169D01*
X96723200Y-108636638D01*
X95799279Y-109560560D01*
X95750249Y-109519787D01*
X94805436Y-110464600D01*
X92290964Y-110464600D01*
X91346151Y-109519787D01*
X91297121Y-109560560D01*
X90373200Y-108636638D01*
X89392670Y-109617169D01*
X52530000Y-109617169D01*
X52530000Y-109050000D01*
X52550000Y-109050000D01*
X52550000Y-107856500D01*
X55050000Y-107856500D01*
X55050000Y-109050000D01*
X56908500Y-109050000D01*
X57098000Y-108860500D01*
X57098000Y-108274224D01*
X56982601Y-107995627D01*
X56769372Y-107782398D01*
X56490775Y-107667000D01*
X55239500Y-107667000D01*
X55050000Y-107856500D01*
X52550000Y-107856500D01*
X52360500Y-107667000D01*
X51109225Y-107667000D01*
X50830628Y-107782398D01*
X50825000Y-107788026D01*
X50825000Y-107622221D01*
X87678480Y-107622221D01*
X87756315Y-108013523D01*
X88045631Y-108270130D01*
X89026162Y-107289600D01*
X91720238Y-107289600D01*
X92644160Y-108213521D01*
X92603387Y-108262551D01*
X93548200Y-109207364D01*
X94493013Y-108262551D01*
X94452240Y-108213521D01*
X95376162Y-107289600D01*
X98070238Y-107289600D01*
X99050769Y-108270130D01*
X99340085Y-108013523D01*
X99381074Y-107457121D01*
X103731280Y-107457121D01*
X103809115Y-107848423D01*
X104098431Y-108105030D01*
X105078962Y-107124500D01*
X104098431Y-106143970D01*
X103809115Y-106400577D01*
X103731280Y-107457121D01*
X99381074Y-107457121D01*
X99417920Y-106956979D01*
X99340085Y-106565677D01*
X99050769Y-106309070D01*
X98070238Y-107289600D01*
X95376162Y-107289600D01*
X94395631Y-106309070D01*
X94106315Y-106565677D01*
X94028480Y-107622221D01*
X94096618Y-107964774D01*
X93250580Y-107896102D01*
X92994990Y-107946943D01*
X93067920Y-106956979D01*
X92990085Y-106565677D01*
X92700769Y-106309070D01*
X91720238Y-107289600D01*
X89026162Y-107289600D01*
X88045631Y-106309070D01*
X87756315Y-106565677D01*
X87678480Y-107622221D01*
X50825000Y-107622221D01*
X50825000Y-104962031D01*
X89392670Y-104962031D01*
X90373200Y-105942562D01*
X91353730Y-104962031D01*
X95742670Y-104962031D01*
X96723200Y-105942562D01*
X97703730Y-104962031D01*
X97557296Y-104796931D01*
X105445470Y-104796931D01*
X106426000Y-105777462D01*
X107406530Y-104796931D01*
X111795470Y-104796931D01*
X112776000Y-105777462D01*
X113756530Y-104796931D01*
X113499923Y-104507615D01*
X112443379Y-104429780D01*
X112052077Y-104507615D01*
X111795470Y-104796931D01*
X107406530Y-104796931D01*
X107149923Y-104507615D01*
X106093379Y-104429780D01*
X105702077Y-104507615D01*
X105445470Y-104796931D01*
X97557296Y-104796931D01*
X97447123Y-104672715D01*
X96390579Y-104594880D01*
X95999277Y-104672715D01*
X95742670Y-104962031D01*
X91353730Y-104962031D01*
X91097123Y-104672715D01*
X90040579Y-104594880D01*
X89649277Y-104672715D01*
X89392670Y-104962031D01*
X50825000Y-104962031D01*
X50825000Y-104061974D01*
X50830628Y-104067602D01*
X51109225Y-104183000D01*
X52360500Y-104183000D01*
X52550000Y-103993500D01*
X52550000Y-102800000D01*
X55050000Y-102800000D01*
X55050000Y-103993500D01*
X55239500Y-104183000D01*
X56490775Y-104183000D01*
X56769372Y-104067602D01*
X56982601Y-103854373D01*
X57098000Y-103575776D01*
X57098000Y-102989500D01*
X56908500Y-102800000D01*
X55050000Y-102800000D01*
X52550000Y-102800000D01*
X52530000Y-102800000D01*
X52530000Y-101550000D01*
X52550000Y-101550000D01*
X52550000Y-100356500D01*
X55050000Y-100356500D01*
X55050000Y-101550000D01*
X56908500Y-101550000D01*
X57098000Y-101360500D01*
X57098000Y-100774224D01*
X56982601Y-100495627D01*
X56769372Y-100282398D01*
X56490775Y-100167000D01*
X55239500Y-100167000D01*
X55050000Y-100356500D01*
X52550000Y-100356500D01*
X52360500Y-100167000D01*
X51109225Y-100167000D01*
X50830628Y-100282398D01*
X50825000Y-100288026D01*
X50825000Y-99639500D01*
X87542000Y-99639500D01*
X87542000Y-100200776D01*
X87657399Y-100479373D01*
X87870628Y-100692602D01*
X88149225Y-100808000D01*
X88510500Y-100808000D01*
X88700000Y-100618500D01*
X88700000Y-99450000D01*
X89500000Y-99450000D01*
X89500000Y-100618500D01*
X89689500Y-100808000D01*
X90050775Y-100808000D01*
X90329372Y-100692602D01*
X90542601Y-100479373D01*
X90600394Y-100339850D01*
X90908948Y-100596466D01*
X91009369Y-100674665D01*
X91240000Y-100558737D01*
X91240000Y-99450000D01*
X92040000Y-99450000D01*
X92040000Y-100558737D01*
X92270631Y-100674665D01*
X92371052Y-100596466D01*
X92830674Y-100214211D01*
X92910000Y-100063441D01*
X92989326Y-100214211D01*
X93448948Y-100596466D01*
X93549369Y-100674665D01*
X93780000Y-100558737D01*
X93780000Y-99450000D01*
X94580000Y-99450000D01*
X94580000Y-100558737D01*
X94810631Y-100674665D01*
X94911052Y-100596466D01*
X95370674Y-100214211D01*
X95450000Y-100063441D01*
X95529326Y-100214211D01*
X95988948Y-100596466D01*
X96089369Y-100674665D01*
X96320000Y-100558737D01*
X96320000Y-99450000D01*
X97120000Y-99450000D01*
X97120000Y-100558737D01*
X97350631Y-100674665D01*
X97451052Y-100596466D01*
X97910674Y-100214211D01*
X97990000Y-100063441D01*
X98069326Y-100214211D01*
X98528948Y-100596466D01*
X98629369Y-100674665D01*
X98860000Y-100558737D01*
X98860000Y-99450000D01*
X99660000Y-99450000D01*
X99660000Y-100558737D01*
X99890631Y-100674665D01*
X99991052Y-100596466D01*
X100450674Y-100214211D01*
X100530000Y-100063441D01*
X100609326Y-100214211D01*
X101068948Y-100596466D01*
X101169369Y-100674665D01*
X101400000Y-100558737D01*
X101400000Y-99450000D01*
X102200000Y-99450000D01*
X102200000Y-100558737D01*
X102430631Y-100674665D01*
X102531052Y-100596466D01*
X102990674Y-100214211D01*
X103070000Y-100063441D01*
X103149326Y-100214211D01*
X103608948Y-100596466D01*
X103709369Y-100674665D01*
X103940000Y-100558737D01*
X103940000Y-99450000D01*
X104740000Y-99450000D01*
X104740000Y-100558737D01*
X104970631Y-100674665D01*
X105071052Y-100596466D01*
X105530674Y-100214211D01*
X105610000Y-100063441D01*
X105689326Y-100214211D01*
X106148948Y-100596466D01*
X106249369Y-100674665D01*
X106480000Y-100558737D01*
X106480000Y-99450000D01*
X107280000Y-99450000D01*
X107280000Y-100558737D01*
X107510631Y-100674665D01*
X107611052Y-100596466D01*
X108070674Y-100214211D01*
X108349027Y-99685164D01*
X108209516Y-99450000D01*
X107280000Y-99450000D01*
X106480000Y-99450000D01*
X104740000Y-99450000D01*
X103940000Y-99450000D01*
X102200000Y-99450000D01*
X101400000Y-99450000D01*
X99660000Y-99450000D01*
X98860000Y-99450000D01*
X97120000Y-99450000D01*
X96320000Y-99450000D01*
X94580000Y-99450000D01*
X93780000Y-99450000D01*
X92040000Y-99450000D01*
X91240000Y-99450000D01*
X89500000Y-99450000D01*
X88700000Y-99450000D01*
X87731500Y-99450000D01*
X87542000Y-99639500D01*
X50825000Y-99639500D01*
X50825000Y-97499224D01*
X87542000Y-97499224D01*
X87542000Y-98060500D01*
X87731500Y-98250000D01*
X88700000Y-98250000D01*
X88700000Y-97081500D01*
X89500000Y-97081500D01*
X89500000Y-98250000D01*
X91240000Y-98250000D01*
X91240000Y-97141263D01*
X92040000Y-97141263D01*
X92040000Y-98250000D01*
X93780000Y-98250000D01*
X93780000Y-97141263D01*
X94580000Y-97141263D01*
X94580000Y-98250000D01*
X96320000Y-98250000D01*
X96320000Y-97141263D01*
X97120000Y-97141263D01*
X97120000Y-98250000D01*
X98860000Y-98250000D01*
X98860000Y-97141263D01*
X99660000Y-97141263D01*
X99660000Y-98250000D01*
X101400000Y-98250000D01*
X101400000Y-97141263D01*
X102200000Y-97141263D01*
X102200000Y-98250000D01*
X103940000Y-98250000D01*
X103940000Y-97141263D01*
X104740000Y-97141263D01*
X104740000Y-98250000D01*
X106480000Y-98250000D01*
X106480000Y-97141263D01*
X107280000Y-97141263D01*
X107280000Y-98250000D01*
X108209516Y-98250000D01*
X108349027Y-98014836D01*
X108070674Y-97485789D01*
X107611052Y-97103534D01*
X107510631Y-97025335D01*
X107280000Y-97141263D01*
X106480000Y-97141263D01*
X106249369Y-97025335D01*
X106148948Y-97103534D01*
X105689326Y-97485789D01*
X105610000Y-97636559D01*
X105530674Y-97485789D01*
X105071052Y-97103534D01*
X104970631Y-97025335D01*
X104740000Y-97141263D01*
X103940000Y-97141263D01*
X103709369Y-97025335D01*
X103608948Y-97103534D01*
X103149326Y-97485789D01*
X103070000Y-97636559D01*
X102990674Y-97485789D01*
X102531052Y-97103534D01*
X102430631Y-97025335D01*
X102200000Y-97141263D01*
X101400000Y-97141263D01*
X101169369Y-97025335D01*
X101068948Y-97103534D01*
X100609326Y-97485789D01*
X100530000Y-97636559D01*
X100450674Y-97485789D01*
X99991052Y-97103534D01*
X99890631Y-97025335D01*
X99660000Y-97141263D01*
X98860000Y-97141263D01*
X98629369Y-97025335D01*
X98528948Y-97103534D01*
X98069326Y-97485789D01*
X97990000Y-97636559D01*
X97910674Y-97485789D01*
X97451052Y-97103534D01*
X97350631Y-97025335D01*
X97120000Y-97141263D01*
X96320000Y-97141263D01*
X96089369Y-97025335D01*
X95988948Y-97103534D01*
X95529326Y-97485789D01*
X95450000Y-97636559D01*
X95370674Y-97485789D01*
X94911052Y-97103534D01*
X94810631Y-97025335D01*
X94580000Y-97141263D01*
X93780000Y-97141263D01*
X93549369Y-97025335D01*
X93448948Y-97103534D01*
X92989326Y-97485789D01*
X92910000Y-97636559D01*
X92830674Y-97485789D01*
X92371052Y-97103534D01*
X92270631Y-97025335D01*
X92040000Y-97141263D01*
X91240000Y-97141263D01*
X91009369Y-97025335D01*
X90908948Y-97103534D01*
X90600394Y-97360150D01*
X90542601Y-97220627D01*
X90329372Y-97007398D01*
X90050775Y-96892000D01*
X89689500Y-96892000D01*
X89500000Y-97081500D01*
X88700000Y-97081500D01*
X88510500Y-96892000D01*
X88149225Y-96892000D01*
X87870628Y-97007398D01*
X87657399Y-97220627D01*
X87542000Y-97499224D01*
X50825000Y-97499224D01*
X50825000Y-90986974D01*
X50830628Y-90992602D01*
X51109225Y-91108000D01*
X52360500Y-91108000D01*
X52550000Y-90918500D01*
X52550000Y-89725000D01*
X55050000Y-89725000D01*
X55050000Y-90918500D01*
X55239500Y-91108000D01*
X56490775Y-91108000D01*
X56769372Y-90992602D01*
X56970177Y-90791797D01*
X87550000Y-90791797D01*
X87550000Y-91668203D01*
X87667987Y-92261362D01*
X88003984Y-92764219D01*
X88506841Y-93100216D01*
X89100000Y-93218203D01*
X89693159Y-93100216D01*
X90196016Y-92764219D01*
X90370000Y-92503833D01*
X90543984Y-92764219D01*
X91046841Y-93100216D01*
X91640000Y-93218203D01*
X92233159Y-93100216D01*
X92736016Y-92764219D01*
X92910000Y-92503833D01*
X93083984Y-92764219D01*
X93586841Y-93100216D01*
X94180000Y-93218203D01*
X94773159Y-93100216D01*
X95276016Y-92764219D01*
X95450000Y-92503833D01*
X95623984Y-92764219D01*
X96126841Y-93100216D01*
X96720000Y-93218203D01*
X97313159Y-93100216D01*
X97816016Y-92764219D01*
X97990000Y-92503833D01*
X98163984Y-92764219D01*
X98666841Y-93100216D01*
X99260000Y-93218203D01*
X99853159Y-93100216D01*
X100356016Y-92764219D01*
X100530000Y-92503833D01*
X100703984Y-92764219D01*
X101206841Y-93100216D01*
X101800000Y-93218203D01*
X102393159Y-93100216D01*
X102896016Y-92764219D01*
X103070000Y-92503833D01*
X103243984Y-92764219D01*
X103746841Y-93100216D01*
X104340000Y-93218203D01*
X104933159Y-93100216D01*
X105436016Y-92764219D01*
X105610000Y-92503833D01*
X105783984Y-92764219D01*
X106286841Y-93100216D01*
X106880000Y-93218203D01*
X107473159Y-93100216D01*
X107976016Y-92764219D01*
X108312013Y-92261362D01*
X108430000Y-91668203D01*
X108430000Y-90791797D01*
X108312013Y-90198638D01*
X107976016Y-89695781D01*
X107473159Y-89359784D01*
X106880000Y-89241797D01*
X106286841Y-89359784D01*
X105783984Y-89695781D01*
X105610000Y-89956167D01*
X105436016Y-89695781D01*
X104933159Y-89359784D01*
X104340000Y-89241797D01*
X103746841Y-89359784D01*
X103243984Y-89695781D01*
X103070000Y-89956167D01*
X102896016Y-89695781D01*
X102393159Y-89359784D01*
X101800000Y-89241797D01*
X101206841Y-89359784D01*
X100703984Y-89695781D01*
X100530000Y-89956167D01*
X100356016Y-89695781D01*
X99853159Y-89359784D01*
X99260000Y-89241797D01*
X98666841Y-89359784D01*
X98163984Y-89695781D01*
X97990000Y-89956167D01*
X97816016Y-89695781D01*
X97313159Y-89359784D01*
X96720000Y-89241797D01*
X96126841Y-89359784D01*
X95623984Y-89695781D01*
X95450000Y-89956167D01*
X95276016Y-89695781D01*
X94773159Y-89359784D01*
X94180000Y-89241797D01*
X93586841Y-89359784D01*
X93083984Y-89695781D01*
X92910000Y-89956167D01*
X92736016Y-89695781D01*
X92233159Y-89359784D01*
X91640000Y-89241797D01*
X91046841Y-89359784D01*
X90543984Y-89695781D01*
X90370000Y-89956167D01*
X90196016Y-89695781D01*
X89693159Y-89359784D01*
X89100000Y-89241797D01*
X88506841Y-89359784D01*
X88003984Y-89695781D01*
X87667987Y-90198638D01*
X87550000Y-90791797D01*
X56970177Y-90791797D01*
X56982601Y-90779373D01*
X57098000Y-90500776D01*
X57098000Y-89914500D01*
X56908500Y-89725000D01*
X55050000Y-89725000D01*
X52550000Y-89725000D01*
X52530000Y-89725000D01*
X52530000Y-88475000D01*
X52550000Y-88475000D01*
X52550000Y-87281500D01*
X55050000Y-87281500D01*
X55050000Y-88475000D01*
X56908500Y-88475000D01*
X57098000Y-88285500D01*
X57098000Y-87699224D01*
X56982601Y-87420627D01*
X56769372Y-87207398D01*
X56490775Y-87092000D01*
X55239500Y-87092000D01*
X55050000Y-87281500D01*
X52550000Y-87281500D01*
X52360500Y-87092000D01*
X51109225Y-87092000D01*
X50830628Y-87207398D01*
X50825000Y-87213026D01*
X50825000Y-85512569D01*
X84744470Y-85512569D01*
X85001077Y-85801885D01*
X86057621Y-85879720D01*
X86448923Y-85801885D01*
X86705530Y-85512569D01*
X91094470Y-85512569D01*
X91351077Y-85801885D01*
X92407621Y-85879720D01*
X92798923Y-85801885D01*
X93055530Y-85512569D01*
X92801531Y-85258569D01*
X103032470Y-85258569D01*
X103289077Y-85547885D01*
X104345621Y-85625720D01*
X104736923Y-85547885D01*
X104993530Y-85258569D01*
X109382470Y-85258569D01*
X109639077Y-85547885D01*
X110695621Y-85625720D01*
X111086923Y-85547885D01*
X111343530Y-85258569D01*
X110363000Y-84278038D01*
X109382470Y-85258569D01*
X104993530Y-85258569D01*
X104013000Y-84278038D01*
X103032470Y-85258569D01*
X92801531Y-85258569D01*
X92075000Y-84532038D01*
X91094470Y-85512569D01*
X86705530Y-85512569D01*
X85725000Y-84532038D01*
X84744470Y-85512569D01*
X50825000Y-85512569D01*
X50825000Y-83486974D01*
X50830628Y-83492602D01*
X51109225Y-83608000D01*
X52360500Y-83608000D01*
X52550000Y-83418500D01*
X52550000Y-82225000D01*
X55050000Y-82225000D01*
X55050000Y-83418500D01*
X55239500Y-83608000D01*
X56490775Y-83608000D01*
X56708970Y-83517621D01*
X83030280Y-83517621D01*
X83108115Y-83908923D01*
X83397431Y-84165530D01*
X84377962Y-83185000D01*
X83397431Y-82204470D01*
X83108115Y-82461077D01*
X83030280Y-83517621D01*
X56708970Y-83517621D01*
X56769372Y-83492602D01*
X56982601Y-83279373D01*
X57098000Y-83000776D01*
X57098000Y-82414500D01*
X56908500Y-82225000D01*
X55050000Y-82225000D01*
X52550000Y-82225000D01*
X52530000Y-82225000D01*
X52530000Y-80975000D01*
X52550000Y-80975000D01*
X52550000Y-79781500D01*
X55050000Y-79781500D01*
X55050000Y-80975000D01*
X56908500Y-80975000D01*
X57098000Y-80785500D01*
X57098000Y-80199224D01*
X56982601Y-79920627D01*
X56769372Y-79707398D01*
X56490775Y-79592000D01*
X55239500Y-79592000D01*
X55050000Y-79781500D01*
X52550000Y-79781500D01*
X52360500Y-79592000D01*
X51109225Y-79592000D01*
X50830628Y-79707398D01*
X50825000Y-79713026D01*
X50825000Y-79162569D01*
X84744470Y-79162569D01*
X85001077Y-79451885D01*
X86057621Y-79529720D01*
X86389570Y-79463691D01*
X86372440Y-79504944D01*
X86371563Y-80510644D01*
X86393626Y-80564041D01*
X85392379Y-80490280D01*
X85001077Y-80568115D01*
X84744470Y-80857431D01*
X85725000Y-81837962D01*
X85949507Y-81613455D01*
X87296545Y-82960493D01*
X87072038Y-83185000D01*
X88052569Y-84165530D01*
X88341885Y-83908923D01*
X88419720Y-82852379D01*
X88353691Y-82520430D01*
X88394944Y-82537560D01*
X89400644Y-82538437D01*
X89454041Y-82516374D01*
X89380280Y-83517621D01*
X89458115Y-83908923D01*
X89747431Y-84165530D01*
X90727962Y-83185000D01*
X93422038Y-83185000D01*
X94402569Y-84165530D01*
X94691885Y-83908923D01*
X94739424Y-83263621D01*
X101318280Y-83263621D01*
X101396115Y-83654923D01*
X101685431Y-83911530D01*
X102665962Y-82931000D01*
X101685431Y-81950470D01*
X101396115Y-82207077D01*
X101318280Y-83263621D01*
X94739424Y-83263621D01*
X94769720Y-82852379D01*
X94691885Y-82461077D01*
X94402569Y-82204470D01*
X93422038Y-83185000D01*
X90727962Y-83185000D01*
X90503455Y-82960493D01*
X91850493Y-81613455D01*
X92075000Y-81837962D01*
X93055530Y-80857431D01*
X92798923Y-80568115D01*
X91742379Y-80490280D01*
X91410430Y-80556309D01*
X91427560Y-80515056D01*
X91428437Y-79509356D01*
X91406374Y-79455959D01*
X92407621Y-79529720D01*
X92798923Y-79451885D01*
X93055530Y-79162569D01*
X92801531Y-78908569D01*
X103032470Y-78908569D01*
X103289077Y-79197885D01*
X104345621Y-79275720D01*
X104677570Y-79209691D01*
X104660440Y-79250944D01*
X104659563Y-80256644D01*
X104681626Y-80310041D01*
X103680379Y-80236280D01*
X103289077Y-80314115D01*
X103032470Y-80603431D01*
X104013000Y-81583962D01*
X104237507Y-81359455D01*
X105584545Y-82706493D01*
X105360038Y-82931000D01*
X106340569Y-83911530D01*
X106629885Y-83654923D01*
X106707720Y-82598379D01*
X106641691Y-82266430D01*
X106682944Y-82283560D01*
X107688644Y-82284437D01*
X107742041Y-82262374D01*
X107668280Y-83263621D01*
X107746115Y-83654923D01*
X108035431Y-83911530D01*
X109015962Y-82931000D01*
X111710038Y-82931000D01*
X112690569Y-83911530D01*
X112979885Y-83654923D01*
X113057720Y-82598379D01*
X112979885Y-82207077D01*
X112690569Y-81950470D01*
X111710038Y-82931000D01*
X109015962Y-82931000D01*
X108791455Y-82706493D01*
X110138493Y-81359455D01*
X110363000Y-81583962D01*
X111343530Y-80603431D01*
X111086923Y-80314115D01*
X110030379Y-80236280D01*
X109698430Y-80302309D01*
X109715560Y-80261056D01*
X109716437Y-79255356D01*
X109694374Y-79201959D01*
X110695621Y-79275720D01*
X111086923Y-79197885D01*
X111343530Y-78908569D01*
X110363000Y-77928038D01*
X110138493Y-78152545D01*
X108791455Y-76805507D01*
X109015962Y-76581000D01*
X111710038Y-76581000D01*
X112690569Y-77561530D01*
X112979885Y-77304923D01*
X113057720Y-76248379D01*
X112979885Y-75857077D01*
X112690569Y-75600470D01*
X111710038Y-76581000D01*
X109015962Y-76581000D01*
X108035431Y-75600470D01*
X107746115Y-75857077D01*
X107668280Y-76913621D01*
X107734309Y-77245570D01*
X107693056Y-77228440D01*
X106687356Y-77227563D01*
X106633959Y-77249626D01*
X106707720Y-76248379D01*
X106629885Y-75857077D01*
X106340569Y-75600470D01*
X105360038Y-76581000D01*
X105584545Y-76805507D01*
X104237507Y-78152545D01*
X104013000Y-77928038D01*
X103032470Y-78908569D01*
X92801531Y-78908569D01*
X92075000Y-78182038D01*
X91850493Y-78406545D01*
X90503455Y-77059507D01*
X90727962Y-76835000D01*
X93422038Y-76835000D01*
X94402569Y-77815530D01*
X94691885Y-77558923D01*
X94739424Y-76913621D01*
X101318280Y-76913621D01*
X101396115Y-77304923D01*
X101685431Y-77561530D01*
X102665962Y-76581000D01*
X101685431Y-75600470D01*
X101396115Y-75857077D01*
X101318280Y-76913621D01*
X94739424Y-76913621D01*
X94769720Y-76502379D01*
X94691885Y-76111077D01*
X94402569Y-75854470D01*
X93422038Y-76835000D01*
X90727962Y-76835000D01*
X89747431Y-75854470D01*
X89458115Y-76111077D01*
X89380280Y-77167621D01*
X89446309Y-77499570D01*
X89405056Y-77482440D01*
X88399356Y-77481563D01*
X88345959Y-77503626D01*
X88419720Y-76502379D01*
X88341885Y-76111077D01*
X88052569Y-75854470D01*
X87072038Y-76835000D01*
X87296545Y-77059507D01*
X85949507Y-78406545D01*
X85725000Y-78182038D01*
X84744470Y-79162569D01*
X50825000Y-79162569D01*
X50825000Y-77167621D01*
X83030280Y-77167621D01*
X83108115Y-77558923D01*
X83397431Y-77815530D01*
X84377962Y-76835000D01*
X83397431Y-75854470D01*
X83108115Y-76111077D01*
X83030280Y-77167621D01*
X50825000Y-77167621D01*
X50825000Y-74507431D01*
X84744470Y-74507431D01*
X85725000Y-75487962D01*
X86705530Y-74507431D01*
X91094470Y-74507431D01*
X92075000Y-75487962D01*
X93055530Y-74507431D01*
X92830247Y-74253431D01*
X103032470Y-74253431D01*
X104013000Y-75233962D01*
X104993530Y-74253431D01*
X109382470Y-74253431D01*
X110363000Y-75233962D01*
X111343530Y-74253431D01*
X111086923Y-73964115D01*
X110030379Y-73886280D01*
X109639077Y-73964115D01*
X109382470Y-74253431D01*
X104993530Y-74253431D01*
X104736923Y-73964115D01*
X103680379Y-73886280D01*
X103289077Y-73964115D01*
X103032470Y-74253431D01*
X92830247Y-74253431D01*
X92798923Y-74218115D01*
X91742379Y-74140280D01*
X91351077Y-74218115D01*
X91094470Y-74507431D01*
X86705530Y-74507431D01*
X86448923Y-74218115D01*
X85392379Y-74140280D01*
X85001077Y-74218115D01*
X84744470Y-74507431D01*
X50825000Y-74507431D01*
X50825000Y-71836974D01*
X50955628Y-71967602D01*
X51234225Y-72083000D01*
X52485500Y-72083000D01*
X52675000Y-71893500D01*
X52675000Y-70700000D01*
X55175000Y-70700000D01*
X55175000Y-71893500D01*
X55364500Y-72083000D01*
X56615775Y-72083000D01*
X56894372Y-71967602D01*
X57107601Y-71754373D01*
X57223000Y-71475776D01*
X57223000Y-70889500D01*
X57033500Y-70700000D01*
X55175000Y-70700000D01*
X52675000Y-70700000D01*
X52655000Y-70700000D01*
X52655000Y-70385500D01*
X114520000Y-70385500D01*
X114520000Y-70946776D01*
X114635399Y-71225373D01*
X114848628Y-71438602D01*
X115127225Y-71554000D01*
X115488500Y-71554000D01*
X115678000Y-71364500D01*
X115678000Y-70196000D01*
X116478000Y-70196000D01*
X116478000Y-71364500D01*
X116667500Y-71554000D01*
X117028775Y-71554000D01*
X117307372Y-71438602D01*
X117520601Y-71225373D01*
X117578394Y-71085850D01*
X117886948Y-71342466D01*
X117987369Y-71420665D01*
X118218000Y-71304737D01*
X118218000Y-70196000D01*
X119018000Y-70196000D01*
X119018000Y-71304737D01*
X119248631Y-71420665D01*
X119349052Y-71342466D01*
X119808674Y-70960211D01*
X119888000Y-70809441D01*
X119967326Y-70960211D01*
X120426948Y-71342466D01*
X120527369Y-71420665D01*
X120758000Y-71304737D01*
X120758000Y-70196000D01*
X121558000Y-70196000D01*
X121558000Y-71304737D01*
X121788631Y-71420665D01*
X121889052Y-71342466D01*
X122348674Y-70960211D01*
X122428000Y-70809441D01*
X122507326Y-70960211D01*
X122966948Y-71342466D01*
X123067369Y-71420665D01*
X123298000Y-71304737D01*
X123298000Y-70196000D01*
X124098000Y-70196000D01*
X124098000Y-71304737D01*
X124328631Y-71420665D01*
X124429052Y-71342466D01*
X124888674Y-70960211D01*
X124968000Y-70809441D01*
X125047326Y-70960211D01*
X125506948Y-71342466D01*
X125607369Y-71420665D01*
X125838000Y-71304737D01*
X125838000Y-70196000D01*
X126638000Y-70196000D01*
X126638000Y-71304737D01*
X126868631Y-71420665D01*
X126969052Y-71342466D01*
X127428674Y-70960211D01*
X127508000Y-70809441D01*
X127587326Y-70960211D01*
X128046948Y-71342466D01*
X128147369Y-71420665D01*
X128378000Y-71304737D01*
X128378000Y-70196000D01*
X129178000Y-70196000D01*
X129178000Y-71304737D01*
X129408631Y-71420665D01*
X129509052Y-71342466D01*
X129968674Y-70960211D01*
X130048000Y-70809441D01*
X130127326Y-70960211D01*
X130586948Y-71342466D01*
X130687369Y-71420665D01*
X130918000Y-71304737D01*
X130918000Y-70196000D01*
X131718000Y-70196000D01*
X131718000Y-71304737D01*
X131948631Y-71420665D01*
X132049052Y-71342466D01*
X132508674Y-70960211D01*
X132588000Y-70809441D01*
X132667326Y-70960211D01*
X133126948Y-71342466D01*
X133227369Y-71420665D01*
X133458000Y-71304737D01*
X133458000Y-70196000D01*
X134258000Y-70196000D01*
X134258000Y-71304737D01*
X134488631Y-71420665D01*
X134589052Y-71342466D01*
X135048674Y-70960211D01*
X135327027Y-70431164D01*
X135187516Y-70196000D01*
X134258000Y-70196000D01*
X133458000Y-70196000D01*
X131718000Y-70196000D01*
X130918000Y-70196000D01*
X129178000Y-70196000D01*
X128378000Y-70196000D01*
X126638000Y-70196000D01*
X125838000Y-70196000D01*
X124098000Y-70196000D01*
X123298000Y-70196000D01*
X121558000Y-70196000D01*
X120758000Y-70196000D01*
X119018000Y-70196000D01*
X118218000Y-70196000D01*
X116478000Y-70196000D01*
X115678000Y-70196000D01*
X114709500Y-70196000D01*
X114520000Y-70385500D01*
X52655000Y-70385500D01*
X52655000Y-69450000D01*
X52675000Y-69450000D01*
X52675000Y-68256500D01*
X55175000Y-68256500D01*
X55175000Y-69450000D01*
X57033500Y-69450000D01*
X57223000Y-69260500D01*
X57223000Y-68674224D01*
X57107601Y-68395627D01*
X56957198Y-68245224D01*
X114520000Y-68245224D01*
X114520000Y-68806500D01*
X114709500Y-68996000D01*
X115678000Y-68996000D01*
X115678000Y-67827500D01*
X116478000Y-67827500D01*
X116478000Y-68996000D01*
X118218000Y-68996000D01*
X118218000Y-67887263D01*
X119018000Y-67887263D01*
X119018000Y-68996000D01*
X120758000Y-68996000D01*
X120758000Y-67887263D01*
X121558000Y-67887263D01*
X121558000Y-68996000D01*
X123298000Y-68996000D01*
X123298000Y-67887263D01*
X124098000Y-67887263D01*
X124098000Y-68996000D01*
X125838000Y-68996000D01*
X125838000Y-67887263D01*
X126638000Y-67887263D01*
X126638000Y-68996000D01*
X128378000Y-68996000D01*
X128378000Y-67887263D01*
X129178000Y-67887263D01*
X129178000Y-68996000D01*
X130918000Y-68996000D01*
X130918000Y-67887263D01*
X131718000Y-67887263D01*
X131718000Y-68996000D01*
X133458000Y-68996000D01*
X133458000Y-67887263D01*
X134258000Y-67887263D01*
X134258000Y-68996000D01*
X135187516Y-68996000D01*
X135327027Y-68760836D01*
X135048674Y-68231789D01*
X134589052Y-67849534D01*
X134488631Y-67771335D01*
X134258000Y-67887263D01*
X133458000Y-67887263D01*
X133227369Y-67771335D01*
X133126948Y-67849534D01*
X132667326Y-68231789D01*
X132588000Y-68382559D01*
X132508674Y-68231789D01*
X132049052Y-67849534D01*
X131948631Y-67771335D01*
X131718000Y-67887263D01*
X130918000Y-67887263D01*
X130687369Y-67771335D01*
X130586948Y-67849534D01*
X130127326Y-68231789D01*
X130048000Y-68382559D01*
X129968674Y-68231789D01*
X129509052Y-67849534D01*
X129408631Y-67771335D01*
X129178000Y-67887263D01*
X128378000Y-67887263D01*
X128147369Y-67771335D01*
X128046948Y-67849534D01*
X127587326Y-68231789D01*
X127508000Y-68382559D01*
X127428674Y-68231789D01*
X126969052Y-67849534D01*
X126868631Y-67771335D01*
X126638000Y-67887263D01*
X125838000Y-67887263D01*
X125607369Y-67771335D01*
X125506948Y-67849534D01*
X125047326Y-68231789D01*
X124968000Y-68382559D01*
X124888674Y-68231789D01*
X124429052Y-67849534D01*
X124328631Y-67771335D01*
X124098000Y-67887263D01*
X123298000Y-67887263D01*
X123067369Y-67771335D01*
X122966948Y-67849534D01*
X122507326Y-68231789D01*
X122428000Y-68382559D01*
X122348674Y-68231789D01*
X121889052Y-67849534D01*
X121788631Y-67771335D01*
X121558000Y-67887263D01*
X120758000Y-67887263D01*
X120527369Y-67771335D01*
X120426948Y-67849534D01*
X119967326Y-68231789D01*
X119888000Y-68382559D01*
X119808674Y-68231789D01*
X119349052Y-67849534D01*
X119248631Y-67771335D01*
X119018000Y-67887263D01*
X118218000Y-67887263D01*
X117987369Y-67771335D01*
X117886948Y-67849534D01*
X117578394Y-68106150D01*
X117520601Y-67966627D01*
X117307372Y-67753398D01*
X117028775Y-67638000D01*
X116667500Y-67638000D01*
X116478000Y-67827500D01*
X115678000Y-67827500D01*
X115488500Y-67638000D01*
X115127225Y-67638000D01*
X114848628Y-67753398D01*
X114635399Y-67966627D01*
X114520000Y-68245224D01*
X56957198Y-68245224D01*
X56894372Y-68182398D01*
X56615775Y-68067000D01*
X55364500Y-68067000D01*
X55175000Y-68256500D01*
X52675000Y-68256500D01*
X52485500Y-68067000D01*
X51234225Y-68067000D01*
X50955628Y-68182398D01*
X50825000Y-68313026D01*
X50825000Y-67183520D01*
X143784247Y-67183520D01*
X144267511Y-67598279D01*
X145944896Y-67834506D01*
X147132489Y-67598279D01*
X147615753Y-67183520D01*
X145700000Y-65267767D01*
X143784247Y-67183520D01*
X50825000Y-67183520D01*
X50825000Y-64336974D01*
X50955628Y-64467602D01*
X51234225Y-64583000D01*
X52485500Y-64583000D01*
X52675000Y-64393500D01*
X52675000Y-63200000D01*
X55175000Y-63200000D01*
X55175000Y-64393500D01*
X55364500Y-64583000D01*
X56615775Y-64583000D01*
X56894372Y-64467602D01*
X57107601Y-64254373D01*
X57223000Y-63975776D01*
X57223000Y-63389500D01*
X57033500Y-63200000D01*
X55175000Y-63200000D01*
X52675000Y-63200000D01*
X52655000Y-63200000D01*
X52655000Y-61950000D01*
X52675000Y-61950000D01*
X52675000Y-60756500D01*
X55175000Y-60756500D01*
X55175000Y-61950000D01*
X57033500Y-61950000D01*
X57080931Y-61902569D01*
X94544470Y-61902569D01*
X94801077Y-62191885D01*
X95857621Y-62269720D01*
X96248923Y-62191885D01*
X96505530Y-61902569D01*
X100894470Y-61902569D01*
X101151077Y-62191885D01*
X102207621Y-62269720D01*
X102598923Y-62191885D01*
X102855530Y-61902569D01*
X102490759Y-61537797D01*
X114528000Y-61537797D01*
X114528000Y-62414203D01*
X114645987Y-63007362D01*
X114981984Y-63510219D01*
X115484841Y-63846216D01*
X116078000Y-63964203D01*
X116671159Y-63846216D01*
X117174016Y-63510219D01*
X117348000Y-63249833D01*
X117521984Y-63510219D01*
X118024841Y-63846216D01*
X118618000Y-63964203D01*
X119211159Y-63846216D01*
X119714016Y-63510219D01*
X119888000Y-63249833D01*
X120061984Y-63510219D01*
X120564841Y-63846216D01*
X121158000Y-63964203D01*
X121751159Y-63846216D01*
X122254016Y-63510219D01*
X122428000Y-63249833D01*
X122601984Y-63510219D01*
X123104841Y-63846216D01*
X123698000Y-63964203D01*
X124291159Y-63846216D01*
X124794016Y-63510219D01*
X124968000Y-63249833D01*
X125141984Y-63510219D01*
X125644841Y-63846216D01*
X126238000Y-63964203D01*
X126831159Y-63846216D01*
X127334016Y-63510219D01*
X127508000Y-63249833D01*
X127681984Y-63510219D01*
X128184841Y-63846216D01*
X128778000Y-63964203D01*
X129371159Y-63846216D01*
X129874016Y-63510219D01*
X130048000Y-63249833D01*
X130221984Y-63510219D01*
X130724841Y-63846216D01*
X131318000Y-63964203D01*
X131911159Y-63846216D01*
X132414016Y-63510219D01*
X132588000Y-63249833D01*
X132761984Y-63510219D01*
X133264841Y-63846216D01*
X133858000Y-63964203D01*
X134451159Y-63846216D01*
X134602795Y-63744896D01*
X141365494Y-63744896D01*
X141601721Y-64932489D01*
X142016480Y-65415753D01*
X143932233Y-63500000D01*
X142016480Y-61584247D01*
X141601721Y-62067511D01*
X141365494Y-63744896D01*
X134602795Y-63744896D01*
X134954016Y-63510219D01*
X135290013Y-63007362D01*
X135408000Y-62414203D01*
X135408000Y-61537797D01*
X135290013Y-60944638D01*
X134954016Y-60441781D01*
X134451159Y-60105784D01*
X133858000Y-59987797D01*
X133264841Y-60105784D01*
X132761984Y-60441781D01*
X132588000Y-60702167D01*
X132414016Y-60441781D01*
X131911159Y-60105784D01*
X131318000Y-59987797D01*
X130724841Y-60105784D01*
X130221984Y-60441781D01*
X130048000Y-60702167D01*
X129874016Y-60441781D01*
X129371159Y-60105784D01*
X128778000Y-59987797D01*
X128184841Y-60105784D01*
X127681984Y-60441781D01*
X127508000Y-60702167D01*
X127334016Y-60441781D01*
X126831159Y-60105784D01*
X126238000Y-59987797D01*
X125644841Y-60105784D01*
X125141984Y-60441781D01*
X124968000Y-60702167D01*
X124794016Y-60441781D01*
X124291159Y-60105784D01*
X123698000Y-59987797D01*
X123104841Y-60105784D01*
X122601984Y-60441781D01*
X122428000Y-60702167D01*
X122254016Y-60441781D01*
X121751159Y-60105784D01*
X121158000Y-59987797D01*
X120564841Y-60105784D01*
X120061984Y-60441781D01*
X119888000Y-60702167D01*
X119714016Y-60441781D01*
X119211159Y-60105784D01*
X118618000Y-59987797D01*
X118024841Y-60105784D01*
X117521984Y-60441781D01*
X117348000Y-60702167D01*
X117174016Y-60441781D01*
X116671159Y-60105784D01*
X116078000Y-59987797D01*
X115484841Y-60105784D01*
X114981984Y-60441781D01*
X114645987Y-60944638D01*
X114528000Y-61537797D01*
X102490759Y-61537797D01*
X101875000Y-60922038D01*
X100894470Y-61902569D01*
X96505530Y-61902569D01*
X95525000Y-60922038D01*
X94544470Y-61902569D01*
X57080931Y-61902569D01*
X57223000Y-61760500D01*
X57223000Y-61174224D01*
X57107601Y-60895627D01*
X56894372Y-60682398D01*
X56615775Y-60567000D01*
X55364500Y-60567000D01*
X55175000Y-60756500D01*
X52675000Y-60756500D01*
X52485500Y-60567000D01*
X51234225Y-60567000D01*
X50955628Y-60682398D01*
X50825000Y-60813026D01*
X50825000Y-59907621D01*
X92830280Y-59907621D01*
X92908115Y-60298923D01*
X93197431Y-60555530D01*
X94177962Y-59575000D01*
X93197431Y-58594470D01*
X92908115Y-58851077D01*
X92830280Y-59907621D01*
X50825000Y-59907621D01*
X50825000Y-55515848D01*
X51538461Y-56229309D01*
X51853001Y-55914769D01*
X52202263Y-56224618D01*
X53496996Y-56284439D01*
X53797737Y-56224618D01*
X54147001Y-55914768D01*
X53519733Y-55287500D01*
X60536000Y-55287500D01*
X60536000Y-56538775D01*
X60651398Y-56817372D01*
X60864627Y-57030601D01*
X61143224Y-57146000D01*
X61729500Y-57146000D01*
X61919000Y-56956500D01*
X61919000Y-55098000D01*
X63169000Y-55098000D01*
X63169000Y-56956500D01*
X63358500Y-57146000D01*
X63944776Y-57146000D01*
X64223373Y-57030601D01*
X64436602Y-56817372D01*
X64552000Y-56538775D01*
X64552000Y-55287500D01*
X68036000Y-55287500D01*
X68036000Y-56538775D01*
X68151398Y-56817372D01*
X68364627Y-57030601D01*
X68643224Y-57146000D01*
X69229500Y-57146000D01*
X69419000Y-56956500D01*
X69419000Y-55098000D01*
X70669000Y-55098000D01*
X70669000Y-56956500D01*
X70858500Y-57146000D01*
X71444776Y-57146000D01*
X71723373Y-57030601D01*
X71936602Y-56817372D01*
X72052000Y-56538775D01*
X72052000Y-55287500D01*
X71862500Y-55098000D01*
X70669000Y-55098000D01*
X69419000Y-55098000D01*
X68225500Y-55098000D01*
X68036000Y-55287500D01*
X64552000Y-55287500D01*
X64362500Y-55098000D01*
X63169000Y-55098000D01*
X61919000Y-55098000D01*
X60725500Y-55098000D01*
X60536000Y-55287500D01*
X53519733Y-55287500D01*
X53000000Y-54767767D01*
X52985858Y-54781910D01*
X51218091Y-53014143D01*
X51232233Y-53000000D01*
X51218091Y-52985858D01*
X52985858Y-51218091D01*
X53000000Y-51232233D01*
X53014143Y-51218091D01*
X54781910Y-52985858D01*
X54767767Y-53000000D01*
X55914768Y-54147001D01*
X56224618Y-53797737D01*
X56266096Y-52900000D01*
X79835307Y-52900000D01*
X79835307Y-55900000D01*
X79887604Y-56177933D01*
X80051862Y-56433198D01*
X80302492Y-56604446D01*
X80600000Y-56664693D01*
X83600000Y-56664693D01*
X83877933Y-56612396D01*
X84133198Y-56448138D01*
X84215994Y-56326961D01*
X86313699Y-56326961D01*
X86507361Y-56601784D01*
X87401149Y-56691592D01*
X87852639Y-56601784D01*
X88046301Y-56326961D01*
X87271909Y-55552569D01*
X94544470Y-55552569D01*
X94801077Y-55841885D01*
X95857621Y-55919720D01*
X96189570Y-55853691D01*
X96172440Y-55894944D01*
X96171563Y-56900644D01*
X96193626Y-56954041D01*
X95192379Y-56880280D01*
X94801077Y-56958115D01*
X94544470Y-57247431D01*
X95525000Y-58227962D01*
X95749507Y-58003455D01*
X97096545Y-59350493D01*
X96872038Y-59575000D01*
X97852569Y-60555530D01*
X98141885Y-60298923D01*
X98219720Y-59242379D01*
X98153691Y-58910430D01*
X98194944Y-58927560D01*
X99200644Y-58928437D01*
X99254041Y-58906374D01*
X99180280Y-59907621D01*
X99258115Y-60298923D01*
X99547431Y-60555530D01*
X100527962Y-59575000D01*
X103222038Y-59575000D01*
X104202569Y-60555530D01*
X104491885Y-60298923D01*
X104527426Y-59816480D01*
X143784247Y-59816480D01*
X145700000Y-61732233D01*
X147615753Y-59816480D01*
X147132489Y-59401721D01*
X145455104Y-59165494D01*
X144267511Y-59401721D01*
X143784247Y-59816480D01*
X104527426Y-59816480D01*
X104569720Y-59242379D01*
X104491885Y-58851077D01*
X104202569Y-58594470D01*
X103222038Y-59575000D01*
X100527962Y-59575000D01*
X100303455Y-59350493D01*
X101650493Y-58003455D01*
X101875000Y-58227962D01*
X102855530Y-57247431D01*
X102598923Y-56958115D01*
X101542379Y-56880280D01*
X101210430Y-56946309D01*
X101227560Y-56905056D01*
X101228437Y-55899356D01*
X101206374Y-55845959D01*
X102207621Y-55919720D01*
X102598923Y-55841885D01*
X102855530Y-55552569D01*
X102312462Y-55009500D01*
X110062000Y-55009500D01*
X110062000Y-56260775D01*
X110177398Y-56539372D01*
X110390627Y-56752601D01*
X110669224Y-56868000D01*
X111255500Y-56868000D01*
X111445000Y-56678500D01*
X111445000Y-54820000D01*
X112695000Y-54820000D01*
X112695000Y-56678500D01*
X112884500Y-56868000D01*
X113470776Y-56868000D01*
X113749373Y-56752601D01*
X113962602Y-56539372D01*
X114078000Y-56260775D01*
X114078000Y-55009500D01*
X117562000Y-55009500D01*
X117562000Y-56260775D01*
X117677398Y-56539372D01*
X117890627Y-56752601D01*
X118169224Y-56868000D01*
X118755500Y-56868000D01*
X118945000Y-56678500D01*
X118945000Y-54820000D01*
X120195000Y-54820000D01*
X120195000Y-56678500D01*
X120384500Y-56868000D01*
X120970776Y-56868000D01*
X121249373Y-56752601D01*
X121462602Y-56539372D01*
X121578000Y-56260775D01*
X121578000Y-55209500D01*
X127952000Y-55209500D01*
X127952000Y-56460775D01*
X128067398Y-56739372D01*
X128280627Y-56952601D01*
X128559224Y-57068000D01*
X129145500Y-57068000D01*
X129335000Y-56878500D01*
X129335000Y-55020000D01*
X130585000Y-55020000D01*
X130585000Y-56878500D01*
X130774500Y-57068000D01*
X131360776Y-57068000D01*
X131639373Y-56952601D01*
X131852602Y-56739372D01*
X131968000Y-56460775D01*
X131968000Y-55209500D01*
X135452000Y-55209500D01*
X135452000Y-56460775D01*
X135567398Y-56739372D01*
X135780627Y-56952601D01*
X136059224Y-57068000D01*
X136645500Y-57068000D01*
X136835000Y-56878500D01*
X136835000Y-55020000D01*
X138085000Y-55020000D01*
X138085000Y-56878500D01*
X138274500Y-57068000D01*
X138860776Y-57068000D01*
X139139373Y-56952601D01*
X139352602Y-56739372D01*
X139468000Y-56460775D01*
X139468000Y-55209500D01*
X139278500Y-55020000D01*
X138085000Y-55020000D01*
X136835000Y-55020000D01*
X135641500Y-55020000D01*
X135452000Y-55209500D01*
X131968000Y-55209500D01*
X131778500Y-55020000D01*
X130585000Y-55020000D01*
X129335000Y-55020000D01*
X128141500Y-55020000D01*
X127952000Y-55209500D01*
X121578000Y-55209500D01*
X121578000Y-55009500D01*
X121388500Y-54820000D01*
X120195000Y-54820000D01*
X118945000Y-54820000D01*
X117751500Y-54820000D01*
X117562000Y-55009500D01*
X114078000Y-55009500D01*
X113888500Y-54820000D01*
X112695000Y-54820000D01*
X111445000Y-54820000D01*
X110251500Y-54820000D01*
X110062000Y-55009500D01*
X102312462Y-55009500D01*
X101875000Y-54572038D01*
X101650493Y-54796545D01*
X100303455Y-53449507D01*
X100527962Y-53225000D01*
X103222038Y-53225000D01*
X104202569Y-54205530D01*
X104491885Y-53948923D01*
X104569720Y-52892379D01*
X104491885Y-52501077D01*
X104202569Y-52244470D01*
X103222038Y-53225000D01*
X100527962Y-53225000D01*
X99547431Y-52244470D01*
X99258115Y-52501077D01*
X99180280Y-53557621D01*
X99246309Y-53889570D01*
X99205056Y-53872440D01*
X98199356Y-53871563D01*
X98145959Y-53893626D01*
X98219720Y-52892379D01*
X98141885Y-52501077D01*
X97852569Y-52244470D01*
X96872038Y-53225000D01*
X97096545Y-53449507D01*
X95749507Y-54796545D01*
X95525000Y-54572038D01*
X94544470Y-55552569D01*
X87271909Y-55552569D01*
X87180000Y-55460660D01*
X86313699Y-56326961D01*
X84215994Y-56326961D01*
X84304446Y-56197508D01*
X84364693Y-55900000D01*
X84364693Y-54621149D01*
X84888408Y-54621149D01*
X84978216Y-55072639D01*
X85253039Y-55266301D01*
X86119340Y-54400000D01*
X88240660Y-54400000D01*
X89106961Y-55266301D01*
X89381784Y-55072639D01*
X89471592Y-54178851D01*
X89381784Y-53727361D01*
X89140909Y-53557621D01*
X92830280Y-53557621D01*
X92908115Y-53948923D01*
X93197431Y-54205530D01*
X94177962Y-53225000D01*
X93197431Y-52244470D01*
X92908115Y-52501077D01*
X92830280Y-53557621D01*
X89140909Y-53557621D01*
X89106961Y-53533699D01*
X88240660Y-54400000D01*
X86119340Y-54400000D01*
X85253039Y-53533699D01*
X84978216Y-53727361D01*
X84888408Y-54621149D01*
X84364693Y-54621149D01*
X84364693Y-52900000D01*
X84312396Y-52622067D01*
X84216500Y-52473039D01*
X86313699Y-52473039D01*
X87180000Y-53339340D01*
X88046301Y-52473039D01*
X87852639Y-52198216D01*
X86958851Y-52108408D01*
X86507361Y-52198216D01*
X86313699Y-52473039D01*
X84216500Y-52473039D01*
X84148138Y-52366802D01*
X83897508Y-52195554D01*
X83600000Y-52135307D01*
X80600000Y-52135307D01*
X80322067Y-52187604D01*
X80066802Y-52351862D01*
X79895554Y-52602492D01*
X79835307Y-52900000D01*
X56266096Y-52900000D01*
X56284439Y-52503004D01*
X56224618Y-52202263D01*
X55914769Y-51853001D01*
X56229309Y-51538461D01*
X55515848Y-50825000D01*
X60705026Y-50825000D01*
X60651398Y-50878628D01*
M02*
