M48
;DRILL file {KiCad 4.0.7} date 11/25/19 22:23:25
;FORMAT={-:-/ absolute / metric / decimal}
FMAT,2
METRIC,TZ
T1C0.400
T2C1.000
T3C1.270
T4C1.520
T5C1.524
T6C3.048
T7C3.800
%
G90
G05
M71
T1
X53.525Y-91.75
X53.6Y-99.85
X53.65Y-73.725
X53.7Y-78.675
X53.725Y-118.675
X53.875Y-112.775
X53.925Y-60.25
X53.925Y-131.55
X54.356Y-140.462
X54.356Y-142.748
X55.3Y-60.15
X55.375Y-99.975
X55.5Y-118.525
X55.7Y-73.8
X55.825Y-112.825
X56.Y-78.85
X56.15Y-131.475
X56.325Y-91.75
X56.388Y-138.43
X56.388Y-144.78
X57.404Y-54.356
X57.658Y-52.07
X61.45Y-104.25
X61.525Y-107.55
X61.6Y-64.775
X61.625Y-67.725
X61.65Y-123.25
X61.825Y-126.75
X62.15Y-83.75
X62.225Y-86.825
X62.9Y-106.
X63.125Y-66.175
X63.225Y-125.025
X63.45Y-85.375
X70.358Y-51.816
X70.612Y-54.102
X75.184Y-145.542
X75.184Y-147.32
X78.74Y-138.43
X80.518Y-136.652
X82.804Y-136.652
X84.582Y-138.43
X88.9Y-144.78
X88.9Y-147.066
X93.218Y-145.034
X93.472Y-147.066
X94.234Y-52.324
X94.234Y-54.61
X106.68Y-52.324
X106.68Y-54.61
X107.95Y-144.78
X107.95Y-147.32
X108.712Y-52.578
X108.712Y-54.61
X111.76Y-144.78
X112.014Y-146.812
X122.682Y-54.102
X122.936Y-52.07
X125.222Y-147.32
X125.476Y-145.034
X126.492Y-52.07
X126.492Y-54.102
X129.032Y-144.78
X129.286Y-147.32
X140.208Y-55.118
X140.462Y-52.07
X141.4Y-115.9
X142.748Y-145.034
X143.Y-115.7
X143.002Y-147.574
X143.256Y-129.286
X143.51Y-125.73
X144.526Y-143.002
X146.304Y-125.73
X146.304Y-129.286
X146.812Y-142.748
T3
X66.548Y-142.24
X88.9Y-80.01
X92.15Y-125.975
X93.548Y-110.465
X107.188Y-79.756
X109.525Y-125.975
X109.601Y-110.299
X124.714Y-125.222
T4
X74.168Y-54.102
X79.248Y-54.102
X85.344Y-54.102
X90.424Y-54.102
T5
X63.373Y-139.065
X63.373Y-145.415
X69.723Y-139.065
X69.723Y-145.415
X85.725Y-76.835
X85.725Y-83.185
X88.975Y-122.8
X88.975Y-129.15
X90.373Y-107.29
X90.373Y-113.64
X92.075Y-76.835
X92.075Y-83.185
X95.325Y-122.8
X95.325Y-129.15
X96.723Y-107.29
X96.723Y-113.64
X104.013Y-76.581
X104.013Y-82.931
X106.35Y-122.8
X106.35Y-129.15
X106.426Y-107.124
X106.426Y-113.474
X110.363Y-76.581
X110.363Y-82.931
X112.7Y-122.8
X112.7Y-129.15
X112.776Y-107.124
X112.776Y-113.474
X121.539Y-122.047
X121.539Y-128.397
X127.889Y-122.047
X127.889Y-128.397
T6
X53.Y-53.
X53.Y-147.
X147.Y-53.
X147.Y-147.
T7
X130.81Y-110.49
X145.7Y-63.5
T2
X89.1Y-91.48G85X89.1Y-90.98
G05
X89.1Y-99.1G85X89.1Y-98.6
G05
X91.64Y-91.48G85X91.64Y-90.98
G05
X91.64Y-99.1G85X91.64Y-98.6
G05
X94.18Y-91.48G85X94.18Y-90.98
G05
X94.18Y-99.1G85X94.18Y-98.6
G05
X96.72Y-91.48G85X96.72Y-90.98
G05
X96.72Y-99.1G85X96.72Y-98.6
G05
X99.26Y-91.48G85X99.26Y-90.98
G05
X99.26Y-99.1G85X99.26Y-98.6
G05
X101.8Y-91.48G85X101.8Y-90.98
G05
X101.8Y-99.1G85X101.8Y-98.6
G05
X104.34Y-91.48G85X104.34Y-90.98
G05
X104.34Y-99.1G85X104.34Y-98.6
G05
X106.88Y-91.48G85X106.88Y-90.98
G05
X106.88Y-99.1G85X106.88Y-98.6
G05
X116.078Y-62.226G85X116.078Y-61.726
G05
X116.078Y-69.846G85X116.078Y-69.346
G05
X118.618Y-62.226G85X118.618Y-61.726
G05
X118.618Y-69.846G85X118.618Y-69.346
G05
X121.158Y-62.226G85X121.158Y-61.726
G05
X121.158Y-69.846G85X121.158Y-69.346
G05
X123.698Y-62.226G85X123.698Y-61.726
G05
X123.698Y-69.846G85X123.698Y-69.346
G05
X126.238Y-62.226G85X126.238Y-61.726
G05
X126.238Y-69.846G85X126.238Y-69.346
G05
X128.778Y-62.226G85X128.778Y-61.726
G05
X128.778Y-69.846G85X128.778Y-69.346
G05
X131.318Y-62.226G85X131.318Y-61.726
G05
X131.318Y-69.846G85X131.318Y-69.346
G05
X133.858Y-62.226G85X133.858Y-61.726
G05
X133.858Y-69.846G85X133.858Y-69.346
G05
T0
M30
