G04 #@! TF.FileFunction,Soldermask,Top*
%FSLAX46Y46*%
G04 Gerber Fmt 4.6, Leading zero omitted, Abs format (unit mm)*
G04 Created by KiCad (PCBNEW 4.0.7) date 11/19/18 23:15:04*
%MOMM*%
%LPD*%
G01*
G04 APERTURE LIST*
%ADD10C,0.100000*%
%ADD11R,2.000000X2.000000*%
%ADD12O,2.000000X2.000000*%
%ADD13C,2.000000*%
%ADD14C,1.924000*%
%ADD15C,3.400000*%
%ADD16R,2.100000X2.100000*%
%ADD17O,2.100000X2.100000*%
%ADD18R,1.800000X0.700000*%
%ADD19C,1.900000*%
%ADD20C,4.464000*%
%ADD21C,2.500000*%
%ADD22R,3.400000X3.400000*%
%ADD23R,2.200000X2.200000*%
%ADD24O,2.200000X2.200000*%
%ADD25R,3.900000X3.900000*%
G04 APERTURE END LIST*
D10*
D11*
X131203700Y-108013500D03*
D12*
X115963700Y-115633500D03*
X128663700Y-108013500D03*
X118503700Y-115633500D03*
X126123700Y-108013500D03*
X121043700Y-115633500D03*
X123583700Y-108013500D03*
X123583700Y-115633500D03*
X121043700Y-108013500D03*
X126123700Y-115633500D03*
X118503700Y-108013500D03*
X128663700Y-115633500D03*
X115963700Y-108013500D03*
X131203700Y-115633500D03*
D13*
X85725000Y-76974700D03*
D12*
X85725000Y-69354700D03*
D13*
X93014800Y-72402700D03*
X90514800Y-72402700D03*
D14*
X69342000Y-138430000D03*
X71882000Y-138430000D03*
X74422000Y-138430000D03*
X76962000Y-138430000D03*
X79502000Y-138430000D03*
X82042000Y-138430000D03*
X84582000Y-138430000D03*
X87122000Y-138430000D03*
X89662000Y-138430000D03*
X92202000Y-138430000D03*
X94742000Y-138430000D03*
X97282000Y-138430000D03*
X99822000Y-138430000D03*
X102362000Y-138430000D03*
X104902000Y-138430000D03*
X107442000Y-138430000D03*
X109982000Y-138430000D03*
X112522000Y-138430000D03*
X115062000Y-138430000D03*
X117602000Y-138430000D03*
X69342000Y-123190000D03*
X71882000Y-123190000D03*
X74422000Y-123190000D03*
X76962000Y-123190000D03*
X79502000Y-123190000D03*
X82042000Y-123190000D03*
X84582000Y-123190000D03*
X87122000Y-123190000D03*
X89662000Y-123190000D03*
X92202000Y-123190000D03*
X94742000Y-123190000D03*
X97282000Y-123190000D03*
X99822000Y-123190000D03*
X102362000Y-123190000D03*
X104902000Y-123190000D03*
X107442000Y-123190000D03*
X109982000Y-123190000D03*
X112522000Y-123190000D03*
X115062000Y-123190000D03*
X117602000Y-123190000D03*
D15*
X72588120Y-59176920D03*
X72542400Y-65227200D03*
D11*
X69138800Y-91706700D03*
D12*
X69138800Y-99326700D03*
D11*
X66344800Y-99326700D03*
D12*
X66344800Y-91706700D03*
D13*
X108826300Y-101168200D03*
X106326300Y-101168200D03*
X79248000Y-106680000D03*
X76748000Y-106680000D03*
X142646400Y-80416400D03*
X145146400Y-80416400D03*
D11*
X143764000Y-84582000D03*
D13*
X143764000Y-87082000D03*
X143052800Y-62179200D03*
X145552800Y-62179200D03*
X78981300Y-103581200D03*
X81481300Y-103581200D03*
D11*
X143052800Y-66344800D03*
D13*
X145552800Y-66344800D03*
X93459300Y-54737000D03*
X90959300Y-54737000D03*
X93624400Y-57835800D03*
X91124400Y-57835800D03*
X93014800Y-69100700D03*
X90514800Y-69100700D03*
X76098400Y-84924900D03*
X73598400Y-84924900D03*
X76250800Y-87795100D03*
X73750800Y-87795100D03*
X90830400Y-60845700D03*
X93330400Y-60845700D03*
X90728800Y-75450700D03*
X93228800Y-75450700D03*
X73660000Y-90932000D03*
X76160000Y-90932000D03*
X93268800Y-63919100D03*
X90768800Y-63919100D03*
X93014800Y-78498700D03*
X90514800Y-78498700D03*
X75806300Y-93992700D03*
X73306300Y-93992700D03*
X107696000Y-62484000D03*
X107696000Y-59984000D03*
X107188000Y-75438000D03*
X107188000Y-77938000D03*
X107696000Y-55626000D03*
X107696000Y-53126000D03*
X107238800Y-72402700D03*
X107238800Y-69902700D03*
X90170000Y-88138000D03*
X90170000Y-90638000D03*
X92628720Y-84604860D03*
X90128720Y-84604860D03*
X114046000Y-69088000D03*
X116546000Y-69088000D03*
X122174000Y-77216000D03*
X122174000Y-74716000D03*
X100812600Y-94183200D03*
X103312600Y-94183200D03*
X118618000Y-56896000D03*
X118618000Y-59396000D03*
X117602000Y-74676000D03*
X117602000Y-77176000D03*
X114427000Y-97282000D03*
X111927000Y-97282000D03*
X122174000Y-59436000D03*
X122174000Y-56936000D03*
X117348000Y-84074000D03*
X117348000Y-81574000D03*
X80264000Y-143764000D03*
X80264000Y-146264000D03*
X86106000Y-143764000D03*
X86106000Y-146264000D03*
X99999800Y-143840200D03*
X99999800Y-146340200D03*
D11*
X65303400Y-72161400D03*
D12*
X72923400Y-72161400D03*
D11*
X72999600Y-69456300D03*
D12*
X65379600Y-69456300D03*
D15*
X69905880Y-54035960D03*
X66484500Y-65227200D03*
X66413380Y-58925460D03*
D16*
X143421100Y-96164400D03*
D17*
X145961100Y-96164400D03*
X143421100Y-98704400D03*
X145961100Y-98704400D03*
X143421100Y-101244400D03*
X145961100Y-101244400D03*
X143421100Y-103784400D03*
X145961100Y-103784400D03*
X143421100Y-106324400D03*
X145961100Y-106324400D03*
D16*
X99568000Y-114300000D03*
D17*
X102108000Y-114300000D03*
X104648000Y-114300000D03*
X107188000Y-114300000D03*
D16*
X76238100Y-72542400D03*
D17*
X76238100Y-70002400D03*
D16*
X79590900Y-72580500D03*
D17*
X79590900Y-70040500D03*
D13*
X145796000Y-76962000D03*
D12*
X138176000Y-76962000D03*
D13*
X73710800Y-106057700D03*
D12*
X66090800Y-106057700D03*
D13*
X111506000Y-54610000D03*
D12*
X111506000Y-62230000D03*
D13*
X110312200Y-69824600D03*
D12*
X110312200Y-77444600D03*
D13*
X95758000Y-85090000D03*
D12*
X103378000Y-85090000D03*
D13*
X87122000Y-114427000D03*
D12*
X87122000Y-106807000D03*
D13*
X90297000Y-114427000D03*
D12*
X90297000Y-106807000D03*
D13*
X138023600Y-73761600D03*
D12*
X145643600Y-73761600D03*
D13*
X138163300Y-70497700D03*
D12*
X145783300Y-70497700D03*
D13*
X82931000Y-69329300D03*
D12*
X82931000Y-76949300D03*
D13*
X78600300Y-58940700D03*
D12*
X78600300Y-66560700D03*
D13*
X81991200Y-59055000D03*
D12*
X81991200Y-66675000D03*
D13*
X84632800Y-100787200D03*
D12*
X92252800Y-100787200D03*
D13*
X85445600Y-58991500D03*
D12*
X85445600Y-66611500D03*
D13*
X86918800Y-52844700D03*
D12*
X79298800Y-52844700D03*
D13*
X86918800Y-56146700D03*
D12*
X79298800Y-56146700D03*
D13*
X92252800Y-97548700D03*
D12*
X84632800Y-97548700D03*
D13*
X79852520Y-78008480D03*
D12*
X72232520Y-78008480D03*
D13*
X66344800Y-81800700D03*
D12*
X66344800Y-89420700D03*
D13*
X69469000Y-81800700D03*
D12*
X69469000Y-89420700D03*
D13*
X103769160Y-65826640D03*
D12*
X96149160Y-65826640D03*
D13*
X103936800Y-80022700D03*
D12*
X96316800Y-80022700D03*
D13*
X86753700Y-93992700D03*
D12*
X79133700Y-93992700D03*
D13*
X114808000Y-62484000D03*
D12*
X114808000Y-54864000D03*
D13*
X113792000Y-79502000D03*
D12*
X113792000Y-71882000D03*
D13*
X94996000Y-89408000D03*
D12*
X102616000Y-89408000D03*
D13*
X106507280Y-65770760D03*
D12*
X114127280Y-65770760D03*
D13*
X114731800Y-81927700D03*
D12*
X107111800Y-81927700D03*
D13*
X97599500Y-94068900D03*
D12*
X89979500Y-94068900D03*
D13*
X133604000Y-59436000D03*
D12*
X125984000Y-59436000D03*
D13*
X118922800Y-94500700D03*
D12*
X118922800Y-86880700D03*
D13*
X125984000Y-56134000D03*
D12*
X133604000Y-56134000D03*
D13*
X122478800Y-86880700D03*
D12*
X122478800Y-94500700D03*
D13*
X137668000Y-63246000D03*
D12*
X130048000Y-63246000D03*
D13*
X130048000Y-66802000D03*
D12*
X137668000Y-66802000D03*
D18*
X76032000Y-111268000D03*
X76032000Y-111768000D03*
X76032000Y-112268000D03*
X76032000Y-112768000D03*
X76032000Y-113268000D03*
X80432000Y-113268000D03*
X80432000Y-112768000D03*
X80432000Y-112268000D03*
X80432000Y-111768000D03*
X80432000Y-111268000D03*
D11*
X96895920Y-54538880D03*
D12*
X104515920Y-62158880D03*
X96895920Y-57078880D03*
X104515920Y-59618880D03*
X96895920Y-59618880D03*
X104515920Y-57078880D03*
X96895920Y-62158880D03*
X104515920Y-54538880D03*
D11*
X96316800Y-69100700D03*
D12*
X103936800Y-76720700D03*
X96316800Y-71640700D03*
X103936800Y-74180700D03*
X96316800Y-74180700D03*
X103936800Y-71640700D03*
X96316800Y-76720700D03*
X103936800Y-69100700D03*
D11*
X79248000Y-83058000D03*
D12*
X86868000Y-90678000D03*
X79248000Y-85598000D03*
X86868000Y-88138000D03*
X79248000Y-88138000D03*
X86868000Y-85598000D03*
X79248000Y-90678000D03*
X86868000Y-83058000D03*
D11*
X119634000Y-63246000D03*
D12*
X127254000Y-70866000D03*
X119634000Y-65786000D03*
X127254000Y-68326000D03*
X119634000Y-68326000D03*
X127254000Y-65786000D03*
X119634000Y-70866000D03*
X127254000Y-63246000D03*
D11*
X106680000Y-86360000D03*
D12*
X114300000Y-93980000D03*
X106680000Y-88900000D03*
X114300000Y-91440000D03*
X106680000Y-91440000D03*
X114300000Y-88900000D03*
X106680000Y-93980000D03*
X114300000Y-86360000D03*
D19*
X72115680Y-110756700D03*
X72115680Y-115636700D03*
D20*
X53000000Y-53000000D03*
X147000000Y-53000000D03*
X53000000Y-147000000D03*
X147000000Y-147000000D03*
D19*
X62278300Y-68224400D03*
X62278300Y-70764400D03*
D21*
X57198300Y-73304400D03*
X57198300Y-63144400D03*
D19*
X62545000Y-89916000D03*
X62545000Y-92456000D03*
D21*
X57465000Y-94996000D03*
X57465000Y-84836000D03*
D22*
X145389600Y-137007600D03*
D15*
X145389600Y-131927600D03*
D13*
X122034300Y-84162900D03*
X122034300Y-81662900D03*
D11*
X138470640Y-137408920D03*
D13*
X138470640Y-139908920D03*
X145267680Y-114239040D03*
X142767680Y-114239040D03*
D16*
X138480800Y-133362700D03*
D17*
X138480800Y-130822700D03*
D23*
X143926560Y-124500640D03*
D24*
X143926560Y-121960640D03*
X143926560Y-119420640D03*
D16*
X55626000Y-137414000D03*
D17*
X55626000Y-134874000D03*
X55626000Y-132334000D03*
X55626000Y-129794000D03*
X55626000Y-127254000D03*
X55626000Y-124714000D03*
X55626000Y-122174000D03*
X55626000Y-119634000D03*
D20*
X60000000Y-102000000D03*
X60000000Y-146000000D03*
X137000000Y-102000000D03*
X137000000Y-146000000D03*
D13*
X145288000Y-111312960D03*
X142788000Y-111312960D03*
D25*
X126288800Y-140474700D03*
X126288800Y-146474700D03*
X130988800Y-143474700D03*
D16*
X61874400Y-55384700D03*
D17*
X61874400Y-57924700D03*
D13*
X126344680Y-118242080D03*
X123844680Y-118242080D03*
X123494800Y-101142800D03*
D12*
X115874800Y-101142800D03*
D13*
X123444000Y-104381300D03*
D12*
X115824000Y-104381300D03*
D13*
X129311400Y-105270300D03*
D12*
X129311400Y-97650300D03*
D13*
X126187200Y-105234740D03*
D12*
X126187200Y-97614740D03*
D13*
X134274560Y-108143040D03*
D12*
X134274560Y-115763040D03*
D13*
X137363200Y-108122720D03*
D12*
X137363200Y-115742720D03*
M02*
