G04 #@! TF.FileFunction,Soldermask,Bot*
%FSLAX46Y46*%
G04 Gerber Fmt 4.6, Leading zero omitted, Abs format (unit mm)*
G04 Created by KiCad (PCBNEW 4.0.7) date 04/23/20 22:14:39*
%MOMM*%
%LPD*%
G01*
G04 APERTURE LIST*
%ADD10C,0.100000*%
%ADD11C,1.924000*%
%ADD12C,1.400000*%
%ADD13C,2.000000*%
%ADD14R,1.400000X1.400000*%
%ADD15R,2.000000X2.000000*%
%ADD16O,2.000000X2.000000*%
%ADD17C,3.400000*%
%ADD18R,2.100000X2.100000*%
%ADD19O,2.100000X2.100000*%
%ADD20C,1.900000*%
%ADD21C,5.400000*%
%ADD22C,2.500000*%
%ADD23R,2.200000X2.200000*%
%ADD24O,2.200000X2.200000*%
%ADD25C,4.464000*%
%ADD26R,3.900000X3.900000*%
%ADD27R,2.400000X2.400000*%
%ADD28C,2.400000*%
%ADD29C,1.920000*%
%ADD30C,3.100000*%
G04 APERTURE END LIST*
D10*
D11*
X69342000Y-138430000D03*
X71882000Y-138430000D03*
X74422000Y-138430000D03*
X76962000Y-138430000D03*
X79502000Y-138430000D03*
X82042000Y-138430000D03*
X84582000Y-138430000D03*
X87122000Y-138430000D03*
X89662000Y-138430000D03*
X92202000Y-138430000D03*
X94742000Y-138430000D03*
X97282000Y-138430000D03*
X99822000Y-138430000D03*
X102362000Y-138430000D03*
X104902000Y-138430000D03*
X107442000Y-138430000D03*
X109982000Y-138430000D03*
X112522000Y-138430000D03*
X115062000Y-138430000D03*
X117602000Y-138430000D03*
X69342000Y-123190000D03*
X71882000Y-123190000D03*
X74422000Y-123190000D03*
X76962000Y-123190000D03*
X79502000Y-123190000D03*
X82042000Y-123190000D03*
X84582000Y-123190000D03*
X87122000Y-123190000D03*
X89662000Y-123190000D03*
X92202000Y-123190000D03*
X94742000Y-123190000D03*
X97282000Y-123190000D03*
X99822000Y-123190000D03*
X102362000Y-123190000D03*
X104902000Y-123190000D03*
X107442000Y-123190000D03*
X109982000Y-123190000D03*
X112522000Y-123190000D03*
X115062000Y-123190000D03*
X117602000Y-123190000D03*
D12*
X147190000Y-133982000D03*
X147190000Y-125982000D03*
D13*
X61600000Y-82750000D03*
X59100000Y-82750000D03*
D12*
X71020000Y-101280000D03*
X72290000Y-102550000D03*
D14*
X69750000Y-102550000D03*
D13*
X115316000Y-79883000D03*
X115316000Y-77383000D03*
D15*
X64937640Y-85674200D03*
D16*
X57317640Y-93294200D03*
X62397640Y-85674200D03*
X59857640Y-93294200D03*
X59857640Y-85674200D03*
X62397640Y-93294200D03*
X57317640Y-85674200D03*
X64937640Y-93294200D03*
D15*
X130479800Y-108077000D03*
D16*
X115239800Y-115697000D03*
X127939800Y-108077000D03*
X117779800Y-115697000D03*
X125399800Y-108077000D03*
X120319800Y-115697000D03*
X122859800Y-108077000D03*
X122859800Y-115697000D03*
X120319800Y-108077000D03*
X125399800Y-115697000D03*
X117779800Y-108077000D03*
X127939800Y-115697000D03*
X115239800Y-108077000D03*
X130479800Y-115697000D03*
D13*
X76024740Y-95806260D03*
D16*
X76024740Y-103426260D03*
D13*
X66025000Y-82575000D03*
X68525000Y-82575000D03*
D17*
X68326000Y-77724000D03*
X60775000Y-77600000D03*
D15*
X120944640Y-61493400D03*
D16*
X120944640Y-53873400D03*
D15*
X117896640Y-53873400D03*
D16*
X117896640Y-61493400D03*
D13*
X108165900Y-54368700D03*
X110665900Y-54368700D03*
X79248000Y-106680000D03*
X76748000Y-106680000D03*
X136906000Y-88138000D03*
X136906000Y-85638000D03*
X142494000Y-59690000D03*
X144994000Y-59690000D03*
X79822040Y-82054700D03*
X79822040Y-79554700D03*
X87035640Y-55016400D03*
X84535640Y-55016400D03*
X87035640Y-58318400D03*
X84535640Y-58318400D03*
X71600000Y-85375000D03*
X71600000Y-82875000D03*
X129199640Y-71018400D03*
X129199640Y-68518400D03*
X125643640Y-71018400D03*
X125643640Y-68518400D03*
X84495640Y-61112400D03*
X86995640Y-61112400D03*
X122341640Y-68478400D03*
X122341640Y-70978400D03*
X87035640Y-64160400D03*
X84535640Y-64160400D03*
X72303640Y-89941400D03*
X69803640Y-89941400D03*
X119039640Y-71018400D03*
X119039640Y-68518400D03*
X101196140Y-61188600D03*
X101196140Y-63688600D03*
X53441600Y-96560640D03*
X55941600Y-96560640D03*
X101259640Y-57810400D03*
X101259640Y-55310400D03*
X68783200Y-95504000D03*
X68783200Y-93004000D03*
X133771640Y-78384400D03*
X133771640Y-80884400D03*
X93004640Y-73431400D03*
X90504640Y-73431400D03*
X86984840Y-87820500D03*
X89484840Y-87820500D03*
X116062760Y-84239100D03*
X118562760Y-84239100D03*
X98338640Y-73609200D03*
X95838640Y-73609200D03*
X96751140Y-87782400D03*
X94251140Y-87782400D03*
X132476240Y-86258400D03*
X132476240Y-88758400D03*
X99799140Y-88417400D03*
X99799140Y-90917400D03*
X135067040Y-91567000D03*
X132567040Y-91567000D03*
X80264000Y-143764000D03*
X80264000Y-146264000D03*
X83425000Y-143800000D03*
X83425000Y-146300000D03*
X99999800Y-143840200D03*
X99999800Y-146340200D03*
D15*
X63413640Y-66395600D03*
D16*
X71033640Y-66395600D03*
D15*
X53571140Y-66382900D03*
D16*
X61191140Y-66382900D03*
D17*
X60850000Y-70950000D03*
X68326000Y-70866000D03*
D18*
X101092000Y-115824000D03*
D19*
X103632000Y-115824000D03*
X106172000Y-115824000D03*
X108712000Y-115824000D03*
D13*
X139446000Y-90424000D03*
D16*
X147066000Y-90424000D03*
D13*
X73710800Y-106057700D03*
D16*
X66090800Y-106057700D03*
D13*
X104815640Y-54762400D03*
D16*
X104815640Y-62382400D03*
D13*
X53126640Y-91592400D03*
D16*
X53126640Y-83972400D03*
D13*
X133898640Y-75590400D03*
D16*
X133898640Y-67970400D03*
D13*
X84000000Y-114600000D03*
D16*
X84000000Y-106980000D03*
D13*
X87000000Y-114600000D03*
D16*
X87000000Y-106980000D03*
D13*
X138938000Y-76962000D03*
D16*
X146558000Y-76962000D03*
D13*
X138938000Y-73914000D03*
D16*
X146558000Y-73914000D03*
D13*
X79479140Y-69113400D03*
D16*
X79479140Y-76733400D03*
D13*
X76113640Y-80162400D03*
D16*
X76113640Y-72542400D03*
D13*
X58704480Y-96601280D03*
D16*
X66324480Y-96601280D03*
D13*
X82717640Y-69176900D03*
D16*
X82717640Y-76796900D03*
D13*
X80177640Y-58826400D03*
D16*
X80177640Y-66446400D03*
D13*
X76621640Y-58826400D03*
D16*
X76621640Y-66446400D03*
D13*
X55626000Y-107188000D03*
D16*
X55626000Y-99568000D03*
D13*
X79237840Y-95806260D03*
D16*
X79237840Y-103426260D03*
D13*
X114594640Y-61493400D03*
D16*
X114594640Y-53873400D03*
D13*
X113832640Y-64160400D03*
D16*
X121452640Y-64160400D03*
D13*
X97500440Y-67284600D03*
D16*
X89880440Y-67284600D03*
D13*
X83936840Y-87731600D03*
D16*
X76316840Y-87731600D03*
D13*
X118150640Y-81432400D03*
D16*
X118150640Y-73812400D03*
D13*
X102948740Y-75438000D03*
D16*
X102948740Y-67818000D03*
D13*
X89423240Y-91135200D03*
D16*
X97043240Y-91135200D03*
D13*
X118531640Y-87020400D03*
D16*
X118531640Y-94640400D03*
D13*
X99227640Y-70319900D03*
D16*
X91607640Y-70319900D03*
D13*
X86375240Y-77114400D03*
D16*
X86375240Y-84734400D03*
D13*
X115229640Y-94640400D03*
D16*
X115229640Y-87020400D03*
D13*
X109895640Y-98704400D03*
D16*
X102275640Y-98704400D03*
D13*
X111927640Y-87020400D03*
D16*
X111927640Y-94640400D03*
D13*
X109982000Y-109474000D03*
D16*
X109982000Y-101854000D03*
D13*
X111658400Y-77276960D03*
D16*
X111658400Y-84896960D03*
D13*
X108879640Y-79146400D03*
D16*
X101259640Y-79146400D03*
D13*
X101132640Y-82321400D03*
D16*
X108752640Y-82321400D03*
D15*
X90337640Y-55524400D03*
D16*
X97957640Y-63144400D03*
X90337640Y-58064400D03*
X97957640Y-60604400D03*
X90337640Y-60604400D03*
X97957640Y-58064400D03*
X90337640Y-63144400D03*
X97957640Y-55524400D03*
D15*
X128945640Y-74066400D03*
D16*
X121325640Y-81686400D03*
X126405640Y-74066400D03*
X123865640Y-81686400D03*
X123865640Y-74066400D03*
X126405640Y-81686400D03*
X121325640Y-74066400D03*
X128945640Y-81686400D03*
D15*
X97132140Y-77241400D03*
D16*
X89512140Y-84861400D03*
X94592140Y-77241400D03*
X92052140Y-84861400D03*
X92052140Y-77241400D03*
X94592140Y-84861400D03*
X89512140Y-77241400D03*
X97132140Y-84861400D03*
D15*
X129275840Y-85191600D03*
D16*
X121655840Y-92811600D03*
X126735840Y-85191600D03*
X124195840Y-92811600D03*
X124195840Y-85191600D03*
X126735840Y-92811600D03*
X121655840Y-85191600D03*
X129275840Y-92811600D03*
D20*
X71079360Y-110837980D03*
X71079360Y-115717980D03*
D21*
X53000000Y-53000000D03*
X147000000Y-53000000D03*
X53000000Y-147000000D03*
X147000000Y-147000000D03*
D20*
X66588640Y-62966640D03*
X64048640Y-62966640D03*
D22*
X61508640Y-57886640D03*
X71668640Y-57886640D03*
D20*
X130327400Y-63230800D03*
X127787400Y-63230800D03*
D22*
X125247400Y-58150800D03*
X135407400Y-58150800D03*
D13*
X86654640Y-73558400D03*
X86654640Y-71058400D03*
D15*
X117800000Y-146875000D03*
D13*
X115300000Y-146875000D03*
X135854440Y-118211600D03*
X133354440Y-118211600D03*
D18*
X134620000Y-139446000D03*
D19*
X137160000Y-139446000D03*
D23*
X146558000Y-140716000D03*
D24*
X144018000Y-140716000D03*
X141478000Y-140716000D03*
D25*
X60000000Y-102000000D03*
X60000000Y-146000000D03*
X137000000Y-102000000D03*
X137000000Y-146000000D03*
D26*
X126288800Y-140474700D03*
X126288800Y-146474700D03*
X130988800Y-143474700D03*
D18*
X53900000Y-63090000D03*
D19*
X56440000Y-63090000D03*
D13*
X125552200Y-118300500D03*
X123052200Y-118300500D03*
X123548140Y-101688900D03*
D16*
X115928140Y-101688900D03*
D13*
X123548140Y-104927400D03*
D16*
X115928140Y-104927400D03*
D13*
X129311400Y-105270300D03*
D16*
X129311400Y-97650300D03*
D13*
X126187200Y-105234740D03*
D16*
X126187200Y-97614740D03*
D13*
X133667500Y-108178600D03*
D16*
X133667500Y-115798600D03*
D13*
X136791700Y-108127800D03*
D16*
X136791700Y-115747800D03*
D13*
X63779400Y-112892840D03*
X66279400Y-112892840D03*
X66608960Y-109636560D03*
D16*
X58988960Y-109636560D03*
D13*
X77060000Y-119000000D03*
D16*
X84680000Y-119000000D03*
D13*
X71973440Y-93151960D03*
D16*
X79593440Y-93151960D03*
D13*
X108752640Y-85496400D03*
D16*
X101132640Y-85496400D03*
D13*
X113197640Y-103149400D03*
X113197640Y-100649400D03*
D18*
X86750000Y-146475000D03*
D19*
X86750000Y-143935000D03*
D13*
X89275000Y-143900000D03*
D16*
X96895000Y-143900000D03*
D13*
X55760000Y-141730000D03*
X53260000Y-141730000D03*
D18*
X64930000Y-143780000D03*
D19*
X64930000Y-141240000D03*
X64930000Y-138700000D03*
D23*
X74513440Y-146037300D03*
D24*
X71973440Y-146037300D03*
X69433440Y-146037300D03*
D13*
X110896400Y-57442100D03*
D16*
X110896400Y-65062100D03*
D13*
X107746800Y-57378600D03*
D16*
X107746800Y-64998600D03*
D13*
X111988600Y-74841100D03*
D16*
X111988600Y-67221100D03*
D13*
X115074700Y-67195700D03*
D16*
X115074700Y-74815700D03*
D18*
X58625000Y-131900000D03*
D19*
X56085000Y-131900000D03*
X58625000Y-129360000D03*
X56085000Y-129360000D03*
X58625000Y-126820000D03*
X56085000Y-126820000D03*
X58625000Y-124280000D03*
X56085000Y-124280000D03*
X58625000Y-121740000D03*
X56085000Y-121740000D03*
X58625000Y-119200000D03*
X56085000Y-119200000D03*
X58625000Y-116660000D03*
X56085000Y-116660000D03*
D13*
X84800000Y-104100000D03*
X87300000Y-104100000D03*
X90400000Y-100900000D03*
D16*
X82780000Y-100900000D03*
D13*
X90000000Y-110400000D03*
D16*
X90000000Y-118020000D03*
D13*
X93100000Y-110400000D03*
D16*
X93100000Y-118020000D03*
D13*
X98675000Y-111050000D03*
D16*
X98675000Y-103430000D03*
D13*
X101975000Y-111025000D03*
D16*
X101975000Y-103405000D03*
D27*
X143764000Y-81280000D03*
D28*
X143764000Y-86280000D03*
D27*
X142240000Y-67056000D03*
D28*
X147240000Y-67056000D03*
D13*
X133350000Y-134366000D03*
X130850000Y-134366000D03*
D18*
X53590000Y-70020000D03*
D19*
X56130000Y-70020000D03*
D13*
X56270000Y-80690000D03*
D16*
X56270000Y-73070000D03*
D13*
X53230000Y-80630000D03*
D16*
X53230000Y-73010000D03*
D13*
X143002000Y-119126000D03*
D16*
X143002000Y-111506000D03*
D13*
X139954000Y-119126000D03*
D16*
X139954000Y-111506000D03*
D13*
X146050000Y-119126000D03*
D16*
X146050000Y-111506000D03*
D29*
X142210000Y-102730000D03*
X142210000Y-100190000D03*
X144210000Y-100190000D03*
X144210000Y-102730000D03*
D30*
X146910000Y-107460000D03*
X146910000Y-95460000D03*
M02*
