G04 #@! TF.FileFunction,Soldermask,Bot*
%FSLAX46Y46*%
G04 Gerber Fmt 4.6, Leading zero omitted, Abs format (unit mm)*
G04 Created by KiCad (PCBNEW 4.0.7) date 11/09/18 09:52:30*
%MOMM*%
%LPD*%
G01*
G04 APERTURE LIST*
%ADD10C,0.100000*%
%ADD11C,1.924000*%
%ADD12C,3.400000*%
%ADD13R,2.000000X2.000000*%
%ADD14O,2.000000X2.000000*%
%ADD15C,2.000000*%
%ADD16R,2.100000X2.100000*%
%ADD17O,2.100000X2.100000*%
%ADD18C,1.900000*%
%ADD19C,4.464000*%
%ADD20C,2.500000*%
%ADD21R,3.400000X3.400000*%
%ADD22R,2.200000X2.200000*%
%ADD23O,2.200000X2.200000*%
%ADD24R,3.900000X3.900000*%
G04 APERTURE END LIST*
D10*
D11*
X69342000Y-138430000D03*
X71882000Y-138430000D03*
X74422000Y-138430000D03*
X76962000Y-138430000D03*
X79502000Y-138430000D03*
X82042000Y-138430000D03*
X84582000Y-138430000D03*
X87122000Y-138430000D03*
X89662000Y-138430000D03*
X92202000Y-138430000D03*
X94742000Y-138430000D03*
X97282000Y-138430000D03*
X99822000Y-138430000D03*
X102362000Y-138430000D03*
X104902000Y-138430000D03*
X107442000Y-138430000D03*
X109982000Y-138430000D03*
X112522000Y-138430000D03*
X115062000Y-138430000D03*
X117602000Y-138430000D03*
X69342000Y-123190000D03*
X71882000Y-123190000D03*
X74422000Y-123190000D03*
X76962000Y-123190000D03*
X79502000Y-123190000D03*
X82042000Y-123190000D03*
X84582000Y-123190000D03*
X87122000Y-123190000D03*
X89662000Y-123190000D03*
X92202000Y-123190000D03*
X94742000Y-123190000D03*
X97282000Y-123190000D03*
X99822000Y-123190000D03*
X102362000Y-123190000D03*
X104902000Y-123190000D03*
X107442000Y-123190000D03*
X109982000Y-123190000D03*
X112522000Y-123190000D03*
X115062000Y-123190000D03*
X117602000Y-123190000D03*
D12*
X72644000Y-60960000D03*
X72796400Y-67462400D03*
D13*
X65278000Y-87376000D03*
D14*
X72898000Y-87376000D03*
D13*
X72898000Y-84607400D03*
D14*
X65278000Y-84607400D03*
D15*
X108712000Y-109220000D03*
X106212000Y-109220000D03*
X79248000Y-106680000D03*
X76748000Y-106680000D03*
X142646400Y-80416400D03*
X145146400Y-80416400D03*
D13*
X143764000Y-84582000D03*
D15*
X143764000Y-87082000D03*
X143052800Y-62179200D03*
X145552800Y-62179200D03*
X83820000Y-103759000D03*
X83820000Y-106259000D03*
D13*
X143052800Y-66344800D03*
D15*
X145552800Y-66344800D03*
X92242640Y-54599840D03*
X89742640Y-54599840D03*
X92278200Y-57876440D03*
X89778200Y-57876440D03*
X93167200Y-70662800D03*
X90667200Y-70662800D03*
X93218000Y-74218800D03*
X90718000Y-74218800D03*
X76047600Y-80213200D03*
X76047600Y-77713200D03*
X75946000Y-84429600D03*
X75946000Y-86929600D03*
X90581480Y-62306200D03*
X93081480Y-62306200D03*
X90678000Y-77724000D03*
X93178000Y-77724000D03*
X73660000Y-90932000D03*
X76160000Y-90932000D03*
X93040200Y-65770760D03*
X90540200Y-65770760D03*
X92720160Y-81401920D03*
X90220160Y-81401920D03*
X75806300Y-93992700D03*
X73306300Y-93992700D03*
X107696000Y-62484000D03*
X107696000Y-59984000D03*
X107188000Y-75438000D03*
X107188000Y-77938000D03*
X107696000Y-55626000D03*
X107696000Y-53126000D03*
X107188000Y-71882000D03*
X107188000Y-69382000D03*
X90170000Y-88138000D03*
X90170000Y-90638000D03*
X92628720Y-84604860D03*
X90128720Y-84604860D03*
X114046000Y-69088000D03*
X116546000Y-69088000D03*
X122174000Y-77216000D03*
X122174000Y-74716000D03*
X100812600Y-94183200D03*
X103312600Y-94183200D03*
X118618000Y-56896000D03*
X118618000Y-59396000D03*
X117602000Y-74676000D03*
X117602000Y-77176000D03*
X114427000Y-97282000D03*
X111927000Y-97282000D03*
X122174000Y-59436000D03*
X122174000Y-56936000D03*
X117348000Y-84074000D03*
X117348000Y-81574000D03*
X80264000Y-143764000D03*
X80264000Y-146264000D03*
X86106000Y-143764000D03*
X86106000Y-146264000D03*
X99999800Y-143840200D03*
X99999800Y-146340200D03*
D13*
X65074800Y-74117200D03*
D14*
X72694800Y-74117200D03*
D13*
X72745600Y-71196200D03*
D14*
X65125600Y-71196200D03*
D12*
X78435200Y-63957200D03*
X66639440Y-67513200D03*
X66751200Y-61163200D03*
D16*
X143421100Y-96164400D03*
D17*
X145961100Y-96164400D03*
X143421100Y-98704400D03*
X145961100Y-98704400D03*
X143421100Y-101244400D03*
X145961100Y-101244400D03*
X143421100Y-103784400D03*
X145961100Y-103784400D03*
X143421100Y-106324400D03*
X145961100Y-106324400D03*
D16*
X99568000Y-114300000D03*
D17*
X102108000Y-114300000D03*
X104648000Y-114300000D03*
X107188000Y-114300000D03*
D16*
X75895200Y-74168000D03*
D17*
X75895200Y-71628000D03*
D16*
X82677000Y-74879200D03*
D17*
X85217000Y-74879200D03*
D15*
X145796000Y-76962000D03*
D14*
X138176000Y-76962000D03*
D15*
X78740000Y-103759000D03*
D14*
X71120000Y-103759000D03*
D15*
X111506000Y-54610000D03*
D14*
X111506000Y-62230000D03*
D15*
X110312200Y-69824600D03*
D14*
X110312200Y-77444600D03*
D15*
X95758000Y-85090000D03*
D14*
X103378000Y-85090000D03*
D15*
X87122000Y-114427000D03*
D14*
X87122000Y-106807000D03*
D15*
X90297000Y-114427000D03*
D14*
X90297000Y-106807000D03*
D15*
X138023600Y-73761600D03*
D14*
X145643600Y-73761600D03*
D15*
X138163300Y-70497700D03*
D14*
X145783300Y-70497700D03*
D15*
X79248000Y-78232000D03*
D14*
X86868000Y-78232000D03*
D15*
X82194400Y-68681600D03*
D14*
X82194400Y-61061600D03*
D15*
X79184500Y-71424800D03*
D14*
X86804500Y-71424800D03*
D15*
X90678000Y-100584000D03*
D14*
X83058000Y-100584000D03*
D15*
X85445600Y-60998100D03*
D14*
X85445600Y-68618100D03*
D15*
X86753700Y-54648100D03*
D14*
X79133700Y-54648100D03*
D15*
X86664800Y-57924700D03*
D14*
X79044800Y-57924700D03*
D15*
X83058000Y-97282000D03*
D14*
X90678000Y-97282000D03*
D15*
X79819500Y-100317300D03*
D14*
X72199500Y-100317300D03*
D15*
X79819500Y-97155000D03*
D14*
X72199500Y-97155000D03*
D15*
X72898000Y-77266800D03*
D14*
X65278000Y-77266800D03*
D15*
X72887840Y-80571340D03*
D14*
X65267840Y-80571340D03*
D15*
X103769160Y-65826640D03*
D14*
X96149160Y-65826640D03*
D15*
X103530400Y-81727040D03*
D14*
X95910400Y-81727040D03*
D15*
X86753700Y-93992700D03*
D14*
X79133700Y-93992700D03*
D15*
X114808000Y-62484000D03*
D14*
X114808000Y-54864000D03*
D15*
X113792000Y-79502000D03*
D14*
X113792000Y-71882000D03*
D15*
X94996000Y-89408000D03*
D14*
X102616000Y-89408000D03*
D15*
X106507280Y-65770760D03*
D14*
X114127280Y-65770760D03*
D15*
X114236500Y-82638900D03*
D14*
X106616500Y-82638900D03*
D15*
X97599500Y-94068900D03*
D14*
X89979500Y-94068900D03*
D15*
X133604000Y-59436000D03*
D14*
X125984000Y-59436000D03*
D15*
X118922800Y-94500700D03*
D14*
X118922800Y-86880700D03*
D15*
X125984000Y-56134000D03*
D14*
X133604000Y-56134000D03*
D15*
X122478800Y-86880700D03*
D14*
X122478800Y-94500700D03*
D15*
X137668000Y-63246000D03*
D14*
X130048000Y-63246000D03*
D15*
X130048000Y-66802000D03*
D14*
X137668000Y-66802000D03*
D13*
X108712000Y-98679000D03*
D14*
X93472000Y-106299000D03*
X106172000Y-98679000D03*
X96012000Y-106299000D03*
X103632000Y-98679000D03*
X98552000Y-106299000D03*
X101092000Y-98679000D03*
X101092000Y-106299000D03*
X98552000Y-98679000D03*
X103632000Y-106299000D03*
X96012000Y-98679000D03*
X106172000Y-106299000D03*
X93472000Y-98679000D03*
X108712000Y-106299000D03*
D13*
X96895920Y-54538880D03*
D14*
X104515920Y-62158880D03*
X96895920Y-57078880D03*
X104515920Y-59618880D03*
X96895920Y-59618880D03*
X104515920Y-57078880D03*
X96895920Y-62158880D03*
X104515920Y-54538880D03*
D13*
X96393000Y-70520560D03*
D14*
X104013000Y-78140560D03*
X96393000Y-73060560D03*
X104013000Y-75600560D03*
X96393000Y-75600560D03*
X104013000Y-73060560D03*
X96393000Y-78140560D03*
X104013000Y-70520560D03*
D13*
X79248000Y-83058000D03*
D14*
X86868000Y-90678000D03*
X79248000Y-85598000D03*
X86868000Y-88138000D03*
X79248000Y-88138000D03*
X86868000Y-85598000D03*
X79248000Y-90678000D03*
X86868000Y-83058000D03*
D13*
X119634000Y-63246000D03*
D14*
X127254000Y-70866000D03*
X119634000Y-65786000D03*
X127254000Y-68326000D03*
X119634000Y-68326000D03*
X127254000Y-65786000D03*
X119634000Y-70866000D03*
X127254000Y-63246000D03*
D13*
X106680000Y-86360000D03*
D14*
X114300000Y-93980000D03*
X106680000Y-88900000D03*
X114300000Y-91440000D03*
X106680000Y-91440000D03*
X114300000Y-88900000D03*
X106680000Y-93980000D03*
X114300000Y-86360000D03*
D18*
X71678800Y-109220000D03*
X71678800Y-114100000D03*
D19*
X53000000Y-53000000D03*
X147000000Y-53000000D03*
X53000000Y-147000000D03*
X147000000Y-147000000D03*
D18*
X62278300Y-68224400D03*
X62278300Y-70764400D03*
D20*
X57198300Y-73304400D03*
X57198300Y-63144400D03*
D18*
X62545000Y-89916000D03*
X62545000Y-92456000D03*
D20*
X57465000Y-94996000D03*
X57465000Y-84836000D03*
D21*
X145389600Y-137007600D03*
D12*
X145389600Y-131927600D03*
D15*
X122034300Y-84162900D03*
X122034300Y-81662900D03*
D13*
X138470640Y-137408920D03*
D15*
X138470640Y-139908920D03*
X145267680Y-114239040D03*
X142767680Y-114239040D03*
D16*
X138480800Y-133362700D03*
D17*
X138480800Y-130822700D03*
D22*
X145389600Y-123825000D03*
D23*
X145389600Y-121285000D03*
X145389600Y-118745000D03*
D16*
X55626000Y-137414000D03*
D17*
X55626000Y-134874000D03*
X55626000Y-132334000D03*
X55626000Y-129794000D03*
X55626000Y-127254000D03*
X55626000Y-124714000D03*
X55626000Y-122174000D03*
X55626000Y-119634000D03*
D19*
X60000000Y-102000000D03*
X60000000Y-146000000D03*
X137000000Y-102000000D03*
X137000000Y-146000000D03*
D15*
X145288000Y-111312960D03*
X142788000Y-111312960D03*
D24*
X126288800Y-140474700D03*
X126288800Y-146474700D03*
X130988800Y-143474700D03*
M02*
