G04 #@! TF.FileFunction,Legend,Top*
%FSLAX46Y46*%
G04 Gerber Fmt 4.6, Leading zero omitted, Abs format (unit mm)*
G04 Created by KiCad (PCBNEW 4.0.7) date 11/19/18 23:15:04*
%MOMM*%
%LPD*%
G01*
G04 APERTURE LIST*
%ADD10C,0.100000*%
%ADD11C,0.150000*%
%ADD12C,0.120000*%
%ADD13C,0.200000*%
%ADD14C,0.300000*%
G04 APERTURE END LIST*
D10*
D11*
X124304800Y-137529843D02*
X124257181Y-137577462D01*
X124114324Y-137625081D01*
X124019086Y-137625081D01*
X123876228Y-137577462D01*
X123780990Y-137482224D01*
X123733371Y-137386986D01*
X123685752Y-137196510D01*
X123685752Y-137053652D01*
X123733371Y-136863176D01*
X123780990Y-136767938D01*
X123876228Y-136672700D01*
X124019086Y-136625081D01*
X124114324Y-136625081D01*
X124257181Y-136672700D01*
X124304800Y-136720319D01*
X124733371Y-137101271D02*
X125066705Y-137101271D01*
X125209562Y-137625081D02*
X124733371Y-137625081D01*
X124733371Y-136625081D01*
X125209562Y-136625081D01*
X125638133Y-137625081D02*
X125638133Y-136625081D01*
X126209562Y-137625081D01*
X126209562Y-136625081D01*
X126542895Y-136625081D02*
X127114324Y-136625081D01*
X126828609Y-137625081D02*
X126828609Y-136625081D01*
X127447657Y-137101271D02*
X127780991Y-137101271D01*
X127923848Y-137625081D02*
X127447657Y-137625081D01*
X127447657Y-136625081D01*
X127923848Y-136625081D01*
X128923848Y-137625081D02*
X128590514Y-137148890D01*
X128352419Y-137625081D02*
X128352419Y-136625081D01*
X128733372Y-136625081D01*
X128828610Y-136672700D01*
X128876229Y-136720319D01*
X128923848Y-136815557D01*
X128923848Y-136958414D01*
X128876229Y-137053652D01*
X128828610Y-137101271D01*
X128733372Y-137148890D01*
X128352419Y-137148890D01*
X130114324Y-137244129D02*
X130876229Y-137244129D01*
X130495277Y-137625081D02*
X130495277Y-136863176D01*
X50682686Y-137536229D02*
X51444591Y-137536229D01*
X51063639Y-137917181D02*
X51063639Y-137155276D01*
X52396972Y-136917181D02*
X51920781Y-136917181D01*
X51873162Y-137393371D01*
X51920781Y-137345752D01*
X52016019Y-137298133D01*
X52254115Y-137298133D01*
X52349353Y-137345752D01*
X52396972Y-137393371D01*
X52444591Y-137488610D01*
X52444591Y-137726705D01*
X52396972Y-137821943D01*
X52349353Y-137869562D01*
X52254115Y-137917181D01*
X52016019Y-137917181D01*
X51920781Y-137869562D01*
X51873162Y-137821943D01*
X52730305Y-136917181D02*
X53063638Y-137917181D01*
X53396972Y-136917181D01*
X51439843Y-135078743D02*
X51392224Y-135126362D01*
X51249367Y-135173981D01*
X51154129Y-135173981D01*
X51011271Y-135126362D01*
X50916033Y-135031124D01*
X50868414Y-134935886D01*
X50820795Y-134745410D01*
X50820795Y-134602552D01*
X50868414Y-134412076D01*
X50916033Y-134316838D01*
X51011271Y-134221600D01*
X51154129Y-134173981D01*
X51249367Y-134173981D01*
X51392224Y-134221600D01*
X51439843Y-134269219D01*
X51820795Y-135126362D02*
X51963652Y-135173981D01*
X52201748Y-135173981D01*
X52296986Y-135126362D01*
X52344605Y-135078743D01*
X52392224Y-134983505D01*
X52392224Y-134888267D01*
X52344605Y-134793029D01*
X52296986Y-134745410D01*
X52201748Y-134697790D01*
X52011271Y-134650171D01*
X51916033Y-134602552D01*
X51868414Y-134554933D01*
X51820795Y-134459695D01*
X51820795Y-134364457D01*
X51868414Y-134269219D01*
X51916033Y-134221600D01*
X52011271Y-134173981D01*
X52249367Y-134173981D01*
X52392224Y-134221600D01*
X52725557Y-134173981D02*
X53344605Y-134173981D01*
X53011271Y-134554933D01*
X53154129Y-134554933D01*
X53249367Y-134602552D01*
X53296986Y-134650171D01*
X53344605Y-134745410D01*
X53344605Y-134983505D01*
X53296986Y-135078743D01*
X53249367Y-135126362D01*
X53154129Y-135173981D01*
X52868414Y-135173981D01*
X52773176Y-135126362D01*
X52725557Y-135078743D01*
X51490643Y-132627643D02*
X51443024Y-132675262D01*
X51300167Y-132722881D01*
X51204929Y-132722881D01*
X51062071Y-132675262D01*
X50966833Y-132580024D01*
X50919214Y-132484786D01*
X50871595Y-132294310D01*
X50871595Y-132151452D01*
X50919214Y-131960976D01*
X50966833Y-131865738D01*
X51062071Y-131770500D01*
X51204929Y-131722881D01*
X51300167Y-131722881D01*
X51443024Y-131770500D01*
X51490643Y-131818119D01*
X51871595Y-132675262D02*
X52014452Y-132722881D01*
X52252548Y-132722881D01*
X52347786Y-132675262D01*
X52395405Y-132627643D01*
X52443024Y-132532405D01*
X52443024Y-132437167D01*
X52395405Y-132341929D01*
X52347786Y-132294310D01*
X52252548Y-132246690D01*
X52062071Y-132199071D01*
X51966833Y-132151452D01*
X51919214Y-132103833D01*
X51871595Y-132008595D01*
X51871595Y-131913357D01*
X51919214Y-131818119D01*
X51966833Y-131770500D01*
X52062071Y-131722881D01*
X52300167Y-131722881D01*
X52443024Y-131770500D01*
X52823976Y-131818119D02*
X52871595Y-131770500D01*
X52966833Y-131722881D01*
X53204929Y-131722881D01*
X53300167Y-131770500D01*
X53347786Y-131818119D01*
X53395405Y-131913357D01*
X53395405Y-132008595D01*
X53347786Y-132151452D01*
X52776357Y-132722881D01*
X53395405Y-132722881D01*
X51554143Y-130113043D02*
X51506524Y-130160662D01*
X51363667Y-130208281D01*
X51268429Y-130208281D01*
X51125571Y-130160662D01*
X51030333Y-130065424D01*
X50982714Y-129970186D01*
X50935095Y-129779710D01*
X50935095Y-129636852D01*
X50982714Y-129446376D01*
X51030333Y-129351138D01*
X51125571Y-129255900D01*
X51268429Y-129208281D01*
X51363667Y-129208281D01*
X51506524Y-129255900D01*
X51554143Y-129303519D01*
X51935095Y-130160662D02*
X52077952Y-130208281D01*
X52316048Y-130208281D01*
X52411286Y-130160662D01*
X52458905Y-130113043D01*
X52506524Y-130017805D01*
X52506524Y-129922567D01*
X52458905Y-129827329D01*
X52411286Y-129779710D01*
X52316048Y-129732090D01*
X52125571Y-129684471D01*
X52030333Y-129636852D01*
X51982714Y-129589233D01*
X51935095Y-129493995D01*
X51935095Y-129398757D01*
X51982714Y-129303519D01*
X52030333Y-129255900D01*
X52125571Y-129208281D01*
X52363667Y-129208281D01*
X52506524Y-129255900D01*
X53458905Y-130208281D02*
X52887476Y-130208281D01*
X53173190Y-130208281D02*
X53173190Y-129208281D01*
X53077952Y-129351138D01*
X52982714Y-129446376D01*
X52887476Y-129493995D01*
X50396972Y-127693681D02*
X50396972Y-126693681D01*
X50730306Y-127407967D01*
X51063639Y-126693681D01*
X51063639Y-127693681D01*
X51730305Y-126693681D02*
X51920782Y-126693681D01*
X52016020Y-126741300D01*
X52111258Y-126836538D01*
X52158877Y-127027014D01*
X52158877Y-127360348D01*
X52111258Y-127550824D01*
X52016020Y-127646062D01*
X51920782Y-127693681D01*
X51730305Y-127693681D01*
X51635067Y-127646062D01*
X51539829Y-127550824D01*
X51492210Y-127360348D01*
X51492210Y-127027014D01*
X51539829Y-126836538D01*
X51635067Y-126741300D01*
X51730305Y-126693681D01*
X52539829Y-127646062D02*
X52682686Y-127693681D01*
X52920782Y-127693681D01*
X53016020Y-127646062D01*
X53063639Y-127598443D01*
X53111258Y-127503205D01*
X53111258Y-127407967D01*
X53063639Y-127312729D01*
X53016020Y-127265110D01*
X52920782Y-127217490D01*
X52730305Y-127169871D01*
X52635067Y-127122252D01*
X52587448Y-127074633D01*
X52539829Y-126979395D01*
X52539829Y-126884157D01*
X52587448Y-126788919D01*
X52635067Y-126741300D01*
X52730305Y-126693681D01*
X52968401Y-126693681D01*
X53111258Y-126741300D01*
X53539829Y-127693681D02*
X53539829Y-126693681D01*
X50447772Y-125179081D02*
X50447772Y-124179081D01*
X50781106Y-124893367D01*
X51114439Y-124179081D01*
X51114439Y-125179081D01*
X51590629Y-125179081D02*
X51590629Y-124179081D01*
X52019200Y-125131462D02*
X52162057Y-125179081D01*
X52400153Y-125179081D01*
X52495391Y-125131462D01*
X52543010Y-125083843D01*
X52590629Y-124988605D01*
X52590629Y-124893367D01*
X52543010Y-124798129D01*
X52495391Y-124750510D01*
X52400153Y-124702890D01*
X52209676Y-124655271D01*
X52114438Y-124607652D01*
X52066819Y-124560033D01*
X52019200Y-124464795D01*
X52019200Y-124369557D01*
X52066819Y-124274319D01*
X52114438Y-124226700D01*
X52209676Y-124179081D01*
X52447772Y-124179081D01*
X52590629Y-124226700D01*
X53209676Y-124179081D02*
X53400153Y-124179081D01*
X53495391Y-124226700D01*
X53590629Y-124321938D01*
X53638248Y-124512414D01*
X53638248Y-124845748D01*
X53590629Y-125036224D01*
X53495391Y-125131462D01*
X53400153Y-125179081D01*
X53209676Y-125179081D01*
X53114438Y-125131462D01*
X53019200Y-125036224D01*
X52971581Y-124845748D01*
X52971581Y-124512414D01*
X53019200Y-124321938D01*
X53114438Y-124226700D01*
X53209676Y-124179081D01*
X51714496Y-119032400D02*
X51619258Y-118984781D01*
X51476401Y-118984781D01*
X51333543Y-119032400D01*
X51238305Y-119127638D01*
X51190686Y-119222876D01*
X51143067Y-119413352D01*
X51143067Y-119556210D01*
X51190686Y-119746686D01*
X51238305Y-119841924D01*
X51333543Y-119937162D01*
X51476401Y-119984781D01*
X51571639Y-119984781D01*
X51714496Y-119937162D01*
X51762115Y-119889543D01*
X51762115Y-119556210D01*
X51571639Y-119556210D01*
X52190686Y-119984781D02*
X52190686Y-118984781D01*
X52762115Y-119984781D01*
X52762115Y-118984781D01*
X53238305Y-119984781D02*
X53238305Y-118984781D01*
X53476400Y-118984781D01*
X53619258Y-119032400D01*
X53714496Y-119127638D01*
X53762115Y-119222876D01*
X53809734Y-119413352D01*
X53809734Y-119556210D01*
X53762115Y-119746686D01*
X53714496Y-119841924D01*
X53619258Y-119937162D01*
X53476400Y-119984781D01*
X53238305Y-119984781D01*
X51012886Y-122553362D02*
X51155743Y-122600981D01*
X51393839Y-122600981D01*
X51489077Y-122553362D01*
X51536696Y-122505743D01*
X51584315Y-122410505D01*
X51584315Y-122315267D01*
X51536696Y-122220029D01*
X51489077Y-122172410D01*
X51393839Y-122124790D01*
X51203362Y-122077171D01*
X51108124Y-122029552D01*
X51060505Y-121981933D01*
X51012886Y-121886695D01*
X51012886Y-121791457D01*
X51060505Y-121696219D01*
X51108124Y-121648600D01*
X51203362Y-121600981D01*
X51441458Y-121600981D01*
X51584315Y-121648600D01*
X52584315Y-122505743D02*
X52536696Y-122553362D01*
X52393839Y-122600981D01*
X52298601Y-122600981D01*
X52155743Y-122553362D01*
X52060505Y-122458124D01*
X52012886Y-122362886D01*
X51965267Y-122172410D01*
X51965267Y-122029552D01*
X52012886Y-121839076D01*
X52060505Y-121743838D01*
X52155743Y-121648600D01*
X52298601Y-121600981D01*
X52393839Y-121600981D01*
X52536696Y-121648600D01*
X52584315Y-121696219D01*
X53012886Y-122600981D02*
X53012886Y-121600981D01*
X53584315Y-122600981D02*
X53155743Y-122029552D01*
X53584315Y-121600981D02*
X53012886Y-122172410D01*
X142509501Y-124472746D02*
X142509501Y-124948937D01*
X141509501Y-124948937D01*
X142509501Y-124139413D02*
X141509501Y-124139413D01*
X142223787Y-123806079D01*
X141509501Y-123472746D01*
X142509501Y-123472746D01*
X141509501Y-123091794D02*
X141509501Y-122425127D01*
X142509501Y-122853699D01*
X141938072Y-121901318D02*
X141890453Y-121996556D01*
X141842834Y-122044175D01*
X141747596Y-122091794D01*
X141699977Y-122091794D01*
X141604739Y-122044175D01*
X141557120Y-121996556D01*
X141509501Y-121901318D01*
X141509501Y-121710841D01*
X141557120Y-121615603D01*
X141604739Y-121567984D01*
X141699977Y-121520365D01*
X141747596Y-121520365D01*
X141842834Y-121567984D01*
X141890453Y-121615603D01*
X141938072Y-121710841D01*
X141938072Y-121901318D01*
X141985691Y-121996556D01*
X142033310Y-122044175D01*
X142128549Y-122091794D01*
X142319025Y-122091794D01*
X142414263Y-122044175D01*
X142461882Y-121996556D01*
X142509501Y-121901318D01*
X142509501Y-121710841D01*
X142461882Y-121615603D01*
X142414263Y-121567984D01*
X142319025Y-121520365D01*
X142128549Y-121520365D01*
X142033310Y-121567984D01*
X141985691Y-121615603D01*
X141938072Y-121710841D01*
X141509501Y-120901318D02*
X141509501Y-120806079D01*
X141557120Y-120710841D01*
X141604739Y-120663222D01*
X141699977Y-120615603D01*
X141890453Y-120567984D01*
X142128549Y-120567984D01*
X142319025Y-120615603D01*
X142414263Y-120663222D01*
X142461882Y-120710841D01*
X142509501Y-120806079D01*
X142509501Y-120901318D01*
X142461882Y-120996556D01*
X142414263Y-121044175D01*
X142319025Y-121091794D01*
X142128549Y-121139413D01*
X141890453Y-121139413D01*
X141699977Y-121091794D01*
X141604739Y-121044175D01*
X141557120Y-120996556D01*
X141509501Y-120901318D01*
X141509501Y-119663222D02*
X141509501Y-120139413D01*
X141985691Y-120187032D01*
X141938072Y-120139413D01*
X141890453Y-120044175D01*
X141890453Y-119806079D01*
X141938072Y-119710841D01*
X141985691Y-119663222D01*
X142080930Y-119615603D01*
X142319025Y-119615603D01*
X142414263Y-119663222D01*
X142461882Y-119710841D01*
X142509501Y-119806079D01*
X142509501Y-120044175D01*
X142461882Y-120139413D01*
X142414263Y-120187032D01*
X52162390Y-81313281D02*
X52162390Y-80313281D01*
X52543343Y-80313281D01*
X52638581Y-80360900D01*
X52686200Y-80408519D01*
X52733819Y-80503757D01*
X52733819Y-80646614D01*
X52686200Y-80741852D01*
X52638581Y-80789471D01*
X52543343Y-80837090D01*
X52162390Y-80837090D01*
X53352866Y-80313281D02*
X53543343Y-80313281D01*
X53638581Y-80360900D01*
X53733819Y-80456138D01*
X53781438Y-80646614D01*
X53781438Y-80979948D01*
X53733819Y-81170424D01*
X53638581Y-81265662D01*
X53543343Y-81313281D01*
X53352866Y-81313281D01*
X53257628Y-81265662D01*
X53162390Y-81170424D01*
X53114771Y-80979948D01*
X53114771Y-80646614D01*
X53162390Y-80456138D01*
X53257628Y-80360900D01*
X53352866Y-80313281D01*
X54781438Y-81313281D02*
X54448104Y-80837090D01*
X54210009Y-81313281D02*
X54210009Y-80313281D01*
X54590962Y-80313281D01*
X54686200Y-80360900D01*
X54733819Y-80408519D01*
X54781438Y-80503757D01*
X54781438Y-80646614D01*
X54733819Y-80741852D01*
X54686200Y-80789471D01*
X54590962Y-80837090D01*
X54210009Y-80837090D01*
X55067152Y-80313281D02*
X55638581Y-80313281D01*
X55352866Y-81313281D02*
X55352866Y-80313281D01*
X56686200Y-80408519D02*
X56733819Y-80360900D01*
X56829057Y-80313281D01*
X57067153Y-80313281D01*
X57162391Y-80360900D01*
X57210010Y-80408519D01*
X57257629Y-80503757D01*
X57257629Y-80598995D01*
X57210010Y-80741852D01*
X56638581Y-81313281D01*
X57257629Y-81313281D01*
X52251290Y-78303381D02*
X52251290Y-77303381D01*
X52632243Y-77303381D01*
X52727481Y-77351000D01*
X52775100Y-77398619D01*
X52822719Y-77493857D01*
X52822719Y-77636714D01*
X52775100Y-77731952D01*
X52727481Y-77779571D01*
X52632243Y-77827190D01*
X52251290Y-77827190D01*
X53441766Y-77303381D02*
X53632243Y-77303381D01*
X53727481Y-77351000D01*
X53822719Y-77446238D01*
X53870338Y-77636714D01*
X53870338Y-77970048D01*
X53822719Y-78160524D01*
X53727481Y-78255762D01*
X53632243Y-78303381D01*
X53441766Y-78303381D01*
X53346528Y-78255762D01*
X53251290Y-78160524D01*
X53203671Y-77970048D01*
X53203671Y-77636714D01*
X53251290Y-77446238D01*
X53346528Y-77351000D01*
X53441766Y-77303381D01*
X54870338Y-78303381D02*
X54537004Y-77827190D01*
X54298909Y-78303381D02*
X54298909Y-77303381D01*
X54679862Y-77303381D01*
X54775100Y-77351000D01*
X54822719Y-77398619D01*
X54870338Y-77493857D01*
X54870338Y-77636714D01*
X54822719Y-77731952D01*
X54775100Y-77779571D01*
X54679862Y-77827190D01*
X54298909Y-77827190D01*
X55156052Y-77303381D02*
X55727481Y-77303381D01*
X55441766Y-78303381D02*
X55441766Y-77303381D01*
X57346529Y-78303381D02*
X56775100Y-78303381D01*
X57060814Y-78303381D02*
X57060814Y-77303381D01*
X56965576Y-77446238D01*
X56870338Y-77541476D01*
X56775100Y-77589095D01*
X101941334Y-117546381D02*
X101608000Y-117070190D01*
X101369905Y-117546381D02*
X101369905Y-116546381D01*
X101750858Y-116546381D01*
X101846096Y-116594000D01*
X101893715Y-116641619D01*
X101941334Y-116736857D01*
X101941334Y-116879714D01*
X101893715Y-116974952D01*
X101846096Y-117022571D01*
X101750858Y-117070190D01*
X101369905Y-117070190D01*
X102274667Y-116546381D02*
X102941334Y-117546381D01*
X102941334Y-116546381D02*
X102274667Y-117546381D01*
X103759095Y-116546381D02*
X104330524Y-116546381D01*
X104044809Y-117546381D02*
X104044809Y-116546381D01*
X104568619Y-116546381D02*
X105235286Y-117546381D01*
X105235286Y-116546381D02*
X104568619Y-117546381D01*
X97774286Y-117165429D02*
X98536191Y-117165429D01*
X98155239Y-117546381D02*
X98155239Y-116784476D01*
X99488572Y-116546381D02*
X99012381Y-116546381D01*
X98964762Y-117022571D01*
X99012381Y-116974952D01*
X99107619Y-116927333D01*
X99345715Y-116927333D01*
X99440953Y-116974952D01*
X99488572Y-117022571D01*
X99536191Y-117117810D01*
X99536191Y-117355905D01*
X99488572Y-117451143D01*
X99440953Y-117498762D01*
X99345715Y-117546381D01*
X99107619Y-117546381D01*
X99012381Y-117498762D01*
X98964762Y-117451143D01*
X99821905Y-116546381D02*
X100155238Y-117546381D01*
X100488572Y-116546381D01*
X106558176Y-116690520D02*
X106462938Y-116642901D01*
X106320081Y-116642901D01*
X106177223Y-116690520D01*
X106081985Y-116785758D01*
X106034366Y-116880996D01*
X105986747Y-117071472D01*
X105986747Y-117214330D01*
X106034366Y-117404806D01*
X106081985Y-117500044D01*
X106177223Y-117595282D01*
X106320081Y-117642901D01*
X106415319Y-117642901D01*
X106558176Y-117595282D01*
X106605795Y-117547663D01*
X106605795Y-117214330D01*
X106415319Y-117214330D01*
X107034366Y-117642901D02*
X107034366Y-116642901D01*
X107605795Y-117642901D01*
X107605795Y-116642901D01*
X108081985Y-117642901D02*
X108081985Y-116642901D01*
X108320080Y-116642901D01*
X108462938Y-116690520D01*
X108558176Y-116785758D01*
X108605795Y-116880996D01*
X108653414Y-117071472D01*
X108653414Y-117214330D01*
X108605795Y-117404806D01*
X108558176Y-117500044D01*
X108462938Y-117595282D01*
X108320080Y-117642901D01*
X108081985Y-117642901D01*
X75215715Y-108719881D02*
X74644286Y-108719881D01*
X74930000Y-108719881D02*
X74930000Y-107719881D01*
X74834762Y-107862738D01*
X74739524Y-107957976D01*
X74644286Y-108005595D01*
X75324057Y-117600362D02*
X75466914Y-117647981D01*
X75705010Y-117647981D01*
X75800248Y-117600362D01*
X75847867Y-117552743D01*
X75895486Y-117457505D01*
X75895486Y-117362267D01*
X75847867Y-117267029D01*
X75800248Y-117219410D01*
X75705010Y-117171790D01*
X75514533Y-117124171D01*
X75419295Y-117076552D01*
X75371676Y-117028933D01*
X75324057Y-116933695D01*
X75324057Y-116838457D01*
X75371676Y-116743219D01*
X75419295Y-116695600D01*
X75514533Y-116647981D01*
X75752629Y-116647981D01*
X75895486Y-116695600D01*
X76324057Y-117647981D02*
X76324057Y-116647981D01*
X77276438Y-116647981D02*
X76800247Y-116647981D01*
X76752628Y-117124171D01*
X76800247Y-117076552D01*
X76895485Y-117028933D01*
X77133581Y-117028933D01*
X77228819Y-117076552D01*
X77276438Y-117124171D01*
X77324057Y-117219410D01*
X77324057Y-117457505D01*
X77276438Y-117552743D01*
X77228819Y-117600362D01*
X77133581Y-117647981D01*
X76895485Y-117647981D01*
X76800247Y-117600362D01*
X76752628Y-117552743D01*
X77657390Y-116647981D02*
X78276438Y-116647981D01*
X77943104Y-117028933D01*
X78085962Y-117028933D01*
X78181200Y-117076552D01*
X78228819Y-117124171D01*
X78276438Y-117219410D01*
X78276438Y-117457505D01*
X78228819Y-117552743D01*
X78181200Y-117600362D01*
X78085962Y-117647981D01*
X77800247Y-117647981D01*
X77705009Y-117600362D01*
X77657390Y-117552743D01*
X79181200Y-116647981D02*
X78705009Y-116647981D01*
X78657390Y-117124171D01*
X78705009Y-117076552D01*
X78800247Y-117028933D01*
X79038343Y-117028933D01*
X79133581Y-117076552D01*
X79181200Y-117124171D01*
X79228819Y-117219410D01*
X79228819Y-117457505D01*
X79181200Y-117552743D01*
X79133581Y-117600362D01*
X79038343Y-117647981D01*
X78800247Y-117647981D01*
X78705009Y-117600362D01*
X78657390Y-117552743D01*
X80181200Y-117647981D02*
X79609771Y-117647981D01*
X79895485Y-117647981D02*
X79895485Y-116647981D01*
X79800247Y-116790838D01*
X79705009Y-116886076D01*
X79609771Y-116933695D01*
X80562152Y-117362267D02*
X81038343Y-117362267D01*
X80466914Y-117647981D02*
X80800247Y-116647981D01*
X81133581Y-117647981D01*
X136797091Y-90137171D02*
X136939948Y-90184790D01*
X136987567Y-90232410D01*
X137035186Y-90327648D01*
X137035186Y-90470505D01*
X136987567Y-90565743D01*
X136939948Y-90613362D01*
X136844710Y-90660981D01*
X136463757Y-90660981D01*
X136463757Y-89660981D01*
X136797091Y-89660981D01*
X136892329Y-89708600D01*
X136939948Y-89756219D01*
X136987567Y-89851457D01*
X136987567Y-89946695D01*
X136939948Y-90041933D01*
X136892329Y-90089552D01*
X136797091Y-90137171D01*
X136463757Y-90137171D01*
X137416138Y-90375267D02*
X137892329Y-90375267D01*
X137320900Y-90660981D02*
X137654233Y-89660981D01*
X137987567Y-90660981D01*
X138273281Y-90613362D02*
X138416138Y-90660981D01*
X138654234Y-90660981D01*
X138749472Y-90613362D01*
X138797091Y-90565743D01*
X138844710Y-90470505D01*
X138844710Y-90375267D01*
X138797091Y-90280029D01*
X138749472Y-90232410D01*
X138654234Y-90184790D01*
X138463757Y-90137171D01*
X138368519Y-90089552D01*
X138320900Y-90041933D01*
X138273281Y-89946695D01*
X138273281Y-89851457D01*
X138320900Y-89756219D01*
X138368519Y-89708600D01*
X138463757Y-89660981D01*
X138701853Y-89660981D01*
X138844710Y-89708600D01*
X139273281Y-90660981D02*
X139273281Y-89660981D01*
X140320900Y-90565743D02*
X140273281Y-90613362D01*
X140130424Y-90660981D01*
X140035186Y-90660981D01*
X139892328Y-90613362D01*
X139797090Y-90518124D01*
X139749471Y-90422886D01*
X139701852Y-90232410D01*
X139701852Y-90089552D01*
X139749471Y-89899076D01*
X139797090Y-89803838D01*
X139892328Y-89708600D01*
X140035186Y-89660981D01*
X140130424Y-89660981D01*
X140273281Y-89708600D01*
X140320900Y-89756219D01*
X141368519Y-89660981D02*
X141701852Y-90660981D01*
X142035186Y-89660981D01*
X142368519Y-90660981D02*
X142368519Y-89660981D01*
X142939948Y-90660981D01*
X142939948Y-89660981D01*
X143368519Y-90375267D02*
X143844710Y-90375267D01*
X143273281Y-90660981D02*
X143606614Y-89660981D01*
X143939948Y-90660981D01*
X145368520Y-90137171D02*
X145511377Y-90184790D01*
X145558996Y-90232410D01*
X145606615Y-90327648D01*
X145606615Y-90470505D01*
X145558996Y-90565743D01*
X145511377Y-90613362D01*
X145416139Y-90660981D01*
X145035186Y-90660981D01*
X145035186Y-89660981D01*
X145368520Y-89660981D01*
X145463758Y-89708600D01*
X145511377Y-89756219D01*
X145558996Y-89851457D01*
X145558996Y-89946695D01*
X145511377Y-90041933D01*
X145463758Y-90089552D01*
X145368520Y-90137171D01*
X145035186Y-90137171D01*
X146225662Y-90184790D02*
X146225662Y-90660981D01*
X145892329Y-89660981D02*
X146225662Y-90184790D01*
X146558996Y-89660981D01*
X136154233Y-92310981D02*
X136154233Y-91310981D01*
X136392328Y-91310981D01*
X136535186Y-91358600D01*
X136630424Y-91453838D01*
X136678043Y-91549076D01*
X136725662Y-91739552D01*
X136725662Y-91882410D01*
X136678043Y-92072886D01*
X136630424Y-92168124D01*
X136535186Y-92263362D01*
X136392328Y-92310981D01*
X136154233Y-92310981D01*
X137916138Y-92310981D02*
X137916138Y-91310981D01*
X138249472Y-92025267D01*
X138582805Y-91310981D01*
X138582805Y-92310981D01*
X139011376Y-92025267D02*
X139487567Y-92025267D01*
X138916138Y-92310981D02*
X139249471Y-91310981D01*
X139582805Y-92310981D01*
X140487567Y-92310981D02*
X140154233Y-91834790D01*
X139916138Y-92310981D02*
X139916138Y-91310981D01*
X140297091Y-91310981D01*
X140392329Y-91358600D01*
X140439948Y-91406219D01*
X140487567Y-91501457D01*
X140487567Y-91644314D01*
X140439948Y-91739552D01*
X140392329Y-91787171D01*
X140297091Y-91834790D01*
X139916138Y-91834790D01*
X140916138Y-92310981D02*
X140916138Y-91310981D01*
X141487567Y-92310981D02*
X141058995Y-91739552D01*
X141487567Y-91310981D02*
X140916138Y-91882410D01*
X141868519Y-92263362D02*
X142011376Y-92310981D01*
X142249472Y-92310981D01*
X142344710Y-92263362D01*
X142392329Y-92215743D01*
X142439948Y-92120505D01*
X142439948Y-92025267D01*
X142392329Y-91930029D01*
X142344710Y-91882410D01*
X142249472Y-91834790D01*
X142058995Y-91787171D01*
X141963757Y-91739552D01*
X141916138Y-91691933D01*
X141868519Y-91596695D01*
X141868519Y-91501457D01*
X141916138Y-91406219D01*
X141963757Y-91358600D01*
X142058995Y-91310981D01*
X142297091Y-91310981D01*
X142439948Y-91358600D01*
X143630424Y-92310981D02*
X143630424Y-91310981D01*
X144201853Y-92310981D02*
X143773281Y-91739552D01*
X144201853Y-91310981D02*
X143630424Y-91882410D01*
X144535186Y-91310981D02*
X144773281Y-92310981D01*
X144963758Y-91596695D01*
X145154234Y-92310981D01*
X145392329Y-91310981D01*
X146201853Y-91644314D02*
X146201853Y-92310981D01*
X145963757Y-91263362D02*
X145725662Y-91977648D01*
X146344710Y-91977648D01*
X146582805Y-91310981D02*
X147154234Y-91310981D01*
X146868519Y-92310981D02*
X146868519Y-91310981D01*
X147487567Y-92310981D02*
X147487567Y-91310981D01*
X148712229Y-128419124D02*
X148712229Y-127657219D01*
X149093181Y-128038171D02*
X148331276Y-128038171D01*
X148093181Y-127323886D02*
X149093181Y-126990553D01*
X148093181Y-126657219D01*
X148445600Y-142239904D02*
X148397981Y-142335142D01*
X148397981Y-142477999D01*
X148445600Y-142620857D01*
X148540838Y-142716095D01*
X148636076Y-142763714D01*
X148826552Y-142811333D01*
X148969410Y-142811333D01*
X149159886Y-142763714D01*
X149255124Y-142716095D01*
X149350362Y-142620857D01*
X149397981Y-142477999D01*
X149397981Y-142382761D01*
X149350362Y-142239904D01*
X149302743Y-142192285D01*
X148969410Y-142192285D01*
X148969410Y-142382761D01*
X149397981Y-141763714D02*
X148397981Y-141763714D01*
X149397981Y-141192285D01*
X148397981Y-141192285D01*
X149397981Y-140716095D02*
X148397981Y-140716095D01*
X148397981Y-140478000D01*
X148445600Y-140335142D01*
X148540838Y-140239904D01*
X148636076Y-140192285D01*
X148826552Y-140144666D01*
X148969410Y-140144666D01*
X149159886Y-140192285D01*
X149255124Y-140239904D01*
X149350362Y-140335142D01*
X149397981Y-140478000D01*
X149397981Y-140716095D01*
X120910244Y-112407961D02*
X120434053Y-112407961D01*
X120434053Y-111407961D01*
X121243577Y-112407961D02*
X121243577Y-111407961D01*
X121576911Y-112122247D01*
X121910244Y-111407961D01*
X121910244Y-112407961D01*
X122291196Y-111407961D02*
X122910244Y-111407961D01*
X122576910Y-111788913D01*
X122719768Y-111788913D01*
X122815006Y-111836532D01*
X122862625Y-111884151D01*
X122910244Y-111979390D01*
X122910244Y-112217485D01*
X122862625Y-112312723D01*
X122815006Y-112360342D01*
X122719768Y-112407961D01*
X122434053Y-112407961D01*
X122338815Y-112360342D01*
X122291196Y-112312723D01*
X123243577Y-111407961D02*
X123862625Y-111407961D01*
X123529291Y-111788913D01*
X123672149Y-111788913D01*
X123767387Y-111836532D01*
X123815006Y-111884151D01*
X123862625Y-111979390D01*
X123862625Y-112217485D01*
X123815006Y-112312723D01*
X123767387Y-112360342D01*
X123672149Y-112407961D01*
X123386434Y-112407961D01*
X123291196Y-112360342D01*
X123243577Y-112312723D01*
X124338815Y-112407961D02*
X124529291Y-112407961D01*
X124624530Y-112360342D01*
X124672149Y-112312723D01*
X124767387Y-112169866D01*
X124815006Y-111979390D01*
X124815006Y-111598437D01*
X124767387Y-111503199D01*
X124719768Y-111455580D01*
X124624530Y-111407961D01*
X124434053Y-111407961D01*
X124338815Y-111455580D01*
X124291196Y-111503199D01*
X124243577Y-111598437D01*
X124243577Y-111836532D01*
X124291196Y-111931770D01*
X124338815Y-111979390D01*
X124434053Y-112027009D01*
X124624530Y-112027009D01*
X124719768Y-111979390D01*
X124767387Y-111931770D01*
X124815006Y-111836532D01*
X109942381Y-94067048D02*
X109942381Y-93495619D01*
X110942381Y-93781334D02*
X109942381Y-93781334D01*
X110942381Y-92686095D02*
X110942381Y-93162286D01*
X109942381Y-93162286D01*
X109942381Y-92162286D02*
X109942381Y-92067047D01*
X109990000Y-91971809D01*
X110037619Y-91924190D01*
X110132857Y-91876571D01*
X110323333Y-91828952D01*
X110561429Y-91828952D01*
X110751905Y-91876571D01*
X110847143Y-91924190D01*
X110894762Y-91971809D01*
X110942381Y-92067047D01*
X110942381Y-92162286D01*
X110894762Y-92257524D01*
X110847143Y-92305143D01*
X110751905Y-92352762D01*
X110561429Y-92400381D01*
X110323333Y-92400381D01*
X110132857Y-92352762D01*
X110037619Y-92305143D01*
X109990000Y-92257524D01*
X109942381Y-92162286D01*
X110370952Y-91257524D02*
X110323333Y-91352762D01*
X110275714Y-91400381D01*
X110180476Y-91448000D01*
X110132857Y-91448000D01*
X110037619Y-91400381D01*
X109990000Y-91352762D01*
X109942381Y-91257524D01*
X109942381Y-91067047D01*
X109990000Y-90971809D01*
X110037619Y-90924190D01*
X110132857Y-90876571D01*
X110180476Y-90876571D01*
X110275714Y-90924190D01*
X110323333Y-90971809D01*
X110370952Y-91067047D01*
X110370952Y-91257524D01*
X110418571Y-91352762D01*
X110466190Y-91400381D01*
X110561429Y-91448000D01*
X110751905Y-91448000D01*
X110847143Y-91400381D01*
X110894762Y-91352762D01*
X110942381Y-91257524D01*
X110942381Y-91067047D01*
X110894762Y-90971809D01*
X110847143Y-90924190D01*
X110751905Y-90876571D01*
X110561429Y-90876571D01*
X110466190Y-90924190D01*
X110418571Y-90971809D01*
X110370952Y-91067047D01*
X110037619Y-90495619D02*
X109990000Y-90448000D01*
X109942381Y-90352762D01*
X109942381Y-90114666D01*
X109990000Y-90019428D01*
X110037619Y-89971809D01*
X110132857Y-89924190D01*
X110228095Y-89924190D01*
X110370952Y-89971809D01*
X110942381Y-90543238D01*
X110942381Y-89924190D01*
X83510381Y-90558667D02*
X82510381Y-90558667D01*
X83510381Y-89987238D01*
X82510381Y-89987238D01*
X82986571Y-89511048D02*
X82986571Y-89177714D01*
X83510381Y-89034857D02*
X83510381Y-89511048D01*
X82510381Y-89511048D01*
X82510381Y-89034857D01*
X82510381Y-88177714D02*
X82510381Y-88368191D01*
X82558000Y-88463429D01*
X82605619Y-88511048D01*
X82748476Y-88606286D01*
X82938952Y-88653905D01*
X83319905Y-88653905D01*
X83415143Y-88606286D01*
X83462762Y-88558667D01*
X83510381Y-88463429D01*
X83510381Y-88272952D01*
X83462762Y-88177714D01*
X83415143Y-88130095D01*
X83319905Y-88082476D01*
X83081810Y-88082476D01*
X82986571Y-88130095D01*
X82938952Y-88177714D01*
X82891333Y-88272952D01*
X82891333Y-88463429D01*
X82938952Y-88558667D01*
X82986571Y-88606286D01*
X83081810Y-88653905D01*
X83510381Y-87130095D02*
X83510381Y-87701524D01*
X83510381Y-87415810D02*
X82510381Y-87415810D01*
X82653238Y-87511048D01*
X82748476Y-87606286D01*
X82796095Y-87701524D01*
X82605619Y-86749143D02*
X82558000Y-86701524D01*
X82510381Y-86606286D01*
X82510381Y-86368190D01*
X82558000Y-86272952D01*
X82605619Y-86225333D01*
X82700857Y-86177714D01*
X82796095Y-86177714D01*
X82938952Y-86225333D01*
X83510381Y-86796762D01*
X83510381Y-86177714D01*
X100960181Y-76398167D02*
X99960181Y-76398167D01*
X100960181Y-75826738D01*
X99960181Y-75826738D01*
X100436371Y-75350548D02*
X100436371Y-75017214D01*
X100960181Y-74874357D02*
X100960181Y-75350548D01*
X99960181Y-75350548D01*
X99960181Y-74874357D01*
X99960181Y-74017214D02*
X99960181Y-74207691D01*
X100007800Y-74302929D01*
X100055419Y-74350548D01*
X100198276Y-74445786D01*
X100388752Y-74493405D01*
X100769705Y-74493405D01*
X100864943Y-74445786D01*
X100912562Y-74398167D01*
X100960181Y-74302929D01*
X100960181Y-74112452D01*
X100912562Y-74017214D01*
X100864943Y-73969595D01*
X100769705Y-73921976D01*
X100531610Y-73921976D01*
X100436371Y-73969595D01*
X100388752Y-74017214D01*
X100341133Y-74112452D01*
X100341133Y-74302929D01*
X100388752Y-74398167D01*
X100436371Y-74445786D01*
X100531610Y-74493405D01*
X100960181Y-72969595D02*
X100960181Y-73541024D01*
X100960181Y-73255310D02*
X99960181Y-73255310D01*
X100103038Y-73350548D01*
X100198276Y-73445786D01*
X100245895Y-73541024D01*
X100055419Y-72588643D02*
X100007800Y-72541024D01*
X99960181Y-72445786D01*
X99960181Y-72207690D01*
X100007800Y-72112452D01*
X100055419Y-72064833D01*
X100150657Y-72017214D01*
X100245895Y-72017214D01*
X100388752Y-72064833D01*
X100960181Y-72636262D01*
X100960181Y-72017214D01*
X101290381Y-61856667D02*
X100290381Y-61856667D01*
X101290381Y-61285238D01*
X100290381Y-61285238D01*
X100766571Y-60809048D02*
X100766571Y-60475714D01*
X101290381Y-60332857D02*
X101290381Y-60809048D01*
X100290381Y-60809048D01*
X100290381Y-60332857D01*
X100290381Y-59475714D02*
X100290381Y-59666191D01*
X100338000Y-59761429D01*
X100385619Y-59809048D01*
X100528476Y-59904286D01*
X100718952Y-59951905D01*
X101099905Y-59951905D01*
X101195143Y-59904286D01*
X101242762Y-59856667D01*
X101290381Y-59761429D01*
X101290381Y-59570952D01*
X101242762Y-59475714D01*
X101195143Y-59428095D01*
X101099905Y-59380476D01*
X100861810Y-59380476D01*
X100766571Y-59428095D01*
X100718952Y-59475714D01*
X100671333Y-59570952D01*
X100671333Y-59761429D01*
X100718952Y-59856667D01*
X100766571Y-59904286D01*
X100861810Y-59951905D01*
X101290381Y-58428095D02*
X101290381Y-58999524D01*
X101290381Y-58713810D02*
X100290381Y-58713810D01*
X100433238Y-58809048D01*
X100528476Y-58904286D01*
X100576095Y-58999524D01*
X100385619Y-58047143D02*
X100338000Y-57999524D01*
X100290381Y-57904286D01*
X100290381Y-57666190D01*
X100338000Y-57570952D01*
X100385619Y-57523333D01*
X100480857Y-57475714D01*
X100576095Y-57475714D01*
X100718952Y-57523333D01*
X101290381Y-58094762D01*
X101290381Y-57475714D01*
X122845581Y-71156248D02*
X122845581Y-70584819D01*
X123845581Y-70870534D02*
X122845581Y-70870534D01*
X123845581Y-69775295D02*
X123845581Y-70251486D01*
X122845581Y-70251486D01*
X122845581Y-69251486D02*
X122845581Y-69156247D01*
X122893200Y-69061009D01*
X122940819Y-69013390D01*
X123036057Y-68965771D01*
X123226533Y-68918152D01*
X123464629Y-68918152D01*
X123655105Y-68965771D01*
X123750343Y-69013390D01*
X123797962Y-69061009D01*
X123845581Y-69156247D01*
X123845581Y-69251486D01*
X123797962Y-69346724D01*
X123750343Y-69394343D01*
X123655105Y-69441962D01*
X123464629Y-69489581D01*
X123226533Y-69489581D01*
X123036057Y-69441962D01*
X122940819Y-69394343D01*
X122893200Y-69346724D01*
X122845581Y-69251486D01*
X123274152Y-68346724D02*
X123226533Y-68441962D01*
X123178914Y-68489581D01*
X123083676Y-68537200D01*
X123036057Y-68537200D01*
X122940819Y-68489581D01*
X122893200Y-68441962D01*
X122845581Y-68346724D01*
X122845581Y-68156247D01*
X122893200Y-68061009D01*
X122940819Y-68013390D01*
X123036057Y-67965771D01*
X123083676Y-67965771D01*
X123178914Y-68013390D01*
X123226533Y-68061009D01*
X123274152Y-68156247D01*
X123274152Y-68346724D01*
X123321771Y-68441962D01*
X123369390Y-68489581D01*
X123464629Y-68537200D01*
X123655105Y-68537200D01*
X123750343Y-68489581D01*
X123797962Y-68441962D01*
X123845581Y-68346724D01*
X123845581Y-68156247D01*
X123797962Y-68061009D01*
X123750343Y-68013390D01*
X123655105Y-67965771D01*
X123464629Y-67965771D01*
X123369390Y-68013390D01*
X123321771Y-68061009D01*
X123274152Y-68156247D01*
X122940819Y-67584819D02*
X122893200Y-67537200D01*
X122845581Y-67441962D01*
X122845581Y-67203866D01*
X122893200Y-67108628D01*
X122940819Y-67061009D01*
X123036057Y-67013390D01*
X123131295Y-67013390D01*
X123274152Y-67061009D01*
X123845581Y-67632438D01*
X123845581Y-67013390D01*
D12*
X132533700Y-112823500D02*
G75*
G02X132533700Y-110823500I0J1000000D01*
G01*
X132533700Y-110823500D02*
X132533700Y-109173500D01*
X132533700Y-109173500D02*
X114633700Y-109173500D01*
X114633700Y-109173500D02*
X114633700Y-114473500D01*
X114633700Y-114473500D02*
X132533700Y-114473500D01*
X132533700Y-114473500D02*
X132533700Y-112823500D01*
X132593700Y-106683500D02*
X114573700Y-106683500D01*
X114573700Y-106683500D02*
X114573700Y-116963500D01*
X114573700Y-116963500D02*
X132593700Y-116963500D01*
X132593700Y-116963500D02*
X132593700Y-106683500D01*
X84745000Y-76374700D02*
X84415000Y-76374700D01*
X84415000Y-76374700D02*
X84415000Y-69954700D01*
X84415000Y-69954700D02*
X84745000Y-69954700D01*
X86705000Y-76374700D02*
X87035000Y-76374700D01*
X87035000Y-76374700D02*
X87035000Y-69954700D01*
X87035000Y-69954700D02*
X86705000Y-69954700D01*
X94324800Y-73712700D02*
X89204800Y-73712700D01*
X94324800Y-71092700D02*
X89204800Y-71092700D01*
X94324800Y-73712700D02*
X94324800Y-71092700D01*
X89204800Y-73712700D02*
X89204800Y-71092700D01*
D13*
X66802000Y-142240000D02*
X66802000Y-119380000D01*
X66802000Y-119380000D02*
X120142000Y-119380000D01*
X120142000Y-119380000D02*
X120142000Y-142240000D01*
X120142000Y-142240000D02*
X66802000Y-142240000D01*
D12*
X74874120Y-59176920D02*
G75*
G03X74874120Y-59176920I-2286000J0D01*
G01*
X74828400Y-65227200D02*
G75*
G03X74828400Y-65227200I-2286000J0D01*
G01*
X70198800Y-93456700D02*
X68078800Y-93456700D01*
X68078800Y-93456700D02*
X68078800Y-97576700D01*
X68078800Y-97576700D02*
X70198800Y-97576700D01*
X70198800Y-97576700D02*
X70198800Y-93456700D01*
X69138800Y-92686700D02*
X69138800Y-93456700D01*
X69138800Y-98346700D02*
X69138800Y-97576700D01*
X70198800Y-94116700D02*
X68078800Y-94116700D01*
X65284800Y-97576700D02*
X67404800Y-97576700D01*
X67404800Y-97576700D02*
X67404800Y-93456700D01*
X67404800Y-93456700D02*
X65284800Y-93456700D01*
X65284800Y-93456700D02*
X65284800Y-97576700D01*
X66344800Y-98346700D02*
X66344800Y-97576700D01*
X66344800Y-92686700D02*
X66344800Y-93456700D01*
X65284800Y-96916700D02*
X67404800Y-96916700D01*
X110136300Y-102478200D02*
X105016300Y-102478200D01*
X110136300Y-99858200D02*
X105016300Y-99858200D01*
X110136300Y-102478200D02*
X110136300Y-99858200D01*
X105016300Y-102478200D02*
X105016300Y-99858200D01*
X80558000Y-107990000D02*
X75438000Y-107990000D01*
X80558000Y-105370000D02*
X75438000Y-105370000D01*
X80558000Y-107990000D02*
X80558000Y-105370000D01*
X75438000Y-107990000D02*
X75438000Y-105370000D01*
X141336400Y-79106400D02*
X146456400Y-79106400D01*
X141336400Y-81726400D02*
X146456400Y-81726400D01*
X141336400Y-79106400D02*
X141336400Y-81726400D01*
X146456400Y-79106400D02*
X146456400Y-81726400D01*
X144943723Y-88137722D02*
G75*
G03X144944000Y-83526420I-1179723J2305722D01*
G01*
X142584277Y-88137722D02*
G75*
G02X142584000Y-83526420I1179723J2305722D01*
G01*
X142584277Y-88137722D02*
G75*
G03X144944000Y-88137580I1179723J2305722D01*
G01*
X146314000Y-85832000D02*
X141214000Y-85832000D01*
X146314000Y-85872000D02*
X141214000Y-85872000D01*
X146313000Y-85912000D02*
X141215000Y-85912000D01*
X146312000Y-85952000D02*
X141216000Y-85952000D01*
X146310000Y-85992000D02*
X141218000Y-85992000D01*
X146307000Y-86032000D02*
X141221000Y-86032000D01*
X146303000Y-86072000D02*
X141225000Y-86072000D01*
X146299000Y-86112000D02*
X144744000Y-86112000D01*
X142784000Y-86112000D02*
X141229000Y-86112000D01*
X146295000Y-86152000D02*
X144744000Y-86152000D01*
X142784000Y-86152000D02*
X141233000Y-86152000D01*
X146289000Y-86192000D02*
X144744000Y-86192000D01*
X142784000Y-86192000D02*
X141239000Y-86192000D01*
X146283000Y-86232000D02*
X144744000Y-86232000D01*
X142784000Y-86232000D02*
X141245000Y-86232000D01*
X146277000Y-86272000D02*
X144744000Y-86272000D01*
X142784000Y-86272000D02*
X141251000Y-86272000D01*
X146270000Y-86312000D02*
X144744000Y-86312000D01*
X142784000Y-86312000D02*
X141258000Y-86312000D01*
X146262000Y-86352000D02*
X144744000Y-86352000D01*
X142784000Y-86352000D02*
X141266000Y-86352000D01*
X146253000Y-86392000D02*
X144744000Y-86392000D01*
X142784000Y-86392000D02*
X141275000Y-86392000D01*
X146244000Y-86432000D02*
X144744000Y-86432000D01*
X142784000Y-86432000D02*
X141284000Y-86432000D01*
X146234000Y-86472000D02*
X144744000Y-86472000D01*
X142784000Y-86472000D02*
X141294000Y-86472000D01*
X146224000Y-86512000D02*
X144744000Y-86512000D01*
X142784000Y-86512000D02*
X141304000Y-86512000D01*
X146212000Y-86553000D02*
X144744000Y-86553000D01*
X142784000Y-86553000D02*
X141316000Y-86553000D01*
X146200000Y-86593000D02*
X144744000Y-86593000D01*
X142784000Y-86593000D02*
X141328000Y-86593000D01*
X146188000Y-86633000D02*
X144744000Y-86633000D01*
X142784000Y-86633000D02*
X141340000Y-86633000D01*
X146174000Y-86673000D02*
X144744000Y-86673000D01*
X142784000Y-86673000D02*
X141354000Y-86673000D01*
X146160000Y-86713000D02*
X144744000Y-86713000D01*
X142784000Y-86713000D02*
X141368000Y-86713000D01*
X146146000Y-86753000D02*
X144744000Y-86753000D01*
X142784000Y-86753000D02*
X141382000Y-86753000D01*
X146130000Y-86793000D02*
X144744000Y-86793000D01*
X142784000Y-86793000D02*
X141398000Y-86793000D01*
X146114000Y-86833000D02*
X144744000Y-86833000D01*
X142784000Y-86833000D02*
X141414000Y-86833000D01*
X146097000Y-86873000D02*
X144744000Y-86873000D01*
X142784000Y-86873000D02*
X141431000Y-86873000D01*
X146079000Y-86913000D02*
X144744000Y-86913000D01*
X142784000Y-86913000D02*
X141449000Y-86913000D01*
X146060000Y-86953000D02*
X144744000Y-86953000D01*
X142784000Y-86953000D02*
X141468000Y-86953000D01*
X146040000Y-86993000D02*
X144744000Y-86993000D01*
X142784000Y-86993000D02*
X141488000Y-86993000D01*
X146020000Y-87033000D02*
X144744000Y-87033000D01*
X142784000Y-87033000D02*
X141508000Y-87033000D01*
X145998000Y-87073000D02*
X144744000Y-87073000D01*
X142784000Y-87073000D02*
X141530000Y-87073000D01*
X145976000Y-87113000D02*
X144744000Y-87113000D01*
X142784000Y-87113000D02*
X141552000Y-87113000D01*
X145953000Y-87153000D02*
X144744000Y-87153000D01*
X142784000Y-87153000D02*
X141575000Y-87153000D01*
X145929000Y-87193000D02*
X144744000Y-87193000D01*
X142784000Y-87193000D02*
X141599000Y-87193000D01*
X145904000Y-87233000D02*
X144744000Y-87233000D01*
X142784000Y-87233000D02*
X141624000Y-87233000D01*
X145877000Y-87273000D02*
X144744000Y-87273000D01*
X142784000Y-87273000D02*
X141651000Y-87273000D01*
X145850000Y-87313000D02*
X144744000Y-87313000D01*
X142784000Y-87313000D02*
X141678000Y-87313000D01*
X145822000Y-87353000D02*
X144744000Y-87353000D01*
X142784000Y-87353000D02*
X141706000Y-87353000D01*
X145792000Y-87393000D02*
X144744000Y-87393000D01*
X142784000Y-87393000D02*
X141736000Y-87393000D01*
X145761000Y-87433000D02*
X144744000Y-87433000D01*
X142784000Y-87433000D02*
X141767000Y-87433000D01*
X145729000Y-87473000D02*
X144744000Y-87473000D01*
X142784000Y-87473000D02*
X141799000Y-87473000D01*
X145696000Y-87513000D02*
X144744000Y-87513000D01*
X142784000Y-87513000D02*
X141832000Y-87513000D01*
X145661000Y-87553000D02*
X144744000Y-87553000D01*
X142784000Y-87553000D02*
X141867000Y-87553000D01*
X145625000Y-87593000D02*
X144744000Y-87593000D01*
X142784000Y-87593000D02*
X141903000Y-87593000D01*
X145587000Y-87633000D02*
X144744000Y-87633000D01*
X142784000Y-87633000D02*
X141941000Y-87633000D01*
X145547000Y-87673000D02*
X144744000Y-87673000D01*
X142784000Y-87673000D02*
X141981000Y-87673000D01*
X145506000Y-87713000D02*
X144744000Y-87713000D01*
X142784000Y-87713000D02*
X142022000Y-87713000D01*
X145463000Y-87753000D02*
X144744000Y-87753000D01*
X142784000Y-87753000D02*
X142065000Y-87753000D01*
X145418000Y-87793000D02*
X144744000Y-87793000D01*
X142784000Y-87793000D02*
X142110000Y-87793000D01*
X145370000Y-87833000D02*
X144744000Y-87833000D01*
X142784000Y-87833000D02*
X142158000Y-87833000D01*
X145320000Y-87873000D02*
X144744000Y-87873000D01*
X142784000Y-87873000D02*
X142208000Y-87873000D01*
X145268000Y-87913000D02*
X144744000Y-87913000D01*
X142784000Y-87913000D02*
X142260000Y-87913000D01*
X145212000Y-87953000D02*
X144744000Y-87953000D01*
X142784000Y-87953000D02*
X142316000Y-87953000D01*
X145154000Y-87993000D02*
X144744000Y-87993000D01*
X142784000Y-87993000D02*
X142374000Y-87993000D01*
X145091000Y-88033000D02*
X144744000Y-88033000D01*
X142784000Y-88033000D02*
X142437000Y-88033000D01*
X145025000Y-88073000D02*
X142503000Y-88073000D01*
X144953000Y-88113000D02*
X142575000Y-88113000D01*
X144876000Y-88153000D02*
X142652000Y-88153000D01*
X144792000Y-88193000D02*
X142736000Y-88193000D01*
X144698000Y-88233000D02*
X142830000Y-88233000D01*
X144593000Y-88273000D02*
X142935000Y-88273000D01*
X144471000Y-88313000D02*
X143057000Y-88313000D01*
X144323000Y-88353000D02*
X143205000Y-88353000D01*
X144118000Y-88393000D02*
X143410000Y-88393000D01*
X143764000Y-82382000D02*
X143764000Y-83582000D01*
X144414000Y-82982000D02*
X143114000Y-82982000D01*
X141742800Y-60869200D02*
X146862800Y-60869200D01*
X141742800Y-63489200D02*
X146862800Y-63489200D01*
X141742800Y-60869200D02*
X141742800Y-63489200D01*
X146862800Y-60869200D02*
X146862800Y-63489200D01*
X77671300Y-102271200D02*
X82791300Y-102271200D01*
X77671300Y-104891200D02*
X82791300Y-104891200D01*
X77671300Y-102271200D02*
X77671300Y-104891200D01*
X82791300Y-102271200D02*
X82791300Y-104891200D01*
X146608522Y-65165077D02*
G75*
G03X141997220Y-65164800I-2305722J-1179723D01*
G01*
X146608522Y-67524523D02*
G75*
G02X141997220Y-67524800I-2305722J1179723D01*
G01*
X146608522Y-67524523D02*
G75*
G03X146608380Y-65164800I-2305722J1179723D01*
G01*
X144302800Y-63794800D02*
X144302800Y-68894800D01*
X144342800Y-63794800D02*
X144342800Y-68894800D01*
X144382800Y-63795800D02*
X144382800Y-68893800D01*
X144422800Y-63796800D02*
X144422800Y-68892800D01*
X144462800Y-63798800D02*
X144462800Y-68890800D01*
X144502800Y-63801800D02*
X144502800Y-68887800D01*
X144542800Y-63805800D02*
X144542800Y-68883800D01*
X144582800Y-63809800D02*
X144582800Y-65364800D01*
X144582800Y-67324800D02*
X144582800Y-68879800D01*
X144622800Y-63813800D02*
X144622800Y-65364800D01*
X144622800Y-67324800D02*
X144622800Y-68875800D01*
X144662800Y-63819800D02*
X144662800Y-65364800D01*
X144662800Y-67324800D02*
X144662800Y-68869800D01*
X144702800Y-63825800D02*
X144702800Y-65364800D01*
X144702800Y-67324800D02*
X144702800Y-68863800D01*
X144742800Y-63831800D02*
X144742800Y-65364800D01*
X144742800Y-67324800D02*
X144742800Y-68857800D01*
X144782800Y-63838800D02*
X144782800Y-65364800D01*
X144782800Y-67324800D02*
X144782800Y-68850800D01*
X144822800Y-63846800D02*
X144822800Y-65364800D01*
X144822800Y-67324800D02*
X144822800Y-68842800D01*
X144862800Y-63855800D02*
X144862800Y-65364800D01*
X144862800Y-67324800D02*
X144862800Y-68833800D01*
X144902800Y-63864800D02*
X144902800Y-65364800D01*
X144902800Y-67324800D02*
X144902800Y-68824800D01*
X144942800Y-63874800D02*
X144942800Y-65364800D01*
X144942800Y-67324800D02*
X144942800Y-68814800D01*
X144982800Y-63884800D02*
X144982800Y-65364800D01*
X144982800Y-67324800D02*
X144982800Y-68804800D01*
X145023800Y-63896800D02*
X145023800Y-65364800D01*
X145023800Y-67324800D02*
X145023800Y-68792800D01*
X145063800Y-63908800D02*
X145063800Y-65364800D01*
X145063800Y-67324800D02*
X145063800Y-68780800D01*
X145103800Y-63920800D02*
X145103800Y-65364800D01*
X145103800Y-67324800D02*
X145103800Y-68768800D01*
X145143800Y-63934800D02*
X145143800Y-65364800D01*
X145143800Y-67324800D02*
X145143800Y-68754800D01*
X145183800Y-63948800D02*
X145183800Y-65364800D01*
X145183800Y-67324800D02*
X145183800Y-68740800D01*
X145223800Y-63962800D02*
X145223800Y-65364800D01*
X145223800Y-67324800D02*
X145223800Y-68726800D01*
X145263800Y-63978800D02*
X145263800Y-65364800D01*
X145263800Y-67324800D02*
X145263800Y-68710800D01*
X145303800Y-63994800D02*
X145303800Y-65364800D01*
X145303800Y-67324800D02*
X145303800Y-68694800D01*
X145343800Y-64011800D02*
X145343800Y-65364800D01*
X145343800Y-67324800D02*
X145343800Y-68677800D01*
X145383800Y-64029800D02*
X145383800Y-65364800D01*
X145383800Y-67324800D02*
X145383800Y-68659800D01*
X145423800Y-64048800D02*
X145423800Y-65364800D01*
X145423800Y-67324800D02*
X145423800Y-68640800D01*
X145463800Y-64068800D02*
X145463800Y-65364800D01*
X145463800Y-67324800D02*
X145463800Y-68620800D01*
X145503800Y-64088800D02*
X145503800Y-65364800D01*
X145503800Y-67324800D02*
X145503800Y-68600800D01*
X145543800Y-64110800D02*
X145543800Y-65364800D01*
X145543800Y-67324800D02*
X145543800Y-68578800D01*
X145583800Y-64132800D02*
X145583800Y-65364800D01*
X145583800Y-67324800D02*
X145583800Y-68556800D01*
X145623800Y-64155800D02*
X145623800Y-65364800D01*
X145623800Y-67324800D02*
X145623800Y-68533800D01*
X145663800Y-64179800D02*
X145663800Y-65364800D01*
X145663800Y-67324800D02*
X145663800Y-68509800D01*
X145703800Y-64204800D02*
X145703800Y-65364800D01*
X145703800Y-67324800D02*
X145703800Y-68484800D01*
X145743800Y-64231800D02*
X145743800Y-65364800D01*
X145743800Y-67324800D02*
X145743800Y-68457800D01*
X145783800Y-64258800D02*
X145783800Y-65364800D01*
X145783800Y-67324800D02*
X145783800Y-68430800D01*
X145823800Y-64286800D02*
X145823800Y-65364800D01*
X145823800Y-67324800D02*
X145823800Y-68402800D01*
X145863800Y-64316800D02*
X145863800Y-65364800D01*
X145863800Y-67324800D02*
X145863800Y-68372800D01*
X145903800Y-64347800D02*
X145903800Y-65364800D01*
X145903800Y-67324800D02*
X145903800Y-68341800D01*
X145943800Y-64379800D02*
X145943800Y-65364800D01*
X145943800Y-67324800D02*
X145943800Y-68309800D01*
X145983800Y-64412800D02*
X145983800Y-65364800D01*
X145983800Y-67324800D02*
X145983800Y-68276800D01*
X146023800Y-64447800D02*
X146023800Y-65364800D01*
X146023800Y-67324800D02*
X146023800Y-68241800D01*
X146063800Y-64483800D02*
X146063800Y-65364800D01*
X146063800Y-67324800D02*
X146063800Y-68205800D01*
X146103800Y-64521800D02*
X146103800Y-65364800D01*
X146103800Y-67324800D02*
X146103800Y-68167800D01*
X146143800Y-64561800D02*
X146143800Y-65364800D01*
X146143800Y-67324800D02*
X146143800Y-68127800D01*
X146183800Y-64602800D02*
X146183800Y-65364800D01*
X146183800Y-67324800D02*
X146183800Y-68086800D01*
X146223800Y-64645800D02*
X146223800Y-65364800D01*
X146223800Y-67324800D02*
X146223800Y-68043800D01*
X146263800Y-64690800D02*
X146263800Y-65364800D01*
X146263800Y-67324800D02*
X146263800Y-67998800D01*
X146303800Y-64738800D02*
X146303800Y-65364800D01*
X146303800Y-67324800D02*
X146303800Y-67950800D01*
X146343800Y-64788800D02*
X146343800Y-65364800D01*
X146343800Y-67324800D02*
X146343800Y-67900800D01*
X146383800Y-64840800D02*
X146383800Y-65364800D01*
X146383800Y-67324800D02*
X146383800Y-67848800D01*
X146423800Y-64896800D02*
X146423800Y-65364800D01*
X146423800Y-67324800D02*
X146423800Y-67792800D01*
X146463800Y-64954800D02*
X146463800Y-65364800D01*
X146463800Y-67324800D02*
X146463800Y-67734800D01*
X146503800Y-65017800D02*
X146503800Y-65364800D01*
X146503800Y-67324800D02*
X146503800Y-67671800D01*
X146543800Y-65083800D02*
X146543800Y-67605800D01*
X146583800Y-65155800D02*
X146583800Y-67533800D01*
X146623800Y-65232800D02*
X146623800Y-67456800D01*
X146663800Y-65316800D02*
X146663800Y-67372800D01*
X146703800Y-65410800D02*
X146703800Y-67278800D01*
X146743800Y-65515800D02*
X146743800Y-67173800D01*
X146783800Y-65637800D02*
X146783800Y-67051800D01*
X146823800Y-65785800D02*
X146823800Y-66903800D01*
X146863800Y-65990800D02*
X146863800Y-66698800D01*
X140852800Y-66344800D02*
X142052800Y-66344800D01*
X141452800Y-65694800D02*
X141452800Y-66994800D01*
X94769300Y-56047000D02*
X89649300Y-56047000D01*
X94769300Y-53427000D02*
X89649300Y-53427000D01*
X94769300Y-56047000D02*
X94769300Y-53427000D01*
X89649300Y-56047000D02*
X89649300Y-53427000D01*
X94934400Y-59145800D02*
X89814400Y-59145800D01*
X94934400Y-56525800D02*
X89814400Y-56525800D01*
X94934400Y-59145800D02*
X94934400Y-56525800D01*
X89814400Y-59145800D02*
X89814400Y-56525800D01*
X94324800Y-70410700D02*
X89204800Y-70410700D01*
X94324800Y-67790700D02*
X89204800Y-67790700D01*
X94324800Y-70410700D02*
X94324800Y-67790700D01*
X89204800Y-70410700D02*
X89204800Y-67790700D01*
X77408400Y-86234900D02*
X72288400Y-86234900D01*
X77408400Y-83614900D02*
X72288400Y-83614900D01*
X77408400Y-86234900D02*
X77408400Y-83614900D01*
X72288400Y-86234900D02*
X72288400Y-83614900D01*
X77560800Y-89105100D02*
X72440800Y-89105100D01*
X77560800Y-86485100D02*
X72440800Y-86485100D01*
X77560800Y-89105100D02*
X77560800Y-86485100D01*
X72440800Y-89105100D02*
X72440800Y-86485100D01*
X89520400Y-59535700D02*
X94640400Y-59535700D01*
X89520400Y-62155700D02*
X94640400Y-62155700D01*
X89520400Y-59535700D02*
X89520400Y-62155700D01*
X94640400Y-59535700D02*
X94640400Y-62155700D01*
X89418800Y-74140700D02*
X94538800Y-74140700D01*
X89418800Y-76760700D02*
X94538800Y-76760700D01*
X89418800Y-74140700D02*
X89418800Y-76760700D01*
X94538800Y-74140700D02*
X94538800Y-76760700D01*
X72350000Y-89622000D02*
X77470000Y-89622000D01*
X72350000Y-92242000D02*
X77470000Y-92242000D01*
X72350000Y-89622000D02*
X72350000Y-92242000D01*
X77470000Y-89622000D02*
X77470000Y-92242000D01*
X94578800Y-65229100D02*
X89458800Y-65229100D01*
X94578800Y-62609100D02*
X89458800Y-62609100D01*
X94578800Y-65229100D02*
X94578800Y-62609100D01*
X89458800Y-65229100D02*
X89458800Y-62609100D01*
X94324800Y-79808700D02*
X89204800Y-79808700D01*
X94324800Y-77188700D02*
X89204800Y-77188700D01*
X94324800Y-79808700D02*
X94324800Y-77188700D01*
X89204800Y-79808700D02*
X89204800Y-77188700D01*
X77116300Y-95302700D02*
X71996300Y-95302700D01*
X77116300Y-92682700D02*
X71996300Y-92682700D01*
X77116300Y-95302700D02*
X77116300Y-92682700D01*
X71996300Y-95302700D02*
X71996300Y-92682700D01*
X106386000Y-63794000D02*
X106386000Y-58674000D01*
X109006000Y-63794000D02*
X109006000Y-58674000D01*
X106386000Y-63794000D02*
X109006000Y-63794000D01*
X106386000Y-58674000D02*
X109006000Y-58674000D01*
X108498000Y-74128000D02*
X108498000Y-79248000D01*
X105878000Y-74128000D02*
X105878000Y-79248000D01*
X108498000Y-74128000D02*
X105878000Y-74128000D01*
X108498000Y-79248000D02*
X105878000Y-79248000D01*
X106386000Y-56936000D02*
X106386000Y-51816000D01*
X109006000Y-56936000D02*
X109006000Y-51816000D01*
X106386000Y-56936000D02*
X109006000Y-56936000D01*
X106386000Y-51816000D02*
X109006000Y-51816000D01*
X105928800Y-73712700D02*
X105928800Y-68592700D01*
X108548800Y-73712700D02*
X108548800Y-68592700D01*
X105928800Y-73712700D02*
X108548800Y-73712700D01*
X105928800Y-68592700D02*
X108548800Y-68592700D01*
X91480000Y-86828000D02*
X91480000Y-91948000D01*
X88860000Y-86828000D02*
X88860000Y-91948000D01*
X91480000Y-86828000D02*
X88860000Y-86828000D01*
X91480000Y-91948000D02*
X88860000Y-91948000D01*
X93938720Y-85914860D02*
X88818720Y-85914860D01*
X93938720Y-83294860D02*
X88818720Y-83294860D01*
X93938720Y-85914860D02*
X93938720Y-83294860D01*
X88818720Y-85914860D02*
X88818720Y-83294860D01*
X112736000Y-67778000D02*
X117856000Y-67778000D01*
X112736000Y-70398000D02*
X117856000Y-70398000D01*
X112736000Y-67778000D02*
X112736000Y-70398000D01*
X117856000Y-67778000D02*
X117856000Y-70398000D01*
X120864000Y-78526000D02*
X120864000Y-73406000D01*
X123484000Y-78526000D02*
X123484000Y-73406000D01*
X120864000Y-78526000D02*
X123484000Y-78526000D01*
X120864000Y-73406000D02*
X123484000Y-73406000D01*
X99502600Y-92873200D02*
X104622600Y-92873200D01*
X99502600Y-95493200D02*
X104622600Y-95493200D01*
X99502600Y-92873200D02*
X99502600Y-95493200D01*
X104622600Y-92873200D02*
X104622600Y-95493200D01*
X119928000Y-55586000D02*
X119928000Y-60706000D01*
X117308000Y-55586000D02*
X117308000Y-60706000D01*
X119928000Y-55586000D02*
X117308000Y-55586000D01*
X119928000Y-60706000D02*
X117308000Y-60706000D01*
X118912000Y-73366000D02*
X118912000Y-78486000D01*
X116292000Y-73366000D02*
X116292000Y-78486000D01*
X118912000Y-73366000D02*
X116292000Y-73366000D01*
X118912000Y-78486000D02*
X116292000Y-78486000D01*
X115737000Y-98592000D02*
X110617000Y-98592000D01*
X115737000Y-95972000D02*
X110617000Y-95972000D01*
X115737000Y-98592000D02*
X115737000Y-95972000D01*
X110617000Y-98592000D02*
X110617000Y-95972000D01*
X120864000Y-60746000D02*
X120864000Y-55626000D01*
X123484000Y-60746000D02*
X123484000Y-55626000D01*
X120864000Y-60746000D02*
X123484000Y-60746000D01*
X120864000Y-55626000D02*
X123484000Y-55626000D01*
X116038000Y-85384000D02*
X116038000Y-80264000D01*
X118658000Y-85384000D02*
X118658000Y-80264000D01*
X116038000Y-85384000D02*
X118658000Y-85384000D01*
X116038000Y-80264000D02*
X118658000Y-80264000D01*
X81574000Y-142454000D02*
X81574000Y-147574000D01*
X78954000Y-142454000D02*
X78954000Y-147574000D01*
X81574000Y-142454000D02*
X78954000Y-142454000D01*
X81574000Y-147574000D02*
X78954000Y-147574000D01*
X87416000Y-142454000D02*
X87416000Y-147574000D01*
X84796000Y-142454000D02*
X84796000Y-147574000D01*
X87416000Y-142454000D02*
X84796000Y-142454000D01*
X87416000Y-147574000D02*
X84796000Y-147574000D01*
X101309800Y-142530200D02*
X101309800Y-147650200D01*
X98689800Y-142530200D02*
X98689800Y-147650200D01*
X101309800Y-142530200D02*
X98689800Y-142530200D01*
X101309800Y-147650200D02*
X98689800Y-147650200D01*
X67053400Y-71101400D02*
X67053400Y-73221400D01*
X67053400Y-73221400D02*
X71173400Y-73221400D01*
X71173400Y-73221400D02*
X71173400Y-71101400D01*
X71173400Y-71101400D02*
X67053400Y-71101400D01*
X66283400Y-72161400D02*
X67053400Y-72161400D01*
X71943400Y-72161400D02*
X71173400Y-72161400D01*
X67713400Y-71101400D02*
X67713400Y-73221400D01*
X71249600Y-70516300D02*
X71249600Y-68396300D01*
X71249600Y-68396300D02*
X67129600Y-68396300D01*
X67129600Y-68396300D02*
X67129600Y-70516300D01*
X67129600Y-70516300D02*
X71249600Y-70516300D01*
X72019600Y-69456300D02*
X71249600Y-69456300D01*
X66359600Y-69456300D02*
X67129600Y-69456300D01*
X70589600Y-70516300D02*
X70589600Y-68396300D01*
X72191880Y-54035960D02*
G75*
G03X72191880Y-54035960I-2286000J0D01*
G01*
X68770500Y-65227200D02*
G75*
G03X68770500Y-65227200I-2286000J0D01*
G01*
X68699380Y-58925460D02*
G75*
G03X68699380Y-58925460I-2286000J0D01*
G01*
X142091100Y-107654400D02*
X147291100Y-107654400D01*
X142091100Y-97434400D02*
X142091100Y-107654400D01*
X147291100Y-94834400D02*
X147291100Y-107654400D01*
X142091100Y-97434400D02*
X144691100Y-97434400D01*
X144691100Y-97434400D02*
X144691100Y-94834400D01*
X144691100Y-94834400D02*
X147291100Y-94834400D01*
X142091100Y-96164400D02*
X142091100Y-94834400D01*
X142091100Y-94834400D02*
X143421100Y-94834400D01*
X108518000Y-115630000D02*
X108518000Y-112970000D01*
X100838000Y-115630000D02*
X108518000Y-115630000D01*
X100838000Y-112970000D02*
X108518000Y-112970000D01*
X100838000Y-115630000D02*
X100838000Y-112970000D01*
X99568000Y-115630000D02*
X98238000Y-115630000D01*
X98238000Y-115630000D02*
X98238000Y-114300000D01*
X77568100Y-68672400D02*
X74908100Y-68672400D01*
X77568100Y-71272400D02*
X77568100Y-68672400D01*
X74908100Y-71272400D02*
X74908100Y-68672400D01*
X77568100Y-71272400D02*
X74908100Y-71272400D01*
X77568100Y-72542400D02*
X77568100Y-73872400D01*
X77568100Y-73872400D02*
X76238100Y-73872400D01*
X80920900Y-68710500D02*
X78260900Y-68710500D01*
X80920900Y-71310500D02*
X80920900Y-68710500D01*
X78260900Y-71310500D02*
X78260900Y-68710500D01*
X80920900Y-71310500D02*
X78260900Y-71310500D01*
X80920900Y-72580500D02*
X80920900Y-73910500D01*
X80920900Y-73910500D02*
X79590900Y-73910500D01*
X144696000Y-78122000D02*
X144696000Y-75802000D01*
X144696000Y-75802000D02*
X139276000Y-75802000D01*
X139276000Y-75802000D02*
X139276000Y-78122000D01*
X139276000Y-78122000D02*
X144696000Y-78122000D01*
X144816000Y-76962000D02*
X144696000Y-76962000D01*
X139156000Y-76962000D02*
X139276000Y-76962000D01*
X72610800Y-107217700D02*
X72610800Y-104897700D01*
X72610800Y-104897700D02*
X67190800Y-104897700D01*
X67190800Y-104897700D02*
X67190800Y-107217700D01*
X67190800Y-107217700D02*
X72610800Y-107217700D01*
X72730800Y-106057700D02*
X72610800Y-106057700D01*
X67070800Y-106057700D02*
X67190800Y-106057700D01*
X112666000Y-55710000D02*
X110346000Y-55710000D01*
X110346000Y-55710000D02*
X110346000Y-61130000D01*
X110346000Y-61130000D02*
X112666000Y-61130000D01*
X112666000Y-61130000D02*
X112666000Y-55710000D01*
X111506000Y-55590000D02*
X111506000Y-55710000D01*
X111506000Y-61250000D02*
X111506000Y-61130000D01*
X111472200Y-70924600D02*
X109152200Y-70924600D01*
X109152200Y-70924600D02*
X109152200Y-76344600D01*
X109152200Y-76344600D02*
X111472200Y-76344600D01*
X111472200Y-76344600D02*
X111472200Y-70924600D01*
X110312200Y-70804600D02*
X110312200Y-70924600D01*
X110312200Y-76464600D02*
X110312200Y-76344600D01*
X96858000Y-83930000D02*
X96858000Y-86250000D01*
X96858000Y-86250000D02*
X102278000Y-86250000D01*
X102278000Y-86250000D02*
X102278000Y-83930000D01*
X102278000Y-83930000D02*
X96858000Y-83930000D01*
X96738000Y-85090000D02*
X96858000Y-85090000D01*
X102398000Y-85090000D02*
X102278000Y-85090000D01*
X86142000Y-113827000D02*
X85812000Y-113827000D01*
X85812000Y-113827000D02*
X85812000Y-107407000D01*
X85812000Y-107407000D02*
X86142000Y-107407000D01*
X88102000Y-113827000D02*
X88432000Y-113827000D01*
X88432000Y-113827000D02*
X88432000Y-107407000D01*
X88432000Y-107407000D02*
X88102000Y-107407000D01*
X89317000Y-113827000D02*
X88987000Y-113827000D01*
X88987000Y-113827000D02*
X88987000Y-107407000D01*
X88987000Y-107407000D02*
X89317000Y-107407000D01*
X91277000Y-113827000D02*
X91607000Y-113827000D01*
X91607000Y-113827000D02*
X91607000Y-107407000D01*
X91607000Y-107407000D02*
X91277000Y-107407000D01*
X138623600Y-72781600D02*
X138623600Y-72451600D01*
X138623600Y-72451600D02*
X145043600Y-72451600D01*
X145043600Y-72451600D02*
X145043600Y-72781600D01*
X138623600Y-74741600D02*
X138623600Y-75071600D01*
X138623600Y-75071600D02*
X145043600Y-75071600D01*
X145043600Y-75071600D02*
X145043600Y-74741600D01*
X138763300Y-69517700D02*
X138763300Y-69187700D01*
X138763300Y-69187700D02*
X145183300Y-69187700D01*
X145183300Y-69187700D02*
X145183300Y-69517700D01*
X138763300Y-71477700D02*
X138763300Y-71807700D01*
X138763300Y-71807700D02*
X145183300Y-71807700D01*
X145183300Y-71807700D02*
X145183300Y-71477700D01*
X83911000Y-69929300D02*
X84241000Y-69929300D01*
X84241000Y-69929300D02*
X84241000Y-76349300D01*
X84241000Y-76349300D02*
X83911000Y-76349300D01*
X81951000Y-69929300D02*
X81621000Y-69929300D01*
X81621000Y-69929300D02*
X81621000Y-76349300D01*
X81621000Y-76349300D02*
X81951000Y-76349300D01*
X79580300Y-59540700D02*
X79910300Y-59540700D01*
X79910300Y-59540700D02*
X79910300Y-65960700D01*
X79910300Y-65960700D02*
X79580300Y-65960700D01*
X77620300Y-59540700D02*
X77290300Y-59540700D01*
X77290300Y-59540700D02*
X77290300Y-65960700D01*
X77290300Y-65960700D02*
X77620300Y-65960700D01*
X82971200Y-59655000D02*
X83301200Y-59655000D01*
X83301200Y-59655000D02*
X83301200Y-66075000D01*
X83301200Y-66075000D02*
X82971200Y-66075000D01*
X81011200Y-59655000D02*
X80681200Y-59655000D01*
X80681200Y-59655000D02*
X80681200Y-66075000D01*
X80681200Y-66075000D02*
X81011200Y-66075000D01*
X85232800Y-99807200D02*
X85232800Y-99477200D01*
X85232800Y-99477200D02*
X91652800Y-99477200D01*
X91652800Y-99477200D02*
X91652800Y-99807200D01*
X85232800Y-101767200D02*
X85232800Y-102097200D01*
X85232800Y-102097200D02*
X91652800Y-102097200D01*
X91652800Y-102097200D02*
X91652800Y-101767200D01*
X86425600Y-59591500D02*
X86755600Y-59591500D01*
X86755600Y-59591500D02*
X86755600Y-66011500D01*
X86755600Y-66011500D02*
X86425600Y-66011500D01*
X84465600Y-59591500D02*
X84135600Y-59591500D01*
X84135600Y-59591500D02*
X84135600Y-66011500D01*
X84135600Y-66011500D02*
X84465600Y-66011500D01*
X86318800Y-53824700D02*
X86318800Y-54154700D01*
X86318800Y-54154700D02*
X79898800Y-54154700D01*
X79898800Y-54154700D02*
X79898800Y-53824700D01*
X86318800Y-51864700D02*
X86318800Y-51534700D01*
X86318800Y-51534700D02*
X79898800Y-51534700D01*
X79898800Y-51534700D02*
X79898800Y-51864700D01*
X86318800Y-57126700D02*
X86318800Y-57456700D01*
X86318800Y-57456700D02*
X79898800Y-57456700D01*
X79898800Y-57456700D02*
X79898800Y-57126700D01*
X86318800Y-55166700D02*
X86318800Y-54836700D01*
X86318800Y-54836700D02*
X79898800Y-54836700D01*
X79898800Y-54836700D02*
X79898800Y-55166700D01*
X91652800Y-98528700D02*
X91652800Y-98858700D01*
X91652800Y-98858700D02*
X85232800Y-98858700D01*
X85232800Y-98858700D02*
X85232800Y-98528700D01*
X91652800Y-96568700D02*
X91652800Y-96238700D01*
X91652800Y-96238700D02*
X85232800Y-96238700D01*
X85232800Y-96238700D02*
X85232800Y-96568700D01*
X79252520Y-78988480D02*
X79252520Y-79318480D01*
X79252520Y-79318480D02*
X72832520Y-79318480D01*
X72832520Y-79318480D02*
X72832520Y-78988480D01*
X79252520Y-77028480D02*
X79252520Y-76698480D01*
X79252520Y-76698480D02*
X72832520Y-76698480D01*
X72832520Y-76698480D02*
X72832520Y-77028480D01*
X67324800Y-82400700D02*
X67654800Y-82400700D01*
X67654800Y-82400700D02*
X67654800Y-88820700D01*
X67654800Y-88820700D02*
X67324800Y-88820700D01*
X65364800Y-82400700D02*
X65034800Y-82400700D01*
X65034800Y-82400700D02*
X65034800Y-88820700D01*
X65034800Y-88820700D02*
X65364800Y-88820700D01*
X70449000Y-82400700D02*
X70779000Y-82400700D01*
X70779000Y-82400700D02*
X70779000Y-88820700D01*
X70779000Y-88820700D02*
X70449000Y-88820700D01*
X68489000Y-82400700D02*
X68159000Y-82400700D01*
X68159000Y-82400700D02*
X68159000Y-88820700D01*
X68159000Y-88820700D02*
X68489000Y-88820700D01*
X103169160Y-66806640D02*
X103169160Y-67136640D01*
X103169160Y-67136640D02*
X96749160Y-67136640D01*
X96749160Y-67136640D02*
X96749160Y-66806640D01*
X103169160Y-64846640D02*
X103169160Y-64516640D01*
X103169160Y-64516640D02*
X96749160Y-64516640D01*
X96749160Y-64516640D02*
X96749160Y-64846640D01*
X103336800Y-81002700D02*
X103336800Y-81332700D01*
X103336800Y-81332700D02*
X96916800Y-81332700D01*
X96916800Y-81332700D02*
X96916800Y-81002700D01*
X103336800Y-79042700D02*
X103336800Y-78712700D01*
X103336800Y-78712700D02*
X96916800Y-78712700D01*
X96916800Y-78712700D02*
X96916800Y-79042700D01*
X86153700Y-94972700D02*
X86153700Y-95302700D01*
X86153700Y-95302700D02*
X79733700Y-95302700D01*
X79733700Y-95302700D02*
X79733700Y-94972700D01*
X86153700Y-93012700D02*
X86153700Y-92682700D01*
X86153700Y-92682700D02*
X79733700Y-92682700D01*
X79733700Y-92682700D02*
X79733700Y-93012700D01*
X113828000Y-61884000D02*
X113498000Y-61884000D01*
X113498000Y-61884000D02*
X113498000Y-55464000D01*
X113498000Y-55464000D02*
X113828000Y-55464000D01*
X115788000Y-61884000D02*
X116118000Y-61884000D01*
X116118000Y-61884000D02*
X116118000Y-55464000D01*
X116118000Y-55464000D02*
X115788000Y-55464000D01*
X112812000Y-78902000D02*
X112482000Y-78902000D01*
X112482000Y-78902000D02*
X112482000Y-72482000D01*
X112482000Y-72482000D02*
X112812000Y-72482000D01*
X114772000Y-78902000D02*
X115102000Y-78902000D01*
X115102000Y-78902000D02*
X115102000Y-72482000D01*
X115102000Y-72482000D02*
X114772000Y-72482000D01*
X95596000Y-88428000D02*
X95596000Y-88098000D01*
X95596000Y-88098000D02*
X102016000Y-88098000D01*
X102016000Y-88098000D02*
X102016000Y-88428000D01*
X95596000Y-90388000D02*
X95596000Y-90718000D01*
X95596000Y-90718000D02*
X102016000Y-90718000D01*
X102016000Y-90718000D02*
X102016000Y-90388000D01*
X107107280Y-64790760D02*
X107107280Y-64460760D01*
X107107280Y-64460760D02*
X113527280Y-64460760D01*
X113527280Y-64460760D02*
X113527280Y-64790760D01*
X107107280Y-66750760D02*
X107107280Y-67080760D01*
X107107280Y-67080760D02*
X113527280Y-67080760D01*
X113527280Y-67080760D02*
X113527280Y-66750760D01*
X114131800Y-82907700D02*
X114131800Y-83237700D01*
X114131800Y-83237700D02*
X107711800Y-83237700D01*
X107711800Y-83237700D02*
X107711800Y-82907700D01*
X114131800Y-80947700D02*
X114131800Y-80617700D01*
X114131800Y-80617700D02*
X107711800Y-80617700D01*
X107711800Y-80617700D02*
X107711800Y-80947700D01*
X96999500Y-95048900D02*
X96999500Y-95378900D01*
X96999500Y-95378900D02*
X90579500Y-95378900D01*
X90579500Y-95378900D02*
X90579500Y-95048900D01*
X96999500Y-93088900D02*
X96999500Y-92758900D01*
X96999500Y-92758900D02*
X90579500Y-92758900D01*
X90579500Y-92758900D02*
X90579500Y-93088900D01*
X133004000Y-60416000D02*
X133004000Y-60746000D01*
X133004000Y-60746000D02*
X126584000Y-60746000D01*
X126584000Y-60746000D02*
X126584000Y-60416000D01*
X133004000Y-58456000D02*
X133004000Y-58126000D01*
X133004000Y-58126000D02*
X126584000Y-58126000D01*
X126584000Y-58126000D02*
X126584000Y-58456000D01*
X117942800Y-93900700D02*
X117612800Y-93900700D01*
X117612800Y-93900700D02*
X117612800Y-87480700D01*
X117612800Y-87480700D02*
X117942800Y-87480700D01*
X119902800Y-93900700D02*
X120232800Y-93900700D01*
X120232800Y-93900700D02*
X120232800Y-87480700D01*
X120232800Y-87480700D02*
X119902800Y-87480700D01*
X126584000Y-55154000D02*
X126584000Y-54824000D01*
X126584000Y-54824000D02*
X133004000Y-54824000D01*
X133004000Y-54824000D02*
X133004000Y-55154000D01*
X126584000Y-57114000D02*
X126584000Y-57444000D01*
X126584000Y-57444000D02*
X133004000Y-57444000D01*
X133004000Y-57444000D02*
X133004000Y-57114000D01*
X123458800Y-87480700D02*
X123788800Y-87480700D01*
X123788800Y-87480700D02*
X123788800Y-93900700D01*
X123788800Y-93900700D02*
X123458800Y-93900700D01*
X121498800Y-87480700D02*
X121168800Y-87480700D01*
X121168800Y-87480700D02*
X121168800Y-93900700D01*
X121168800Y-93900700D02*
X121498800Y-93900700D01*
X137068000Y-64226000D02*
X137068000Y-64556000D01*
X137068000Y-64556000D02*
X130648000Y-64556000D01*
X130648000Y-64556000D02*
X130648000Y-64226000D01*
X137068000Y-62266000D02*
X137068000Y-61936000D01*
X137068000Y-61936000D02*
X130648000Y-61936000D01*
X130648000Y-61936000D02*
X130648000Y-62266000D01*
X130648000Y-65822000D02*
X130648000Y-65492000D01*
X130648000Y-65492000D02*
X137068000Y-65492000D01*
X137068000Y-65492000D02*
X137068000Y-65822000D01*
X130648000Y-67782000D02*
X130648000Y-68112000D01*
X130648000Y-68112000D02*
X137068000Y-68112000D01*
X137068000Y-68112000D02*
X137068000Y-67782000D01*
D11*
X76557000Y-110593000D02*
X76557000Y-110818000D01*
X79907000Y-110593000D02*
X79907000Y-110893000D01*
X79907000Y-113943000D02*
X79907000Y-113643000D01*
X76557000Y-113943000D02*
X76557000Y-113643000D01*
X76557000Y-110593000D02*
X79907000Y-110593000D01*
X76557000Y-113943000D02*
X79907000Y-113943000D01*
X76557000Y-110818000D02*
X75332000Y-110818000D01*
D12*
X101705920Y-53208880D02*
G75*
G02X99705920Y-53208880I-1000000J0D01*
G01*
X99705920Y-53208880D02*
X98055920Y-53208880D01*
X98055920Y-53208880D02*
X98055920Y-63488880D01*
X98055920Y-63488880D02*
X103355920Y-63488880D01*
X103355920Y-63488880D02*
X103355920Y-53208880D01*
X103355920Y-53208880D02*
X101705920Y-53208880D01*
X95565920Y-53148880D02*
X95565920Y-63548880D01*
X95565920Y-63548880D02*
X105845920Y-63548880D01*
X105845920Y-63548880D02*
X105845920Y-53148880D01*
X105845920Y-53148880D02*
X95565920Y-53148880D01*
X101126800Y-67770700D02*
G75*
G02X99126800Y-67770700I-1000000J0D01*
G01*
X99126800Y-67770700D02*
X97476800Y-67770700D01*
X97476800Y-67770700D02*
X97476800Y-78050700D01*
X97476800Y-78050700D02*
X102776800Y-78050700D01*
X102776800Y-78050700D02*
X102776800Y-67770700D01*
X102776800Y-67770700D02*
X101126800Y-67770700D01*
X94986800Y-67710700D02*
X94986800Y-78110700D01*
X94986800Y-78110700D02*
X105266800Y-78110700D01*
X105266800Y-78110700D02*
X105266800Y-67710700D01*
X105266800Y-67710700D02*
X94986800Y-67710700D01*
X84058000Y-81728000D02*
G75*
G02X82058000Y-81728000I-1000000J0D01*
G01*
X82058000Y-81728000D02*
X80408000Y-81728000D01*
X80408000Y-81728000D02*
X80408000Y-92008000D01*
X80408000Y-92008000D02*
X85708000Y-92008000D01*
X85708000Y-92008000D02*
X85708000Y-81728000D01*
X85708000Y-81728000D02*
X84058000Y-81728000D01*
X77918000Y-81668000D02*
X77918000Y-92068000D01*
X77918000Y-92068000D02*
X88198000Y-92068000D01*
X88198000Y-92068000D02*
X88198000Y-81668000D01*
X88198000Y-81668000D02*
X77918000Y-81668000D01*
X124444000Y-61916000D02*
G75*
G02X122444000Y-61916000I-1000000J0D01*
G01*
X122444000Y-61916000D02*
X120794000Y-61916000D01*
X120794000Y-61916000D02*
X120794000Y-72196000D01*
X120794000Y-72196000D02*
X126094000Y-72196000D01*
X126094000Y-72196000D02*
X126094000Y-61916000D01*
X126094000Y-61916000D02*
X124444000Y-61916000D01*
X118304000Y-61856000D02*
X118304000Y-72256000D01*
X118304000Y-72256000D02*
X128584000Y-72256000D01*
X128584000Y-72256000D02*
X128584000Y-61856000D01*
X128584000Y-61856000D02*
X118304000Y-61856000D01*
X111490000Y-85030000D02*
G75*
G02X109490000Y-85030000I-1000000J0D01*
G01*
X109490000Y-85030000D02*
X107840000Y-85030000D01*
X107840000Y-85030000D02*
X107840000Y-95310000D01*
X107840000Y-95310000D02*
X113140000Y-95310000D01*
X113140000Y-95310000D02*
X113140000Y-85030000D01*
X113140000Y-85030000D02*
X111490000Y-85030000D01*
X105350000Y-84970000D02*
X105350000Y-95370000D01*
X105350000Y-95370000D02*
X115630000Y-95370000D01*
X115630000Y-95370000D02*
X115630000Y-84970000D01*
X115630000Y-84970000D02*
X105350000Y-84970000D01*
X74640680Y-110071700D02*
X74640680Y-116321700D01*
X69590680Y-110071700D02*
X69590680Y-116321700D01*
X69590680Y-110071700D02*
G75*
G02X74640680Y-110071700I2525000J0D01*
G01*
X69590680Y-116321700D02*
G75*
G03X74640680Y-116321700I2525000J0D01*
G01*
X55286000Y-53000000D02*
G75*
G03X55286000Y-53000000I-2286000J0D01*
G01*
X149286000Y-53000000D02*
G75*
G03X149286000Y-53000000I-2286000J0D01*
G01*
X55286000Y-147000000D02*
G75*
G03X55286000Y-147000000I-2286000J0D01*
G01*
X149286000Y-147000000D02*
G75*
G03X149286000Y-147000000I-2286000J0D01*
G01*
D14*
X48698300Y-61824400D02*
X49398300Y-74624400D01*
X44698300Y-61824400D02*
X45398300Y-74624400D01*
X45698300Y-61824400D02*
X46398300Y-74624400D01*
X47698300Y-61824400D02*
X48398300Y-74624400D01*
X46698300Y-61824400D02*
X47398300Y-74624400D01*
X42698300Y-61824400D02*
X43398300Y-74624400D01*
X43698300Y-61824400D02*
X44398300Y-74624400D01*
X41698300Y-61824400D02*
X42398300Y-74624400D01*
X40698300Y-61824400D02*
X41398300Y-74624400D01*
X40698300Y-74624400D02*
X49898300Y-74624400D01*
X40698300Y-61824400D02*
X49898300Y-61824400D01*
X28698300Y-73024400D02*
X40698300Y-73024400D01*
X28698300Y-63424400D02*
X40698300Y-63424400D01*
X28698300Y-63424400D02*
X28698300Y-73024400D01*
X40698300Y-61824400D02*
X40698300Y-74624400D01*
X49898300Y-75624400D02*
X63598300Y-75624400D01*
X63598300Y-60824400D02*
X49898300Y-60824400D01*
X63598300Y-60824400D02*
X63598300Y-75624400D01*
X49898300Y-60824400D02*
X49898300Y-75624400D01*
X48965000Y-83516000D02*
X49665000Y-96316000D01*
X44965000Y-83516000D02*
X45665000Y-96316000D01*
X45965000Y-83516000D02*
X46665000Y-96316000D01*
X47965000Y-83516000D02*
X48665000Y-96316000D01*
X46965000Y-83516000D02*
X47665000Y-96316000D01*
X42965000Y-83516000D02*
X43665000Y-96316000D01*
X43965000Y-83516000D02*
X44665000Y-96316000D01*
X41965000Y-83516000D02*
X42665000Y-96316000D01*
X40965000Y-83516000D02*
X41665000Y-96316000D01*
X40965000Y-96316000D02*
X50165000Y-96316000D01*
X40965000Y-83516000D02*
X50165000Y-83516000D01*
X28965000Y-94716000D02*
X40965000Y-94716000D01*
X28965000Y-85116000D02*
X40965000Y-85116000D01*
X28965000Y-85116000D02*
X28965000Y-94716000D01*
X40965000Y-83516000D02*
X40965000Y-96316000D01*
X50165000Y-97316000D02*
X63865000Y-97316000D01*
X63865000Y-82516000D02*
X50165000Y-82516000D01*
X63865000Y-82516000D02*
X63865000Y-97316000D01*
X50165000Y-82516000D02*
X50165000Y-97316000D01*
D12*
X147929600Y-129387600D02*
X147929600Y-139547600D01*
X149199600Y-129387600D02*
X141579600Y-129387600D01*
X141579600Y-129387600D02*
X141579600Y-139547600D01*
X141579600Y-139547600D02*
X149199600Y-139547600D01*
X149199600Y-139547600D02*
X149199600Y-129387600D01*
X120724300Y-85472900D02*
X120724300Y-80352900D01*
X123344300Y-85472900D02*
X123344300Y-80352900D01*
X120724300Y-85472900D02*
X123344300Y-85472900D01*
X120724300Y-80352900D02*
X123344300Y-80352900D01*
X139650363Y-140964642D02*
G75*
G03X139650640Y-136353340I-1179723J2305722D01*
G01*
X137290917Y-140964642D02*
G75*
G02X137290640Y-136353340I1179723J2305722D01*
G01*
X137290917Y-140964642D02*
G75*
G03X139650640Y-140964500I1179723J2305722D01*
G01*
X141020640Y-138658920D02*
X135920640Y-138658920D01*
X141020640Y-138698920D02*
X135920640Y-138698920D01*
X141019640Y-138738920D02*
X135921640Y-138738920D01*
X141018640Y-138778920D02*
X135922640Y-138778920D01*
X141016640Y-138818920D02*
X135924640Y-138818920D01*
X141013640Y-138858920D02*
X135927640Y-138858920D01*
X141009640Y-138898920D02*
X135931640Y-138898920D01*
X141005640Y-138938920D02*
X139450640Y-138938920D01*
X137490640Y-138938920D02*
X135935640Y-138938920D01*
X141001640Y-138978920D02*
X139450640Y-138978920D01*
X137490640Y-138978920D02*
X135939640Y-138978920D01*
X140995640Y-139018920D02*
X139450640Y-139018920D01*
X137490640Y-139018920D02*
X135945640Y-139018920D01*
X140989640Y-139058920D02*
X139450640Y-139058920D01*
X137490640Y-139058920D02*
X135951640Y-139058920D01*
X140983640Y-139098920D02*
X139450640Y-139098920D01*
X137490640Y-139098920D02*
X135957640Y-139098920D01*
X140976640Y-139138920D02*
X139450640Y-139138920D01*
X137490640Y-139138920D02*
X135964640Y-139138920D01*
X140968640Y-139178920D02*
X139450640Y-139178920D01*
X137490640Y-139178920D02*
X135972640Y-139178920D01*
X140959640Y-139218920D02*
X139450640Y-139218920D01*
X137490640Y-139218920D02*
X135981640Y-139218920D01*
X140950640Y-139258920D02*
X139450640Y-139258920D01*
X137490640Y-139258920D02*
X135990640Y-139258920D01*
X140940640Y-139298920D02*
X139450640Y-139298920D01*
X137490640Y-139298920D02*
X136000640Y-139298920D01*
X140930640Y-139338920D02*
X139450640Y-139338920D01*
X137490640Y-139338920D02*
X136010640Y-139338920D01*
X140918640Y-139379920D02*
X139450640Y-139379920D01*
X137490640Y-139379920D02*
X136022640Y-139379920D01*
X140906640Y-139419920D02*
X139450640Y-139419920D01*
X137490640Y-139419920D02*
X136034640Y-139419920D01*
X140894640Y-139459920D02*
X139450640Y-139459920D01*
X137490640Y-139459920D02*
X136046640Y-139459920D01*
X140880640Y-139499920D02*
X139450640Y-139499920D01*
X137490640Y-139499920D02*
X136060640Y-139499920D01*
X140866640Y-139539920D02*
X139450640Y-139539920D01*
X137490640Y-139539920D02*
X136074640Y-139539920D01*
X140852640Y-139579920D02*
X139450640Y-139579920D01*
X137490640Y-139579920D02*
X136088640Y-139579920D01*
X140836640Y-139619920D02*
X139450640Y-139619920D01*
X137490640Y-139619920D02*
X136104640Y-139619920D01*
X140820640Y-139659920D02*
X139450640Y-139659920D01*
X137490640Y-139659920D02*
X136120640Y-139659920D01*
X140803640Y-139699920D02*
X139450640Y-139699920D01*
X137490640Y-139699920D02*
X136137640Y-139699920D01*
X140785640Y-139739920D02*
X139450640Y-139739920D01*
X137490640Y-139739920D02*
X136155640Y-139739920D01*
X140766640Y-139779920D02*
X139450640Y-139779920D01*
X137490640Y-139779920D02*
X136174640Y-139779920D01*
X140746640Y-139819920D02*
X139450640Y-139819920D01*
X137490640Y-139819920D02*
X136194640Y-139819920D01*
X140726640Y-139859920D02*
X139450640Y-139859920D01*
X137490640Y-139859920D02*
X136214640Y-139859920D01*
X140704640Y-139899920D02*
X139450640Y-139899920D01*
X137490640Y-139899920D02*
X136236640Y-139899920D01*
X140682640Y-139939920D02*
X139450640Y-139939920D01*
X137490640Y-139939920D02*
X136258640Y-139939920D01*
X140659640Y-139979920D02*
X139450640Y-139979920D01*
X137490640Y-139979920D02*
X136281640Y-139979920D01*
X140635640Y-140019920D02*
X139450640Y-140019920D01*
X137490640Y-140019920D02*
X136305640Y-140019920D01*
X140610640Y-140059920D02*
X139450640Y-140059920D01*
X137490640Y-140059920D02*
X136330640Y-140059920D01*
X140583640Y-140099920D02*
X139450640Y-140099920D01*
X137490640Y-140099920D02*
X136357640Y-140099920D01*
X140556640Y-140139920D02*
X139450640Y-140139920D01*
X137490640Y-140139920D02*
X136384640Y-140139920D01*
X140528640Y-140179920D02*
X139450640Y-140179920D01*
X137490640Y-140179920D02*
X136412640Y-140179920D01*
X140498640Y-140219920D02*
X139450640Y-140219920D01*
X137490640Y-140219920D02*
X136442640Y-140219920D01*
X140467640Y-140259920D02*
X139450640Y-140259920D01*
X137490640Y-140259920D02*
X136473640Y-140259920D01*
X140435640Y-140299920D02*
X139450640Y-140299920D01*
X137490640Y-140299920D02*
X136505640Y-140299920D01*
X140402640Y-140339920D02*
X139450640Y-140339920D01*
X137490640Y-140339920D02*
X136538640Y-140339920D01*
X140367640Y-140379920D02*
X139450640Y-140379920D01*
X137490640Y-140379920D02*
X136573640Y-140379920D01*
X140331640Y-140419920D02*
X139450640Y-140419920D01*
X137490640Y-140419920D02*
X136609640Y-140419920D01*
X140293640Y-140459920D02*
X139450640Y-140459920D01*
X137490640Y-140459920D02*
X136647640Y-140459920D01*
X140253640Y-140499920D02*
X139450640Y-140499920D01*
X137490640Y-140499920D02*
X136687640Y-140499920D01*
X140212640Y-140539920D02*
X139450640Y-140539920D01*
X137490640Y-140539920D02*
X136728640Y-140539920D01*
X140169640Y-140579920D02*
X139450640Y-140579920D01*
X137490640Y-140579920D02*
X136771640Y-140579920D01*
X140124640Y-140619920D02*
X139450640Y-140619920D01*
X137490640Y-140619920D02*
X136816640Y-140619920D01*
X140076640Y-140659920D02*
X139450640Y-140659920D01*
X137490640Y-140659920D02*
X136864640Y-140659920D01*
X140026640Y-140699920D02*
X139450640Y-140699920D01*
X137490640Y-140699920D02*
X136914640Y-140699920D01*
X139974640Y-140739920D02*
X139450640Y-140739920D01*
X137490640Y-140739920D02*
X136966640Y-140739920D01*
X139918640Y-140779920D02*
X139450640Y-140779920D01*
X137490640Y-140779920D02*
X137022640Y-140779920D01*
X139860640Y-140819920D02*
X139450640Y-140819920D01*
X137490640Y-140819920D02*
X137080640Y-140819920D01*
X139797640Y-140859920D02*
X139450640Y-140859920D01*
X137490640Y-140859920D02*
X137143640Y-140859920D01*
X139731640Y-140899920D02*
X137209640Y-140899920D01*
X139659640Y-140939920D02*
X137281640Y-140939920D01*
X139582640Y-140979920D02*
X137358640Y-140979920D01*
X139498640Y-141019920D02*
X137442640Y-141019920D01*
X139404640Y-141059920D02*
X137536640Y-141059920D01*
X139299640Y-141099920D02*
X137641640Y-141099920D01*
X139177640Y-141139920D02*
X137763640Y-141139920D01*
X139029640Y-141179920D02*
X137911640Y-141179920D01*
X138824640Y-141219920D02*
X138116640Y-141219920D01*
X138470640Y-135208920D02*
X138470640Y-136408920D01*
X139120640Y-135808920D02*
X137820640Y-135808920D01*
X146577680Y-115549040D02*
X141457680Y-115549040D01*
X146577680Y-112929040D02*
X141457680Y-112929040D01*
X146577680Y-115549040D02*
X146577680Y-112929040D01*
X141457680Y-115549040D02*
X141457680Y-112929040D01*
X139810800Y-129492700D02*
X137150800Y-129492700D01*
X139810800Y-132092700D02*
X139810800Y-129492700D01*
X137150800Y-132092700D02*
X137150800Y-129492700D01*
X139810800Y-132092700D02*
X137150800Y-132092700D01*
X139810800Y-133362700D02*
X139810800Y-134692700D01*
X139810800Y-134692700D02*
X138480800Y-134692700D01*
X141306560Y-127080640D02*
X141306560Y-116840640D01*
X145947560Y-127080640D02*
X145947560Y-116840640D01*
X141306560Y-127080640D02*
X145947560Y-127080640D01*
X141306560Y-116840640D02*
X145947560Y-116840640D01*
X142816560Y-127080640D02*
X142816560Y-116840640D01*
X141306560Y-123810640D02*
X142816560Y-123810640D01*
X141306560Y-120109640D02*
X142816560Y-120109640D01*
X56956000Y-118304000D02*
X54296000Y-118304000D01*
X56956000Y-136144000D02*
X56956000Y-118304000D01*
X54296000Y-136144000D02*
X54296000Y-118304000D01*
X56956000Y-136144000D02*
X54296000Y-136144000D01*
X56956000Y-137414000D02*
X56956000Y-138744000D01*
X56956000Y-138744000D02*
X55626000Y-138744000D01*
X62286000Y-102000000D02*
G75*
G03X62286000Y-102000000I-2286000J0D01*
G01*
X62286000Y-146000000D02*
G75*
G03X62286000Y-146000000I-2286000J0D01*
G01*
X139286000Y-102000000D02*
G75*
G03X139286000Y-102000000I-2286000J0D01*
G01*
X139286000Y-146000000D02*
G75*
G03X139286000Y-146000000I-2286000J0D01*
G01*
X146598000Y-112622960D02*
X141478000Y-112622960D01*
X146598000Y-110002960D02*
X141478000Y-110002960D01*
X146598000Y-112622960D02*
X146598000Y-110002960D01*
X141478000Y-112622960D02*
X141478000Y-110002960D01*
X130888800Y-145474700D02*
X130888800Y-154274700D01*
X130888800Y-154274700D02*
X121688800Y-154274700D01*
X128188800Y-139574700D02*
X130888800Y-139574700D01*
X130888800Y-139574700D02*
X130888800Y-141474700D01*
X121688800Y-154274700D02*
X121688800Y-139574700D01*
X121688800Y-139574700D02*
X124288800Y-139574700D01*
X60544400Y-59254700D02*
X63204400Y-59254700D01*
X60544400Y-56654700D02*
X60544400Y-59254700D01*
X63204400Y-56654700D02*
X63204400Y-59254700D01*
X60544400Y-56654700D02*
X63204400Y-56654700D01*
X60544400Y-55384700D02*
X60544400Y-54054700D01*
X60544400Y-54054700D02*
X61874400Y-54054700D01*
X127654680Y-119552080D02*
X122534680Y-119552080D01*
X127654680Y-116932080D02*
X122534680Y-116932080D01*
X127654680Y-119552080D02*
X127654680Y-116932080D01*
X122534680Y-119552080D02*
X122534680Y-116932080D01*
X122894800Y-102122800D02*
X122894800Y-102452800D01*
X122894800Y-102452800D02*
X116474800Y-102452800D01*
X116474800Y-102452800D02*
X116474800Y-102122800D01*
X122894800Y-100162800D02*
X122894800Y-99832800D01*
X122894800Y-99832800D02*
X116474800Y-99832800D01*
X116474800Y-99832800D02*
X116474800Y-100162800D01*
X122844000Y-105361300D02*
X122844000Y-105691300D01*
X122844000Y-105691300D02*
X116424000Y-105691300D01*
X116424000Y-105691300D02*
X116424000Y-105361300D01*
X122844000Y-103401300D02*
X122844000Y-103071300D01*
X122844000Y-103071300D02*
X116424000Y-103071300D01*
X116424000Y-103071300D02*
X116424000Y-103401300D01*
X128331400Y-104670300D02*
X128001400Y-104670300D01*
X128001400Y-104670300D02*
X128001400Y-98250300D01*
X128001400Y-98250300D02*
X128331400Y-98250300D01*
X130291400Y-104670300D02*
X130621400Y-104670300D01*
X130621400Y-104670300D02*
X130621400Y-98250300D01*
X130621400Y-98250300D02*
X130291400Y-98250300D01*
X125207200Y-104634740D02*
X124877200Y-104634740D01*
X124877200Y-104634740D02*
X124877200Y-98214740D01*
X124877200Y-98214740D02*
X125207200Y-98214740D01*
X127167200Y-104634740D02*
X127497200Y-104634740D01*
X127497200Y-104634740D02*
X127497200Y-98214740D01*
X127497200Y-98214740D02*
X127167200Y-98214740D01*
X135254560Y-108743040D02*
X135584560Y-108743040D01*
X135584560Y-108743040D02*
X135584560Y-115163040D01*
X135584560Y-115163040D02*
X135254560Y-115163040D01*
X133294560Y-108743040D02*
X132964560Y-108743040D01*
X132964560Y-108743040D02*
X132964560Y-115163040D01*
X132964560Y-115163040D02*
X133294560Y-115163040D01*
X138343200Y-108722720D02*
X138673200Y-108722720D01*
X138673200Y-108722720D02*
X138673200Y-115142720D01*
X138673200Y-115142720D02*
X138343200Y-115142720D01*
X136383200Y-108722720D02*
X136053200Y-108722720D01*
X136053200Y-108722720D02*
X136053200Y-115142720D01*
X136053200Y-115142720D02*
X136383200Y-115142720D01*
D11*
X129894081Y-112712405D02*
X130703605Y-112712405D01*
X130798843Y-112664786D01*
X130846462Y-112617167D01*
X130894081Y-112521929D01*
X130894081Y-112331452D01*
X130846462Y-112236214D01*
X130798843Y-112188595D01*
X130703605Y-112140976D01*
X129894081Y-112140976D01*
X129989319Y-111712405D02*
X129941700Y-111664786D01*
X129894081Y-111569548D01*
X129894081Y-111331452D01*
X129941700Y-111236214D01*
X129989319Y-111188595D01*
X130084557Y-111140976D01*
X130179795Y-111140976D01*
X130322652Y-111188595D01*
X130894081Y-111760024D01*
X130894081Y-111140976D01*
X86253581Y-73578957D02*
X85777390Y-73912291D01*
X86253581Y-74150386D02*
X85253581Y-74150386D01*
X85253581Y-73769433D01*
X85301200Y-73674195D01*
X85348819Y-73626576D01*
X85444057Y-73578957D01*
X85586914Y-73578957D01*
X85682152Y-73626576D01*
X85729771Y-73674195D01*
X85777390Y-73769433D01*
X85777390Y-74150386D01*
X86253581Y-72626576D02*
X86253581Y-73198005D01*
X86253581Y-72912291D02*
X85253581Y-72912291D01*
X85396438Y-73007529D01*
X85491676Y-73102767D01*
X85539295Y-73198005D01*
X85253581Y-71769433D02*
X85253581Y-71959910D01*
X85301200Y-72055148D01*
X85348819Y-72102767D01*
X85491676Y-72198005D01*
X85682152Y-72245624D01*
X86063105Y-72245624D01*
X86158343Y-72198005D01*
X86205962Y-72150386D01*
X86253581Y-72055148D01*
X86253581Y-71864671D01*
X86205962Y-71769433D01*
X86158343Y-71721814D01*
X86063105Y-71674195D01*
X85825010Y-71674195D01*
X85729771Y-71721814D01*
X85682152Y-71769433D01*
X85634533Y-71864671D01*
X85634533Y-72055148D01*
X85682152Y-72150386D01*
X85729771Y-72198005D01*
X85825010Y-72245624D01*
X88698343Y-73147157D02*
X88745962Y-73194776D01*
X88793581Y-73337633D01*
X88793581Y-73432871D01*
X88745962Y-73575729D01*
X88650724Y-73670967D01*
X88555486Y-73718586D01*
X88365010Y-73766205D01*
X88222152Y-73766205D01*
X88031676Y-73718586D01*
X87936438Y-73670967D01*
X87841200Y-73575729D01*
X87793581Y-73432871D01*
X87793581Y-73337633D01*
X87841200Y-73194776D01*
X87888819Y-73147157D01*
X88793581Y-72194776D02*
X88793581Y-72766205D01*
X88793581Y-72480491D02*
X87793581Y-72480491D01*
X87936438Y-72575729D01*
X88031676Y-72670967D01*
X88079295Y-72766205D01*
X88793581Y-71242395D02*
X88793581Y-71813824D01*
X88793581Y-71528110D02*
X87793581Y-71528110D01*
X87936438Y-71623348D01*
X88031676Y-71718586D01*
X88079295Y-71813824D01*
X98674395Y-127290581D02*
X98674395Y-128100105D01*
X98722014Y-128195343D01*
X98769633Y-128242962D01*
X98864871Y-128290581D01*
X99055348Y-128290581D01*
X99150586Y-128242962D01*
X99198205Y-128195343D01*
X99245824Y-128100105D01*
X99245824Y-127290581D01*
X100055348Y-127766771D02*
X100198205Y-127814390D01*
X100245824Y-127862010D01*
X100293443Y-127957248D01*
X100293443Y-128100105D01*
X100245824Y-128195343D01*
X100198205Y-128242962D01*
X100102967Y-128290581D01*
X99722014Y-128290581D01*
X99722014Y-127290581D01*
X100055348Y-127290581D01*
X100150586Y-127338200D01*
X100198205Y-127385819D01*
X100245824Y-127481057D01*
X100245824Y-127576295D01*
X100198205Y-127671533D01*
X100150586Y-127719152D01*
X100055348Y-127766771D01*
X99722014Y-127766771D01*
X101245824Y-128290581D02*
X100674395Y-128290581D01*
X100960109Y-128290581D02*
X100960109Y-127290581D01*
X100864871Y-127433438D01*
X100769633Y-127528676D01*
X100674395Y-127576295D01*
X96452205Y-130592581D02*
X96452205Y-130783057D01*
X96833158Y-130592581D02*
X96833158Y-130783057D01*
X97785539Y-130640200D02*
X97690301Y-130592581D01*
X97547444Y-130592581D01*
X97404586Y-130640200D01*
X97309348Y-130735438D01*
X97261729Y-130830676D01*
X97214110Y-131021152D01*
X97214110Y-131164010D01*
X97261729Y-131354486D01*
X97309348Y-131449724D01*
X97404586Y-131544962D01*
X97547444Y-131592581D01*
X97642682Y-131592581D01*
X97785539Y-131544962D01*
X97833158Y-131497343D01*
X97833158Y-131164010D01*
X97642682Y-131164010D01*
X98261729Y-131068771D02*
X98595063Y-131068771D01*
X98737920Y-131592581D02*
X98261729Y-131592581D01*
X98261729Y-130592581D01*
X98737920Y-130592581D01*
X99166491Y-131592581D02*
X99166491Y-130592581D01*
X99737920Y-131592581D01*
X99737920Y-130592581D01*
X100214110Y-131068771D02*
X100547444Y-131068771D01*
X100690301Y-131592581D02*
X100214110Y-131592581D01*
X100214110Y-130592581D01*
X100690301Y-130592581D01*
X101690301Y-131592581D02*
X101356967Y-131116390D01*
X101118872Y-131592581D02*
X101118872Y-130592581D01*
X101499825Y-130592581D01*
X101595063Y-130640200D01*
X101642682Y-130687819D01*
X101690301Y-130783057D01*
X101690301Y-130925914D01*
X101642682Y-131021152D01*
X101595063Y-131068771D01*
X101499825Y-131116390D01*
X101118872Y-131116390D01*
X102118872Y-131592581D02*
X102118872Y-130592581D01*
X103166491Y-131497343D02*
X103118872Y-131544962D01*
X102976015Y-131592581D01*
X102880777Y-131592581D01*
X102737919Y-131544962D01*
X102642681Y-131449724D01*
X102595062Y-131354486D01*
X102547443Y-131164010D01*
X102547443Y-131021152D01*
X102595062Y-130830676D01*
X102642681Y-130735438D01*
X102737919Y-130640200D01*
X102880777Y-130592581D01*
X102976015Y-130592581D01*
X103118872Y-130640200D01*
X103166491Y-130687819D01*
X103547443Y-130592581D02*
X103547443Y-130783057D01*
X103928396Y-130592581D02*
X103928396Y-130783057D01*
X94499847Y-129893962D02*
X94642704Y-129941581D01*
X94880800Y-129941581D01*
X94976038Y-129893962D01*
X95023657Y-129846343D01*
X95071276Y-129751105D01*
X95071276Y-129655867D01*
X95023657Y-129560629D01*
X94976038Y-129513010D01*
X94880800Y-129465390D01*
X94690323Y-129417771D01*
X94595085Y-129370152D01*
X94547466Y-129322533D01*
X94499847Y-129227295D01*
X94499847Y-129132057D01*
X94547466Y-129036819D01*
X94595085Y-128989200D01*
X94690323Y-128941581D01*
X94928419Y-128941581D01*
X95071276Y-128989200D01*
X95356990Y-128941581D02*
X95928419Y-128941581D01*
X95642704Y-129941581D02*
X95642704Y-128941581D01*
X96261752Y-129941581D02*
X96261752Y-128941581D01*
X96595086Y-129655867D01*
X96928419Y-128941581D01*
X96928419Y-129941581D01*
X97309371Y-128941581D02*
X97928419Y-128941581D01*
X97595085Y-129322533D01*
X97737943Y-129322533D01*
X97833181Y-129370152D01*
X97880800Y-129417771D01*
X97928419Y-129513010D01*
X97928419Y-129751105D01*
X97880800Y-129846343D01*
X97833181Y-129893962D01*
X97737943Y-129941581D01*
X97452228Y-129941581D01*
X97356990Y-129893962D01*
X97309371Y-129846343D01*
X98309371Y-129036819D02*
X98356990Y-128989200D01*
X98452228Y-128941581D01*
X98690324Y-128941581D01*
X98785562Y-128989200D01*
X98833181Y-129036819D01*
X98880800Y-129132057D01*
X98880800Y-129227295D01*
X98833181Y-129370152D01*
X98261752Y-129941581D01*
X98880800Y-129941581D01*
X99642705Y-129417771D02*
X99309371Y-129417771D01*
X99309371Y-129941581D02*
X99309371Y-128941581D01*
X99785562Y-128941581D01*
X100690324Y-129941581D02*
X100118895Y-129941581D01*
X100404609Y-129941581D02*
X100404609Y-128941581D01*
X100309371Y-129084438D01*
X100214133Y-129179676D01*
X100118895Y-129227295D01*
X101309371Y-128941581D02*
X101404610Y-128941581D01*
X101499848Y-128989200D01*
X101547467Y-129036819D01*
X101595086Y-129132057D01*
X101642705Y-129322533D01*
X101642705Y-129560629D01*
X101595086Y-129751105D01*
X101547467Y-129846343D01*
X101499848Y-129893962D01*
X101404610Y-129941581D01*
X101309371Y-129941581D01*
X101214133Y-129893962D01*
X101166514Y-129846343D01*
X101118895Y-129751105D01*
X101071276Y-129560629D01*
X101071276Y-129322533D01*
X101118895Y-129132057D01*
X101166514Y-129036819D01*
X101214133Y-128989200D01*
X101309371Y-128941581D01*
X101976038Y-128941581D02*
X102595086Y-128941581D01*
X102261752Y-129322533D01*
X102404610Y-129322533D01*
X102499848Y-129370152D01*
X102547467Y-129417771D01*
X102595086Y-129513010D01*
X102595086Y-129751105D01*
X102547467Y-129846343D01*
X102499848Y-129893962D01*
X102404610Y-129941581D01*
X102118895Y-129941581D01*
X102023657Y-129893962D01*
X101976038Y-129846343D01*
X103595086Y-129846343D02*
X103547467Y-129893962D01*
X103404610Y-129941581D01*
X103309372Y-129941581D01*
X103166514Y-129893962D01*
X103071276Y-129798724D01*
X103023657Y-129703486D01*
X102976038Y-129513010D01*
X102976038Y-129370152D01*
X103023657Y-129179676D01*
X103071276Y-129084438D01*
X103166514Y-128989200D01*
X103309372Y-128941581D01*
X103404610Y-128941581D01*
X103547467Y-128989200D01*
X103595086Y-129036819D01*
X104166514Y-129370152D02*
X104071276Y-129322533D01*
X104023657Y-129274914D01*
X103976038Y-129179676D01*
X103976038Y-129132057D01*
X104023657Y-129036819D01*
X104071276Y-128989200D01*
X104166514Y-128941581D01*
X104356991Y-128941581D01*
X104452229Y-128989200D01*
X104499848Y-129036819D01*
X104547467Y-129132057D01*
X104547467Y-129179676D01*
X104499848Y-129274914D01*
X104452229Y-129322533D01*
X104356991Y-129370152D01*
X104166514Y-129370152D01*
X104071276Y-129417771D01*
X104023657Y-129465390D01*
X103976038Y-129560629D01*
X103976038Y-129751105D01*
X104023657Y-129846343D01*
X104071276Y-129893962D01*
X104166514Y-129941581D01*
X104356991Y-129941581D01*
X104452229Y-129893962D01*
X104499848Y-129846343D01*
X104547467Y-129751105D01*
X104547467Y-129560629D01*
X104499848Y-129465390D01*
X104452229Y-129417771D01*
X104356991Y-129370152D01*
X104833181Y-128941581D02*
X105404610Y-128941581D01*
X105118895Y-129941581D02*
X105118895Y-128941581D01*
X106166515Y-128941581D02*
X105976038Y-128941581D01*
X105880800Y-128989200D01*
X105833181Y-129036819D01*
X105737943Y-129179676D01*
X105690324Y-129370152D01*
X105690324Y-129751105D01*
X105737943Y-129846343D01*
X105785562Y-129893962D01*
X105880800Y-129941581D01*
X106071277Y-129941581D01*
X106166515Y-129893962D01*
X106214134Y-129846343D01*
X106261753Y-129751105D01*
X106261753Y-129513010D01*
X106214134Y-129417771D01*
X106166515Y-129370152D01*
X106071277Y-129322533D01*
X105880800Y-129322533D01*
X105785562Y-129370152D01*
X105737943Y-129417771D01*
X105690324Y-129513010D01*
X72254787Y-55581301D02*
X72254787Y-56295587D01*
X72207167Y-56438444D01*
X72111929Y-56533682D01*
X71969072Y-56581301D01*
X71873834Y-56581301D01*
X72635739Y-55581301D02*
X73302406Y-55581301D01*
X72873834Y-56581301D01*
X72005867Y-61656981D02*
X72005867Y-62371267D01*
X71958247Y-62514124D01*
X71863009Y-62609362D01*
X71720152Y-62656981D01*
X71624914Y-62656981D01*
X72958248Y-61656981D02*
X72482057Y-61656981D01*
X72434438Y-62133171D01*
X72482057Y-62085552D01*
X72577295Y-62037933D01*
X72815391Y-62037933D01*
X72910629Y-62085552D01*
X72958248Y-62133171D01*
X73005867Y-62228410D01*
X73005867Y-62466505D01*
X72958248Y-62561743D01*
X72910629Y-62609362D01*
X72815391Y-62656981D01*
X72577295Y-62656981D01*
X72482057Y-62609362D01*
X72434438Y-62561743D01*
X69718181Y-96254795D02*
X68718181Y-96254795D01*
X68718181Y-96016700D01*
X68765800Y-95873842D01*
X68861038Y-95778604D01*
X68956276Y-95730985D01*
X69146752Y-95683366D01*
X69289610Y-95683366D01*
X69480086Y-95730985D01*
X69575324Y-95778604D01*
X69670562Y-95873842D01*
X69718181Y-96016700D01*
X69718181Y-96254795D01*
X68718181Y-95350033D02*
X68718181Y-94730985D01*
X69099133Y-95064319D01*
X69099133Y-94921461D01*
X69146752Y-94826223D01*
X69194371Y-94778604D01*
X69289610Y-94730985D01*
X69527705Y-94730985D01*
X69622943Y-94778604D01*
X69670562Y-94826223D01*
X69718181Y-94921461D01*
X69718181Y-95207176D01*
X69670562Y-95302414D01*
X69622943Y-95350033D01*
X66924181Y-96254795D02*
X65924181Y-96254795D01*
X65924181Y-96016700D01*
X65971800Y-95873842D01*
X66067038Y-95778604D01*
X66162276Y-95730985D01*
X66352752Y-95683366D01*
X66495610Y-95683366D01*
X66686086Y-95730985D01*
X66781324Y-95778604D01*
X66876562Y-95873842D01*
X66924181Y-96016700D01*
X66924181Y-96254795D01*
X66257514Y-94826223D02*
X66924181Y-94826223D01*
X65876562Y-95064319D02*
X66590848Y-95302414D01*
X66590848Y-94683366D01*
X104230443Y-101334866D02*
X104278062Y-101382485D01*
X104325681Y-101525342D01*
X104325681Y-101620580D01*
X104278062Y-101763438D01*
X104182824Y-101858676D01*
X104087586Y-101906295D01*
X103897110Y-101953914D01*
X103754252Y-101953914D01*
X103563776Y-101906295D01*
X103468538Y-101858676D01*
X103373300Y-101763438D01*
X103325681Y-101620580D01*
X103325681Y-101525342D01*
X103373300Y-101382485D01*
X103420919Y-101334866D01*
X104325681Y-100382485D02*
X104325681Y-100953914D01*
X104325681Y-100668200D02*
X103325681Y-100668200D01*
X103468538Y-100763438D01*
X103563776Y-100858676D01*
X103611395Y-100953914D01*
X81891143Y-106846666D02*
X81938762Y-106894285D01*
X81986381Y-107037142D01*
X81986381Y-107132380D01*
X81938762Y-107275238D01*
X81843524Y-107370476D01*
X81748286Y-107418095D01*
X81557810Y-107465714D01*
X81414952Y-107465714D01*
X81224476Y-107418095D01*
X81129238Y-107370476D01*
X81034000Y-107275238D01*
X80986381Y-107132380D01*
X80986381Y-107037142D01*
X81034000Y-106894285D01*
X81081619Y-106846666D01*
X81081619Y-106465714D02*
X81034000Y-106418095D01*
X80986381Y-106322857D01*
X80986381Y-106084761D01*
X81034000Y-105989523D01*
X81081619Y-105941904D01*
X81176857Y-105894285D01*
X81272095Y-105894285D01*
X81414952Y-105941904D01*
X81986381Y-106513333D01*
X81986381Y-105894285D01*
X147702543Y-80202066D02*
X147750162Y-80249685D01*
X147797781Y-80392542D01*
X147797781Y-80487780D01*
X147750162Y-80630638D01*
X147654924Y-80725876D01*
X147559686Y-80773495D01*
X147369210Y-80821114D01*
X147226352Y-80821114D01*
X147035876Y-80773495D01*
X146940638Y-80725876D01*
X146845400Y-80630638D01*
X146797781Y-80487780D01*
X146797781Y-80392542D01*
X146845400Y-80249685D01*
X146893019Y-80202066D01*
X146797781Y-79868733D02*
X146797781Y-79249685D01*
X147178733Y-79583019D01*
X147178733Y-79440161D01*
X147226352Y-79344923D01*
X147273971Y-79297304D01*
X147369210Y-79249685D01*
X147607305Y-79249685D01*
X147702543Y-79297304D01*
X147750162Y-79344923D01*
X147797781Y-79440161D01*
X147797781Y-79725876D01*
X147750162Y-79821114D01*
X147702543Y-79868733D01*
X147931143Y-85998666D02*
X147978762Y-86046285D01*
X148026381Y-86189142D01*
X148026381Y-86284380D01*
X147978762Y-86427238D01*
X147883524Y-86522476D01*
X147788286Y-86570095D01*
X147597810Y-86617714D01*
X147454952Y-86617714D01*
X147264476Y-86570095D01*
X147169238Y-86522476D01*
X147074000Y-86427238D01*
X147026381Y-86284380D01*
X147026381Y-86189142D01*
X147074000Y-86046285D01*
X147121619Y-85998666D01*
X147359714Y-85141523D02*
X148026381Y-85141523D01*
X146978762Y-85379619D02*
X147693048Y-85617714D01*
X147693048Y-84998666D01*
X144136134Y-59976343D02*
X144088515Y-60023962D01*
X143945658Y-60071581D01*
X143850420Y-60071581D01*
X143707562Y-60023962D01*
X143612324Y-59928724D01*
X143564705Y-59833486D01*
X143517086Y-59643010D01*
X143517086Y-59500152D01*
X143564705Y-59309676D01*
X143612324Y-59214438D01*
X143707562Y-59119200D01*
X143850420Y-59071581D01*
X143945658Y-59071581D01*
X144088515Y-59119200D01*
X144136134Y-59166819D01*
X145040896Y-59071581D02*
X144564705Y-59071581D01*
X144517086Y-59547771D01*
X144564705Y-59500152D01*
X144659943Y-59452533D01*
X144898039Y-59452533D01*
X144993277Y-59500152D01*
X145040896Y-59547771D01*
X145088515Y-59643010D01*
X145088515Y-59881105D01*
X145040896Y-59976343D01*
X144993277Y-60023962D01*
X144898039Y-60071581D01*
X144659943Y-60071581D01*
X144564705Y-60023962D01*
X144517086Y-59976343D01*
X84164443Y-103747866D02*
X84212062Y-103795485D01*
X84259681Y-103938342D01*
X84259681Y-104033580D01*
X84212062Y-104176438D01*
X84116824Y-104271676D01*
X84021586Y-104319295D01*
X83831110Y-104366914D01*
X83688252Y-104366914D01*
X83497776Y-104319295D01*
X83402538Y-104271676D01*
X83307300Y-104176438D01*
X83259681Y-104033580D01*
X83259681Y-103938342D01*
X83307300Y-103795485D01*
X83354919Y-103747866D01*
X83259681Y-102890723D02*
X83259681Y-103081200D01*
X83307300Y-103176438D01*
X83354919Y-103224057D01*
X83497776Y-103319295D01*
X83688252Y-103366914D01*
X84069205Y-103366914D01*
X84164443Y-103319295D01*
X84212062Y-103271676D01*
X84259681Y-103176438D01*
X84259681Y-102985961D01*
X84212062Y-102890723D01*
X84164443Y-102843104D01*
X84069205Y-102795485D01*
X83831110Y-102795485D01*
X83735871Y-102843104D01*
X83688252Y-102890723D01*
X83640633Y-102985961D01*
X83640633Y-103176438D01*
X83688252Y-103271676D01*
X83735871Y-103319295D01*
X83831110Y-103366914D01*
X140971543Y-66562266D02*
X141019162Y-66609885D01*
X141066781Y-66752742D01*
X141066781Y-66847980D01*
X141019162Y-66990838D01*
X140923924Y-67086076D01*
X140828686Y-67133695D01*
X140638210Y-67181314D01*
X140495352Y-67181314D01*
X140304876Y-67133695D01*
X140209638Y-67086076D01*
X140114400Y-66990838D01*
X140066781Y-66847980D01*
X140066781Y-66752742D01*
X140114400Y-66609885D01*
X140162019Y-66562266D01*
X140066781Y-66228933D02*
X140066781Y-65562266D01*
X141066781Y-65990838D01*
X89066643Y-54763966D02*
X89114262Y-54811585D01*
X89161881Y-54954442D01*
X89161881Y-55049680D01*
X89114262Y-55192538D01*
X89019024Y-55287776D01*
X88923786Y-55335395D01*
X88733310Y-55383014D01*
X88590452Y-55383014D01*
X88399976Y-55335395D01*
X88304738Y-55287776D01*
X88209500Y-55192538D01*
X88161881Y-55049680D01*
X88161881Y-54954442D01*
X88209500Y-54811585D01*
X88257119Y-54763966D01*
X88590452Y-54192538D02*
X88542833Y-54287776D01*
X88495214Y-54335395D01*
X88399976Y-54383014D01*
X88352357Y-54383014D01*
X88257119Y-54335395D01*
X88209500Y-54287776D01*
X88161881Y-54192538D01*
X88161881Y-54002061D01*
X88209500Y-53906823D01*
X88257119Y-53859204D01*
X88352357Y-53811585D01*
X88399976Y-53811585D01*
X88495214Y-53859204D01*
X88542833Y-53906823D01*
X88590452Y-54002061D01*
X88590452Y-54192538D01*
X88638071Y-54287776D01*
X88685690Y-54335395D01*
X88780929Y-54383014D01*
X88971405Y-54383014D01*
X89066643Y-54335395D01*
X89114262Y-54287776D01*
X89161881Y-54192538D01*
X89161881Y-54002061D01*
X89114262Y-53906823D01*
X89066643Y-53859204D01*
X88971405Y-53811585D01*
X88780929Y-53811585D01*
X88685690Y-53859204D01*
X88638071Y-53906823D01*
X88590452Y-54002061D01*
X89180943Y-57862766D02*
X89228562Y-57910385D01*
X89276181Y-58053242D01*
X89276181Y-58148480D01*
X89228562Y-58291338D01*
X89133324Y-58386576D01*
X89038086Y-58434195D01*
X88847610Y-58481814D01*
X88704752Y-58481814D01*
X88514276Y-58434195D01*
X88419038Y-58386576D01*
X88323800Y-58291338D01*
X88276181Y-58148480D01*
X88276181Y-58053242D01*
X88323800Y-57910385D01*
X88371419Y-57862766D01*
X89276181Y-57386576D02*
X89276181Y-57196100D01*
X89228562Y-57100861D01*
X89180943Y-57053242D01*
X89038086Y-56958004D01*
X88847610Y-56910385D01*
X88466657Y-56910385D01*
X88371419Y-56958004D01*
X88323800Y-57005623D01*
X88276181Y-57100861D01*
X88276181Y-57291338D01*
X88323800Y-57386576D01*
X88371419Y-57434195D01*
X88466657Y-57481814D01*
X88704752Y-57481814D01*
X88799990Y-57434195D01*
X88847610Y-57386576D01*
X88895229Y-57291338D01*
X88895229Y-57100861D01*
X88847610Y-57005623D01*
X88799990Y-56958004D01*
X88704752Y-56910385D01*
X88698343Y-70073757D02*
X88745962Y-70121376D01*
X88793581Y-70264233D01*
X88793581Y-70359471D01*
X88745962Y-70502329D01*
X88650724Y-70597567D01*
X88555486Y-70645186D01*
X88365010Y-70692805D01*
X88222152Y-70692805D01*
X88031676Y-70645186D01*
X87936438Y-70597567D01*
X87841200Y-70502329D01*
X87793581Y-70359471D01*
X87793581Y-70264233D01*
X87841200Y-70121376D01*
X87888819Y-70073757D01*
X88793581Y-69121376D02*
X88793581Y-69692805D01*
X88793581Y-69407091D02*
X87793581Y-69407091D01*
X87936438Y-69502329D01*
X88031676Y-69597567D01*
X88079295Y-69692805D01*
X87793581Y-68502329D02*
X87793581Y-68407090D01*
X87841200Y-68311852D01*
X87888819Y-68264233D01*
X87984057Y-68216614D01*
X88174533Y-68168995D01*
X88412629Y-68168995D01*
X88603105Y-68216614D01*
X88698343Y-68264233D01*
X88745962Y-68311852D01*
X88793581Y-68407090D01*
X88793581Y-68502329D01*
X88745962Y-68597567D01*
X88698343Y-68645186D01*
X88603105Y-68692805D01*
X88412629Y-68740424D01*
X88174533Y-68740424D01*
X87984057Y-68692805D01*
X87888819Y-68645186D01*
X87841200Y-68597567D01*
X87793581Y-68502329D01*
X72188343Y-85389957D02*
X72235962Y-85437576D01*
X72283581Y-85580433D01*
X72283581Y-85675671D01*
X72235962Y-85818529D01*
X72140724Y-85913767D01*
X72045486Y-85961386D01*
X71855010Y-86009005D01*
X71712152Y-86009005D01*
X71521676Y-85961386D01*
X71426438Y-85913767D01*
X71331200Y-85818529D01*
X71283581Y-85675671D01*
X71283581Y-85580433D01*
X71331200Y-85437576D01*
X71378819Y-85389957D01*
X72283581Y-84437576D02*
X72283581Y-85009005D01*
X72283581Y-84723291D02*
X71283581Y-84723291D01*
X71426438Y-84818529D01*
X71521676Y-84913767D01*
X71569295Y-85009005D01*
X71378819Y-84056624D02*
X71331200Y-84009005D01*
X71283581Y-83913767D01*
X71283581Y-83675671D01*
X71331200Y-83580433D01*
X71378819Y-83532814D01*
X71474057Y-83485195D01*
X71569295Y-83485195D01*
X71712152Y-83532814D01*
X72283581Y-84104243D01*
X72283581Y-83485195D01*
X72086743Y-88336357D02*
X72134362Y-88383976D01*
X72181981Y-88526833D01*
X72181981Y-88622071D01*
X72134362Y-88764929D01*
X72039124Y-88860167D01*
X71943886Y-88907786D01*
X71753410Y-88955405D01*
X71610552Y-88955405D01*
X71420076Y-88907786D01*
X71324838Y-88860167D01*
X71229600Y-88764929D01*
X71181981Y-88622071D01*
X71181981Y-88526833D01*
X71229600Y-88383976D01*
X71277219Y-88336357D01*
X72181981Y-87383976D02*
X72181981Y-87955405D01*
X72181981Y-87669691D02*
X71181981Y-87669691D01*
X71324838Y-87764929D01*
X71420076Y-87860167D01*
X71467695Y-87955405D01*
X71181981Y-87050643D02*
X71181981Y-86431595D01*
X71562933Y-86764929D01*
X71562933Y-86622071D01*
X71610552Y-86526833D01*
X71658171Y-86479214D01*
X71753410Y-86431595D01*
X71991505Y-86431595D01*
X72086743Y-86479214D01*
X72134362Y-86526833D01*
X72181981Y-86622071D01*
X72181981Y-86907786D01*
X72134362Y-87003024D01*
X72086743Y-87050643D01*
X89074263Y-61666357D02*
X89121882Y-61713976D01*
X89169501Y-61856833D01*
X89169501Y-61952071D01*
X89121882Y-62094929D01*
X89026644Y-62190167D01*
X88931406Y-62237786D01*
X88740930Y-62285405D01*
X88598072Y-62285405D01*
X88407596Y-62237786D01*
X88312358Y-62190167D01*
X88217120Y-62094929D01*
X88169501Y-61952071D01*
X88169501Y-61856833D01*
X88217120Y-61713976D01*
X88264739Y-61666357D01*
X89169501Y-60713976D02*
X89169501Y-61285405D01*
X89169501Y-60999691D02*
X88169501Y-60999691D01*
X88312358Y-61094929D01*
X88407596Y-61190167D01*
X88455215Y-61285405D01*
X88502834Y-59856833D02*
X89169501Y-59856833D01*
X88121882Y-60094929D02*
X88836168Y-60333024D01*
X88836168Y-59713976D01*
X88736443Y-76131657D02*
X88784062Y-76179276D01*
X88831681Y-76322133D01*
X88831681Y-76417371D01*
X88784062Y-76560229D01*
X88688824Y-76655467D01*
X88593586Y-76703086D01*
X88403110Y-76750705D01*
X88260252Y-76750705D01*
X88069776Y-76703086D01*
X87974538Y-76655467D01*
X87879300Y-76560229D01*
X87831681Y-76417371D01*
X87831681Y-76322133D01*
X87879300Y-76179276D01*
X87926919Y-76131657D01*
X88831681Y-75179276D02*
X88831681Y-75750705D01*
X88831681Y-75464991D02*
X87831681Y-75464991D01*
X87974538Y-75560229D01*
X88069776Y-75655467D01*
X88117395Y-75750705D01*
X87831681Y-74274514D02*
X87831681Y-74750705D01*
X88307871Y-74798324D01*
X88260252Y-74750705D01*
X88212633Y-74655467D01*
X88212633Y-74417371D01*
X88260252Y-74322133D01*
X88307871Y-74274514D01*
X88403110Y-74226895D01*
X88641205Y-74226895D01*
X88736443Y-74274514D01*
X88784062Y-74322133D01*
X88831681Y-74417371D01*
X88831681Y-74655467D01*
X88784062Y-74750705D01*
X88736443Y-74798324D01*
X71604143Y-91511357D02*
X71651762Y-91558976D01*
X71699381Y-91701833D01*
X71699381Y-91797071D01*
X71651762Y-91939929D01*
X71556524Y-92035167D01*
X71461286Y-92082786D01*
X71270810Y-92130405D01*
X71127952Y-92130405D01*
X70937476Y-92082786D01*
X70842238Y-92035167D01*
X70747000Y-91939929D01*
X70699381Y-91797071D01*
X70699381Y-91701833D01*
X70747000Y-91558976D01*
X70794619Y-91511357D01*
X71699381Y-90558976D02*
X71699381Y-91130405D01*
X71699381Y-90844691D02*
X70699381Y-90844691D01*
X70842238Y-90939929D01*
X70937476Y-91035167D01*
X70985095Y-91130405D01*
X70699381Y-89701833D02*
X70699381Y-89892310D01*
X70747000Y-89987548D01*
X70794619Y-90035167D01*
X70937476Y-90130405D01*
X71127952Y-90178024D01*
X71508905Y-90178024D01*
X71604143Y-90130405D01*
X71651762Y-90082786D01*
X71699381Y-89987548D01*
X71699381Y-89797071D01*
X71651762Y-89701833D01*
X71604143Y-89654214D01*
X71508905Y-89606595D01*
X71270810Y-89606595D01*
X71175571Y-89654214D01*
X71127952Y-89701833D01*
X71080333Y-89797071D01*
X71080333Y-89987548D01*
X71127952Y-90082786D01*
X71175571Y-90130405D01*
X71270810Y-90178024D01*
X89079343Y-64653397D02*
X89126962Y-64701016D01*
X89174581Y-64843873D01*
X89174581Y-64939111D01*
X89126962Y-65081969D01*
X89031724Y-65177207D01*
X88936486Y-65224826D01*
X88746010Y-65272445D01*
X88603152Y-65272445D01*
X88412676Y-65224826D01*
X88317438Y-65177207D01*
X88222200Y-65081969D01*
X88174581Y-64939111D01*
X88174581Y-64843873D01*
X88222200Y-64701016D01*
X88269819Y-64653397D01*
X89174581Y-63701016D02*
X89174581Y-64272445D01*
X89174581Y-63986731D02*
X88174581Y-63986731D01*
X88317438Y-64081969D01*
X88412676Y-64177207D01*
X88460295Y-64272445D01*
X88174581Y-63367683D02*
X88174581Y-62701016D01*
X89174581Y-63129588D01*
X88596743Y-79205057D02*
X88644362Y-79252676D01*
X88691981Y-79395533D01*
X88691981Y-79490771D01*
X88644362Y-79633629D01*
X88549124Y-79728867D01*
X88453886Y-79776486D01*
X88263410Y-79824105D01*
X88120552Y-79824105D01*
X87930076Y-79776486D01*
X87834838Y-79728867D01*
X87739600Y-79633629D01*
X87691981Y-79490771D01*
X87691981Y-79395533D01*
X87739600Y-79252676D01*
X87787219Y-79205057D01*
X88691981Y-78252676D02*
X88691981Y-78824105D01*
X88691981Y-78538391D02*
X87691981Y-78538391D01*
X87834838Y-78633629D01*
X87930076Y-78728867D01*
X87977695Y-78824105D01*
X88120552Y-77681248D02*
X88072933Y-77776486D01*
X88025314Y-77824105D01*
X87930076Y-77871724D01*
X87882457Y-77871724D01*
X87787219Y-77824105D01*
X87739600Y-77776486D01*
X87691981Y-77681248D01*
X87691981Y-77490771D01*
X87739600Y-77395533D01*
X87787219Y-77347914D01*
X87882457Y-77300295D01*
X87930076Y-77300295D01*
X88025314Y-77347914D01*
X88072933Y-77395533D01*
X88120552Y-77490771D01*
X88120552Y-77681248D01*
X88168171Y-77776486D01*
X88215790Y-77824105D01*
X88311029Y-77871724D01*
X88501505Y-77871724D01*
X88596743Y-77824105D01*
X88644362Y-77776486D01*
X88691981Y-77681248D01*
X88691981Y-77490771D01*
X88644362Y-77395533D01*
X88596743Y-77347914D01*
X88501505Y-77300295D01*
X88311029Y-77300295D01*
X88215790Y-77347914D01*
X88168171Y-77395533D01*
X88120552Y-77490771D01*
X71578743Y-94686357D02*
X71626362Y-94733976D01*
X71673981Y-94876833D01*
X71673981Y-94972071D01*
X71626362Y-95114929D01*
X71531124Y-95210167D01*
X71435886Y-95257786D01*
X71245410Y-95305405D01*
X71102552Y-95305405D01*
X70912076Y-95257786D01*
X70816838Y-95210167D01*
X70721600Y-95114929D01*
X70673981Y-94972071D01*
X70673981Y-94876833D01*
X70721600Y-94733976D01*
X70769219Y-94686357D01*
X71673981Y-93733976D02*
X71673981Y-94305405D01*
X71673981Y-94019691D02*
X70673981Y-94019691D01*
X70816838Y-94114929D01*
X70912076Y-94210167D01*
X70959695Y-94305405D01*
X71673981Y-93257786D02*
X71673981Y-93067310D01*
X71626362Y-92972071D01*
X71578743Y-92924452D01*
X71435886Y-92829214D01*
X71245410Y-92781595D01*
X70864457Y-92781595D01*
X70769219Y-92829214D01*
X70721600Y-92876833D01*
X70673981Y-92972071D01*
X70673981Y-93162548D01*
X70721600Y-93257786D01*
X70769219Y-93305405D01*
X70864457Y-93353024D01*
X71102552Y-93353024D01*
X71197790Y-93305405D01*
X71245410Y-93257786D01*
X71293029Y-93162548D01*
X71293029Y-92972071D01*
X71245410Y-92876833D01*
X71197790Y-92829214D01*
X71102552Y-92781595D01*
X106799143Y-58269143D02*
X106751524Y-58316762D01*
X106608667Y-58364381D01*
X106513429Y-58364381D01*
X106370571Y-58316762D01*
X106275333Y-58221524D01*
X106227714Y-58126286D01*
X106180095Y-57935810D01*
X106180095Y-57792952D01*
X106227714Y-57602476D01*
X106275333Y-57507238D01*
X106370571Y-57412000D01*
X106513429Y-57364381D01*
X106608667Y-57364381D01*
X106751524Y-57412000D01*
X106799143Y-57459619D01*
X107180095Y-57459619D02*
X107227714Y-57412000D01*
X107322952Y-57364381D01*
X107561048Y-57364381D01*
X107656286Y-57412000D01*
X107703905Y-57459619D01*
X107751524Y-57554857D01*
X107751524Y-57650095D01*
X107703905Y-57792952D01*
X107132476Y-58364381D01*
X107751524Y-58364381D01*
X108370571Y-57364381D02*
X108465810Y-57364381D01*
X108561048Y-57412000D01*
X108608667Y-57459619D01*
X108656286Y-57554857D01*
X108703905Y-57745333D01*
X108703905Y-57983429D01*
X108656286Y-58173905D01*
X108608667Y-58269143D01*
X108561048Y-58316762D01*
X108465810Y-58364381D01*
X108370571Y-58364381D01*
X108275333Y-58316762D01*
X108227714Y-58269143D01*
X108180095Y-58173905D01*
X108132476Y-57983429D01*
X108132476Y-57745333D01*
X108180095Y-57554857D01*
X108227714Y-57459619D01*
X108275333Y-57412000D01*
X108370571Y-57364381D01*
X106545143Y-80367143D02*
X106497524Y-80414762D01*
X106354667Y-80462381D01*
X106259429Y-80462381D01*
X106116571Y-80414762D01*
X106021333Y-80319524D01*
X105973714Y-80224286D01*
X105926095Y-80033810D01*
X105926095Y-79890952D01*
X105973714Y-79700476D01*
X106021333Y-79605238D01*
X106116571Y-79510000D01*
X106259429Y-79462381D01*
X106354667Y-79462381D01*
X106497524Y-79510000D01*
X106545143Y-79557619D01*
X106926095Y-79557619D02*
X106973714Y-79510000D01*
X107068952Y-79462381D01*
X107307048Y-79462381D01*
X107402286Y-79510000D01*
X107449905Y-79557619D01*
X107497524Y-79652857D01*
X107497524Y-79748095D01*
X107449905Y-79890952D01*
X106878476Y-80462381D01*
X107497524Y-80462381D01*
X108449905Y-80462381D02*
X107878476Y-80462381D01*
X108164190Y-80462381D02*
X108164190Y-79462381D01*
X108068952Y-79605238D01*
X107973714Y-79700476D01*
X107878476Y-79748095D01*
X107053143Y-51411143D02*
X107005524Y-51458762D01*
X106862667Y-51506381D01*
X106767429Y-51506381D01*
X106624571Y-51458762D01*
X106529333Y-51363524D01*
X106481714Y-51268286D01*
X106434095Y-51077810D01*
X106434095Y-50934952D01*
X106481714Y-50744476D01*
X106529333Y-50649238D01*
X106624571Y-50554000D01*
X106767429Y-50506381D01*
X106862667Y-50506381D01*
X107005524Y-50554000D01*
X107053143Y-50601619D01*
X107434095Y-50601619D02*
X107481714Y-50554000D01*
X107576952Y-50506381D01*
X107815048Y-50506381D01*
X107910286Y-50554000D01*
X107957905Y-50601619D01*
X108005524Y-50696857D01*
X108005524Y-50792095D01*
X107957905Y-50934952D01*
X107386476Y-51506381D01*
X108005524Y-51506381D01*
X108386476Y-50601619D02*
X108434095Y-50554000D01*
X108529333Y-50506381D01*
X108767429Y-50506381D01*
X108862667Y-50554000D01*
X108910286Y-50601619D01*
X108957905Y-50696857D01*
X108957905Y-50792095D01*
X108910286Y-50934952D01*
X108338857Y-51506381D01*
X108957905Y-51506381D01*
X106562923Y-68167523D02*
X106515304Y-68215142D01*
X106372447Y-68262761D01*
X106277209Y-68262761D01*
X106134351Y-68215142D01*
X106039113Y-68119904D01*
X105991494Y-68024666D01*
X105943875Y-67834190D01*
X105943875Y-67691332D01*
X105991494Y-67500856D01*
X106039113Y-67405618D01*
X106134351Y-67310380D01*
X106277209Y-67262761D01*
X106372447Y-67262761D01*
X106515304Y-67310380D01*
X106562923Y-67357999D01*
X106943875Y-67357999D02*
X106991494Y-67310380D01*
X107086732Y-67262761D01*
X107324828Y-67262761D01*
X107420066Y-67310380D01*
X107467685Y-67357999D01*
X107515304Y-67453237D01*
X107515304Y-67548475D01*
X107467685Y-67691332D01*
X106896256Y-68262761D01*
X107515304Y-68262761D01*
X107848637Y-67262761D02*
X108467685Y-67262761D01*
X108134351Y-67643713D01*
X108277209Y-67643713D01*
X108372447Y-67691332D01*
X108420066Y-67738951D01*
X108467685Y-67834190D01*
X108467685Y-68072285D01*
X108420066Y-68167523D01*
X108372447Y-68215142D01*
X108277209Y-68262761D01*
X107991494Y-68262761D01*
X107896256Y-68215142D01*
X107848637Y-68167523D01*
X93087143Y-90030857D02*
X93134762Y-90078476D01*
X93182381Y-90221333D01*
X93182381Y-90316571D01*
X93134762Y-90459429D01*
X93039524Y-90554667D01*
X92944286Y-90602286D01*
X92753810Y-90649905D01*
X92610952Y-90649905D01*
X92420476Y-90602286D01*
X92325238Y-90554667D01*
X92230000Y-90459429D01*
X92182381Y-90316571D01*
X92182381Y-90221333D01*
X92230000Y-90078476D01*
X92277619Y-90030857D01*
X92277619Y-89649905D02*
X92230000Y-89602286D01*
X92182381Y-89507048D01*
X92182381Y-89268952D01*
X92230000Y-89173714D01*
X92277619Y-89126095D01*
X92372857Y-89078476D01*
X92468095Y-89078476D01*
X92610952Y-89126095D01*
X93182381Y-89697524D01*
X93182381Y-89078476D01*
X92515714Y-88221333D02*
X93182381Y-88221333D01*
X92134762Y-88459429D02*
X92849048Y-88697524D01*
X92849048Y-88078476D01*
X92493863Y-87451203D02*
X92446244Y-87498822D01*
X92303387Y-87546441D01*
X92208149Y-87546441D01*
X92065291Y-87498822D01*
X91970053Y-87403584D01*
X91922434Y-87308346D01*
X91874815Y-87117870D01*
X91874815Y-86975012D01*
X91922434Y-86784536D01*
X91970053Y-86689298D01*
X92065291Y-86594060D01*
X92208149Y-86546441D01*
X92303387Y-86546441D01*
X92446244Y-86594060D01*
X92493863Y-86641679D01*
X92874815Y-86641679D02*
X92922434Y-86594060D01*
X93017672Y-86546441D01*
X93255768Y-86546441D01*
X93351006Y-86594060D01*
X93398625Y-86641679D01*
X93446244Y-86736917D01*
X93446244Y-86832155D01*
X93398625Y-86975012D01*
X92827196Y-87546441D01*
X93446244Y-87546441D01*
X94351006Y-86546441D02*
X93874815Y-86546441D01*
X93827196Y-87022631D01*
X93874815Y-86975012D01*
X93970053Y-86927393D01*
X94208149Y-86927393D01*
X94303387Y-86975012D01*
X94351006Y-87022631D01*
X94398625Y-87117870D01*
X94398625Y-87355965D01*
X94351006Y-87451203D01*
X94303387Y-87498822D01*
X94208149Y-87546441D01*
X93970053Y-87546441D01*
X93874815Y-87498822D01*
X93827196Y-87451203D01*
X116032043Y-67108343D02*
X115984424Y-67155962D01*
X115841567Y-67203581D01*
X115746329Y-67203581D01*
X115603471Y-67155962D01*
X115508233Y-67060724D01*
X115460614Y-66965486D01*
X115412995Y-66775010D01*
X115412995Y-66632152D01*
X115460614Y-66441676D01*
X115508233Y-66346438D01*
X115603471Y-66251200D01*
X115746329Y-66203581D01*
X115841567Y-66203581D01*
X115984424Y-66251200D01*
X116032043Y-66298819D01*
X116412995Y-66298819D02*
X116460614Y-66251200D01*
X116555852Y-66203581D01*
X116793948Y-66203581D01*
X116889186Y-66251200D01*
X116936805Y-66298819D01*
X116984424Y-66394057D01*
X116984424Y-66489295D01*
X116936805Y-66632152D01*
X116365376Y-67203581D01*
X116984424Y-67203581D01*
X117841567Y-66203581D02*
X117651090Y-66203581D01*
X117555852Y-66251200D01*
X117508233Y-66298819D01*
X117412995Y-66441676D01*
X117365376Y-66632152D01*
X117365376Y-67013105D01*
X117412995Y-67108343D01*
X117460614Y-67155962D01*
X117555852Y-67203581D01*
X117746329Y-67203581D01*
X117841567Y-67155962D01*
X117889186Y-67108343D01*
X117936805Y-67013105D01*
X117936805Y-66775010D01*
X117889186Y-66679771D01*
X117841567Y-66632152D01*
X117746329Y-66584533D01*
X117555852Y-66584533D01*
X117460614Y-66632152D01*
X117412995Y-66679771D01*
X117365376Y-66775010D01*
X124817143Y-76334857D02*
X124864762Y-76382476D01*
X124912381Y-76525333D01*
X124912381Y-76620571D01*
X124864762Y-76763429D01*
X124769524Y-76858667D01*
X124674286Y-76906286D01*
X124483810Y-76953905D01*
X124340952Y-76953905D01*
X124150476Y-76906286D01*
X124055238Y-76858667D01*
X123960000Y-76763429D01*
X123912381Y-76620571D01*
X123912381Y-76525333D01*
X123960000Y-76382476D01*
X124007619Y-76334857D01*
X124007619Y-75953905D02*
X123960000Y-75906286D01*
X123912381Y-75811048D01*
X123912381Y-75572952D01*
X123960000Y-75477714D01*
X124007619Y-75430095D01*
X124102857Y-75382476D01*
X124198095Y-75382476D01*
X124340952Y-75430095D01*
X124912381Y-76001524D01*
X124912381Y-75382476D01*
X123912381Y-75049143D02*
X123912381Y-74382476D01*
X124912381Y-74811048D01*
X101439743Y-92254343D02*
X101392124Y-92301962D01*
X101249267Y-92349581D01*
X101154029Y-92349581D01*
X101011171Y-92301962D01*
X100915933Y-92206724D01*
X100868314Y-92111486D01*
X100820695Y-91921010D01*
X100820695Y-91778152D01*
X100868314Y-91587676D01*
X100915933Y-91492438D01*
X101011171Y-91397200D01*
X101154029Y-91349581D01*
X101249267Y-91349581D01*
X101392124Y-91397200D01*
X101439743Y-91444819D01*
X101820695Y-91444819D02*
X101868314Y-91397200D01*
X101963552Y-91349581D01*
X102201648Y-91349581D01*
X102296886Y-91397200D01*
X102344505Y-91444819D01*
X102392124Y-91540057D01*
X102392124Y-91635295D01*
X102344505Y-91778152D01*
X101773076Y-92349581D01*
X102392124Y-92349581D01*
X102963552Y-91778152D02*
X102868314Y-91730533D01*
X102820695Y-91682914D01*
X102773076Y-91587676D01*
X102773076Y-91540057D01*
X102820695Y-91444819D01*
X102868314Y-91397200D01*
X102963552Y-91349581D01*
X103154029Y-91349581D01*
X103249267Y-91397200D01*
X103296886Y-91444819D01*
X103344505Y-91540057D01*
X103344505Y-91587676D01*
X103296886Y-91682914D01*
X103249267Y-91730533D01*
X103154029Y-91778152D01*
X102963552Y-91778152D01*
X102868314Y-91825771D01*
X102820695Y-91873390D01*
X102773076Y-91968629D01*
X102773076Y-92159105D01*
X102820695Y-92254343D01*
X102868314Y-92301962D01*
X102963552Y-92349581D01*
X103154029Y-92349581D01*
X103249267Y-92301962D01*
X103296886Y-92254343D01*
X103344505Y-92159105D01*
X103344505Y-91968629D01*
X103296886Y-91873390D01*
X103249267Y-91825771D01*
X103154029Y-91778152D01*
X118229143Y-54967143D02*
X118181524Y-55014762D01*
X118038667Y-55062381D01*
X117943429Y-55062381D01*
X117800571Y-55014762D01*
X117705333Y-54919524D01*
X117657714Y-54824286D01*
X117610095Y-54633810D01*
X117610095Y-54490952D01*
X117657714Y-54300476D01*
X117705333Y-54205238D01*
X117800571Y-54110000D01*
X117943429Y-54062381D01*
X118038667Y-54062381D01*
X118181524Y-54110000D01*
X118229143Y-54157619D01*
X118610095Y-54157619D02*
X118657714Y-54110000D01*
X118752952Y-54062381D01*
X118991048Y-54062381D01*
X119086286Y-54110000D01*
X119133905Y-54157619D01*
X119181524Y-54252857D01*
X119181524Y-54348095D01*
X119133905Y-54490952D01*
X118562476Y-55062381D01*
X119181524Y-55062381D01*
X119657714Y-55062381D02*
X119848190Y-55062381D01*
X119943429Y-55014762D01*
X119991048Y-54967143D01*
X120086286Y-54824286D01*
X120133905Y-54633810D01*
X120133905Y-54252857D01*
X120086286Y-54157619D01*
X120038667Y-54110000D01*
X119943429Y-54062381D01*
X119752952Y-54062381D01*
X119657714Y-54110000D01*
X119610095Y-54157619D01*
X119562476Y-54252857D01*
X119562476Y-54490952D01*
X119610095Y-54586190D01*
X119657714Y-54633810D01*
X119752952Y-54681429D01*
X119943429Y-54681429D01*
X120038667Y-54633810D01*
X120086286Y-54586190D01*
X120133905Y-54490952D01*
X120245143Y-76334857D02*
X120292762Y-76382476D01*
X120340381Y-76525333D01*
X120340381Y-76620571D01*
X120292762Y-76763429D01*
X120197524Y-76858667D01*
X120102286Y-76906286D01*
X119911810Y-76953905D01*
X119768952Y-76953905D01*
X119578476Y-76906286D01*
X119483238Y-76858667D01*
X119388000Y-76763429D01*
X119340381Y-76620571D01*
X119340381Y-76525333D01*
X119388000Y-76382476D01*
X119435619Y-76334857D01*
X119340381Y-76001524D02*
X119340381Y-75382476D01*
X119721333Y-75715810D01*
X119721333Y-75572952D01*
X119768952Y-75477714D01*
X119816571Y-75430095D01*
X119911810Y-75382476D01*
X120149905Y-75382476D01*
X120245143Y-75430095D01*
X120292762Y-75477714D01*
X120340381Y-75572952D01*
X120340381Y-75858667D01*
X120292762Y-75953905D01*
X120245143Y-76001524D01*
X119340381Y-74763429D02*
X119340381Y-74668190D01*
X119388000Y-74572952D01*
X119435619Y-74525333D01*
X119530857Y-74477714D01*
X119721333Y-74430095D01*
X119959429Y-74430095D01*
X120149905Y-74477714D01*
X120245143Y-74525333D01*
X120292762Y-74572952D01*
X120340381Y-74668190D01*
X120340381Y-74763429D01*
X120292762Y-74858667D01*
X120245143Y-74906286D01*
X120149905Y-74953905D01*
X119959429Y-75001524D01*
X119721333Y-75001524D01*
X119530857Y-74953905D01*
X119435619Y-74906286D01*
X119388000Y-74858667D01*
X119340381Y-74763429D01*
X116955843Y-98153457D02*
X117003462Y-98201076D01*
X117051081Y-98343933D01*
X117051081Y-98439171D01*
X117003462Y-98582029D01*
X116908224Y-98677267D01*
X116812986Y-98724886D01*
X116622510Y-98772505D01*
X116479652Y-98772505D01*
X116289176Y-98724886D01*
X116193938Y-98677267D01*
X116098700Y-98582029D01*
X116051081Y-98439171D01*
X116051081Y-98343933D01*
X116098700Y-98201076D01*
X116146319Y-98153457D01*
X116051081Y-97820124D02*
X116051081Y-97201076D01*
X116432033Y-97534410D01*
X116432033Y-97391552D01*
X116479652Y-97296314D01*
X116527271Y-97248695D01*
X116622510Y-97201076D01*
X116860605Y-97201076D01*
X116955843Y-97248695D01*
X117003462Y-97296314D01*
X117051081Y-97391552D01*
X117051081Y-97677267D01*
X117003462Y-97772505D01*
X116955843Y-97820124D01*
X117051081Y-96248695D02*
X117051081Y-96820124D01*
X117051081Y-96534410D02*
X116051081Y-96534410D01*
X116193938Y-96629648D01*
X116289176Y-96724886D01*
X116336795Y-96820124D01*
X121277143Y-54967143D02*
X121229524Y-55014762D01*
X121086667Y-55062381D01*
X120991429Y-55062381D01*
X120848571Y-55014762D01*
X120753333Y-54919524D01*
X120705714Y-54824286D01*
X120658095Y-54633810D01*
X120658095Y-54490952D01*
X120705714Y-54300476D01*
X120753333Y-54205238D01*
X120848571Y-54110000D01*
X120991429Y-54062381D01*
X121086667Y-54062381D01*
X121229524Y-54110000D01*
X121277143Y-54157619D01*
X121610476Y-54062381D02*
X122229524Y-54062381D01*
X121896190Y-54443333D01*
X122039048Y-54443333D01*
X122134286Y-54490952D01*
X122181905Y-54538571D01*
X122229524Y-54633810D01*
X122229524Y-54871905D01*
X122181905Y-54967143D01*
X122134286Y-55014762D01*
X122039048Y-55062381D01*
X121753333Y-55062381D01*
X121658095Y-55014762D01*
X121610476Y-54967143D01*
X122610476Y-54157619D02*
X122658095Y-54110000D01*
X122753333Y-54062381D01*
X122991429Y-54062381D01*
X123086667Y-54110000D01*
X123134286Y-54157619D01*
X123181905Y-54252857D01*
X123181905Y-54348095D01*
X123134286Y-54490952D01*
X122562857Y-55062381D01*
X123181905Y-55062381D01*
X119813343Y-83180157D02*
X119860962Y-83227776D01*
X119908581Y-83370633D01*
X119908581Y-83465871D01*
X119860962Y-83608729D01*
X119765724Y-83703967D01*
X119670486Y-83751586D01*
X119480010Y-83799205D01*
X119337152Y-83799205D01*
X119146676Y-83751586D01*
X119051438Y-83703967D01*
X118956200Y-83608729D01*
X118908581Y-83465871D01*
X118908581Y-83370633D01*
X118956200Y-83227776D01*
X119003819Y-83180157D01*
X118908581Y-82846824D02*
X118908581Y-82227776D01*
X119289533Y-82561110D01*
X119289533Y-82418252D01*
X119337152Y-82323014D01*
X119384771Y-82275395D01*
X119480010Y-82227776D01*
X119718105Y-82227776D01*
X119813343Y-82275395D01*
X119860962Y-82323014D01*
X119908581Y-82418252D01*
X119908581Y-82703967D01*
X119860962Y-82799205D01*
X119813343Y-82846824D01*
X118908581Y-81894443D02*
X118908581Y-81275395D01*
X119289533Y-81608729D01*
X119289533Y-81465871D01*
X119337152Y-81370633D01*
X119384771Y-81323014D01*
X119480010Y-81275395D01*
X119718105Y-81275395D01*
X119813343Y-81323014D01*
X119860962Y-81370633D01*
X119908581Y-81465871D01*
X119908581Y-81751586D01*
X119860962Y-81846824D01*
X119813343Y-81894443D01*
X79367143Y-148947143D02*
X79319524Y-148994762D01*
X79176667Y-149042381D01*
X79081429Y-149042381D01*
X78938571Y-148994762D01*
X78843333Y-148899524D01*
X78795714Y-148804286D01*
X78748095Y-148613810D01*
X78748095Y-148470952D01*
X78795714Y-148280476D01*
X78843333Y-148185238D01*
X78938571Y-148090000D01*
X79081429Y-148042381D01*
X79176667Y-148042381D01*
X79319524Y-148090000D01*
X79367143Y-148137619D01*
X79700476Y-148042381D02*
X80319524Y-148042381D01*
X79986190Y-148423333D01*
X80129048Y-148423333D01*
X80224286Y-148470952D01*
X80271905Y-148518571D01*
X80319524Y-148613810D01*
X80319524Y-148851905D01*
X80271905Y-148947143D01*
X80224286Y-148994762D01*
X80129048Y-149042381D01*
X79843333Y-149042381D01*
X79748095Y-148994762D01*
X79700476Y-148947143D01*
X81176667Y-148375714D02*
X81176667Y-149042381D01*
X80938571Y-147994762D02*
X80700476Y-148709048D01*
X81319524Y-148709048D01*
X85463143Y-148947143D02*
X85415524Y-148994762D01*
X85272667Y-149042381D01*
X85177429Y-149042381D01*
X85034571Y-148994762D01*
X84939333Y-148899524D01*
X84891714Y-148804286D01*
X84844095Y-148613810D01*
X84844095Y-148470952D01*
X84891714Y-148280476D01*
X84939333Y-148185238D01*
X85034571Y-148090000D01*
X85177429Y-148042381D01*
X85272667Y-148042381D01*
X85415524Y-148090000D01*
X85463143Y-148137619D01*
X85796476Y-148042381D02*
X86415524Y-148042381D01*
X86082190Y-148423333D01*
X86225048Y-148423333D01*
X86320286Y-148470952D01*
X86367905Y-148518571D01*
X86415524Y-148613810D01*
X86415524Y-148851905D01*
X86367905Y-148947143D01*
X86320286Y-148994762D01*
X86225048Y-149042381D01*
X85939333Y-149042381D01*
X85844095Y-148994762D01*
X85796476Y-148947143D01*
X87320286Y-148042381D02*
X86844095Y-148042381D01*
X86796476Y-148518571D01*
X86844095Y-148470952D01*
X86939333Y-148423333D01*
X87177429Y-148423333D01*
X87272667Y-148470952D01*
X87320286Y-148518571D01*
X87367905Y-148613810D01*
X87367905Y-148851905D01*
X87320286Y-148947143D01*
X87272667Y-148994762D01*
X87177429Y-149042381D01*
X86939333Y-149042381D01*
X86844095Y-148994762D01*
X86796476Y-148947143D01*
X99356943Y-149023343D02*
X99309324Y-149070962D01*
X99166467Y-149118581D01*
X99071229Y-149118581D01*
X98928371Y-149070962D01*
X98833133Y-148975724D01*
X98785514Y-148880486D01*
X98737895Y-148690010D01*
X98737895Y-148547152D01*
X98785514Y-148356676D01*
X98833133Y-148261438D01*
X98928371Y-148166200D01*
X99071229Y-148118581D01*
X99166467Y-148118581D01*
X99309324Y-148166200D01*
X99356943Y-148213819D01*
X99690276Y-148118581D02*
X100309324Y-148118581D01*
X99975990Y-148499533D01*
X100118848Y-148499533D01*
X100214086Y-148547152D01*
X100261705Y-148594771D01*
X100309324Y-148690010D01*
X100309324Y-148928105D01*
X100261705Y-149023343D01*
X100214086Y-149070962D01*
X100118848Y-149118581D01*
X99833133Y-149118581D01*
X99737895Y-149070962D01*
X99690276Y-149023343D01*
X101166467Y-148118581D02*
X100975990Y-148118581D01*
X100880752Y-148166200D01*
X100833133Y-148213819D01*
X100737895Y-148356676D01*
X100690276Y-148547152D01*
X100690276Y-148928105D01*
X100737895Y-149023343D01*
X100785514Y-149070962D01*
X100880752Y-149118581D01*
X101071229Y-149118581D01*
X101166467Y-149070962D01*
X101214086Y-149023343D01*
X101261705Y-148928105D01*
X101261705Y-148690010D01*
X101214086Y-148594771D01*
X101166467Y-148547152D01*
X101071229Y-148499533D01*
X100880752Y-148499533D01*
X100785514Y-148547152D01*
X100737895Y-148594771D01*
X100690276Y-148690010D01*
X68248305Y-72613781D02*
X68248305Y-71613781D01*
X68486400Y-71613781D01*
X68629258Y-71661400D01*
X68724496Y-71756638D01*
X68772115Y-71851876D01*
X68819734Y-72042352D01*
X68819734Y-72185210D01*
X68772115Y-72375686D01*
X68724496Y-72470924D01*
X68629258Y-72566162D01*
X68486400Y-72613781D01*
X68248305Y-72613781D01*
X69772115Y-72613781D02*
X69200686Y-72613781D01*
X69486400Y-72613781D02*
X69486400Y-71613781D01*
X69391162Y-71756638D01*
X69295924Y-71851876D01*
X69200686Y-71899495D01*
X68578505Y-69781681D02*
X68578505Y-68781681D01*
X68816600Y-68781681D01*
X68959458Y-68829300D01*
X69054696Y-68924538D01*
X69102315Y-69019776D01*
X69149934Y-69210252D01*
X69149934Y-69353110D01*
X69102315Y-69543586D01*
X69054696Y-69638824D01*
X68959458Y-69734062D01*
X68816600Y-69781681D01*
X68578505Y-69781681D01*
X69530886Y-68876919D02*
X69578505Y-68829300D01*
X69673743Y-68781681D01*
X69911839Y-68781681D01*
X70007077Y-68829300D01*
X70054696Y-68876919D01*
X70102315Y-68972157D01*
X70102315Y-69067395D01*
X70054696Y-69210252D01*
X69483267Y-69781681D01*
X70102315Y-69781681D01*
X69445547Y-50465741D02*
X69445547Y-51180027D01*
X69397927Y-51322884D01*
X69302689Y-51418122D01*
X69159832Y-51465741D01*
X69064594Y-51465741D01*
X69826499Y-50465741D02*
X70445547Y-50465741D01*
X70112213Y-50846693D01*
X70255071Y-50846693D01*
X70350309Y-50894312D01*
X70397928Y-50941931D01*
X70445547Y-51037170D01*
X70445547Y-51275265D01*
X70397928Y-51370503D01*
X70350309Y-51418122D01*
X70255071Y-51465741D01*
X69969356Y-51465741D01*
X69874118Y-51418122D01*
X69826499Y-51370503D01*
X66034327Y-61606181D02*
X66034327Y-62320467D01*
X65986707Y-62463324D01*
X65891469Y-62558562D01*
X65748612Y-62606181D01*
X65653374Y-62606181D01*
X66939089Y-61939514D02*
X66939089Y-62606181D01*
X66700993Y-61558562D02*
X66462898Y-62272848D01*
X67081946Y-62272848D01*
X66080047Y-55329841D02*
X66080047Y-56044127D01*
X66032427Y-56186984D01*
X65937189Y-56282222D01*
X65794332Y-56329841D01*
X65699094Y-56329841D01*
X66984809Y-55329841D02*
X66794332Y-55329841D01*
X66699094Y-55377460D01*
X66651475Y-55425079D01*
X66556237Y-55567936D01*
X66508618Y-55758412D01*
X66508618Y-56139365D01*
X66556237Y-56234603D01*
X66603856Y-56282222D01*
X66699094Y-56329841D01*
X66889571Y-56329841D01*
X66984809Y-56282222D01*
X67032428Y-56234603D01*
X67080047Y-56139365D01*
X67080047Y-55901270D01*
X67032428Y-55806031D01*
X66984809Y-55758412D01*
X66889571Y-55710793D01*
X66699094Y-55710793D01*
X66603856Y-55758412D01*
X66556237Y-55806031D01*
X66508618Y-55901270D01*
X143881577Y-93286781D02*
X143881577Y-94001067D01*
X143833957Y-94143924D01*
X143738719Y-94239162D01*
X143595862Y-94286781D01*
X143500624Y-94286781D01*
X144881577Y-94286781D02*
X144310148Y-94286781D01*
X144595862Y-94286781D02*
X144595862Y-93286781D01*
X144500624Y-93429638D01*
X144405386Y-93524876D01*
X144310148Y-93572495D01*
X145786339Y-93286781D02*
X145310148Y-93286781D01*
X145262529Y-93762971D01*
X145310148Y-93715352D01*
X145405386Y-93667733D01*
X145643482Y-93667733D01*
X145738720Y-93715352D01*
X145786339Y-93762971D01*
X145833958Y-93858210D01*
X145833958Y-94096305D01*
X145786339Y-94191543D01*
X145738720Y-94239162D01*
X145643482Y-94286781D01*
X145405386Y-94286781D01*
X145310148Y-94239162D01*
X145262529Y-94191543D01*
X96690381Y-115109523D02*
X97404667Y-115109523D01*
X97547524Y-115157143D01*
X97642762Y-115252381D01*
X97690381Y-115395238D01*
X97690381Y-115490476D01*
X97690381Y-114109523D02*
X97690381Y-114680952D01*
X97690381Y-114395238D02*
X96690381Y-114395238D01*
X96833238Y-114490476D01*
X96928476Y-114585714D01*
X96976095Y-114680952D01*
X96690381Y-113776190D02*
X96690381Y-113109523D01*
X97690381Y-113538095D01*
X75226967Y-74483981D02*
X75226967Y-75198267D01*
X75179347Y-75341124D01*
X75084109Y-75436362D01*
X74941252Y-75483981D01*
X74846014Y-75483981D01*
X75703157Y-75483981D02*
X75703157Y-74483981D01*
X76084110Y-74483981D01*
X76179348Y-74531600D01*
X76226967Y-74579219D01*
X76274586Y-74674457D01*
X76274586Y-74817314D01*
X76226967Y-74912552D01*
X76179348Y-74960171D01*
X76084110Y-75007790D01*
X75703157Y-75007790D01*
X77226967Y-75483981D02*
X76655538Y-75483981D01*
X76941252Y-75483981D02*
X76941252Y-74483981D01*
X76846014Y-74626838D01*
X76750776Y-74722076D01*
X76655538Y-74769695D01*
X78401967Y-74674481D02*
X78401967Y-75388767D01*
X78354347Y-75531624D01*
X78259109Y-75626862D01*
X78116252Y-75674481D01*
X78021014Y-75674481D01*
X78878157Y-75674481D02*
X78878157Y-74674481D01*
X79259110Y-74674481D01*
X79354348Y-74722100D01*
X79401967Y-74769719D01*
X79449586Y-74864957D01*
X79449586Y-75007814D01*
X79401967Y-75103052D01*
X79354348Y-75150671D01*
X79259110Y-75198290D01*
X78878157Y-75198290D01*
X79830538Y-74769719D02*
X79878157Y-74722100D01*
X79973395Y-74674481D01*
X80211491Y-74674481D01*
X80306729Y-74722100D01*
X80354348Y-74769719D01*
X80401967Y-74864957D01*
X80401967Y-74960195D01*
X80354348Y-75103052D01*
X79782919Y-75674481D01*
X80401967Y-75674481D01*
X141946334Y-77541381D02*
X141470143Y-77541381D01*
X141470143Y-76541381D01*
X142803477Y-77541381D02*
X142232048Y-77541381D01*
X142517762Y-77541381D02*
X142517762Y-76541381D01*
X142422524Y-76684238D01*
X142327286Y-76779476D01*
X142232048Y-76827095D01*
X69734134Y-106510081D02*
X69257943Y-106510081D01*
X69257943Y-105510081D01*
X70019848Y-105605319D02*
X70067467Y-105557700D01*
X70162705Y-105510081D01*
X70400801Y-105510081D01*
X70496039Y-105557700D01*
X70543658Y-105605319D01*
X70591277Y-105700557D01*
X70591277Y-105795795D01*
X70543658Y-105938652D01*
X69972229Y-106510081D01*
X70591277Y-106510081D01*
X111958381Y-58459666D02*
X111958381Y-58935857D01*
X110958381Y-58935857D01*
X110958381Y-58221571D02*
X110958381Y-57602523D01*
X111339333Y-57935857D01*
X111339333Y-57792999D01*
X111386952Y-57697761D01*
X111434571Y-57650142D01*
X111529810Y-57602523D01*
X111767905Y-57602523D01*
X111863143Y-57650142D01*
X111910762Y-57697761D01*
X111958381Y-57792999D01*
X111958381Y-58078714D01*
X111910762Y-58173952D01*
X111863143Y-58221571D01*
X110764581Y-73801266D02*
X110764581Y-74277457D01*
X109764581Y-74277457D01*
X110097914Y-73039361D02*
X110764581Y-73039361D01*
X109716962Y-73277457D02*
X110431248Y-73515552D01*
X110431248Y-72896504D01*
X99528334Y-85669381D02*
X99052143Y-85669381D01*
X99052143Y-84669381D01*
X100337858Y-84669381D02*
X99861667Y-84669381D01*
X99814048Y-85145571D01*
X99861667Y-85097952D01*
X99956905Y-85050333D01*
X100195001Y-85050333D01*
X100290239Y-85097952D01*
X100337858Y-85145571D01*
X100385477Y-85240810D01*
X100385477Y-85478905D01*
X100337858Y-85574143D01*
X100290239Y-85621762D01*
X100195001Y-85669381D01*
X99956905Y-85669381D01*
X99861667Y-85621762D01*
X99814048Y-85574143D01*
X87574381Y-110529666D02*
X87098190Y-110863000D01*
X87574381Y-111101095D02*
X86574381Y-111101095D01*
X86574381Y-110720142D01*
X86622000Y-110624904D01*
X86669619Y-110577285D01*
X86764857Y-110529666D01*
X86907714Y-110529666D01*
X87002952Y-110577285D01*
X87050571Y-110624904D01*
X87098190Y-110720142D01*
X87098190Y-111101095D01*
X87574381Y-109577285D02*
X87574381Y-110148714D01*
X87574381Y-109863000D02*
X86574381Y-109863000D01*
X86717238Y-109958238D01*
X86812476Y-110053476D01*
X86860095Y-110148714D01*
X90749381Y-110910666D02*
X90273190Y-111244000D01*
X90749381Y-111482095D02*
X89749381Y-111482095D01*
X89749381Y-111101142D01*
X89797000Y-111005904D01*
X89844619Y-110958285D01*
X89939857Y-110910666D01*
X90082714Y-110910666D01*
X90177952Y-110958285D01*
X90225571Y-111005904D01*
X90273190Y-111101142D01*
X90273190Y-111482095D01*
X89844619Y-110529714D02*
X89797000Y-110482095D01*
X89749381Y-110386857D01*
X89749381Y-110148761D01*
X89797000Y-110053523D01*
X89844619Y-110005904D01*
X89939857Y-109958285D01*
X90035095Y-109958285D01*
X90177952Y-110005904D01*
X90749381Y-110577333D01*
X90749381Y-109958285D01*
X141412934Y-74340981D02*
X141079600Y-73864790D01*
X140841505Y-74340981D02*
X140841505Y-73340981D01*
X141222458Y-73340981D01*
X141317696Y-73388600D01*
X141365315Y-73436219D01*
X141412934Y-73531457D01*
X141412934Y-73674314D01*
X141365315Y-73769552D01*
X141317696Y-73817171D01*
X141222458Y-73864790D01*
X140841505Y-73864790D01*
X141746267Y-73340981D02*
X142365315Y-73340981D01*
X142031981Y-73721933D01*
X142174839Y-73721933D01*
X142270077Y-73769552D01*
X142317696Y-73817171D01*
X142365315Y-73912410D01*
X142365315Y-74150505D01*
X142317696Y-74245743D01*
X142270077Y-74293362D01*
X142174839Y-74340981D01*
X141889124Y-74340981D01*
X141793886Y-74293362D01*
X141746267Y-74245743D01*
X141806634Y-70950081D02*
X141473300Y-70473890D01*
X141235205Y-70950081D02*
X141235205Y-69950081D01*
X141616158Y-69950081D01*
X141711396Y-69997700D01*
X141759015Y-70045319D01*
X141806634Y-70140557D01*
X141806634Y-70283414D01*
X141759015Y-70378652D01*
X141711396Y-70426271D01*
X141616158Y-70473890D01*
X141235205Y-70473890D01*
X142663777Y-70283414D02*
X142663777Y-70950081D01*
X142425681Y-69902462D02*
X142187586Y-70616748D01*
X142806634Y-70616748D01*
X83510381Y-73432966D02*
X83034190Y-73766300D01*
X83510381Y-74004395D02*
X82510381Y-74004395D01*
X82510381Y-73623442D01*
X82558000Y-73528204D01*
X82605619Y-73480585D01*
X82700857Y-73432966D01*
X82843714Y-73432966D01*
X82938952Y-73480585D01*
X82986571Y-73528204D01*
X83034190Y-73623442D01*
X83034190Y-74004395D01*
X82510381Y-72528204D02*
X82510381Y-73004395D01*
X82986571Y-73052014D01*
X82938952Y-73004395D01*
X82891333Y-72909157D01*
X82891333Y-72671061D01*
X82938952Y-72575823D01*
X82986571Y-72528204D01*
X83081810Y-72480585D01*
X83319905Y-72480585D01*
X83415143Y-72528204D01*
X83462762Y-72575823D01*
X83510381Y-72671061D01*
X83510381Y-72909157D01*
X83462762Y-73004395D01*
X83415143Y-73052014D01*
X78925681Y-62663366D02*
X78449490Y-62996700D01*
X78925681Y-63234795D02*
X77925681Y-63234795D01*
X77925681Y-62853842D01*
X77973300Y-62758604D01*
X78020919Y-62710985D01*
X78116157Y-62663366D01*
X78259014Y-62663366D01*
X78354252Y-62710985D01*
X78401871Y-62758604D01*
X78449490Y-62853842D01*
X78449490Y-63234795D01*
X77925681Y-61806223D02*
X77925681Y-61996700D01*
X77973300Y-62091938D01*
X78020919Y-62139557D01*
X78163776Y-62234795D01*
X78354252Y-62282414D01*
X78735205Y-62282414D01*
X78830443Y-62234795D01*
X78878062Y-62187176D01*
X78925681Y-62091938D01*
X78925681Y-61901461D01*
X78878062Y-61806223D01*
X78830443Y-61758604D01*
X78735205Y-61710985D01*
X78497110Y-61710985D01*
X78401871Y-61758604D01*
X78354252Y-61806223D01*
X78306633Y-61901461D01*
X78306633Y-62091938D01*
X78354252Y-62187176D01*
X78401871Y-62234795D01*
X78497110Y-62282414D01*
X82443581Y-63031666D02*
X81967390Y-63365000D01*
X82443581Y-63603095D02*
X81443581Y-63603095D01*
X81443581Y-63222142D01*
X81491200Y-63126904D01*
X81538819Y-63079285D01*
X81634057Y-63031666D01*
X81776914Y-63031666D01*
X81872152Y-63079285D01*
X81919771Y-63126904D01*
X81967390Y-63222142D01*
X81967390Y-63603095D01*
X81872152Y-62460238D02*
X81824533Y-62555476D01*
X81776914Y-62603095D01*
X81681676Y-62650714D01*
X81634057Y-62650714D01*
X81538819Y-62603095D01*
X81491200Y-62555476D01*
X81443581Y-62460238D01*
X81443581Y-62269761D01*
X81491200Y-62174523D01*
X81538819Y-62126904D01*
X81634057Y-62079285D01*
X81681676Y-62079285D01*
X81776914Y-62126904D01*
X81824533Y-62174523D01*
X81872152Y-62269761D01*
X81872152Y-62460238D01*
X81919771Y-62555476D01*
X81967390Y-62603095D01*
X82062629Y-62650714D01*
X82253105Y-62650714D01*
X82348343Y-62603095D01*
X82395962Y-62555476D01*
X82443581Y-62460238D01*
X82443581Y-62269761D01*
X82395962Y-62174523D01*
X82348343Y-62126904D01*
X82253105Y-62079285D01*
X82062629Y-62079285D01*
X81967390Y-62126904D01*
X81919771Y-62174523D01*
X81872152Y-62269761D01*
X88149134Y-101112581D02*
X87815800Y-100636390D01*
X87577705Y-101112581D02*
X87577705Y-100112581D01*
X87958658Y-100112581D01*
X88053896Y-100160200D01*
X88101515Y-100207819D01*
X88149134Y-100303057D01*
X88149134Y-100445914D01*
X88101515Y-100541152D01*
X88053896Y-100588771D01*
X87958658Y-100636390D01*
X87577705Y-100636390D01*
X88625324Y-101112581D02*
X88815800Y-101112581D01*
X88911039Y-101064962D01*
X88958658Y-101017343D01*
X89053896Y-100874486D01*
X89101515Y-100684010D01*
X89101515Y-100303057D01*
X89053896Y-100207819D01*
X89006277Y-100160200D01*
X88911039Y-100112581D01*
X88720562Y-100112581D01*
X88625324Y-100160200D01*
X88577705Y-100207819D01*
X88530086Y-100303057D01*
X88530086Y-100541152D01*
X88577705Y-100636390D01*
X88625324Y-100684010D01*
X88720562Y-100731629D01*
X88911039Y-100731629D01*
X89006277Y-100684010D01*
X89053896Y-100636390D01*
X89101515Y-100541152D01*
X85897981Y-63190357D02*
X85421790Y-63523691D01*
X85897981Y-63761786D02*
X84897981Y-63761786D01*
X84897981Y-63380833D01*
X84945600Y-63285595D01*
X84993219Y-63237976D01*
X85088457Y-63190357D01*
X85231314Y-63190357D01*
X85326552Y-63237976D01*
X85374171Y-63285595D01*
X85421790Y-63380833D01*
X85421790Y-63761786D01*
X85897981Y-62237976D02*
X85897981Y-62809405D01*
X85897981Y-62523691D02*
X84897981Y-62523691D01*
X85040838Y-62618929D01*
X85136076Y-62714167D01*
X85183695Y-62809405D01*
X85897981Y-61285595D02*
X85897981Y-61857024D01*
X85897981Y-61571310D02*
X84897981Y-61571310D01*
X85040838Y-61666548D01*
X85136076Y-61761786D01*
X85183695Y-61857024D01*
X82338943Y-53170081D02*
X82005609Y-52693890D01*
X81767514Y-53170081D02*
X81767514Y-52170081D01*
X82148467Y-52170081D01*
X82243705Y-52217700D01*
X82291324Y-52265319D01*
X82338943Y-52360557D01*
X82338943Y-52503414D01*
X82291324Y-52598652D01*
X82243705Y-52646271D01*
X82148467Y-52693890D01*
X81767514Y-52693890D01*
X83291324Y-53170081D02*
X82719895Y-53170081D01*
X83005609Y-53170081D02*
X83005609Y-52170081D01*
X82910371Y-52312938D01*
X82815133Y-52408176D01*
X82719895Y-52455795D01*
X83672276Y-52265319D02*
X83719895Y-52217700D01*
X83815133Y-52170081D01*
X84053229Y-52170081D01*
X84148467Y-52217700D01*
X84196086Y-52265319D01*
X84243705Y-52360557D01*
X84243705Y-52455795D01*
X84196086Y-52598652D01*
X83624657Y-53170081D01*
X84243705Y-53170081D01*
X82592943Y-56472081D02*
X82259609Y-55995890D01*
X82021514Y-56472081D02*
X82021514Y-55472081D01*
X82402467Y-55472081D01*
X82497705Y-55519700D01*
X82545324Y-55567319D01*
X82592943Y-55662557D01*
X82592943Y-55805414D01*
X82545324Y-55900652D01*
X82497705Y-55948271D01*
X82402467Y-55995890D01*
X82021514Y-55995890D01*
X83545324Y-56472081D02*
X82973895Y-56472081D01*
X83259609Y-56472081D02*
X83259609Y-55472081D01*
X83164371Y-55614938D01*
X83069133Y-55710176D01*
X82973895Y-55757795D01*
X83878657Y-55472081D02*
X84497705Y-55472081D01*
X84164371Y-55853033D01*
X84307229Y-55853033D01*
X84402467Y-55900652D01*
X84450086Y-55948271D01*
X84497705Y-56043510D01*
X84497705Y-56281605D01*
X84450086Y-56376843D01*
X84402467Y-56424462D01*
X84307229Y-56472081D01*
X84021514Y-56472081D01*
X83926276Y-56424462D01*
X83878657Y-56376843D01*
X87545943Y-98128081D02*
X87212609Y-97651890D01*
X86974514Y-98128081D02*
X86974514Y-97128081D01*
X87355467Y-97128081D01*
X87450705Y-97175700D01*
X87498324Y-97223319D01*
X87545943Y-97318557D01*
X87545943Y-97461414D01*
X87498324Y-97556652D01*
X87450705Y-97604271D01*
X87355467Y-97651890D01*
X86974514Y-97651890D01*
X88498324Y-98128081D02*
X87926895Y-98128081D01*
X88212609Y-98128081D02*
X88212609Y-97128081D01*
X88117371Y-97270938D01*
X88022133Y-97366176D01*
X87926895Y-97413795D01*
X89355467Y-97461414D02*
X89355467Y-98128081D01*
X89117371Y-97080462D02*
X88879276Y-97794748D01*
X89498324Y-97794748D01*
X75272663Y-78333861D02*
X74939329Y-77857670D01*
X74701234Y-78333861D02*
X74701234Y-77333861D01*
X75082187Y-77333861D01*
X75177425Y-77381480D01*
X75225044Y-77429099D01*
X75272663Y-77524337D01*
X75272663Y-77667194D01*
X75225044Y-77762432D01*
X75177425Y-77810051D01*
X75082187Y-77857670D01*
X74701234Y-77857670D01*
X76225044Y-78333861D02*
X75653615Y-78333861D01*
X75939329Y-78333861D02*
X75939329Y-77333861D01*
X75844091Y-77476718D01*
X75748853Y-77571956D01*
X75653615Y-77619575D01*
X77129806Y-77333861D02*
X76653615Y-77333861D01*
X76605996Y-77810051D01*
X76653615Y-77762432D01*
X76748853Y-77714813D01*
X76986949Y-77714813D01*
X77082187Y-77762432D01*
X77129806Y-77810051D01*
X77177425Y-77905290D01*
X77177425Y-78143385D01*
X77129806Y-78238623D01*
X77082187Y-78286242D01*
X76986949Y-78333861D01*
X76748853Y-78333861D01*
X76653615Y-78286242D01*
X76605996Y-78238623D01*
X66924181Y-86126557D02*
X66447990Y-86459891D01*
X66924181Y-86697986D02*
X65924181Y-86697986D01*
X65924181Y-86317033D01*
X65971800Y-86221795D01*
X66019419Y-86174176D01*
X66114657Y-86126557D01*
X66257514Y-86126557D01*
X66352752Y-86174176D01*
X66400371Y-86221795D01*
X66447990Y-86317033D01*
X66447990Y-86697986D01*
X66924181Y-85174176D02*
X66924181Y-85745605D01*
X66924181Y-85459891D02*
X65924181Y-85459891D01*
X66067038Y-85555129D01*
X66162276Y-85650367D01*
X66209895Y-85745605D01*
X65924181Y-84840843D02*
X65924181Y-84174176D01*
X66924181Y-84602748D01*
X69921381Y-86507557D02*
X69445190Y-86840891D01*
X69921381Y-87078986D02*
X68921381Y-87078986D01*
X68921381Y-86698033D01*
X68969000Y-86602795D01*
X69016619Y-86555176D01*
X69111857Y-86507557D01*
X69254714Y-86507557D01*
X69349952Y-86555176D01*
X69397571Y-86602795D01*
X69445190Y-86698033D01*
X69445190Y-87078986D01*
X69921381Y-85555176D02*
X69921381Y-86126605D01*
X69921381Y-85840891D02*
X68921381Y-85840891D01*
X69064238Y-85936129D01*
X69159476Y-86031367D01*
X69207095Y-86126605D01*
X69349952Y-84983748D02*
X69302333Y-85078986D01*
X69254714Y-85126605D01*
X69159476Y-85174224D01*
X69111857Y-85174224D01*
X69016619Y-85126605D01*
X68969000Y-85078986D01*
X68921381Y-84983748D01*
X68921381Y-84793271D01*
X68969000Y-84698033D01*
X69016619Y-84650414D01*
X69111857Y-84602795D01*
X69159476Y-84602795D01*
X69254714Y-84650414D01*
X69302333Y-84698033D01*
X69349952Y-84793271D01*
X69349952Y-84983748D01*
X69397571Y-85078986D01*
X69445190Y-85126605D01*
X69540429Y-85174224D01*
X69730905Y-85174224D01*
X69826143Y-85126605D01*
X69873762Y-85078986D01*
X69921381Y-84983748D01*
X69921381Y-84793271D01*
X69873762Y-84698033D01*
X69826143Y-84650414D01*
X69730905Y-84602795D01*
X69540429Y-84602795D01*
X69445190Y-84650414D01*
X69397571Y-84698033D01*
X69349952Y-84793271D01*
X99189303Y-66406021D02*
X98855969Y-65929830D01*
X98617874Y-66406021D02*
X98617874Y-65406021D01*
X98998827Y-65406021D01*
X99094065Y-65453640D01*
X99141684Y-65501259D01*
X99189303Y-65596497D01*
X99189303Y-65739354D01*
X99141684Y-65834592D01*
X99094065Y-65882211D01*
X98998827Y-65929830D01*
X98617874Y-65929830D01*
X100141684Y-66406021D02*
X99570255Y-66406021D01*
X99855969Y-66406021D02*
X99855969Y-65406021D01*
X99760731Y-65548878D01*
X99665493Y-65644116D01*
X99570255Y-65691735D01*
X100617874Y-66406021D02*
X100808350Y-66406021D01*
X100903589Y-66358402D01*
X100951208Y-66310783D01*
X101046446Y-66167926D01*
X101094065Y-65977450D01*
X101094065Y-65596497D01*
X101046446Y-65501259D01*
X100998827Y-65453640D01*
X100903589Y-65406021D01*
X100713112Y-65406021D01*
X100617874Y-65453640D01*
X100570255Y-65501259D01*
X100522636Y-65596497D01*
X100522636Y-65834592D01*
X100570255Y-65929830D01*
X100617874Y-65977450D01*
X100713112Y-66025069D01*
X100903589Y-66025069D01*
X100998827Y-65977450D01*
X101046446Y-65929830D01*
X101094065Y-65834592D01*
X99483943Y-80475081D02*
X99150609Y-79998890D01*
X98912514Y-80475081D02*
X98912514Y-79475081D01*
X99293467Y-79475081D01*
X99388705Y-79522700D01*
X99436324Y-79570319D01*
X99483943Y-79665557D01*
X99483943Y-79808414D01*
X99436324Y-79903652D01*
X99388705Y-79951271D01*
X99293467Y-79998890D01*
X98912514Y-79998890D01*
X99864895Y-79570319D02*
X99912514Y-79522700D01*
X100007752Y-79475081D01*
X100245848Y-79475081D01*
X100341086Y-79522700D01*
X100388705Y-79570319D01*
X100436324Y-79665557D01*
X100436324Y-79760795D01*
X100388705Y-79903652D01*
X99817276Y-80475081D01*
X100436324Y-80475081D01*
X101055371Y-79475081D02*
X101150610Y-79475081D01*
X101245848Y-79522700D01*
X101293467Y-79570319D01*
X101341086Y-79665557D01*
X101388705Y-79856033D01*
X101388705Y-80094129D01*
X101341086Y-80284605D01*
X101293467Y-80379843D01*
X101245848Y-80427462D01*
X101150610Y-80475081D01*
X101055371Y-80475081D01*
X100960133Y-80427462D01*
X100912514Y-80379843D01*
X100864895Y-80284605D01*
X100817276Y-80094129D01*
X100817276Y-79856033D01*
X100864895Y-79665557D01*
X100912514Y-79570319D01*
X100960133Y-79522700D01*
X101055371Y-79475081D01*
X82173843Y-94445081D02*
X81840509Y-93968890D01*
X81602414Y-94445081D02*
X81602414Y-93445081D01*
X81983367Y-93445081D01*
X82078605Y-93492700D01*
X82126224Y-93540319D01*
X82173843Y-93635557D01*
X82173843Y-93778414D01*
X82126224Y-93873652D01*
X82078605Y-93921271D01*
X81983367Y-93968890D01*
X81602414Y-93968890D01*
X82554795Y-93540319D02*
X82602414Y-93492700D01*
X82697652Y-93445081D01*
X82935748Y-93445081D01*
X83030986Y-93492700D01*
X83078605Y-93540319D01*
X83126224Y-93635557D01*
X83126224Y-93730795D01*
X83078605Y-93873652D01*
X82507176Y-94445081D01*
X83126224Y-94445081D01*
X84078605Y-94445081D02*
X83507176Y-94445081D01*
X83792890Y-94445081D02*
X83792890Y-93445081D01*
X83697652Y-93587938D01*
X83602414Y-93683176D01*
X83507176Y-93730795D01*
X115387381Y-59316857D02*
X114911190Y-59650191D01*
X115387381Y-59888286D02*
X114387381Y-59888286D01*
X114387381Y-59507333D01*
X114435000Y-59412095D01*
X114482619Y-59364476D01*
X114577857Y-59316857D01*
X114720714Y-59316857D01*
X114815952Y-59364476D01*
X114863571Y-59412095D01*
X114911190Y-59507333D01*
X114911190Y-59888286D01*
X114482619Y-58935905D02*
X114435000Y-58888286D01*
X114387381Y-58793048D01*
X114387381Y-58554952D01*
X114435000Y-58459714D01*
X114482619Y-58412095D01*
X114577857Y-58364476D01*
X114673095Y-58364476D01*
X114815952Y-58412095D01*
X115387381Y-58983524D01*
X115387381Y-58364476D01*
X114482619Y-57983524D02*
X114435000Y-57935905D01*
X114387381Y-57840667D01*
X114387381Y-57602571D01*
X114435000Y-57507333D01*
X114482619Y-57459714D01*
X114577857Y-57412095D01*
X114673095Y-57412095D01*
X114815952Y-57459714D01*
X115387381Y-58031143D01*
X115387381Y-57412095D01*
X114244381Y-76461857D02*
X113768190Y-76795191D01*
X114244381Y-77033286D02*
X113244381Y-77033286D01*
X113244381Y-76652333D01*
X113292000Y-76557095D01*
X113339619Y-76509476D01*
X113434857Y-76461857D01*
X113577714Y-76461857D01*
X113672952Y-76509476D01*
X113720571Y-76557095D01*
X113768190Y-76652333D01*
X113768190Y-77033286D01*
X113339619Y-76080905D02*
X113292000Y-76033286D01*
X113244381Y-75938048D01*
X113244381Y-75699952D01*
X113292000Y-75604714D01*
X113339619Y-75557095D01*
X113434857Y-75509476D01*
X113530095Y-75509476D01*
X113672952Y-75557095D01*
X114244381Y-76128524D01*
X114244381Y-75509476D01*
X113244381Y-75176143D02*
X113244381Y-74557095D01*
X113625333Y-74890429D01*
X113625333Y-74747571D01*
X113672952Y-74652333D01*
X113720571Y-74604714D01*
X113815810Y-74557095D01*
X114053905Y-74557095D01*
X114149143Y-74604714D01*
X114196762Y-74652333D01*
X114244381Y-74747571D01*
X114244381Y-75033286D01*
X114196762Y-75128524D01*
X114149143Y-75176143D01*
X98290143Y-89860381D02*
X97956809Y-89384190D01*
X97718714Y-89860381D02*
X97718714Y-88860381D01*
X98099667Y-88860381D01*
X98194905Y-88908000D01*
X98242524Y-88955619D01*
X98290143Y-89050857D01*
X98290143Y-89193714D01*
X98242524Y-89288952D01*
X98194905Y-89336571D01*
X98099667Y-89384190D01*
X97718714Y-89384190D01*
X98671095Y-88955619D02*
X98718714Y-88908000D01*
X98813952Y-88860381D01*
X99052048Y-88860381D01*
X99147286Y-88908000D01*
X99194905Y-88955619D01*
X99242524Y-89050857D01*
X99242524Y-89146095D01*
X99194905Y-89288952D01*
X98623476Y-89860381D01*
X99242524Y-89860381D01*
X100099667Y-89193714D02*
X100099667Y-89860381D01*
X99861571Y-88812762D02*
X99623476Y-89527048D01*
X100242524Y-89527048D01*
X109166423Y-66350141D02*
X108833089Y-65873950D01*
X108594994Y-66350141D02*
X108594994Y-65350141D01*
X108975947Y-65350141D01*
X109071185Y-65397760D01*
X109118804Y-65445379D01*
X109166423Y-65540617D01*
X109166423Y-65683474D01*
X109118804Y-65778712D01*
X109071185Y-65826331D01*
X108975947Y-65873950D01*
X108594994Y-65873950D01*
X109547375Y-65445379D02*
X109594994Y-65397760D01*
X109690232Y-65350141D01*
X109928328Y-65350141D01*
X110023566Y-65397760D01*
X110071185Y-65445379D01*
X110118804Y-65540617D01*
X110118804Y-65635855D01*
X110071185Y-65778712D01*
X109499756Y-66350141D01*
X110118804Y-66350141D01*
X111023566Y-65350141D02*
X110547375Y-65350141D01*
X110499756Y-65826331D01*
X110547375Y-65778712D01*
X110642613Y-65731093D01*
X110880709Y-65731093D01*
X110975947Y-65778712D01*
X111023566Y-65826331D01*
X111071185Y-65921570D01*
X111071185Y-66159665D01*
X111023566Y-66254903D01*
X110975947Y-66302522D01*
X110880709Y-66350141D01*
X110642613Y-66350141D01*
X110547375Y-66302522D01*
X110499756Y-66254903D01*
X110151943Y-82507081D02*
X109818609Y-82030890D01*
X109580514Y-82507081D02*
X109580514Y-81507081D01*
X109961467Y-81507081D01*
X110056705Y-81554700D01*
X110104324Y-81602319D01*
X110151943Y-81697557D01*
X110151943Y-81840414D01*
X110104324Y-81935652D01*
X110056705Y-81983271D01*
X109961467Y-82030890D01*
X109580514Y-82030890D01*
X110532895Y-81602319D02*
X110580514Y-81554700D01*
X110675752Y-81507081D01*
X110913848Y-81507081D01*
X111009086Y-81554700D01*
X111056705Y-81602319D01*
X111104324Y-81697557D01*
X111104324Y-81792795D01*
X111056705Y-81935652D01*
X110485276Y-82507081D01*
X111104324Y-82507081D01*
X111961467Y-81507081D02*
X111770990Y-81507081D01*
X111675752Y-81554700D01*
X111628133Y-81602319D01*
X111532895Y-81745176D01*
X111485276Y-81935652D01*
X111485276Y-82316605D01*
X111532895Y-82411843D01*
X111580514Y-82459462D01*
X111675752Y-82507081D01*
X111866229Y-82507081D01*
X111961467Y-82459462D01*
X112009086Y-82411843D01*
X112056705Y-82316605D01*
X112056705Y-82078510D01*
X112009086Y-81983271D01*
X111961467Y-81935652D01*
X111866229Y-81888033D01*
X111675752Y-81888033D01*
X111580514Y-81935652D01*
X111532895Y-81983271D01*
X111485276Y-82078510D01*
X93083143Y-94533981D02*
X92749809Y-94057790D01*
X92511714Y-94533981D02*
X92511714Y-93533981D01*
X92892667Y-93533981D01*
X92987905Y-93581600D01*
X93035524Y-93629219D01*
X93083143Y-93724457D01*
X93083143Y-93867314D01*
X93035524Y-93962552D01*
X92987905Y-94010171D01*
X92892667Y-94057790D01*
X92511714Y-94057790D01*
X93464095Y-93629219D02*
X93511714Y-93581600D01*
X93606952Y-93533981D01*
X93845048Y-93533981D01*
X93940286Y-93581600D01*
X93987905Y-93629219D01*
X94035524Y-93724457D01*
X94035524Y-93819695D01*
X93987905Y-93962552D01*
X93416476Y-94533981D01*
X94035524Y-94533981D01*
X94368857Y-93533981D02*
X95035524Y-93533981D01*
X94606952Y-94533981D01*
X129151143Y-59888381D02*
X128817809Y-59412190D01*
X128579714Y-59888381D02*
X128579714Y-58888381D01*
X128960667Y-58888381D01*
X129055905Y-58936000D01*
X129103524Y-58983619D01*
X129151143Y-59078857D01*
X129151143Y-59221714D01*
X129103524Y-59316952D01*
X129055905Y-59364571D01*
X128960667Y-59412190D01*
X128579714Y-59412190D01*
X129532095Y-58983619D02*
X129579714Y-58936000D01*
X129674952Y-58888381D01*
X129913048Y-58888381D01*
X130008286Y-58936000D01*
X130055905Y-58983619D01*
X130103524Y-59078857D01*
X130103524Y-59174095D01*
X130055905Y-59316952D01*
X129484476Y-59888381D01*
X130103524Y-59888381D01*
X130674952Y-59316952D02*
X130579714Y-59269333D01*
X130532095Y-59221714D01*
X130484476Y-59126476D01*
X130484476Y-59078857D01*
X130532095Y-58983619D01*
X130579714Y-58936000D01*
X130674952Y-58888381D01*
X130865429Y-58888381D01*
X130960667Y-58936000D01*
X131008286Y-58983619D01*
X131055905Y-59078857D01*
X131055905Y-59126476D01*
X131008286Y-59221714D01*
X130960667Y-59269333D01*
X130865429Y-59316952D01*
X130674952Y-59316952D01*
X130579714Y-59364571D01*
X130532095Y-59412190D01*
X130484476Y-59507429D01*
X130484476Y-59697905D01*
X130532095Y-59793143D01*
X130579714Y-59840762D01*
X130674952Y-59888381D01*
X130865429Y-59888381D01*
X130960667Y-59840762D01*
X131008286Y-59793143D01*
X131055905Y-59697905D01*
X131055905Y-59507429D01*
X131008286Y-59412190D01*
X130960667Y-59364571D01*
X130865429Y-59316952D01*
X119502181Y-91587557D02*
X119025990Y-91920891D01*
X119502181Y-92158986D02*
X118502181Y-92158986D01*
X118502181Y-91778033D01*
X118549800Y-91682795D01*
X118597419Y-91635176D01*
X118692657Y-91587557D01*
X118835514Y-91587557D01*
X118930752Y-91635176D01*
X118978371Y-91682795D01*
X119025990Y-91778033D01*
X119025990Y-92158986D01*
X118597419Y-91206605D02*
X118549800Y-91158986D01*
X118502181Y-91063748D01*
X118502181Y-90825652D01*
X118549800Y-90730414D01*
X118597419Y-90682795D01*
X118692657Y-90635176D01*
X118787895Y-90635176D01*
X118930752Y-90682795D01*
X119502181Y-91254224D01*
X119502181Y-90635176D01*
X119502181Y-90158986D02*
X119502181Y-89968510D01*
X119454562Y-89873271D01*
X119406943Y-89825652D01*
X119264086Y-89730414D01*
X119073610Y-89682795D01*
X118692657Y-89682795D01*
X118597419Y-89730414D01*
X118549800Y-89778033D01*
X118502181Y-89873271D01*
X118502181Y-90063748D01*
X118549800Y-90158986D01*
X118597419Y-90206605D01*
X118692657Y-90254224D01*
X118930752Y-90254224D01*
X119025990Y-90206605D01*
X119073610Y-90158986D01*
X119121229Y-90063748D01*
X119121229Y-89873271D01*
X119073610Y-89778033D01*
X119025990Y-89730414D01*
X118930752Y-89682795D01*
X129151143Y-56586381D02*
X128817809Y-56110190D01*
X128579714Y-56586381D02*
X128579714Y-55586381D01*
X128960667Y-55586381D01*
X129055905Y-55634000D01*
X129103524Y-55681619D01*
X129151143Y-55776857D01*
X129151143Y-55919714D01*
X129103524Y-56014952D01*
X129055905Y-56062571D01*
X128960667Y-56110190D01*
X128579714Y-56110190D01*
X129484476Y-55586381D02*
X130103524Y-55586381D01*
X129770190Y-55967333D01*
X129913048Y-55967333D01*
X130008286Y-56014952D01*
X130055905Y-56062571D01*
X130103524Y-56157810D01*
X130103524Y-56395905D01*
X130055905Y-56491143D01*
X130008286Y-56538762D01*
X129913048Y-56586381D01*
X129627333Y-56586381D01*
X129532095Y-56538762D01*
X129484476Y-56491143D01*
X130722571Y-55586381D02*
X130817810Y-55586381D01*
X130913048Y-55634000D01*
X130960667Y-55681619D01*
X131008286Y-55776857D01*
X131055905Y-55967333D01*
X131055905Y-56205429D01*
X131008286Y-56395905D01*
X130960667Y-56491143D01*
X130913048Y-56538762D01*
X130817810Y-56586381D01*
X130722571Y-56586381D01*
X130627333Y-56538762D01*
X130579714Y-56491143D01*
X130532095Y-56395905D01*
X130484476Y-56205429D01*
X130484476Y-55967333D01*
X130532095Y-55776857D01*
X130579714Y-55681619D01*
X130627333Y-55634000D01*
X130722571Y-55586381D01*
X122804181Y-91333557D02*
X122327990Y-91666891D01*
X122804181Y-91904986D02*
X121804181Y-91904986D01*
X121804181Y-91524033D01*
X121851800Y-91428795D01*
X121899419Y-91381176D01*
X121994657Y-91333557D01*
X122137514Y-91333557D01*
X122232752Y-91381176D01*
X122280371Y-91428795D01*
X122327990Y-91524033D01*
X122327990Y-91904986D01*
X121804181Y-91000224D02*
X121804181Y-90381176D01*
X122185133Y-90714510D01*
X122185133Y-90571652D01*
X122232752Y-90476414D01*
X122280371Y-90428795D01*
X122375610Y-90381176D01*
X122613705Y-90381176D01*
X122708943Y-90428795D01*
X122756562Y-90476414D01*
X122804181Y-90571652D01*
X122804181Y-90857367D01*
X122756562Y-90952605D01*
X122708943Y-91000224D01*
X122804181Y-89428795D02*
X122804181Y-90000224D01*
X122804181Y-89714510D02*
X121804181Y-89714510D01*
X121947038Y-89809748D01*
X122042276Y-89904986D01*
X122089895Y-90000224D01*
X132961143Y-63698381D02*
X132627809Y-63222190D01*
X132389714Y-63698381D02*
X132389714Y-62698381D01*
X132770667Y-62698381D01*
X132865905Y-62746000D01*
X132913524Y-62793619D01*
X132961143Y-62888857D01*
X132961143Y-63031714D01*
X132913524Y-63126952D01*
X132865905Y-63174571D01*
X132770667Y-63222190D01*
X132389714Y-63222190D01*
X133294476Y-62698381D02*
X133913524Y-62698381D01*
X133580190Y-63079333D01*
X133723048Y-63079333D01*
X133818286Y-63126952D01*
X133865905Y-63174571D01*
X133913524Y-63269810D01*
X133913524Y-63507905D01*
X133865905Y-63603143D01*
X133818286Y-63650762D01*
X133723048Y-63698381D01*
X133437333Y-63698381D01*
X133342095Y-63650762D01*
X133294476Y-63603143D01*
X134294476Y-62793619D02*
X134342095Y-62746000D01*
X134437333Y-62698381D01*
X134675429Y-62698381D01*
X134770667Y-62746000D01*
X134818286Y-62793619D01*
X134865905Y-62888857D01*
X134865905Y-62984095D01*
X134818286Y-63126952D01*
X134246857Y-63698381D01*
X134865905Y-63698381D01*
X133215143Y-67127381D02*
X132881809Y-66651190D01*
X132643714Y-67127381D02*
X132643714Y-66127381D01*
X133024667Y-66127381D01*
X133119905Y-66175000D01*
X133167524Y-66222619D01*
X133215143Y-66317857D01*
X133215143Y-66460714D01*
X133167524Y-66555952D01*
X133119905Y-66603571D01*
X133024667Y-66651190D01*
X132643714Y-66651190D01*
X133548476Y-66127381D02*
X134167524Y-66127381D01*
X133834190Y-66508333D01*
X133977048Y-66508333D01*
X134072286Y-66555952D01*
X134119905Y-66603571D01*
X134167524Y-66698810D01*
X134167524Y-66936905D01*
X134119905Y-67032143D01*
X134072286Y-67079762D01*
X133977048Y-67127381D01*
X133691333Y-67127381D01*
X133596095Y-67079762D01*
X133548476Y-67032143D01*
X134500857Y-66127381D02*
X135119905Y-66127381D01*
X134786571Y-66508333D01*
X134929429Y-66508333D01*
X135024667Y-66555952D01*
X135072286Y-66603571D01*
X135119905Y-66698810D01*
X135119905Y-66936905D01*
X135072286Y-67032143D01*
X135024667Y-67079762D01*
X134929429Y-67127381D01*
X134643714Y-67127381D01*
X134548476Y-67079762D01*
X134500857Y-67032143D01*
X77470095Y-114514381D02*
X77470095Y-115323905D01*
X77517714Y-115419143D01*
X77565333Y-115466762D01*
X77660571Y-115514381D01*
X77851048Y-115514381D01*
X77946286Y-115466762D01*
X77993905Y-115419143D01*
X78041524Y-115323905D01*
X78041524Y-114514381D01*
X79041524Y-115514381D02*
X78470095Y-115514381D01*
X78755809Y-115514381D02*
X78755809Y-114514381D01*
X78660571Y-114657238D01*
X78565333Y-114752476D01*
X78470095Y-114800095D01*
X100008015Y-54817261D02*
X100008015Y-55626785D01*
X100055634Y-55722023D01*
X100103253Y-55769642D01*
X100198491Y-55817261D01*
X100388968Y-55817261D01*
X100484206Y-55769642D01*
X100531825Y-55722023D01*
X100579444Y-55626785D01*
X100579444Y-54817261D01*
X100960396Y-54817261D02*
X101579444Y-54817261D01*
X101246110Y-55198213D01*
X101388968Y-55198213D01*
X101484206Y-55245832D01*
X101531825Y-55293451D01*
X101579444Y-55388690D01*
X101579444Y-55626785D01*
X101531825Y-55722023D01*
X101484206Y-55769642D01*
X101388968Y-55817261D01*
X101103253Y-55817261D01*
X101008015Y-55769642D01*
X100960396Y-55722023D01*
X99548895Y-69151081D02*
X99548895Y-69960605D01*
X99596514Y-70055843D01*
X99644133Y-70103462D01*
X99739371Y-70151081D01*
X99929848Y-70151081D01*
X100025086Y-70103462D01*
X100072705Y-70055843D01*
X100120324Y-69960605D01*
X100120324Y-69151081D01*
X101025086Y-69484414D02*
X101025086Y-70151081D01*
X100786990Y-69103462D02*
X100548895Y-69817748D01*
X101167943Y-69817748D01*
X82480095Y-83388381D02*
X82480095Y-84197905D01*
X82527714Y-84293143D01*
X82575333Y-84340762D01*
X82670571Y-84388381D01*
X82861048Y-84388381D01*
X82956286Y-84340762D01*
X83003905Y-84293143D01*
X83051524Y-84197905D01*
X83051524Y-83388381D01*
X84003905Y-83388381D02*
X83527714Y-83388381D01*
X83480095Y-83864571D01*
X83527714Y-83816952D01*
X83622952Y-83769333D01*
X83861048Y-83769333D01*
X83956286Y-83816952D01*
X84003905Y-83864571D01*
X84051524Y-83959810D01*
X84051524Y-84197905D01*
X84003905Y-84293143D01*
X83956286Y-84340762D01*
X83861048Y-84388381D01*
X83622952Y-84388381D01*
X83527714Y-84340762D01*
X83480095Y-84293143D01*
X122682095Y-63460381D02*
X122682095Y-64269905D01*
X122729714Y-64365143D01*
X122777333Y-64412762D01*
X122872571Y-64460381D01*
X123063048Y-64460381D01*
X123158286Y-64412762D01*
X123205905Y-64365143D01*
X123253524Y-64269905D01*
X123253524Y-63460381D01*
X124158286Y-63460381D02*
X123967809Y-63460381D01*
X123872571Y-63508000D01*
X123824952Y-63555619D01*
X123729714Y-63698476D01*
X123682095Y-63888952D01*
X123682095Y-64269905D01*
X123729714Y-64365143D01*
X123777333Y-64412762D01*
X123872571Y-64460381D01*
X124063048Y-64460381D01*
X124158286Y-64412762D01*
X124205905Y-64365143D01*
X124253524Y-64269905D01*
X124253524Y-64031810D01*
X124205905Y-63936571D01*
X124158286Y-63888952D01*
X124063048Y-63841333D01*
X123872571Y-63841333D01*
X123777333Y-63888952D01*
X123729714Y-63936571D01*
X123682095Y-64031810D01*
X109764095Y-86624381D02*
X109764095Y-87433905D01*
X109811714Y-87529143D01*
X109859333Y-87576762D01*
X109954571Y-87624381D01*
X110145048Y-87624381D01*
X110240286Y-87576762D01*
X110287905Y-87529143D01*
X110335524Y-87433905D01*
X110335524Y-86624381D01*
X110716476Y-86624381D02*
X111383143Y-86624381D01*
X110954571Y-87624381D01*
X72142670Y-113671291D02*
X72618861Y-113671291D01*
X71618861Y-114004624D02*
X72142670Y-113671291D01*
X71618861Y-113337957D01*
X72618861Y-112480814D02*
X72618861Y-113052243D01*
X72618861Y-112766529D02*
X71618861Y-112766529D01*
X71761718Y-112861767D01*
X71856956Y-112957005D01*
X71904575Y-113052243D01*
X52047877Y-55992781D02*
X52047877Y-56707067D01*
X52000257Y-56849924D01*
X51905019Y-56945162D01*
X51762162Y-56992781D01*
X51666924Y-56992781D01*
X53047877Y-56992781D02*
X52476448Y-56992781D01*
X52762162Y-56992781D02*
X52762162Y-55992781D01*
X52666924Y-56135638D01*
X52571686Y-56230876D01*
X52476448Y-56278495D01*
X53619305Y-56421352D02*
X53524067Y-56373733D01*
X53476448Y-56326114D01*
X53428829Y-56230876D01*
X53428829Y-56183257D01*
X53476448Y-56088019D01*
X53524067Y-56040400D01*
X53619305Y-55992781D01*
X53809782Y-55992781D01*
X53905020Y-56040400D01*
X53952639Y-56088019D01*
X54000258Y-56183257D01*
X54000258Y-56230876D01*
X53952639Y-56326114D01*
X53905020Y-56373733D01*
X53809782Y-56421352D01*
X53619305Y-56421352D01*
X53524067Y-56468971D01*
X53476448Y-56516590D01*
X53428829Y-56611829D01*
X53428829Y-56802305D01*
X53476448Y-56897543D01*
X53524067Y-56945162D01*
X53619305Y-56992781D01*
X53809782Y-56992781D01*
X53905020Y-56945162D01*
X53952639Y-56897543D01*
X54000258Y-56802305D01*
X54000258Y-56611829D01*
X53952639Y-56516590D01*
X53905020Y-56468971D01*
X53809782Y-56421352D01*
X146269177Y-55941981D02*
X146269177Y-56656267D01*
X146221557Y-56799124D01*
X146126319Y-56894362D01*
X145983462Y-56941981D01*
X145888224Y-56941981D01*
X147269177Y-56941981D02*
X146697748Y-56941981D01*
X146983462Y-56941981D02*
X146983462Y-55941981D01*
X146888224Y-56084838D01*
X146792986Y-56180076D01*
X146697748Y-56227695D01*
X147745367Y-56941981D02*
X147935843Y-56941981D01*
X148031082Y-56894362D01*
X148078701Y-56846743D01*
X148173939Y-56703886D01*
X148221558Y-56513410D01*
X148221558Y-56132457D01*
X148173939Y-56037219D01*
X148126320Y-55989600D01*
X148031082Y-55941981D01*
X147840605Y-55941981D01*
X147745367Y-55989600D01*
X147697748Y-56037219D01*
X147650129Y-56132457D01*
X147650129Y-56370552D01*
X147697748Y-56465790D01*
X147745367Y-56513410D01*
X147840605Y-56561029D01*
X148031082Y-56561029D01*
X148126320Y-56513410D01*
X148173939Y-56465790D01*
X148221558Y-56370552D01*
X52190477Y-143404381D02*
X52190477Y-144118667D01*
X52142857Y-144261524D01*
X52047619Y-144356762D01*
X51904762Y-144404381D01*
X51809524Y-144404381D01*
X52619048Y-143499619D02*
X52666667Y-143452000D01*
X52761905Y-143404381D01*
X53000001Y-143404381D01*
X53095239Y-143452000D01*
X53142858Y-143499619D01*
X53190477Y-143594857D01*
X53190477Y-143690095D01*
X53142858Y-143832952D01*
X52571429Y-144404381D01*
X53190477Y-144404381D01*
X53809524Y-143404381D02*
X53904763Y-143404381D01*
X54000001Y-143452000D01*
X54047620Y-143499619D01*
X54095239Y-143594857D01*
X54142858Y-143785333D01*
X54142858Y-144023429D01*
X54095239Y-144213905D01*
X54047620Y-144309143D01*
X54000001Y-144356762D01*
X53904763Y-144404381D01*
X53809524Y-144404381D01*
X53714286Y-144356762D01*
X53666667Y-144309143D01*
X53619048Y-144213905D01*
X53571429Y-144023429D01*
X53571429Y-143785333D01*
X53619048Y-143594857D01*
X53666667Y-143499619D01*
X53714286Y-143452000D01*
X53809524Y-143404381D01*
X146190477Y-143404381D02*
X146190477Y-144118667D01*
X146142857Y-144261524D01*
X146047619Y-144356762D01*
X145904762Y-144404381D01*
X145809524Y-144404381D01*
X146619048Y-143499619D02*
X146666667Y-143452000D01*
X146761905Y-143404381D01*
X147000001Y-143404381D01*
X147095239Y-143452000D01*
X147142858Y-143499619D01*
X147190477Y-143594857D01*
X147190477Y-143690095D01*
X147142858Y-143832952D01*
X146571429Y-144404381D01*
X147190477Y-144404381D01*
X148142858Y-144404381D02*
X147571429Y-144404381D01*
X147857143Y-144404381D02*
X147857143Y-143404381D01*
X147761905Y-143547238D01*
X147666667Y-143642476D01*
X147571429Y-143690095D01*
D13*
X61401367Y-75944481D02*
X61401367Y-76658767D01*
X61353747Y-76801624D01*
X61258509Y-76896862D01*
X61115652Y-76944481D01*
X61020414Y-76944481D01*
X61829938Y-76039719D02*
X61877557Y-75992100D01*
X61972795Y-75944481D01*
X62210891Y-75944481D01*
X62306129Y-75992100D01*
X62353748Y-76039719D01*
X62401367Y-76134957D01*
X62401367Y-76230195D01*
X62353748Y-76373052D01*
X61782319Y-76944481D01*
X62401367Y-76944481D01*
X59386743Y-72719676D02*
X59434362Y-72767295D01*
X59481981Y-72910152D01*
X59481981Y-73005390D01*
X59434362Y-73148248D01*
X59339124Y-73243486D01*
X59243886Y-73291105D01*
X59053410Y-73338724D01*
X58910552Y-73338724D01*
X58720076Y-73291105D01*
X58624838Y-73243486D01*
X58529600Y-73148248D01*
X58481981Y-73005390D01*
X58481981Y-72910152D01*
X58529600Y-72767295D01*
X58577219Y-72719676D01*
X59481981Y-72148248D02*
X59434362Y-72243486D01*
X59386743Y-72291105D01*
X59291505Y-72338724D01*
X59005790Y-72338724D01*
X58910552Y-72291105D01*
X58862933Y-72243486D01*
X58815314Y-72148248D01*
X58815314Y-72005390D01*
X58862933Y-71910152D01*
X58910552Y-71862533D01*
X59005790Y-71814914D01*
X59291505Y-71814914D01*
X59386743Y-71862533D01*
X59434362Y-71910152D01*
X59481981Y-72005390D01*
X59481981Y-72148248D01*
X58815314Y-71386343D02*
X59481981Y-71386343D01*
X58910552Y-71386343D02*
X58862933Y-71338724D01*
X58815314Y-71243486D01*
X58815314Y-71100628D01*
X58862933Y-71005390D01*
X58958171Y-70957771D01*
X59481981Y-70957771D01*
X58815314Y-70481581D02*
X59481981Y-70481581D01*
X58910552Y-70481581D02*
X58862933Y-70433962D01*
X58815314Y-70338724D01*
X58815314Y-70195866D01*
X58862933Y-70100628D01*
X58958171Y-70053009D01*
X59481981Y-70053009D01*
X59577219Y-69814914D02*
X59577219Y-69053009D01*
X59386743Y-68243485D02*
X59434362Y-68291104D01*
X59481981Y-68433961D01*
X59481981Y-68529199D01*
X59434362Y-68672057D01*
X59339124Y-68767295D01*
X59243886Y-68814914D01*
X59053410Y-68862533D01*
X58910552Y-68862533D01*
X58720076Y-68814914D01*
X58624838Y-68767295D01*
X58529600Y-68672057D01*
X58481981Y-68529199D01*
X58481981Y-68433961D01*
X58529600Y-68291104D01*
X58577219Y-68243485D01*
X59481981Y-67672057D02*
X59434362Y-67767295D01*
X59386743Y-67814914D01*
X59291505Y-67862533D01*
X59005790Y-67862533D01*
X58910552Y-67814914D01*
X58862933Y-67767295D01*
X58815314Y-67672057D01*
X58815314Y-67529199D01*
X58862933Y-67433961D01*
X58910552Y-67386342D01*
X59005790Y-67338723D01*
X59291505Y-67338723D01*
X59386743Y-67386342D01*
X59434362Y-67433961D01*
X59481981Y-67529199D01*
X59481981Y-67672057D01*
X59481981Y-66481580D02*
X58958171Y-66481580D01*
X58862933Y-66529199D01*
X58815314Y-66624437D01*
X58815314Y-66814914D01*
X58862933Y-66910152D01*
X59434362Y-66481580D02*
X59481981Y-66576818D01*
X59481981Y-66814914D01*
X59434362Y-66910152D01*
X59339124Y-66957771D01*
X59243886Y-66957771D01*
X59148648Y-66910152D01*
X59101029Y-66814914D01*
X59101029Y-66576818D01*
X59053410Y-66481580D01*
X59481981Y-66100628D02*
X58815314Y-65576818D01*
X58815314Y-66100628D02*
X59481981Y-65576818D01*
X59481981Y-65195866D02*
X58815314Y-65195866D01*
X58481981Y-65195866D02*
X58529600Y-65243485D01*
X58577219Y-65195866D01*
X58529600Y-65148247D01*
X58481981Y-65195866D01*
X58577219Y-65195866D01*
X59481981Y-64291104D02*
X58958171Y-64291104D01*
X58862933Y-64338723D01*
X58815314Y-64433961D01*
X58815314Y-64624438D01*
X58862933Y-64719676D01*
X59434362Y-64291104D02*
X59481981Y-64386342D01*
X59481981Y-64624438D01*
X59434362Y-64719676D01*
X59339124Y-64767295D01*
X59243886Y-64767295D01*
X59148648Y-64719676D01*
X59101029Y-64624438D01*
X59101029Y-64386342D01*
X59053410Y-64291104D01*
X59481981Y-63672057D02*
X59434362Y-63767295D01*
X59339124Y-63814914D01*
X58481981Y-63814914D01*
X61312467Y-81151481D02*
X61312467Y-81865767D01*
X61264847Y-82008624D01*
X61169609Y-82103862D01*
X61026752Y-82151481D01*
X60931514Y-82151481D01*
X61836276Y-82151481D02*
X62026752Y-82151481D01*
X62121991Y-82103862D01*
X62169610Y-82056243D01*
X62264848Y-81913386D01*
X62312467Y-81722910D01*
X62312467Y-81341957D01*
X62264848Y-81246719D01*
X62217229Y-81199100D01*
X62121991Y-81151481D01*
X61931514Y-81151481D01*
X61836276Y-81199100D01*
X61788657Y-81246719D01*
X61741038Y-81341957D01*
X61741038Y-81580052D01*
X61788657Y-81675290D01*
X61836276Y-81722910D01*
X61931514Y-81770529D01*
X62121991Y-81770529D01*
X62217229Y-81722910D01*
X62264848Y-81675290D01*
X62312467Y-81580052D01*
X59907443Y-94716076D02*
X59955062Y-94763695D01*
X60002681Y-94906552D01*
X60002681Y-95001790D01*
X59955062Y-95144648D01*
X59859824Y-95239886D01*
X59764586Y-95287505D01*
X59574110Y-95335124D01*
X59431252Y-95335124D01*
X59240776Y-95287505D01*
X59145538Y-95239886D01*
X59050300Y-95144648D01*
X59002681Y-95001790D01*
X59002681Y-94906552D01*
X59050300Y-94763695D01*
X59097919Y-94716076D01*
X60002681Y-94144648D02*
X59955062Y-94239886D01*
X59907443Y-94287505D01*
X59812205Y-94335124D01*
X59526490Y-94335124D01*
X59431252Y-94287505D01*
X59383633Y-94239886D01*
X59336014Y-94144648D01*
X59336014Y-94001790D01*
X59383633Y-93906552D01*
X59431252Y-93858933D01*
X59526490Y-93811314D01*
X59812205Y-93811314D01*
X59907443Y-93858933D01*
X59955062Y-93906552D01*
X60002681Y-94001790D01*
X60002681Y-94144648D01*
X59336014Y-93382743D02*
X60002681Y-93382743D01*
X59431252Y-93382743D02*
X59383633Y-93335124D01*
X59336014Y-93239886D01*
X59336014Y-93097028D01*
X59383633Y-93001790D01*
X59478871Y-92954171D01*
X60002681Y-92954171D01*
X59336014Y-92477981D02*
X60002681Y-92477981D01*
X59431252Y-92477981D02*
X59383633Y-92430362D01*
X59336014Y-92335124D01*
X59336014Y-92192266D01*
X59383633Y-92097028D01*
X59478871Y-92049409D01*
X60002681Y-92049409D01*
X60097919Y-91811314D02*
X60097919Y-91049409D01*
X59907443Y-90239885D02*
X59955062Y-90287504D01*
X60002681Y-90430361D01*
X60002681Y-90525599D01*
X59955062Y-90668457D01*
X59859824Y-90763695D01*
X59764586Y-90811314D01*
X59574110Y-90858933D01*
X59431252Y-90858933D01*
X59240776Y-90811314D01*
X59145538Y-90763695D01*
X59050300Y-90668457D01*
X59002681Y-90525599D01*
X59002681Y-90430361D01*
X59050300Y-90287504D01*
X59097919Y-90239885D01*
X60002681Y-89668457D02*
X59955062Y-89763695D01*
X59907443Y-89811314D01*
X59812205Y-89858933D01*
X59526490Y-89858933D01*
X59431252Y-89811314D01*
X59383633Y-89763695D01*
X59336014Y-89668457D01*
X59336014Y-89525599D01*
X59383633Y-89430361D01*
X59431252Y-89382742D01*
X59526490Y-89335123D01*
X59812205Y-89335123D01*
X59907443Y-89382742D01*
X59955062Y-89430361D01*
X60002681Y-89525599D01*
X60002681Y-89668457D01*
X60002681Y-88477980D02*
X59478871Y-88477980D01*
X59383633Y-88525599D01*
X59336014Y-88620837D01*
X59336014Y-88811314D01*
X59383633Y-88906552D01*
X59955062Y-88477980D02*
X60002681Y-88573218D01*
X60002681Y-88811314D01*
X59955062Y-88906552D01*
X59859824Y-88954171D01*
X59764586Y-88954171D01*
X59669348Y-88906552D01*
X59621729Y-88811314D01*
X59621729Y-88573218D01*
X59574110Y-88477980D01*
X60002681Y-88097028D02*
X59336014Y-87573218D01*
X59336014Y-88097028D02*
X60002681Y-87573218D01*
X60002681Y-87192266D02*
X59336014Y-87192266D01*
X59002681Y-87192266D02*
X59050300Y-87239885D01*
X59097919Y-87192266D01*
X59050300Y-87144647D01*
X59002681Y-87192266D01*
X59097919Y-87192266D01*
X60002681Y-86287504D02*
X59478871Y-86287504D01*
X59383633Y-86335123D01*
X59336014Y-86430361D01*
X59336014Y-86620838D01*
X59383633Y-86716076D01*
X59955062Y-86287504D02*
X60002681Y-86382742D01*
X60002681Y-86620838D01*
X59955062Y-86716076D01*
X59859824Y-86763695D01*
X59764586Y-86763695D01*
X59669348Y-86716076D01*
X59621729Y-86620838D01*
X59621729Y-86382742D01*
X59574110Y-86287504D01*
X60002681Y-85668457D02*
X59955062Y-85763695D01*
X59859824Y-85811314D01*
X59002681Y-85811314D01*
D11*
X144199077Y-139888981D02*
X144199077Y-140603267D01*
X144151457Y-140746124D01*
X144056219Y-140841362D01*
X143913362Y-140888981D01*
X143818124Y-140888981D01*
X144627648Y-139984219D02*
X144675267Y-139936600D01*
X144770505Y-139888981D01*
X145008601Y-139888981D01*
X145103839Y-139936600D01*
X145151458Y-139984219D01*
X145199077Y-140079457D01*
X145199077Y-140174695D01*
X145151458Y-140317552D01*
X144580029Y-140888981D01*
X145199077Y-140888981D01*
X145580029Y-139984219D02*
X145627648Y-139936600D01*
X145722886Y-139888981D01*
X145960982Y-139888981D01*
X146056220Y-139936600D01*
X146103839Y-139984219D01*
X146151458Y-140079457D01*
X146151458Y-140174695D01*
X146103839Y-140317552D01*
X145532410Y-140888981D01*
X146151458Y-140888981D01*
X124537743Y-83472257D02*
X124585362Y-83519876D01*
X124632981Y-83662733D01*
X124632981Y-83757971D01*
X124585362Y-83900829D01*
X124490124Y-83996067D01*
X124394886Y-84043686D01*
X124204410Y-84091305D01*
X124061552Y-84091305D01*
X123871076Y-84043686D01*
X123775838Y-83996067D01*
X123680600Y-83900829D01*
X123632981Y-83757971D01*
X123632981Y-83662733D01*
X123680600Y-83519876D01*
X123728219Y-83472257D01*
X123966314Y-82615114D02*
X124632981Y-82615114D01*
X123585362Y-82853210D02*
X124299648Y-83091305D01*
X124299648Y-82472257D01*
X123632981Y-81662733D02*
X123632981Y-81853210D01*
X123680600Y-81948448D01*
X123728219Y-81996067D01*
X123871076Y-82091305D01*
X124061552Y-82138924D01*
X124442505Y-82138924D01*
X124537743Y-82091305D01*
X124585362Y-82043686D01*
X124632981Y-81948448D01*
X124632981Y-81757971D01*
X124585362Y-81662733D01*
X124537743Y-81615114D01*
X124442505Y-81567495D01*
X124204410Y-81567495D01*
X124109171Y-81615114D01*
X124061552Y-81662733D01*
X124013933Y-81757971D01*
X124013933Y-81948448D01*
X124061552Y-82043686D01*
X124109171Y-82091305D01*
X124204410Y-82138924D01*
X137980183Y-142693663D02*
X137932564Y-142741282D01*
X137789707Y-142788901D01*
X137694469Y-142788901D01*
X137551611Y-142741282D01*
X137456373Y-142646044D01*
X137408754Y-142550806D01*
X137361135Y-142360330D01*
X137361135Y-142217472D01*
X137408754Y-142026996D01*
X137456373Y-141931758D01*
X137551611Y-141836520D01*
X137694469Y-141788901D01*
X137789707Y-141788901D01*
X137932564Y-141836520D01*
X137980183Y-141884139D01*
X138837326Y-142122234D02*
X138837326Y-142788901D01*
X138599230Y-141741282D02*
X138361135Y-142455568D01*
X138980183Y-142455568D01*
X139265897Y-141788901D02*
X139932564Y-141788901D01*
X139503992Y-142788901D01*
X140633723Y-115034297D02*
X140681342Y-115081916D01*
X140728961Y-115224773D01*
X140728961Y-115320011D01*
X140681342Y-115462869D01*
X140586104Y-115558107D01*
X140490866Y-115605726D01*
X140300390Y-115653345D01*
X140157532Y-115653345D01*
X139967056Y-115605726D01*
X139871818Y-115558107D01*
X139776580Y-115462869D01*
X139728961Y-115320011D01*
X139728961Y-115224773D01*
X139776580Y-115081916D01*
X139824199Y-115034297D01*
X140062294Y-114177154D02*
X140728961Y-114177154D01*
X139681342Y-114415250D02*
X140395628Y-114653345D01*
X140395628Y-114034297D01*
X140157532Y-113510488D02*
X140109913Y-113605726D01*
X140062294Y-113653345D01*
X139967056Y-113700964D01*
X139919437Y-113700964D01*
X139824199Y-113653345D01*
X139776580Y-113605726D01*
X139728961Y-113510488D01*
X139728961Y-113320011D01*
X139776580Y-113224773D01*
X139824199Y-113177154D01*
X139919437Y-113129535D01*
X139967056Y-113129535D01*
X140062294Y-113177154D01*
X140109913Y-113224773D01*
X140157532Y-113320011D01*
X140157532Y-113510488D01*
X140205151Y-113605726D01*
X140252770Y-113653345D01*
X140348009Y-113700964D01*
X140538485Y-113700964D01*
X140633723Y-113653345D01*
X140681342Y-113605726D01*
X140728961Y-113510488D01*
X140728961Y-113320011D01*
X140681342Y-113224773D01*
X140633723Y-113177154D01*
X140538485Y-113129535D01*
X140348009Y-113129535D01*
X140252770Y-113177154D01*
X140205151Y-113224773D01*
X140157532Y-113320011D01*
X137647467Y-127735081D02*
X137647467Y-128449367D01*
X137599847Y-128592224D01*
X137504609Y-128687462D01*
X137361752Y-128735081D01*
X137266514Y-128735081D01*
X138123657Y-128735081D02*
X138123657Y-127735081D01*
X138504610Y-127735081D01*
X138599848Y-127782700D01*
X138647467Y-127830319D01*
X138695086Y-127925557D01*
X138695086Y-128068414D01*
X138647467Y-128163652D01*
X138599848Y-128211271D01*
X138504610Y-128258890D01*
X138123657Y-128258890D01*
X139552229Y-128068414D02*
X139552229Y-128735081D01*
X139314133Y-127687462D02*
X139076038Y-128401748D01*
X139695086Y-128401748D01*
X139758941Y-122722545D02*
X140568465Y-122722545D01*
X140663703Y-122674926D01*
X140711322Y-122627307D01*
X140758941Y-122532069D01*
X140758941Y-122341592D01*
X140711322Y-122246354D01*
X140663703Y-122198735D01*
X140568465Y-122151116D01*
X139758941Y-122151116D01*
X140758941Y-121627307D02*
X140758941Y-121436831D01*
X140711322Y-121341592D01*
X140663703Y-121293973D01*
X140520846Y-121198735D01*
X140330370Y-121151116D01*
X139949417Y-121151116D01*
X139854179Y-121198735D01*
X139806560Y-121246354D01*
X139758941Y-121341592D01*
X139758941Y-121532069D01*
X139806560Y-121627307D01*
X139854179Y-121674926D01*
X139949417Y-121722545D01*
X140187512Y-121722545D01*
X140282750Y-121674926D01*
X140330370Y-121627307D01*
X140377989Y-121532069D01*
X140377989Y-121341592D01*
X140330370Y-121246354D01*
X140282750Y-121198735D01*
X140187512Y-121151116D01*
X55292667Y-139196381D02*
X55292667Y-139910667D01*
X55245047Y-140053524D01*
X55149809Y-140148762D01*
X55006952Y-140196381D01*
X54911714Y-140196381D01*
X56292667Y-140196381D02*
X55721238Y-140196381D01*
X56006952Y-140196381D02*
X56006952Y-139196381D01*
X55911714Y-139339238D01*
X55816476Y-139434476D01*
X55721238Y-139482095D01*
X59666667Y-98404381D02*
X59666667Y-99118667D01*
X59619047Y-99261524D01*
X59523809Y-99356762D01*
X59380952Y-99404381D01*
X59285714Y-99404381D01*
X60285714Y-98832952D02*
X60190476Y-98785333D01*
X60142857Y-98737714D01*
X60095238Y-98642476D01*
X60095238Y-98594857D01*
X60142857Y-98499619D01*
X60190476Y-98452000D01*
X60285714Y-98404381D01*
X60476191Y-98404381D01*
X60571429Y-98452000D01*
X60619048Y-98499619D01*
X60666667Y-98594857D01*
X60666667Y-98642476D01*
X60619048Y-98737714D01*
X60571429Y-98785333D01*
X60476191Y-98832952D01*
X60285714Y-98832952D01*
X60190476Y-98880571D01*
X60142857Y-98928190D01*
X60095238Y-99023429D01*
X60095238Y-99213905D01*
X60142857Y-99309143D01*
X60190476Y-99356762D01*
X60285714Y-99404381D01*
X60476191Y-99404381D01*
X60571429Y-99356762D01*
X60619048Y-99309143D01*
X60666667Y-99213905D01*
X60666667Y-99023429D01*
X60619048Y-98928190D01*
X60571429Y-98880571D01*
X60476191Y-98832952D01*
X59190477Y-142404381D02*
X59190477Y-143118667D01*
X59142857Y-143261524D01*
X59047619Y-143356762D01*
X58904762Y-143404381D01*
X58809524Y-143404381D01*
X60190477Y-143404381D02*
X59619048Y-143404381D01*
X59904762Y-143404381D02*
X59904762Y-142404381D01*
X59809524Y-142547238D01*
X59714286Y-142642476D01*
X59619048Y-142690095D01*
X60809524Y-142404381D02*
X60904763Y-142404381D01*
X61000001Y-142452000D01*
X61047620Y-142499619D01*
X61095239Y-142594857D01*
X61142858Y-142785333D01*
X61142858Y-143023429D01*
X61095239Y-143213905D01*
X61047620Y-143309143D01*
X61000001Y-143356762D01*
X60904763Y-143404381D01*
X60809524Y-143404381D01*
X60714286Y-143356762D01*
X60666667Y-143309143D01*
X60619048Y-143213905D01*
X60571429Y-143023429D01*
X60571429Y-142785333D01*
X60619048Y-142594857D01*
X60666667Y-142499619D01*
X60714286Y-142452000D01*
X60809524Y-142404381D01*
X136190477Y-98404381D02*
X136190477Y-99118667D01*
X136142857Y-99261524D01*
X136047619Y-99356762D01*
X135904762Y-99404381D01*
X135809524Y-99404381D01*
X137190477Y-99404381D02*
X136619048Y-99404381D01*
X136904762Y-99404381D02*
X136904762Y-98404381D01*
X136809524Y-98547238D01*
X136714286Y-98642476D01*
X136619048Y-98690095D01*
X138142858Y-99404381D02*
X137571429Y-99404381D01*
X137857143Y-99404381D02*
X137857143Y-98404381D01*
X137761905Y-98547238D01*
X137666667Y-98642476D01*
X137571429Y-98690095D01*
X133107181Y-146846823D02*
X133821467Y-146846823D01*
X133964324Y-146894443D01*
X134059562Y-146989681D01*
X134107181Y-147132538D01*
X134107181Y-147227776D01*
X134107181Y-145846823D02*
X134107181Y-146418252D01*
X134107181Y-146132538D02*
X133107181Y-146132538D01*
X133250038Y-146227776D01*
X133345276Y-146323014D01*
X133392895Y-146418252D01*
X133202419Y-145465871D02*
X133154800Y-145418252D01*
X133107181Y-145323014D01*
X133107181Y-145084918D01*
X133154800Y-144989680D01*
X133202419Y-144942061D01*
X133297657Y-144894442D01*
X133392895Y-144894442D01*
X133535752Y-144942061D01*
X134107181Y-145513490D01*
X134107181Y-144894442D01*
X140646423Y-112077737D02*
X140694042Y-112125356D01*
X140741661Y-112268213D01*
X140741661Y-112363451D01*
X140694042Y-112506309D01*
X140598804Y-112601547D01*
X140503566Y-112649166D01*
X140313090Y-112696785D01*
X140170232Y-112696785D01*
X139979756Y-112649166D01*
X139884518Y-112601547D01*
X139789280Y-112506309D01*
X139741661Y-112363451D01*
X139741661Y-112268213D01*
X139789280Y-112125356D01*
X139836899Y-112077737D01*
X139741661Y-111744404D02*
X139741661Y-111125356D01*
X140122613Y-111458690D01*
X140122613Y-111315832D01*
X140170232Y-111220594D01*
X140217851Y-111172975D01*
X140313090Y-111125356D01*
X140551185Y-111125356D01*
X140646423Y-111172975D01*
X140694042Y-111220594D01*
X140741661Y-111315832D01*
X140741661Y-111601547D01*
X140694042Y-111696785D01*
X140646423Y-111744404D01*
X140170232Y-110553928D02*
X140122613Y-110649166D01*
X140074994Y-110696785D01*
X139979756Y-110744404D01*
X139932137Y-110744404D01*
X139836899Y-110696785D01*
X139789280Y-110649166D01*
X139741661Y-110553928D01*
X139741661Y-110363451D01*
X139789280Y-110268213D01*
X139836899Y-110220594D01*
X139932137Y-110172975D01*
X139979756Y-110172975D01*
X140074994Y-110220594D01*
X140122613Y-110268213D01*
X140170232Y-110363451D01*
X140170232Y-110553928D01*
X140217851Y-110649166D01*
X140265470Y-110696785D01*
X140360709Y-110744404D01*
X140551185Y-110744404D01*
X140646423Y-110696785D01*
X140694042Y-110649166D01*
X140741661Y-110553928D01*
X140741661Y-110363451D01*
X140694042Y-110268213D01*
X140646423Y-110220594D01*
X140551185Y-110172975D01*
X140360709Y-110172975D01*
X140265470Y-110220594D01*
X140217851Y-110268213D01*
X140170232Y-110363451D01*
X131583181Y-140522223D02*
X132297467Y-140522223D01*
X132440324Y-140569843D01*
X132535562Y-140665081D01*
X132583181Y-140807938D01*
X132583181Y-140903176D01*
X132583181Y-139522223D02*
X132583181Y-140093652D01*
X132583181Y-139807938D02*
X131583181Y-139807938D01*
X131726038Y-139903176D01*
X131821276Y-139998414D01*
X131868895Y-140093652D01*
X131583181Y-139188890D02*
X131583181Y-138569842D01*
X131964133Y-138903176D01*
X131964133Y-138760318D01*
X132011752Y-138665080D01*
X132059371Y-138617461D01*
X132154610Y-138569842D01*
X132392705Y-138569842D01*
X132487943Y-138617461D01*
X132535562Y-138665080D01*
X132583181Y-138760318D01*
X132583181Y-139046033D01*
X132535562Y-139141271D01*
X132487943Y-139188890D01*
X61041067Y-52507081D02*
X61041067Y-53221367D01*
X60993447Y-53364224D01*
X60898209Y-53459462D01*
X60755352Y-53507081D01*
X60660114Y-53507081D01*
X61517257Y-53507081D02*
X61517257Y-52507081D01*
X61898210Y-52507081D01*
X61993448Y-52554700D01*
X62041067Y-52602319D01*
X62088686Y-52697557D01*
X62088686Y-52840414D01*
X62041067Y-52935652D01*
X61993448Y-52983271D01*
X61898210Y-53030890D01*
X61517257Y-53030890D01*
X62422019Y-52507081D02*
X63041067Y-52507081D01*
X62707733Y-52888033D01*
X62850591Y-52888033D01*
X62945829Y-52935652D01*
X62993448Y-52983271D01*
X63041067Y-53078510D01*
X63041067Y-53316605D01*
X62993448Y-53411843D01*
X62945829Y-53459462D01*
X62850591Y-53507081D01*
X62564876Y-53507081D01*
X62469638Y-53459462D01*
X62422019Y-53411843D01*
X124451823Y-121159223D02*
X124404204Y-121206842D01*
X124261347Y-121254461D01*
X124166109Y-121254461D01*
X124023251Y-121206842D01*
X123928013Y-121111604D01*
X123880394Y-121016366D01*
X123832775Y-120825890D01*
X123832775Y-120683032D01*
X123880394Y-120492556D01*
X123928013Y-120397318D01*
X124023251Y-120302080D01*
X124166109Y-120254461D01*
X124261347Y-120254461D01*
X124404204Y-120302080D01*
X124451823Y-120349699D01*
X124785156Y-120254461D02*
X125404204Y-120254461D01*
X125070870Y-120635413D01*
X125213728Y-120635413D01*
X125308966Y-120683032D01*
X125356585Y-120730651D01*
X125404204Y-120825890D01*
X125404204Y-121063985D01*
X125356585Y-121159223D01*
X125308966Y-121206842D01*
X125213728Y-121254461D01*
X124928013Y-121254461D01*
X124832775Y-121206842D01*
X124785156Y-121159223D01*
X125737537Y-120254461D02*
X126404204Y-120254461D01*
X125975632Y-121254461D01*
X119632434Y-101658681D02*
X119299100Y-101182490D01*
X119061005Y-101658681D02*
X119061005Y-100658681D01*
X119441958Y-100658681D01*
X119537196Y-100706300D01*
X119584815Y-100753919D01*
X119632434Y-100849157D01*
X119632434Y-100992014D01*
X119584815Y-101087252D01*
X119537196Y-101134871D01*
X119441958Y-101182490D01*
X119061005Y-101182490D01*
X119965767Y-100658681D02*
X120632434Y-100658681D01*
X120203862Y-101658681D01*
X118838743Y-104808281D02*
X118505409Y-104332090D01*
X118267314Y-104808281D02*
X118267314Y-103808281D01*
X118648267Y-103808281D01*
X118743505Y-103855900D01*
X118791124Y-103903519D01*
X118838743Y-103998757D01*
X118838743Y-104141614D01*
X118791124Y-104236852D01*
X118743505Y-104284471D01*
X118648267Y-104332090D01*
X118267314Y-104332090D01*
X119791124Y-104808281D02*
X119219695Y-104808281D01*
X119505409Y-104808281D02*
X119505409Y-103808281D01*
X119410171Y-103951138D01*
X119314933Y-104046376D01*
X119219695Y-104093995D01*
X120410171Y-103808281D02*
X120505410Y-103808281D01*
X120600648Y-103855900D01*
X120648267Y-103903519D01*
X120695886Y-103998757D01*
X120743505Y-104189233D01*
X120743505Y-104427329D01*
X120695886Y-104617805D01*
X120648267Y-104713043D01*
X120600648Y-104760662D01*
X120505410Y-104808281D01*
X120410171Y-104808281D01*
X120314933Y-104760662D01*
X120267314Y-104713043D01*
X120219695Y-104617805D01*
X120172076Y-104427329D01*
X120172076Y-104189233D01*
X120219695Y-103998757D01*
X120267314Y-103903519D01*
X120314933Y-103855900D01*
X120410171Y-103808281D01*
X129865381Y-102217457D02*
X129389190Y-102550791D01*
X129865381Y-102788886D02*
X128865381Y-102788886D01*
X128865381Y-102407933D01*
X128913000Y-102312695D01*
X128960619Y-102265076D01*
X129055857Y-102217457D01*
X129198714Y-102217457D01*
X129293952Y-102265076D01*
X129341571Y-102312695D01*
X129389190Y-102407933D01*
X129389190Y-102788886D01*
X128865381Y-101884124D02*
X128865381Y-101265076D01*
X129246333Y-101598410D01*
X129246333Y-101455552D01*
X129293952Y-101360314D01*
X129341571Y-101312695D01*
X129436810Y-101265076D01*
X129674905Y-101265076D01*
X129770143Y-101312695D01*
X129817762Y-101360314D01*
X129865381Y-101455552D01*
X129865381Y-101741267D01*
X129817762Y-101836505D01*
X129770143Y-101884124D01*
X129198714Y-100407933D02*
X129865381Y-100407933D01*
X128817762Y-100646029D02*
X129532048Y-100884124D01*
X129532048Y-100265076D01*
X126677681Y-101953297D02*
X126201490Y-102286631D01*
X126677681Y-102524726D02*
X125677681Y-102524726D01*
X125677681Y-102143773D01*
X125725300Y-102048535D01*
X125772919Y-102000916D01*
X125868157Y-101953297D01*
X126011014Y-101953297D01*
X126106252Y-102000916D01*
X126153871Y-102048535D01*
X126201490Y-102143773D01*
X126201490Y-102524726D01*
X125677681Y-101619964D02*
X125677681Y-101000916D01*
X126058633Y-101334250D01*
X126058633Y-101191392D01*
X126106252Y-101096154D01*
X126153871Y-101048535D01*
X126249110Y-101000916D01*
X126487205Y-101000916D01*
X126582443Y-101048535D01*
X126630062Y-101096154D01*
X126677681Y-101191392D01*
X126677681Y-101477107D01*
X126630062Y-101572345D01*
X126582443Y-101619964D01*
X125677681Y-100096154D02*
X125677681Y-100572345D01*
X126153871Y-100619964D01*
X126106252Y-100572345D01*
X126058633Y-100477107D01*
X126058633Y-100239011D01*
X126106252Y-100143773D01*
X126153871Y-100096154D01*
X126249110Y-100048535D01*
X126487205Y-100048535D01*
X126582443Y-100096154D01*
X126630062Y-100143773D01*
X126677681Y-100239011D01*
X126677681Y-100477107D01*
X126630062Y-100572345D01*
X126582443Y-100619964D01*
X134726941Y-112453657D02*
X134250750Y-112786991D01*
X134726941Y-113025086D02*
X133726941Y-113025086D01*
X133726941Y-112644133D01*
X133774560Y-112548895D01*
X133822179Y-112501276D01*
X133917417Y-112453657D01*
X134060274Y-112453657D01*
X134155512Y-112501276D01*
X134203131Y-112548895D01*
X134250750Y-112644133D01*
X134250750Y-113025086D01*
X133726941Y-112120324D02*
X133726941Y-111501276D01*
X134107893Y-111834610D01*
X134107893Y-111691752D01*
X134155512Y-111596514D01*
X134203131Y-111548895D01*
X134298370Y-111501276D01*
X134536465Y-111501276D01*
X134631703Y-111548895D01*
X134679322Y-111596514D01*
X134726941Y-111691752D01*
X134726941Y-111977467D01*
X134679322Y-112072705D01*
X134631703Y-112120324D01*
X133726941Y-110644133D02*
X133726941Y-110834610D01*
X133774560Y-110929848D01*
X133822179Y-110977467D01*
X133965036Y-111072705D01*
X134155512Y-111120324D01*
X134536465Y-111120324D01*
X134631703Y-111072705D01*
X134679322Y-111025086D01*
X134726941Y-110929848D01*
X134726941Y-110739371D01*
X134679322Y-110644133D01*
X134631703Y-110596514D01*
X134536465Y-110548895D01*
X134298370Y-110548895D01*
X134203131Y-110596514D01*
X134155512Y-110644133D01*
X134107893Y-110739371D01*
X134107893Y-110929848D01*
X134155512Y-111025086D01*
X134203131Y-111072705D01*
X134298370Y-111120324D01*
X137777481Y-112689877D02*
X137301290Y-113023211D01*
X137777481Y-113261306D02*
X136777481Y-113261306D01*
X136777481Y-112880353D01*
X136825100Y-112785115D01*
X136872719Y-112737496D01*
X136967957Y-112689877D01*
X137110814Y-112689877D01*
X137206052Y-112737496D01*
X137253671Y-112785115D01*
X137301290Y-112880353D01*
X137301290Y-113261306D01*
X136777481Y-112356544D02*
X136777481Y-111737496D01*
X137158433Y-112070830D01*
X137158433Y-111927972D01*
X137206052Y-111832734D01*
X137253671Y-111785115D01*
X137348910Y-111737496D01*
X137587005Y-111737496D01*
X137682243Y-111785115D01*
X137729862Y-111832734D01*
X137777481Y-111927972D01*
X137777481Y-112213687D01*
X137729862Y-112308925D01*
X137682243Y-112356544D01*
X136777481Y-111404163D02*
X136777481Y-110737496D01*
X137777481Y-111166068D01*
M02*
