G04 #@! TF.FileFunction,Soldermask,Bot*
%FSLAX46Y46*%
G04 Gerber Fmt 4.6, Leading zero omitted, Abs format (unit mm)*
G04 Created by KiCad (PCBNEW 4.0.7) date 12/21/18 04:22:22*
%MOMM*%
%LPD*%
G01*
G04 APERTURE LIST*
%ADD10C,0.100000*%
%ADD11R,2.000000X2.000000*%
%ADD12O,2.000000X2.000000*%
%ADD13C,2.000000*%
%ADD14C,1.924000*%
%ADD15C,3.400000*%
%ADD16R,2.100000X2.100000*%
%ADD17O,2.100000X2.100000*%
%ADD18C,1.900000*%
%ADD19C,4.464000*%
%ADD20C,2.500000*%
%ADD21R,3.400000X3.400000*%
%ADD22R,2.200000X2.200000*%
%ADD23O,2.200000X2.200000*%
%ADD24R,3.900000X3.900000*%
%ADD25C,1.400000*%
%ADD26R,1.400000X1.400000*%
G04 APERTURE END LIST*
D10*
D11*
X130479800Y-108077000D03*
D12*
X115239800Y-115697000D03*
X127939800Y-108077000D03*
X117779800Y-115697000D03*
X125399800Y-108077000D03*
X120319800Y-115697000D03*
X122859800Y-108077000D03*
X122859800Y-115697000D03*
X120319800Y-108077000D03*
X125399800Y-115697000D03*
X117779800Y-108077000D03*
X127939800Y-115697000D03*
X115239800Y-108077000D03*
X130479800Y-115697000D03*
D13*
X76024740Y-95806260D03*
D12*
X76024740Y-103426260D03*
D13*
X63972440Y-82651600D03*
X66472440Y-82651600D03*
D14*
X69342000Y-138430000D03*
X71882000Y-138430000D03*
X74422000Y-138430000D03*
X76962000Y-138430000D03*
X79502000Y-138430000D03*
X82042000Y-138430000D03*
X84582000Y-138430000D03*
X87122000Y-138430000D03*
X89662000Y-138430000D03*
X92202000Y-138430000D03*
X94742000Y-138430000D03*
X97282000Y-138430000D03*
X99822000Y-138430000D03*
X102362000Y-138430000D03*
X104902000Y-138430000D03*
X107442000Y-138430000D03*
X109982000Y-138430000D03*
X112522000Y-138430000D03*
X115062000Y-138430000D03*
X117602000Y-138430000D03*
X69342000Y-123190000D03*
X71882000Y-123190000D03*
X74422000Y-123190000D03*
X76962000Y-123190000D03*
X79502000Y-123190000D03*
X82042000Y-123190000D03*
X84582000Y-123190000D03*
X87122000Y-123190000D03*
X89662000Y-123190000D03*
X92202000Y-123190000D03*
X94742000Y-123190000D03*
X97282000Y-123190000D03*
X99822000Y-123190000D03*
X102362000Y-123190000D03*
X104902000Y-123190000D03*
X107442000Y-123190000D03*
X109982000Y-123190000D03*
X112522000Y-123190000D03*
X115062000Y-123190000D03*
X117602000Y-123190000D03*
D15*
X65760600Y-77612240D03*
X59349640Y-77673200D03*
D11*
X120944640Y-61493400D03*
D12*
X120944640Y-53873400D03*
D11*
X117896640Y-53873400D03*
D12*
X117896640Y-61493400D03*
D13*
X107960160Y-64541400D03*
X110460160Y-64541400D03*
X79248000Y-106680000D03*
X76748000Y-106680000D03*
X142646400Y-80416400D03*
X145146400Y-80416400D03*
D11*
X143764000Y-84582000D03*
D13*
X143764000Y-87082000D03*
X143052800Y-62179200D03*
X145552800Y-62179200D03*
X79822040Y-82054700D03*
X79822040Y-79554700D03*
D11*
X143052800Y-66344800D03*
D13*
X145552800Y-66344800D03*
X87035640Y-55016400D03*
X84535640Y-55016400D03*
X87035640Y-58318400D03*
X84535640Y-58318400D03*
X69636640Y-85432900D03*
X69636640Y-82932900D03*
X129199640Y-71018400D03*
X129199640Y-68518400D03*
X125643640Y-71018400D03*
X125643640Y-68518400D03*
X84495640Y-61112400D03*
X86995640Y-61112400D03*
X59679840Y-82753200D03*
X57179840Y-82753200D03*
X122341640Y-68478400D03*
X122341640Y-70978400D03*
X87035640Y-64160400D03*
X84535640Y-64160400D03*
X72303640Y-89941400D03*
X69803640Y-89941400D03*
X119039640Y-71018400D03*
X119039640Y-68518400D03*
X101196140Y-61188600D03*
X101196140Y-63688600D03*
X60619640Y-96342200D03*
X63119640Y-96342200D03*
X101259640Y-57810400D03*
X101259640Y-55310400D03*
X68033900Y-95443040D03*
X68033900Y-92943040D03*
X115166140Y-76352400D03*
X115166140Y-73852400D03*
X133771640Y-78384400D03*
X133771640Y-80884400D03*
X93004640Y-73431400D03*
X90504640Y-73431400D03*
X86984840Y-87820500D03*
X89484840Y-87820500D03*
X115737640Y-84226400D03*
X118237640Y-84226400D03*
X98338640Y-73609200D03*
X95838640Y-73609200D03*
X96751140Y-87782400D03*
X94251140Y-87782400D03*
X132476240Y-86258400D03*
X132476240Y-88758400D03*
X99799140Y-88417400D03*
X99799140Y-90917400D03*
X135067040Y-91567000D03*
X132567040Y-91567000D03*
X80264000Y-143764000D03*
X80264000Y-146264000D03*
X86106000Y-143764000D03*
X86106000Y-146264000D03*
X99999800Y-143840200D03*
X99999800Y-146340200D03*
D11*
X63413640Y-66395600D03*
D12*
X71033640Y-66395600D03*
D11*
X53571140Y-66382900D03*
D12*
X61191140Y-66382900D03*
D15*
X54777640Y-74828400D03*
X59121040Y-71069200D03*
X65725040Y-71059040D03*
D16*
X143421100Y-96164400D03*
D17*
X145961100Y-96164400D03*
X143421100Y-98704400D03*
X145961100Y-98704400D03*
X143421100Y-101244400D03*
X145961100Y-101244400D03*
X143421100Y-103784400D03*
X145961100Y-103784400D03*
X143421100Y-106324400D03*
X145961100Y-106324400D03*
D16*
X99568000Y-114300000D03*
D17*
X102108000Y-114300000D03*
X104648000Y-114300000D03*
X107188000Y-114300000D03*
D13*
X145796000Y-76962000D03*
D12*
X138176000Y-76962000D03*
D13*
X73710800Y-106057700D03*
D12*
X66090800Y-106057700D03*
D13*
X104815640Y-54762400D03*
D12*
X104815640Y-62382400D03*
D13*
X53126640Y-91592400D03*
D12*
X53126640Y-83972400D03*
D13*
X133898640Y-75590400D03*
D12*
X133898640Y-67970400D03*
D13*
X87122000Y-114427000D03*
D12*
X87122000Y-106807000D03*
D13*
X90297000Y-114427000D03*
D12*
X90297000Y-106807000D03*
D13*
X138023600Y-73761600D03*
D12*
X145643600Y-73761600D03*
D13*
X138163300Y-70497700D03*
D12*
X145783300Y-70497700D03*
D13*
X79479140Y-69113400D03*
D12*
X79479140Y-76733400D03*
D13*
X76113640Y-80162400D03*
D12*
X76113640Y-72542400D03*
D13*
X72811640Y-80416400D03*
D12*
X72811640Y-72796400D03*
D13*
X101259640Y-103022400D03*
D12*
X93639640Y-103022400D03*
D13*
X82717640Y-69176900D03*
D12*
X82717640Y-76796900D03*
D13*
X80177640Y-58826400D03*
D12*
X80177640Y-66446400D03*
D13*
X76621640Y-58826400D03*
D12*
X76621640Y-66446400D03*
D13*
X93512640Y-106197400D03*
D12*
X101132640Y-106197400D03*
D13*
X79237840Y-95806260D03*
D12*
X79237840Y-103426260D03*
D13*
X114594640Y-61493400D03*
D12*
X114594640Y-53873400D03*
D13*
X113832640Y-64160400D03*
D12*
X121452640Y-64160400D03*
D13*
X97500440Y-67284600D03*
D12*
X89880440Y-67284600D03*
D13*
X83936840Y-87731600D03*
D12*
X76316840Y-87731600D03*
D13*
X118150640Y-81432400D03*
D12*
X118150640Y-73812400D03*
D13*
X102948740Y-75438000D03*
D12*
X102948740Y-67818000D03*
D13*
X89423240Y-91135200D03*
D12*
X97043240Y-91135200D03*
D13*
X118531640Y-87020400D03*
D12*
X118531640Y-94640400D03*
D13*
X99227640Y-70319900D03*
D12*
X91607640Y-70319900D03*
D13*
X86375240Y-77114400D03*
D12*
X86375240Y-84734400D03*
D13*
X115229640Y-94640400D03*
D12*
X115229640Y-87020400D03*
D13*
X109895640Y-98704400D03*
D12*
X102275640Y-98704400D03*
D13*
X111927640Y-87020400D03*
D12*
X111927640Y-94640400D03*
D13*
X110276640Y-109372400D03*
D12*
X110276640Y-101752400D03*
D13*
X111991140Y-77241400D03*
D12*
X111991140Y-84861400D03*
D13*
X108879640Y-79146400D03*
D12*
X101259640Y-79146400D03*
D13*
X101132640Y-82321400D03*
D12*
X108752640Y-82321400D03*
D11*
X90337640Y-55524400D03*
D12*
X97957640Y-63144400D03*
X90337640Y-58064400D03*
X97957640Y-60604400D03*
X90337640Y-60604400D03*
X97957640Y-58064400D03*
X90337640Y-63144400D03*
X97957640Y-55524400D03*
D11*
X64937640Y-85674200D03*
D12*
X57317640Y-93294200D03*
X62397640Y-85674200D03*
X59857640Y-93294200D03*
X59857640Y-85674200D03*
X62397640Y-93294200D03*
X57317640Y-85674200D03*
X64937640Y-93294200D03*
D11*
X128945640Y-74066400D03*
D12*
X121325640Y-81686400D03*
X126405640Y-74066400D03*
X123865640Y-81686400D03*
X123865640Y-74066400D03*
X126405640Y-81686400D03*
X121325640Y-74066400D03*
X128945640Y-81686400D03*
D11*
X97132140Y-77241400D03*
D12*
X89512140Y-84861400D03*
X94592140Y-77241400D03*
X92052140Y-84861400D03*
X92052140Y-77241400D03*
X94592140Y-84861400D03*
X89512140Y-77241400D03*
X97132140Y-84861400D03*
D11*
X129275840Y-85191600D03*
D12*
X121655840Y-92811600D03*
X126735840Y-85191600D03*
X124195840Y-92811600D03*
X124195840Y-85191600D03*
X126735840Y-92811600D03*
X121655840Y-85191600D03*
X129275840Y-92811600D03*
D18*
X71079360Y-110837980D03*
X71079360Y-115717980D03*
D19*
X53000000Y-53000000D03*
X147000000Y-53000000D03*
X53000000Y-147000000D03*
X147000000Y-147000000D03*
D18*
X66588640Y-62966640D03*
X64048640Y-62966640D03*
D20*
X61508640Y-57886640D03*
X71668640Y-57886640D03*
D18*
X130327400Y-63230800D03*
X127787400Y-63230800D03*
D20*
X125247400Y-58150800D03*
X135407400Y-58150800D03*
D21*
X145389600Y-137007600D03*
D15*
X145389600Y-131927600D03*
D13*
X86654640Y-73558400D03*
X86654640Y-71058400D03*
D11*
X138493500Y-131368800D03*
D13*
X138493500Y-133868800D03*
X135854440Y-118211600D03*
X133354440Y-118211600D03*
D16*
X138645900Y-141312900D03*
D17*
X138645900Y-138772900D03*
D22*
X143926560Y-124500640D03*
D23*
X143926560Y-121960640D03*
X143926560Y-119420640D03*
D19*
X60000000Y-102000000D03*
X60000000Y-146000000D03*
X137000000Y-102000000D03*
X137000000Y-146000000D03*
D13*
X145288000Y-111312960D03*
X142788000Y-111312960D03*
D24*
X126288800Y-140474700D03*
X126288800Y-146474700D03*
X130988800Y-143474700D03*
D16*
X56809640Y-60350400D03*
D17*
X56809640Y-62890400D03*
D13*
X125552200Y-118300500D03*
X123052200Y-118300500D03*
X123548140Y-101688900D03*
D12*
X115928140Y-101688900D03*
D13*
X123548140Y-104927400D03*
D12*
X115928140Y-104927400D03*
D13*
X129311400Y-105270300D03*
D12*
X129311400Y-97650300D03*
D13*
X126187200Y-105234740D03*
D12*
X126187200Y-97614740D03*
D13*
X133667500Y-108178600D03*
D12*
X133667500Y-115798600D03*
D13*
X136791700Y-108127800D03*
D12*
X136791700Y-115747800D03*
D13*
X63779400Y-112892840D03*
X66279400Y-112892840D03*
D25*
X70396100Y-101660960D03*
X71666100Y-100390960D03*
D26*
X71666100Y-102930960D03*
D13*
X66608960Y-109636560D03*
D12*
X58988960Y-109636560D03*
D13*
X79171800Y-117896640D03*
D12*
X86791800Y-117896640D03*
D13*
X71973440Y-93151960D03*
D12*
X79593440Y-93151960D03*
D16*
X75859640Y-69748400D03*
D17*
X73319640Y-69748400D03*
X70779640Y-69748400D03*
D13*
X108752640Y-85496400D03*
D12*
X101132640Y-85496400D03*
D13*
X113197640Y-103149400D03*
X113197640Y-100649400D03*
D16*
X58562240Y-134924800D03*
D17*
X56022240Y-134924800D03*
X58562240Y-132384800D03*
X56022240Y-132384800D03*
X58562240Y-129844800D03*
X56022240Y-129844800D03*
X58562240Y-127304800D03*
X56022240Y-127304800D03*
X58562240Y-124764800D03*
X56022240Y-124764800D03*
D16*
X126354840Y-134670800D03*
D17*
X128894840Y-134670800D03*
D13*
X131714240Y-131140200D03*
D12*
X124094240Y-131140200D03*
M02*
