G04 #@! TF.FileFunction,Legend,Top*
%FSLAX46Y46*%
G04 Gerber Fmt 4.6, Leading zero omitted, Abs format (unit mm)*
G04 Created by KiCad (PCBNEW 4.0.7) date 11/09/18 09:52:30*
%MOMM*%
%LPD*%
G01*
G04 APERTURE LIST*
%ADD10C,0.100000*%
%ADD11C,0.150000*%
%ADD12C,0.200000*%
%ADD13C,0.120000*%
%ADD14C,0.300000*%
G04 APERTURE END LIST*
D10*
D11*
X124304800Y-137529843D02*
X124257181Y-137577462D01*
X124114324Y-137625081D01*
X124019086Y-137625081D01*
X123876228Y-137577462D01*
X123780990Y-137482224D01*
X123733371Y-137386986D01*
X123685752Y-137196510D01*
X123685752Y-137053652D01*
X123733371Y-136863176D01*
X123780990Y-136767938D01*
X123876228Y-136672700D01*
X124019086Y-136625081D01*
X124114324Y-136625081D01*
X124257181Y-136672700D01*
X124304800Y-136720319D01*
X124733371Y-137101271D02*
X125066705Y-137101271D01*
X125209562Y-137625081D02*
X124733371Y-137625081D01*
X124733371Y-136625081D01*
X125209562Y-136625081D01*
X125638133Y-137625081D02*
X125638133Y-136625081D01*
X126209562Y-137625081D01*
X126209562Y-136625081D01*
X126542895Y-136625081D02*
X127114324Y-136625081D01*
X126828609Y-137625081D02*
X126828609Y-136625081D01*
X127447657Y-137101271D02*
X127780991Y-137101271D01*
X127923848Y-137625081D02*
X127447657Y-137625081D01*
X127447657Y-136625081D01*
X127923848Y-136625081D01*
X128923848Y-137625081D02*
X128590514Y-137148890D01*
X128352419Y-137625081D02*
X128352419Y-136625081D01*
X128733372Y-136625081D01*
X128828610Y-136672700D01*
X128876229Y-136720319D01*
X128923848Y-136815557D01*
X128923848Y-136958414D01*
X128876229Y-137053652D01*
X128828610Y-137101271D01*
X128733372Y-137148890D01*
X128352419Y-137148890D01*
X130114324Y-137244129D02*
X130876229Y-137244129D01*
X130495277Y-137625081D02*
X130495277Y-136863176D01*
X50682686Y-137536229D02*
X51444591Y-137536229D01*
X51063639Y-137917181D02*
X51063639Y-137155276D01*
X52396972Y-136917181D02*
X51920781Y-136917181D01*
X51873162Y-137393371D01*
X51920781Y-137345752D01*
X52016019Y-137298133D01*
X52254115Y-137298133D01*
X52349353Y-137345752D01*
X52396972Y-137393371D01*
X52444591Y-137488610D01*
X52444591Y-137726705D01*
X52396972Y-137821943D01*
X52349353Y-137869562D01*
X52254115Y-137917181D01*
X52016019Y-137917181D01*
X51920781Y-137869562D01*
X51873162Y-137821943D01*
X52730305Y-136917181D02*
X53063638Y-137917181D01*
X53396972Y-136917181D01*
X51439843Y-135078743D02*
X51392224Y-135126362D01*
X51249367Y-135173981D01*
X51154129Y-135173981D01*
X51011271Y-135126362D01*
X50916033Y-135031124D01*
X50868414Y-134935886D01*
X50820795Y-134745410D01*
X50820795Y-134602552D01*
X50868414Y-134412076D01*
X50916033Y-134316838D01*
X51011271Y-134221600D01*
X51154129Y-134173981D01*
X51249367Y-134173981D01*
X51392224Y-134221600D01*
X51439843Y-134269219D01*
X51820795Y-135126362D02*
X51963652Y-135173981D01*
X52201748Y-135173981D01*
X52296986Y-135126362D01*
X52344605Y-135078743D01*
X52392224Y-134983505D01*
X52392224Y-134888267D01*
X52344605Y-134793029D01*
X52296986Y-134745410D01*
X52201748Y-134697790D01*
X52011271Y-134650171D01*
X51916033Y-134602552D01*
X51868414Y-134554933D01*
X51820795Y-134459695D01*
X51820795Y-134364457D01*
X51868414Y-134269219D01*
X51916033Y-134221600D01*
X52011271Y-134173981D01*
X52249367Y-134173981D01*
X52392224Y-134221600D01*
X52725557Y-134173981D02*
X53344605Y-134173981D01*
X53011271Y-134554933D01*
X53154129Y-134554933D01*
X53249367Y-134602552D01*
X53296986Y-134650171D01*
X53344605Y-134745410D01*
X53344605Y-134983505D01*
X53296986Y-135078743D01*
X53249367Y-135126362D01*
X53154129Y-135173981D01*
X52868414Y-135173981D01*
X52773176Y-135126362D01*
X52725557Y-135078743D01*
X51490643Y-132627643D02*
X51443024Y-132675262D01*
X51300167Y-132722881D01*
X51204929Y-132722881D01*
X51062071Y-132675262D01*
X50966833Y-132580024D01*
X50919214Y-132484786D01*
X50871595Y-132294310D01*
X50871595Y-132151452D01*
X50919214Y-131960976D01*
X50966833Y-131865738D01*
X51062071Y-131770500D01*
X51204929Y-131722881D01*
X51300167Y-131722881D01*
X51443024Y-131770500D01*
X51490643Y-131818119D01*
X51871595Y-132675262D02*
X52014452Y-132722881D01*
X52252548Y-132722881D01*
X52347786Y-132675262D01*
X52395405Y-132627643D01*
X52443024Y-132532405D01*
X52443024Y-132437167D01*
X52395405Y-132341929D01*
X52347786Y-132294310D01*
X52252548Y-132246690D01*
X52062071Y-132199071D01*
X51966833Y-132151452D01*
X51919214Y-132103833D01*
X51871595Y-132008595D01*
X51871595Y-131913357D01*
X51919214Y-131818119D01*
X51966833Y-131770500D01*
X52062071Y-131722881D01*
X52300167Y-131722881D01*
X52443024Y-131770500D01*
X52823976Y-131818119D02*
X52871595Y-131770500D01*
X52966833Y-131722881D01*
X53204929Y-131722881D01*
X53300167Y-131770500D01*
X53347786Y-131818119D01*
X53395405Y-131913357D01*
X53395405Y-132008595D01*
X53347786Y-132151452D01*
X52776357Y-132722881D01*
X53395405Y-132722881D01*
X51554143Y-130113043D02*
X51506524Y-130160662D01*
X51363667Y-130208281D01*
X51268429Y-130208281D01*
X51125571Y-130160662D01*
X51030333Y-130065424D01*
X50982714Y-129970186D01*
X50935095Y-129779710D01*
X50935095Y-129636852D01*
X50982714Y-129446376D01*
X51030333Y-129351138D01*
X51125571Y-129255900D01*
X51268429Y-129208281D01*
X51363667Y-129208281D01*
X51506524Y-129255900D01*
X51554143Y-129303519D01*
X51935095Y-130160662D02*
X52077952Y-130208281D01*
X52316048Y-130208281D01*
X52411286Y-130160662D01*
X52458905Y-130113043D01*
X52506524Y-130017805D01*
X52506524Y-129922567D01*
X52458905Y-129827329D01*
X52411286Y-129779710D01*
X52316048Y-129732090D01*
X52125571Y-129684471D01*
X52030333Y-129636852D01*
X51982714Y-129589233D01*
X51935095Y-129493995D01*
X51935095Y-129398757D01*
X51982714Y-129303519D01*
X52030333Y-129255900D01*
X52125571Y-129208281D01*
X52363667Y-129208281D01*
X52506524Y-129255900D01*
X53458905Y-130208281D02*
X52887476Y-130208281D01*
X53173190Y-130208281D02*
X53173190Y-129208281D01*
X53077952Y-129351138D01*
X52982714Y-129446376D01*
X52887476Y-129493995D01*
X50396972Y-127693681D02*
X50396972Y-126693681D01*
X50730306Y-127407967D01*
X51063639Y-126693681D01*
X51063639Y-127693681D01*
X51730305Y-126693681D02*
X51920782Y-126693681D01*
X52016020Y-126741300D01*
X52111258Y-126836538D01*
X52158877Y-127027014D01*
X52158877Y-127360348D01*
X52111258Y-127550824D01*
X52016020Y-127646062D01*
X51920782Y-127693681D01*
X51730305Y-127693681D01*
X51635067Y-127646062D01*
X51539829Y-127550824D01*
X51492210Y-127360348D01*
X51492210Y-127027014D01*
X51539829Y-126836538D01*
X51635067Y-126741300D01*
X51730305Y-126693681D01*
X52539829Y-127646062D02*
X52682686Y-127693681D01*
X52920782Y-127693681D01*
X53016020Y-127646062D01*
X53063639Y-127598443D01*
X53111258Y-127503205D01*
X53111258Y-127407967D01*
X53063639Y-127312729D01*
X53016020Y-127265110D01*
X52920782Y-127217490D01*
X52730305Y-127169871D01*
X52635067Y-127122252D01*
X52587448Y-127074633D01*
X52539829Y-126979395D01*
X52539829Y-126884157D01*
X52587448Y-126788919D01*
X52635067Y-126741300D01*
X52730305Y-126693681D01*
X52968401Y-126693681D01*
X53111258Y-126741300D01*
X53539829Y-127693681D02*
X53539829Y-126693681D01*
X50447772Y-125179081D02*
X50447772Y-124179081D01*
X50781106Y-124893367D01*
X51114439Y-124179081D01*
X51114439Y-125179081D01*
X51590629Y-125179081D02*
X51590629Y-124179081D01*
X52019200Y-125131462D02*
X52162057Y-125179081D01*
X52400153Y-125179081D01*
X52495391Y-125131462D01*
X52543010Y-125083843D01*
X52590629Y-124988605D01*
X52590629Y-124893367D01*
X52543010Y-124798129D01*
X52495391Y-124750510D01*
X52400153Y-124702890D01*
X52209676Y-124655271D01*
X52114438Y-124607652D01*
X52066819Y-124560033D01*
X52019200Y-124464795D01*
X52019200Y-124369557D01*
X52066819Y-124274319D01*
X52114438Y-124226700D01*
X52209676Y-124179081D01*
X52447772Y-124179081D01*
X52590629Y-124226700D01*
X53209676Y-124179081D02*
X53400153Y-124179081D01*
X53495391Y-124226700D01*
X53590629Y-124321938D01*
X53638248Y-124512414D01*
X53638248Y-124845748D01*
X53590629Y-125036224D01*
X53495391Y-125131462D01*
X53400153Y-125179081D01*
X53209676Y-125179081D01*
X53114438Y-125131462D01*
X53019200Y-125036224D01*
X52971581Y-124845748D01*
X52971581Y-124512414D01*
X53019200Y-124321938D01*
X53114438Y-124226700D01*
X53209676Y-124179081D01*
X51714496Y-119032400D02*
X51619258Y-118984781D01*
X51476401Y-118984781D01*
X51333543Y-119032400D01*
X51238305Y-119127638D01*
X51190686Y-119222876D01*
X51143067Y-119413352D01*
X51143067Y-119556210D01*
X51190686Y-119746686D01*
X51238305Y-119841924D01*
X51333543Y-119937162D01*
X51476401Y-119984781D01*
X51571639Y-119984781D01*
X51714496Y-119937162D01*
X51762115Y-119889543D01*
X51762115Y-119556210D01*
X51571639Y-119556210D01*
X52190686Y-119984781D02*
X52190686Y-118984781D01*
X52762115Y-119984781D01*
X52762115Y-118984781D01*
X53238305Y-119984781D02*
X53238305Y-118984781D01*
X53476400Y-118984781D01*
X53619258Y-119032400D01*
X53714496Y-119127638D01*
X53762115Y-119222876D01*
X53809734Y-119413352D01*
X53809734Y-119556210D01*
X53762115Y-119746686D01*
X53714496Y-119841924D01*
X53619258Y-119937162D01*
X53476400Y-119984781D01*
X53238305Y-119984781D01*
X51012886Y-122553362D02*
X51155743Y-122600981D01*
X51393839Y-122600981D01*
X51489077Y-122553362D01*
X51536696Y-122505743D01*
X51584315Y-122410505D01*
X51584315Y-122315267D01*
X51536696Y-122220029D01*
X51489077Y-122172410D01*
X51393839Y-122124790D01*
X51203362Y-122077171D01*
X51108124Y-122029552D01*
X51060505Y-121981933D01*
X51012886Y-121886695D01*
X51012886Y-121791457D01*
X51060505Y-121696219D01*
X51108124Y-121648600D01*
X51203362Y-121600981D01*
X51441458Y-121600981D01*
X51584315Y-121648600D01*
X52584315Y-122505743D02*
X52536696Y-122553362D01*
X52393839Y-122600981D01*
X52298601Y-122600981D01*
X52155743Y-122553362D01*
X52060505Y-122458124D01*
X52012886Y-122362886D01*
X51965267Y-122172410D01*
X51965267Y-122029552D01*
X52012886Y-121839076D01*
X52060505Y-121743838D01*
X52155743Y-121648600D01*
X52298601Y-121600981D01*
X52393839Y-121600981D01*
X52536696Y-121648600D01*
X52584315Y-121696219D01*
X53012886Y-122600981D02*
X53012886Y-121600981D01*
X53584315Y-122600981D02*
X53155743Y-122029552D01*
X53584315Y-121600981D02*
X53012886Y-122172410D01*
X143822681Y-123781866D02*
X143822681Y-124258057D01*
X142822681Y-124258057D01*
X143822681Y-123448533D02*
X142822681Y-123448533D01*
X143536967Y-123115199D01*
X142822681Y-122781866D01*
X143822681Y-122781866D01*
X142822681Y-122400914D02*
X142822681Y-121734247D01*
X143822681Y-122162819D01*
X143251252Y-121210438D02*
X143203633Y-121305676D01*
X143156014Y-121353295D01*
X143060776Y-121400914D01*
X143013157Y-121400914D01*
X142917919Y-121353295D01*
X142870300Y-121305676D01*
X142822681Y-121210438D01*
X142822681Y-121019961D01*
X142870300Y-120924723D01*
X142917919Y-120877104D01*
X143013157Y-120829485D01*
X143060776Y-120829485D01*
X143156014Y-120877104D01*
X143203633Y-120924723D01*
X143251252Y-121019961D01*
X143251252Y-121210438D01*
X143298871Y-121305676D01*
X143346490Y-121353295D01*
X143441729Y-121400914D01*
X143632205Y-121400914D01*
X143727443Y-121353295D01*
X143775062Y-121305676D01*
X143822681Y-121210438D01*
X143822681Y-121019961D01*
X143775062Y-120924723D01*
X143727443Y-120877104D01*
X143632205Y-120829485D01*
X143441729Y-120829485D01*
X143346490Y-120877104D01*
X143298871Y-120924723D01*
X143251252Y-121019961D01*
X142822681Y-120210438D02*
X142822681Y-120115199D01*
X142870300Y-120019961D01*
X142917919Y-119972342D01*
X143013157Y-119924723D01*
X143203633Y-119877104D01*
X143441729Y-119877104D01*
X143632205Y-119924723D01*
X143727443Y-119972342D01*
X143775062Y-120019961D01*
X143822681Y-120115199D01*
X143822681Y-120210438D01*
X143775062Y-120305676D01*
X143727443Y-120353295D01*
X143632205Y-120400914D01*
X143441729Y-120448533D01*
X143203633Y-120448533D01*
X143013157Y-120400914D01*
X142917919Y-120353295D01*
X142870300Y-120305676D01*
X142822681Y-120210438D01*
X142822681Y-118972342D02*
X142822681Y-119448533D01*
X143298871Y-119496152D01*
X143251252Y-119448533D01*
X143203633Y-119353295D01*
X143203633Y-119115199D01*
X143251252Y-119019961D01*
X143298871Y-118972342D01*
X143394110Y-118924723D01*
X143632205Y-118924723D01*
X143727443Y-118972342D01*
X143775062Y-119019961D01*
X143822681Y-119115199D01*
X143822681Y-119353295D01*
X143775062Y-119448533D01*
X143727443Y-119496152D01*
X52177630Y-81618081D02*
X52177630Y-80618081D01*
X52558583Y-80618081D01*
X52653821Y-80665700D01*
X52701440Y-80713319D01*
X52749059Y-80808557D01*
X52749059Y-80951414D01*
X52701440Y-81046652D01*
X52653821Y-81094271D01*
X52558583Y-81141890D01*
X52177630Y-81141890D01*
X53368106Y-80618081D02*
X53558583Y-80618081D01*
X53653821Y-80665700D01*
X53749059Y-80760938D01*
X53796678Y-80951414D01*
X53796678Y-81284748D01*
X53749059Y-81475224D01*
X53653821Y-81570462D01*
X53558583Y-81618081D01*
X53368106Y-81618081D01*
X53272868Y-81570462D01*
X53177630Y-81475224D01*
X53130011Y-81284748D01*
X53130011Y-80951414D01*
X53177630Y-80760938D01*
X53272868Y-80665700D01*
X53368106Y-80618081D01*
X54796678Y-81618081D02*
X54463344Y-81141890D01*
X54225249Y-81618081D02*
X54225249Y-80618081D01*
X54606202Y-80618081D01*
X54701440Y-80665700D01*
X54749059Y-80713319D01*
X54796678Y-80808557D01*
X54796678Y-80951414D01*
X54749059Y-81046652D01*
X54701440Y-81094271D01*
X54606202Y-81141890D01*
X54225249Y-81141890D01*
X55082392Y-80618081D02*
X55653821Y-80618081D01*
X55368106Y-81618081D02*
X55368106Y-80618081D01*
X56701440Y-80713319D02*
X56749059Y-80665700D01*
X56844297Y-80618081D01*
X57082393Y-80618081D01*
X57177631Y-80665700D01*
X57225250Y-80713319D01*
X57272869Y-80808557D01*
X57272869Y-80903795D01*
X57225250Y-81046652D01*
X56653821Y-81618081D01*
X57272869Y-81618081D01*
X52182710Y-77510901D02*
X52182710Y-76510901D01*
X52563663Y-76510901D01*
X52658901Y-76558520D01*
X52706520Y-76606139D01*
X52754139Y-76701377D01*
X52754139Y-76844234D01*
X52706520Y-76939472D01*
X52658901Y-76987091D01*
X52563663Y-77034710D01*
X52182710Y-77034710D01*
X53373186Y-76510901D02*
X53563663Y-76510901D01*
X53658901Y-76558520D01*
X53754139Y-76653758D01*
X53801758Y-76844234D01*
X53801758Y-77177568D01*
X53754139Y-77368044D01*
X53658901Y-77463282D01*
X53563663Y-77510901D01*
X53373186Y-77510901D01*
X53277948Y-77463282D01*
X53182710Y-77368044D01*
X53135091Y-77177568D01*
X53135091Y-76844234D01*
X53182710Y-76653758D01*
X53277948Y-76558520D01*
X53373186Y-76510901D01*
X54801758Y-77510901D02*
X54468424Y-77034710D01*
X54230329Y-77510901D02*
X54230329Y-76510901D01*
X54611282Y-76510901D01*
X54706520Y-76558520D01*
X54754139Y-76606139D01*
X54801758Y-76701377D01*
X54801758Y-76844234D01*
X54754139Y-76939472D01*
X54706520Y-76987091D01*
X54611282Y-77034710D01*
X54230329Y-77034710D01*
X55087472Y-76510901D02*
X55658901Y-76510901D01*
X55373186Y-77510901D02*
X55373186Y-76510901D01*
X57277949Y-77510901D02*
X56706520Y-77510901D01*
X56992234Y-77510901D02*
X56992234Y-76510901D01*
X56896996Y-76653758D01*
X56801758Y-76748996D01*
X56706520Y-76796615D01*
X101941334Y-117546381D02*
X101608000Y-117070190D01*
X101369905Y-117546381D02*
X101369905Y-116546381D01*
X101750858Y-116546381D01*
X101846096Y-116594000D01*
X101893715Y-116641619D01*
X101941334Y-116736857D01*
X101941334Y-116879714D01*
X101893715Y-116974952D01*
X101846096Y-117022571D01*
X101750858Y-117070190D01*
X101369905Y-117070190D01*
X102274667Y-116546381D02*
X102941334Y-117546381D01*
X102941334Y-116546381D02*
X102274667Y-117546381D01*
X103759095Y-116546381D02*
X104330524Y-116546381D01*
X104044809Y-117546381D02*
X104044809Y-116546381D01*
X104568619Y-116546381D02*
X105235286Y-117546381D01*
X105235286Y-116546381D02*
X104568619Y-117546381D01*
X97774286Y-117165429D02*
X98536191Y-117165429D01*
X98155239Y-117546381D02*
X98155239Y-116784476D01*
X99488572Y-116546381D02*
X99012381Y-116546381D01*
X98964762Y-117022571D01*
X99012381Y-116974952D01*
X99107619Y-116927333D01*
X99345715Y-116927333D01*
X99440953Y-116974952D01*
X99488572Y-117022571D01*
X99536191Y-117117810D01*
X99536191Y-117355905D01*
X99488572Y-117451143D01*
X99440953Y-117498762D01*
X99345715Y-117546381D01*
X99107619Y-117546381D01*
X99012381Y-117498762D01*
X98964762Y-117451143D01*
X99821905Y-116546381D02*
X100155238Y-117546381D01*
X100488572Y-116546381D01*
X106558176Y-116690520D02*
X106462938Y-116642901D01*
X106320081Y-116642901D01*
X106177223Y-116690520D01*
X106081985Y-116785758D01*
X106034366Y-116880996D01*
X105986747Y-117071472D01*
X105986747Y-117214330D01*
X106034366Y-117404806D01*
X106081985Y-117500044D01*
X106177223Y-117595282D01*
X106320081Y-117642901D01*
X106415319Y-117642901D01*
X106558176Y-117595282D01*
X106605795Y-117547663D01*
X106605795Y-117214330D01*
X106415319Y-117214330D01*
X107034366Y-117642901D02*
X107034366Y-116642901D01*
X107605795Y-117642901D01*
X107605795Y-116642901D01*
X108081985Y-117642901D02*
X108081985Y-116642901D01*
X108320080Y-116642901D01*
X108462938Y-116690520D01*
X108558176Y-116785758D01*
X108605795Y-116880996D01*
X108653414Y-117071472D01*
X108653414Y-117214330D01*
X108605795Y-117404806D01*
X108558176Y-117500044D01*
X108462938Y-117595282D01*
X108320080Y-117642901D01*
X108081985Y-117642901D01*
X75215715Y-108719881D02*
X74644286Y-108719881D01*
X74930000Y-108719881D02*
X74930000Y-107719881D01*
X74834762Y-107862738D01*
X74739524Y-107957976D01*
X74644286Y-108005595D01*
X75324057Y-117600362D02*
X75466914Y-117647981D01*
X75705010Y-117647981D01*
X75800248Y-117600362D01*
X75847867Y-117552743D01*
X75895486Y-117457505D01*
X75895486Y-117362267D01*
X75847867Y-117267029D01*
X75800248Y-117219410D01*
X75705010Y-117171790D01*
X75514533Y-117124171D01*
X75419295Y-117076552D01*
X75371676Y-117028933D01*
X75324057Y-116933695D01*
X75324057Y-116838457D01*
X75371676Y-116743219D01*
X75419295Y-116695600D01*
X75514533Y-116647981D01*
X75752629Y-116647981D01*
X75895486Y-116695600D01*
X76324057Y-117647981D02*
X76324057Y-116647981D01*
X77276438Y-116647981D02*
X76800247Y-116647981D01*
X76752628Y-117124171D01*
X76800247Y-117076552D01*
X76895485Y-117028933D01*
X77133581Y-117028933D01*
X77228819Y-117076552D01*
X77276438Y-117124171D01*
X77324057Y-117219410D01*
X77324057Y-117457505D01*
X77276438Y-117552743D01*
X77228819Y-117600362D01*
X77133581Y-117647981D01*
X76895485Y-117647981D01*
X76800247Y-117600362D01*
X76752628Y-117552743D01*
X77657390Y-116647981D02*
X78276438Y-116647981D01*
X77943104Y-117028933D01*
X78085962Y-117028933D01*
X78181200Y-117076552D01*
X78228819Y-117124171D01*
X78276438Y-117219410D01*
X78276438Y-117457505D01*
X78228819Y-117552743D01*
X78181200Y-117600362D01*
X78085962Y-117647981D01*
X77800247Y-117647981D01*
X77705009Y-117600362D01*
X77657390Y-117552743D01*
X79181200Y-116647981D02*
X78705009Y-116647981D01*
X78657390Y-117124171D01*
X78705009Y-117076552D01*
X78800247Y-117028933D01*
X79038343Y-117028933D01*
X79133581Y-117076552D01*
X79181200Y-117124171D01*
X79228819Y-117219410D01*
X79228819Y-117457505D01*
X79181200Y-117552743D01*
X79133581Y-117600362D01*
X79038343Y-117647981D01*
X78800247Y-117647981D01*
X78705009Y-117600362D01*
X78657390Y-117552743D01*
X80181200Y-117647981D02*
X79609771Y-117647981D01*
X79895485Y-117647981D02*
X79895485Y-116647981D01*
X79800247Y-116790838D01*
X79705009Y-116886076D01*
X79609771Y-116933695D01*
X80562152Y-117362267D02*
X81038343Y-117362267D01*
X80466914Y-117647981D02*
X80800247Y-116647981D01*
X81133581Y-117647981D01*
X136797091Y-90137171D02*
X136939948Y-90184790D01*
X136987567Y-90232410D01*
X137035186Y-90327648D01*
X137035186Y-90470505D01*
X136987567Y-90565743D01*
X136939948Y-90613362D01*
X136844710Y-90660981D01*
X136463757Y-90660981D01*
X136463757Y-89660981D01*
X136797091Y-89660981D01*
X136892329Y-89708600D01*
X136939948Y-89756219D01*
X136987567Y-89851457D01*
X136987567Y-89946695D01*
X136939948Y-90041933D01*
X136892329Y-90089552D01*
X136797091Y-90137171D01*
X136463757Y-90137171D01*
X137416138Y-90375267D02*
X137892329Y-90375267D01*
X137320900Y-90660981D02*
X137654233Y-89660981D01*
X137987567Y-90660981D01*
X138273281Y-90613362D02*
X138416138Y-90660981D01*
X138654234Y-90660981D01*
X138749472Y-90613362D01*
X138797091Y-90565743D01*
X138844710Y-90470505D01*
X138844710Y-90375267D01*
X138797091Y-90280029D01*
X138749472Y-90232410D01*
X138654234Y-90184790D01*
X138463757Y-90137171D01*
X138368519Y-90089552D01*
X138320900Y-90041933D01*
X138273281Y-89946695D01*
X138273281Y-89851457D01*
X138320900Y-89756219D01*
X138368519Y-89708600D01*
X138463757Y-89660981D01*
X138701853Y-89660981D01*
X138844710Y-89708600D01*
X139273281Y-90660981D02*
X139273281Y-89660981D01*
X140320900Y-90565743D02*
X140273281Y-90613362D01*
X140130424Y-90660981D01*
X140035186Y-90660981D01*
X139892328Y-90613362D01*
X139797090Y-90518124D01*
X139749471Y-90422886D01*
X139701852Y-90232410D01*
X139701852Y-90089552D01*
X139749471Y-89899076D01*
X139797090Y-89803838D01*
X139892328Y-89708600D01*
X140035186Y-89660981D01*
X140130424Y-89660981D01*
X140273281Y-89708600D01*
X140320900Y-89756219D01*
X141368519Y-89660981D02*
X141701852Y-90660981D01*
X142035186Y-89660981D01*
X142368519Y-90660981D02*
X142368519Y-89660981D01*
X142939948Y-90660981D01*
X142939948Y-89660981D01*
X143368519Y-90375267D02*
X143844710Y-90375267D01*
X143273281Y-90660981D02*
X143606614Y-89660981D01*
X143939948Y-90660981D01*
X145368520Y-90137171D02*
X145511377Y-90184790D01*
X145558996Y-90232410D01*
X145606615Y-90327648D01*
X145606615Y-90470505D01*
X145558996Y-90565743D01*
X145511377Y-90613362D01*
X145416139Y-90660981D01*
X145035186Y-90660981D01*
X145035186Y-89660981D01*
X145368520Y-89660981D01*
X145463758Y-89708600D01*
X145511377Y-89756219D01*
X145558996Y-89851457D01*
X145558996Y-89946695D01*
X145511377Y-90041933D01*
X145463758Y-90089552D01*
X145368520Y-90137171D01*
X145035186Y-90137171D01*
X146225662Y-90184790D02*
X146225662Y-90660981D01*
X145892329Y-89660981D02*
X146225662Y-90184790D01*
X146558996Y-89660981D01*
X136154233Y-92310981D02*
X136154233Y-91310981D01*
X136392328Y-91310981D01*
X136535186Y-91358600D01*
X136630424Y-91453838D01*
X136678043Y-91549076D01*
X136725662Y-91739552D01*
X136725662Y-91882410D01*
X136678043Y-92072886D01*
X136630424Y-92168124D01*
X136535186Y-92263362D01*
X136392328Y-92310981D01*
X136154233Y-92310981D01*
X137916138Y-92310981D02*
X137916138Y-91310981D01*
X138249472Y-92025267D01*
X138582805Y-91310981D01*
X138582805Y-92310981D01*
X139011376Y-92025267D02*
X139487567Y-92025267D01*
X138916138Y-92310981D02*
X139249471Y-91310981D01*
X139582805Y-92310981D01*
X140487567Y-92310981D02*
X140154233Y-91834790D01*
X139916138Y-92310981D02*
X139916138Y-91310981D01*
X140297091Y-91310981D01*
X140392329Y-91358600D01*
X140439948Y-91406219D01*
X140487567Y-91501457D01*
X140487567Y-91644314D01*
X140439948Y-91739552D01*
X140392329Y-91787171D01*
X140297091Y-91834790D01*
X139916138Y-91834790D01*
X140916138Y-92310981D02*
X140916138Y-91310981D01*
X141487567Y-92310981D02*
X141058995Y-91739552D01*
X141487567Y-91310981D02*
X140916138Y-91882410D01*
X141868519Y-92263362D02*
X142011376Y-92310981D01*
X142249472Y-92310981D01*
X142344710Y-92263362D01*
X142392329Y-92215743D01*
X142439948Y-92120505D01*
X142439948Y-92025267D01*
X142392329Y-91930029D01*
X142344710Y-91882410D01*
X142249472Y-91834790D01*
X142058995Y-91787171D01*
X141963757Y-91739552D01*
X141916138Y-91691933D01*
X141868519Y-91596695D01*
X141868519Y-91501457D01*
X141916138Y-91406219D01*
X141963757Y-91358600D01*
X142058995Y-91310981D01*
X142297091Y-91310981D01*
X142439948Y-91358600D01*
X143630424Y-92310981D02*
X143630424Y-91310981D01*
X144201853Y-92310981D02*
X143773281Y-91739552D01*
X144201853Y-91310981D02*
X143630424Y-91882410D01*
X144535186Y-91310981D02*
X144773281Y-92310981D01*
X144963758Y-91596695D01*
X145154234Y-92310981D01*
X145392329Y-91310981D01*
X146201853Y-91644314D02*
X146201853Y-92310981D01*
X145963757Y-91263362D02*
X145725662Y-91977648D01*
X146344710Y-91977648D01*
X146582805Y-91310981D02*
X147154234Y-91310981D01*
X146868519Y-92310981D02*
X146868519Y-91310981D01*
X147487567Y-92310981D02*
X147487567Y-91310981D01*
X148712229Y-128419124D02*
X148712229Y-127657219D01*
X149093181Y-128038171D02*
X148331276Y-128038171D01*
X148093181Y-127323886D02*
X149093181Y-126990553D01*
X148093181Y-126657219D01*
X148445600Y-142239904D02*
X148397981Y-142335142D01*
X148397981Y-142477999D01*
X148445600Y-142620857D01*
X148540838Y-142716095D01*
X148636076Y-142763714D01*
X148826552Y-142811333D01*
X148969410Y-142811333D01*
X149159886Y-142763714D01*
X149255124Y-142716095D01*
X149350362Y-142620857D01*
X149397981Y-142477999D01*
X149397981Y-142382761D01*
X149350362Y-142239904D01*
X149302743Y-142192285D01*
X148969410Y-142192285D01*
X148969410Y-142382761D01*
X149397981Y-141763714D02*
X148397981Y-141763714D01*
X149397981Y-141192285D01*
X148397981Y-141192285D01*
X149397981Y-140716095D02*
X148397981Y-140716095D01*
X148397981Y-140478000D01*
X148445600Y-140335142D01*
X148540838Y-140239904D01*
X148636076Y-140192285D01*
X148826552Y-140144666D01*
X148969410Y-140144666D01*
X149159886Y-140192285D01*
X149255124Y-140239904D01*
X149350362Y-140335142D01*
X149397981Y-140478000D01*
X149397981Y-140716095D01*
X99893786Y-102068381D02*
X100560453Y-102068381D01*
X100131881Y-103068381D01*
X101369977Y-102401714D02*
X101369977Y-103068381D01*
X101131881Y-102020762D02*
X100893786Y-102735048D01*
X101512834Y-102735048D01*
X101893786Y-103068381D02*
X101893786Y-102068381D01*
X101893786Y-102544571D02*
X102465215Y-102544571D01*
X102465215Y-103068381D02*
X102465215Y-102068381D01*
X103512834Y-102973143D02*
X103465215Y-103020762D01*
X103322358Y-103068381D01*
X103227120Y-103068381D01*
X103084262Y-103020762D01*
X102989024Y-102925524D01*
X102941405Y-102830286D01*
X102893786Y-102639810D01*
X102893786Y-102496952D01*
X102941405Y-102306476D01*
X102989024Y-102211238D01*
X103084262Y-102116000D01*
X103227120Y-102068381D01*
X103322358Y-102068381D01*
X103465215Y-102116000D01*
X103512834Y-102163619D01*
X104465215Y-103068381D02*
X103893786Y-103068381D01*
X104179500Y-103068381D02*
X104179500Y-102068381D01*
X104084262Y-102211238D01*
X103989024Y-102306476D01*
X103893786Y-102354095D01*
X105322358Y-102401714D02*
X105322358Y-103068381D01*
X105084262Y-102020762D02*
X104846167Y-102735048D01*
X105465215Y-102735048D01*
X109942381Y-94067048D02*
X109942381Y-93495619D01*
X110942381Y-93781334D02*
X109942381Y-93781334D01*
X110942381Y-92686095D02*
X110942381Y-93162286D01*
X109942381Y-93162286D01*
X109942381Y-92162286D02*
X109942381Y-92067047D01*
X109990000Y-91971809D01*
X110037619Y-91924190D01*
X110132857Y-91876571D01*
X110323333Y-91828952D01*
X110561429Y-91828952D01*
X110751905Y-91876571D01*
X110847143Y-91924190D01*
X110894762Y-91971809D01*
X110942381Y-92067047D01*
X110942381Y-92162286D01*
X110894762Y-92257524D01*
X110847143Y-92305143D01*
X110751905Y-92352762D01*
X110561429Y-92400381D01*
X110323333Y-92400381D01*
X110132857Y-92352762D01*
X110037619Y-92305143D01*
X109990000Y-92257524D01*
X109942381Y-92162286D01*
X110370952Y-91257524D02*
X110323333Y-91352762D01*
X110275714Y-91400381D01*
X110180476Y-91448000D01*
X110132857Y-91448000D01*
X110037619Y-91400381D01*
X109990000Y-91352762D01*
X109942381Y-91257524D01*
X109942381Y-91067047D01*
X109990000Y-90971809D01*
X110037619Y-90924190D01*
X110132857Y-90876571D01*
X110180476Y-90876571D01*
X110275714Y-90924190D01*
X110323333Y-90971809D01*
X110370952Y-91067047D01*
X110370952Y-91257524D01*
X110418571Y-91352762D01*
X110466190Y-91400381D01*
X110561429Y-91448000D01*
X110751905Y-91448000D01*
X110847143Y-91400381D01*
X110894762Y-91352762D01*
X110942381Y-91257524D01*
X110942381Y-91067047D01*
X110894762Y-90971809D01*
X110847143Y-90924190D01*
X110751905Y-90876571D01*
X110561429Y-90876571D01*
X110466190Y-90924190D01*
X110418571Y-90971809D01*
X110370952Y-91067047D01*
X110037619Y-90495619D02*
X109990000Y-90448000D01*
X109942381Y-90352762D01*
X109942381Y-90114666D01*
X109990000Y-90019428D01*
X110037619Y-89971809D01*
X110132857Y-89924190D01*
X110228095Y-89924190D01*
X110370952Y-89971809D01*
X110942381Y-90543238D01*
X110942381Y-89924190D01*
X83510381Y-90558667D02*
X82510381Y-90558667D01*
X83510381Y-89987238D01*
X82510381Y-89987238D01*
X82986571Y-89511048D02*
X82986571Y-89177714D01*
X83510381Y-89034857D02*
X83510381Y-89511048D01*
X82510381Y-89511048D01*
X82510381Y-89034857D01*
X82510381Y-88177714D02*
X82510381Y-88368191D01*
X82558000Y-88463429D01*
X82605619Y-88511048D01*
X82748476Y-88606286D01*
X82938952Y-88653905D01*
X83319905Y-88653905D01*
X83415143Y-88606286D01*
X83462762Y-88558667D01*
X83510381Y-88463429D01*
X83510381Y-88272952D01*
X83462762Y-88177714D01*
X83415143Y-88130095D01*
X83319905Y-88082476D01*
X83081810Y-88082476D01*
X82986571Y-88130095D01*
X82938952Y-88177714D01*
X82891333Y-88272952D01*
X82891333Y-88463429D01*
X82938952Y-88558667D01*
X82986571Y-88606286D01*
X83081810Y-88653905D01*
X83510381Y-87130095D02*
X83510381Y-87701524D01*
X83510381Y-87415810D02*
X82510381Y-87415810D01*
X82653238Y-87511048D01*
X82748476Y-87606286D01*
X82796095Y-87701524D01*
X82605619Y-86749143D02*
X82558000Y-86701524D01*
X82510381Y-86606286D01*
X82510381Y-86368190D01*
X82558000Y-86272952D01*
X82605619Y-86225333D01*
X82700857Y-86177714D01*
X82796095Y-86177714D01*
X82938952Y-86225333D01*
X83510381Y-86796762D01*
X83510381Y-86177714D01*
X100528381Y-77858667D02*
X99528381Y-77858667D01*
X100528381Y-77287238D01*
X99528381Y-77287238D01*
X100004571Y-76811048D02*
X100004571Y-76477714D01*
X100528381Y-76334857D02*
X100528381Y-76811048D01*
X99528381Y-76811048D01*
X99528381Y-76334857D01*
X99528381Y-75477714D02*
X99528381Y-75668191D01*
X99576000Y-75763429D01*
X99623619Y-75811048D01*
X99766476Y-75906286D01*
X99956952Y-75953905D01*
X100337905Y-75953905D01*
X100433143Y-75906286D01*
X100480762Y-75858667D01*
X100528381Y-75763429D01*
X100528381Y-75572952D01*
X100480762Y-75477714D01*
X100433143Y-75430095D01*
X100337905Y-75382476D01*
X100099810Y-75382476D01*
X100004571Y-75430095D01*
X99956952Y-75477714D01*
X99909333Y-75572952D01*
X99909333Y-75763429D01*
X99956952Y-75858667D01*
X100004571Y-75906286D01*
X100099810Y-75953905D01*
X100528381Y-74430095D02*
X100528381Y-75001524D01*
X100528381Y-74715810D02*
X99528381Y-74715810D01*
X99671238Y-74811048D01*
X99766476Y-74906286D01*
X99814095Y-75001524D01*
X99623619Y-74049143D02*
X99576000Y-74001524D01*
X99528381Y-73906286D01*
X99528381Y-73668190D01*
X99576000Y-73572952D01*
X99623619Y-73525333D01*
X99718857Y-73477714D01*
X99814095Y-73477714D01*
X99956952Y-73525333D01*
X100528381Y-74096762D01*
X100528381Y-73477714D01*
X101290381Y-61856667D02*
X100290381Y-61856667D01*
X101290381Y-61285238D01*
X100290381Y-61285238D01*
X100766571Y-60809048D02*
X100766571Y-60475714D01*
X101290381Y-60332857D02*
X101290381Y-60809048D01*
X100290381Y-60809048D01*
X100290381Y-60332857D01*
X100290381Y-59475714D02*
X100290381Y-59666191D01*
X100338000Y-59761429D01*
X100385619Y-59809048D01*
X100528476Y-59904286D01*
X100718952Y-59951905D01*
X101099905Y-59951905D01*
X101195143Y-59904286D01*
X101242762Y-59856667D01*
X101290381Y-59761429D01*
X101290381Y-59570952D01*
X101242762Y-59475714D01*
X101195143Y-59428095D01*
X101099905Y-59380476D01*
X100861810Y-59380476D01*
X100766571Y-59428095D01*
X100718952Y-59475714D01*
X100671333Y-59570952D01*
X100671333Y-59761429D01*
X100718952Y-59856667D01*
X100766571Y-59904286D01*
X100861810Y-59951905D01*
X101290381Y-58428095D02*
X101290381Y-58999524D01*
X101290381Y-58713810D02*
X100290381Y-58713810D01*
X100433238Y-58809048D01*
X100528476Y-58904286D01*
X100576095Y-58999524D01*
X100385619Y-58047143D02*
X100338000Y-57999524D01*
X100290381Y-57904286D01*
X100290381Y-57666190D01*
X100338000Y-57570952D01*
X100385619Y-57523333D01*
X100480857Y-57475714D01*
X100576095Y-57475714D01*
X100718952Y-57523333D01*
X101290381Y-58094762D01*
X101290381Y-57475714D01*
X122845581Y-71156248D02*
X122845581Y-70584819D01*
X123845581Y-70870534D02*
X122845581Y-70870534D01*
X123845581Y-69775295D02*
X123845581Y-70251486D01*
X122845581Y-70251486D01*
X122845581Y-69251486D02*
X122845581Y-69156247D01*
X122893200Y-69061009D01*
X122940819Y-69013390D01*
X123036057Y-68965771D01*
X123226533Y-68918152D01*
X123464629Y-68918152D01*
X123655105Y-68965771D01*
X123750343Y-69013390D01*
X123797962Y-69061009D01*
X123845581Y-69156247D01*
X123845581Y-69251486D01*
X123797962Y-69346724D01*
X123750343Y-69394343D01*
X123655105Y-69441962D01*
X123464629Y-69489581D01*
X123226533Y-69489581D01*
X123036057Y-69441962D01*
X122940819Y-69394343D01*
X122893200Y-69346724D01*
X122845581Y-69251486D01*
X123274152Y-68346724D02*
X123226533Y-68441962D01*
X123178914Y-68489581D01*
X123083676Y-68537200D01*
X123036057Y-68537200D01*
X122940819Y-68489581D01*
X122893200Y-68441962D01*
X122845581Y-68346724D01*
X122845581Y-68156247D01*
X122893200Y-68061009D01*
X122940819Y-68013390D01*
X123036057Y-67965771D01*
X123083676Y-67965771D01*
X123178914Y-68013390D01*
X123226533Y-68061009D01*
X123274152Y-68156247D01*
X123274152Y-68346724D01*
X123321771Y-68441962D01*
X123369390Y-68489581D01*
X123464629Y-68537200D01*
X123655105Y-68537200D01*
X123750343Y-68489581D01*
X123797962Y-68441962D01*
X123845581Y-68346724D01*
X123845581Y-68156247D01*
X123797962Y-68061009D01*
X123750343Y-68013390D01*
X123655105Y-67965771D01*
X123464629Y-67965771D01*
X123369390Y-68013390D01*
X123321771Y-68061009D01*
X123274152Y-68156247D01*
X122940819Y-67584819D02*
X122893200Y-67537200D01*
X122845581Y-67441962D01*
X122845581Y-67203866D01*
X122893200Y-67108628D01*
X122940819Y-67061009D01*
X123036057Y-67013390D01*
X123131295Y-67013390D01*
X123274152Y-67061009D01*
X123845581Y-67632438D01*
X123845581Y-67013390D01*
D12*
X66802000Y-142240000D02*
X66802000Y-119380000D01*
X66802000Y-119380000D02*
X120142000Y-119380000D01*
X120142000Y-119380000D02*
X120142000Y-142240000D01*
X120142000Y-142240000D02*
X66802000Y-142240000D01*
D13*
X74930000Y-60960000D02*
G75*
G03X74930000Y-60960000I-2286000J0D01*
G01*
X75082400Y-67462400D02*
G75*
G03X75082400Y-67462400I-2286000J0D01*
G01*
X67028000Y-86316000D02*
X67028000Y-88436000D01*
X67028000Y-88436000D02*
X71148000Y-88436000D01*
X71148000Y-88436000D02*
X71148000Y-86316000D01*
X71148000Y-86316000D02*
X67028000Y-86316000D01*
X66258000Y-87376000D02*
X67028000Y-87376000D01*
X71918000Y-87376000D02*
X71148000Y-87376000D01*
X67688000Y-86316000D02*
X67688000Y-88436000D01*
X71148000Y-85667400D02*
X71148000Y-83547400D01*
X71148000Y-83547400D02*
X67028000Y-83547400D01*
X67028000Y-83547400D02*
X67028000Y-85667400D01*
X67028000Y-85667400D02*
X71148000Y-85667400D01*
X71918000Y-84607400D02*
X71148000Y-84607400D01*
X66258000Y-84607400D02*
X67028000Y-84607400D01*
X70488000Y-85667400D02*
X70488000Y-83547400D01*
X110022000Y-110530000D02*
X104902000Y-110530000D01*
X110022000Y-107910000D02*
X104902000Y-107910000D01*
X110022000Y-110530000D02*
X110022000Y-107910000D01*
X104902000Y-110530000D02*
X104902000Y-107910000D01*
X80558000Y-107990000D02*
X75438000Y-107990000D01*
X80558000Y-105370000D02*
X75438000Y-105370000D01*
X80558000Y-107990000D02*
X80558000Y-105370000D01*
X75438000Y-107990000D02*
X75438000Y-105370000D01*
X141336400Y-79106400D02*
X146456400Y-79106400D01*
X141336400Y-81726400D02*
X146456400Y-81726400D01*
X141336400Y-79106400D02*
X141336400Y-81726400D01*
X146456400Y-79106400D02*
X146456400Y-81726400D01*
X144943723Y-88137722D02*
G75*
G03X144944000Y-83526420I-1179723J2305722D01*
G01*
X142584277Y-88137722D02*
G75*
G02X142584000Y-83526420I1179723J2305722D01*
G01*
X142584277Y-88137722D02*
G75*
G03X144944000Y-88137580I1179723J2305722D01*
G01*
X146314000Y-85832000D02*
X141214000Y-85832000D01*
X146314000Y-85872000D02*
X141214000Y-85872000D01*
X146313000Y-85912000D02*
X141215000Y-85912000D01*
X146312000Y-85952000D02*
X141216000Y-85952000D01*
X146310000Y-85992000D02*
X141218000Y-85992000D01*
X146307000Y-86032000D02*
X141221000Y-86032000D01*
X146303000Y-86072000D02*
X141225000Y-86072000D01*
X146299000Y-86112000D02*
X144744000Y-86112000D01*
X142784000Y-86112000D02*
X141229000Y-86112000D01*
X146295000Y-86152000D02*
X144744000Y-86152000D01*
X142784000Y-86152000D02*
X141233000Y-86152000D01*
X146289000Y-86192000D02*
X144744000Y-86192000D01*
X142784000Y-86192000D02*
X141239000Y-86192000D01*
X146283000Y-86232000D02*
X144744000Y-86232000D01*
X142784000Y-86232000D02*
X141245000Y-86232000D01*
X146277000Y-86272000D02*
X144744000Y-86272000D01*
X142784000Y-86272000D02*
X141251000Y-86272000D01*
X146270000Y-86312000D02*
X144744000Y-86312000D01*
X142784000Y-86312000D02*
X141258000Y-86312000D01*
X146262000Y-86352000D02*
X144744000Y-86352000D01*
X142784000Y-86352000D02*
X141266000Y-86352000D01*
X146253000Y-86392000D02*
X144744000Y-86392000D01*
X142784000Y-86392000D02*
X141275000Y-86392000D01*
X146244000Y-86432000D02*
X144744000Y-86432000D01*
X142784000Y-86432000D02*
X141284000Y-86432000D01*
X146234000Y-86472000D02*
X144744000Y-86472000D01*
X142784000Y-86472000D02*
X141294000Y-86472000D01*
X146224000Y-86512000D02*
X144744000Y-86512000D01*
X142784000Y-86512000D02*
X141304000Y-86512000D01*
X146212000Y-86553000D02*
X144744000Y-86553000D01*
X142784000Y-86553000D02*
X141316000Y-86553000D01*
X146200000Y-86593000D02*
X144744000Y-86593000D01*
X142784000Y-86593000D02*
X141328000Y-86593000D01*
X146188000Y-86633000D02*
X144744000Y-86633000D01*
X142784000Y-86633000D02*
X141340000Y-86633000D01*
X146174000Y-86673000D02*
X144744000Y-86673000D01*
X142784000Y-86673000D02*
X141354000Y-86673000D01*
X146160000Y-86713000D02*
X144744000Y-86713000D01*
X142784000Y-86713000D02*
X141368000Y-86713000D01*
X146146000Y-86753000D02*
X144744000Y-86753000D01*
X142784000Y-86753000D02*
X141382000Y-86753000D01*
X146130000Y-86793000D02*
X144744000Y-86793000D01*
X142784000Y-86793000D02*
X141398000Y-86793000D01*
X146114000Y-86833000D02*
X144744000Y-86833000D01*
X142784000Y-86833000D02*
X141414000Y-86833000D01*
X146097000Y-86873000D02*
X144744000Y-86873000D01*
X142784000Y-86873000D02*
X141431000Y-86873000D01*
X146079000Y-86913000D02*
X144744000Y-86913000D01*
X142784000Y-86913000D02*
X141449000Y-86913000D01*
X146060000Y-86953000D02*
X144744000Y-86953000D01*
X142784000Y-86953000D02*
X141468000Y-86953000D01*
X146040000Y-86993000D02*
X144744000Y-86993000D01*
X142784000Y-86993000D02*
X141488000Y-86993000D01*
X146020000Y-87033000D02*
X144744000Y-87033000D01*
X142784000Y-87033000D02*
X141508000Y-87033000D01*
X145998000Y-87073000D02*
X144744000Y-87073000D01*
X142784000Y-87073000D02*
X141530000Y-87073000D01*
X145976000Y-87113000D02*
X144744000Y-87113000D01*
X142784000Y-87113000D02*
X141552000Y-87113000D01*
X145953000Y-87153000D02*
X144744000Y-87153000D01*
X142784000Y-87153000D02*
X141575000Y-87153000D01*
X145929000Y-87193000D02*
X144744000Y-87193000D01*
X142784000Y-87193000D02*
X141599000Y-87193000D01*
X145904000Y-87233000D02*
X144744000Y-87233000D01*
X142784000Y-87233000D02*
X141624000Y-87233000D01*
X145877000Y-87273000D02*
X144744000Y-87273000D01*
X142784000Y-87273000D02*
X141651000Y-87273000D01*
X145850000Y-87313000D02*
X144744000Y-87313000D01*
X142784000Y-87313000D02*
X141678000Y-87313000D01*
X145822000Y-87353000D02*
X144744000Y-87353000D01*
X142784000Y-87353000D02*
X141706000Y-87353000D01*
X145792000Y-87393000D02*
X144744000Y-87393000D01*
X142784000Y-87393000D02*
X141736000Y-87393000D01*
X145761000Y-87433000D02*
X144744000Y-87433000D01*
X142784000Y-87433000D02*
X141767000Y-87433000D01*
X145729000Y-87473000D02*
X144744000Y-87473000D01*
X142784000Y-87473000D02*
X141799000Y-87473000D01*
X145696000Y-87513000D02*
X144744000Y-87513000D01*
X142784000Y-87513000D02*
X141832000Y-87513000D01*
X145661000Y-87553000D02*
X144744000Y-87553000D01*
X142784000Y-87553000D02*
X141867000Y-87553000D01*
X145625000Y-87593000D02*
X144744000Y-87593000D01*
X142784000Y-87593000D02*
X141903000Y-87593000D01*
X145587000Y-87633000D02*
X144744000Y-87633000D01*
X142784000Y-87633000D02*
X141941000Y-87633000D01*
X145547000Y-87673000D02*
X144744000Y-87673000D01*
X142784000Y-87673000D02*
X141981000Y-87673000D01*
X145506000Y-87713000D02*
X144744000Y-87713000D01*
X142784000Y-87713000D02*
X142022000Y-87713000D01*
X145463000Y-87753000D02*
X144744000Y-87753000D01*
X142784000Y-87753000D02*
X142065000Y-87753000D01*
X145418000Y-87793000D02*
X144744000Y-87793000D01*
X142784000Y-87793000D02*
X142110000Y-87793000D01*
X145370000Y-87833000D02*
X144744000Y-87833000D01*
X142784000Y-87833000D02*
X142158000Y-87833000D01*
X145320000Y-87873000D02*
X144744000Y-87873000D01*
X142784000Y-87873000D02*
X142208000Y-87873000D01*
X145268000Y-87913000D02*
X144744000Y-87913000D01*
X142784000Y-87913000D02*
X142260000Y-87913000D01*
X145212000Y-87953000D02*
X144744000Y-87953000D01*
X142784000Y-87953000D02*
X142316000Y-87953000D01*
X145154000Y-87993000D02*
X144744000Y-87993000D01*
X142784000Y-87993000D02*
X142374000Y-87993000D01*
X145091000Y-88033000D02*
X144744000Y-88033000D01*
X142784000Y-88033000D02*
X142437000Y-88033000D01*
X145025000Y-88073000D02*
X142503000Y-88073000D01*
X144953000Y-88113000D02*
X142575000Y-88113000D01*
X144876000Y-88153000D02*
X142652000Y-88153000D01*
X144792000Y-88193000D02*
X142736000Y-88193000D01*
X144698000Y-88233000D02*
X142830000Y-88233000D01*
X144593000Y-88273000D02*
X142935000Y-88273000D01*
X144471000Y-88313000D02*
X143057000Y-88313000D01*
X144323000Y-88353000D02*
X143205000Y-88353000D01*
X144118000Y-88393000D02*
X143410000Y-88393000D01*
X143764000Y-82382000D02*
X143764000Y-83582000D01*
X144414000Y-82982000D02*
X143114000Y-82982000D01*
X141742800Y-60869200D02*
X146862800Y-60869200D01*
X141742800Y-63489200D02*
X146862800Y-63489200D01*
X141742800Y-60869200D02*
X141742800Y-63489200D01*
X146862800Y-60869200D02*
X146862800Y-63489200D01*
X85130000Y-102449000D02*
X85130000Y-107569000D01*
X82510000Y-102449000D02*
X82510000Y-107569000D01*
X85130000Y-102449000D02*
X82510000Y-102449000D01*
X85130000Y-107569000D02*
X82510000Y-107569000D01*
X146608522Y-65165077D02*
G75*
G03X141997220Y-65164800I-2305722J-1179723D01*
G01*
X146608522Y-67524523D02*
G75*
G02X141997220Y-67524800I-2305722J1179723D01*
G01*
X146608522Y-67524523D02*
G75*
G03X146608380Y-65164800I-2305722J1179723D01*
G01*
X144302800Y-63794800D02*
X144302800Y-68894800D01*
X144342800Y-63794800D02*
X144342800Y-68894800D01*
X144382800Y-63795800D02*
X144382800Y-68893800D01*
X144422800Y-63796800D02*
X144422800Y-68892800D01*
X144462800Y-63798800D02*
X144462800Y-68890800D01*
X144502800Y-63801800D02*
X144502800Y-68887800D01*
X144542800Y-63805800D02*
X144542800Y-68883800D01*
X144582800Y-63809800D02*
X144582800Y-65364800D01*
X144582800Y-67324800D02*
X144582800Y-68879800D01*
X144622800Y-63813800D02*
X144622800Y-65364800D01*
X144622800Y-67324800D02*
X144622800Y-68875800D01*
X144662800Y-63819800D02*
X144662800Y-65364800D01*
X144662800Y-67324800D02*
X144662800Y-68869800D01*
X144702800Y-63825800D02*
X144702800Y-65364800D01*
X144702800Y-67324800D02*
X144702800Y-68863800D01*
X144742800Y-63831800D02*
X144742800Y-65364800D01*
X144742800Y-67324800D02*
X144742800Y-68857800D01*
X144782800Y-63838800D02*
X144782800Y-65364800D01*
X144782800Y-67324800D02*
X144782800Y-68850800D01*
X144822800Y-63846800D02*
X144822800Y-65364800D01*
X144822800Y-67324800D02*
X144822800Y-68842800D01*
X144862800Y-63855800D02*
X144862800Y-65364800D01*
X144862800Y-67324800D02*
X144862800Y-68833800D01*
X144902800Y-63864800D02*
X144902800Y-65364800D01*
X144902800Y-67324800D02*
X144902800Y-68824800D01*
X144942800Y-63874800D02*
X144942800Y-65364800D01*
X144942800Y-67324800D02*
X144942800Y-68814800D01*
X144982800Y-63884800D02*
X144982800Y-65364800D01*
X144982800Y-67324800D02*
X144982800Y-68804800D01*
X145023800Y-63896800D02*
X145023800Y-65364800D01*
X145023800Y-67324800D02*
X145023800Y-68792800D01*
X145063800Y-63908800D02*
X145063800Y-65364800D01*
X145063800Y-67324800D02*
X145063800Y-68780800D01*
X145103800Y-63920800D02*
X145103800Y-65364800D01*
X145103800Y-67324800D02*
X145103800Y-68768800D01*
X145143800Y-63934800D02*
X145143800Y-65364800D01*
X145143800Y-67324800D02*
X145143800Y-68754800D01*
X145183800Y-63948800D02*
X145183800Y-65364800D01*
X145183800Y-67324800D02*
X145183800Y-68740800D01*
X145223800Y-63962800D02*
X145223800Y-65364800D01*
X145223800Y-67324800D02*
X145223800Y-68726800D01*
X145263800Y-63978800D02*
X145263800Y-65364800D01*
X145263800Y-67324800D02*
X145263800Y-68710800D01*
X145303800Y-63994800D02*
X145303800Y-65364800D01*
X145303800Y-67324800D02*
X145303800Y-68694800D01*
X145343800Y-64011800D02*
X145343800Y-65364800D01*
X145343800Y-67324800D02*
X145343800Y-68677800D01*
X145383800Y-64029800D02*
X145383800Y-65364800D01*
X145383800Y-67324800D02*
X145383800Y-68659800D01*
X145423800Y-64048800D02*
X145423800Y-65364800D01*
X145423800Y-67324800D02*
X145423800Y-68640800D01*
X145463800Y-64068800D02*
X145463800Y-65364800D01*
X145463800Y-67324800D02*
X145463800Y-68620800D01*
X145503800Y-64088800D02*
X145503800Y-65364800D01*
X145503800Y-67324800D02*
X145503800Y-68600800D01*
X145543800Y-64110800D02*
X145543800Y-65364800D01*
X145543800Y-67324800D02*
X145543800Y-68578800D01*
X145583800Y-64132800D02*
X145583800Y-65364800D01*
X145583800Y-67324800D02*
X145583800Y-68556800D01*
X145623800Y-64155800D02*
X145623800Y-65364800D01*
X145623800Y-67324800D02*
X145623800Y-68533800D01*
X145663800Y-64179800D02*
X145663800Y-65364800D01*
X145663800Y-67324800D02*
X145663800Y-68509800D01*
X145703800Y-64204800D02*
X145703800Y-65364800D01*
X145703800Y-67324800D02*
X145703800Y-68484800D01*
X145743800Y-64231800D02*
X145743800Y-65364800D01*
X145743800Y-67324800D02*
X145743800Y-68457800D01*
X145783800Y-64258800D02*
X145783800Y-65364800D01*
X145783800Y-67324800D02*
X145783800Y-68430800D01*
X145823800Y-64286800D02*
X145823800Y-65364800D01*
X145823800Y-67324800D02*
X145823800Y-68402800D01*
X145863800Y-64316800D02*
X145863800Y-65364800D01*
X145863800Y-67324800D02*
X145863800Y-68372800D01*
X145903800Y-64347800D02*
X145903800Y-65364800D01*
X145903800Y-67324800D02*
X145903800Y-68341800D01*
X145943800Y-64379800D02*
X145943800Y-65364800D01*
X145943800Y-67324800D02*
X145943800Y-68309800D01*
X145983800Y-64412800D02*
X145983800Y-65364800D01*
X145983800Y-67324800D02*
X145983800Y-68276800D01*
X146023800Y-64447800D02*
X146023800Y-65364800D01*
X146023800Y-67324800D02*
X146023800Y-68241800D01*
X146063800Y-64483800D02*
X146063800Y-65364800D01*
X146063800Y-67324800D02*
X146063800Y-68205800D01*
X146103800Y-64521800D02*
X146103800Y-65364800D01*
X146103800Y-67324800D02*
X146103800Y-68167800D01*
X146143800Y-64561800D02*
X146143800Y-65364800D01*
X146143800Y-67324800D02*
X146143800Y-68127800D01*
X146183800Y-64602800D02*
X146183800Y-65364800D01*
X146183800Y-67324800D02*
X146183800Y-68086800D01*
X146223800Y-64645800D02*
X146223800Y-65364800D01*
X146223800Y-67324800D02*
X146223800Y-68043800D01*
X146263800Y-64690800D02*
X146263800Y-65364800D01*
X146263800Y-67324800D02*
X146263800Y-67998800D01*
X146303800Y-64738800D02*
X146303800Y-65364800D01*
X146303800Y-67324800D02*
X146303800Y-67950800D01*
X146343800Y-64788800D02*
X146343800Y-65364800D01*
X146343800Y-67324800D02*
X146343800Y-67900800D01*
X146383800Y-64840800D02*
X146383800Y-65364800D01*
X146383800Y-67324800D02*
X146383800Y-67848800D01*
X146423800Y-64896800D02*
X146423800Y-65364800D01*
X146423800Y-67324800D02*
X146423800Y-67792800D01*
X146463800Y-64954800D02*
X146463800Y-65364800D01*
X146463800Y-67324800D02*
X146463800Y-67734800D01*
X146503800Y-65017800D02*
X146503800Y-65364800D01*
X146503800Y-67324800D02*
X146503800Y-67671800D01*
X146543800Y-65083800D02*
X146543800Y-67605800D01*
X146583800Y-65155800D02*
X146583800Y-67533800D01*
X146623800Y-65232800D02*
X146623800Y-67456800D01*
X146663800Y-65316800D02*
X146663800Y-67372800D01*
X146703800Y-65410800D02*
X146703800Y-67278800D01*
X146743800Y-65515800D02*
X146743800Y-67173800D01*
X146783800Y-65637800D02*
X146783800Y-67051800D01*
X146823800Y-65785800D02*
X146823800Y-66903800D01*
X146863800Y-65990800D02*
X146863800Y-66698800D01*
X140852800Y-66344800D02*
X142052800Y-66344800D01*
X141452800Y-65694800D02*
X141452800Y-66994800D01*
X93552640Y-55909840D02*
X88432640Y-55909840D01*
X93552640Y-53289840D02*
X88432640Y-53289840D01*
X93552640Y-55909840D02*
X93552640Y-53289840D01*
X88432640Y-55909840D02*
X88432640Y-53289840D01*
X93588200Y-59186440D02*
X88468200Y-59186440D01*
X93588200Y-56566440D02*
X88468200Y-56566440D01*
X93588200Y-59186440D02*
X93588200Y-56566440D01*
X88468200Y-59186440D02*
X88468200Y-56566440D01*
X94477200Y-71972800D02*
X89357200Y-71972800D01*
X94477200Y-69352800D02*
X89357200Y-69352800D01*
X94477200Y-71972800D02*
X94477200Y-69352800D01*
X89357200Y-71972800D02*
X89357200Y-69352800D01*
X94528000Y-75528800D02*
X89408000Y-75528800D01*
X94528000Y-72908800D02*
X89408000Y-72908800D01*
X94528000Y-75528800D02*
X94528000Y-72908800D01*
X89408000Y-75528800D02*
X89408000Y-72908800D01*
X74737600Y-81523200D02*
X74737600Y-76403200D01*
X77357600Y-81523200D02*
X77357600Y-76403200D01*
X74737600Y-81523200D02*
X77357600Y-81523200D01*
X74737600Y-76403200D02*
X77357600Y-76403200D01*
X77256000Y-83119600D02*
X77256000Y-88239600D01*
X74636000Y-83119600D02*
X74636000Y-88239600D01*
X77256000Y-83119600D02*
X74636000Y-83119600D01*
X77256000Y-88239600D02*
X74636000Y-88239600D01*
X89271480Y-60996200D02*
X94391480Y-60996200D01*
X89271480Y-63616200D02*
X94391480Y-63616200D01*
X89271480Y-60996200D02*
X89271480Y-63616200D01*
X94391480Y-60996200D02*
X94391480Y-63616200D01*
X89368000Y-76414000D02*
X94488000Y-76414000D01*
X89368000Y-79034000D02*
X94488000Y-79034000D01*
X89368000Y-76414000D02*
X89368000Y-79034000D01*
X94488000Y-76414000D02*
X94488000Y-79034000D01*
X72350000Y-89622000D02*
X77470000Y-89622000D01*
X72350000Y-92242000D02*
X77470000Y-92242000D01*
X72350000Y-89622000D02*
X72350000Y-92242000D01*
X77470000Y-89622000D02*
X77470000Y-92242000D01*
X94350200Y-67080760D02*
X89230200Y-67080760D01*
X94350200Y-64460760D02*
X89230200Y-64460760D01*
X94350200Y-67080760D02*
X94350200Y-64460760D01*
X89230200Y-67080760D02*
X89230200Y-64460760D01*
X94030160Y-82711920D02*
X88910160Y-82711920D01*
X94030160Y-80091920D02*
X88910160Y-80091920D01*
X94030160Y-82711920D02*
X94030160Y-80091920D01*
X88910160Y-82711920D02*
X88910160Y-80091920D01*
X77116300Y-95302700D02*
X71996300Y-95302700D01*
X77116300Y-92682700D02*
X71996300Y-92682700D01*
X77116300Y-95302700D02*
X77116300Y-92682700D01*
X71996300Y-95302700D02*
X71996300Y-92682700D01*
X106386000Y-63794000D02*
X106386000Y-58674000D01*
X109006000Y-63794000D02*
X109006000Y-58674000D01*
X106386000Y-63794000D02*
X109006000Y-63794000D01*
X106386000Y-58674000D02*
X109006000Y-58674000D01*
X108498000Y-74128000D02*
X108498000Y-79248000D01*
X105878000Y-74128000D02*
X105878000Y-79248000D01*
X108498000Y-74128000D02*
X105878000Y-74128000D01*
X108498000Y-79248000D02*
X105878000Y-79248000D01*
X106386000Y-56936000D02*
X106386000Y-51816000D01*
X109006000Y-56936000D02*
X109006000Y-51816000D01*
X106386000Y-56936000D02*
X109006000Y-56936000D01*
X106386000Y-51816000D02*
X109006000Y-51816000D01*
X105878000Y-73192000D02*
X105878000Y-68072000D01*
X108498000Y-73192000D02*
X108498000Y-68072000D01*
X105878000Y-73192000D02*
X108498000Y-73192000D01*
X105878000Y-68072000D02*
X108498000Y-68072000D01*
X91480000Y-86828000D02*
X91480000Y-91948000D01*
X88860000Y-86828000D02*
X88860000Y-91948000D01*
X91480000Y-86828000D02*
X88860000Y-86828000D01*
X91480000Y-91948000D02*
X88860000Y-91948000D01*
X93938720Y-85914860D02*
X88818720Y-85914860D01*
X93938720Y-83294860D02*
X88818720Y-83294860D01*
X93938720Y-85914860D02*
X93938720Y-83294860D01*
X88818720Y-85914860D02*
X88818720Y-83294860D01*
X112736000Y-67778000D02*
X117856000Y-67778000D01*
X112736000Y-70398000D02*
X117856000Y-70398000D01*
X112736000Y-67778000D02*
X112736000Y-70398000D01*
X117856000Y-67778000D02*
X117856000Y-70398000D01*
X120864000Y-78526000D02*
X120864000Y-73406000D01*
X123484000Y-78526000D02*
X123484000Y-73406000D01*
X120864000Y-78526000D02*
X123484000Y-78526000D01*
X120864000Y-73406000D02*
X123484000Y-73406000D01*
X99502600Y-92873200D02*
X104622600Y-92873200D01*
X99502600Y-95493200D02*
X104622600Y-95493200D01*
X99502600Y-92873200D02*
X99502600Y-95493200D01*
X104622600Y-92873200D02*
X104622600Y-95493200D01*
X119928000Y-55586000D02*
X119928000Y-60706000D01*
X117308000Y-55586000D02*
X117308000Y-60706000D01*
X119928000Y-55586000D02*
X117308000Y-55586000D01*
X119928000Y-60706000D02*
X117308000Y-60706000D01*
X118912000Y-73366000D02*
X118912000Y-78486000D01*
X116292000Y-73366000D02*
X116292000Y-78486000D01*
X118912000Y-73366000D02*
X116292000Y-73366000D01*
X118912000Y-78486000D02*
X116292000Y-78486000D01*
X115737000Y-98592000D02*
X110617000Y-98592000D01*
X115737000Y-95972000D02*
X110617000Y-95972000D01*
X115737000Y-98592000D02*
X115737000Y-95972000D01*
X110617000Y-98592000D02*
X110617000Y-95972000D01*
X120864000Y-60746000D02*
X120864000Y-55626000D01*
X123484000Y-60746000D02*
X123484000Y-55626000D01*
X120864000Y-60746000D02*
X123484000Y-60746000D01*
X120864000Y-55626000D02*
X123484000Y-55626000D01*
X116038000Y-85384000D02*
X116038000Y-80264000D01*
X118658000Y-85384000D02*
X118658000Y-80264000D01*
X116038000Y-85384000D02*
X118658000Y-85384000D01*
X116038000Y-80264000D02*
X118658000Y-80264000D01*
X81574000Y-142454000D02*
X81574000Y-147574000D01*
X78954000Y-142454000D02*
X78954000Y-147574000D01*
X81574000Y-142454000D02*
X78954000Y-142454000D01*
X81574000Y-147574000D02*
X78954000Y-147574000D01*
X87416000Y-142454000D02*
X87416000Y-147574000D01*
X84796000Y-142454000D02*
X84796000Y-147574000D01*
X87416000Y-142454000D02*
X84796000Y-142454000D01*
X87416000Y-147574000D02*
X84796000Y-147574000D01*
X101309800Y-142530200D02*
X101309800Y-147650200D01*
X98689800Y-142530200D02*
X98689800Y-147650200D01*
X101309800Y-142530200D02*
X98689800Y-142530200D01*
X101309800Y-147650200D02*
X98689800Y-147650200D01*
X66824800Y-73057200D02*
X66824800Y-75177200D01*
X66824800Y-75177200D02*
X70944800Y-75177200D01*
X70944800Y-75177200D02*
X70944800Y-73057200D01*
X70944800Y-73057200D02*
X66824800Y-73057200D01*
X66054800Y-74117200D02*
X66824800Y-74117200D01*
X71714800Y-74117200D02*
X70944800Y-74117200D01*
X67484800Y-73057200D02*
X67484800Y-75177200D01*
X70995600Y-72256200D02*
X70995600Y-70136200D01*
X70995600Y-70136200D02*
X66875600Y-70136200D01*
X66875600Y-70136200D02*
X66875600Y-72256200D01*
X66875600Y-72256200D02*
X70995600Y-72256200D01*
X71765600Y-71196200D02*
X70995600Y-71196200D01*
X66105600Y-71196200D02*
X66875600Y-71196200D01*
X70335600Y-72256200D02*
X70335600Y-70136200D01*
X80721200Y-63957200D02*
G75*
G03X80721200Y-63957200I-2286000J0D01*
G01*
X68925440Y-67513200D02*
G75*
G03X68925440Y-67513200I-2286000J0D01*
G01*
X69037200Y-61163200D02*
G75*
G03X69037200Y-61163200I-2286000J0D01*
G01*
X142091100Y-107654400D02*
X147291100Y-107654400D01*
X142091100Y-97434400D02*
X142091100Y-107654400D01*
X147291100Y-94834400D02*
X147291100Y-107654400D01*
X142091100Y-97434400D02*
X144691100Y-97434400D01*
X144691100Y-97434400D02*
X144691100Y-94834400D01*
X144691100Y-94834400D02*
X147291100Y-94834400D01*
X142091100Y-96164400D02*
X142091100Y-94834400D01*
X142091100Y-94834400D02*
X143421100Y-94834400D01*
X108518000Y-115630000D02*
X108518000Y-112970000D01*
X100838000Y-115630000D02*
X108518000Y-115630000D01*
X100838000Y-112970000D02*
X108518000Y-112970000D01*
X100838000Y-115630000D02*
X100838000Y-112970000D01*
X99568000Y-115630000D02*
X98238000Y-115630000D01*
X98238000Y-115630000D02*
X98238000Y-114300000D01*
X77225200Y-70298000D02*
X74565200Y-70298000D01*
X77225200Y-72898000D02*
X77225200Y-70298000D01*
X74565200Y-72898000D02*
X74565200Y-70298000D01*
X77225200Y-72898000D02*
X74565200Y-72898000D01*
X77225200Y-74168000D02*
X77225200Y-75498000D01*
X77225200Y-75498000D02*
X75895200Y-75498000D01*
X86547000Y-76209200D02*
X86547000Y-73549200D01*
X83947000Y-76209200D02*
X86547000Y-76209200D01*
X83947000Y-73549200D02*
X86547000Y-73549200D01*
X83947000Y-76209200D02*
X83947000Y-73549200D01*
X82677000Y-76209200D02*
X81347000Y-76209200D01*
X81347000Y-76209200D02*
X81347000Y-74879200D01*
X144696000Y-78122000D02*
X144696000Y-75802000D01*
X144696000Y-75802000D02*
X139276000Y-75802000D01*
X139276000Y-75802000D02*
X139276000Y-78122000D01*
X139276000Y-78122000D02*
X144696000Y-78122000D01*
X144816000Y-76962000D02*
X144696000Y-76962000D01*
X139156000Y-76962000D02*
X139276000Y-76962000D01*
X77640000Y-104919000D02*
X77640000Y-102599000D01*
X77640000Y-102599000D02*
X72220000Y-102599000D01*
X72220000Y-102599000D02*
X72220000Y-104919000D01*
X72220000Y-104919000D02*
X77640000Y-104919000D01*
X77760000Y-103759000D02*
X77640000Y-103759000D01*
X72100000Y-103759000D02*
X72220000Y-103759000D01*
X112666000Y-55710000D02*
X110346000Y-55710000D01*
X110346000Y-55710000D02*
X110346000Y-61130000D01*
X110346000Y-61130000D02*
X112666000Y-61130000D01*
X112666000Y-61130000D02*
X112666000Y-55710000D01*
X111506000Y-55590000D02*
X111506000Y-55710000D01*
X111506000Y-61250000D02*
X111506000Y-61130000D01*
X111472200Y-70924600D02*
X109152200Y-70924600D01*
X109152200Y-70924600D02*
X109152200Y-76344600D01*
X109152200Y-76344600D02*
X111472200Y-76344600D01*
X111472200Y-76344600D02*
X111472200Y-70924600D01*
X110312200Y-70804600D02*
X110312200Y-70924600D01*
X110312200Y-76464600D02*
X110312200Y-76344600D01*
X96858000Y-83930000D02*
X96858000Y-86250000D01*
X96858000Y-86250000D02*
X102278000Y-86250000D01*
X102278000Y-86250000D02*
X102278000Y-83930000D01*
X102278000Y-83930000D02*
X96858000Y-83930000D01*
X96738000Y-85090000D02*
X96858000Y-85090000D01*
X102398000Y-85090000D02*
X102278000Y-85090000D01*
X86142000Y-113827000D02*
X85812000Y-113827000D01*
X85812000Y-113827000D02*
X85812000Y-107407000D01*
X85812000Y-107407000D02*
X86142000Y-107407000D01*
X88102000Y-113827000D02*
X88432000Y-113827000D01*
X88432000Y-113827000D02*
X88432000Y-107407000D01*
X88432000Y-107407000D02*
X88102000Y-107407000D01*
X89317000Y-113827000D02*
X88987000Y-113827000D01*
X88987000Y-113827000D02*
X88987000Y-107407000D01*
X88987000Y-107407000D02*
X89317000Y-107407000D01*
X91277000Y-113827000D02*
X91607000Y-113827000D01*
X91607000Y-113827000D02*
X91607000Y-107407000D01*
X91607000Y-107407000D02*
X91277000Y-107407000D01*
X138623600Y-72781600D02*
X138623600Y-72451600D01*
X138623600Y-72451600D02*
X145043600Y-72451600D01*
X145043600Y-72451600D02*
X145043600Y-72781600D01*
X138623600Y-74741600D02*
X138623600Y-75071600D01*
X138623600Y-75071600D02*
X145043600Y-75071600D01*
X145043600Y-75071600D02*
X145043600Y-74741600D01*
X138763300Y-69517700D02*
X138763300Y-69187700D01*
X138763300Y-69187700D02*
X145183300Y-69187700D01*
X145183300Y-69187700D02*
X145183300Y-69517700D01*
X138763300Y-71477700D02*
X138763300Y-71807700D01*
X138763300Y-71807700D02*
X145183300Y-71807700D01*
X145183300Y-71807700D02*
X145183300Y-71477700D01*
X79848000Y-77252000D02*
X79848000Y-76922000D01*
X79848000Y-76922000D02*
X86268000Y-76922000D01*
X86268000Y-76922000D02*
X86268000Y-77252000D01*
X79848000Y-79212000D02*
X79848000Y-79542000D01*
X79848000Y-79542000D02*
X86268000Y-79542000D01*
X86268000Y-79542000D02*
X86268000Y-79212000D01*
X81214400Y-68081600D02*
X80884400Y-68081600D01*
X80884400Y-68081600D02*
X80884400Y-61661600D01*
X80884400Y-61661600D02*
X81214400Y-61661600D01*
X83174400Y-68081600D02*
X83504400Y-68081600D01*
X83504400Y-68081600D02*
X83504400Y-61661600D01*
X83504400Y-61661600D02*
X83174400Y-61661600D01*
X79784500Y-70444800D02*
X79784500Y-70114800D01*
X79784500Y-70114800D02*
X86204500Y-70114800D01*
X86204500Y-70114800D02*
X86204500Y-70444800D01*
X79784500Y-72404800D02*
X79784500Y-72734800D01*
X79784500Y-72734800D02*
X86204500Y-72734800D01*
X86204500Y-72734800D02*
X86204500Y-72404800D01*
X90078000Y-101564000D02*
X90078000Y-101894000D01*
X90078000Y-101894000D02*
X83658000Y-101894000D01*
X83658000Y-101894000D02*
X83658000Y-101564000D01*
X90078000Y-99604000D02*
X90078000Y-99274000D01*
X90078000Y-99274000D02*
X83658000Y-99274000D01*
X83658000Y-99274000D02*
X83658000Y-99604000D01*
X86425600Y-61598100D02*
X86755600Y-61598100D01*
X86755600Y-61598100D02*
X86755600Y-68018100D01*
X86755600Y-68018100D02*
X86425600Y-68018100D01*
X84465600Y-61598100D02*
X84135600Y-61598100D01*
X84135600Y-61598100D02*
X84135600Y-68018100D01*
X84135600Y-68018100D02*
X84465600Y-68018100D01*
X86153700Y-55628100D02*
X86153700Y-55958100D01*
X86153700Y-55958100D02*
X79733700Y-55958100D01*
X79733700Y-55958100D02*
X79733700Y-55628100D01*
X86153700Y-53668100D02*
X86153700Y-53338100D01*
X86153700Y-53338100D02*
X79733700Y-53338100D01*
X79733700Y-53338100D02*
X79733700Y-53668100D01*
X86064800Y-58904700D02*
X86064800Y-59234700D01*
X86064800Y-59234700D02*
X79644800Y-59234700D01*
X79644800Y-59234700D02*
X79644800Y-58904700D01*
X86064800Y-56944700D02*
X86064800Y-56614700D01*
X86064800Y-56614700D02*
X79644800Y-56614700D01*
X79644800Y-56614700D02*
X79644800Y-56944700D01*
X83658000Y-96302000D02*
X83658000Y-95972000D01*
X83658000Y-95972000D02*
X90078000Y-95972000D01*
X90078000Y-95972000D02*
X90078000Y-96302000D01*
X83658000Y-98262000D02*
X83658000Y-98592000D01*
X83658000Y-98592000D02*
X90078000Y-98592000D01*
X90078000Y-98592000D02*
X90078000Y-98262000D01*
X79219500Y-101297300D02*
X79219500Y-101627300D01*
X79219500Y-101627300D02*
X72799500Y-101627300D01*
X72799500Y-101627300D02*
X72799500Y-101297300D01*
X79219500Y-99337300D02*
X79219500Y-99007300D01*
X79219500Y-99007300D02*
X72799500Y-99007300D01*
X72799500Y-99007300D02*
X72799500Y-99337300D01*
X79219500Y-98135000D02*
X79219500Y-98465000D01*
X79219500Y-98465000D02*
X72799500Y-98465000D01*
X72799500Y-98465000D02*
X72799500Y-98135000D01*
X79219500Y-96175000D02*
X79219500Y-95845000D01*
X79219500Y-95845000D02*
X72799500Y-95845000D01*
X72799500Y-95845000D02*
X72799500Y-96175000D01*
X72298000Y-78246800D02*
X72298000Y-78576800D01*
X72298000Y-78576800D02*
X65878000Y-78576800D01*
X65878000Y-78576800D02*
X65878000Y-78246800D01*
X72298000Y-76286800D02*
X72298000Y-75956800D01*
X72298000Y-75956800D02*
X65878000Y-75956800D01*
X65878000Y-75956800D02*
X65878000Y-76286800D01*
X72287840Y-81551340D02*
X72287840Y-81881340D01*
X72287840Y-81881340D02*
X65867840Y-81881340D01*
X65867840Y-81881340D02*
X65867840Y-81551340D01*
X72287840Y-79591340D02*
X72287840Y-79261340D01*
X72287840Y-79261340D02*
X65867840Y-79261340D01*
X65867840Y-79261340D02*
X65867840Y-79591340D01*
X103169160Y-66806640D02*
X103169160Y-67136640D01*
X103169160Y-67136640D02*
X96749160Y-67136640D01*
X96749160Y-67136640D02*
X96749160Y-66806640D01*
X103169160Y-64846640D02*
X103169160Y-64516640D01*
X103169160Y-64516640D02*
X96749160Y-64516640D01*
X96749160Y-64516640D02*
X96749160Y-64846640D01*
X102930400Y-82707040D02*
X102930400Y-83037040D01*
X102930400Y-83037040D02*
X96510400Y-83037040D01*
X96510400Y-83037040D02*
X96510400Y-82707040D01*
X102930400Y-80747040D02*
X102930400Y-80417040D01*
X102930400Y-80417040D02*
X96510400Y-80417040D01*
X96510400Y-80417040D02*
X96510400Y-80747040D01*
X86153700Y-94972700D02*
X86153700Y-95302700D01*
X86153700Y-95302700D02*
X79733700Y-95302700D01*
X79733700Y-95302700D02*
X79733700Y-94972700D01*
X86153700Y-93012700D02*
X86153700Y-92682700D01*
X86153700Y-92682700D02*
X79733700Y-92682700D01*
X79733700Y-92682700D02*
X79733700Y-93012700D01*
X113828000Y-61884000D02*
X113498000Y-61884000D01*
X113498000Y-61884000D02*
X113498000Y-55464000D01*
X113498000Y-55464000D02*
X113828000Y-55464000D01*
X115788000Y-61884000D02*
X116118000Y-61884000D01*
X116118000Y-61884000D02*
X116118000Y-55464000D01*
X116118000Y-55464000D02*
X115788000Y-55464000D01*
X112812000Y-78902000D02*
X112482000Y-78902000D01*
X112482000Y-78902000D02*
X112482000Y-72482000D01*
X112482000Y-72482000D02*
X112812000Y-72482000D01*
X114772000Y-78902000D02*
X115102000Y-78902000D01*
X115102000Y-78902000D02*
X115102000Y-72482000D01*
X115102000Y-72482000D02*
X114772000Y-72482000D01*
X95596000Y-88428000D02*
X95596000Y-88098000D01*
X95596000Y-88098000D02*
X102016000Y-88098000D01*
X102016000Y-88098000D02*
X102016000Y-88428000D01*
X95596000Y-90388000D02*
X95596000Y-90718000D01*
X95596000Y-90718000D02*
X102016000Y-90718000D01*
X102016000Y-90718000D02*
X102016000Y-90388000D01*
X107107280Y-64790760D02*
X107107280Y-64460760D01*
X107107280Y-64460760D02*
X113527280Y-64460760D01*
X113527280Y-64460760D02*
X113527280Y-64790760D01*
X107107280Y-66750760D02*
X107107280Y-67080760D01*
X107107280Y-67080760D02*
X113527280Y-67080760D01*
X113527280Y-67080760D02*
X113527280Y-66750760D01*
X113636500Y-83618900D02*
X113636500Y-83948900D01*
X113636500Y-83948900D02*
X107216500Y-83948900D01*
X107216500Y-83948900D02*
X107216500Y-83618900D01*
X113636500Y-81658900D02*
X113636500Y-81328900D01*
X113636500Y-81328900D02*
X107216500Y-81328900D01*
X107216500Y-81328900D02*
X107216500Y-81658900D01*
X96999500Y-95048900D02*
X96999500Y-95378900D01*
X96999500Y-95378900D02*
X90579500Y-95378900D01*
X90579500Y-95378900D02*
X90579500Y-95048900D01*
X96999500Y-93088900D02*
X96999500Y-92758900D01*
X96999500Y-92758900D02*
X90579500Y-92758900D01*
X90579500Y-92758900D02*
X90579500Y-93088900D01*
X133004000Y-60416000D02*
X133004000Y-60746000D01*
X133004000Y-60746000D02*
X126584000Y-60746000D01*
X126584000Y-60746000D02*
X126584000Y-60416000D01*
X133004000Y-58456000D02*
X133004000Y-58126000D01*
X133004000Y-58126000D02*
X126584000Y-58126000D01*
X126584000Y-58126000D02*
X126584000Y-58456000D01*
X117942800Y-93900700D02*
X117612800Y-93900700D01*
X117612800Y-93900700D02*
X117612800Y-87480700D01*
X117612800Y-87480700D02*
X117942800Y-87480700D01*
X119902800Y-93900700D02*
X120232800Y-93900700D01*
X120232800Y-93900700D02*
X120232800Y-87480700D01*
X120232800Y-87480700D02*
X119902800Y-87480700D01*
X126584000Y-55154000D02*
X126584000Y-54824000D01*
X126584000Y-54824000D02*
X133004000Y-54824000D01*
X133004000Y-54824000D02*
X133004000Y-55154000D01*
X126584000Y-57114000D02*
X126584000Y-57444000D01*
X126584000Y-57444000D02*
X133004000Y-57444000D01*
X133004000Y-57444000D02*
X133004000Y-57114000D01*
X123458800Y-87480700D02*
X123788800Y-87480700D01*
X123788800Y-87480700D02*
X123788800Y-93900700D01*
X123788800Y-93900700D02*
X123458800Y-93900700D01*
X121498800Y-87480700D02*
X121168800Y-87480700D01*
X121168800Y-87480700D02*
X121168800Y-93900700D01*
X121168800Y-93900700D02*
X121498800Y-93900700D01*
X137068000Y-64226000D02*
X137068000Y-64556000D01*
X137068000Y-64556000D02*
X130648000Y-64556000D01*
X130648000Y-64556000D02*
X130648000Y-64226000D01*
X137068000Y-62266000D02*
X137068000Y-61936000D01*
X137068000Y-61936000D02*
X130648000Y-61936000D01*
X130648000Y-61936000D02*
X130648000Y-62266000D01*
X130648000Y-65822000D02*
X130648000Y-65492000D01*
X130648000Y-65492000D02*
X137068000Y-65492000D01*
X137068000Y-65492000D02*
X137068000Y-65822000D01*
X130648000Y-67782000D02*
X130648000Y-68112000D01*
X130648000Y-68112000D02*
X137068000Y-68112000D01*
X137068000Y-68112000D02*
X137068000Y-67782000D01*
D11*
X76557000Y-110593000D02*
X76557000Y-110818000D01*
X79907000Y-110593000D02*
X79907000Y-110893000D01*
X79907000Y-113943000D02*
X79907000Y-113643000D01*
X76557000Y-113943000D02*
X76557000Y-113643000D01*
X76557000Y-110593000D02*
X79907000Y-110593000D01*
X76557000Y-113943000D02*
X79907000Y-113943000D01*
X76557000Y-110818000D02*
X75332000Y-110818000D01*
D13*
X110042000Y-103489000D02*
G75*
G02X110042000Y-101489000I0J1000000D01*
G01*
X110042000Y-101489000D02*
X110042000Y-99839000D01*
X110042000Y-99839000D02*
X92142000Y-99839000D01*
X92142000Y-99839000D02*
X92142000Y-105139000D01*
X92142000Y-105139000D02*
X110042000Y-105139000D01*
X110042000Y-105139000D02*
X110042000Y-103489000D01*
X110102000Y-97349000D02*
X92082000Y-97349000D01*
X92082000Y-97349000D02*
X92082000Y-107629000D01*
X92082000Y-107629000D02*
X110102000Y-107629000D01*
X110102000Y-107629000D02*
X110102000Y-97349000D01*
X101705920Y-53208880D02*
G75*
G02X99705920Y-53208880I-1000000J0D01*
G01*
X99705920Y-53208880D02*
X98055920Y-53208880D01*
X98055920Y-53208880D02*
X98055920Y-63488880D01*
X98055920Y-63488880D02*
X103355920Y-63488880D01*
X103355920Y-63488880D02*
X103355920Y-53208880D01*
X103355920Y-53208880D02*
X101705920Y-53208880D01*
X95565920Y-53148880D02*
X95565920Y-63548880D01*
X95565920Y-63548880D02*
X105845920Y-63548880D01*
X105845920Y-63548880D02*
X105845920Y-53148880D01*
X105845920Y-53148880D02*
X95565920Y-53148880D01*
X101203000Y-69190560D02*
G75*
G02X99203000Y-69190560I-1000000J0D01*
G01*
X99203000Y-69190560D02*
X97553000Y-69190560D01*
X97553000Y-69190560D02*
X97553000Y-79470560D01*
X97553000Y-79470560D02*
X102853000Y-79470560D01*
X102853000Y-79470560D02*
X102853000Y-69190560D01*
X102853000Y-69190560D02*
X101203000Y-69190560D01*
X95063000Y-69130560D02*
X95063000Y-79530560D01*
X95063000Y-79530560D02*
X105343000Y-79530560D01*
X105343000Y-79530560D02*
X105343000Y-69130560D01*
X105343000Y-69130560D02*
X95063000Y-69130560D01*
X84058000Y-81728000D02*
G75*
G02X82058000Y-81728000I-1000000J0D01*
G01*
X82058000Y-81728000D02*
X80408000Y-81728000D01*
X80408000Y-81728000D02*
X80408000Y-92008000D01*
X80408000Y-92008000D02*
X85708000Y-92008000D01*
X85708000Y-92008000D02*
X85708000Y-81728000D01*
X85708000Y-81728000D02*
X84058000Y-81728000D01*
X77918000Y-81668000D02*
X77918000Y-92068000D01*
X77918000Y-92068000D02*
X88198000Y-92068000D01*
X88198000Y-92068000D02*
X88198000Y-81668000D01*
X88198000Y-81668000D02*
X77918000Y-81668000D01*
X124444000Y-61916000D02*
G75*
G02X122444000Y-61916000I-1000000J0D01*
G01*
X122444000Y-61916000D02*
X120794000Y-61916000D01*
X120794000Y-61916000D02*
X120794000Y-72196000D01*
X120794000Y-72196000D02*
X126094000Y-72196000D01*
X126094000Y-72196000D02*
X126094000Y-61916000D01*
X126094000Y-61916000D02*
X124444000Y-61916000D01*
X118304000Y-61856000D02*
X118304000Y-72256000D01*
X118304000Y-72256000D02*
X128584000Y-72256000D01*
X128584000Y-72256000D02*
X128584000Y-61856000D01*
X128584000Y-61856000D02*
X118304000Y-61856000D01*
X111490000Y-85030000D02*
G75*
G02X109490000Y-85030000I-1000000J0D01*
G01*
X109490000Y-85030000D02*
X107840000Y-85030000D01*
X107840000Y-85030000D02*
X107840000Y-95310000D01*
X107840000Y-95310000D02*
X113140000Y-95310000D01*
X113140000Y-95310000D02*
X113140000Y-85030000D01*
X113140000Y-85030000D02*
X111490000Y-85030000D01*
X105350000Y-84970000D02*
X105350000Y-95370000D01*
X105350000Y-95370000D02*
X115630000Y-95370000D01*
X115630000Y-95370000D02*
X115630000Y-84970000D01*
X115630000Y-84970000D02*
X105350000Y-84970000D01*
X74203800Y-108535000D02*
X74203800Y-114785000D01*
X69153800Y-108535000D02*
X69153800Y-114785000D01*
X69153800Y-108535000D02*
G75*
G02X74203800Y-108535000I2525000J0D01*
G01*
X69153800Y-114785000D02*
G75*
G03X74203800Y-114785000I2525000J0D01*
G01*
X55286000Y-53000000D02*
G75*
G03X55286000Y-53000000I-2286000J0D01*
G01*
X149286000Y-53000000D02*
G75*
G03X149286000Y-53000000I-2286000J0D01*
G01*
X55286000Y-147000000D02*
G75*
G03X55286000Y-147000000I-2286000J0D01*
G01*
X149286000Y-147000000D02*
G75*
G03X149286000Y-147000000I-2286000J0D01*
G01*
D14*
X48698300Y-61824400D02*
X49398300Y-74624400D01*
X44698300Y-61824400D02*
X45398300Y-74624400D01*
X45698300Y-61824400D02*
X46398300Y-74624400D01*
X47698300Y-61824400D02*
X48398300Y-74624400D01*
X46698300Y-61824400D02*
X47398300Y-74624400D01*
X42698300Y-61824400D02*
X43398300Y-74624400D01*
X43698300Y-61824400D02*
X44398300Y-74624400D01*
X41698300Y-61824400D02*
X42398300Y-74624400D01*
X40698300Y-61824400D02*
X41398300Y-74624400D01*
X40698300Y-74624400D02*
X49898300Y-74624400D01*
X40698300Y-61824400D02*
X49898300Y-61824400D01*
X28698300Y-73024400D02*
X40698300Y-73024400D01*
X28698300Y-63424400D02*
X40698300Y-63424400D01*
X28698300Y-63424400D02*
X28698300Y-73024400D01*
X40698300Y-61824400D02*
X40698300Y-74624400D01*
X49898300Y-75624400D02*
X63598300Y-75624400D01*
X63598300Y-60824400D02*
X49898300Y-60824400D01*
X63598300Y-60824400D02*
X63598300Y-75624400D01*
X49898300Y-60824400D02*
X49898300Y-75624400D01*
X48965000Y-83516000D02*
X49665000Y-96316000D01*
X44965000Y-83516000D02*
X45665000Y-96316000D01*
X45965000Y-83516000D02*
X46665000Y-96316000D01*
X47965000Y-83516000D02*
X48665000Y-96316000D01*
X46965000Y-83516000D02*
X47665000Y-96316000D01*
X42965000Y-83516000D02*
X43665000Y-96316000D01*
X43965000Y-83516000D02*
X44665000Y-96316000D01*
X41965000Y-83516000D02*
X42665000Y-96316000D01*
X40965000Y-83516000D02*
X41665000Y-96316000D01*
X40965000Y-96316000D02*
X50165000Y-96316000D01*
X40965000Y-83516000D02*
X50165000Y-83516000D01*
X28965000Y-94716000D02*
X40965000Y-94716000D01*
X28965000Y-85116000D02*
X40965000Y-85116000D01*
X28965000Y-85116000D02*
X28965000Y-94716000D01*
X40965000Y-83516000D02*
X40965000Y-96316000D01*
X50165000Y-97316000D02*
X63865000Y-97316000D01*
X63865000Y-82516000D02*
X50165000Y-82516000D01*
X63865000Y-82516000D02*
X63865000Y-97316000D01*
X50165000Y-82516000D02*
X50165000Y-97316000D01*
D13*
X147929600Y-129387600D02*
X147929600Y-139547600D01*
X149199600Y-129387600D02*
X141579600Y-129387600D01*
X141579600Y-129387600D02*
X141579600Y-139547600D01*
X141579600Y-139547600D02*
X149199600Y-139547600D01*
X149199600Y-139547600D02*
X149199600Y-129387600D01*
X120724300Y-85472900D02*
X120724300Y-80352900D01*
X123344300Y-85472900D02*
X123344300Y-80352900D01*
X120724300Y-85472900D02*
X123344300Y-85472900D01*
X120724300Y-80352900D02*
X123344300Y-80352900D01*
X139650363Y-140964642D02*
G75*
G03X139650640Y-136353340I-1179723J2305722D01*
G01*
X137290917Y-140964642D02*
G75*
G02X137290640Y-136353340I1179723J2305722D01*
G01*
X137290917Y-140964642D02*
G75*
G03X139650640Y-140964500I1179723J2305722D01*
G01*
X141020640Y-138658920D02*
X135920640Y-138658920D01*
X141020640Y-138698920D02*
X135920640Y-138698920D01*
X141019640Y-138738920D02*
X135921640Y-138738920D01*
X141018640Y-138778920D02*
X135922640Y-138778920D01*
X141016640Y-138818920D02*
X135924640Y-138818920D01*
X141013640Y-138858920D02*
X135927640Y-138858920D01*
X141009640Y-138898920D02*
X135931640Y-138898920D01*
X141005640Y-138938920D02*
X139450640Y-138938920D01*
X137490640Y-138938920D02*
X135935640Y-138938920D01*
X141001640Y-138978920D02*
X139450640Y-138978920D01*
X137490640Y-138978920D02*
X135939640Y-138978920D01*
X140995640Y-139018920D02*
X139450640Y-139018920D01*
X137490640Y-139018920D02*
X135945640Y-139018920D01*
X140989640Y-139058920D02*
X139450640Y-139058920D01*
X137490640Y-139058920D02*
X135951640Y-139058920D01*
X140983640Y-139098920D02*
X139450640Y-139098920D01*
X137490640Y-139098920D02*
X135957640Y-139098920D01*
X140976640Y-139138920D02*
X139450640Y-139138920D01*
X137490640Y-139138920D02*
X135964640Y-139138920D01*
X140968640Y-139178920D02*
X139450640Y-139178920D01*
X137490640Y-139178920D02*
X135972640Y-139178920D01*
X140959640Y-139218920D02*
X139450640Y-139218920D01*
X137490640Y-139218920D02*
X135981640Y-139218920D01*
X140950640Y-139258920D02*
X139450640Y-139258920D01*
X137490640Y-139258920D02*
X135990640Y-139258920D01*
X140940640Y-139298920D02*
X139450640Y-139298920D01*
X137490640Y-139298920D02*
X136000640Y-139298920D01*
X140930640Y-139338920D02*
X139450640Y-139338920D01*
X137490640Y-139338920D02*
X136010640Y-139338920D01*
X140918640Y-139379920D02*
X139450640Y-139379920D01*
X137490640Y-139379920D02*
X136022640Y-139379920D01*
X140906640Y-139419920D02*
X139450640Y-139419920D01*
X137490640Y-139419920D02*
X136034640Y-139419920D01*
X140894640Y-139459920D02*
X139450640Y-139459920D01*
X137490640Y-139459920D02*
X136046640Y-139459920D01*
X140880640Y-139499920D02*
X139450640Y-139499920D01*
X137490640Y-139499920D02*
X136060640Y-139499920D01*
X140866640Y-139539920D02*
X139450640Y-139539920D01*
X137490640Y-139539920D02*
X136074640Y-139539920D01*
X140852640Y-139579920D02*
X139450640Y-139579920D01*
X137490640Y-139579920D02*
X136088640Y-139579920D01*
X140836640Y-139619920D02*
X139450640Y-139619920D01*
X137490640Y-139619920D02*
X136104640Y-139619920D01*
X140820640Y-139659920D02*
X139450640Y-139659920D01*
X137490640Y-139659920D02*
X136120640Y-139659920D01*
X140803640Y-139699920D02*
X139450640Y-139699920D01*
X137490640Y-139699920D02*
X136137640Y-139699920D01*
X140785640Y-139739920D02*
X139450640Y-139739920D01*
X137490640Y-139739920D02*
X136155640Y-139739920D01*
X140766640Y-139779920D02*
X139450640Y-139779920D01*
X137490640Y-139779920D02*
X136174640Y-139779920D01*
X140746640Y-139819920D02*
X139450640Y-139819920D01*
X137490640Y-139819920D02*
X136194640Y-139819920D01*
X140726640Y-139859920D02*
X139450640Y-139859920D01*
X137490640Y-139859920D02*
X136214640Y-139859920D01*
X140704640Y-139899920D02*
X139450640Y-139899920D01*
X137490640Y-139899920D02*
X136236640Y-139899920D01*
X140682640Y-139939920D02*
X139450640Y-139939920D01*
X137490640Y-139939920D02*
X136258640Y-139939920D01*
X140659640Y-139979920D02*
X139450640Y-139979920D01*
X137490640Y-139979920D02*
X136281640Y-139979920D01*
X140635640Y-140019920D02*
X139450640Y-140019920D01*
X137490640Y-140019920D02*
X136305640Y-140019920D01*
X140610640Y-140059920D02*
X139450640Y-140059920D01*
X137490640Y-140059920D02*
X136330640Y-140059920D01*
X140583640Y-140099920D02*
X139450640Y-140099920D01*
X137490640Y-140099920D02*
X136357640Y-140099920D01*
X140556640Y-140139920D02*
X139450640Y-140139920D01*
X137490640Y-140139920D02*
X136384640Y-140139920D01*
X140528640Y-140179920D02*
X139450640Y-140179920D01*
X137490640Y-140179920D02*
X136412640Y-140179920D01*
X140498640Y-140219920D02*
X139450640Y-140219920D01*
X137490640Y-140219920D02*
X136442640Y-140219920D01*
X140467640Y-140259920D02*
X139450640Y-140259920D01*
X137490640Y-140259920D02*
X136473640Y-140259920D01*
X140435640Y-140299920D02*
X139450640Y-140299920D01*
X137490640Y-140299920D02*
X136505640Y-140299920D01*
X140402640Y-140339920D02*
X139450640Y-140339920D01*
X137490640Y-140339920D02*
X136538640Y-140339920D01*
X140367640Y-140379920D02*
X139450640Y-140379920D01*
X137490640Y-140379920D02*
X136573640Y-140379920D01*
X140331640Y-140419920D02*
X139450640Y-140419920D01*
X137490640Y-140419920D02*
X136609640Y-140419920D01*
X140293640Y-140459920D02*
X139450640Y-140459920D01*
X137490640Y-140459920D02*
X136647640Y-140459920D01*
X140253640Y-140499920D02*
X139450640Y-140499920D01*
X137490640Y-140499920D02*
X136687640Y-140499920D01*
X140212640Y-140539920D02*
X139450640Y-140539920D01*
X137490640Y-140539920D02*
X136728640Y-140539920D01*
X140169640Y-140579920D02*
X139450640Y-140579920D01*
X137490640Y-140579920D02*
X136771640Y-140579920D01*
X140124640Y-140619920D02*
X139450640Y-140619920D01*
X137490640Y-140619920D02*
X136816640Y-140619920D01*
X140076640Y-140659920D02*
X139450640Y-140659920D01*
X137490640Y-140659920D02*
X136864640Y-140659920D01*
X140026640Y-140699920D02*
X139450640Y-140699920D01*
X137490640Y-140699920D02*
X136914640Y-140699920D01*
X139974640Y-140739920D02*
X139450640Y-140739920D01*
X137490640Y-140739920D02*
X136966640Y-140739920D01*
X139918640Y-140779920D02*
X139450640Y-140779920D01*
X137490640Y-140779920D02*
X137022640Y-140779920D01*
X139860640Y-140819920D02*
X139450640Y-140819920D01*
X137490640Y-140819920D02*
X137080640Y-140819920D01*
X139797640Y-140859920D02*
X139450640Y-140859920D01*
X137490640Y-140859920D02*
X137143640Y-140859920D01*
X139731640Y-140899920D02*
X137209640Y-140899920D01*
X139659640Y-140939920D02*
X137281640Y-140939920D01*
X139582640Y-140979920D02*
X137358640Y-140979920D01*
X139498640Y-141019920D02*
X137442640Y-141019920D01*
X139404640Y-141059920D02*
X137536640Y-141059920D01*
X139299640Y-141099920D02*
X137641640Y-141099920D01*
X139177640Y-141139920D02*
X137763640Y-141139920D01*
X139029640Y-141179920D02*
X137911640Y-141179920D01*
X138824640Y-141219920D02*
X138116640Y-141219920D01*
X138470640Y-135208920D02*
X138470640Y-136408920D01*
X139120640Y-135808920D02*
X137820640Y-135808920D01*
X146577680Y-115549040D02*
X141457680Y-115549040D01*
X146577680Y-112929040D02*
X141457680Y-112929040D01*
X146577680Y-115549040D02*
X146577680Y-112929040D01*
X141457680Y-115549040D02*
X141457680Y-112929040D01*
X139810800Y-129492700D02*
X137150800Y-129492700D01*
X139810800Y-132092700D02*
X139810800Y-129492700D01*
X137150800Y-132092700D02*
X137150800Y-129492700D01*
X139810800Y-132092700D02*
X137150800Y-132092700D01*
X139810800Y-133362700D02*
X139810800Y-134692700D01*
X139810800Y-134692700D02*
X138480800Y-134692700D01*
X142769600Y-126405000D02*
X142769600Y-116165000D01*
X147410600Y-126405000D02*
X147410600Y-116165000D01*
X142769600Y-126405000D02*
X147410600Y-126405000D01*
X142769600Y-116165000D02*
X147410600Y-116165000D01*
X144279600Y-126405000D02*
X144279600Y-116165000D01*
X142769600Y-123135000D02*
X144279600Y-123135000D01*
X142769600Y-119434000D02*
X144279600Y-119434000D01*
X56956000Y-118304000D02*
X54296000Y-118304000D01*
X56956000Y-136144000D02*
X56956000Y-118304000D01*
X54296000Y-136144000D02*
X54296000Y-118304000D01*
X56956000Y-136144000D02*
X54296000Y-136144000D01*
X56956000Y-137414000D02*
X56956000Y-138744000D01*
X56956000Y-138744000D02*
X55626000Y-138744000D01*
X62286000Y-102000000D02*
G75*
G03X62286000Y-102000000I-2286000J0D01*
G01*
X62286000Y-146000000D02*
G75*
G03X62286000Y-146000000I-2286000J0D01*
G01*
X139286000Y-102000000D02*
G75*
G03X139286000Y-102000000I-2286000J0D01*
G01*
X139286000Y-146000000D02*
G75*
G03X139286000Y-146000000I-2286000J0D01*
G01*
X146598000Y-112622960D02*
X141478000Y-112622960D01*
X146598000Y-110002960D02*
X141478000Y-110002960D01*
X146598000Y-112622960D02*
X146598000Y-110002960D01*
X141478000Y-112622960D02*
X141478000Y-110002960D01*
X130888800Y-145474700D02*
X130888800Y-154274700D01*
X130888800Y-154274700D02*
X121688800Y-154274700D01*
X128188800Y-139574700D02*
X130888800Y-139574700D01*
X130888800Y-139574700D02*
X130888800Y-141474700D01*
X121688800Y-154274700D02*
X121688800Y-139574700D01*
X121688800Y-139574700D02*
X124288800Y-139574700D01*
D11*
X98674395Y-127290581D02*
X98674395Y-128100105D01*
X98722014Y-128195343D01*
X98769633Y-128242962D01*
X98864871Y-128290581D01*
X99055348Y-128290581D01*
X99150586Y-128242962D01*
X99198205Y-128195343D01*
X99245824Y-128100105D01*
X99245824Y-127290581D01*
X100055348Y-127766771D02*
X100198205Y-127814390D01*
X100245824Y-127862010D01*
X100293443Y-127957248D01*
X100293443Y-128100105D01*
X100245824Y-128195343D01*
X100198205Y-128242962D01*
X100102967Y-128290581D01*
X99722014Y-128290581D01*
X99722014Y-127290581D01*
X100055348Y-127290581D01*
X100150586Y-127338200D01*
X100198205Y-127385819D01*
X100245824Y-127481057D01*
X100245824Y-127576295D01*
X100198205Y-127671533D01*
X100150586Y-127719152D01*
X100055348Y-127766771D01*
X99722014Y-127766771D01*
X101245824Y-128290581D02*
X100674395Y-128290581D01*
X100960109Y-128290581D02*
X100960109Y-127290581D01*
X100864871Y-127433438D01*
X100769633Y-127528676D01*
X100674395Y-127576295D01*
X96452205Y-130592581D02*
X96452205Y-130783057D01*
X96833158Y-130592581D02*
X96833158Y-130783057D01*
X97785539Y-130640200D02*
X97690301Y-130592581D01*
X97547444Y-130592581D01*
X97404586Y-130640200D01*
X97309348Y-130735438D01*
X97261729Y-130830676D01*
X97214110Y-131021152D01*
X97214110Y-131164010D01*
X97261729Y-131354486D01*
X97309348Y-131449724D01*
X97404586Y-131544962D01*
X97547444Y-131592581D01*
X97642682Y-131592581D01*
X97785539Y-131544962D01*
X97833158Y-131497343D01*
X97833158Y-131164010D01*
X97642682Y-131164010D01*
X98261729Y-131068771D02*
X98595063Y-131068771D01*
X98737920Y-131592581D02*
X98261729Y-131592581D01*
X98261729Y-130592581D01*
X98737920Y-130592581D01*
X99166491Y-131592581D02*
X99166491Y-130592581D01*
X99737920Y-131592581D01*
X99737920Y-130592581D01*
X100214110Y-131068771D02*
X100547444Y-131068771D01*
X100690301Y-131592581D02*
X100214110Y-131592581D01*
X100214110Y-130592581D01*
X100690301Y-130592581D01*
X101690301Y-131592581D02*
X101356967Y-131116390D01*
X101118872Y-131592581D02*
X101118872Y-130592581D01*
X101499825Y-130592581D01*
X101595063Y-130640200D01*
X101642682Y-130687819D01*
X101690301Y-130783057D01*
X101690301Y-130925914D01*
X101642682Y-131021152D01*
X101595063Y-131068771D01*
X101499825Y-131116390D01*
X101118872Y-131116390D01*
X102118872Y-131592581D02*
X102118872Y-130592581D01*
X103166491Y-131497343D02*
X103118872Y-131544962D01*
X102976015Y-131592581D01*
X102880777Y-131592581D01*
X102737919Y-131544962D01*
X102642681Y-131449724D01*
X102595062Y-131354486D01*
X102547443Y-131164010D01*
X102547443Y-131021152D01*
X102595062Y-130830676D01*
X102642681Y-130735438D01*
X102737919Y-130640200D01*
X102880777Y-130592581D01*
X102976015Y-130592581D01*
X103118872Y-130640200D01*
X103166491Y-130687819D01*
X103547443Y-130592581D02*
X103547443Y-130783057D01*
X103928396Y-130592581D02*
X103928396Y-130783057D01*
X94499847Y-129893962D02*
X94642704Y-129941581D01*
X94880800Y-129941581D01*
X94976038Y-129893962D01*
X95023657Y-129846343D01*
X95071276Y-129751105D01*
X95071276Y-129655867D01*
X95023657Y-129560629D01*
X94976038Y-129513010D01*
X94880800Y-129465390D01*
X94690323Y-129417771D01*
X94595085Y-129370152D01*
X94547466Y-129322533D01*
X94499847Y-129227295D01*
X94499847Y-129132057D01*
X94547466Y-129036819D01*
X94595085Y-128989200D01*
X94690323Y-128941581D01*
X94928419Y-128941581D01*
X95071276Y-128989200D01*
X95356990Y-128941581D02*
X95928419Y-128941581D01*
X95642704Y-129941581D02*
X95642704Y-128941581D01*
X96261752Y-129941581D02*
X96261752Y-128941581D01*
X96595086Y-129655867D01*
X96928419Y-128941581D01*
X96928419Y-129941581D01*
X97309371Y-128941581D02*
X97928419Y-128941581D01*
X97595085Y-129322533D01*
X97737943Y-129322533D01*
X97833181Y-129370152D01*
X97880800Y-129417771D01*
X97928419Y-129513010D01*
X97928419Y-129751105D01*
X97880800Y-129846343D01*
X97833181Y-129893962D01*
X97737943Y-129941581D01*
X97452228Y-129941581D01*
X97356990Y-129893962D01*
X97309371Y-129846343D01*
X98309371Y-129036819D02*
X98356990Y-128989200D01*
X98452228Y-128941581D01*
X98690324Y-128941581D01*
X98785562Y-128989200D01*
X98833181Y-129036819D01*
X98880800Y-129132057D01*
X98880800Y-129227295D01*
X98833181Y-129370152D01*
X98261752Y-129941581D01*
X98880800Y-129941581D01*
X99642705Y-129417771D02*
X99309371Y-129417771D01*
X99309371Y-129941581D02*
X99309371Y-128941581D01*
X99785562Y-128941581D01*
X100690324Y-129941581D02*
X100118895Y-129941581D01*
X100404609Y-129941581D02*
X100404609Y-128941581D01*
X100309371Y-129084438D01*
X100214133Y-129179676D01*
X100118895Y-129227295D01*
X101309371Y-128941581D02*
X101404610Y-128941581D01*
X101499848Y-128989200D01*
X101547467Y-129036819D01*
X101595086Y-129132057D01*
X101642705Y-129322533D01*
X101642705Y-129560629D01*
X101595086Y-129751105D01*
X101547467Y-129846343D01*
X101499848Y-129893962D01*
X101404610Y-129941581D01*
X101309371Y-129941581D01*
X101214133Y-129893962D01*
X101166514Y-129846343D01*
X101118895Y-129751105D01*
X101071276Y-129560629D01*
X101071276Y-129322533D01*
X101118895Y-129132057D01*
X101166514Y-129036819D01*
X101214133Y-128989200D01*
X101309371Y-128941581D01*
X101976038Y-128941581D02*
X102595086Y-128941581D01*
X102261752Y-129322533D01*
X102404610Y-129322533D01*
X102499848Y-129370152D01*
X102547467Y-129417771D01*
X102595086Y-129513010D01*
X102595086Y-129751105D01*
X102547467Y-129846343D01*
X102499848Y-129893962D01*
X102404610Y-129941581D01*
X102118895Y-129941581D01*
X102023657Y-129893962D01*
X101976038Y-129846343D01*
X103595086Y-129846343D02*
X103547467Y-129893962D01*
X103404610Y-129941581D01*
X103309372Y-129941581D01*
X103166514Y-129893962D01*
X103071276Y-129798724D01*
X103023657Y-129703486D01*
X102976038Y-129513010D01*
X102976038Y-129370152D01*
X103023657Y-129179676D01*
X103071276Y-129084438D01*
X103166514Y-128989200D01*
X103309372Y-128941581D01*
X103404610Y-128941581D01*
X103547467Y-128989200D01*
X103595086Y-129036819D01*
X104166514Y-129370152D02*
X104071276Y-129322533D01*
X104023657Y-129274914D01*
X103976038Y-129179676D01*
X103976038Y-129132057D01*
X104023657Y-129036819D01*
X104071276Y-128989200D01*
X104166514Y-128941581D01*
X104356991Y-128941581D01*
X104452229Y-128989200D01*
X104499848Y-129036819D01*
X104547467Y-129132057D01*
X104547467Y-129179676D01*
X104499848Y-129274914D01*
X104452229Y-129322533D01*
X104356991Y-129370152D01*
X104166514Y-129370152D01*
X104071276Y-129417771D01*
X104023657Y-129465390D01*
X103976038Y-129560629D01*
X103976038Y-129751105D01*
X104023657Y-129846343D01*
X104071276Y-129893962D01*
X104166514Y-129941581D01*
X104356991Y-129941581D01*
X104452229Y-129893962D01*
X104499848Y-129846343D01*
X104547467Y-129751105D01*
X104547467Y-129560629D01*
X104499848Y-129465390D01*
X104452229Y-129417771D01*
X104356991Y-129370152D01*
X104833181Y-128941581D02*
X105404610Y-128941581D01*
X105118895Y-129941581D02*
X105118895Y-128941581D01*
X106166515Y-128941581D02*
X105976038Y-128941581D01*
X105880800Y-128989200D01*
X105833181Y-129036819D01*
X105737943Y-129179676D01*
X105690324Y-129370152D01*
X105690324Y-129751105D01*
X105737943Y-129846343D01*
X105785562Y-129893962D01*
X105880800Y-129941581D01*
X106071277Y-129941581D01*
X106166515Y-129893962D01*
X106214134Y-129846343D01*
X106261753Y-129751105D01*
X106261753Y-129513010D01*
X106214134Y-129417771D01*
X106166515Y-129370152D01*
X106071277Y-129322533D01*
X105880800Y-129322533D01*
X105785562Y-129370152D01*
X105737943Y-129417771D01*
X105690324Y-129513010D01*
X72310667Y-57364381D02*
X72310667Y-58078667D01*
X72263047Y-58221524D01*
X72167809Y-58316762D01*
X72024952Y-58364381D01*
X71929714Y-58364381D01*
X72691619Y-57364381D02*
X73358286Y-57364381D01*
X72929714Y-58364381D01*
X72259867Y-63892181D02*
X72259867Y-64606467D01*
X72212247Y-64749324D01*
X72117009Y-64844562D01*
X71974152Y-64892181D01*
X71878914Y-64892181D01*
X73212248Y-63892181D02*
X72736057Y-63892181D01*
X72688438Y-64368371D01*
X72736057Y-64320752D01*
X72831295Y-64273133D01*
X73069391Y-64273133D01*
X73164629Y-64320752D01*
X73212248Y-64368371D01*
X73259867Y-64463610D01*
X73259867Y-64701705D01*
X73212248Y-64796943D01*
X73164629Y-64844562D01*
X73069391Y-64892181D01*
X72831295Y-64892181D01*
X72736057Y-64844562D01*
X72688438Y-64796943D01*
X68349905Y-87701381D02*
X68349905Y-86701381D01*
X68588000Y-86701381D01*
X68730858Y-86749000D01*
X68826096Y-86844238D01*
X68873715Y-86939476D01*
X68921334Y-87129952D01*
X68921334Y-87272810D01*
X68873715Y-87463286D01*
X68826096Y-87558524D01*
X68730858Y-87653762D01*
X68588000Y-87701381D01*
X68349905Y-87701381D01*
X69254667Y-86701381D02*
X69873715Y-86701381D01*
X69540381Y-87082333D01*
X69683239Y-87082333D01*
X69778477Y-87129952D01*
X69826096Y-87177571D01*
X69873715Y-87272810D01*
X69873715Y-87510905D01*
X69826096Y-87606143D01*
X69778477Y-87653762D01*
X69683239Y-87701381D01*
X69397524Y-87701381D01*
X69302286Y-87653762D01*
X69254667Y-87606143D01*
X68349905Y-84932781D02*
X68349905Y-83932781D01*
X68588000Y-83932781D01*
X68730858Y-83980400D01*
X68826096Y-84075638D01*
X68873715Y-84170876D01*
X68921334Y-84361352D01*
X68921334Y-84504210D01*
X68873715Y-84694686D01*
X68826096Y-84789924D01*
X68730858Y-84885162D01*
X68588000Y-84932781D01*
X68349905Y-84932781D01*
X69778477Y-84266114D02*
X69778477Y-84932781D01*
X69540381Y-83885162D02*
X69302286Y-84599448D01*
X69921334Y-84599448D01*
X104116143Y-109386666D02*
X104163762Y-109434285D01*
X104211381Y-109577142D01*
X104211381Y-109672380D01*
X104163762Y-109815238D01*
X104068524Y-109910476D01*
X103973286Y-109958095D01*
X103782810Y-110005714D01*
X103639952Y-110005714D01*
X103449476Y-109958095D01*
X103354238Y-109910476D01*
X103259000Y-109815238D01*
X103211381Y-109672380D01*
X103211381Y-109577142D01*
X103259000Y-109434285D01*
X103306619Y-109386666D01*
X104211381Y-108434285D02*
X104211381Y-109005714D01*
X104211381Y-108720000D02*
X103211381Y-108720000D01*
X103354238Y-108815238D01*
X103449476Y-108910476D01*
X103497095Y-109005714D01*
X81891143Y-106846666D02*
X81938762Y-106894285D01*
X81986381Y-107037142D01*
X81986381Y-107132380D01*
X81938762Y-107275238D01*
X81843524Y-107370476D01*
X81748286Y-107418095D01*
X81557810Y-107465714D01*
X81414952Y-107465714D01*
X81224476Y-107418095D01*
X81129238Y-107370476D01*
X81034000Y-107275238D01*
X80986381Y-107132380D01*
X80986381Y-107037142D01*
X81034000Y-106894285D01*
X81081619Y-106846666D01*
X81081619Y-106465714D02*
X81034000Y-106418095D01*
X80986381Y-106322857D01*
X80986381Y-106084761D01*
X81034000Y-105989523D01*
X81081619Y-105941904D01*
X81176857Y-105894285D01*
X81272095Y-105894285D01*
X81414952Y-105941904D01*
X81986381Y-106513333D01*
X81986381Y-105894285D01*
X147702543Y-80202066D02*
X147750162Y-80249685D01*
X147797781Y-80392542D01*
X147797781Y-80487780D01*
X147750162Y-80630638D01*
X147654924Y-80725876D01*
X147559686Y-80773495D01*
X147369210Y-80821114D01*
X147226352Y-80821114D01*
X147035876Y-80773495D01*
X146940638Y-80725876D01*
X146845400Y-80630638D01*
X146797781Y-80487780D01*
X146797781Y-80392542D01*
X146845400Y-80249685D01*
X146893019Y-80202066D01*
X146797781Y-79868733D02*
X146797781Y-79249685D01*
X147178733Y-79583019D01*
X147178733Y-79440161D01*
X147226352Y-79344923D01*
X147273971Y-79297304D01*
X147369210Y-79249685D01*
X147607305Y-79249685D01*
X147702543Y-79297304D01*
X147750162Y-79344923D01*
X147797781Y-79440161D01*
X147797781Y-79725876D01*
X147750162Y-79821114D01*
X147702543Y-79868733D01*
X147931143Y-85998666D02*
X147978762Y-86046285D01*
X148026381Y-86189142D01*
X148026381Y-86284380D01*
X147978762Y-86427238D01*
X147883524Y-86522476D01*
X147788286Y-86570095D01*
X147597810Y-86617714D01*
X147454952Y-86617714D01*
X147264476Y-86570095D01*
X147169238Y-86522476D01*
X147074000Y-86427238D01*
X147026381Y-86284380D01*
X147026381Y-86189142D01*
X147074000Y-86046285D01*
X147121619Y-85998666D01*
X147359714Y-85141523D02*
X148026381Y-85141523D01*
X146978762Y-85379619D02*
X147693048Y-85617714D01*
X147693048Y-84998666D01*
X144136134Y-59976343D02*
X144088515Y-60023962D01*
X143945658Y-60071581D01*
X143850420Y-60071581D01*
X143707562Y-60023962D01*
X143612324Y-59928724D01*
X143564705Y-59833486D01*
X143517086Y-59643010D01*
X143517086Y-59500152D01*
X143564705Y-59309676D01*
X143612324Y-59214438D01*
X143707562Y-59119200D01*
X143850420Y-59071581D01*
X143945658Y-59071581D01*
X144088515Y-59119200D01*
X144136134Y-59166819D01*
X145040896Y-59071581D02*
X144564705Y-59071581D01*
X144517086Y-59547771D01*
X144564705Y-59500152D01*
X144659943Y-59452533D01*
X144898039Y-59452533D01*
X144993277Y-59500152D01*
X145040896Y-59547771D01*
X145088515Y-59643010D01*
X145088515Y-59881105D01*
X145040896Y-59976343D01*
X144993277Y-60023962D01*
X144898039Y-60071581D01*
X144659943Y-60071581D01*
X144564705Y-60023962D01*
X144517086Y-59976343D01*
X83653334Y-108942143D02*
X83605715Y-108989762D01*
X83462858Y-109037381D01*
X83367620Y-109037381D01*
X83224762Y-108989762D01*
X83129524Y-108894524D01*
X83081905Y-108799286D01*
X83034286Y-108608810D01*
X83034286Y-108465952D01*
X83081905Y-108275476D01*
X83129524Y-108180238D01*
X83224762Y-108085000D01*
X83367620Y-108037381D01*
X83462858Y-108037381D01*
X83605715Y-108085000D01*
X83653334Y-108132619D01*
X84510477Y-108037381D02*
X84320000Y-108037381D01*
X84224762Y-108085000D01*
X84177143Y-108132619D01*
X84081905Y-108275476D01*
X84034286Y-108465952D01*
X84034286Y-108846905D01*
X84081905Y-108942143D01*
X84129524Y-108989762D01*
X84224762Y-109037381D01*
X84415239Y-109037381D01*
X84510477Y-108989762D01*
X84558096Y-108942143D01*
X84605715Y-108846905D01*
X84605715Y-108608810D01*
X84558096Y-108513571D01*
X84510477Y-108465952D01*
X84415239Y-108418333D01*
X84224762Y-108418333D01*
X84129524Y-108465952D01*
X84081905Y-108513571D01*
X84034286Y-108608810D01*
X140971543Y-66562266D02*
X141019162Y-66609885D01*
X141066781Y-66752742D01*
X141066781Y-66847980D01*
X141019162Y-66990838D01*
X140923924Y-67086076D01*
X140828686Y-67133695D01*
X140638210Y-67181314D01*
X140495352Y-67181314D01*
X140304876Y-67133695D01*
X140209638Y-67086076D01*
X140114400Y-66990838D01*
X140066781Y-66847980D01*
X140066781Y-66752742D01*
X140114400Y-66609885D01*
X140162019Y-66562266D01*
X140066781Y-66228933D02*
X140066781Y-65562266D01*
X141066781Y-65990838D01*
X94997543Y-54725866D02*
X95045162Y-54773485D01*
X95092781Y-54916342D01*
X95092781Y-55011580D01*
X95045162Y-55154438D01*
X94949924Y-55249676D01*
X94854686Y-55297295D01*
X94664210Y-55344914D01*
X94521352Y-55344914D01*
X94330876Y-55297295D01*
X94235638Y-55249676D01*
X94140400Y-55154438D01*
X94092781Y-55011580D01*
X94092781Y-54916342D01*
X94140400Y-54773485D01*
X94188019Y-54725866D01*
X94521352Y-54154438D02*
X94473733Y-54249676D01*
X94426114Y-54297295D01*
X94330876Y-54344914D01*
X94283257Y-54344914D01*
X94188019Y-54297295D01*
X94140400Y-54249676D01*
X94092781Y-54154438D01*
X94092781Y-53963961D01*
X94140400Y-53868723D01*
X94188019Y-53821104D01*
X94283257Y-53773485D01*
X94330876Y-53773485D01*
X94426114Y-53821104D01*
X94473733Y-53868723D01*
X94521352Y-53963961D01*
X94521352Y-54154438D01*
X94568971Y-54249676D01*
X94616590Y-54297295D01*
X94711829Y-54344914D01*
X94902305Y-54344914D01*
X94997543Y-54297295D01*
X95045162Y-54249676D01*
X95092781Y-54154438D01*
X95092781Y-53963961D01*
X95045162Y-53868723D01*
X94997543Y-53821104D01*
X94902305Y-53773485D01*
X94711829Y-53773485D01*
X94616590Y-53821104D01*
X94568971Y-53868723D01*
X94521352Y-53963961D01*
X95119463Y-58098986D02*
X95167082Y-58146605D01*
X95214701Y-58289462D01*
X95214701Y-58384700D01*
X95167082Y-58527558D01*
X95071844Y-58622796D01*
X94976606Y-58670415D01*
X94786130Y-58718034D01*
X94643272Y-58718034D01*
X94452796Y-58670415D01*
X94357558Y-58622796D01*
X94262320Y-58527558D01*
X94214701Y-58384700D01*
X94214701Y-58289462D01*
X94262320Y-58146605D01*
X94309939Y-58098986D01*
X95214701Y-57622796D02*
X95214701Y-57432320D01*
X95167082Y-57337081D01*
X95119463Y-57289462D01*
X94976606Y-57194224D01*
X94786130Y-57146605D01*
X94405177Y-57146605D01*
X94309939Y-57194224D01*
X94262320Y-57241843D01*
X94214701Y-57337081D01*
X94214701Y-57527558D01*
X94262320Y-57622796D01*
X94309939Y-57670415D01*
X94405177Y-57718034D01*
X94643272Y-57718034D01*
X94738510Y-57670415D01*
X94786130Y-57622796D01*
X94833749Y-57527558D01*
X94833749Y-57337081D01*
X94786130Y-57241843D01*
X94738510Y-57194224D01*
X94643272Y-57146605D01*
X88952343Y-71407257D02*
X88999962Y-71454876D01*
X89047581Y-71597733D01*
X89047581Y-71692971D01*
X88999962Y-71835829D01*
X88904724Y-71931067D01*
X88809486Y-71978686D01*
X88619010Y-72026305D01*
X88476152Y-72026305D01*
X88285676Y-71978686D01*
X88190438Y-71931067D01*
X88095200Y-71835829D01*
X88047581Y-71692971D01*
X88047581Y-71597733D01*
X88095200Y-71454876D01*
X88142819Y-71407257D01*
X89047581Y-70454876D02*
X89047581Y-71026305D01*
X89047581Y-70740591D02*
X88047581Y-70740591D01*
X88190438Y-70835829D01*
X88285676Y-70931067D01*
X88333295Y-71026305D01*
X88047581Y-69835829D02*
X88047581Y-69740590D01*
X88095200Y-69645352D01*
X88142819Y-69597733D01*
X88238057Y-69550114D01*
X88428533Y-69502495D01*
X88666629Y-69502495D01*
X88857105Y-69550114D01*
X88952343Y-69597733D01*
X88999962Y-69645352D01*
X89047581Y-69740590D01*
X89047581Y-69835829D01*
X88999962Y-69931067D01*
X88952343Y-69978686D01*
X88857105Y-70026305D01*
X88666629Y-70073924D01*
X88428533Y-70073924D01*
X88238057Y-70026305D01*
X88142819Y-69978686D01*
X88095200Y-69931067D01*
X88047581Y-69835829D01*
X88901543Y-74963257D02*
X88949162Y-75010876D01*
X88996781Y-75153733D01*
X88996781Y-75248971D01*
X88949162Y-75391829D01*
X88853924Y-75487067D01*
X88758686Y-75534686D01*
X88568210Y-75582305D01*
X88425352Y-75582305D01*
X88234876Y-75534686D01*
X88139638Y-75487067D01*
X88044400Y-75391829D01*
X87996781Y-75248971D01*
X87996781Y-75153733D01*
X88044400Y-75010876D01*
X88092019Y-74963257D01*
X88996781Y-74010876D02*
X88996781Y-74582305D01*
X88996781Y-74296591D02*
X87996781Y-74296591D01*
X88139638Y-74391829D01*
X88234876Y-74487067D01*
X88282495Y-74582305D01*
X88996781Y-73058495D02*
X88996781Y-73629924D01*
X88996781Y-73344210D02*
X87996781Y-73344210D01*
X88139638Y-73439448D01*
X88234876Y-73534686D01*
X88282495Y-73629924D01*
X75303143Y-82551543D02*
X75255524Y-82599162D01*
X75112667Y-82646781D01*
X75017429Y-82646781D01*
X74874571Y-82599162D01*
X74779333Y-82503924D01*
X74731714Y-82408686D01*
X74684095Y-82218210D01*
X74684095Y-82075352D01*
X74731714Y-81884876D01*
X74779333Y-81789638D01*
X74874571Y-81694400D01*
X75017429Y-81646781D01*
X75112667Y-81646781D01*
X75255524Y-81694400D01*
X75303143Y-81742019D01*
X76255524Y-82646781D02*
X75684095Y-82646781D01*
X75969809Y-82646781D02*
X75969809Y-81646781D01*
X75874571Y-81789638D01*
X75779333Y-81884876D01*
X75684095Y-81932495D01*
X76636476Y-81742019D02*
X76684095Y-81694400D01*
X76779333Y-81646781D01*
X77017429Y-81646781D01*
X77112667Y-81694400D01*
X77160286Y-81742019D01*
X77207905Y-81837257D01*
X77207905Y-81932495D01*
X77160286Y-82075352D01*
X76588857Y-82646781D01*
X77207905Y-82646781D01*
X75201543Y-89307943D02*
X75153924Y-89355562D01*
X75011067Y-89403181D01*
X74915829Y-89403181D01*
X74772971Y-89355562D01*
X74677733Y-89260324D01*
X74630114Y-89165086D01*
X74582495Y-88974610D01*
X74582495Y-88831752D01*
X74630114Y-88641276D01*
X74677733Y-88546038D01*
X74772971Y-88450800D01*
X74915829Y-88403181D01*
X75011067Y-88403181D01*
X75153924Y-88450800D01*
X75201543Y-88498419D01*
X76153924Y-89403181D02*
X75582495Y-89403181D01*
X75868209Y-89403181D02*
X75868209Y-88403181D01*
X75772971Y-88546038D01*
X75677733Y-88641276D01*
X75582495Y-88688895D01*
X76487257Y-88403181D02*
X77106305Y-88403181D01*
X76772971Y-88784133D01*
X76915829Y-88784133D01*
X77011067Y-88831752D01*
X77058686Y-88879371D01*
X77106305Y-88974610D01*
X77106305Y-89212705D01*
X77058686Y-89307943D01*
X77011067Y-89355562D01*
X76915829Y-89403181D01*
X76630114Y-89403181D01*
X76534876Y-89355562D01*
X76487257Y-89307943D01*
X88825343Y-63126857D02*
X88872962Y-63174476D01*
X88920581Y-63317333D01*
X88920581Y-63412571D01*
X88872962Y-63555429D01*
X88777724Y-63650667D01*
X88682486Y-63698286D01*
X88492010Y-63745905D01*
X88349152Y-63745905D01*
X88158676Y-63698286D01*
X88063438Y-63650667D01*
X87968200Y-63555429D01*
X87920581Y-63412571D01*
X87920581Y-63317333D01*
X87968200Y-63174476D01*
X88015819Y-63126857D01*
X88920581Y-62174476D02*
X88920581Y-62745905D01*
X88920581Y-62460191D02*
X87920581Y-62460191D01*
X88063438Y-62555429D01*
X88158676Y-62650667D01*
X88206295Y-62745905D01*
X88253914Y-61317333D02*
X88920581Y-61317333D01*
X87872962Y-61555429D02*
X88587248Y-61793524D01*
X88587248Y-61174476D01*
X88850743Y-78417657D02*
X88898362Y-78465276D01*
X88945981Y-78608133D01*
X88945981Y-78703371D01*
X88898362Y-78846229D01*
X88803124Y-78941467D01*
X88707886Y-78989086D01*
X88517410Y-79036705D01*
X88374552Y-79036705D01*
X88184076Y-78989086D01*
X88088838Y-78941467D01*
X87993600Y-78846229D01*
X87945981Y-78703371D01*
X87945981Y-78608133D01*
X87993600Y-78465276D01*
X88041219Y-78417657D01*
X88945981Y-77465276D02*
X88945981Y-78036705D01*
X88945981Y-77750991D02*
X87945981Y-77750991D01*
X88088838Y-77846229D01*
X88184076Y-77941467D01*
X88231695Y-78036705D01*
X87945981Y-76560514D02*
X87945981Y-77036705D01*
X88422171Y-77084324D01*
X88374552Y-77036705D01*
X88326933Y-76941467D01*
X88326933Y-76703371D01*
X88374552Y-76608133D01*
X88422171Y-76560514D01*
X88517410Y-76512895D01*
X88755505Y-76512895D01*
X88850743Y-76560514D01*
X88898362Y-76608133D01*
X88945981Y-76703371D01*
X88945981Y-76941467D01*
X88898362Y-77036705D01*
X88850743Y-77084324D01*
X71604143Y-91511357D02*
X71651762Y-91558976D01*
X71699381Y-91701833D01*
X71699381Y-91797071D01*
X71651762Y-91939929D01*
X71556524Y-92035167D01*
X71461286Y-92082786D01*
X71270810Y-92130405D01*
X71127952Y-92130405D01*
X70937476Y-92082786D01*
X70842238Y-92035167D01*
X70747000Y-91939929D01*
X70699381Y-91797071D01*
X70699381Y-91701833D01*
X70747000Y-91558976D01*
X70794619Y-91511357D01*
X71699381Y-90558976D02*
X71699381Y-91130405D01*
X71699381Y-90844691D02*
X70699381Y-90844691D01*
X70842238Y-90939929D01*
X70937476Y-91035167D01*
X70985095Y-91130405D01*
X70699381Y-89701833D02*
X70699381Y-89892310D01*
X70747000Y-89987548D01*
X70794619Y-90035167D01*
X70937476Y-90130405D01*
X71127952Y-90178024D01*
X71508905Y-90178024D01*
X71604143Y-90130405D01*
X71651762Y-90082786D01*
X71699381Y-89987548D01*
X71699381Y-89797071D01*
X71651762Y-89701833D01*
X71604143Y-89654214D01*
X71508905Y-89606595D01*
X71270810Y-89606595D01*
X71175571Y-89654214D01*
X71127952Y-89701833D01*
X71080333Y-89797071D01*
X71080333Y-89987548D01*
X71127952Y-90082786D01*
X71175571Y-90130405D01*
X71270810Y-90178024D01*
X88850743Y-66505057D02*
X88898362Y-66552676D01*
X88945981Y-66695533D01*
X88945981Y-66790771D01*
X88898362Y-66933629D01*
X88803124Y-67028867D01*
X88707886Y-67076486D01*
X88517410Y-67124105D01*
X88374552Y-67124105D01*
X88184076Y-67076486D01*
X88088838Y-67028867D01*
X87993600Y-66933629D01*
X87945981Y-66790771D01*
X87945981Y-66695533D01*
X87993600Y-66552676D01*
X88041219Y-66505057D01*
X88945981Y-65552676D02*
X88945981Y-66124105D01*
X88945981Y-65838391D02*
X87945981Y-65838391D01*
X88088838Y-65933629D01*
X88184076Y-66028867D01*
X88231695Y-66124105D01*
X87945981Y-65219343D02*
X87945981Y-64552676D01*
X88945981Y-64981248D01*
X86275943Y-81129143D02*
X86228324Y-81176762D01*
X86085467Y-81224381D01*
X85990229Y-81224381D01*
X85847371Y-81176762D01*
X85752133Y-81081524D01*
X85704514Y-80986286D01*
X85656895Y-80795810D01*
X85656895Y-80652952D01*
X85704514Y-80462476D01*
X85752133Y-80367238D01*
X85847371Y-80272000D01*
X85990229Y-80224381D01*
X86085467Y-80224381D01*
X86228324Y-80272000D01*
X86275943Y-80319619D01*
X87228324Y-81224381D02*
X86656895Y-81224381D01*
X86942609Y-81224381D02*
X86942609Y-80224381D01*
X86847371Y-80367238D01*
X86752133Y-80462476D01*
X86656895Y-80510095D01*
X87799752Y-80652952D02*
X87704514Y-80605333D01*
X87656895Y-80557714D01*
X87609276Y-80462476D01*
X87609276Y-80414857D01*
X87656895Y-80319619D01*
X87704514Y-80272000D01*
X87799752Y-80224381D01*
X87990229Y-80224381D01*
X88085467Y-80272000D01*
X88133086Y-80319619D01*
X88180705Y-80414857D01*
X88180705Y-80462476D01*
X88133086Y-80557714D01*
X88085467Y-80605333D01*
X87990229Y-80652952D01*
X87799752Y-80652952D01*
X87704514Y-80700571D01*
X87656895Y-80748190D01*
X87609276Y-80843429D01*
X87609276Y-81033905D01*
X87656895Y-81129143D01*
X87704514Y-81176762D01*
X87799752Y-81224381D01*
X87990229Y-81224381D01*
X88085467Y-81176762D01*
X88133086Y-81129143D01*
X88180705Y-81033905D01*
X88180705Y-80843429D01*
X88133086Y-80748190D01*
X88085467Y-80700571D01*
X87990229Y-80652952D01*
X71248543Y-94686357D02*
X71296162Y-94733976D01*
X71343781Y-94876833D01*
X71343781Y-94972071D01*
X71296162Y-95114929D01*
X71200924Y-95210167D01*
X71105686Y-95257786D01*
X70915210Y-95305405D01*
X70772352Y-95305405D01*
X70581876Y-95257786D01*
X70486638Y-95210167D01*
X70391400Y-95114929D01*
X70343781Y-94972071D01*
X70343781Y-94876833D01*
X70391400Y-94733976D01*
X70439019Y-94686357D01*
X71343781Y-93733976D02*
X71343781Y-94305405D01*
X71343781Y-94019691D02*
X70343781Y-94019691D01*
X70486638Y-94114929D01*
X70581876Y-94210167D01*
X70629495Y-94305405D01*
X71343781Y-93257786D02*
X71343781Y-93067310D01*
X71296162Y-92972071D01*
X71248543Y-92924452D01*
X71105686Y-92829214D01*
X70915210Y-92781595D01*
X70534257Y-92781595D01*
X70439019Y-92829214D01*
X70391400Y-92876833D01*
X70343781Y-92972071D01*
X70343781Y-93162548D01*
X70391400Y-93257786D01*
X70439019Y-93305405D01*
X70534257Y-93353024D01*
X70772352Y-93353024D01*
X70867590Y-93305405D01*
X70915210Y-93257786D01*
X70962829Y-93162548D01*
X70962829Y-92972071D01*
X70915210Y-92876833D01*
X70867590Y-92829214D01*
X70772352Y-92781595D01*
X106799143Y-58269143D02*
X106751524Y-58316762D01*
X106608667Y-58364381D01*
X106513429Y-58364381D01*
X106370571Y-58316762D01*
X106275333Y-58221524D01*
X106227714Y-58126286D01*
X106180095Y-57935810D01*
X106180095Y-57792952D01*
X106227714Y-57602476D01*
X106275333Y-57507238D01*
X106370571Y-57412000D01*
X106513429Y-57364381D01*
X106608667Y-57364381D01*
X106751524Y-57412000D01*
X106799143Y-57459619D01*
X107180095Y-57459619D02*
X107227714Y-57412000D01*
X107322952Y-57364381D01*
X107561048Y-57364381D01*
X107656286Y-57412000D01*
X107703905Y-57459619D01*
X107751524Y-57554857D01*
X107751524Y-57650095D01*
X107703905Y-57792952D01*
X107132476Y-58364381D01*
X107751524Y-58364381D01*
X108370571Y-57364381D02*
X108465810Y-57364381D01*
X108561048Y-57412000D01*
X108608667Y-57459619D01*
X108656286Y-57554857D01*
X108703905Y-57745333D01*
X108703905Y-57983429D01*
X108656286Y-58173905D01*
X108608667Y-58269143D01*
X108561048Y-58316762D01*
X108465810Y-58364381D01*
X108370571Y-58364381D01*
X108275333Y-58316762D01*
X108227714Y-58269143D01*
X108180095Y-58173905D01*
X108132476Y-57983429D01*
X108132476Y-57745333D01*
X108180095Y-57554857D01*
X108227714Y-57459619D01*
X108275333Y-57412000D01*
X108370571Y-57364381D01*
X106545143Y-80367143D02*
X106497524Y-80414762D01*
X106354667Y-80462381D01*
X106259429Y-80462381D01*
X106116571Y-80414762D01*
X106021333Y-80319524D01*
X105973714Y-80224286D01*
X105926095Y-80033810D01*
X105926095Y-79890952D01*
X105973714Y-79700476D01*
X106021333Y-79605238D01*
X106116571Y-79510000D01*
X106259429Y-79462381D01*
X106354667Y-79462381D01*
X106497524Y-79510000D01*
X106545143Y-79557619D01*
X106926095Y-79557619D02*
X106973714Y-79510000D01*
X107068952Y-79462381D01*
X107307048Y-79462381D01*
X107402286Y-79510000D01*
X107449905Y-79557619D01*
X107497524Y-79652857D01*
X107497524Y-79748095D01*
X107449905Y-79890952D01*
X106878476Y-80462381D01*
X107497524Y-80462381D01*
X108449905Y-80462381D02*
X107878476Y-80462381D01*
X108164190Y-80462381D02*
X108164190Y-79462381D01*
X108068952Y-79605238D01*
X107973714Y-79700476D01*
X107878476Y-79748095D01*
X107053143Y-51411143D02*
X107005524Y-51458762D01*
X106862667Y-51506381D01*
X106767429Y-51506381D01*
X106624571Y-51458762D01*
X106529333Y-51363524D01*
X106481714Y-51268286D01*
X106434095Y-51077810D01*
X106434095Y-50934952D01*
X106481714Y-50744476D01*
X106529333Y-50649238D01*
X106624571Y-50554000D01*
X106767429Y-50506381D01*
X106862667Y-50506381D01*
X107005524Y-50554000D01*
X107053143Y-50601619D01*
X107434095Y-50601619D02*
X107481714Y-50554000D01*
X107576952Y-50506381D01*
X107815048Y-50506381D01*
X107910286Y-50554000D01*
X107957905Y-50601619D01*
X108005524Y-50696857D01*
X108005524Y-50792095D01*
X107957905Y-50934952D01*
X107386476Y-51506381D01*
X108005524Y-51506381D01*
X108386476Y-50601619D02*
X108434095Y-50554000D01*
X108529333Y-50506381D01*
X108767429Y-50506381D01*
X108862667Y-50554000D01*
X108910286Y-50601619D01*
X108957905Y-50696857D01*
X108957905Y-50792095D01*
X108910286Y-50934952D01*
X108338857Y-51506381D01*
X108957905Y-51506381D01*
X103547943Y-68505343D02*
X103500324Y-68552962D01*
X103357467Y-68600581D01*
X103262229Y-68600581D01*
X103119371Y-68552962D01*
X103024133Y-68457724D01*
X102976514Y-68362486D01*
X102928895Y-68172010D01*
X102928895Y-68029152D01*
X102976514Y-67838676D01*
X103024133Y-67743438D01*
X103119371Y-67648200D01*
X103262229Y-67600581D01*
X103357467Y-67600581D01*
X103500324Y-67648200D01*
X103547943Y-67695819D01*
X103928895Y-67695819D02*
X103976514Y-67648200D01*
X104071752Y-67600581D01*
X104309848Y-67600581D01*
X104405086Y-67648200D01*
X104452705Y-67695819D01*
X104500324Y-67791057D01*
X104500324Y-67886295D01*
X104452705Y-68029152D01*
X103881276Y-68600581D01*
X104500324Y-68600581D01*
X104833657Y-67600581D02*
X105452705Y-67600581D01*
X105119371Y-67981533D01*
X105262229Y-67981533D01*
X105357467Y-68029152D01*
X105405086Y-68076771D01*
X105452705Y-68172010D01*
X105452705Y-68410105D01*
X105405086Y-68505343D01*
X105357467Y-68552962D01*
X105262229Y-68600581D01*
X104976514Y-68600581D01*
X104881276Y-68552962D01*
X104833657Y-68505343D01*
X93087143Y-90030857D02*
X93134762Y-90078476D01*
X93182381Y-90221333D01*
X93182381Y-90316571D01*
X93134762Y-90459429D01*
X93039524Y-90554667D01*
X92944286Y-90602286D01*
X92753810Y-90649905D01*
X92610952Y-90649905D01*
X92420476Y-90602286D01*
X92325238Y-90554667D01*
X92230000Y-90459429D01*
X92182381Y-90316571D01*
X92182381Y-90221333D01*
X92230000Y-90078476D01*
X92277619Y-90030857D01*
X92277619Y-89649905D02*
X92230000Y-89602286D01*
X92182381Y-89507048D01*
X92182381Y-89268952D01*
X92230000Y-89173714D01*
X92277619Y-89126095D01*
X92372857Y-89078476D01*
X92468095Y-89078476D01*
X92610952Y-89126095D01*
X93182381Y-89697524D01*
X93182381Y-89078476D01*
X92515714Y-88221333D02*
X93182381Y-88221333D01*
X92134762Y-88459429D02*
X92849048Y-88697524D01*
X92849048Y-88078476D01*
X92493863Y-87451203D02*
X92446244Y-87498822D01*
X92303387Y-87546441D01*
X92208149Y-87546441D01*
X92065291Y-87498822D01*
X91970053Y-87403584D01*
X91922434Y-87308346D01*
X91874815Y-87117870D01*
X91874815Y-86975012D01*
X91922434Y-86784536D01*
X91970053Y-86689298D01*
X92065291Y-86594060D01*
X92208149Y-86546441D01*
X92303387Y-86546441D01*
X92446244Y-86594060D01*
X92493863Y-86641679D01*
X92874815Y-86641679D02*
X92922434Y-86594060D01*
X93017672Y-86546441D01*
X93255768Y-86546441D01*
X93351006Y-86594060D01*
X93398625Y-86641679D01*
X93446244Y-86736917D01*
X93446244Y-86832155D01*
X93398625Y-86975012D01*
X92827196Y-87546441D01*
X93446244Y-87546441D01*
X94351006Y-86546441D02*
X93874815Y-86546441D01*
X93827196Y-87022631D01*
X93874815Y-86975012D01*
X93970053Y-86927393D01*
X94208149Y-86927393D01*
X94303387Y-86975012D01*
X94351006Y-87022631D01*
X94398625Y-87117870D01*
X94398625Y-87355965D01*
X94351006Y-87451203D01*
X94303387Y-87498822D01*
X94208149Y-87546441D01*
X93970053Y-87546441D01*
X93874815Y-87498822D01*
X93827196Y-87451203D01*
X116032043Y-67108343D02*
X115984424Y-67155962D01*
X115841567Y-67203581D01*
X115746329Y-67203581D01*
X115603471Y-67155962D01*
X115508233Y-67060724D01*
X115460614Y-66965486D01*
X115412995Y-66775010D01*
X115412995Y-66632152D01*
X115460614Y-66441676D01*
X115508233Y-66346438D01*
X115603471Y-66251200D01*
X115746329Y-66203581D01*
X115841567Y-66203581D01*
X115984424Y-66251200D01*
X116032043Y-66298819D01*
X116412995Y-66298819D02*
X116460614Y-66251200D01*
X116555852Y-66203581D01*
X116793948Y-66203581D01*
X116889186Y-66251200D01*
X116936805Y-66298819D01*
X116984424Y-66394057D01*
X116984424Y-66489295D01*
X116936805Y-66632152D01*
X116365376Y-67203581D01*
X116984424Y-67203581D01*
X117841567Y-66203581D02*
X117651090Y-66203581D01*
X117555852Y-66251200D01*
X117508233Y-66298819D01*
X117412995Y-66441676D01*
X117365376Y-66632152D01*
X117365376Y-67013105D01*
X117412995Y-67108343D01*
X117460614Y-67155962D01*
X117555852Y-67203581D01*
X117746329Y-67203581D01*
X117841567Y-67155962D01*
X117889186Y-67108343D01*
X117936805Y-67013105D01*
X117936805Y-66775010D01*
X117889186Y-66679771D01*
X117841567Y-66632152D01*
X117746329Y-66584533D01*
X117555852Y-66584533D01*
X117460614Y-66632152D01*
X117412995Y-66679771D01*
X117365376Y-66775010D01*
X124817143Y-76334857D02*
X124864762Y-76382476D01*
X124912381Y-76525333D01*
X124912381Y-76620571D01*
X124864762Y-76763429D01*
X124769524Y-76858667D01*
X124674286Y-76906286D01*
X124483810Y-76953905D01*
X124340952Y-76953905D01*
X124150476Y-76906286D01*
X124055238Y-76858667D01*
X123960000Y-76763429D01*
X123912381Y-76620571D01*
X123912381Y-76525333D01*
X123960000Y-76382476D01*
X124007619Y-76334857D01*
X124007619Y-75953905D02*
X123960000Y-75906286D01*
X123912381Y-75811048D01*
X123912381Y-75572952D01*
X123960000Y-75477714D01*
X124007619Y-75430095D01*
X124102857Y-75382476D01*
X124198095Y-75382476D01*
X124340952Y-75430095D01*
X124912381Y-76001524D01*
X124912381Y-75382476D01*
X123912381Y-75049143D02*
X123912381Y-74382476D01*
X124912381Y-74811048D01*
X101439743Y-92254343D02*
X101392124Y-92301962D01*
X101249267Y-92349581D01*
X101154029Y-92349581D01*
X101011171Y-92301962D01*
X100915933Y-92206724D01*
X100868314Y-92111486D01*
X100820695Y-91921010D01*
X100820695Y-91778152D01*
X100868314Y-91587676D01*
X100915933Y-91492438D01*
X101011171Y-91397200D01*
X101154029Y-91349581D01*
X101249267Y-91349581D01*
X101392124Y-91397200D01*
X101439743Y-91444819D01*
X101820695Y-91444819D02*
X101868314Y-91397200D01*
X101963552Y-91349581D01*
X102201648Y-91349581D01*
X102296886Y-91397200D01*
X102344505Y-91444819D01*
X102392124Y-91540057D01*
X102392124Y-91635295D01*
X102344505Y-91778152D01*
X101773076Y-92349581D01*
X102392124Y-92349581D01*
X102963552Y-91778152D02*
X102868314Y-91730533D01*
X102820695Y-91682914D01*
X102773076Y-91587676D01*
X102773076Y-91540057D01*
X102820695Y-91444819D01*
X102868314Y-91397200D01*
X102963552Y-91349581D01*
X103154029Y-91349581D01*
X103249267Y-91397200D01*
X103296886Y-91444819D01*
X103344505Y-91540057D01*
X103344505Y-91587676D01*
X103296886Y-91682914D01*
X103249267Y-91730533D01*
X103154029Y-91778152D01*
X102963552Y-91778152D01*
X102868314Y-91825771D01*
X102820695Y-91873390D01*
X102773076Y-91968629D01*
X102773076Y-92159105D01*
X102820695Y-92254343D01*
X102868314Y-92301962D01*
X102963552Y-92349581D01*
X103154029Y-92349581D01*
X103249267Y-92301962D01*
X103296886Y-92254343D01*
X103344505Y-92159105D01*
X103344505Y-91968629D01*
X103296886Y-91873390D01*
X103249267Y-91825771D01*
X103154029Y-91778152D01*
X118229143Y-54967143D02*
X118181524Y-55014762D01*
X118038667Y-55062381D01*
X117943429Y-55062381D01*
X117800571Y-55014762D01*
X117705333Y-54919524D01*
X117657714Y-54824286D01*
X117610095Y-54633810D01*
X117610095Y-54490952D01*
X117657714Y-54300476D01*
X117705333Y-54205238D01*
X117800571Y-54110000D01*
X117943429Y-54062381D01*
X118038667Y-54062381D01*
X118181524Y-54110000D01*
X118229143Y-54157619D01*
X118610095Y-54157619D02*
X118657714Y-54110000D01*
X118752952Y-54062381D01*
X118991048Y-54062381D01*
X119086286Y-54110000D01*
X119133905Y-54157619D01*
X119181524Y-54252857D01*
X119181524Y-54348095D01*
X119133905Y-54490952D01*
X118562476Y-55062381D01*
X119181524Y-55062381D01*
X119657714Y-55062381D02*
X119848190Y-55062381D01*
X119943429Y-55014762D01*
X119991048Y-54967143D01*
X120086286Y-54824286D01*
X120133905Y-54633810D01*
X120133905Y-54252857D01*
X120086286Y-54157619D01*
X120038667Y-54110000D01*
X119943429Y-54062381D01*
X119752952Y-54062381D01*
X119657714Y-54110000D01*
X119610095Y-54157619D01*
X119562476Y-54252857D01*
X119562476Y-54490952D01*
X119610095Y-54586190D01*
X119657714Y-54633810D01*
X119752952Y-54681429D01*
X119943429Y-54681429D01*
X120038667Y-54633810D01*
X120086286Y-54586190D01*
X120133905Y-54490952D01*
X120245143Y-76334857D02*
X120292762Y-76382476D01*
X120340381Y-76525333D01*
X120340381Y-76620571D01*
X120292762Y-76763429D01*
X120197524Y-76858667D01*
X120102286Y-76906286D01*
X119911810Y-76953905D01*
X119768952Y-76953905D01*
X119578476Y-76906286D01*
X119483238Y-76858667D01*
X119388000Y-76763429D01*
X119340381Y-76620571D01*
X119340381Y-76525333D01*
X119388000Y-76382476D01*
X119435619Y-76334857D01*
X119340381Y-76001524D02*
X119340381Y-75382476D01*
X119721333Y-75715810D01*
X119721333Y-75572952D01*
X119768952Y-75477714D01*
X119816571Y-75430095D01*
X119911810Y-75382476D01*
X120149905Y-75382476D01*
X120245143Y-75430095D01*
X120292762Y-75477714D01*
X120340381Y-75572952D01*
X120340381Y-75858667D01*
X120292762Y-75953905D01*
X120245143Y-76001524D01*
X119340381Y-74763429D02*
X119340381Y-74668190D01*
X119388000Y-74572952D01*
X119435619Y-74525333D01*
X119530857Y-74477714D01*
X119721333Y-74430095D01*
X119959429Y-74430095D01*
X120149905Y-74477714D01*
X120245143Y-74525333D01*
X120292762Y-74572952D01*
X120340381Y-74668190D01*
X120340381Y-74763429D01*
X120292762Y-74858667D01*
X120245143Y-74906286D01*
X120149905Y-74953905D01*
X119959429Y-75001524D01*
X119721333Y-75001524D01*
X119530857Y-74953905D01*
X119435619Y-74906286D01*
X119388000Y-74858667D01*
X119340381Y-74763429D01*
X116955843Y-98153457D02*
X117003462Y-98201076D01*
X117051081Y-98343933D01*
X117051081Y-98439171D01*
X117003462Y-98582029D01*
X116908224Y-98677267D01*
X116812986Y-98724886D01*
X116622510Y-98772505D01*
X116479652Y-98772505D01*
X116289176Y-98724886D01*
X116193938Y-98677267D01*
X116098700Y-98582029D01*
X116051081Y-98439171D01*
X116051081Y-98343933D01*
X116098700Y-98201076D01*
X116146319Y-98153457D01*
X116051081Y-97820124D02*
X116051081Y-97201076D01*
X116432033Y-97534410D01*
X116432033Y-97391552D01*
X116479652Y-97296314D01*
X116527271Y-97248695D01*
X116622510Y-97201076D01*
X116860605Y-97201076D01*
X116955843Y-97248695D01*
X117003462Y-97296314D01*
X117051081Y-97391552D01*
X117051081Y-97677267D01*
X117003462Y-97772505D01*
X116955843Y-97820124D01*
X117051081Y-96248695D02*
X117051081Y-96820124D01*
X117051081Y-96534410D02*
X116051081Y-96534410D01*
X116193938Y-96629648D01*
X116289176Y-96724886D01*
X116336795Y-96820124D01*
X121277143Y-54967143D02*
X121229524Y-55014762D01*
X121086667Y-55062381D01*
X120991429Y-55062381D01*
X120848571Y-55014762D01*
X120753333Y-54919524D01*
X120705714Y-54824286D01*
X120658095Y-54633810D01*
X120658095Y-54490952D01*
X120705714Y-54300476D01*
X120753333Y-54205238D01*
X120848571Y-54110000D01*
X120991429Y-54062381D01*
X121086667Y-54062381D01*
X121229524Y-54110000D01*
X121277143Y-54157619D01*
X121610476Y-54062381D02*
X122229524Y-54062381D01*
X121896190Y-54443333D01*
X122039048Y-54443333D01*
X122134286Y-54490952D01*
X122181905Y-54538571D01*
X122229524Y-54633810D01*
X122229524Y-54871905D01*
X122181905Y-54967143D01*
X122134286Y-55014762D01*
X122039048Y-55062381D01*
X121753333Y-55062381D01*
X121658095Y-55014762D01*
X121610476Y-54967143D01*
X122610476Y-54157619D02*
X122658095Y-54110000D01*
X122753333Y-54062381D01*
X122991429Y-54062381D01*
X123086667Y-54110000D01*
X123134286Y-54157619D01*
X123181905Y-54252857D01*
X123181905Y-54348095D01*
X123134286Y-54490952D01*
X122562857Y-55062381D01*
X123181905Y-55062381D01*
X119813343Y-83180157D02*
X119860962Y-83227776D01*
X119908581Y-83370633D01*
X119908581Y-83465871D01*
X119860962Y-83608729D01*
X119765724Y-83703967D01*
X119670486Y-83751586D01*
X119480010Y-83799205D01*
X119337152Y-83799205D01*
X119146676Y-83751586D01*
X119051438Y-83703967D01*
X118956200Y-83608729D01*
X118908581Y-83465871D01*
X118908581Y-83370633D01*
X118956200Y-83227776D01*
X119003819Y-83180157D01*
X118908581Y-82846824D02*
X118908581Y-82227776D01*
X119289533Y-82561110D01*
X119289533Y-82418252D01*
X119337152Y-82323014D01*
X119384771Y-82275395D01*
X119480010Y-82227776D01*
X119718105Y-82227776D01*
X119813343Y-82275395D01*
X119860962Y-82323014D01*
X119908581Y-82418252D01*
X119908581Y-82703967D01*
X119860962Y-82799205D01*
X119813343Y-82846824D01*
X118908581Y-81894443D02*
X118908581Y-81275395D01*
X119289533Y-81608729D01*
X119289533Y-81465871D01*
X119337152Y-81370633D01*
X119384771Y-81323014D01*
X119480010Y-81275395D01*
X119718105Y-81275395D01*
X119813343Y-81323014D01*
X119860962Y-81370633D01*
X119908581Y-81465871D01*
X119908581Y-81751586D01*
X119860962Y-81846824D01*
X119813343Y-81894443D01*
X79367143Y-148947143D02*
X79319524Y-148994762D01*
X79176667Y-149042381D01*
X79081429Y-149042381D01*
X78938571Y-148994762D01*
X78843333Y-148899524D01*
X78795714Y-148804286D01*
X78748095Y-148613810D01*
X78748095Y-148470952D01*
X78795714Y-148280476D01*
X78843333Y-148185238D01*
X78938571Y-148090000D01*
X79081429Y-148042381D01*
X79176667Y-148042381D01*
X79319524Y-148090000D01*
X79367143Y-148137619D01*
X79700476Y-148042381D02*
X80319524Y-148042381D01*
X79986190Y-148423333D01*
X80129048Y-148423333D01*
X80224286Y-148470952D01*
X80271905Y-148518571D01*
X80319524Y-148613810D01*
X80319524Y-148851905D01*
X80271905Y-148947143D01*
X80224286Y-148994762D01*
X80129048Y-149042381D01*
X79843333Y-149042381D01*
X79748095Y-148994762D01*
X79700476Y-148947143D01*
X81176667Y-148375714D02*
X81176667Y-149042381D01*
X80938571Y-147994762D02*
X80700476Y-148709048D01*
X81319524Y-148709048D01*
X85463143Y-148947143D02*
X85415524Y-148994762D01*
X85272667Y-149042381D01*
X85177429Y-149042381D01*
X85034571Y-148994762D01*
X84939333Y-148899524D01*
X84891714Y-148804286D01*
X84844095Y-148613810D01*
X84844095Y-148470952D01*
X84891714Y-148280476D01*
X84939333Y-148185238D01*
X85034571Y-148090000D01*
X85177429Y-148042381D01*
X85272667Y-148042381D01*
X85415524Y-148090000D01*
X85463143Y-148137619D01*
X85796476Y-148042381D02*
X86415524Y-148042381D01*
X86082190Y-148423333D01*
X86225048Y-148423333D01*
X86320286Y-148470952D01*
X86367905Y-148518571D01*
X86415524Y-148613810D01*
X86415524Y-148851905D01*
X86367905Y-148947143D01*
X86320286Y-148994762D01*
X86225048Y-149042381D01*
X85939333Y-149042381D01*
X85844095Y-148994762D01*
X85796476Y-148947143D01*
X87320286Y-148042381D02*
X86844095Y-148042381D01*
X86796476Y-148518571D01*
X86844095Y-148470952D01*
X86939333Y-148423333D01*
X87177429Y-148423333D01*
X87272667Y-148470952D01*
X87320286Y-148518571D01*
X87367905Y-148613810D01*
X87367905Y-148851905D01*
X87320286Y-148947143D01*
X87272667Y-148994762D01*
X87177429Y-149042381D01*
X86939333Y-149042381D01*
X86844095Y-148994762D01*
X86796476Y-148947143D01*
X99356943Y-149023343D02*
X99309324Y-149070962D01*
X99166467Y-149118581D01*
X99071229Y-149118581D01*
X98928371Y-149070962D01*
X98833133Y-148975724D01*
X98785514Y-148880486D01*
X98737895Y-148690010D01*
X98737895Y-148547152D01*
X98785514Y-148356676D01*
X98833133Y-148261438D01*
X98928371Y-148166200D01*
X99071229Y-148118581D01*
X99166467Y-148118581D01*
X99309324Y-148166200D01*
X99356943Y-148213819D01*
X99690276Y-148118581D02*
X100309324Y-148118581D01*
X99975990Y-148499533D01*
X100118848Y-148499533D01*
X100214086Y-148547152D01*
X100261705Y-148594771D01*
X100309324Y-148690010D01*
X100309324Y-148928105D01*
X100261705Y-149023343D01*
X100214086Y-149070962D01*
X100118848Y-149118581D01*
X99833133Y-149118581D01*
X99737895Y-149070962D01*
X99690276Y-149023343D01*
X101166467Y-148118581D02*
X100975990Y-148118581D01*
X100880752Y-148166200D01*
X100833133Y-148213819D01*
X100737895Y-148356676D01*
X100690276Y-148547152D01*
X100690276Y-148928105D01*
X100737895Y-149023343D01*
X100785514Y-149070962D01*
X100880752Y-149118581D01*
X101071229Y-149118581D01*
X101166467Y-149070962D01*
X101214086Y-149023343D01*
X101261705Y-148928105D01*
X101261705Y-148690010D01*
X101214086Y-148594771D01*
X101166467Y-148547152D01*
X101071229Y-148499533D01*
X100880752Y-148499533D01*
X100785514Y-148547152D01*
X100737895Y-148594771D01*
X100690276Y-148690010D01*
X68019705Y-74569581D02*
X68019705Y-73569581D01*
X68257800Y-73569581D01*
X68400658Y-73617200D01*
X68495896Y-73712438D01*
X68543515Y-73807676D01*
X68591134Y-73998152D01*
X68591134Y-74141010D01*
X68543515Y-74331486D01*
X68495896Y-74426724D01*
X68400658Y-74521962D01*
X68257800Y-74569581D01*
X68019705Y-74569581D01*
X69543515Y-74569581D02*
X68972086Y-74569581D01*
X69257800Y-74569581D02*
X69257800Y-73569581D01*
X69162562Y-73712438D01*
X69067324Y-73807676D01*
X68972086Y-73855295D01*
X68324505Y-71521581D02*
X68324505Y-70521581D01*
X68562600Y-70521581D01*
X68705458Y-70569200D01*
X68800696Y-70664438D01*
X68848315Y-70759676D01*
X68895934Y-70950152D01*
X68895934Y-71093010D01*
X68848315Y-71283486D01*
X68800696Y-71378724D01*
X68705458Y-71473962D01*
X68562600Y-71521581D01*
X68324505Y-71521581D01*
X69276886Y-70616819D02*
X69324505Y-70569200D01*
X69419743Y-70521581D01*
X69657839Y-70521581D01*
X69753077Y-70569200D01*
X69800696Y-70616819D01*
X69848315Y-70712057D01*
X69848315Y-70807295D01*
X69800696Y-70950152D01*
X69229267Y-71521581D01*
X69848315Y-71521581D01*
X77974867Y-60386981D02*
X77974867Y-61101267D01*
X77927247Y-61244124D01*
X77832009Y-61339362D01*
X77689152Y-61386981D01*
X77593914Y-61386981D01*
X78355819Y-60386981D02*
X78974867Y-60386981D01*
X78641533Y-60767933D01*
X78784391Y-60767933D01*
X78879629Y-60815552D01*
X78927248Y-60863171D01*
X78974867Y-60958410D01*
X78974867Y-61196505D01*
X78927248Y-61291743D01*
X78879629Y-61339362D01*
X78784391Y-61386981D01*
X78498676Y-61386981D01*
X78403438Y-61339362D01*
X78355819Y-61291743D01*
X66189267Y-63892181D02*
X66189267Y-64606467D01*
X66141647Y-64749324D01*
X66046409Y-64844562D01*
X65903552Y-64892181D01*
X65808314Y-64892181D01*
X67094029Y-64225514D02*
X67094029Y-64892181D01*
X66855933Y-63844562D02*
X66617838Y-64558848D01*
X67236886Y-64558848D01*
X66417867Y-57567581D02*
X66417867Y-58281867D01*
X66370247Y-58424724D01*
X66275009Y-58519962D01*
X66132152Y-58567581D01*
X66036914Y-58567581D01*
X67322629Y-57567581D02*
X67132152Y-57567581D01*
X67036914Y-57615200D01*
X66989295Y-57662819D01*
X66894057Y-57805676D01*
X66846438Y-57996152D01*
X66846438Y-58377105D01*
X66894057Y-58472343D01*
X66941676Y-58519962D01*
X67036914Y-58567581D01*
X67227391Y-58567581D01*
X67322629Y-58519962D01*
X67370248Y-58472343D01*
X67417867Y-58377105D01*
X67417867Y-58139010D01*
X67370248Y-58043771D01*
X67322629Y-57996152D01*
X67227391Y-57948533D01*
X67036914Y-57948533D01*
X66941676Y-57996152D01*
X66894057Y-58043771D01*
X66846438Y-58139010D01*
X143881577Y-93286781D02*
X143881577Y-94001067D01*
X143833957Y-94143924D01*
X143738719Y-94239162D01*
X143595862Y-94286781D01*
X143500624Y-94286781D01*
X144881577Y-94286781D02*
X144310148Y-94286781D01*
X144595862Y-94286781D02*
X144595862Y-93286781D01*
X144500624Y-93429638D01*
X144405386Y-93524876D01*
X144310148Y-93572495D01*
X145786339Y-93286781D02*
X145310148Y-93286781D01*
X145262529Y-93762971D01*
X145310148Y-93715352D01*
X145405386Y-93667733D01*
X145643482Y-93667733D01*
X145738720Y-93715352D01*
X145786339Y-93762971D01*
X145833958Y-93858210D01*
X145833958Y-94096305D01*
X145786339Y-94191543D01*
X145738720Y-94239162D01*
X145643482Y-94286781D01*
X145405386Y-94286781D01*
X145310148Y-94239162D01*
X145262529Y-94191543D01*
X96690381Y-115109523D02*
X97404667Y-115109523D01*
X97547524Y-115157143D01*
X97642762Y-115252381D01*
X97690381Y-115395238D01*
X97690381Y-115490476D01*
X97690381Y-114109523D02*
X97690381Y-114680952D01*
X97690381Y-114395238D02*
X96690381Y-114395238D01*
X96833238Y-114490476D01*
X96928476Y-114585714D01*
X96976095Y-114680952D01*
X96690381Y-113776190D02*
X96690381Y-113109523D01*
X97690381Y-113538095D01*
X75366667Y-68616581D02*
X75366667Y-69330867D01*
X75319047Y-69473724D01*
X75223809Y-69568962D01*
X75080952Y-69616581D01*
X74985714Y-69616581D01*
X75842857Y-69616581D02*
X75842857Y-68616581D01*
X76223810Y-68616581D01*
X76319048Y-68664200D01*
X76366667Y-68711819D01*
X76414286Y-68807057D01*
X76414286Y-68949914D01*
X76366667Y-69045152D01*
X76319048Y-69092771D01*
X76223810Y-69140390D01*
X75842857Y-69140390D01*
X77366667Y-69616581D02*
X76795238Y-69616581D01*
X77080952Y-69616581D02*
X77080952Y-68616581D01*
X76985714Y-68759438D01*
X76890476Y-68854676D01*
X76795238Y-68902295D01*
X79716381Y-75763333D02*
X80430667Y-75763333D01*
X80573524Y-75810953D01*
X80668762Y-75906191D01*
X80716381Y-76049048D01*
X80716381Y-76144286D01*
X80716381Y-75287143D02*
X79716381Y-75287143D01*
X79716381Y-74906190D01*
X79764000Y-74810952D01*
X79811619Y-74763333D01*
X79906857Y-74715714D01*
X80049714Y-74715714D01*
X80144952Y-74763333D01*
X80192571Y-74810952D01*
X80240190Y-74906190D01*
X80240190Y-75287143D01*
X79811619Y-74334762D02*
X79764000Y-74287143D01*
X79716381Y-74191905D01*
X79716381Y-73953809D01*
X79764000Y-73858571D01*
X79811619Y-73810952D01*
X79906857Y-73763333D01*
X80002095Y-73763333D01*
X80144952Y-73810952D01*
X80716381Y-74382381D01*
X80716381Y-73763333D01*
X141946334Y-77541381D02*
X141470143Y-77541381D01*
X141470143Y-76541381D01*
X142803477Y-77541381D02*
X142232048Y-77541381D01*
X142517762Y-77541381D02*
X142517762Y-76541381D01*
X142422524Y-76684238D01*
X142327286Y-76779476D01*
X142232048Y-76827095D01*
X74763334Y-104211381D02*
X74287143Y-104211381D01*
X74287143Y-103211381D01*
X75049048Y-103306619D02*
X75096667Y-103259000D01*
X75191905Y-103211381D01*
X75430001Y-103211381D01*
X75525239Y-103259000D01*
X75572858Y-103306619D01*
X75620477Y-103401857D01*
X75620477Y-103497095D01*
X75572858Y-103639952D01*
X75001429Y-104211381D01*
X75620477Y-104211381D01*
X111958381Y-58459666D02*
X111958381Y-58935857D01*
X110958381Y-58935857D01*
X110958381Y-58221571D02*
X110958381Y-57602523D01*
X111339333Y-57935857D01*
X111339333Y-57792999D01*
X111386952Y-57697761D01*
X111434571Y-57650142D01*
X111529810Y-57602523D01*
X111767905Y-57602523D01*
X111863143Y-57650142D01*
X111910762Y-57697761D01*
X111958381Y-57792999D01*
X111958381Y-58078714D01*
X111910762Y-58173952D01*
X111863143Y-58221571D01*
X110764581Y-73801266D02*
X110764581Y-74277457D01*
X109764581Y-74277457D01*
X110097914Y-73039361D02*
X110764581Y-73039361D01*
X109716962Y-73277457D02*
X110431248Y-73515552D01*
X110431248Y-72896504D01*
X99528334Y-85669381D02*
X99052143Y-85669381D01*
X99052143Y-84669381D01*
X100337858Y-84669381D02*
X99861667Y-84669381D01*
X99814048Y-85145571D01*
X99861667Y-85097952D01*
X99956905Y-85050333D01*
X100195001Y-85050333D01*
X100290239Y-85097952D01*
X100337858Y-85145571D01*
X100385477Y-85240810D01*
X100385477Y-85478905D01*
X100337858Y-85574143D01*
X100290239Y-85621762D01*
X100195001Y-85669381D01*
X99956905Y-85669381D01*
X99861667Y-85621762D01*
X99814048Y-85574143D01*
X87574381Y-110529666D02*
X87098190Y-110863000D01*
X87574381Y-111101095D02*
X86574381Y-111101095D01*
X86574381Y-110720142D01*
X86622000Y-110624904D01*
X86669619Y-110577285D01*
X86764857Y-110529666D01*
X86907714Y-110529666D01*
X87002952Y-110577285D01*
X87050571Y-110624904D01*
X87098190Y-110720142D01*
X87098190Y-111101095D01*
X87574381Y-109577285D02*
X87574381Y-110148714D01*
X87574381Y-109863000D02*
X86574381Y-109863000D01*
X86717238Y-109958238D01*
X86812476Y-110053476D01*
X86860095Y-110148714D01*
X90749381Y-110910666D02*
X90273190Y-111244000D01*
X90749381Y-111482095D02*
X89749381Y-111482095D01*
X89749381Y-111101142D01*
X89797000Y-111005904D01*
X89844619Y-110958285D01*
X89939857Y-110910666D01*
X90082714Y-110910666D01*
X90177952Y-110958285D01*
X90225571Y-111005904D01*
X90273190Y-111101142D01*
X90273190Y-111482095D01*
X89844619Y-110529714D02*
X89797000Y-110482095D01*
X89749381Y-110386857D01*
X89749381Y-110148761D01*
X89797000Y-110053523D01*
X89844619Y-110005904D01*
X89939857Y-109958285D01*
X90035095Y-109958285D01*
X90177952Y-110005904D01*
X90749381Y-110577333D01*
X90749381Y-109958285D01*
X141412934Y-74340981D02*
X141079600Y-73864790D01*
X140841505Y-74340981D02*
X140841505Y-73340981D01*
X141222458Y-73340981D01*
X141317696Y-73388600D01*
X141365315Y-73436219D01*
X141412934Y-73531457D01*
X141412934Y-73674314D01*
X141365315Y-73769552D01*
X141317696Y-73817171D01*
X141222458Y-73864790D01*
X140841505Y-73864790D01*
X141746267Y-73340981D02*
X142365315Y-73340981D01*
X142031981Y-73721933D01*
X142174839Y-73721933D01*
X142270077Y-73769552D01*
X142317696Y-73817171D01*
X142365315Y-73912410D01*
X142365315Y-74150505D01*
X142317696Y-74245743D01*
X142270077Y-74293362D01*
X142174839Y-74340981D01*
X141889124Y-74340981D01*
X141793886Y-74293362D01*
X141746267Y-74245743D01*
X141806634Y-70950081D02*
X141473300Y-70473890D01*
X141235205Y-70950081D02*
X141235205Y-69950081D01*
X141616158Y-69950081D01*
X141711396Y-69997700D01*
X141759015Y-70045319D01*
X141806634Y-70140557D01*
X141806634Y-70283414D01*
X141759015Y-70378652D01*
X141711396Y-70426271D01*
X141616158Y-70473890D01*
X141235205Y-70473890D01*
X142663777Y-70283414D02*
X142663777Y-70950081D01*
X142425681Y-69902462D02*
X142187586Y-70616748D01*
X142806634Y-70616748D01*
X83018334Y-78557381D02*
X82685000Y-78081190D01*
X82446905Y-78557381D02*
X82446905Y-77557381D01*
X82827858Y-77557381D01*
X82923096Y-77605000D01*
X82970715Y-77652619D01*
X83018334Y-77747857D01*
X83018334Y-77890714D01*
X82970715Y-77985952D01*
X82923096Y-78033571D01*
X82827858Y-78081190D01*
X82446905Y-78081190D01*
X83923096Y-77557381D02*
X83446905Y-77557381D01*
X83399286Y-78033571D01*
X83446905Y-77985952D01*
X83542143Y-77938333D01*
X83780239Y-77938333D01*
X83875477Y-77985952D01*
X83923096Y-78033571D01*
X83970715Y-78128810D01*
X83970715Y-78366905D01*
X83923096Y-78462143D01*
X83875477Y-78509762D01*
X83780239Y-78557381D01*
X83542143Y-78557381D01*
X83446905Y-78509762D01*
X83399286Y-78462143D01*
X82773781Y-65292266D02*
X82297590Y-65625600D01*
X82773781Y-65863695D02*
X81773781Y-65863695D01*
X81773781Y-65482742D01*
X81821400Y-65387504D01*
X81869019Y-65339885D01*
X81964257Y-65292266D01*
X82107114Y-65292266D01*
X82202352Y-65339885D01*
X82249971Y-65387504D01*
X82297590Y-65482742D01*
X82297590Y-65863695D01*
X81773781Y-64435123D02*
X81773781Y-64625600D01*
X81821400Y-64720838D01*
X81869019Y-64768457D01*
X82011876Y-64863695D01*
X82202352Y-64911314D01*
X82583305Y-64911314D01*
X82678543Y-64863695D01*
X82726162Y-64816076D01*
X82773781Y-64720838D01*
X82773781Y-64530361D01*
X82726162Y-64435123D01*
X82678543Y-64387504D01*
X82583305Y-64339885D01*
X82345210Y-64339885D01*
X82249971Y-64387504D01*
X82202352Y-64435123D01*
X82154733Y-64530361D01*
X82154733Y-64720838D01*
X82202352Y-64816076D01*
X82249971Y-64863695D01*
X82345210Y-64911314D01*
X82827834Y-71877181D02*
X82494500Y-71400990D01*
X82256405Y-71877181D02*
X82256405Y-70877181D01*
X82637358Y-70877181D01*
X82732596Y-70924800D01*
X82780215Y-70972419D01*
X82827834Y-71067657D01*
X82827834Y-71210514D01*
X82780215Y-71305752D01*
X82732596Y-71353371D01*
X82637358Y-71400990D01*
X82256405Y-71400990D01*
X83399262Y-71305752D02*
X83304024Y-71258133D01*
X83256405Y-71210514D01*
X83208786Y-71115276D01*
X83208786Y-71067657D01*
X83256405Y-70972419D01*
X83304024Y-70924800D01*
X83399262Y-70877181D01*
X83589739Y-70877181D01*
X83684977Y-70924800D01*
X83732596Y-70972419D01*
X83780215Y-71067657D01*
X83780215Y-71115276D01*
X83732596Y-71210514D01*
X83684977Y-71258133D01*
X83589739Y-71305752D01*
X83399262Y-71305752D01*
X83304024Y-71353371D01*
X83256405Y-71400990D01*
X83208786Y-71496229D01*
X83208786Y-71686705D01*
X83256405Y-71781943D01*
X83304024Y-71829562D01*
X83399262Y-71877181D01*
X83589739Y-71877181D01*
X83684977Y-71829562D01*
X83732596Y-71781943D01*
X83780215Y-71686705D01*
X83780215Y-71496229D01*
X83732596Y-71400990D01*
X83684977Y-71353371D01*
X83589739Y-71305752D01*
X86828334Y-101163381D02*
X86495000Y-100687190D01*
X86256905Y-101163381D02*
X86256905Y-100163381D01*
X86637858Y-100163381D01*
X86733096Y-100211000D01*
X86780715Y-100258619D01*
X86828334Y-100353857D01*
X86828334Y-100496714D01*
X86780715Y-100591952D01*
X86733096Y-100639571D01*
X86637858Y-100687190D01*
X86256905Y-100687190D01*
X87304524Y-101163381D02*
X87495000Y-101163381D01*
X87590239Y-101115762D01*
X87637858Y-101068143D01*
X87733096Y-100925286D01*
X87780715Y-100734810D01*
X87780715Y-100353857D01*
X87733096Y-100258619D01*
X87685477Y-100211000D01*
X87590239Y-100163381D01*
X87399762Y-100163381D01*
X87304524Y-100211000D01*
X87256905Y-100258619D01*
X87209286Y-100353857D01*
X87209286Y-100591952D01*
X87256905Y-100687190D01*
X87304524Y-100734810D01*
X87399762Y-100782429D01*
X87590239Y-100782429D01*
X87685477Y-100734810D01*
X87733096Y-100687190D01*
X87780715Y-100591952D01*
X85897981Y-65196957D02*
X85421790Y-65530291D01*
X85897981Y-65768386D02*
X84897981Y-65768386D01*
X84897981Y-65387433D01*
X84945600Y-65292195D01*
X84993219Y-65244576D01*
X85088457Y-65196957D01*
X85231314Y-65196957D01*
X85326552Y-65244576D01*
X85374171Y-65292195D01*
X85421790Y-65387433D01*
X85421790Y-65768386D01*
X85897981Y-64244576D02*
X85897981Y-64816005D01*
X85897981Y-64530291D02*
X84897981Y-64530291D01*
X85040838Y-64625529D01*
X85136076Y-64720767D01*
X85183695Y-64816005D01*
X85897981Y-63292195D02*
X85897981Y-63863624D01*
X85897981Y-63577910D02*
X84897981Y-63577910D01*
X85040838Y-63673148D01*
X85136076Y-63768386D01*
X85183695Y-63863624D01*
X82173843Y-54973481D02*
X81840509Y-54497290D01*
X81602414Y-54973481D02*
X81602414Y-53973481D01*
X81983367Y-53973481D01*
X82078605Y-54021100D01*
X82126224Y-54068719D01*
X82173843Y-54163957D01*
X82173843Y-54306814D01*
X82126224Y-54402052D01*
X82078605Y-54449671D01*
X81983367Y-54497290D01*
X81602414Y-54497290D01*
X83126224Y-54973481D02*
X82554795Y-54973481D01*
X82840509Y-54973481D02*
X82840509Y-53973481D01*
X82745271Y-54116338D01*
X82650033Y-54211576D01*
X82554795Y-54259195D01*
X83507176Y-54068719D02*
X83554795Y-54021100D01*
X83650033Y-53973481D01*
X83888129Y-53973481D01*
X83983367Y-54021100D01*
X84030986Y-54068719D01*
X84078605Y-54163957D01*
X84078605Y-54259195D01*
X84030986Y-54402052D01*
X83459557Y-54973481D01*
X84078605Y-54973481D01*
X82338943Y-58250081D02*
X82005609Y-57773890D01*
X81767514Y-58250081D02*
X81767514Y-57250081D01*
X82148467Y-57250081D01*
X82243705Y-57297700D01*
X82291324Y-57345319D01*
X82338943Y-57440557D01*
X82338943Y-57583414D01*
X82291324Y-57678652D01*
X82243705Y-57726271D01*
X82148467Y-57773890D01*
X81767514Y-57773890D01*
X83291324Y-58250081D02*
X82719895Y-58250081D01*
X83005609Y-58250081D02*
X83005609Y-57250081D01*
X82910371Y-57392938D01*
X82815133Y-57488176D01*
X82719895Y-57535795D01*
X83624657Y-57250081D02*
X84243705Y-57250081D01*
X83910371Y-57631033D01*
X84053229Y-57631033D01*
X84148467Y-57678652D01*
X84196086Y-57726271D01*
X84243705Y-57821510D01*
X84243705Y-58059605D01*
X84196086Y-58154843D01*
X84148467Y-58202462D01*
X84053229Y-58250081D01*
X83767514Y-58250081D01*
X83672276Y-58202462D01*
X83624657Y-58154843D01*
X86479143Y-97607381D02*
X86145809Y-97131190D01*
X85907714Y-97607381D02*
X85907714Y-96607381D01*
X86288667Y-96607381D01*
X86383905Y-96655000D01*
X86431524Y-96702619D01*
X86479143Y-96797857D01*
X86479143Y-96940714D01*
X86431524Y-97035952D01*
X86383905Y-97083571D01*
X86288667Y-97131190D01*
X85907714Y-97131190D01*
X87431524Y-97607381D02*
X86860095Y-97607381D01*
X87145809Y-97607381D02*
X87145809Y-96607381D01*
X87050571Y-96750238D01*
X86955333Y-96845476D01*
X86860095Y-96893095D01*
X88288667Y-96940714D02*
X88288667Y-97607381D01*
X88050571Y-96559762D02*
X87812476Y-97274048D01*
X88431524Y-97274048D01*
X75239643Y-100642681D02*
X74906309Y-100166490D01*
X74668214Y-100642681D02*
X74668214Y-99642681D01*
X75049167Y-99642681D01*
X75144405Y-99690300D01*
X75192024Y-99737919D01*
X75239643Y-99833157D01*
X75239643Y-99976014D01*
X75192024Y-100071252D01*
X75144405Y-100118871D01*
X75049167Y-100166490D01*
X74668214Y-100166490D01*
X76192024Y-100642681D02*
X75620595Y-100642681D01*
X75906309Y-100642681D02*
X75906309Y-99642681D01*
X75811071Y-99785538D01*
X75715833Y-99880776D01*
X75620595Y-99928395D01*
X77096786Y-99642681D02*
X76620595Y-99642681D01*
X76572976Y-100118871D01*
X76620595Y-100071252D01*
X76715833Y-100023633D01*
X76953929Y-100023633D01*
X77049167Y-100071252D01*
X77096786Y-100118871D01*
X77144405Y-100214110D01*
X77144405Y-100452205D01*
X77096786Y-100547443D01*
X77049167Y-100595062D01*
X76953929Y-100642681D01*
X76715833Y-100642681D01*
X76620595Y-100595062D01*
X76572976Y-100547443D01*
X75747643Y-97480381D02*
X75414309Y-97004190D01*
X75176214Y-97480381D02*
X75176214Y-96480381D01*
X75557167Y-96480381D01*
X75652405Y-96528000D01*
X75700024Y-96575619D01*
X75747643Y-96670857D01*
X75747643Y-96813714D01*
X75700024Y-96908952D01*
X75652405Y-96956571D01*
X75557167Y-97004190D01*
X75176214Y-97004190D01*
X76700024Y-97480381D02*
X76128595Y-97480381D01*
X76414309Y-97480381D02*
X76414309Y-96480381D01*
X76319071Y-96623238D01*
X76223833Y-96718476D01*
X76128595Y-96766095D01*
X77557167Y-96480381D02*
X77366690Y-96480381D01*
X77271452Y-96528000D01*
X77223833Y-96575619D01*
X77128595Y-96718476D01*
X77080976Y-96908952D01*
X77080976Y-97289905D01*
X77128595Y-97385143D01*
X77176214Y-97432762D01*
X77271452Y-97480381D01*
X77461929Y-97480381D01*
X77557167Y-97432762D01*
X77604786Y-97385143D01*
X77652405Y-97289905D01*
X77652405Y-97051810D01*
X77604786Y-96956571D01*
X77557167Y-96908952D01*
X77461929Y-96861333D01*
X77271452Y-96861333D01*
X77176214Y-96908952D01*
X77128595Y-96956571D01*
X77080976Y-97051810D01*
X68572143Y-77846181D02*
X68238809Y-77369990D01*
X68000714Y-77846181D02*
X68000714Y-76846181D01*
X68381667Y-76846181D01*
X68476905Y-76893800D01*
X68524524Y-76941419D01*
X68572143Y-77036657D01*
X68572143Y-77179514D01*
X68524524Y-77274752D01*
X68476905Y-77322371D01*
X68381667Y-77369990D01*
X68000714Y-77369990D01*
X69524524Y-77846181D02*
X68953095Y-77846181D01*
X69238809Y-77846181D02*
X69238809Y-76846181D01*
X69143571Y-76989038D01*
X69048333Y-77084276D01*
X68953095Y-77131895D01*
X69857857Y-76846181D02*
X70524524Y-76846181D01*
X70095952Y-77846181D01*
X68180983Y-81023721D02*
X67847649Y-80547530D01*
X67609554Y-81023721D02*
X67609554Y-80023721D01*
X67990507Y-80023721D01*
X68085745Y-80071340D01*
X68133364Y-80118959D01*
X68180983Y-80214197D01*
X68180983Y-80357054D01*
X68133364Y-80452292D01*
X68085745Y-80499911D01*
X67990507Y-80547530D01*
X67609554Y-80547530D01*
X69133364Y-81023721D02*
X68561935Y-81023721D01*
X68847649Y-81023721D02*
X68847649Y-80023721D01*
X68752411Y-80166578D01*
X68657173Y-80261816D01*
X68561935Y-80309435D01*
X69704792Y-80452292D02*
X69609554Y-80404673D01*
X69561935Y-80357054D01*
X69514316Y-80261816D01*
X69514316Y-80214197D01*
X69561935Y-80118959D01*
X69609554Y-80071340D01*
X69704792Y-80023721D01*
X69895269Y-80023721D01*
X69990507Y-80071340D01*
X70038126Y-80118959D01*
X70085745Y-80214197D01*
X70085745Y-80261816D01*
X70038126Y-80357054D01*
X69990507Y-80404673D01*
X69895269Y-80452292D01*
X69704792Y-80452292D01*
X69609554Y-80499911D01*
X69561935Y-80547530D01*
X69514316Y-80642769D01*
X69514316Y-80833245D01*
X69561935Y-80928483D01*
X69609554Y-80976102D01*
X69704792Y-81023721D01*
X69895269Y-81023721D01*
X69990507Y-80976102D01*
X70038126Y-80928483D01*
X70085745Y-80833245D01*
X70085745Y-80642769D01*
X70038126Y-80547530D01*
X69990507Y-80499911D01*
X69895269Y-80452292D01*
X99189303Y-66406021D02*
X98855969Y-65929830D01*
X98617874Y-66406021D02*
X98617874Y-65406021D01*
X98998827Y-65406021D01*
X99094065Y-65453640D01*
X99141684Y-65501259D01*
X99189303Y-65596497D01*
X99189303Y-65739354D01*
X99141684Y-65834592D01*
X99094065Y-65882211D01*
X98998827Y-65929830D01*
X98617874Y-65929830D01*
X100141684Y-66406021D02*
X99570255Y-66406021D01*
X99855969Y-66406021D02*
X99855969Y-65406021D01*
X99760731Y-65548878D01*
X99665493Y-65644116D01*
X99570255Y-65691735D01*
X100617874Y-66406021D02*
X100808350Y-66406021D01*
X100903589Y-66358402D01*
X100951208Y-66310783D01*
X101046446Y-66167926D01*
X101094065Y-65977450D01*
X101094065Y-65596497D01*
X101046446Y-65501259D01*
X100998827Y-65453640D01*
X100903589Y-65406021D01*
X100713112Y-65406021D01*
X100617874Y-65453640D01*
X100570255Y-65501259D01*
X100522636Y-65596497D01*
X100522636Y-65834592D01*
X100570255Y-65929830D01*
X100617874Y-65977450D01*
X100713112Y-66025069D01*
X100903589Y-66025069D01*
X100998827Y-65977450D01*
X101046446Y-65929830D01*
X101094065Y-65834592D01*
X99077543Y-82179421D02*
X98744209Y-81703230D01*
X98506114Y-82179421D02*
X98506114Y-81179421D01*
X98887067Y-81179421D01*
X98982305Y-81227040D01*
X99029924Y-81274659D01*
X99077543Y-81369897D01*
X99077543Y-81512754D01*
X99029924Y-81607992D01*
X98982305Y-81655611D01*
X98887067Y-81703230D01*
X98506114Y-81703230D01*
X99458495Y-81274659D02*
X99506114Y-81227040D01*
X99601352Y-81179421D01*
X99839448Y-81179421D01*
X99934686Y-81227040D01*
X99982305Y-81274659D01*
X100029924Y-81369897D01*
X100029924Y-81465135D01*
X99982305Y-81607992D01*
X99410876Y-82179421D01*
X100029924Y-82179421D01*
X100648971Y-81179421D02*
X100744210Y-81179421D01*
X100839448Y-81227040D01*
X100887067Y-81274659D01*
X100934686Y-81369897D01*
X100982305Y-81560373D01*
X100982305Y-81798469D01*
X100934686Y-81988945D01*
X100887067Y-82084183D01*
X100839448Y-82131802D01*
X100744210Y-82179421D01*
X100648971Y-82179421D01*
X100553733Y-82131802D01*
X100506114Y-82084183D01*
X100458495Y-81988945D01*
X100410876Y-81798469D01*
X100410876Y-81560373D01*
X100458495Y-81369897D01*
X100506114Y-81274659D01*
X100553733Y-81227040D01*
X100648971Y-81179421D01*
X82173843Y-94445081D02*
X81840509Y-93968890D01*
X81602414Y-94445081D02*
X81602414Y-93445081D01*
X81983367Y-93445081D01*
X82078605Y-93492700D01*
X82126224Y-93540319D01*
X82173843Y-93635557D01*
X82173843Y-93778414D01*
X82126224Y-93873652D01*
X82078605Y-93921271D01*
X81983367Y-93968890D01*
X81602414Y-93968890D01*
X82554795Y-93540319D02*
X82602414Y-93492700D01*
X82697652Y-93445081D01*
X82935748Y-93445081D01*
X83030986Y-93492700D01*
X83078605Y-93540319D01*
X83126224Y-93635557D01*
X83126224Y-93730795D01*
X83078605Y-93873652D01*
X82507176Y-94445081D01*
X83126224Y-94445081D01*
X84078605Y-94445081D02*
X83507176Y-94445081D01*
X83792890Y-94445081D02*
X83792890Y-93445081D01*
X83697652Y-93587938D01*
X83602414Y-93683176D01*
X83507176Y-93730795D01*
X115387381Y-59316857D02*
X114911190Y-59650191D01*
X115387381Y-59888286D02*
X114387381Y-59888286D01*
X114387381Y-59507333D01*
X114435000Y-59412095D01*
X114482619Y-59364476D01*
X114577857Y-59316857D01*
X114720714Y-59316857D01*
X114815952Y-59364476D01*
X114863571Y-59412095D01*
X114911190Y-59507333D01*
X114911190Y-59888286D01*
X114482619Y-58935905D02*
X114435000Y-58888286D01*
X114387381Y-58793048D01*
X114387381Y-58554952D01*
X114435000Y-58459714D01*
X114482619Y-58412095D01*
X114577857Y-58364476D01*
X114673095Y-58364476D01*
X114815952Y-58412095D01*
X115387381Y-58983524D01*
X115387381Y-58364476D01*
X114482619Y-57983524D02*
X114435000Y-57935905D01*
X114387381Y-57840667D01*
X114387381Y-57602571D01*
X114435000Y-57507333D01*
X114482619Y-57459714D01*
X114577857Y-57412095D01*
X114673095Y-57412095D01*
X114815952Y-57459714D01*
X115387381Y-58031143D01*
X115387381Y-57412095D01*
X114244381Y-76461857D02*
X113768190Y-76795191D01*
X114244381Y-77033286D02*
X113244381Y-77033286D01*
X113244381Y-76652333D01*
X113292000Y-76557095D01*
X113339619Y-76509476D01*
X113434857Y-76461857D01*
X113577714Y-76461857D01*
X113672952Y-76509476D01*
X113720571Y-76557095D01*
X113768190Y-76652333D01*
X113768190Y-77033286D01*
X113339619Y-76080905D02*
X113292000Y-76033286D01*
X113244381Y-75938048D01*
X113244381Y-75699952D01*
X113292000Y-75604714D01*
X113339619Y-75557095D01*
X113434857Y-75509476D01*
X113530095Y-75509476D01*
X113672952Y-75557095D01*
X114244381Y-76128524D01*
X114244381Y-75509476D01*
X113244381Y-75176143D02*
X113244381Y-74557095D01*
X113625333Y-74890429D01*
X113625333Y-74747571D01*
X113672952Y-74652333D01*
X113720571Y-74604714D01*
X113815810Y-74557095D01*
X114053905Y-74557095D01*
X114149143Y-74604714D01*
X114196762Y-74652333D01*
X114244381Y-74747571D01*
X114244381Y-75033286D01*
X114196762Y-75128524D01*
X114149143Y-75176143D01*
X98290143Y-89860381D02*
X97956809Y-89384190D01*
X97718714Y-89860381D02*
X97718714Y-88860381D01*
X98099667Y-88860381D01*
X98194905Y-88908000D01*
X98242524Y-88955619D01*
X98290143Y-89050857D01*
X98290143Y-89193714D01*
X98242524Y-89288952D01*
X98194905Y-89336571D01*
X98099667Y-89384190D01*
X97718714Y-89384190D01*
X98671095Y-88955619D02*
X98718714Y-88908000D01*
X98813952Y-88860381D01*
X99052048Y-88860381D01*
X99147286Y-88908000D01*
X99194905Y-88955619D01*
X99242524Y-89050857D01*
X99242524Y-89146095D01*
X99194905Y-89288952D01*
X98623476Y-89860381D01*
X99242524Y-89860381D01*
X100099667Y-89193714D02*
X100099667Y-89860381D01*
X99861571Y-88812762D02*
X99623476Y-89527048D01*
X100242524Y-89527048D01*
X109166423Y-66350141D02*
X108833089Y-65873950D01*
X108594994Y-66350141D02*
X108594994Y-65350141D01*
X108975947Y-65350141D01*
X109071185Y-65397760D01*
X109118804Y-65445379D01*
X109166423Y-65540617D01*
X109166423Y-65683474D01*
X109118804Y-65778712D01*
X109071185Y-65826331D01*
X108975947Y-65873950D01*
X108594994Y-65873950D01*
X109547375Y-65445379D02*
X109594994Y-65397760D01*
X109690232Y-65350141D01*
X109928328Y-65350141D01*
X110023566Y-65397760D01*
X110071185Y-65445379D01*
X110118804Y-65540617D01*
X110118804Y-65635855D01*
X110071185Y-65778712D01*
X109499756Y-66350141D01*
X110118804Y-66350141D01*
X111023566Y-65350141D02*
X110547375Y-65350141D01*
X110499756Y-65826331D01*
X110547375Y-65778712D01*
X110642613Y-65731093D01*
X110880709Y-65731093D01*
X110975947Y-65778712D01*
X111023566Y-65826331D01*
X111071185Y-65921570D01*
X111071185Y-66159665D01*
X111023566Y-66254903D01*
X110975947Y-66302522D01*
X110880709Y-66350141D01*
X110642613Y-66350141D01*
X110547375Y-66302522D01*
X110499756Y-66254903D01*
X109656643Y-83218281D02*
X109323309Y-82742090D01*
X109085214Y-83218281D02*
X109085214Y-82218281D01*
X109466167Y-82218281D01*
X109561405Y-82265900D01*
X109609024Y-82313519D01*
X109656643Y-82408757D01*
X109656643Y-82551614D01*
X109609024Y-82646852D01*
X109561405Y-82694471D01*
X109466167Y-82742090D01*
X109085214Y-82742090D01*
X110037595Y-82313519D02*
X110085214Y-82265900D01*
X110180452Y-82218281D01*
X110418548Y-82218281D01*
X110513786Y-82265900D01*
X110561405Y-82313519D01*
X110609024Y-82408757D01*
X110609024Y-82503995D01*
X110561405Y-82646852D01*
X109989976Y-83218281D01*
X110609024Y-83218281D01*
X111466167Y-82218281D02*
X111275690Y-82218281D01*
X111180452Y-82265900D01*
X111132833Y-82313519D01*
X111037595Y-82456376D01*
X110989976Y-82646852D01*
X110989976Y-83027805D01*
X111037595Y-83123043D01*
X111085214Y-83170662D01*
X111180452Y-83218281D01*
X111370929Y-83218281D01*
X111466167Y-83170662D01*
X111513786Y-83123043D01*
X111561405Y-83027805D01*
X111561405Y-82789710D01*
X111513786Y-82694471D01*
X111466167Y-82646852D01*
X111370929Y-82599233D01*
X111180452Y-82599233D01*
X111085214Y-82646852D01*
X111037595Y-82694471D01*
X110989976Y-82789710D01*
X93083143Y-94533981D02*
X92749809Y-94057790D01*
X92511714Y-94533981D02*
X92511714Y-93533981D01*
X92892667Y-93533981D01*
X92987905Y-93581600D01*
X93035524Y-93629219D01*
X93083143Y-93724457D01*
X93083143Y-93867314D01*
X93035524Y-93962552D01*
X92987905Y-94010171D01*
X92892667Y-94057790D01*
X92511714Y-94057790D01*
X93464095Y-93629219D02*
X93511714Y-93581600D01*
X93606952Y-93533981D01*
X93845048Y-93533981D01*
X93940286Y-93581600D01*
X93987905Y-93629219D01*
X94035524Y-93724457D01*
X94035524Y-93819695D01*
X93987905Y-93962552D01*
X93416476Y-94533981D01*
X94035524Y-94533981D01*
X94368857Y-93533981D02*
X95035524Y-93533981D01*
X94606952Y-94533981D01*
X129151143Y-59888381D02*
X128817809Y-59412190D01*
X128579714Y-59888381D02*
X128579714Y-58888381D01*
X128960667Y-58888381D01*
X129055905Y-58936000D01*
X129103524Y-58983619D01*
X129151143Y-59078857D01*
X129151143Y-59221714D01*
X129103524Y-59316952D01*
X129055905Y-59364571D01*
X128960667Y-59412190D01*
X128579714Y-59412190D01*
X129532095Y-58983619D02*
X129579714Y-58936000D01*
X129674952Y-58888381D01*
X129913048Y-58888381D01*
X130008286Y-58936000D01*
X130055905Y-58983619D01*
X130103524Y-59078857D01*
X130103524Y-59174095D01*
X130055905Y-59316952D01*
X129484476Y-59888381D01*
X130103524Y-59888381D01*
X130674952Y-59316952D02*
X130579714Y-59269333D01*
X130532095Y-59221714D01*
X130484476Y-59126476D01*
X130484476Y-59078857D01*
X130532095Y-58983619D01*
X130579714Y-58936000D01*
X130674952Y-58888381D01*
X130865429Y-58888381D01*
X130960667Y-58936000D01*
X131008286Y-58983619D01*
X131055905Y-59078857D01*
X131055905Y-59126476D01*
X131008286Y-59221714D01*
X130960667Y-59269333D01*
X130865429Y-59316952D01*
X130674952Y-59316952D01*
X130579714Y-59364571D01*
X130532095Y-59412190D01*
X130484476Y-59507429D01*
X130484476Y-59697905D01*
X130532095Y-59793143D01*
X130579714Y-59840762D01*
X130674952Y-59888381D01*
X130865429Y-59888381D01*
X130960667Y-59840762D01*
X131008286Y-59793143D01*
X131055905Y-59697905D01*
X131055905Y-59507429D01*
X131008286Y-59412190D01*
X130960667Y-59364571D01*
X130865429Y-59316952D01*
X119502181Y-91587557D02*
X119025990Y-91920891D01*
X119502181Y-92158986D02*
X118502181Y-92158986D01*
X118502181Y-91778033D01*
X118549800Y-91682795D01*
X118597419Y-91635176D01*
X118692657Y-91587557D01*
X118835514Y-91587557D01*
X118930752Y-91635176D01*
X118978371Y-91682795D01*
X119025990Y-91778033D01*
X119025990Y-92158986D01*
X118597419Y-91206605D02*
X118549800Y-91158986D01*
X118502181Y-91063748D01*
X118502181Y-90825652D01*
X118549800Y-90730414D01*
X118597419Y-90682795D01*
X118692657Y-90635176D01*
X118787895Y-90635176D01*
X118930752Y-90682795D01*
X119502181Y-91254224D01*
X119502181Y-90635176D01*
X119502181Y-90158986D02*
X119502181Y-89968510D01*
X119454562Y-89873271D01*
X119406943Y-89825652D01*
X119264086Y-89730414D01*
X119073610Y-89682795D01*
X118692657Y-89682795D01*
X118597419Y-89730414D01*
X118549800Y-89778033D01*
X118502181Y-89873271D01*
X118502181Y-90063748D01*
X118549800Y-90158986D01*
X118597419Y-90206605D01*
X118692657Y-90254224D01*
X118930752Y-90254224D01*
X119025990Y-90206605D01*
X119073610Y-90158986D01*
X119121229Y-90063748D01*
X119121229Y-89873271D01*
X119073610Y-89778033D01*
X119025990Y-89730414D01*
X118930752Y-89682795D01*
X129151143Y-56586381D02*
X128817809Y-56110190D01*
X128579714Y-56586381D02*
X128579714Y-55586381D01*
X128960667Y-55586381D01*
X129055905Y-55634000D01*
X129103524Y-55681619D01*
X129151143Y-55776857D01*
X129151143Y-55919714D01*
X129103524Y-56014952D01*
X129055905Y-56062571D01*
X128960667Y-56110190D01*
X128579714Y-56110190D01*
X129484476Y-55586381D02*
X130103524Y-55586381D01*
X129770190Y-55967333D01*
X129913048Y-55967333D01*
X130008286Y-56014952D01*
X130055905Y-56062571D01*
X130103524Y-56157810D01*
X130103524Y-56395905D01*
X130055905Y-56491143D01*
X130008286Y-56538762D01*
X129913048Y-56586381D01*
X129627333Y-56586381D01*
X129532095Y-56538762D01*
X129484476Y-56491143D01*
X130722571Y-55586381D02*
X130817810Y-55586381D01*
X130913048Y-55634000D01*
X130960667Y-55681619D01*
X131008286Y-55776857D01*
X131055905Y-55967333D01*
X131055905Y-56205429D01*
X131008286Y-56395905D01*
X130960667Y-56491143D01*
X130913048Y-56538762D01*
X130817810Y-56586381D01*
X130722571Y-56586381D01*
X130627333Y-56538762D01*
X130579714Y-56491143D01*
X130532095Y-56395905D01*
X130484476Y-56205429D01*
X130484476Y-55967333D01*
X130532095Y-55776857D01*
X130579714Y-55681619D01*
X130627333Y-55634000D01*
X130722571Y-55586381D01*
X122804181Y-91333557D02*
X122327990Y-91666891D01*
X122804181Y-91904986D02*
X121804181Y-91904986D01*
X121804181Y-91524033D01*
X121851800Y-91428795D01*
X121899419Y-91381176D01*
X121994657Y-91333557D01*
X122137514Y-91333557D01*
X122232752Y-91381176D01*
X122280371Y-91428795D01*
X122327990Y-91524033D01*
X122327990Y-91904986D01*
X121804181Y-91000224D02*
X121804181Y-90381176D01*
X122185133Y-90714510D01*
X122185133Y-90571652D01*
X122232752Y-90476414D01*
X122280371Y-90428795D01*
X122375610Y-90381176D01*
X122613705Y-90381176D01*
X122708943Y-90428795D01*
X122756562Y-90476414D01*
X122804181Y-90571652D01*
X122804181Y-90857367D01*
X122756562Y-90952605D01*
X122708943Y-91000224D01*
X122804181Y-89428795D02*
X122804181Y-90000224D01*
X122804181Y-89714510D02*
X121804181Y-89714510D01*
X121947038Y-89809748D01*
X122042276Y-89904986D01*
X122089895Y-90000224D01*
X132961143Y-63698381D02*
X132627809Y-63222190D01*
X132389714Y-63698381D02*
X132389714Y-62698381D01*
X132770667Y-62698381D01*
X132865905Y-62746000D01*
X132913524Y-62793619D01*
X132961143Y-62888857D01*
X132961143Y-63031714D01*
X132913524Y-63126952D01*
X132865905Y-63174571D01*
X132770667Y-63222190D01*
X132389714Y-63222190D01*
X133294476Y-62698381D02*
X133913524Y-62698381D01*
X133580190Y-63079333D01*
X133723048Y-63079333D01*
X133818286Y-63126952D01*
X133865905Y-63174571D01*
X133913524Y-63269810D01*
X133913524Y-63507905D01*
X133865905Y-63603143D01*
X133818286Y-63650762D01*
X133723048Y-63698381D01*
X133437333Y-63698381D01*
X133342095Y-63650762D01*
X133294476Y-63603143D01*
X134294476Y-62793619D02*
X134342095Y-62746000D01*
X134437333Y-62698381D01*
X134675429Y-62698381D01*
X134770667Y-62746000D01*
X134818286Y-62793619D01*
X134865905Y-62888857D01*
X134865905Y-62984095D01*
X134818286Y-63126952D01*
X134246857Y-63698381D01*
X134865905Y-63698381D01*
X133215143Y-67127381D02*
X132881809Y-66651190D01*
X132643714Y-67127381D02*
X132643714Y-66127381D01*
X133024667Y-66127381D01*
X133119905Y-66175000D01*
X133167524Y-66222619D01*
X133215143Y-66317857D01*
X133215143Y-66460714D01*
X133167524Y-66555952D01*
X133119905Y-66603571D01*
X133024667Y-66651190D01*
X132643714Y-66651190D01*
X133548476Y-66127381D02*
X134167524Y-66127381D01*
X133834190Y-66508333D01*
X133977048Y-66508333D01*
X134072286Y-66555952D01*
X134119905Y-66603571D01*
X134167524Y-66698810D01*
X134167524Y-66936905D01*
X134119905Y-67032143D01*
X134072286Y-67079762D01*
X133977048Y-67127381D01*
X133691333Y-67127381D01*
X133596095Y-67079762D01*
X133548476Y-67032143D01*
X134500857Y-66127381D02*
X135119905Y-66127381D01*
X134786571Y-66508333D01*
X134929429Y-66508333D01*
X135024667Y-66555952D01*
X135072286Y-66603571D01*
X135119905Y-66698810D01*
X135119905Y-66936905D01*
X135072286Y-67032143D01*
X135024667Y-67079762D01*
X134929429Y-67127381D01*
X134643714Y-67127381D01*
X134548476Y-67079762D01*
X134500857Y-67032143D01*
X77470095Y-114514381D02*
X77470095Y-115323905D01*
X77517714Y-115419143D01*
X77565333Y-115466762D01*
X77660571Y-115514381D01*
X77851048Y-115514381D01*
X77946286Y-115466762D01*
X77993905Y-115419143D01*
X78041524Y-115323905D01*
X78041524Y-114514381D01*
X79041524Y-115514381D02*
X78470095Y-115514381D01*
X78755809Y-115514381D02*
X78755809Y-114514381D01*
X78660571Y-114657238D01*
X78565333Y-114752476D01*
X78470095Y-114800095D01*
X107402381Y-103377905D02*
X108211905Y-103377905D01*
X108307143Y-103330286D01*
X108354762Y-103282667D01*
X108402381Y-103187429D01*
X108402381Y-102996952D01*
X108354762Y-102901714D01*
X108307143Y-102854095D01*
X108211905Y-102806476D01*
X107402381Y-102806476D01*
X107497619Y-102377905D02*
X107450000Y-102330286D01*
X107402381Y-102235048D01*
X107402381Y-101996952D01*
X107450000Y-101901714D01*
X107497619Y-101854095D01*
X107592857Y-101806476D01*
X107688095Y-101806476D01*
X107830952Y-101854095D01*
X108402381Y-102425524D01*
X108402381Y-101806476D01*
X100008015Y-54817261D02*
X100008015Y-55626785D01*
X100055634Y-55722023D01*
X100103253Y-55769642D01*
X100198491Y-55817261D01*
X100388968Y-55817261D01*
X100484206Y-55769642D01*
X100531825Y-55722023D01*
X100579444Y-55626785D01*
X100579444Y-54817261D01*
X100960396Y-54817261D02*
X101579444Y-54817261D01*
X101246110Y-55198213D01*
X101388968Y-55198213D01*
X101484206Y-55245832D01*
X101531825Y-55293451D01*
X101579444Y-55388690D01*
X101579444Y-55626785D01*
X101531825Y-55722023D01*
X101484206Y-55769642D01*
X101388968Y-55817261D01*
X101103253Y-55817261D01*
X101008015Y-55769642D01*
X100960396Y-55722023D01*
X99625095Y-70570941D02*
X99625095Y-71380465D01*
X99672714Y-71475703D01*
X99720333Y-71523322D01*
X99815571Y-71570941D01*
X100006048Y-71570941D01*
X100101286Y-71523322D01*
X100148905Y-71475703D01*
X100196524Y-71380465D01*
X100196524Y-70570941D01*
X101101286Y-70904274D02*
X101101286Y-71570941D01*
X100863190Y-70523322D02*
X100625095Y-71237608D01*
X101244143Y-71237608D01*
X82480095Y-83388381D02*
X82480095Y-84197905D01*
X82527714Y-84293143D01*
X82575333Y-84340762D01*
X82670571Y-84388381D01*
X82861048Y-84388381D01*
X82956286Y-84340762D01*
X83003905Y-84293143D01*
X83051524Y-84197905D01*
X83051524Y-83388381D01*
X84003905Y-83388381D02*
X83527714Y-83388381D01*
X83480095Y-83864571D01*
X83527714Y-83816952D01*
X83622952Y-83769333D01*
X83861048Y-83769333D01*
X83956286Y-83816952D01*
X84003905Y-83864571D01*
X84051524Y-83959810D01*
X84051524Y-84197905D01*
X84003905Y-84293143D01*
X83956286Y-84340762D01*
X83861048Y-84388381D01*
X83622952Y-84388381D01*
X83527714Y-84340762D01*
X83480095Y-84293143D01*
X122682095Y-63460381D02*
X122682095Y-64269905D01*
X122729714Y-64365143D01*
X122777333Y-64412762D01*
X122872571Y-64460381D01*
X123063048Y-64460381D01*
X123158286Y-64412762D01*
X123205905Y-64365143D01*
X123253524Y-64269905D01*
X123253524Y-63460381D01*
X124158286Y-63460381D02*
X123967809Y-63460381D01*
X123872571Y-63508000D01*
X123824952Y-63555619D01*
X123729714Y-63698476D01*
X123682095Y-63888952D01*
X123682095Y-64269905D01*
X123729714Y-64365143D01*
X123777333Y-64412762D01*
X123872571Y-64460381D01*
X124063048Y-64460381D01*
X124158286Y-64412762D01*
X124205905Y-64365143D01*
X124253524Y-64269905D01*
X124253524Y-64031810D01*
X124205905Y-63936571D01*
X124158286Y-63888952D01*
X124063048Y-63841333D01*
X123872571Y-63841333D01*
X123777333Y-63888952D01*
X123729714Y-63936571D01*
X123682095Y-64031810D01*
X109764095Y-86624381D02*
X109764095Y-87433905D01*
X109811714Y-87529143D01*
X109859333Y-87576762D01*
X109954571Y-87624381D01*
X110145048Y-87624381D01*
X110240286Y-87576762D01*
X110287905Y-87529143D01*
X110335524Y-87433905D01*
X110335524Y-86624381D01*
X110716476Y-86624381D02*
X111383143Y-86624381D01*
X110954571Y-87624381D01*
X71705790Y-112134591D02*
X72181981Y-112134591D01*
X71181981Y-112467924D02*
X71705790Y-112134591D01*
X71181981Y-111801257D01*
X72181981Y-110944114D02*
X72181981Y-111515543D01*
X72181981Y-111229829D02*
X71181981Y-111229829D01*
X71324838Y-111325067D01*
X71420076Y-111420305D01*
X71467695Y-111515543D01*
X52047877Y-55992781D02*
X52047877Y-56707067D01*
X52000257Y-56849924D01*
X51905019Y-56945162D01*
X51762162Y-56992781D01*
X51666924Y-56992781D01*
X53047877Y-56992781D02*
X52476448Y-56992781D01*
X52762162Y-56992781D02*
X52762162Y-55992781D01*
X52666924Y-56135638D01*
X52571686Y-56230876D01*
X52476448Y-56278495D01*
X53619305Y-56421352D02*
X53524067Y-56373733D01*
X53476448Y-56326114D01*
X53428829Y-56230876D01*
X53428829Y-56183257D01*
X53476448Y-56088019D01*
X53524067Y-56040400D01*
X53619305Y-55992781D01*
X53809782Y-55992781D01*
X53905020Y-56040400D01*
X53952639Y-56088019D01*
X54000258Y-56183257D01*
X54000258Y-56230876D01*
X53952639Y-56326114D01*
X53905020Y-56373733D01*
X53809782Y-56421352D01*
X53619305Y-56421352D01*
X53524067Y-56468971D01*
X53476448Y-56516590D01*
X53428829Y-56611829D01*
X53428829Y-56802305D01*
X53476448Y-56897543D01*
X53524067Y-56945162D01*
X53619305Y-56992781D01*
X53809782Y-56992781D01*
X53905020Y-56945162D01*
X53952639Y-56897543D01*
X54000258Y-56802305D01*
X54000258Y-56611829D01*
X53952639Y-56516590D01*
X53905020Y-56468971D01*
X53809782Y-56421352D01*
X146269177Y-55941981D02*
X146269177Y-56656267D01*
X146221557Y-56799124D01*
X146126319Y-56894362D01*
X145983462Y-56941981D01*
X145888224Y-56941981D01*
X147269177Y-56941981D02*
X146697748Y-56941981D01*
X146983462Y-56941981D02*
X146983462Y-55941981D01*
X146888224Y-56084838D01*
X146792986Y-56180076D01*
X146697748Y-56227695D01*
X147745367Y-56941981D02*
X147935843Y-56941981D01*
X148031082Y-56894362D01*
X148078701Y-56846743D01*
X148173939Y-56703886D01*
X148221558Y-56513410D01*
X148221558Y-56132457D01*
X148173939Y-56037219D01*
X148126320Y-55989600D01*
X148031082Y-55941981D01*
X147840605Y-55941981D01*
X147745367Y-55989600D01*
X147697748Y-56037219D01*
X147650129Y-56132457D01*
X147650129Y-56370552D01*
X147697748Y-56465790D01*
X147745367Y-56513410D01*
X147840605Y-56561029D01*
X148031082Y-56561029D01*
X148126320Y-56513410D01*
X148173939Y-56465790D01*
X148221558Y-56370552D01*
X52190477Y-143404381D02*
X52190477Y-144118667D01*
X52142857Y-144261524D01*
X52047619Y-144356762D01*
X51904762Y-144404381D01*
X51809524Y-144404381D01*
X52619048Y-143499619D02*
X52666667Y-143452000D01*
X52761905Y-143404381D01*
X53000001Y-143404381D01*
X53095239Y-143452000D01*
X53142858Y-143499619D01*
X53190477Y-143594857D01*
X53190477Y-143690095D01*
X53142858Y-143832952D01*
X52571429Y-144404381D01*
X53190477Y-144404381D01*
X53809524Y-143404381D02*
X53904763Y-143404381D01*
X54000001Y-143452000D01*
X54047620Y-143499619D01*
X54095239Y-143594857D01*
X54142858Y-143785333D01*
X54142858Y-144023429D01*
X54095239Y-144213905D01*
X54047620Y-144309143D01*
X54000001Y-144356762D01*
X53904763Y-144404381D01*
X53809524Y-144404381D01*
X53714286Y-144356762D01*
X53666667Y-144309143D01*
X53619048Y-144213905D01*
X53571429Y-144023429D01*
X53571429Y-143785333D01*
X53619048Y-143594857D01*
X53666667Y-143499619D01*
X53714286Y-143452000D01*
X53809524Y-143404381D01*
X146190477Y-143404381D02*
X146190477Y-144118667D01*
X146142857Y-144261524D01*
X146047619Y-144356762D01*
X145904762Y-144404381D01*
X145809524Y-144404381D01*
X146619048Y-143499619D02*
X146666667Y-143452000D01*
X146761905Y-143404381D01*
X147000001Y-143404381D01*
X147095239Y-143452000D01*
X147142858Y-143499619D01*
X147190477Y-143594857D01*
X147190477Y-143690095D01*
X147142858Y-143832952D01*
X146571429Y-144404381D01*
X147190477Y-144404381D01*
X148142858Y-144404381D02*
X147571429Y-144404381D01*
X147857143Y-144404381D02*
X147857143Y-143404381D01*
X147761905Y-143547238D01*
X147666667Y-143642476D01*
X147571429Y-143690095D01*
D12*
X60169467Y-76363581D02*
X60169467Y-77077867D01*
X60121847Y-77220724D01*
X60026609Y-77315962D01*
X59883752Y-77363581D01*
X59788514Y-77363581D01*
X60598038Y-76458819D02*
X60645657Y-76411200D01*
X60740895Y-76363581D01*
X60978991Y-76363581D01*
X61074229Y-76411200D01*
X61121848Y-76458819D01*
X61169467Y-76554057D01*
X61169467Y-76649295D01*
X61121848Y-76792152D01*
X60550419Y-77363581D01*
X61169467Y-77363581D01*
X59386743Y-72719676D02*
X59434362Y-72767295D01*
X59481981Y-72910152D01*
X59481981Y-73005390D01*
X59434362Y-73148248D01*
X59339124Y-73243486D01*
X59243886Y-73291105D01*
X59053410Y-73338724D01*
X58910552Y-73338724D01*
X58720076Y-73291105D01*
X58624838Y-73243486D01*
X58529600Y-73148248D01*
X58481981Y-73005390D01*
X58481981Y-72910152D01*
X58529600Y-72767295D01*
X58577219Y-72719676D01*
X59481981Y-72148248D02*
X59434362Y-72243486D01*
X59386743Y-72291105D01*
X59291505Y-72338724D01*
X59005790Y-72338724D01*
X58910552Y-72291105D01*
X58862933Y-72243486D01*
X58815314Y-72148248D01*
X58815314Y-72005390D01*
X58862933Y-71910152D01*
X58910552Y-71862533D01*
X59005790Y-71814914D01*
X59291505Y-71814914D01*
X59386743Y-71862533D01*
X59434362Y-71910152D01*
X59481981Y-72005390D01*
X59481981Y-72148248D01*
X58815314Y-71386343D02*
X59481981Y-71386343D01*
X58910552Y-71386343D02*
X58862933Y-71338724D01*
X58815314Y-71243486D01*
X58815314Y-71100628D01*
X58862933Y-71005390D01*
X58958171Y-70957771D01*
X59481981Y-70957771D01*
X58815314Y-70481581D02*
X59481981Y-70481581D01*
X58910552Y-70481581D02*
X58862933Y-70433962D01*
X58815314Y-70338724D01*
X58815314Y-70195866D01*
X58862933Y-70100628D01*
X58958171Y-70053009D01*
X59481981Y-70053009D01*
X59577219Y-69814914D02*
X59577219Y-69053009D01*
X59386743Y-68243485D02*
X59434362Y-68291104D01*
X59481981Y-68433961D01*
X59481981Y-68529199D01*
X59434362Y-68672057D01*
X59339124Y-68767295D01*
X59243886Y-68814914D01*
X59053410Y-68862533D01*
X58910552Y-68862533D01*
X58720076Y-68814914D01*
X58624838Y-68767295D01*
X58529600Y-68672057D01*
X58481981Y-68529199D01*
X58481981Y-68433961D01*
X58529600Y-68291104D01*
X58577219Y-68243485D01*
X59481981Y-67672057D02*
X59434362Y-67767295D01*
X59386743Y-67814914D01*
X59291505Y-67862533D01*
X59005790Y-67862533D01*
X58910552Y-67814914D01*
X58862933Y-67767295D01*
X58815314Y-67672057D01*
X58815314Y-67529199D01*
X58862933Y-67433961D01*
X58910552Y-67386342D01*
X59005790Y-67338723D01*
X59291505Y-67338723D01*
X59386743Y-67386342D01*
X59434362Y-67433961D01*
X59481981Y-67529199D01*
X59481981Y-67672057D01*
X59481981Y-66481580D02*
X58958171Y-66481580D01*
X58862933Y-66529199D01*
X58815314Y-66624437D01*
X58815314Y-66814914D01*
X58862933Y-66910152D01*
X59434362Y-66481580D02*
X59481981Y-66576818D01*
X59481981Y-66814914D01*
X59434362Y-66910152D01*
X59339124Y-66957771D01*
X59243886Y-66957771D01*
X59148648Y-66910152D01*
X59101029Y-66814914D01*
X59101029Y-66576818D01*
X59053410Y-66481580D01*
X59481981Y-66100628D02*
X58815314Y-65576818D01*
X58815314Y-66100628D02*
X59481981Y-65576818D01*
X59481981Y-65195866D02*
X58815314Y-65195866D01*
X58481981Y-65195866D02*
X58529600Y-65243485D01*
X58577219Y-65195866D01*
X58529600Y-65148247D01*
X58481981Y-65195866D01*
X58577219Y-65195866D01*
X59481981Y-64291104D02*
X58958171Y-64291104D01*
X58862933Y-64338723D01*
X58815314Y-64433961D01*
X58815314Y-64624438D01*
X58862933Y-64719676D01*
X59434362Y-64291104D02*
X59481981Y-64386342D01*
X59481981Y-64624438D01*
X59434362Y-64719676D01*
X59339124Y-64767295D01*
X59243886Y-64767295D01*
X59148648Y-64719676D01*
X59101029Y-64624438D01*
X59101029Y-64386342D01*
X59053410Y-64291104D01*
X59481981Y-63672057D02*
X59434362Y-63767295D01*
X59339124Y-63814914D01*
X58481981Y-63814914D01*
X60067867Y-80681581D02*
X60067867Y-81395867D01*
X60020247Y-81538724D01*
X59925009Y-81633962D01*
X59782152Y-81681581D01*
X59686914Y-81681581D01*
X60591676Y-81681581D02*
X60782152Y-81681581D01*
X60877391Y-81633962D01*
X60925010Y-81586343D01*
X61020248Y-81443486D01*
X61067867Y-81253010D01*
X61067867Y-80872057D01*
X61020248Y-80776819D01*
X60972629Y-80729200D01*
X60877391Y-80681581D01*
X60686914Y-80681581D01*
X60591676Y-80729200D01*
X60544057Y-80776819D01*
X60496438Y-80872057D01*
X60496438Y-81110152D01*
X60544057Y-81205390D01*
X60591676Y-81253010D01*
X60686914Y-81300629D01*
X60877391Y-81300629D01*
X60972629Y-81253010D01*
X61020248Y-81205390D01*
X61067867Y-81110152D01*
X59907443Y-94716076D02*
X59955062Y-94763695D01*
X60002681Y-94906552D01*
X60002681Y-95001790D01*
X59955062Y-95144648D01*
X59859824Y-95239886D01*
X59764586Y-95287505D01*
X59574110Y-95335124D01*
X59431252Y-95335124D01*
X59240776Y-95287505D01*
X59145538Y-95239886D01*
X59050300Y-95144648D01*
X59002681Y-95001790D01*
X59002681Y-94906552D01*
X59050300Y-94763695D01*
X59097919Y-94716076D01*
X60002681Y-94144648D02*
X59955062Y-94239886D01*
X59907443Y-94287505D01*
X59812205Y-94335124D01*
X59526490Y-94335124D01*
X59431252Y-94287505D01*
X59383633Y-94239886D01*
X59336014Y-94144648D01*
X59336014Y-94001790D01*
X59383633Y-93906552D01*
X59431252Y-93858933D01*
X59526490Y-93811314D01*
X59812205Y-93811314D01*
X59907443Y-93858933D01*
X59955062Y-93906552D01*
X60002681Y-94001790D01*
X60002681Y-94144648D01*
X59336014Y-93382743D02*
X60002681Y-93382743D01*
X59431252Y-93382743D02*
X59383633Y-93335124D01*
X59336014Y-93239886D01*
X59336014Y-93097028D01*
X59383633Y-93001790D01*
X59478871Y-92954171D01*
X60002681Y-92954171D01*
X59336014Y-92477981D02*
X60002681Y-92477981D01*
X59431252Y-92477981D02*
X59383633Y-92430362D01*
X59336014Y-92335124D01*
X59336014Y-92192266D01*
X59383633Y-92097028D01*
X59478871Y-92049409D01*
X60002681Y-92049409D01*
X60097919Y-91811314D02*
X60097919Y-91049409D01*
X59907443Y-90239885D02*
X59955062Y-90287504D01*
X60002681Y-90430361D01*
X60002681Y-90525599D01*
X59955062Y-90668457D01*
X59859824Y-90763695D01*
X59764586Y-90811314D01*
X59574110Y-90858933D01*
X59431252Y-90858933D01*
X59240776Y-90811314D01*
X59145538Y-90763695D01*
X59050300Y-90668457D01*
X59002681Y-90525599D01*
X59002681Y-90430361D01*
X59050300Y-90287504D01*
X59097919Y-90239885D01*
X60002681Y-89668457D02*
X59955062Y-89763695D01*
X59907443Y-89811314D01*
X59812205Y-89858933D01*
X59526490Y-89858933D01*
X59431252Y-89811314D01*
X59383633Y-89763695D01*
X59336014Y-89668457D01*
X59336014Y-89525599D01*
X59383633Y-89430361D01*
X59431252Y-89382742D01*
X59526490Y-89335123D01*
X59812205Y-89335123D01*
X59907443Y-89382742D01*
X59955062Y-89430361D01*
X60002681Y-89525599D01*
X60002681Y-89668457D01*
X60002681Y-88477980D02*
X59478871Y-88477980D01*
X59383633Y-88525599D01*
X59336014Y-88620837D01*
X59336014Y-88811314D01*
X59383633Y-88906552D01*
X59955062Y-88477980D02*
X60002681Y-88573218D01*
X60002681Y-88811314D01*
X59955062Y-88906552D01*
X59859824Y-88954171D01*
X59764586Y-88954171D01*
X59669348Y-88906552D01*
X59621729Y-88811314D01*
X59621729Y-88573218D01*
X59574110Y-88477980D01*
X60002681Y-88097028D02*
X59336014Y-87573218D01*
X59336014Y-88097028D02*
X60002681Y-87573218D01*
X60002681Y-87192266D02*
X59336014Y-87192266D01*
X59002681Y-87192266D02*
X59050300Y-87239885D01*
X59097919Y-87192266D01*
X59050300Y-87144647D01*
X59002681Y-87192266D01*
X59097919Y-87192266D01*
X60002681Y-86287504D02*
X59478871Y-86287504D01*
X59383633Y-86335123D01*
X59336014Y-86430361D01*
X59336014Y-86620838D01*
X59383633Y-86716076D01*
X59955062Y-86287504D02*
X60002681Y-86382742D01*
X60002681Y-86620838D01*
X59955062Y-86716076D01*
X59859824Y-86763695D01*
X59764586Y-86763695D01*
X59669348Y-86716076D01*
X59621729Y-86620838D01*
X59621729Y-86382742D01*
X59574110Y-86287504D01*
X60002681Y-85668457D02*
X59955062Y-85763695D01*
X59859824Y-85811314D01*
X59002681Y-85811314D01*
D11*
X144199077Y-139888981D02*
X144199077Y-140603267D01*
X144151457Y-140746124D01*
X144056219Y-140841362D01*
X143913362Y-140888981D01*
X143818124Y-140888981D01*
X144627648Y-139984219D02*
X144675267Y-139936600D01*
X144770505Y-139888981D01*
X145008601Y-139888981D01*
X145103839Y-139936600D01*
X145151458Y-139984219D01*
X145199077Y-140079457D01*
X145199077Y-140174695D01*
X145151458Y-140317552D01*
X144580029Y-140888981D01*
X145199077Y-140888981D01*
X145580029Y-139984219D02*
X145627648Y-139936600D01*
X145722886Y-139888981D01*
X145960982Y-139888981D01*
X146056220Y-139936600D01*
X146103839Y-139984219D01*
X146151458Y-140079457D01*
X146151458Y-140174695D01*
X146103839Y-140317552D01*
X145532410Y-140888981D01*
X146151458Y-140888981D01*
X124537743Y-83472257D02*
X124585362Y-83519876D01*
X124632981Y-83662733D01*
X124632981Y-83757971D01*
X124585362Y-83900829D01*
X124490124Y-83996067D01*
X124394886Y-84043686D01*
X124204410Y-84091305D01*
X124061552Y-84091305D01*
X123871076Y-84043686D01*
X123775838Y-83996067D01*
X123680600Y-83900829D01*
X123632981Y-83757971D01*
X123632981Y-83662733D01*
X123680600Y-83519876D01*
X123728219Y-83472257D01*
X123966314Y-82615114D02*
X124632981Y-82615114D01*
X123585362Y-82853210D02*
X124299648Y-83091305D01*
X124299648Y-82472257D01*
X123632981Y-81662733D02*
X123632981Y-81853210D01*
X123680600Y-81948448D01*
X123728219Y-81996067D01*
X123871076Y-82091305D01*
X124061552Y-82138924D01*
X124442505Y-82138924D01*
X124537743Y-82091305D01*
X124585362Y-82043686D01*
X124632981Y-81948448D01*
X124632981Y-81757971D01*
X124585362Y-81662733D01*
X124537743Y-81615114D01*
X124442505Y-81567495D01*
X124204410Y-81567495D01*
X124109171Y-81615114D01*
X124061552Y-81662733D01*
X124013933Y-81757971D01*
X124013933Y-81948448D01*
X124061552Y-82043686D01*
X124109171Y-82091305D01*
X124204410Y-82138924D01*
X137980183Y-142693663D02*
X137932564Y-142741282D01*
X137789707Y-142788901D01*
X137694469Y-142788901D01*
X137551611Y-142741282D01*
X137456373Y-142646044D01*
X137408754Y-142550806D01*
X137361135Y-142360330D01*
X137361135Y-142217472D01*
X137408754Y-142026996D01*
X137456373Y-141931758D01*
X137551611Y-141836520D01*
X137694469Y-141788901D01*
X137789707Y-141788901D01*
X137932564Y-141836520D01*
X137980183Y-141884139D01*
X138837326Y-142122234D02*
X138837326Y-142788901D01*
X138599230Y-141741282D02*
X138361135Y-142455568D01*
X138980183Y-142455568D01*
X139265897Y-141788901D02*
X139932564Y-141788901D01*
X139503992Y-142788901D01*
X140633723Y-115034297D02*
X140681342Y-115081916D01*
X140728961Y-115224773D01*
X140728961Y-115320011D01*
X140681342Y-115462869D01*
X140586104Y-115558107D01*
X140490866Y-115605726D01*
X140300390Y-115653345D01*
X140157532Y-115653345D01*
X139967056Y-115605726D01*
X139871818Y-115558107D01*
X139776580Y-115462869D01*
X139728961Y-115320011D01*
X139728961Y-115224773D01*
X139776580Y-115081916D01*
X139824199Y-115034297D01*
X140062294Y-114177154D02*
X140728961Y-114177154D01*
X139681342Y-114415250D02*
X140395628Y-114653345D01*
X140395628Y-114034297D01*
X140157532Y-113510488D02*
X140109913Y-113605726D01*
X140062294Y-113653345D01*
X139967056Y-113700964D01*
X139919437Y-113700964D01*
X139824199Y-113653345D01*
X139776580Y-113605726D01*
X139728961Y-113510488D01*
X139728961Y-113320011D01*
X139776580Y-113224773D01*
X139824199Y-113177154D01*
X139919437Y-113129535D01*
X139967056Y-113129535D01*
X140062294Y-113177154D01*
X140109913Y-113224773D01*
X140157532Y-113320011D01*
X140157532Y-113510488D01*
X140205151Y-113605726D01*
X140252770Y-113653345D01*
X140348009Y-113700964D01*
X140538485Y-113700964D01*
X140633723Y-113653345D01*
X140681342Y-113605726D01*
X140728961Y-113510488D01*
X140728961Y-113320011D01*
X140681342Y-113224773D01*
X140633723Y-113177154D01*
X140538485Y-113129535D01*
X140348009Y-113129535D01*
X140252770Y-113177154D01*
X140205151Y-113224773D01*
X140157532Y-113320011D01*
X137647467Y-127735081D02*
X137647467Y-128449367D01*
X137599847Y-128592224D01*
X137504609Y-128687462D01*
X137361752Y-128735081D01*
X137266514Y-128735081D01*
X138123657Y-128735081D02*
X138123657Y-127735081D01*
X138504610Y-127735081D01*
X138599848Y-127782700D01*
X138647467Y-127830319D01*
X138695086Y-127925557D01*
X138695086Y-128068414D01*
X138647467Y-128163652D01*
X138599848Y-128211271D01*
X138504610Y-128258890D01*
X138123657Y-128258890D01*
X139552229Y-128068414D02*
X139552229Y-128735081D01*
X139314133Y-127687462D02*
X139076038Y-128401748D01*
X139695086Y-128401748D01*
X141221981Y-122046905D02*
X142031505Y-122046905D01*
X142126743Y-121999286D01*
X142174362Y-121951667D01*
X142221981Y-121856429D01*
X142221981Y-121665952D01*
X142174362Y-121570714D01*
X142126743Y-121523095D01*
X142031505Y-121475476D01*
X141221981Y-121475476D01*
X142221981Y-120951667D02*
X142221981Y-120761191D01*
X142174362Y-120665952D01*
X142126743Y-120618333D01*
X141983886Y-120523095D01*
X141793410Y-120475476D01*
X141412457Y-120475476D01*
X141317219Y-120523095D01*
X141269600Y-120570714D01*
X141221981Y-120665952D01*
X141221981Y-120856429D01*
X141269600Y-120951667D01*
X141317219Y-120999286D01*
X141412457Y-121046905D01*
X141650552Y-121046905D01*
X141745790Y-120999286D01*
X141793410Y-120951667D01*
X141841029Y-120856429D01*
X141841029Y-120665952D01*
X141793410Y-120570714D01*
X141745790Y-120523095D01*
X141650552Y-120475476D01*
X55292667Y-139196381D02*
X55292667Y-139910667D01*
X55245047Y-140053524D01*
X55149809Y-140148762D01*
X55006952Y-140196381D01*
X54911714Y-140196381D01*
X56292667Y-140196381D02*
X55721238Y-140196381D01*
X56006952Y-140196381D02*
X56006952Y-139196381D01*
X55911714Y-139339238D01*
X55816476Y-139434476D01*
X55721238Y-139482095D01*
X59666667Y-98404381D02*
X59666667Y-99118667D01*
X59619047Y-99261524D01*
X59523809Y-99356762D01*
X59380952Y-99404381D01*
X59285714Y-99404381D01*
X60285714Y-98832952D02*
X60190476Y-98785333D01*
X60142857Y-98737714D01*
X60095238Y-98642476D01*
X60095238Y-98594857D01*
X60142857Y-98499619D01*
X60190476Y-98452000D01*
X60285714Y-98404381D01*
X60476191Y-98404381D01*
X60571429Y-98452000D01*
X60619048Y-98499619D01*
X60666667Y-98594857D01*
X60666667Y-98642476D01*
X60619048Y-98737714D01*
X60571429Y-98785333D01*
X60476191Y-98832952D01*
X60285714Y-98832952D01*
X60190476Y-98880571D01*
X60142857Y-98928190D01*
X60095238Y-99023429D01*
X60095238Y-99213905D01*
X60142857Y-99309143D01*
X60190476Y-99356762D01*
X60285714Y-99404381D01*
X60476191Y-99404381D01*
X60571429Y-99356762D01*
X60619048Y-99309143D01*
X60666667Y-99213905D01*
X60666667Y-99023429D01*
X60619048Y-98928190D01*
X60571429Y-98880571D01*
X60476191Y-98832952D01*
X59190477Y-142404381D02*
X59190477Y-143118667D01*
X59142857Y-143261524D01*
X59047619Y-143356762D01*
X58904762Y-143404381D01*
X58809524Y-143404381D01*
X60190477Y-143404381D02*
X59619048Y-143404381D01*
X59904762Y-143404381D02*
X59904762Y-142404381D01*
X59809524Y-142547238D01*
X59714286Y-142642476D01*
X59619048Y-142690095D01*
X60809524Y-142404381D02*
X60904763Y-142404381D01*
X61000001Y-142452000D01*
X61047620Y-142499619D01*
X61095239Y-142594857D01*
X61142858Y-142785333D01*
X61142858Y-143023429D01*
X61095239Y-143213905D01*
X61047620Y-143309143D01*
X61000001Y-143356762D01*
X60904763Y-143404381D01*
X60809524Y-143404381D01*
X60714286Y-143356762D01*
X60666667Y-143309143D01*
X60619048Y-143213905D01*
X60571429Y-143023429D01*
X60571429Y-142785333D01*
X60619048Y-142594857D01*
X60666667Y-142499619D01*
X60714286Y-142452000D01*
X60809524Y-142404381D01*
X136190477Y-98404381D02*
X136190477Y-99118667D01*
X136142857Y-99261524D01*
X136047619Y-99356762D01*
X135904762Y-99404381D01*
X135809524Y-99404381D01*
X137190477Y-99404381D02*
X136619048Y-99404381D01*
X136904762Y-99404381D02*
X136904762Y-98404381D01*
X136809524Y-98547238D01*
X136714286Y-98642476D01*
X136619048Y-98690095D01*
X138142858Y-99404381D02*
X137571429Y-99404381D01*
X137857143Y-99404381D02*
X137857143Y-98404381D01*
X137761905Y-98547238D01*
X137666667Y-98642476D01*
X137571429Y-98690095D01*
X133107181Y-146846823D02*
X133821467Y-146846823D01*
X133964324Y-146894443D01*
X134059562Y-146989681D01*
X134107181Y-147132538D01*
X134107181Y-147227776D01*
X134107181Y-145846823D02*
X134107181Y-146418252D01*
X134107181Y-146132538D02*
X133107181Y-146132538D01*
X133250038Y-146227776D01*
X133345276Y-146323014D01*
X133392895Y-146418252D01*
X133202419Y-145465871D02*
X133154800Y-145418252D01*
X133107181Y-145323014D01*
X133107181Y-145084918D01*
X133154800Y-144989680D01*
X133202419Y-144942061D01*
X133297657Y-144894442D01*
X133392895Y-144894442D01*
X133535752Y-144942061D01*
X134107181Y-145513490D01*
X134107181Y-144894442D01*
X140646423Y-112077737D02*
X140694042Y-112125356D01*
X140741661Y-112268213D01*
X140741661Y-112363451D01*
X140694042Y-112506309D01*
X140598804Y-112601547D01*
X140503566Y-112649166D01*
X140313090Y-112696785D01*
X140170232Y-112696785D01*
X139979756Y-112649166D01*
X139884518Y-112601547D01*
X139789280Y-112506309D01*
X139741661Y-112363451D01*
X139741661Y-112268213D01*
X139789280Y-112125356D01*
X139836899Y-112077737D01*
X139741661Y-111744404D02*
X139741661Y-111125356D01*
X140122613Y-111458690D01*
X140122613Y-111315832D01*
X140170232Y-111220594D01*
X140217851Y-111172975D01*
X140313090Y-111125356D01*
X140551185Y-111125356D01*
X140646423Y-111172975D01*
X140694042Y-111220594D01*
X140741661Y-111315832D01*
X140741661Y-111601547D01*
X140694042Y-111696785D01*
X140646423Y-111744404D01*
X140170232Y-110553928D02*
X140122613Y-110649166D01*
X140074994Y-110696785D01*
X139979756Y-110744404D01*
X139932137Y-110744404D01*
X139836899Y-110696785D01*
X139789280Y-110649166D01*
X139741661Y-110553928D01*
X139741661Y-110363451D01*
X139789280Y-110268213D01*
X139836899Y-110220594D01*
X139932137Y-110172975D01*
X139979756Y-110172975D01*
X140074994Y-110220594D01*
X140122613Y-110268213D01*
X140170232Y-110363451D01*
X140170232Y-110553928D01*
X140217851Y-110649166D01*
X140265470Y-110696785D01*
X140360709Y-110744404D01*
X140551185Y-110744404D01*
X140646423Y-110696785D01*
X140694042Y-110649166D01*
X140741661Y-110553928D01*
X140741661Y-110363451D01*
X140694042Y-110268213D01*
X140646423Y-110220594D01*
X140551185Y-110172975D01*
X140360709Y-110172975D01*
X140265470Y-110220594D01*
X140217851Y-110268213D01*
X140170232Y-110363451D01*
X131583181Y-140522223D02*
X132297467Y-140522223D01*
X132440324Y-140569843D01*
X132535562Y-140665081D01*
X132583181Y-140807938D01*
X132583181Y-140903176D01*
X132583181Y-139522223D02*
X132583181Y-140093652D01*
X132583181Y-139807938D02*
X131583181Y-139807938D01*
X131726038Y-139903176D01*
X131821276Y-139998414D01*
X131868895Y-140093652D01*
X131583181Y-139188890D02*
X131583181Y-138569842D01*
X131964133Y-138903176D01*
X131964133Y-138760318D01*
X132011752Y-138665080D01*
X132059371Y-138617461D01*
X132154610Y-138569842D01*
X132392705Y-138569842D01*
X132487943Y-138617461D01*
X132535562Y-138665080D01*
X132583181Y-138760318D01*
X132583181Y-139046033D01*
X132535562Y-139141271D01*
X132487943Y-139188890D01*
M02*
