M48
;DRILL file {KiCad 4.0.7} date 10/02/18 11:10:53
;FORMAT={-:-/ absolute / metric / decimal}
FMAT,2
METRIC,TZ
T1C0.400
T2C0.762
T3C0.800
T4C0.900
T5C1.000
T6C1.200
T7C1.520
T8C3.048
%
G90
G05
M71
T1
X79.502Y-133.604
X85.039Y-120.167
X86.279Y-121.79
X140.31Y-97.333
X147.472Y-101.752
T2
X63.101Y-130.175
X63.101Y-145.415
X65.641Y-130.175
X65.641Y-145.415
X68.181Y-130.175
X68.181Y-145.415
X70.721Y-130.175
X70.721Y-145.415
X73.261Y-130.175
X73.261Y-145.415
X75.801Y-130.175
X75.801Y-145.415
X78.341Y-130.175
X78.341Y-145.415
X80.881Y-130.175
X80.881Y-145.415
X83.421Y-130.175
X83.421Y-145.415
X85.961Y-130.175
X85.961Y-145.415
X88.501Y-130.175
X88.501Y-145.415
X91.041Y-130.175
X91.041Y-145.415
X93.581Y-130.175
X93.581Y-145.415
X96.121Y-130.175
X96.121Y-145.415
X98.661Y-130.175
X98.661Y-145.415
X101.201Y-130.175
X101.201Y-145.415
X103.741Y-130.175
X103.741Y-145.415
X106.281Y-130.175
X106.281Y-145.415
X108.821Y-130.175
X108.821Y-145.415
X111.361Y-130.175
X111.361Y-145.415
T3
X54.61Y-99.517
X56.896Y-105.41
X56.896Y-110.29
X61.803Y-114.833
X61.915Y-118.074
X62.23Y-99.517
X62.524Y-102.87
X65.024Y-102.87
X65.176Y-54.966
X65.278Y-84.607
X65.329Y-87.452
X65.532Y-71.577
X65.634Y-68.936
X69.423Y-114.833
X69.535Y-118.074
X71.882Y-108.966
X71.882Y-112.268
X72.176Y-105.41
X72.39Y-102.108
X72.504Y-98.755
X72.796Y-54.966
X72.898Y-84.607
X72.949Y-87.452
X73.152Y-71.577
X73.254Y-68.936
X73.66Y-90.932
X73.7Y-93.98
X74.168Y-138.938
X74.168Y-141.438
X74.676Y-105.41
X75.946Y-52.959
X75.946Y-60.579
X75.946Y-84.836
X75.946Y-87.336
X76.16Y-90.932
X76.2Y-93.98
X76.556Y-74.32
X76.708Y-70.968
X77.47Y-138.938
X77.47Y-141.438
X78.867Y-57.302
X79.096Y-54.458
X79.248Y-83.058
X79.248Y-85.598
X79.248Y-88.138
X79.248Y-90.678
X79.248Y-93.98
X79.502Y-108.966
X79.502Y-112.268
X80.01Y-102.108
X80.124Y-98.755
X80.518Y-138.938
X80.518Y-141.438
X81.534Y-78.13
X82.042Y-108.966
X82.042Y-112.268
X82.563Y-98.679
X82.715Y-102.032
X83.21Y-60.554
X83.21Y-68.174
X84.034Y-78.13
X84.176Y-74.32
X84.328Y-70.968
X86.233Y-60.579
X86.233Y-68.199
X86.487Y-57.302
X86.716Y-54.458
X86.868Y-83.058
X86.868Y-85.598
X86.868Y-88.138
X86.868Y-90.678
X86.868Y-93.98
X88.392Y-119.38
X88.392Y-122.428
X88.646Y-105.41
X89.408Y-93.98
X89.621Y-57.445
X89.662Y-108.966
X89.662Y-112.268
X89.732Y-54.178
X90.079Y-77.841
X90.17Y-88.138
X90.17Y-90.638
X90.183Y-98.679
X90.205Y-74.209
X90.21Y-84.582
X90.22Y-81.402
X90.317Y-70.744
X90.335Y-102.032
X90.54Y-65.771
X90.581Y-62.306
X91.146Y-105.41
X92.121Y-57.445
X92.232Y-54.178
X92.579Y-77.841
X92.705Y-74.209
X92.71Y-84.582
X92.71Y-109.982
X92.71Y-112.482
X92.72Y-81.402
X92.75Y-116.078
X92.817Y-70.744
X93.04Y-65.771
X93.081Y-62.306
X93.218Y-99.354
X93.218Y-101.854
X94.996Y-89.408
X95.25Y-116.078
X95.758Y-85.09
X95.758Y-105.156
X95.758Y-107.696
X95.758Y-110.236
X95.758Y-112.776
X95.91Y-81.727
X96.012Y-119.38
X96.012Y-122.428
X96.149Y-65.827
X96.266Y-98.298
X96.393Y-70.521
X96.393Y-73.061
X96.393Y-75.601
X96.393Y-78.141
X96.896Y-54.539
X96.896Y-57.079
X96.896Y-59.619
X96.896Y-62.159
X97.028Y-93.98
X98.298Y-116.332
X98.552Y-119.38
X98.552Y-122.174
X100.203Y-94.107
X100.33Y-101.6
X102.616Y-89.408
X102.703Y-94.107
X102.83Y-101.6
X103.378Y-85.09
X103.378Y-105.156
X103.378Y-107.696
X103.378Y-110.236
X103.378Y-112.776
X103.53Y-81.727
X103.769Y-65.827
X103.886Y-98.298
X104.013Y-70.521
X104.013Y-73.061
X104.013Y-75.601
X104.013Y-78.141
X104.516Y-54.539
X104.516Y-57.079
X104.516Y-59.619
X104.516Y-62.159
X105.664Y-82.55
X105.918Y-116.332
X106.172Y-119.38
X106.172Y-122.174
X106.507Y-65.771
X106.68Y-86.36
X106.68Y-88.9
X106.68Y-91.44
X106.68Y-93.98
X106.807Y-105.831
X106.807Y-108.331
X107.188Y-69.382
X107.188Y-71.882
X107.188Y-75.438
X107.188Y-77.938
X107.696Y-53.126
X107.696Y-55.626
X107.696Y-59.984
X107.696Y-62.484
X109.26Y-97.282
X110.236Y-70.104
X110.236Y-77.724
X111.506Y-54.61
X111.506Y-62.23
X111.506Y-105.664
X111.506Y-108.204
X111.506Y-110.744
X111.506Y-113.284
X111.506Y-115.824
X111.506Y-118.364
X111.506Y-120.904
X111.76Y-97.282
X113.284Y-82.55
X113.792Y-71.882
X113.792Y-79.502
X114.046Y-69.088
X114.127Y-65.771
X114.3Y-86.36
X114.3Y-88.9
X114.3Y-91.44
X114.3Y-93.98
X114.721Y-102.108
X114.808Y-54.864
X114.808Y-62.484
X116.546Y-69.088
X117.221Y-102.108
X117.348Y-81.574
X117.348Y-84.074
X117.602Y-74.676
X117.602Y-77.176
X118.11Y-86.868
X118.11Y-94.488
X118.618Y-56.896
X118.618Y-59.396
X119.126Y-105.664
X119.126Y-108.204
X119.126Y-110.744
X119.126Y-113.284
X119.126Y-115.824
X119.126Y-118.364
X119.126Y-120.904
X119.634Y-63.246
X119.634Y-65.786
X119.634Y-68.326
X119.634Y-70.866
X121.666Y-86.868
X121.666Y-94.488
X122.034Y-81.663
X122.034Y-84.163
X122.174Y-56.936
X122.174Y-59.436
X122.174Y-74.716
X122.174Y-77.216
X122.555Y-105.918
X122.555Y-108.418
X122.809Y-112.395
X122.809Y-114.895
X122.936Y-118.364
X122.936Y-120.864
X125.984Y-56.134
X125.984Y-59.436
X127.254Y-63.246
X127.254Y-65.786
X127.254Y-68.326
X127.254Y-70.866
X128.714Y-114.3
X128.778Y-123.444
X128.841Y-105.029
X129.921Y-119.126
X130.048Y-63.246
X130.048Y-66.802
X130.175Y-109.791
X130.365Y-100.584
X132.461Y-119.126
X132.715Y-109.791
X132.905Y-100.584
X133.604Y-56.134
X133.604Y-59.436
X134.366Y-141.986
X134.366Y-144.486
X135.001Y-119.126
X135.255Y-109.791
X135.445Y-100.584
X136.334Y-114.3
X136.398Y-123.444
X136.462Y-105.029
X137.668Y-63.246
X137.668Y-66.802
X138.024Y-73.762
X138.176Y-76.962
X138.379Y-70.917
X138.811Y-137.795
X138.811Y-140.295
X142.646Y-80.416
X143.053Y-62.179
X143.053Y-66.345
X143.764Y-84.582
X143.764Y-87.082
X145.146Y-80.416
X145.553Y-62.179
X145.553Y-66.345
X145.644Y-73.762
X145.796Y-76.962
X145.999Y-70.917
T4
X62.278Y-68.224
X62.278Y-70.764
X62.545Y-89.916
X62.545Y-92.456
T5
X55.626Y-119.634
X55.626Y-122.174
X55.626Y-124.714
X55.626Y-127.254
X55.626Y-129.794
X55.626Y-132.334
X55.626Y-134.874
X55.626Y-137.414
X74.239Y-121.763
X76.779Y-121.763
X77.343Y-67.627
X79.319Y-121.763
X79.578Y-61.303
X79.578Y-63.843
X79.883Y-67.627
X81.859Y-121.763
X82.423Y-115.697
X84.963Y-115.697
X87.503Y-115.697
X134.747Y-132.334
X134.747Y-134.874
X134.747Y-137.414
X139.192Y-131.572
X139.192Y-134.112
X142.494Y-95.656
X142.494Y-98.196
X142.494Y-100.736
X142.494Y-103.276
X142.494Y-105.816
X142.494Y-114.757
X142.494Y-117.297
X142.494Y-119.837
X142.494Y-122.377
X142.494Y-124.917
X145.034Y-95.656
X145.034Y-98.196
X145.034Y-100.736
X145.034Y-103.276
X145.034Y-105.816
X145.034Y-114.757
X145.034Y-117.297
X145.034Y-119.837
X145.034Y-122.377
X145.034Y-124.917
T6
X66.358Y-64.453
X66.396Y-59.233
X67.17Y-75.59
X67.259Y-80.289
X71.247Y-64.643
X71.374Y-59.436
X72.39Y-80.315
X72.542Y-75.286
X75.882Y-64.008
X77.47Y-78.969
T7
X145.39Y-131.623
X145.39Y-136.703
T8
X55.Y-55.
X55.Y-145.
X145.Y-55.
X145.Y-145.
T0
M30
