M48
;DRILL file {KiCad 4.0.7} date 10/10/19 17:56:38
;FORMAT={-:-/ absolute / metric / decimal}
FMAT,2
METRIC,TZ
T1C0.400
T2C0.600
T3C0.762
T4C0.800
T5C0.900
T6C1.000
T7C1.500
T8C1.520
T9C3.048
%
G90
G05
M71
T1
X50.46Y-69.24
X50.46Y-71.526
X50.587Y-64.033
X50.587Y-76.479
X50.587Y-78.638
X50.587Y-87.909
X50.714Y-66.573
X50.714Y-73.685
X50.714Y-83.845
X50.841Y-58.318
X50.841Y-60.35
X50.841Y-81.432
X50.968Y-91.465
X50.968Y-95.656
X51.552Y-97.729
X51.603Y-57.175
X52.847Y-99.024
X53.721Y-100.584
X53.762Y-57.048
X55.118Y-101.473
X55.921Y-56.794
X56.642Y-100.965
X56.81Y-55.27
X56.937Y-52.603
X57.658Y-99.568
X57.699Y-51.079
X58.674Y-98.806
X60.833Y-98.933
X60.874Y-50.571
X61.163Y-130.645
X61.214Y-120.891
X62.395Y-122.187
X63.541Y-50.571
X64.008Y-99.06
X65.827Y-50.698
X66.167Y-98.933
X67.183Y-95.123
X67.224Y-51.46
X67.224Y-53.492
X67.732Y-55.27
X67.986Y-57.302
X68.453Y-98.806
X68.494Y-59.08
X68.732Y-97.193
X68.748Y-50.571
X68.748Y-60.604
X69.764Y-61.62
X70.434Y-98.793
X70.98Y-97.193
X71.542Y-63.398
X71.796Y-50.571
X72.2Y-98.768
X72.812Y-64.414
X73.571Y-97.193
X74.105Y-98.793
X74.59Y-65.43
X74.717Y-50.952
X75.286Y-129.756
X75.801Y-53.393
X76.238Y-97.231
X76.467Y-98.755
X77.8Y-82.182
X77.925Y-93.18
X77.953Y-79.705
X77.991Y-74.905
X78.019Y-50.698
X78.029Y-76.886
X78.12Y-91.755
X78.204Y-88.542
X78.232Y-90.079
X78.273Y-84.607
X78.344Y-83.596
X78.344Y-85.524
X78.372Y-98.793
X78.428Y-87.005
X78.654Y-67.208
X78.715Y-97.346
X78.964Y-51.552
X79.007Y-128.892
X79.667Y-72.962
X80.162Y-97.269
X80.467Y-83.513
X80.607Y-85.189
X80.696Y-98.755
X80.886Y-87.145
X80.97Y-68.928
X80.97Y-88.43
X81.054Y-89.799
X81.115Y-95.86
X81.153Y-70.79
X81.153Y-94.412
X81.166Y-93.068
X81.191Y-96.888
X81.222Y-91.783
X81.575Y-50.825
X81.648Y-82.677
X82.525Y-81.686
X82.715Y-96.965
X82.753Y-98.984
X83.325Y-79.667
X83.477Y-107.899
X83.934Y-77.838
X83.972Y-74.447
X84.087Y-72.466
X84.125Y-76.352
X84.125Y-106.299
X84.163Y-96.888
X84.239Y-70.294
X84.43Y-104.432
X84.506Y-99.593
X85.039Y-100.889
X85.103Y-97.117
X85.458Y-102.603
X86.385Y-97.93
X86.462Y-128.092
X86.563Y-105.181
X86.995Y-102.997
X87.643Y-98.717
X87.719Y-127.343
X87.798Y-50.825
X88.824Y-100.584
X88.875Y-104.267
X89.916Y-126.517
X90.106Y-101.892
X90.973Y-50.825
X91.173Y-104.127
X92.126Y-101.689
X93.332Y-125.806
X93.64Y-50.825
X94.412Y-104.165
X94.488Y-101.879
X96.622Y-101.917
X96.942Y-50.825
X97.434Y-126.009
X97.612Y-104.318
X98.45Y-102.07
X98.831Y-78.562
X100.546Y-104.318
X100.752Y-50.571
X100.927Y-102.032
X103.175Y-101.956
X103.713Y-100.863
X104.026Y-132.347
X104.203Y-104.242
X104.579Y-65.91
X104.719Y-81.529
X104.816Y-84.988
X104.851Y-96.431
X104.887Y-78.456
X104.887Y-79.853
X104.927Y-98.184
X104.943Y-92.37
X104.943Y-99.494
X104.999Y-87.452
X104.999Y-89.743
X105.156Y-94.107
X105.418Y-66.86
X105.524Y-131.877
X105.689Y-104.013
X105.837Y-76.025
X105.867Y-66.078
X106.032Y-64.237
X106.086Y-111.15
X106.086Y-112.42
X106.172Y-68.062
X106.34Y-109.626
X106.535Y-74.767
X106.594Y-108.356
X106.721Y-50.571
X106.843Y-98.125
X106.848Y-81.686
X106.848Y-103.784
X106.848Y-105.816
X106.898Y-77.729
X106.898Y-79.461
X106.898Y-94.158
X106.898Y-96.169
X106.921Y-61.303
X106.975Y-85.877
X106.985Y-63.284
X107.117Y-92.008
X107.122Y-100.305
X107.201Y-89.94
X107.229Y-87.909
X107.234Y-70.632
X107.318Y-69.403
X107.391Y-59.576
X107.401Y-72.951
X107.671Y-118.656
X109.022Y-75.997
X109.271Y-66.446
X109.296Y-73.596
X109.334Y-64.287
X109.436Y-69.736
X109.55Y-71.361
X109.639Y-68.567
X109.779Y-50.736
X109.944Y-62.954
X110.312Y-118.529
X110.668Y-61.836
X110.871Y-126.035
X111.366Y-68.707
X111.569Y-60.376
X111.709Y-126.822
X111.874Y-59.042
X112.357Y-63.779
X112.624Y-62.484
X112.738Y-50.863
X112.852Y-55.664
X112.89Y-60.427
X112.928Y-53.683
X112.966Y-58.064
X113.157Y-65.824
X113.525Y-68.847
X113.579Y-93.853
X114.643Y-68.567
X116.091Y-50.825
X116.246Y-125.933
X118.11Y-50.825
X120.282Y-50.711
X123.231Y-50.698
X126.66Y-50.825
X129.454Y-50.825
X132.248Y-50.825
X137.074Y-50.825
X137.922Y-119.436
X139.995Y-51.841
X141.138Y-53.873
X141.138Y-57.048
X142.047Y-125.618
X142.522Y-120.757
X142.723Y-57.699
X144.186Y-57.937
X145.71Y-58.318
X147.234Y-58.572
X147.691Y-103.434
X148.173Y-97.17
X148.377Y-60.477
X148.377Y-62.763
X148.504Y-77.749
X148.631Y-67.081
X148.631Y-70.383
X148.631Y-75.717
X148.758Y-72.796
T2
X70.396Y-101.661
X71.666Y-100.391
X71.666Y-102.931
T3
X69.342Y-123.19
X69.342Y-138.43
X71.882Y-123.19
X71.882Y-138.43
X74.422Y-123.19
X74.422Y-138.43
X76.962Y-123.19
X76.962Y-138.43
X79.502Y-123.19
X79.502Y-138.43
X82.042Y-123.19
X82.042Y-138.43
X84.582Y-123.19
X84.582Y-138.43
X87.122Y-123.19
X87.122Y-138.43
X89.662Y-123.19
X89.662Y-138.43
X92.202Y-123.19
X92.202Y-138.43
X94.742Y-123.19
X94.742Y-138.43
X97.282Y-123.19
X97.282Y-138.43
X99.822Y-123.19
X99.822Y-138.43
X102.362Y-123.19
X102.362Y-138.43
X104.902Y-123.19
X104.902Y-138.43
X107.442Y-123.19
X107.442Y-138.43
X109.982Y-123.19
X109.982Y-138.43
X112.522Y-123.19
X112.522Y-138.43
X115.062Y-123.19
X115.062Y-138.43
X117.602Y-123.19
X117.602Y-138.43
T4
X52.875Y-140.513
X53.127Y-83.972
X53.127Y-91.592
X53.442Y-96.561
X53.571Y-66.383
X55.375Y-140.513
X55.626Y-99.568
X55.626Y-107.188
X55.942Y-96.561
X57.18Y-82.753
X57.318Y-85.674
X57.318Y-93.294
X58.704Y-96.601
X58.989Y-109.637
X59.68Y-82.753
X59.858Y-85.674
X59.858Y-93.294
X61.191Y-66.383
X62.398Y-85.674
X62.398Y-93.294
X63.414Y-66.396
X63.779Y-112.893
X63.972Y-82.652
X64.938Y-85.674
X64.938Y-93.294
X66.091Y-106.058
X66.279Y-112.893
X66.324Y-96.601
X66.472Y-82.652
X66.609Y-109.637
X68.783Y-93.004
X68.783Y-95.504
X69.637Y-82.933
X69.637Y-85.433
X69.804Y-89.941
X71.034Y-66.396
X71.079Y-110.838
X71.079Y-115.718
X71.973Y-93.152
X72.304Y-89.941
X72.812Y-72.796
X72.812Y-80.416
X73.711Y-106.058
X76.025Y-95.806
X76.025Y-103.426
X76.114Y-72.542
X76.114Y-80.162
X76.317Y-87.732
X76.622Y-58.826
X76.622Y-66.446
X76.748Y-106.68
X79.172Y-117.897
X79.238Y-95.806
X79.238Y-103.426
X79.248Y-106.68
X79.479Y-69.113
X79.479Y-76.733
X79.593Y-93.152
X79.822Y-79.555
X79.822Y-82.055
X80.178Y-58.826
X80.178Y-66.446
X80.264Y-143.764
X80.264Y-146.264
X82.718Y-69.177
X82.718Y-76.797
X83.937Y-87.732
X84.496Y-61.112
X84.536Y-55.016
X84.536Y-58.318
X84.536Y-64.16
X86.106Y-143.764
X86.106Y-146.264
X86.375Y-77.114
X86.375Y-84.734
X86.655Y-71.058
X86.655Y-73.558
X86.792Y-117.897
X86.985Y-87.82
X86.996Y-61.112
X87.036Y-55.016
X87.036Y-58.318
X87.036Y-64.16
X87.122Y-106.807
X87.122Y-114.427
X89.423Y-91.135
X89.485Y-87.82
X89.512Y-77.241
X89.512Y-84.861
X89.88Y-67.285
X90.297Y-106.807
X90.297Y-114.427
X90.338Y-55.524
X90.338Y-58.064
X90.338Y-60.604
X90.338Y-63.144
X90.505Y-73.431
X91.608Y-70.32
X92.052Y-77.241
X92.052Y-84.861
X93.005Y-73.431
X94.251Y-87.782
X94.592Y-77.241
X94.592Y-84.861
X95.839Y-73.609
X96.751Y-87.782
X97.043Y-91.135
X97.132Y-77.241
X97.132Y-84.861
X97.5Y-67.285
X97.958Y-55.524
X97.958Y-58.064
X97.958Y-60.604
X97.958Y-63.144
X98.339Y-73.609
X99.228Y-70.32
X99.799Y-88.417
X99.799Y-90.917
X100.Y-143.84
X100.Y-146.34
X101.133Y-82.321
X101.133Y-85.496
X101.196Y-61.189
X101.196Y-63.689
X101.26Y-55.31
X101.26Y-57.81
X101.26Y-79.146
X102.276Y-98.704
X102.949Y-67.818
X102.949Y-75.438
X104.816Y-54.762
X104.816Y-62.382
X107.747Y-57.379
X107.747Y-64.999
X108.166Y-54.369
X108.753Y-82.321
X108.753Y-85.496
X108.88Y-79.146
X109.896Y-98.704
X110.277Y-101.752
X110.277Y-109.372
X110.666Y-54.369
X110.896Y-57.442
X110.896Y-65.062
X111.658Y-77.277
X111.658Y-84.897
X111.928Y-87.02
X111.928Y-94.64
X111.989Y-67.221
X111.989Y-74.841
X113.198Y-100.649
X113.198Y-103.149
X113.833Y-64.16
X114.595Y-53.873
X114.595Y-61.493
X115.075Y-67.196
X115.075Y-74.816
X115.23Y-87.02
X115.23Y-94.64
X115.24Y-108.077
X115.24Y-115.697
X115.316Y-77.383
X115.316Y-79.883
X115.928Y-101.689
X115.928Y-104.927
X116.063Y-84.239
X117.78Y-108.077
X117.78Y-115.697
X117.897Y-53.873
X117.897Y-61.493
X118.151Y-73.812
X118.151Y-81.432
X118.532Y-87.02
X118.532Y-94.64
X118.563Y-84.239
X119.04Y-68.518
X119.04Y-71.018
X120.32Y-108.077
X120.32Y-115.697
X120.945Y-53.873
X120.945Y-61.493
X121.326Y-74.066
X121.326Y-81.686
X121.453Y-64.16
X121.656Y-85.192
X121.656Y-92.812
X122.342Y-68.478
X122.342Y-70.978
X122.758Y-131.14
X122.86Y-108.077
X122.86Y-115.697
X123.052Y-118.3
X123.548Y-101.689
X123.548Y-104.927
X123.866Y-74.066
X123.866Y-81.686
X124.196Y-85.192
X124.196Y-92.812
X125.4Y-108.077
X125.4Y-115.697
X125.552Y-118.3
X125.644Y-68.518
X125.644Y-71.018
X126.187Y-97.615
X126.187Y-105.235
X126.406Y-74.066
X126.406Y-81.686
X126.736Y-85.192
X126.736Y-92.812
X127.94Y-108.077
X127.94Y-115.697
X128.946Y-74.066
X128.946Y-81.686
X129.2Y-68.518
X129.2Y-71.018
X129.276Y-85.192
X129.276Y-92.812
X129.311Y-97.65
X129.311Y-105.27
X130.378Y-131.14
X130.48Y-108.077
X130.48Y-115.697
X132.476Y-86.258
X132.476Y-88.758
X132.567Y-91.567
X133.354Y-118.212
X133.667Y-108.179
X133.667Y-115.799
X133.772Y-78.384
X133.772Y-80.884
X133.899Y-67.97
X133.899Y-75.59
X135.067Y-91.567
X135.854Y-118.212
X136.792Y-108.128
X136.792Y-115.748
X138.024Y-73.762
X138.163Y-70.498
X138.176Y-76.962
X138.493Y-131.369
X138.493Y-133.869
X142.646Y-80.416
X143.053Y-62.179
X143.053Y-66.345
X143.301Y-111.1
X143.764Y-84.582
X143.764Y-87.082
X145.146Y-80.416
X145.553Y-62.179
X145.553Y-66.345
X145.644Y-73.762
X145.783Y-70.498
X145.796Y-76.962
X145.801Y-111.1
T5
X64.049Y-62.967
X66.589Y-62.967
X127.787Y-63.231
X130.327Y-63.231
T6
X56.022Y-119.685
X56.022Y-122.225
X56.022Y-124.765
X56.022Y-127.305
X56.022Y-129.845
X56.022Y-132.385
X56.022Y-134.925
X56.81Y-60.35
X56.81Y-62.89
X58.562Y-119.685
X58.562Y-122.225
X58.562Y-124.765
X58.562Y-127.305
X58.562Y-129.845
X58.562Y-132.385
X58.562Y-134.925
X63.871Y-136.512
X63.871Y-139.052
X63.871Y-141.592
X69.433Y-146.037
X70.78Y-69.748
X71.973Y-146.037
X73.32Y-69.748
X74.513Y-146.037
X75.86Y-69.748
X99.568Y-114.3
X102.108Y-114.3
X104.648Y-114.3
X107.188Y-114.3
X126.355Y-134.671
X128.895Y-134.671
X138.646Y-138.773
X138.646Y-141.313
X143.421Y-96.164
X143.421Y-98.704
X143.421Y-101.244
X143.421Y-103.784
X143.421Y-106.324
X145.644Y-116.738
X145.644Y-119.278
X145.644Y-121.818
X145.961Y-96.164
X145.961Y-98.704
X145.961Y-101.244
X145.961Y-103.784
X145.961Y-106.324
T7
X54.778Y-74.828
X59.121Y-71.069
X59.35Y-77.673
X65.725Y-71.059
X65.761Y-77.612
T8
X145.39Y-131.928
X145.39Y-137.008
T9
X53.Y-53.
X53.Y-147.
X60.Y-102.
X60.Y-146.
X137.Y-102.
X137.Y-146.
X147.Y-53.
X147.Y-147.
T6
X125.289Y-140.475G85X127.289Y-140.475
G05
X125.289Y-146.475G85X127.289Y-146.475
G05
X130.989Y-144.475G85X130.989Y-142.475
G05
T0
M30
