M48
;DRILL file {KiCad 4.0.7} date 04/23/20 22:14:41
;FORMAT={-:-/ absolute / metric / decimal}
FMAT,2
METRIC,TZ
T1C0.400
T2C0.600
T3C0.762
T4C0.800
T5C0.810
T6C0.900
T7C1.000
T8C1.500
T9C2.300
T10C3.048
%
G90
G05
M71
T1
X50.46Y-69.24
X50.46Y-71.526
X50.587Y-64.033
X50.587Y-78.638
X50.587Y-87.909
X50.714Y-66.573
X50.714Y-83.845
X50.841Y-58.318
X50.841Y-60.35
X50.841Y-81.432
X50.968Y-91.465
X50.968Y-95.656
X51.552Y-97.729
X51.603Y-57.175
X52.847Y-99.024
X53.721Y-100.584
X53.762Y-57.048
X55.118Y-101.473
X55.921Y-56.794
X56.642Y-100.965
X56.81Y-55.27
X56.937Y-52.603
X57.658Y-99.568
X57.699Y-51.079
X58.674Y-98.806
X60.833Y-98.933
X60.874Y-50.571
X63.541Y-50.571
X64.008Y-99.06
X65.827Y-50.698
X66.167Y-98.933
X67.183Y-95.123
X67.224Y-51.46
X67.224Y-53.492
X67.732Y-55.27
X67.986Y-57.302
X68.23Y-119.69
X68.453Y-98.806
X68.494Y-59.08
X68.732Y-97.193
X68.748Y-50.571
X68.748Y-60.604
X69.764Y-61.62
X70.434Y-98.793
X70.98Y-97.193
X71.542Y-63.398
X71.796Y-50.571
X72.2Y-98.768
X72.812Y-64.414
X73.571Y-97.193
X74.105Y-98.793
X74.59Y-65.43
X74.717Y-50.952
X74.75Y-108.85
X75.801Y-53.393
X76.238Y-97.231
X76.467Y-98.755
X76.9Y-108.65
X77.8Y-82.182
X77.925Y-93.18
X77.953Y-79.705
X77.991Y-74.905
X78.019Y-50.698
X78.029Y-76.886
X78.05Y-108.65
X78.12Y-91.755
X78.204Y-88.542
X78.232Y-90.079
X78.273Y-84.607
X78.344Y-83.596
X78.344Y-85.524
X78.372Y-98.793
X78.428Y-87.005
X78.654Y-67.208
X78.715Y-97.346
X78.964Y-51.552
X79.3Y-99.8
X79.55Y-120.48
X79.667Y-72.962
X79.75Y-100.6
X80.15Y-108.6
X80.162Y-97.269
X80.467Y-83.513
X80.607Y-85.189
X80.696Y-98.755
X80.85Y-102.6
X80.886Y-87.145
X80.97Y-68.928
X80.97Y-88.43
X81.054Y-89.799
X81.115Y-95.86
X81.153Y-70.79
X81.153Y-94.412
X81.166Y-93.068
X81.191Y-96.888
X81.222Y-91.783
X81.3Y-103.4
X81.575Y-50.825
X81.648Y-82.677
X82.042Y-108.458
X82.1Y-105.
X82.11Y-136.4
X82.525Y-81.686
X82.55Y-106.426
X82.68Y-135.45
X82.715Y-96.965
X82.753Y-98.984
X82.87Y-120.53
X83.325Y-79.667
X83.6Y-147.9
X83.625Y-134.525
X83.934Y-77.838
X83.972Y-74.447
X84.087Y-72.466
X84.125Y-76.352
X84.163Y-96.888
X84.239Y-70.294
X84.28Y-149.12
X84.325Y-129.35
X84.328Y-98.806
X84.775Y-134.025
X85.09Y-130.302
X85.1Y-132.175
X86.106Y-97.028
X86.614Y-98.806
X87.376Y-130.81
X87.798Y-50.825
X87.8Y-147.94
X88.138Y-97.028
X88.39Y-116.49
X88.646Y-98.806
X89.5Y-148.59
X89.662Y-125.984
X90.17Y-97.028
X90.17Y-99.06
X90.92Y-122.15
X90.973Y-50.825
X91.45Y-99.05
X91.55Y-132.375
X91.85Y-99.95
X91.948Y-97.028
X92.75Y-101.15
X92.8Y-132.7
X93.64Y-50.825
X93.75Y-100.05
X93.9Y-100.9
X93.98Y-96.774
X94.234Y-98.806
X94.34Y-119.412
X95.025Y-133.925
X95.75Y-116.92
X96.012Y-96.774
X96.012Y-99.06
X96.012Y-118.618
X96.942Y-50.825
X97.01Y-116.98
X97.33Y-126.39
X97.536Y-100.076
X98.044Y-97.536
X98.806Y-101.092
X98.831Y-78.562
X99.314Y-98.044
X99.314Y-135.128
X100.076Y-101.854
X100.33Y-99.06
X100.72Y-134.84
X100.752Y-50.571
X101.6Y-100.076
X102.108Y-102.108
X102.108Y-134.366
X103.378Y-100.076
X103.378Y-133.604
X103.886Y-102.108
X103.92Y-94.18
X103.925Y-92.35
X103.974Y-84.58
X104.Y-96.431
X104.062Y-89.536
X104.076Y-98.184
X104.18Y-99.1
X104.225Y-87.577
X104.263Y-81.626
X104.275Y-78.831
X104.275Y-80.228
X104.579Y-65.91
X105.418Y-66.86
X105.664Y-102.108
X105.795Y-84.917
X105.837Y-76.025
X105.84Y-87.56
X105.84Y-107.49
X105.86Y-94.21
X105.867Y-66.078
X105.89Y-81.72
X105.89Y-89.66
X105.92Y-96.11
X105.92Y-109.626
X105.98Y-79.43
X105.99Y-98.13
X106.032Y-64.237
X106.06Y-91.95
X106.086Y-111.15
X106.086Y-112.42
X106.15Y-100.32
X106.172Y-68.062
X106.208Y-103.834
X106.208Y-105.866
X106.535Y-74.767
X106.721Y-50.571
X106.898Y-77.729
X106.921Y-61.303
X106.985Y-63.284
X107.234Y-70.632
X107.318Y-69.403
X107.391Y-59.576
X107.401Y-72.951
X109.022Y-75.997
X109.271Y-66.446
X109.296Y-73.596
X109.334Y-64.287
X109.436Y-69.736
X109.55Y-71.361
X109.639Y-68.567
X109.728Y-119.38
X109.779Y-50.736
X109.944Y-62.954
X110.236Y-120.142
X110.668Y-61.836
X111.31Y-141.15
X111.366Y-68.707
X111.506Y-116.84
X111.569Y-60.376
X111.874Y-59.042
X112.357Y-63.779
X112.624Y-62.484
X112.738Y-50.863
X112.776Y-116.84
X112.852Y-55.664
X112.89Y-60.427
X112.928Y-53.683
X112.966Y-58.064
X113.157Y-65.824
X113.525Y-68.847
X113.579Y-93.853
X113.6Y-141.24
X114.643Y-68.567
X116.091Y-50.825
X117.4Y-128.85
X118.11Y-50.825
X120.282Y-50.711
X123.231Y-50.698
X126.66Y-50.825
X129.454Y-50.825
X132.248Y-50.825
X133.096Y-128.524
X135.128Y-133.35
X137.074Y-50.825
X138.43Y-133.35
X139.35Y-128.32
X139.995Y-51.841
X140.41Y-130.98
X141.138Y-53.873
X142.494Y-54.864
X143.764Y-55.88
X145.288Y-56.388
X146.812Y-56.896
X146.812Y-85.598
X148.336Y-56.896
X148.336Y-83.566
X148.377Y-60.477
X148.377Y-62.763
X148.59Y-81.534
X148.631Y-70.383
X148.631Y-75.717
X148.758Y-72.796
X148.844Y-66.04
X148.844Y-79.248
T2
X69.75Y-102.55
X71.02Y-101.28
X72.29Y-102.55
T3
X69.342Y-123.19
X69.342Y-138.43
X71.882Y-123.19
X71.882Y-138.43
X74.422Y-123.19
X74.422Y-138.43
X76.962Y-123.19
X76.962Y-138.43
X79.502Y-123.19
X79.502Y-138.43
X82.042Y-123.19
X82.042Y-138.43
X84.582Y-123.19
X84.582Y-138.43
X87.122Y-123.19
X87.122Y-138.43
X89.662Y-123.19
X89.662Y-138.43
X92.202Y-123.19
X92.202Y-138.43
X94.742Y-123.19
X94.742Y-138.43
X97.282Y-123.19
X97.282Y-138.43
X99.822Y-123.19
X99.822Y-138.43
X102.362Y-123.19
X102.362Y-138.43
X104.902Y-123.19
X104.902Y-138.43
X107.442Y-123.19
X107.442Y-138.43
X109.982Y-123.19
X109.982Y-138.43
X112.522Y-123.19
X112.522Y-138.43
X115.062Y-123.19
X115.062Y-138.43
X117.602Y-123.19
X117.602Y-138.43
T4
X53.127Y-83.972
X53.127Y-91.592
X53.23Y-73.01
X53.23Y-80.63
X53.26Y-141.73
X53.442Y-96.561
X53.571Y-66.383
X55.626Y-99.568
X55.626Y-107.188
X55.76Y-141.73
X55.942Y-96.561
X56.27Y-73.07
X56.27Y-80.69
X57.318Y-85.674
X57.318Y-93.294
X58.704Y-96.601
X58.989Y-109.637
X59.1Y-82.75
X59.858Y-85.674
X59.858Y-93.294
X61.191Y-66.383
X61.6Y-82.75
X62.398Y-85.674
X62.398Y-93.294
X63.414Y-66.396
X63.779Y-112.893
X64.938Y-85.674
X64.938Y-93.294
X66.025Y-82.575
X66.091Y-106.058
X66.279Y-112.893
X66.324Y-96.601
X66.609Y-109.637
X68.525Y-82.575
X68.783Y-93.004
X68.783Y-95.504
X69.804Y-89.941
X71.034Y-66.396
X71.079Y-110.838
X71.079Y-115.718
X71.6Y-82.875
X71.6Y-85.375
X71.973Y-93.152
X72.304Y-89.941
X73.711Y-106.058
X76.025Y-95.806
X76.025Y-103.426
X76.114Y-72.542
X76.114Y-80.162
X76.317Y-87.732
X76.622Y-58.826
X76.622Y-66.446
X76.748Y-106.68
X77.06Y-119.
X79.238Y-95.806
X79.238Y-103.426
X79.248Y-106.68
X79.479Y-69.113
X79.479Y-76.733
X79.593Y-93.152
X79.822Y-79.555
X79.822Y-82.055
X80.178Y-58.826
X80.178Y-66.446
X80.264Y-143.764
X80.264Y-146.264
X82.718Y-69.177
X82.718Y-76.797
X82.78Y-100.9
X83.425Y-143.8
X83.425Y-146.3
X83.937Y-87.732
X84.Y-106.98
X84.Y-114.6
X84.496Y-61.112
X84.536Y-55.016
X84.536Y-58.318
X84.536Y-64.16
X84.68Y-119.
X84.8Y-104.1
X86.375Y-77.114
X86.375Y-84.734
X86.655Y-71.058
X86.655Y-73.558
X86.985Y-87.82
X86.996Y-61.112
X87.Y-106.98
X87.Y-114.6
X87.036Y-55.016
X87.036Y-58.318
X87.036Y-64.16
X87.3Y-104.1
X89.275Y-143.9
X89.423Y-91.135
X89.485Y-87.82
X89.512Y-77.241
X89.512Y-84.861
X89.88Y-67.285
X90.Y-110.4
X90.Y-118.02
X90.338Y-55.524
X90.338Y-58.064
X90.338Y-60.604
X90.338Y-63.144
X90.4Y-100.9
X90.505Y-73.431
X91.608Y-70.32
X92.052Y-77.241
X92.052Y-84.861
X93.005Y-73.431
X93.1Y-110.4
X93.1Y-118.02
X94.251Y-87.782
X94.592Y-77.241
X94.592Y-84.861
X95.839Y-73.609
X96.751Y-87.782
X96.895Y-143.9
X97.043Y-91.135
X97.132Y-77.241
X97.132Y-84.861
X97.5Y-67.285
X97.958Y-55.524
X97.958Y-58.064
X97.958Y-60.604
X97.958Y-63.144
X98.339Y-73.609
X98.675Y-103.43
X98.675Y-111.05
X99.228Y-70.32
X99.799Y-88.417
X99.799Y-90.917
X100.Y-143.84
X100.Y-146.34
X101.133Y-82.321
X101.133Y-85.496
X101.196Y-61.189
X101.196Y-63.689
X101.26Y-55.31
X101.26Y-57.81
X101.26Y-79.146
X101.975Y-103.405
X101.975Y-111.025
X102.276Y-98.704
X102.949Y-67.818
X102.949Y-75.438
X104.816Y-54.762
X104.816Y-62.382
X107.747Y-57.379
X107.747Y-64.999
X108.166Y-54.369
X108.753Y-82.321
X108.753Y-85.496
X108.88Y-79.146
X109.896Y-98.704
X109.982Y-101.854
X109.982Y-109.474
X110.666Y-54.369
X110.896Y-57.442
X110.896Y-65.062
X111.658Y-77.277
X111.658Y-84.897
X111.928Y-87.02
X111.928Y-94.64
X111.989Y-67.221
X111.989Y-74.841
X113.198Y-100.649
X113.198Y-103.149
X113.833Y-64.16
X114.595Y-53.873
X114.595Y-61.493
X115.075Y-67.196
X115.075Y-74.816
X115.23Y-87.02
X115.23Y-94.64
X115.24Y-108.077
X115.24Y-115.697
X115.3Y-146.875
X115.316Y-77.383
X115.316Y-79.883
X115.928Y-101.689
X115.928Y-104.927
X116.063Y-84.239
X117.78Y-108.077
X117.78Y-115.697
X117.8Y-146.875
X117.897Y-53.873
X117.897Y-61.493
X118.151Y-73.812
X118.151Y-81.432
X118.532Y-87.02
X118.532Y-94.64
X118.563Y-84.239
X119.04Y-68.518
X119.04Y-71.018
X120.32Y-108.077
X120.32Y-115.697
X120.945Y-53.873
X120.945Y-61.493
X121.326Y-74.066
X121.326Y-81.686
X121.453Y-64.16
X121.656Y-85.192
X121.656Y-92.812
X122.342Y-68.478
X122.342Y-70.978
X122.86Y-108.077
X122.86Y-115.697
X123.052Y-118.3
X123.548Y-101.689
X123.548Y-104.927
X123.866Y-74.066
X123.866Y-81.686
X124.196Y-85.192
X124.196Y-92.812
X125.4Y-108.077
X125.4Y-115.697
X125.552Y-118.3
X125.644Y-68.518
X125.644Y-71.018
X126.187Y-97.615
X126.187Y-105.235
X126.406Y-74.066
X126.406Y-81.686
X126.736Y-85.192
X126.736Y-92.812
X127.94Y-108.077
X127.94Y-115.697
X128.946Y-74.066
X128.946Y-81.686
X129.2Y-68.518
X129.2Y-71.018
X129.276Y-85.192
X129.276Y-92.812
X129.311Y-97.65
X129.311Y-105.27
X130.48Y-108.077
X130.48Y-115.697
X130.85Y-134.366
X132.476Y-86.258
X132.476Y-88.758
X132.567Y-91.567
X133.35Y-134.366
X133.354Y-118.212
X133.667Y-108.179
X133.667Y-115.799
X133.772Y-78.384
X133.772Y-80.884
X133.899Y-67.97
X133.899Y-75.59
X135.067Y-91.567
X135.854Y-118.212
X136.792Y-108.128
X136.792Y-115.748
X136.906Y-85.638
X136.906Y-88.138
X138.938Y-73.914
X138.938Y-76.962
X139.446Y-90.424
X139.954Y-111.506
X139.954Y-119.126
X142.494Y-59.69
X143.002Y-111.506
X143.002Y-119.126
X144.994Y-59.69
X146.05Y-111.506
X146.05Y-119.126
X146.558Y-73.914
X146.558Y-76.962
X147.066Y-90.424
T5
X142.21Y-100.19
X142.21Y-102.73
X144.21Y-100.19
X144.21Y-102.73
T6
X64.049Y-62.967
X66.589Y-62.967
X127.787Y-63.231
X130.327Y-63.231
T7
X53.59Y-70.02
X53.9Y-63.09
X56.085Y-116.66
X56.085Y-119.2
X56.085Y-121.74
X56.085Y-124.28
X56.085Y-126.82
X56.085Y-129.36
X56.085Y-131.9
X56.13Y-70.02
X56.44Y-63.09
X58.625Y-116.66
X58.625Y-119.2
X58.625Y-121.74
X58.625Y-124.28
X58.625Y-126.82
X58.625Y-129.36
X58.625Y-131.9
X64.93Y-138.7
X64.93Y-141.24
X64.93Y-143.78
X69.433Y-146.037
X71.973Y-146.037
X74.513Y-146.037
X86.75Y-143.935
X86.75Y-146.475
X101.092Y-115.824
X103.632Y-115.824
X106.172Y-115.824
X108.712Y-115.824
X134.62Y-139.446
X137.16Y-139.446
X141.478Y-140.716
X142.24Y-67.056
X143.764Y-81.28
X143.764Y-86.28
X144.018Y-140.716
X146.558Y-140.716
X147.24Y-67.056
T8
X60.775Y-77.6
X60.85Y-70.95
X68.326Y-70.866
X68.326Y-77.724
T9
X146.91Y-95.46
X146.91Y-107.46
T10
X53.Y-53.
X53.Y-147.
X60.Y-102.
X60.Y-146.
X137.Y-102.
X137.Y-146.
X147.Y-53.
X147.Y-147.
T7
X125.289Y-140.475G85X127.289Y-140.475
G05
X125.289Y-146.475G85X127.289Y-146.475
G05
X130.989Y-144.475G85X130.989Y-142.475
G05
T0
M30
