M48
;DRILL file {KiCad 4.0.7} date 11/06/18 22:51:03
;FORMAT={-:-/ absolute / metric / decimal}
FMAT,2
METRIC,TZ
T1C0.400
T2C0.762
T3C0.800
T4C0.900
T5C1.000
T6C1.200
T7C1.520
T8C3.048
%
G90
G05
M71
T1
X74.93Y-128.905
X76.962Y-116.205
X78.232Y-127.762
X81.153Y-116.459
X82.677Y-108.712
X83.439Y-115.443
X83.566Y-108.331
X84.836Y-109.474
X84.836Y-110.998
X84.836Y-113.538
X86.233Y-126.746
X88.519Y-125.984
X98.336Y-81.153
X99.555Y-82.867
X99.568Y-56.807
X99.746Y-77.559
X99.835Y-54.229
X99.86Y-70.523
X99.86Y-74.32
X100.025Y-64.872
X100.076Y-60.744
X100.279Y-59.652
X102.108Y-83.134
X103.67Y-83.629
X104.14Y-134.214
X106.147Y-84.658
X109.499Y-86.068
X110.172Y-118.491
X110.299Y-88.963
X110.299Y-92.469
X111.023Y-73.647
X111.252Y-71.476
X112.814Y-70.104
X113.157Y-74.752
X113.957Y-76.619
X114.135Y-59.004
X115.519Y-78.41
X116.002Y-66.116
X116.23Y-59.88
X116.776Y-63.563
X117.767Y-78.715
X119.558Y-79.858
X121.006Y-70.079
X122.098Y-68.758
X122.377Y-67.754
X123.355Y-65.405
X124.282Y-58.953
X124.333Y-60.046
X124.473Y-57.302
X124.498Y-63.195
X126.149Y-62.116
X139.065Y-118.618
X140.31Y-97.333
T2
X69.342Y-123.19
X69.342Y-138.43
X71.882Y-123.19
X71.882Y-138.43
X74.422Y-123.19
X74.422Y-138.43
X76.962Y-123.19
X76.962Y-138.43
X79.502Y-123.19
X79.502Y-138.43
X82.042Y-123.19
X82.042Y-138.43
X84.582Y-123.19
X84.582Y-138.43
X87.122Y-123.19
X87.122Y-138.43
X89.662Y-123.19
X89.662Y-138.43
X92.202Y-123.19
X92.202Y-138.43
X94.742Y-123.19
X94.742Y-138.43
X97.282Y-123.19
X97.282Y-138.43
X99.822Y-123.19
X99.822Y-138.43
X102.362Y-123.19
X102.362Y-138.43
X104.902Y-123.19
X104.902Y-138.43
X107.442Y-123.19
X107.442Y-138.43
X109.982Y-123.19
X109.982Y-138.43
X112.522Y-123.19
X112.522Y-138.43
X115.062Y-123.19
X115.062Y-138.43
X117.602Y-123.19
X117.602Y-138.43
T3
X65.075Y-74.117
X65.126Y-71.196
X65.278Y-77.267
X65.278Y-84.607
X65.278Y-87.376
X65.405Y-80.543
X71.12Y-103.759
X71.679Y-109.22
X71.679Y-114.1
X72.39Y-97.155
X72.39Y-100.33
X72.695Y-74.117
X72.746Y-71.196
X72.898Y-77.267
X72.898Y-84.607
X72.898Y-87.376
X73.025Y-80.543
X73.66Y-90.932
X73.7Y-93.98
X75.946Y-84.43
X75.946Y-86.93
X76.048Y-77.713
X76.048Y-80.213
X76.16Y-90.932
X76.2Y-93.98
X76.748Y-106.68
X78.74Y-103.759
X79.096Y-58.344
X79.172Y-55.054
X79.184Y-71.425
X79.248Y-78.232
X79.248Y-83.058
X79.248Y-85.598
X79.248Y-88.138
X79.248Y-90.678
X79.248Y-93.98
X79.248Y-106.68
X80.01Y-97.155
X80.01Y-100.33
X80.264Y-143.764
X80.264Y-146.264
X83.007Y-61.163
X83.007Y-68.783
X83.058Y-97.282
X83.058Y-100.584
X83.058Y-143.764
X83.058Y-146.264
X83.82Y-103.759
X83.82Y-106.259
X86.106Y-143.764
X86.106Y-146.264
X86.218Y-61.143
X86.218Y-68.763
X86.716Y-58.344
X86.792Y-55.054
X86.804Y-71.425
X86.868Y-78.232
X86.868Y-83.058
X86.868Y-85.598
X86.868Y-88.138
X86.868Y-90.678
X86.868Y-93.98
X87.122Y-106.807
X87.122Y-114.427
X89.408Y-93.98
X89.743Y-54.6
X89.778Y-57.876
X90.17Y-88.138
X90.17Y-90.638
X90.21Y-84.582
X90.22Y-81.402
X90.297Y-106.807
X90.297Y-114.427
X90.54Y-65.771
X90.581Y-62.306
X90.667Y-70.663
X90.678Y-77.724
X90.678Y-97.282
X90.678Y-100.584
X90.718Y-74.219
X92.243Y-54.6
X92.278Y-57.876
X92.71Y-84.582
X92.72Y-81.402
X93.04Y-65.771
X93.081Y-62.306
X93.167Y-70.663
X93.178Y-77.724
X93.218Y-74.219
X93.472Y-98.679
X93.472Y-106.299
X94.996Y-89.408
X95.758Y-85.09
X95.91Y-81.727
X96.012Y-98.679
X96.012Y-106.299
X96.149Y-65.827
X96.393Y-70.521
X96.393Y-73.061
X96.393Y-75.601
X96.393Y-78.141
X96.896Y-54.539
X96.896Y-57.079
X96.896Y-59.619
X96.896Y-62.159
X97.028Y-93.98
X98.552Y-98.679
X98.552Y-106.299
X100.203Y-94.107
X101.092Y-98.679
X101.092Y-106.299
X102.616Y-89.408
X102.703Y-94.107
X103.378Y-85.09
X103.53Y-81.727
X103.632Y-98.679
X103.632Y-106.299
X103.769Y-65.827
X104.013Y-70.521
X104.013Y-73.061
X104.013Y-75.601
X104.013Y-78.141
X104.516Y-54.539
X104.516Y-57.079
X104.516Y-59.619
X104.516Y-62.159
X105.664Y-82.55
X106.172Y-98.679
X106.172Y-106.299
X106.212Y-109.22
X106.507Y-65.771
X106.68Y-86.36
X106.68Y-88.9
X106.68Y-91.44
X106.68Y-93.98
X107.188Y-69.382
X107.188Y-71.882
X107.188Y-75.438
X107.188Y-77.938
X107.696Y-53.126
X107.696Y-55.626
X107.696Y-59.984
X107.696Y-62.484
X108.712Y-98.679
X108.712Y-106.299
X108.712Y-109.22
X110.236Y-70.104
X110.236Y-77.724
X111.506Y-54.61
X111.506Y-62.23
X111.927Y-97.282
X113.284Y-82.55
X113.792Y-71.882
X113.792Y-79.502
X114.046Y-69.088
X114.127Y-65.771
X114.3Y-86.36
X114.3Y-88.9
X114.3Y-91.44
X114.3Y-93.98
X114.427Y-97.282
X114.808Y-54.864
X114.808Y-62.484
X116.546Y-69.088
X117.348Y-81.574
X117.348Y-84.074
X117.602Y-74.676
X117.602Y-77.176
X118.11Y-86.868
X118.11Y-94.488
X118.618Y-56.896
X118.618Y-59.396
X119.634Y-63.246
X119.634Y-65.786
X119.634Y-68.326
X119.634Y-70.866
X121.666Y-86.868
X121.666Y-94.488
X122.034Y-81.663
X122.034Y-84.163
X122.174Y-56.936
X122.174Y-59.436
X122.174Y-74.716
X122.174Y-77.216
X125.984Y-56.134
X125.984Y-59.436
X126.862Y-113.602
X127.063Y-87.185
X127.063Y-90.043
X127.127Y-83.947
X127.127Y-92.9
X127.254Y-63.246
X127.254Y-65.786
X127.254Y-68.326
X127.254Y-70.866
X127.254Y-80.454
X129.262Y-76.898
X129.362Y-113.602
X130.048Y-63.246
X130.048Y-66.802
X131.762Y-76.898
X133.604Y-56.134
X133.604Y-59.436
X133.898Y-108.458
X134.683Y-87.185
X134.683Y-90.043
X134.747Y-83.947
X134.747Y-92.9
X134.874Y-80.454
X136.398Y-108.458
X137.668Y-63.246
X137.668Y-66.802
X138.024Y-73.762
X138.176Y-76.962
X138.379Y-70.917
X142.646Y-80.416
X143.053Y-62.179
X143.053Y-66.345
X143.764Y-84.582
X143.764Y-87.082
X145.146Y-80.416
X145.553Y-62.179
X145.553Y-66.345
X145.644Y-73.762
X145.796Y-76.962
X145.999Y-70.917
T4
X62.278Y-68.224
X62.278Y-70.764
X62.545Y-89.916
X62.545Y-92.456
T5
X55.626Y-119.634
X55.626Y-122.174
X55.626Y-124.714
X55.626Y-127.254
X55.626Y-129.794
X55.626Y-132.334
X55.626Y-134.874
X55.626Y-137.414
X75.895Y-71.628
X75.895Y-74.168
X82.677Y-74.879
X85.217Y-74.879
X99.568Y-114.3
X102.108Y-114.3
X104.648Y-114.3
X107.188Y-114.3
X133.858Y-113.792
X136.144Y-118.237
X136.144Y-120.777
X136.144Y-123.317
X136.398Y-113.792
X142.494Y-114.757
X142.494Y-117.297
X142.494Y-119.837
X142.494Y-122.377
X142.494Y-124.917
X143.421Y-96.164
X143.421Y-98.704
X143.421Y-101.244
X143.421Y-103.784
X143.421Y-106.324
X145.034Y-114.757
X145.034Y-117.297
X145.034Y-119.837
X145.034Y-122.377
X145.034Y-124.917
X145.961Y-96.164
X145.961Y-98.704
X145.961Y-101.244
X145.961Y-103.784
X145.961Y-106.324
T6
X66.639Y-67.513
X66.751Y-61.163
X72.644Y-60.96
X72.796Y-67.462
X78.435Y-63.957
T7
X145.39Y-131.928
X145.39Y-137.008
T8
X53.Y-53.
X53.Y-147.
X61.Y-102.
X61.Y-146.
X138.Y-102.
X138.Y-146.
X147.Y-53.
X147.Y-147.
T0
M30
