M48
;DRILL file {KiCad 4.0.7} date 11/19/18 23:15:06
;FORMAT={-:-/ absolute / metric / decimal}
FMAT,2
METRIC,TZ
T1C0.400
T2C0.762
T3C0.800
T4C0.900
T5C1.000
T6C1.500
T7C1.520
T8C3.048
%
G90
G05
M71
T1
X51.943Y-85.611
X52.197Y-89.065
X52.197Y-95.618
X52.426Y-81.775
X52.476Y-97.727
X53.772Y-79.566
X53.975Y-99.352
X54.585Y-107.861
X55.372Y-102.375
X55.829Y-111.595
X55.905Y-77.279
X58.496Y-75.755
X59.055Y-60.566
X59.334Y-91.935
X59.461Y-72.581
X59.461Y-94.653
X59.512Y-63.868
X59.563Y-61.531
X59.563Y-68.516
X59.792Y-88.024
X59.893Y-84.163
X60.02Y-65.316
X60.731Y-80.581
X61.087Y-73.368
X61.519Y-95.491
X61.849Y-79.515
X62.103Y-74.816
X62.763Y-97.091
X63.043Y-52.184
X64.084Y-98.463
X64.541Y-79.413
X65.303Y-75.476
X65.837Y-79.515
X67.005Y-51.295
X67.564Y-79.362
X69.723Y-75.654
X70.053Y-79.159
X71.222Y-99.276
X71.628Y-75.374
X72.141Y-80.132
X72.923Y-51.473
X72.949Y-99.149
X73.315Y-75.634
X74.447Y-53.276
X74.544Y-80.523
X74.93Y-128.905
X75.057Y-98.971
X75.214Y-75.662
X75.438Y-55.131
X76.947Y-80.411
X76.962Y-116.205
X77.241Y-56.782
X78.054Y-51.524
X78.232Y-127.762
X78.316Y-75.689
X78.74Y-97.752
X79.573Y-80.355
X80.048Y-75.606
X80.213Y-57.569
X81.128Y-51.244
X81.153Y-116.459
X81.557Y-75.075
X81.737Y-57.239
X81.737Y-80.048
X82.144Y-99.276
X82.347Y-93.891
X82.398Y-96.533
X82.677Y-108.712
X82.728Y-90.843
X82.804Y-85.001
X82.906Y-87.744
X83.058Y-82.74
X83.261Y-57.925
X83.261Y-80.302
X83.261Y-102.502
X83.439Y-115.443
X83.513Y-74.013
X83.515Y-60.211
X83.566Y-108.331
X84.099Y-106.362
X84.252Y-104.559
X84.836Y-109.474
X84.836Y-110.998
X84.836Y-113.538
X85.245Y-72.029
X85.915Y-71.051
X86.106Y-60.922
X86.233Y-126.746
X86.284Y-96.101
X86.868Y-80.556
X88.062Y-51.422
X88.443Y-61.989
X88.519Y-125.984
X89.002Y-64.478
X89.078Y-96.05
X89.281Y-81.09
X90.297Y-66.713
X92.253Y-81.775
X92.507Y-95.872
X92.71Y-51.295
X93.574Y-67.297
X94.463Y-81.775
X94.717Y-96.634
X96.749Y-81.521
X97.358Y-67.246
X97.511Y-81.801
X97.536Y-97.142
X97.739Y-51.524
X98.336Y-81.153
X99.555Y-82.867
X99.568Y-56.807
X99.746Y-77.559
X99.835Y-54.229
X99.86Y-70.523
X99.86Y-74.32
X100.025Y-64.872
X100.076Y-60.744
X100.279Y-59.652
X100.635Y-51.473
X100.635Y-97.193
X102.108Y-83.134
X102.921Y-97.879
X103.67Y-83.629
X104.14Y-51.346
X104.14Y-134.214
X104.572Y-99.276
X106.147Y-84.658
X107.251Y-104.203
X107.62Y-51.295
X107.671Y-118.656
X109.499Y-86.068
X109.804Y-104.394
X110.299Y-88.963
X110.299Y-92.469
X110.312Y-118.529
X111.023Y-73.647
X111.252Y-71.476
X112.243Y-102.565
X112.293Y-51.498
X112.814Y-70.104
X113.157Y-74.752
X113.957Y-76.619
X114.071Y-100.774
X114.135Y-59.004
X115.519Y-78.41
X116.002Y-66.116
X116.23Y-59.88
X116.383Y-51.549
X116.776Y-63.563
X117.767Y-78.715
X118.758Y-100.584
X119.38Y-51.524
X119.558Y-79.858
X120.739Y-98.489
X121.006Y-70.079
X122.098Y-68.758
X122.377Y-67.754
X122.758Y-51.549
X123.355Y-65.405
X124.282Y-58.953
X124.333Y-60.046
X124.473Y-57.302
X124.498Y-63.195
X124.892Y-95.402
X126.149Y-62.116
X127.33Y-92.392
X127.406Y-95.059
X127.533Y-90.31
X127.686Y-87.643
X127.94Y-84.595
X127.965Y-82.918
X129.184Y-79.286
X129.591Y-71.869
X129.743Y-73.215
X129.743Y-75.451
X129.972Y-68.669
X130.835Y-52.235
X137.287Y-53.886
X137.922Y-119.436
X140.03Y-57.188
X140.31Y-97.333
T2
X69.342Y-123.19
X69.342Y-138.43
X71.882Y-123.19
X71.882Y-138.43
X74.422Y-123.19
X74.422Y-138.43
X76.962Y-123.19
X76.962Y-138.43
X79.502Y-123.19
X79.502Y-138.43
X82.042Y-123.19
X82.042Y-138.43
X84.582Y-123.19
X84.582Y-138.43
X87.122Y-123.19
X87.122Y-138.43
X89.662Y-123.19
X89.662Y-138.43
X92.202Y-123.19
X92.202Y-138.43
X94.742Y-123.19
X94.742Y-138.43
X97.282Y-123.19
X97.282Y-138.43
X99.822Y-123.19
X99.822Y-138.43
X102.362Y-123.19
X102.362Y-138.43
X104.902Y-123.19
X104.902Y-138.43
X107.442Y-123.19
X107.442Y-138.43
X109.982Y-123.19
X109.982Y-138.43
X112.522Y-123.19
X112.522Y-138.43
X115.062Y-123.19
X115.062Y-138.43
X117.602Y-123.19
X117.602Y-138.43
T3
X65.303Y-72.161
X65.38Y-69.456
X66.091Y-106.058
X66.345Y-81.801
X66.345Y-89.421
X66.345Y-91.707
X66.345Y-99.327
X69.139Y-91.707
X69.139Y-99.327
X69.469Y-81.801
X69.469Y-89.421
X72.116Y-110.757
X72.116Y-115.637
X72.233Y-78.008
X72.923Y-72.161
X73.Y-69.456
X73.306Y-93.993
X73.598Y-84.925
X73.66Y-90.932
X73.711Y-106.058
X73.751Y-87.795
X75.806Y-93.993
X76.098Y-84.925
X76.16Y-90.932
X76.251Y-87.795
X76.748Y-106.68
X78.6Y-58.941
X78.6Y-66.561
X78.981Y-103.581
X79.134Y-93.993
X79.248Y-83.058
X79.248Y-85.598
X79.248Y-88.138
X79.248Y-90.678
X79.248Y-106.68
X79.299Y-52.845
X79.299Y-56.147
X79.853Y-78.008
X80.264Y-143.764
X80.264Y-146.264
X81.481Y-103.581
X81.991Y-59.055
X81.991Y-66.675
X82.931Y-69.329
X82.931Y-76.949
X84.633Y-97.549
X84.633Y-100.787
X85.446Y-58.991
X85.446Y-66.611
X85.725Y-69.355
X85.725Y-76.975
X86.106Y-143.764
X86.106Y-146.264
X86.754Y-93.993
X86.868Y-83.058
X86.868Y-85.598
X86.868Y-88.138
X86.868Y-90.678
X86.919Y-52.845
X86.919Y-56.147
X87.122Y-106.807
X87.122Y-114.427
X89.98Y-94.069
X90.129Y-84.605
X90.17Y-88.138
X90.17Y-90.638
X90.297Y-106.807
X90.297Y-114.427
X90.515Y-69.101
X90.515Y-72.403
X90.515Y-78.499
X90.729Y-75.451
X90.769Y-63.919
X90.83Y-60.846
X90.959Y-54.737
X91.124Y-57.836
X92.253Y-97.549
X92.253Y-100.787
X92.629Y-84.605
X93.015Y-69.101
X93.015Y-72.403
X93.015Y-78.499
X93.229Y-75.451
X93.269Y-63.919
X93.33Y-60.846
X93.459Y-54.737
X93.624Y-57.836
X94.996Y-89.408
X95.758Y-85.09
X96.149Y-65.827
X96.317Y-69.101
X96.317Y-71.641
X96.317Y-74.181
X96.317Y-76.721
X96.317Y-80.023
X96.896Y-54.539
X96.896Y-57.079
X96.896Y-59.619
X96.896Y-62.159
X97.599Y-94.069
X100.Y-143.84
X100.Y-146.34
X100.813Y-94.183
X102.616Y-89.408
X103.313Y-94.183
X103.378Y-85.09
X103.769Y-65.827
X103.937Y-69.101
X103.937Y-71.641
X103.937Y-74.181
X103.937Y-76.721
X103.937Y-80.023
X104.516Y-54.539
X104.516Y-57.079
X104.516Y-59.619
X104.516Y-62.159
X106.326Y-101.168
X106.507Y-65.771
X106.68Y-86.36
X106.68Y-88.9
X106.68Y-91.44
X106.68Y-93.98
X107.112Y-81.928
X107.188Y-75.438
X107.188Y-77.938
X107.239Y-69.903
X107.239Y-72.403
X107.696Y-53.126
X107.696Y-55.626
X107.696Y-59.984
X107.696Y-62.484
X108.826Y-101.168
X110.312Y-69.825
X110.312Y-77.445
X111.506Y-54.61
X111.506Y-62.23
X111.927Y-97.282
X113.792Y-71.882
X113.792Y-79.502
X114.046Y-69.088
X114.127Y-65.771
X114.3Y-86.36
X114.3Y-88.9
X114.3Y-91.44
X114.3Y-93.98
X114.427Y-97.282
X114.732Y-81.928
X114.808Y-54.864
X114.808Y-62.484
X115.824Y-104.381
X115.875Y-101.143
X115.964Y-108.013
X115.964Y-115.633
X116.546Y-69.088
X117.348Y-81.574
X117.348Y-84.074
X117.602Y-74.676
X117.602Y-77.176
X118.504Y-108.013
X118.504Y-115.633
X118.618Y-56.896
X118.618Y-59.396
X118.923Y-86.881
X118.923Y-94.501
X119.634Y-63.246
X119.634Y-65.786
X119.634Y-68.326
X119.634Y-70.866
X121.044Y-108.013
X121.044Y-115.633
X122.034Y-81.663
X122.034Y-84.163
X122.174Y-56.936
X122.174Y-59.436
X122.174Y-74.716
X122.174Y-77.216
X122.479Y-86.881
X122.479Y-94.501
X123.444Y-104.381
X123.495Y-101.143
X123.584Y-108.013
X123.584Y-115.633
X123.845Y-118.242
X125.984Y-56.134
X125.984Y-59.436
X126.124Y-108.013
X126.124Y-115.633
X126.187Y-97.615
X126.187Y-105.235
X126.345Y-118.242
X127.254Y-63.246
X127.254Y-65.786
X127.254Y-68.326
X127.254Y-70.866
X128.664Y-108.013
X128.664Y-115.633
X129.311Y-97.65
X129.311Y-105.27
X130.048Y-63.246
X130.048Y-66.802
X131.204Y-108.013
X131.204Y-115.633
X133.604Y-56.134
X133.604Y-59.436
X134.275Y-108.143
X134.275Y-115.763
X137.363Y-108.123
X137.363Y-115.743
X137.668Y-63.246
X137.668Y-66.802
X138.024Y-73.762
X138.163Y-70.498
X138.176Y-76.962
X138.471Y-137.409
X138.471Y-139.909
X142.646Y-80.416
X142.768Y-114.239
X142.788Y-111.313
X143.053Y-62.179
X143.053Y-66.345
X143.764Y-84.582
X143.764Y-87.082
X145.146Y-80.416
X145.268Y-114.239
X145.288Y-111.313
X145.553Y-62.179
X145.553Y-66.345
X145.644Y-73.762
X145.783Y-70.498
X145.796Y-76.962
T4
X62.278Y-68.224
X62.278Y-70.764
X62.545Y-89.916
X62.545Y-92.456
T5
X55.626Y-119.634
X55.626Y-122.174
X55.626Y-124.714
X55.626Y-127.254
X55.626Y-129.794
X55.626Y-132.334
X55.626Y-134.874
X55.626Y-137.414
X61.874Y-55.385
X61.874Y-57.925
X76.238Y-70.002
X76.238Y-72.542
X79.591Y-70.04
X79.591Y-72.581
X99.568Y-114.3
X102.108Y-114.3
X104.648Y-114.3
X107.188Y-114.3
X138.481Y-130.823
X138.481Y-133.363
X143.421Y-96.164
X143.421Y-98.704
X143.421Y-101.244
X143.421Y-103.784
X143.421Y-106.324
X143.927Y-119.421
X143.927Y-121.961
X143.927Y-124.501
X145.961Y-96.164
X145.961Y-98.704
X145.961Y-101.244
X145.961Y-103.784
X145.961Y-106.324
T6
X66.413Y-58.925
X66.484Y-65.227
X69.906Y-54.036
X72.542Y-65.227
X72.588Y-59.177
T7
X145.39Y-131.928
X145.39Y-137.008
T8
X53.Y-53.
X53.Y-147.
X60.Y-102.
X60.Y-146.
X137.Y-102.
X137.Y-146.
X147.Y-53.
X147.Y-147.
T5
X125.289Y-140.475G85X127.289Y-140.475
G05
X125.289Y-146.475G85X127.289Y-146.475
G05
X130.989Y-144.475G85X130.989Y-142.475
G05
T0
M30
