G04 #@! TF.FileFunction,Soldermask,Top*
%FSLAX46Y46*%
G04 Gerber Fmt 4.6, Leading zero omitted, Abs format (unit mm)*
G04 Created by KiCad (PCBNEW 4.0.7) date 07/12/20 20:59:22*
%MOMM*%
%LPD*%
G01*
G04 APERTURE LIST*
%ADD10C,0.100000*%
%ADD11R,0.700000X1.800000*%
%ADD12R,1.900000X1.650000*%
%ADD13R,2.900000X5.480000*%
%ADD14R,1.900000X5.480000*%
%ADD15R,1.900000X1.700000*%
%ADD16R,1.700000X1.900000*%
%ADD17R,2.000000X3.000000*%
%ADD18C,2.400000*%
%ADD19R,2.000000X1.100000*%
%ADD20R,1.800000X1.600000*%
%ADD21R,1.800000X2.000000*%
%ADD22R,2.600000X1.600000*%
%ADD23C,1.400000*%
%ADD24C,1.920000*%
%ADD25C,3.100000*%
%ADD26R,1.000000X1.950000*%
%ADD27R,2.100000X2.100000*%
%ADD28O,2.100000X2.100000*%
%ADD29R,1.900000X2.600000*%
%ADD30R,3.000000X2.000000*%
%ADD31R,1.010000X2.310000*%
%ADD32R,1.950000X1.605000*%
%ADD33R,2.600000X1.900000*%
%ADD34C,5.400000*%
%ADD35C,4.464000*%
%ADD36R,3.900000X3.900000*%
%ADD37R,1.650000X1.900000*%
%ADD38R,1.950000X1.000000*%
%ADD39R,1.300000X1.200000*%
%ADD40R,2.400000X4.200000*%
%ADD41R,2.400000X1.900000*%
%ADD42R,1.460000X1.050000*%
%ADD43R,1.600000X1.600000*%
%ADD44R,3.000000X2.400000*%
%ADD45O,3.000000X2.400000*%
%ADD46R,2.400000X3.000000*%
%ADD47O,2.400000X3.000000*%
%ADD48R,2.500000X2.200000*%
%ADD49R,1.200000X1.300000*%
%ADD50R,2.200000X2.900000*%
%ADD51R,2.400000X2.900000*%
%ADD52R,6.800000X6.200000*%
%ADD53R,2.900000X4.400000*%
%ADD54R,1.700000X0.650000*%
%ADD55R,0.650000X1.700000*%
%ADD56R,2.800000X3.900000*%
%ADD57R,2.900000X2.200000*%
%ADD58R,1.700000X2.100000*%
G04 APERTURE END LIST*
D10*
D11*
X69300000Y-78300000D03*
X69800000Y-78300000D03*
X70300000Y-78300000D03*
X70800000Y-78300000D03*
X71300000Y-78300000D03*
X71300000Y-73900000D03*
X70800000Y-73900000D03*
X70300000Y-73900000D03*
X69800000Y-73900000D03*
X69300000Y-73900000D03*
D12*
X119850000Y-62400000D03*
X122350000Y-62400000D03*
D13*
X75950000Y-53700000D03*
X68450000Y-53700000D03*
D14*
X72200000Y-53700000D03*
D15*
X60450000Y-63300000D03*
X63150000Y-63300000D03*
D16*
X76700000Y-67150000D03*
X76700000Y-64450000D03*
D15*
X60450000Y-61400000D03*
X63150000Y-61400000D03*
D17*
X83058000Y-120164000D03*
X83058000Y-116564000D03*
D18*
X92000000Y-123300000D03*
X87500000Y-123300000D03*
X92000000Y-116800000D03*
X87500000Y-116800000D03*
D19*
X132400000Y-121150000D03*
X132400000Y-120050000D03*
X132400000Y-118950000D03*
X132400000Y-117850000D03*
X132400000Y-116750000D03*
X132400000Y-115650000D03*
X132400000Y-114550000D03*
X132400000Y-113450000D03*
D20*
X133000000Y-123450000D03*
D21*
X133000000Y-108850000D03*
D22*
X142600000Y-107950000D03*
X142500000Y-123450000D03*
D19*
X132400000Y-122250000D03*
D23*
X142900000Y-120650000D03*
X142900000Y-112650000D03*
D24*
X101660000Y-128590000D03*
X104200000Y-128590000D03*
X104200000Y-130590000D03*
X101660000Y-130590000D03*
D25*
X96930000Y-133290000D03*
X108930000Y-133290000D03*
D12*
X129950000Y-89100000D03*
X132450000Y-89100000D03*
D26*
X128805000Y-62700000D03*
X127535000Y-62700000D03*
X126265000Y-62700000D03*
X124995000Y-62700000D03*
X124995000Y-68100000D03*
X126265000Y-68100000D03*
X127535000Y-68100000D03*
X128805000Y-68100000D03*
D27*
X65800000Y-58800000D03*
D28*
X68340000Y-58800000D03*
D16*
X109300000Y-121050000D03*
X109300000Y-118350000D03*
X54356000Y-125556000D03*
X54356000Y-122856000D03*
D29*
X73254000Y-120396000D03*
X79654000Y-120396000D03*
D30*
X66526000Y-120904000D03*
X70126000Y-120904000D03*
D31*
X59817000Y-126224000D03*
X61087000Y-126224000D03*
X62357000Y-126224000D03*
X63627000Y-126224000D03*
X63627000Y-120664000D03*
X62357000Y-120664000D03*
X61087000Y-120664000D03*
X59817000Y-120664000D03*
D32*
X62497000Y-122841500D03*
X60947000Y-122841500D03*
X62497000Y-124046500D03*
X60947000Y-124046500D03*
D17*
X53340000Y-103146000D03*
X53340000Y-99546000D03*
D16*
X132700000Y-95950000D03*
X132700000Y-98650000D03*
D33*
X63246000Y-106782000D03*
X63246000Y-113182000D03*
D27*
X132588000Y-128524000D03*
D28*
X132588000Y-131064000D03*
X130048000Y-128524000D03*
X130048000Y-131064000D03*
X127508000Y-128524000D03*
X127508000Y-131064000D03*
X124968000Y-128524000D03*
X124968000Y-131064000D03*
X122428000Y-128524000D03*
X122428000Y-131064000D03*
X119888000Y-128524000D03*
X119888000Y-131064000D03*
X117348000Y-128524000D03*
X117348000Y-131064000D03*
D16*
X71800000Y-57750000D03*
X71800000Y-60450000D03*
D34*
X53000000Y-53000000D03*
X147000000Y-53000000D03*
X53000000Y-132000000D03*
X147000000Y-132000000D03*
D35*
X60000000Y-101000000D03*
X137000000Y-101000000D03*
D36*
X87725000Y-127925000D03*
X87725000Y-133925000D03*
X92425000Y-130925000D03*
D27*
X101200000Y-124700000D03*
D28*
X103740000Y-124700000D03*
D12*
X95650000Y-54100000D03*
X98150000Y-54100000D03*
D37*
X67400000Y-75750000D03*
X67400000Y-78250000D03*
D12*
X145250000Y-78700000D03*
X147750000Y-78700000D03*
X145250000Y-74100000D03*
X147750000Y-74100000D03*
D37*
X71600000Y-67050000D03*
X71600000Y-64550000D03*
X74700000Y-71650000D03*
X74700000Y-69150000D03*
X74700000Y-73850000D03*
X74700000Y-76350000D03*
D12*
X81450000Y-57200000D03*
X78950000Y-57200000D03*
D37*
X82200000Y-59150000D03*
X82200000Y-61650000D03*
D12*
X127750000Y-60400000D03*
X125250000Y-60400000D03*
X130950000Y-62700000D03*
X133450000Y-62700000D03*
X79850000Y-79900000D03*
X77350000Y-79900000D03*
D37*
X83900000Y-65450000D03*
X83900000Y-62950000D03*
D12*
X83950000Y-85900000D03*
X81450000Y-85900000D03*
D37*
X86000000Y-65450000D03*
X86000000Y-62950000D03*
X119900000Y-66950000D03*
X119900000Y-64450000D03*
X84300000Y-74850000D03*
X84300000Y-77350000D03*
D12*
X91950000Y-59400000D03*
X94450000Y-59400000D03*
X86850000Y-71800000D03*
X84350000Y-71800000D03*
X92450000Y-54900000D03*
X89950000Y-54900000D03*
D37*
X126300000Y-70150000D03*
X126300000Y-72650000D03*
D12*
X133250000Y-68300000D03*
X130750000Y-68300000D03*
D37*
X95000000Y-85850000D03*
X95000000Y-83350000D03*
X98200000Y-72350000D03*
X98200000Y-74850000D03*
D12*
X123050000Y-79300000D03*
X125550000Y-79300000D03*
D37*
X89900000Y-83350000D03*
X89900000Y-80850000D03*
X94000000Y-70450000D03*
X94000000Y-72950000D03*
D12*
X128350000Y-75600000D03*
X130850000Y-75600000D03*
X89850000Y-75200000D03*
X87350000Y-75200000D03*
D37*
X136300000Y-77650000D03*
X136300000Y-80150000D03*
X96600000Y-118150000D03*
X96600000Y-120650000D03*
X101800000Y-118750000D03*
X101800000Y-121250000D03*
X107200000Y-118550000D03*
X107200000Y-121050000D03*
D12*
X123150000Y-98800000D03*
X125650000Y-98800000D03*
D37*
X59100000Y-72950000D03*
X59100000Y-75450000D03*
X98300000Y-77050000D03*
X98300000Y-79550000D03*
D12*
X71350000Y-127200000D03*
X68850000Y-127200000D03*
D15*
X144850000Y-92100000D03*
X147550000Y-92100000D03*
D16*
X64900000Y-78150000D03*
X64900000Y-80850000D03*
D15*
X82550000Y-70000000D03*
X79850000Y-70000000D03*
X87650000Y-55000000D03*
X84950000Y-55000000D03*
X130850000Y-70700000D03*
X133550000Y-70700000D03*
D16*
X72500000Y-83050000D03*
X72500000Y-80350000D03*
X74300000Y-83050000D03*
X74300000Y-80350000D03*
D15*
X147950000Y-76000000D03*
X145250000Y-76000000D03*
X145150000Y-71900000D03*
X147850000Y-71900000D03*
X78850000Y-55200000D03*
X81550000Y-55200000D03*
D16*
X132700000Y-93750000D03*
X132700000Y-91050000D03*
D15*
X94550000Y-61300000D03*
X97250000Y-61300000D03*
X125150000Y-89100000D03*
X127850000Y-89100000D03*
X74550000Y-62500000D03*
X71850000Y-62500000D03*
D16*
X72900000Y-69050000D03*
X72900000Y-71750000D03*
D15*
X97350000Y-57400000D03*
X94650000Y-57400000D03*
D16*
X70200000Y-69150000D03*
X70200000Y-71850000D03*
D15*
X67750000Y-69100000D03*
X65050000Y-69100000D03*
X122550000Y-58100000D03*
X119850000Y-58100000D03*
X124950000Y-58000000D03*
X127650000Y-58000000D03*
X88850000Y-86900000D03*
X86150000Y-86900000D03*
X91450000Y-68200000D03*
X88750000Y-68200000D03*
D16*
X121900000Y-70850000D03*
X121900000Y-68150000D03*
X91000000Y-87850000D03*
X91000000Y-85150000D03*
X91600000Y-70450000D03*
X91600000Y-73150000D03*
D15*
X123050000Y-75500000D03*
X125750000Y-75500000D03*
D16*
X93000000Y-83250000D03*
X93000000Y-85950000D03*
X96100000Y-73050000D03*
X96100000Y-70350000D03*
D15*
X125750000Y-77400000D03*
X123050000Y-77400000D03*
D16*
X101200000Y-91350000D03*
X101200000Y-88650000D03*
X99000000Y-91350000D03*
X99000000Y-88650000D03*
X98500000Y-120750000D03*
X98500000Y-118050000D03*
X103800000Y-121350000D03*
X103800000Y-118650000D03*
X96700000Y-91350000D03*
X96700000Y-88650000D03*
X121100000Y-91150000D03*
X121100000Y-93850000D03*
D15*
X130650000Y-98800000D03*
X127950000Y-98800000D03*
D16*
X121100000Y-95950000D03*
X121100000Y-98650000D03*
X59200000Y-68250000D03*
X59200000Y-70950000D03*
X61000000Y-72750000D03*
X61000000Y-75450000D03*
D15*
X66850000Y-67100000D03*
X69550000Y-67100000D03*
X107750000Y-84900000D03*
X105050000Y-84900000D03*
X106450000Y-124400000D03*
X109150000Y-124400000D03*
D38*
X76900000Y-71895000D03*
X76900000Y-73165000D03*
X76900000Y-74435000D03*
X76900000Y-75705000D03*
X82300000Y-75705000D03*
X82300000Y-74435000D03*
X82300000Y-73165000D03*
X82300000Y-71895000D03*
X84300000Y-56895000D03*
X84300000Y-58165000D03*
X84300000Y-59435000D03*
X84300000Y-60705000D03*
X89700000Y-60705000D03*
X89700000Y-59435000D03*
X89700000Y-58165000D03*
X89700000Y-56895000D03*
D26*
X91695000Y-80800000D03*
X92965000Y-80800000D03*
X94235000Y-80800000D03*
X95505000Y-80800000D03*
X95505000Y-75400000D03*
X94235000Y-75400000D03*
X92965000Y-75400000D03*
X91695000Y-75400000D03*
D38*
X128700000Y-77595000D03*
X128700000Y-78865000D03*
X128700000Y-80135000D03*
X128700000Y-81405000D03*
X134100000Y-81405000D03*
X134100000Y-80135000D03*
X134100000Y-78865000D03*
X134100000Y-77595000D03*
D37*
X145500000Y-102650000D03*
X145500000Y-105150000D03*
D27*
X139700000Y-126100000D03*
D28*
X139700000Y-128640000D03*
X139700000Y-131180000D03*
D39*
X61300000Y-69050000D03*
X61300000Y-70950000D03*
X63300000Y-70000000D03*
D40*
X141250000Y-97700000D03*
D41*
X147550000Y-97700000D03*
X147550000Y-95400000D03*
X147550000Y-100000000D03*
D13*
X131766000Y-53848000D03*
X124266000Y-53848000D03*
D14*
X128016000Y-53848000D03*
D16*
X82600000Y-81050000D03*
X82600000Y-83750000D03*
D15*
X85950000Y-79300000D03*
X83250000Y-79300000D03*
X124350000Y-72900000D03*
X121650000Y-72900000D03*
X131450000Y-73600000D03*
X128750000Y-73600000D03*
D35*
X60000000Y-57000000D03*
X137000000Y-57000000D03*
D16*
X111800000Y-127050000D03*
X111800000Y-124350000D03*
X113600000Y-127050000D03*
X113600000Y-124350000D03*
X115700000Y-125250000D03*
X115700000Y-122550000D03*
D12*
X81554000Y-122682000D03*
X84054000Y-122682000D03*
D37*
X83566000Y-110470000D03*
X83566000Y-107970000D03*
D15*
X75264000Y-109982000D03*
X72564000Y-109982000D03*
X72564000Y-107950000D03*
X75264000Y-107950000D03*
D16*
X80264000Y-108124000D03*
X80264000Y-110824000D03*
D42*
X72306000Y-112080000D03*
X72306000Y-113030000D03*
X72306000Y-113980000D03*
X74506000Y-113980000D03*
X74506000Y-112080000D03*
X74506000Y-113030000D03*
D43*
X57658000Y-123106000D03*
X57658000Y-125306000D03*
D15*
X68950000Y-124500000D03*
X66250000Y-124500000D03*
D44*
X54900000Y-119500000D03*
D45*
X54900000Y-116960000D03*
X54900000Y-114420000D03*
X54900000Y-111880000D03*
X54900000Y-109340000D03*
X54900000Y-106800000D03*
D46*
X62484000Y-131318000D03*
D47*
X59944000Y-131318000D03*
D48*
X69650000Y-84450000D03*
X66750000Y-84450000D03*
X66750000Y-86750000D03*
X69650000Y-86750000D03*
D16*
X76708000Y-111934000D03*
X76708000Y-114634000D03*
D12*
X92650000Y-92500000D03*
X90150000Y-92500000D03*
D15*
X89950000Y-94700000D03*
X92650000Y-94700000D03*
D16*
X89900000Y-99650000D03*
X89900000Y-96950000D03*
X92300000Y-99650000D03*
X92300000Y-96950000D03*
D11*
X84500000Y-97400000D03*
X85000000Y-97400000D03*
X85500000Y-97400000D03*
X86000000Y-97400000D03*
X86500000Y-97400000D03*
X86500000Y-93000000D03*
X86000000Y-93000000D03*
X85500000Y-93000000D03*
X85000000Y-93000000D03*
X84500000Y-93000000D03*
D37*
X81400000Y-95850000D03*
X81400000Y-93350000D03*
D16*
X79300000Y-88150000D03*
X79300000Y-90850000D03*
X79400000Y-93250000D03*
X79400000Y-95950000D03*
D49*
X73650000Y-61000000D03*
X75550000Y-61000000D03*
X74600000Y-59000000D03*
D39*
X132800000Y-59850000D03*
X132800000Y-57950000D03*
X130800000Y-58900000D03*
D50*
X69596000Y-109252000D03*
X69596000Y-113252000D03*
D16*
X82500000Y-88450000D03*
X82500000Y-91150000D03*
D51*
X83026000Y-113284000D03*
X79026000Y-113284000D03*
X64738000Y-116332000D03*
X60738000Y-116332000D03*
D22*
X74140000Y-133910000D03*
X74140000Y-131630000D03*
X74140000Y-129350000D03*
D52*
X67840000Y-131630000D03*
D53*
X145600000Y-82650000D03*
X145600000Y-88750000D03*
X145600000Y-68550000D03*
X145600000Y-62450000D03*
D12*
X120050000Y-110100000D03*
X122550000Y-110100000D03*
D27*
X126900000Y-108300000D03*
D28*
X126900000Y-110840000D03*
X126900000Y-113380000D03*
X126900000Y-115920000D03*
D27*
X65700000Y-61800000D03*
D28*
X68240000Y-61800000D03*
D38*
X130100000Y-96605000D03*
X130100000Y-95335000D03*
X130100000Y-94065000D03*
X130100000Y-92795000D03*
X124700000Y-92795000D03*
X124700000Y-94065000D03*
X124700000Y-95335000D03*
X124700000Y-96605000D03*
D37*
X81900000Y-128850000D03*
X81900000Y-126350000D03*
X87700000Y-114050000D03*
X87700000Y-111550000D03*
D12*
X118550000Y-118300000D03*
X121050000Y-118300000D03*
D37*
X109500000Y-108750000D03*
X109500000Y-106250000D03*
X128700000Y-119450000D03*
X128700000Y-121950000D03*
X103100000Y-112850000D03*
X103100000Y-110350000D03*
D12*
X106750000Y-115400000D03*
X104250000Y-115400000D03*
D37*
X103100000Y-105250000D03*
X103100000Y-107750000D03*
D27*
X121200000Y-103600000D03*
D28*
X123740000Y-103600000D03*
X126280000Y-103600000D03*
X128820000Y-103600000D03*
D16*
X101100000Y-115350000D03*
X101100000Y-112650000D03*
X91200000Y-111350000D03*
X91200000Y-114050000D03*
D54*
X109450000Y-110650000D03*
X109450000Y-111150000D03*
X109450000Y-111650000D03*
X109450000Y-112150000D03*
X109450000Y-112650000D03*
X109450000Y-113150000D03*
X109450000Y-113650000D03*
X109450000Y-114150000D03*
X109450000Y-114650000D03*
X109450000Y-115150000D03*
X109450000Y-115650000D03*
X109450000Y-116150000D03*
D55*
X111050000Y-117750000D03*
X111550000Y-117750000D03*
X112050000Y-117750000D03*
X112550000Y-117750000D03*
X113050000Y-117750000D03*
X113550000Y-117750000D03*
X114050000Y-117750000D03*
X114550000Y-117750000D03*
X115050000Y-117750000D03*
X115550000Y-117750000D03*
X116050000Y-117750000D03*
X116550000Y-117750000D03*
D54*
X118150000Y-116150000D03*
X118150000Y-115650000D03*
X118150000Y-115150000D03*
X118150000Y-114650000D03*
X118150000Y-114150000D03*
X118150000Y-113650000D03*
X118150000Y-113150000D03*
X118150000Y-112650000D03*
X118150000Y-112150000D03*
X118150000Y-111650000D03*
X118150000Y-111150000D03*
X118150000Y-110650000D03*
D55*
X116550000Y-109050000D03*
X116050000Y-109050000D03*
X115550000Y-109050000D03*
X115050000Y-109050000D03*
X114550000Y-109050000D03*
X114050000Y-109050000D03*
X113550000Y-109050000D03*
X113050000Y-109050000D03*
X112550000Y-109050000D03*
X112050000Y-109050000D03*
X111550000Y-109050000D03*
X111050000Y-109050000D03*
D56*
X106300000Y-111900000D03*
X106300000Y-106700000D03*
D15*
X105150000Y-82600000D03*
X107850000Y-82600000D03*
X107450000Y-102100000D03*
X110150000Y-102100000D03*
D27*
X102500000Y-102000000D03*
D28*
X105040000Y-102000000D03*
D57*
X74500000Y-126000000D03*
X78500000Y-126000000D03*
D50*
X78400000Y-129100000D03*
X78400000Y-133100000D03*
D58*
X70584000Y-117094000D03*
X67084000Y-117094000D03*
D16*
X78600000Y-67150000D03*
X78600000Y-64450000D03*
X74700000Y-64350000D03*
X74700000Y-67050000D03*
D15*
X73850000Y-57600000D03*
X76550000Y-57600000D03*
X122550000Y-59900000D03*
X119850000Y-59900000D03*
M02*
