G04 #@! TF.FileFunction,Soldermask,Bot*
%FSLAX46Y46*%
G04 Gerber Fmt 4.6, Leading zero omitted, Abs format (unit mm)*
G04 Created by KiCad (PCBNEW 4.0.7) date 10/02/19 14:12:40*
%MOMM*%
%LPD*%
G01*
G04 APERTURE LIST*
%ADD10C,0.100000*%
%ADD11C,1.924000*%
%ADD12C,3.400000*%
%ADD13R,2.100000X2.100000*%
%ADD14O,2.100000X2.100000*%
%ADD15C,1.900000*%
%ADD16C,5.400000*%
%ADD17R,3.400000X3.400000*%
%ADD18C,4.464000*%
%ADD19R,3.900000X3.900000*%
%ADD20R,2.900000X5.480000*%
%ADD21C,0.254000*%
G04 APERTURE END LIST*
D10*
D11*
X69342000Y-138430000D03*
X71882000Y-138430000D03*
X74422000Y-138430000D03*
X76962000Y-138430000D03*
X79502000Y-138430000D03*
X82042000Y-138430000D03*
X84582000Y-138430000D03*
X87122000Y-138430000D03*
X89662000Y-138430000D03*
X92202000Y-138430000D03*
X94742000Y-138430000D03*
X97282000Y-138430000D03*
X99822000Y-138430000D03*
X102362000Y-138430000D03*
X104902000Y-138430000D03*
X107442000Y-138430000D03*
X109982000Y-138430000D03*
X112522000Y-138430000D03*
X115062000Y-138430000D03*
X117602000Y-138430000D03*
X69342000Y-123190000D03*
X71882000Y-123190000D03*
X74422000Y-123190000D03*
X76962000Y-123190000D03*
X79502000Y-123190000D03*
X82042000Y-123190000D03*
X84582000Y-123190000D03*
X87122000Y-123190000D03*
X89662000Y-123190000D03*
X92202000Y-123190000D03*
X94742000Y-123190000D03*
X97282000Y-123190000D03*
X99822000Y-123190000D03*
X102362000Y-123190000D03*
X104902000Y-123190000D03*
X107442000Y-123190000D03*
X109982000Y-123190000D03*
X112522000Y-123190000D03*
X115062000Y-123190000D03*
X117602000Y-123190000D03*
D12*
X66487040Y-73573640D03*
X59055000Y-73875900D03*
X54864000Y-68580000D03*
X58988960Y-64211200D03*
X66639440Y-64770000D03*
D13*
X143421100Y-96164400D03*
D14*
X145961100Y-96164400D03*
X143421100Y-98704400D03*
X145961100Y-98704400D03*
X143421100Y-101244400D03*
X145961100Y-101244400D03*
X143421100Y-103784400D03*
X145961100Y-103784400D03*
X143421100Y-106324400D03*
X145961100Y-106324400D03*
D13*
X99568000Y-109220000D03*
D14*
X102108000Y-109220000D03*
X104648000Y-109220000D03*
X107188000Y-109220000D03*
D15*
X71079360Y-110837980D03*
X71079360Y-115717980D03*
D16*
X53000000Y-53000000D03*
X147000000Y-53000000D03*
X53000000Y-147000000D03*
X147000000Y-147000000D03*
D17*
X145389600Y-137007600D03*
D12*
X145389600Y-131927600D03*
D13*
X137020300Y-137299700D03*
D14*
X139560300Y-137299700D03*
D18*
X60000000Y-102000000D03*
X60000000Y-146000000D03*
X137000000Y-102000000D03*
X137000000Y-146000000D03*
D19*
X126288800Y-140474700D03*
X126288800Y-146474700D03*
X130988800Y-143474700D03*
D13*
X74310240Y-53136800D03*
D14*
X74310240Y-55676800D03*
D13*
X77216000Y-68580000D03*
D14*
X74676000Y-68580000D03*
X72136000Y-68580000D03*
D13*
X58562240Y-134924800D03*
D14*
X56022240Y-134924800D03*
X58562240Y-132384800D03*
X56022240Y-132384800D03*
X58562240Y-129844800D03*
X56022240Y-129844800D03*
X58562240Y-127304800D03*
X56022240Y-127304800D03*
X58562240Y-124764800D03*
X56022240Y-124764800D03*
D13*
X126339600Y-133324600D03*
D14*
X128879600Y-133324600D03*
D13*
X63703200Y-135597900D03*
D14*
X63703200Y-138137900D03*
X63703200Y-140677900D03*
D20*
X68560640Y-53238400D03*
X61060640Y-53238400D03*
X135017200Y-53225700D03*
X127517200Y-53225700D03*
D21*
G36*
X56702960Y-76987400D02*
X50810160Y-76987400D01*
X50810160Y-51313080D01*
X56702960Y-51313080D01*
X56702960Y-76987400D01*
X56702960Y-76987400D01*
G37*
X56702960Y-76987400D02*
X50810160Y-76987400D01*
X50810160Y-51313080D01*
X56702960Y-51313080D01*
X56702960Y-76987400D01*
G36*
X149225373Y-76375260D02*
X139192377Y-76375260D01*
X139267832Y-50919046D01*
X149300818Y-50688659D01*
X149225373Y-76375260D01*
X149225373Y-76375260D01*
G37*
X149225373Y-76375260D02*
X139192377Y-76375260D01*
X139267832Y-50919046D01*
X149300818Y-50688659D01*
X149225373Y-76375260D01*
M02*
