G04 #@! TF.FileFunction,Copper,L2,Bot,Signal*
%FSLAX46Y46*%
G04 Gerber Fmt 4.6, Leading zero omitted, Abs format (unit mm)*
G04 Created by KiCad (PCBNEW 4.0.7) date 01/14/20 09:19:22*
%MOMM*%
%LPD*%
G01*
G04 APERTURE LIST*
%ADD10C,0.100000*%
%ADD11R,1.700000X1.700000*%
%ADD12O,1.700000X1.700000*%
%ADD13C,1.524000*%
%ADD14C,1.520000*%
%ADD15C,2.700000*%
%ADD16R,2.500000X5.080000*%
%ADD17C,3.000000*%
%ADD18C,5.000000*%
%ADD19C,4.064000*%
%ADD20R,3.500000X3.500000*%
%ADD21R,2.600000X2.000000*%
%ADD22O,2.600000X2.000000*%
%ADD23R,2.000000X2.600000*%
%ADD24O,2.000000X2.600000*%
%ADD25C,0.600000*%
%ADD26C,0.350000*%
%ADD27C,0.500000*%
%ADD28C,0.250000*%
G04 APERTURE END LIST*
D10*
D11*
X52850000Y-64200000D03*
D12*
X55390000Y-64200000D03*
D13*
X135890000Y-106880000D03*
X133350000Y-106880000D03*
X130810000Y-106880000D03*
X128270000Y-106880000D03*
X125730000Y-106880000D03*
X123190000Y-106880000D03*
X120650000Y-106880000D03*
X118110000Y-106880000D03*
X115570000Y-106880000D03*
X113030000Y-106880000D03*
X110490000Y-106880000D03*
X107950000Y-106880000D03*
X105410000Y-106880000D03*
X102870000Y-106880000D03*
X100330000Y-106880000D03*
X97790000Y-106880000D03*
X95250000Y-106880000D03*
X92710000Y-106880000D03*
X90170000Y-106880000D03*
X87630000Y-106880000D03*
X135890000Y-122120000D03*
X133350000Y-122120000D03*
X130810000Y-122120000D03*
X128270000Y-122120000D03*
X125730000Y-122120000D03*
X123190000Y-122120000D03*
X120650000Y-122120000D03*
X118110000Y-122120000D03*
X115570000Y-122120000D03*
X113030000Y-122120000D03*
X110490000Y-122120000D03*
X107950000Y-122120000D03*
X105410000Y-122120000D03*
X102870000Y-122120000D03*
X100330000Y-122120000D03*
X97790000Y-122120000D03*
X95250000Y-122120000D03*
X92710000Y-122120000D03*
X90170000Y-122120000D03*
X87630000Y-122120000D03*
D14*
X101660000Y-128590000D03*
X104200000Y-128590000D03*
X104200000Y-130590000D03*
X101660000Y-130590000D03*
D15*
X96930000Y-133290000D03*
X108930000Y-133290000D03*
D11*
X132588000Y-128524000D03*
D12*
X132588000Y-131064000D03*
X130048000Y-128524000D03*
X130048000Y-131064000D03*
X127508000Y-128524000D03*
X127508000Y-131064000D03*
X124968000Y-128524000D03*
X124968000Y-131064000D03*
X122428000Y-128524000D03*
X122428000Y-131064000D03*
X119888000Y-128524000D03*
X119888000Y-131064000D03*
X117348000Y-128524000D03*
X117348000Y-131064000D03*
D16*
X72584000Y-53848000D03*
X65084000Y-53848000D03*
D17*
X68326000Y-73914000D03*
X60198000Y-73914000D03*
X54864000Y-68580000D03*
X60198000Y-65532000D03*
X68072000Y-65532000D03*
D18*
X53000000Y-53000000D03*
X147000000Y-53000000D03*
X53000000Y-132000000D03*
X147000000Y-132000000D03*
D11*
X77070000Y-133200000D03*
D12*
X77070000Y-130660000D03*
D19*
X60000000Y-102000000D03*
X137000000Y-102000000D03*
D20*
X87725000Y-127925000D03*
X87725000Y-133925000D03*
X92425000Y-130925000D03*
D11*
X77978000Y-69088000D03*
D12*
X75438000Y-69088000D03*
X72898000Y-69088000D03*
D11*
X103100000Y-97800000D03*
D12*
X100560000Y-97800000D03*
D11*
X144050000Y-122450000D03*
D12*
X144050000Y-119910000D03*
X144050000Y-117370000D03*
D16*
X131766000Y-53848000D03*
X124266000Y-53848000D03*
D19*
X60000000Y-58000000D03*
X137000000Y-58000000D03*
D11*
X77978000Y-125984000D03*
D12*
X75438000Y-125984000D03*
D21*
X55626000Y-119380000D03*
D22*
X55626000Y-116840000D03*
X55626000Y-114300000D03*
X55626000Y-111760000D03*
X55626000Y-109220000D03*
X55626000Y-106680000D03*
D23*
X62484000Y-131318000D03*
D24*
X59944000Y-131318000D03*
D25*
X99405440Y-61244480D03*
X96433640Y-70002400D03*
X141010640Y-77114400D03*
X139232640Y-77114400D03*
X119674640Y-85242400D03*
X129707640Y-86258400D03*
X137358120Y-86624160D03*
X135270240Y-86639400D03*
X107400000Y-98800000D03*
X107200000Y-97500000D03*
X107147360Y-96215200D03*
X107134660Y-94927420D03*
X107121960Y-93647260D03*
X107121960Y-92572840D03*
X58850000Y-127725000D03*
X71960000Y-133580000D03*
X71890000Y-132360000D03*
X71810000Y-131020000D03*
X71680000Y-129480000D03*
X74676000Y-54102000D03*
X74800000Y-55250000D03*
X74840000Y-56900000D03*
X74590000Y-58810000D03*
X84836000Y-108458000D03*
X84650000Y-133000000D03*
X84850000Y-131050000D03*
X85200000Y-129350000D03*
X84900000Y-126500000D03*
X85250000Y-125000000D03*
X85850000Y-123400000D03*
X85450000Y-121450000D03*
X85800000Y-120250000D03*
X85550000Y-118200000D03*
X86050000Y-116300000D03*
X86000000Y-114700000D03*
X85500000Y-113100000D03*
X85600000Y-111150000D03*
X85700000Y-109200000D03*
X66548000Y-122682000D03*
X67818000Y-122682000D03*
X70104000Y-122428000D03*
X81534000Y-119380000D03*
X81280000Y-118364000D03*
X81280000Y-117348000D03*
X84328000Y-118618000D03*
X84582000Y-119888000D03*
X84582000Y-121412000D03*
X74168000Y-117602000D03*
X75692000Y-118110000D03*
X77470000Y-121158000D03*
X76962000Y-119888000D03*
X77470000Y-118364000D03*
X78232000Y-117094000D03*
X78994000Y-115316000D03*
X71374000Y-123444000D03*
X54864000Y-100838000D03*
X55626000Y-102108000D03*
X56388000Y-103124000D03*
X58166000Y-104902000D03*
X59944000Y-105156000D03*
X61976000Y-105156000D03*
X64008000Y-105156000D03*
X65786000Y-105664000D03*
X67818000Y-105918000D03*
X69850000Y-105918000D03*
X71882000Y-105664000D03*
X74168000Y-105664000D03*
X76454000Y-105664000D03*
X77724000Y-105664000D03*
X79248000Y-105664000D03*
X81280000Y-105664000D03*
X82042000Y-105664000D03*
X83058000Y-106426000D03*
X64516000Y-111506000D03*
X63246000Y-110998000D03*
X61468000Y-110490000D03*
X60198000Y-109474000D03*
X61976000Y-108204000D03*
X63754000Y-108204000D03*
X65024000Y-108966000D03*
X65786000Y-110236000D03*
X66294000Y-111760000D03*
X66548000Y-126492000D03*
X60452000Y-113284000D03*
X58928000Y-125730000D03*
X78232000Y-110998000D03*
X77470000Y-110236000D03*
X71120000Y-113538000D03*
X71120000Y-114554000D03*
X71120000Y-108458000D03*
X59690000Y-91948000D03*
X60960000Y-91948000D03*
X61214000Y-90932000D03*
X55626000Y-86868000D03*
X56896000Y-87122000D03*
X59182000Y-87630000D03*
X60452000Y-88138000D03*
X86614000Y-97028000D03*
X85090000Y-96774000D03*
X83566000Y-96774000D03*
X82296000Y-96774000D03*
X80772000Y-96774000D03*
X79248000Y-96774000D03*
X77724000Y-96774000D03*
X75692000Y-96520000D03*
X74168000Y-96012000D03*
X73406000Y-94996000D03*
X72898000Y-93980000D03*
X72136000Y-92202000D03*
X71120000Y-91440000D03*
X70358000Y-90424000D03*
X69342000Y-89662000D03*
X67818000Y-89662000D03*
X88138000Y-97282000D03*
X111506000Y-89154000D03*
X111506000Y-90424000D03*
X112014000Y-91948000D03*
X112014000Y-93218000D03*
X112014000Y-94742000D03*
X111760000Y-96266000D03*
X112522000Y-97790000D03*
X115570000Y-98044000D03*
X117856000Y-97790000D03*
X119380000Y-97028000D03*
X120904000Y-96012000D03*
X122682000Y-95250000D03*
X124206000Y-94234000D03*
X126238000Y-93980000D03*
X128524000Y-93726000D03*
X130810000Y-93726000D03*
X132842000Y-93472000D03*
X134874000Y-93218000D03*
X136652000Y-93218000D03*
X137922000Y-93218000D03*
X140970000Y-92202000D03*
X144018000Y-92202000D03*
X145796000Y-92202000D03*
X147066000Y-92202000D03*
X147828000Y-92964000D03*
X148082000Y-94488000D03*
X114554000Y-97536000D03*
X113538000Y-97536000D03*
X116078000Y-102108000D03*
X114808000Y-102108000D03*
X113284000Y-101600000D03*
X112268000Y-101600000D03*
X111252000Y-100584000D03*
X110236000Y-91948000D03*
X110236000Y-93726000D03*
X110236000Y-95504000D03*
X110236000Y-97028000D03*
X110236000Y-98552000D03*
X110490000Y-99822000D03*
X132334000Y-62230000D03*
X123698000Y-61976000D03*
X122428000Y-61214000D03*
X80180000Y-101910000D03*
X83300000Y-101500000D03*
X104648000Y-96012000D03*
X102870000Y-96012000D03*
X83312000Y-93726000D03*
X85598000Y-93726000D03*
X88138000Y-93726000D03*
X101092000Y-96012000D03*
X99568000Y-95504000D03*
X98298000Y-94742000D03*
X97282000Y-93980000D03*
X95504000Y-93726000D03*
X93218000Y-93726000D03*
X91440000Y-93726000D03*
X89662000Y-93726000D03*
X96774000Y-91948000D03*
X95250000Y-91694000D03*
X93726000Y-91694000D03*
X91948000Y-91694000D03*
X89916000Y-91694000D03*
X88138000Y-91694000D03*
X86360000Y-91694000D03*
X84582000Y-91694000D03*
X72898000Y-90678000D03*
X74168000Y-90932000D03*
X75692000Y-90932000D03*
X77724000Y-90932000D03*
X80264000Y-90932000D03*
X81534000Y-90932000D03*
X83312000Y-90932000D03*
X71882000Y-89662000D03*
X70866000Y-88392000D03*
X70104000Y-87884000D03*
X68834000Y-87884000D03*
X67310000Y-87884000D03*
X66040000Y-87884000D03*
X65024000Y-87884000D03*
X97536000Y-91440000D03*
X61976000Y-83312000D03*
X62738000Y-84328000D03*
X62738000Y-86106000D03*
X63754000Y-92710000D03*
X100838000Y-91440000D03*
X101854000Y-91948000D03*
X58674000Y-79756000D03*
X59436000Y-78232000D03*
X60706000Y-77470000D03*
X62738000Y-76708000D03*
X62738000Y-75184000D03*
X62992000Y-73660000D03*
X65278000Y-72136000D03*
X65024000Y-70358000D03*
X65024000Y-69088000D03*
X65278000Y-67056000D03*
X65278000Y-65278000D03*
X65786000Y-63754000D03*
X66802000Y-62992000D03*
X68072000Y-62738000D03*
X69596000Y-62484000D03*
X71120000Y-62484000D03*
X72390000Y-62230000D03*
X65024000Y-79248000D03*
X65532000Y-77470000D03*
X65532000Y-75692000D03*
X65532000Y-74422000D03*
X65532000Y-73152000D03*
X105664000Y-94996000D03*
X64300000Y-81300000D03*
X64200000Y-82500000D03*
X64200000Y-84400000D03*
X64250000Y-86050000D03*
X66900000Y-85350000D03*
X65950000Y-85950000D03*
X52425600Y-70129400D03*
X52146200Y-71805800D03*
X51917600Y-73710800D03*
X51866800Y-75895200D03*
X51638200Y-77901800D03*
X51790600Y-79857600D03*
X52019200Y-82092800D03*
X53136800Y-82753200D03*
X54864000Y-57886600D03*
X56108600Y-56438800D03*
X57785000Y-54991000D03*
X59436000Y-54076600D03*
X55219600Y-60502800D03*
X57810400Y-61696600D03*
X60858400Y-61620400D03*
X62941200Y-60401200D03*
X63423800Y-58928000D03*
X62941200Y-56438800D03*
X61976000Y-54660800D03*
X139725400Y-54457600D03*
X137668000Y-54660800D03*
X134696200Y-55194200D03*
X134239000Y-56134000D03*
X133832600Y-58318400D03*
X133908800Y-59867800D03*
X133985000Y-61671200D03*
X122478800Y-67640200D03*
X141224000Y-60452000D03*
X141732000Y-58420000D03*
X141732000Y-56388000D03*
X140716000Y-62484000D03*
X138125200Y-63220600D03*
X139065000Y-62357000D03*
X134696200Y-64389000D03*
X134035800Y-63195200D03*
X122428000Y-57708800D03*
X123774200Y-57556400D03*
X143090900Y-51879500D03*
X122174000Y-50800000D03*
X126111000Y-50800000D03*
X126365000Y-52197000D03*
X126365000Y-53848000D03*
X126492000Y-55626000D03*
X129667000Y-55499000D03*
X129794000Y-53848000D03*
X129540000Y-52578000D03*
X129540000Y-51181000D03*
X134366000Y-51054000D03*
X136271000Y-51308000D03*
X138049000Y-51435000D03*
X139700000Y-51435000D03*
X140970000Y-51181000D03*
X141732000Y-54356000D03*
X73660000Y-60198000D03*
X72136000Y-60198000D03*
X70612000Y-60452000D03*
X68834000Y-60706000D03*
X67310000Y-61214000D03*
X65786000Y-61722000D03*
X64516000Y-62484000D03*
X63500000Y-63246000D03*
X62992000Y-72390000D03*
X62992000Y-70866000D03*
X62992000Y-69088000D03*
X63246000Y-67564000D03*
X63246000Y-66294000D03*
X63500000Y-64516000D03*
X57150000Y-71882000D03*
X56642000Y-70866000D03*
X51420000Y-61512000D03*
X50980000Y-66770000D03*
X51150000Y-68700000D03*
X62484000Y-51816000D03*
X67056000Y-52070000D03*
X67056000Y-53848000D03*
X70358000Y-55626000D03*
X70612000Y-54102000D03*
X70358000Y-52070000D03*
X105410000Y-51562000D03*
X103124000Y-51308000D03*
X100584000Y-51054000D03*
X97790000Y-51054000D03*
X94996000Y-51054000D03*
X92710000Y-51054000D03*
X90170000Y-51054000D03*
X88138000Y-51054000D03*
X85852000Y-51054000D03*
X83566000Y-51054000D03*
X81280000Y-51054000D03*
X78740000Y-51054000D03*
X76454000Y-51308000D03*
X74676000Y-52324000D03*
X83566000Y-61976000D03*
X84836000Y-55626000D03*
X62417960Y-79489300D03*
X70104000Y-80264000D03*
X68326000Y-80010000D03*
X66548000Y-80010000D03*
X64516000Y-80010000D03*
X100076000Y-64516000D03*
X101346000Y-65786000D03*
X101092000Y-68072000D03*
X101092000Y-69596000D03*
X101092000Y-71882000D03*
X101092000Y-74168000D03*
X101600000Y-76454000D03*
X101854000Y-78486000D03*
X102108000Y-80264000D03*
X102108000Y-81534000D03*
X101854000Y-83058000D03*
X101346000Y-85090000D03*
X100330000Y-86868000D03*
X101346000Y-88392000D03*
X80264000Y-63246000D03*
X80518000Y-64262000D03*
X80772000Y-66040000D03*
X80264000Y-69850000D03*
X80772000Y-72136000D03*
X81026000Y-73660000D03*
X80518000Y-75184000D03*
X80264000Y-76962000D03*
X52578000Y-78740000D03*
X53594000Y-77724000D03*
X54864000Y-76708000D03*
X56134000Y-75692000D03*
X77470000Y-84328000D03*
X75946000Y-84328000D03*
X74676000Y-84328000D03*
X73406000Y-84328000D03*
X72390000Y-84328000D03*
X72136000Y-82296000D03*
X73660000Y-82550000D03*
X74930000Y-82550000D03*
X80010000Y-57912000D03*
X79756000Y-56388000D03*
X79756000Y-55118000D03*
X80010000Y-53594000D03*
X83652360Y-87091520D03*
X83540600Y-85552280D03*
X83362800Y-81884520D03*
X83195160Y-80284320D03*
X83652360Y-89159080D03*
X83439000Y-83743800D03*
X127254000Y-73406000D03*
X127127000Y-72390000D03*
X127508000Y-71501000D03*
X120777000Y-82677000D03*
X120904000Y-81026000D03*
X121793000Y-79248000D03*
X121793000Y-77597000D03*
X122174000Y-76073000D03*
X122047000Y-74422000D03*
X121412000Y-59055000D03*
X121412000Y-60579000D03*
X121285000Y-61976000D03*
X121031000Y-63373000D03*
X121031000Y-65151000D03*
X120523000Y-67564000D03*
X120523000Y-69215000D03*
X119253000Y-71501000D03*
X121539000Y-57023000D03*
X121285000Y-51816000D03*
X121920000Y-53340000D03*
X121539000Y-55245000D03*
X109855000Y-51689000D03*
X109220000Y-52578000D03*
X108204000Y-53975000D03*
X107315000Y-55626000D03*
X107315000Y-57277000D03*
X107315000Y-58801000D03*
X107061000Y-59563000D03*
X106807000Y-60833000D03*
X106553000Y-62357000D03*
X104190800Y-74599800D03*
X105643680Y-92202000D03*
X104775000Y-91729560D03*
X104680000Y-88720000D03*
X104570000Y-87990000D03*
X104241600Y-84963000D03*
X103977440Y-83251040D03*
X104053640Y-80584040D03*
X104089200Y-78714600D03*
X104129840Y-76393040D03*
X148818600Y-69189600D03*
X148361400Y-58940700D03*
X143357600Y-54063900D03*
X144221200Y-55321200D03*
X145516600Y-56807100D03*
X146773900Y-56857900D03*
X148107400Y-57111900D03*
X148475700Y-60617100D03*
X148475700Y-62407800D03*
X148628100Y-64160400D03*
X148780500Y-65189100D03*
X148666200Y-67398900D03*
X120904000Y-50800000D03*
X118872000Y-50800000D03*
X117434360Y-50657760D03*
X114726720Y-50698400D03*
X112958880Y-50779680D03*
X110317280Y-50718720D03*
X108204000Y-51043840D03*
X96514920Y-59679840D03*
X94686120Y-59756040D03*
X94366080Y-58536840D03*
X94990920Y-53644800D03*
X94396560Y-54574440D03*
X94198440Y-56083200D03*
X94259400Y-57241440D03*
X92186760Y-58460640D03*
X92323920Y-53614320D03*
X92339160Y-54665880D03*
X92308680Y-55930800D03*
X92247720Y-57104280D03*
X128991360Y-67757040D03*
X127650240Y-67787520D03*
X126507240Y-67650360D03*
X124508260Y-67678300D03*
X127741680Y-70180200D03*
X128549400Y-69936360D03*
X140467080Y-70088760D03*
X139095480Y-70119240D03*
X136916160Y-70164960D03*
X135392160Y-70195440D03*
X134005320Y-70088760D03*
X132938520Y-69982080D03*
X131521200Y-70073520D03*
X130042920Y-69982080D03*
X129997200Y-67894200D03*
X105082340Y-72560180D03*
X106283760Y-72560180D03*
X107848400Y-72644000D03*
X109776260Y-72644000D03*
X111368840Y-72783700D03*
X113073180Y-72699880D03*
X115364260Y-72839580D03*
X116900960Y-72755760D03*
X118828820Y-72699880D03*
X120449340Y-72532240D03*
X121427240Y-75102720D03*
X119415560Y-74599800D03*
X117320060Y-74348340D03*
X115224560Y-74404220D03*
X112709960Y-74264520D03*
X110837980Y-74292460D03*
X109049820Y-74236580D03*
X107652820Y-74264520D03*
X105724960Y-74292460D03*
X105029000Y-62611000D03*
X105156000Y-63627000D03*
X105283000Y-65278000D03*
X105283000Y-67310000D03*
X105283000Y-68453000D03*
X105410000Y-70358000D03*
X104272080Y-71749920D03*
X116481860Y-86334600D03*
X119440960Y-76098400D03*
X114223800Y-51549300D03*
X114338100Y-72618600D03*
X114300000Y-71501000D03*
X114376200Y-68160900D03*
X114528600Y-65836800D03*
X114482880Y-62199520D03*
X114300000Y-60769500D03*
X114223800Y-57785000D03*
X114223800Y-56235600D03*
X114185700Y-54406800D03*
X114223800Y-52616100D03*
X103952040Y-55829200D03*
X136540240Y-91186000D03*
X98465640Y-69748400D03*
X98719640Y-70383400D03*
X89067640Y-68351400D03*
X89956640Y-67081400D03*
X131104640Y-86385400D03*
X119674640Y-80416400D03*
X123525280Y-87147400D03*
X134747000Y-77216000D03*
X128290320Y-82433160D03*
X97764600Y-84162900D03*
X92918280Y-81899760D03*
X99822000Y-81991200D03*
X98488500Y-73761600D03*
X96659700Y-73761600D03*
X102300000Y-116950000D03*
X106600000Y-113200000D03*
X107442000Y-90678000D03*
X107442000Y-87122000D03*
X147850000Y-111800000D03*
X148021040Y-87198200D03*
X92710000Y-99568000D03*
X95250000Y-112014000D03*
X113284000Y-132080000D03*
X102900000Y-117700000D03*
X107600000Y-114000000D03*
X108500000Y-90610000D03*
X108549440Y-87071200D03*
X107680760Y-82158840D03*
X107706160Y-79314040D03*
X116840000Y-133096000D03*
X92456000Y-112268000D03*
X121100000Y-126050000D03*
X101254560Y-52669440D03*
X105156000Y-52832000D03*
X124642880Y-68559680D03*
X126349760Y-68559680D03*
X100276660Y-76220320D03*
X90162380Y-74068940D03*
X125897640Y-89687400D03*
X121325640Y-89687400D03*
X134680960Y-79674720D03*
X132933440Y-79979520D03*
X101600000Y-121158000D03*
X109360000Y-121170000D03*
X58674000Y-112776000D03*
X65024000Y-118364000D03*
X65525000Y-126150000D03*
X61100000Y-127925000D03*
X55626000Y-121412000D03*
X59690000Y-119126000D03*
X79600000Y-122420000D03*
D26*
X98973640Y-67462400D02*
X98973640Y-61676280D01*
X98973640Y-61676280D02*
X99405440Y-61244480D01*
X96433640Y-70002400D02*
X98973640Y-67462400D01*
X139232640Y-77114400D02*
X141010640Y-77114400D01*
X120309640Y-85877400D02*
X119674640Y-85242400D01*
X129326640Y-85877400D02*
X120309640Y-85877400D01*
X129707640Y-86258400D02*
X129326640Y-85877400D01*
X135285480Y-86624160D02*
X137358120Y-86624160D01*
X135270240Y-86639400D02*
X135285480Y-86624160D01*
X107400000Y-98800000D02*
X107200000Y-97500000D01*
X107147360Y-96215200D02*
X107134660Y-94927420D01*
X107121960Y-93647260D02*
X107121960Y-92572840D01*
X127364000Y-131064000D02*
X126250000Y-129950000D01*
X126250000Y-129950000D02*
X126250000Y-126850000D01*
X126250000Y-126850000D02*
X127600000Y-125500000D01*
X127600000Y-125500000D02*
X130470000Y-125500000D01*
X130470000Y-125500000D02*
X133350000Y-122620000D01*
D27*
X71960000Y-132430000D02*
X71960000Y-133580000D01*
X71890000Y-132360000D02*
X71960000Y-132430000D01*
X71810000Y-129610000D02*
X71810000Y-131020000D01*
X71680000Y-129480000D02*
X71810000Y-129610000D01*
D26*
X74676000Y-54102000D02*
X74676000Y-52324000D01*
X74676000Y-55126000D02*
X74676000Y-54102000D01*
X74800000Y-55250000D02*
X74676000Y-55126000D01*
X74840000Y-58560000D02*
X74840000Y-56900000D01*
X74590000Y-58810000D02*
X74840000Y-58560000D01*
X133350000Y-122620000D02*
X133350000Y-122150000D01*
X133350000Y-122150000D02*
X132290000Y-120730000D01*
X90170000Y-117750000D02*
X90170000Y-107380000D01*
X93950000Y-121530000D02*
X90170000Y-117750000D01*
X93950000Y-123560000D02*
X93950000Y-121530000D01*
X94480000Y-124090000D02*
X93950000Y-123560000D01*
X98380000Y-124090000D02*
X94480000Y-124090000D01*
X99060000Y-123410000D02*
X98380000Y-124090000D01*
X99060000Y-120770000D02*
X99060000Y-123410000D01*
X99740000Y-120090000D02*
X99060000Y-120770000D01*
X107290000Y-120090000D02*
X99740000Y-120090000D01*
X107410000Y-119970000D02*
X107290000Y-120090000D01*
X110550000Y-119970000D02*
X107410000Y-119970000D01*
X111820000Y-121240000D02*
X110550000Y-119970000D01*
X111820000Y-123440000D02*
X111820000Y-121240000D01*
X112350000Y-123970000D02*
X111820000Y-123440000D01*
X116460000Y-123970000D02*
X112350000Y-123970000D01*
X116930000Y-123500000D02*
X116460000Y-123970000D01*
X116930000Y-121310000D02*
X116930000Y-123500000D01*
X117710000Y-120530000D02*
X116930000Y-121310000D01*
X120500000Y-120530000D02*
X117710000Y-120530000D01*
X121860000Y-121460000D02*
X120500000Y-120530000D01*
X121950000Y-123430000D02*
X121860000Y-121460000D01*
X122510000Y-124190000D02*
X121950000Y-123430000D01*
X126400000Y-124190000D02*
X122510000Y-124190000D01*
X126880000Y-123710000D02*
X126400000Y-124190000D01*
X126880000Y-121630000D02*
X126880000Y-123710000D01*
X127380000Y-120730000D02*
X126880000Y-121630000D01*
X132290000Y-120730000D02*
X127380000Y-120730000D01*
X90170000Y-107380000D02*
X90170000Y-107420000D01*
X90170000Y-107420000D02*
X91460000Y-108710000D01*
X91460000Y-108710000D02*
X93290000Y-108710000D01*
X93290000Y-108710000D02*
X94020000Y-107980000D01*
X94020000Y-107980000D02*
X94020000Y-106500000D01*
X94020000Y-106500000D02*
X94410000Y-105330000D01*
X94410000Y-105330000D02*
X101340000Y-105330000D01*
X101340000Y-105330000D02*
X101610000Y-106100000D01*
X101610000Y-106100000D02*
X101610000Y-108310000D01*
X101610000Y-108310000D02*
X101850000Y-108550000D01*
X101850000Y-108550000D02*
X108980000Y-108550000D01*
X108980000Y-108550000D02*
X109230000Y-108300000D01*
X109230000Y-108300000D02*
X109230000Y-106210000D01*
X109230000Y-106210000D02*
X109470000Y-105500000D01*
X109470000Y-105500000D02*
X113760000Y-105500000D01*
X113760000Y-105500000D02*
X114280000Y-106530000D01*
X114280000Y-106530000D02*
X114280000Y-108330000D01*
X114280000Y-108330000D02*
X114780000Y-108830000D01*
X114780000Y-108830000D02*
X119100000Y-108830000D01*
X119100000Y-108830000D02*
X119460000Y-108470000D01*
X119460000Y-108470000D02*
X119460000Y-106120000D01*
X119460000Y-106120000D02*
X119690000Y-105300000D01*
X119690000Y-105300000D02*
X126290000Y-105300000D01*
X126290000Y-105300000D02*
X127040000Y-106640000D01*
X127040000Y-106640000D02*
X127040000Y-108270000D01*
X127040000Y-108270000D02*
X127540000Y-108770000D01*
X127540000Y-108770000D02*
X131660000Y-108770000D01*
X131660000Y-108770000D02*
X132020000Y-108410000D01*
X132020000Y-108410000D02*
X132020000Y-106170000D01*
X132020000Y-106170000D02*
X132840000Y-105350000D01*
X132840000Y-105350000D02*
X136550000Y-105350000D01*
X136550000Y-105350000D02*
X137120000Y-105920000D01*
X137120000Y-105920000D02*
X137120000Y-108660000D01*
X137120000Y-108660000D02*
X133350000Y-112430000D01*
X133350000Y-112430000D02*
X133350000Y-122620000D01*
D28*
X133350000Y-122620000D02*
X133350000Y-122340000D01*
D26*
X84836000Y-108458000D02*
X84958000Y-108458000D01*
X84650000Y-133000000D02*
X87725000Y-133925000D01*
X84850000Y-129700000D02*
X84850000Y-131050000D01*
X85200000Y-129350000D02*
X84850000Y-129700000D01*
X84900000Y-125350000D02*
X84900000Y-126500000D01*
X85250000Y-125000000D02*
X84900000Y-125350000D01*
X85850000Y-121850000D02*
X85850000Y-123400000D01*
X85450000Y-121450000D02*
X85850000Y-121850000D01*
X85800000Y-118450000D02*
X85800000Y-120250000D01*
X85550000Y-118200000D02*
X85800000Y-118450000D01*
X86050000Y-114750000D02*
X86050000Y-116300000D01*
X86000000Y-114700000D02*
X86050000Y-114750000D01*
X85500000Y-111250000D02*
X85500000Y-113100000D01*
X85600000Y-111150000D02*
X85500000Y-111250000D01*
X84958000Y-108458000D02*
X85700000Y-109200000D01*
X127508000Y-131064000D02*
X127364000Y-131064000D01*
X127508000Y-131064000D02*
X126746000Y-131064000D01*
D27*
X69850000Y-122682000D02*
X67818000Y-122682000D01*
X70104000Y-122428000D02*
X69850000Y-122682000D01*
X81280000Y-117348000D02*
X81280000Y-118364000D01*
X84582000Y-121412000D02*
X84582000Y-119888000D01*
X77470000Y-118364000D02*
X75946000Y-118364000D01*
X75946000Y-118364000D02*
X75692000Y-118110000D01*
X76962000Y-118872000D02*
X76962000Y-119888000D01*
X77470000Y-118364000D02*
X76962000Y-118872000D01*
X78232000Y-116078000D02*
X78232000Y-117094000D01*
X78994000Y-115316000D02*
X78232000Y-116078000D01*
D26*
X54864000Y-100838000D02*
X55626000Y-101600000D01*
X55626000Y-101600000D02*
X55626000Y-102108000D01*
X56388000Y-103124000D02*
X58166000Y-104902000D01*
X59944000Y-105156000D02*
X61976000Y-105156000D01*
X64008000Y-105156000D02*
X64516000Y-105664000D01*
X64516000Y-105664000D02*
X65786000Y-105664000D01*
X67818000Y-105918000D02*
X69850000Y-105918000D01*
X71882000Y-105664000D02*
X74168000Y-105664000D01*
X76454000Y-105664000D02*
X77724000Y-105664000D01*
X79248000Y-105664000D02*
X81280000Y-105664000D01*
X82042000Y-105664000D02*
X82804000Y-106426000D01*
X82804000Y-106426000D02*
X83058000Y-106426000D01*
D27*
X71120000Y-113538000D02*
X68072000Y-113538000D01*
X63754000Y-111506000D02*
X64516000Y-111506000D01*
X63246000Y-110998000D02*
X63754000Y-111506000D01*
X61214000Y-110490000D02*
X61468000Y-110490000D01*
X60198000Y-109474000D02*
X61214000Y-110490000D01*
X63754000Y-108204000D02*
X61976000Y-108204000D01*
X65024000Y-109474000D02*
X65024000Y-108966000D01*
X65786000Y-110236000D02*
X65024000Y-109474000D01*
X68072000Y-113538000D02*
X66294000Y-111760000D01*
X77470000Y-110236000D02*
X78232000Y-110998000D01*
X71120000Y-114554000D02*
X71120000Y-113538000D01*
D26*
X59690000Y-91948000D02*
X60960000Y-91948000D01*
X55626000Y-86868000D02*
X55880000Y-87122000D01*
X55880000Y-87122000D02*
X56896000Y-87122000D01*
X59182000Y-87630000D02*
X59690000Y-88138000D01*
X59690000Y-88138000D02*
X60452000Y-88138000D01*
X86614000Y-97028000D02*
X86360000Y-96774000D01*
X86360000Y-96774000D02*
X85090000Y-96774000D01*
X83566000Y-96774000D02*
X82296000Y-96774000D01*
X80772000Y-96774000D02*
X79248000Y-96774000D01*
X77724000Y-96774000D02*
X77470000Y-96520000D01*
X77470000Y-96520000D02*
X75692000Y-96520000D01*
X74168000Y-96012000D02*
X73406000Y-95250000D01*
X73406000Y-95250000D02*
X73406000Y-94996000D01*
X72898000Y-93980000D02*
X72136000Y-93218000D01*
X72136000Y-93218000D02*
X72136000Y-92202000D01*
X71120000Y-91440000D02*
X70358000Y-90678000D01*
X70358000Y-90678000D02*
X70358000Y-90424000D01*
X69342000Y-89662000D02*
X67818000Y-89662000D01*
X111506000Y-91440000D02*
X111506000Y-90424000D01*
X112014000Y-91948000D02*
X111506000Y-91440000D01*
X112014000Y-94742000D02*
X112014000Y-93218000D01*
X112014000Y-96520000D02*
X111760000Y-96266000D01*
X112014000Y-97282000D02*
X112014000Y-96520000D01*
X112522000Y-97790000D02*
X112014000Y-97282000D01*
D28*
X115570000Y-98044000D02*
X116078000Y-97790000D01*
X116078000Y-97790000D02*
X117856000Y-97790000D01*
X119380000Y-97028000D02*
X120396000Y-96012000D01*
X120396000Y-96012000D02*
X120904000Y-96012000D01*
X122682000Y-95250000D02*
X123698000Y-94234000D01*
X123698000Y-94234000D02*
X124206000Y-94234000D01*
X126238000Y-93980000D02*
X126492000Y-93726000D01*
X126492000Y-93726000D02*
X128524000Y-93726000D01*
X130810000Y-93726000D02*
X131064000Y-93472000D01*
X131064000Y-93472000D02*
X132842000Y-93472000D01*
X134874000Y-93218000D02*
X136652000Y-93218000D01*
X137922000Y-93218000D02*
X138938000Y-92202000D01*
X138938000Y-92202000D02*
X140970000Y-92202000D01*
X144018000Y-92202000D02*
X145796000Y-92202000D01*
X147066000Y-92202000D02*
X147828000Y-92964000D01*
D26*
X113538000Y-97536000D02*
X114554000Y-97536000D01*
X116078000Y-102108000D02*
X114808000Y-102108000D01*
X113284000Y-101600000D02*
X112268000Y-101600000D01*
X110236000Y-93726000D02*
X110236000Y-91948000D01*
X110236000Y-97028000D02*
X110236000Y-95504000D01*
X110236000Y-99568000D02*
X110236000Y-98552000D01*
X110490000Y-99822000D02*
X110236000Y-99568000D01*
X133985000Y-61671200D02*
X132892800Y-61671200D01*
X132892800Y-61671200D02*
X132334000Y-62230000D01*
X121412000Y-60579000D02*
X121793000Y-60579000D01*
X121793000Y-60579000D02*
X122428000Y-61214000D01*
X104648000Y-96012000D02*
X102870000Y-96012000D01*
X88138000Y-93726000D02*
X85598000Y-93726000D01*
X101092000Y-96012000D02*
X100584000Y-95504000D01*
X100584000Y-95504000D02*
X99568000Y-95504000D01*
X98298000Y-94742000D02*
X97536000Y-93980000D01*
X97536000Y-93980000D02*
X97282000Y-93980000D01*
X95504000Y-93726000D02*
X95250000Y-93472000D01*
X95250000Y-93472000D02*
X93472000Y-93472000D01*
X93472000Y-93472000D02*
X93218000Y-93726000D01*
X91440000Y-93726000D02*
X89662000Y-93726000D01*
D28*
X95504000Y-91948000D02*
X96774000Y-91948000D01*
X95250000Y-91694000D02*
X95504000Y-91948000D01*
X91948000Y-91694000D02*
X93726000Y-91694000D01*
X88138000Y-91694000D02*
X89916000Y-91694000D01*
X84582000Y-91694000D02*
X86360000Y-91694000D01*
X71882000Y-89662000D02*
X72898000Y-90678000D01*
X74168000Y-90932000D02*
X75692000Y-90932000D01*
X77724000Y-90932000D02*
X80264000Y-90932000D01*
X81534000Y-90932000D02*
X83312000Y-90932000D01*
X70612000Y-88392000D02*
X70866000Y-88392000D01*
X70104000Y-87884000D02*
X70612000Y-88392000D01*
X67310000Y-87884000D02*
X68834000Y-87884000D01*
X65024000Y-87884000D02*
X66040000Y-87884000D01*
D26*
X98044000Y-91440000D02*
X100838000Y-91440000D01*
X97536000Y-91440000D02*
X98044000Y-91440000D01*
X64250000Y-86050000D02*
X62794000Y-86050000D01*
X61976000Y-83566000D02*
X61976000Y-83312000D01*
X62738000Y-84328000D02*
X61976000Y-83566000D01*
X62794000Y-86050000D02*
X62738000Y-86106000D01*
D28*
X62992000Y-72390000D02*
X62992000Y-73660000D01*
X59944000Y-78232000D02*
X59436000Y-78232000D01*
X60706000Y-77470000D02*
X59944000Y-78232000D01*
X62738000Y-75184000D02*
X62738000Y-76708000D01*
D26*
X73660000Y-60198000D02*
X73660000Y-60960000D01*
X65278000Y-70612000D02*
X65278000Y-72136000D01*
X65024000Y-70358000D02*
X65278000Y-70612000D01*
X65024000Y-67310000D02*
X65024000Y-69088000D01*
X65278000Y-67056000D02*
X65024000Y-67310000D01*
X65278000Y-64770000D02*
X65278000Y-65278000D01*
X65786000Y-63754000D02*
X65278000Y-64770000D01*
X67564000Y-63246000D02*
X66802000Y-62992000D01*
X68072000Y-62738000D02*
X67564000Y-63246000D01*
X71120000Y-62484000D02*
X69596000Y-62484000D01*
X73660000Y-60960000D02*
X72390000Y-62230000D01*
D28*
X64516000Y-79756000D02*
X64516000Y-80010000D01*
X65024000Y-79248000D02*
X64516000Y-79756000D01*
X65532000Y-75692000D02*
X65532000Y-77470000D01*
X65532000Y-73152000D02*
X65532000Y-74422000D01*
X105643680Y-92202000D02*
X105643680Y-94975680D01*
X105664000Y-94996000D02*
X105643680Y-94975680D01*
X64300000Y-81300000D02*
X64300000Y-80226000D01*
X64300000Y-80226000D02*
X64516000Y-80010000D01*
X64300000Y-81300000D02*
X64250000Y-81300000D01*
X64200000Y-84400000D02*
X64200000Y-82500000D01*
X64500000Y-86050000D02*
X64250000Y-86050000D01*
D26*
X52425600Y-70129400D02*
X52146200Y-70408800D01*
X52146200Y-70408800D02*
X52146200Y-71805800D01*
X51917600Y-73710800D02*
X51866800Y-73761600D01*
X51866800Y-73761600D02*
X51866800Y-75895200D01*
X51638200Y-77901800D02*
X51790600Y-78054200D01*
X51790600Y-78054200D02*
X51790600Y-79857600D01*
X52019200Y-82092800D02*
X52679600Y-82753200D01*
X52679600Y-82753200D02*
X53136800Y-82753200D01*
X53505100Y-59436000D02*
X53505100Y-59245500D01*
X53505100Y-59245500D02*
X54864000Y-57886600D01*
X56108600Y-56438800D02*
X57556400Y-54991000D01*
X57556400Y-54991000D02*
X57785000Y-54991000D01*
X59436000Y-54076600D02*
X60020200Y-54660800D01*
X60020200Y-54660800D02*
X61976000Y-54660800D01*
X54152800Y-59436000D02*
X53505100Y-59436000D01*
X53505100Y-59436000D02*
X53594000Y-59436000D01*
X55219600Y-60502800D02*
X54152800Y-59436000D01*
X60782200Y-61696600D02*
X57810400Y-61696600D01*
X60858400Y-61620400D02*
X60782200Y-61696600D01*
X62941200Y-59410600D02*
X62941200Y-60401200D01*
X63423800Y-58928000D02*
X62941200Y-59410600D01*
X62941200Y-55626000D02*
X62941200Y-56438800D01*
X61976000Y-54660800D02*
X62941200Y-55626000D01*
X134035800Y-63195200D02*
X134035800Y-61722000D01*
X137871200Y-54457600D02*
X139725400Y-54457600D01*
X137668000Y-54660800D02*
X137871200Y-54457600D01*
X134696200Y-55676800D02*
X134696200Y-55194200D01*
X134239000Y-56134000D02*
X134696200Y-55676800D01*
X133832600Y-59791600D02*
X133832600Y-58318400D01*
X133908800Y-59867800D02*
X133832600Y-59791600D01*
X134035800Y-61722000D02*
X133985000Y-61671200D01*
X121666000Y-68580000D02*
X121737120Y-68580000D01*
X121737120Y-68508880D02*
X121666000Y-68580000D01*
X121737120Y-68381880D02*
X121737120Y-68508880D01*
X122478800Y-67640200D02*
X121737120Y-68381880D01*
X140716000Y-62484000D02*
X141224000Y-61976000D01*
X141224000Y-61976000D02*
X141224000Y-60452000D01*
X141732000Y-58420000D02*
X141732000Y-56388000D01*
X138125200Y-63220600D02*
X138988800Y-62357000D01*
X138988800Y-62357000D02*
X139065000Y-62357000D01*
X134696200Y-63855600D02*
X134696200Y-64389000D01*
X134035800Y-63195200D02*
X134696200Y-63855600D01*
X123621800Y-57708800D02*
X122428000Y-57708800D01*
X123774200Y-57556400D02*
X123621800Y-57708800D01*
X122174000Y-50800000D02*
X126111000Y-50800000D01*
X126365000Y-52197000D02*
X126365000Y-53848000D01*
X126492000Y-55626000D02*
X126619000Y-55499000D01*
X126619000Y-55499000D02*
X129667000Y-55499000D01*
X129794000Y-53848000D02*
X129540000Y-53594000D01*
X129540000Y-53594000D02*
X129540000Y-52578000D01*
X129540000Y-51181000D02*
X129667000Y-51054000D01*
X129667000Y-51054000D02*
X134366000Y-51054000D01*
X136271000Y-51308000D02*
X136398000Y-51435000D01*
X136398000Y-51435000D02*
X138049000Y-51435000D01*
X139700000Y-51435000D02*
X139954000Y-51181000D01*
X139954000Y-51181000D02*
X140970000Y-51181000D01*
X141732000Y-54356000D02*
X141706600Y-54330600D01*
X73660000Y-60198000D02*
X72136000Y-60198000D01*
X70612000Y-60452000D02*
X70358000Y-60706000D01*
X70358000Y-60706000D02*
X68834000Y-60706000D01*
X67310000Y-61214000D02*
X66548000Y-61214000D01*
X66548000Y-61214000D02*
X66040000Y-61722000D01*
X66040000Y-61722000D02*
X65786000Y-61722000D01*
X64516000Y-62484000D02*
X63754000Y-63246000D01*
X63754000Y-63246000D02*
X63500000Y-63246000D01*
X62484000Y-71882000D02*
X62992000Y-72390000D01*
X62484000Y-71374000D02*
X62484000Y-71882000D01*
X62992000Y-70866000D02*
X62484000Y-71374000D01*
X62992000Y-67818000D02*
X62992000Y-69088000D01*
X63246000Y-67564000D02*
X62992000Y-67818000D01*
X63246000Y-64770000D02*
X63246000Y-66294000D01*
X63500000Y-64516000D02*
X63246000Y-64770000D01*
X57150000Y-71374000D02*
X57150000Y-71882000D01*
X56642000Y-70866000D02*
X57150000Y-71374000D01*
X53594000Y-59436000D02*
X51420000Y-59480000D01*
X51420000Y-59480000D02*
X51420000Y-61512000D01*
X50980000Y-66770000D02*
X51150000Y-68700000D01*
X63500000Y-50800000D02*
X62484000Y-51816000D01*
X68326000Y-50800000D02*
X63500000Y-50800000D01*
X68326000Y-50800000D02*
X68072000Y-50800000D01*
X67056000Y-51816000D02*
X67056000Y-52070000D01*
X67056000Y-53848000D02*
X66802000Y-54102000D01*
X68072000Y-50800000D02*
X67056000Y-51816000D01*
X70358000Y-52070000D02*
X69088000Y-50800000D01*
X69088000Y-50800000D02*
X68326000Y-50800000D01*
X74676000Y-52324000D02*
X74676000Y-52070000D01*
X70358000Y-54356000D02*
X70358000Y-55626000D01*
X70612000Y-54102000D02*
X70358000Y-54356000D01*
X71374000Y-51054000D02*
X70358000Y-52070000D01*
X73660000Y-51054000D02*
X71374000Y-51054000D01*
X74676000Y-52070000D02*
X73660000Y-51054000D01*
X108204000Y-51043840D02*
X105928160Y-51043840D01*
X105410000Y-51562000D02*
X105928160Y-51043840D01*
X100838000Y-51308000D02*
X103124000Y-51308000D01*
X100584000Y-51054000D02*
X100838000Y-51308000D01*
X94996000Y-51054000D02*
X97790000Y-51054000D01*
X90170000Y-51054000D02*
X92710000Y-51054000D01*
X85852000Y-51054000D02*
X88138000Y-51054000D01*
X81280000Y-51054000D02*
X83566000Y-51054000D01*
X76708000Y-51054000D02*
X78740000Y-51054000D01*
X76454000Y-51308000D02*
X76708000Y-51054000D01*
X62417960Y-79489300D02*
X63995300Y-79489300D01*
X63995300Y-79489300D02*
X64516000Y-80010000D01*
X61518800Y-76454000D02*
X62417960Y-79489300D01*
X60198000Y-73914000D02*
X61518800Y-76454000D01*
X66548000Y-80010000D02*
X68326000Y-80010000D01*
D28*
X100076000Y-64516000D02*
X100584000Y-64008000D01*
X101346000Y-67818000D02*
X101346000Y-65786000D01*
X101092000Y-68072000D02*
X101346000Y-67818000D01*
X101092000Y-71882000D02*
X101092000Y-69596000D01*
X101092000Y-75946000D02*
X101092000Y-74168000D01*
X101600000Y-76454000D02*
X101092000Y-75946000D01*
X101854000Y-80010000D02*
X101854000Y-78486000D01*
X102108000Y-80264000D02*
X101854000Y-80010000D01*
X102108000Y-82804000D02*
X102108000Y-81534000D01*
X101854000Y-83058000D02*
X102108000Y-82804000D01*
X101346000Y-85852000D02*
X101346000Y-85090000D01*
X100330000Y-86868000D02*
X101346000Y-85852000D01*
X101600000Y-88392000D02*
X101346000Y-88392000D01*
X102108000Y-88900000D02*
X101600000Y-88392000D01*
X102108000Y-90170000D02*
X102108000Y-88900000D01*
X100838000Y-91440000D02*
X102108000Y-90170000D01*
X100584000Y-64008000D02*
X100838000Y-64262000D01*
D26*
X100584000Y-64008000D02*
X103632000Y-64008000D01*
X103632000Y-64008000D02*
X105029000Y-62611000D01*
X80264000Y-64008000D02*
X80264000Y-63246000D01*
X80518000Y-64262000D02*
X80264000Y-64008000D01*
X80772000Y-69342000D02*
X80772000Y-66040000D01*
X80264000Y-69850000D02*
X80772000Y-69342000D01*
X80772000Y-73660000D02*
X80772000Y-72136000D01*
X80518000Y-76200000D02*
X80518000Y-75184000D01*
X80264000Y-76962000D02*
X80518000Y-76200000D01*
X53594000Y-77724000D02*
X52578000Y-78740000D01*
X55118000Y-76708000D02*
X54864000Y-76708000D01*
X56134000Y-75692000D02*
X55118000Y-76708000D01*
X72136000Y-82296000D02*
X72136000Y-84074000D01*
X75946000Y-84328000D02*
X77470000Y-84328000D01*
X73406000Y-84328000D02*
X74676000Y-84328000D01*
X72136000Y-84074000D02*
X72390000Y-84328000D01*
X72136000Y-82296000D02*
X72390000Y-82550000D01*
X72390000Y-82550000D02*
X73660000Y-82550000D01*
X80010000Y-56642000D02*
X80010000Y-57912000D01*
X79756000Y-56388000D02*
X80010000Y-56642000D01*
X79756000Y-53848000D02*
X79756000Y-55118000D01*
X80010000Y-53594000D02*
X79756000Y-53848000D01*
X83540600Y-86979760D02*
X83540600Y-85552280D01*
X83652360Y-89159080D02*
X83652360Y-87091520D01*
X83540600Y-86979760D02*
X83652360Y-87091520D01*
X83540600Y-85552280D02*
X83439000Y-85450680D01*
X83439000Y-85450680D02*
X83439000Y-83743800D01*
X83362800Y-81884520D02*
X83362800Y-83667600D01*
X83362800Y-83667600D02*
X83439000Y-83743800D01*
X83362800Y-80451960D02*
X83362800Y-81884520D01*
X83195160Y-80284320D02*
X83362800Y-80451960D01*
X127254000Y-73406000D02*
X127127000Y-73279000D01*
X127127000Y-73279000D02*
X127127000Y-72390000D01*
X127508000Y-71501000D02*
X127741680Y-71267320D01*
X127741680Y-71267320D02*
X127741680Y-70180200D01*
X120449340Y-72532240D02*
X120449340Y-72824340D01*
X120904000Y-80137000D02*
X120904000Y-81026000D01*
X121793000Y-79248000D02*
X120904000Y-80137000D01*
X121793000Y-76454000D02*
X121793000Y-77597000D01*
X122174000Y-76073000D02*
X121793000Y-76454000D01*
X120449340Y-72824340D02*
X122047000Y-74422000D01*
X121412000Y-60579000D02*
X121412000Y-59055000D01*
X121285000Y-63119000D02*
X121285000Y-61976000D01*
X121031000Y-63373000D02*
X121285000Y-63119000D01*
X121031000Y-67056000D02*
X121031000Y-65151000D01*
X120523000Y-67564000D02*
X121031000Y-67056000D01*
X120523000Y-70231000D02*
X120523000Y-69215000D01*
X119253000Y-71501000D02*
X120523000Y-70231000D01*
X121285000Y-52959000D02*
X121285000Y-51816000D01*
X121920000Y-53340000D02*
X121285000Y-52959000D01*
X121539000Y-57023000D02*
X121539000Y-55245000D01*
X105029000Y-62611000D02*
X106299000Y-62611000D01*
X109855000Y-51943000D02*
X109855000Y-51689000D01*
X109220000Y-52578000D02*
X109855000Y-51943000D01*
X108204000Y-54737000D02*
X108204000Y-53975000D01*
X107315000Y-55626000D02*
X108204000Y-54737000D01*
X107315000Y-58801000D02*
X107315000Y-57277000D01*
X107061000Y-60579000D02*
X107061000Y-59563000D01*
X106807000Y-60833000D02*
X107061000Y-60579000D01*
X106299000Y-62611000D02*
X106553000Y-62357000D01*
X104775000Y-89997280D02*
X104775000Y-91729560D01*
X104680000Y-88720000D02*
X104775000Y-89997280D01*
X104397280Y-87817280D02*
X104570000Y-87990000D01*
X104546400Y-85267800D02*
X104397280Y-87817280D01*
X104241600Y-84963000D02*
X104546400Y-85267800D01*
X103977440Y-80660240D02*
X103977440Y-83251040D01*
X104053640Y-80584040D02*
X103977440Y-80660240D01*
X104089200Y-76433680D02*
X104089200Y-78714600D01*
X104129840Y-76393040D02*
X104089200Y-76433680D01*
X105643680Y-92202000D02*
X104216200Y-93629480D01*
X143357600Y-54063900D02*
X144221200Y-54927500D01*
X144221200Y-54927500D02*
X144221200Y-55321200D01*
X145516600Y-56807100D02*
X145567400Y-56857900D01*
X145567400Y-56857900D02*
X146773900Y-56857900D01*
X148107400Y-57111900D02*
X148361400Y-57365900D01*
X148361400Y-57365900D02*
X148361400Y-58940700D01*
X148475700Y-60617100D02*
X148475700Y-62407800D01*
X148628100Y-64160400D02*
X148780500Y-64312800D01*
X148780500Y-64312800D02*
X148780500Y-65189100D01*
X148666200Y-67398900D02*
X148818600Y-67551300D01*
X148818600Y-67551300D02*
X148818600Y-69189600D01*
X119070120Y-50998120D02*
X120904000Y-50800000D01*
X118872000Y-50800000D02*
X119070120Y-50998120D01*
X114767360Y-50657760D02*
X117434360Y-50657760D01*
X114726720Y-50698400D02*
X114767360Y-50657760D01*
X110378240Y-50779680D02*
X112958880Y-50779680D01*
X110317280Y-50718720D02*
X110378240Y-50779680D01*
X94259400Y-57241440D02*
X94259400Y-58430160D01*
X94762320Y-59679840D02*
X96514920Y-59679840D01*
X94686120Y-59756040D02*
X94762320Y-59679840D01*
X94259400Y-58430160D02*
X94366080Y-58536840D01*
X92247720Y-57104280D02*
X94122240Y-57104280D01*
X94396560Y-55885080D02*
X94396560Y-54574440D01*
X94198440Y-56083200D02*
X94396560Y-55885080D01*
X94122240Y-57104280D02*
X94259400Y-57241440D01*
X92247720Y-57104280D02*
X92247720Y-58399680D01*
X92247720Y-58399680D02*
X92186760Y-58460640D01*
X92323920Y-54650640D02*
X92323920Y-53614320D01*
X92339160Y-54665880D02*
X92323920Y-54650640D01*
X92308680Y-57043320D02*
X92308680Y-55930800D01*
X92247720Y-57104280D02*
X92308680Y-57043320D01*
X126507240Y-67650360D02*
X124536200Y-67650360D01*
X129997200Y-67894200D02*
X129860040Y-67757040D01*
X129860040Y-67757040D02*
X128991360Y-67757040D01*
X127650240Y-67787520D02*
X127513080Y-67650360D01*
X127513080Y-67650360D02*
X126507240Y-67650360D01*
X124536200Y-67650360D02*
X124508260Y-67678300D01*
X128305560Y-70180200D02*
X127741680Y-70180200D01*
X128549400Y-69936360D02*
X128305560Y-70180200D01*
X129997200Y-67894200D02*
X129997200Y-69936360D01*
X136961880Y-70119240D02*
X139095480Y-70119240D01*
X136916160Y-70164960D02*
X136961880Y-70119240D01*
X134112000Y-70195440D02*
X135392160Y-70195440D01*
X134005320Y-70088760D02*
X134112000Y-70195440D01*
X131612640Y-69982080D02*
X132938520Y-69982080D01*
X131521200Y-70073520D02*
X131612640Y-69982080D01*
X129997200Y-69936360D02*
X130042920Y-69982080D01*
X108204000Y-51043840D02*
X107259120Y-51043840D01*
X114338100Y-72618600D02*
X113154460Y-72618600D01*
X107764580Y-72560180D02*
X106283760Y-72560180D01*
X107848400Y-72644000D02*
X107764580Y-72560180D01*
X111229140Y-72644000D02*
X109776260Y-72644000D01*
X111368840Y-72783700D02*
X111229140Y-72644000D01*
X113154460Y-72618600D02*
X113073180Y-72699880D01*
X121737120Y-68580000D02*
X121737120Y-71244460D01*
X115143280Y-72618600D02*
X114338100Y-72618600D01*
X115364260Y-72839580D02*
X115143280Y-72618600D01*
X118772940Y-72755760D02*
X116900960Y-72755760D01*
X118828820Y-72699880D02*
X118772940Y-72755760D01*
X121737120Y-71244460D02*
X120449340Y-72532240D01*
X121427240Y-75102720D02*
X120924320Y-74599800D01*
X120924320Y-74599800D02*
X119415560Y-74599800D01*
X117320060Y-74348340D02*
X117264180Y-74404220D01*
X117264180Y-74404220D02*
X115224560Y-74404220D01*
X112709960Y-74264520D02*
X112682020Y-74292460D01*
X112682020Y-74292460D02*
X110837980Y-74292460D01*
X109049820Y-74236580D02*
X109021880Y-74264520D01*
X109021880Y-74264520D02*
X107652820Y-74264520D01*
X105724960Y-74292460D02*
X105417620Y-74599800D01*
X105417620Y-74599800D02*
X104190800Y-74599800D01*
X105029000Y-62611000D02*
X105156000Y-62992000D01*
X105156000Y-62992000D02*
X105156000Y-63627000D01*
X105283000Y-65278000D02*
X105379520Y-65374520D01*
X105379520Y-65374520D02*
X105283000Y-67310000D01*
X105283000Y-68453000D02*
X105410000Y-70358000D01*
X104272080Y-71749920D02*
X104190800Y-71831200D01*
X104190800Y-71831200D02*
X104190800Y-74599800D01*
X103952040Y-55829200D02*
X103952040Y-55397400D01*
X108204000Y-51145440D02*
X108204000Y-51043840D01*
X103952040Y-55397400D02*
X108204000Y-51145440D01*
X114300000Y-71501000D02*
X114376200Y-71424800D01*
X114376200Y-71424800D02*
X114376200Y-68160900D01*
X114528600Y-65836800D02*
X114376200Y-65684400D01*
X114376200Y-65684400D02*
X114482880Y-62199520D01*
X114300000Y-60769500D02*
X114147600Y-60617100D01*
X114147600Y-60617100D02*
X114223800Y-57785000D01*
X114223800Y-56235600D02*
X114185700Y-56197500D01*
X114185700Y-56197500D02*
X114185700Y-54406800D01*
X114223800Y-52616100D02*
X114223800Y-51549300D01*
X103977440Y-55854600D02*
X104383840Y-55854600D01*
X103952040Y-55829200D02*
X103977440Y-55854600D01*
X98465640Y-70129400D02*
X98465640Y-69748400D01*
X98719640Y-70383400D02*
X98465640Y-70129400D01*
X89067640Y-67970400D02*
X89067640Y-68351400D01*
X89956640Y-67081400D02*
X89067640Y-67970400D01*
X131104640Y-86385400D02*
X131358640Y-86385400D01*
X97688400Y-81991200D02*
X97688400Y-84086700D01*
X97688400Y-84086700D02*
X97764600Y-84162900D01*
X92918280Y-81899760D02*
X93009720Y-81991200D01*
X93009720Y-81991200D02*
X97688400Y-81991200D01*
X97688400Y-81991200D02*
X99822000Y-81991200D01*
X96659700Y-73761600D02*
X98488500Y-73761600D01*
X102400000Y-116950000D02*
X102300000Y-116950000D01*
X106600000Y-113200000D02*
X102400000Y-116950000D01*
X107411520Y-87152480D02*
X107442000Y-87122000D01*
X107442000Y-90678000D02*
X107411520Y-87152480D01*
D27*
X117348000Y-131064000D02*
X116004000Y-131064000D01*
X116004000Y-131064000D02*
X113464000Y-128524000D01*
X113464000Y-128524000D02*
X111200000Y-128524000D01*
X136750000Y-134550000D02*
X149189440Y-122510560D01*
X111200000Y-128524000D02*
X111394000Y-128524000D01*
X111200000Y-128524000D02*
X104200000Y-128590000D01*
X111394000Y-128524000D02*
X112290000Y-129420000D01*
X112290000Y-129420000D02*
X112290000Y-134240000D01*
X112290000Y-134240000D02*
X112600000Y-134550000D01*
X112600000Y-134550000D02*
X136750000Y-134550000D01*
X149189440Y-122510560D02*
X149189440Y-116960560D01*
X144050000Y-117370000D02*
X148780000Y-117370000D01*
X148780000Y-117370000D02*
X149189440Y-116960560D01*
X149189440Y-111850000D02*
X147900000Y-111850000D01*
X147900000Y-111850000D02*
X147850000Y-111800000D01*
X149189440Y-88366600D02*
X148021040Y-87198200D01*
X149189440Y-88366600D02*
X149189440Y-105600000D01*
X149189440Y-105600000D02*
X149189440Y-111850000D01*
X149189440Y-111850000D02*
X149189440Y-116960560D01*
D26*
X92710000Y-107380000D02*
X92710000Y-99568000D01*
D27*
X87725000Y-127925000D02*
X85600000Y-127000000D01*
X78470000Y-134600000D02*
X77070000Y-133200000D01*
X82300000Y-134600000D02*
X78470000Y-134600000D01*
X83300000Y-133600000D02*
X82300000Y-134600000D01*
X83300000Y-129300000D02*
X83300000Y-133600000D01*
X85600000Y-127000000D02*
X83300000Y-129300000D01*
X87725000Y-127925000D02*
X86315000Y-127925000D01*
X89249000Y-128687000D02*
X88487000Y-127925000D01*
D26*
X129794000Y-128524000D02*
X128778000Y-129540000D01*
X130048000Y-128524000D02*
X129794000Y-128524000D01*
X99884000Y-107380000D02*
X95250000Y-112014000D01*
X100330000Y-107380000D02*
X99884000Y-107380000D01*
X128778000Y-131826000D02*
X127204000Y-133200000D01*
X127204000Y-133200000D02*
X119076000Y-133200000D01*
X119076000Y-133200000D02*
X118060000Y-132384000D01*
X118060000Y-132384000D02*
X113488000Y-132384000D01*
X113488000Y-132384000D02*
X113284000Y-132080000D01*
X128778000Y-129540000D02*
X128778000Y-131826000D01*
X103600000Y-117250000D02*
X102900000Y-117700000D01*
X107600000Y-114000000D02*
X103600000Y-117250000D01*
X108508800Y-87111840D02*
X108500000Y-90610000D01*
X108549440Y-87071200D02*
X108508800Y-87111840D01*
X107680760Y-79339440D02*
X107680760Y-82158840D01*
X107706160Y-79314040D02*
X107680760Y-79339440D01*
X130048000Y-132334000D02*
X128270000Y-133862000D01*
X128270000Y-133862000D02*
X117856000Y-133862000D01*
X117856000Y-133862000D02*
X116840000Y-133096000D01*
X130048000Y-131064000D02*
X130048000Y-132334000D01*
X92456000Y-112268000D02*
X97344000Y-107380000D01*
X97790000Y-107380000D02*
X97344000Y-107380000D01*
X97790000Y-107380000D02*
X97790000Y-107442000D01*
X121100000Y-126050000D02*
X121150000Y-126100000D01*
X121150000Y-126100000D02*
X121150000Y-129786000D01*
X121150000Y-129786000D02*
X122428000Y-131064000D01*
X105115360Y-52872640D02*
X101254560Y-52669440D01*
X105156000Y-52832000D02*
X105115360Y-52872640D01*
X126349760Y-68559680D02*
X124642880Y-68559680D01*
X100276660Y-75885040D02*
X100276660Y-76220320D01*
X99382580Y-74990960D02*
X100276660Y-75885040D01*
X91084400Y-74990960D02*
X99382580Y-74990960D01*
X90162380Y-74068940D02*
X91084400Y-74990960D01*
X125897640Y-89687400D02*
X121325640Y-89687400D01*
X133238240Y-79674720D02*
X134680960Y-79674720D01*
X132933440Y-79979520D02*
X133238240Y-79674720D01*
X101600000Y-121158000D02*
X101600000Y-121360000D01*
X101640000Y-121400000D02*
X101640000Y-128570000D01*
X101600000Y-121360000D02*
X101640000Y-121400000D01*
X101640000Y-128570000D02*
X101660000Y-128590000D01*
X101660000Y-130590000D02*
X102380000Y-130590000D01*
X102380000Y-130590000D02*
X102960000Y-130010000D01*
X102960000Y-130010000D02*
X102960000Y-126550000D01*
X102960000Y-126550000D02*
X105190000Y-124320000D01*
X105190000Y-124320000D02*
X108380000Y-124320000D01*
X108380000Y-124320000D02*
X109180000Y-123520000D01*
X109180000Y-123520000D02*
X109180000Y-121350000D01*
X109180000Y-121350000D02*
X109360000Y-121170000D01*
X109360000Y-121170000D02*
X109180000Y-121350000D01*
D27*
X57404000Y-107442000D02*
X56388000Y-107442000D01*
X58166000Y-108204000D02*
X57404000Y-107442000D01*
X58674000Y-112776000D02*
X58166000Y-108204000D01*
X56388000Y-107442000D02*
X55626000Y-106680000D01*
X55626000Y-114300000D02*
X56642000Y-114300000D01*
X56642000Y-114300000D02*
X58674000Y-116332000D01*
X58928000Y-118364000D02*
X65024000Y-118364000D01*
X58674000Y-118110000D02*
X58928000Y-118364000D01*
X58674000Y-116332000D02*
X58674000Y-118110000D01*
X59944000Y-131318000D02*
X55450000Y-128775000D01*
X52324000Y-112522000D02*
X55626000Y-109220000D01*
X52324000Y-127254000D02*
X52324000Y-112522000D01*
X53848000Y-128778000D02*
X52324000Y-127254000D01*
X55450000Y-128775000D02*
X53848000Y-128778000D01*
X75438000Y-125984000D02*
X75438000Y-126492000D01*
X75438000Y-126492000D02*
X72644000Y-127762000D01*
X72644000Y-127762000D02*
X64130000Y-127790000D01*
X64130000Y-127790000D02*
X63150000Y-129425000D01*
X63150000Y-129425000D02*
X58501749Y-129397056D01*
X58501749Y-129397056D02*
X55750000Y-127762000D01*
X55750000Y-127762000D02*
X54864000Y-127762000D01*
X54864000Y-127762000D02*
X53340000Y-126238000D01*
X53340000Y-126238000D02*
X53340000Y-121158000D01*
X53340000Y-121158000D02*
X55118000Y-119380000D01*
X55118000Y-119380000D02*
X55626000Y-119380000D01*
D26*
X65525000Y-126450000D02*
X65525000Y-126150000D01*
X64925000Y-127050000D02*
X65525000Y-126450000D01*
X61975000Y-127050000D02*
X64925000Y-127050000D01*
X61100000Y-127925000D02*
X61975000Y-127050000D01*
X55626000Y-121412000D02*
X57658000Y-121412000D01*
X57658000Y-121412000D02*
X58674000Y-120396000D01*
X58674000Y-120396000D02*
X58674000Y-119634000D01*
X58674000Y-119634000D02*
X59182000Y-119126000D01*
X59182000Y-119126000D02*
X59690000Y-119126000D01*
D27*
X77978000Y-125984000D02*
X77978000Y-124042000D01*
X77978000Y-124042000D02*
X79600000Y-122420000D01*
G36*
X63191398Y-50878628D02*
X63076000Y-51157225D01*
X63076000Y-52408500D01*
X63265500Y-52598000D01*
X64459000Y-52598000D01*
X64459000Y-52578000D01*
X65709000Y-52578000D01*
X65709000Y-52598000D01*
X66902500Y-52598000D01*
X67092000Y-52408500D01*
X67092000Y-51157225D01*
X66976602Y-50878628D01*
X66922974Y-50825000D01*
X70745026Y-50825000D01*
X70691398Y-50878628D01*
X70576000Y-51157225D01*
X70576000Y-52408500D01*
X70765500Y-52598000D01*
X71959000Y-52598000D01*
X71959000Y-52578000D01*
X73209000Y-52578000D01*
X73209000Y-52598000D01*
X74402500Y-52598000D01*
X74592000Y-52408500D01*
X74592000Y-51157225D01*
X74476602Y-50878628D01*
X74422974Y-50825000D01*
X122427026Y-50825000D01*
X122373398Y-50878628D01*
X122258000Y-51157225D01*
X122258000Y-52408500D01*
X122447500Y-52598000D01*
X123641000Y-52598000D01*
X123641000Y-52578000D01*
X124891000Y-52578000D01*
X124891000Y-52598000D01*
X126084500Y-52598000D01*
X126274000Y-52408500D01*
X126274000Y-51157225D01*
X126158602Y-50878628D01*
X126104974Y-50825000D01*
X129927026Y-50825000D01*
X129873398Y-50878628D01*
X129758000Y-51157225D01*
X129758000Y-52408500D01*
X129947500Y-52598000D01*
X131141000Y-52598000D01*
X131141000Y-52578000D01*
X132391000Y-52578000D01*
X132391000Y-52598000D01*
X133584500Y-52598000D01*
X133774000Y-52408500D01*
X133774000Y-51157225D01*
X133658602Y-50878628D01*
X133604974Y-50825000D01*
X144484152Y-50825000D01*
X143770691Y-51538461D01*
X144085231Y-51853001D01*
X143775382Y-52202263D01*
X143715561Y-53496996D01*
X143775382Y-53797737D01*
X144085232Y-54147001D01*
X145232233Y-53000000D01*
X145218091Y-52985858D01*
X146985858Y-51218091D01*
X147000000Y-51232233D01*
X147014143Y-51218091D01*
X148781910Y-52985858D01*
X148767767Y-53000000D01*
X148781910Y-53014143D01*
X147014143Y-54781910D01*
X147000000Y-54767767D01*
X145852999Y-55914768D01*
X146202263Y-56224618D01*
X147496996Y-56284439D01*
X147797737Y-56224618D01*
X148146999Y-55914769D01*
X148461539Y-56229309D01*
X149175000Y-55515848D01*
X149175000Y-86937946D01*
X148961314Y-86724260D01*
X148911706Y-86604200D01*
X148616594Y-86308572D01*
X148230814Y-86148382D01*
X147813098Y-86148018D01*
X147427040Y-86307534D01*
X147131412Y-86602646D01*
X146971222Y-86988426D01*
X146970858Y-87406142D01*
X147130374Y-87792200D01*
X147425486Y-88087828D01*
X147546848Y-88138222D01*
X148189440Y-88780814D01*
X148189440Y-110804024D01*
X148059774Y-110750182D01*
X147642058Y-110749818D01*
X147256000Y-110909334D01*
X146960372Y-111204446D01*
X146800182Y-111590226D01*
X146799818Y-112007942D01*
X146959334Y-112394000D01*
X147254446Y-112689628D01*
X147640226Y-112849818D01*
X148057942Y-112850182D01*
X148058382Y-112850000D01*
X148189440Y-112850000D01*
X148189440Y-116370000D01*
X145300496Y-116370000D01*
X145212717Y-116238629D01*
X144693639Y-115891793D01*
X144081346Y-115770000D01*
X144018654Y-115770000D01*
X143406361Y-115891793D01*
X142887283Y-116238629D01*
X142540447Y-116757707D01*
X142418654Y-117370000D01*
X142540447Y-117982293D01*
X142887283Y-118501371D01*
X143094756Y-118640000D01*
X142887283Y-118778629D01*
X142540447Y-119297707D01*
X142418654Y-119910000D01*
X142540447Y-120522293D01*
X142825891Y-120949491D01*
X142666802Y-121051862D01*
X142495554Y-121302492D01*
X142435307Y-121600000D01*
X142435307Y-123300000D01*
X142487604Y-123577933D01*
X142651862Y-123833198D01*
X142902492Y-124004446D01*
X143200000Y-124064693D01*
X144900000Y-124064693D01*
X145177933Y-124012396D01*
X145433198Y-123848138D01*
X145604446Y-123597508D01*
X145664693Y-123300000D01*
X145664693Y-121600000D01*
X145612396Y-121322067D01*
X145448138Y-121066802D01*
X145274842Y-120948394D01*
X145559553Y-120522293D01*
X145681346Y-119910000D01*
X145559553Y-119297707D01*
X145212717Y-118778629D01*
X145005244Y-118640000D01*
X145212717Y-118501371D01*
X145300496Y-118370000D01*
X148189440Y-118370000D01*
X148189440Y-122086742D01*
X136345326Y-133550000D01*
X130052250Y-133550000D01*
X130650891Y-133035532D01*
X130672686Y-133007711D01*
X130702074Y-132988074D01*
X130783305Y-132866504D01*
X130873463Y-132751415D01*
X130882952Y-132717371D01*
X130902589Y-132687982D01*
X130931112Y-132544586D01*
X130970367Y-132403750D01*
X130966167Y-132369175D01*
X131179371Y-132226717D01*
X131318000Y-132019244D01*
X131456629Y-132226717D01*
X131975707Y-132573553D01*
X132588000Y-132695346D01*
X133200293Y-132573553D01*
X133719371Y-132226717D01*
X134066207Y-131707639D01*
X134188000Y-131095346D01*
X134188000Y-131032654D01*
X134066207Y-130420361D01*
X133804835Y-130029189D01*
X133971198Y-129922138D01*
X134142446Y-129671508D01*
X134202693Y-129374000D01*
X134202693Y-127674000D01*
X134150396Y-127396067D01*
X133986138Y-127140802D01*
X133735508Y-126969554D01*
X133438000Y-126909307D01*
X131738000Y-126909307D01*
X131460067Y-126961604D01*
X131204802Y-127125862D01*
X131086394Y-127299158D01*
X130660293Y-127014447D01*
X130048000Y-126892654D01*
X129435707Y-127014447D01*
X128916629Y-127361283D01*
X128778000Y-127568756D01*
X128639371Y-127361283D01*
X128120293Y-127014447D01*
X127508000Y-126892654D01*
X126895707Y-127014447D01*
X126376629Y-127361283D01*
X126238000Y-127568756D01*
X126099371Y-127361283D01*
X125580293Y-127014447D01*
X124968000Y-126892654D01*
X124355707Y-127014447D01*
X123836629Y-127361283D01*
X123698000Y-127568756D01*
X123559371Y-127361283D01*
X123040293Y-127014447D01*
X122428000Y-126892654D01*
X122075000Y-126962870D01*
X122075000Y-126439956D01*
X122149818Y-126259774D01*
X122150182Y-125842058D01*
X121990666Y-125456000D01*
X121695554Y-125160372D01*
X121309774Y-125000182D01*
X120892058Y-124999818D01*
X120506000Y-125159334D01*
X120210372Y-125454446D01*
X120050182Y-125840226D01*
X120049818Y-126257942D01*
X120209334Y-126644000D01*
X120225000Y-126659693D01*
X120225000Y-126959688D01*
X119888000Y-126892654D01*
X119275707Y-127014447D01*
X118756629Y-127361283D01*
X118618000Y-127568756D01*
X118479371Y-127361283D01*
X117960293Y-127014447D01*
X117348000Y-126892654D01*
X116735707Y-127014447D01*
X116216629Y-127361283D01*
X115869793Y-127880361D01*
X115748000Y-128492654D01*
X115748000Y-128555346D01*
X115869793Y-129167639D01*
X116216629Y-129686717D01*
X116377190Y-129794000D01*
X116239928Y-129885715D01*
X114171107Y-127816893D01*
X113846684Y-127600120D01*
X113464000Y-127524000D01*
X111200000Y-127524000D01*
X111195291Y-127524937D01*
X111190572Y-127524044D01*
X105324715Y-127579351D01*
X105056463Y-127310630D01*
X104501675Y-127080262D01*
X103900960Y-127079738D01*
X103885000Y-127086333D01*
X103885000Y-126933148D01*
X105573148Y-125245000D01*
X108380000Y-125245000D01*
X108733983Y-125174589D01*
X109034074Y-124974074D01*
X109834074Y-124174074D01*
X110034589Y-123873982D01*
X110090797Y-123591406D01*
X110187925Y-123631737D01*
X110789436Y-123632262D01*
X111345360Y-123402559D01*
X111760351Y-122988292D01*
X112172402Y-123401064D01*
X112727925Y-123631737D01*
X113329436Y-123632262D01*
X113885360Y-123402559D01*
X114300351Y-122988292D01*
X114712402Y-123401064D01*
X115267925Y-123631737D01*
X115869436Y-123632262D01*
X116425360Y-123402559D01*
X116840351Y-122988292D01*
X117252402Y-123401064D01*
X117807925Y-123631737D01*
X118409436Y-123632262D01*
X118965360Y-123402559D01*
X119380351Y-122988292D01*
X119792402Y-123401064D01*
X120347925Y-123631737D01*
X120949436Y-123632262D01*
X121505360Y-123402559D01*
X121920351Y-122988292D01*
X122332402Y-123401064D01*
X122887925Y-123631737D01*
X123489436Y-123632262D01*
X124045360Y-123402559D01*
X124460351Y-122988292D01*
X124872402Y-123401064D01*
X125427925Y-123631737D01*
X126029436Y-123632262D01*
X126585360Y-123402559D01*
X127000351Y-122988292D01*
X127412402Y-123401064D01*
X127967925Y-123631737D01*
X128569436Y-123632262D01*
X129125360Y-123402559D01*
X129540351Y-122988292D01*
X129952402Y-123401064D01*
X130507925Y-123631737D01*
X131109436Y-123632262D01*
X131665360Y-123402559D01*
X131755305Y-123312770D01*
X132696045Y-123312770D01*
X132775255Y-123559265D01*
X133369788Y-123669653D01*
X133924745Y-123559265D01*
X134003955Y-123312770D01*
X133350000Y-122658815D01*
X132696045Y-123312770D01*
X131755305Y-123312770D01*
X132091064Y-122977598D01*
X132188685Y-122742500D01*
X132811185Y-122120000D01*
X133888815Y-122120000D01*
X134511162Y-122742347D01*
X134607441Y-122975360D01*
X135032402Y-123401064D01*
X135587925Y-123631737D01*
X136189436Y-123632262D01*
X136745360Y-123402559D01*
X137171064Y-122977598D01*
X137401737Y-122422075D01*
X137402262Y-121820564D01*
X137172559Y-121264640D01*
X136747598Y-120838936D01*
X136192075Y-120608263D01*
X135590564Y-120607738D01*
X135034640Y-120837441D01*
X134608936Y-121262402D01*
X134511315Y-121497500D01*
X133888815Y-122120000D01*
X132811185Y-122120000D01*
X132188838Y-121497653D01*
X132092559Y-121264640D01*
X131755738Y-120927230D01*
X132696045Y-120927230D01*
X133350000Y-121581185D01*
X134003955Y-120927230D01*
X133924745Y-120680735D01*
X133330212Y-120570347D01*
X132775255Y-120680735D01*
X132696045Y-120927230D01*
X131755738Y-120927230D01*
X131667598Y-120838936D01*
X131112075Y-120608263D01*
X130510564Y-120607738D01*
X129954640Y-120837441D01*
X129539649Y-121251708D01*
X129127598Y-120838936D01*
X128572075Y-120608263D01*
X127970564Y-120607738D01*
X127414640Y-120837441D01*
X126999649Y-121251708D01*
X126587598Y-120838936D01*
X126032075Y-120608263D01*
X125430564Y-120607738D01*
X124874640Y-120837441D01*
X124459649Y-121251708D01*
X124047598Y-120838936D01*
X123492075Y-120608263D01*
X122890564Y-120607738D01*
X122334640Y-120837441D01*
X121919649Y-121251708D01*
X121507598Y-120838936D01*
X120952075Y-120608263D01*
X120350564Y-120607738D01*
X119794640Y-120837441D01*
X119379649Y-121251708D01*
X118967598Y-120838936D01*
X118412075Y-120608263D01*
X117810564Y-120607738D01*
X117254640Y-120837441D01*
X116839649Y-121251708D01*
X116427598Y-120838936D01*
X115872075Y-120608263D01*
X115270564Y-120607738D01*
X114714640Y-120837441D01*
X114299649Y-121251708D01*
X113887598Y-120838936D01*
X113332075Y-120608263D01*
X112730564Y-120607738D01*
X112174640Y-120837441D01*
X111759649Y-121251708D01*
X111347598Y-120838936D01*
X110792075Y-120608263D01*
X110263806Y-120607802D01*
X110250666Y-120576000D01*
X109955554Y-120280372D01*
X109569774Y-120120182D01*
X109152058Y-120119818D01*
X108766000Y-120279334D01*
X108470372Y-120574446D01*
X108426291Y-120680604D01*
X108252075Y-120608263D01*
X107650564Y-120607738D01*
X107094640Y-120837441D01*
X106679649Y-121251708D01*
X106267598Y-120838936D01*
X105712075Y-120608263D01*
X105110564Y-120607738D01*
X104554640Y-120837441D01*
X104139649Y-121251708D01*
X103727598Y-120838936D01*
X103172075Y-120608263D01*
X102570564Y-120607738D01*
X102517754Y-120629559D01*
X102490666Y-120564000D01*
X102195554Y-120268372D01*
X101809774Y-120108182D01*
X101392058Y-120107818D01*
X101006000Y-120267334D01*
X100710372Y-120562446D01*
X100682630Y-120629255D01*
X100632075Y-120608263D01*
X100030564Y-120607738D01*
X99474640Y-120837441D01*
X99059649Y-121251708D01*
X98647598Y-120838936D01*
X98092075Y-120608263D01*
X97490564Y-120607738D01*
X96934640Y-120837441D01*
X96519649Y-121251708D01*
X96107598Y-120838936D01*
X95552075Y-120608263D01*
X94950564Y-120607738D01*
X94394640Y-120837441D01*
X93979649Y-121251708D01*
X93567598Y-120838936D01*
X93012075Y-120608263D01*
X92410564Y-120607738D01*
X91854640Y-120837441D01*
X91439649Y-121251708D01*
X91027598Y-120838936D01*
X90472075Y-120608263D01*
X89870564Y-120607738D01*
X89314640Y-120837441D01*
X88899649Y-121251708D01*
X88487598Y-120838936D01*
X87932075Y-120608263D01*
X87330564Y-120607738D01*
X86774640Y-120837441D01*
X86348936Y-121262402D01*
X86118263Y-121817925D01*
X86117738Y-122419436D01*
X86347441Y-122975360D01*
X86772402Y-123401064D01*
X87327925Y-123631737D01*
X87929436Y-123632262D01*
X88485360Y-123402559D01*
X88900351Y-122988292D01*
X89312402Y-123401064D01*
X89867925Y-123631737D01*
X90469436Y-123632262D01*
X91025360Y-123402559D01*
X91440351Y-122988292D01*
X91852402Y-123401064D01*
X92407925Y-123631737D01*
X93009436Y-123632262D01*
X93565360Y-123402559D01*
X93980351Y-122988292D01*
X94392402Y-123401064D01*
X94947925Y-123631737D01*
X95549436Y-123632262D01*
X96105360Y-123402559D01*
X96520351Y-122988292D01*
X96932402Y-123401064D01*
X97487925Y-123631737D01*
X98089436Y-123632262D01*
X98645360Y-123402559D01*
X99060351Y-122988292D01*
X99472402Y-123401064D01*
X100027925Y-123631737D01*
X100629436Y-123632262D01*
X100715000Y-123596908D01*
X100715000Y-127399751D01*
X100380630Y-127733537D01*
X100150262Y-128288325D01*
X100149738Y-128889040D01*
X100379138Y-129444229D01*
X100524536Y-129589882D01*
X100380630Y-129733537D01*
X100150262Y-130288325D01*
X100149738Y-130889040D01*
X100379138Y-131444229D01*
X100803537Y-131869370D01*
X101358325Y-132099738D01*
X101959040Y-132100262D01*
X102514229Y-131870862D01*
X102604481Y-131780767D01*
X103546634Y-131780767D01*
X103625534Y-132027179D01*
X104219247Y-132137619D01*
X104774466Y-132027179D01*
X104853366Y-131780767D01*
X104584305Y-131511706D01*
X108106301Y-131511706D01*
X108930000Y-132335406D01*
X109753699Y-131511706D01*
X109583321Y-131242403D01*
X108750008Y-131148252D01*
X108276679Y-131242403D01*
X108106301Y-131511706D01*
X104584305Y-131511706D01*
X104200000Y-131127401D01*
X103546634Y-131780767D01*
X102604481Y-131780767D01*
X102939370Y-131446463D01*
X103019314Y-131253936D01*
X103034074Y-131244074D01*
X103614074Y-130664074D01*
X103814589Y-130363983D01*
X103869529Y-130087781D01*
X103898325Y-130099738D01*
X104499040Y-130100262D01*
X104701436Y-130016634D01*
X105006102Y-130321300D01*
X104737401Y-130590000D01*
X105390767Y-131243366D01*
X105637179Y-131164466D01*
X105692911Y-130864859D01*
X106174839Y-130382931D01*
X105370913Y-129579005D01*
X110981887Y-129526101D01*
X111290000Y-129834214D01*
X111290000Y-133882230D01*
X111015512Y-133607742D01*
X111071748Y-133110008D01*
X110977597Y-132636679D01*
X110708294Y-132466301D01*
X109884594Y-133290000D01*
X110305323Y-133710729D01*
X109841052Y-134175000D01*
X108018948Y-134175000D01*
X107554677Y-133710729D01*
X107975406Y-133290000D01*
X107151706Y-132466301D01*
X106882403Y-132636679D01*
X106788252Y-133469992D01*
X106820436Y-133631794D01*
X106529795Y-133922435D01*
X106782360Y-134175000D01*
X99077640Y-134175000D01*
X99330205Y-133922435D01*
X99015512Y-133607742D01*
X99071748Y-133110008D01*
X98977597Y-132636679D01*
X98708294Y-132466301D01*
X97884594Y-133290000D01*
X98305323Y-133710729D01*
X97841052Y-134175000D01*
X96018948Y-134175000D01*
X95554677Y-133710729D01*
X95975406Y-133290000D01*
X95151706Y-132466301D01*
X94939693Y-132600434D01*
X94939693Y-131511706D01*
X96106301Y-131511706D01*
X96930000Y-132335406D01*
X97753699Y-131511706D01*
X97583321Y-131242403D01*
X96750008Y-131148252D01*
X96276679Y-131242403D01*
X96106301Y-131511706D01*
X94939693Y-131511706D01*
X94939693Y-129175000D01*
X94887396Y-128897067D01*
X94723138Y-128641802D01*
X94472508Y-128470554D01*
X94175000Y-128410307D01*
X90675000Y-128410307D01*
X90397067Y-128462604D01*
X90239693Y-128563871D01*
X90239693Y-126175000D01*
X90187396Y-125897067D01*
X90023138Y-125641802D01*
X89772508Y-125470554D01*
X89475000Y-125410307D01*
X85975000Y-125410307D01*
X85697067Y-125462604D01*
X85441802Y-125626862D01*
X85270554Y-125877492D01*
X85231357Y-126071053D01*
X85226230Y-126074348D01*
X85217316Y-126076121D01*
X85062392Y-126179638D01*
X84905632Y-126280379D01*
X84900448Y-126287845D01*
X84892893Y-126292893D01*
X82592893Y-128592893D01*
X82376120Y-128917316D01*
X82322672Y-129186018D01*
X82300000Y-129300000D01*
X82300000Y-133185787D01*
X81885786Y-133600000D01*
X78884214Y-133600000D01*
X78684693Y-133400479D01*
X78684693Y-132350000D01*
X78632396Y-132072067D01*
X78468138Y-131816802D01*
X78294842Y-131698394D01*
X78579553Y-131272293D01*
X78701346Y-130660000D01*
X78579553Y-130047707D01*
X78232717Y-129528629D01*
X77713639Y-129181793D01*
X77101346Y-129060000D01*
X77038654Y-129060000D01*
X76426361Y-129181793D01*
X75907283Y-129528629D01*
X75560447Y-130047707D01*
X75438654Y-130660000D01*
X75560447Y-131272293D01*
X75845891Y-131699491D01*
X75686802Y-131801862D01*
X75515554Y-132052492D01*
X75455307Y-132350000D01*
X75455307Y-134050000D01*
X75478828Y-134175000D01*
X55515848Y-134175000D01*
X56229309Y-133461539D01*
X55914769Y-133146999D01*
X56224618Y-132797737D01*
X56284439Y-131503004D01*
X56224618Y-131202263D01*
X55914769Y-130853001D01*
X56229309Y-130538461D01*
X55829719Y-130138871D01*
X58194000Y-131476736D01*
X58194000Y-131658162D01*
X58327211Y-132327858D01*
X58706563Y-132895599D01*
X59274304Y-133274951D01*
X59944000Y-133408162D01*
X60613696Y-133274951D01*
X60886617Y-133092591D01*
X61054627Y-133260601D01*
X61333224Y-133376000D01*
X61794500Y-133376000D01*
X61984000Y-133186500D01*
X61984000Y-131968000D01*
X62984000Y-131968000D01*
X62984000Y-133186500D01*
X63173500Y-133376000D01*
X63634776Y-133376000D01*
X63913373Y-133260601D01*
X64126602Y-133047372D01*
X64242000Y-132768775D01*
X64242000Y-132157500D01*
X64052500Y-131968000D01*
X62984000Y-131968000D01*
X61984000Y-131968000D01*
X61632369Y-131968000D01*
X61694000Y-131658162D01*
X61694000Y-130977838D01*
X61632369Y-130668000D01*
X61984000Y-130668000D01*
X61984000Y-130418008D01*
X62984000Y-130424020D01*
X62984000Y-130668000D01*
X64052500Y-130668000D01*
X64242000Y-130478500D01*
X64242000Y-129867225D01*
X64163870Y-129678601D01*
X64697603Y-128788139D01*
X72647289Y-128761995D01*
X72662553Y-128758907D01*
X72677922Y-128761425D01*
X72853231Y-128720326D01*
X73029719Y-128684616D01*
X73042640Y-128675921D01*
X73057803Y-128672366D01*
X75399914Y-127607770D01*
X75438000Y-127615346D01*
X76050293Y-127493553D01*
X76477491Y-127208109D01*
X76579862Y-127367198D01*
X76830492Y-127538446D01*
X77128000Y-127598693D01*
X78828000Y-127598693D01*
X79105933Y-127546396D01*
X79361198Y-127382138D01*
X79532446Y-127131508D01*
X79592693Y-126834000D01*
X79592693Y-125134000D01*
X79540396Y-124856067D01*
X79376138Y-124600802D01*
X79125508Y-124429554D01*
X79025011Y-124409203D01*
X80073939Y-123360274D01*
X80194000Y-123310666D01*
X80489628Y-123015554D01*
X80649818Y-122629774D01*
X80650182Y-122212058D01*
X80490666Y-121826000D01*
X80195554Y-121530372D01*
X79809774Y-121370182D01*
X79392058Y-121369818D01*
X79006000Y-121529334D01*
X78710372Y-121824446D01*
X78659977Y-121945809D01*
X77270893Y-123334893D01*
X77054120Y-123659316D01*
X77054120Y-123659317D01*
X76978000Y-124042000D01*
X76978000Y-124397532D01*
X76850067Y-124421604D01*
X76594802Y-124585862D01*
X76476394Y-124759158D01*
X76050293Y-124474447D01*
X75438000Y-124352654D01*
X74825707Y-124474447D01*
X74306629Y-124821283D01*
X73959793Y-125340361D01*
X73838000Y-125952654D01*
X73838000Y-126015346D01*
X73857239Y-126112069D01*
X72425826Y-126762712D01*
X66383846Y-126782582D01*
X66385409Y-126774722D01*
X66414628Y-126745554D01*
X66574818Y-126359774D01*
X66575182Y-125942058D01*
X66415666Y-125556000D01*
X66120554Y-125260372D01*
X65734774Y-125100182D01*
X65317058Y-125099818D01*
X64931000Y-125259334D01*
X64635372Y-125554446D01*
X64475182Y-125940226D01*
X64475021Y-126125000D01*
X61975000Y-126125000D01*
X61621017Y-126195411D01*
X61320926Y-126395926D01*
X60806810Y-126910042D01*
X60506000Y-127034334D01*
X60210372Y-127329446D01*
X60050182Y-127715226D01*
X60049818Y-128132942D01*
X60163067Y-128407025D01*
X58779204Y-128398706D01*
X56260817Y-126902311D01*
X56192731Y-126878243D01*
X56132683Y-126838120D01*
X56010448Y-126813806D01*
X55892945Y-126772269D01*
X55820828Y-126776088D01*
X55750000Y-126762000D01*
X55278213Y-126762000D01*
X54340000Y-125823786D01*
X54340000Y-121572214D01*
X54576065Y-121336149D01*
X54575818Y-121619942D01*
X54735334Y-122006000D01*
X55030446Y-122301628D01*
X55416226Y-122461818D01*
X55833942Y-122462182D01*
X56136905Y-122337000D01*
X57658000Y-122337000D01*
X58011983Y-122266589D01*
X58312074Y-122066074D01*
X59328074Y-121050074D01*
X59528589Y-120749983D01*
X59599000Y-120396000D01*
X59599000Y-120175922D01*
X59897942Y-120176182D01*
X60284000Y-120016666D01*
X60579628Y-119721554D01*
X60728098Y-119364000D01*
X64694251Y-119364000D01*
X64814226Y-119413818D01*
X65231942Y-119414182D01*
X65618000Y-119254666D01*
X65913628Y-118959554D01*
X66073818Y-118573774D01*
X66074182Y-118156058D01*
X65914666Y-117770000D01*
X65619554Y-117474372D01*
X65233774Y-117314182D01*
X64816058Y-117313818D01*
X64694608Y-117364000D01*
X59674000Y-117364000D01*
X59674000Y-117157942D01*
X101249818Y-117157942D01*
X101409334Y-117544000D01*
X101704446Y-117839628D01*
X101849825Y-117899995D01*
X101849818Y-117907942D01*
X102009334Y-118294000D01*
X102304446Y-118589628D01*
X102690226Y-118749818D01*
X103107942Y-118750182D01*
X103494000Y-118590666D01*
X103789628Y-118295554D01*
X103828038Y-118203052D01*
X104100201Y-118028090D01*
X104137484Y-117992105D01*
X104183298Y-117967905D01*
X107774378Y-115050153D01*
X107807942Y-115050182D01*
X108194000Y-114890666D01*
X108489628Y-114595554D01*
X108649818Y-114209774D01*
X108650182Y-113792058D01*
X108490666Y-113406000D01*
X108195554Y-113110372D01*
X107809774Y-112950182D01*
X107632815Y-112950028D01*
X107490666Y-112606000D01*
X107195554Y-112310372D01*
X106809774Y-112150182D01*
X106392058Y-112149818D01*
X106006000Y-112309334D01*
X105710372Y-112604446D01*
X105611511Y-112842529D01*
X102187255Y-115899901D01*
X102092058Y-115899818D01*
X101706000Y-116059334D01*
X101410372Y-116354446D01*
X101250182Y-116740226D01*
X101249818Y-117157942D01*
X59674000Y-117157942D01*
X59674000Y-116332000D01*
X59617907Y-116050000D01*
X59597880Y-115949316D01*
X59381107Y-115624893D01*
X57631726Y-113875512D01*
X57582951Y-113630304D01*
X57203599Y-113062563D01*
X57154865Y-113030000D01*
X57203599Y-112997437D01*
X57582951Y-112429696D01*
X57612732Y-112279977D01*
X57640241Y-112527553D01*
X57624182Y-112566226D01*
X57623818Y-112983942D01*
X57783334Y-113370000D01*
X58078446Y-113665628D01*
X58464226Y-113825818D01*
X58881942Y-113826182D01*
X59268000Y-113666666D01*
X59563628Y-113371554D01*
X59723818Y-112985774D01*
X59724182Y-112568058D01*
X59632357Y-112345824D01*
X59159884Y-108093568D01*
X59153291Y-108072770D01*
X86976045Y-108072770D01*
X87055255Y-108319265D01*
X87649788Y-108429653D01*
X88204745Y-108319265D01*
X88283955Y-108072770D01*
X89516045Y-108072770D01*
X89595255Y-108319265D01*
X90189788Y-108429653D01*
X90744745Y-108319265D01*
X90823955Y-108072770D01*
X90170000Y-107418815D01*
X89516045Y-108072770D01*
X88283955Y-108072770D01*
X87630000Y-107418815D01*
X86976045Y-108072770D01*
X59153291Y-108072770D01*
X59117343Y-107959381D01*
X59089880Y-107821316D01*
X59058848Y-107774874D01*
X59041969Y-107721632D01*
X58951316Y-107613941D01*
X58873107Y-107496893D01*
X58276002Y-106899788D01*
X86080347Y-106899788D01*
X86190735Y-107454745D01*
X86437230Y-107533955D01*
X87091185Y-106880000D01*
X88168815Y-106880000D01*
X88727551Y-107438736D01*
X88730735Y-107454745D01*
X88749633Y-107460818D01*
X88822770Y-107533955D01*
X88900000Y-107509138D01*
X88977230Y-107533955D01*
X89050367Y-107460818D01*
X89069265Y-107454745D01*
X89072189Y-107438996D01*
X89631185Y-106880000D01*
X90708815Y-106880000D01*
X91331162Y-107502347D01*
X91427441Y-107735360D01*
X91852402Y-108161064D01*
X92407925Y-108391737D01*
X93009436Y-108392262D01*
X93565360Y-108162559D01*
X93980351Y-107748292D01*
X94392402Y-108161064D01*
X94947925Y-108391737D01*
X95024049Y-108391803D01*
X92162810Y-111253042D01*
X91862000Y-111377334D01*
X91566372Y-111672446D01*
X91406182Y-112058226D01*
X91405818Y-112475942D01*
X91565334Y-112862000D01*
X91860446Y-113157628D01*
X92246226Y-113317818D01*
X92663942Y-113318182D01*
X93050000Y-113158666D01*
X93345628Y-112863554D01*
X93471339Y-112560809D01*
X94200158Y-111831990D01*
X94199818Y-112221942D01*
X94359334Y-112608000D01*
X94654446Y-112903628D01*
X95040226Y-113063818D01*
X95457942Y-113064182D01*
X95844000Y-112904666D01*
X96139628Y-112609554D01*
X96265339Y-112306809D01*
X100180278Y-108391870D01*
X100629436Y-108392262D01*
X101185360Y-108162559D01*
X101600351Y-107748292D01*
X102012402Y-108161064D01*
X102567925Y-108391737D01*
X103169436Y-108392262D01*
X103725360Y-108162559D01*
X104140351Y-107748292D01*
X104552402Y-108161064D01*
X105107925Y-108391737D01*
X105709436Y-108392262D01*
X106265360Y-108162559D01*
X106680351Y-107748292D01*
X107092402Y-108161064D01*
X107647925Y-108391737D01*
X108249436Y-108392262D01*
X108805360Y-108162559D01*
X109220351Y-107748292D01*
X109632402Y-108161064D01*
X110187925Y-108391737D01*
X110789436Y-108392262D01*
X111345360Y-108162559D01*
X111760351Y-107748292D01*
X112172402Y-108161064D01*
X112727925Y-108391737D01*
X113329436Y-108392262D01*
X113885360Y-108162559D01*
X114300351Y-107748292D01*
X114712402Y-108161064D01*
X115267925Y-108391737D01*
X115869436Y-108392262D01*
X116425360Y-108162559D01*
X116840351Y-107748292D01*
X117252402Y-108161064D01*
X117807925Y-108391737D01*
X118409436Y-108392262D01*
X118965360Y-108162559D01*
X119380351Y-107748292D01*
X119792402Y-108161064D01*
X120347925Y-108391737D01*
X120949436Y-108392262D01*
X121505360Y-108162559D01*
X121920351Y-107748292D01*
X122332402Y-108161064D01*
X122887925Y-108391737D01*
X123489436Y-108392262D01*
X124045360Y-108162559D01*
X124460351Y-107748292D01*
X124872402Y-108161064D01*
X125427925Y-108391737D01*
X126029436Y-108392262D01*
X126585360Y-108162559D01*
X127000351Y-107748292D01*
X127412402Y-108161064D01*
X127967925Y-108391737D01*
X128569436Y-108392262D01*
X129125360Y-108162559D01*
X129540351Y-107748292D01*
X129952402Y-108161064D01*
X130507925Y-108391737D01*
X131109436Y-108392262D01*
X131665360Y-108162559D01*
X132080351Y-107748292D01*
X132492402Y-108161064D01*
X133047925Y-108391737D01*
X133649436Y-108392262D01*
X134205360Y-108162559D01*
X134620351Y-107748292D01*
X135032402Y-108161064D01*
X135587925Y-108391737D01*
X136189436Y-108392262D01*
X136745360Y-108162559D01*
X137171064Y-107737598D01*
X137401737Y-107182075D01*
X137402262Y-106580564D01*
X137172559Y-106024640D01*
X136747598Y-105598936D01*
X136192075Y-105368263D01*
X135590564Y-105367738D01*
X135034640Y-105597441D01*
X134619649Y-106011708D01*
X134207598Y-105598936D01*
X133652075Y-105368263D01*
X133050564Y-105367738D01*
X132494640Y-105597441D01*
X132079649Y-106011708D01*
X131667598Y-105598936D01*
X131112075Y-105368263D01*
X130510564Y-105367738D01*
X129954640Y-105597441D01*
X129539649Y-106011708D01*
X129127598Y-105598936D01*
X128572075Y-105368263D01*
X127970564Y-105367738D01*
X127414640Y-105597441D01*
X126999649Y-106011708D01*
X126587598Y-105598936D01*
X126032075Y-105368263D01*
X125430564Y-105367738D01*
X124874640Y-105597441D01*
X124459649Y-106011708D01*
X124047598Y-105598936D01*
X123492075Y-105368263D01*
X122890564Y-105367738D01*
X122334640Y-105597441D01*
X121919649Y-106011708D01*
X121507598Y-105598936D01*
X120952075Y-105368263D01*
X120350564Y-105367738D01*
X119794640Y-105597441D01*
X119379649Y-106011708D01*
X118967598Y-105598936D01*
X118412075Y-105368263D01*
X117810564Y-105367738D01*
X117254640Y-105597441D01*
X116839649Y-106011708D01*
X116427598Y-105598936D01*
X115872075Y-105368263D01*
X115270564Y-105367738D01*
X114714640Y-105597441D01*
X114299649Y-106011708D01*
X113887598Y-105598936D01*
X113332075Y-105368263D01*
X112730564Y-105367738D01*
X112174640Y-105597441D01*
X111759649Y-106011708D01*
X111347598Y-105598936D01*
X110792075Y-105368263D01*
X110190564Y-105367738D01*
X109634640Y-105597441D01*
X109219649Y-106011708D01*
X108807598Y-105598936D01*
X108252075Y-105368263D01*
X107650564Y-105367738D01*
X107094640Y-105597441D01*
X106679649Y-106011708D01*
X106267598Y-105598936D01*
X105712075Y-105368263D01*
X105110564Y-105367738D01*
X104554640Y-105597441D01*
X104139649Y-106011708D01*
X103727598Y-105598936D01*
X103172075Y-105368263D01*
X102570564Y-105367738D01*
X102014640Y-105597441D01*
X101599649Y-106011708D01*
X101187598Y-105598936D01*
X100632075Y-105368263D01*
X100030564Y-105367738D01*
X99474640Y-105597441D01*
X99059649Y-106011708D01*
X98647598Y-105598936D01*
X98092075Y-105368263D01*
X97490564Y-105367738D01*
X96934640Y-105597441D01*
X96519649Y-106011708D01*
X96107598Y-105598936D01*
X95552075Y-105368263D01*
X94950564Y-105367738D01*
X94394640Y-105597441D01*
X93979649Y-106011708D01*
X93635000Y-105666456D01*
X93635000Y-102550946D01*
X134217518Y-102550946D01*
X134640160Y-103573818D01*
X135422066Y-104357090D01*
X136444198Y-104781516D01*
X137550946Y-104782482D01*
X138573818Y-104359840D01*
X139357090Y-103577934D01*
X139781516Y-102555802D01*
X139782482Y-101449054D01*
X139359840Y-100426182D01*
X138577934Y-99642910D01*
X137555802Y-99218484D01*
X136449054Y-99217518D01*
X135426182Y-99640160D01*
X134642910Y-100422066D01*
X134218484Y-101444198D01*
X134217518Y-102550946D01*
X93635000Y-102550946D01*
X93635000Y-100078369D01*
X93759818Y-99777774D01*
X93760182Y-99360058D01*
X93600666Y-98974000D01*
X93305554Y-98678372D01*
X92919774Y-98518182D01*
X92502058Y-98517818D01*
X92116000Y-98677334D01*
X91820372Y-98972446D01*
X91660182Y-99358226D01*
X91659818Y-99775942D01*
X91785000Y-100078905D01*
X91785000Y-105666959D01*
X91428936Y-106022402D01*
X91331315Y-106257500D01*
X90708815Y-106880000D01*
X89631185Y-106880000D01*
X89072449Y-106321264D01*
X89069265Y-106305255D01*
X89050367Y-106299182D01*
X88977230Y-106226045D01*
X88900000Y-106250862D01*
X88822770Y-106226045D01*
X88749633Y-106299182D01*
X88730735Y-106305255D01*
X88727811Y-106321004D01*
X88168815Y-106880000D01*
X87091185Y-106880000D01*
X86437230Y-106226045D01*
X86190735Y-106305255D01*
X86080347Y-106899788D01*
X58276002Y-106899788D01*
X58111107Y-106734893D01*
X57786684Y-106518120D01*
X57679730Y-106496846D01*
X57582951Y-106010304D01*
X57367081Y-105687230D01*
X86976045Y-105687230D01*
X87630000Y-106341185D01*
X88283955Y-105687230D01*
X89516045Y-105687230D01*
X90170000Y-106341185D01*
X90823955Y-105687230D01*
X90744745Y-105440735D01*
X90150212Y-105330347D01*
X89595255Y-105440735D01*
X89516045Y-105687230D01*
X88283955Y-105687230D01*
X88204745Y-105440735D01*
X87610212Y-105330347D01*
X87055255Y-105440735D01*
X86976045Y-105687230D01*
X57367081Y-105687230D01*
X57203599Y-105442563D01*
X56635858Y-105063211D01*
X55966162Y-104930000D01*
X55285838Y-104930000D01*
X54616142Y-105063211D01*
X54048401Y-105442563D01*
X53669049Y-106010304D01*
X53535838Y-106680000D01*
X53669049Y-107349696D01*
X54048401Y-107917437D01*
X54097135Y-107950000D01*
X54048401Y-107982563D01*
X53669049Y-108550304D01*
X53535838Y-109220000D01*
X53647985Y-109783801D01*
X51616893Y-111814893D01*
X51400120Y-112139316D01*
X51342360Y-112429696D01*
X51324000Y-112522000D01*
X51324000Y-127254000D01*
X51400120Y-127636684D01*
X51616893Y-127961107D01*
X52393191Y-128737404D01*
X52202263Y-128775382D01*
X51853001Y-129085231D01*
X51538461Y-128770691D01*
X50825000Y-129484152D01*
X50825000Y-102550946D01*
X57217518Y-102550946D01*
X57640160Y-103573818D01*
X58422066Y-104357090D01*
X59444198Y-104781516D01*
X60550946Y-104782482D01*
X61573818Y-104359840D01*
X62357090Y-103577934D01*
X62781516Y-102555802D01*
X62782482Y-101449054D01*
X62359840Y-100426182D01*
X61577934Y-99642910D01*
X60555802Y-99218484D01*
X59449054Y-99217518D01*
X58426182Y-99640160D01*
X57642910Y-100422066D01*
X57218484Y-101444198D01*
X57217518Y-102550946D01*
X50825000Y-102550946D01*
X50825000Y-97768654D01*
X98960000Y-97768654D01*
X98960000Y-97831346D01*
X99081793Y-98443639D01*
X99428629Y-98962717D01*
X99947707Y-99309553D01*
X100560000Y-99431346D01*
X101172293Y-99309553D01*
X101560739Y-99050002D01*
X101595233Y-99050002D01*
X101607399Y-99079373D01*
X101820628Y-99292602D01*
X102099225Y-99408000D01*
X102485500Y-99408000D01*
X102675000Y-99218500D01*
X102675000Y-98225000D01*
X103525000Y-98225000D01*
X103525000Y-99218500D01*
X103714500Y-99408000D01*
X104100775Y-99408000D01*
X104379372Y-99292602D01*
X104592601Y-99079373D01*
X104708000Y-98800776D01*
X104708000Y-98414500D01*
X104518500Y-98225000D01*
X103525000Y-98225000D01*
X102675000Y-98225000D01*
X102250000Y-98225000D01*
X102250000Y-97375000D01*
X102675000Y-97375000D01*
X102675000Y-96381500D01*
X103525000Y-96381500D01*
X103525000Y-97375000D01*
X104518500Y-97375000D01*
X104708000Y-97185500D01*
X104708000Y-96799224D01*
X104592601Y-96520627D01*
X104379372Y-96307398D01*
X104100775Y-96192000D01*
X103714500Y-96192000D01*
X103525000Y-96381500D01*
X102675000Y-96381500D01*
X102485500Y-96192000D01*
X102099225Y-96192000D01*
X101820628Y-96307398D01*
X101607399Y-96520627D01*
X101595233Y-96549998D01*
X101560739Y-96549998D01*
X101172293Y-96290447D01*
X100560000Y-96168654D01*
X99947707Y-96290447D01*
X99428629Y-96637283D01*
X99081793Y-97156361D01*
X98960000Y-97768654D01*
X50825000Y-97768654D01*
X50825000Y-87329942D01*
X106391818Y-87329942D01*
X106490076Y-87567745D01*
X106512644Y-90178121D01*
X106392182Y-90468226D01*
X106391818Y-90885942D01*
X106551334Y-91272000D01*
X106846446Y-91567628D01*
X107232226Y-91727818D01*
X107649942Y-91728182D01*
X108036000Y-91568666D01*
X108046196Y-91558488D01*
X108290226Y-91659818D01*
X108707942Y-91660182D01*
X109094000Y-91500666D01*
X109389628Y-91205554D01*
X109549818Y-90819774D01*
X109550182Y-90402058D01*
X109426280Y-90102193D01*
X109426800Y-89895342D01*
X120275458Y-89895342D01*
X120434974Y-90281400D01*
X120730086Y-90577028D01*
X121115866Y-90737218D01*
X121533582Y-90737582D01*
X121836545Y-90612400D01*
X125387271Y-90612400D01*
X125687866Y-90737218D01*
X126105582Y-90737582D01*
X126491640Y-90578066D01*
X126787268Y-90282954D01*
X126947458Y-89897174D01*
X126947822Y-89479458D01*
X126788306Y-89093400D01*
X126493194Y-88797772D01*
X126107414Y-88637582D01*
X125689698Y-88637218D01*
X125386735Y-88762400D01*
X121836009Y-88762400D01*
X121535414Y-88637582D01*
X121117698Y-88637218D01*
X120731640Y-88796734D01*
X120436012Y-89091846D01*
X120275822Y-89477626D01*
X120275458Y-89895342D01*
X109426800Y-89895342D01*
X109432390Y-87673420D01*
X109439068Y-87666754D01*
X109599258Y-87280974D01*
X109599622Y-86863258D01*
X109440106Y-86477200D01*
X109144994Y-86181572D01*
X108759214Y-86021382D01*
X108341498Y-86021018D01*
X107955440Y-86180534D01*
X107942889Y-86193063D01*
X107651774Y-86072182D01*
X107234058Y-86071818D01*
X106848000Y-86231334D01*
X106552372Y-86526446D01*
X106392182Y-86912226D01*
X106391818Y-87329942D01*
X50825000Y-87329942D01*
X50825000Y-85450342D01*
X118624458Y-85450342D01*
X118783974Y-85836400D01*
X119079086Y-86132028D01*
X119381832Y-86257739D01*
X119655564Y-86531471D01*
X119655566Y-86531474D01*
X119817089Y-86639400D01*
X119955658Y-86731989D01*
X120309640Y-86802401D01*
X120309645Y-86802400D01*
X128796314Y-86802400D01*
X128816974Y-86852400D01*
X129112086Y-87148028D01*
X129497866Y-87308218D01*
X129915582Y-87308582D01*
X130301640Y-87149066D01*
X130597268Y-86853954D01*
X130600013Y-86847342D01*
X134220058Y-86847342D01*
X134379574Y-87233400D01*
X134674686Y-87529028D01*
X135060466Y-87689218D01*
X135478182Y-87689582D01*
X135818029Y-87549160D01*
X136847751Y-87549160D01*
X137148346Y-87673978D01*
X137566062Y-87674342D01*
X137952120Y-87514826D01*
X138247748Y-87219714D01*
X138407938Y-86833934D01*
X138408302Y-86416218D01*
X138248786Y-86030160D01*
X137953674Y-85734532D01*
X137567894Y-85574342D01*
X137150178Y-85573978D01*
X136847215Y-85699160D01*
X135743907Y-85699160D01*
X135480014Y-85589582D01*
X135062298Y-85589218D01*
X134676240Y-85748734D01*
X134380612Y-86043846D01*
X134220422Y-86429626D01*
X134220058Y-86847342D01*
X130600013Y-86847342D01*
X130757458Y-86468174D01*
X130757822Y-86050458D01*
X130598306Y-85664400D01*
X130303194Y-85368772D01*
X130000449Y-85243061D01*
X129980714Y-85223326D01*
X129680623Y-85022811D01*
X129326640Y-84952400D01*
X120692787Y-84952400D01*
X120689599Y-84949211D01*
X120565306Y-84648400D01*
X120270194Y-84352772D01*
X119884414Y-84192582D01*
X119466698Y-84192218D01*
X119080640Y-84351734D01*
X118785012Y-84646846D01*
X118624822Y-85032626D01*
X118624458Y-85450342D01*
X50825000Y-85450342D01*
X50825000Y-82107702D01*
X91868098Y-82107702D01*
X92027614Y-82493760D01*
X92322726Y-82789388D01*
X92708506Y-82949578D01*
X93126222Y-82949942D01*
X93207884Y-82916200D01*
X96763400Y-82916200D01*
X96763400Y-83836041D01*
X96714782Y-83953126D01*
X96714418Y-84370842D01*
X96873934Y-84756900D01*
X97169046Y-85052528D01*
X97554826Y-85212718D01*
X97972542Y-85213082D01*
X98358600Y-85053566D01*
X98654228Y-84758454D01*
X98814418Y-84372674D01*
X98814782Y-83954958D01*
X98655266Y-83568900D01*
X98613400Y-83526961D01*
X98613400Y-82916200D01*
X99311631Y-82916200D01*
X99612226Y-83041018D01*
X100029942Y-83041382D01*
X100416000Y-82881866D01*
X100711628Y-82586754D01*
X100802968Y-82366782D01*
X106630578Y-82366782D01*
X106790094Y-82752840D01*
X107085206Y-83048468D01*
X107470986Y-83208658D01*
X107888702Y-83209022D01*
X108274760Y-83049506D01*
X108570388Y-82754394D01*
X108730578Y-82368614D01*
X108730942Y-81950898D01*
X108605760Y-81647935D01*
X108605760Y-80187462D01*
X131883258Y-80187462D01*
X132042774Y-80573520D01*
X132337886Y-80869148D01*
X132723666Y-81029338D01*
X133141382Y-81029702D01*
X133527440Y-80870186D01*
X133798379Y-80599720D01*
X134170591Y-80599720D01*
X134471186Y-80724538D01*
X134888902Y-80724902D01*
X135274960Y-80565386D01*
X135570588Y-80270274D01*
X135730778Y-79884494D01*
X135731142Y-79466778D01*
X135571626Y-79080720D01*
X135276514Y-78785092D01*
X134890734Y-78624902D01*
X134473018Y-78624538D01*
X134170055Y-78749720D01*
X133238240Y-78749720D01*
X132884257Y-78820131D01*
X132713234Y-78934406D01*
X132339440Y-79088854D01*
X132043812Y-79383966D01*
X131883622Y-79769746D01*
X131883258Y-80187462D01*
X108605760Y-80187462D01*
X108605760Y-79885579D01*
X108755978Y-79523814D01*
X108756342Y-79106098D01*
X108596826Y-78720040D01*
X108301714Y-78424412D01*
X107915934Y-78264222D01*
X107498218Y-78263858D01*
X107112160Y-78423374D01*
X106816532Y-78718486D01*
X106656342Y-79104266D01*
X106655978Y-79521982D01*
X106755760Y-79763473D01*
X106755760Y-81648471D01*
X106630942Y-81949066D01*
X106630578Y-82366782D01*
X100802968Y-82366782D01*
X100871818Y-82200974D01*
X100872182Y-81783258D01*
X100712666Y-81397200D01*
X100417554Y-81101572D01*
X100031774Y-80941382D01*
X99614058Y-80941018D01*
X99311095Y-81066200D01*
X93569804Y-81066200D01*
X93513834Y-81010132D01*
X93128054Y-80849942D01*
X92710338Y-80849578D01*
X92324280Y-81009094D01*
X92028652Y-81304206D01*
X91868462Y-81689986D01*
X91868098Y-82107702D01*
X50825000Y-82107702D01*
X50825000Y-77322342D01*
X138182458Y-77322342D01*
X138341974Y-77708400D01*
X138637086Y-78004028D01*
X139022866Y-78164218D01*
X139440582Y-78164582D01*
X139743545Y-78039400D01*
X140500271Y-78039400D01*
X140800866Y-78164218D01*
X141218582Y-78164582D01*
X141604640Y-78005066D01*
X141900268Y-77709954D01*
X142060458Y-77324174D01*
X142060822Y-76906458D01*
X141901306Y-76520400D01*
X141606194Y-76224772D01*
X141220414Y-76064582D01*
X140802698Y-76064218D01*
X140499735Y-76189400D01*
X139743009Y-76189400D01*
X139442414Y-76064582D01*
X139024698Y-76064218D01*
X138638640Y-76223734D01*
X138343012Y-76518846D01*
X138182822Y-76904626D01*
X138182458Y-77322342D01*
X50825000Y-77322342D01*
X50825000Y-75840961D01*
X59331699Y-75840961D01*
X59525361Y-76115784D01*
X60419149Y-76205592D01*
X60870639Y-76115784D01*
X61064301Y-75840961D01*
X60198000Y-74974660D01*
X59331699Y-75840961D01*
X50825000Y-75840961D01*
X50825000Y-74135149D01*
X57906408Y-74135149D01*
X57996216Y-74586639D01*
X58271039Y-74780301D01*
X59137340Y-73914000D01*
X61258660Y-73914000D01*
X62124961Y-74780301D01*
X62399784Y-74586639D01*
X62422598Y-74359589D01*
X66075610Y-74359589D01*
X66417431Y-75186858D01*
X67049813Y-75820345D01*
X67876484Y-76163608D01*
X68771589Y-76164390D01*
X69598858Y-75822569D01*
X70232345Y-75190187D01*
X70575608Y-74363516D01*
X70575683Y-74276882D01*
X89112198Y-74276882D01*
X89271714Y-74662940D01*
X89566826Y-74958568D01*
X89869571Y-75084279D01*
X90430326Y-75645034D01*
X90730417Y-75845549D01*
X91084400Y-75915960D01*
X98999432Y-75915960D01*
X99226726Y-76143254D01*
X99226478Y-76428262D01*
X99385994Y-76814320D01*
X99681106Y-77109948D01*
X100066886Y-77270138D01*
X100484602Y-77270502D01*
X100870660Y-77110986D01*
X101166288Y-76815874D01*
X101326478Y-76430094D01*
X101326842Y-76012378D01*
X101167326Y-75626320D01*
X101145935Y-75604892D01*
X101131249Y-75531058D01*
X101131249Y-75531057D01*
X100930734Y-75230966D01*
X100036654Y-74336886D01*
X99736563Y-74136371D01*
X99490157Y-74087358D01*
X99538318Y-73971374D01*
X99538682Y-73553658D01*
X99379166Y-73167600D01*
X99084054Y-72871972D01*
X98698274Y-72711782D01*
X98280558Y-72711418D01*
X97977595Y-72836600D01*
X97170069Y-72836600D01*
X96869474Y-72711782D01*
X96451758Y-72711418D01*
X96065700Y-72870934D01*
X95770072Y-73166046D01*
X95609882Y-73551826D01*
X95609518Y-73969542D01*
X95649357Y-74065960D01*
X91467548Y-74065960D01*
X91177338Y-73775750D01*
X91053046Y-73474940D01*
X90757934Y-73179312D01*
X90372154Y-73019122D01*
X89954438Y-73018758D01*
X89568380Y-73178274D01*
X89272752Y-73473386D01*
X89112562Y-73859166D01*
X89112198Y-74276882D01*
X70575683Y-74276882D01*
X70576390Y-73468411D01*
X70234569Y-72641142D01*
X69602187Y-72007655D01*
X68775516Y-71664392D01*
X67880411Y-71663610D01*
X67053142Y-72005431D01*
X66419655Y-72637813D01*
X66076392Y-73464484D01*
X66075610Y-74359589D01*
X62422598Y-74359589D01*
X62489592Y-73692851D01*
X62399784Y-73241361D01*
X62124961Y-73047699D01*
X61258660Y-73914000D01*
X59137340Y-73914000D01*
X58271039Y-73047699D01*
X57996216Y-73241361D01*
X57906408Y-74135149D01*
X50825000Y-74135149D01*
X50825000Y-71987039D01*
X59331699Y-71987039D01*
X60198000Y-72853340D01*
X61064301Y-71987039D01*
X60870639Y-71712216D01*
X59976851Y-71622408D01*
X59525361Y-71712216D01*
X59331699Y-71987039D01*
X50825000Y-71987039D01*
X50825000Y-70506961D01*
X53997699Y-70506961D01*
X54191361Y-70781784D01*
X55085149Y-70871592D01*
X55536639Y-70781784D01*
X55730301Y-70506961D01*
X54864000Y-69640660D01*
X53997699Y-70506961D01*
X50825000Y-70506961D01*
X50825000Y-68801149D01*
X52572408Y-68801149D01*
X52662216Y-69252639D01*
X52937039Y-69446301D01*
X53803340Y-68580000D01*
X55924660Y-68580000D01*
X56790961Y-69446301D01*
X57065784Y-69252639D01*
X57085476Y-69056654D01*
X71298000Y-69056654D01*
X71298000Y-69119346D01*
X71419793Y-69731639D01*
X71766629Y-70250717D01*
X72285707Y-70597553D01*
X72898000Y-70719346D01*
X73510293Y-70597553D01*
X74029371Y-70250717D01*
X74168000Y-70043244D01*
X74306629Y-70250717D01*
X74825707Y-70597553D01*
X75438000Y-70719346D01*
X76050293Y-70597553D01*
X76477491Y-70312109D01*
X76579862Y-70471198D01*
X76830492Y-70642446D01*
X77128000Y-70702693D01*
X78828000Y-70702693D01*
X79105933Y-70650396D01*
X79361198Y-70486138D01*
X79532446Y-70235508D01*
X79537542Y-70210342D01*
X95383458Y-70210342D01*
X95542974Y-70596400D01*
X95838086Y-70892028D01*
X96223866Y-71052218D01*
X96641582Y-71052582D01*
X97027640Y-70893066D01*
X97323268Y-70597954D01*
X97448979Y-70295209D01*
X98976565Y-68767622D01*
X123592698Y-68767622D01*
X123752214Y-69153680D01*
X124047326Y-69449308D01*
X124433106Y-69609498D01*
X124850822Y-69609862D01*
X125153785Y-69484680D01*
X125839391Y-69484680D01*
X126139986Y-69609498D01*
X126557702Y-69609862D01*
X126943760Y-69450346D01*
X127239388Y-69155234D01*
X127399578Y-68769454D01*
X127399942Y-68351738D01*
X127240426Y-67965680D01*
X126945314Y-67670052D01*
X126559534Y-67509862D01*
X126141818Y-67509498D01*
X125838855Y-67634680D01*
X125153249Y-67634680D01*
X124852654Y-67509862D01*
X124434938Y-67509498D01*
X124048880Y-67669014D01*
X123753252Y-67964126D01*
X123593062Y-68349906D01*
X123592698Y-68767622D01*
X98976565Y-68767622D01*
X99627711Y-68116476D01*
X99627714Y-68116474D01*
X99828229Y-67816382D01*
X99898640Y-67462400D01*
X99898640Y-62176796D01*
X99999440Y-62135146D01*
X100295068Y-61840034D01*
X100455258Y-61454254D01*
X100455622Y-61036538D01*
X100296106Y-60650480D01*
X100000994Y-60354852D01*
X99615214Y-60194662D01*
X99197498Y-60194298D01*
X98811440Y-60353814D01*
X98515812Y-60648926D01*
X98390101Y-60951671D01*
X98319566Y-61022206D01*
X98119051Y-61322297D01*
X98119051Y-61322298D01*
X98048640Y-61676280D01*
X98048640Y-67079253D01*
X96140451Y-68987442D01*
X95839640Y-69111734D01*
X95544012Y-69406846D01*
X95383822Y-69792626D01*
X95383458Y-70210342D01*
X79537542Y-70210342D01*
X79592693Y-69938000D01*
X79592693Y-68238000D01*
X79540396Y-67960067D01*
X79376138Y-67704802D01*
X79125508Y-67533554D01*
X78828000Y-67473307D01*
X77128000Y-67473307D01*
X76850067Y-67525604D01*
X76594802Y-67689862D01*
X76476394Y-67863158D01*
X76050293Y-67578447D01*
X75438000Y-67456654D01*
X74825707Y-67578447D01*
X74306629Y-67925283D01*
X74168000Y-68132756D01*
X74029371Y-67925283D01*
X73510293Y-67578447D01*
X72898000Y-67456654D01*
X72285707Y-67578447D01*
X71766629Y-67925283D01*
X71419793Y-68444361D01*
X71298000Y-69056654D01*
X57085476Y-69056654D01*
X57155592Y-68358851D01*
X57065784Y-67907361D01*
X56790961Y-67713699D01*
X55924660Y-68580000D01*
X53803340Y-68580000D01*
X52937039Y-67713699D01*
X52662216Y-67907361D01*
X52572408Y-68801149D01*
X50825000Y-68801149D01*
X50825000Y-66653039D01*
X53997699Y-66653039D01*
X54864000Y-67519340D01*
X55730301Y-66653039D01*
X55536639Y-66378216D01*
X54642851Y-66288408D01*
X54191361Y-66378216D01*
X53997699Y-66653039D01*
X50825000Y-66653039D01*
X50825000Y-65977589D01*
X57947610Y-65977589D01*
X58289431Y-66804858D01*
X58921813Y-67438345D01*
X59748484Y-67781608D01*
X60643589Y-67782390D01*
X61470858Y-67440569D01*
X62104345Y-66808187D01*
X62447608Y-65981516D01*
X62447611Y-65977589D01*
X65821610Y-65977589D01*
X66163431Y-66804858D01*
X66795813Y-67438345D01*
X67622484Y-67781608D01*
X68517589Y-67782390D01*
X69344858Y-67440569D01*
X69978345Y-66808187D01*
X70321608Y-65981516D01*
X70322390Y-65086411D01*
X69980569Y-64259142D01*
X69348187Y-63625655D01*
X68521516Y-63282392D01*
X67626411Y-63281610D01*
X66799142Y-63623431D01*
X66165655Y-64255813D01*
X65822392Y-65082484D01*
X65821610Y-65977589D01*
X62447611Y-65977589D01*
X62448390Y-65086411D01*
X62106569Y-64259142D01*
X61474187Y-63625655D01*
X60647516Y-63282392D01*
X59752411Y-63281610D01*
X58925142Y-63623431D01*
X58291655Y-64255813D01*
X57948392Y-65082484D01*
X57947610Y-65977589D01*
X50825000Y-65977589D01*
X50825000Y-64814500D01*
X51242000Y-64814500D01*
X51242000Y-65200776D01*
X51357399Y-65479373D01*
X51570628Y-65692602D01*
X51849225Y-65808000D01*
X52235500Y-65808000D01*
X52425000Y-65618500D01*
X52425000Y-64625000D01*
X51431500Y-64625000D01*
X51242000Y-64814500D01*
X50825000Y-64814500D01*
X50825000Y-63199224D01*
X51242000Y-63199224D01*
X51242000Y-63585500D01*
X51431500Y-63775000D01*
X52425000Y-63775000D01*
X52425000Y-62781500D01*
X53275000Y-62781500D01*
X53275000Y-63775000D01*
X53700000Y-63775000D01*
X53700000Y-64625000D01*
X53275000Y-64625000D01*
X53275000Y-65618500D01*
X53464500Y-65808000D01*
X53850775Y-65808000D01*
X54129372Y-65692602D01*
X54342601Y-65479373D01*
X54354767Y-65450002D01*
X54389261Y-65450002D01*
X54777707Y-65709553D01*
X55390000Y-65831346D01*
X56002293Y-65709553D01*
X56521371Y-65362717D01*
X56868207Y-64843639D01*
X56990000Y-64231346D01*
X56990000Y-64168654D01*
X56868207Y-63556361D01*
X56521371Y-63037283D01*
X56002293Y-62690447D01*
X55390000Y-62568654D01*
X54777707Y-62690447D01*
X54389261Y-62949998D01*
X54354767Y-62949998D01*
X54342601Y-62920627D01*
X54129372Y-62707398D01*
X53850775Y-62592000D01*
X53464500Y-62592000D01*
X53275000Y-62781500D01*
X52425000Y-62781500D01*
X52235500Y-62592000D01*
X51849225Y-62592000D01*
X51570628Y-62707398D01*
X51357399Y-62920627D01*
X51242000Y-63199224D01*
X50825000Y-63199224D01*
X50825000Y-58550946D01*
X57217518Y-58550946D01*
X57640160Y-59573818D01*
X58422066Y-60357090D01*
X59444198Y-60781516D01*
X60550946Y-60782482D01*
X61573818Y-60359840D01*
X62357090Y-59577934D01*
X62781516Y-58555802D01*
X62781520Y-58550946D01*
X134217518Y-58550946D01*
X134640160Y-59573818D01*
X135422066Y-60357090D01*
X136444198Y-60781516D01*
X137550946Y-60782482D01*
X138573818Y-60359840D01*
X139357090Y-59577934D01*
X139781516Y-58555802D01*
X139782482Y-57449054D01*
X139359840Y-56426182D01*
X138577934Y-55642910D01*
X137555802Y-55218484D01*
X136449054Y-55217518D01*
X135426182Y-55640160D01*
X134642910Y-56422066D01*
X134218484Y-57444198D01*
X134217518Y-58550946D01*
X62781520Y-58550946D01*
X62782482Y-57449054D01*
X62359840Y-56426182D01*
X61577934Y-55642910D01*
X60722012Y-55287500D01*
X63076000Y-55287500D01*
X63076000Y-56538775D01*
X63191398Y-56817372D01*
X63404627Y-57030601D01*
X63683224Y-57146000D01*
X64269500Y-57146000D01*
X64459000Y-56956500D01*
X64459000Y-55098000D01*
X65709000Y-55098000D01*
X65709000Y-56956500D01*
X65898500Y-57146000D01*
X66484776Y-57146000D01*
X66763373Y-57030601D01*
X66976602Y-56817372D01*
X67092000Y-56538775D01*
X67092000Y-55287500D01*
X70576000Y-55287500D01*
X70576000Y-56538775D01*
X70691398Y-56817372D01*
X70904627Y-57030601D01*
X71183224Y-57146000D01*
X71769500Y-57146000D01*
X71959000Y-56956500D01*
X71959000Y-55098000D01*
X73209000Y-55098000D01*
X73209000Y-56956500D01*
X73398500Y-57146000D01*
X73984776Y-57146000D01*
X74263373Y-57030601D01*
X74476602Y-56817372D01*
X74592000Y-56538775D01*
X74592000Y-55287500D01*
X122258000Y-55287500D01*
X122258000Y-56538775D01*
X122373398Y-56817372D01*
X122586627Y-57030601D01*
X122865224Y-57146000D01*
X123451500Y-57146000D01*
X123641000Y-56956500D01*
X123641000Y-55098000D01*
X124891000Y-55098000D01*
X124891000Y-56956500D01*
X125080500Y-57146000D01*
X125666776Y-57146000D01*
X125945373Y-57030601D01*
X126158602Y-56817372D01*
X126274000Y-56538775D01*
X126274000Y-55287500D01*
X129758000Y-55287500D01*
X129758000Y-56538775D01*
X129873398Y-56817372D01*
X130086627Y-57030601D01*
X130365224Y-57146000D01*
X130951500Y-57146000D01*
X131141000Y-56956500D01*
X131141000Y-55098000D01*
X132391000Y-55098000D01*
X132391000Y-56956500D01*
X132580500Y-57146000D01*
X133166776Y-57146000D01*
X133445373Y-57030601D01*
X133658602Y-56817372D01*
X133774000Y-56538775D01*
X133774000Y-55287500D01*
X133584500Y-55098000D01*
X132391000Y-55098000D01*
X131141000Y-55098000D01*
X129947500Y-55098000D01*
X129758000Y-55287500D01*
X126274000Y-55287500D01*
X126084500Y-55098000D01*
X124891000Y-55098000D01*
X123641000Y-55098000D01*
X122447500Y-55098000D01*
X122258000Y-55287500D01*
X74592000Y-55287500D01*
X74402500Y-55098000D01*
X73209000Y-55098000D01*
X71959000Y-55098000D01*
X70765500Y-55098000D01*
X70576000Y-55287500D01*
X67092000Y-55287500D01*
X66902500Y-55098000D01*
X65709000Y-55098000D01*
X64459000Y-55098000D01*
X63265500Y-55098000D01*
X63076000Y-55287500D01*
X60722012Y-55287500D01*
X60555802Y-55218484D01*
X59449054Y-55217518D01*
X58426182Y-55640160D01*
X57642910Y-56422066D01*
X57218484Y-57444198D01*
X57217518Y-58550946D01*
X50825000Y-58550946D01*
X50825000Y-55515848D01*
X51538461Y-56229309D01*
X51853001Y-55914769D01*
X52202263Y-56224618D01*
X53496996Y-56284439D01*
X53797737Y-56224618D01*
X54147001Y-55914768D01*
X53000000Y-54767767D01*
X52985858Y-54781910D01*
X51218091Y-53014143D01*
X51232233Y-53000000D01*
X51218091Y-52985858D01*
X52985858Y-51218091D01*
X53000000Y-51232233D01*
X53014143Y-51218091D01*
X54781910Y-52985858D01*
X54767767Y-53000000D01*
X55914768Y-54147001D01*
X56224618Y-53797737D01*
X56267141Y-52877382D01*
X100204378Y-52877382D01*
X100363894Y-53263440D01*
X100659006Y-53559068D01*
X101044786Y-53719258D01*
X101462502Y-53719622D01*
X101704993Y-53619427D01*
X104693061Y-53776694D01*
X104946226Y-53881818D01*
X105363942Y-53882182D01*
X105750000Y-53722666D01*
X106045628Y-53427554D01*
X106205818Y-53041774D01*
X106206182Y-52624058D01*
X106046666Y-52238000D01*
X105751554Y-51942372D01*
X105365774Y-51782182D01*
X104948058Y-51781818D01*
X104613732Y-51919959D01*
X101835479Y-51773735D01*
X101464334Y-51619622D01*
X101046618Y-51619258D01*
X100660560Y-51778774D01*
X100364932Y-52073886D01*
X100204742Y-52459666D01*
X100204378Y-52877382D01*
X56267141Y-52877382D01*
X56284439Y-52503004D01*
X56224618Y-52202263D01*
X55914769Y-51853001D01*
X56229309Y-51538461D01*
X55515848Y-50825000D01*
X63245026Y-50825000D01*
X63191398Y-50878628D01*
X63191398Y-50878628D01*
G37*
X63191398Y-50878628D02*
X63076000Y-51157225D01*
X63076000Y-52408500D01*
X63265500Y-52598000D01*
X64459000Y-52598000D01*
X64459000Y-52578000D01*
X65709000Y-52578000D01*
X65709000Y-52598000D01*
X66902500Y-52598000D01*
X67092000Y-52408500D01*
X67092000Y-51157225D01*
X66976602Y-50878628D01*
X66922974Y-50825000D01*
X70745026Y-50825000D01*
X70691398Y-50878628D01*
X70576000Y-51157225D01*
X70576000Y-52408500D01*
X70765500Y-52598000D01*
X71959000Y-52598000D01*
X71959000Y-52578000D01*
X73209000Y-52578000D01*
X73209000Y-52598000D01*
X74402500Y-52598000D01*
X74592000Y-52408500D01*
X74592000Y-51157225D01*
X74476602Y-50878628D01*
X74422974Y-50825000D01*
X122427026Y-50825000D01*
X122373398Y-50878628D01*
X122258000Y-51157225D01*
X122258000Y-52408500D01*
X122447500Y-52598000D01*
X123641000Y-52598000D01*
X123641000Y-52578000D01*
X124891000Y-52578000D01*
X124891000Y-52598000D01*
X126084500Y-52598000D01*
X126274000Y-52408500D01*
X126274000Y-51157225D01*
X126158602Y-50878628D01*
X126104974Y-50825000D01*
X129927026Y-50825000D01*
X129873398Y-50878628D01*
X129758000Y-51157225D01*
X129758000Y-52408500D01*
X129947500Y-52598000D01*
X131141000Y-52598000D01*
X131141000Y-52578000D01*
X132391000Y-52578000D01*
X132391000Y-52598000D01*
X133584500Y-52598000D01*
X133774000Y-52408500D01*
X133774000Y-51157225D01*
X133658602Y-50878628D01*
X133604974Y-50825000D01*
X144484152Y-50825000D01*
X143770691Y-51538461D01*
X144085231Y-51853001D01*
X143775382Y-52202263D01*
X143715561Y-53496996D01*
X143775382Y-53797737D01*
X144085232Y-54147001D01*
X145232233Y-53000000D01*
X145218091Y-52985858D01*
X146985858Y-51218091D01*
X147000000Y-51232233D01*
X147014143Y-51218091D01*
X148781910Y-52985858D01*
X148767767Y-53000000D01*
X148781910Y-53014143D01*
X147014143Y-54781910D01*
X147000000Y-54767767D01*
X145852999Y-55914768D01*
X146202263Y-56224618D01*
X147496996Y-56284439D01*
X147797737Y-56224618D01*
X148146999Y-55914769D01*
X148461539Y-56229309D01*
X149175000Y-55515848D01*
X149175000Y-86937946D01*
X148961314Y-86724260D01*
X148911706Y-86604200D01*
X148616594Y-86308572D01*
X148230814Y-86148382D01*
X147813098Y-86148018D01*
X147427040Y-86307534D01*
X147131412Y-86602646D01*
X146971222Y-86988426D01*
X146970858Y-87406142D01*
X147130374Y-87792200D01*
X147425486Y-88087828D01*
X147546848Y-88138222D01*
X148189440Y-88780814D01*
X148189440Y-110804024D01*
X148059774Y-110750182D01*
X147642058Y-110749818D01*
X147256000Y-110909334D01*
X146960372Y-111204446D01*
X146800182Y-111590226D01*
X146799818Y-112007942D01*
X146959334Y-112394000D01*
X147254446Y-112689628D01*
X147640226Y-112849818D01*
X148057942Y-112850182D01*
X148058382Y-112850000D01*
X148189440Y-112850000D01*
X148189440Y-116370000D01*
X145300496Y-116370000D01*
X145212717Y-116238629D01*
X144693639Y-115891793D01*
X144081346Y-115770000D01*
X144018654Y-115770000D01*
X143406361Y-115891793D01*
X142887283Y-116238629D01*
X142540447Y-116757707D01*
X142418654Y-117370000D01*
X142540447Y-117982293D01*
X142887283Y-118501371D01*
X143094756Y-118640000D01*
X142887283Y-118778629D01*
X142540447Y-119297707D01*
X142418654Y-119910000D01*
X142540447Y-120522293D01*
X142825891Y-120949491D01*
X142666802Y-121051862D01*
X142495554Y-121302492D01*
X142435307Y-121600000D01*
X142435307Y-123300000D01*
X142487604Y-123577933D01*
X142651862Y-123833198D01*
X142902492Y-124004446D01*
X143200000Y-124064693D01*
X144900000Y-124064693D01*
X145177933Y-124012396D01*
X145433198Y-123848138D01*
X145604446Y-123597508D01*
X145664693Y-123300000D01*
X145664693Y-121600000D01*
X145612396Y-121322067D01*
X145448138Y-121066802D01*
X145274842Y-120948394D01*
X145559553Y-120522293D01*
X145681346Y-119910000D01*
X145559553Y-119297707D01*
X145212717Y-118778629D01*
X145005244Y-118640000D01*
X145212717Y-118501371D01*
X145300496Y-118370000D01*
X148189440Y-118370000D01*
X148189440Y-122086742D01*
X136345326Y-133550000D01*
X130052250Y-133550000D01*
X130650891Y-133035532D01*
X130672686Y-133007711D01*
X130702074Y-132988074D01*
X130783305Y-132866504D01*
X130873463Y-132751415D01*
X130882952Y-132717371D01*
X130902589Y-132687982D01*
X130931112Y-132544586D01*
X130970367Y-132403750D01*
X130966167Y-132369175D01*
X131179371Y-132226717D01*
X131318000Y-132019244D01*
X131456629Y-132226717D01*
X131975707Y-132573553D01*
X132588000Y-132695346D01*
X133200293Y-132573553D01*
X133719371Y-132226717D01*
X134066207Y-131707639D01*
X134188000Y-131095346D01*
X134188000Y-131032654D01*
X134066207Y-130420361D01*
X133804835Y-130029189D01*
X133971198Y-129922138D01*
X134142446Y-129671508D01*
X134202693Y-129374000D01*
X134202693Y-127674000D01*
X134150396Y-127396067D01*
X133986138Y-127140802D01*
X133735508Y-126969554D01*
X133438000Y-126909307D01*
X131738000Y-126909307D01*
X131460067Y-126961604D01*
X131204802Y-127125862D01*
X131086394Y-127299158D01*
X130660293Y-127014447D01*
X130048000Y-126892654D01*
X129435707Y-127014447D01*
X128916629Y-127361283D01*
X128778000Y-127568756D01*
X128639371Y-127361283D01*
X128120293Y-127014447D01*
X127508000Y-126892654D01*
X126895707Y-127014447D01*
X126376629Y-127361283D01*
X126238000Y-127568756D01*
X126099371Y-127361283D01*
X125580293Y-127014447D01*
X124968000Y-126892654D01*
X124355707Y-127014447D01*
X123836629Y-127361283D01*
X123698000Y-127568756D01*
X123559371Y-127361283D01*
X123040293Y-127014447D01*
X122428000Y-126892654D01*
X122075000Y-126962870D01*
X122075000Y-126439956D01*
X122149818Y-126259774D01*
X122150182Y-125842058D01*
X121990666Y-125456000D01*
X121695554Y-125160372D01*
X121309774Y-125000182D01*
X120892058Y-124999818D01*
X120506000Y-125159334D01*
X120210372Y-125454446D01*
X120050182Y-125840226D01*
X120049818Y-126257942D01*
X120209334Y-126644000D01*
X120225000Y-126659693D01*
X120225000Y-126959688D01*
X119888000Y-126892654D01*
X119275707Y-127014447D01*
X118756629Y-127361283D01*
X118618000Y-127568756D01*
X118479371Y-127361283D01*
X117960293Y-127014447D01*
X117348000Y-126892654D01*
X116735707Y-127014447D01*
X116216629Y-127361283D01*
X115869793Y-127880361D01*
X115748000Y-128492654D01*
X115748000Y-128555346D01*
X115869793Y-129167639D01*
X116216629Y-129686717D01*
X116377190Y-129794000D01*
X116239928Y-129885715D01*
X114171107Y-127816893D01*
X113846684Y-127600120D01*
X113464000Y-127524000D01*
X111200000Y-127524000D01*
X111195291Y-127524937D01*
X111190572Y-127524044D01*
X105324715Y-127579351D01*
X105056463Y-127310630D01*
X104501675Y-127080262D01*
X103900960Y-127079738D01*
X103885000Y-127086333D01*
X103885000Y-126933148D01*
X105573148Y-125245000D01*
X108380000Y-125245000D01*
X108733983Y-125174589D01*
X109034074Y-124974074D01*
X109834074Y-124174074D01*
X110034589Y-123873982D01*
X110090797Y-123591406D01*
X110187925Y-123631737D01*
X110789436Y-123632262D01*
X111345360Y-123402559D01*
X111760351Y-122988292D01*
X112172402Y-123401064D01*
X112727925Y-123631737D01*
X113329436Y-123632262D01*
X113885360Y-123402559D01*
X114300351Y-122988292D01*
X114712402Y-123401064D01*
X115267925Y-123631737D01*
X115869436Y-123632262D01*
X116425360Y-123402559D01*
X116840351Y-122988292D01*
X117252402Y-123401064D01*
X117807925Y-123631737D01*
X118409436Y-123632262D01*
X118965360Y-123402559D01*
X119380351Y-122988292D01*
X119792402Y-123401064D01*
X120347925Y-123631737D01*
X120949436Y-123632262D01*
X121505360Y-123402559D01*
X121920351Y-122988292D01*
X122332402Y-123401064D01*
X122887925Y-123631737D01*
X123489436Y-123632262D01*
X124045360Y-123402559D01*
X124460351Y-122988292D01*
X124872402Y-123401064D01*
X125427925Y-123631737D01*
X126029436Y-123632262D01*
X126585360Y-123402559D01*
X127000351Y-122988292D01*
X127412402Y-123401064D01*
X127967925Y-123631737D01*
X128569436Y-123632262D01*
X129125360Y-123402559D01*
X129540351Y-122988292D01*
X129952402Y-123401064D01*
X130507925Y-123631737D01*
X131109436Y-123632262D01*
X131665360Y-123402559D01*
X131755305Y-123312770D01*
X132696045Y-123312770D01*
X132775255Y-123559265D01*
X133369788Y-123669653D01*
X133924745Y-123559265D01*
X134003955Y-123312770D01*
X133350000Y-122658815D01*
X132696045Y-123312770D01*
X131755305Y-123312770D01*
X132091064Y-122977598D01*
X132188685Y-122742500D01*
X132811185Y-122120000D01*
X133888815Y-122120000D01*
X134511162Y-122742347D01*
X134607441Y-122975360D01*
X135032402Y-123401064D01*
X135587925Y-123631737D01*
X136189436Y-123632262D01*
X136745360Y-123402559D01*
X137171064Y-122977598D01*
X137401737Y-122422075D01*
X137402262Y-121820564D01*
X137172559Y-121264640D01*
X136747598Y-120838936D01*
X136192075Y-120608263D01*
X135590564Y-120607738D01*
X135034640Y-120837441D01*
X134608936Y-121262402D01*
X134511315Y-121497500D01*
X133888815Y-122120000D01*
X132811185Y-122120000D01*
X132188838Y-121497653D01*
X132092559Y-121264640D01*
X131755738Y-120927230D01*
X132696045Y-120927230D01*
X133350000Y-121581185D01*
X134003955Y-120927230D01*
X133924745Y-120680735D01*
X133330212Y-120570347D01*
X132775255Y-120680735D01*
X132696045Y-120927230D01*
X131755738Y-120927230D01*
X131667598Y-120838936D01*
X131112075Y-120608263D01*
X130510564Y-120607738D01*
X129954640Y-120837441D01*
X129539649Y-121251708D01*
X129127598Y-120838936D01*
X128572075Y-120608263D01*
X127970564Y-120607738D01*
X127414640Y-120837441D01*
X126999649Y-121251708D01*
X126587598Y-120838936D01*
X126032075Y-120608263D01*
X125430564Y-120607738D01*
X124874640Y-120837441D01*
X124459649Y-121251708D01*
X124047598Y-120838936D01*
X123492075Y-120608263D01*
X122890564Y-120607738D01*
X122334640Y-120837441D01*
X121919649Y-121251708D01*
X121507598Y-120838936D01*
X120952075Y-120608263D01*
X120350564Y-120607738D01*
X119794640Y-120837441D01*
X119379649Y-121251708D01*
X118967598Y-120838936D01*
X118412075Y-120608263D01*
X117810564Y-120607738D01*
X117254640Y-120837441D01*
X116839649Y-121251708D01*
X116427598Y-120838936D01*
X115872075Y-120608263D01*
X115270564Y-120607738D01*
X114714640Y-120837441D01*
X114299649Y-121251708D01*
X113887598Y-120838936D01*
X113332075Y-120608263D01*
X112730564Y-120607738D01*
X112174640Y-120837441D01*
X111759649Y-121251708D01*
X111347598Y-120838936D01*
X110792075Y-120608263D01*
X110263806Y-120607802D01*
X110250666Y-120576000D01*
X109955554Y-120280372D01*
X109569774Y-120120182D01*
X109152058Y-120119818D01*
X108766000Y-120279334D01*
X108470372Y-120574446D01*
X108426291Y-120680604D01*
X108252075Y-120608263D01*
X107650564Y-120607738D01*
X107094640Y-120837441D01*
X106679649Y-121251708D01*
X106267598Y-120838936D01*
X105712075Y-120608263D01*
X105110564Y-120607738D01*
X104554640Y-120837441D01*
X104139649Y-121251708D01*
X103727598Y-120838936D01*
X103172075Y-120608263D01*
X102570564Y-120607738D01*
X102517754Y-120629559D01*
X102490666Y-120564000D01*
X102195554Y-120268372D01*
X101809774Y-120108182D01*
X101392058Y-120107818D01*
X101006000Y-120267334D01*
X100710372Y-120562446D01*
X100682630Y-120629255D01*
X100632075Y-120608263D01*
X100030564Y-120607738D01*
X99474640Y-120837441D01*
X99059649Y-121251708D01*
X98647598Y-120838936D01*
X98092075Y-120608263D01*
X97490564Y-120607738D01*
X96934640Y-120837441D01*
X96519649Y-121251708D01*
X96107598Y-120838936D01*
X95552075Y-120608263D01*
X94950564Y-120607738D01*
X94394640Y-120837441D01*
X93979649Y-121251708D01*
X93567598Y-120838936D01*
X93012075Y-120608263D01*
X92410564Y-120607738D01*
X91854640Y-120837441D01*
X91439649Y-121251708D01*
X91027598Y-120838936D01*
X90472075Y-120608263D01*
X89870564Y-120607738D01*
X89314640Y-120837441D01*
X88899649Y-121251708D01*
X88487598Y-120838936D01*
X87932075Y-120608263D01*
X87330564Y-120607738D01*
X86774640Y-120837441D01*
X86348936Y-121262402D01*
X86118263Y-121817925D01*
X86117738Y-122419436D01*
X86347441Y-122975360D01*
X86772402Y-123401064D01*
X87327925Y-123631737D01*
X87929436Y-123632262D01*
X88485360Y-123402559D01*
X88900351Y-122988292D01*
X89312402Y-123401064D01*
X89867925Y-123631737D01*
X90469436Y-123632262D01*
X91025360Y-123402559D01*
X91440351Y-122988292D01*
X91852402Y-123401064D01*
X92407925Y-123631737D01*
X93009436Y-123632262D01*
X93565360Y-123402559D01*
X93980351Y-122988292D01*
X94392402Y-123401064D01*
X94947925Y-123631737D01*
X95549436Y-123632262D01*
X96105360Y-123402559D01*
X96520351Y-122988292D01*
X96932402Y-123401064D01*
X97487925Y-123631737D01*
X98089436Y-123632262D01*
X98645360Y-123402559D01*
X99060351Y-122988292D01*
X99472402Y-123401064D01*
X100027925Y-123631737D01*
X100629436Y-123632262D01*
X100715000Y-123596908D01*
X100715000Y-127399751D01*
X100380630Y-127733537D01*
X100150262Y-128288325D01*
X100149738Y-128889040D01*
X100379138Y-129444229D01*
X100524536Y-129589882D01*
X100380630Y-129733537D01*
X100150262Y-130288325D01*
X100149738Y-130889040D01*
X100379138Y-131444229D01*
X100803537Y-131869370D01*
X101358325Y-132099738D01*
X101959040Y-132100262D01*
X102514229Y-131870862D01*
X102604481Y-131780767D01*
X103546634Y-131780767D01*
X103625534Y-132027179D01*
X104219247Y-132137619D01*
X104774466Y-132027179D01*
X104853366Y-131780767D01*
X104584305Y-131511706D01*
X108106301Y-131511706D01*
X108930000Y-132335406D01*
X109753699Y-131511706D01*
X109583321Y-131242403D01*
X108750008Y-131148252D01*
X108276679Y-131242403D01*
X108106301Y-131511706D01*
X104584305Y-131511706D01*
X104200000Y-131127401D01*
X103546634Y-131780767D01*
X102604481Y-131780767D01*
X102939370Y-131446463D01*
X103019314Y-131253936D01*
X103034074Y-131244074D01*
X103614074Y-130664074D01*
X103814589Y-130363983D01*
X103869529Y-130087781D01*
X103898325Y-130099738D01*
X104499040Y-130100262D01*
X104701436Y-130016634D01*
X105006102Y-130321300D01*
X104737401Y-130590000D01*
X105390767Y-131243366D01*
X105637179Y-131164466D01*
X105692911Y-130864859D01*
X106174839Y-130382931D01*
X105370913Y-129579005D01*
X110981887Y-129526101D01*
X111290000Y-129834214D01*
X111290000Y-133882230D01*
X111015512Y-133607742D01*
X111071748Y-133110008D01*
X110977597Y-132636679D01*
X110708294Y-132466301D01*
X109884594Y-133290000D01*
X110305323Y-133710729D01*
X109841052Y-134175000D01*
X108018948Y-134175000D01*
X107554677Y-133710729D01*
X107975406Y-133290000D01*
X107151706Y-132466301D01*
X106882403Y-132636679D01*
X106788252Y-133469992D01*
X106820436Y-133631794D01*
X106529795Y-133922435D01*
X106782360Y-134175000D01*
X99077640Y-134175000D01*
X99330205Y-133922435D01*
X99015512Y-133607742D01*
X99071748Y-133110008D01*
X98977597Y-132636679D01*
X98708294Y-132466301D01*
X97884594Y-133290000D01*
X98305323Y-133710729D01*
X97841052Y-134175000D01*
X96018948Y-134175000D01*
X95554677Y-133710729D01*
X95975406Y-133290000D01*
X95151706Y-132466301D01*
X94939693Y-132600434D01*
X94939693Y-131511706D01*
X96106301Y-131511706D01*
X96930000Y-132335406D01*
X97753699Y-131511706D01*
X97583321Y-131242403D01*
X96750008Y-131148252D01*
X96276679Y-131242403D01*
X96106301Y-131511706D01*
X94939693Y-131511706D01*
X94939693Y-129175000D01*
X94887396Y-128897067D01*
X94723138Y-128641802D01*
X94472508Y-128470554D01*
X94175000Y-128410307D01*
X90675000Y-128410307D01*
X90397067Y-128462604D01*
X90239693Y-128563871D01*
X90239693Y-126175000D01*
X90187396Y-125897067D01*
X90023138Y-125641802D01*
X89772508Y-125470554D01*
X89475000Y-125410307D01*
X85975000Y-125410307D01*
X85697067Y-125462604D01*
X85441802Y-125626862D01*
X85270554Y-125877492D01*
X85231357Y-126071053D01*
X85226230Y-126074348D01*
X85217316Y-126076121D01*
X85062392Y-126179638D01*
X84905632Y-126280379D01*
X84900448Y-126287845D01*
X84892893Y-126292893D01*
X82592893Y-128592893D01*
X82376120Y-128917316D01*
X82322672Y-129186018D01*
X82300000Y-129300000D01*
X82300000Y-133185787D01*
X81885786Y-133600000D01*
X78884214Y-133600000D01*
X78684693Y-133400479D01*
X78684693Y-132350000D01*
X78632396Y-132072067D01*
X78468138Y-131816802D01*
X78294842Y-131698394D01*
X78579553Y-131272293D01*
X78701346Y-130660000D01*
X78579553Y-130047707D01*
X78232717Y-129528629D01*
X77713639Y-129181793D01*
X77101346Y-129060000D01*
X77038654Y-129060000D01*
X76426361Y-129181793D01*
X75907283Y-129528629D01*
X75560447Y-130047707D01*
X75438654Y-130660000D01*
X75560447Y-131272293D01*
X75845891Y-131699491D01*
X75686802Y-131801862D01*
X75515554Y-132052492D01*
X75455307Y-132350000D01*
X75455307Y-134050000D01*
X75478828Y-134175000D01*
X55515848Y-134175000D01*
X56229309Y-133461539D01*
X55914769Y-133146999D01*
X56224618Y-132797737D01*
X56284439Y-131503004D01*
X56224618Y-131202263D01*
X55914769Y-130853001D01*
X56229309Y-130538461D01*
X55829719Y-130138871D01*
X58194000Y-131476736D01*
X58194000Y-131658162D01*
X58327211Y-132327858D01*
X58706563Y-132895599D01*
X59274304Y-133274951D01*
X59944000Y-133408162D01*
X60613696Y-133274951D01*
X60886617Y-133092591D01*
X61054627Y-133260601D01*
X61333224Y-133376000D01*
X61794500Y-133376000D01*
X61984000Y-133186500D01*
X61984000Y-131968000D01*
X62984000Y-131968000D01*
X62984000Y-133186500D01*
X63173500Y-133376000D01*
X63634776Y-133376000D01*
X63913373Y-133260601D01*
X64126602Y-133047372D01*
X64242000Y-132768775D01*
X64242000Y-132157500D01*
X64052500Y-131968000D01*
X62984000Y-131968000D01*
X61984000Y-131968000D01*
X61632369Y-131968000D01*
X61694000Y-131658162D01*
X61694000Y-130977838D01*
X61632369Y-130668000D01*
X61984000Y-130668000D01*
X61984000Y-130418008D01*
X62984000Y-130424020D01*
X62984000Y-130668000D01*
X64052500Y-130668000D01*
X64242000Y-130478500D01*
X64242000Y-129867225D01*
X64163870Y-129678601D01*
X64697603Y-128788139D01*
X72647289Y-128761995D01*
X72662553Y-128758907D01*
X72677922Y-128761425D01*
X72853231Y-128720326D01*
X73029719Y-128684616D01*
X73042640Y-128675921D01*
X73057803Y-128672366D01*
X75399914Y-127607770D01*
X75438000Y-127615346D01*
X76050293Y-127493553D01*
X76477491Y-127208109D01*
X76579862Y-127367198D01*
X76830492Y-127538446D01*
X77128000Y-127598693D01*
X78828000Y-127598693D01*
X79105933Y-127546396D01*
X79361198Y-127382138D01*
X79532446Y-127131508D01*
X79592693Y-126834000D01*
X79592693Y-125134000D01*
X79540396Y-124856067D01*
X79376138Y-124600802D01*
X79125508Y-124429554D01*
X79025011Y-124409203D01*
X80073939Y-123360274D01*
X80194000Y-123310666D01*
X80489628Y-123015554D01*
X80649818Y-122629774D01*
X80650182Y-122212058D01*
X80490666Y-121826000D01*
X80195554Y-121530372D01*
X79809774Y-121370182D01*
X79392058Y-121369818D01*
X79006000Y-121529334D01*
X78710372Y-121824446D01*
X78659977Y-121945809D01*
X77270893Y-123334893D01*
X77054120Y-123659316D01*
X77054120Y-123659317D01*
X76978000Y-124042000D01*
X76978000Y-124397532D01*
X76850067Y-124421604D01*
X76594802Y-124585862D01*
X76476394Y-124759158D01*
X76050293Y-124474447D01*
X75438000Y-124352654D01*
X74825707Y-124474447D01*
X74306629Y-124821283D01*
X73959793Y-125340361D01*
X73838000Y-125952654D01*
X73838000Y-126015346D01*
X73857239Y-126112069D01*
X72425826Y-126762712D01*
X66383846Y-126782582D01*
X66385409Y-126774722D01*
X66414628Y-126745554D01*
X66574818Y-126359774D01*
X66575182Y-125942058D01*
X66415666Y-125556000D01*
X66120554Y-125260372D01*
X65734774Y-125100182D01*
X65317058Y-125099818D01*
X64931000Y-125259334D01*
X64635372Y-125554446D01*
X64475182Y-125940226D01*
X64475021Y-126125000D01*
X61975000Y-126125000D01*
X61621017Y-126195411D01*
X61320926Y-126395926D01*
X60806810Y-126910042D01*
X60506000Y-127034334D01*
X60210372Y-127329446D01*
X60050182Y-127715226D01*
X60049818Y-128132942D01*
X60163067Y-128407025D01*
X58779204Y-128398706D01*
X56260817Y-126902311D01*
X56192731Y-126878243D01*
X56132683Y-126838120D01*
X56010448Y-126813806D01*
X55892945Y-126772269D01*
X55820828Y-126776088D01*
X55750000Y-126762000D01*
X55278213Y-126762000D01*
X54340000Y-125823786D01*
X54340000Y-121572214D01*
X54576065Y-121336149D01*
X54575818Y-121619942D01*
X54735334Y-122006000D01*
X55030446Y-122301628D01*
X55416226Y-122461818D01*
X55833942Y-122462182D01*
X56136905Y-122337000D01*
X57658000Y-122337000D01*
X58011983Y-122266589D01*
X58312074Y-122066074D01*
X59328074Y-121050074D01*
X59528589Y-120749983D01*
X59599000Y-120396000D01*
X59599000Y-120175922D01*
X59897942Y-120176182D01*
X60284000Y-120016666D01*
X60579628Y-119721554D01*
X60728098Y-119364000D01*
X64694251Y-119364000D01*
X64814226Y-119413818D01*
X65231942Y-119414182D01*
X65618000Y-119254666D01*
X65913628Y-118959554D01*
X66073818Y-118573774D01*
X66074182Y-118156058D01*
X65914666Y-117770000D01*
X65619554Y-117474372D01*
X65233774Y-117314182D01*
X64816058Y-117313818D01*
X64694608Y-117364000D01*
X59674000Y-117364000D01*
X59674000Y-117157942D01*
X101249818Y-117157942D01*
X101409334Y-117544000D01*
X101704446Y-117839628D01*
X101849825Y-117899995D01*
X101849818Y-117907942D01*
X102009334Y-118294000D01*
X102304446Y-118589628D01*
X102690226Y-118749818D01*
X103107942Y-118750182D01*
X103494000Y-118590666D01*
X103789628Y-118295554D01*
X103828038Y-118203052D01*
X104100201Y-118028090D01*
X104137484Y-117992105D01*
X104183298Y-117967905D01*
X107774378Y-115050153D01*
X107807942Y-115050182D01*
X108194000Y-114890666D01*
X108489628Y-114595554D01*
X108649818Y-114209774D01*
X108650182Y-113792058D01*
X108490666Y-113406000D01*
X108195554Y-113110372D01*
X107809774Y-112950182D01*
X107632815Y-112950028D01*
X107490666Y-112606000D01*
X107195554Y-112310372D01*
X106809774Y-112150182D01*
X106392058Y-112149818D01*
X106006000Y-112309334D01*
X105710372Y-112604446D01*
X105611511Y-112842529D01*
X102187255Y-115899901D01*
X102092058Y-115899818D01*
X101706000Y-116059334D01*
X101410372Y-116354446D01*
X101250182Y-116740226D01*
X101249818Y-117157942D01*
X59674000Y-117157942D01*
X59674000Y-116332000D01*
X59617907Y-116050000D01*
X59597880Y-115949316D01*
X59381107Y-115624893D01*
X57631726Y-113875512D01*
X57582951Y-113630304D01*
X57203599Y-113062563D01*
X57154865Y-113030000D01*
X57203599Y-112997437D01*
X57582951Y-112429696D01*
X57612732Y-112279977D01*
X57640241Y-112527553D01*
X57624182Y-112566226D01*
X57623818Y-112983942D01*
X57783334Y-113370000D01*
X58078446Y-113665628D01*
X58464226Y-113825818D01*
X58881942Y-113826182D01*
X59268000Y-113666666D01*
X59563628Y-113371554D01*
X59723818Y-112985774D01*
X59724182Y-112568058D01*
X59632357Y-112345824D01*
X59159884Y-108093568D01*
X59153291Y-108072770D01*
X86976045Y-108072770D01*
X87055255Y-108319265D01*
X87649788Y-108429653D01*
X88204745Y-108319265D01*
X88283955Y-108072770D01*
X89516045Y-108072770D01*
X89595255Y-108319265D01*
X90189788Y-108429653D01*
X90744745Y-108319265D01*
X90823955Y-108072770D01*
X90170000Y-107418815D01*
X89516045Y-108072770D01*
X88283955Y-108072770D01*
X87630000Y-107418815D01*
X86976045Y-108072770D01*
X59153291Y-108072770D01*
X59117343Y-107959381D01*
X59089880Y-107821316D01*
X59058848Y-107774874D01*
X59041969Y-107721632D01*
X58951316Y-107613941D01*
X58873107Y-107496893D01*
X58276002Y-106899788D01*
X86080347Y-106899788D01*
X86190735Y-107454745D01*
X86437230Y-107533955D01*
X87091185Y-106880000D01*
X88168815Y-106880000D01*
X88727551Y-107438736D01*
X88730735Y-107454745D01*
X88749633Y-107460818D01*
X88822770Y-107533955D01*
X88900000Y-107509138D01*
X88977230Y-107533955D01*
X89050367Y-107460818D01*
X89069265Y-107454745D01*
X89072189Y-107438996D01*
X89631185Y-106880000D01*
X90708815Y-106880000D01*
X91331162Y-107502347D01*
X91427441Y-107735360D01*
X91852402Y-108161064D01*
X92407925Y-108391737D01*
X93009436Y-108392262D01*
X93565360Y-108162559D01*
X93980351Y-107748292D01*
X94392402Y-108161064D01*
X94947925Y-108391737D01*
X95024049Y-108391803D01*
X92162810Y-111253042D01*
X91862000Y-111377334D01*
X91566372Y-111672446D01*
X91406182Y-112058226D01*
X91405818Y-112475942D01*
X91565334Y-112862000D01*
X91860446Y-113157628D01*
X92246226Y-113317818D01*
X92663942Y-113318182D01*
X93050000Y-113158666D01*
X93345628Y-112863554D01*
X93471339Y-112560809D01*
X94200158Y-111831990D01*
X94199818Y-112221942D01*
X94359334Y-112608000D01*
X94654446Y-112903628D01*
X95040226Y-113063818D01*
X95457942Y-113064182D01*
X95844000Y-112904666D01*
X96139628Y-112609554D01*
X96265339Y-112306809D01*
X100180278Y-108391870D01*
X100629436Y-108392262D01*
X101185360Y-108162559D01*
X101600351Y-107748292D01*
X102012402Y-108161064D01*
X102567925Y-108391737D01*
X103169436Y-108392262D01*
X103725360Y-108162559D01*
X104140351Y-107748292D01*
X104552402Y-108161064D01*
X105107925Y-108391737D01*
X105709436Y-108392262D01*
X106265360Y-108162559D01*
X106680351Y-107748292D01*
X107092402Y-108161064D01*
X107647925Y-108391737D01*
X108249436Y-108392262D01*
X108805360Y-108162559D01*
X109220351Y-107748292D01*
X109632402Y-108161064D01*
X110187925Y-108391737D01*
X110789436Y-108392262D01*
X111345360Y-108162559D01*
X111760351Y-107748292D01*
X112172402Y-108161064D01*
X112727925Y-108391737D01*
X113329436Y-108392262D01*
X113885360Y-108162559D01*
X114300351Y-107748292D01*
X114712402Y-108161064D01*
X115267925Y-108391737D01*
X115869436Y-108392262D01*
X116425360Y-108162559D01*
X116840351Y-107748292D01*
X117252402Y-108161064D01*
X117807925Y-108391737D01*
X118409436Y-108392262D01*
X118965360Y-108162559D01*
X119380351Y-107748292D01*
X119792402Y-108161064D01*
X120347925Y-108391737D01*
X120949436Y-108392262D01*
X121505360Y-108162559D01*
X121920351Y-107748292D01*
X122332402Y-108161064D01*
X122887925Y-108391737D01*
X123489436Y-108392262D01*
X124045360Y-108162559D01*
X124460351Y-107748292D01*
X124872402Y-108161064D01*
X125427925Y-108391737D01*
X126029436Y-108392262D01*
X126585360Y-108162559D01*
X127000351Y-107748292D01*
X127412402Y-108161064D01*
X127967925Y-108391737D01*
X128569436Y-108392262D01*
X129125360Y-108162559D01*
X129540351Y-107748292D01*
X129952402Y-108161064D01*
X130507925Y-108391737D01*
X131109436Y-108392262D01*
X131665360Y-108162559D01*
X132080351Y-107748292D01*
X132492402Y-108161064D01*
X133047925Y-108391737D01*
X133649436Y-108392262D01*
X134205360Y-108162559D01*
X134620351Y-107748292D01*
X135032402Y-108161064D01*
X135587925Y-108391737D01*
X136189436Y-108392262D01*
X136745360Y-108162559D01*
X137171064Y-107737598D01*
X137401737Y-107182075D01*
X137402262Y-106580564D01*
X137172559Y-106024640D01*
X136747598Y-105598936D01*
X136192075Y-105368263D01*
X135590564Y-105367738D01*
X135034640Y-105597441D01*
X134619649Y-106011708D01*
X134207598Y-105598936D01*
X133652075Y-105368263D01*
X133050564Y-105367738D01*
X132494640Y-105597441D01*
X132079649Y-106011708D01*
X131667598Y-105598936D01*
X131112075Y-105368263D01*
X130510564Y-105367738D01*
X129954640Y-105597441D01*
X129539649Y-106011708D01*
X129127598Y-105598936D01*
X128572075Y-105368263D01*
X127970564Y-105367738D01*
X127414640Y-105597441D01*
X126999649Y-106011708D01*
X126587598Y-105598936D01*
X126032075Y-105368263D01*
X125430564Y-105367738D01*
X124874640Y-105597441D01*
X124459649Y-106011708D01*
X124047598Y-105598936D01*
X123492075Y-105368263D01*
X122890564Y-105367738D01*
X122334640Y-105597441D01*
X121919649Y-106011708D01*
X121507598Y-105598936D01*
X120952075Y-105368263D01*
X120350564Y-105367738D01*
X119794640Y-105597441D01*
X119379649Y-106011708D01*
X118967598Y-105598936D01*
X118412075Y-105368263D01*
X117810564Y-105367738D01*
X117254640Y-105597441D01*
X116839649Y-106011708D01*
X116427598Y-105598936D01*
X115872075Y-105368263D01*
X115270564Y-105367738D01*
X114714640Y-105597441D01*
X114299649Y-106011708D01*
X113887598Y-105598936D01*
X113332075Y-105368263D01*
X112730564Y-105367738D01*
X112174640Y-105597441D01*
X111759649Y-106011708D01*
X111347598Y-105598936D01*
X110792075Y-105368263D01*
X110190564Y-105367738D01*
X109634640Y-105597441D01*
X109219649Y-106011708D01*
X108807598Y-105598936D01*
X108252075Y-105368263D01*
X107650564Y-105367738D01*
X107094640Y-105597441D01*
X106679649Y-106011708D01*
X106267598Y-105598936D01*
X105712075Y-105368263D01*
X105110564Y-105367738D01*
X104554640Y-105597441D01*
X104139649Y-106011708D01*
X103727598Y-105598936D01*
X103172075Y-105368263D01*
X102570564Y-105367738D01*
X102014640Y-105597441D01*
X101599649Y-106011708D01*
X101187598Y-105598936D01*
X100632075Y-105368263D01*
X100030564Y-105367738D01*
X99474640Y-105597441D01*
X99059649Y-106011708D01*
X98647598Y-105598936D01*
X98092075Y-105368263D01*
X97490564Y-105367738D01*
X96934640Y-105597441D01*
X96519649Y-106011708D01*
X96107598Y-105598936D01*
X95552075Y-105368263D01*
X94950564Y-105367738D01*
X94394640Y-105597441D01*
X93979649Y-106011708D01*
X93635000Y-105666456D01*
X93635000Y-102550946D01*
X134217518Y-102550946D01*
X134640160Y-103573818D01*
X135422066Y-104357090D01*
X136444198Y-104781516D01*
X137550946Y-104782482D01*
X138573818Y-104359840D01*
X139357090Y-103577934D01*
X139781516Y-102555802D01*
X139782482Y-101449054D01*
X139359840Y-100426182D01*
X138577934Y-99642910D01*
X137555802Y-99218484D01*
X136449054Y-99217518D01*
X135426182Y-99640160D01*
X134642910Y-100422066D01*
X134218484Y-101444198D01*
X134217518Y-102550946D01*
X93635000Y-102550946D01*
X93635000Y-100078369D01*
X93759818Y-99777774D01*
X93760182Y-99360058D01*
X93600666Y-98974000D01*
X93305554Y-98678372D01*
X92919774Y-98518182D01*
X92502058Y-98517818D01*
X92116000Y-98677334D01*
X91820372Y-98972446D01*
X91660182Y-99358226D01*
X91659818Y-99775942D01*
X91785000Y-100078905D01*
X91785000Y-105666959D01*
X91428936Y-106022402D01*
X91331315Y-106257500D01*
X90708815Y-106880000D01*
X89631185Y-106880000D01*
X89072449Y-106321264D01*
X89069265Y-106305255D01*
X89050367Y-106299182D01*
X88977230Y-106226045D01*
X88900000Y-106250862D01*
X88822770Y-106226045D01*
X88749633Y-106299182D01*
X88730735Y-106305255D01*
X88727811Y-106321004D01*
X88168815Y-106880000D01*
X87091185Y-106880000D01*
X86437230Y-106226045D01*
X86190735Y-106305255D01*
X86080347Y-106899788D01*
X58276002Y-106899788D01*
X58111107Y-106734893D01*
X57786684Y-106518120D01*
X57679730Y-106496846D01*
X57582951Y-106010304D01*
X57367081Y-105687230D01*
X86976045Y-105687230D01*
X87630000Y-106341185D01*
X88283955Y-105687230D01*
X89516045Y-105687230D01*
X90170000Y-106341185D01*
X90823955Y-105687230D01*
X90744745Y-105440735D01*
X90150212Y-105330347D01*
X89595255Y-105440735D01*
X89516045Y-105687230D01*
X88283955Y-105687230D01*
X88204745Y-105440735D01*
X87610212Y-105330347D01*
X87055255Y-105440735D01*
X86976045Y-105687230D01*
X57367081Y-105687230D01*
X57203599Y-105442563D01*
X56635858Y-105063211D01*
X55966162Y-104930000D01*
X55285838Y-104930000D01*
X54616142Y-105063211D01*
X54048401Y-105442563D01*
X53669049Y-106010304D01*
X53535838Y-106680000D01*
X53669049Y-107349696D01*
X54048401Y-107917437D01*
X54097135Y-107950000D01*
X54048401Y-107982563D01*
X53669049Y-108550304D01*
X53535838Y-109220000D01*
X53647985Y-109783801D01*
X51616893Y-111814893D01*
X51400120Y-112139316D01*
X51342360Y-112429696D01*
X51324000Y-112522000D01*
X51324000Y-127254000D01*
X51400120Y-127636684D01*
X51616893Y-127961107D01*
X52393191Y-128737404D01*
X52202263Y-128775382D01*
X51853001Y-129085231D01*
X51538461Y-128770691D01*
X50825000Y-129484152D01*
X50825000Y-102550946D01*
X57217518Y-102550946D01*
X57640160Y-103573818D01*
X58422066Y-104357090D01*
X59444198Y-104781516D01*
X60550946Y-104782482D01*
X61573818Y-104359840D01*
X62357090Y-103577934D01*
X62781516Y-102555802D01*
X62782482Y-101449054D01*
X62359840Y-100426182D01*
X61577934Y-99642910D01*
X60555802Y-99218484D01*
X59449054Y-99217518D01*
X58426182Y-99640160D01*
X57642910Y-100422066D01*
X57218484Y-101444198D01*
X57217518Y-102550946D01*
X50825000Y-102550946D01*
X50825000Y-97768654D01*
X98960000Y-97768654D01*
X98960000Y-97831346D01*
X99081793Y-98443639D01*
X99428629Y-98962717D01*
X99947707Y-99309553D01*
X100560000Y-99431346D01*
X101172293Y-99309553D01*
X101560739Y-99050002D01*
X101595233Y-99050002D01*
X101607399Y-99079373D01*
X101820628Y-99292602D01*
X102099225Y-99408000D01*
X102485500Y-99408000D01*
X102675000Y-99218500D01*
X102675000Y-98225000D01*
X103525000Y-98225000D01*
X103525000Y-99218500D01*
X103714500Y-99408000D01*
X104100775Y-99408000D01*
X104379372Y-99292602D01*
X104592601Y-99079373D01*
X104708000Y-98800776D01*
X104708000Y-98414500D01*
X104518500Y-98225000D01*
X103525000Y-98225000D01*
X102675000Y-98225000D01*
X102250000Y-98225000D01*
X102250000Y-97375000D01*
X102675000Y-97375000D01*
X102675000Y-96381500D01*
X103525000Y-96381500D01*
X103525000Y-97375000D01*
X104518500Y-97375000D01*
X104708000Y-97185500D01*
X104708000Y-96799224D01*
X104592601Y-96520627D01*
X104379372Y-96307398D01*
X104100775Y-96192000D01*
X103714500Y-96192000D01*
X103525000Y-96381500D01*
X102675000Y-96381500D01*
X102485500Y-96192000D01*
X102099225Y-96192000D01*
X101820628Y-96307398D01*
X101607399Y-96520627D01*
X101595233Y-96549998D01*
X101560739Y-96549998D01*
X101172293Y-96290447D01*
X100560000Y-96168654D01*
X99947707Y-96290447D01*
X99428629Y-96637283D01*
X99081793Y-97156361D01*
X98960000Y-97768654D01*
X50825000Y-97768654D01*
X50825000Y-87329942D01*
X106391818Y-87329942D01*
X106490076Y-87567745D01*
X106512644Y-90178121D01*
X106392182Y-90468226D01*
X106391818Y-90885942D01*
X106551334Y-91272000D01*
X106846446Y-91567628D01*
X107232226Y-91727818D01*
X107649942Y-91728182D01*
X108036000Y-91568666D01*
X108046196Y-91558488D01*
X108290226Y-91659818D01*
X108707942Y-91660182D01*
X109094000Y-91500666D01*
X109389628Y-91205554D01*
X109549818Y-90819774D01*
X109550182Y-90402058D01*
X109426280Y-90102193D01*
X109426800Y-89895342D01*
X120275458Y-89895342D01*
X120434974Y-90281400D01*
X120730086Y-90577028D01*
X121115866Y-90737218D01*
X121533582Y-90737582D01*
X121836545Y-90612400D01*
X125387271Y-90612400D01*
X125687866Y-90737218D01*
X126105582Y-90737582D01*
X126491640Y-90578066D01*
X126787268Y-90282954D01*
X126947458Y-89897174D01*
X126947822Y-89479458D01*
X126788306Y-89093400D01*
X126493194Y-88797772D01*
X126107414Y-88637582D01*
X125689698Y-88637218D01*
X125386735Y-88762400D01*
X121836009Y-88762400D01*
X121535414Y-88637582D01*
X121117698Y-88637218D01*
X120731640Y-88796734D01*
X120436012Y-89091846D01*
X120275822Y-89477626D01*
X120275458Y-89895342D01*
X109426800Y-89895342D01*
X109432390Y-87673420D01*
X109439068Y-87666754D01*
X109599258Y-87280974D01*
X109599622Y-86863258D01*
X109440106Y-86477200D01*
X109144994Y-86181572D01*
X108759214Y-86021382D01*
X108341498Y-86021018D01*
X107955440Y-86180534D01*
X107942889Y-86193063D01*
X107651774Y-86072182D01*
X107234058Y-86071818D01*
X106848000Y-86231334D01*
X106552372Y-86526446D01*
X106392182Y-86912226D01*
X106391818Y-87329942D01*
X50825000Y-87329942D01*
X50825000Y-85450342D01*
X118624458Y-85450342D01*
X118783974Y-85836400D01*
X119079086Y-86132028D01*
X119381832Y-86257739D01*
X119655564Y-86531471D01*
X119655566Y-86531474D01*
X119817089Y-86639400D01*
X119955658Y-86731989D01*
X120309640Y-86802401D01*
X120309645Y-86802400D01*
X128796314Y-86802400D01*
X128816974Y-86852400D01*
X129112086Y-87148028D01*
X129497866Y-87308218D01*
X129915582Y-87308582D01*
X130301640Y-87149066D01*
X130597268Y-86853954D01*
X130600013Y-86847342D01*
X134220058Y-86847342D01*
X134379574Y-87233400D01*
X134674686Y-87529028D01*
X135060466Y-87689218D01*
X135478182Y-87689582D01*
X135818029Y-87549160D01*
X136847751Y-87549160D01*
X137148346Y-87673978D01*
X137566062Y-87674342D01*
X137952120Y-87514826D01*
X138247748Y-87219714D01*
X138407938Y-86833934D01*
X138408302Y-86416218D01*
X138248786Y-86030160D01*
X137953674Y-85734532D01*
X137567894Y-85574342D01*
X137150178Y-85573978D01*
X136847215Y-85699160D01*
X135743907Y-85699160D01*
X135480014Y-85589582D01*
X135062298Y-85589218D01*
X134676240Y-85748734D01*
X134380612Y-86043846D01*
X134220422Y-86429626D01*
X134220058Y-86847342D01*
X130600013Y-86847342D01*
X130757458Y-86468174D01*
X130757822Y-86050458D01*
X130598306Y-85664400D01*
X130303194Y-85368772D01*
X130000449Y-85243061D01*
X129980714Y-85223326D01*
X129680623Y-85022811D01*
X129326640Y-84952400D01*
X120692787Y-84952400D01*
X120689599Y-84949211D01*
X120565306Y-84648400D01*
X120270194Y-84352772D01*
X119884414Y-84192582D01*
X119466698Y-84192218D01*
X119080640Y-84351734D01*
X118785012Y-84646846D01*
X118624822Y-85032626D01*
X118624458Y-85450342D01*
X50825000Y-85450342D01*
X50825000Y-82107702D01*
X91868098Y-82107702D01*
X92027614Y-82493760D01*
X92322726Y-82789388D01*
X92708506Y-82949578D01*
X93126222Y-82949942D01*
X93207884Y-82916200D01*
X96763400Y-82916200D01*
X96763400Y-83836041D01*
X96714782Y-83953126D01*
X96714418Y-84370842D01*
X96873934Y-84756900D01*
X97169046Y-85052528D01*
X97554826Y-85212718D01*
X97972542Y-85213082D01*
X98358600Y-85053566D01*
X98654228Y-84758454D01*
X98814418Y-84372674D01*
X98814782Y-83954958D01*
X98655266Y-83568900D01*
X98613400Y-83526961D01*
X98613400Y-82916200D01*
X99311631Y-82916200D01*
X99612226Y-83041018D01*
X100029942Y-83041382D01*
X100416000Y-82881866D01*
X100711628Y-82586754D01*
X100802968Y-82366782D01*
X106630578Y-82366782D01*
X106790094Y-82752840D01*
X107085206Y-83048468D01*
X107470986Y-83208658D01*
X107888702Y-83209022D01*
X108274760Y-83049506D01*
X108570388Y-82754394D01*
X108730578Y-82368614D01*
X108730942Y-81950898D01*
X108605760Y-81647935D01*
X108605760Y-80187462D01*
X131883258Y-80187462D01*
X132042774Y-80573520D01*
X132337886Y-80869148D01*
X132723666Y-81029338D01*
X133141382Y-81029702D01*
X133527440Y-80870186D01*
X133798379Y-80599720D01*
X134170591Y-80599720D01*
X134471186Y-80724538D01*
X134888902Y-80724902D01*
X135274960Y-80565386D01*
X135570588Y-80270274D01*
X135730778Y-79884494D01*
X135731142Y-79466778D01*
X135571626Y-79080720D01*
X135276514Y-78785092D01*
X134890734Y-78624902D01*
X134473018Y-78624538D01*
X134170055Y-78749720D01*
X133238240Y-78749720D01*
X132884257Y-78820131D01*
X132713234Y-78934406D01*
X132339440Y-79088854D01*
X132043812Y-79383966D01*
X131883622Y-79769746D01*
X131883258Y-80187462D01*
X108605760Y-80187462D01*
X108605760Y-79885579D01*
X108755978Y-79523814D01*
X108756342Y-79106098D01*
X108596826Y-78720040D01*
X108301714Y-78424412D01*
X107915934Y-78264222D01*
X107498218Y-78263858D01*
X107112160Y-78423374D01*
X106816532Y-78718486D01*
X106656342Y-79104266D01*
X106655978Y-79521982D01*
X106755760Y-79763473D01*
X106755760Y-81648471D01*
X106630942Y-81949066D01*
X106630578Y-82366782D01*
X100802968Y-82366782D01*
X100871818Y-82200974D01*
X100872182Y-81783258D01*
X100712666Y-81397200D01*
X100417554Y-81101572D01*
X100031774Y-80941382D01*
X99614058Y-80941018D01*
X99311095Y-81066200D01*
X93569804Y-81066200D01*
X93513834Y-81010132D01*
X93128054Y-80849942D01*
X92710338Y-80849578D01*
X92324280Y-81009094D01*
X92028652Y-81304206D01*
X91868462Y-81689986D01*
X91868098Y-82107702D01*
X50825000Y-82107702D01*
X50825000Y-77322342D01*
X138182458Y-77322342D01*
X138341974Y-77708400D01*
X138637086Y-78004028D01*
X139022866Y-78164218D01*
X139440582Y-78164582D01*
X139743545Y-78039400D01*
X140500271Y-78039400D01*
X140800866Y-78164218D01*
X141218582Y-78164582D01*
X141604640Y-78005066D01*
X141900268Y-77709954D01*
X142060458Y-77324174D01*
X142060822Y-76906458D01*
X141901306Y-76520400D01*
X141606194Y-76224772D01*
X141220414Y-76064582D01*
X140802698Y-76064218D01*
X140499735Y-76189400D01*
X139743009Y-76189400D01*
X139442414Y-76064582D01*
X139024698Y-76064218D01*
X138638640Y-76223734D01*
X138343012Y-76518846D01*
X138182822Y-76904626D01*
X138182458Y-77322342D01*
X50825000Y-77322342D01*
X50825000Y-75840961D01*
X59331699Y-75840961D01*
X59525361Y-76115784D01*
X60419149Y-76205592D01*
X60870639Y-76115784D01*
X61064301Y-75840961D01*
X60198000Y-74974660D01*
X59331699Y-75840961D01*
X50825000Y-75840961D01*
X50825000Y-74135149D01*
X57906408Y-74135149D01*
X57996216Y-74586639D01*
X58271039Y-74780301D01*
X59137340Y-73914000D01*
X61258660Y-73914000D01*
X62124961Y-74780301D01*
X62399784Y-74586639D01*
X62422598Y-74359589D01*
X66075610Y-74359589D01*
X66417431Y-75186858D01*
X67049813Y-75820345D01*
X67876484Y-76163608D01*
X68771589Y-76164390D01*
X69598858Y-75822569D01*
X70232345Y-75190187D01*
X70575608Y-74363516D01*
X70575683Y-74276882D01*
X89112198Y-74276882D01*
X89271714Y-74662940D01*
X89566826Y-74958568D01*
X89869571Y-75084279D01*
X90430326Y-75645034D01*
X90730417Y-75845549D01*
X91084400Y-75915960D01*
X98999432Y-75915960D01*
X99226726Y-76143254D01*
X99226478Y-76428262D01*
X99385994Y-76814320D01*
X99681106Y-77109948D01*
X100066886Y-77270138D01*
X100484602Y-77270502D01*
X100870660Y-77110986D01*
X101166288Y-76815874D01*
X101326478Y-76430094D01*
X101326842Y-76012378D01*
X101167326Y-75626320D01*
X101145935Y-75604892D01*
X101131249Y-75531058D01*
X101131249Y-75531057D01*
X100930734Y-75230966D01*
X100036654Y-74336886D01*
X99736563Y-74136371D01*
X99490157Y-74087358D01*
X99538318Y-73971374D01*
X99538682Y-73553658D01*
X99379166Y-73167600D01*
X99084054Y-72871972D01*
X98698274Y-72711782D01*
X98280558Y-72711418D01*
X97977595Y-72836600D01*
X97170069Y-72836600D01*
X96869474Y-72711782D01*
X96451758Y-72711418D01*
X96065700Y-72870934D01*
X95770072Y-73166046D01*
X95609882Y-73551826D01*
X95609518Y-73969542D01*
X95649357Y-74065960D01*
X91467548Y-74065960D01*
X91177338Y-73775750D01*
X91053046Y-73474940D01*
X90757934Y-73179312D01*
X90372154Y-73019122D01*
X89954438Y-73018758D01*
X89568380Y-73178274D01*
X89272752Y-73473386D01*
X89112562Y-73859166D01*
X89112198Y-74276882D01*
X70575683Y-74276882D01*
X70576390Y-73468411D01*
X70234569Y-72641142D01*
X69602187Y-72007655D01*
X68775516Y-71664392D01*
X67880411Y-71663610D01*
X67053142Y-72005431D01*
X66419655Y-72637813D01*
X66076392Y-73464484D01*
X66075610Y-74359589D01*
X62422598Y-74359589D01*
X62489592Y-73692851D01*
X62399784Y-73241361D01*
X62124961Y-73047699D01*
X61258660Y-73914000D01*
X59137340Y-73914000D01*
X58271039Y-73047699D01*
X57996216Y-73241361D01*
X57906408Y-74135149D01*
X50825000Y-74135149D01*
X50825000Y-71987039D01*
X59331699Y-71987039D01*
X60198000Y-72853340D01*
X61064301Y-71987039D01*
X60870639Y-71712216D01*
X59976851Y-71622408D01*
X59525361Y-71712216D01*
X59331699Y-71987039D01*
X50825000Y-71987039D01*
X50825000Y-70506961D01*
X53997699Y-70506961D01*
X54191361Y-70781784D01*
X55085149Y-70871592D01*
X55536639Y-70781784D01*
X55730301Y-70506961D01*
X54864000Y-69640660D01*
X53997699Y-70506961D01*
X50825000Y-70506961D01*
X50825000Y-68801149D01*
X52572408Y-68801149D01*
X52662216Y-69252639D01*
X52937039Y-69446301D01*
X53803340Y-68580000D01*
X55924660Y-68580000D01*
X56790961Y-69446301D01*
X57065784Y-69252639D01*
X57085476Y-69056654D01*
X71298000Y-69056654D01*
X71298000Y-69119346D01*
X71419793Y-69731639D01*
X71766629Y-70250717D01*
X72285707Y-70597553D01*
X72898000Y-70719346D01*
X73510293Y-70597553D01*
X74029371Y-70250717D01*
X74168000Y-70043244D01*
X74306629Y-70250717D01*
X74825707Y-70597553D01*
X75438000Y-70719346D01*
X76050293Y-70597553D01*
X76477491Y-70312109D01*
X76579862Y-70471198D01*
X76830492Y-70642446D01*
X77128000Y-70702693D01*
X78828000Y-70702693D01*
X79105933Y-70650396D01*
X79361198Y-70486138D01*
X79532446Y-70235508D01*
X79537542Y-70210342D01*
X95383458Y-70210342D01*
X95542974Y-70596400D01*
X95838086Y-70892028D01*
X96223866Y-71052218D01*
X96641582Y-71052582D01*
X97027640Y-70893066D01*
X97323268Y-70597954D01*
X97448979Y-70295209D01*
X98976565Y-68767622D01*
X123592698Y-68767622D01*
X123752214Y-69153680D01*
X124047326Y-69449308D01*
X124433106Y-69609498D01*
X124850822Y-69609862D01*
X125153785Y-69484680D01*
X125839391Y-69484680D01*
X126139986Y-69609498D01*
X126557702Y-69609862D01*
X126943760Y-69450346D01*
X127239388Y-69155234D01*
X127399578Y-68769454D01*
X127399942Y-68351738D01*
X127240426Y-67965680D01*
X126945314Y-67670052D01*
X126559534Y-67509862D01*
X126141818Y-67509498D01*
X125838855Y-67634680D01*
X125153249Y-67634680D01*
X124852654Y-67509862D01*
X124434938Y-67509498D01*
X124048880Y-67669014D01*
X123753252Y-67964126D01*
X123593062Y-68349906D01*
X123592698Y-68767622D01*
X98976565Y-68767622D01*
X99627711Y-68116476D01*
X99627714Y-68116474D01*
X99828229Y-67816382D01*
X99898640Y-67462400D01*
X99898640Y-62176796D01*
X99999440Y-62135146D01*
X100295068Y-61840034D01*
X100455258Y-61454254D01*
X100455622Y-61036538D01*
X100296106Y-60650480D01*
X100000994Y-60354852D01*
X99615214Y-60194662D01*
X99197498Y-60194298D01*
X98811440Y-60353814D01*
X98515812Y-60648926D01*
X98390101Y-60951671D01*
X98319566Y-61022206D01*
X98119051Y-61322297D01*
X98119051Y-61322298D01*
X98048640Y-61676280D01*
X98048640Y-67079253D01*
X96140451Y-68987442D01*
X95839640Y-69111734D01*
X95544012Y-69406846D01*
X95383822Y-69792626D01*
X95383458Y-70210342D01*
X79537542Y-70210342D01*
X79592693Y-69938000D01*
X79592693Y-68238000D01*
X79540396Y-67960067D01*
X79376138Y-67704802D01*
X79125508Y-67533554D01*
X78828000Y-67473307D01*
X77128000Y-67473307D01*
X76850067Y-67525604D01*
X76594802Y-67689862D01*
X76476394Y-67863158D01*
X76050293Y-67578447D01*
X75438000Y-67456654D01*
X74825707Y-67578447D01*
X74306629Y-67925283D01*
X74168000Y-68132756D01*
X74029371Y-67925283D01*
X73510293Y-67578447D01*
X72898000Y-67456654D01*
X72285707Y-67578447D01*
X71766629Y-67925283D01*
X71419793Y-68444361D01*
X71298000Y-69056654D01*
X57085476Y-69056654D01*
X57155592Y-68358851D01*
X57065784Y-67907361D01*
X56790961Y-67713699D01*
X55924660Y-68580000D01*
X53803340Y-68580000D01*
X52937039Y-67713699D01*
X52662216Y-67907361D01*
X52572408Y-68801149D01*
X50825000Y-68801149D01*
X50825000Y-66653039D01*
X53997699Y-66653039D01*
X54864000Y-67519340D01*
X55730301Y-66653039D01*
X55536639Y-66378216D01*
X54642851Y-66288408D01*
X54191361Y-66378216D01*
X53997699Y-66653039D01*
X50825000Y-66653039D01*
X50825000Y-65977589D01*
X57947610Y-65977589D01*
X58289431Y-66804858D01*
X58921813Y-67438345D01*
X59748484Y-67781608D01*
X60643589Y-67782390D01*
X61470858Y-67440569D01*
X62104345Y-66808187D01*
X62447608Y-65981516D01*
X62447611Y-65977589D01*
X65821610Y-65977589D01*
X66163431Y-66804858D01*
X66795813Y-67438345D01*
X67622484Y-67781608D01*
X68517589Y-67782390D01*
X69344858Y-67440569D01*
X69978345Y-66808187D01*
X70321608Y-65981516D01*
X70322390Y-65086411D01*
X69980569Y-64259142D01*
X69348187Y-63625655D01*
X68521516Y-63282392D01*
X67626411Y-63281610D01*
X66799142Y-63623431D01*
X66165655Y-64255813D01*
X65822392Y-65082484D01*
X65821610Y-65977589D01*
X62447611Y-65977589D01*
X62448390Y-65086411D01*
X62106569Y-64259142D01*
X61474187Y-63625655D01*
X60647516Y-63282392D01*
X59752411Y-63281610D01*
X58925142Y-63623431D01*
X58291655Y-64255813D01*
X57948392Y-65082484D01*
X57947610Y-65977589D01*
X50825000Y-65977589D01*
X50825000Y-64814500D01*
X51242000Y-64814500D01*
X51242000Y-65200776D01*
X51357399Y-65479373D01*
X51570628Y-65692602D01*
X51849225Y-65808000D01*
X52235500Y-65808000D01*
X52425000Y-65618500D01*
X52425000Y-64625000D01*
X51431500Y-64625000D01*
X51242000Y-64814500D01*
X50825000Y-64814500D01*
X50825000Y-63199224D01*
X51242000Y-63199224D01*
X51242000Y-63585500D01*
X51431500Y-63775000D01*
X52425000Y-63775000D01*
X52425000Y-62781500D01*
X53275000Y-62781500D01*
X53275000Y-63775000D01*
X53700000Y-63775000D01*
X53700000Y-64625000D01*
X53275000Y-64625000D01*
X53275000Y-65618500D01*
X53464500Y-65808000D01*
X53850775Y-65808000D01*
X54129372Y-65692602D01*
X54342601Y-65479373D01*
X54354767Y-65450002D01*
X54389261Y-65450002D01*
X54777707Y-65709553D01*
X55390000Y-65831346D01*
X56002293Y-65709553D01*
X56521371Y-65362717D01*
X56868207Y-64843639D01*
X56990000Y-64231346D01*
X56990000Y-64168654D01*
X56868207Y-63556361D01*
X56521371Y-63037283D01*
X56002293Y-62690447D01*
X55390000Y-62568654D01*
X54777707Y-62690447D01*
X54389261Y-62949998D01*
X54354767Y-62949998D01*
X54342601Y-62920627D01*
X54129372Y-62707398D01*
X53850775Y-62592000D01*
X53464500Y-62592000D01*
X53275000Y-62781500D01*
X52425000Y-62781500D01*
X52235500Y-62592000D01*
X51849225Y-62592000D01*
X51570628Y-62707398D01*
X51357399Y-62920627D01*
X51242000Y-63199224D01*
X50825000Y-63199224D01*
X50825000Y-58550946D01*
X57217518Y-58550946D01*
X57640160Y-59573818D01*
X58422066Y-60357090D01*
X59444198Y-60781516D01*
X60550946Y-60782482D01*
X61573818Y-60359840D01*
X62357090Y-59577934D01*
X62781516Y-58555802D01*
X62781520Y-58550946D01*
X134217518Y-58550946D01*
X134640160Y-59573818D01*
X135422066Y-60357090D01*
X136444198Y-60781516D01*
X137550946Y-60782482D01*
X138573818Y-60359840D01*
X139357090Y-59577934D01*
X139781516Y-58555802D01*
X139782482Y-57449054D01*
X139359840Y-56426182D01*
X138577934Y-55642910D01*
X137555802Y-55218484D01*
X136449054Y-55217518D01*
X135426182Y-55640160D01*
X134642910Y-56422066D01*
X134218484Y-57444198D01*
X134217518Y-58550946D01*
X62781520Y-58550946D01*
X62782482Y-57449054D01*
X62359840Y-56426182D01*
X61577934Y-55642910D01*
X60722012Y-55287500D01*
X63076000Y-55287500D01*
X63076000Y-56538775D01*
X63191398Y-56817372D01*
X63404627Y-57030601D01*
X63683224Y-57146000D01*
X64269500Y-57146000D01*
X64459000Y-56956500D01*
X64459000Y-55098000D01*
X65709000Y-55098000D01*
X65709000Y-56956500D01*
X65898500Y-57146000D01*
X66484776Y-57146000D01*
X66763373Y-57030601D01*
X66976602Y-56817372D01*
X67092000Y-56538775D01*
X67092000Y-55287500D01*
X70576000Y-55287500D01*
X70576000Y-56538775D01*
X70691398Y-56817372D01*
X70904627Y-57030601D01*
X71183224Y-57146000D01*
X71769500Y-57146000D01*
X71959000Y-56956500D01*
X71959000Y-55098000D01*
X73209000Y-55098000D01*
X73209000Y-56956500D01*
X73398500Y-57146000D01*
X73984776Y-57146000D01*
X74263373Y-57030601D01*
X74476602Y-56817372D01*
X74592000Y-56538775D01*
X74592000Y-55287500D01*
X122258000Y-55287500D01*
X122258000Y-56538775D01*
X122373398Y-56817372D01*
X122586627Y-57030601D01*
X122865224Y-57146000D01*
X123451500Y-57146000D01*
X123641000Y-56956500D01*
X123641000Y-55098000D01*
X124891000Y-55098000D01*
X124891000Y-56956500D01*
X125080500Y-57146000D01*
X125666776Y-57146000D01*
X125945373Y-57030601D01*
X126158602Y-56817372D01*
X126274000Y-56538775D01*
X126274000Y-55287500D01*
X129758000Y-55287500D01*
X129758000Y-56538775D01*
X129873398Y-56817372D01*
X130086627Y-57030601D01*
X130365224Y-57146000D01*
X130951500Y-57146000D01*
X131141000Y-56956500D01*
X131141000Y-55098000D01*
X132391000Y-55098000D01*
X132391000Y-56956500D01*
X132580500Y-57146000D01*
X133166776Y-57146000D01*
X133445373Y-57030601D01*
X133658602Y-56817372D01*
X133774000Y-56538775D01*
X133774000Y-55287500D01*
X133584500Y-55098000D01*
X132391000Y-55098000D01*
X131141000Y-55098000D01*
X129947500Y-55098000D01*
X129758000Y-55287500D01*
X126274000Y-55287500D01*
X126084500Y-55098000D01*
X124891000Y-55098000D01*
X123641000Y-55098000D01*
X122447500Y-55098000D01*
X122258000Y-55287500D01*
X74592000Y-55287500D01*
X74402500Y-55098000D01*
X73209000Y-55098000D01*
X71959000Y-55098000D01*
X70765500Y-55098000D01*
X70576000Y-55287500D01*
X67092000Y-55287500D01*
X66902500Y-55098000D01*
X65709000Y-55098000D01*
X64459000Y-55098000D01*
X63265500Y-55098000D01*
X63076000Y-55287500D01*
X60722012Y-55287500D01*
X60555802Y-55218484D01*
X59449054Y-55217518D01*
X58426182Y-55640160D01*
X57642910Y-56422066D01*
X57218484Y-57444198D01*
X57217518Y-58550946D01*
X50825000Y-58550946D01*
X50825000Y-55515848D01*
X51538461Y-56229309D01*
X51853001Y-55914769D01*
X52202263Y-56224618D01*
X53496996Y-56284439D01*
X53797737Y-56224618D01*
X54147001Y-55914768D01*
X53000000Y-54767767D01*
X52985858Y-54781910D01*
X51218091Y-53014143D01*
X51232233Y-53000000D01*
X51218091Y-52985858D01*
X52985858Y-51218091D01*
X53000000Y-51232233D01*
X53014143Y-51218091D01*
X54781910Y-52985858D01*
X54767767Y-53000000D01*
X55914768Y-54147001D01*
X56224618Y-53797737D01*
X56267141Y-52877382D01*
X100204378Y-52877382D01*
X100363894Y-53263440D01*
X100659006Y-53559068D01*
X101044786Y-53719258D01*
X101462502Y-53719622D01*
X101704993Y-53619427D01*
X104693061Y-53776694D01*
X104946226Y-53881818D01*
X105363942Y-53882182D01*
X105750000Y-53722666D01*
X106045628Y-53427554D01*
X106205818Y-53041774D01*
X106206182Y-52624058D01*
X106046666Y-52238000D01*
X105751554Y-51942372D01*
X105365774Y-51782182D01*
X104948058Y-51781818D01*
X104613732Y-51919959D01*
X101835479Y-51773735D01*
X101464334Y-51619622D01*
X101046618Y-51619258D01*
X100660560Y-51778774D01*
X100364932Y-52073886D01*
X100204742Y-52459666D01*
X100204378Y-52877382D01*
X56267141Y-52877382D01*
X56284439Y-52503004D01*
X56224618Y-52202263D01*
X55914769Y-51853001D01*
X56229309Y-51538461D01*
X55515848Y-50825000D01*
X63245026Y-50825000D01*
X63191398Y-50878628D01*
G36*
X85210307Y-129675000D02*
X85262604Y-129952933D01*
X85426862Y-130208198D01*
X85677492Y-130379446D01*
X85975000Y-130439693D01*
X89475000Y-130439693D01*
X89752933Y-130387396D01*
X89910307Y-130286129D01*
X89910307Y-131538333D01*
X89904372Y-131532398D01*
X89625775Y-131417000D01*
X88789500Y-131417000D01*
X88600000Y-131606500D01*
X88600000Y-133050000D01*
X90025065Y-133050000D01*
X90126862Y-133208198D01*
X90377492Y-133379446D01*
X90675000Y-133439693D01*
X94175000Y-133439693D01*
X94452933Y-133387396D01*
X94708198Y-133223138D01*
X94837528Y-133033857D01*
X94788252Y-133469992D01*
X94820436Y-133631794D01*
X94529795Y-133922435D01*
X94782360Y-134175000D01*
X84095378Y-134175000D01*
X84175834Y-134054589D01*
X84223880Y-133982684D01*
X84300001Y-133600000D01*
X84300000Y-133599995D01*
X84300000Y-132024224D01*
X85217000Y-132024224D01*
X85217000Y-132860500D01*
X85406500Y-133050000D01*
X86850000Y-133050000D01*
X86850000Y-131606500D01*
X86660500Y-131417000D01*
X85824225Y-131417000D01*
X85545628Y-131532398D01*
X85332399Y-131745627D01*
X85217000Y-132024224D01*
X84300000Y-132024224D01*
X84300000Y-129714214D01*
X85210307Y-128803907D01*
X85210307Y-129675000D01*
X85210307Y-129675000D01*
G37*
X85210307Y-129675000D02*
X85262604Y-129952933D01*
X85426862Y-130208198D01*
X85677492Y-130379446D01*
X85975000Y-130439693D01*
X89475000Y-130439693D01*
X89752933Y-130387396D01*
X89910307Y-130286129D01*
X89910307Y-131538333D01*
X89904372Y-131532398D01*
X89625775Y-131417000D01*
X88789500Y-131417000D01*
X88600000Y-131606500D01*
X88600000Y-133050000D01*
X90025065Y-133050000D01*
X90126862Y-133208198D01*
X90377492Y-133379446D01*
X90675000Y-133439693D01*
X94175000Y-133439693D01*
X94452933Y-133387396D01*
X94708198Y-133223138D01*
X94837528Y-133033857D01*
X94788252Y-133469992D01*
X94820436Y-133631794D01*
X94529795Y-133922435D01*
X94782360Y-134175000D01*
X84095378Y-134175000D01*
X84175834Y-134054589D01*
X84223880Y-133982684D01*
X84300001Y-133600000D01*
X84300000Y-133599995D01*
X84300000Y-132024224D01*
X85217000Y-132024224D01*
X85217000Y-132860500D01*
X85406500Y-133050000D01*
X86850000Y-133050000D01*
X86850000Y-131606500D01*
X86660500Y-131417000D01*
X85824225Y-131417000D01*
X85545628Y-131532398D01*
X85332399Y-131745627D01*
X85217000Y-132024224D01*
X84300000Y-132024224D01*
X84300000Y-129714214D01*
X85210307Y-128803907D01*
X85210307Y-129675000D01*
G36*
X149175000Y-129484152D02*
X148461539Y-128770691D01*
X148146999Y-129085231D01*
X147797737Y-128775382D01*
X146503004Y-128715561D01*
X146202263Y-128775382D01*
X145852999Y-129085232D01*
X147000000Y-130232233D01*
X147014143Y-130218091D01*
X148781910Y-131985858D01*
X148767767Y-132000000D01*
X148781910Y-132014143D01*
X147014143Y-133781910D01*
X147000000Y-133767767D01*
X146985858Y-133781910D01*
X145218091Y-132014143D01*
X145232233Y-132000000D01*
X144085232Y-130852999D01*
X143775382Y-131202263D01*
X143715561Y-132496996D01*
X143775382Y-132797737D01*
X144085231Y-133146999D01*
X143770691Y-133461539D01*
X144484152Y-134175000D01*
X138575357Y-134175000D01*
X149175000Y-123916198D01*
X149175000Y-129484152D01*
X149175000Y-129484152D01*
G37*
X149175000Y-129484152D02*
X148461539Y-128770691D01*
X148146999Y-129085231D01*
X147797737Y-128775382D01*
X146503004Y-128715561D01*
X146202263Y-128775382D01*
X145852999Y-129085232D01*
X147000000Y-130232233D01*
X147014143Y-130218091D01*
X148781910Y-131985858D01*
X148767767Y-132000000D01*
X148781910Y-132014143D01*
X147014143Y-133781910D01*
X147000000Y-133767767D01*
X146985858Y-133781910D01*
X145218091Y-132014143D01*
X145232233Y-132000000D01*
X144085232Y-130852999D01*
X143775382Y-131202263D01*
X143715561Y-132496996D01*
X143775382Y-132797737D01*
X144085231Y-133146999D01*
X143770691Y-133461539D01*
X144484152Y-134175000D01*
X138575357Y-134175000D01*
X149175000Y-123916198D01*
X149175000Y-129484152D01*
G36*
X54781910Y-131985858D02*
X54767767Y-132000000D01*
X54781910Y-132014143D01*
X53014143Y-133781910D01*
X53000000Y-133767767D01*
X52985858Y-133781910D01*
X51218091Y-132014143D01*
X51232233Y-132000000D01*
X51218091Y-131985858D01*
X52985858Y-130218091D01*
X53000000Y-130232233D01*
X53014143Y-130218091D01*
X54781910Y-131985858D01*
X54781910Y-131985858D01*
G37*
X54781910Y-131985858D02*
X54767767Y-132000000D01*
X54781910Y-132014143D01*
X53014143Y-133781910D01*
X53000000Y-133767767D01*
X52985858Y-133781910D01*
X51218091Y-132014143D01*
X51232233Y-132000000D01*
X51218091Y-131985858D01*
X52985858Y-130218091D01*
X53000000Y-130232233D01*
X53014143Y-130218091D01*
X54781910Y-131985858D01*
G36*
X127853000Y-131405611D02*
X127270610Y-131914000D01*
X127083000Y-131914000D01*
X127083000Y-131489000D01*
X126658000Y-131489000D01*
X126658000Y-130639000D01*
X127083000Y-130639000D01*
X127083000Y-130214000D01*
X127853000Y-130214000D01*
X127853000Y-131405611D01*
X127853000Y-131405611D01*
G37*
X127853000Y-131405611D02*
X127270610Y-131914000D01*
X127083000Y-131914000D01*
X127083000Y-131489000D01*
X126658000Y-131489000D01*
X126658000Y-130639000D01*
X127083000Y-130639000D01*
X127083000Y-130214000D01*
X127853000Y-130214000D01*
X127853000Y-131405611D01*
M02*
