G04 #@! TF.FileFunction,Legend,Top*
%FSLAX46Y46*%
G04 Gerber Fmt 4.6, Leading zero omitted, Abs format (unit mm)*
G04 Created by KiCad (PCBNEW 4.0.7) date 10/27/19 20:13:01*
%MOMM*%
%LPD*%
G01*
G04 APERTURE LIST*
%ADD10C,0.100000*%
%ADD11C,0.150000*%
%ADD12C,0.200000*%
%ADD13C,0.120000*%
G04 APERTURE END LIST*
D10*
D11*
X60806081Y-136442295D02*
X60806081Y-135823247D01*
X61187033Y-136156581D01*
X61187033Y-136013723D01*
X61234652Y-135918485D01*
X61282271Y-135870866D01*
X61377510Y-135823247D01*
X61615605Y-135823247D01*
X61710843Y-135870866D01*
X61758462Y-135918485D01*
X61806081Y-136013723D01*
X61806081Y-136299438D01*
X61758462Y-136394676D01*
X61710843Y-136442295D01*
X60806081Y-135537533D02*
X61806081Y-135204200D01*
X60806081Y-134870866D01*
X60806081Y-134632771D02*
X60806081Y-134013723D01*
X61187033Y-134347057D01*
X61187033Y-134204199D01*
X61234652Y-134108961D01*
X61282271Y-134061342D01*
X61377510Y-134013723D01*
X61615605Y-134013723D01*
X61710843Y-134061342D01*
X61758462Y-134108961D01*
X61806081Y-134204199D01*
X61806081Y-134489914D01*
X61758462Y-134585152D01*
X61710843Y-134632771D01*
X60755281Y-140754076D02*
X60755281Y-141230267D01*
X61231471Y-141277886D01*
X61183852Y-141230267D01*
X61136233Y-141135029D01*
X61136233Y-140896933D01*
X61183852Y-140801695D01*
X61231471Y-140754076D01*
X61326710Y-140706457D01*
X61564805Y-140706457D01*
X61660043Y-140754076D01*
X61707662Y-140801695D01*
X61755281Y-140896933D01*
X61755281Y-141135029D01*
X61707662Y-141230267D01*
X61660043Y-141277886D01*
X60755281Y-140420743D02*
X61755281Y-140087410D01*
X60755281Y-139754076D01*
X73994024Y-148477267D02*
X74470215Y-148477267D01*
X73898786Y-148762981D02*
X74232119Y-147762981D01*
X74565453Y-148762981D01*
X74898786Y-148762981D02*
X74898786Y-147762981D01*
X75232120Y-148477267D01*
X75565453Y-147762981D01*
X75565453Y-148762981D01*
X75994024Y-148715362D02*
X76136881Y-148762981D01*
X76374977Y-148762981D01*
X76470215Y-148715362D01*
X76517834Y-148667743D01*
X76565453Y-148572505D01*
X76565453Y-148477267D01*
X76517834Y-148382029D01*
X76470215Y-148334410D01*
X76374977Y-148286790D01*
X76184500Y-148239171D01*
X76089262Y-148191552D01*
X76041643Y-148143933D01*
X75994024Y-148048695D01*
X75994024Y-147953457D01*
X76041643Y-147858219D01*
X76089262Y-147810600D01*
X76184500Y-147762981D01*
X76422596Y-147762981D01*
X76565453Y-147810600D01*
X77517834Y-148762981D02*
X76946405Y-148762981D01*
X77232119Y-148762981D02*
X77232119Y-147762981D01*
X77136881Y-147905838D01*
X77041643Y-148001076D01*
X76946405Y-148048695D01*
X78470215Y-148762981D02*
X77898786Y-148762981D01*
X78184500Y-148762981D02*
X78184500Y-147762981D01*
X78089262Y-147905838D01*
X77994024Y-148001076D01*
X77898786Y-148048695D01*
X79422596Y-148762981D02*
X78851167Y-148762981D01*
X79136881Y-148762981D02*
X79136881Y-147762981D01*
X79041643Y-147905838D01*
X78946405Y-148001076D01*
X78851167Y-148048695D01*
X79755929Y-147762981D02*
X80422596Y-147762981D01*
X79994024Y-148762981D01*
X80803548Y-148382029D02*
X81565453Y-148382029D01*
X81946405Y-147762981D02*
X82565453Y-147762981D01*
X82232119Y-148143933D01*
X82374977Y-148143933D01*
X82470215Y-148191552D01*
X82517834Y-148239171D01*
X82565453Y-148334410D01*
X82565453Y-148572505D01*
X82517834Y-148667743D01*
X82470215Y-148715362D01*
X82374977Y-148762981D01*
X82089262Y-148762981D01*
X81994024Y-148715362D01*
X81946405Y-148667743D01*
X82851167Y-147762981D02*
X83184500Y-148762981D01*
X83517834Y-147762981D01*
X83755929Y-147762981D02*
X84374977Y-147762981D01*
X84041643Y-148143933D01*
X84184501Y-148143933D01*
X84279739Y-148191552D01*
X84327358Y-148239171D01*
X84374977Y-148334410D01*
X84374977Y-148572505D01*
X84327358Y-148667743D01*
X84279739Y-148715362D01*
X84184501Y-148762981D01*
X83898786Y-148762981D01*
X83803548Y-148715362D01*
X83755929Y-148667743D01*
X111517395Y-78806301D02*
X110945966Y-78806301D01*
X111231680Y-78806301D02*
X111231680Y-77806301D01*
X111136442Y-77949158D01*
X111041204Y-78044396D01*
X110945966Y-78092015D01*
X134768555Y-81986381D02*
X134197126Y-81986381D01*
X134482840Y-81986381D02*
X134482840Y-80986381D01*
X134387602Y-81129238D01*
X134292364Y-81224476D01*
X134197126Y-81272095D01*
X129490364Y-85428081D02*
X129014173Y-85428081D01*
X129014173Y-84428081D01*
X129823697Y-85428081D02*
X129823697Y-84428081D01*
X130157031Y-85142367D01*
X130490364Y-84428081D01*
X130490364Y-85428081D01*
X130871316Y-84428081D02*
X131490364Y-84428081D01*
X131157030Y-84809033D01*
X131299888Y-84809033D01*
X131395126Y-84856652D01*
X131442745Y-84904271D01*
X131490364Y-84999510D01*
X131490364Y-85237605D01*
X131442745Y-85332843D01*
X131395126Y-85380462D01*
X131299888Y-85428081D01*
X131014173Y-85428081D01*
X130918935Y-85380462D01*
X130871316Y-85332843D01*
X132395126Y-84428081D02*
X131918935Y-84428081D01*
X131871316Y-84904271D01*
X131918935Y-84856652D01*
X132014173Y-84809033D01*
X132252269Y-84809033D01*
X132347507Y-84856652D01*
X132395126Y-84904271D01*
X132442745Y-84999510D01*
X132442745Y-85237605D01*
X132395126Y-85332843D01*
X132347507Y-85380462D01*
X132252269Y-85428081D01*
X132014173Y-85428081D01*
X131918935Y-85380462D01*
X131871316Y-85332843D01*
X133014173Y-84856652D02*
X132918935Y-84809033D01*
X132871316Y-84761414D01*
X132823697Y-84666176D01*
X132823697Y-84618557D01*
X132871316Y-84523319D01*
X132918935Y-84475700D01*
X133014173Y-84428081D01*
X133204650Y-84428081D01*
X133299888Y-84475700D01*
X133347507Y-84523319D01*
X133395126Y-84618557D01*
X133395126Y-84666176D01*
X133347507Y-84761414D01*
X133299888Y-84809033D01*
X133204650Y-84856652D01*
X133014173Y-84856652D01*
X132918935Y-84904271D01*
X132871316Y-84951890D01*
X132823697Y-85047129D01*
X132823697Y-85237605D01*
X132871316Y-85332843D01*
X132918935Y-85380462D01*
X133014173Y-85428081D01*
X133204650Y-85428081D01*
X133299888Y-85380462D01*
X133347507Y-85332843D01*
X133395126Y-85237605D01*
X133395126Y-85047129D01*
X133347507Y-84951890D01*
X133299888Y-84904271D01*
X133204650Y-84856652D01*
X134397715Y-66136781D02*
X133826286Y-66136781D01*
X134112000Y-66136781D02*
X134112000Y-65136781D01*
X134016762Y-65279638D01*
X133921524Y-65374876D01*
X133826286Y-65422495D01*
X95586515Y-66136781D02*
X95015086Y-66136781D01*
X95300800Y-66136781D02*
X95300800Y-65136781D01*
X95205562Y-65279638D01*
X95110324Y-65374876D01*
X95015086Y-65422495D01*
X91004355Y-53563781D02*
X90432926Y-53563781D01*
X90718640Y-53563781D02*
X90718640Y-52563781D01*
X90623402Y-52706638D01*
X90528164Y-52801876D01*
X90432926Y-52849495D01*
X76993715Y-78938381D02*
X76422286Y-78938381D01*
X76708000Y-78938381D02*
X76708000Y-77938381D01*
X76612762Y-78081238D01*
X76517524Y-78176476D01*
X76422286Y-78224095D01*
X51630343Y-132640343D02*
X51582724Y-132687962D01*
X51439867Y-132735581D01*
X51344629Y-132735581D01*
X51201771Y-132687962D01*
X51106533Y-132592724D01*
X51058914Y-132497486D01*
X51011295Y-132307010D01*
X51011295Y-132164152D01*
X51058914Y-131973676D01*
X51106533Y-131878438D01*
X51201771Y-131783200D01*
X51344629Y-131735581D01*
X51439867Y-131735581D01*
X51582724Y-131783200D01*
X51630343Y-131830819D01*
X52011295Y-132687962D02*
X52154152Y-132735581D01*
X52392248Y-132735581D01*
X52487486Y-132687962D01*
X52535105Y-132640343D01*
X52582724Y-132545105D01*
X52582724Y-132449867D01*
X52535105Y-132354629D01*
X52487486Y-132307010D01*
X52392248Y-132259390D01*
X52201771Y-132211771D01*
X52106533Y-132164152D01*
X52058914Y-132116533D01*
X52011295Y-132021295D01*
X52011295Y-131926057D01*
X52058914Y-131830819D01*
X52106533Y-131783200D01*
X52201771Y-131735581D01*
X52439867Y-131735581D01*
X52582724Y-131783200D01*
X53487486Y-131735581D02*
X53011295Y-131735581D01*
X52963676Y-132211771D01*
X53011295Y-132164152D01*
X53106533Y-132116533D01*
X53344629Y-132116533D01*
X53439867Y-132164152D01*
X53487486Y-132211771D01*
X53535105Y-132307010D01*
X53535105Y-132545105D01*
X53487486Y-132640343D01*
X53439867Y-132687962D01*
X53344629Y-132735581D01*
X53106533Y-132735581D01*
X53011295Y-132687962D01*
X52963676Y-132640343D01*
X51554143Y-135307343D02*
X51506524Y-135354962D01*
X51363667Y-135402581D01*
X51268429Y-135402581D01*
X51125571Y-135354962D01*
X51030333Y-135259724D01*
X50982714Y-135164486D01*
X50935095Y-134974010D01*
X50935095Y-134831152D01*
X50982714Y-134640676D01*
X51030333Y-134545438D01*
X51125571Y-134450200D01*
X51268429Y-134402581D01*
X51363667Y-134402581D01*
X51506524Y-134450200D01*
X51554143Y-134497819D01*
X51935095Y-135354962D02*
X52077952Y-135402581D01*
X52316048Y-135402581D01*
X52411286Y-135354962D01*
X52458905Y-135307343D01*
X52506524Y-135212105D01*
X52506524Y-135116867D01*
X52458905Y-135021629D01*
X52411286Y-134974010D01*
X52316048Y-134926390D01*
X52125571Y-134878771D01*
X52030333Y-134831152D01*
X51982714Y-134783533D01*
X51935095Y-134688295D01*
X51935095Y-134593057D01*
X51982714Y-134497819D01*
X52030333Y-134450200D01*
X52125571Y-134402581D01*
X52363667Y-134402581D01*
X52506524Y-134450200D01*
X53363667Y-134735914D02*
X53363667Y-135402581D01*
X53125571Y-134354962D02*
X52887476Y-135069248D01*
X53506524Y-135069248D01*
X142881315Y-93924381D02*
X142309886Y-93924381D01*
X142595600Y-93924381D02*
X142595600Y-92924381D01*
X142500362Y-93067238D01*
X142405124Y-93162476D01*
X142309886Y-93210095D01*
X69819781Y-139719085D02*
X69819781Y-140290514D01*
X69819781Y-140004800D02*
X68819781Y-140004800D01*
X68962638Y-140100038D01*
X69057876Y-140195276D01*
X69105495Y-140290514D01*
X124304800Y-137529843D02*
X124257181Y-137577462D01*
X124114324Y-137625081D01*
X124019086Y-137625081D01*
X123876228Y-137577462D01*
X123780990Y-137482224D01*
X123733371Y-137386986D01*
X123685752Y-137196510D01*
X123685752Y-137053652D01*
X123733371Y-136863176D01*
X123780990Y-136767938D01*
X123876228Y-136672700D01*
X124019086Y-136625081D01*
X124114324Y-136625081D01*
X124257181Y-136672700D01*
X124304800Y-136720319D01*
X124733371Y-137101271D02*
X125066705Y-137101271D01*
X125209562Y-137625081D02*
X124733371Y-137625081D01*
X124733371Y-136625081D01*
X125209562Y-136625081D01*
X125638133Y-137625081D02*
X125638133Y-136625081D01*
X126209562Y-137625081D01*
X126209562Y-136625081D01*
X126542895Y-136625081D02*
X127114324Y-136625081D01*
X126828609Y-137625081D02*
X126828609Y-136625081D01*
X127447657Y-137101271D02*
X127780991Y-137101271D01*
X127923848Y-137625081D02*
X127447657Y-137625081D01*
X127447657Y-136625081D01*
X127923848Y-136625081D01*
X128923848Y-137625081D02*
X128590514Y-137148890D01*
X128352419Y-137625081D02*
X128352419Y-136625081D01*
X128733372Y-136625081D01*
X128828610Y-136672700D01*
X128876229Y-136720319D01*
X128923848Y-136815557D01*
X128923848Y-136958414D01*
X128876229Y-137053652D01*
X128828610Y-137101271D01*
X128733372Y-137148890D01*
X128352419Y-137148890D01*
X130114324Y-137244129D02*
X130876229Y-137244129D01*
X130495277Y-137625081D02*
X130495277Y-136863176D01*
X62034183Y-132640343D02*
X61986564Y-132687962D01*
X61843707Y-132735581D01*
X61748469Y-132735581D01*
X61605611Y-132687962D01*
X61510373Y-132592724D01*
X61462754Y-132497486D01*
X61415135Y-132307010D01*
X61415135Y-132164152D01*
X61462754Y-131973676D01*
X61510373Y-131878438D01*
X61605611Y-131783200D01*
X61748469Y-131735581D01*
X61843707Y-131735581D01*
X61986564Y-131783200D01*
X62034183Y-131830819D01*
X62415135Y-132687962D02*
X62557992Y-132735581D01*
X62796088Y-132735581D01*
X62891326Y-132687962D01*
X62938945Y-132640343D01*
X62986564Y-132545105D01*
X62986564Y-132449867D01*
X62938945Y-132354629D01*
X62891326Y-132307010D01*
X62796088Y-132259390D01*
X62605611Y-132211771D01*
X62510373Y-132164152D01*
X62462754Y-132116533D01*
X62415135Y-132021295D01*
X62415135Y-131926057D01*
X62462754Y-131830819D01*
X62510373Y-131783200D01*
X62605611Y-131735581D01*
X62843707Y-131735581D01*
X62986564Y-131783200D01*
X63319897Y-131735581D02*
X63938945Y-131735581D01*
X63605611Y-132116533D01*
X63748469Y-132116533D01*
X63843707Y-132164152D01*
X63891326Y-132211771D01*
X63938945Y-132307010D01*
X63938945Y-132545105D01*
X63891326Y-132640343D01*
X63843707Y-132687962D01*
X63748469Y-132735581D01*
X63462754Y-132735581D01*
X63367516Y-132687962D01*
X63319897Y-132640343D01*
X62186583Y-130049543D02*
X62138964Y-130097162D01*
X61996107Y-130144781D01*
X61900869Y-130144781D01*
X61758011Y-130097162D01*
X61662773Y-130001924D01*
X61615154Y-129906686D01*
X61567535Y-129716210D01*
X61567535Y-129573352D01*
X61615154Y-129382876D01*
X61662773Y-129287638D01*
X61758011Y-129192400D01*
X61900869Y-129144781D01*
X61996107Y-129144781D01*
X62138964Y-129192400D01*
X62186583Y-129240019D01*
X62567535Y-130097162D02*
X62710392Y-130144781D01*
X62948488Y-130144781D01*
X63043726Y-130097162D01*
X63091345Y-130049543D01*
X63138964Y-129954305D01*
X63138964Y-129859067D01*
X63091345Y-129763829D01*
X63043726Y-129716210D01*
X62948488Y-129668590D01*
X62758011Y-129620971D01*
X62662773Y-129573352D01*
X62615154Y-129525733D01*
X62567535Y-129430495D01*
X62567535Y-129335257D01*
X62615154Y-129240019D01*
X62662773Y-129192400D01*
X62758011Y-129144781D01*
X62996107Y-129144781D01*
X63138964Y-129192400D01*
X63519916Y-129240019D02*
X63567535Y-129192400D01*
X63662773Y-129144781D01*
X63900869Y-129144781D01*
X63996107Y-129192400D01*
X64043726Y-129240019D01*
X64091345Y-129335257D01*
X64091345Y-129430495D01*
X64043726Y-129573352D01*
X63472297Y-130144781D01*
X64091345Y-130144781D01*
X62145943Y-127534943D02*
X62098324Y-127582562D01*
X61955467Y-127630181D01*
X61860229Y-127630181D01*
X61717371Y-127582562D01*
X61622133Y-127487324D01*
X61574514Y-127392086D01*
X61526895Y-127201610D01*
X61526895Y-127058752D01*
X61574514Y-126868276D01*
X61622133Y-126773038D01*
X61717371Y-126677800D01*
X61860229Y-126630181D01*
X61955467Y-126630181D01*
X62098324Y-126677800D01*
X62145943Y-126725419D01*
X62526895Y-127582562D02*
X62669752Y-127630181D01*
X62907848Y-127630181D01*
X63003086Y-127582562D01*
X63050705Y-127534943D01*
X63098324Y-127439705D01*
X63098324Y-127344467D01*
X63050705Y-127249229D01*
X63003086Y-127201610D01*
X62907848Y-127153990D01*
X62717371Y-127106371D01*
X62622133Y-127058752D01*
X62574514Y-127011133D01*
X62526895Y-126915895D01*
X62526895Y-126820657D01*
X62574514Y-126725419D01*
X62622133Y-126677800D01*
X62717371Y-126630181D01*
X62955467Y-126630181D01*
X63098324Y-126677800D01*
X64050705Y-127630181D02*
X63479276Y-127630181D01*
X63764990Y-127630181D02*
X63764990Y-126630181D01*
X63669752Y-126773038D01*
X63574514Y-126868276D01*
X63479276Y-126915895D01*
X60648412Y-125191781D02*
X60648412Y-124191781D01*
X60981746Y-124906067D01*
X61315079Y-124191781D01*
X61315079Y-125191781D01*
X61981745Y-124191781D02*
X62172222Y-124191781D01*
X62267460Y-124239400D01*
X62362698Y-124334638D01*
X62410317Y-124525114D01*
X62410317Y-124858448D01*
X62362698Y-125048924D01*
X62267460Y-125144162D01*
X62172222Y-125191781D01*
X61981745Y-125191781D01*
X61886507Y-125144162D01*
X61791269Y-125048924D01*
X61743650Y-124858448D01*
X61743650Y-124525114D01*
X61791269Y-124334638D01*
X61886507Y-124239400D01*
X61981745Y-124191781D01*
X62791269Y-125144162D02*
X62934126Y-125191781D01*
X63172222Y-125191781D01*
X63267460Y-125144162D01*
X63315079Y-125096543D01*
X63362698Y-125001305D01*
X63362698Y-124906067D01*
X63315079Y-124810829D01*
X63267460Y-124763210D01*
X63172222Y-124715590D01*
X62981745Y-124667971D01*
X62886507Y-124620352D01*
X62838888Y-124572733D01*
X62791269Y-124477495D01*
X62791269Y-124382257D01*
X62838888Y-124287019D01*
X62886507Y-124239400D01*
X62981745Y-124191781D01*
X63219841Y-124191781D01*
X63362698Y-124239400D01*
X63791269Y-125191781D02*
X63791269Y-124191781D01*
X50447772Y-125179081D02*
X50447772Y-124179081D01*
X50781106Y-124893367D01*
X51114439Y-124179081D01*
X51114439Y-125179081D01*
X51590629Y-125179081D02*
X51590629Y-124179081D01*
X52019200Y-125131462D02*
X52162057Y-125179081D01*
X52400153Y-125179081D01*
X52495391Y-125131462D01*
X52543010Y-125083843D01*
X52590629Y-124988605D01*
X52590629Y-124893367D01*
X52543010Y-124798129D01*
X52495391Y-124750510D01*
X52400153Y-124702890D01*
X52209676Y-124655271D01*
X52114438Y-124607652D01*
X52066819Y-124560033D01*
X52019200Y-124464795D01*
X52019200Y-124369557D01*
X52066819Y-124274319D01*
X52114438Y-124226700D01*
X52209676Y-124179081D01*
X52447772Y-124179081D01*
X52590629Y-124226700D01*
X53209676Y-124179081D02*
X53400153Y-124179081D01*
X53495391Y-124226700D01*
X53590629Y-124321938D01*
X53638248Y-124512414D01*
X53638248Y-124845748D01*
X53590629Y-125036224D01*
X53495391Y-125131462D01*
X53400153Y-125179081D01*
X53209676Y-125179081D01*
X53114438Y-125131462D01*
X53019200Y-125036224D01*
X52971581Y-124845748D01*
X52971581Y-124512414D01*
X53019200Y-124321938D01*
X53114438Y-124226700D01*
X53209676Y-124179081D01*
X51628136Y-129268600D02*
X51532898Y-129220981D01*
X51390041Y-129220981D01*
X51247183Y-129268600D01*
X51151945Y-129363838D01*
X51104326Y-129459076D01*
X51056707Y-129649552D01*
X51056707Y-129792410D01*
X51104326Y-129982886D01*
X51151945Y-130078124D01*
X51247183Y-130173362D01*
X51390041Y-130220981D01*
X51485279Y-130220981D01*
X51628136Y-130173362D01*
X51675755Y-130125743D01*
X51675755Y-129792410D01*
X51485279Y-129792410D01*
X52104326Y-130220981D02*
X52104326Y-129220981D01*
X52675755Y-130220981D01*
X52675755Y-129220981D01*
X53151945Y-130220981D02*
X53151945Y-129220981D01*
X53390040Y-129220981D01*
X53532898Y-129268600D01*
X53628136Y-129363838D01*
X53675755Y-129459076D01*
X53723374Y-129649552D01*
X53723374Y-129792410D01*
X53675755Y-129982886D01*
X53628136Y-130078124D01*
X53532898Y-130173362D01*
X53390040Y-130220981D01*
X53151945Y-130220981D01*
X50977326Y-127658762D02*
X51120183Y-127706381D01*
X51358279Y-127706381D01*
X51453517Y-127658762D01*
X51501136Y-127611143D01*
X51548755Y-127515905D01*
X51548755Y-127420667D01*
X51501136Y-127325429D01*
X51453517Y-127277810D01*
X51358279Y-127230190D01*
X51167802Y-127182571D01*
X51072564Y-127134952D01*
X51024945Y-127087333D01*
X50977326Y-126992095D01*
X50977326Y-126896857D01*
X51024945Y-126801619D01*
X51072564Y-126754000D01*
X51167802Y-126706381D01*
X51405898Y-126706381D01*
X51548755Y-126754000D01*
X52548755Y-127611143D02*
X52501136Y-127658762D01*
X52358279Y-127706381D01*
X52263041Y-127706381D01*
X52120183Y-127658762D01*
X52024945Y-127563524D01*
X51977326Y-127468286D01*
X51929707Y-127277810D01*
X51929707Y-127134952D01*
X51977326Y-126944476D01*
X52024945Y-126849238D01*
X52120183Y-126754000D01*
X52263041Y-126706381D01*
X52358279Y-126706381D01*
X52501136Y-126754000D01*
X52548755Y-126801619D01*
X52977326Y-127706381D02*
X52977326Y-126706381D01*
X53548755Y-127706381D02*
X53120183Y-127134952D01*
X53548755Y-126706381D02*
X52977326Y-127277810D01*
X142395867Y-121461281D02*
X143062534Y-121461281D01*
X142633962Y-122461281D01*
X143586343Y-121889852D02*
X143491105Y-121842233D01*
X143443486Y-121794614D01*
X143395867Y-121699376D01*
X143395867Y-121651757D01*
X143443486Y-121556519D01*
X143491105Y-121508900D01*
X143586343Y-121461281D01*
X143776820Y-121461281D01*
X143872058Y-121508900D01*
X143919677Y-121556519D01*
X143967296Y-121651757D01*
X143967296Y-121699376D01*
X143919677Y-121794614D01*
X143872058Y-121842233D01*
X143776820Y-121889852D01*
X143586343Y-121889852D01*
X143491105Y-121937471D01*
X143443486Y-121985090D01*
X143395867Y-122080329D01*
X143395867Y-122270805D01*
X143443486Y-122366043D01*
X143491105Y-122413662D01*
X143586343Y-122461281D01*
X143776820Y-122461281D01*
X143872058Y-122413662D01*
X143919677Y-122366043D01*
X143967296Y-122270805D01*
X143967296Y-122080329D01*
X143919677Y-121985090D01*
X143872058Y-121937471D01*
X143776820Y-121889852D01*
X144395867Y-122461281D02*
X144395867Y-121461281D01*
X144729201Y-122175567D01*
X145062534Y-121461281D01*
X145062534Y-122461281D01*
X145729200Y-121461281D02*
X145824439Y-121461281D01*
X145919677Y-121508900D01*
X145967296Y-121556519D01*
X146014915Y-121651757D01*
X146062534Y-121842233D01*
X146062534Y-122080329D01*
X146014915Y-122270805D01*
X145967296Y-122366043D01*
X145919677Y-122413662D01*
X145824439Y-122461281D01*
X145729200Y-122461281D01*
X145633962Y-122413662D01*
X145586343Y-122366043D01*
X145538724Y-122270805D01*
X145491105Y-122080329D01*
X145491105Y-121842233D01*
X145538724Y-121651757D01*
X145586343Y-121556519D01*
X145633962Y-121508900D01*
X145729200Y-121461281D01*
X146967296Y-121461281D02*
X146491105Y-121461281D01*
X146443486Y-121937471D01*
X146491105Y-121889852D01*
X146586343Y-121842233D01*
X146824439Y-121842233D01*
X146919677Y-121889852D01*
X146967296Y-121937471D01*
X147014915Y-122032710D01*
X147014915Y-122270805D01*
X146967296Y-122366043D01*
X146919677Y-122413662D01*
X146824439Y-122461281D01*
X146586343Y-122461281D01*
X146491105Y-122413662D01*
X146443486Y-122366043D01*
X134818381Y-56498810D02*
X133818381Y-56498810D01*
X133818381Y-56117857D01*
X133866000Y-56022619D01*
X133913619Y-55975000D01*
X134008857Y-55927381D01*
X134151714Y-55927381D01*
X134246952Y-55975000D01*
X134294571Y-56022619D01*
X134342190Y-56117857D01*
X134342190Y-56498810D01*
X133818381Y-55308334D02*
X133818381Y-55117857D01*
X133866000Y-55022619D01*
X133961238Y-54927381D01*
X134151714Y-54879762D01*
X134485048Y-54879762D01*
X134675524Y-54927381D01*
X134770762Y-55022619D01*
X134818381Y-55117857D01*
X134818381Y-55308334D01*
X134770762Y-55403572D01*
X134675524Y-55498810D01*
X134485048Y-55546429D01*
X134151714Y-55546429D01*
X133961238Y-55498810D01*
X133866000Y-55403572D01*
X133818381Y-55308334D01*
X134818381Y-53879762D02*
X134342190Y-54213096D01*
X134818381Y-54451191D02*
X133818381Y-54451191D01*
X133818381Y-54070238D01*
X133866000Y-53975000D01*
X133913619Y-53927381D01*
X134008857Y-53879762D01*
X134151714Y-53879762D01*
X134246952Y-53927381D01*
X134294571Y-53975000D01*
X134342190Y-54070238D01*
X134342190Y-54451191D01*
X133818381Y-53594048D02*
X133818381Y-53022619D01*
X134818381Y-53308334D02*
X133818381Y-53308334D01*
X133913619Y-51975000D02*
X133866000Y-51927381D01*
X133818381Y-51832143D01*
X133818381Y-51594047D01*
X133866000Y-51498809D01*
X133913619Y-51451190D01*
X134008857Y-51403571D01*
X134104095Y-51403571D01*
X134246952Y-51451190D01*
X134818381Y-52022619D01*
X134818381Y-51403571D01*
X63190381Y-55863810D02*
X62190381Y-55863810D01*
X62190381Y-55482857D01*
X62238000Y-55387619D01*
X62285619Y-55340000D01*
X62380857Y-55292381D01*
X62523714Y-55292381D01*
X62618952Y-55340000D01*
X62666571Y-55387619D01*
X62714190Y-55482857D01*
X62714190Y-55863810D01*
X62190381Y-54673334D02*
X62190381Y-54482857D01*
X62238000Y-54387619D01*
X62333238Y-54292381D01*
X62523714Y-54244762D01*
X62857048Y-54244762D01*
X63047524Y-54292381D01*
X63142762Y-54387619D01*
X63190381Y-54482857D01*
X63190381Y-54673334D01*
X63142762Y-54768572D01*
X63047524Y-54863810D01*
X62857048Y-54911429D01*
X62523714Y-54911429D01*
X62333238Y-54863810D01*
X62238000Y-54768572D01*
X62190381Y-54673334D01*
X63190381Y-53244762D02*
X62714190Y-53578096D01*
X63190381Y-53816191D02*
X62190381Y-53816191D01*
X62190381Y-53435238D01*
X62238000Y-53340000D01*
X62285619Y-53292381D01*
X62380857Y-53244762D01*
X62523714Y-53244762D01*
X62618952Y-53292381D01*
X62666571Y-53340000D01*
X62714190Y-53435238D01*
X62714190Y-53816191D01*
X62190381Y-52959048D02*
X62190381Y-52387619D01*
X63190381Y-52673334D02*
X62190381Y-52673334D01*
X63190381Y-50768571D02*
X63190381Y-51340000D01*
X63190381Y-51054286D02*
X62190381Y-51054286D01*
X62333238Y-51149524D01*
X62428476Y-51244762D01*
X62476095Y-51340000D01*
X102195334Y-107132381D02*
X101862000Y-106656190D01*
X101623905Y-107132381D02*
X101623905Y-106132381D01*
X102004858Y-106132381D01*
X102100096Y-106180000D01*
X102147715Y-106227619D01*
X102195334Y-106322857D01*
X102195334Y-106465714D01*
X102147715Y-106560952D01*
X102100096Y-106608571D01*
X102004858Y-106656190D01*
X101623905Y-106656190D01*
X102528667Y-106132381D02*
X103195334Y-107132381D01*
X103195334Y-106132381D02*
X102528667Y-107132381D01*
X103632095Y-106132381D02*
X104203524Y-106132381D01*
X103917809Y-107132381D02*
X103917809Y-106132381D01*
X104441619Y-106132381D02*
X105108286Y-107132381D01*
X105108286Y-106132381D02*
X104441619Y-107132381D01*
X98028286Y-106751429D02*
X98790191Y-106751429D01*
X98409239Y-107132381D02*
X98409239Y-106370476D01*
X99742572Y-106132381D02*
X99266381Y-106132381D01*
X99218762Y-106608571D01*
X99266381Y-106560952D01*
X99361619Y-106513333D01*
X99599715Y-106513333D01*
X99694953Y-106560952D01*
X99742572Y-106608571D01*
X99790191Y-106703810D01*
X99790191Y-106941905D01*
X99742572Y-107037143D01*
X99694953Y-107084762D01*
X99599715Y-107132381D01*
X99361619Y-107132381D01*
X99266381Y-107084762D01*
X99218762Y-107037143D01*
X100075905Y-106132381D02*
X100409238Y-107132381D01*
X100742572Y-106132381D01*
X106426096Y-106180000D02*
X106330858Y-106132381D01*
X106188001Y-106132381D01*
X106045143Y-106180000D01*
X105949905Y-106275238D01*
X105902286Y-106370476D01*
X105854667Y-106560952D01*
X105854667Y-106703810D01*
X105902286Y-106894286D01*
X105949905Y-106989524D01*
X106045143Y-107084762D01*
X106188001Y-107132381D01*
X106283239Y-107132381D01*
X106426096Y-107084762D01*
X106473715Y-107037143D01*
X106473715Y-106703810D01*
X106283239Y-106703810D01*
X106902286Y-107132381D02*
X106902286Y-106132381D01*
X107473715Y-107132381D01*
X107473715Y-106132381D01*
X107949905Y-107132381D02*
X107949905Y-106132381D01*
X108188000Y-106132381D01*
X108330858Y-106180000D01*
X108426096Y-106275238D01*
X108473715Y-106370476D01*
X108521334Y-106560952D01*
X108521334Y-106703810D01*
X108473715Y-106894286D01*
X108426096Y-106989524D01*
X108330858Y-107084762D01*
X108188000Y-107132381D01*
X107949905Y-107132381D01*
X67341715Y-94686381D02*
X66770286Y-94686381D01*
X67056000Y-94686381D02*
X67056000Y-93686381D01*
X66960762Y-93829238D01*
X66865524Y-93924476D01*
X66770286Y-93972095D01*
X65754762Y-93057143D02*
X65802381Y-92914286D01*
X65802381Y-92676190D01*
X65754762Y-92580952D01*
X65707143Y-92533333D01*
X65611905Y-92485714D01*
X65516667Y-92485714D01*
X65421429Y-92533333D01*
X65373810Y-92580952D01*
X65326190Y-92676190D01*
X65278571Y-92866667D01*
X65230952Y-92961905D01*
X65183333Y-93009524D01*
X65088095Y-93057143D01*
X64992857Y-93057143D01*
X64897619Y-93009524D01*
X64850000Y-92961905D01*
X64802381Y-92866667D01*
X64802381Y-92628571D01*
X64850000Y-92485714D01*
X65802381Y-92057143D02*
X64802381Y-92057143D01*
X64802381Y-91104762D02*
X64802381Y-91580953D01*
X65278571Y-91628572D01*
X65230952Y-91580953D01*
X65183333Y-91485715D01*
X65183333Y-91247619D01*
X65230952Y-91152381D01*
X65278571Y-91104762D01*
X65373810Y-91057143D01*
X65611905Y-91057143D01*
X65707143Y-91104762D01*
X65754762Y-91152381D01*
X65802381Y-91247619D01*
X65802381Y-91485715D01*
X65754762Y-91580953D01*
X65707143Y-91628572D01*
X64802381Y-90723810D02*
X64802381Y-90104762D01*
X65183333Y-90438096D01*
X65183333Y-90295238D01*
X65230952Y-90200000D01*
X65278571Y-90152381D01*
X65373810Y-90104762D01*
X65611905Y-90104762D01*
X65707143Y-90152381D01*
X65754762Y-90200000D01*
X65802381Y-90295238D01*
X65802381Y-90580953D01*
X65754762Y-90676191D01*
X65707143Y-90723810D01*
X64802381Y-89200000D02*
X64802381Y-89676191D01*
X65278571Y-89723810D01*
X65230952Y-89676191D01*
X65183333Y-89580953D01*
X65183333Y-89342857D01*
X65230952Y-89247619D01*
X65278571Y-89200000D01*
X65373810Y-89152381D01*
X65611905Y-89152381D01*
X65707143Y-89200000D01*
X65754762Y-89247619D01*
X65802381Y-89342857D01*
X65802381Y-89580953D01*
X65754762Y-89676191D01*
X65707143Y-89723810D01*
X65802381Y-88200000D02*
X65802381Y-88771429D01*
X65802381Y-88485715D02*
X64802381Y-88485715D01*
X64945238Y-88580953D01*
X65040476Y-88676191D01*
X65088095Y-88771429D01*
X65516667Y-87819048D02*
X65516667Y-87342857D01*
X65802381Y-87914286D02*
X64802381Y-87580953D01*
X65802381Y-87247619D01*
X114834448Y-110879811D02*
X114977305Y-110927430D01*
X115024924Y-110975050D01*
X115072543Y-111070288D01*
X115072543Y-111213145D01*
X115024924Y-111308383D01*
X114977305Y-111356002D01*
X114882067Y-111403621D01*
X114501114Y-111403621D01*
X114501114Y-110403621D01*
X114834448Y-110403621D01*
X114929686Y-110451240D01*
X114977305Y-110498859D01*
X115024924Y-110594097D01*
X115024924Y-110689335D01*
X114977305Y-110784573D01*
X114929686Y-110832192D01*
X114834448Y-110879811D01*
X114501114Y-110879811D01*
X115453495Y-111117907D02*
X115929686Y-111117907D01*
X115358257Y-111403621D02*
X115691590Y-110403621D01*
X116024924Y-111403621D01*
X116310638Y-111356002D02*
X116453495Y-111403621D01*
X116691591Y-111403621D01*
X116786829Y-111356002D01*
X116834448Y-111308383D01*
X116882067Y-111213145D01*
X116882067Y-111117907D01*
X116834448Y-111022669D01*
X116786829Y-110975050D01*
X116691591Y-110927430D01*
X116501114Y-110879811D01*
X116405876Y-110832192D01*
X116358257Y-110784573D01*
X116310638Y-110689335D01*
X116310638Y-110594097D01*
X116358257Y-110498859D01*
X116405876Y-110451240D01*
X116501114Y-110403621D01*
X116739210Y-110403621D01*
X116882067Y-110451240D01*
X117310638Y-111403621D02*
X117310638Y-110403621D01*
X118358257Y-111308383D02*
X118310638Y-111356002D01*
X118167781Y-111403621D01*
X118072543Y-111403621D01*
X117929685Y-111356002D01*
X117834447Y-111260764D01*
X117786828Y-111165526D01*
X117739209Y-110975050D01*
X117739209Y-110832192D01*
X117786828Y-110641716D01*
X117834447Y-110546478D01*
X117929685Y-110451240D01*
X118072543Y-110403621D01*
X118167781Y-110403621D01*
X118310638Y-110451240D01*
X118358257Y-110498859D01*
X119405876Y-110403621D02*
X119739209Y-111403621D01*
X120072543Y-110403621D01*
X120405876Y-111403621D02*
X120405876Y-110403621D01*
X120977305Y-111403621D01*
X120977305Y-110403621D01*
X121405876Y-111117907D02*
X121882067Y-111117907D01*
X121310638Y-111403621D02*
X121643971Y-110403621D01*
X121977305Y-111403621D01*
X123405877Y-110879811D02*
X123548734Y-110927430D01*
X123596353Y-110975050D01*
X123643972Y-111070288D01*
X123643972Y-111213145D01*
X123596353Y-111308383D01*
X123548734Y-111356002D01*
X123453496Y-111403621D01*
X123072543Y-111403621D01*
X123072543Y-110403621D01*
X123405877Y-110403621D01*
X123501115Y-110451240D01*
X123548734Y-110498859D01*
X123596353Y-110594097D01*
X123596353Y-110689335D01*
X123548734Y-110784573D01*
X123501115Y-110832192D01*
X123405877Y-110879811D01*
X123072543Y-110879811D01*
X124263019Y-110927430D02*
X124263019Y-111403621D01*
X123929686Y-110403621D02*
X124263019Y-110927430D01*
X124596353Y-110403621D01*
X125691591Y-111403621D02*
X125691591Y-110403621D01*
X125929686Y-110403621D01*
X126072544Y-110451240D01*
X126167782Y-110546478D01*
X126215401Y-110641716D01*
X126263020Y-110832192D01*
X126263020Y-110975050D01*
X126215401Y-111165526D01*
X126167782Y-111260764D01*
X126072544Y-111356002D01*
X125929686Y-111403621D01*
X125691591Y-111403621D01*
X127453496Y-111403621D02*
X127453496Y-110403621D01*
X127786830Y-111117907D01*
X128120163Y-110403621D01*
X128120163Y-111403621D01*
X128548734Y-111117907D02*
X129024925Y-111117907D01*
X128453496Y-111403621D02*
X128786829Y-110403621D01*
X129120163Y-111403621D01*
X130024925Y-111403621D02*
X129691591Y-110927430D01*
X129453496Y-111403621D02*
X129453496Y-110403621D01*
X129834449Y-110403621D01*
X129929687Y-110451240D01*
X129977306Y-110498859D01*
X130024925Y-110594097D01*
X130024925Y-110736954D01*
X129977306Y-110832192D01*
X129929687Y-110879811D01*
X129834449Y-110927430D01*
X129453496Y-110927430D01*
X130453496Y-111403621D02*
X130453496Y-110403621D01*
X131024925Y-111403621D02*
X130596353Y-110832192D01*
X131024925Y-110403621D02*
X130453496Y-110975050D01*
X131405877Y-111356002D02*
X131548734Y-111403621D01*
X131786830Y-111403621D01*
X131882068Y-111356002D01*
X131929687Y-111308383D01*
X131977306Y-111213145D01*
X131977306Y-111117907D01*
X131929687Y-111022669D01*
X131882068Y-110975050D01*
X131786830Y-110927430D01*
X131596353Y-110879811D01*
X131501115Y-110832192D01*
X131453496Y-110784573D01*
X131405877Y-110689335D01*
X131405877Y-110594097D01*
X131453496Y-110498859D01*
X131501115Y-110451240D01*
X131596353Y-110403621D01*
X131834449Y-110403621D01*
X131977306Y-110451240D01*
X114239210Y-113053621D02*
X114239210Y-112053621D01*
X114810639Y-113053621D02*
X114382067Y-112482192D01*
X114810639Y-112053621D02*
X114239210Y-112625050D01*
X115143972Y-112053621D02*
X115382067Y-113053621D01*
X115572544Y-112339335D01*
X115763020Y-113053621D01*
X116001115Y-112053621D01*
X116810639Y-112386954D02*
X116810639Y-113053621D01*
X116572543Y-112006002D02*
X116334448Y-112720288D01*
X116953496Y-112720288D01*
X117191591Y-112053621D02*
X117763020Y-112053621D01*
X117477305Y-113053621D02*
X117477305Y-112053621D01*
X118096353Y-113053621D02*
X118096353Y-112053621D01*
X118620162Y-113006002D02*
X118620162Y-113053621D01*
X118572543Y-113148859D01*
X118524924Y-113196478D01*
X120286829Y-113053621D02*
X119810638Y-113053621D01*
X119810638Y-112053621D01*
X120620162Y-113053621D02*
X120620162Y-112053621D01*
X121667781Y-112958383D02*
X121620162Y-113006002D01*
X121477305Y-113053621D01*
X121382067Y-113053621D01*
X121239209Y-113006002D01*
X121143971Y-112910764D01*
X121096352Y-112815526D01*
X121048733Y-112625050D01*
X121048733Y-112482192D01*
X121096352Y-112291716D01*
X121143971Y-112196478D01*
X121239209Y-112101240D01*
X121382067Y-112053621D01*
X121477305Y-112053621D01*
X121620162Y-112101240D01*
X121667781Y-112148859D01*
X122096352Y-112529811D02*
X122429686Y-112529811D01*
X122572543Y-113053621D02*
X122096352Y-113053621D01*
X122096352Y-112053621D01*
X122572543Y-112053621D01*
X123001114Y-113053621D02*
X123001114Y-112053621D01*
X123572543Y-113053621D01*
X123572543Y-112053621D01*
X124001114Y-113006002D02*
X124143971Y-113053621D01*
X124382067Y-113053621D01*
X124477305Y-113006002D01*
X124524924Y-112958383D01*
X124572543Y-112863145D01*
X124572543Y-112767907D01*
X124524924Y-112672669D01*
X124477305Y-112625050D01*
X124382067Y-112577430D01*
X124191590Y-112529811D01*
X124096352Y-112482192D01*
X124048733Y-112434573D01*
X124001114Y-112339335D01*
X124001114Y-112244097D01*
X124048733Y-112148859D01*
X124096352Y-112101240D01*
X124191590Y-112053621D01*
X124429686Y-112053621D01*
X124572543Y-112101240D01*
X125001114Y-112529811D02*
X125334448Y-112529811D01*
X125477305Y-113053621D02*
X125001114Y-113053621D01*
X125001114Y-112053621D01*
X125477305Y-112053621D01*
X125905876Y-113053621D02*
X125905876Y-112053621D01*
X126143971Y-112053621D01*
X126286829Y-112101240D01*
X126382067Y-112196478D01*
X126429686Y-112291716D01*
X126477305Y-112482192D01*
X126477305Y-112625050D01*
X126429686Y-112815526D01*
X126382067Y-112910764D01*
X126286829Y-113006002D01*
X126143971Y-113053621D01*
X125905876Y-113053621D01*
X127667781Y-112053621D02*
X127667781Y-112863145D01*
X127715400Y-112958383D01*
X127763019Y-113006002D01*
X127858257Y-113053621D01*
X128048734Y-113053621D01*
X128143972Y-113006002D01*
X128191591Y-112958383D01*
X128239210Y-112863145D01*
X128239210Y-112053621D01*
X128715400Y-113053621D02*
X128715400Y-112053621D01*
X129286829Y-113053621D01*
X129286829Y-112053621D01*
X129763019Y-113053621D02*
X129763019Y-112053621D01*
X130001114Y-112053621D01*
X130143972Y-112101240D01*
X130239210Y-112196478D01*
X130286829Y-112291716D01*
X130334448Y-112482192D01*
X130334448Y-112625050D01*
X130286829Y-112815526D01*
X130239210Y-112910764D01*
X130143972Y-113006002D01*
X130001114Y-113053621D01*
X129763019Y-113053621D01*
X130763019Y-112529811D02*
X131096353Y-112529811D01*
X131239210Y-113053621D02*
X130763019Y-113053621D01*
X130763019Y-112053621D01*
X131239210Y-112053621D01*
X132239210Y-113053621D02*
X131905876Y-112577430D01*
X131667781Y-113053621D02*
X131667781Y-112053621D01*
X132048734Y-112053621D01*
X132143972Y-112101240D01*
X132191591Y-112148859D01*
X132239210Y-112244097D01*
X132239210Y-112386954D01*
X132191591Y-112482192D01*
X132143972Y-112529811D01*
X132048734Y-112577430D01*
X131667781Y-112577430D01*
X116572543Y-114608383D02*
X116524924Y-114656002D01*
X116382067Y-114703621D01*
X116286829Y-114703621D01*
X116143971Y-114656002D01*
X116048733Y-114560764D01*
X116001114Y-114465526D01*
X115953495Y-114275050D01*
X115953495Y-114132192D01*
X116001114Y-113941716D01*
X116048733Y-113846478D01*
X116143971Y-113751240D01*
X116286829Y-113703621D01*
X116382067Y-113703621D01*
X116524924Y-113751240D01*
X116572543Y-113798859D01*
X117572543Y-114703621D02*
X117239209Y-114227430D01*
X117001114Y-114703621D02*
X117001114Y-113703621D01*
X117382067Y-113703621D01*
X117477305Y-113751240D01*
X117524924Y-113798859D01*
X117572543Y-113894097D01*
X117572543Y-114036954D01*
X117524924Y-114132192D01*
X117477305Y-114179811D01*
X117382067Y-114227430D01*
X117001114Y-114227430D01*
X118001114Y-114179811D02*
X118334448Y-114179811D01*
X118477305Y-114703621D02*
X118001114Y-114703621D01*
X118001114Y-113703621D01*
X118477305Y-113703621D01*
X118858257Y-114417907D02*
X119334448Y-114417907D01*
X118763019Y-114703621D02*
X119096352Y-113703621D01*
X119429686Y-114703621D01*
X119620162Y-113703621D02*
X120191591Y-113703621D01*
X119905876Y-114703621D02*
X119905876Y-113703621D01*
X120524924Y-114703621D02*
X120524924Y-113703621D01*
X120858257Y-113703621D02*
X121191590Y-114703621D01*
X121524924Y-113703621D01*
X121858257Y-114179811D02*
X122191591Y-114179811D01*
X122334448Y-114703621D02*
X121858257Y-114703621D01*
X121858257Y-113703621D01*
X122334448Y-113703621D01*
X124096353Y-114608383D02*
X124048734Y-114656002D01*
X123905877Y-114703621D01*
X123810639Y-114703621D01*
X123667781Y-114656002D01*
X123572543Y-114560764D01*
X123524924Y-114465526D01*
X123477305Y-114275050D01*
X123477305Y-114132192D01*
X123524924Y-113941716D01*
X123572543Y-113846478D01*
X123667781Y-113751240D01*
X123810639Y-113703621D01*
X123905877Y-113703621D01*
X124048734Y-113751240D01*
X124096353Y-113798859D01*
X124715400Y-113703621D02*
X124905877Y-113703621D01*
X125001115Y-113751240D01*
X125096353Y-113846478D01*
X125143972Y-114036954D01*
X125143972Y-114370288D01*
X125096353Y-114560764D01*
X125001115Y-114656002D01*
X124905877Y-114703621D01*
X124715400Y-114703621D01*
X124620162Y-114656002D01*
X124524924Y-114560764D01*
X124477305Y-114370288D01*
X124477305Y-114036954D01*
X124524924Y-113846478D01*
X124620162Y-113751240D01*
X124715400Y-113703621D01*
X125572543Y-114703621D02*
X125572543Y-113703621D01*
X125905877Y-114417907D01*
X126239210Y-113703621D01*
X126239210Y-114703621D01*
X126715400Y-114703621D02*
X126715400Y-113703621D01*
X127048734Y-114417907D01*
X127382067Y-113703621D01*
X127382067Y-114703621D01*
X128048733Y-113703621D02*
X128239210Y-113703621D01*
X128334448Y-113751240D01*
X128429686Y-113846478D01*
X128477305Y-114036954D01*
X128477305Y-114370288D01*
X128429686Y-114560764D01*
X128334448Y-114656002D01*
X128239210Y-114703621D01*
X128048733Y-114703621D01*
X127953495Y-114656002D01*
X127858257Y-114560764D01*
X127810638Y-114370288D01*
X127810638Y-114036954D01*
X127858257Y-113846478D01*
X127953495Y-113751240D01*
X128048733Y-113703621D01*
X128905876Y-114703621D02*
X128905876Y-113703621D01*
X129477305Y-114703621D01*
X129477305Y-113703621D01*
X129905876Y-114656002D02*
X130048733Y-114703621D01*
X130286829Y-114703621D01*
X130382067Y-114656002D01*
X130429686Y-114608383D01*
X130477305Y-114513145D01*
X130477305Y-114417907D01*
X130429686Y-114322669D01*
X130382067Y-114275050D01*
X130286829Y-114227430D01*
X130096352Y-114179811D01*
X130001114Y-114132192D01*
X129953495Y-114084573D01*
X129905876Y-113989335D01*
X129905876Y-113894097D01*
X129953495Y-113798859D01*
X130001114Y-113751240D01*
X130096352Y-113703621D01*
X130334448Y-113703621D01*
X130477305Y-113751240D01*
X118382067Y-116258383D02*
X118334448Y-116306002D01*
X118191591Y-116353621D01*
X118096353Y-116353621D01*
X117953495Y-116306002D01*
X117858257Y-116210764D01*
X117810638Y-116115526D01*
X117763019Y-115925050D01*
X117763019Y-115782192D01*
X117810638Y-115591716D01*
X117858257Y-115496478D01*
X117953495Y-115401240D01*
X118096353Y-115353621D01*
X118191591Y-115353621D01*
X118334448Y-115401240D01*
X118382067Y-115448859D01*
X119382067Y-116258383D02*
X119334448Y-116306002D01*
X119191591Y-116353621D01*
X119096353Y-116353621D01*
X118953495Y-116306002D01*
X118858257Y-116210764D01*
X118810638Y-116115526D01*
X118763019Y-115925050D01*
X118763019Y-115782192D01*
X118810638Y-115591716D01*
X118858257Y-115496478D01*
X118953495Y-115401240D01*
X119096353Y-115353621D01*
X119191591Y-115353621D01*
X119334448Y-115401240D01*
X119382067Y-115448859D01*
X119810638Y-115972669D02*
X120572543Y-115972669D01*
X121382067Y-115829811D02*
X121524924Y-115877430D01*
X121572543Y-115925050D01*
X121620162Y-116020288D01*
X121620162Y-116163145D01*
X121572543Y-116258383D01*
X121524924Y-116306002D01*
X121429686Y-116353621D01*
X121048733Y-116353621D01*
X121048733Y-115353621D01*
X121382067Y-115353621D01*
X121477305Y-115401240D01*
X121524924Y-115448859D01*
X121572543Y-115544097D01*
X121572543Y-115639335D01*
X121524924Y-115734573D01*
X121477305Y-115782192D01*
X121382067Y-115829811D01*
X121048733Y-115829811D01*
X122239209Y-115877430D02*
X122239209Y-116353621D01*
X121905876Y-115353621D02*
X122239209Y-115877430D01*
X122572543Y-115353621D01*
X122905876Y-115972669D02*
X123667781Y-115972669D01*
X124096352Y-116306002D02*
X124239209Y-116353621D01*
X124477305Y-116353621D01*
X124572543Y-116306002D01*
X124620162Y-116258383D01*
X124667781Y-116163145D01*
X124667781Y-116067907D01*
X124620162Y-115972669D01*
X124572543Y-115925050D01*
X124477305Y-115877430D01*
X124286828Y-115829811D01*
X124191590Y-115782192D01*
X124143971Y-115734573D01*
X124096352Y-115639335D01*
X124096352Y-115544097D01*
X124143971Y-115448859D01*
X124191590Y-115401240D01*
X124286828Y-115353621D01*
X124524924Y-115353621D01*
X124667781Y-115401240D01*
X125048733Y-116067907D02*
X125524924Y-116067907D01*
X124953495Y-116353621D02*
X125286828Y-115353621D01*
X125620162Y-116353621D01*
X127143972Y-115686954D02*
X127143972Y-116353621D01*
X126905876Y-115306002D02*
X126667781Y-116020288D01*
X127286829Y-116020288D01*
X127667781Y-116258383D02*
X127715400Y-116306002D01*
X127667781Y-116353621D01*
X127620162Y-116306002D01*
X127667781Y-116258383D01*
X127667781Y-116353621D01*
X128334447Y-115353621D02*
X128429686Y-115353621D01*
X128524924Y-115401240D01*
X128572543Y-115448859D01*
X128620162Y-115544097D01*
X128667781Y-115734573D01*
X128667781Y-115972669D01*
X128620162Y-116163145D01*
X128572543Y-116258383D01*
X128524924Y-116306002D01*
X128429686Y-116353621D01*
X128334447Y-116353621D01*
X128239209Y-116306002D01*
X128191590Y-116258383D01*
X128143971Y-116163145D01*
X128096352Y-115972669D01*
X128096352Y-115734573D01*
X128143971Y-115544097D01*
X128191590Y-115448859D01*
X128239209Y-115401240D01*
X128334447Y-115353621D01*
X148712229Y-128419124D02*
X148712229Y-127657219D01*
X149093181Y-128038171D02*
X148331276Y-128038171D01*
X148093181Y-127323886D02*
X149093181Y-126990553D01*
X148093181Y-126657219D01*
X148445600Y-142239904D02*
X148397981Y-142335142D01*
X148397981Y-142477999D01*
X148445600Y-142620857D01*
X148540838Y-142716095D01*
X148636076Y-142763714D01*
X148826552Y-142811333D01*
X148969410Y-142811333D01*
X149159886Y-142763714D01*
X149255124Y-142716095D01*
X149350362Y-142620857D01*
X149397981Y-142477999D01*
X149397981Y-142382761D01*
X149350362Y-142239904D01*
X149302743Y-142192285D01*
X148969410Y-142192285D01*
X148969410Y-142382761D01*
X149397981Y-141763714D02*
X148397981Y-141763714D01*
X149397981Y-141192285D01*
X148397981Y-141192285D01*
X149397981Y-140716095D02*
X148397981Y-140716095D01*
X148397981Y-140478000D01*
X148445600Y-140335142D01*
X148540838Y-140239904D01*
X148636076Y-140192285D01*
X148826552Y-140144666D01*
X148969410Y-140144666D01*
X149159886Y-140192285D01*
X149255124Y-140239904D01*
X149350362Y-140335142D01*
X149397981Y-140478000D01*
X149397981Y-140716095D01*
X115649001Y-84141416D02*
X115649001Y-84617607D01*
X114649001Y-84617607D01*
X115649001Y-83808083D02*
X114649001Y-83808083D01*
X115363287Y-83474749D01*
X114649001Y-83141416D01*
X115649001Y-83141416D01*
X114649001Y-82760464D02*
X114649001Y-82141416D01*
X115029953Y-82474750D01*
X115029953Y-82331892D01*
X115077572Y-82236654D01*
X115125191Y-82189035D01*
X115220430Y-82141416D01*
X115458525Y-82141416D01*
X115553763Y-82189035D01*
X115601382Y-82236654D01*
X115649001Y-82331892D01*
X115649001Y-82617607D01*
X115601382Y-82712845D01*
X115553763Y-82760464D01*
X114649001Y-81808083D02*
X114649001Y-81189035D01*
X115029953Y-81522369D01*
X115029953Y-81379511D01*
X115077572Y-81284273D01*
X115125191Y-81236654D01*
X115220430Y-81189035D01*
X115458525Y-81189035D01*
X115553763Y-81236654D01*
X115601382Y-81284273D01*
X115649001Y-81379511D01*
X115649001Y-81665226D01*
X115601382Y-81760464D01*
X115553763Y-81808083D01*
X115649001Y-80712845D02*
X115649001Y-80522369D01*
X115601382Y-80427130D01*
X115553763Y-80379511D01*
X115410906Y-80284273D01*
X115220430Y-80236654D01*
X114839477Y-80236654D01*
X114744239Y-80284273D01*
X114696620Y-80331892D01*
X114649001Y-80427130D01*
X114649001Y-80617607D01*
X114696620Y-80712845D01*
X114744239Y-80760464D01*
X114839477Y-80808083D01*
X115077572Y-80808083D01*
X115172810Y-80760464D01*
X115220430Y-80712845D01*
X115268049Y-80617607D01*
X115268049Y-80427130D01*
X115220430Y-80331892D01*
X115172810Y-80284273D01*
X115077572Y-80236654D01*
X90425164Y-68803781D02*
X89948973Y-68803781D01*
X89948973Y-67803781D01*
X90758497Y-68803781D02*
X90758497Y-67803781D01*
X91091831Y-68518067D01*
X91425164Y-67803781D01*
X91425164Y-68803781D01*
X91806116Y-67803781D02*
X92425164Y-67803781D01*
X92091830Y-68184733D01*
X92234688Y-68184733D01*
X92329926Y-68232352D01*
X92377545Y-68279971D01*
X92425164Y-68375210D01*
X92425164Y-68613305D01*
X92377545Y-68708543D01*
X92329926Y-68756162D01*
X92234688Y-68803781D01*
X91948973Y-68803781D01*
X91853735Y-68756162D01*
X91806116Y-68708543D01*
X93329926Y-67803781D02*
X92853735Y-67803781D01*
X92806116Y-68279971D01*
X92853735Y-68232352D01*
X92948973Y-68184733D01*
X93187069Y-68184733D01*
X93282307Y-68232352D01*
X93329926Y-68279971D01*
X93377545Y-68375210D01*
X93377545Y-68613305D01*
X93329926Y-68708543D01*
X93282307Y-68756162D01*
X93187069Y-68803781D01*
X92948973Y-68803781D01*
X92853735Y-68756162D01*
X92806116Y-68708543D01*
X93948973Y-68232352D02*
X93853735Y-68184733D01*
X93806116Y-68137114D01*
X93758497Y-68041876D01*
X93758497Y-67994257D01*
X93806116Y-67899019D01*
X93853735Y-67851400D01*
X93948973Y-67803781D01*
X94139450Y-67803781D01*
X94234688Y-67851400D01*
X94282307Y-67899019D01*
X94329926Y-67994257D01*
X94329926Y-68041876D01*
X94282307Y-68137114D01*
X94234688Y-68184733D01*
X94139450Y-68232352D01*
X93948973Y-68232352D01*
X93853735Y-68279971D01*
X93806116Y-68327590D01*
X93758497Y-68422829D01*
X93758497Y-68613305D01*
X93806116Y-68708543D01*
X93853735Y-68756162D01*
X93948973Y-68803781D01*
X94139450Y-68803781D01*
X94234688Y-68756162D01*
X94282307Y-68708543D01*
X94329926Y-68613305D01*
X94329926Y-68422829D01*
X94282307Y-68327590D01*
X94234688Y-68279971D01*
X94139450Y-68232352D01*
X71928623Y-83721842D02*
X72071480Y-83769461D01*
X72309576Y-83769461D01*
X72404814Y-83721842D01*
X72452433Y-83674223D01*
X72500052Y-83578985D01*
X72500052Y-83483747D01*
X72452433Y-83388509D01*
X72404814Y-83340890D01*
X72309576Y-83293270D01*
X72119099Y-83245651D01*
X72023861Y-83198032D01*
X71976242Y-83150413D01*
X71928623Y-83055175D01*
X71928623Y-82959937D01*
X71976242Y-82864699D01*
X72023861Y-82817080D01*
X72119099Y-82769461D01*
X72357195Y-82769461D01*
X72500052Y-82817080D01*
X72881004Y-83483747D02*
X73357195Y-83483747D01*
X72785766Y-83769461D02*
X73119099Y-82769461D01*
X73452433Y-83769461D01*
X74214338Y-82769461D02*
X74023861Y-82769461D01*
X73928623Y-82817080D01*
X73881004Y-82864699D01*
X73785766Y-83007556D01*
X73738147Y-83198032D01*
X73738147Y-83578985D01*
X73785766Y-83674223D01*
X73833385Y-83721842D01*
X73928623Y-83769461D01*
X74119100Y-83769461D01*
X74214338Y-83721842D01*
X74261957Y-83674223D01*
X74309576Y-83578985D01*
X74309576Y-83340890D01*
X74261957Y-83245651D01*
X74214338Y-83198032D01*
X74119100Y-83150413D01*
X73928623Y-83150413D01*
X73833385Y-83198032D01*
X73785766Y-83245651D01*
X73738147Y-83340890D01*
X75261957Y-83769461D02*
X74690528Y-83769461D01*
X74976242Y-83769461D02*
X74976242Y-82769461D01*
X74881004Y-82912318D01*
X74785766Y-83007556D01*
X74690528Y-83055175D01*
X75642909Y-82864699D02*
X75690528Y-82817080D01*
X75785766Y-82769461D01*
X76023862Y-82769461D01*
X76119100Y-82817080D01*
X76166719Y-82864699D01*
X76214338Y-82959937D01*
X76214338Y-83055175D01*
X76166719Y-83198032D01*
X75595290Y-83769461D01*
X76214338Y-83769461D01*
X128529983Y-69111762D02*
X128672840Y-69159381D01*
X128910936Y-69159381D01*
X129006174Y-69111762D01*
X129053793Y-69064143D01*
X129101412Y-68968905D01*
X129101412Y-68873667D01*
X129053793Y-68778429D01*
X129006174Y-68730810D01*
X128910936Y-68683190D01*
X128720459Y-68635571D01*
X128625221Y-68587952D01*
X128577602Y-68540333D01*
X128529983Y-68445095D01*
X128529983Y-68349857D01*
X128577602Y-68254619D01*
X128625221Y-68207000D01*
X128720459Y-68159381D01*
X128958555Y-68159381D01*
X129101412Y-68207000D01*
X129482364Y-68873667D02*
X129958555Y-68873667D01*
X129387126Y-69159381D02*
X129720459Y-68159381D01*
X130053793Y-69159381D01*
X130815698Y-68159381D02*
X130625221Y-68159381D01*
X130529983Y-68207000D01*
X130482364Y-68254619D01*
X130387126Y-68397476D01*
X130339507Y-68587952D01*
X130339507Y-68968905D01*
X130387126Y-69064143D01*
X130434745Y-69111762D01*
X130529983Y-69159381D01*
X130720460Y-69159381D01*
X130815698Y-69111762D01*
X130863317Y-69064143D01*
X130910936Y-68968905D01*
X130910936Y-68730810D01*
X130863317Y-68635571D01*
X130815698Y-68587952D01*
X130720460Y-68540333D01*
X130529983Y-68540333D01*
X130434745Y-68587952D01*
X130387126Y-68635571D01*
X130339507Y-68730810D01*
X131863317Y-69159381D02*
X131291888Y-69159381D01*
X131577602Y-69159381D02*
X131577602Y-68159381D01*
X131482364Y-68302238D01*
X131387126Y-68397476D01*
X131291888Y-68445095D01*
X132244269Y-68254619D02*
X132291888Y-68207000D01*
X132387126Y-68159381D01*
X132625222Y-68159381D01*
X132720460Y-68207000D01*
X132768079Y-68254619D01*
X132815698Y-68349857D01*
X132815698Y-68445095D01*
X132768079Y-68587952D01*
X132196650Y-69159381D01*
X132815698Y-69159381D01*
X93663402Y-58683257D02*
X93711021Y-58540400D01*
X93711021Y-58302304D01*
X93663402Y-58207066D01*
X93615783Y-58159447D01*
X93520545Y-58111828D01*
X93425307Y-58111828D01*
X93330069Y-58159447D01*
X93282450Y-58207066D01*
X93234830Y-58302304D01*
X93187211Y-58492781D01*
X93139592Y-58588019D01*
X93091973Y-58635638D01*
X92996735Y-58683257D01*
X92901497Y-58683257D01*
X92806259Y-58635638D01*
X92758640Y-58588019D01*
X92711021Y-58492781D01*
X92711021Y-58254685D01*
X92758640Y-58111828D01*
X93425307Y-57730876D02*
X93425307Y-57254685D01*
X93711021Y-57826114D02*
X92711021Y-57492781D01*
X93711021Y-57159447D01*
X92711021Y-56397542D02*
X92711021Y-56588019D01*
X92758640Y-56683257D01*
X92806259Y-56730876D01*
X92949116Y-56826114D01*
X93139592Y-56873733D01*
X93520545Y-56873733D01*
X93615783Y-56826114D01*
X93663402Y-56778495D01*
X93711021Y-56683257D01*
X93711021Y-56492780D01*
X93663402Y-56397542D01*
X93615783Y-56349923D01*
X93520545Y-56302304D01*
X93282450Y-56302304D01*
X93187211Y-56349923D01*
X93139592Y-56397542D01*
X93091973Y-56492780D01*
X93091973Y-56683257D01*
X93139592Y-56778495D01*
X93187211Y-56826114D01*
X93282450Y-56873733D01*
X93711021Y-55349923D02*
X93711021Y-55921352D01*
X93711021Y-55635638D02*
X92711021Y-55635638D01*
X92853878Y-55730876D01*
X92949116Y-55826114D01*
X92996735Y-55921352D01*
X92806259Y-54968971D02*
X92758640Y-54921352D01*
X92711021Y-54826114D01*
X92711021Y-54588018D01*
X92758640Y-54492780D01*
X92806259Y-54445161D01*
X92901497Y-54397542D01*
X92996735Y-54397542D01*
X93139592Y-54445161D01*
X93711021Y-55016590D01*
X93711021Y-54397542D01*
D12*
X66802000Y-142240000D02*
X66802000Y-119380000D01*
X66802000Y-119380000D02*
X120142000Y-119380000D01*
X120142000Y-119380000D02*
X120142000Y-142240000D01*
X120142000Y-142240000D02*
X66802000Y-142240000D01*
D13*
X74540000Y-64170000D02*
X74540000Y-65370000D01*
X72780000Y-65370000D02*
X72780000Y-64170000D01*
D11*
X133273240Y-66581200D02*
X133223240Y-66581200D01*
X133273240Y-70731200D02*
X133128240Y-70731200D01*
X128123240Y-70731200D02*
X128268240Y-70731200D01*
X128123240Y-66581200D02*
X128268240Y-66581200D01*
X133273240Y-66581200D02*
X133273240Y-70731200D01*
X128123240Y-66581200D02*
X128123240Y-70731200D01*
X133223240Y-66581200D02*
X133223240Y-65181200D01*
D13*
X70612000Y-73914000D02*
G75*
G03X70612000Y-73914000I-2286000J0D01*
G01*
X62484000Y-73914000D02*
G75*
G03X62484000Y-73914000I-2286000J0D01*
G01*
X57150000Y-68580000D02*
G75*
G03X57150000Y-68580000I-2286000J0D01*
G01*
X62484000Y-65532000D02*
G75*
G03X62484000Y-65532000I-2286000J0D01*
G01*
X70358000Y-65532000D02*
G75*
G03X70358000Y-65532000I-2286000J0D01*
G01*
X142091100Y-107654400D02*
X147291100Y-107654400D01*
X142091100Y-97434400D02*
X142091100Y-107654400D01*
X147291100Y-94834400D02*
X147291100Y-107654400D01*
X142091100Y-97434400D02*
X144691100Y-97434400D01*
X144691100Y-97434400D02*
X144691100Y-94834400D01*
X144691100Y-94834400D02*
X147291100Y-94834400D01*
X142091100Y-96164400D02*
X142091100Y-94834400D01*
X142091100Y-94834400D02*
X143421100Y-94834400D01*
X108518000Y-110550000D02*
X108518000Y-107890000D01*
X100838000Y-110550000D02*
X108518000Y-110550000D01*
X100838000Y-107890000D02*
X108518000Y-107890000D01*
X100838000Y-110550000D02*
X100838000Y-107890000D01*
X99568000Y-110550000D02*
X98238000Y-110550000D01*
X98238000Y-110550000D02*
X98238000Y-109220000D01*
D11*
X66375000Y-92075000D02*
X66600000Y-92075000D01*
X66375000Y-88725000D02*
X66675000Y-88725000D01*
X69725000Y-88725000D02*
X69425000Y-88725000D01*
X69725000Y-92075000D02*
X69425000Y-92075000D01*
X66375000Y-92075000D02*
X66375000Y-88725000D01*
X69725000Y-92075000D02*
X69725000Y-88725000D01*
X66600000Y-92075000D02*
X66600000Y-93300000D01*
D13*
X67133000Y-98059000D02*
X73383000Y-98059000D01*
X67133000Y-103109000D02*
X73383000Y-103109000D01*
X67133000Y-103109000D02*
G75*
G02X67133000Y-98059000I0J2525000D01*
G01*
X73383000Y-103109000D02*
G75*
G03X73383000Y-98059000I0J2525000D01*
G01*
X55286000Y-53000000D02*
G75*
G03X55286000Y-53000000I-2286000J0D01*
G01*
X149286000Y-53000000D02*
G75*
G03X149286000Y-53000000I-2286000J0D01*
G01*
X55286000Y-147000000D02*
G75*
G03X55286000Y-147000000I-2286000J0D01*
G01*
X149286000Y-147000000D02*
G75*
G03X149286000Y-147000000I-2286000J0D01*
G01*
X147929600Y-129387600D02*
X147929600Y-139547600D01*
X149199600Y-129387600D02*
X141579600Y-129387600D01*
X141579600Y-129387600D02*
X141579600Y-139547600D01*
X141579600Y-139547600D02*
X149199600Y-139547600D01*
X149199600Y-139547600D02*
X149199600Y-129387600D01*
X140890300Y-138629700D02*
X140890300Y-135969700D01*
X138290300Y-138629700D02*
X140890300Y-138629700D01*
X138290300Y-135969700D02*
X140890300Y-135969700D01*
X138290300Y-138629700D02*
X138290300Y-135969700D01*
X137020300Y-138629700D02*
X135690300Y-138629700D01*
X135690300Y-138629700D02*
X135690300Y-137299700D01*
X62286000Y-102000000D02*
G75*
G03X62286000Y-102000000I-2286000J0D01*
G01*
X62286000Y-146000000D02*
G75*
G03X62286000Y-146000000I-2286000J0D01*
G01*
X139286000Y-102000000D02*
G75*
G03X139286000Y-102000000I-2286000J0D01*
G01*
X139286000Y-146000000D02*
G75*
G03X139286000Y-146000000I-2286000J0D01*
G01*
X130888800Y-145474700D02*
X130888800Y-154274700D01*
X130888800Y-154274700D02*
X121688800Y-154274700D01*
X128188800Y-139574700D02*
X130888800Y-139574700D01*
X130888800Y-139574700D02*
X130888800Y-141474700D01*
X121688800Y-154274700D02*
X121688800Y-139574700D01*
X121688800Y-139574700D02*
X124288800Y-139574700D01*
X75632000Y-57210000D02*
X78292000Y-57210000D01*
X75632000Y-54610000D02*
X75632000Y-57210000D01*
X78292000Y-54610000D02*
X78292000Y-57210000D01*
X75632000Y-54610000D02*
X78292000Y-54610000D01*
X75632000Y-53340000D02*
X75632000Y-52010000D01*
X75632000Y-52010000D02*
X76962000Y-52010000D01*
X71568000Y-67758000D02*
X71568000Y-70418000D01*
X76708000Y-67758000D02*
X71568000Y-67758000D01*
X76708000Y-70418000D02*
X71568000Y-70418000D01*
X76708000Y-67758000D02*
X76708000Y-70418000D01*
X77978000Y-67758000D02*
X79308000Y-67758000D01*
X79308000Y-67758000D02*
X79308000Y-69088000D01*
X130209600Y-134654600D02*
X130209600Y-131994600D01*
X127609600Y-134654600D02*
X130209600Y-134654600D01*
X127609600Y-131994600D02*
X130209600Y-131994600D01*
X127609600Y-134654600D02*
X127609600Y-131994600D01*
X126339600Y-134654600D02*
X125009600Y-134654600D01*
X125009600Y-134654600D02*
X125009600Y-133324600D01*
X105411640Y-59834400D02*
X105411640Y-58834400D01*
X103711640Y-58834400D02*
X103711640Y-59834400D01*
X64508000Y-93384000D02*
X63508000Y-93384000D01*
X63508000Y-95084000D02*
X64508000Y-95084000D01*
X145295240Y-74816600D02*
X144295240Y-74816600D01*
X144295240Y-76516600D02*
X145295240Y-76516600D01*
X147287440Y-78513800D02*
X147287440Y-80063800D01*
X147287440Y-83843800D02*
X147287440Y-82293800D01*
X141947440Y-83083800D02*
X141947440Y-82293800D01*
X141947440Y-79273800D02*
X141947440Y-80063800D01*
X147287440Y-78513800D02*
X142707440Y-78513800D01*
X142707440Y-78513800D02*
X141947440Y-79273800D01*
X141947440Y-83083800D02*
X142707440Y-83843800D01*
X142707440Y-83843800D02*
X147287440Y-83843800D01*
X145650840Y-60186200D02*
X144650840Y-60186200D01*
X144650840Y-61886200D02*
X145650840Y-61886200D01*
X63412000Y-74938000D02*
X63412000Y-75938000D01*
X65112000Y-75938000D02*
X65112000Y-74938000D01*
X147160440Y-63705600D02*
X147160440Y-65255600D01*
X147160440Y-69035600D02*
X147160440Y-67485600D01*
X141820440Y-68275600D02*
X141820440Y-67485600D01*
X141820440Y-64465600D02*
X141820440Y-65255600D01*
X147160440Y-63705600D02*
X142580440Y-63705600D01*
X142580440Y-63705600D02*
X141820440Y-64465600D01*
X141820440Y-68275600D02*
X142580440Y-69035600D01*
X142580440Y-69035600D02*
X147160440Y-69035600D01*
X85265640Y-54596400D02*
X86265640Y-54596400D01*
X86265640Y-52896400D02*
X85265640Y-52896400D01*
X85519640Y-57898400D02*
X86519640Y-57898400D01*
X86519640Y-56198400D02*
X85519640Y-56198400D01*
X71540000Y-75446000D02*
X71540000Y-76446000D01*
X73240000Y-76446000D02*
X73240000Y-75446000D01*
X80510000Y-78144000D02*
X79510000Y-78144000D01*
X79510000Y-79844000D02*
X80510000Y-79844000D01*
X126855600Y-64858000D02*
X127855600Y-64858000D01*
X127855600Y-63158000D02*
X126855600Y-63158000D01*
X135385440Y-63990600D02*
X135385440Y-64990600D01*
X137085440Y-64990600D02*
X137085440Y-63990600D01*
X86545040Y-59322600D02*
X85545040Y-59322600D01*
X85545040Y-61022600D02*
X86545040Y-61022600D01*
X64682000Y-82812000D02*
X64682000Y-83812000D01*
X66382000Y-83812000D02*
X66382000Y-82812000D01*
X125595000Y-65317000D02*
X124595000Y-65317000D01*
X124595000Y-67017000D02*
X125595000Y-67017000D01*
X92123640Y-62597400D02*
X93123640Y-62597400D01*
X93123640Y-60897400D02*
X92123640Y-60897400D01*
X68238000Y-82558000D02*
X68238000Y-83558000D01*
X69938000Y-83558000D02*
X69938000Y-82558000D01*
X124742840Y-70899400D02*
X124742840Y-71899400D01*
X126442840Y-71899400D02*
X126442840Y-70899400D01*
X102046140Y-61688600D02*
X102046140Y-60688600D01*
X100346140Y-60688600D02*
X100346140Y-61688600D01*
X75490960Y-88166840D02*
X74490960Y-88166840D01*
X74490960Y-89866840D02*
X75490960Y-89866840D01*
X98377640Y-55278400D02*
X98377640Y-56278400D01*
X100077640Y-56278400D02*
X100077640Y-55278400D01*
X79510000Y-86689300D02*
X80510000Y-86689300D01*
X80510000Y-84989300D02*
X79510000Y-84989300D01*
X131914000Y-75811000D02*
X131914000Y-74811000D01*
X130214000Y-74811000D02*
X130214000Y-75811000D01*
X132957200Y-75090400D02*
X132957200Y-76090400D01*
X134657200Y-76090400D02*
X134657200Y-75090400D01*
X87963640Y-74709400D02*
X87963640Y-75709400D01*
X89663640Y-75709400D02*
X89663640Y-74709400D01*
X99603180Y-77465820D02*
X98603180Y-77465820D01*
X98603180Y-79165820D02*
X99603180Y-79165820D01*
X130448940Y-79033000D02*
X129448940Y-79033000D01*
X129448940Y-80733000D02*
X130448940Y-80733000D01*
X96096720Y-62959360D02*
X96096720Y-63959360D01*
X97796720Y-63959360D02*
X97796720Y-62959360D01*
X95607240Y-75430000D02*
X95607240Y-74430000D01*
X93907240Y-74430000D02*
X93907240Y-75430000D01*
X135575940Y-81669000D02*
X135575940Y-82669000D01*
X137275940Y-82669000D02*
X137275940Y-81669000D01*
X98152840Y-70955800D02*
X97152840Y-70955800D01*
X97152840Y-72655800D02*
X98152840Y-72655800D01*
X135800200Y-90075640D02*
X135800200Y-89075640D01*
X134100200Y-89075640D02*
X134100200Y-90075640D01*
X80265640Y-145559400D02*
X80265640Y-144559400D01*
X78565640Y-144559400D02*
X78565640Y-145559400D01*
X85472640Y-145559400D02*
X85472640Y-144559400D01*
X83772640Y-144559400D02*
X83772640Y-145559400D01*
X99188640Y-146067400D02*
X99188640Y-145067400D01*
X97488640Y-145067400D02*
X97488640Y-146067400D01*
X115618640Y-77179540D02*
X116618640Y-77179540D01*
X116618640Y-75479540D02*
X115618640Y-75479540D01*
X143975200Y-112264560D02*
X144975200Y-112264560D01*
X144975200Y-110564560D02*
X143975200Y-110564560D01*
X58200000Y-90700000D02*
X58200000Y-91700000D01*
X59900000Y-91700000D02*
X59900000Y-90700000D01*
X113840640Y-97014400D02*
X114840640Y-97014400D01*
X114840640Y-95314400D02*
X113840640Y-95314400D01*
X86820640Y-69375400D02*
X86820640Y-70375400D01*
X88520640Y-70375400D02*
X88520640Y-69375400D01*
X141183500Y-134038800D02*
X139633500Y-134038800D01*
X135853500Y-134038800D02*
X137403500Y-134038800D01*
X136613500Y-128698800D02*
X137403500Y-128698800D01*
X140423500Y-128698800D02*
X139633500Y-128698800D01*
X141183500Y-134038800D02*
X141183500Y-129458800D01*
X141183500Y-129458800D02*
X140423500Y-128698800D01*
X136613500Y-128698800D02*
X135853500Y-129458800D01*
X135853500Y-129458800D02*
X135853500Y-134038800D01*
X145105500Y-128764400D02*
X146105500Y-128764400D01*
X146105500Y-127064400D02*
X145105500Y-127064400D01*
X70140000Y-57928000D02*
X70140000Y-59928000D01*
X70140000Y-59928000D02*
X74040000Y-59928000D01*
X70140000Y-57928000D02*
X74040000Y-57928000D01*
X64806000Y-57928000D02*
X64806000Y-59928000D01*
X64806000Y-59928000D02*
X68706000Y-59928000D01*
X64806000Y-57928000D02*
X68706000Y-57928000D01*
X133105400Y-58557600D02*
X131105400Y-58557600D01*
X131105400Y-58557600D02*
X131105400Y-62457600D01*
X133105400Y-58557600D02*
X133105400Y-62457600D01*
X125283400Y-58436000D02*
X125283400Y-60436000D01*
X125283400Y-60436000D02*
X129183400Y-60436000D01*
X125283400Y-58436000D02*
X129183400Y-58436000D01*
X145446040Y-87748000D02*
X144246040Y-87748000D01*
X144246040Y-85988000D02*
X145446040Y-85988000D01*
X61630000Y-96148000D02*
X62830000Y-96148000D01*
X62830000Y-97908000D02*
X61630000Y-97908000D01*
X101395640Y-56378400D02*
X101395640Y-55178400D01*
X103155640Y-55178400D02*
X103155640Y-56378400D01*
X86732000Y-81696000D02*
X86732000Y-82896000D01*
X84972000Y-82896000D02*
X84972000Y-81696000D01*
X135380840Y-76266600D02*
X135380840Y-75066600D01*
X137140840Y-75066600D02*
X137140840Y-76266600D01*
X82414000Y-98714000D02*
X82414000Y-99914000D01*
X80654000Y-99914000D02*
X80654000Y-98714000D01*
X79112000Y-98714000D02*
X79112000Y-99914000D01*
X77352000Y-99914000D02*
X77352000Y-98714000D01*
X144246040Y-70951200D02*
X145446040Y-70951200D01*
X145446040Y-72711200D02*
X144246040Y-72711200D01*
X125185880Y-87552640D02*
X126385880Y-87552640D01*
X126385880Y-89312640D02*
X125185880Y-89312640D01*
X76038000Y-73016000D02*
X74838000Y-73016000D01*
X74838000Y-71256000D02*
X76038000Y-71256000D01*
X114940640Y-90567400D02*
X113740640Y-90567400D01*
X113740640Y-88807400D02*
X114940640Y-88807400D01*
X77562000Y-76572000D02*
X76362000Y-76572000D01*
X76362000Y-74812000D02*
X77562000Y-74812000D01*
X81209440Y-93671280D02*
X80009440Y-93671280D01*
X80009440Y-91911280D02*
X81209440Y-91911280D01*
X114940640Y-93615400D02*
X113740640Y-93615400D01*
X113740640Y-91855400D02*
X114940640Y-91855400D01*
X76108000Y-60588000D02*
X77308000Y-60588000D01*
X77308000Y-62348000D02*
X76108000Y-62348000D01*
X81162000Y-61560000D02*
X81162000Y-60360000D01*
X82922000Y-60360000D02*
X82922000Y-61560000D01*
X82668000Y-55026000D02*
X82668000Y-56226000D01*
X80908000Y-56226000D02*
X80908000Y-55026000D01*
X79867200Y-88248600D02*
X81067200Y-88248600D01*
X81067200Y-90008600D02*
X79867200Y-90008600D01*
X61814000Y-82668000D02*
X60614000Y-82668000D01*
X60614000Y-80908000D02*
X61814000Y-80908000D01*
X58000000Y-84270000D02*
X59200000Y-84270000D01*
X59200000Y-86030000D02*
X58000000Y-86030000D01*
X124832000Y-59979000D02*
X124832000Y-61179000D01*
X123072000Y-61179000D02*
X123072000Y-59979000D01*
X127930200Y-62881400D02*
X126730200Y-62881400D01*
X126730200Y-61121400D02*
X127930200Y-61121400D01*
X87407040Y-64253000D02*
X86207040Y-64253000D01*
X86207040Y-62493000D02*
X87407040Y-62493000D01*
X79918000Y-81670000D02*
X81118000Y-81670000D01*
X81118000Y-83430000D02*
X79918000Y-83430000D01*
X126599840Y-78404160D02*
X126599840Y-79604160D01*
X124839840Y-79604160D02*
X124839840Y-78404160D01*
X90988440Y-79874000D02*
X89788440Y-79874000D01*
X89788440Y-78114000D02*
X90988440Y-78114000D01*
X96703440Y-81042400D02*
X95503440Y-81042400D01*
X95503440Y-79282400D02*
X96703440Y-79282400D01*
X121461640Y-84547000D02*
X121461640Y-83347000D01*
X123221640Y-83347000D02*
X123221640Y-84547000D01*
X85934440Y-67878400D02*
X85934440Y-69078400D01*
X84174440Y-69078400D02*
X84174440Y-67878400D01*
X90600640Y-75809400D02*
X90600640Y-74609400D01*
X92360640Y-74609400D02*
X92360640Y-75809400D01*
X126574440Y-83397800D02*
X126574440Y-84597800D01*
X124814440Y-84597800D02*
X124814440Y-83397800D01*
X102620520Y-89081720D02*
X103820520Y-89081720D01*
X103820520Y-90841720D02*
X102620520Y-90841720D01*
X139899280Y-86328960D02*
X139899280Y-87528960D01*
X138139280Y-87528960D02*
X138139280Y-86328960D01*
X130478640Y-97805800D02*
X130478640Y-96605800D01*
X132238640Y-96605800D02*
X132238640Y-97805800D01*
X88357600Y-144535600D02*
X88357600Y-145735600D01*
X86597600Y-145735600D02*
X86597600Y-144535600D01*
X102554480Y-92525960D02*
X103754480Y-92525960D01*
X103754480Y-94285960D02*
X102554480Y-94285960D01*
X128174640Y-102526540D02*
X128174640Y-103726540D01*
X126414640Y-103726540D02*
X126414640Y-102526540D01*
X110902640Y-80070400D02*
X110902640Y-81270400D01*
X109142640Y-81270400D02*
X109142640Y-80070400D01*
X107410140Y-81530900D02*
X107410140Y-82730900D01*
X105650140Y-82730900D02*
X105650140Y-81530900D01*
X111333840Y-77461000D02*
X110133840Y-77461000D01*
X110133840Y-75701000D02*
X111333840Y-75701000D01*
X107483800Y-76483920D02*
X107483800Y-77683920D01*
X105723800Y-77683920D02*
X105723800Y-76483920D01*
X54600000Y-91780000D02*
X53400000Y-91780000D01*
X53400000Y-90020000D02*
X54600000Y-90020000D01*
X54370000Y-96250000D02*
X54370000Y-95050000D01*
X56130000Y-95050000D02*
X56130000Y-96250000D01*
X56480000Y-82668000D02*
X55280000Y-82668000D01*
X55280000Y-80908000D02*
X56480000Y-80908000D01*
X102615440Y-85835600D02*
X103815440Y-85835600D01*
X103815440Y-87595600D02*
X102615440Y-87595600D01*
X127151840Y-129371200D02*
X128351840Y-129371200D01*
X128351840Y-131131200D02*
X127151840Y-131131200D01*
D11*
X113154640Y-77998400D02*
X113154640Y-78023400D01*
X117304640Y-77998400D02*
X117304640Y-78113400D01*
X117304640Y-86898400D02*
X117304640Y-86783400D01*
X113154640Y-86898400D02*
X113154640Y-86783400D01*
X113154640Y-77998400D02*
X117304640Y-77998400D01*
X113154640Y-86898400D02*
X117304640Y-86898400D01*
X113154640Y-78023400D02*
X111779640Y-78023400D01*
X91310640Y-53965400D02*
X91310640Y-54015400D01*
X95460640Y-53965400D02*
X95460640Y-54110400D01*
X95460640Y-59115400D02*
X95460640Y-58970400D01*
X91310640Y-59115400D02*
X91310640Y-58970400D01*
X91310640Y-53965400D02*
X95460640Y-53965400D01*
X91310640Y-59115400D02*
X95460640Y-59115400D01*
X91310640Y-54015400D02*
X89910640Y-54015400D01*
X76717600Y-81071900D02*
X76667600Y-81071900D01*
X76717600Y-85221900D02*
X76572600Y-85221900D01*
X71567600Y-85221900D02*
X71712600Y-85221900D01*
X71567600Y-81071900D02*
X71712600Y-81071900D01*
X76717600Y-81071900D02*
X76717600Y-85221900D01*
X71567600Y-81071900D02*
X71567600Y-85221900D01*
X76667600Y-81071900D02*
X76667600Y-79671900D01*
X94690640Y-66403400D02*
X94640640Y-66403400D01*
X94690640Y-70553400D02*
X94545640Y-70553400D01*
X89540640Y-70553400D02*
X89685640Y-70553400D01*
X89540640Y-66403400D02*
X89685640Y-66403400D01*
X94690640Y-66403400D02*
X94690640Y-70553400D01*
X89540640Y-66403400D02*
X89540640Y-70553400D01*
X94640640Y-66403400D02*
X94640640Y-65003400D01*
X133755840Y-83091200D02*
X133705840Y-83091200D01*
X133755840Y-87241200D02*
X133610840Y-87241200D01*
X128605840Y-87241200D02*
X128750840Y-87241200D01*
X128605840Y-83091200D02*
X128750840Y-83091200D01*
X133755840Y-83091200D02*
X133755840Y-87241200D01*
X128605840Y-83091200D02*
X128605840Y-87241200D01*
X133705840Y-83091200D02*
X133705840Y-81691200D01*
D13*
X141355400Y-120934200D02*
X141355400Y-122434200D01*
X141355400Y-122434200D02*
X141625400Y-122434200D01*
X141625400Y-122434200D02*
X141625400Y-125264200D01*
X148255400Y-120934200D02*
X148255400Y-122434200D01*
X148255400Y-122434200D02*
X147985400Y-122434200D01*
X147985400Y-122434200D02*
X147985400Y-123534200D01*
X64809000Y-144483200D02*
X64809000Y-145483200D01*
X66509000Y-145483200D02*
X66509000Y-144483200D01*
X62373200Y-142007900D02*
X65033200Y-142007900D01*
X62373200Y-136867900D02*
X62373200Y-142007900D01*
X65033200Y-136867900D02*
X65033200Y-142007900D01*
X62373200Y-136867900D02*
X65033200Y-136867900D01*
X62373200Y-135597900D02*
X62373200Y-134267900D01*
X62373200Y-134267900D02*
X63703200Y-134267900D01*
X55280000Y-85590000D02*
X54350000Y-85590000D01*
X52120000Y-85590000D02*
X53050000Y-85590000D01*
X52120000Y-85590000D02*
X52120000Y-87750000D01*
X55280000Y-85590000D02*
X55280000Y-87050000D01*
X73538000Y-148469400D02*
X73538000Y-147209400D01*
X73538000Y-141649400D02*
X73538000Y-142909400D01*
X69778000Y-148469400D02*
X73538000Y-148469400D01*
X67528000Y-141649400D02*
X73538000Y-141649400D01*
X101736000Y-71720000D02*
X101736000Y-70520000D01*
X103496000Y-70520000D02*
X103496000Y-71720000D01*
X104766000Y-65440000D02*
X104766000Y-66640000D01*
X103006000Y-66640000D02*
X103006000Y-65440000D01*
X124876000Y-74558000D02*
X126076000Y-74558000D01*
X126076000Y-76318000D02*
X124876000Y-76318000D01*
X128025000Y-75911000D02*
X128025000Y-74711000D01*
X129785000Y-74711000D02*
X129785000Y-75911000D01*
X103768000Y-114392000D02*
X103768000Y-113192000D01*
X105528000Y-113192000D02*
X105528000Y-114392000D01*
X101228000Y-114392000D02*
X101228000Y-113192000D01*
X102988000Y-113192000D02*
X102988000Y-114392000D01*
X98434000Y-114646000D02*
X98434000Y-113446000D01*
X100194000Y-113446000D02*
X100194000Y-114646000D01*
X62286000Y-58000000D02*
G75*
G03X62286000Y-58000000I-2286000J0D01*
G01*
X139286000Y-58000000D02*
G75*
G03X139286000Y-58000000I-2286000J0D01*
G01*
X59892240Y-118354800D02*
X54692240Y-118354800D01*
X59892240Y-133654800D02*
X59892240Y-118354800D01*
X54692240Y-136254800D02*
X54692240Y-118354800D01*
X59892240Y-133654800D02*
X57292240Y-133654800D01*
X57292240Y-133654800D02*
X57292240Y-136254800D01*
X57292240Y-136254800D02*
X54692240Y-136254800D01*
X59892240Y-134924800D02*
X59892240Y-136254800D01*
X59892240Y-136254800D02*
X58562240Y-136254800D01*
D11*
X70242181Y-132478305D02*
X71051705Y-132478305D01*
X71146943Y-132430686D01*
X71194562Y-132383067D01*
X71242181Y-132287829D01*
X71242181Y-132097352D01*
X71194562Y-132002114D01*
X71146943Y-131954495D01*
X71051705Y-131906876D01*
X70242181Y-131906876D01*
X70718371Y-131097352D02*
X70765990Y-130954495D01*
X70813610Y-130906876D01*
X70908848Y-130859257D01*
X71051705Y-130859257D01*
X71146943Y-130906876D01*
X71194562Y-130954495D01*
X71242181Y-131049733D01*
X71242181Y-131430686D01*
X70242181Y-131430686D01*
X70242181Y-131097352D01*
X70289800Y-131002114D01*
X70337419Y-130954495D01*
X70432657Y-130906876D01*
X70527895Y-130906876D01*
X70623133Y-130954495D01*
X70670752Y-131002114D01*
X70718371Y-131097352D01*
X70718371Y-131430686D01*
X71242181Y-129906876D02*
X71242181Y-130478305D01*
X71242181Y-130192591D02*
X70242181Y-130192591D01*
X70385038Y-130287829D01*
X70480276Y-130383067D01*
X70527895Y-130478305D01*
X73023481Y-134763995D02*
X73213957Y-134763995D01*
X73023481Y-134383042D02*
X73213957Y-134383042D01*
X73071100Y-133430661D02*
X73023481Y-133525899D01*
X73023481Y-133668756D01*
X73071100Y-133811614D01*
X73166338Y-133906852D01*
X73261576Y-133954471D01*
X73452052Y-134002090D01*
X73594910Y-134002090D01*
X73785386Y-133954471D01*
X73880624Y-133906852D01*
X73975862Y-133811614D01*
X74023481Y-133668756D01*
X74023481Y-133573518D01*
X73975862Y-133430661D01*
X73928243Y-133383042D01*
X73594910Y-133383042D01*
X73594910Y-133573518D01*
X73499671Y-132954471D02*
X73499671Y-132621137D01*
X74023481Y-132478280D02*
X74023481Y-132954471D01*
X73023481Y-132954471D01*
X73023481Y-132478280D01*
X74023481Y-132049709D02*
X73023481Y-132049709D01*
X74023481Y-131478280D01*
X73023481Y-131478280D01*
X73499671Y-131002090D02*
X73499671Y-130668756D01*
X74023481Y-130525899D02*
X74023481Y-131002090D01*
X73023481Y-131002090D01*
X73023481Y-130525899D01*
X74023481Y-129525899D02*
X73547290Y-129859233D01*
X74023481Y-130097328D02*
X73023481Y-130097328D01*
X73023481Y-129716375D01*
X73071100Y-129621137D01*
X73118719Y-129573518D01*
X73213957Y-129525899D01*
X73356814Y-129525899D01*
X73452052Y-129573518D01*
X73499671Y-129621137D01*
X73547290Y-129716375D01*
X73547290Y-130097328D01*
X74023481Y-129097328D02*
X73023481Y-129097328D01*
X73928243Y-128049709D02*
X73975862Y-128097328D01*
X74023481Y-128240185D01*
X74023481Y-128335423D01*
X73975862Y-128478281D01*
X73880624Y-128573519D01*
X73785386Y-128621138D01*
X73594910Y-128668757D01*
X73452052Y-128668757D01*
X73261576Y-128621138D01*
X73166338Y-128573519D01*
X73071100Y-128478281D01*
X73023481Y-128335423D01*
X73023481Y-128240185D01*
X73071100Y-128097328D01*
X73118719Y-128049709D01*
X73023481Y-127668757D02*
X73213957Y-127668757D01*
X73023481Y-127287804D02*
X73213957Y-127287804D01*
X72604262Y-136602053D02*
X72651881Y-136459196D01*
X72651881Y-136221100D01*
X72604262Y-136125862D01*
X72556643Y-136078243D01*
X72461405Y-136030624D01*
X72366167Y-136030624D01*
X72270929Y-136078243D01*
X72223310Y-136125862D01*
X72175690Y-136221100D01*
X72128071Y-136411577D01*
X72080452Y-136506815D01*
X72032833Y-136554434D01*
X71937595Y-136602053D01*
X71842357Y-136602053D01*
X71747119Y-136554434D01*
X71699500Y-136506815D01*
X71651881Y-136411577D01*
X71651881Y-136173481D01*
X71699500Y-136030624D01*
X71651881Y-135744910D02*
X71651881Y-135173481D01*
X72651881Y-135459196D02*
X71651881Y-135459196D01*
X72651881Y-134840148D02*
X71651881Y-134840148D01*
X72366167Y-134506814D01*
X71651881Y-134173481D01*
X72651881Y-134173481D01*
X71651881Y-133792529D02*
X71651881Y-133173481D01*
X72032833Y-133506815D01*
X72032833Y-133363957D01*
X72080452Y-133268719D01*
X72128071Y-133221100D01*
X72223310Y-133173481D01*
X72461405Y-133173481D01*
X72556643Y-133221100D01*
X72604262Y-133268719D01*
X72651881Y-133363957D01*
X72651881Y-133649672D01*
X72604262Y-133744910D01*
X72556643Y-133792529D01*
X71747119Y-132792529D02*
X71699500Y-132744910D01*
X71651881Y-132649672D01*
X71651881Y-132411576D01*
X71699500Y-132316338D01*
X71747119Y-132268719D01*
X71842357Y-132221100D01*
X71937595Y-132221100D01*
X72080452Y-132268719D01*
X72651881Y-132840148D01*
X72651881Y-132221100D01*
X72128071Y-131459195D02*
X72128071Y-131792529D01*
X72651881Y-131792529D02*
X71651881Y-131792529D01*
X71651881Y-131316338D01*
X72651881Y-130411576D02*
X72651881Y-130983005D01*
X72651881Y-130697291D02*
X71651881Y-130697291D01*
X71794738Y-130792529D01*
X71889976Y-130887767D01*
X71937595Y-130983005D01*
X71651881Y-129792529D02*
X71651881Y-129697290D01*
X71699500Y-129602052D01*
X71747119Y-129554433D01*
X71842357Y-129506814D01*
X72032833Y-129459195D01*
X72270929Y-129459195D01*
X72461405Y-129506814D01*
X72556643Y-129554433D01*
X72604262Y-129602052D01*
X72651881Y-129697290D01*
X72651881Y-129792529D01*
X72604262Y-129887767D01*
X72556643Y-129935386D01*
X72461405Y-129983005D01*
X72270929Y-130030624D01*
X72032833Y-130030624D01*
X71842357Y-129983005D01*
X71747119Y-129935386D01*
X71699500Y-129887767D01*
X71651881Y-129792529D01*
X71651881Y-129125862D02*
X71651881Y-128506814D01*
X72032833Y-128840148D01*
X72032833Y-128697290D01*
X72080452Y-128602052D01*
X72128071Y-128554433D01*
X72223310Y-128506814D01*
X72461405Y-128506814D01*
X72556643Y-128554433D01*
X72604262Y-128602052D01*
X72651881Y-128697290D01*
X72651881Y-128983005D01*
X72604262Y-129078243D01*
X72556643Y-129125862D01*
X72556643Y-127506814D02*
X72604262Y-127554433D01*
X72651881Y-127697290D01*
X72651881Y-127792528D01*
X72604262Y-127935386D01*
X72509024Y-128030624D01*
X72413786Y-128078243D01*
X72223310Y-128125862D01*
X72080452Y-128125862D01*
X71889976Y-128078243D01*
X71794738Y-128030624D01*
X71699500Y-127935386D01*
X71651881Y-127792528D01*
X71651881Y-127697290D01*
X71699500Y-127554433D01*
X71747119Y-127506814D01*
X72080452Y-126935386D02*
X72032833Y-127030624D01*
X71985214Y-127078243D01*
X71889976Y-127125862D01*
X71842357Y-127125862D01*
X71747119Y-127078243D01*
X71699500Y-127030624D01*
X71651881Y-126935386D01*
X71651881Y-126744909D01*
X71699500Y-126649671D01*
X71747119Y-126602052D01*
X71842357Y-126554433D01*
X71889976Y-126554433D01*
X71985214Y-126602052D01*
X72032833Y-126649671D01*
X72080452Y-126744909D01*
X72080452Y-126935386D01*
X72128071Y-127030624D01*
X72175690Y-127078243D01*
X72270929Y-127125862D01*
X72461405Y-127125862D01*
X72556643Y-127078243D01*
X72604262Y-127030624D01*
X72651881Y-126935386D01*
X72651881Y-126744909D01*
X72604262Y-126649671D01*
X72556643Y-126602052D01*
X72461405Y-126554433D01*
X72270929Y-126554433D01*
X72175690Y-126602052D01*
X72128071Y-126649671D01*
X72080452Y-126744909D01*
X71651881Y-126268719D02*
X71651881Y-125697290D01*
X72651881Y-125983005D02*
X71651881Y-125983005D01*
X71651881Y-124935385D02*
X71651881Y-125125862D01*
X71699500Y-125221100D01*
X71747119Y-125268719D01*
X71889976Y-125363957D01*
X72080452Y-125411576D01*
X72461405Y-125411576D01*
X72556643Y-125363957D01*
X72604262Y-125316338D01*
X72651881Y-125221100D01*
X72651881Y-125030623D01*
X72604262Y-124935385D01*
X72556643Y-124887766D01*
X72461405Y-124840147D01*
X72223310Y-124840147D01*
X72128071Y-124887766D01*
X72080452Y-124935385D01*
X72032833Y-125030623D01*
X72032833Y-125221100D01*
X72080452Y-125316338D01*
X72128071Y-125363957D01*
X72223310Y-125411576D01*
X59396381Y-51641333D02*
X60110667Y-51641333D01*
X60253524Y-51688953D01*
X60348762Y-51784191D01*
X60396381Y-51927048D01*
X60396381Y-52022286D01*
X59491619Y-51212762D02*
X59444000Y-51165143D01*
X59396381Y-51069905D01*
X59396381Y-50831809D01*
X59444000Y-50736571D01*
X59491619Y-50688952D01*
X59586857Y-50641333D01*
X59682095Y-50641333D01*
X59824952Y-50688952D01*
X60396381Y-51260381D01*
X60396381Y-50641333D01*
X75636381Y-65190666D02*
X75160190Y-65524000D01*
X75636381Y-65762095D02*
X74636381Y-65762095D01*
X74636381Y-65381142D01*
X74684000Y-65285904D01*
X74731619Y-65238285D01*
X74826857Y-65190666D01*
X74969714Y-65190666D01*
X75064952Y-65238285D01*
X75112571Y-65285904D01*
X75160190Y-65381142D01*
X75160190Y-65762095D01*
X74636381Y-64285904D02*
X74636381Y-64762095D01*
X75112571Y-64809714D01*
X75064952Y-64762095D01*
X75017333Y-64666857D01*
X75017333Y-64428761D01*
X75064952Y-64333523D01*
X75112571Y-64285904D01*
X75207810Y-64238285D01*
X75445905Y-64238285D01*
X75541143Y-64285904D01*
X75588762Y-64333523D01*
X75636381Y-64428761D01*
X75636381Y-64666857D01*
X75588762Y-64762095D01*
X75541143Y-64809714D01*
X133650621Y-69418105D02*
X134460145Y-69418105D01*
X134555383Y-69370486D01*
X134603002Y-69322867D01*
X134650621Y-69227629D01*
X134650621Y-69037152D01*
X134603002Y-68941914D01*
X134555383Y-68894295D01*
X134460145Y-68846676D01*
X133650621Y-68846676D01*
X133650621Y-67894295D02*
X133650621Y-68370486D01*
X134126811Y-68418105D01*
X134079192Y-68370486D01*
X134031573Y-68275248D01*
X134031573Y-68037152D01*
X134079192Y-67941914D01*
X134126811Y-67894295D01*
X134222050Y-67846676D01*
X134460145Y-67846676D01*
X134555383Y-67894295D01*
X134603002Y-67941914D01*
X134650621Y-68037152D01*
X134650621Y-68275248D01*
X134603002Y-68370486D01*
X134555383Y-68418105D01*
X67992667Y-70318381D02*
X67992667Y-71032667D01*
X67945047Y-71175524D01*
X67849809Y-71270762D01*
X67706952Y-71318381D01*
X67611714Y-71318381D01*
X68373619Y-70318381D02*
X69040286Y-70318381D01*
X68611714Y-71318381D01*
X59661467Y-70343781D02*
X59661467Y-71058067D01*
X59613847Y-71200924D01*
X59518609Y-71296162D01*
X59375752Y-71343781D01*
X59280514Y-71343781D01*
X60613848Y-70343781D02*
X60137657Y-70343781D01*
X60090038Y-70819971D01*
X60137657Y-70772352D01*
X60232895Y-70724733D01*
X60470991Y-70724733D01*
X60566229Y-70772352D01*
X60613848Y-70819971D01*
X60661467Y-70915210D01*
X60661467Y-71153305D01*
X60613848Y-71248543D01*
X60566229Y-71296162D01*
X60470991Y-71343781D01*
X60232895Y-71343781D01*
X60137657Y-71296162D01*
X60090038Y-71248543D01*
X54403667Y-65009781D02*
X54403667Y-65724067D01*
X54356047Y-65866924D01*
X54260809Y-65962162D01*
X54117952Y-66009781D01*
X54022714Y-66009781D01*
X54784619Y-65009781D02*
X55403667Y-65009781D01*
X55070333Y-65390733D01*
X55213191Y-65390733D01*
X55308429Y-65438352D01*
X55356048Y-65485971D01*
X55403667Y-65581210D01*
X55403667Y-65819305D01*
X55356048Y-65914543D01*
X55308429Y-65962162D01*
X55213191Y-66009781D01*
X54927476Y-66009781D01*
X54832238Y-65962162D01*
X54784619Y-65914543D01*
X59610667Y-68286381D02*
X59610667Y-69000667D01*
X59563047Y-69143524D01*
X59467809Y-69238762D01*
X59324952Y-69286381D01*
X59229714Y-69286381D01*
X60515429Y-68619714D02*
X60515429Y-69286381D01*
X60277333Y-68238762D02*
X60039238Y-68953048D01*
X60658286Y-68953048D01*
X67901227Y-68286381D02*
X67901227Y-69000667D01*
X67853607Y-69143524D01*
X67758369Y-69238762D01*
X67615512Y-69286381D01*
X67520274Y-69286381D01*
X68805989Y-68286381D02*
X68615512Y-68286381D01*
X68520274Y-68334000D01*
X68472655Y-68381619D01*
X68377417Y-68524476D01*
X68329798Y-68714952D01*
X68329798Y-69095905D01*
X68377417Y-69191143D01*
X68425036Y-69238762D01*
X68520274Y-69286381D01*
X68710751Y-69286381D01*
X68805989Y-69238762D01*
X68853608Y-69191143D01*
X68901227Y-69095905D01*
X68901227Y-68857810D01*
X68853608Y-68762571D01*
X68805989Y-68714952D01*
X68710751Y-68667333D01*
X68520274Y-68667333D01*
X68425036Y-68714952D01*
X68377417Y-68762571D01*
X68329798Y-68857810D01*
X143881577Y-93286781D02*
X143881577Y-94001067D01*
X143833957Y-94143924D01*
X143738719Y-94239162D01*
X143595862Y-94286781D01*
X143500624Y-94286781D01*
X144881577Y-94286781D02*
X144310148Y-94286781D01*
X144595862Y-94286781D02*
X144595862Y-93286781D01*
X144500624Y-93429638D01*
X144405386Y-93524876D01*
X144310148Y-93572495D01*
X145786339Y-93286781D02*
X145310148Y-93286781D01*
X145262529Y-93762971D01*
X145310148Y-93715352D01*
X145405386Y-93667733D01*
X145643482Y-93667733D01*
X145738720Y-93715352D01*
X145786339Y-93762971D01*
X145833958Y-93858210D01*
X145833958Y-94096305D01*
X145786339Y-94191543D01*
X145738720Y-94239162D01*
X145643482Y-94286781D01*
X145405386Y-94286781D01*
X145310148Y-94239162D01*
X145262529Y-94191543D01*
X96690381Y-110029523D02*
X97404667Y-110029523D01*
X97547524Y-110077143D01*
X97642762Y-110172381D01*
X97690381Y-110315238D01*
X97690381Y-110410476D01*
X97690381Y-109029523D02*
X97690381Y-109600952D01*
X97690381Y-109315238D02*
X96690381Y-109315238D01*
X96833238Y-109410476D01*
X96928476Y-109505714D01*
X96976095Y-109600952D01*
X96690381Y-108696190D02*
X96690381Y-108029523D01*
X97690381Y-108458095D01*
X70296381Y-91161905D02*
X71105905Y-91161905D01*
X71201143Y-91114286D01*
X71248762Y-91066667D01*
X71296381Y-90971429D01*
X71296381Y-90780952D01*
X71248762Y-90685714D01*
X71201143Y-90638095D01*
X71105905Y-90590476D01*
X70296381Y-90590476D01*
X71296381Y-89590476D02*
X71296381Y-90161905D01*
X71296381Y-89876191D02*
X70296381Y-89876191D01*
X70439238Y-89971429D01*
X70534476Y-90066667D01*
X70582095Y-90161905D01*
X69780209Y-100509390D02*
X69780209Y-100985581D01*
X69446876Y-99985581D02*
X69780209Y-100509390D01*
X70113543Y-99985581D01*
X70970686Y-100985581D02*
X70399257Y-100985581D01*
X70684971Y-100985581D02*
X70684971Y-99985581D01*
X70589733Y-100128438D01*
X70494495Y-100223676D01*
X70399257Y-100271295D01*
X52047877Y-55992781D02*
X52047877Y-56707067D01*
X52000257Y-56849924D01*
X51905019Y-56945162D01*
X51762162Y-56992781D01*
X51666924Y-56992781D01*
X53047877Y-56992781D02*
X52476448Y-56992781D01*
X52762162Y-56992781D02*
X52762162Y-55992781D01*
X52666924Y-56135638D01*
X52571686Y-56230876D01*
X52476448Y-56278495D01*
X53619305Y-56421352D02*
X53524067Y-56373733D01*
X53476448Y-56326114D01*
X53428829Y-56230876D01*
X53428829Y-56183257D01*
X53476448Y-56088019D01*
X53524067Y-56040400D01*
X53619305Y-55992781D01*
X53809782Y-55992781D01*
X53905020Y-56040400D01*
X53952639Y-56088019D01*
X54000258Y-56183257D01*
X54000258Y-56230876D01*
X53952639Y-56326114D01*
X53905020Y-56373733D01*
X53809782Y-56421352D01*
X53619305Y-56421352D01*
X53524067Y-56468971D01*
X53476448Y-56516590D01*
X53428829Y-56611829D01*
X53428829Y-56802305D01*
X53476448Y-56897543D01*
X53524067Y-56945162D01*
X53619305Y-56992781D01*
X53809782Y-56992781D01*
X53905020Y-56945162D01*
X53952639Y-56897543D01*
X54000258Y-56802305D01*
X54000258Y-56611829D01*
X53952639Y-56516590D01*
X53905020Y-56468971D01*
X53809782Y-56421352D01*
X146269177Y-55941981D02*
X146269177Y-56656267D01*
X146221557Y-56799124D01*
X146126319Y-56894362D01*
X145983462Y-56941981D01*
X145888224Y-56941981D01*
X147269177Y-56941981D02*
X146697748Y-56941981D01*
X146983462Y-56941981D02*
X146983462Y-55941981D01*
X146888224Y-56084838D01*
X146792986Y-56180076D01*
X146697748Y-56227695D01*
X147745367Y-56941981D02*
X147935843Y-56941981D01*
X148031082Y-56894362D01*
X148078701Y-56846743D01*
X148173939Y-56703886D01*
X148221558Y-56513410D01*
X148221558Y-56132457D01*
X148173939Y-56037219D01*
X148126320Y-55989600D01*
X148031082Y-55941981D01*
X147840605Y-55941981D01*
X147745367Y-55989600D01*
X147697748Y-56037219D01*
X147650129Y-56132457D01*
X147650129Y-56370552D01*
X147697748Y-56465790D01*
X147745367Y-56513410D01*
X147840605Y-56561029D01*
X148031082Y-56561029D01*
X148126320Y-56513410D01*
X148173939Y-56465790D01*
X148221558Y-56370552D01*
X52190477Y-143404381D02*
X52190477Y-144118667D01*
X52142857Y-144261524D01*
X52047619Y-144356762D01*
X51904762Y-144404381D01*
X51809524Y-144404381D01*
X52619048Y-143499619D02*
X52666667Y-143452000D01*
X52761905Y-143404381D01*
X53000001Y-143404381D01*
X53095239Y-143452000D01*
X53142858Y-143499619D01*
X53190477Y-143594857D01*
X53190477Y-143690095D01*
X53142858Y-143832952D01*
X52571429Y-144404381D01*
X53190477Y-144404381D01*
X53809524Y-143404381D02*
X53904763Y-143404381D01*
X54000001Y-143452000D01*
X54047620Y-143499619D01*
X54095239Y-143594857D01*
X54142858Y-143785333D01*
X54142858Y-144023429D01*
X54095239Y-144213905D01*
X54047620Y-144309143D01*
X54000001Y-144356762D01*
X53904763Y-144404381D01*
X53809524Y-144404381D01*
X53714286Y-144356762D01*
X53666667Y-144309143D01*
X53619048Y-144213905D01*
X53571429Y-144023429D01*
X53571429Y-143785333D01*
X53619048Y-143594857D01*
X53666667Y-143499619D01*
X53714286Y-143452000D01*
X53809524Y-143404381D01*
X146190477Y-143404381D02*
X146190477Y-144118667D01*
X146142857Y-144261524D01*
X146047619Y-144356762D01*
X145904762Y-144404381D01*
X145809524Y-144404381D01*
X146619048Y-143499619D02*
X146666667Y-143452000D01*
X146761905Y-143404381D01*
X147000001Y-143404381D01*
X147095239Y-143452000D01*
X147142858Y-143499619D01*
X147190477Y-143594857D01*
X147190477Y-143690095D01*
X147142858Y-143832952D01*
X146571429Y-144404381D01*
X147190477Y-144404381D01*
X148142858Y-144404381D02*
X147571429Y-144404381D01*
X147857143Y-144404381D02*
X147857143Y-143404381D01*
X147761905Y-143547238D01*
X147666667Y-143642476D01*
X147571429Y-143690095D01*
X144199077Y-139888981D02*
X144199077Y-140603267D01*
X144151457Y-140746124D01*
X144056219Y-140841362D01*
X143913362Y-140888981D01*
X143818124Y-140888981D01*
X144627648Y-139984219D02*
X144675267Y-139936600D01*
X144770505Y-139888981D01*
X145008601Y-139888981D01*
X145103839Y-139936600D01*
X145151458Y-139984219D01*
X145199077Y-140079457D01*
X145199077Y-140174695D01*
X145151458Y-140317552D01*
X144580029Y-140888981D01*
X145199077Y-140888981D01*
X145580029Y-139984219D02*
X145627648Y-139936600D01*
X145722886Y-139888981D01*
X145960982Y-139888981D01*
X146056220Y-139936600D01*
X146103839Y-139984219D01*
X146151458Y-140079457D01*
X146151458Y-140174695D01*
X146103839Y-140317552D01*
X145532410Y-140888981D01*
X146151458Y-140888981D01*
X137241067Y-139330181D02*
X137241067Y-140044467D01*
X137193447Y-140187324D01*
X137098209Y-140282562D01*
X136955352Y-140330181D01*
X136860114Y-140330181D01*
X137717257Y-140330181D02*
X137717257Y-139330181D01*
X138098210Y-139330181D01*
X138193448Y-139377800D01*
X138241067Y-139425419D01*
X138288686Y-139520657D01*
X138288686Y-139663514D01*
X138241067Y-139758752D01*
X138193448Y-139806371D01*
X138098210Y-139853990D01*
X137717257Y-139853990D01*
X139145829Y-139663514D02*
X139145829Y-140330181D01*
X138907733Y-139282562D02*
X138669638Y-139996848D01*
X139288686Y-139996848D01*
X59666667Y-98404381D02*
X59666667Y-99118667D01*
X59619047Y-99261524D01*
X59523809Y-99356762D01*
X59380952Y-99404381D01*
X59285714Y-99404381D01*
X60285714Y-98832952D02*
X60190476Y-98785333D01*
X60142857Y-98737714D01*
X60095238Y-98642476D01*
X60095238Y-98594857D01*
X60142857Y-98499619D01*
X60190476Y-98452000D01*
X60285714Y-98404381D01*
X60476191Y-98404381D01*
X60571429Y-98452000D01*
X60619048Y-98499619D01*
X60666667Y-98594857D01*
X60666667Y-98642476D01*
X60619048Y-98737714D01*
X60571429Y-98785333D01*
X60476191Y-98832952D01*
X60285714Y-98832952D01*
X60190476Y-98880571D01*
X60142857Y-98928190D01*
X60095238Y-99023429D01*
X60095238Y-99213905D01*
X60142857Y-99309143D01*
X60190476Y-99356762D01*
X60285714Y-99404381D01*
X60476191Y-99404381D01*
X60571429Y-99356762D01*
X60619048Y-99309143D01*
X60666667Y-99213905D01*
X60666667Y-99023429D01*
X60619048Y-98928190D01*
X60571429Y-98880571D01*
X60476191Y-98832952D01*
X59190477Y-142404381D02*
X59190477Y-143118667D01*
X59142857Y-143261524D01*
X59047619Y-143356762D01*
X58904762Y-143404381D01*
X58809524Y-143404381D01*
X60190477Y-143404381D02*
X59619048Y-143404381D01*
X59904762Y-143404381D02*
X59904762Y-142404381D01*
X59809524Y-142547238D01*
X59714286Y-142642476D01*
X59619048Y-142690095D01*
X60809524Y-142404381D02*
X60904763Y-142404381D01*
X61000001Y-142452000D01*
X61047620Y-142499619D01*
X61095239Y-142594857D01*
X61142858Y-142785333D01*
X61142858Y-143023429D01*
X61095239Y-143213905D01*
X61047620Y-143309143D01*
X61000001Y-143356762D01*
X60904763Y-143404381D01*
X60809524Y-143404381D01*
X60714286Y-143356762D01*
X60666667Y-143309143D01*
X60619048Y-143213905D01*
X60571429Y-143023429D01*
X60571429Y-142785333D01*
X60619048Y-142594857D01*
X60666667Y-142499619D01*
X60714286Y-142452000D01*
X60809524Y-142404381D01*
X136190477Y-98404381D02*
X136190477Y-99118667D01*
X136142857Y-99261524D01*
X136047619Y-99356762D01*
X135904762Y-99404381D01*
X135809524Y-99404381D01*
X137190477Y-99404381D02*
X136619048Y-99404381D01*
X136904762Y-99404381D02*
X136904762Y-98404381D01*
X136809524Y-98547238D01*
X136714286Y-98642476D01*
X136619048Y-98690095D01*
X138142858Y-99404381D02*
X137571429Y-99404381D01*
X137857143Y-99404381D02*
X137857143Y-98404381D01*
X137761905Y-98547238D01*
X137666667Y-98642476D01*
X137571429Y-98690095D01*
X134902677Y-142215621D02*
X134902677Y-142929907D01*
X134855057Y-143072764D01*
X134759819Y-143168002D01*
X134616962Y-143215621D01*
X134521724Y-143215621D01*
X135902677Y-143215621D02*
X135331248Y-143215621D01*
X135616962Y-143215621D02*
X135616962Y-142215621D01*
X135521724Y-142358478D01*
X135426486Y-142453716D01*
X135331248Y-142501335D01*
X136283629Y-142310859D02*
X136331248Y-142263240D01*
X136426486Y-142215621D01*
X136664582Y-142215621D01*
X136759820Y-142263240D01*
X136807439Y-142310859D01*
X136855058Y-142406097D01*
X136855058Y-142501335D01*
X136807439Y-142644192D01*
X136236010Y-143215621D01*
X136855058Y-143215621D01*
X131583181Y-140522223D02*
X132297467Y-140522223D01*
X132440324Y-140569843D01*
X132535562Y-140665081D01*
X132583181Y-140807938D01*
X132583181Y-140903176D01*
X132583181Y-139522223D02*
X132583181Y-140093652D01*
X132583181Y-139807938D02*
X131583181Y-139807938D01*
X131726038Y-139903176D01*
X131821276Y-139998414D01*
X131868895Y-140093652D01*
X131583181Y-139188890D02*
X131583181Y-138569842D01*
X131964133Y-138903176D01*
X131964133Y-138760318D01*
X132011752Y-138665080D01*
X132059371Y-138617461D01*
X132154610Y-138569842D01*
X132392705Y-138569842D01*
X132487943Y-138617461D01*
X132535562Y-138665080D01*
X132583181Y-138760318D01*
X132583181Y-139046033D01*
X132535562Y-139141271D01*
X132487943Y-139188890D01*
X79621167Y-51702721D02*
X79621167Y-52417007D01*
X79573547Y-52559864D01*
X79478309Y-52655102D01*
X79335452Y-52702721D01*
X79240214Y-52702721D01*
X80097357Y-52702721D02*
X80097357Y-51702721D01*
X80478310Y-51702721D01*
X80573548Y-51750340D01*
X80621167Y-51797959D01*
X80668786Y-51893197D01*
X80668786Y-52036054D01*
X80621167Y-52131292D01*
X80573548Y-52178911D01*
X80478310Y-52226530D01*
X80097357Y-52226530D01*
X81002119Y-51702721D02*
X81621167Y-51702721D01*
X81287833Y-52083673D01*
X81430691Y-52083673D01*
X81525929Y-52131292D01*
X81573548Y-52178911D01*
X81621167Y-52274150D01*
X81621167Y-52512245D01*
X81573548Y-52607483D01*
X81525929Y-52655102D01*
X81430691Y-52702721D01*
X81144976Y-52702721D01*
X81049738Y-52655102D01*
X81002119Y-52607483D01*
X79937361Y-69786713D02*
X80651647Y-69786713D01*
X80794504Y-69834333D01*
X80889742Y-69929571D01*
X80937361Y-70072428D01*
X80937361Y-70167666D01*
X80937361Y-69310523D02*
X79937361Y-69310523D01*
X79937361Y-68929570D01*
X79984980Y-68834332D01*
X80032599Y-68786713D01*
X80127837Y-68739094D01*
X80270694Y-68739094D01*
X80365932Y-68786713D01*
X80413551Y-68834332D01*
X80461170Y-68929570D01*
X80461170Y-69310523D01*
X80937361Y-67786713D02*
X80937361Y-68358142D01*
X80937361Y-68072428D02*
X79937361Y-68072428D01*
X80080218Y-68167666D01*
X80175456Y-68262904D01*
X80223075Y-68358142D01*
X123582181Y-133980133D02*
X124296467Y-133980133D01*
X124439324Y-134027753D01*
X124534562Y-134122991D01*
X124582181Y-134265848D01*
X124582181Y-134361086D01*
X124582181Y-133503943D02*
X123582181Y-133503943D01*
X123582181Y-133122990D01*
X123629800Y-133027752D01*
X123677419Y-132980133D01*
X123772657Y-132932514D01*
X123915514Y-132932514D01*
X124010752Y-132980133D01*
X124058371Y-133027752D01*
X124105990Y-133122990D01*
X124105990Y-133503943D01*
X123677419Y-132551562D02*
X123629800Y-132503943D01*
X123582181Y-132408705D01*
X123582181Y-132170609D01*
X123629800Y-132075371D01*
X123677419Y-132027752D01*
X123772657Y-131980133D01*
X123867895Y-131980133D01*
X124010752Y-132027752D01*
X124582181Y-132599181D01*
X124582181Y-131980133D01*
X106668783Y-59501066D02*
X106716402Y-59548685D01*
X106764021Y-59691542D01*
X106764021Y-59786780D01*
X106716402Y-59929638D01*
X106621164Y-60024876D01*
X106525926Y-60072495D01*
X106335450Y-60120114D01*
X106192592Y-60120114D01*
X106002116Y-60072495D01*
X105906878Y-60024876D01*
X105811640Y-59929638D01*
X105764021Y-59786780D01*
X105764021Y-59691542D01*
X105811640Y-59548685D01*
X105859259Y-59501066D01*
X106764021Y-58548685D02*
X106764021Y-59120114D01*
X106764021Y-58834400D02*
X105764021Y-58834400D01*
X105906878Y-58929638D01*
X106002116Y-59024876D01*
X106049735Y-59120114D01*
X62317334Y-92813143D02*
X62269715Y-92860762D01*
X62126858Y-92908381D01*
X62031620Y-92908381D01*
X61888762Y-92860762D01*
X61793524Y-92765524D01*
X61745905Y-92670286D01*
X61698286Y-92479810D01*
X61698286Y-92336952D01*
X61745905Y-92146476D01*
X61793524Y-92051238D01*
X61888762Y-91956000D01*
X62031620Y-91908381D01*
X62126858Y-91908381D01*
X62269715Y-91956000D01*
X62317334Y-92003619D01*
X62698286Y-92003619D02*
X62745905Y-91956000D01*
X62841143Y-91908381D01*
X63079239Y-91908381D01*
X63174477Y-91956000D01*
X63222096Y-92003619D01*
X63269715Y-92098857D01*
X63269715Y-92194095D01*
X63222096Y-92336952D01*
X62650667Y-92908381D01*
X63269715Y-92908381D01*
X148225783Y-75731666D02*
X148273402Y-75779285D01*
X148321021Y-75922142D01*
X148321021Y-76017380D01*
X148273402Y-76160238D01*
X148178164Y-76255476D01*
X148082926Y-76303095D01*
X147892450Y-76350714D01*
X147749592Y-76350714D01*
X147559116Y-76303095D01*
X147463878Y-76255476D01*
X147368640Y-76160238D01*
X147321021Y-76017380D01*
X147321021Y-75922142D01*
X147368640Y-75779285D01*
X147416259Y-75731666D01*
X147321021Y-75398333D02*
X147321021Y-74779285D01*
X147701973Y-75112619D01*
X147701973Y-74969761D01*
X147749592Y-74874523D01*
X147797211Y-74826904D01*
X147892450Y-74779285D01*
X148130545Y-74779285D01*
X148225783Y-74826904D01*
X148273402Y-74874523D01*
X148321021Y-74969761D01*
X148321021Y-75255476D01*
X148273402Y-75350714D01*
X148225783Y-75398333D01*
X140650934Y-79732143D02*
X140603315Y-79779762D01*
X140460458Y-79827381D01*
X140365220Y-79827381D01*
X140222362Y-79779762D01*
X140127124Y-79684524D01*
X140079505Y-79589286D01*
X140031886Y-79398810D01*
X140031886Y-79255952D01*
X140079505Y-79065476D01*
X140127124Y-78970238D01*
X140222362Y-78875000D01*
X140365220Y-78827381D01*
X140460458Y-78827381D01*
X140603315Y-78875000D01*
X140650934Y-78922619D01*
X141508077Y-79160714D02*
X141508077Y-79827381D01*
X141269981Y-78779762D02*
X141031886Y-79494048D01*
X141650934Y-79494048D01*
X140856488Y-83615229D02*
X141618393Y-83615229D01*
X141237441Y-83996181D02*
X141237441Y-83234276D01*
X144984174Y-59643343D02*
X144936555Y-59690962D01*
X144793698Y-59738581D01*
X144698460Y-59738581D01*
X144555602Y-59690962D01*
X144460364Y-59595724D01*
X144412745Y-59500486D01*
X144365126Y-59310010D01*
X144365126Y-59167152D01*
X144412745Y-58976676D01*
X144460364Y-58881438D01*
X144555602Y-58786200D01*
X144698460Y-58738581D01*
X144793698Y-58738581D01*
X144936555Y-58786200D01*
X144984174Y-58833819D01*
X145888936Y-58738581D02*
X145412745Y-58738581D01*
X145365126Y-59214771D01*
X145412745Y-59167152D01*
X145507983Y-59119533D01*
X145746079Y-59119533D01*
X145841317Y-59167152D01*
X145888936Y-59214771D01*
X145936555Y-59310010D01*
X145936555Y-59548105D01*
X145888936Y-59643343D01*
X145841317Y-59690962D01*
X145746079Y-59738581D01*
X145507983Y-59738581D01*
X145412745Y-59690962D01*
X145365126Y-59643343D01*
X62063334Y-77319143D02*
X62015715Y-77366762D01*
X61872858Y-77414381D01*
X61777620Y-77414381D01*
X61634762Y-77366762D01*
X61539524Y-77271524D01*
X61491905Y-77176286D01*
X61444286Y-76985810D01*
X61444286Y-76842952D01*
X61491905Y-76652476D01*
X61539524Y-76557238D01*
X61634762Y-76462000D01*
X61777620Y-76414381D01*
X61872858Y-76414381D01*
X62015715Y-76462000D01*
X62063334Y-76509619D01*
X62920477Y-76414381D02*
X62730000Y-76414381D01*
X62634762Y-76462000D01*
X62587143Y-76509619D01*
X62491905Y-76652476D01*
X62444286Y-76842952D01*
X62444286Y-77223905D01*
X62491905Y-77319143D01*
X62539524Y-77366762D01*
X62634762Y-77414381D01*
X62825239Y-77414381D01*
X62920477Y-77366762D01*
X62968096Y-77319143D01*
X63015715Y-77223905D01*
X63015715Y-76985810D01*
X62968096Y-76890571D01*
X62920477Y-76842952D01*
X62825239Y-76795333D01*
X62634762Y-76795333D01*
X62539524Y-76842952D01*
X62491905Y-76890571D01*
X62444286Y-76985810D01*
X140523934Y-64923943D02*
X140476315Y-64971562D01*
X140333458Y-65019181D01*
X140238220Y-65019181D01*
X140095362Y-64971562D01*
X140000124Y-64876324D01*
X139952505Y-64781086D01*
X139904886Y-64590610D01*
X139904886Y-64447752D01*
X139952505Y-64257276D01*
X140000124Y-64162038D01*
X140095362Y-64066800D01*
X140238220Y-64019181D01*
X140333458Y-64019181D01*
X140476315Y-64066800D01*
X140523934Y-64114419D01*
X140857267Y-64019181D02*
X141523934Y-64019181D01*
X141095362Y-65019181D01*
X140729488Y-68807029D02*
X141491393Y-68807029D01*
X141110441Y-69187981D02*
X141110441Y-68426076D01*
X85598974Y-55853543D02*
X85551355Y-55901162D01*
X85408498Y-55948781D01*
X85313260Y-55948781D01*
X85170402Y-55901162D01*
X85075164Y-55805924D01*
X85027545Y-55710686D01*
X84979926Y-55520210D01*
X84979926Y-55377352D01*
X85027545Y-55186876D01*
X85075164Y-55091638D01*
X85170402Y-54996400D01*
X85313260Y-54948781D01*
X85408498Y-54948781D01*
X85551355Y-54996400D01*
X85598974Y-55044019D01*
X86170402Y-55377352D02*
X86075164Y-55329733D01*
X86027545Y-55282114D01*
X85979926Y-55186876D01*
X85979926Y-55139257D01*
X86027545Y-55044019D01*
X86075164Y-54996400D01*
X86170402Y-54948781D01*
X86360879Y-54948781D01*
X86456117Y-54996400D01*
X86503736Y-55044019D01*
X86551355Y-55139257D01*
X86551355Y-55186876D01*
X86503736Y-55282114D01*
X86456117Y-55329733D01*
X86360879Y-55377352D01*
X86170402Y-55377352D01*
X86075164Y-55424971D01*
X86027545Y-55472590D01*
X85979926Y-55567829D01*
X85979926Y-55758305D01*
X86027545Y-55853543D01*
X86075164Y-55901162D01*
X86170402Y-55948781D01*
X86360879Y-55948781D01*
X86456117Y-55901162D01*
X86503736Y-55853543D01*
X86551355Y-55758305D01*
X86551355Y-55567829D01*
X86503736Y-55472590D01*
X86456117Y-55424971D01*
X86360879Y-55377352D01*
X85852974Y-58954943D02*
X85805355Y-59002562D01*
X85662498Y-59050181D01*
X85567260Y-59050181D01*
X85424402Y-59002562D01*
X85329164Y-58907324D01*
X85281545Y-58812086D01*
X85233926Y-58621610D01*
X85233926Y-58478752D01*
X85281545Y-58288276D01*
X85329164Y-58193038D01*
X85424402Y-58097800D01*
X85567260Y-58050181D01*
X85662498Y-58050181D01*
X85805355Y-58097800D01*
X85852974Y-58145419D01*
X86329164Y-59050181D02*
X86519640Y-59050181D01*
X86614879Y-59002562D01*
X86662498Y-58954943D01*
X86757736Y-58812086D01*
X86805355Y-58621610D01*
X86805355Y-58240657D01*
X86757736Y-58145419D01*
X86710117Y-58097800D01*
X86614879Y-58050181D01*
X86424402Y-58050181D01*
X86329164Y-58097800D01*
X86281545Y-58145419D01*
X86233926Y-58240657D01*
X86233926Y-58478752D01*
X86281545Y-58573990D01*
X86329164Y-58621610D01*
X86424402Y-58669229D01*
X86614879Y-58669229D01*
X86710117Y-58621610D01*
X86757736Y-58573990D01*
X86805355Y-58478752D01*
X71070743Y-77503257D02*
X71118362Y-77550876D01*
X71165981Y-77693733D01*
X71165981Y-77788971D01*
X71118362Y-77931829D01*
X71023124Y-78027067D01*
X70927886Y-78074686D01*
X70737410Y-78122305D01*
X70594552Y-78122305D01*
X70404076Y-78074686D01*
X70308838Y-78027067D01*
X70213600Y-77931829D01*
X70165981Y-77788971D01*
X70165981Y-77693733D01*
X70213600Y-77550876D01*
X70261219Y-77503257D01*
X71165981Y-76550876D02*
X71165981Y-77122305D01*
X71165981Y-76836591D02*
X70165981Y-76836591D01*
X70308838Y-76931829D01*
X70404076Y-77027067D01*
X70451695Y-77122305D01*
X70165981Y-75931829D02*
X70165981Y-75836590D01*
X70213600Y-75741352D01*
X70261219Y-75693733D01*
X70356457Y-75646114D01*
X70546933Y-75598495D01*
X70785029Y-75598495D01*
X70975505Y-75646114D01*
X71070743Y-75693733D01*
X71118362Y-75741352D01*
X71165981Y-75836590D01*
X71165981Y-75931829D01*
X71118362Y-76027067D01*
X71070743Y-76074686D01*
X70975505Y-76122305D01*
X70785029Y-76169924D01*
X70546933Y-76169924D01*
X70356457Y-76122305D01*
X70261219Y-76074686D01*
X70213600Y-76027067D01*
X70165981Y-75931829D01*
X79367143Y-77601143D02*
X79319524Y-77648762D01*
X79176667Y-77696381D01*
X79081429Y-77696381D01*
X78938571Y-77648762D01*
X78843333Y-77553524D01*
X78795714Y-77458286D01*
X78748095Y-77267810D01*
X78748095Y-77124952D01*
X78795714Y-76934476D01*
X78843333Y-76839238D01*
X78938571Y-76744000D01*
X79081429Y-76696381D01*
X79176667Y-76696381D01*
X79319524Y-76744000D01*
X79367143Y-76791619D01*
X80319524Y-77696381D02*
X79748095Y-77696381D01*
X80033809Y-77696381D02*
X80033809Y-76696381D01*
X79938571Y-76839238D01*
X79843333Y-76934476D01*
X79748095Y-76982095D01*
X81271905Y-77696381D02*
X80700476Y-77696381D01*
X80986190Y-77696381D02*
X80986190Y-76696381D01*
X80890952Y-76839238D01*
X80795714Y-76934476D01*
X80700476Y-76982095D01*
X122648743Y-64365143D02*
X122601124Y-64412762D01*
X122458267Y-64460381D01*
X122363029Y-64460381D01*
X122220171Y-64412762D01*
X122124933Y-64317524D01*
X122077314Y-64222286D01*
X122029695Y-64031810D01*
X122029695Y-63888952D01*
X122077314Y-63698476D01*
X122124933Y-63603238D01*
X122220171Y-63508000D01*
X122363029Y-63460381D01*
X122458267Y-63460381D01*
X122601124Y-63508000D01*
X122648743Y-63555619D01*
X123601124Y-64460381D02*
X123029695Y-64460381D01*
X123315409Y-64460381D02*
X123315409Y-63460381D01*
X123220171Y-63603238D01*
X123124933Y-63698476D01*
X123029695Y-63746095D01*
X123982076Y-63555619D02*
X124029695Y-63508000D01*
X124124933Y-63460381D01*
X124363029Y-63460381D01*
X124458267Y-63508000D01*
X124505886Y-63555619D01*
X124553505Y-63650857D01*
X124553505Y-63746095D01*
X124505886Y-63888952D01*
X123934457Y-64460381D01*
X124553505Y-64460381D01*
X138202943Y-65692257D02*
X138250562Y-65739876D01*
X138298181Y-65882733D01*
X138298181Y-65977971D01*
X138250562Y-66120829D01*
X138155324Y-66216067D01*
X138060086Y-66263686D01*
X137869610Y-66311305D01*
X137726752Y-66311305D01*
X137536276Y-66263686D01*
X137441038Y-66216067D01*
X137345800Y-66120829D01*
X137298181Y-65977971D01*
X137298181Y-65882733D01*
X137345800Y-65739876D01*
X137393419Y-65692257D01*
X138298181Y-64739876D02*
X138298181Y-65311305D01*
X138298181Y-65025591D02*
X137298181Y-65025591D01*
X137441038Y-65120829D01*
X137536276Y-65216067D01*
X137583895Y-65311305D01*
X137298181Y-64406543D02*
X137298181Y-63787495D01*
X137679133Y-64120829D01*
X137679133Y-63977971D01*
X137726752Y-63882733D01*
X137774371Y-63835114D01*
X137869610Y-63787495D01*
X138107705Y-63787495D01*
X138202943Y-63835114D01*
X138250562Y-63882733D01*
X138298181Y-63977971D01*
X138298181Y-64263686D01*
X138250562Y-64358924D01*
X138202943Y-64406543D01*
X85351383Y-62104543D02*
X85303764Y-62152162D01*
X85160907Y-62199781D01*
X85065669Y-62199781D01*
X84922811Y-62152162D01*
X84827573Y-62056924D01*
X84779954Y-61961686D01*
X84732335Y-61771210D01*
X84732335Y-61628352D01*
X84779954Y-61437876D01*
X84827573Y-61342638D01*
X84922811Y-61247400D01*
X85065669Y-61199781D01*
X85160907Y-61199781D01*
X85303764Y-61247400D01*
X85351383Y-61295019D01*
X86303764Y-62199781D02*
X85732335Y-62199781D01*
X86018049Y-62199781D02*
X86018049Y-61199781D01*
X85922811Y-61342638D01*
X85827573Y-61437876D01*
X85732335Y-61485495D01*
X87160907Y-61533114D02*
X87160907Y-62199781D01*
X86922811Y-61152162D02*
X86684716Y-61866448D01*
X87303764Y-61866448D01*
X64111143Y-84716857D02*
X64158762Y-84764476D01*
X64206381Y-84907333D01*
X64206381Y-85002571D01*
X64158762Y-85145429D01*
X64063524Y-85240667D01*
X63968286Y-85288286D01*
X63777810Y-85335905D01*
X63634952Y-85335905D01*
X63444476Y-85288286D01*
X63349238Y-85240667D01*
X63254000Y-85145429D01*
X63206381Y-85002571D01*
X63206381Y-84907333D01*
X63254000Y-84764476D01*
X63301619Y-84716857D01*
X64206381Y-83764476D02*
X64206381Y-84335905D01*
X64206381Y-84050191D02*
X63206381Y-84050191D01*
X63349238Y-84145429D01*
X63444476Y-84240667D01*
X63492095Y-84335905D01*
X63206381Y-82859714D02*
X63206381Y-83335905D01*
X63682571Y-83383524D01*
X63634952Y-83335905D01*
X63587333Y-83240667D01*
X63587333Y-83002571D01*
X63634952Y-82907333D01*
X63682571Y-82859714D01*
X63777810Y-82812095D01*
X64015905Y-82812095D01*
X64111143Y-82859714D01*
X64158762Y-82907333D01*
X64206381Y-83002571D01*
X64206381Y-83240667D01*
X64158762Y-83335905D01*
X64111143Y-83383524D01*
X122454943Y-66809857D02*
X122502562Y-66857476D01*
X122550181Y-67000333D01*
X122550181Y-67095571D01*
X122502562Y-67238429D01*
X122407324Y-67333667D01*
X122312086Y-67381286D01*
X122121610Y-67428905D01*
X121978752Y-67428905D01*
X121788276Y-67381286D01*
X121693038Y-67333667D01*
X121597800Y-67238429D01*
X121550181Y-67095571D01*
X121550181Y-67000333D01*
X121597800Y-66857476D01*
X121645419Y-66809857D01*
X122550181Y-65857476D02*
X122550181Y-66428905D01*
X122550181Y-66143191D02*
X121550181Y-66143191D01*
X121693038Y-66238429D01*
X121788276Y-66333667D01*
X121835895Y-66428905D01*
X121550181Y-65000333D02*
X121550181Y-65190810D01*
X121597800Y-65286048D01*
X121645419Y-65333667D01*
X121788276Y-65428905D01*
X121978752Y-65476524D01*
X122359705Y-65476524D01*
X122454943Y-65428905D01*
X122502562Y-65381286D01*
X122550181Y-65286048D01*
X122550181Y-65095571D01*
X122502562Y-65000333D01*
X122454943Y-64952714D01*
X122359705Y-64905095D01*
X122121610Y-64905095D01*
X122026371Y-64952714D01*
X121978752Y-65000333D01*
X121931133Y-65095571D01*
X121931133Y-65286048D01*
X121978752Y-65381286D01*
X122026371Y-65428905D01*
X122121610Y-65476524D01*
X91980783Y-63854543D02*
X91933164Y-63902162D01*
X91790307Y-63949781D01*
X91695069Y-63949781D01*
X91552211Y-63902162D01*
X91456973Y-63806924D01*
X91409354Y-63711686D01*
X91361735Y-63521210D01*
X91361735Y-63378352D01*
X91409354Y-63187876D01*
X91456973Y-63092638D01*
X91552211Y-62997400D01*
X91695069Y-62949781D01*
X91790307Y-62949781D01*
X91933164Y-62997400D01*
X91980783Y-63045019D01*
X92933164Y-63949781D02*
X92361735Y-63949781D01*
X92647449Y-63949781D02*
X92647449Y-62949781D01*
X92552211Y-63092638D01*
X92456973Y-63187876D01*
X92361735Y-63235495D01*
X93266497Y-62949781D02*
X93933164Y-62949781D01*
X93504592Y-63949781D01*
X67629143Y-83570857D02*
X67676762Y-83618476D01*
X67724381Y-83761333D01*
X67724381Y-83856571D01*
X67676762Y-83999429D01*
X67581524Y-84094667D01*
X67486286Y-84142286D01*
X67295810Y-84189905D01*
X67152952Y-84189905D01*
X66962476Y-84142286D01*
X66867238Y-84094667D01*
X66772000Y-83999429D01*
X66724381Y-83856571D01*
X66724381Y-83761333D01*
X66772000Y-83618476D01*
X66819619Y-83570857D01*
X67724381Y-82618476D02*
X67724381Y-83189905D01*
X67724381Y-82904191D02*
X66724381Y-82904191D01*
X66867238Y-82999429D01*
X66962476Y-83094667D01*
X67010095Y-83189905D01*
X67152952Y-82047048D02*
X67105333Y-82142286D01*
X67057714Y-82189905D01*
X66962476Y-82237524D01*
X66914857Y-82237524D01*
X66819619Y-82189905D01*
X66772000Y-82142286D01*
X66724381Y-82047048D01*
X66724381Y-81856571D01*
X66772000Y-81761333D01*
X66819619Y-81713714D01*
X66914857Y-81666095D01*
X66962476Y-81666095D01*
X67057714Y-81713714D01*
X67105333Y-81761333D01*
X67152952Y-81856571D01*
X67152952Y-82047048D01*
X67200571Y-82142286D01*
X67248190Y-82189905D01*
X67343429Y-82237524D01*
X67533905Y-82237524D01*
X67629143Y-82189905D01*
X67676762Y-82142286D01*
X67724381Y-82047048D01*
X67724381Y-81856571D01*
X67676762Y-81761333D01*
X67629143Y-81713714D01*
X67533905Y-81666095D01*
X67343429Y-81666095D01*
X67248190Y-81713714D01*
X67200571Y-81761333D01*
X67152952Y-81856571D01*
X124199983Y-72042257D02*
X124247602Y-72089876D01*
X124295221Y-72232733D01*
X124295221Y-72327971D01*
X124247602Y-72470829D01*
X124152364Y-72566067D01*
X124057126Y-72613686D01*
X123866650Y-72661305D01*
X123723792Y-72661305D01*
X123533316Y-72613686D01*
X123438078Y-72566067D01*
X123342840Y-72470829D01*
X123295221Y-72327971D01*
X123295221Y-72232733D01*
X123342840Y-72089876D01*
X123390459Y-72042257D01*
X124295221Y-71089876D02*
X124295221Y-71661305D01*
X124295221Y-71375591D02*
X123295221Y-71375591D01*
X123438078Y-71470829D01*
X123533316Y-71566067D01*
X123580935Y-71661305D01*
X124295221Y-70613686D02*
X124295221Y-70423210D01*
X124247602Y-70327971D01*
X124199983Y-70280352D01*
X124057126Y-70185114D01*
X123866650Y-70137495D01*
X123485697Y-70137495D01*
X123390459Y-70185114D01*
X123342840Y-70232733D01*
X123295221Y-70327971D01*
X123295221Y-70518448D01*
X123342840Y-70613686D01*
X123390459Y-70661305D01*
X123485697Y-70708924D01*
X123723792Y-70708924D01*
X123819030Y-70661305D01*
X123866650Y-70613686D01*
X123914269Y-70518448D01*
X123914269Y-70327971D01*
X123866650Y-70232733D01*
X123819030Y-70185114D01*
X123723792Y-70137495D01*
X103303283Y-61831457D02*
X103350902Y-61879076D01*
X103398521Y-62021933D01*
X103398521Y-62117171D01*
X103350902Y-62260029D01*
X103255664Y-62355267D01*
X103160426Y-62402886D01*
X102969950Y-62450505D01*
X102827092Y-62450505D01*
X102636616Y-62402886D01*
X102541378Y-62355267D01*
X102446140Y-62260029D01*
X102398521Y-62117171D01*
X102398521Y-62021933D01*
X102446140Y-61879076D01*
X102493759Y-61831457D01*
X102493759Y-61450505D02*
X102446140Y-61402886D01*
X102398521Y-61307648D01*
X102398521Y-61069552D01*
X102446140Y-60974314D01*
X102493759Y-60926695D01*
X102588997Y-60879076D01*
X102684235Y-60879076D01*
X102827092Y-60926695D01*
X103398521Y-61498124D01*
X103398521Y-60879076D01*
X102398521Y-60260029D02*
X102398521Y-60164790D01*
X102446140Y-60069552D01*
X102493759Y-60021933D01*
X102588997Y-59974314D01*
X102779473Y-59926695D01*
X103017569Y-59926695D01*
X103208045Y-59974314D01*
X103303283Y-60021933D01*
X103350902Y-60069552D01*
X103398521Y-60164790D01*
X103398521Y-60260029D01*
X103350902Y-60355267D01*
X103303283Y-60402886D01*
X103208045Y-60450505D01*
X103017569Y-60498124D01*
X102779473Y-60498124D01*
X102588997Y-60450505D01*
X102493759Y-60402886D01*
X102446140Y-60355267D01*
X102398521Y-60260029D01*
X74271903Y-91101183D02*
X74224284Y-91148802D01*
X74081427Y-91196421D01*
X73986189Y-91196421D01*
X73843331Y-91148802D01*
X73748093Y-91053564D01*
X73700474Y-90958326D01*
X73652855Y-90767850D01*
X73652855Y-90624992D01*
X73700474Y-90434516D01*
X73748093Y-90339278D01*
X73843331Y-90244040D01*
X73986189Y-90196421D01*
X74081427Y-90196421D01*
X74224284Y-90244040D01*
X74271903Y-90291659D01*
X74652855Y-90291659D02*
X74700474Y-90244040D01*
X74795712Y-90196421D01*
X75033808Y-90196421D01*
X75129046Y-90244040D01*
X75176665Y-90291659D01*
X75224284Y-90386897D01*
X75224284Y-90482135D01*
X75176665Y-90624992D01*
X74605236Y-91196421D01*
X75224284Y-91196421D01*
X76176665Y-91196421D02*
X75605236Y-91196421D01*
X75890950Y-91196421D02*
X75890950Y-90196421D01*
X75795712Y-90339278D01*
X75700474Y-90434516D01*
X75605236Y-90482135D01*
X98147143Y-56421257D02*
X98194762Y-56468876D01*
X98242381Y-56611733D01*
X98242381Y-56706971D01*
X98194762Y-56849829D01*
X98099524Y-56945067D01*
X98004286Y-56992686D01*
X97813810Y-57040305D01*
X97670952Y-57040305D01*
X97480476Y-56992686D01*
X97385238Y-56945067D01*
X97290000Y-56849829D01*
X97242381Y-56706971D01*
X97242381Y-56611733D01*
X97290000Y-56468876D01*
X97337619Y-56421257D01*
X97337619Y-56040305D02*
X97290000Y-55992686D01*
X97242381Y-55897448D01*
X97242381Y-55659352D01*
X97290000Y-55564114D01*
X97337619Y-55516495D01*
X97432857Y-55468876D01*
X97528095Y-55468876D01*
X97670952Y-55516495D01*
X98242381Y-56087924D01*
X98242381Y-55468876D01*
X97337619Y-55087924D02*
X97290000Y-55040305D01*
X97242381Y-54945067D01*
X97242381Y-54706971D01*
X97290000Y-54611733D01*
X97337619Y-54564114D01*
X97432857Y-54516495D01*
X97528095Y-54516495D01*
X97670952Y-54564114D01*
X98242381Y-55135543D01*
X98242381Y-54516495D01*
X79468743Y-84586083D02*
X79421124Y-84633702D01*
X79278267Y-84681321D01*
X79183029Y-84681321D01*
X79040171Y-84633702D01*
X78944933Y-84538464D01*
X78897314Y-84443226D01*
X78849695Y-84252750D01*
X78849695Y-84109892D01*
X78897314Y-83919416D01*
X78944933Y-83824178D01*
X79040171Y-83728940D01*
X79183029Y-83681321D01*
X79278267Y-83681321D01*
X79421124Y-83728940D01*
X79468743Y-83776559D01*
X79849695Y-83776559D02*
X79897314Y-83728940D01*
X79992552Y-83681321D01*
X80230648Y-83681321D01*
X80325886Y-83728940D01*
X80373505Y-83776559D01*
X80421124Y-83871797D01*
X80421124Y-83967035D01*
X80373505Y-84109892D01*
X79802076Y-84681321D01*
X80421124Y-84681321D01*
X80754457Y-83681321D02*
X81373505Y-83681321D01*
X81040171Y-84062273D01*
X81183029Y-84062273D01*
X81278267Y-84109892D01*
X81325886Y-84157511D01*
X81373505Y-84252750D01*
X81373505Y-84490845D01*
X81325886Y-84586083D01*
X81278267Y-84633702D01*
X81183029Y-84681321D01*
X80897314Y-84681321D01*
X80802076Y-84633702D01*
X80754457Y-84586083D01*
X131335543Y-78741543D02*
X131287924Y-78789162D01*
X131145067Y-78836781D01*
X131049829Y-78836781D01*
X130906971Y-78789162D01*
X130811733Y-78693924D01*
X130764114Y-78598686D01*
X130716495Y-78408210D01*
X130716495Y-78265352D01*
X130764114Y-78074876D01*
X130811733Y-77979638D01*
X130906971Y-77884400D01*
X131049829Y-77836781D01*
X131145067Y-77836781D01*
X131287924Y-77884400D01*
X131335543Y-77932019D01*
X131716495Y-77932019D02*
X131764114Y-77884400D01*
X131859352Y-77836781D01*
X132097448Y-77836781D01*
X132192686Y-77884400D01*
X132240305Y-77932019D01*
X132287924Y-78027257D01*
X132287924Y-78122495D01*
X132240305Y-78265352D01*
X131668876Y-78836781D01*
X132287924Y-78836781D01*
X133145067Y-78170114D02*
X133145067Y-78836781D01*
X132906971Y-77789162D02*
X132668876Y-78503448D01*
X133287924Y-78503448D01*
X133291343Y-73153543D02*
X133243724Y-73201162D01*
X133100867Y-73248781D01*
X133005629Y-73248781D01*
X132862771Y-73201162D01*
X132767533Y-73105924D01*
X132719914Y-73010686D01*
X132672295Y-72820210D01*
X132672295Y-72677352D01*
X132719914Y-72486876D01*
X132767533Y-72391638D01*
X132862771Y-72296400D01*
X133005629Y-72248781D01*
X133100867Y-72248781D01*
X133243724Y-72296400D01*
X133291343Y-72344019D01*
X133672295Y-72344019D02*
X133719914Y-72296400D01*
X133815152Y-72248781D01*
X134053248Y-72248781D01*
X134148486Y-72296400D01*
X134196105Y-72344019D01*
X134243724Y-72439257D01*
X134243724Y-72534495D01*
X134196105Y-72677352D01*
X133624676Y-73248781D01*
X134243724Y-73248781D01*
X135148486Y-72248781D02*
X134672295Y-72248781D01*
X134624676Y-72724971D01*
X134672295Y-72677352D01*
X134767533Y-72629733D01*
X135005629Y-72629733D01*
X135100867Y-72677352D01*
X135148486Y-72724971D01*
X135196105Y-72820210D01*
X135196105Y-73058305D01*
X135148486Y-73153543D01*
X135100867Y-73201162D01*
X135005629Y-73248781D01*
X134767533Y-73248781D01*
X134672295Y-73201162D01*
X134624676Y-73153543D01*
X87420783Y-75852257D02*
X87468402Y-75899876D01*
X87516021Y-76042733D01*
X87516021Y-76137971D01*
X87468402Y-76280829D01*
X87373164Y-76376067D01*
X87277926Y-76423686D01*
X87087450Y-76471305D01*
X86944592Y-76471305D01*
X86754116Y-76423686D01*
X86658878Y-76376067D01*
X86563640Y-76280829D01*
X86516021Y-76137971D01*
X86516021Y-76042733D01*
X86563640Y-75899876D01*
X86611259Y-75852257D01*
X86611259Y-75471305D02*
X86563640Y-75423686D01*
X86516021Y-75328448D01*
X86516021Y-75090352D01*
X86563640Y-74995114D01*
X86611259Y-74947495D01*
X86706497Y-74899876D01*
X86801735Y-74899876D01*
X86944592Y-74947495D01*
X87516021Y-75518924D01*
X87516021Y-74899876D01*
X86516021Y-74042733D02*
X86516021Y-74233210D01*
X86563640Y-74328448D01*
X86611259Y-74376067D01*
X86754116Y-74471305D01*
X86944592Y-74518924D01*
X87325545Y-74518924D01*
X87420783Y-74471305D01*
X87468402Y-74423686D01*
X87516021Y-74328448D01*
X87516021Y-74137971D01*
X87468402Y-74042733D01*
X87420783Y-73995114D01*
X87325545Y-73947495D01*
X87087450Y-73947495D01*
X86992211Y-73995114D01*
X86944592Y-74042733D01*
X86896973Y-74137971D01*
X86896973Y-74328448D01*
X86944592Y-74423686D01*
X86992211Y-74471305D01*
X87087450Y-74518924D01*
X98460323Y-76922963D02*
X98412704Y-76970582D01*
X98269847Y-77018201D01*
X98174609Y-77018201D01*
X98031751Y-76970582D01*
X97936513Y-76875344D01*
X97888894Y-76780106D01*
X97841275Y-76589630D01*
X97841275Y-76446772D01*
X97888894Y-76256296D01*
X97936513Y-76161058D01*
X98031751Y-76065820D01*
X98174609Y-76018201D01*
X98269847Y-76018201D01*
X98412704Y-76065820D01*
X98460323Y-76113439D01*
X98841275Y-76113439D02*
X98888894Y-76065820D01*
X98984132Y-76018201D01*
X99222228Y-76018201D01*
X99317466Y-76065820D01*
X99365085Y-76113439D01*
X99412704Y-76208677D01*
X99412704Y-76303915D01*
X99365085Y-76446772D01*
X98793656Y-77018201D01*
X99412704Y-77018201D01*
X99746037Y-76018201D02*
X100412704Y-76018201D01*
X99984132Y-77018201D01*
X127674643Y-81160857D02*
X127722262Y-81208476D01*
X127769881Y-81351333D01*
X127769881Y-81446571D01*
X127722262Y-81589429D01*
X127627024Y-81684667D01*
X127531786Y-81732286D01*
X127341310Y-81779905D01*
X127198452Y-81779905D01*
X127007976Y-81732286D01*
X126912738Y-81684667D01*
X126817500Y-81589429D01*
X126769881Y-81446571D01*
X126769881Y-81351333D01*
X126817500Y-81208476D01*
X126865119Y-81160857D01*
X126865119Y-80779905D02*
X126817500Y-80732286D01*
X126769881Y-80637048D01*
X126769881Y-80398952D01*
X126817500Y-80303714D01*
X126865119Y-80256095D01*
X126960357Y-80208476D01*
X127055595Y-80208476D01*
X127198452Y-80256095D01*
X127769881Y-80827524D01*
X127769881Y-80208476D01*
X127198452Y-79637048D02*
X127150833Y-79732286D01*
X127103214Y-79779905D01*
X127007976Y-79827524D01*
X126960357Y-79827524D01*
X126865119Y-79779905D01*
X126817500Y-79732286D01*
X126769881Y-79637048D01*
X126769881Y-79446571D01*
X126817500Y-79351333D01*
X126865119Y-79303714D01*
X126960357Y-79256095D01*
X127007976Y-79256095D01*
X127103214Y-79303714D01*
X127150833Y-79351333D01*
X127198452Y-79446571D01*
X127198452Y-79637048D01*
X127246071Y-79732286D01*
X127293690Y-79779905D01*
X127388929Y-79827524D01*
X127579405Y-79827524D01*
X127674643Y-79779905D01*
X127722262Y-79732286D01*
X127769881Y-79637048D01*
X127769881Y-79446571D01*
X127722262Y-79351333D01*
X127674643Y-79303714D01*
X127579405Y-79256095D01*
X127388929Y-79256095D01*
X127293690Y-79303714D01*
X127246071Y-79351333D01*
X127198452Y-79446571D01*
X95553863Y-64102217D02*
X95601482Y-64149836D01*
X95649101Y-64292693D01*
X95649101Y-64387931D01*
X95601482Y-64530789D01*
X95506244Y-64626027D01*
X95411006Y-64673646D01*
X95220530Y-64721265D01*
X95077672Y-64721265D01*
X94887196Y-64673646D01*
X94791958Y-64626027D01*
X94696720Y-64530789D01*
X94649101Y-64387931D01*
X94649101Y-64292693D01*
X94696720Y-64149836D01*
X94744339Y-64102217D01*
X94744339Y-63721265D02*
X94696720Y-63673646D01*
X94649101Y-63578408D01*
X94649101Y-63340312D01*
X94696720Y-63245074D01*
X94744339Y-63197455D01*
X94839577Y-63149836D01*
X94934815Y-63149836D01*
X95077672Y-63197455D01*
X95649101Y-63768884D01*
X95649101Y-63149836D01*
X95649101Y-62673646D02*
X95649101Y-62483170D01*
X95601482Y-62387931D01*
X95553863Y-62340312D01*
X95411006Y-62245074D01*
X95220530Y-62197455D01*
X94839577Y-62197455D01*
X94744339Y-62245074D01*
X94696720Y-62292693D01*
X94649101Y-62387931D01*
X94649101Y-62578408D01*
X94696720Y-62673646D01*
X94744339Y-62721265D01*
X94839577Y-62768884D01*
X95077672Y-62768884D01*
X95172910Y-62721265D01*
X95220530Y-62673646D01*
X95268149Y-62578408D01*
X95268149Y-62387931D01*
X95220530Y-62292693D01*
X95172910Y-62245074D01*
X95077672Y-62197455D01*
X96864383Y-75572857D02*
X96912002Y-75620476D01*
X96959621Y-75763333D01*
X96959621Y-75858571D01*
X96912002Y-76001429D01*
X96816764Y-76096667D01*
X96721526Y-76144286D01*
X96531050Y-76191905D01*
X96388192Y-76191905D01*
X96197716Y-76144286D01*
X96102478Y-76096667D01*
X96007240Y-76001429D01*
X95959621Y-75858571D01*
X95959621Y-75763333D01*
X96007240Y-75620476D01*
X96054859Y-75572857D01*
X95959621Y-75239524D02*
X95959621Y-74620476D01*
X96340573Y-74953810D01*
X96340573Y-74810952D01*
X96388192Y-74715714D01*
X96435811Y-74668095D01*
X96531050Y-74620476D01*
X96769145Y-74620476D01*
X96864383Y-74668095D01*
X96912002Y-74715714D01*
X96959621Y-74810952D01*
X96959621Y-75096667D01*
X96912002Y-75191905D01*
X96864383Y-75239524D01*
X95959621Y-74001429D02*
X95959621Y-73906190D01*
X96007240Y-73810952D01*
X96054859Y-73763333D01*
X96150097Y-73715714D01*
X96340573Y-73668095D01*
X96578669Y-73668095D01*
X96769145Y-73715714D01*
X96864383Y-73763333D01*
X96912002Y-73810952D01*
X96959621Y-73906190D01*
X96959621Y-74001429D01*
X96912002Y-74096667D01*
X96864383Y-74144286D01*
X96769145Y-74191905D01*
X96578669Y-74239524D01*
X96340573Y-74239524D01*
X96150097Y-74191905D01*
X96054859Y-74144286D01*
X96007240Y-74096667D01*
X95959621Y-74001429D01*
X138535683Y-82735657D02*
X138583302Y-82783276D01*
X138630921Y-82926133D01*
X138630921Y-83021371D01*
X138583302Y-83164229D01*
X138488064Y-83259467D01*
X138392826Y-83307086D01*
X138202350Y-83354705D01*
X138059492Y-83354705D01*
X137869016Y-83307086D01*
X137773778Y-83259467D01*
X137678540Y-83164229D01*
X137630921Y-83021371D01*
X137630921Y-82926133D01*
X137678540Y-82783276D01*
X137726159Y-82735657D01*
X137630921Y-82402324D02*
X137630921Y-81783276D01*
X138011873Y-82116610D01*
X138011873Y-81973752D01*
X138059492Y-81878514D01*
X138107111Y-81830895D01*
X138202350Y-81783276D01*
X138440445Y-81783276D01*
X138535683Y-81830895D01*
X138583302Y-81878514D01*
X138630921Y-81973752D01*
X138630921Y-82259467D01*
X138583302Y-82354705D01*
X138535683Y-82402324D01*
X138630921Y-80830895D02*
X138630921Y-81402324D01*
X138630921Y-81116610D02*
X137630921Y-81116610D01*
X137773778Y-81211848D01*
X137869016Y-81307086D01*
X137916635Y-81402324D01*
X97009983Y-70412943D02*
X96962364Y-70460562D01*
X96819507Y-70508181D01*
X96724269Y-70508181D01*
X96581411Y-70460562D01*
X96486173Y-70365324D01*
X96438554Y-70270086D01*
X96390935Y-70079610D01*
X96390935Y-69936752D01*
X96438554Y-69746276D01*
X96486173Y-69651038D01*
X96581411Y-69555800D01*
X96724269Y-69508181D01*
X96819507Y-69508181D01*
X96962364Y-69555800D01*
X97009983Y-69603419D01*
X97343316Y-69508181D02*
X97962364Y-69508181D01*
X97629030Y-69889133D01*
X97771888Y-69889133D01*
X97867126Y-69936752D01*
X97914745Y-69984371D01*
X97962364Y-70079610D01*
X97962364Y-70317705D01*
X97914745Y-70412943D01*
X97867126Y-70460562D01*
X97771888Y-70508181D01*
X97486173Y-70508181D01*
X97390935Y-70460562D01*
X97343316Y-70412943D01*
X98343316Y-69603419D02*
X98390935Y-69555800D01*
X98486173Y-69508181D01*
X98724269Y-69508181D01*
X98819507Y-69555800D01*
X98867126Y-69603419D01*
X98914745Y-69698657D01*
X98914745Y-69793895D01*
X98867126Y-69936752D01*
X98295697Y-70508181D01*
X98914745Y-70508181D01*
X137057343Y-90218497D02*
X137104962Y-90266116D01*
X137152581Y-90408973D01*
X137152581Y-90504211D01*
X137104962Y-90647069D01*
X137009724Y-90742307D01*
X136914486Y-90789926D01*
X136724010Y-90837545D01*
X136581152Y-90837545D01*
X136390676Y-90789926D01*
X136295438Y-90742307D01*
X136200200Y-90647069D01*
X136152581Y-90504211D01*
X136152581Y-90408973D01*
X136200200Y-90266116D01*
X136247819Y-90218497D01*
X136152581Y-89885164D02*
X136152581Y-89266116D01*
X136533533Y-89599450D01*
X136533533Y-89456592D01*
X136581152Y-89361354D01*
X136628771Y-89313735D01*
X136724010Y-89266116D01*
X136962105Y-89266116D01*
X137057343Y-89313735D01*
X137104962Y-89361354D01*
X137152581Y-89456592D01*
X137152581Y-89742307D01*
X137104962Y-89837545D01*
X137057343Y-89885164D01*
X136152581Y-88932783D02*
X136152581Y-88313735D01*
X136533533Y-88647069D01*
X136533533Y-88504211D01*
X136581152Y-88408973D01*
X136628771Y-88361354D01*
X136724010Y-88313735D01*
X136962105Y-88313735D01*
X137057343Y-88361354D01*
X137104962Y-88408973D01*
X137152581Y-88504211D01*
X137152581Y-88789926D01*
X137104962Y-88885164D01*
X137057343Y-88932783D01*
X81522783Y-145702257D02*
X81570402Y-145749876D01*
X81618021Y-145892733D01*
X81618021Y-145987971D01*
X81570402Y-146130829D01*
X81475164Y-146226067D01*
X81379926Y-146273686D01*
X81189450Y-146321305D01*
X81046592Y-146321305D01*
X80856116Y-146273686D01*
X80760878Y-146226067D01*
X80665640Y-146130829D01*
X80618021Y-145987971D01*
X80618021Y-145892733D01*
X80665640Y-145749876D01*
X80713259Y-145702257D01*
X80618021Y-145368924D02*
X80618021Y-144749876D01*
X80998973Y-145083210D01*
X80998973Y-144940352D01*
X81046592Y-144845114D01*
X81094211Y-144797495D01*
X81189450Y-144749876D01*
X81427545Y-144749876D01*
X81522783Y-144797495D01*
X81570402Y-144845114D01*
X81618021Y-144940352D01*
X81618021Y-145226067D01*
X81570402Y-145321305D01*
X81522783Y-145368924D01*
X80951354Y-143892733D02*
X81618021Y-143892733D01*
X80570402Y-144130829D02*
X81284688Y-144368924D01*
X81284688Y-143749876D01*
X83465943Y-145930857D02*
X83513562Y-145978476D01*
X83561181Y-146121333D01*
X83561181Y-146216571D01*
X83513562Y-146359429D01*
X83418324Y-146454667D01*
X83323086Y-146502286D01*
X83132610Y-146549905D01*
X82989752Y-146549905D01*
X82799276Y-146502286D01*
X82704038Y-146454667D01*
X82608800Y-146359429D01*
X82561181Y-146216571D01*
X82561181Y-146121333D01*
X82608800Y-145978476D01*
X82656419Y-145930857D01*
X82561181Y-145597524D02*
X82561181Y-144978476D01*
X82942133Y-145311810D01*
X82942133Y-145168952D01*
X82989752Y-145073714D01*
X83037371Y-145026095D01*
X83132610Y-144978476D01*
X83370705Y-144978476D01*
X83465943Y-145026095D01*
X83513562Y-145073714D01*
X83561181Y-145168952D01*
X83561181Y-145454667D01*
X83513562Y-145549905D01*
X83465943Y-145597524D01*
X82561181Y-144073714D02*
X82561181Y-144549905D01*
X83037371Y-144597524D01*
X82989752Y-144549905D01*
X82942133Y-144454667D01*
X82942133Y-144216571D01*
X82989752Y-144121333D01*
X83037371Y-144073714D01*
X83132610Y-144026095D01*
X83370705Y-144026095D01*
X83465943Y-144073714D01*
X83513562Y-144121333D01*
X83561181Y-144216571D01*
X83561181Y-144454667D01*
X83513562Y-144549905D01*
X83465943Y-144597524D01*
X100445783Y-146210257D02*
X100493402Y-146257876D01*
X100541021Y-146400733D01*
X100541021Y-146495971D01*
X100493402Y-146638829D01*
X100398164Y-146734067D01*
X100302926Y-146781686D01*
X100112450Y-146829305D01*
X99969592Y-146829305D01*
X99779116Y-146781686D01*
X99683878Y-146734067D01*
X99588640Y-146638829D01*
X99541021Y-146495971D01*
X99541021Y-146400733D01*
X99588640Y-146257876D01*
X99636259Y-146210257D01*
X99541021Y-145876924D02*
X99541021Y-145257876D01*
X99921973Y-145591210D01*
X99921973Y-145448352D01*
X99969592Y-145353114D01*
X100017211Y-145305495D01*
X100112450Y-145257876D01*
X100350545Y-145257876D01*
X100445783Y-145305495D01*
X100493402Y-145353114D01*
X100541021Y-145448352D01*
X100541021Y-145734067D01*
X100493402Y-145829305D01*
X100445783Y-145876924D01*
X99541021Y-144400733D02*
X99541021Y-144591210D01*
X99588640Y-144686448D01*
X99636259Y-144734067D01*
X99779116Y-144829305D01*
X99969592Y-144876924D01*
X100350545Y-144876924D01*
X100445783Y-144829305D01*
X100493402Y-144781686D01*
X100541021Y-144686448D01*
X100541021Y-144495971D01*
X100493402Y-144400733D01*
X100445783Y-144353114D01*
X100350545Y-144305495D01*
X100112450Y-144305495D01*
X100017211Y-144353114D01*
X99969592Y-144400733D01*
X99921973Y-144495971D01*
X99921973Y-144686448D01*
X99969592Y-144781686D01*
X100017211Y-144829305D01*
X100112450Y-144876924D01*
X119191803Y-77303903D02*
X119144184Y-77351522D01*
X119001327Y-77399141D01*
X118906089Y-77399141D01*
X118763231Y-77351522D01*
X118667993Y-77256284D01*
X118620374Y-77161046D01*
X118572755Y-76970570D01*
X118572755Y-76827712D01*
X118620374Y-76637236D01*
X118667993Y-76541998D01*
X118763231Y-76446760D01*
X118906089Y-76399141D01*
X119001327Y-76399141D01*
X119144184Y-76446760D01*
X119191803Y-76494379D01*
X119525136Y-76399141D02*
X120144184Y-76399141D01*
X119810850Y-76780093D01*
X119953708Y-76780093D01*
X120048946Y-76827712D01*
X120096565Y-76875331D01*
X120144184Y-76970570D01*
X120144184Y-77208665D01*
X120096565Y-77303903D01*
X120048946Y-77351522D01*
X119953708Y-77399141D01*
X119667993Y-77399141D01*
X119572755Y-77351522D01*
X119525136Y-77303903D01*
X120477517Y-76399141D02*
X121144184Y-76399141D01*
X120715612Y-77399141D01*
X143832343Y-113521703D02*
X143784724Y-113569322D01*
X143641867Y-113616941D01*
X143546629Y-113616941D01*
X143403771Y-113569322D01*
X143308533Y-113474084D01*
X143260914Y-113378846D01*
X143213295Y-113188370D01*
X143213295Y-113045512D01*
X143260914Y-112855036D01*
X143308533Y-112759798D01*
X143403771Y-112664560D01*
X143546629Y-112616941D01*
X143641867Y-112616941D01*
X143784724Y-112664560D01*
X143832343Y-112712179D01*
X144165676Y-112616941D02*
X144784724Y-112616941D01*
X144451390Y-112997893D01*
X144594248Y-112997893D01*
X144689486Y-113045512D01*
X144737105Y-113093131D01*
X144784724Y-113188370D01*
X144784724Y-113426465D01*
X144737105Y-113521703D01*
X144689486Y-113569322D01*
X144594248Y-113616941D01*
X144308533Y-113616941D01*
X144213295Y-113569322D01*
X144165676Y-113521703D01*
X145356152Y-113045512D02*
X145260914Y-112997893D01*
X145213295Y-112950274D01*
X145165676Y-112855036D01*
X145165676Y-112807417D01*
X145213295Y-112712179D01*
X145260914Y-112664560D01*
X145356152Y-112616941D01*
X145546629Y-112616941D01*
X145641867Y-112664560D01*
X145689486Y-112712179D01*
X145737105Y-112807417D01*
X145737105Y-112855036D01*
X145689486Y-112950274D01*
X145641867Y-112997893D01*
X145546629Y-113045512D01*
X145356152Y-113045512D01*
X145260914Y-113093131D01*
X145213295Y-113140750D01*
X145165676Y-113235989D01*
X145165676Y-113426465D01*
X145213295Y-113521703D01*
X145260914Y-113569322D01*
X145356152Y-113616941D01*
X145546629Y-113616941D01*
X145641867Y-113569322D01*
X145689486Y-113521703D01*
X145737105Y-113426465D01*
X145737105Y-113235989D01*
X145689486Y-113140750D01*
X145641867Y-113093131D01*
X145546629Y-113045512D01*
X58457143Y-94557143D02*
X58409524Y-94604762D01*
X58266667Y-94652381D01*
X58171429Y-94652381D01*
X58028571Y-94604762D01*
X57933333Y-94509524D01*
X57885714Y-94414286D01*
X57838095Y-94223810D01*
X57838095Y-94080952D01*
X57885714Y-93890476D01*
X57933333Y-93795238D01*
X58028571Y-93700000D01*
X58171429Y-93652381D01*
X58266667Y-93652381D01*
X58409524Y-93700000D01*
X58457143Y-93747619D01*
X58790476Y-93652381D02*
X59409524Y-93652381D01*
X59076190Y-94033333D01*
X59219048Y-94033333D01*
X59314286Y-94080952D01*
X59361905Y-94128571D01*
X59409524Y-94223810D01*
X59409524Y-94461905D01*
X59361905Y-94557143D01*
X59314286Y-94604762D01*
X59219048Y-94652381D01*
X58933333Y-94652381D01*
X58838095Y-94604762D01*
X58790476Y-94557143D01*
X59885714Y-94652381D02*
X60076190Y-94652381D01*
X60171429Y-94604762D01*
X60219048Y-94557143D01*
X60314286Y-94414286D01*
X60361905Y-94223810D01*
X60361905Y-93842857D01*
X60314286Y-93747619D01*
X60266667Y-93700000D01*
X60171429Y-93652381D01*
X59980952Y-93652381D01*
X59885714Y-93700000D01*
X59838095Y-93747619D01*
X59790476Y-93842857D01*
X59790476Y-94080952D01*
X59838095Y-94176190D01*
X59885714Y-94223810D01*
X59980952Y-94271429D01*
X60171429Y-94271429D01*
X60266667Y-94223810D01*
X60314286Y-94176190D01*
X60361905Y-94080952D01*
X113570783Y-94870543D02*
X113523164Y-94918162D01*
X113380307Y-94965781D01*
X113285069Y-94965781D01*
X113142211Y-94918162D01*
X113046973Y-94822924D01*
X112999354Y-94727686D01*
X112951735Y-94537210D01*
X112951735Y-94394352D01*
X112999354Y-94203876D01*
X113046973Y-94108638D01*
X113142211Y-94013400D01*
X113285069Y-93965781D01*
X113380307Y-93965781D01*
X113523164Y-94013400D01*
X113570783Y-94061019D01*
X114427926Y-94299114D02*
X114427926Y-94965781D01*
X114189830Y-93918162D02*
X113951735Y-94632448D01*
X114570783Y-94632448D01*
X115142211Y-93965781D02*
X115237450Y-93965781D01*
X115332688Y-94013400D01*
X115380307Y-94061019D01*
X115427926Y-94156257D01*
X115475545Y-94346733D01*
X115475545Y-94584829D01*
X115427926Y-94775305D01*
X115380307Y-94870543D01*
X115332688Y-94918162D01*
X115237450Y-94965781D01*
X115142211Y-94965781D01*
X115046973Y-94918162D01*
X114999354Y-94870543D01*
X114951735Y-94775305D01*
X114904116Y-94584829D01*
X114904116Y-94346733D01*
X114951735Y-94156257D01*
X114999354Y-94061019D01*
X115046973Y-94013400D01*
X115142211Y-93965781D01*
X86974443Y-67260743D02*
X86926824Y-67308362D01*
X86783967Y-67355981D01*
X86688729Y-67355981D01*
X86545871Y-67308362D01*
X86450633Y-67213124D01*
X86403014Y-67117886D01*
X86355395Y-66927410D01*
X86355395Y-66784552D01*
X86403014Y-66594076D01*
X86450633Y-66498838D01*
X86545871Y-66403600D01*
X86688729Y-66355981D01*
X86783967Y-66355981D01*
X86926824Y-66403600D01*
X86974443Y-66451219D01*
X87831586Y-66689314D02*
X87831586Y-67355981D01*
X87593490Y-66308362D02*
X87355395Y-67022648D01*
X87974443Y-67022648D01*
X88783967Y-66355981D02*
X88593490Y-66355981D01*
X88498252Y-66403600D01*
X88450633Y-66451219D01*
X88355395Y-66594076D01*
X88307776Y-66784552D01*
X88307776Y-67165505D01*
X88355395Y-67260743D01*
X88403014Y-67308362D01*
X88498252Y-67355981D01*
X88688729Y-67355981D01*
X88783967Y-67308362D01*
X88831586Y-67260743D01*
X88879205Y-67165505D01*
X88879205Y-66927410D01*
X88831586Y-66832171D01*
X88783967Y-66784552D01*
X88688729Y-66736933D01*
X88498252Y-66736933D01*
X88403014Y-66784552D01*
X88355395Y-66832171D01*
X88307776Y-66927410D01*
X134930643Y-132011657D02*
X134978262Y-132059276D01*
X135025881Y-132202133D01*
X135025881Y-132297371D01*
X134978262Y-132440229D01*
X134883024Y-132535467D01*
X134787786Y-132583086D01*
X134597310Y-132630705D01*
X134454452Y-132630705D01*
X134263976Y-132583086D01*
X134168738Y-132535467D01*
X134073500Y-132440229D01*
X134025881Y-132297371D01*
X134025881Y-132202133D01*
X134073500Y-132059276D01*
X134121119Y-132011657D01*
X134359214Y-131154514D02*
X135025881Y-131154514D01*
X133978262Y-131392610D02*
X134692548Y-131630705D01*
X134692548Y-131011657D01*
X134025881Y-130725943D02*
X134025881Y-130059276D01*
X135025881Y-130487848D01*
X136224929Y-128369752D02*
X136224929Y-127607847D01*
X136605881Y-127988799D02*
X135843976Y-127988799D01*
X142876543Y-128201657D02*
X142924162Y-128249276D01*
X142971781Y-128392133D01*
X142971781Y-128487371D01*
X142924162Y-128630229D01*
X142828924Y-128725467D01*
X142733686Y-128773086D01*
X142543210Y-128820705D01*
X142400352Y-128820705D01*
X142209876Y-128773086D01*
X142114638Y-128725467D01*
X142019400Y-128630229D01*
X141971781Y-128487371D01*
X141971781Y-128392133D01*
X142019400Y-128249276D01*
X142067019Y-128201657D01*
X142305114Y-127344514D02*
X142971781Y-127344514D01*
X141924162Y-127582610D02*
X142638448Y-127820705D01*
X142638448Y-127201657D01*
X142400352Y-126677848D02*
X142352733Y-126773086D01*
X142305114Y-126820705D01*
X142209876Y-126868324D01*
X142162257Y-126868324D01*
X142067019Y-126820705D01*
X142019400Y-126773086D01*
X141971781Y-126677848D01*
X141971781Y-126487371D01*
X142019400Y-126392133D01*
X142067019Y-126344514D01*
X142162257Y-126296895D01*
X142209876Y-126296895D01*
X142305114Y-126344514D01*
X142352733Y-126392133D01*
X142400352Y-126487371D01*
X142400352Y-126677848D01*
X142447971Y-126773086D01*
X142495590Y-126820705D01*
X142590829Y-126868324D01*
X142781305Y-126868324D01*
X142876543Y-126820705D01*
X142924162Y-126773086D01*
X142971781Y-126677848D01*
X142971781Y-126487371D01*
X142924162Y-126392133D01*
X142876543Y-126344514D01*
X142781305Y-126296895D01*
X142590829Y-126296895D01*
X142495590Y-126344514D01*
X142447971Y-126392133D01*
X142400352Y-126487371D01*
X75806561Y-59500995D02*
X74806561Y-59500995D01*
X74806561Y-59262900D01*
X74854180Y-59120042D01*
X74949418Y-59024804D01*
X75044656Y-58977185D01*
X75235132Y-58929566D01*
X75377990Y-58929566D01*
X75568466Y-58977185D01*
X75663704Y-59024804D01*
X75758942Y-59120042D01*
X75806561Y-59262900D01*
X75806561Y-59500995D01*
X75806561Y-57977185D02*
X75806561Y-58548614D01*
X75806561Y-58262900D02*
X74806561Y-58262900D01*
X74949418Y-58358138D01*
X75044656Y-58453376D01*
X75092275Y-58548614D01*
X64335921Y-59716895D02*
X63335921Y-59716895D01*
X63335921Y-59478800D01*
X63383540Y-59335942D01*
X63478778Y-59240704D01*
X63574016Y-59193085D01*
X63764492Y-59145466D01*
X63907350Y-59145466D01*
X64097826Y-59193085D01*
X64193064Y-59240704D01*
X64288302Y-59335942D01*
X64335921Y-59478800D01*
X64335921Y-59716895D01*
X63431159Y-58764514D02*
X63383540Y-58716895D01*
X63335921Y-58621657D01*
X63335921Y-58383561D01*
X63383540Y-58288323D01*
X63431159Y-58240704D01*
X63526397Y-58193085D01*
X63621635Y-58193085D01*
X63764492Y-58240704D01*
X64335921Y-58812133D01*
X64335921Y-58193085D01*
X134462781Y-61469495D02*
X133462781Y-61469495D01*
X133462781Y-61231400D01*
X133510400Y-61088542D01*
X133605638Y-60993304D01*
X133700876Y-60945685D01*
X133891352Y-60898066D01*
X134034210Y-60898066D01*
X134224686Y-60945685D01*
X134319924Y-60993304D01*
X134415162Y-61088542D01*
X134462781Y-61231400D01*
X134462781Y-61469495D01*
X133462781Y-60564733D02*
X133462781Y-59945685D01*
X133843733Y-60279019D01*
X133843733Y-60136161D01*
X133891352Y-60040923D01*
X133938971Y-59993304D01*
X134034210Y-59945685D01*
X134272305Y-59945685D01*
X134367543Y-59993304D01*
X134415162Y-60040923D01*
X134462781Y-60136161D01*
X134462781Y-60421876D01*
X134415162Y-60517114D01*
X134367543Y-60564733D01*
X126541305Y-58046881D02*
X126541305Y-57046881D01*
X126779400Y-57046881D01*
X126922258Y-57094500D01*
X127017496Y-57189738D01*
X127065115Y-57284976D01*
X127112734Y-57475452D01*
X127112734Y-57618310D01*
X127065115Y-57808786D01*
X127017496Y-57904024D01*
X126922258Y-57999262D01*
X126779400Y-58046881D01*
X126541305Y-58046881D01*
X127969877Y-57380214D02*
X127969877Y-58046881D01*
X127731781Y-56999262D02*
X127493686Y-57713548D01*
X128112734Y-57713548D01*
X144679374Y-85220381D02*
X144203183Y-85220381D01*
X144203183Y-84220381D01*
X145536517Y-85220381D02*
X144965088Y-85220381D01*
X145250802Y-85220381D02*
X145250802Y-84220381D01*
X145155564Y-84363238D01*
X145060326Y-84458476D01*
X144965088Y-84506095D01*
X58253334Y-97480381D02*
X57777143Y-97480381D01*
X57777143Y-96480381D01*
X58539048Y-96575619D02*
X58586667Y-96528000D01*
X58681905Y-96480381D01*
X58920001Y-96480381D01*
X59015239Y-96528000D01*
X59062858Y-96575619D01*
X59110477Y-96670857D01*
X59110477Y-96766095D01*
X59062858Y-96908952D01*
X58491429Y-97480381D01*
X59110477Y-97480381D01*
X104828021Y-55945066D02*
X104828021Y-56421257D01*
X103828021Y-56421257D01*
X103828021Y-55706971D02*
X103828021Y-55087923D01*
X104208973Y-55421257D01*
X104208973Y-55278399D01*
X104256592Y-55183161D01*
X104304211Y-55135542D01*
X104399450Y-55087923D01*
X104637545Y-55087923D01*
X104732783Y-55135542D01*
X104780402Y-55183161D01*
X104828021Y-55278399D01*
X104828021Y-55564114D01*
X104780402Y-55659352D01*
X104732783Y-55706971D01*
X84204381Y-82462666D02*
X84204381Y-82938857D01*
X83204381Y-82938857D01*
X83537714Y-81700761D02*
X84204381Y-81700761D01*
X83156762Y-81938857D02*
X83871048Y-82176952D01*
X83871048Y-81557904D01*
X138796021Y-75858666D02*
X138796021Y-76334857D01*
X137796021Y-76334857D01*
X137796021Y-75049142D02*
X137796021Y-75525333D01*
X138272211Y-75572952D01*
X138224592Y-75525333D01*
X138176973Y-75430095D01*
X138176973Y-75191999D01*
X138224592Y-75096761D01*
X138272211Y-75049142D01*
X138367450Y-75001523D01*
X138605545Y-75001523D01*
X138700783Y-75049142D01*
X138748402Y-75096761D01*
X138796021Y-75191999D01*
X138796021Y-75430095D01*
X138748402Y-75525333D01*
X138700783Y-75572952D01*
X83764381Y-99226666D02*
X83288190Y-99560000D01*
X83764381Y-99798095D02*
X82764381Y-99798095D01*
X82764381Y-99417142D01*
X82812000Y-99321904D01*
X82859619Y-99274285D01*
X82954857Y-99226666D01*
X83097714Y-99226666D01*
X83192952Y-99274285D01*
X83240571Y-99321904D01*
X83288190Y-99417142D01*
X83288190Y-99798095D01*
X83764381Y-98274285D02*
X83764381Y-98845714D01*
X83764381Y-98560000D02*
X82764381Y-98560000D01*
X82907238Y-98655238D01*
X83002476Y-98750476D01*
X83050095Y-98845714D01*
X80462381Y-99226666D02*
X79986190Y-99560000D01*
X80462381Y-99798095D02*
X79462381Y-99798095D01*
X79462381Y-99417142D01*
X79510000Y-99321904D01*
X79557619Y-99274285D01*
X79652857Y-99226666D01*
X79795714Y-99226666D01*
X79890952Y-99274285D01*
X79938571Y-99321904D01*
X79986190Y-99417142D01*
X79986190Y-99798095D01*
X79557619Y-98845714D02*
X79510000Y-98798095D01*
X79462381Y-98702857D01*
X79462381Y-98464761D01*
X79510000Y-98369523D01*
X79557619Y-98321904D01*
X79652857Y-98274285D01*
X79748095Y-98274285D01*
X79890952Y-98321904D01*
X80462381Y-98893333D01*
X80462381Y-98274285D01*
X148473421Y-71870866D02*
X147997230Y-72204200D01*
X148473421Y-72442295D02*
X147473421Y-72442295D01*
X147473421Y-72061342D01*
X147521040Y-71966104D01*
X147568659Y-71918485D01*
X147663897Y-71870866D01*
X147806754Y-71870866D01*
X147901992Y-71918485D01*
X147949611Y-71966104D01*
X147997230Y-72061342D01*
X147997230Y-72442295D01*
X147473421Y-71537533D02*
X147473421Y-70918485D01*
X147854373Y-71251819D01*
X147854373Y-71108961D01*
X147901992Y-71013723D01*
X147949611Y-70966104D01*
X148044850Y-70918485D01*
X148282945Y-70918485D01*
X148378183Y-70966104D01*
X148425802Y-71013723D01*
X148473421Y-71108961D01*
X148473421Y-71394676D01*
X148425802Y-71489914D01*
X148378183Y-71537533D01*
X125451574Y-90642701D02*
X125118240Y-90166510D01*
X124880145Y-90642701D02*
X124880145Y-89642701D01*
X125261098Y-89642701D01*
X125356336Y-89690320D01*
X125403955Y-89737939D01*
X125451574Y-89833177D01*
X125451574Y-89976034D01*
X125403955Y-90071272D01*
X125356336Y-90118891D01*
X125261098Y-90166510D01*
X124880145Y-90166510D01*
X126308717Y-89976034D02*
X126308717Y-90642701D01*
X126070621Y-89595082D02*
X125832526Y-90309368D01*
X126451574Y-90309368D01*
X79192381Y-72302666D02*
X78716190Y-72636000D01*
X79192381Y-72874095D02*
X78192381Y-72874095D01*
X78192381Y-72493142D01*
X78240000Y-72397904D01*
X78287619Y-72350285D01*
X78382857Y-72302666D01*
X78525714Y-72302666D01*
X78620952Y-72350285D01*
X78668571Y-72397904D01*
X78716190Y-72493142D01*
X78716190Y-72874095D01*
X78192381Y-71445523D02*
X78192381Y-71636000D01*
X78240000Y-71731238D01*
X78287619Y-71778857D01*
X78430476Y-71874095D01*
X78620952Y-71921714D01*
X79001905Y-71921714D01*
X79097143Y-71874095D01*
X79144762Y-71826476D01*
X79192381Y-71731238D01*
X79192381Y-71540761D01*
X79144762Y-71445523D01*
X79097143Y-71397904D01*
X79001905Y-71350285D01*
X78763810Y-71350285D01*
X78668571Y-71397904D01*
X78620952Y-71445523D01*
X78573333Y-71540761D01*
X78573333Y-71731238D01*
X78620952Y-71826476D01*
X78668571Y-71874095D01*
X78763810Y-71921714D01*
X114173974Y-88439781D02*
X113840640Y-87963590D01*
X113602545Y-88439781D02*
X113602545Y-87439781D01*
X113983498Y-87439781D01*
X114078736Y-87487400D01*
X114126355Y-87535019D01*
X114173974Y-87630257D01*
X114173974Y-87773114D01*
X114126355Y-87868352D01*
X114078736Y-87915971D01*
X113983498Y-87963590D01*
X113602545Y-87963590D01*
X114507307Y-87439781D02*
X115173974Y-87439781D01*
X114745402Y-88439781D01*
X74366381Y-75858666D02*
X73890190Y-76192000D01*
X74366381Y-76430095D02*
X73366381Y-76430095D01*
X73366381Y-76049142D01*
X73414000Y-75953904D01*
X73461619Y-75906285D01*
X73556857Y-75858666D01*
X73699714Y-75858666D01*
X73794952Y-75906285D01*
X73842571Y-75953904D01*
X73890190Y-76049142D01*
X73890190Y-76430095D01*
X73794952Y-75287238D02*
X73747333Y-75382476D01*
X73699714Y-75430095D01*
X73604476Y-75477714D01*
X73556857Y-75477714D01*
X73461619Y-75430095D01*
X73414000Y-75382476D01*
X73366381Y-75287238D01*
X73366381Y-75096761D01*
X73414000Y-75001523D01*
X73461619Y-74953904D01*
X73556857Y-74906285D01*
X73604476Y-74906285D01*
X73699714Y-74953904D01*
X73747333Y-75001523D01*
X73794952Y-75096761D01*
X73794952Y-75287238D01*
X73842571Y-75382476D01*
X73890190Y-75430095D01*
X73985429Y-75477714D01*
X74175905Y-75477714D01*
X74271143Y-75430095D01*
X74318762Y-75382476D01*
X74366381Y-75287238D01*
X74366381Y-75096761D01*
X74318762Y-75001523D01*
X74271143Y-74953904D01*
X74175905Y-74906285D01*
X73985429Y-74906285D01*
X73890190Y-74953904D01*
X73842571Y-75001523D01*
X73794952Y-75096761D01*
X80077014Y-95001341D02*
X79743680Y-94525150D01*
X79505585Y-95001341D02*
X79505585Y-94001341D01*
X79886538Y-94001341D01*
X79981776Y-94048960D01*
X80029395Y-94096579D01*
X80077014Y-94191817D01*
X80077014Y-94334674D01*
X80029395Y-94429912D01*
X79981776Y-94477531D01*
X79886538Y-94525150D01*
X79505585Y-94525150D01*
X80553204Y-95001341D02*
X80743680Y-95001341D01*
X80838919Y-94953722D01*
X80886538Y-94906103D01*
X80981776Y-94763246D01*
X81029395Y-94572770D01*
X81029395Y-94191817D01*
X80981776Y-94096579D01*
X80934157Y-94048960D01*
X80838919Y-94001341D01*
X80648442Y-94001341D01*
X80553204Y-94048960D01*
X80505585Y-94096579D01*
X80457966Y-94191817D01*
X80457966Y-94429912D01*
X80505585Y-94525150D01*
X80553204Y-94572770D01*
X80648442Y-94620389D01*
X80838919Y-94620389D01*
X80934157Y-94572770D01*
X80981776Y-94525150D01*
X81029395Y-94429912D01*
X113697783Y-91487781D02*
X113364449Y-91011590D01*
X113126354Y-91487781D02*
X113126354Y-90487781D01*
X113507307Y-90487781D01*
X113602545Y-90535400D01*
X113650164Y-90583019D01*
X113697783Y-90678257D01*
X113697783Y-90821114D01*
X113650164Y-90916352D01*
X113602545Y-90963971D01*
X113507307Y-91011590D01*
X113126354Y-91011590D01*
X114650164Y-91487781D02*
X114078735Y-91487781D01*
X114364449Y-91487781D02*
X114364449Y-90487781D01*
X114269211Y-90630638D01*
X114173973Y-90725876D01*
X114078735Y-90773495D01*
X115269211Y-90487781D02*
X115364450Y-90487781D01*
X115459688Y-90535400D01*
X115507307Y-90583019D01*
X115554926Y-90678257D01*
X115602545Y-90868733D01*
X115602545Y-91106829D01*
X115554926Y-91297305D01*
X115507307Y-91392543D01*
X115459688Y-91440162D01*
X115364450Y-91487781D01*
X115269211Y-91487781D01*
X115173973Y-91440162D01*
X115126354Y-91392543D01*
X115078735Y-91297305D01*
X115031116Y-91106829D01*
X115031116Y-90868733D01*
X115078735Y-90678257D01*
X115126354Y-90583019D01*
X115173973Y-90535400D01*
X115269211Y-90487781D01*
X76197223Y-63637421D02*
X75863889Y-63161230D01*
X75625794Y-63637421D02*
X75625794Y-62637421D01*
X76006747Y-62637421D01*
X76101985Y-62685040D01*
X76149604Y-62732659D01*
X76197223Y-62827897D01*
X76197223Y-62970754D01*
X76149604Y-63065992D01*
X76101985Y-63113611D01*
X76006747Y-63161230D01*
X75625794Y-63161230D01*
X77149604Y-63637421D02*
X76578175Y-63637421D01*
X76863889Y-63637421D02*
X76863889Y-62637421D01*
X76768651Y-62780278D01*
X76673413Y-62875516D01*
X76578175Y-62923135D01*
X78101985Y-63637421D02*
X77530556Y-63637421D01*
X77816270Y-63637421D02*
X77816270Y-62637421D01*
X77721032Y-62780278D01*
X77625794Y-62875516D01*
X77530556Y-62923135D01*
X80716381Y-62110857D02*
X80240190Y-62444191D01*
X80716381Y-62682286D02*
X79716381Y-62682286D01*
X79716381Y-62301333D01*
X79764000Y-62206095D01*
X79811619Y-62158476D01*
X79906857Y-62110857D01*
X80049714Y-62110857D01*
X80144952Y-62158476D01*
X80192571Y-62206095D01*
X80240190Y-62301333D01*
X80240190Y-62682286D01*
X80716381Y-61158476D02*
X80716381Y-61729905D01*
X80716381Y-61444191D02*
X79716381Y-61444191D01*
X79859238Y-61539429D01*
X79954476Y-61634667D01*
X80002095Y-61729905D01*
X79811619Y-60777524D02*
X79764000Y-60729905D01*
X79716381Y-60634667D01*
X79716381Y-60396571D01*
X79764000Y-60301333D01*
X79811619Y-60253714D01*
X79906857Y-60206095D01*
X80002095Y-60206095D01*
X80144952Y-60253714D01*
X80716381Y-60825143D01*
X80716381Y-60206095D01*
X80716381Y-56522857D02*
X80240190Y-56856191D01*
X80716381Y-57094286D02*
X79716381Y-57094286D01*
X79716381Y-56713333D01*
X79764000Y-56618095D01*
X79811619Y-56570476D01*
X79906857Y-56522857D01*
X80049714Y-56522857D01*
X80144952Y-56570476D01*
X80192571Y-56618095D01*
X80240190Y-56713333D01*
X80240190Y-57094286D01*
X80716381Y-55570476D02*
X80716381Y-56141905D01*
X80716381Y-55856191D02*
X79716381Y-55856191D01*
X79859238Y-55951429D01*
X79954476Y-56046667D01*
X80002095Y-56141905D01*
X79716381Y-55237143D02*
X79716381Y-54618095D01*
X80097333Y-54951429D01*
X80097333Y-54808571D01*
X80144952Y-54713333D01*
X80192571Y-54665714D01*
X80287810Y-54618095D01*
X80525905Y-54618095D01*
X80621143Y-54665714D01*
X80668762Y-54713333D01*
X80716381Y-54808571D01*
X80716381Y-55094286D01*
X80668762Y-55189524D01*
X80621143Y-55237143D01*
X79570343Y-91358981D02*
X79237009Y-90882790D01*
X78998914Y-91358981D02*
X78998914Y-90358981D01*
X79379867Y-90358981D01*
X79475105Y-90406600D01*
X79522724Y-90454219D01*
X79570343Y-90549457D01*
X79570343Y-90692314D01*
X79522724Y-90787552D01*
X79475105Y-90835171D01*
X79379867Y-90882790D01*
X78998914Y-90882790D01*
X80522724Y-91358981D02*
X79951295Y-91358981D01*
X80237009Y-91358981D02*
X80237009Y-90358981D01*
X80141771Y-90501838D01*
X80046533Y-90597076D01*
X79951295Y-90644695D01*
X81379867Y-90692314D02*
X81379867Y-91358981D01*
X81141771Y-90311362D02*
X80903676Y-91025648D01*
X81522724Y-91025648D01*
X60571143Y-80540381D02*
X60237809Y-80064190D01*
X59999714Y-80540381D02*
X59999714Y-79540381D01*
X60380667Y-79540381D01*
X60475905Y-79588000D01*
X60523524Y-79635619D01*
X60571143Y-79730857D01*
X60571143Y-79873714D01*
X60523524Y-79968952D01*
X60475905Y-80016571D01*
X60380667Y-80064190D01*
X59999714Y-80064190D01*
X61523524Y-80540381D02*
X60952095Y-80540381D01*
X61237809Y-80540381D02*
X61237809Y-79540381D01*
X61142571Y-79683238D01*
X61047333Y-79778476D01*
X60952095Y-79826095D01*
X62428286Y-79540381D02*
X61952095Y-79540381D01*
X61904476Y-80016571D01*
X61952095Y-79968952D01*
X62047333Y-79921333D01*
X62285429Y-79921333D01*
X62380667Y-79968952D01*
X62428286Y-80016571D01*
X62475905Y-80111810D01*
X62475905Y-80349905D01*
X62428286Y-80445143D01*
X62380667Y-80492762D01*
X62285429Y-80540381D01*
X62047333Y-80540381D01*
X61952095Y-80492762D01*
X61904476Y-80445143D01*
X57957143Y-87302381D02*
X57623809Y-86826190D01*
X57385714Y-87302381D02*
X57385714Y-86302381D01*
X57766667Y-86302381D01*
X57861905Y-86350000D01*
X57909524Y-86397619D01*
X57957143Y-86492857D01*
X57957143Y-86635714D01*
X57909524Y-86730952D01*
X57861905Y-86778571D01*
X57766667Y-86826190D01*
X57385714Y-86826190D01*
X58909524Y-87302381D02*
X58338095Y-87302381D01*
X58623809Y-87302381D02*
X58623809Y-86302381D01*
X58528571Y-86445238D01*
X58433333Y-86540476D01*
X58338095Y-86588095D01*
X59766667Y-86302381D02*
X59576190Y-86302381D01*
X59480952Y-86350000D01*
X59433333Y-86397619D01*
X59338095Y-86540476D01*
X59290476Y-86730952D01*
X59290476Y-87111905D01*
X59338095Y-87207143D01*
X59385714Y-87254762D01*
X59480952Y-87302381D01*
X59671429Y-87302381D01*
X59766667Y-87254762D01*
X59814286Y-87207143D01*
X59861905Y-87111905D01*
X59861905Y-86873810D01*
X59814286Y-86778571D01*
X59766667Y-86730952D01*
X59671429Y-86683333D01*
X59480952Y-86683333D01*
X59385714Y-86730952D01*
X59338095Y-86778571D01*
X59290476Y-86873810D01*
X122753381Y-61348857D02*
X122277190Y-61682191D01*
X122753381Y-61920286D02*
X121753381Y-61920286D01*
X121753381Y-61539333D01*
X121801000Y-61444095D01*
X121848619Y-61396476D01*
X121943857Y-61348857D01*
X122086714Y-61348857D01*
X122181952Y-61396476D01*
X122229571Y-61444095D01*
X122277190Y-61539333D01*
X122277190Y-61920286D01*
X122753381Y-60396476D02*
X122753381Y-60967905D01*
X122753381Y-60682191D02*
X121753381Y-60682191D01*
X121896238Y-60777429D01*
X121991476Y-60872667D01*
X122039095Y-60967905D01*
X121753381Y-60063143D02*
X121753381Y-59396476D01*
X122753381Y-59825048D01*
X130767081Y-62771257D02*
X130290890Y-63104591D01*
X130767081Y-63342686D02*
X129767081Y-63342686D01*
X129767081Y-62961733D01*
X129814700Y-62866495D01*
X129862319Y-62818876D01*
X129957557Y-62771257D01*
X130100414Y-62771257D01*
X130195652Y-62818876D01*
X130243271Y-62866495D01*
X130290890Y-62961733D01*
X130290890Y-63342686D01*
X130767081Y-61818876D02*
X130767081Y-62390305D01*
X130767081Y-62104591D02*
X129767081Y-62104591D01*
X129909938Y-62199829D01*
X130005176Y-62295067D01*
X130052795Y-62390305D01*
X130195652Y-61247448D02*
X130148033Y-61342686D01*
X130100414Y-61390305D01*
X130005176Y-61437924D01*
X129957557Y-61437924D01*
X129862319Y-61390305D01*
X129814700Y-61342686D01*
X129767081Y-61247448D01*
X129767081Y-61056971D01*
X129814700Y-60961733D01*
X129862319Y-60914114D01*
X129957557Y-60866495D01*
X130005176Y-60866495D01*
X130100414Y-60914114D01*
X130148033Y-60961733D01*
X130195652Y-61056971D01*
X130195652Y-61247448D01*
X130243271Y-61342686D01*
X130290890Y-61390305D01*
X130386129Y-61437924D01*
X130576605Y-61437924D01*
X130671843Y-61390305D01*
X130719462Y-61342686D01*
X130767081Y-61247448D01*
X130767081Y-61056971D01*
X130719462Y-60961733D01*
X130671843Y-60914114D01*
X130576605Y-60866495D01*
X130386129Y-60866495D01*
X130290890Y-60914114D01*
X130243271Y-60961733D01*
X130195652Y-61056971D01*
X86164183Y-65527181D02*
X85830849Y-65050990D01*
X85592754Y-65527181D02*
X85592754Y-64527181D01*
X85973707Y-64527181D01*
X86068945Y-64574800D01*
X86116564Y-64622419D01*
X86164183Y-64717657D01*
X86164183Y-64860514D01*
X86116564Y-64955752D01*
X86068945Y-65003371D01*
X85973707Y-65050990D01*
X85592754Y-65050990D01*
X87116564Y-65527181D02*
X86545135Y-65527181D01*
X86830849Y-65527181D02*
X86830849Y-64527181D01*
X86735611Y-64670038D01*
X86640373Y-64765276D01*
X86545135Y-64812895D01*
X87592754Y-65527181D02*
X87783230Y-65527181D01*
X87878469Y-65479562D01*
X87926088Y-65431943D01*
X88021326Y-65289086D01*
X88068945Y-65098610D01*
X88068945Y-64717657D01*
X88021326Y-64622419D01*
X87973707Y-64574800D01*
X87878469Y-64527181D01*
X87687992Y-64527181D01*
X87592754Y-64574800D01*
X87545135Y-64622419D01*
X87497516Y-64717657D01*
X87497516Y-64955752D01*
X87545135Y-65050990D01*
X87592754Y-65098610D01*
X87687992Y-65146229D01*
X87878469Y-65146229D01*
X87973707Y-65098610D01*
X88021326Y-65050990D01*
X88068945Y-64955752D01*
X79875143Y-81478381D02*
X79541809Y-81002190D01*
X79303714Y-81478381D02*
X79303714Y-80478381D01*
X79684667Y-80478381D01*
X79779905Y-80526000D01*
X79827524Y-80573619D01*
X79875143Y-80668857D01*
X79875143Y-80811714D01*
X79827524Y-80906952D01*
X79779905Y-80954571D01*
X79684667Y-81002190D01*
X79303714Y-81002190D01*
X80256095Y-80573619D02*
X80303714Y-80526000D01*
X80398952Y-80478381D01*
X80637048Y-80478381D01*
X80732286Y-80526000D01*
X80779905Y-80573619D01*
X80827524Y-80668857D01*
X80827524Y-80764095D01*
X80779905Y-80906952D01*
X80208476Y-81478381D01*
X80827524Y-81478381D01*
X81446571Y-80478381D02*
X81541810Y-80478381D01*
X81637048Y-80526000D01*
X81684667Y-80573619D01*
X81732286Y-80668857D01*
X81779905Y-80859333D01*
X81779905Y-81097429D01*
X81732286Y-81287905D01*
X81684667Y-81383143D01*
X81637048Y-81430762D01*
X81541810Y-81478381D01*
X81446571Y-81478381D01*
X81351333Y-81430762D01*
X81303714Y-81383143D01*
X81256095Y-81287905D01*
X81208476Y-81097429D01*
X81208476Y-80859333D01*
X81256095Y-80668857D01*
X81303714Y-80573619D01*
X81351333Y-80526000D01*
X81446571Y-80478381D01*
X124658381Y-80525857D02*
X124182190Y-80859191D01*
X124658381Y-81097286D02*
X123658381Y-81097286D01*
X123658381Y-80716333D01*
X123706000Y-80621095D01*
X123753619Y-80573476D01*
X123848857Y-80525857D01*
X123991714Y-80525857D01*
X124086952Y-80573476D01*
X124134571Y-80621095D01*
X124182190Y-80716333D01*
X124182190Y-81097286D01*
X123753619Y-80144905D02*
X123706000Y-80097286D01*
X123658381Y-80002048D01*
X123658381Y-79763952D01*
X123706000Y-79668714D01*
X123753619Y-79621095D01*
X123848857Y-79573476D01*
X123944095Y-79573476D01*
X124086952Y-79621095D01*
X124658381Y-80192524D01*
X124658381Y-79573476D01*
X124658381Y-78621095D02*
X124658381Y-79192524D01*
X124658381Y-78906810D02*
X123658381Y-78906810D01*
X123801238Y-79002048D01*
X123896476Y-79097286D01*
X123944095Y-79192524D01*
X89491583Y-81402181D02*
X89158249Y-80925990D01*
X88920154Y-81402181D02*
X88920154Y-80402181D01*
X89301107Y-80402181D01*
X89396345Y-80449800D01*
X89443964Y-80497419D01*
X89491583Y-80592657D01*
X89491583Y-80735514D01*
X89443964Y-80830752D01*
X89396345Y-80878371D01*
X89301107Y-80925990D01*
X88920154Y-80925990D01*
X89872535Y-80497419D02*
X89920154Y-80449800D01*
X90015392Y-80402181D01*
X90253488Y-80402181D01*
X90348726Y-80449800D01*
X90396345Y-80497419D01*
X90443964Y-80592657D01*
X90443964Y-80687895D01*
X90396345Y-80830752D01*
X89824916Y-81402181D01*
X90443964Y-81402181D01*
X90824916Y-80497419D02*
X90872535Y-80449800D01*
X90967773Y-80402181D01*
X91205869Y-80402181D01*
X91301107Y-80449800D01*
X91348726Y-80497419D01*
X91396345Y-80592657D01*
X91396345Y-80687895D01*
X91348726Y-80830752D01*
X90777297Y-81402181D01*
X91396345Y-81402181D01*
X95206583Y-82951581D02*
X94873249Y-82475390D01*
X94635154Y-82951581D02*
X94635154Y-81951581D01*
X95016107Y-81951581D01*
X95111345Y-81999200D01*
X95158964Y-82046819D01*
X95206583Y-82142057D01*
X95206583Y-82284914D01*
X95158964Y-82380152D01*
X95111345Y-82427771D01*
X95016107Y-82475390D01*
X94635154Y-82475390D01*
X95587535Y-82046819D02*
X95635154Y-81999200D01*
X95730392Y-81951581D01*
X95968488Y-81951581D01*
X96063726Y-81999200D01*
X96111345Y-82046819D01*
X96158964Y-82142057D01*
X96158964Y-82237295D01*
X96111345Y-82380152D01*
X95539916Y-82951581D01*
X96158964Y-82951581D01*
X96492297Y-81951581D02*
X97111345Y-81951581D01*
X96778011Y-82332533D01*
X96920869Y-82332533D01*
X97016107Y-82380152D01*
X97063726Y-82427771D01*
X97111345Y-82523010D01*
X97111345Y-82761105D01*
X97063726Y-82856343D01*
X97016107Y-82903962D01*
X96920869Y-82951581D01*
X96635154Y-82951581D01*
X96539916Y-82903962D01*
X96492297Y-82856343D01*
X124494021Y-84589857D02*
X124017830Y-84923191D01*
X124494021Y-85161286D02*
X123494021Y-85161286D01*
X123494021Y-84780333D01*
X123541640Y-84685095D01*
X123589259Y-84637476D01*
X123684497Y-84589857D01*
X123827354Y-84589857D01*
X123922592Y-84637476D01*
X123970211Y-84685095D01*
X124017830Y-84780333D01*
X124017830Y-85161286D01*
X123589259Y-84208905D02*
X123541640Y-84161286D01*
X123494021Y-84066048D01*
X123494021Y-83827952D01*
X123541640Y-83732714D01*
X123589259Y-83685095D01*
X123684497Y-83637476D01*
X123779735Y-83637476D01*
X123922592Y-83685095D01*
X124494021Y-84256524D01*
X124494021Y-83637476D01*
X123827354Y-82780333D02*
X124494021Y-82780333D01*
X123446402Y-83018429D02*
X124160688Y-83256524D01*
X124160688Y-82637476D01*
X83806821Y-69121257D02*
X83330630Y-69454591D01*
X83806821Y-69692686D02*
X82806821Y-69692686D01*
X82806821Y-69311733D01*
X82854440Y-69216495D01*
X82902059Y-69168876D01*
X82997297Y-69121257D01*
X83140154Y-69121257D01*
X83235392Y-69168876D01*
X83283011Y-69216495D01*
X83330630Y-69311733D01*
X83330630Y-69692686D01*
X82902059Y-68740305D02*
X82854440Y-68692686D01*
X82806821Y-68597448D01*
X82806821Y-68359352D01*
X82854440Y-68264114D01*
X82902059Y-68216495D01*
X82997297Y-68168876D01*
X83092535Y-68168876D01*
X83235392Y-68216495D01*
X83806821Y-68787924D01*
X83806821Y-68168876D01*
X82806821Y-67264114D02*
X82806821Y-67740305D01*
X83283011Y-67787924D01*
X83235392Y-67740305D01*
X83187773Y-67645067D01*
X83187773Y-67406971D01*
X83235392Y-67311733D01*
X83283011Y-67264114D01*
X83378250Y-67216495D01*
X83616345Y-67216495D01*
X83711583Y-67264114D01*
X83759202Y-67311733D01*
X83806821Y-67406971D01*
X83806821Y-67645067D01*
X83759202Y-67740305D01*
X83711583Y-67787924D01*
X93633021Y-75852257D02*
X93156830Y-76185591D01*
X93633021Y-76423686D02*
X92633021Y-76423686D01*
X92633021Y-76042733D01*
X92680640Y-75947495D01*
X92728259Y-75899876D01*
X92823497Y-75852257D01*
X92966354Y-75852257D01*
X93061592Y-75899876D01*
X93109211Y-75947495D01*
X93156830Y-76042733D01*
X93156830Y-76423686D01*
X92728259Y-75471305D02*
X92680640Y-75423686D01*
X92633021Y-75328448D01*
X92633021Y-75090352D01*
X92680640Y-74995114D01*
X92728259Y-74947495D01*
X92823497Y-74899876D01*
X92918735Y-74899876D01*
X93061592Y-74947495D01*
X93633021Y-75518924D01*
X93633021Y-74899876D01*
X92633021Y-74042733D02*
X92633021Y-74233210D01*
X92680640Y-74328448D01*
X92728259Y-74376067D01*
X92871116Y-74471305D01*
X93061592Y-74518924D01*
X93442545Y-74518924D01*
X93537783Y-74471305D01*
X93585402Y-74423686D01*
X93633021Y-74328448D01*
X93633021Y-74137971D01*
X93585402Y-74042733D01*
X93537783Y-73995114D01*
X93442545Y-73947495D01*
X93204450Y-73947495D01*
X93109211Y-73995114D01*
X93061592Y-74042733D01*
X93013973Y-74137971D01*
X93013973Y-74328448D01*
X93061592Y-74423686D01*
X93109211Y-74471305D01*
X93204450Y-74518924D01*
X127962921Y-84589857D02*
X127486730Y-84923191D01*
X127962921Y-85161286D02*
X126962921Y-85161286D01*
X126962921Y-84780333D01*
X127010540Y-84685095D01*
X127058159Y-84637476D01*
X127153397Y-84589857D01*
X127296254Y-84589857D01*
X127391492Y-84637476D01*
X127439111Y-84685095D01*
X127486730Y-84780333D01*
X127486730Y-85161286D01*
X127058159Y-84208905D02*
X127010540Y-84161286D01*
X126962921Y-84066048D01*
X126962921Y-83827952D01*
X127010540Y-83732714D01*
X127058159Y-83685095D01*
X127153397Y-83637476D01*
X127248635Y-83637476D01*
X127391492Y-83685095D01*
X127962921Y-84256524D01*
X127962921Y-83637476D01*
X126962921Y-83304143D02*
X126962921Y-82637476D01*
X127962921Y-83066048D01*
X102577663Y-92114101D02*
X102244329Y-91637910D01*
X102006234Y-92114101D02*
X102006234Y-91114101D01*
X102387187Y-91114101D01*
X102482425Y-91161720D01*
X102530044Y-91209339D01*
X102577663Y-91304577D01*
X102577663Y-91447434D01*
X102530044Y-91542672D01*
X102482425Y-91590291D01*
X102387187Y-91637910D01*
X102006234Y-91637910D01*
X102958615Y-91209339D02*
X103006234Y-91161720D01*
X103101472Y-91114101D01*
X103339568Y-91114101D01*
X103434806Y-91161720D01*
X103482425Y-91209339D01*
X103530044Y-91304577D01*
X103530044Y-91399815D01*
X103482425Y-91542672D01*
X102910996Y-92114101D01*
X103530044Y-92114101D01*
X104101472Y-91542672D02*
X104006234Y-91495053D01*
X103958615Y-91447434D01*
X103910996Y-91352196D01*
X103910996Y-91304577D01*
X103958615Y-91209339D01*
X104006234Y-91161720D01*
X104101472Y-91114101D01*
X104291949Y-91114101D01*
X104387187Y-91161720D01*
X104434806Y-91209339D01*
X104482425Y-91304577D01*
X104482425Y-91352196D01*
X104434806Y-91447434D01*
X104387187Y-91495053D01*
X104291949Y-91542672D01*
X104101472Y-91542672D01*
X104006234Y-91590291D01*
X103958615Y-91637910D01*
X103910996Y-91733149D01*
X103910996Y-91923625D01*
X103958615Y-92018863D01*
X104006234Y-92066482D01*
X104101472Y-92114101D01*
X104291949Y-92114101D01*
X104387187Y-92066482D01*
X104434806Y-92018863D01*
X104482425Y-91923625D01*
X104482425Y-91733149D01*
X104434806Y-91637910D01*
X104387187Y-91590291D01*
X104291949Y-91542672D01*
X141290301Y-87449897D02*
X140814110Y-87783231D01*
X141290301Y-88021326D02*
X140290301Y-88021326D01*
X140290301Y-87640373D01*
X140337920Y-87545135D01*
X140385539Y-87497516D01*
X140480777Y-87449897D01*
X140623634Y-87449897D01*
X140718872Y-87497516D01*
X140766491Y-87545135D01*
X140814110Y-87640373D01*
X140814110Y-88021326D01*
X140385539Y-87068945D02*
X140337920Y-87021326D01*
X140290301Y-86926088D01*
X140290301Y-86687992D01*
X140337920Y-86592754D01*
X140385539Y-86545135D01*
X140480777Y-86497516D01*
X140576015Y-86497516D01*
X140718872Y-86545135D01*
X141290301Y-87116564D01*
X141290301Y-86497516D01*
X141290301Y-86021326D02*
X141290301Y-85830850D01*
X141242682Y-85735611D01*
X141195063Y-85687992D01*
X141052206Y-85592754D01*
X140861730Y-85545135D01*
X140480777Y-85545135D01*
X140385539Y-85592754D01*
X140337920Y-85640373D01*
X140290301Y-85735611D01*
X140290301Y-85926088D01*
X140337920Y-86021326D01*
X140385539Y-86068945D01*
X140480777Y-86116564D01*
X140718872Y-86116564D01*
X140814110Y-86068945D01*
X140861730Y-86021326D01*
X140909349Y-85926088D01*
X140909349Y-85735611D01*
X140861730Y-85640373D01*
X140814110Y-85592754D01*
X140718872Y-85545135D01*
X133511021Y-97848657D02*
X133034830Y-98181991D01*
X133511021Y-98420086D02*
X132511021Y-98420086D01*
X132511021Y-98039133D01*
X132558640Y-97943895D01*
X132606259Y-97896276D01*
X132701497Y-97848657D01*
X132844354Y-97848657D01*
X132939592Y-97896276D01*
X132987211Y-97943895D01*
X133034830Y-98039133D01*
X133034830Y-98420086D01*
X132511021Y-97515324D02*
X132511021Y-96896276D01*
X132891973Y-97229610D01*
X132891973Y-97086752D01*
X132939592Y-96991514D01*
X132987211Y-96943895D01*
X133082450Y-96896276D01*
X133320545Y-96896276D01*
X133415783Y-96943895D01*
X133463402Y-96991514D01*
X133511021Y-97086752D01*
X133511021Y-97372467D01*
X133463402Y-97467705D01*
X133415783Y-97515324D01*
X132511021Y-96277229D02*
X132511021Y-96181990D01*
X132558640Y-96086752D01*
X132606259Y-96039133D01*
X132701497Y-95991514D01*
X132891973Y-95943895D01*
X133130069Y-95943895D01*
X133320545Y-95991514D01*
X133415783Y-96039133D01*
X133463402Y-96086752D01*
X133511021Y-96181990D01*
X133511021Y-96277229D01*
X133463402Y-96372467D01*
X133415783Y-96420086D01*
X133320545Y-96467705D01*
X133130069Y-96515324D01*
X132891973Y-96515324D01*
X132701497Y-96467705D01*
X132606259Y-96420086D01*
X132558640Y-96372467D01*
X132511021Y-96277229D01*
X89657181Y-146032457D02*
X89180990Y-146365791D01*
X89657181Y-146603886D02*
X88657181Y-146603886D01*
X88657181Y-146222933D01*
X88704800Y-146127695D01*
X88752419Y-146080076D01*
X88847657Y-146032457D01*
X88990514Y-146032457D01*
X89085752Y-146080076D01*
X89133371Y-146127695D01*
X89180990Y-146222933D01*
X89180990Y-146603886D01*
X88657181Y-145699124D02*
X88657181Y-145080076D01*
X89038133Y-145413410D01*
X89038133Y-145270552D01*
X89085752Y-145175314D01*
X89133371Y-145127695D01*
X89228610Y-145080076D01*
X89466705Y-145080076D01*
X89561943Y-145127695D01*
X89609562Y-145175314D01*
X89657181Y-145270552D01*
X89657181Y-145556267D01*
X89609562Y-145651505D01*
X89561943Y-145699124D01*
X89657181Y-144127695D02*
X89657181Y-144699124D01*
X89657181Y-144413410D02*
X88657181Y-144413410D01*
X88800038Y-144508648D01*
X88895276Y-144603886D01*
X88942895Y-144699124D01*
X102511623Y-95558341D02*
X102178289Y-95082150D01*
X101940194Y-95558341D02*
X101940194Y-94558341D01*
X102321147Y-94558341D01*
X102416385Y-94605960D01*
X102464004Y-94653579D01*
X102511623Y-94748817D01*
X102511623Y-94891674D01*
X102464004Y-94986912D01*
X102416385Y-95034531D01*
X102321147Y-95082150D01*
X101940194Y-95082150D01*
X102844956Y-94558341D02*
X103464004Y-94558341D01*
X103130670Y-94939293D01*
X103273528Y-94939293D01*
X103368766Y-94986912D01*
X103416385Y-95034531D01*
X103464004Y-95129770D01*
X103464004Y-95367865D01*
X103416385Y-95463103D01*
X103368766Y-95510722D01*
X103273528Y-95558341D01*
X102987813Y-95558341D01*
X102892575Y-95510722D01*
X102844956Y-95463103D01*
X103844956Y-94653579D02*
X103892575Y-94605960D01*
X103987813Y-94558341D01*
X104225909Y-94558341D01*
X104321147Y-94605960D01*
X104368766Y-94653579D01*
X104416385Y-94748817D01*
X104416385Y-94844055D01*
X104368766Y-94986912D01*
X103797337Y-95558341D01*
X104416385Y-95558341D01*
X126047021Y-103769397D02*
X125570830Y-104102731D01*
X126047021Y-104340826D02*
X125047021Y-104340826D01*
X125047021Y-103959873D01*
X125094640Y-103864635D01*
X125142259Y-103817016D01*
X125237497Y-103769397D01*
X125380354Y-103769397D01*
X125475592Y-103817016D01*
X125523211Y-103864635D01*
X125570830Y-103959873D01*
X125570830Y-104340826D01*
X125047021Y-103436064D02*
X125047021Y-102817016D01*
X125427973Y-103150350D01*
X125427973Y-103007492D01*
X125475592Y-102912254D01*
X125523211Y-102864635D01*
X125618450Y-102817016D01*
X125856545Y-102817016D01*
X125951783Y-102864635D01*
X125999402Y-102912254D01*
X126047021Y-103007492D01*
X126047021Y-103293207D01*
X125999402Y-103388445D01*
X125951783Y-103436064D01*
X125047021Y-102483683D02*
X125047021Y-101864635D01*
X125427973Y-102197969D01*
X125427973Y-102055111D01*
X125475592Y-101959873D01*
X125523211Y-101912254D01*
X125618450Y-101864635D01*
X125856545Y-101864635D01*
X125951783Y-101912254D01*
X125999402Y-101959873D01*
X126047021Y-102055111D01*
X126047021Y-102340826D01*
X125999402Y-102436064D01*
X125951783Y-102483683D01*
X108697021Y-81313257D02*
X108220830Y-81646591D01*
X108697021Y-81884686D02*
X107697021Y-81884686D01*
X107697021Y-81503733D01*
X107744640Y-81408495D01*
X107792259Y-81360876D01*
X107887497Y-81313257D01*
X108030354Y-81313257D01*
X108125592Y-81360876D01*
X108173211Y-81408495D01*
X108220830Y-81503733D01*
X108220830Y-81884686D01*
X107697021Y-80979924D02*
X107697021Y-80360876D01*
X108077973Y-80694210D01*
X108077973Y-80551352D01*
X108125592Y-80456114D01*
X108173211Y-80408495D01*
X108268450Y-80360876D01*
X108506545Y-80360876D01*
X108601783Y-80408495D01*
X108649402Y-80456114D01*
X108697021Y-80551352D01*
X108697021Y-80837067D01*
X108649402Y-80932305D01*
X108601783Y-80979924D01*
X108030354Y-79503733D02*
X108697021Y-79503733D01*
X107649402Y-79741829D02*
X108363688Y-79979924D01*
X108363688Y-79360876D01*
X105282521Y-82773757D02*
X104806330Y-83107091D01*
X105282521Y-83345186D02*
X104282521Y-83345186D01*
X104282521Y-82964233D01*
X104330140Y-82868995D01*
X104377759Y-82821376D01*
X104472997Y-82773757D01*
X104615854Y-82773757D01*
X104711092Y-82821376D01*
X104758711Y-82868995D01*
X104806330Y-82964233D01*
X104806330Y-83345186D01*
X104282521Y-82440424D02*
X104282521Y-81821376D01*
X104663473Y-82154710D01*
X104663473Y-82011852D01*
X104711092Y-81916614D01*
X104758711Y-81868995D01*
X104853950Y-81821376D01*
X105092045Y-81821376D01*
X105187283Y-81868995D01*
X105234902Y-81916614D01*
X105282521Y-82011852D01*
X105282521Y-82297567D01*
X105234902Y-82392805D01*
X105187283Y-82440424D01*
X104282521Y-80916614D02*
X104282521Y-81392805D01*
X104758711Y-81440424D01*
X104711092Y-81392805D01*
X104663473Y-81297567D01*
X104663473Y-81059471D01*
X104711092Y-80964233D01*
X104758711Y-80916614D01*
X104853950Y-80868995D01*
X105092045Y-80868995D01*
X105187283Y-80916614D01*
X105234902Y-80964233D01*
X105282521Y-81059471D01*
X105282521Y-81297567D01*
X105234902Y-81392805D01*
X105187283Y-81440424D01*
X110090983Y-75333381D02*
X109757649Y-74857190D01*
X109519554Y-75333381D02*
X109519554Y-74333381D01*
X109900507Y-74333381D01*
X109995745Y-74381000D01*
X110043364Y-74428619D01*
X110090983Y-74523857D01*
X110090983Y-74666714D01*
X110043364Y-74761952D01*
X109995745Y-74809571D01*
X109900507Y-74857190D01*
X109519554Y-74857190D01*
X110424316Y-74333381D02*
X111043364Y-74333381D01*
X110710030Y-74714333D01*
X110852888Y-74714333D01*
X110948126Y-74761952D01*
X110995745Y-74809571D01*
X111043364Y-74904810D01*
X111043364Y-75142905D01*
X110995745Y-75238143D01*
X110948126Y-75285762D01*
X110852888Y-75333381D01*
X110567173Y-75333381D01*
X110471935Y-75285762D01*
X110424316Y-75238143D01*
X111900507Y-74333381D02*
X111710030Y-74333381D01*
X111614792Y-74381000D01*
X111567173Y-74428619D01*
X111471935Y-74571476D01*
X111424316Y-74761952D01*
X111424316Y-75142905D01*
X111471935Y-75238143D01*
X111519554Y-75285762D01*
X111614792Y-75333381D01*
X111805269Y-75333381D01*
X111900507Y-75285762D01*
X111948126Y-75238143D01*
X111995745Y-75142905D01*
X111995745Y-74904810D01*
X111948126Y-74809571D01*
X111900507Y-74761952D01*
X111805269Y-74714333D01*
X111614792Y-74714333D01*
X111519554Y-74761952D01*
X111471935Y-74809571D01*
X111424316Y-74904810D01*
X105356181Y-77726777D02*
X104879990Y-78060111D01*
X105356181Y-78298206D02*
X104356181Y-78298206D01*
X104356181Y-77917253D01*
X104403800Y-77822015D01*
X104451419Y-77774396D01*
X104546657Y-77726777D01*
X104689514Y-77726777D01*
X104784752Y-77774396D01*
X104832371Y-77822015D01*
X104879990Y-77917253D01*
X104879990Y-78298206D01*
X104356181Y-77393444D02*
X104356181Y-76774396D01*
X104737133Y-77107730D01*
X104737133Y-76964872D01*
X104784752Y-76869634D01*
X104832371Y-76822015D01*
X104927610Y-76774396D01*
X105165705Y-76774396D01*
X105260943Y-76822015D01*
X105308562Y-76869634D01*
X105356181Y-76964872D01*
X105356181Y-77250587D01*
X105308562Y-77345825D01*
X105260943Y-77393444D01*
X104356181Y-76441063D02*
X104356181Y-75774396D01*
X105356181Y-76202968D01*
X57752381Y-91692857D02*
X57276190Y-92026191D01*
X57752381Y-92264286D02*
X56752381Y-92264286D01*
X56752381Y-91883333D01*
X56800000Y-91788095D01*
X56847619Y-91740476D01*
X56942857Y-91692857D01*
X57085714Y-91692857D01*
X57180952Y-91740476D01*
X57228571Y-91788095D01*
X57276190Y-91883333D01*
X57276190Y-92264286D01*
X56752381Y-91359524D02*
X56752381Y-90740476D01*
X57133333Y-91073810D01*
X57133333Y-90930952D01*
X57180952Y-90835714D01*
X57228571Y-90788095D01*
X57323810Y-90740476D01*
X57561905Y-90740476D01*
X57657143Y-90788095D01*
X57704762Y-90835714D01*
X57752381Y-90930952D01*
X57752381Y-91216667D01*
X57704762Y-91311905D01*
X57657143Y-91359524D01*
X57180952Y-90169048D02*
X57133333Y-90264286D01*
X57085714Y-90311905D01*
X56990476Y-90359524D01*
X56942857Y-90359524D01*
X56847619Y-90311905D01*
X56800000Y-90264286D01*
X56752381Y-90169048D01*
X56752381Y-89978571D01*
X56800000Y-89883333D01*
X56847619Y-89835714D01*
X56942857Y-89788095D01*
X56990476Y-89788095D01*
X57085714Y-89835714D01*
X57133333Y-89883333D01*
X57180952Y-89978571D01*
X57180952Y-90169048D01*
X57228571Y-90264286D01*
X57276190Y-90311905D01*
X57371429Y-90359524D01*
X57561905Y-90359524D01*
X57657143Y-90311905D01*
X57704762Y-90264286D01*
X57752381Y-90169048D01*
X57752381Y-89978571D01*
X57704762Y-89883333D01*
X57657143Y-89835714D01*
X57561905Y-89788095D01*
X57371429Y-89788095D01*
X57276190Y-89835714D01*
X57228571Y-89883333D01*
X57180952Y-89978571D01*
X53752381Y-95742857D02*
X53276190Y-96076191D01*
X53752381Y-96314286D02*
X52752381Y-96314286D01*
X52752381Y-95933333D01*
X52800000Y-95838095D01*
X52847619Y-95790476D01*
X52942857Y-95742857D01*
X53085714Y-95742857D01*
X53180952Y-95790476D01*
X53228571Y-95838095D01*
X53276190Y-95933333D01*
X53276190Y-96314286D01*
X52752381Y-95409524D02*
X52752381Y-94790476D01*
X53133333Y-95123810D01*
X53133333Y-94980952D01*
X53180952Y-94885714D01*
X53228571Y-94838095D01*
X53323810Y-94790476D01*
X53561905Y-94790476D01*
X53657143Y-94838095D01*
X53704762Y-94885714D01*
X53752381Y-94980952D01*
X53752381Y-95266667D01*
X53704762Y-95361905D01*
X53657143Y-95409524D01*
X53752381Y-94314286D02*
X53752381Y-94123810D01*
X53704762Y-94028571D01*
X53657143Y-93980952D01*
X53514286Y-93885714D01*
X53323810Y-93838095D01*
X52942857Y-93838095D01*
X52847619Y-93885714D01*
X52800000Y-93933333D01*
X52752381Y-94028571D01*
X52752381Y-94219048D01*
X52800000Y-94314286D01*
X52847619Y-94361905D01*
X52942857Y-94409524D01*
X53180952Y-94409524D01*
X53276190Y-94361905D01*
X53323810Y-94314286D01*
X53371429Y-94219048D01*
X53371429Y-94028571D01*
X53323810Y-93933333D01*
X53276190Y-93885714D01*
X53180952Y-93838095D01*
X55237143Y-80540381D02*
X54903809Y-80064190D01*
X54665714Y-80540381D02*
X54665714Y-79540381D01*
X55046667Y-79540381D01*
X55141905Y-79588000D01*
X55189524Y-79635619D01*
X55237143Y-79730857D01*
X55237143Y-79873714D01*
X55189524Y-79968952D01*
X55141905Y-80016571D01*
X55046667Y-80064190D01*
X54665714Y-80064190D01*
X56094286Y-79873714D02*
X56094286Y-80540381D01*
X55856190Y-79492762D02*
X55618095Y-80207048D01*
X56237143Y-80207048D01*
X56808571Y-79540381D02*
X56903810Y-79540381D01*
X56999048Y-79588000D01*
X57046667Y-79635619D01*
X57094286Y-79730857D01*
X57141905Y-79921333D01*
X57141905Y-80159429D01*
X57094286Y-80349905D01*
X57046667Y-80445143D01*
X56999048Y-80492762D01*
X56903810Y-80540381D01*
X56808571Y-80540381D01*
X56713333Y-80492762D01*
X56665714Y-80445143D01*
X56618095Y-80349905D01*
X56570476Y-80159429D01*
X56570476Y-79921333D01*
X56618095Y-79730857D01*
X56665714Y-79635619D01*
X56713333Y-79588000D01*
X56808571Y-79540381D01*
X102572583Y-88867981D02*
X102239249Y-88391790D01*
X102001154Y-88867981D02*
X102001154Y-87867981D01*
X102382107Y-87867981D01*
X102477345Y-87915600D01*
X102524964Y-87963219D01*
X102572583Y-88058457D01*
X102572583Y-88201314D01*
X102524964Y-88296552D01*
X102477345Y-88344171D01*
X102382107Y-88391790D01*
X102001154Y-88391790D01*
X103429726Y-88201314D02*
X103429726Y-88867981D01*
X103191630Y-87820362D02*
X102953535Y-88534648D01*
X103572583Y-88534648D01*
X104477345Y-88867981D02*
X103905916Y-88867981D01*
X104191630Y-88867981D02*
X104191630Y-87867981D01*
X104096392Y-88010838D01*
X104001154Y-88106076D01*
X103905916Y-88153695D01*
X131579881Y-131173457D02*
X131103690Y-131506791D01*
X131579881Y-131744886D02*
X130579881Y-131744886D01*
X130579881Y-131363933D01*
X130627500Y-131268695D01*
X130675119Y-131221076D01*
X130770357Y-131173457D01*
X130913214Y-131173457D01*
X131008452Y-131221076D01*
X131056071Y-131268695D01*
X131103690Y-131363933D01*
X131103690Y-131744886D01*
X130913214Y-130316314D02*
X131579881Y-130316314D01*
X130532262Y-130554410D02*
X131246548Y-130792505D01*
X131246548Y-130173457D01*
X130675119Y-129840124D02*
X130627500Y-129792505D01*
X130579881Y-129697267D01*
X130579881Y-129459171D01*
X130627500Y-129363933D01*
X130675119Y-129316314D01*
X130770357Y-129268695D01*
X130865595Y-129268695D01*
X131008452Y-129316314D01*
X131579881Y-129887743D01*
X131579881Y-129268695D01*
X114282315Y-78616561D02*
X114282315Y-79426085D01*
X114329934Y-79521323D01*
X114377553Y-79568942D01*
X114472791Y-79616561D01*
X114663268Y-79616561D01*
X114758506Y-79568942D01*
X114806125Y-79521323D01*
X114853744Y-79426085D01*
X114853744Y-78616561D01*
X115282315Y-78711799D02*
X115329934Y-78664180D01*
X115425172Y-78616561D01*
X115663268Y-78616561D01*
X115758506Y-78664180D01*
X115806125Y-78711799D01*
X115853744Y-78807037D01*
X115853744Y-78902275D01*
X115806125Y-79045132D01*
X115234696Y-79616561D01*
X115853744Y-79616561D01*
X92623735Y-52492781D02*
X92623735Y-53302305D01*
X92671354Y-53397543D01*
X92718973Y-53445162D01*
X92814211Y-53492781D01*
X93004688Y-53492781D01*
X93099926Y-53445162D01*
X93147545Y-53397543D01*
X93195164Y-53302305D01*
X93195164Y-52492781D01*
X93576116Y-52492781D02*
X94195164Y-52492781D01*
X93861830Y-52873733D01*
X94004688Y-52873733D01*
X94099926Y-52921352D01*
X94147545Y-52968971D01*
X94195164Y-53064210D01*
X94195164Y-53302305D01*
X94147545Y-53397543D01*
X94099926Y-53445162D01*
X94004688Y-53492781D01*
X93718973Y-53492781D01*
X93623735Y-53445162D01*
X93576116Y-53397543D01*
X77094981Y-83908805D02*
X77904505Y-83908805D01*
X77999743Y-83861186D01*
X78047362Y-83813567D01*
X78094981Y-83718329D01*
X78094981Y-83527852D01*
X78047362Y-83432614D01*
X77999743Y-83384995D01*
X77904505Y-83337376D01*
X77094981Y-83337376D01*
X77428314Y-82432614D02*
X78094981Y-82432614D01*
X77047362Y-82670710D02*
X77761648Y-82908805D01*
X77761648Y-82289757D01*
X95068021Y-69240305D02*
X95877545Y-69240305D01*
X95972783Y-69192686D01*
X96020402Y-69145067D01*
X96068021Y-69049829D01*
X96068021Y-68859352D01*
X96020402Y-68764114D01*
X95972783Y-68716495D01*
X95877545Y-68668876D01*
X95068021Y-68668876D01*
X95068021Y-67764114D02*
X95068021Y-67954591D01*
X95115640Y-68049829D01*
X95163259Y-68097448D01*
X95306116Y-68192686D01*
X95496592Y-68240305D01*
X95877545Y-68240305D01*
X95972783Y-68192686D01*
X96020402Y-68145067D01*
X96068021Y-68049829D01*
X96068021Y-67859352D01*
X96020402Y-67764114D01*
X95972783Y-67716495D01*
X95877545Y-67668876D01*
X95639450Y-67668876D01*
X95544211Y-67716495D01*
X95496592Y-67764114D01*
X95448973Y-67859352D01*
X95448973Y-68049829D01*
X95496592Y-68145067D01*
X95544211Y-68192686D01*
X95639450Y-68240305D01*
X134133221Y-85928105D02*
X134942745Y-85928105D01*
X135037983Y-85880486D01*
X135085602Y-85832867D01*
X135133221Y-85737629D01*
X135133221Y-85547152D01*
X135085602Y-85451914D01*
X135037983Y-85404295D01*
X134942745Y-85356676D01*
X134133221Y-85356676D01*
X134133221Y-84975724D02*
X134133221Y-84309057D01*
X135133221Y-84737629D01*
X139757781Y-120726105D02*
X140567305Y-120726105D01*
X140662543Y-120678486D01*
X140710162Y-120630867D01*
X140757781Y-120535629D01*
X140757781Y-120345152D01*
X140710162Y-120249914D01*
X140662543Y-120202295D01*
X140567305Y-120154676D01*
X139757781Y-120154676D01*
X140757781Y-119630867D02*
X140757781Y-119440391D01*
X140710162Y-119345152D01*
X140662543Y-119297533D01*
X140519686Y-119202295D01*
X140329210Y-119154676D01*
X139948257Y-119154676D01*
X139853019Y-119202295D01*
X139805400Y-119249914D01*
X139757781Y-119345152D01*
X139757781Y-119535629D01*
X139805400Y-119630867D01*
X139853019Y-119678486D01*
X139948257Y-119726105D01*
X140186352Y-119726105D01*
X140281590Y-119678486D01*
X140329210Y-119630867D01*
X140376829Y-119535629D01*
X140376829Y-119345152D01*
X140329210Y-119249914D01*
X140281590Y-119202295D01*
X140186352Y-119154676D01*
X64266143Y-145626057D02*
X64313762Y-145673676D01*
X64361381Y-145816533D01*
X64361381Y-145911771D01*
X64313762Y-146054629D01*
X64218524Y-146149867D01*
X64123286Y-146197486D01*
X63932810Y-146245105D01*
X63789952Y-146245105D01*
X63599476Y-146197486D01*
X63504238Y-146149867D01*
X63409000Y-146054629D01*
X63361381Y-145911771D01*
X63361381Y-145816533D01*
X63409000Y-145673676D01*
X63456619Y-145626057D01*
X63694714Y-144768914D02*
X64361381Y-144768914D01*
X63313762Y-145007010D02*
X64028048Y-145245105D01*
X64028048Y-144626057D01*
X64361381Y-143721295D02*
X64361381Y-144292724D01*
X64361381Y-144007010D02*
X63361381Y-144007010D01*
X63504238Y-144102248D01*
X63599476Y-144197486D01*
X63647095Y-144292724D01*
X65339981Y-138882333D02*
X66054267Y-138882333D01*
X66197124Y-138929953D01*
X66292362Y-139025191D01*
X66339981Y-139168048D01*
X66339981Y-139263286D01*
X66339981Y-138406143D02*
X65339981Y-138406143D01*
X65339981Y-138025190D01*
X65387600Y-137929952D01*
X65435219Y-137882333D01*
X65530457Y-137834714D01*
X65673314Y-137834714D01*
X65768552Y-137882333D01*
X65816171Y-137929952D01*
X65863790Y-138025190D01*
X65863790Y-138406143D01*
X65339981Y-136929952D02*
X65339981Y-137406143D01*
X65816171Y-137453762D01*
X65768552Y-137406143D01*
X65720933Y-137310905D01*
X65720933Y-137072809D01*
X65768552Y-136977571D01*
X65816171Y-136929952D01*
X65911410Y-136882333D01*
X66149505Y-136882333D01*
X66244743Y-136929952D01*
X66292362Y-136977571D01*
X66339981Y-137072809D01*
X66339981Y-137310905D01*
X66292362Y-137406143D01*
X66244743Y-137453762D01*
X53553962Y-89513819D02*
X53458724Y-89466200D01*
X53363486Y-89370962D01*
X53220629Y-89228105D01*
X53125390Y-89180486D01*
X53030152Y-89180486D01*
X53077771Y-89418581D02*
X52982533Y-89370962D01*
X52887295Y-89275724D01*
X52839676Y-89085248D01*
X52839676Y-88751914D01*
X52887295Y-88561438D01*
X52982533Y-88466200D01*
X53077771Y-88418581D01*
X53268248Y-88418581D01*
X53363486Y-88466200D01*
X53458724Y-88561438D01*
X53506343Y-88751914D01*
X53506343Y-89085248D01*
X53458724Y-89275724D01*
X53363486Y-89370962D01*
X53268248Y-89418581D01*
X53077771Y-89418581D01*
X53839676Y-88418581D02*
X54458724Y-88418581D01*
X54125390Y-88799533D01*
X54268248Y-88799533D01*
X54363486Y-88847152D01*
X54411105Y-88894771D01*
X54458724Y-88990010D01*
X54458724Y-89228105D01*
X54411105Y-89323343D01*
X54363486Y-89370962D01*
X54268248Y-89418581D01*
X53982533Y-89418581D01*
X53887295Y-89370962D01*
X53839676Y-89323343D01*
X70916895Y-146899381D02*
X70916895Y-147708905D01*
X70964514Y-147804143D01*
X71012133Y-147851762D01*
X71107371Y-147899381D01*
X71297848Y-147899381D01*
X71393086Y-147851762D01*
X71440705Y-147804143D01*
X71488324Y-147708905D01*
X71488324Y-146899381D01*
X72107371Y-147327952D02*
X72012133Y-147280333D01*
X71964514Y-147232714D01*
X71916895Y-147137476D01*
X71916895Y-147089857D01*
X71964514Y-146994619D01*
X72012133Y-146947000D01*
X72107371Y-146899381D01*
X72297848Y-146899381D01*
X72393086Y-146947000D01*
X72440705Y-146994619D01*
X72488324Y-147089857D01*
X72488324Y-147137476D01*
X72440705Y-147232714D01*
X72393086Y-147280333D01*
X72297848Y-147327952D01*
X72107371Y-147327952D01*
X72012133Y-147375571D01*
X71964514Y-147423190D01*
X71916895Y-147518429D01*
X71916895Y-147708905D01*
X71964514Y-147804143D01*
X72012133Y-147851762D01*
X72107371Y-147899381D01*
X72297848Y-147899381D01*
X72393086Y-147851762D01*
X72440705Y-147804143D01*
X72488324Y-147708905D01*
X72488324Y-147518429D01*
X72440705Y-147423190D01*
X72393086Y-147375571D01*
X72297848Y-147327952D01*
X135469381Y-54054333D02*
X136183667Y-54054333D01*
X136326524Y-54101953D01*
X136421762Y-54197191D01*
X136469381Y-54340048D01*
X136469381Y-54435286D01*
X136469381Y-53530524D02*
X136469381Y-53340048D01*
X136421762Y-53244809D01*
X136374143Y-53197190D01*
X136231286Y-53101952D01*
X136040810Y-53054333D01*
X135659857Y-53054333D01*
X135564619Y-53101952D01*
X135517000Y-53149571D01*
X135469381Y-53244809D01*
X135469381Y-53435286D01*
X135517000Y-53530524D01*
X135564619Y-53578143D01*
X135659857Y-53625762D01*
X135897952Y-53625762D01*
X135993190Y-53578143D01*
X136040810Y-53530524D01*
X136088429Y-53435286D01*
X136088429Y-53244809D01*
X136040810Y-53149571D01*
X135993190Y-53101952D01*
X135897952Y-53054333D01*
X104846381Y-70619857D02*
X104370190Y-70953191D01*
X104846381Y-71191286D02*
X103846381Y-71191286D01*
X103846381Y-70810333D01*
X103894000Y-70715095D01*
X103941619Y-70667476D01*
X104036857Y-70619857D01*
X104179714Y-70619857D01*
X104274952Y-70667476D01*
X104322571Y-70715095D01*
X104370190Y-70810333D01*
X104370190Y-71191286D01*
X104179714Y-69762714D02*
X104846381Y-69762714D01*
X103798762Y-70000810D02*
X104513048Y-70238905D01*
X104513048Y-69619857D01*
X103846381Y-69334143D02*
X103846381Y-68715095D01*
X104227333Y-69048429D01*
X104227333Y-68905571D01*
X104274952Y-68810333D01*
X104322571Y-68762714D01*
X104417810Y-68715095D01*
X104655905Y-68715095D01*
X104751143Y-68762714D01*
X104798762Y-68810333D01*
X104846381Y-68905571D01*
X104846381Y-69191286D01*
X104798762Y-69286524D01*
X104751143Y-69334143D01*
X102638381Y-66682857D02*
X102162190Y-67016191D01*
X102638381Y-67254286D02*
X101638381Y-67254286D01*
X101638381Y-66873333D01*
X101686000Y-66778095D01*
X101733619Y-66730476D01*
X101828857Y-66682857D01*
X101971714Y-66682857D01*
X102066952Y-66730476D01*
X102114571Y-66778095D01*
X102162190Y-66873333D01*
X102162190Y-67254286D01*
X101971714Y-65825714D02*
X102638381Y-65825714D01*
X101590762Y-66063810D02*
X102305048Y-66301905D01*
X102305048Y-65682857D01*
X101971714Y-64873333D02*
X102638381Y-64873333D01*
X101590762Y-65111429D02*
X102305048Y-65349524D01*
X102305048Y-64730476D01*
X122674143Y-77541381D02*
X122340809Y-77065190D01*
X122102714Y-77541381D02*
X122102714Y-76541381D01*
X122483667Y-76541381D01*
X122578905Y-76589000D01*
X122626524Y-76636619D01*
X122674143Y-76731857D01*
X122674143Y-76874714D01*
X122626524Y-76969952D01*
X122578905Y-77017571D01*
X122483667Y-77065190D01*
X122102714Y-77065190D01*
X123531286Y-76874714D02*
X123531286Y-77541381D01*
X123293190Y-76493762D02*
X123055095Y-77208048D01*
X123674143Y-77208048D01*
X124531286Y-76541381D02*
X124055095Y-76541381D01*
X124007476Y-77017571D01*
X124055095Y-76969952D01*
X124150333Y-76922333D01*
X124388429Y-76922333D01*
X124483667Y-76969952D01*
X124531286Y-77017571D01*
X124578905Y-77112810D01*
X124578905Y-77350905D01*
X124531286Y-77446143D01*
X124483667Y-77493762D01*
X124388429Y-77541381D01*
X124150333Y-77541381D01*
X124055095Y-77493762D01*
X124007476Y-77446143D01*
X128135143Y-78684381D02*
X127801809Y-78208190D01*
X127563714Y-78684381D02*
X127563714Y-77684381D01*
X127944667Y-77684381D01*
X128039905Y-77732000D01*
X128087524Y-77779619D01*
X128135143Y-77874857D01*
X128135143Y-78017714D01*
X128087524Y-78112952D01*
X128039905Y-78160571D01*
X127944667Y-78208190D01*
X127563714Y-78208190D01*
X128992286Y-78017714D02*
X128992286Y-78684381D01*
X128754190Y-77636762D02*
X128516095Y-78351048D01*
X129135143Y-78351048D01*
X129944667Y-77684381D02*
X129754190Y-77684381D01*
X129658952Y-77732000D01*
X129611333Y-77779619D01*
X129516095Y-77922476D01*
X129468476Y-78112952D01*
X129468476Y-78493905D01*
X129516095Y-78589143D01*
X129563714Y-78636762D01*
X129658952Y-78684381D01*
X129849429Y-78684381D01*
X129944667Y-78636762D01*
X129992286Y-78589143D01*
X130039905Y-78493905D01*
X130039905Y-78255810D01*
X129992286Y-78160571D01*
X129944667Y-78112952D01*
X129849429Y-78065333D01*
X129658952Y-78065333D01*
X129563714Y-78112952D01*
X129516095Y-78160571D01*
X129468476Y-78255810D01*
X104481334Y-117546381D02*
X104005143Y-117546381D01*
X104005143Y-116546381D01*
X105243239Y-116546381D02*
X105052762Y-116546381D01*
X104957524Y-116594000D01*
X104909905Y-116641619D01*
X104814667Y-116784476D01*
X104767048Y-116974952D01*
X104767048Y-117355905D01*
X104814667Y-117451143D01*
X104862286Y-117498762D01*
X104957524Y-117546381D01*
X105148001Y-117546381D01*
X105243239Y-117498762D01*
X105290858Y-117451143D01*
X105338477Y-117355905D01*
X105338477Y-117117810D01*
X105290858Y-117022571D01*
X105243239Y-116974952D01*
X105148001Y-116927333D01*
X104957524Y-116927333D01*
X104862286Y-116974952D01*
X104814667Y-117022571D01*
X104767048Y-117117810D01*
X101941334Y-117546381D02*
X101465143Y-117546381D01*
X101465143Y-116546381D01*
X102179429Y-116546381D02*
X102846096Y-116546381D01*
X102417524Y-117546381D01*
X99147334Y-117546381D02*
X98671143Y-117546381D01*
X98671143Y-116546381D01*
X99623524Y-116974952D02*
X99528286Y-116927333D01*
X99480667Y-116879714D01*
X99433048Y-116784476D01*
X99433048Y-116736857D01*
X99480667Y-116641619D01*
X99528286Y-116594000D01*
X99623524Y-116546381D01*
X99814001Y-116546381D01*
X99909239Y-116594000D01*
X99956858Y-116641619D01*
X100004477Y-116736857D01*
X100004477Y-116784476D01*
X99956858Y-116879714D01*
X99909239Y-116927333D01*
X99814001Y-116974952D01*
X99623524Y-116974952D01*
X99528286Y-117022571D01*
X99480667Y-117070190D01*
X99433048Y-117165429D01*
X99433048Y-117355905D01*
X99480667Y-117451143D01*
X99528286Y-117498762D01*
X99623524Y-117546381D01*
X99814001Y-117546381D01*
X99909239Y-117498762D01*
X99956858Y-117451143D01*
X100004477Y-117355905D01*
X100004477Y-117165429D01*
X99956858Y-117070190D01*
X99909239Y-117022571D01*
X99814001Y-116974952D01*
X56348381Y-58721523D02*
X57062667Y-58721523D01*
X57205524Y-58769143D01*
X57300762Y-58864381D01*
X57348381Y-59007238D01*
X57348381Y-59102476D01*
X57348381Y-57721523D02*
X57348381Y-58292952D01*
X57348381Y-58007238D02*
X56348381Y-58007238D01*
X56491238Y-58102476D01*
X56586476Y-58197714D01*
X56634095Y-58292952D01*
X56681714Y-56864380D02*
X57348381Y-56864380D01*
X56300762Y-57102476D02*
X57015048Y-57340571D01*
X57015048Y-56721523D01*
X139787381Y-58467523D02*
X140501667Y-58467523D01*
X140644524Y-58515143D01*
X140739762Y-58610381D01*
X140787381Y-58753238D01*
X140787381Y-58848476D01*
X140787381Y-57467523D02*
X140787381Y-58038952D01*
X140787381Y-57753238D02*
X139787381Y-57753238D01*
X139930238Y-57848476D01*
X140025476Y-57943714D01*
X140073095Y-58038952D01*
X139787381Y-56610380D02*
X139787381Y-56800857D01*
X139835000Y-56896095D01*
X139882619Y-56943714D01*
X140025476Y-57038952D01*
X140215952Y-57086571D01*
X140596905Y-57086571D01*
X140692143Y-57038952D01*
X140739762Y-56991333D01*
X140787381Y-56896095D01*
X140787381Y-56705618D01*
X140739762Y-56610380D01*
X140692143Y-56562761D01*
X140596905Y-56515142D01*
X140358810Y-56515142D01*
X140263571Y-56562761D01*
X140215952Y-56610380D01*
X140168333Y-56705618D01*
X140168333Y-56896095D01*
X140215952Y-56991333D01*
X140263571Y-57038952D01*
X140358810Y-57086571D01*
X56958907Y-136707181D02*
X56958907Y-137421467D01*
X56911287Y-137564324D01*
X56816049Y-137659562D01*
X56673192Y-137707181D01*
X56577954Y-137707181D01*
X57958907Y-137707181D02*
X57387478Y-137707181D01*
X57673192Y-137707181D02*
X57673192Y-136707181D01*
X57577954Y-136850038D01*
X57482716Y-136945276D01*
X57387478Y-136992895D01*
M02*
