G04 #@! TF.FileFunction,Copper,L2,Bot,Signal*
%FSLAX46Y46*%
G04 Gerber Fmt 4.6, Leading zero omitted, Abs format (unit mm)*
G04 Created by KiCad (PCBNEW 4.0.7) date 11/14/19 13:01:23*
%MOMM*%
%LPD*%
G01*
G04 APERTURE LIST*
%ADD10C,0.100000*%
%ADD11C,1.520000*%
%ADD12C,2.700000*%
%ADD13R,1.700000X1.700000*%
%ADD14O,1.700000X1.700000*%
%ADD15C,1.524000*%
%ADD16R,2.500000X5.080000*%
%ADD17C,3.000000*%
%ADD18C,1.500000*%
%ADD19C,5.000000*%
%ADD20R,3.000000X3.000000*%
%ADD21C,4.064000*%
%ADD22R,3.500000X3.500000*%
%ADD23R,2.000000X2.600000*%
%ADD24O,2.000000X2.600000*%
%ADD25R,2.600000X2.000000*%
%ADD26O,2.600000X2.000000*%
%ADD27C,0.600000*%
%ADD28C,0.500000*%
%ADD29C,0.350000*%
%ADD30C,0.250000*%
G04 APERTURE END LIST*
D10*
D11*
X141986000Y-116078000D03*
X141986000Y-113538000D03*
X143986000Y-113538000D03*
X143986000Y-116078000D03*
D12*
X146686000Y-120808000D03*
X146686000Y-108808000D03*
D13*
X132588000Y-135890000D03*
D14*
X132588000Y-138430000D03*
X130048000Y-135890000D03*
X130048000Y-138430000D03*
X127508000Y-135890000D03*
X127508000Y-138430000D03*
X124968000Y-135890000D03*
X124968000Y-138430000D03*
X122428000Y-135890000D03*
X122428000Y-138430000D03*
X119888000Y-135890000D03*
X119888000Y-138430000D03*
X117348000Y-135890000D03*
X117348000Y-138430000D03*
D15*
X135890000Y-110236000D03*
X133350000Y-110236000D03*
X130810000Y-110236000D03*
X128270000Y-110236000D03*
X125730000Y-110236000D03*
X123190000Y-110236000D03*
X120650000Y-110236000D03*
X118110000Y-110236000D03*
X115570000Y-110236000D03*
X113030000Y-110236000D03*
X110490000Y-110236000D03*
X107950000Y-110236000D03*
X105410000Y-110236000D03*
X102870000Y-110236000D03*
X100330000Y-110236000D03*
X97790000Y-110236000D03*
X95250000Y-110236000D03*
X92710000Y-110236000D03*
X90170000Y-110236000D03*
X87630000Y-110236000D03*
X135890000Y-125476000D03*
X133350000Y-125476000D03*
X130810000Y-125476000D03*
X128270000Y-125476000D03*
X125730000Y-125476000D03*
X123190000Y-125476000D03*
X120650000Y-125476000D03*
X118110000Y-125476000D03*
X115570000Y-125476000D03*
X113030000Y-125476000D03*
X110490000Y-125476000D03*
X107950000Y-125476000D03*
X105410000Y-125476000D03*
X102870000Y-125476000D03*
X100330000Y-125476000D03*
X97790000Y-125476000D03*
X95250000Y-125476000D03*
X92710000Y-125476000D03*
X90170000Y-125476000D03*
X87630000Y-125476000D03*
D16*
X72584000Y-53848000D03*
X65084000Y-53848000D03*
D17*
X68326000Y-73914000D03*
X60198000Y-73914000D03*
X54864000Y-68580000D03*
X60198000Y-65532000D03*
X68072000Y-65532000D03*
D13*
X105156000Y-133350000D03*
D14*
X102616000Y-133350000D03*
X100076000Y-133350000D03*
X97536000Y-133350000D03*
D18*
X67818000Y-100584000D03*
X72698000Y-100584000D03*
D19*
X53000000Y-53000000D03*
X147000000Y-53000000D03*
X53000000Y-147000000D03*
X147000000Y-147000000D03*
D20*
X84328000Y-144272000D03*
D17*
X89408000Y-144272000D03*
D13*
X103378000Y-139954000D03*
D14*
X105918000Y-139954000D03*
D21*
X60000000Y-102000000D03*
X60000000Y-146000000D03*
X137000000Y-102000000D03*
X137000000Y-146000000D03*
D22*
X73660000Y-140462000D03*
X73660000Y-146462000D03*
X78360000Y-143462000D03*
D13*
X76962000Y-53340000D03*
D14*
X76962000Y-55880000D03*
D13*
X77978000Y-69088000D03*
D14*
X75438000Y-69088000D03*
X72898000Y-69088000D03*
D13*
X103124000Y-98806000D03*
D14*
X100584000Y-98806000D03*
D13*
X139192000Y-133350000D03*
D14*
X139192000Y-135890000D03*
X139192000Y-138430000D03*
D16*
X131766000Y-53848000D03*
X124266000Y-53848000D03*
D21*
X60000000Y-58000000D03*
X137000000Y-58000000D03*
D23*
X84836000Y-134874000D03*
D24*
X87376000Y-134874000D03*
D25*
X54102000Y-136398000D03*
D26*
X54102000Y-133858000D03*
X54102000Y-131318000D03*
D13*
X61722000Y-134874000D03*
D14*
X61722000Y-132334000D03*
D25*
X54102000Y-125476000D03*
D26*
X54102000Y-122936000D03*
X54102000Y-120396000D03*
X54102000Y-117856000D03*
X54102000Y-115316000D03*
X54102000Y-112776000D03*
D27*
X107950000Y-146812000D03*
X60960000Y-128778000D03*
X99405440Y-61244480D03*
X96433640Y-70002400D03*
X141010640Y-77114400D03*
X139232640Y-77114400D03*
X119674640Y-85242400D03*
X129707640Y-86258400D03*
X137358120Y-86624160D03*
X135270240Y-86639400D03*
X60198000Y-138176000D03*
X59182000Y-139192000D03*
X59690000Y-132588000D03*
X59182000Y-135890000D03*
X78232000Y-133350000D03*
X73914000Y-133604000D03*
X70866000Y-134366000D03*
X68580000Y-136906000D03*
X66040000Y-139192000D03*
X64770000Y-138430000D03*
X64516000Y-125984000D03*
X65278000Y-124714000D03*
X65532000Y-122936000D03*
X130810000Y-100838000D03*
X130048000Y-100076000D03*
X129032000Y-99822000D03*
X127000000Y-100076000D03*
X125476000Y-100330000D03*
X123444000Y-105156000D03*
X122428000Y-104648000D03*
X122428000Y-103378000D03*
X122174000Y-102108000D03*
X74676000Y-131318000D03*
X73406000Y-131318000D03*
X72136000Y-131572000D03*
X93980000Y-144780000D03*
X93726000Y-143256000D03*
X107950000Y-143510000D03*
X115062000Y-146558000D03*
X113792000Y-146304000D03*
X78486000Y-124206000D03*
X82042000Y-124206000D03*
X68580000Y-132588000D03*
X67056000Y-133350000D03*
X65786000Y-133350000D03*
X77724000Y-119380000D03*
X78994000Y-119380000D03*
X61214000Y-110744000D03*
X64008000Y-109982000D03*
X64770000Y-118618000D03*
X66802000Y-118872000D03*
X68326000Y-118872000D03*
X69850000Y-115316000D03*
X67818000Y-116332000D03*
X67564000Y-114046000D03*
X67818000Y-112014000D03*
X69596000Y-113284000D03*
X71628000Y-113284000D03*
X71628000Y-115316000D03*
X72898000Y-117094000D03*
X73152000Y-115062000D03*
X73152000Y-113284000D03*
X73152000Y-111760000D03*
X53594000Y-103378000D03*
X52324000Y-104902000D03*
X51308000Y-106680000D03*
X51308000Y-108712000D03*
X51308000Y-110998000D03*
X51308000Y-113030000D03*
X51054000Y-115316000D03*
X51054000Y-117856000D03*
X51054000Y-120396000D03*
X51054000Y-122682000D03*
X51308000Y-125730000D03*
X51308000Y-127762000D03*
X51308000Y-129540000D03*
X51308000Y-131826000D03*
X51562000Y-134112000D03*
X51562000Y-136144000D03*
X51816000Y-138176000D03*
X51816000Y-139954000D03*
X51816000Y-141986000D03*
X52070000Y-143510000D03*
X55118000Y-143510000D03*
X56388000Y-142748000D03*
X58674000Y-142494000D03*
X60960000Y-142494000D03*
X63754000Y-142748000D03*
X63754000Y-145034000D03*
X64516000Y-146558000D03*
X66548000Y-146812000D03*
X68580000Y-146812000D03*
X87122000Y-108712000D03*
X86868000Y-107188000D03*
X86106000Y-105664000D03*
X84074000Y-105156000D03*
X82042000Y-104902000D03*
X79502000Y-105156000D03*
X76200000Y-106426000D03*
X73406000Y-106680000D03*
X70358000Y-106172000D03*
X67564000Y-106426000D03*
X65532000Y-106426000D03*
X62484000Y-106680000D03*
X59436000Y-106426000D03*
X57150000Y-104648000D03*
X55880000Y-103378000D03*
X54864000Y-102616000D03*
X85852000Y-112014000D03*
X84582000Y-113284000D03*
X83820000Y-114808000D03*
X83820000Y-116332000D03*
X83820000Y-118364000D03*
X83820000Y-120142000D03*
X83820000Y-122174000D03*
X83820000Y-124206000D03*
X83820000Y-126492000D03*
X84074000Y-129286000D03*
X82804000Y-131318000D03*
X81788000Y-133858000D03*
X80264000Y-134874000D03*
X78486000Y-136398000D03*
X75946000Y-137160000D03*
X73406000Y-137160000D03*
X71628000Y-137668000D03*
X70358000Y-138938000D03*
X70104000Y-140970000D03*
X70358000Y-142748000D03*
X70104000Y-144780000D03*
X70358000Y-146304000D03*
X115570000Y-98044000D03*
X117856000Y-97790000D03*
X119380000Y-97028000D03*
X120904000Y-96012000D03*
X122682000Y-95250000D03*
X124206000Y-94234000D03*
X126238000Y-93980000D03*
X128524000Y-93726000D03*
X130810000Y-93726000D03*
X132842000Y-93472000D03*
X134874000Y-93218000D03*
X136652000Y-93218000D03*
X137922000Y-93218000D03*
X140970000Y-92202000D03*
X144018000Y-92202000D03*
X145796000Y-92202000D03*
X147066000Y-92202000D03*
X147828000Y-92964000D03*
X148082000Y-94488000D03*
X114554000Y-97536000D03*
X113538000Y-97536000D03*
X107696000Y-100838000D03*
X107696000Y-99060000D03*
X107950000Y-96266000D03*
X107950000Y-95250000D03*
X107950000Y-93980000D03*
X107950000Y-92710000D03*
X111252000Y-100584000D03*
X112268000Y-101600000D03*
X113284000Y-101600000D03*
X114808000Y-102108000D03*
X116078000Y-102108000D03*
X84328000Y-93980000D03*
X103124000Y-96012000D03*
X101854000Y-96012000D03*
X100076000Y-96012000D03*
X98552000Y-96266000D03*
X96774000Y-96266000D03*
X94742000Y-96012000D03*
X92710000Y-96012000D03*
X90678000Y-96012000D03*
X88646000Y-96012000D03*
X86868000Y-95250000D03*
X85852000Y-94488000D03*
X100330000Y-93472000D03*
X99314000Y-92710000D03*
X97536000Y-92710000D03*
X95758000Y-92710000D03*
X93726000Y-92710000D03*
X91694000Y-92710000D03*
X90170000Y-92456000D03*
X88646000Y-92202000D03*
X87376000Y-91948000D03*
X58674000Y-79756000D03*
X59436000Y-78232000D03*
X60706000Y-77470000D03*
X62738000Y-76708000D03*
X62738000Y-75184000D03*
X62992000Y-73660000D03*
X65278000Y-72136000D03*
X65024000Y-70358000D03*
X65024000Y-69088000D03*
X65278000Y-67056000D03*
X65278000Y-65278000D03*
X65786000Y-64262000D03*
X66802000Y-63246000D03*
X68072000Y-62738000D03*
X69596000Y-62484000D03*
X71120000Y-62484000D03*
X72390000Y-62230000D03*
X65024000Y-79248000D03*
X65532000Y-77470000D03*
X65532000Y-75692000D03*
X65532000Y-74422000D03*
X65532000Y-73152000D03*
X105664000Y-94996000D03*
X82804000Y-94996000D03*
X62550000Y-83200000D03*
X62550000Y-84500000D03*
X62750000Y-86000000D03*
X62900000Y-87800000D03*
X64250000Y-88800000D03*
X65500000Y-89150000D03*
X64300000Y-81300000D03*
X64200000Y-82500000D03*
X64200000Y-84400000D03*
X64250000Y-86050000D03*
X65150000Y-86700000D03*
X66750000Y-86750000D03*
X77100000Y-93050000D03*
X75700000Y-92900000D03*
X74500000Y-92250000D03*
X73450000Y-91400000D03*
X72150000Y-90600000D03*
X71900000Y-89300000D03*
X71700000Y-87800000D03*
X71100000Y-86650000D03*
X70500000Y-85650000D03*
X68200000Y-86650000D03*
X79700000Y-94900000D03*
X69200000Y-86650000D03*
X70000000Y-88000000D03*
X70358000Y-88900000D03*
X70358000Y-90424000D03*
X71882000Y-92202000D03*
X72898000Y-93218000D03*
X73860000Y-93900000D03*
X75650000Y-95000000D03*
X77300000Y-95000000D03*
X67650000Y-89600000D03*
X66900000Y-85350000D03*
X65950000Y-85950000D03*
X52425600Y-70129400D03*
X52146200Y-71805800D03*
X51917600Y-73710800D03*
X51866800Y-75895200D03*
X51638200Y-77901800D03*
X51790600Y-79857600D03*
X52019200Y-82092800D03*
X53136800Y-82753200D03*
X54864000Y-57886600D03*
X56108600Y-56438800D03*
X57785000Y-54991000D03*
X59436000Y-54076600D03*
X55219600Y-60502800D03*
X57810400Y-61696600D03*
X60858400Y-61620400D03*
X62941200Y-60401200D03*
X63423800Y-58928000D03*
X62941200Y-56438800D03*
X61976000Y-54660800D03*
X139725400Y-54457600D03*
X137668000Y-54660800D03*
X134696200Y-55194200D03*
X134239000Y-56134000D03*
X133832600Y-58318400D03*
X133908800Y-59867800D03*
X133985000Y-61671200D03*
X122478800Y-67640200D03*
X141224000Y-60452000D03*
X141732000Y-58420000D03*
X141732000Y-56388000D03*
X140716000Y-62484000D03*
X138125200Y-63220600D03*
X139065000Y-62357000D03*
X134696200Y-64389000D03*
X134035800Y-63195200D03*
X122428000Y-57708800D03*
X123774200Y-57556400D03*
X143090900Y-51879500D03*
X122174000Y-50800000D03*
X126111000Y-50800000D03*
X126365000Y-52197000D03*
X126365000Y-53848000D03*
X126492000Y-55626000D03*
X129667000Y-55499000D03*
X129794000Y-53848000D03*
X129540000Y-52578000D03*
X129540000Y-51181000D03*
X134366000Y-51054000D03*
X136271000Y-51308000D03*
X138049000Y-51435000D03*
X139700000Y-51435000D03*
X140970000Y-51181000D03*
X141732000Y-54356000D03*
X73660000Y-60198000D03*
X72136000Y-60198000D03*
X70612000Y-60452000D03*
X68834000Y-60706000D03*
X67310000Y-61214000D03*
X65786000Y-61722000D03*
X64516000Y-62484000D03*
X63500000Y-63246000D03*
X62992000Y-72390000D03*
X62992000Y-70866000D03*
X62992000Y-69088000D03*
X63246000Y-67564000D03*
X63246000Y-66294000D03*
X63500000Y-64516000D03*
X57150000Y-71882000D03*
X56642000Y-70866000D03*
X53340000Y-61722000D03*
X53594000Y-64516000D03*
X53594000Y-67310000D03*
X62484000Y-51816000D03*
X67056000Y-52070000D03*
X67056000Y-53848000D03*
X70358000Y-55626000D03*
X70612000Y-54102000D03*
X70358000Y-52070000D03*
X105410000Y-51562000D03*
X103124000Y-51308000D03*
X100584000Y-51054000D03*
X97790000Y-51054000D03*
X94996000Y-51054000D03*
X92710000Y-51054000D03*
X90170000Y-51054000D03*
X88138000Y-51054000D03*
X85852000Y-51054000D03*
X83566000Y-51054000D03*
X81280000Y-51054000D03*
X78740000Y-51054000D03*
X76454000Y-51308000D03*
X74676000Y-54102000D03*
X74676000Y-52324000D03*
X83566000Y-61976000D03*
X84836000Y-55626000D03*
X62417960Y-79489300D03*
X70104000Y-80264000D03*
X68326000Y-80010000D03*
X66548000Y-80010000D03*
X64516000Y-80010000D03*
X101854000Y-91948000D03*
X100838000Y-91440000D03*
X101346000Y-88392000D03*
X100330000Y-86868000D03*
X101346000Y-85090000D03*
X101854000Y-83058000D03*
X102108000Y-81534000D03*
X102108000Y-80264000D03*
X101854000Y-78486000D03*
X101600000Y-76454000D03*
X101092000Y-74168000D03*
X101092000Y-71882000D03*
X101092000Y-69596000D03*
X101092000Y-68072000D03*
X101346000Y-65786000D03*
X100076000Y-64516000D03*
X85852000Y-91694000D03*
X83820000Y-91440000D03*
X80264000Y-63246000D03*
X80518000Y-64262000D03*
X80772000Y-66040000D03*
X80264000Y-69850000D03*
X80772000Y-72136000D03*
X81026000Y-73660000D03*
X80518000Y-75184000D03*
X80264000Y-76962000D03*
X52578000Y-78740000D03*
X53594000Y-77724000D03*
X54864000Y-76708000D03*
X56134000Y-75692000D03*
X77470000Y-84328000D03*
X75946000Y-84328000D03*
X74676000Y-84328000D03*
X73406000Y-84328000D03*
X72390000Y-84328000D03*
X72136000Y-82296000D03*
X73660000Y-82550000D03*
X74930000Y-82550000D03*
X80010000Y-57912000D03*
X79756000Y-56388000D03*
X79756000Y-55118000D03*
X80010000Y-53594000D03*
X83540600Y-85552280D03*
X83362800Y-81884520D03*
X83195160Y-80284320D03*
X83652360Y-89159080D03*
X83652360Y-87091520D03*
X83439000Y-83743800D03*
X127254000Y-73406000D03*
X127127000Y-72390000D03*
X127508000Y-71501000D03*
X120777000Y-82677000D03*
X120904000Y-81026000D03*
X121793000Y-79248000D03*
X121793000Y-77597000D03*
X122174000Y-76073000D03*
X122047000Y-74422000D03*
X121412000Y-59055000D03*
X121412000Y-60579000D03*
X121285000Y-61976000D03*
X121031000Y-63373000D03*
X121031000Y-65151000D03*
X120523000Y-67564000D03*
X120523000Y-69215000D03*
X119253000Y-71501000D03*
X121539000Y-57023000D03*
X121285000Y-51816000D03*
X121920000Y-53340000D03*
X121539000Y-55245000D03*
X109855000Y-51689000D03*
X109220000Y-52578000D03*
X108204000Y-53975000D03*
X107315000Y-55626000D03*
X107315000Y-57277000D03*
X107315000Y-58801000D03*
X107061000Y-59563000D03*
X106807000Y-60833000D03*
X106553000Y-62357000D03*
X104190800Y-74599800D03*
X105643680Y-92202000D03*
X104775000Y-91729560D03*
X105745280Y-88574880D03*
X104719120Y-88265000D03*
X104241600Y-84963000D03*
X103977440Y-83251040D03*
X104053640Y-80584040D03*
X104089200Y-78714600D03*
X104129840Y-76393040D03*
X148818600Y-69189600D03*
X148361400Y-58940700D03*
X143357600Y-54063900D03*
X144221200Y-55321200D03*
X145516600Y-56807100D03*
X146773900Y-56857900D03*
X148107400Y-57111900D03*
X148475700Y-60617100D03*
X148475700Y-62407800D03*
X148628100Y-64160400D03*
X148780500Y-65189100D03*
X148666200Y-67398900D03*
X120904000Y-50800000D03*
X118872000Y-50800000D03*
X117434360Y-50657760D03*
X114726720Y-50698400D03*
X112958880Y-50779680D03*
X110317280Y-50718720D03*
X108204000Y-51043840D03*
X96514920Y-59679840D03*
X94686120Y-59756040D03*
X94366080Y-58536840D03*
X94990920Y-53644800D03*
X94396560Y-54574440D03*
X94198440Y-56083200D03*
X94259400Y-57241440D03*
X92186760Y-58460640D03*
X92323920Y-53614320D03*
X92339160Y-54665880D03*
X92308680Y-55930800D03*
X92247720Y-57104280D03*
X128991360Y-67757040D03*
X127650240Y-67787520D03*
X126507240Y-67650360D03*
X124508260Y-67678300D03*
X127741680Y-70180200D03*
X128549400Y-69936360D03*
X140467080Y-70088760D03*
X139095480Y-70119240D03*
X136916160Y-70164960D03*
X135392160Y-70195440D03*
X134005320Y-70088760D03*
X132938520Y-69982080D03*
X131521200Y-70073520D03*
X130042920Y-69982080D03*
X129997200Y-67894200D03*
X105082340Y-72560180D03*
X106283760Y-72560180D03*
X107848400Y-72644000D03*
X109776260Y-72644000D03*
X111368840Y-72783700D03*
X113073180Y-72699880D03*
X115364260Y-72839580D03*
X116900960Y-72755760D03*
X118828820Y-72699880D03*
X120449340Y-72532240D03*
X121427240Y-75102720D03*
X119415560Y-74599800D03*
X117320060Y-74348340D03*
X115224560Y-74404220D03*
X112709960Y-74264520D03*
X110837980Y-74292460D03*
X109049820Y-74236580D03*
X107652820Y-74264520D03*
X105724960Y-74292460D03*
X105029000Y-62611000D03*
X105156000Y-63627000D03*
X105283000Y-65278000D03*
X105283000Y-67310000D03*
X105283000Y-68453000D03*
X105410000Y-70358000D03*
X104272080Y-71749920D03*
X116481860Y-86334600D03*
X119440960Y-76098400D03*
X114223800Y-51549300D03*
X114338100Y-72618600D03*
X114300000Y-71501000D03*
X114376200Y-68160900D03*
X114528600Y-65836800D03*
X114482880Y-62199520D03*
X114300000Y-60769500D03*
X114223800Y-57785000D03*
X114223800Y-56235600D03*
X114185700Y-54406800D03*
X114223800Y-52616100D03*
X103952040Y-55829200D03*
X136540240Y-91186000D03*
X98465640Y-69748400D03*
X98719640Y-70383400D03*
X89067640Y-68351400D03*
X89956640Y-67081400D03*
X131104640Y-86385400D03*
X119674640Y-80416400D03*
X123525280Y-87147400D03*
X134747000Y-77216000D03*
X128290320Y-82433160D03*
X76962000Y-99568000D03*
X76962000Y-98044000D03*
X97764600Y-84162900D03*
X92918280Y-81899760D03*
X99822000Y-81991200D03*
X98488500Y-73761600D03*
X96659700Y-73761600D03*
X108204000Y-79756000D03*
X107442000Y-89916000D03*
X110998000Y-113792000D03*
X105918000Y-113792000D03*
X112014000Y-113030000D03*
X106172000Y-112776000D03*
X117856000Y-145542000D03*
X148021040Y-87198200D03*
X129540000Y-144018000D03*
X132080000Y-141478000D03*
X99060000Y-114046000D03*
X108966000Y-89916000D03*
X108712000Y-87122000D03*
X110911640Y-86258400D03*
X108625640Y-82448400D03*
X91186000Y-113030000D03*
X91694000Y-115824000D03*
X97028000Y-114808000D03*
X128778000Y-141986000D03*
X120396000Y-133350000D03*
X101254560Y-52669440D03*
X105156000Y-52832000D03*
X124642880Y-68559680D03*
X126349760Y-68559680D03*
X100276660Y-76220320D03*
X90162380Y-74068940D03*
X121325640Y-89687400D03*
X125897640Y-89687400D03*
X134680960Y-79674720D03*
X132933440Y-79979520D03*
X119126000Y-144526000D03*
X89916000Y-129286000D03*
X124460000Y-122174000D03*
X118110000Y-122936000D03*
X57658000Y-119634000D03*
X58420000Y-133604000D03*
D28*
X107696000Y-145034000D02*
X107696000Y-146558000D01*
X107696000Y-146558000D02*
X107950000Y-146812000D01*
D29*
X98973640Y-67462400D02*
X98973640Y-61676280D01*
X98973640Y-61676280D02*
X99405440Y-61244480D01*
X96433640Y-70002400D02*
X98973640Y-67462400D01*
X139232640Y-77114400D02*
X141010640Y-77114400D01*
X120309640Y-85877400D02*
X119674640Y-85242400D01*
X129326640Y-85877400D02*
X120309640Y-85877400D01*
X129707640Y-86258400D02*
X129326640Y-85877400D01*
X135285480Y-86624160D02*
X137358120Y-86624160D01*
X135270240Y-86639400D02*
X135285480Y-86624160D01*
D28*
X60198000Y-138176000D02*
X59182000Y-139192000D01*
X59690000Y-135382000D02*
X59690000Y-132588000D01*
X59182000Y-135890000D02*
X59690000Y-135382000D01*
X67056000Y-133350000D02*
X67056000Y-136144000D01*
X78232000Y-133350000D02*
X77978000Y-133350000D01*
X71628000Y-133604000D02*
X73914000Y-133604000D01*
X70866000Y-134366000D02*
X71628000Y-133604000D01*
X68326000Y-136906000D02*
X68580000Y-136906000D01*
X66040000Y-139192000D02*
X68326000Y-136906000D01*
X67056000Y-136144000D02*
X64770000Y-138430000D01*
X65278000Y-123190000D02*
X65278000Y-124714000D01*
X65532000Y-122936000D02*
X65278000Y-123190000D01*
X129286000Y-100076000D02*
X130048000Y-100076000D01*
X129032000Y-99822000D02*
X129286000Y-100076000D01*
X125730000Y-100076000D02*
X127000000Y-100076000D01*
X125476000Y-100330000D02*
X125730000Y-100076000D01*
X122936000Y-105156000D02*
X123444000Y-105156000D01*
X122428000Y-104648000D02*
X122936000Y-105156000D01*
X122428000Y-102362000D02*
X122428000Y-103378000D01*
X122174000Y-102108000D02*
X122428000Y-102362000D01*
X72390000Y-131318000D02*
X73406000Y-131318000D01*
X72136000Y-131572000D02*
X72390000Y-131318000D01*
X93980000Y-144780000D02*
X93726000Y-144526000D01*
X93726000Y-144526000D02*
X93726000Y-143256000D01*
X114046000Y-146558000D02*
X115062000Y-146558000D01*
X113792000Y-146304000D02*
X114046000Y-146558000D01*
X82042000Y-124206000D02*
X78486000Y-124206000D01*
X68580000Y-132588000D02*
X68834000Y-132588000D01*
X65786000Y-133350000D02*
X67056000Y-133350000D01*
D29*
X78994000Y-119380000D02*
X77724000Y-119380000D01*
X61722000Y-110236000D02*
X61214000Y-110744000D01*
X63754000Y-110236000D02*
X61722000Y-110236000D01*
X64008000Y-109982000D02*
X63754000Y-110236000D01*
X64770000Y-118618000D02*
X65024000Y-118872000D01*
X65024000Y-118872000D02*
X66802000Y-118872000D01*
D28*
X67818000Y-114300000D02*
X67818000Y-116332000D01*
X67564000Y-114046000D02*
X67818000Y-114300000D01*
X68326000Y-112014000D02*
X67818000Y-112014000D01*
X69596000Y-113284000D02*
X68326000Y-112014000D01*
X71628000Y-115316000D02*
X71628000Y-113284000D01*
X72898000Y-115316000D02*
X72898000Y-117094000D01*
X73152000Y-115062000D02*
X72898000Y-115316000D01*
X73152000Y-111760000D02*
X73152000Y-113284000D01*
X53594000Y-103632000D02*
X53594000Y-103378000D01*
X52324000Y-104902000D02*
X53594000Y-103632000D01*
X51308000Y-108712000D02*
X51308000Y-106680000D01*
X51308000Y-113030000D02*
X51308000Y-110998000D01*
X51054000Y-117856000D02*
X51054000Y-115316000D01*
X51054000Y-122428000D02*
X51054000Y-120396000D01*
X51054000Y-122682000D02*
X51054000Y-122428000D01*
X51308000Y-127762000D02*
X51308000Y-125730000D01*
X51308000Y-131572000D02*
X51308000Y-129540000D01*
X51308000Y-131826000D02*
X51308000Y-131572000D01*
X51562000Y-136144000D02*
X51562000Y-134112000D01*
X51816000Y-139954000D02*
X51816000Y-138176000D01*
X51816000Y-143256000D02*
X51816000Y-141986000D01*
X52070000Y-143510000D02*
X51816000Y-143256000D01*
X55118000Y-143510000D02*
X55880000Y-142748000D01*
X55880000Y-142748000D02*
X56388000Y-142748000D01*
X58674000Y-142494000D02*
X60960000Y-142494000D01*
X63754000Y-142748000D02*
X63754000Y-145034000D01*
X64516000Y-146558000D02*
X64770000Y-146812000D01*
X64770000Y-146812000D02*
X66548000Y-146812000D01*
X68580000Y-146812000D02*
X69088000Y-146304000D01*
X69088000Y-146304000D02*
X70358000Y-146304000D01*
X87122000Y-108712000D02*
X86868000Y-108458000D01*
X86868000Y-108458000D02*
X86868000Y-107188000D01*
X86106000Y-105664000D02*
X85598000Y-105156000D01*
X85598000Y-105156000D02*
X84074000Y-105156000D01*
X82042000Y-104902000D02*
X81788000Y-105156000D01*
X81788000Y-105156000D02*
X79502000Y-105156000D01*
X76200000Y-106426000D02*
X75946000Y-106680000D01*
X75946000Y-106680000D02*
X73406000Y-106680000D01*
X70358000Y-106172000D02*
X70104000Y-106426000D01*
X70104000Y-106426000D02*
X67564000Y-106426000D01*
X65532000Y-106426000D02*
X65278000Y-106680000D01*
X65278000Y-106680000D02*
X62484000Y-106680000D01*
X59436000Y-106426000D02*
X58928000Y-105918000D01*
X58928000Y-105918000D02*
X57150000Y-104648000D01*
X55880000Y-103378000D02*
X55372000Y-103124000D01*
X55372000Y-103124000D02*
X54864000Y-102616000D01*
X84582000Y-113284000D02*
X85852000Y-112014000D01*
X83820000Y-116332000D02*
X83820000Y-114808000D01*
X83820000Y-120142000D02*
X83820000Y-118364000D01*
X83820000Y-124206000D02*
X83820000Y-122174000D01*
X83820000Y-129032000D02*
X83820000Y-126492000D01*
X84074000Y-129286000D02*
X83820000Y-129032000D01*
X82804000Y-132842000D02*
X82804000Y-131318000D01*
X81788000Y-133858000D02*
X82804000Y-132842000D01*
X80010000Y-134874000D02*
X80264000Y-134874000D01*
X78486000Y-136398000D02*
X80010000Y-134874000D01*
X73406000Y-137160000D02*
X75946000Y-137160000D01*
X70358000Y-138938000D02*
X71628000Y-137668000D01*
X70104000Y-142494000D02*
X70104000Y-140970000D01*
X70358000Y-142748000D02*
X70104000Y-142494000D01*
X70104000Y-146050000D02*
X70104000Y-144780000D01*
X70358000Y-146304000D02*
X70104000Y-146050000D01*
D30*
X115570000Y-98044000D02*
X116078000Y-97790000D01*
X116078000Y-97790000D02*
X117856000Y-97790000D01*
X119380000Y-97028000D02*
X120396000Y-96012000D01*
X120396000Y-96012000D02*
X120904000Y-96012000D01*
X122682000Y-95250000D02*
X123698000Y-94234000D01*
X123698000Y-94234000D02*
X124206000Y-94234000D01*
X126238000Y-93980000D02*
X126492000Y-93726000D01*
X126492000Y-93726000D02*
X128524000Y-93726000D01*
X130810000Y-93726000D02*
X131064000Y-93472000D01*
X131064000Y-93472000D02*
X132842000Y-93472000D01*
X134874000Y-93218000D02*
X136652000Y-93218000D01*
X137922000Y-93218000D02*
X138938000Y-92202000D01*
X138938000Y-92202000D02*
X140970000Y-92202000D01*
X144018000Y-92202000D02*
X145796000Y-92202000D01*
X147066000Y-92202000D02*
X147828000Y-92964000D01*
D29*
X113538000Y-97536000D02*
X114554000Y-97536000D01*
X107696000Y-100838000D02*
X107696000Y-99060000D01*
X107950000Y-96266000D02*
X107950000Y-95250000D01*
X107950000Y-93980000D02*
X107950000Y-92710000D01*
X113284000Y-101600000D02*
X112268000Y-101600000D01*
X116078000Y-102108000D02*
X114808000Y-102108000D01*
D30*
X82804000Y-94996000D02*
X83058000Y-94996000D01*
X84328000Y-93980000D02*
X85344000Y-93980000D01*
X101854000Y-96012000D02*
X103124000Y-96012000D01*
X98806000Y-96012000D02*
X100076000Y-96012000D01*
X98552000Y-96266000D02*
X98806000Y-96012000D01*
X94996000Y-96266000D02*
X96774000Y-96266000D01*
X94742000Y-96012000D02*
X94996000Y-96266000D01*
X90678000Y-96012000D02*
X92710000Y-96012000D01*
X88392000Y-95758000D02*
X88646000Y-96012000D01*
X87376000Y-95758000D02*
X88392000Y-95758000D01*
X86868000Y-95250000D02*
X87376000Y-95758000D01*
X85344000Y-93980000D02*
X85852000Y-94488000D01*
X100330000Y-93472000D02*
X101854000Y-91948000D01*
X97536000Y-92710000D02*
X99314000Y-92710000D01*
X93726000Y-92710000D02*
X95758000Y-92710000D01*
X90424000Y-92710000D02*
X91694000Y-92710000D01*
X90170000Y-92456000D02*
X90424000Y-92710000D01*
X87630000Y-92202000D02*
X88646000Y-92202000D01*
X87376000Y-91948000D02*
X87630000Y-92202000D01*
X62992000Y-72390000D02*
X62992000Y-73660000D01*
X59944000Y-78232000D02*
X59436000Y-78232000D01*
X60706000Y-77470000D02*
X59944000Y-78232000D01*
X62738000Y-75184000D02*
X62738000Y-76708000D01*
D29*
X73660000Y-60198000D02*
X73660000Y-60960000D01*
X65278000Y-70612000D02*
X65278000Y-72136000D01*
X65024000Y-70358000D02*
X65278000Y-70612000D01*
X65024000Y-67310000D02*
X65024000Y-69088000D01*
X65278000Y-67056000D02*
X65024000Y-67310000D01*
X65278000Y-64770000D02*
X65278000Y-65278000D01*
X65786000Y-64262000D02*
X65278000Y-64770000D01*
X67564000Y-63246000D02*
X66802000Y-63246000D01*
X68072000Y-62738000D02*
X67564000Y-63246000D01*
X71120000Y-62484000D02*
X69596000Y-62484000D01*
X73660000Y-60960000D02*
X72390000Y-62230000D01*
D30*
X64516000Y-79756000D02*
X64516000Y-80010000D01*
X65024000Y-79248000D02*
X64516000Y-79756000D01*
X65532000Y-75692000D02*
X65532000Y-77470000D01*
X65532000Y-73152000D02*
X65532000Y-74422000D01*
X105643680Y-92202000D02*
X105643680Y-94975680D01*
X105664000Y-94996000D02*
X105643680Y-94975680D01*
X82708000Y-94900000D02*
X79700000Y-94900000D01*
X82804000Y-94996000D02*
X82708000Y-94900000D01*
X66750000Y-86750000D02*
X66750000Y-87900000D01*
X62550000Y-85800000D02*
X62550000Y-84500000D01*
X62750000Y-86000000D02*
X62550000Y-85800000D01*
X63250000Y-87800000D02*
X62900000Y-87800000D01*
X64250000Y-88800000D02*
X63250000Y-87800000D01*
X66750000Y-87900000D02*
X65500000Y-89150000D01*
X64300000Y-81300000D02*
X64300000Y-80226000D01*
X64300000Y-80226000D02*
X64516000Y-80010000D01*
X68200000Y-86650000D02*
X66850000Y-86650000D01*
X64300000Y-81300000D02*
X64250000Y-81300000D01*
X64200000Y-84400000D02*
X64200000Y-82500000D01*
X64500000Y-86050000D02*
X64250000Y-86050000D01*
X65150000Y-86700000D02*
X64500000Y-86050000D01*
X66850000Y-86650000D02*
X66750000Y-86750000D01*
X69200000Y-86650000D02*
X69200000Y-86400000D01*
X77050000Y-93100000D02*
X77100000Y-93050000D01*
X75900000Y-93100000D02*
X77050000Y-93100000D01*
X75700000Y-92900000D02*
X75900000Y-93100000D01*
X74300000Y-92250000D02*
X74500000Y-92250000D01*
X73450000Y-91400000D02*
X74300000Y-92250000D01*
X72150000Y-89550000D02*
X72150000Y-90600000D01*
X71900000Y-89300000D02*
X72150000Y-89550000D01*
X71700000Y-87250000D02*
X71700000Y-87800000D01*
X71100000Y-86650000D02*
X71700000Y-87250000D01*
X69950000Y-85650000D02*
X70500000Y-85650000D01*
X69200000Y-86400000D02*
X69950000Y-85650000D01*
X68200000Y-86650000D02*
X69200000Y-86650000D01*
X79700000Y-94900000D02*
X79750000Y-94850000D01*
X70000000Y-88000000D02*
X70350000Y-88350000D01*
X70350000Y-88350000D02*
X70358000Y-88900000D01*
X70358000Y-90424000D02*
X71374000Y-91694000D01*
X71374000Y-91694000D02*
X71882000Y-92202000D01*
X72898000Y-93218000D02*
X73610000Y-93900000D01*
X73610000Y-93900000D02*
X73860000Y-93900000D01*
X75650000Y-95000000D02*
X77300000Y-95000000D01*
D29*
X52425600Y-70129400D02*
X52146200Y-70408800D01*
X52146200Y-70408800D02*
X52146200Y-71805800D01*
X51917600Y-73710800D02*
X51866800Y-73761600D01*
X51866800Y-73761600D02*
X51866800Y-75895200D01*
X51638200Y-77901800D02*
X51790600Y-78054200D01*
X51790600Y-78054200D02*
X51790600Y-79857600D01*
X52019200Y-82092800D02*
X52679600Y-82753200D01*
X52679600Y-82753200D02*
X53136800Y-82753200D01*
X53505100Y-59436000D02*
X53505100Y-59245500D01*
X53505100Y-59245500D02*
X54864000Y-57886600D01*
X56108600Y-56438800D02*
X57556400Y-54991000D01*
X57556400Y-54991000D02*
X57785000Y-54991000D01*
X59436000Y-54076600D02*
X60020200Y-54660800D01*
X60020200Y-54660800D02*
X61976000Y-54660800D01*
X54152800Y-59436000D02*
X53505100Y-59436000D01*
X53505100Y-59436000D02*
X53594000Y-59436000D01*
X55219600Y-60502800D02*
X54152800Y-59436000D01*
X60782200Y-61696600D02*
X57810400Y-61696600D01*
X60858400Y-61620400D02*
X60782200Y-61696600D01*
X62941200Y-59410600D02*
X62941200Y-60401200D01*
X63423800Y-58928000D02*
X62941200Y-59410600D01*
X62941200Y-55626000D02*
X62941200Y-56438800D01*
X61976000Y-54660800D02*
X62941200Y-55626000D01*
X134035800Y-63195200D02*
X134035800Y-61722000D01*
X137871200Y-54457600D02*
X139725400Y-54457600D01*
X137668000Y-54660800D02*
X137871200Y-54457600D01*
X134696200Y-55676800D02*
X134696200Y-55194200D01*
X134239000Y-56134000D02*
X134696200Y-55676800D01*
X133832600Y-59791600D02*
X133832600Y-58318400D01*
X133908800Y-59867800D02*
X133832600Y-59791600D01*
X134035800Y-61722000D02*
X133985000Y-61671200D01*
X121666000Y-68580000D02*
X121737120Y-68580000D01*
X121737120Y-68508880D02*
X121666000Y-68580000D01*
X121737120Y-68381880D02*
X121737120Y-68508880D01*
X122478800Y-67640200D02*
X121737120Y-68381880D01*
X140716000Y-62484000D02*
X141224000Y-61976000D01*
X141224000Y-61976000D02*
X141224000Y-60452000D01*
X141732000Y-58420000D02*
X141732000Y-56388000D01*
X138125200Y-63220600D02*
X138988800Y-62357000D01*
X138988800Y-62357000D02*
X139065000Y-62357000D01*
X134696200Y-63855600D02*
X134696200Y-64389000D01*
X134035800Y-63195200D02*
X134696200Y-63855600D01*
X123621800Y-57708800D02*
X122428000Y-57708800D01*
X123774200Y-57556400D02*
X123621800Y-57708800D01*
X122174000Y-50800000D02*
X126111000Y-50800000D01*
X126365000Y-52197000D02*
X126365000Y-53848000D01*
X126492000Y-55626000D02*
X126619000Y-55499000D01*
X126619000Y-55499000D02*
X129667000Y-55499000D01*
X129794000Y-53848000D02*
X129540000Y-53594000D01*
X129540000Y-53594000D02*
X129540000Y-52578000D01*
X129540000Y-51181000D02*
X129667000Y-51054000D01*
X129667000Y-51054000D02*
X134366000Y-51054000D01*
X136271000Y-51308000D02*
X136398000Y-51435000D01*
X136398000Y-51435000D02*
X138049000Y-51435000D01*
X139700000Y-51435000D02*
X139954000Y-51181000D01*
X139954000Y-51181000D02*
X140970000Y-51181000D01*
X141732000Y-54356000D02*
X141706600Y-54330600D01*
X73660000Y-60198000D02*
X72136000Y-60198000D01*
X70612000Y-60452000D02*
X70358000Y-60706000D01*
X70358000Y-60706000D02*
X68834000Y-60706000D01*
X67310000Y-61214000D02*
X66548000Y-61214000D01*
X66548000Y-61214000D02*
X66040000Y-61722000D01*
X66040000Y-61722000D02*
X65786000Y-61722000D01*
X64516000Y-62484000D02*
X63754000Y-63246000D01*
X63754000Y-63246000D02*
X63500000Y-63246000D01*
X62484000Y-71882000D02*
X62992000Y-72390000D01*
X62484000Y-71374000D02*
X62484000Y-71882000D01*
X62992000Y-70866000D02*
X62484000Y-71374000D01*
X62992000Y-67818000D02*
X62992000Y-69088000D01*
X63246000Y-67564000D02*
X62992000Y-67818000D01*
X63246000Y-64770000D02*
X63246000Y-66294000D01*
X63500000Y-64516000D02*
X63246000Y-64770000D01*
X57150000Y-71374000D02*
X57150000Y-71882000D01*
X56642000Y-70866000D02*
X57150000Y-71374000D01*
X53594000Y-59436000D02*
X53340000Y-59690000D01*
X53340000Y-59690000D02*
X53340000Y-61722000D01*
X53594000Y-64516000D02*
X53594000Y-67310000D01*
X63500000Y-50800000D02*
X62484000Y-51816000D01*
X68326000Y-50800000D02*
X63500000Y-50800000D01*
X68326000Y-50800000D02*
X68072000Y-50800000D01*
X67056000Y-51816000D02*
X67056000Y-52070000D01*
X67056000Y-53848000D02*
X66802000Y-54102000D01*
X68072000Y-50800000D02*
X67056000Y-51816000D01*
X70358000Y-52070000D02*
X69088000Y-50800000D01*
X69088000Y-50800000D02*
X68326000Y-50800000D01*
X74676000Y-52324000D02*
X74676000Y-52070000D01*
X70358000Y-54356000D02*
X70358000Y-55626000D01*
X70612000Y-54102000D02*
X70358000Y-54356000D01*
X71374000Y-51054000D02*
X70358000Y-52070000D01*
X73660000Y-51054000D02*
X71374000Y-51054000D01*
X74676000Y-52070000D02*
X73660000Y-51054000D01*
X108204000Y-51043840D02*
X105928160Y-51043840D01*
X105410000Y-51562000D02*
X105928160Y-51043840D01*
X100838000Y-51308000D02*
X103124000Y-51308000D01*
X100584000Y-51054000D02*
X100838000Y-51308000D01*
X94996000Y-51054000D02*
X97790000Y-51054000D01*
X90170000Y-51054000D02*
X92710000Y-51054000D01*
X85852000Y-51054000D02*
X88138000Y-51054000D01*
X81280000Y-51054000D02*
X83566000Y-51054000D01*
X76708000Y-51054000D02*
X78740000Y-51054000D01*
X76454000Y-51308000D02*
X76708000Y-51054000D01*
X74676000Y-52324000D02*
X74676000Y-54102000D01*
X76962000Y-53340000D02*
X76870560Y-53340000D01*
X62417960Y-79489300D02*
X63995300Y-79489300D01*
X63995300Y-79489300D02*
X64516000Y-80010000D01*
X61518800Y-76454000D02*
X62417960Y-79489300D01*
X60198000Y-73914000D02*
X61518800Y-76454000D01*
X66548000Y-80010000D02*
X68326000Y-80010000D01*
D30*
X100076000Y-64516000D02*
X100584000Y-64008000D01*
X100838000Y-91440000D02*
X102108000Y-90170000D01*
X102108000Y-90170000D02*
X102108000Y-88900000D01*
X102108000Y-88900000D02*
X101600000Y-88392000D01*
X101600000Y-88392000D02*
X101346000Y-88392000D01*
X100330000Y-86868000D02*
X101346000Y-85852000D01*
X101346000Y-85852000D02*
X101346000Y-85090000D01*
X101854000Y-83058000D02*
X102108000Y-82804000D01*
X102108000Y-82804000D02*
X102108000Y-81534000D01*
X102108000Y-80264000D02*
X101854000Y-80010000D01*
X101854000Y-80010000D02*
X101854000Y-78486000D01*
X101600000Y-76454000D02*
X101092000Y-75946000D01*
X101092000Y-75946000D02*
X101092000Y-74168000D01*
X101092000Y-71882000D02*
X101092000Y-69596000D01*
X101092000Y-68072000D02*
X101346000Y-67818000D01*
X101346000Y-67818000D02*
X101346000Y-65786000D01*
X84074000Y-91694000D02*
X85852000Y-91694000D01*
X83820000Y-91440000D02*
X84074000Y-91694000D01*
X100584000Y-64008000D02*
X100838000Y-64262000D01*
D29*
X100584000Y-64008000D02*
X103632000Y-64008000D01*
X103632000Y-64008000D02*
X105029000Y-62611000D01*
X80264000Y-64008000D02*
X80264000Y-63246000D01*
X80518000Y-64262000D02*
X80264000Y-64008000D01*
X80772000Y-69342000D02*
X80772000Y-66040000D01*
X80264000Y-69850000D02*
X80772000Y-69342000D01*
X80772000Y-73660000D02*
X80772000Y-72136000D01*
X80518000Y-76200000D02*
X80518000Y-75184000D01*
X80264000Y-76962000D02*
X80518000Y-76200000D01*
X53594000Y-77724000D02*
X52578000Y-78740000D01*
X55118000Y-76708000D02*
X54864000Y-76708000D01*
X56134000Y-75692000D02*
X55118000Y-76708000D01*
X72136000Y-82296000D02*
X72136000Y-84074000D01*
X75946000Y-84328000D02*
X77470000Y-84328000D01*
X73406000Y-84328000D02*
X74676000Y-84328000D01*
X72136000Y-84074000D02*
X72390000Y-84328000D01*
X72136000Y-82296000D02*
X72390000Y-82550000D01*
X72390000Y-82550000D02*
X73660000Y-82550000D01*
X80010000Y-56642000D02*
X80010000Y-57912000D01*
X79756000Y-56388000D02*
X80010000Y-56642000D01*
X79756000Y-53848000D02*
X79756000Y-55118000D01*
X80010000Y-53594000D02*
X79756000Y-53848000D01*
X83540600Y-86979760D02*
X83540600Y-85552280D01*
X83439000Y-85450680D02*
X83439000Y-83743800D01*
X83540600Y-85552280D02*
X83439000Y-85450680D01*
X83540600Y-86979760D02*
X83652360Y-87091520D01*
X83362800Y-81884520D02*
X83362800Y-83667600D01*
X83362800Y-83667600D02*
X83439000Y-83743800D01*
X83362800Y-80451960D02*
X83362800Y-81884520D01*
X83195160Y-80284320D02*
X83362800Y-80451960D01*
X83652360Y-89159080D02*
X83652360Y-87091520D01*
X127254000Y-73406000D02*
X127127000Y-73279000D01*
X127127000Y-73279000D02*
X127127000Y-72390000D01*
X127508000Y-71501000D02*
X127741680Y-71267320D01*
X127741680Y-71267320D02*
X127741680Y-70180200D01*
X120449340Y-72532240D02*
X120449340Y-72824340D01*
X120904000Y-80137000D02*
X120904000Y-81026000D01*
X121793000Y-79248000D02*
X120904000Y-80137000D01*
X121793000Y-76454000D02*
X121793000Y-77597000D01*
X122174000Y-76073000D02*
X121793000Y-76454000D01*
X120449340Y-72824340D02*
X122047000Y-74422000D01*
X121412000Y-60579000D02*
X121412000Y-59055000D01*
X121285000Y-63119000D02*
X121285000Y-61976000D01*
X121031000Y-63373000D02*
X121285000Y-63119000D01*
X121031000Y-67056000D02*
X121031000Y-65151000D01*
X120523000Y-67564000D02*
X121031000Y-67056000D01*
X120523000Y-70231000D02*
X120523000Y-69215000D01*
X119253000Y-71501000D02*
X120523000Y-70231000D01*
X121285000Y-52959000D02*
X121285000Y-51816000D01*
X121920000Y-53340000D02*
X121285000Y-52959000D01*
X121539000Y-57023000D02*
X121539000Y-55245000D01*
X105029000Y-62611000D02*
X106299000Y-62611000D01*
X109855000Y-51943000D02*
X109855000Y-51689000D01*
X109220000Y-52578000D02*
X109855000Y-51943000D01*
X108204000Y-54737000D02*
X108204000Y-53975000D01*
X107315000Y-55626000D02*
X108204000Y-54737000D01*
X107315000Y-58801000D02*
X107315000Y-57277000D01*
X107061000Y-60579000D02*
X107061000Y-59563000D01*
X106807000Y-60833000D02*
X107061000Y-60579000D01*
X106299000Y-62611000D02*
X106553000Y-62357000D01*
X104775000Y-89997280D02*
X104775000Y-91729560D01*
X105745280Y-88574880D02*
X104775000Y-89997280D01*
X104546400Y-88092280D02*
X104719120Y-88265000D01*
X104546400Y-85267800D02*
X104546400Y-88092280D01*
X104241600Y-84963000D02*
X104546400Y-85267800D01*
X103977440Y-80660240D02*
X103977440Y-83251040D01*
X104053640Y-80584040D02*
X103977440Y-80660240D01*
X104089200Y-76433680D02*
X104089200Y-78714600D01*
X104129840Y-76393040D02*
X104089200Y-76433680D01*
X105643680Y-92202000D02*
X104216200Y-93629480D01*
X143357600Y-54063900D02*
X144221200Y-54927500D01*
X144221200Y-54927500D02*
X144221200Y-55321200D01*
X145516600Y-56807100D02*
X145567400Y-56857900D01*
X145567400Y-56857900D02*
X146773900Y-56857900D01*
X148107400Y-57111900D02*
X148361400Y-57365900D01*
X148361400Y-57365900D02*
X148361400Y-58940700D01*
X148475700Y-60617100D02*
X148475700Y-62407800D01*
X148628100Y-64160400D02*
X148780500Y-64312800D01*
X148780500Y-64312800D02*
X148780500Y-65189100D01*
X148666200Y-67398900D02*
X148818600Y-67551300D01*
X148818600Y-67551300D02*
X148818600Y-69189600D01*
X119070120Y-50998120D02*
X120904000Y-50800000D01*
X118872000Y-50800000D02*
X119070120Y-50998120D01*
X114767360Y-50657760D02*
X117434360Y-50657760D01*
X114726720Y-50698400D02*
X114767360Y-50657760D01*
X110378240Y-50779680D02*
X112958880Y-50779680D01*
X110317280Y-50718720D02*
X110378240Y-50779680D01*
X94259400Y-57241440D02*
X94259400Y-58430160D01*
X94762320Y-59679840D02*
X96514920Y-59679840D01*
X94686120Y-59756040D02*
X94762320Y-59679840D01*
X94259400Y-58430160D02*
X94366080Y-58536840D01*
X92247720Y-57104280D02*
X94122240Y-57104280D01*
X94396560Y-55885080D02*
X94396560Y-54574440D01*
X94198440Y-56083200D02*
X94396560Y-55885080D01*
X94122240Y-57104280D02*
X94259400Y-57241440D01*
X92247720Y-57104280D02*
X92247720Y-58399680D01*
X92247720Y-58399680D02*
X92186760Y-58460640D01*
X92323920Y-54650640D02*
X92323920Y-53614320D01*
X92339160Y-54665880D02*
X92323920Y-54650640D01*
X92308680Y-57043320D02*
X92308680Y-55930800D01*
X92247720Y-57104280D02*
X92308680Y-57043320D01*
X126507240Y-67650360D02*
X124536200Y-67650360D01*
X129997200Y-67894200D02*
X129860040Y-67757040D01*
X129860040Y-67757040D02*
X128991360Y-67757040D01*
X127650240Y-67787520D02*
X127513080Y-67650360D01*
X127513080Y-67650360D02*
X126507240Y-67650360D01*
X124536200Y-67650360D02*
X124508260Y-67678300D01*
X128305560Y-70180200D02*
X127741680Y-70180200D01*
X128549400Y-69936360D02*
X128305560Y-70180200D01*
X129997200Y-67894200D02*
X129997200Y-69936360D01*
X136961880Y-70119240D02*
X139095480Y-70119240D01*
X136916160Y-70164960D02*
X136961880Y-70119240D01*
X134112000Y-70195440D02*
X135392160Y-70195440D01*
X134005320Y-70088760D02*
X134112000Y-70195440D01*
X131612640Y-69982080D02*
X132938520Y-69982080D01*
X131521200Y-70073520D02*
X131612640Y-69982080D01*
X129997200Y-69936360D02*
X130042920Y-69982080D01*
X108204000Y-51043840D02*
X107259120Y-51043840D01*
X114338100Y-72618600D02*
X113154460Y-72618600D01*
X107764580Y-72560180D02*
X106283760Y-72560180D01*
X107848400Y-72644000D02*
X107764580Y-72560180D01*
X111229140Y-72644000D02*
X109776260Y-72644000D01*
X111368840Y-72783700D02*
X111229140Y-72644000D01*
X113154460Y-72618600D02*
X113073180Y-72699880D01*
X121737120Y-68580000D02*
X121737120Y-71244460D01*
X115143280Y-72618600D02*
X114338100Y-72618600D01*
X115364260Y-72839580D02*
X115143280Y-72618600D01*
X118772940Y-72755760D02*
X116900960Y-72755760D01*
X118828820Y-72699880D02*
X118772940Y-72755760D01*
X121737120Y-71244460D02*
X120449340Y-72532240D01*
X121427240Y-75102720D02*
X120924320Y-74599800D01*
X120924320Y-74599800D02*
X119415560Y-74599800D01*
X117320060Y-74348340D02*
X117264180Y-74404220D01*
X117264180Y-74404220D02*
X115224560Y-74404220D01*
X112709960Y-74264520D02*
X112682020Y-74292460D01*
X112682020Y-74292460D02*
X110837980Y-74292460D01*
X109049820Y-74236580D02*
X109021880Y-74264520D01*
X109021880Y-74264520D02*
X107652820Y-74264520D01*
X105724960Y-74292460D02*
X105417620Y-74599800D01*
X105417620Y-74599800D02*
X104190800Y-74599800D01*
X105029000Y-62611000D02*
X105156000Y-62992000D01*
X105156000Y-62992000D02*
X105156000Y-63627000D01*
X105283000Y-65278000D02*
X105379520Y-65374520D01*
X105379520Y-65374520D02*
X105283000Y-67310000D01*
X105283000Y-68453000D02*
X105410000Y-70358000D01*
X104272080Y-71749920D02*
X104190800Y-71831200D01*
X104190800Y-71831200D02*
X104190800Y-74599800D01*
X103952040Y-55829200D02*
X103952040Y-55397400D01*
X108204000Y-51145440D02*
X108204000Y-51043840D01*
X103952040Y-55397400D02*
X108204000Y-51145440D01*
X114300000Y-71501000D02*
X114376200Y-71424800D01*
X114376200Y-71424800D02*
X114376200Y-68160900D01*
X114528600Y-65836800D02*
X114376200Y-65684400D01*
X114376200Y-65684400D02*
X114482880Y-62199520D01*
X114300000Y-60769500D02*
X114147600Y-60617100D01*
X114147600Y-60617100D02*
X114223800Y-57785000D01*
X114223800Y-56235600D02*
X114185700Y-56197500D01*
X114185700Y-56197500D02*
X114185700Y-54406800D01*
X114223800Y-52616100D02*
X114223800Y-51549300D01*
X103977440Y-55854600D02*
X104383840Y-55854600D01*
X103952040Y-55829200D02*
X103977440Y-55854600D01*
X98465640Y-70129400D02*
X98465640Y-69748400D01*
X98719640Y-70383400D02*
X98465640Y-70129400D01*
X89067640Y-67970400D02*
X89067640Y-68351400D01*
X89956640Y-67081400D02*
X89067640Y-67970400D01*
X131104640Y-86385400D02*
X131358640Y-86385400D01*
D30*
X76962000Y-98044000D02*
X76962000Y-99568000D01*
D29*
X97688400Y-81991200D02*
X97688400Y-84086700D01*
X97688400Y-84086700D02*
X97764600Y-84162900D01*
X92918280Y-81899760D02*
X93009720Y-81991200D01*
X93009720Y-81991200D02*
X97688400Y-81991200D01*
X97688400Y-81991200D02*
X99822000Y-81991200D01*
X96659700Y-73761600D02*
X98488500Y-73761600D01*
X108204000Y-79756000D02*
X107442000Y-80518000D01*
X107442000Y-80518000D02*
X107442000Y-89916000D01*
X110998000Y-113792000D02*
X110490000Y-113792000D01*
X110490000Y-113792000D02*
X105918000Y-113792000D01*
X112014000Y-113030000D02*
X111506000Y-112776000D01*
X111506000Y-112776000D02*
X106172000Y-112776000D01*
D28*
X61722000Y-134874000D02*
X61722000Y-138430000D01*
X117856000Y-147574000D02*
X117856000Y-145542000D01*
X116840000Y-148590000D02*
X117856000Y-147574000D01*
X113792000Y-148590000D02*
X116840000Y-148590000D01*
X113538000Y-148844000D02*
X113792000Y-148590000D01*
X68834000Y-148844000D02*
X113538000Y-148844000D01*
X67564000Y-147574000D02*
X68834000Y-148844000D01*
X67564000Y-145796000D02*
X67564000Y-147574000D01*
X65024000Y-143256000D02*
X67564000Y-145796000D01*
X65024000Y-141732000D02*
X65024000Y-143256000D01*
X61722000Y-138430000D02*
X65024000Y-141732000D01*
X141986000Y-113538000D02*
X141986000Y-112776000D01*
X143764000Y-110998000D02*
X149189440Y-110998000D01*
X141986000Y-112776000D02*
X143764000Y-110998000D01*
X130810000Y-125476000D02*
X130810000Y-124968000D01*
X130810000Y-124968000D02*
X132588000Y-123190000D01*
X132588000Y-123190000D02*
X149189440Y-123190000D01*
X130810000Y-125476000D02*
X130810000Y-126238000D01*
X149189440Y-101600000D02*
X149352000Y-101600000D01*
X149352000Y-101600000D02*
X149189440Y-101600000D01*
X117348000Y-138430000D02*
X117348000Y-145034000D01*
X117348000Y-145034000D02*
X117856000Y-145542000D01*
X139192000Y-138430000D02*
X146558000Y-138430000D01*
X149189440Y-88366600D02*
X148021040Y-87198200D01*
X149189440Y-88366600D02*
X149189440Y-101600000D01*
X149189440Y-101600000D02*
X149189440Y-110998000D01*
X149189440Y-110998000D02*
X149189440Y-123190000D01*
X149189440Y-123190000D02*
X149189440Y-127254000D01*
X149189440Y-127254000D02*
X149189440Y-135798560D01*
X146558000Y-138430000D02*
X149189440Y-135798560D01*
D29*
X92710000Y-110236000D02*
X92964000Y-110236000D01*
X130556000Y-144018000D02*
X129540000Y-144018000D01*
X131318000Y-143764000D02*
X130556000Y-144018000D01*
X132080000Y-141478000D02*
X131318000Y-143764000D01*
X100330000Y-112776000D02*
X99060000Y-114046000D01*
X100330000Y-110236000D02*
X100330000Y-112776000D01*
X108966000Y-87376000D02*
X108966000Y-89916000D01*
X108712000Y-87122000D02*
X108966000Y-87376000D01*
X110784640Y-86131400D02*
X110911640Y-86258400D01*
X109260640Y-86131400D02*
X110784640Y-86131400D01*
X108625640Y-85496400D02*
X109260640Y-86131400D01*
X108625640Y-82448400D02*
X108625640Y-85496400D01*
X91186000Y-115316000D02*
X91186000Y-113030000D01*
X91694000Y-115824000D02*
X91186000Y-115316000D01*
X130048000Y-138430000D02*
X130048000Y-141224000D01*
X97790000Y-112268000D02*
X97790000Y-110236000D01*
X97028000Y-114808000D02*
X97790000Y-112268000D01*
X129286000Y-141986000D02*
X128778000Y-141986000D01*
X130048000Y-141224000D02*
X129286000Y-141986000D01*
X120396000Y-133350000D02*
X121158000Y-134112000D01*
X121158000Y-134112000D02*
X121158000Y-136652000D01*
X121158000Y-136652000D02*
X121666000Y-137160000D01*
X121666000Y-137160000D02*
X123698000Y-137160000D01*
X123698000Y-137160000D02*
X124968000Y-138430000D01*
X105115360Y-52872640D02*
X101254560Y-52669440D01*
X105156000Y-52832000D02*
X105115360Y-52872640D01*
X126349760Y-68559680D02*
X124642880Y-68559680D01*
X100276660Y-75885040D02*
X100276660Y-76220320D01*
X99382580Y-74990960D02*
X100276660Y-75885040D01*
X91084400Y-74990960D02*
X99382580Y-74990960D01*
X90162380Y-74068940D02*
X91084400Y-74990960D01*
X125897640Y-89687400D02*
X121325640Y-89687400D01*
X133238240Y-79674720D02*
X134680960Y-79674720D01*
X132933440Y-79979520D02*
X133238240Y-79674720D01*
D28*
X132588000Y-135890000D02*
X139192000Y-135890000D01*
D29*
X90170000Y-125476000D02*
X90170000Y-129032000D01*
X120142000Y-143510000D02*
X120142000Y-138684000D01*
X119126000Y-144526000D02*
X120142000Y-143510000D01*
X90170000Y-129032000D02*
X89916000Y-129286000D01*
X120142000Y-138684000D02*
X119888000Y-138430000D01*
X124460000Y-123698000D02*
X124460000Y-122174000D01*
X124460000Y-124714000D02*
X124460000Y-123698000D01*
X124460000Y-126492000D02*
X124460000Y-124714000D01*
X123952000Y-127000000D02*
X124460000Y-126492000D01*
X120396000Y-127000000D02*
X123952000Y-127000000D01*
X119380000Y-125984000D02*
X120396000Y-127000000D01*
X119380000Y-124206000D02*
X119380000Y-125984000D01*
X118618000Y-123444000D02*
X119380000Y-124206000D01*
X118110000Y-122936000D02*
X118618000Y-123444000D01*
D28*
X54102000Y-112776000D02*
X55118000Y-112776000D01*
X55118000Y-112776000D02*
X56642000Y-114300000D01*
X56642000Y-114300000D02*
X56642000Y-118618000D01*
X56642000Y-118618000D02*
X57658000Y-119634000D01*
D29*
X54102000Y-131318000D02*
X56134000Y-131318000D01*
X56134000Y-131318000D02*
X58420000Y-133604000D01*
D28*
X54102000Y-131318000D02*
X55118000Y-131318000D01*
X54102000Y-125476000D02*
X54864000Y-125476000D01*
X54864000Y-125476000D02*
X61722000Y-132334000D01*
G36*
X63191398Y-50878628D02*
X63076000Y-51157225D01*
X63076000Y-52408500D01*
X63265500Y-52598000D01*
X64459000Y-52598000D01*
X64459000Y-52578000D01*
X65709000Y-52578000D01*
X65709000Y-52598000D01*
X66902500Y-52598000D01*
X67092000Y-52408500D01*
X67092000Y-51157225D01*
X66976602Y-50878628D01*
X66922974Y-50825000D01*
X70745026Y-50825000D01*
X70691398Y-50878628D01*
X70576000Y-51157225D01*
X70576000Y-52408500D01*
X70765500Y-52598000D01*
X71959000Y-52598000D01*
X71959000Y-52578000D01*
X73209000Y-52578000D01*
X73209000Y-52598000D01*
X74402500Y-52598000D01*
X74592000Y-52408500D01*
X74592000Y-52339225D01*
X75354000Y-52339225D01*
X75354000Y-52725500D01*
X75543500Y-52915000D01*
X76537000Y-52915000D01*
X76537000Y-51921500D01*
X77387000Y-51921500D01*
X77387000Y-52915000D01*
X78380500Y-52915000D01*
X78418118Y-52877382D01*
X100204378Y-52877382D01*
X100363894Y-53263440D01*
X100659006Y-53559068D01*
X101044786Y-53719258D01*
X101462502Y-53719622D01*
X101704993Y-53619427D01*
X104693061Y-53776694D01*
X104946226Y-53881818D01*
X105363942Y-53882182D01*
X105750000Y-53722666D01*
X106045628Y-53427554D01*
X106205818Y-53041774D01*
X106206182Y-52624058D01*
X106046666Y-52238000D01*
X105751554Y-51942372D01*
X105365774Y-51782182D01*
X104948058Y-51781818D01*
X104613732Y-51919959D01*
X101835479Y-51773735D01*
X101464334Y-51619622D01*
X101046618Y-51619258D01*
X100660560Y-51778774D01*
X100364932Y-52073886D01*
X100204742Y-52459666D01*
X100204378Y-52877382D01*
X78418118Y-52877382D01*
X78570000Y-52725500D01*
X78570000Y-52339225D01*
X78454602Y-52060628D01*
X78241373Y-51847399D01*
X77962776Y-51732000D01*
X77576500Y-51732000D01*
X77387000Y-51921500D01*
X76537000Y-51921500D01*
X76347500Y-51732000D01*
X75961224Y-51732000D01*
X75682627Y-51847399D01*
X75469398Y-52060628D01*
X75354000Y-52339225D01*
X74592000Y-52339225D01*
X74592000Y-51157225D01*
X74476602Y-50878628D01*
X74422974Y-50825000D01*
X122427026Y-50825000D01*
X122373398Y-50878628D01*
X122258000Y-51157225D01*
X122258000Y-52408500D01*
X122447500Y-52598000D01*
X123641000Y-52598000D01*
X123641000Y-52578000D01*
X124891000Y-52578000D01*
X124891000Y-52598000D01*
X126084500Y-52598000D01*
X126274000Y-52408500D01*
X126274000Y-51157225D01*
X126158602Y-50878628D01*
X126104974Y-50825000D01*
X129927026Y-50825000D01*
X129873398Y-50878628D01*
X129758000Y-51157225D01*
X129758000Y-52408500D01*
X129947500Y-52598000D01*
X131141000Y-52598000D01*
X131141000Y-52578000D01*
X132391000Y-52578000D01*
X132391000Y-52598000D01*
X133584500Y-52598000D01*
X133774000Y-52408500D01*
X133774000Y-51157225D01*
X133658602Y-50878628D01*
X133604974Y-50825000D01*
X144484152Y-50825000D01*
X143770691Y-51538461D01*
X144085231Y-51853001D01*
X143775382Y-52202263D01*
X143715561Y-53496996D01*
X143775382Y-53797737D01*
X144085232Y-54147001D01*
X145232233Y-53000000D01*
X145218091Y-52985858D01*
X146985858Y-51218091D01*
X147000000Y-51232233D01*
X147014143Y-51218091D01*
X148781910Y-52985858D01*
X148767767Y-53000000D01*
X148781910Y-53014143D01*
X147014143Y-54781910D01*
X147000000Y-54767767D01*
X145852999Y-55914768D01*
X146202263Y-56224618D01*
X147496996Y-56284439D01*
X147797737Y-56224618D01*
X148146999Y-55914769D01*
X148461539Y-56229309D01*
X149175000Y-55515848D01*
X149175000Y-86937946D01*
X148961314Y-86724260D01*
X148911706Y-86604200D01*
X148616594Y-86308572D01*
X148230814Y-86148382D01*
X147813098Y-86148018D01*
X147427040Y-86307534D01*
X147131412Y-86602646D01*
X146971222Y-86988426D01*
X146970858Y-87406142D01*
X147130374Y-87792200D01*
X147425486Y-88087828D01*
X147546848Y-88138222D01*
X148189440Y-88780814D01*
X148189440Y-107278800D01*
X147318435Y-106407795D01*
X147003742Y-106722488D01*
X146506008Y-106666252D01*
X146032679Y-106760403D01*
X145862301Y-107029706D01*
X146686000Y-107853406D01*
X147106729Y-107432677D01*
X148061323Y-108387271D01*
X147640594Y-108808000D01*
X148061323Y-109228729D01*
X147292052Y-109998000D01*
X146921406Y-109998000D01*
X146686000Y-109762594D01*
X146450594Y-109998000D01*
X146079948Y-109998000D01*
X145310677Y-109228729D01*
X145731406Y-108808000D01*
X144907706Y-107984301D01*
X144638403Y-108154679D01*
X144544252Y-108987992D01*
X144576436Y-109149794D01*
X144285795Y-109440435D01*
X144843360Y-109998000D01*
X143764005Y-109998000D01*
X143764000Y-109997999D01*
X143381316Y-110074120D01*
X143056893Y-110290893D01*
X141278893Y-112068893D01*
X141161250Y-112244957D01*
X141131771Y-112257138D01*
X140706630Y-112681537D01*
X140476262Y-113236325D01*
X140475738Y-113837040D01*
X140705138Y-114392229D01*
X141120536Y-114808353D01*
X140706630Y-115221537D01*
X140476262Y-115776325D01*
X140475738Y-116377040D01*
X140705138Y-116932229D01*
X141129537Y-117357370D01*
X141684325Y-117587738D01*
X142285040Y-117588262D01*
X142840229Y-117358862D01*
X142985882Y-117213464D01*
X143129537Y-117357370D01*
X143684325Y-117587738D01*
X144285040Y-117588262D01*
X144840229Y-117358862D01*
X145265370Y-116934463D01*
X145495738Y-116379675D01*
X145496262Y-115778960D01*
X145266862Y-115223771D01*
X144842463Y-114798630D01*
X144614621Y-114704022D01*
X143986000Y-114075401D01*
X143717300Y-114344102D01*
X143412744Y-114039546D01*
X143495738Y-113839675D01*
X143496001Y-113538000D01*
X144523401Y-113538000D01*
X145176767Y-114191366D01*
X145423179Y-114112466D01*
X145533619Y-113518753D01*
X145423179Y-112963534D01*
X145176767Y-112884634D01*
X144523401Y-113538000D01*
X143496001Y-113538000D01*
X143496262Y-113238960D01*
X143412634Y-113036564D01*
X143717300Y-112731899D01*
X143986000Y-113000599D01*
X144639366Y-112347233D01*
X144560466Y-112100821D01*
X144260860Y-112045090D01*
X144213770Y-111998000D01*
X148189440Y-111998000D01*
X148189440Y-119278800D01*
X147318435Y-118407795D01*
X147003742Y-118722488D01*
X146506008Y-118666252D01*
X146032679Y-118760403D01*
X145862301Y-119029706D01*
X146686000Y-119853406D01*
X147106729Y-119432677D01*
X148061323Y-120387271D01*
X147640594Y-120808000D01*
X148061323Y-121228729D01*
X147106729Y-122183323D01*
X146686000Y-121762594D01*
X146265271Y-122183323D01*
X145310677Y-121228729D01*
X145731406Y-120808000D01*
X144907706Y-119984301D01*
X144638403Y-120154679D01*
X144544252Y-120987992D01*
X144576436Y-121149794D01*
X144285795Y-121440435D01*
X145035360Y-122190000D01*
X132588005Y-122190000D01*
X132588000Y-122189999D01*
X132205316Y-122266120D01*
X131880893Y-122482893D01*
X130322230Y-124041556D01*
X129954640Y-124193441D01*
X129539649Y-124607708D01*
X129127598Y-124194936D01*
X128572075Y-123964263D01*
X127970564Y-123963738D01*
X127414640Y-124193441D01*
X126999649Y-124607708D01*
X126587598Y-124194936D01*
X126032075Y-123964263D01*
X125430564Y-123963738D01*
X125385000Y-123982565D01*
X125385000Y-122684369D01*
X125509818Y-122383774D01*
X125510182Y-121966058D01*
X125350666Y-121580000D01*
X125055554Y-121284372D01*
X124669774Y-121124182D01*
X124252058Y-121123818D01*
X123866000Y-121283334D01*
X123570372Y-121578446D01*
X123410182Y-121964226D01*
X123409818Y-122381942D01*
X123535000Y-122684905D01*
X123535000Y-123982087D01*
X123492075Y-123964263D01*
X122890564Y-123963738D01*
X122334640Y-124193441D01*
X121919649Y-124607708D01*
X121507598Y-124194936D01*
X120952075Y-123964263D01*
X120350564Y-123963738D01*
X120263932Y-123999534D01*
X120234589Y-123852018D01*
X120034074Y-123551926D01*
X119272074Y-122789926D01*
X119272071Y-122789924D01*
X119124959Y-122642812D01*
X119000666Y-122342000D01*
X118705554Y-122046372D01*
X118319774Y-121886182D01*
X117902058Y-121885818D01*
X117516000Y-122045334D01*
X117220372Y-122340446D01*
X117060182Y-122726226D01*
X117059818Y-123143942D01*
X117219334Y-123530000D01*
X117514446Y-123825628D01*
X117817192Y-123951339D01*
X117829607Y-123963755D01*
X117810564Y-123963738D01*
X117254640Y-124193441D01*
X116839649Y-124607708D01*
X116427598Y-124194936D01*
X115872075Y-123964263D01*
X115270564Y-123963738D01*
X114714640Y-124193441D01*
X114299649Y-124607708D01*
X113887598Y-124194936D01*
X113332075Y-123964263D01*
X112730564Y-123963738D01*
X112174640Y-124193441D01*
X111759649Y-124607708D01*
X111347598Y-124194936D01*
X110792075Y-123964263D01*
X110190564Y-123963738D01*
X109634640Y-124193441D01*
X109219649Y-124607708D01*
X108807598Y-124194936D01*
X108252075Y-123964263D01*
X107650564Y-123963738D01*
X107094640Y-124193441D01*
X106679649Y-124607708D01*
X106267598Y-124194936D01*
X105712075Y-123964263D01*
X105110564Y-123963738D01*
X104554640Y-124193441D01*
X104139649Y-124607708D01*
X103727598Y-124194936D01*
X103172075Y-123964263D01*
X102570564Y-123963738D01*
X102014640Y-124193441D01*
X101599649Y-124607708D01*
X101187598Y-124194936D01*
X100632075Y-123964263D01*
X100030564Y-123963738D01*
X99474640Y-124193441D01*
X99059649Y-124607708D01*
X98647598Y-124194936D01*
X98092075Y-123964263D01*
X97490564Y-123963738D01*
X96934640Y-124193441D01*
X96519649Y-124607708D01*
X96107598Y-124194936D01*
X95552075Y-123964263D01*
X94950564Y-123963738D01*
X94394640Y-124193441D01*
X93979649Y-124607708D01*
X93567598Y-124194936D01*
X93012075Y-123964263D01*
X92410564Y-123963738D01*
X91854640Y-124193441D01*
X91439649Y-124607708D01*
X91027598Y-124194936D01*
X90472075Y-123964263D01*
X89870564Y-123963738D01*
X89314640Y-124193441D01*
X88899649Y-124607708D01*
X88487598Y-124194936D01*
X87932075Y-123964263D01*
X87330564Y-123963738D01*
X86774640Y-124193441D01*
X86348936Y-124618402D01*
X86118263Y-125173925D01*
X86117738Y-125775436D01*
X86347441Y-126331360D01*
X86772402Y-126757064D01*
X87327925Y-126987737D01*
X87929436Y-126988262D01*
X88485360Y-126758559D01*
X88900351Y-126344292D01*
X89245000Y-126689544D01*
X89245000Y-128472200D01*
X89026372Y-128690446D01*
X88866182Y-129076226D01*
X88865818Y-129493942D01*
X89025334Y-129880000D01*
X89320446Y-130175628D01*
X89706226Y-130335818D01*
X90123942Y-130336182D01*
X90510000Y-130176666D01*
X90805628Y-129881554D01*
X90965818Y-129495774D01*
X90965837Y-129473911D01*
X91024589Y-129385983D01*
X91095000Y-129032000D01*
X91095000Y-126689041D01*
X91440351Y-126344292D01*
X91852402Y-126757064D01*
X92407925Y-126987737D01*
X93009436Y-126988262D01*
X93565360Y-126758559D01*
X93980351Y-126344292D01*
X94392402Y-126757064D01*
X94947925Y-126987737D01*
X95549436Y-126988262D01*
X96105360Y-126758559D01*
X96520351Y-126344292D01*
X96932402Y-126757064D01*
X97487925Y-126987737D01*
X98089436Y-126988262D01*
X98645360Y-126758559D01*
X99060351Y-126344292D01*
X99472402Y-126757064D01*
X100027925Y-126987737D01*
X100629436Y-126988262D01*
X101185360Y-126758559D01*
X101600351Y-126344292D01*
X102012402Y-126757064D01*
X102567925Y-126987737D01*
X103169436Y-126988262D01*
X103725360Y-126758559D01*
X104140351Y-126344292D01*
X104552402Y-126757064D01*
X105107925Y-126987737D01*
X105709436Y-126988262D01*
X106265360Y-126758559D01*
X106680351Y-126344292D01*
X107092402Y-126757064D01*
X107647925Y-126987737D01*
X108249436Y-126988262D01*
X108805360Y-126758559D01*
X109220351Y-126344292D01*
X109632402Y-126757064D01*
X110187925Y-126987737D01*
X110789436Y-126988262D01*
X111345360Y-126758559D01*
X111760351Y-126344292D01*
X112172402Y-126757064D01*
X112727925Y-126987737D01*
X113329436Y-126988262D01*
X113885360Y-126758559D01*
X114300351Y-126344292D01*
X114712402Y-126757064D01*
X115267925Y-126987737D01*
X115869436Y-126988262D01*
X116425360Y-126758559D01*
X116840351Y-126344292D01*
X117252402Y-126757064D01*
X117807925Y-126987737D01*
X118409436Y-126988262D01*
X118881190Y-126793338D01*
X119741926Y-127654074D01*
X120042017Y-127854589D01*
X120396000Y-127925000D01*
X123952000Y-127925000D01*
X124305983Y-127854589D01*
X124606074Y-127654074D01*
X125114071Y-127146076D01*
X125114074Y-127146074D01*
X125265059Y-126920109D01*
X125427925Y-126987737D01*
X126029436Y-126988262D01*
X126585360Y-126758559D01*
X127000351Y-126344292D01*
X127412402Y-126757064D01*
X127967925Y-126987737D01*
X128569436Y-126988262D01*
X129125360Y-126758559D01*
X129540351Y-126344292D01*
X129952402Y-126757064D01*
X129986787Y-126771342D01*
X130102893Y-126945107D01*
X130427317Y-127161880D01*
X130810000Y-127238000D01*
X131192683Y-127161880D01*
X131517107Y-126945107D01*
X131632752Y-126772033D01*
X131665360Y-126758559D01*
X131755305Y-126668770D01*
X132696045Y-126668770D01*
X132775255Y-126915265D01*
X133369788Y-127025653D01*
X133924745Y-126915265D01*
X134003955Y-126668770D01*
X133350000Y-126014815D01*
X132696045Y-126668770D01*
X131755305Y-126668770D01*
X132091064Y-126333598D01*
X132188685Y-126098500D01*
X132811185Y-125476000D01*
X132541778Y-125206593D01*
X133080593Y-124667778D01*
X133350000Y-124937185D01*
X134003955Y-124283230D01*
X133973996Y-124190000D01*
X135042968Y-124190000D01*
X135034640Y-124193441D01*
X134608936Y-124618402D01*
X134511315Y-124853500D01*
X133888815Y-125476000D01*
X134511162Y-126098347D01*
X134607441Y-126331360D01*
X135032402Y-126757064D01*
X135587925Y-126987737D01*
X136189436Y-126988262D01*
X136745360Y-126758559D01*
X137171064Y-126333598D01*
X137401737Y-125778075D01*
X137402262Y-125176564D01*
X137172559Y-124620640D01*
X136747598Y-124194936D01*
X136735711Y-124190000D01*
X148189440Y-124190000D01*
X148189440Y-135384346D01*
X146143786Y-137430000D01*
X140442496Y-137430000D01*
X140354717Y-137298629D01*
X140147244Y-137160000D01*
X140354717Y-137021371D01*
X140701553Y-136502293D01*
X140823346Y-135890000D01*
X140701553Y-135277707D01*
X140416109Y-134850509D01*
X140575198Y-134748138D01*
X140746446Y-134497508D01*
X140806693Y-134200000D01*
X140806693Y-132500000D01*
X140754396Y-132222067D01*
X140590138Y-131966802D01*
X140339508Y-131795554D01*
X140042000Y-131735307D01*
X138342000Y-131735307D01*
X138064067Y-131787604D01*
X137808802Y-131951862D01*
X137637554Y-132202492D01*
X137577307Y-132500000D01*
X137577307Y-134200000D01*
X137629604Y-134477933D01*
X137793862Y-134733198D01*
X137967158Y-134851606D01*
X137941504Y-134890000D01*
X134174468Y-134890000D01*
X134150396Y-134762067D01*
X133986138Y-134506802D01*
X133735508Y-134335554D01*
X133438000Y-134275307D01*
X131738000Y-134275307D01*
X131460067Y-134327604D01*
X131204802Y-134491862D01*
X131086394Y-134665158D01*
X130660293Y-134380447D01*
X130048000Y-134258654D01*
X129435707Y-134380447D01*
X128916629Y-134727283D01*
X128778000Y-134934756D01*
X128639371Y-134727283D01*
X128120293Y-134380447D01*
X127508000Y-134258654D01*
X126895707Y-134380447D01*
X126376629Y-134727283D01*
X126238000Y-134934756D01*
X126099371Y-134727283D01*
X125580293Y-134380447D01*
X124968000Y-134258654D01*
X124355707Y-134380447D01*
X123836629Y-134727283D01*
X123698000Y-134934756D01*
X123559371Y-134727283D01*
X123040293Y-134380447D01*
X122428000Y-134258654D01*
X122083000Y-134327279D01*
X122083000Y-134112005D01*
X122083001Y-134112000D01*
X122012589Y-133758018D01*
X121812074Y-133457926D01*
X121410958Y-133056810D01*
X121286666Y-132756000D01*
X120991554Y-132460372D01*
X120605774Y-132300182D01*
X120188058Y-132299818D01*
X119802000Y-132459334D01*
X119506372Y-132754446D01*
X119346182Y-133140226D01*
X119345818Y-133557942D01*
X119505334Y-133944000D01*
X119800446Y-134239628D01*
X119859783Y-134264267D01*
X119275707Y-134380447D01*
X118756629Y-134727283D01*
X118618000Y-134934756D01*
X118479371Y-134727283D01*
X117960293Y-134380447D01*
X117348000Y-134258654D01*
X116735707Y-134380447D01*
X116216629Y-134727283D01*
X115869793Y-135246361D01*
X115748000Y-135858654D01*
X115748000Y-135921346D01*
X115869793Y-136533639D01*
X116216629Y-137052717D01*
X116377190Y-137160000D01*
X116216629Y-137267283D01*
X115869793Y-137786361D01*
X115748000Y-138398654D01*
X115748000Y-138461346D01*
X115869793Y-139073639D01*
X116216629Y-139592717D01*
X116348000Y-139680496D01*
X116348000Y-145034000D01*
X116424120Y-145416684D01*
X116640893Y-145741107D01*
X116856000Y-145956214D01*
X116856000Y-147159786D01*
X116425786Y-147590000D01*
X113792000Y-147590000D01*
X113409317Y-147666120D01*
X113212338Y-147797737D01*
X113143101Y-147844000D01*
X108201946Y-147844000D01*
X108544000Y-147702666D01*
X108839628Y-147407554D01*
X108999818Y-147021774D01*
X109000182Y-146604058D01*
X108840666Y-146218000D01*
X108696000Y-146073081D01*
X108696000Y-145034000D01*
X108619880Y-144651317D01*
X108403107Y-144326893D01*
X108078683Y-144110120D01*
X107696000Y-144034000D01*
X107313317Y-144110120D01*
X106988893Y-144326893D01*
X106772120Y-144651317D01*
X106696000Y-145034000D01*
X106696000Y-146558000D01*
X106772120Y-146940684D01*
X106988893Y-147265107D01*
X107009726Y-147285940D01*
X107059334Y-147406000D01*
X107354446Y-147701628D01*
X107697316Y-147844000D01*
X76168000Y-147844000D01*
X76168000Y-147526500D01*
X75978500Y-147337000D01*
X74535000Y-147337000D01*
X74535000Y-147732000D01*
X72785000Y-147732000D01*
X72785000Y-147337000D01*
X71341500Y-147337000D01*
X71152000Y-147526500D01*
X71152000Y-147844000D01*
X69248214Y-147844000D01*
X68564000Y-147159786D01*
X68564000Y-145796000D01*
X68487880Y-145413317D01*
X68271107Y-145088893D01*
X68271104Y-145088891D01*
X67743438Y-144561224D01*
X71152000Y-144561224D01*
X71152000Y-145397500D01*
X71341500Y-145587000D01*
X72785000Y-145587000D01*
X72785000Y-144143500D01*
X72595500Y-143954000D01*
X71759225Y-143954000D01*
X71480628Y-144069398D01*
X71267399Y-144282627D01*
X71152000Y-144561224D01*
X67743438Y-144561224D01*
X66024000Y-142841786D01*
X66024000Y-141732000D01*
X65947880Y-141349317D01*
X65731107Y-141024893D01*
X63418214Y-138712000D01*
X71145307Y-138712000D01*
X71145307Y-142212000D01*
X71197604Y-142489933D01*
X71361862Y-142745198D01*
X71612492Y-142916446D01*
X71910000Y-142976693D01*
X75410000Y-142976693D01*
X75687933Y-142924396D01*
X75845307Y-142823129D01*
X75845307Y-144075333D01*
X75839372Y-144069398D01*
X75560775Y-143954000D01*
X74724500Y-143954000D01*
X74535000Y-144143500D01*
X74535000Y-145587000D01*
X75960065Y-145587000D01*
X76061862Y-145745198D01*
X76312492Y-145916446D01*
X76610000Y-145976693D01*
X80110000Y-145976693D01*
X80387933Y-145924396D01*
X80643198Y-145760138D01*
X80814446Y-145509508D01*
X80874693Y-145212000D01*
X80874693Y-145211500D01*
X82070000Y-145211500D01*
X82070000Y-145922775D01*
X82185398Y-146201372D01*
X82398627Y-146414601D01*
X82677224Y-146530000D01*
X83388500Y-146530000D01*
X83578000Y-146340500D01*
X83578000Y-145022000D01*
X85078000Y-145022000D01*
X85078000Y-146340500D01*
X85267500Y-146530000D01*
X85978776Y-146530000D01*
X86257373Y-146414601D01*
X86470602Y-146201372D01*
X86586000Y-145922775D01*
X86586000Y-145211500D01*
X86396500Y-145022000D01*
X85078000Y-145022000D01*
X83578000Y-145022000D01*
X82259500Y-145022000D01*
X82070000Y-145211500D01*
X80874693Y-145211500D01*
X80874693Y-144717589D01*
X87157610Y-144717589D01*
X87499431Y-145544858D01*
X88131813Y-146178345D01*
X88958484Y-146521608D01*
X89853589Y-146522390D01*
X90680858Y-146180569D01*
X91314345Y-145548187D01*
X91657608Y-144721516D01*
X91658390Y-143826411D01*
X91316569Y-142999142D01*
X90684187Y-142365655D01*
X89857516Y-142022392D01*
X88962411Y-142021610D01*
X88135142Y-142363431D01*
X87501655Y-142995813D01*
X87158392Y-143822484D01*
X87157610Y-144717589D01*
X80874693Y-144717589D01*
X80874693Y-142621225D01*
X82070000Y-142621225D01*
X82070000Y-143332500D01*
X82259500Y-143522000D01*
X83578000Y-143522000D01*
X83578000Y-142203500D01*
X85078000Y-142203500D01*
X85078000Y-143522000D01*
X86396500Y-143522000D01*
X86586000Y-143332500D01*
X86586000Y-142621225D01*
X86470602Y-142342628D01*
X86257373Y-142129399D01*
X85978776Y-142014000D01*
X85267500Y-142014000D01*
X85078000Y-142203500D01*
X83578000Y-142203500D01*
X83388500Y-142014000D01*
X82677224Y-142014000D01*
X82398627Y-142129399D01*
X82185398Y-142342628D01*
X82070000Y-142621225D01*
X80874693Y-142621225D01*
X80874693Y-141712000D01*
X80822396Y-141434067D01*
X80658138Y-141178802D01*
X80407508Y-141007554D01*
X80110000Y-140947307D01*
X76610000Y-140947307D01*
X76332067Y-140999604D01*
X76174693Y-141100871D01*
X76174693Y-139104000D01*
X101763307Y-139104000D01*
X101763307Y-140804000D01*
X101815604Y-141081933D01*
X101979862Y-141337198D01*
X102230492Y-141508446D01*
X102528000Y-141568693D01*
X104228000Y-141568693D01*
X104505933Y-141516396D01*
X104761198Y-141352138D01*
X104879606Y-141178842D01*
X105305707Y-141463553D01*
X105918000Y-141585346D01*
X106530293Y-141463553D01*
X107049371Y-141116717D01*
X107396207Y-140597639D01*
X107518000Y-139985346D01*
X107518000Y-139922654D01*
X107396207Y-139310361D01*
X107049371Y-138791283D01*
X106530293Y-138444447D01*
X105918000Y-138322654D01*
X105305707Y-138444447D01*
X104878509Y-138729891D01*
X104776138Y-138570802D01*
X104525508Y-138399554D01*
X104228000Y-138339307D01*
X102528000Y-138339307D01*
X102250067Y-138391604D01*
X101994802Y-138555862D01*
X101823554Y-138806492D01*
X101763307Y-139104000D01*
X76174693Y-139104000D01*
X76174693Y-138712000D01*
X76122396Y-138434067D01*
X75958138Y-138178802D01*
X75707508Y-138007554D01*
X75410000Y-137947307D01*
X71910000Y-137947307D01*
X71632067Y-137999604D01*
X71376802Y-138163862D01*
X71205554Y-138414492D01*
X71145307Y-138712000D01*
X63418214Y-138712000D01*
X62722000Y-138015786D01*
X62722000Y-136460468D01*
X62849933Y-136436396D01*
X63105198Y-136272138D01*
X63276446Y-136021508D01*
X63336693Y-135724000D01*
X63336693Y-135713500D01*
X83078000Y-135713500D01*
X83078000Y-136324775D01*
X83193398Y-136603372D01*
X83406627Y-136816601D01*
X83685224Y-136932000D01*
X84146500Y-136932000D01*
X84336000Y-136742500D01*
X84336000Y-135524000D01*
X83267500Y-135524000D01*
X83078000Y-135713500D01*
X63336693Y-135713500D01*
X63336693Y-134024000D01*
X63284396Y-133746067D01*
X63120138Y-133490802D01*
X63021236Y-133423225D01*
X83078000Y-133423225D01*
X83078000Y-134034500D01*
X83267500Y-134224000D01*
X84336000Y-134224000D01*
X84336000Y-133005500D01*
X85336000Y-133005500D01*
X85336000Y-134224000D01*
X85687631Y-134224000D01*
X85626000Y-134533838D01*
X85626000Y-135214162D01*
X85687631Y-135524000D01*
X85336000Y-135524000D01*
X85336000Y-136742500D01*
X85525500Y-136932000D01*
X85986776Y-136932000D01*
X86265373Y-136816601D01*
X86433383Y-136648591D01*
X86706304Y-136830951D01*
X87376000Y-136964162D01*
X88045696Y-136830951D01*
X88613437Y-136451599D01*
X88992789Y-135883858D01*
X89126000Y-135214162D01*
X89126000Y-134533838D01*
X89022275Y-134012374D01*
X96070728Y-134012374D01*
X96435745Y-134522689D01*
X96873631Y-134815241D01*
X97111000Y-134703336D01*
X97111000Y-133775000D01*
X96174650Y-133775000D01*
X96070728Y-134012374D01*
X89022275Y-134012374D01*
X88992789Y-133864142D01*
X88613437Y-133296401D01*
X88045696Y-132917049D01*
X87376000Y-132783838D01*
X86706304Y-132917049D01*
X86433383Y-133099409D01*
X86265373Y-132931399D01*
X85986776Y-132816000D01*
X85525500Y-132816000D01*
X85336000Y-133005500D01*
X84336000Y-133005500D01*
X84146500Y-132816000D01*
X83685224Y-132816000D01*
X83406627Y-132931399D01*
X83193398Y-133144628D01*
X83078000Y-133423225D01*
X63021236Y-133423225D01*
X62946842Y-133372394D01*
X63231553Y-132946293D01*
X63283005Y-132687626D01*
X96070728Y-132687626D01*
X96174650Y-132925000D01*
X97111000Y-132925000D01*
X97111000Y-131996664D01*
X97961000Y-131996664D01*
X97961000Y-132925000D01*
X98386000Y-132925000D01*
X98386000Y-133775000D01*
X97961000Y-133775000D01*
X97961000Y-134703336D01*
X98198369Y-134815241D01*
X98520534Y-134600002D01*
X99075261Y-134600002D01*
X99463707Y-134859553D01*
X100076000Y-134981346D01*
X100688293Y-134859553D01*
X101207371Y-134512717D01*
X101346000Y-134305244D01*
X101484629Y-134512717D01*
X102003707Y-134859553D01*
X102616000Y-134981346D01*
X103228293Y-134859553D01*
X103655491Y-134574109D01*
X103757862Y-134733198D01*
X104008492Y-134904446D01*
X104306000Y-134964693D01*
X106006000Y-134964693D01*
X106283933Y-134912396D01*
X106539198Y-134748138D01*
X106710446Y-134497508D01*
X106770693Y-134200000D01*
X106770693Y-132500000D01*
X106718396Y-132222067D01*
X106554138Y-131966802D01*
X106303508Y-131795554D01*
X106006000Y-131735307D01*
X104306000Y-131735307D01*
X104028067Y-131787604D01*
X103772802Y-131951862D01*
X103654394Y-132125158D01*
X103228293Y-131840447D01*
X102616000Y-131718654D01*
X102003707Y-131840447D01*
X101484629Y-132187283D01*
X101346000Y-132394756D01*
X101207371Y-132187283D01*
X100688293Y-131840447D01*
X100076000Y-131718654D01*
X99463707Y-131840447D01*
X99075261Y-132099998D01*
X98520534Y-132099998D01*
X98198369Y-131884759D01*
X97961000Y-131996664D01*
X97111000Y-131996664D01*
X96873631Y-131884759D01*
X96435745Y-132177311D01*
X96070728Y-132687626D01*
X63283005Y-132687626D01*
X63353346Y-132334000D01*
X63231553Y-131721707D01*
X62884717Y-131202629D01*
X62365639Y-130855793D01*
X61753346Y-130734000D01*
X61690654Y-130734000D01*
X61561837Y-130759623D01*
X60544683Y-129742469D01*
X60750226Y-129827818D01*
X61167942Y-129828182D01*
X61554000Y-129668666D01*
X61849628Y-129373554D01*
X62009818Y-128987774D01*
X62010182Y-128570058D01*
X61850666Y-128184000D01*
X61555554Y-127888372D01*
X61169774Y-127728182D01*
X60752058Y-127727818D01*
X60366000Y-127887334D01*
X60070372Y-128182446D01*
X59910182Y-128568226D01*
X59909818Y-128985942D01*
X59995484Y-129193270D01*
X56166693Y-125364479D01*
X56166693Y-124476000D01*
X56114396Y-124198067D01*
X55950138Y-123942802D01*
X55870200Y-123888183D01*
X56058951Y-123605696D01*
X56192162Y-122936000D01*
X56058951Y-122266304D01*
X55679599Y-121698563D01*
X55630865Y-121666000D01*
X55679599Y-121633437D01*
X56058951Y-121065696D01*
X56192162Y-120396000D01*
X56058951Y-119726304D01*
X55679599Y-119158563D01*
X55630865Y-119126000D01*
X55679599Y-119093437D01*
X55729847Y-119018235D01*
X55934893Y-119325107D01*
X56717726Y-120107940D01*
X56767334Y-120228000D01*
X57062446Y-120523628D01*
X57448226Y-120683818D01*
X57865942Y-120684182D01*
X58252000Y-120524666D01*
X58547628Y-120229554D01*
X58707818Y-119843774D01*
X58708182Y-119426058D01*
X58548666Y-119040000D01*
X58253554Y-118744372D01*
X58132192Y-118693978D01*
X57642000Y-118203786D01*
X57642000Y-114300000D01*
X57565880Y-113917317D01*
X57349107Y-113592893D01*
X57349104Y-113592891D01*
X56994156Y-113237942D01*
X90135818Y-113237942D01*
X90261000Y-113540905D01*
X90261000Y-115316000D01*
X90331411Y-115669983D01*
X90531926Y-115970074D01*
X90679041Y-116117189D01*
X90803334Y-116418000D01*
X91098446Y-116713628D01*
X91484226Y-116873818D01*
X91901942Y-116874182D01*
X92288000Y-116714666D01*
X92583628Y-116419554D01*
X92743818Y-116033774D01*
X92744182Y-115616058D01*
X92584666Y-115230000D01*
X92289554Y-114934372D01*
X92111000Y-114860230D01*
X92111000Y-113540369D01*
X92235818Y-113239774D01*
X92236182Y-112822058D01*
X92076666Y-112436000D01*
X91781554Y-112140372D01*
X91395774Y-111980182D01*
X90978058Y-111979818D01*
X90592000Y-112139334D01*
X90296372Y-112434446D01*
X90136182Y-112820226D01*
X90135818Y-113237942D01*
X56994156Y-113237942D01*
X56107726Y-112351512D01*
X56058951Y-112106304D01*
X55679599Y-111538563D01*
X55515282Y-111428770D01*
X86976045Y-111428770D01*
X87055255Y-111675265D01*
X87649788Y-111785653D01*
X88204745Y-111675265D01*
X88283955Y-111428770D01*
X89516045Y-111428770D01*
X89595255Y-111675265D01*
X90189788Y-111785653D01*
X90744745Y-111675265D01*
X90823955Y-111428770D01*
X90170000Y-110774815D01*
X89516045Y-111428770D01*
X88283955Y-111428770D01*
X87630000Y-110774815D01*
X86976045Y-111428770D01*
X55515282Y-111428770D01*
X55111858Y-111159211D01*
X54442162Y-111026000D01*
X53761838Y-111026000D01*
X53092142Y-111159211D01*
X52524401Y-111538563D01*
X52145049Y-112106304D01*
X52011838Y-112776000D01*
X52145049Y-113445696D01*
X52524401Y-114013437D01*
X52573135Y-114046000D01*
X52524401Y-114078563D01*
X52145049Y-114646304D01*
X52011838Y-115316000D01*
X52145049Y-115985696D01*
X52524401Y-116553437D01*
X52573135Y-116586000D01*
X52524401Y-116618563D01*
X52145049Y-117186304D01*
X52011838Y-117856000D01*
X52145049Y-118525696D01*
X52524401Y-119093437D01*
X52573135Y-119126000D01*
X52524401Y-119158563D01*
X52145049Y-119726304D01*
X52011838Y-120396000D01*
X52145049Y-121065696D01*
X52524401Y-121633437D01*
X52573135Y-121666000D01*
X52524401Y-121698563D01*
X52145049Y-122266304D01*
X52011838Y-122936000D01*
X52145049Y-123605696D01*
X52332798Y-123886682D01*
X52268802Y-123927862D01*
X52097554Y-124178492D01*
X52037307Y-124476000D01*
X52037307Y-126476000D01*
X52089604Y-126753933D01*
X52253862Y-127009198D01*
X52504492Y-127180446D01*
X52802000Y-127240693D01*
X55214479Y-127240693D01*
X60126679Y-132152893D01*
X60090654Y-132334000D01*
X60212447Y-132946293D01*
X60497891Y-133373491D01*
X60338802Y-133475862D01*
X60167554Y-133726492D01*
X60107307Y-134024000D01*
X60107307Y-135724000D01*
X60159604Y-136001933D01*
X60323862Y-136257198D01*
X60574492Y-136428446D01*
X60722000Y-136458317D01*
X60722000Y-138430000D01*
X60798120Y-138812684D01*
X61014893Y-139137107D01*
X64024000Y-142146214D01*
X64024000Y-143256000D01*
X64100120Y-143638684D01*
X64316893Y-143963107D01*
X66564000Y-146210213D01*
X66564000Y-147574000D01*
X66640120Y-147956684D01*
X66856893Y-148281107D01*
X67750786Y-149175000D01*
X55515848Y-149175000D01*
X56229309Y-148461539D01*
X55914769Y-148146999D01*
X56224618Y-147797737D01*
X56282223Y-146550946D01*
X57217518Y-146550946D01*
X57640160Y-147573818D01*
X58422066Y-148357090D01*
X59444198Y-148781516D01*
X60550946Y-148782482D01*
X61573818Y-148359840D01*
X62357090Y-147577934D01*
X62781516Y-146555802D01*
X62782482Y-145449054D01*
X62359840Y-144426182D01*
X61577934Y-143642910D01*
X60555802Y-143218484D01*
X59449054Y-143217518D01*
X58426182Y-143640160D01*
X57642910Y-144422066D01*
X57218484Y-145444198D01*
X57217518Y-146550946D01*
X56282223Y-146550946D01*
X56284439Y-146503004D01*
X56224618Y-146202263D01*
X55914768Y-145852999D01*
X54767767Y-147000000D01*
X54781910Y-147014143D01*
X53014143Y-148781910D01*
X53000000Y-148767767D01*
X52985858Y-148781910D01*
X51218091Y-147014143D01*
X51232233Y-147000000D01*
X51218091Y-146985858D01*
X52985858Y-145218091D01*
X53000000Y-145232233D01*
X54147001Y-144085232D01*
X53797737Y-143775382D01*
X52503004Y-143715561D01*
X52202263Y-143775382D01*
X51853001Y-144085231D01*
X51538461Y-143770691D01*
X50825000Y-144484152D01*
X50825000Y-137087500D01*
X52044000Y-137087500D01*
X52044000Y-137548776D01*
X52159399Y-137827373D01*
X52372628Y-138040602D01*
X52651225Y-138156000D01*
X53262500Y-138156000D01*
X53452000Y-137966500D01*
X53452000Y-136898000D01*
X54752000Y-136898000D01*
X54752000Y-137966500D01*
X54941500Y-138156000D01*
X55552775Y-138156000D01*
X55831372Y-138040602D01*
X56044601Y-137827373D01*
X56160000Y-137548776D01*
X56160000Y-137087500D01*
X55970500Y-136898000D01*
X54752000Y-136898000D01*
X53452000Y-136898000D01*
X52233500Y-136898000D01*
X52044000Y-137087500D01*
X50825000Y-137087500D01*
X50825000Y-131318000D01*
X52011838Y-131318000D01*
X52145049Y-131987696D01*
X52524401Y-132555437D01*
X52573135Y-132588000D01*
X52524401Y-132620563D01*
X52145049Y-133188304D01*
X52011838Y-133858000D01*
X52145049Y-134527696D01*
X52327409Y-134800617D01*
X52159399Y-134968627D01*
X52044000Y-135247224D01*
X52044000Y-135708500D01*
X52233500Y-135898000D01*
X53452000Y-135898000D01*
X53452000Y-135546369D01*
X53761838Y-135608000D01*
X54442162Y-135608000D01*
X54752000Y-135546369D01*
X54752000Y-135898000D01*
X55970500Y-135898000D01*
X56160000Y-135708500D01*
X56160000Y-135247224D01*
X56044601Y-134968627D01*
X55876591Y-134800617D01*
X56058951Y-134527696D01*
X56192162Y-133858000D01*
X56058951Y-133188304D01*
X55679599Y-132620563D01*
X55630865Y-132588000D01*
X55679599Y-132555437D01*
X55833284Y-132325432D01*
X57405042Y-133897190D01*
X57529334Y-134198000D01*
X57824446Y-134493628D01*
X58210226Y-134653818D01*
X58627942Y-134654182D01*
X59014000Y-134494666D01*
X59309628Y-134199554D01*
X59469818Y-133813774D01*
X59470182Y-133396058D01*
X59310666Y-133010000D01*
X59015554Y-132714372D01*
X58712809Y-132588661D01*
X56788074Y-130663926D01*
X56487983Y-130463411D01*
X56134000Y-130393000D01*
X55888363Y-130393000D01*
X55679599Y-130080563D01*
X55111858Y-129701211D01*
X54442162Y-129568000D01*
X53761838Y-129568000D01*
X53092142Y-129701211D01*
X52524401Y-130080563D01*
X52145049Y-130648304D01*
X52011838Y-131318000D01*
X50825000Y-131318000D01*
X50825000Y-110255788D01*
X86080347Y-110255788D01*
X86190735Y-110810745D01*
X86437230Y-110889955D01*
X87091185Y-110236000D01*
X88168815Y-110236000D01*
X88727551Y-110794736D01*
X88730735Y-110810745D01*
X88749633Y-110816818D01*
X88822770Y-110889955D01*
X88900000Y-110865138D01*
X88977230Y-110889955D01*
X89050367Y-110816818D01*
X89069265Y-110810745D01*
X89072189Y-110794996D01*
X89631185Y-110236000D01*
X90708815Y-110236000D01*
X91331162Y-110858347D01*
X91427441Y-111091360D01*
X91852402Y-111517064D01*
X92407925Y-111747737D01*
X93009436Y-111748262D01*
X93565360Y-111518559D01*
X93980351Y-111104292D01*
X94392402Y-111517064D01*
X94947925Y-111747737D01*
X95549436Y-111748262D01*
X96105360Y-111518559D01*
X96520351Y-111104292D01*
X96865000Y-111449544D01*
X96865000Y-112132240D01*
X96284785Y-114066288D01*
X96138372Y-114212446D01*
X95978182Y-114598226D01*
X95977818Y-115015942D01*
X96137334Y-115402000D01*
X96432446Y-115697628D01*
X96818226Y-115857818D01*
X97235942Y-115858182D01*
X97622000Y-115698666D01*
X97917628Y-115403554D01*
X98077818Y-115017774D01*
X98078182Y-114600058D01*
X98065395Y-114569111D01*
X98096795Y-114464443D01*
X98169334Y-114640000D01*
X98464446Y-114935628D01*
X98850226Y-115095818D01*
X99267942Y-115096182D01*
X99654000Y-114936666D01*
X99949628Y-114641554D01*
X100075339Y-114338809D01*
X100414206Y-113999942D01*
X104867818Y-113999942D01*
X105027334Y-114386000D01*
X105322446Y-114681628D01*
X105708226Y-114841818D01*
X106125942Y-114842182D01*
X106428905Y-114717000D01*
X110487631Y-114717000D01*
X110788226Y-114841818D01*
X111205942Y-114842182D01*
X111592000Y-114682666D01*
X111887628Y-114387554D01*
X112015335Y-114080002D01*
X112221942Y-114080182D01*
X112608000Y-113920666D01*
X112903628Y-113625554D01*
X113063818Y-113239774D01*
X113064182Y-112822058D01*
X112904666Y-112436000D01*
X112609554Y-112140372D01*
X112223774Y-111980182D01*
X111982306Y-111979972D01*
X111919673Y-111948655D01*
X111887618Y-111939877D01*
X111859982Y-111921411D01*
X111714568Y-111892487D01*
X111571573Y-111853327D01*
X111538597Y-111857484D01*
X111506000Y-111851000D01*
X106682369Y-111851000D01*
X106381774Y-111726182D01*
X105964058Y-111725818D01*
X105578000Y-111885334D01*
X105282372Y-112180446D01*
X105122182Y-112566226D01*
X105121818Y-112983942D01*
X105156694Y-113068348D01*
X105028372Y-113196446D01*
X104868182Y-113582226D01*
X104867818Y-113999942D01*
X100414206Y-113999942D01*
X100984074Y-113430074D01*
X101184589Y-113129983D01*
X101255000Y-112776000D01*
X101255000Y-111449041D01*
X101600351Y-111104292D01*
X102012402Y-111517064D01*
X102567925Y-111747737D01*
X103169436Y-111748262D01*
X103725360Y-111518559D01*
X104140351Y-111104292D01*
X104552402Y-111517064D01*
X105107925Y-111747737D01*
X105709436Y-111748262D01*
X106265360Y-111518559D01*
X106680351Y-111104292D01*
X107092402Y-111517064D01*
X107647925Y-111747737D01*
X108249436Y-111748262D01*
X108805360Y-111518559D01*
X109220351Y-111104292D01*
X109632402Y-111517064D01*
X110187925Y-111747737D01*
X110789436Y-111748262D01*
X111345360Y-111518559D01*
X111760351Y-111104292D01*
X112172402Y-111517064D01*
X112727925Y-111747737D01*
X113329436Y-111748262D01*
X113885360Y-111518559D01*
X114300351Y-111104292D01*
X114712402Y-111517064D01*
X115267925Y-111747737D01*
X115869436Y-111748262D01*
X116425360Y-111518559D01*
X116840351Y-111104292D01*
X117252402Y-111517064D01*
X117807925Y-111747737D01*
X118409436Y-111748262D01*
X118965360Y-111518559D01*
X119380351Y-111104292D01*
X119792402Y-111517064D01*
X120347925Y-111747737D01*
X120949436Y-111748262D01*
X121505360Y-111518559D01*
X121920351Y-111104292D01*
X122332402Y-111517064D01*
X122887925Y-111747737D01*
X123489436Y-111748262D01*
X124045360Y-111518559D01*
X124460351Y-111104292D01*
X124872402Y-111517064D01*
X125427925Y-111747737D01*
X126029436Y-111748262D01*
X126585360Y-111518559D01*
X127000351Y-111104292D01*
X127412402Y-111517064D01*
X127967925Y-111747737D01*
X128569436Y-111748262D01*
X129125360Y-111518559D01*
X129540351Y-111104292D01*
X129952402Y-111517064D01*
X130507925Y-111747737D01*
X131109436Y-111748262D01*
X131665360Y-111518559D01*
X132080351Y-111104292D01*
X132492402Y-111517064D01*
X133047925Y-111747737D01*
X133649436Y-111748262D01*
X134205360Y-111518559D01*
X134620351Y-111104292D01*
X135032402Y-111517064D01*
X135587925Y-111747737D01*
X136189436Y-111748262D01*
X136745360Y-111518559D01*
X137171064Y-111093598D01*
X137401737Y-110538075D01*
X137402262Y-109936564D01*
X137172559Y-109380640D01*
X136747598Y-108954936D01*
X136192075Y-108724263D01*
X135590564Y-108723738D01*
X135034640Y-108953441D01*
X134619649Y-109367708D01*
X134207598Y-108954936D01*
X133652075Y-108724263D01*
X133050564Y-108723738D01*
X132494640Y-108953441D01*
X132079649Y-109367708D01*
X131667598Y-108954936D01*
X131112075Y-108724263D01*
X130510564Y-108723738D01*
X129954640Y-108953441D01*
X129539649Y-109367708D01*
X129127598Y-108954936D01*
X128572075Y-108724263D01*
X127970564Y-108723738D01*
X127414640Y-108953441D01*
X126999649Y-109367708D01*
X126587598Y-108954936D01*
X126032075Y-108724263D01*
X125430564Y-108723738D01*
X124874640Y-108953441D01*
X124459649Y-109367708D01*
X124047598Y-108954936D01*
X123492075Y-108724263D01*
X122890564Y-108723738D01*
X122334640Y-108953441D01*
X121919649Y-109367708D01*
X121507598Y-108954936D01*
X120952075Y-108724263D01*
X120350564Y-108723738D01*
X119794640Y-108953441D01*
X119379649Y-109367708D01*
X118967598Y-108954936D01*
X118412075Y-108724263D01*
X117810564Y-108723738D01*
X117254640Y-108953441D01*
X116839649Y-109367708D01*
X116427598Y-108954936D01*
X115872075Y-108724263D01*
X115270564Y-108723738D01*
X114714640Y-108953441D01*
X114299649Y-109367708D01*
X113887598Y-108954936D01*
X113332075Y-108724263D01*
X112730564Y-108723738D01*
X112174640Y-108953441D01*
X111759649Y-109367708D01*
X111347598Y-108954936D01*
X110792075Y-108724263D01*
X110190564Y-108723738D01*
X109634640Y-108953441D01*
X109219649Y-109367708D01*
X108807598Y-108954936D01*
X108252075Y-108724263D01*
X107650564Y-108723738D01*
X107094640Y-108953441D01*
X106679649Y-109367708D01*
X106267598Y-108954936D01*
X105712075Y-108724263D01*
X105110564Y-108723738D01*
X104554640Y-108953441D01*
X104139649Y-109367708D01*
X103727598Y-108954936D01*
X103172075Y-108724263D01*
X102570564Y-108723738D01*
X102014640Y-108953441D01*
X101599649Y-109367708D01*
X101187598Y-108954936D01*
X100632075Y-108724263D01*
X100030564Y-108723738D01*
X99474640Y-108953441D01*
X99059649Y-109367708D01*
X98647598Y-108954936D01*
X98092075Y-108724263D01*
X97490564Y-108723738D01*
X96934640Y-108953441D01*
X96519649Y-109367708D01*
X96107598Y-108954936D01*
X95552075Y-108724263D01*
X94950564Y-108723738D01*
X94394640Y-108953441D01*
X93979649Y-109367708D01*
X93567598Y-108954936D01*
X93012075Y-108724263D01*
X92410564Y-108723738D01*
X91854640Y-108953441D01*
X91428936Y-109378402D01*
X91331315Y-109613500D01*
X90708815Y-110236000D01*
X89631185Y-110236000D01*
X89072449Y-109677264D01*
X89069265Y-109661255D01*
X89050367Y-109655182D01*
X88977230Y-109582045D01*
X88900000Y-109606862D01*
X88822770Y-109582045D01*
X88749633Y-109655182D01*
X88730735Y-109661255D01*
X88727811Y-109677004D01*
X88168815Y-110236000D01*
X87091185Y-110236000D01*
X86437230Y-109582045D01*
X86190735Y-109661255D01*
X86080347Y-110255788D01*
X50825000Y-110255788D01*
X50825000Y-109043230D01*
X86976045Y-109043230D01*
X87630000Y-109697185D01*
X88283955Y-109043230D01*
X89516045Y-109043230D01*
X90170000Y-109697185D01*
X90823955Y-109043230D01*
X90744745Y-108796735D01*
X90150212Y-108686347D01*
X89595255Y-108796735D01*
X89516045Y-109043230D01*
X88283955Y-109043230D01*
X88204745Y-108796735D01*
X87610212Y-108686347D01*
X87055255Y-108796735D01*
X86976045Y-109043230D01*
X50825000Y-109043230D01*
X50825000Y-102550946D01*
X57217518Y-102550946D01*
X57640160Y-103573818D01*
X58422066Y-104357090D01*
X59444198Y-104781516D01*
X60550946Y-104782482D01*
X61573818Y-104359840D01*
X62357090Y-103577934D01*
X62781516Y-102555802D01*
X62781520Y-102550946D01*
X134217518Y-102550946D01*
X134640160Y-103573818D01*
X135422066Y-104357090D01*
X136444198Y-104781516D01*
X137550946Y-104782482D01*
X138573818Y-104359840D01*
X139357090Y-103577934D01*
X139781516Y-102555802D01*
X139782482Y-101449054D01*
X139359840Y-100426182D01*
X138577934Y-99642910D01*
X137555802Y-99218484D01*
X136449054Y-99217518D01*
X135426182Y-99640160D01*
X134642910Y-100422066D01*
X134218484Y-101444198D01*
X134217518Y-102550946D01*
X62781520Y-102550946D01*
X62782482Y-101449054D01*
X62547792Y-100881059D01*
X66317740Y-100881059D01*
X66545620Y-101432572D01*
X66967209Y-101854897D01*
X67518323Y-102083739D01*
X68115059Y-102084260D01*
X68666572Y-101856380D01*
X69088897Y-101434791D01*
X69317739Y-100883677D01*
X69317741Y-100881059D01*
X71197740Y-100881059D01*
X71425620Y-101432572D01*
X71847209Y-101854897D01*
X72398323Y-102083739D01*
X72995059Y-102084260D01*
X73546572Y-101856380D01*
X73968897Y-101434791D01*
X74197739Y-100883677D01*
X74198260Y-100286941D01*
X73970380Y-99735428D01*
X73548791Y-99313103D01*
X72997677Y-99084261D01*
X72400941Y-99083740D01*
X71849428Y-99311620D01*
X71427103Y-99733209D01*
X71198261Y-100284323D01*
X71197740Y-100881059D01*
X69317741Y-100881059D01*
X69318260Y-100286941D01*
X69090380Y-99735428D01*
X68668791Y-99313103D01*
X68117677Y-99084261D01*
X67520941Y-99083740D01*
X66969428Y-99311620D01*
X66547103Y-99733209D01*
X66318261Y-100284323D01*
X66317740Y-100881059D01*
X62547792Y-100881059D01*
X62359840Y-100426182D01*
X61577934Y-99642910D01*
X60555802Y-99218484D01*
X59449054Y-99217518D01*
X58426182Y-99640160D01*
X57642910Y-100422066D01*
X57218484Y-101444198D01*
X57217518Y-102550946D01*
X50825000Y-102550946D01*
X50825000Y-98251942D01*
X75911818Y-98251942D01*
X76071334Y-98638000D01*
X76087000Y-98653693D01*
X76087000Y-98957844D01*
X76072372Y-98972446D01*
X75912182Y-99358226D01*
X75911818Y-99775942D01*
X76071334Y-100162000D01*
X76366446Y-100457628D01*
X76752226Y-100617818D01*
X77169942Y-100618182D01*
X77556000Y-100458666D01*
X77851628Y-100163554D01*
X78011818Y-99777774D01*
X78012182Y-99360058D01*
X77852666Y-98974000D01*
X77837000Y-98958307D01*
X77837000Y-98774654D01*
X98984000Y-98774654D01*
X98984000Y-98837346D01*
X99105793Y-99449639D01*
X99452629Y-99968717D01*
X99971707Y-100315553D01*
X100584000Y-100437346D01*
X101196293Y-100315553D01*
X101584739Y-100056002D01*
X101619233Y-100056002D01*
X101631399Y-100085373D01*
X101844628Y-100298602D01*
X102123225Y-100414000D01*
X102509500Y-100414000D01*
X102699000Y-100224500D01*
X102699000Y-99231000D01*
X103549000Y-99231000D01*
X103549000Y-100224500D01*
X103738500Y-100414000D01*
X104124775Y-100414000D01*
X104403372Y-100298602D01*
X104616601Y-100085373D01*
X104732000Y-99806776D01*
X104732000Y-99420500D01*
X104542500Y-99231000D01*
X103549000Y-99231000D01*
X102699000Y-99231000D01*
X102274000Y-99231000D01*
X102274000Y-98381000D01*
X102699000Y-98381000D01*
X102699000Y-97387500D01*
X103549000Y-97387500D01*
X103549000Y-98381000D01*
X104542500Y-98381000D01*
X104732000Y-98191500D01*
X104732000Y-97805224D01*
X104616601Y-97526627D01*
X104403372Y-97313398D01*
X104124775Y-97198000D01*
X103738500Y-97198000D01*
X103549000Y-97387500D01*
X102699000Y-97387500D01*
X102509500Y-97198000D01*
X102123225Y-97198000D01*
X101844628Y-97313398D01*
X101631399Y-97526627D01*
X101619233Y-97555998D01*
X101584739Y-97555998D01*
X101196293Y-97296447D01*
X100584000Y-97174654D01*
X99971707Y-97296447D01*
X99452629Y-97643283D01*
X99105793Y-98162361D01*
X98984000Y-98774654D01*
X77837000Y-98774654D01*
X77837000Y-98654156D01*
X77851628Y-98639554D01*
X78011818Y-98253774D01*
X78012182Y-97836058D01*
X77852666Y-97450000D01*
X77557554Y-97154372D01*
X77171774Y-96994182D01*
X76754058Y-96993818D01*
X76368000Y-97153334D01*
X76072372Y-97448446D01*
X75912182Y-97834226D01*
X75911818Y-98251942D01*
X50825000Y-98251942D01*
X50825000Y-90123942D01*
X106391818Y-90123942D01*
X106551334Y-90510000D01*
X106846446Y-90805628D01*
X107232226Y-90965818D01*
X107649942Y-90966182D01*
X108036000Y-90806666D01*
X108204034Y-90638925D01*
X108370446Y-90805628D01*
X108756226Y-90965818D01*
X109173942Y-90966182D01*
X109560000Y-90806666D01*
X109855628Y-90511554D01*
X110015818Y-90125774D01*
X110016018Y-89895342D01*
X120275458Y-89895342D01*
X120434974Y-90281400D01*
X120730086Y-90577028D01*
X121115866Y-90737218D01*
X121533582Y-90737582D01*
X121836545Y-90612400D01*
X125387271Y-90612400D01*
X125687866Y-90737218D01*
X126105582Y-90737582D01*
X126491640Y-90578066D01*
X126787268Y-90282954D01*
X126947458Y-89897174D01*
X126947822Y-89479458D01*
X126788306Y-89093400D01*
X126493194Y-88797772D01*
X126107414Y-88637582D01*
X125689698Y-88637218D01*
X125386735Y-88762400D01*
X121836009Y-88762400D01*
X121535414Y-88637582D01*
X121117698Y-88637218D01*
X120731640Y-88796734D01*
X120436012Y-89091846D01*
X120275822Y-89477626D01*
X120275458Y-89895342D01*
X110016018Y-89895342D01*
X110016182Y-89708058D01*
X109891000Y-89405095D01*
X109891000Y-87376000D01*
X109827428Y-87056400D01*
X110224618Y-87056400D01*
X110316086Y-87148028D01*
X110701866Y-87308218D01*
X111119582Y-87308582D01*
X111505640Y-87149066D01*
X111801268Y-86853954D01*
X111961458Y-86468174D01*
X111961822Y-86050458D01*
X111802306Y-85664400D01*
X111588622Y-85450342D01*
X118624458Y-85450342D01*
X118783974Y-85836400D01*
X119079086Y-86132028D01*
X119381832Y-86257739D01*
X119655564Y-86531471D01*
X119655566Y-86531474D01*
X119817089Y-86639400D01*
X119955658Y-86731989D01*
X120309640Y-86802401D01*
X120309645Y-86802400D01*
X128796314Y-86802400D01*
X128816974Y-86852400D01*
X129112086Y-87148028D01*
X129497866Y-87308218D01*
X129915582Y-87308582D01*
X130301640Y-87149066D01*
X130597268Y-86853954D01*
X130600013Y-86847342D01*
X134220058Y-86847342D01*
X134379574Y-87233400D01*
X134674686Y-87529028D01*
X135060466Y-87689218D01*
X135478182Y-87689582D01*
X135818029Y-87549160D01*
X136847751Y-87549160D01*
X137148346Y-87673978D01*
X137566062Y-87674342D01*
X137952120Y-87514826D01*
X138247748Y-87219714D01*
X138407938Y-86833934D01*
X138408302Y-86416218D01*
X138248786Y-86030160D01*
X137953674Y-85734532D01*
X137567894Y-85574342D01*
X137150178Y-85573978D01*
X136847215Y-85699160D01*
X135743907Y-85699160D01*
X135480014Y-85589582D01*
X135062298Y-85589218D01*
X134676240Y-85748734D01*
X134380612Y-86043846D01*
X134220422Y-86429626D01*
X134220058Y-86847342D01*
X130600013Y-86847342D01*
X130757458Y-86468174D01*
X130757822Y-86050458D01*
X130598306Y-85664400D01*
X130303194Y-85368772D01*
X130000449Y-85243061D01*
X129980714Y-85223326D01*
X129680623Y-85022811D01*
X129326640Y-84952400D01*
X120692787Y-84952400D01*
X120689599Y-84949211D01*
X120565306Y-84648400D01*
X120270194Y-84352772D01*
X119884414Y-84192582D01*
X119466698Y-84192218D01*
X119080640Y-84351734D01*
X118785012Y-84646846D01*
X118624822Y-85032626D01*
X118624458Y-85450342D01*
X111588622Y-85450342D01*
X111507194Y-85368772D01*
X111121414Y-85208582D01*
X110794176Y-85208297D01*
X110784640Y-85206400D01*
X109643787Y-85206400D01*
X109550640Y-85113252D01*
X109550640Y-82958769D01*
X109675458Y-82658174D01*
X109675822Y-82240458D01*
X109516306Y-81854400D01*
X109221194Y-81558772D01*
X108835414Y-81398582D01*
X108417698Y-81398218D01*
X108367000Y-81419166D01*
X108367000Y-80901148D01*
X108497190Y-80770958D01*
X108798000Y-80646666D01*
X109093628Y-80351554D01*
X109161765Y-80187462D01*
X131883258Y-80187462D01*
X132042774Y-80573520D01*
X132337886Y-80869148D01*
X132723666Y-81029338D01*
X133141382Y-81029702D01*
X133527440Y-80870186D01*
X133798379Y-80599720D01*
X134170591Y-80599720D01*
X134471186Y-80724538D01*
X134888902Y-80724902D01*
X135274960Y-80565386D01*
X135570588Y-80270274D01*
X135730778Y-79884494D01*
X135731142Y-79466778D01*
X135571626Y-79080720D01*
X135276514Y-78785092D01*
X134890734Y-78624902D01*
X134473018Y-78624538D01*
X134170055Y-78749720D01*
X133238240Y-78749720D01*
X132884257Y-78820131D01*
X132713234Y-78934406D01*
X132339440Y-79088854D01*
X132043812Y-79383966D01*
X131883622Y-79769746D01*
X131883258Y-80187462D01*
X109161765Y-80187462D01*
X109253818Y-79965774D01*
X109254182Y-79548058D01*
X109094666Y-79162000D01*
X108799554Y-78866372D01*
X108413774Y-78706182D01*
X107996058Y-78705818D01*
X107610000Y-78865334D01*
X107314372Y-79160446D01*
X107188661Y-79463191D01*
X106787926Y-79863926D01*
X106587411Y-80164017D01*
X106550417Y-80350000D01*
X106517000Y-80518000D01*
X106517000Y-89405631D01*
X106392182Y-89706226D01*
X106391818Y-90123942D01*
X50825000Y-90123942D01*
X50825000Y-82107702D01*
X91868098Y-82107702D01*
X92027614Y-82493760D01*
X92322726Y-82789388D01*
X92708506Y-82949578D01*
X93126222Y-82949942D01*
X93207884Y-82916200D01*
X96763400Y-82916200D01*
X96763400Y-83836041D01*
X96714782Y-83953126D01*
X96714418Y-84370842D01*
X96873934Y-84756900D01*
X97169046Y-85052528D01*
X97554826Y-85212718D01*
X97972542Y-85213082D01*
X98358600Y-85053566D01*
X98654228Y-84758454D01*
X98814418Y-84372674D01*
X98814782Y-83954958D01*
X98655266Y-83568900D01*
X98613400Y-83526961D01*
X98613400Y-82916200D01*
X99311631Y-82916200D01*
X99612226Y-83041018D01*
X100029942Y-83041382D01*
X100416000Y-82881866D01*
X100711628Y-82586754D01*
X100871818Y-82200974D01*
X100872182Y-81783258D01*
X100712666Y-81397200D01*
X100417554Y-81101572D01*
X100031774Y-80941382D01*
X99614058Y-80941018D01*
X99311095Y-81066200D01*
X93569804Y-81066200D01*
X93513834Y-81010132D01*
X93128054Y-80849942D01*
X92710338Y-80849578D01*
X92324280Y-81009094D01*
X92028652Y-81304206D01*
X91868462Y-81689986D01*
X91868098Y-82107702D01*
X50825000Y-82107702D01*
X50825000Y-77322342D01*
X138182458Y-77322342D01*
X138341974Y-77708400D01*
X138637086Y-78004028D01*
X139022866Y-78164218D01*
X139440582Y-78164582D01*
X139743545Y-78039400D01*
X140500271Y-78039400D01*
X140800866Y-78164218D01*
X141218582Y-78164582D01*
X141604640Y-78005066D01*
X141900268Y-77709954D01*
X142060458Y-77324174D01*
X142060822Y-76906458D01*
X141901306Y-76520400D01*
X141606194Y-76224772D01*
X141220414Y-76064582D01*
X140802698Y-76064218D01*
X140499735Y-76189400D01*
X139743009Y-76189400D01*
X139442414Y-76064582D01*
X139024698Y-76064218D01*
X138638640Y-76223734D01*
X138343012Y-76518846D01*
X138182822Y-76904626D01*
X138182458Y-77322342D01*
X50825000Y-77322342D01*
X50825000Y-75840961D01*
X59331699Y-75840961D01*
X59525361Y-76115784D01*
X60419149Y-76205592D01*
X60870639Y-76115784D01*
X61064301Y-75840961D01*
X60198000Y-74974660D01*
X59331699Y-75840961D01*
X50825000Y-75840961D01*
X50825000Y-74135149D01*
X57906408Y-74135149D01*
X57996216Y-74586639D01*
X58271039Y-74780301D01*
X59137340Y-73914000D01*
X61258660Y-73914000D01*
X62124961Y-74780301D01*
X62399784Y-74586639D01*
X62422598Y-74359589D01*
X66075610Y-74359589D01*
X66417431Y-75186858D01*
X67049813Y-75820345D01*
X67876484Y-76163608D01*
X68771589Y-76164390D01*
X69598858Y-75822569D01*
X70232345Y-75190187D01*
X70575608Y-74363516D01*
X70575683Y-74276882D01*
X89112198Y-74276882D01*
X89271714Y-74662940D01*
X89566826Y-74958568D01*
X89869571Y-75084279D01*
X90430326Y-75645034D01*
X90730417Y-75845549D01*
X91084400Y-75915960D01*
X98999432Y-75915960D01*
X99226726Y-76143254D01*
X99226478Y-76428262D01*
X99385994Y-76814320D01*
X99681106Y-77109948D01*
X100066886Y-77270138D01*
X100484602Y-77270502D01*
X100870660Y-77110986D01*
X101166288Y-76815874D01*
X101326478Y-76430094D01*
X101326842Y-76012378D01*
X101167326Y-75626320D01*
X101145935Y-75604892D01*
X101131249Y-75531058D01*
X101131249Y-75531057D01*
X100930734Y-75230966D01*
X100036654Y-74336886D01*
X99736563Y-74136371D01*
X99490157Y-74087358D01*
X99538318Y-73971374D01*
X99538682Y-73553658D01*
X99379166Y-73167600D01*
X99084054Y-72871972D01*
X98698274Y-72711782D01*
X98280558Y-72711418D01*
X97977595Y-72836600D01*
X97170069Y-72836600D01*
X96869474Y-72711782D01*
X96451758Y-72711418D01*
X96065700Y-72870934D01*
X95770072Y-73166046D01*
X95609882Y-73551826D01*
X95609518Y-73969542D01*
X95649357Y-74065960D01*
X91467548Y-74065960D01*
X91177338Y-73775750D01*
X91053046Y-73474940D01*
X90757934Y-73179312D01*
X90372154Y-73019122D01*
X89954438Y-73018758D01*
X89568380Y-73178274D01*
X89272752Y-73473386D01*
X89112562Y-73859166D01*
X89112198Y-74276882D01*
X70575683Y-74276882D01*
X70576390Y-73468411D01*
X70234569Y-72641142D01*
X69602187Y-72007655D01*
X68775516Y-71664392D01*
X67880411Y-71663610D01*
X67053142Y-72005431D01*
X66419655Y-72637813D01*
X66076392Y-73464484D01*
X66075610Y-74359589D01*
X62422598Y-74359589D01*
X62489592Y-73692851D01*
X62399784Y-73241361D01*
X62124961Y-73047699D01*
X61258660Y-73914000D01*
X59137340Y-73914000D01*
X58271039Y-73047699D01*
X57996216Y-73241361D01*
X57906408Y-74135149D01*
X50825000Y-74135149D01*
X50825000Y-71987039D01*
X59331699Y-71987039D01*
X60198000Y-72853340D01*
X61064301Y-71987039D01*
X60870639Y-71712216D01*
X59976851Y-71622408D01*
X59525361Y-71712216D01*
X59331699Y-71987039D01*
X50825000Y-71987039D01*
X50825000Y-70506961D01*
X53997699Y-70506961D01*
X54191361Y-70781784D01*
X55085149Y-70871592D01*
X55536639Y-70781784D01*
X55730301Y-70506961D01*
X54864000Y-69640660D01*
X53997699Y-70506961D01*
X50825000Y-70506961D01*
X50825000Y-68801149D01*
X52572408Y-68801149D01*
X52662216Y-69252639D01*
X52937039Y-69446301D01*
X53803340Y-68580000D01*
X55924660Y-68580000D01*
X56790961Y-69446301D01*
X57065784Y-69252639D01*
X57085476Y-69056654D01*
X71298000Y-69056654D01*
X71298000Y-69119346D01*
X71419793Y-69731639D01*
X71766629Y-70250717D01*
X72285707Y-70597553D01*
X72898000Y-70719346D01*
X73510293Y-70597553D01*
X74029371Y-70250717D01*
X74168000Y-70043244D01*
X74306629Y-70250717D01*
X74825707Y-70597553D01*
X75438000Y-70719346D01*
X76050293Y-70597553D01*
X76477491Y-70312109D01*
X76579862Y-70471198D01*
X76830492Y-70642446D01*
X77128000Y-70702693D01*
X78828000Y-70702693D01*
X79105933Y-70650396D01*
X79361198Y-70486138D01*
X79532446Y-70235508D01*
X79537542Y-70210342D01*
X95383458Y-70210342D01*
X95542974Y-70596400D01*
X95838086Y-70892028D01*
X96223866Y-71052218D01*
X96641582Y-71052582D01*
X97027640Y-70893066D01*
X97323268Y-70597954D01*
X97448979Y-70295209D01*
X98976565Y-68767622D01*
X123592698Y-68767622D01*
X123752214Y-69153680D01*
X124047326Y-69449308D01*
X124433106Y-69609498D01*
X124850822Y-69609862D01*
X125153785Y-69484680D01*
X125839391Y-69484680D01*
X126139986Y-69609498D01*
X126557702Y-69609862D01*
X126943760Y-69450346D01*
X127239388Y-69155234D01*
X127399578Y-68769454D01*
X127399942Y-68351738D01*
X127240426Y-67965680D01*
X126945314Y-67670052D01*
X126559534Y-67509862D01*
X126141818Y-67509498D01*
X125838855Y-67634680D01*
X125153249Y-67634680D01*
X124852654Y-67509862D01*
X124434938Y-67509498D01*
X124048880Y-67669014D01*
X123753252Y-67964126D01*
X123593062Y-68349906D01*
X123592698Y-68767622D01*
X98976565Y-68767622D01*
X99627711Y-68116476D01*
X99627714Y-68116474D01*
X99828229Y-67816382D01*
X99898640Y-67462400D01*
X99898640Y-62176796D01*
X99999440Y-62135146D01*
X100295068Y-61840034D01*
X100455258Y-61454254D01*
X100455622Y-61036538D01*
X100296106Y-60650480D01*
X100000994Y-60354852D01*
X99615214Y-60194662D01*
X99197498Y-60194298D01*
X98811440Y-60353814D01*
X98515812Y-60648926D01*
X98390101Y-60951671D01*
X98319566Y-61022206D01*
X98119051Y-61322297D01*
X98119051Y-61322298D01*
X98048640Y-61676280D01*
X98048640Y-67079253D01*
X96140451Y-68987442D01*
X95839640Y-69111734D01*
X95544012Y-69406846D01*
X95383822Y-69792626D01*
X95383458Y-70210342D01*
X79537542Y-70210342D01*
X79592693Y-69938000D01*
X79592693Y-68238000D01*
X79540396Y-67960067D01*
X79376138Y-67704802D01*
X79125508Y-67533554D01*
X78828000Y-67473307D01*
X77128000Y-67473307D01*
X76850067Y-67525604D01*
X76594802Y-67689862D01*
X76476394Y-67863158D01*
X76050293Y-67578447D01*
X75438000Y-67456654D01*
X74825707Y-67578447D01*
X74306629Y-67925283D01*
X74168000Y-68132756D01*
X74029371Y-67925283D01*
X73510293Y-67578447D01*
X72898000Y-67456654D01*
X72285707Y-67578447D01*
X71766629Y-67925283D01*
X71419793Y-68444361D01*
X71298000Y-69056654D01*
X57085476Y-69056654D01*
X57155592Y-68358851D01*
X57065784Y-67907361D01*
X56790961Y-67713699D01*
X55924660Y-68580000D01*
X53803340Y-68580000D01*
X52937039Y-67713699D01*
X52662216Y-67907361D01*
X52572408Y-68801149D01*
X50825000Y-68801149D01*
X50825000Y-66653039D01*
X53997699Y-66653039D01*
X54864000Y-67519340D01*
X55730301Y-66653039D01*
X55536639Y-66378216D01*
X54642851Y-66288408D01*
X54191361Y-66378216D01*
X53997699Y-66653039D01*
X50825000Y-66653039D01*
X50825000Y-65977589D01*
X57947610Y-65977589D01*
X58289431Y-66804858D01*
X58921813Y-67438345D01*
X59748484Y-67781608D01*
X60643589Y-67782390D01*
X61470858Y-67440569D01*
X62104345Y-66808187D01*
X62447608Y-65981516D01*
X62447611Y-65977589D01*
X65821610Y-65977589D01*
X66163431Y-66804858D01*
X66795813Y-67438345D01*
X67622484Y-67781608D01*
X68517589Y-67782390D01*
X69344858Y-67440569D01*
X69978345Y-66808187D01*
X70321608Y-65981516D01*
X70322390Y-65086411D01*
X69980569Y-64259142D01*
X69348187Y-63625655D01*
X68521516Y-63282392D01*
X67626411Y-63281610D01*
X66799142Y-63623431D01*
X66165655Y-64255813D01*
X65822392Y-65082484D01*
X65821610Y-65977589D01*
X62447611Y-65977589D01*
X62448390Y-65086411D01*
X62106569Y-64259142D01*
X61474187Y-63625655D01*
X60647516Y-63282392D01*
X59752411Y-63281610D01*
X58925142Y-63623431D01*
X58291655Y-64255813D01*
X57948392Y-65082484D01*
X57947610Y-65977589D01*
X50825000Y-65977589D01*
X50825000Y-58550946D01*
X57217518Y-58550946D01*
X57640160Y-59573818D01*
X58422066Y-60357090D01*
X59444198Y-60781516D01*
X60550946Y-60782482D01*
X61573818Y-60359840D01*
X62357090Y-59577934D01*
X62781516Y-58555802D01*
X62781520Y-58550946D01*
X134217518Y-58550946D01*
X134640160Y-59573818D01*
X135422066Y-60357090D01*
X136444198Y-60781516D01*
X137550946Y-60782482D01*
X138573818Y-60359840D01*
X139357090Y-59577934D01*
X139781516Y-58555802D01*
X139782482Y-57449054D01*
X139359840Y-56426182D01*
X138577934Y-55642910D01*
X137555802Y-55218484D01*
X136449054Y-55217518D01*
X135426182Y-55640160D01*
X134642910Y-56422066D01*
X134218484Y-57444198D01*
X134217518Y-58550946D01*
X62781520Y-58550946D01*
X62782482Y-57449054D01*
X62359840Y-56426182D01*
X61577934Y-55642910D01*
X60722012Y-55287500D01*
X63076000Y-55287500D01*
X63076000Y-56538775D01*
X63191398Y-56817372D01*
X63404627Y-57030601D01*
X63683224Y-57146000D01*
X64269500Y-57146000D01*
X64459000Y-56956500D01*
X64459000Y-55098000D01*
X65709000Y-55098000D01*
X65709000Y-56956500D01*
X65898500Y-57146000D01*
X66484776Y-57146000D01*
X66763373Y-57030601D01*
X66976602Y-56817372D01*
X67092000Y-56538775D01*
X67092000Y-55287500D01*
X70576000Y-55287500D01*
X70576000Y-56538775D01*
X70691398Y-56817372D01*
X70904627Y-57030601D01*
X71183224Y-57146000D01*
X71769500Y-57146000D01*
X71959000Y-56956500D01*
X71959000Y-55098000D01*
X73209000Y-55098000D01*
X73209000Y-56956500D01*
X73398500Y-57146000D01*
X73984776Y-57146000D01*
X74263373Y-57030601D01*
X74476602Y-56817372D01*
X74592000Y-56538775D01*
X74592000Y-55880000D01*
X75330654Y-55880000D01*
X75452447Y-56492293D01*
X75799283Y-57011371D01*
X76318361Y-57358207D01*
X76930654Y-57480000D01*
X76993346Y-57480000D01*
X77605639Y-57358207D01*
X78124717Y-57011371D01*
X78471553Y-56492293D01*
X78593346Y-55880000D01*
X78475491Y-55287500D01*
X122258000Y-55287500D01*
X122258000Y-56538775D01*
X122373398Y-56817372D01*
X122586627Y-57030601D01*
X122865224Y-57146000D01*
X123451500Y-57146000D01*
X123641000Y-56956500D01*
X123641000Y-55098000D01*
X124891000Y-55098000D01*
X124891000Y-56956500D01*
X125080500Y-57146000D01*
X125666776Y-57146000D01*
X125945373Y-57030601D01*
X126158602Y-56817372D01*
X126274000Y-56538775D01*
X126274000Y-55287500D01*
X129758000Y-55287500D01*
X129758000Y-56538775D01*
X129873398Y-56817372D01*
X130086627Y-57030601D01*
X130365224Y-57146000D01*
X130951500Y-57146000D01*
X131141000Y-56956500D01*
X131141000Y-55098000D01*
X132391000Y-55098000D01*
X132391000Y-56956500D01*
X132580500Y-57146000D01*
X133166776Y-57146000D01*
X133445373Y-57030601D01*
X133658602Y-56817372D01*
X133774000Y-56538775D01*
X133774000Y-55287500D01*
X133584500Y-55098000D01*
X132391000Y-55098000D01*
X131141000Y-55098000D01*
X129947500Y-55098000D01*
X129758000Y-55287500D01*
X126274000Y-55287500D01*
X126084500Y-55098000D01*
X124891000Y-55098000D01*
X123641000Y-55098000D01*
X122447500Y-55098000D01*
X122258000Y-55287500D01*
X78475491Y-55287500D01*
X78471553Y-55267707D01*
X78212002Y-54879261D01*
X78212002Y-54844767D01*
X78241373Y-54832601D01*
X78454602Y-54619372D01*
X78570000Y-54340775D01*
X78570000Y-53954500D01*
X78380500Y-53765000D01*
X77387000Y-53765000D01*
X77387000Y-54190000D01*
X76537000Y-54190000D01*
X76537000Y-53765000D01*
X75543500Y-53765000D01*
X75354000Y-53954500D01*
X75354000Y-54340775D01*
X75469398Y-54619372D01*
X75682627Y-54832601D01*
X75711998Y-54844767D01*
X75711998Y-54879261D01*
X75452447Y-55267707D01*
X75330654Y-55880000D01*
X74592000Y-55880000D01*
X74592000Y-55287500D01*
X74402500Y-55098000D01*
X73209000Y-55098000D01*
X71959000Y-55098000D01*
X70765500Y-55098000D01*
X70576000Y-55287500D01*
X67092000Y-55287500D01*
X66902500Y-55098000D01*
X65709000Y-55098000D01*
X64459000Y-55098000D01*
X63265500Y-55098000D01*
X63076000Y-55287500D01*
X60722012Y-55287500D01*
X60555802Y-55218484D01*
X59449054Y-55217518D01*
X58426182Y-55640160D01*
X57642910Y-56422066D01*
X57218484Y-57444198D01*
X57217518Y-58550946D01*
X50825000Y-58550946D01*
X50825000Y-55515848D01*
X51538461Y-56229309D01*
X51853001Y-55914769D01*
X52202263Y-56224618D01*
X53496996Y-56284439D01*
X53797737Y-56224618D01*
X54147001Y-55914768D01*
X53000000Y-54767767D01*
X52985858Y-54781910D01*
X51218091Y-53014143D01*
X51232233Y-53000000D01*
X51218091Y-52985858D01*
X52985858Y-51218091D01*
X53000000Y-51232233D01*
X53014143Y-51218091D01*
X54781910Y-52985858D01*
X54767767Y-53000000D01*
X55914768Y-54147001D01*
X56224618Y-53797737D01*
X56284439Y-52503004D01*
X56224618Y-52202263D01*
X55914769Y-51853001D01*
X56229309Y-51538461D01*
X55515848Y-50825000D01*
X63245026Y-50825000D01*
X63191398Y-50878628D01*
X63191398Y-50878628D01*
G37*
X63191398Y-50878628D02*
X63076000Y-51157225D01*
X63076000Y-52408500D01*
X63265500Y-52598000D01*
X64459000Y-52598000D01*
X64459000Y-52578000D01*
X65709000Y-52578000D01*
X65709000Y-52598000D01*
X66902500Y-52598000D01*
X67092000Y-52408500D01*
X67092000Y-51157225D01*
X66976602Y-50878628D01*
X66922974Y-50825000D01*
X70745026Y-50825000D01*
X70691398Y-50878628D01*
X70576000Y-51157225D01*
X70576000Y-52408500D01*
X70765500Y-52598000D01*
X71959000Y-52598000D01*
X71959000Y-52578000D01*
X73209000Y-52578000D01*
X73209000Y-52598000D01*
X74402500Y-52598000D01*
X74592000Y-52408500D01*
X74592000Y-52339225D01*
X75354000Y-52339225D01*
X75354000Y-52725500D01*
X75543500Y-52915000D01*
X76537000Y-52915000D01*
X76537000Y-51921500D01*
X77387000Y-51921500D01*
X77387000Y-52915000D01*
X78380500Y-52915000D01*
X78418118Y-52877382D01*
X100204378Y-52877382D01*
X100363894Y-53263440D01*
X100659006Y-53559068D01*
X101044786Y-53719258D01*
X101462502Y-53719622D01*
X101704993Y-53619427D01*
X104693061Y-53776694D01*
X104946226Y-53881818D01*
X105363942Y-53882182D01*
X105750000Y-53722666D01*
X106045628Y-53427554D01*
X106205818Y-53041774D01*
X106206182Y-52624058D01*
X106046666Y-52238000D01*
X105751554Y-51942372D01*
X105365774Y-51782182D01*
X104948058Y-51781818D01*
X104613732Y-51919959D01*
X101835479Y-51773735D01*
X101464334Y-51619622D01*
X101046618Y-51619258D01*
X100660560Y-51778774D01*
X100364932Y-52073886D01*
X100204742Y-52459666D01*
X100204378Y-52877382D01*
X78418118Y-52877382D01*
X78570000Y-52725500D01*
X78570000Y-52339225D01*
X78454602Y-52060628D01*
X78241373Y-51847399D01*
X77962776Y-51732000D01*
X77576500Y-51732000D01*
X77387000Y-51921500D01*
X76537000Y-51921500D01*
X76347500Y-51732000D01*
X75961224Y-51732000D01*
X75682627Y-51847399D01*
X75469398Y-52060628D01*
X75354000Y-52339225D01*
X74592000Y-52339225D01*
X74592000Y-51157225D01*
X74476602Y-50878628D01*
X74422974Y-50825000D01*
X122427026Y-50825000D01*
X122373398Y-50878628D01*
X122258000Y-51157225D01*
X122258000Y-52408500D01*
X122447500Y-52598000D01*
X123641000Y-52598000D01*
X123641000Y-52578000D01*
X124891000Y-52578000D01*
X124891000Y-52598000D01*
X126084500Y-52598000D01*
X126274000Y-52408500D01*
X126274000Y-51157225D01*
X126158602Y-50878628D01*
X126104974Y-50825000D01*
X129927026Y-50825000D01*
X129873398Y-50878628D01*
X129758000Y-51157225D01*
X129758000Y-52408500D01*
X129947500Y-52598000D01*
X131141000Y-52598000D01*
X131141000Y-52578000D01*
X132391000Y-52578000D01*
X132391000Y-52598000D01*
X133584500Y-52598000D01*
X133774000Y-52408500D01*
X133774000Y-51157225D01*
X133658602Y-50878628D01*
X133604974Y-50825000D01*
X144484152Y-50825000D01*
X143770691Y-51538461D01*
X144085231Y-51853001D01*
X143775382Y-52202263D01*
X143715561Y-53496996D01*
X143775382Y-53797737D01*
X144085232Y-54147001D01*
X145232233Y-53000000D01*
X145218091Y-52985858D01*
X146985858Y-51218091D01*
X147000000Y-51232233D01*
X147014143Y-51218091D01*
X148781910Y-52985858D01*
X148767767Y-53000000D01*
X148781910Y-53014143D01*
X147014143Y-54781910D01*
X147000000Y-54767767D01*
X145852999Y-55914768D01*
X146202263Y-56224618D01*
X147496996Y-56284439D01*
X147797737Y-56224618D01*
X148146999Y-55914769D01*
X148461539Y-56229309D01*
X149175000Y-55515848D01*
X149175000Y-86937946D01*
X148961314Y-86724260D01*
X148911706Y-86604200D01*
X148616594Y-86308572D01*
X148230814Y-86148382D01*
X147813098Y-86148018D01*
X147427040Y-86307534D01*
X147131412Y-86602646D01*
X146971222Y-86988426D01*
X146970858Y-87406142D01*
X147130374Y-87792200D01*
X147425486Y-88087828D01*
X147546848Y-88138222D01*
X148189440Y-88780814D01*
X148189440Y-107278800D01*
X147318435Y-106407795D01*
X147003742Y-106722488D01*
X146506008Y-106666252D01*
X146032679Y-106760403D01*
X145862301Y-107029706D01*
X146686000Y-107853406D01*
X147106729Y-107432677D01*
X148061323Y-108387271D01*
X147640594Y-108808000D01*
X148061323Y-109228729D01*
X147292052Y-109998000D01*
X146921406Y-109998000D01*
X146686000Y-109762594D01*
X146450594Y-109998000D01*
X146079948Y-109998000D01*
X145310677Y-109228729D01*
X145731406Y-108808000D01*
X144907706Y-107984301D01*
X144638403Y-108154679D01*
X144544252Y-108987992D01*
X144576436Y-109149794D01*
X144285795Y-109440435D01*
X144843360Y-109998000D01*
X143764005Y-109998000D01*
X143764000Y-109997999D01*
X143381316Y-110074120D01*
X143056893Y-110290893D01*
X141278893Y-112068893D01*
X141161250Y-112244957D01*
X141131771Y-112257138D01*
X140706630Y-112681537D01*
X140476262Y-113236325D01*
X140475738Y-113837040D01*
X140705138Y-114392229D01*
X141120536Y-114808353D01*
X140706630Y-115221537D01*
X140476262Y-115776325D01*
X140475738Y-116377040D01*
X140705138Y-116932229D01*
X141129537Y-117357370D01*
X141684325Y-117587738D01*
X142285040Y-117588262D01*
X142840229Y-117358862D01*
X142985882Y-117213464D01*
X143129537Y-117357370D01*
X143684325Y-117587738D01*
X144285040Y-117588262D01*
X144840229Y-117358862D01*
X145265370Y-116934463D01*
X145495738Y-116379675D01*
X145496262Y-115778960D01*
X145266862Y-115223771D01*
X144842463Y-114798630D01*
X144614621Y-114704022D01*
X143986000Y-114075401D01*
X143717300Y-114344102D01*
X143412744Y-114039546D01*
X143495738Y-113839675D01*
X143496001Y-113538000D01*
X144523401Y-113538000D01*
X145176767Y-114191366D01*
X145423179Y-114112466D01*
X145533619Y-113518753D01*
X145423179Y-112963534D01*
X145176767Y-112884634D01*
X144523401Y-113538000D01*
X143496001Y-113538000D01*
X143496262Y-113238960D01*
X143412634Y-113036564D01*
X143717300Y-112731899D01*
X143986000Y-113000599D01*
X144639366Y-112347233D01*
X144560466Y-112100821D01*
X144260860Y-112045090D01*
X144213770Y-111998000D01*
X148189440Y-111998000D01*
X148189440Y-119278800D01*
X147318435Y-118407795D01*
X147003742Y-118722488D01*
X146506008Y-118666252D01*
X146032679Y-118760403D01*
X145862301Y-119029706D01*
X146686000Y-119853406D01*
X147106729Y-119432677D01*
X148061323Y-120387271D01*
X147640594Y-120808000D01*
X148061323Y-121228729D01*
X147106729Y-122183323D01*
X146686000Y-121762594D01*
X146265271Y-122183323D01*
X145310677Y-121228729D01*
X145731406Y-120808000D01*
X144907706Y-119984301D01*
X144638403Y-120154679D01*
X144544252Y-120987992D01*
X144576436Y-121149794D01*
X144285795Y-121440435D01*
X145035360Y-122190000D01*
X132588005Y-122190000D01*
X132588000Y-122189999D01*
X132205316Y-122266120D01*
X131880893Y-122482893D01*
X130322230Y-124041556D01*
X129954640Y-124193441D01*
X129539649Y-124607708D01*
X129127598Y-124194936D01*
X128572075Y-123964263D01*
X127970564Y-123963738D01*
X127414640Y-124193441D01*
X126999649Y-124607708D01*
X126587598Y-124194936D01*
X126032075Y-123964263D01*
X125430564Y-123963738D01*
X125385000Y-123982565D01*
X125385000Y-122684369D01*
X125509818Y-122383774D01*
X125510182Y-121966058D01*
X125350666Y-121580000D01*
X125055554Y-121284372D01*
X124669774Y-121124182D01*
X124252058Y-121123818D01*
X123866000Y-121283334D01*
X123570372Y-121578446D01*
X123410182Y-121964226D01*
X123409818Y-122381942D01*
X123535000Y-122684905D01*
X123535000Y-123982087D01*
X123492075Y-123964263D01*
X122890564Y-123963738D01*
X122334640Y-124193441D01*
X121919649Y-124607708D01*
X121507598Y-124194936D01*
X120952075Y-123964263D01*
X120350564Y-123963738D01*
X120263932Y-123999534D01*
X120234589Y-123852018D01*
X120034074Y-123551926D01*
X119272074Y-122789926D01*
X119272071Y-122789924D01*
X119124959Y-122642812D01*
X119000666Y-122342000D01*
X118705554Y-122046372D01*
X118319774Y-121886182D01*
X117902058Y-121885818D01*
X117516000Y-122045334D01*
X117220372Y-122340446D01*
X117060182Y-122726226D01*
X117059818Y-123143942D01*
X117219334Y-123530000D01*
X117514446Y-123825628D01*
X117817192Y-123951339D01*
X117829607Y-123963755D01*
X117810564Y-123963738D01*
X117254640Y-124193441D01*
X116839649Y-124607708D01*
X116427598Y-124194936D01*
X115872075Y-123964263D01*
X115270564Y-123963738D01*
X114714640Y-124193441D01*
X114299649Y-124607708D01*
X113887598Y-124194936D01*
X113332075Y-123964263D01*
X112730564Y-123963738D01*
X112174640Y-124193441D01*
X111759649Y-124607708D01*
X111347598Y-124194936D01*
X110792075Y-123964263D01*
X110190564Y-123963738D01*
X109634640Y-124193441D01*
X109219649Y-124607708D01*
X108807598Y-124194936D01*
X108252075Y-123964263D01*
X107650564Y-123963738D01*
X107094640Y-124193441D01*
X106679649Y-124607708D01*
X106267598Y-124194936D01*
X105712075Y-123964263D01*
X105110564Y-123963738D01*
X104554640Y-124193441D01*
X104139649Y-124607708D01*
X103727598Y-124194936D01*
X103172075Y-123964263D01*
X102570564Y-123963738D01*
X102014640Y-124193441D01*
X101599649Y-124607708D01*
X101187598Y-124194936D01*
X100632075Y-123964263D01*
X100030564Y-123963738D01*
X99474640Y-124193441D01*
X99059649Y-124607708D01*
X98647598Y-124194936D01*
X98092075Y-123964263D01*
X97490564Y-123963738D01*
X96934640Y-124193441D01*
X96519649Y-124607708D01*
X96107598Y-124194936D01*
X95552075Y-123964263D01*
X94950564Y-123963738D01*
X94394640Y-124193441D01*
X93979649Y-124607708D01*
X93567598Y-124194936D01*
X93012075Y-123964263D01*
X92410564Y-123963738D01*
X91854640Y-124193441D01*
X91439649Y-124607708D01*
X91027598Y-124194936D01*
X90472075Y-123964263D01*
X89870564Y-123963738D01*
X89314640Y-124193441D01*
X88899649Y-124607708D01*
X88487598Y-124194936D01*
X87932075Y-123964263D01*
X87330564Y-123963738D01*
X86774640Y-124193441D01*
X86348936Y-124618402D01*
X86118263Y-125173925D01*
X86117738Y-125775436D01*
X86347441Y-126331360D01*
X86772402Y-126757064D01*
X87327925Y-126987737D01*
X87929436Y-126988262D01*
X88485360Y-126758559D01*
X88900351Y-126344292D01*
X89245000Y-126689544D01*
X89245000Y-128472200D01*
X89026372Y-128690446D01*
X88866182Y-129076226D01*
X88865818Y-129493942D01*
X89025334Y-129880000D01*
X89320446Y-130175628D01*
X89706226Y-130335818D01*
X90123942Y-130336182D01*
X90510000Y-130176666D01*
X90805628Y-129881554D01*
X90965818Y-129495774D01*
X90965837Y-129473911D01*
X91024589Y-129385983D01*
X91095000Y-129032000D01*
X91095000Y-126689041D01*
X91440351Y-126344292D01*
X91852402Y-126757064D01*
X92407925Y-126987737D01*
X93009436Y-126988262D01*
X93565360Y-126758559D01*
X93980351Y-126344292D01*
X94392402Y-126757064D01*
X94947925Y-126987737D01*
X95549436Y-126988262D01*
X96105360Y-126758559D01*
X96520351Y-126344292D01*
X96932402Y-126757064D01*
X97487925Y-126987737D01*
X98089436Y-126988262D01*
X98645360Y-126758559D01*
X99060351Y-126344292D01*
X99472402Y-126757064D01*
X100027925Y-126987737D01*
X100629436Y-126988262D01*
X101185360Y-126758559D01*
X101600351Y-126344292D01*
X102012402Y-126757064D01*
X102567925Y-126987737D01*
X103169436Y-126988262D01*
X103725360Y-126758559D01*
X104140351Y-126344292D01*
X104552402Y-126757064D01*
X105107925Y-126987737D01*
X105709436Y-126988262D01*
X106265360Y-126758559D01*
X106680351Y-126344292D01*
X107092402Y-126757064D01*
X107647925Y-126987737D01*
X108249436Y-126988262D01*
X108805360Y-126758559D01*
X109220351Y-126344292D01*
X109632402Y-126757064D01*
X110187925Y-126987737D01*
X110789436Y-126988262D01*
X111345360Y-126758559D01*
X111760351Y-126344292D01*
X112172402Y-126757064D01*
X112727925Y-126987737D01*
X113329436Y-126988262D01*
X113885360Y-126758559D01*
X114300351Y-126344292D01*
X114712402Y-126757064D01*
X115267925Y-126987737D01*
X115869436Y-126988262D01*
X116425360Y-126758559D01*
X116840351Y-126344292D01*
X117252402Y-126757064D01*
X117807925Y-126987737D01*
X118409436Y-126988262D01*
X118881190Y-126793338D01*
X119741926Y-127654074D01*
X120042017Y-127854589D01*
X120396000Y-127925000D01*
X123952000Y-127925000D01*
X124305983Y-127854589D01*
X124606074Y-127654074D01*
X125114071Y-127146076D01*
X125114074Y-127146074D01*
X125265059Y-126920109D01*
X125427925Y-126987737D01*
X126029436Y-126988262D01*
X126585360Y-126758559D01*
X127000351Y-126344292D01*
X127412402Y-126757064D01*
X127967925Y-126987737D01*
X128569436Y-126988262D01*
X129125360Y-126758559D01*
X129540351Y-126344292D01*
X129952402Y-126757064D01*
X129986787Y-126771342D01*
X130102893Y-126945107D01*
X130427317Y-127161880D01*
X130810000Y-127238000D01*
X131192683Y-127161880D01*
X131517107Y-126945107D01*
X131632752Y-126772033D01*
X131665360Y-126758559D01*
X131755305Y-126668770D01*
X132696045Y-126668770D01*
X132775255Y-126915265D01*
X133369788Y-127025653D01*
X133924745Y-126915265D01*
X134003955Y-126668770D01*
X133350000Y-126014815D01*
X132696045Y-126668770D01*
X131755305Y-126668770D01*
X132091064Y-126333598D01*
X132188685Y-126098500D01*
X132811185Y-125476000D01*
X132541778Y-125206593D01*
X133080593Y-124667778D01*
X133350000Y-124937185D01*
X134003955Y-124283230D01*
X133973996Y-124190000D01*
X135042968Y-124190000D01*
X135034640Y-124193441D01*
X134608936Y-124618402D01*
X134511315Y-124853500D01*
X133888815Y-125476000D01*
X134511162Y-126098347D01*
X134607441Y-126331360D01*
X135032402Y-126757064D01*
X135587925Y-126987737D01*
X136189436Y-126988262D01*
X136745360Y-126758559D01*
X137171064Y-126333598D01*
X137401737Y-125778075D01*
X137402262Y-125176564D01*
X137172559Y-124620640D01*
X136747598Y-124194936D01*
X136735711Y-124190000D01*
X148189440Y-124190000D01*
X148189440Y-135384346D01*
X146143786Y-137430000D01*
X140442496Y-137430000D01*
X140354717Y-137298629D01*
X140147244Y-137160000D01*
X140354717Y-137021371D01*
X140701553Y-136502293D01*
X140823346Y-135890000D01*
X140701553Y-135277707D01*
X140416109Y-134850509D01*
X140575198Y-134748138D01*
X140746446Y-134497508D01*
X140806693Y-134200000D01*
X140806693Y-132500000D01*
X140754396Y-132222067D01*
X140590138Y-131966802D01*
X140339508Y-131795554D01*
X140042000Y-131735307D01*
X138342000Y-131735307D01*
X138064067Y-131787604D01*
X137808802Y-131951862D01*
X137637554Y-132202492D01*
X137577307Y-132500000D01*
X137577307Y-134200000D01*
X137629604Y-134477933D01*
X137793862Y-134733198D01*
X137967158Y-134851606D01*
X137941504Y-134890000D01*
X134174468Y-134890000D01*
X134150396Y-134762067D01*
X133986138Y-134506802D01*
X133735508Y-134335554D01*
X133438000Y-134275307D01*
X131738000Y-134275307D01*
X131460067Y-134327604D01*
X131204802Y-134491862D01*
X131086394Y-134665158D01*
X130660293Y-134380447D01*
X130048000Y-134258654D01*
X129435707Y-134380447D01*
X128916629Y-134727283D01*
X128778000Y-134934756D01*
X128639371Y-134727283D01*
X128120293Y-134380447D01*
X127508000Y-134258654D01*
X126895707Y-134380447D01*
X126376629Y-134727283D01*
X126238000Y-134934756D01*
X126099371Y-134727283D01*
X125580293Y-134380447D01*
X124968000Y-134258654D01*
X124355707Y-134380447D01*
X123836629Y-134727283D01*
X123698000Y-134934756D01*
X123559371Y-134727283D01*
X123040293Y-134380447D01*
X122428000Y-134258654D01*
X122083000Y-134327279D01*
X122083000Y-134112005D01*
X122083001Y-134112000D01*
X122012589Y-133758018D01*
X121812074Y-133457926D01*
X121410958Y-133056810D01*
X121286666Y-132756000D01*
X120991554Y-132460372D01*
X120605774Y-132300182D01*
X120188058Y-132299818D01*
X119802000Y-132459334D01*
X119506372Y-132754446D01*
X119346182Y-133140226D01*
X119345818Y-133557942D01*
X119505334Y-133944000D01*
X119800446Y-134239628D01*
X119859783Y-134264267D01*
X119275707Y-134380447D01*
X118756629Y-134727283D01*
X118618000Y-134934756D01*
X118479371Y-134727283D01*
X117960293Y-134380447D01*
X117348000Y-134258654D01*
X116735707Y-134380447D01*
X116216629Y-134727283D01*
X115869793Y-135246361D01*
X115748000Y-135858654D01*
X115748000Y-135921346D01*
X115869793Y-136533639D01*
X116216629Y-137052717D01*
X116377190Y-137160000D01*
X116216629Y-137267283D01*
X115869793Y-137786361D01*
X115748000Y-138398654D01*
X115748000Y-138461346D01*
X115869793Y-139073639D01*
X116216629Y-139592717D01*
X116348000Y-139680496D01*
X116348000Y-145034000D01*
X116424120Y-145416684D01*
X116640893Y-145741107D01*
X116856000Y-145956214D01*
X116856000Y-147159786D01*
X116425786Y-147590000D01*
X113792000Y-147590000D01*
X113409317Y-147666120D01*
X113212338Y-147797737D01*
X113143101Y-147844000D01*
X108201946Y-147844000D01*
X108544000Y-147702666D01*
X108839628Y-147407554D01*
X108999818Y-147021774D01*
X109000182Y-146604058D01*
X108840666Y-146218000D01*
X108696000Y-146073081D01*
X108696000Y-145034000D01*
X108619880Y-144651317D01*
X108403107Y-144326893D01*
X108078683Y-144110120D01*
X107696000Y-144034000D01*
X107313317Y-144110120D01*
X106988893Y-144326893D01*
X106772120Y-144651317D01*
X106696000Y-145034000D01*
X106696000Y-146558000D01*
X106772120Y-146940684D01*
X106988893Y-147265107D01*
X107009726Y-147285940D01*
X107059334Y-147406000D01*
X107354446Y-147701628D01*
X107697316Y-147844000D01*
X76168000Y-147844000D01*
X76168000Y-147526500D01*
X75978500Y-147337000D01*
X74535000Y-147337000D01*
X74535000Y-147732000D01*
X72785000Y-147732000D01*
X72785000Y-147337000D01*
X71341500Y-147337000D01*
X71152000Y-147526500D01*
X71152000Y-147844000D01*
X69248214Y-147844000D01*
X68564000Y-147159786D01*
X68564000Y-145796000D01*
X68487880Y-145413317D01*
X68271107Y-145088893D01*
X68271104Y-145088891D01*
X67743438Y-144561224D01*
X71152000Y-144561224D01*
X71152000Y-145397500D01*
X71341500Y-145587000D01*
X72785000Y-145587000D01*
X72785000Y-144143500D01*
X72595500Y-143954000D01*
X71759225Y-143954000D01*
X71480628Y-144069398D01*
X71267399Y-144282627D01*
X71152000Y-144561224D01*
X67743438Y-144561224D01*
X66024000Y-142841786D01*
X66024000Y-141732000D01*
X65947880Y-141349317D01*
X65731107Y-141024893D01*
X63418214Y-138712000D01*
X71145307Y-138712000D01*
X71145307Y-142212000D01*
X71197604Y-142489933D01*
X71361862Y-142745198D01*
X71612492Y-142916446D01*
X71910000Y-142976693D01*
X75410000Y-142976693D01*
X75687933Y-142924396D01*
X75845307Y-142823129D01*
X75845307Y-144075333D01*
X75839372Y-144069398D01*
X75560775Y-143954000D01*
X74724500Y-143954000D01*
X74535000Y-144143500D01*
X74535000Y-145587000D01*
X75960065Y-145587000D01*
X76061862Y-145745198D01*
X76312492Y-145916446D01*
X76610000Y-145976693D01*
X80110000Y-145976693D01*
X80387933Y-145924396D01*
X80643198Y-145760138D01*
X80814446Y-145509508D01*
X80874693Y-145212000D01*
X80874693Y-145211500D01*
X82070000Y-145211500D01*
X82070000Y-145922775D01*
X82185398Y-146201372D01*
X82398627Y-146414601D01*
X82677224Y-146530000D01*
X83388500Y-146530000D01*
X83578000Y-146340500D01*
X83578000Y-145022000D01*
X85078000Y-145022000D01*
X85078000Y-146340500D01*
X85267500Y-146530000D01*
X85978776Y-146530000D01*
X86257373Y-146414601D01*
X86470602Y-146201372D01*
X86586000Y-145922775D01*
X86586000Y-145211500D01*
X86396500Y-145022000D01*
X85078000Y-145022000D01*
X83578000Y-145022000D01*
X82259500Y-145022000D01*
X82070000Y-145211500D01*
X80874693Y-145211500D01*
X80874693Y-144717589D01*
X87157610Y-144717589D01*
X87499431Y-145544858D01*
X88131813Y-146178345D01*
X88958484Y-146521608D01*
X89853589Y-146522390D01*
X90680858Y-146180569D01*
X91314345Y-145548187D01*
X91657608Y-144721516D01*
X91658390Y-143826411D01*
X91316569Y-142999142D01*
X90684187Y-142365655D01*
X89857516Y-142022392D01*
X88962411Y-142021610D01*
X88135142Y-142363431D01*
X87501655Y-142995813D01*
X87158392Y-143822484D01*
X87157610Y-144717589D01*
X80874693Y-144717589D01*
X80874693Y-142621225D01*
X82070000Y-142621225D01*
X82070000Y-143332500D01*
X82259500Y-143522000D01*
X83578000Y-143522000D01*
X83578000Y-142203500D01*
X85078000Y-142203500D01*
X85078000Y-143522000D01*
X86396500Y-143522000D01*
X86586000Y-143332500D01*
X86586000Y-142621225D01*
X86470602Y-142342628D01*
X86257373Y-142129399D01*
X85978776Y-142014000D01*
X85267500Y-142014000D01*
X85078000Y-142203500D01*
X83578000Y-142203500D01*
X83388500Y-142014000D01*
X82677224Y-142014000D01*
X82398627Y-142129399D01*
X82185398Y-142342628D01*
X82070000Y-142621225D01*
X80874693Y-142621225D01*
X80874693Y-141712000D01*
X80822396Y-141434067D01*
X80658138Y-141178802D01*
X80407508Y-141007554D01*
X80110000Y-140947307D01*
X76610000Y-140947307D01*
X76332067Y-140999604D01*
X76174693Y-141100871D01*
X76174693Y-139104000D01*
X101763307Y-139104000D01*
X101763307Y-140804000D01*
X101815604Y-141081933D01*
X101979862Y-141337198D01*
X102230492Y-141508446D01*
X102528000Y-141568693D01*
X104228000Y-141568693D01*
X104505933Y-141516396D01*
X104761198Y-141352138D01*
X104879606Y-141178842D01*
X105305707Y-141463553D01*
X105918000Y-141585346D01*
X106530293Y-141463553D01*
X107049371Y-141116717D01*
X107396207Y-140597639D01*
X107518000Y-139985346D01*
X107518000Y-139922654D01*
X107396207Y-139310361D01*
X107049371Y-138791283D01*
X106530293Y-138444447D01*
X105918000Y-138322654D01*
X105305707Y-138444447D01*
X104878509Y-138729891D01*
X104776138Y-138570802D01*
X104525508Y-138399554D01*
X104228000Y-138339307D01*
X102528000Y-138339307D01*
X102250067Y-138391604D01*
X101994802Y-138555862D01*
X101823554Y-138806492D01*
X101763307Y-139104000D01*
X76174693Y-139104000D01*
X76174693Y-138712000D01*
X76122396Y-138434067D01*
X75958138Y-138178802D01*
X75707508Y-138007554D01*
X75410000Y-137947307D01*
X71910000Y-137947307D01*
X71632067Y-137999604D01*
X71376802Y-138163862D01*
X71205554Y-138414492D01*
X71145307Y-138712000D01*
X63418214Y-138712000D01*
X62722000Y-138015786D01*
X62722000Y-136460468D01*
X62849933Y-136436396D01*
X63105198Y-136272138D01*
X63276446Y-136021508D01*
X63336693Y-135724000D01*
X63336693Y-135713500D01*
X83078000Y-135713500D01*
X83078000Y-136324775D01*
X83193398Y-136603372D01*
X83406627Y-136816601D01*
X83685224Y-136932000D01*
X84146500Y-136932000D01*
X84336000Y-136742500D01*
X84336000Y-135524000D01*
X83267500Y-135524000D01*
X83078000Y-135713500D01*
X63336693Y-135713500D01*
X63336693Y-134024000D01*
X63284396Y-133746067D01*
X63120138Y-133490802D01*
X63021236Y-133423225D01*
X83078000Y-133423225D01*
X83078000Y-134034500D01*
X83267500Y-134224000D01*
X84336000Y-134224000D01*
X84336000Y-133005500D01*
X85336000Y-133005500D01*
X85336000Y-134224000D01*
X85687631Y-134224000D01*
X85626000Y-134533838D01*
X85626000Y-135214162D01*
X85687631Y-135524000D01*
X85336000Y-135524000D01*
X85336000Y-136742500D01*
X85525500Y-136932000D01*
X85986776Y-136932000D01*
X86265373Y-136816601D01*
X86433383Y-136648591D01*
X86706304Y-136830951D01*
X87376000Y-136964162D01*
X88045696Y-136830951D01*
X88613437Y-136451599D01*
X88992789Y-135883858D01*
X89126000Y-135214162D01*
X89126000Y-134533838D01*
X89022275Y-134012374D01*
X96070728Y-134012374D01*
X96435745Y-134522689D01*
X96873631Y-134815241D01*
X97111000Y-134703336D01*
X97111000Y-133775000D01*
X96174650Y-133775000D01*
X96070728Y-134012374D01*
X89022275Y-134012374D01*
X88992789Y-133864142D01*
X88613437Y-133296401D01*
X88045696Y-132917049D01*
X87376000Y-132783838D01*
X86706304Y-132917049D01*
X86433383Y-133099409D01*
X86265373Y-132931399D01*
X85986776Y-132816000D01*
X85525500Y-132816000D01*
X85336000Y-133005500D01*
X84336000Y-133005500D01*
X84146500Y-132816000D01*
X83685224Y-132816000D01*
X83406627Y-132931399D01*
X83193398Y-133144628D01*
X83078000Y-133423225D01*
X63021236Y-133423225D01*
X62946842Y-133372394D01*
X63231553Y-132946293D01*
X63283005Y-132687626D01*
X96070728Y-132687626D01*
X96174650Y-132925000D01*
X97111000Y-132925000D01*
X97111000Y-131996664D01*
X97961000Y-131996664D01*
X97961000Y-132925000D01*
X98386000Y-132925000D01*
X98386000Y-133775000D01*
X97961000Y-133775000D01*
X97961000Y-134703336D01*
X98198369Y-134815241D01*
X98520534Y-134600002D01*
X99075261Y-134600002D01*
X99463707Y-134859553D01*
X100076000Y-134981346D01*
X100688293Y-134859553D01*
X101207371Y-134512717D01*
X101346000Y-134305244D01*
X101484629Y-134512717D01*
X102003707Y-134859553D01*
X102616000Y-134981346D01*
X103228293Y-134859553D01*
X103655491Y-134574109D01*
X103757862Y-134733198D01*
X104008492Y-134904446D01*
X104306000Y-134964693D01*
X106006000Y-134964693D01*
X106283933Y-134912396D01*
X106539198Y-134748138D01*
X106710446Y-134497508D01*
X106770693Y-134200000D01*
X106770693Y-132500000D01*
X106718396Y-132222067D01*
X106554138Y-131966802D01*
X106303508Y-131795554D01*
X106006000Y-131735307D01*
X104306000Y-131735307D01*
X104028067Y-131787604D01*
X103772802Y-131951862D01*
X103654394Y-132125158D01*
X103228293Y-131840447D01*
X102616000Y-131718654D01*
X102003707Y-131840447D01*
X101484629Y-132187283D01*
X101346000Y-132394756D01*
X101207371Y-132187283D01*
X100688293Y-131840447D01*
X100076000Y-131718654D01*
X99463707Y-131840447D01*
X99075261Y-132099998D01*
X98520534Y-132099998D01*
X98198369Y-131884759D01*
X97961000Y-131996664D01*
X97111000Y-131996664D01*
X96873631Y-131884759D01*
X96435745Y-132177311D01*
X96070728Y-132687626D01*
X63283005Y-132687626D01*
X63353346Y-132334000D01*
X63231553Y-131721707D01*
X62884717Y-131202629D01*
X62365639Y-130855793D01*
X61753346Y-130734000D01*
X61690654Y-130734000D01*
X61561837Y-130759623D01*
X60544683Y-129742469D01*
X60750226Y-129827818D01*
X61167942Y-129828182D01*
X61554000Y-129668666D01*
X61849628Y-129373554D01*
X62009818Y-128987774D01*
X62010182Y-128570058D01*
X61850666Y-128184000D01*
X61555554Y-127888372D01*
X61169774Y-127728182D01*
X60752058Y-127727818D01*
X60366000Y-127887334D01*
X60070372Y-128182446D01*
X59910182Y-128568226D01*
X59909818Y-128985942D01*
X59995484Y-129193270D01*
X56166693Y-125364479D01*
X56166693Y-124476000D01*
X56114396Y-124198067D01*
X55950138Y-123942802D01*
X55870200Y-123888183D01*
X56058951Y-123605696D01*
X56192162Y-122936000D01*
X56058951Y-122266304D01*
X55679599Y-121698563D01*
X55630865Y-121666000D01*
X55679599Y-121633437D01*
X56058951Y-121065696D01*
X56192162Y-120396000D01*
X56058951Y-119726304D01*
X55679599Y-119158563D01*
X55630865Y-119126000D01*
X55679599Y-119093437D01*
X55729847Y-119018235D01*
X55934893Y-119325107D01*
X56717726Y-120107940D01*
X56767334Y-120228000D01*
X57062446Y-120523628D01*
X57448226Y-120683818D01*
X57865942Y-120684182D01*
X58252000Y-120524666D01*
X58547628Y-120229554D01*
X58707818Y-119843774D01*
X58708182Y-119426058D01*
X58548666Y-119040000D01*
X58253554Y-118744372D01*
X58132192Y-118693978D01*
X57642000Y-118203786D01*
X57642000Y-114300000D01*
X57565880Y-113917317D01*
X57349107Y-113592893D01*
X57349104Y-113592891D01*
X56994156Y-113237942D01*
X90135818Y-113237942D01*
X90261000Y-113540905D01*
X90261000Y-115316000D01*
X90331411Y-115669983D01*
X90531926Y-115970074D01*
X90679041Y-116117189D01*
X90803334Y-116418000D01*
X91098446Y-116713628D01*
X91484226Y-116873818D01*
X91901942Y-116874182D01*
X92288000Y-116714666D01*
X92583628Y-116419554D01*
X92743818Y-116033774D01*
X92744182Y-115616058D01*
X92584666Y-115230000D01*
X92289554Y-114934372D01*
X92111000Y-114860230D01*
X92111000Y-113540369D01*
X92235818Y-113239774D01*
X92236182Y-112822058D01*
X92076666Y-112436000D01*
X91781554Y-112140372D01*
X91395774Y-111980182D01*
X90978058Y-111979818D01*
X90592000Y-112139334D01*
X90296372Y-112434446D01*
X90136182Y-112820226D01*
X90135818Y-113237942D01*
X56994156Y-113237942D01*
X56107726Y-112351512D01*
X56058951Y-112106304D01*
X55679599Y-111538563D01*
X55515282Y-111428770D01*
X86976045Y-111428770D01*
X87055255Y-111675265D01*
X87649788Y-111785653D01*
X88204745Y-111675265D01*
X88283955Y-111428770D01*
X89516045Y-111428770D01*
X89595255Y-111675265D01*
X90189788Y-111785653D01*
X90744745Y-111675265D01*
X90823955Y-111428770D01*
X90170000Y-110774815D01*
X89516045Y-111428770D01*
X88283955Y-111428770D01*
X87630000Y-110774815D01*
X86976045Y-111428770D01*
X55515282Y-111428770D01*
X55111858Y-111159211D01*
X54442162Y-111026000D01*
X53761838Y-111026000D01*
X53092142Y-111159211D01*
X52524401Y-111538563D01*
X52145049Y-112106304D01*
X52011838Y-112776000D01*
X52145049Y-113445696D01*
X52524401Y-114013437D01*
X52573135Y-114046000D01*
X52524401Y-114078563D01*
X52145049Y-114646304D01*
X52011838Y-115316000D01*
X52145049Y-115985696D01*
X52524401Y-116553437D01*
X52573135Y-116586000D01*
X52524401Y-116618563D01*
X52145049Y-117186304D01*
X52011838Y-117856000D01*
X52145049Y-118525696D01*
X52524401Y-119093437D01*
X52573135Y-119126000D01*
X52524401Y-119158563D01*
X52145049Y-119726304D01*
X52011838Y-120396000D01*
X52145049Y-121065696D01*
X52524401Y-121633437D01*
X52573135Y-121666000D01*
X52524401Y-121698563D01*
X52145049Y-122266304D01*
X52011838Y-122936000D01*
X52145049Y-123605696D01*
X52332798Y-123886682D01*
X52268802Y-123927862D01*
X52097554Y-124178492D01*
X52037307Y-124476000D01*
X52037307Y-126476000D01*
X52089604Y-126753933D01*
X52253862Y-127009198D01*
X52504492Y-127180446D01*
X52802000Y-127240693D01*
X55214479Y-127240693D01*
X60126679Y-132152893D01*
X60090654Y-132334000D01*
X60212447Y-132946293D01*
X60497891Y-133373491D01*
X60338802Y-133475862D01*
X60167554Y-133726492D01*
X60107307Y-134024000D01*
X60107307Y-135724000D01*
X60159604Y-136001933D01*
X60323862Y-136257198D01*
X60574492Y-136428446D01*
X60722000Y-136458317D01*
X60722000Y-138430000D01*
X60798120Y-138812684D01*
X61014893Y-139137107D01*
X64024000Y-142146214D01*
X64024000Y-143256000D01*
X64100120Y-143638684D01*
X64316893Y-143963107D01*
X66564000Y-146210213D01*
X66564000Y-147574000D01*
X66640120Y-147956684D01*
X66856893Y-148281107D01*
X67750786Y-149175000D01*
X55515848Y-149175000D01*
X56229309Y-148461539D01*
X55914769Y-148146999D01*
X56224618Y-147797737D01*
X56282223Y-146550946D01*
X57217518Y-146550946D01*
X57640160Y-147573818D01*
X58422066Y-148357090D01*
X59444198Y-148781516D01*
X60550946Y-148782482D01*
X61573818Y-148359840D01*
X62357090Y-147577934D01*
X62781516Y-146555802D01*
X62782482Y-145449054D01*
X62359840Y-144426182D01*
X61577934Y-143642910D01*
X60555802Y-143218484D01*
X59449054Y-143217518D01*
X58426182Y-143640160D01*
X57642910Y-144422066D01*
X57218484Y-145444198D01*
X57217518Y-146550946D01*
X56282223Y-146550946D01*
X56284439Y-146503004D01*
X56224618Y-146202263D01*
X55914768Y-145852999D01*
X54767767Y-147000000D01*
X54781910Y-147014143D01*
X53014143Y-148781910D01*
X53000000Y-148767767D01*
X52985858Y-148781910D01*
X51218091Y-147014143D01*
X51232233Y-147000000D01*
X51218091Y-146985858D01*
X52985858Y-145218091D01*
X53000000Y-145232233D01*
X54147001Y-144085232D01*
X53797737Y-143775382D01*
X52503004Y-143715561D01*
X52202263Y-143775382D01*
X51853001Y-144085231D01*
X51538461Y-143770691D01*
X50825000Y-144484152D01*
X50825000Y-137087500D01*
X52044000Y-137087500D01*
X52044000Y-137548776D01*
X52159399Y-137827373D01*
X52372628Y-138040602D01*
X52651225Y-138156000D01*
X53262500Y-138156000D01*
X53452000Y-137966500D01*
X53452000Y-136898000D01*
X54752000Y-136898000D01*
X54752000Y-137966500D01*
X54941500Y-138156000D01*
X55552775Y-138156000D01*
X55831372Y-138040602D01*
X56044601Y-137827373D01*
X56160000Y-137548776D01*
X56160000Y-137087500D01*
X55970500Y-136898000D01*
X54752000Y-136898000D01*
X53452000Y-136898000D01*
X52233500Y-136898000D01*
X52044000Y-137087500D01*
X50825000Y-137087500D01*
X50825000Y-131318000D01*
X52011838Y-131318000D01*
X52145049Y-131987696D01*
X52524401Y-132555437D01*
X52573135Y-132588000D01*
X52524401Y-132620563D01*
X52145049Y-133188304D01*
X52011838Y-133858000D01*
X52145049Y-134527696D01*
X52327409Y-134800617D01*
X52159399Y-134968627D01*
X52044000Y-135247224D01*
X52044000Y-135708500D01*
X52233500Y-135898000D01*
X53452000Y-135898000D01*
X53452000Y-135546369D01*
X53761838Y-135608000D01*
X54442162Y-135608000D01*
X54752000Y-135546369D01*
X54752000Y-135898000D01*
X55970500Y-135898000D01*
X56160000Y-135708500D01*
X56160000Y-135247224D01*
X56044601Y-134968627D01*
X55876591Y-134800617D01*
X56058951Y-134527696D01*
X56192162Y-133858000D01*
X56058951Y-133188304D01*
X55679599Y-132620563D01*
X55630865Y-132588000D01*
X55679599Y-132555437D01*
X55833284Y-132325432D01*
X57405042Y-133897190D01*
X57529334Y-134198000D01*
X57824446Y-134493628D01*
X58210226Y-134653818D01*
X58627942Y-134654182D01*
X59014000Y-134494666D01*
X59309628Y-134199554D01*
X59469818Y-133813774D01*
X59470182Y-133396058D01*
X59310666Y-133010000D01*
X59015554Y-132714372D01*
X58712809Y-132588661D01*
X56788074Y-130663926D01*
X56487983Y-130463411D01*
X56134000Y-130393000D01*
X55888363Y-130393000D01*
X55679599Y-130080563D01*
X55111858Y-129701211D01*
X54442162Y-129568000D01*
X53761838Y-129568000D01*
X53092142Y-129701211D01*
X52524401Y-130080563D01*
X52145049Y-130648304D01*
X52011838Y-131318000D01*
X50825000Y-131318000D01*
X50825000Y-110255788D01*
X86080347Y-110255788D01*
X86190735Y-110810745D01*
X86437230Y-110889955D01*
X87091185Y-110236000D01*
X88168815Y-110236000D01*
X88727551Y-110794736D01*
X88730735Y-110810745D01*
X88749633Y-110816818D01*
X88822770Y-110889955D01*
X88900000Y-110865138D01*
X88977230Y-110889955D01*
X89050367Y-110816818D01*
X89069265Y-110810745D01*
X89072189Y-110794996D01*
X89631185Y-110236000D01*
X90708815Y-110236000D01*
X91331162Y-110858347D01*
X91427441Y-111091360D01*
X91852402Y-111517064D01*
X92407925Y-111747737D01*
X93009436Y-111748262D01*
X93565360Y-111518559D01*
X93980351Y-111104292D01*
X94392402Y-111517064D01*
X94947925Y-111747737D01*
X95549436Y-111748262D01*
X96105360Y-111518559D01*
X96520351Y-111104292D01*
X96865000Y-111449544D01*
X96865000Y-112132240D01*
X96284785Y-114066288D01*
X96138372Y-114212446D01*
X95978182Y-114598226D01*
X95977818Y-115015942D01*
X96137334Y-115402000D01*
X96432446Y-115697628D01*
X96818226Y-115857818D01*
X97235942Y-115858182D01*
X97622000Y-115698666D01*
X97917628Y-115403554D01*
X98077818Y-115017774D01*
X98078182Y-114600058D01*
X98065395Y-114569111D01*
X98096795Y-114464443D01*
X98169334Y-114640000D01*
X98464446Y-114935628D01*
X98850226Y-115095818D01*
X99267942Y-115096182D01*
X99654000Y-114936666D01*
X99949628Y-114641554D01*
X100075339Y-114338809D01*
X100414206Y-113999942D01*
X104867818Y-113999942D01*
X105027334Y-114386000D01*
X105322446Y-114681628D01*
X105708226Y-114841818D01*
X106125942Y-114842182D01*
X106428905Y-114717000D01*
X110487631Y-114717000D01*
X110788226Y-114841818D01*
X111205942Y-114842182D01*
X111592000Y-114682666D01*
X111887628Y-114387554D01*
X112015335Y-114080002D01*
X112221942Y-114080182D01*
X112608000Y-113920666D01*
X112903628Y-113625554D01*
X113063818Y-113239774D01*
X113064182Y-112822058D01*
X112904666Y-112436000D01*
X112609554Y-112140372D01*
X112223774Y-111980182D01*
X111982306Y-111979972D01*
X111919673Y-111948655D01*
X111887618Y-111939877D01*
X111859982Y-111921411D01*
X111714568Y-111892487D01*
X111571573Y-111853327D01*
X111538597Y-111857484D01*
X111506000Y-111851000D01*
X106682369Y-111851000D01*
X106381774Y-111726182D01*
X105964058Y-111725818D01*
X105578000Y-111885334D01*
X105282372Y-112180446D01*
X105122182Y-112566226D01*
X105121818Y-112983942D01*
X105156694Y-113068348D01*
X105028372Y-113196446D01*
X104868182Y-113582226D01*
X104867818Y-113999942D01*
X100414206Y-113999942D01*
X100984074Y-113430074D01*
X101184589Y-113129983D01*
X101255000Y-112776000D01*
X101255000Y-111449041D01*
X101600351Y-111104292D01*
X102012402Y-111517064D01*
X102567925Y-111747737D01*
X103169436Y-111748262D01*
X103725360Y-111518559D01*
X104140351Y-111104292D01*
X104552402Y-111517064D01*
X105107925Y-111747737D01*
X105709436Y-111748262D01*
X106265360Y-111518559D01*
X106680351Y-111104292D01*
X107092402Y-111517064D01*
X107647925Y-111747737D01*
X108249436Y-111748262D01*
X108805360Y-111518559D01*
X109220351Y-111104292D01*
X109632402Y-111517064D01*
X110187925Y-111747737D01*
X110789436Y-111748262D01*
X111345360Y-111518559D01*
X111760351Y-111104292D01*
X112172402Y-111517064D01*
X112727925Y-111747737D01*
X113329436Y-111748262D01*
X113885360Y-111518559D01*
X114300351Y-111104292D01*
X114712402Y-111517064D01*
X115267925Y-111747737D01*
X115869436Y-111748262D01*
X116425360Y-111518559D01*
X116840351Y-111104292D01*
X117252402Y-111517064D01*
X117807925Y-111747737D01*
X118409436Y-111748262D01*
X118965360Y-111518559D01*
X119380351Y-111104292D01*
X119792402Y-111517064D01*
X120347925Y-111747737D01*
X120949436Y-111748262D01*
X121505360Y-111518559D01*
X121920351Y-111104292D01*
X122332402Y-111517064D01*
X122887925Y-111747737D01*
X123489436Y-111748262D01*
X124045360Y-111518559D01*
X124460351Y-111104292D01*
X124872402Y-111517064D01*
X125427925Y-111747737D01*
X126029436Y-111748262D01*
X126585360Y-111518559D01*
X127000351Y-111104292D01*
X127412402Y-111517064D01*
X127967925Y-111747737D01*
X128569436Y-111748262D01*
X129125360Y-111518559D01*
X129540351Y-111104292D01*
X129952402Y-111517064D01*
X130507925Y-111747737D01*
X131109436Y-111748262D01*
X131665360Y-111518559D01*
X132080351Y-111104292D01*
X132492402Y-111517064D01*
X133047925Y-111747737D01*
X133649436Y-111748262D01*
X134205360Y-111518559D01*
X134620351Y-111104292D01*
X135032402Y-111517064D01*
X135587925Y-111747737D01*
X136189436Y-111748262D01*
X136745360Y-111518559D01*
X137171064Y-111093598D01*
X137401737Y-110538075D01*
X137402262Y-109936564D01*
X137172559Y-109380640D01*
X136747598Y-108954936D01*
X136192075Y-108724263D01*
X135590564Y-108723738D01*
X135034640Y-108953441D01*
X134619649Y-109367708D01*
X134207598Y-108954936D01*
X133652075Y-108724263D01*
X133050564Y-108723738D01*
X132494640Y-108953441D01*
X132079649Y-109367708D01*
X131667598Y-108954936D01*
X131112075Y-108724263D01*
X130510564Y-108723738D01*
X129954640Y-108953441D01*
X129539649Y-109367708D01*
X129127598Y-108954936D01*
X128572075Y-108724263D01*
X127970564Y-108723738D01*
X127414640Y-108953441D01*
X126999649Y-109367708D01*
X126587598Y-108954936D01*
X126032075Y-108724263D01*
X125430564Y-108723738D01*
X124874640Y-108953441D01*
X124459649Y-109367708D01*
X124047598Y-108954936D01*
X123492075Y-108724263D01*
X122890564Y-108723738D01*
X122334640Y-108953441D01*
X121919649Y-109367708D01*
X121507598Y-108954936D01*
X120952075Y-108724263D01*
X120350564Y-108723738D01*
X119794640Y-108953441D01*
X119379649Y-109367708D01*
X118967598Y-108954936D01*
X118412075Y-108724263D01*
X117810564Y-108723738D01*
X117254640Y-108953441D01*
X116839649Y-109367708D01*
X116427598Y-108954936D01*
X115872075Y-108724263D01*
X115270564Y-108723738D01*
X114714640Y-108953441D01*
X114299649Y-109367708D01*
X113887598Y-108954936D01*
X113332075Y-108724263D01*
X112730564Y-108723738D01*
X112174640Y-108953441D01*
X111759649Y-109367708D01*
X111347598Y-108954936D01*
X110792075Y-108724263D01*
X110190564Y-108723738D01*
X109634640Y-108953441D01*
X109219649Y-109367708D01*
X108807598Y-108954936D01*
X108252075Y-108724263D01*
X107650564Y-108723738D01*
X107094640Y-108953441D01*
X106679649Y-109367708D01*
X106267598Y-108954936D01*
X105712075Y-108724263D01*
X105110564Y-108723738D01*
X104554640Y-108953441D01*
X104139649Y-109367708D01*
X103727598Y-108954936D01*
X103172075Y-108724263D01*
X102570564Y-108723738D01*
X102014640Y-108953441D01*
X101599649Y-109367708D01*
X101187598Y-108954936D01*
X100632075Y-108724263D01*
X100030564Y-108723738D01*
X99474640Y-108953441D01*
X99059649Y-109367708D01*
X98647598Y-108954936D01*
X98092075Y-108724263D01*
X97490564Y-108723738D01*
X96934640Y-108953441D01*
X96519649Y-109367708D01*
X96107598Y-108954936D01*
X95552075Y-108724263D01*
X94950564Y-108723738D01*
X94394640Y-108953441D01*
X93979649Y-109367708D01*
X93567598Y-108954936D01*
X93012075Y-108724263D01*
X92410564Y-108723738D01*
X91854640Y-108953441D01*
X91428936Y-109378402D01*
X91331315Y-109613500D01*
X90708815Y-110236000D01*
X89631185Y-110236000D01*
X89072449Y-109677264D01*
X89069265Y-109661255D01*
X89050367Y-109655182D01*
X88977230Y-109582045D01*
X88900000Y-109606862D01*
X88822770Y-109582045D01*
X88749633Y-109655182D01*
X88730735Y-109661255D01*
X88727811Y-109677004D01*
X88168815Y-110236000D01*
X87091185Y-110236000D01*
X86437230Y-109582045D01*
X86190735Y-109661255D01*
X86080347Y-110255788D01*
X50825000Y-110255788D01*
X50825000Y-109043230D01*
X86976045Y-109043230D01*
X87630000Y-109697185D01*
X88283955Y-109043230D01*
X89516045Y-109043230D01*
X90170000Y-109697185D01*
X90823955Y-109043230D01*
X90744745Y-108796735D01*
X90150212Y-108686347D01*
X89595255Y-108796735D01*
X89516045Y-109043230D01*
X88283955Y-109043230D01*
X88204745Y-108796735D01*
X87610212Y-108686347D01*
X87055255Y-108796735D01*
X86976045Y-109043230D01*
X50825000Y-109043230D01*
X50825000Y-102550946D01*
X57217518Y-102550946D01*
X57640160Y-103573818D01*
X58422066Y-104357090D01*
X59444198Y-104781516D01*
X60550946Y-104782482D01*
X61573818Y-104359840D01*
X62357090Y-103577934D01*
X62781516Y-102555802D01*
X62781520Y-102550946D01*
X134217518Y-102550946D01*
X134640160Y-103573818D01*
X135422066Y-104357090D01*
X136444198Y-104781516D01*
X137550946Y-104782482D01*
X138573818Y-104359840D01*
X139357090Y-103577934D01*
X139781516Y-102555802D01*
X139782482Y-101449054D01*
X139359840Y-100426182D01*
X138577934Y-99642910D01*
X137555802Y-99218484D01*
X136449054Y-99217518D01*
X135426182Y-99640160D01*
X134642910Y-100422066D01*
X134218484Y-101444198D01*
X134217518Y-102550946D01*
X62781520Y-102550946D01*
X62782482Y-101449054D01*
X62547792Y-100881059D01*
X66317740Y-100881059D01*
X66545620Y-101432572D01*
X66967209Y-101854897D01*
X67518323Y-102083739D01*
X68115059Y-102084260D01*
X68666572Y-101856380D01*
X69088897Y-101434791D01*
X69317739Y-100883677D01*
X69317741Y-100881059D01*
X71197740Y-100881059D01*
X71425620Y-101432572D01*
X71847209Y-101854897D01*
X72398323Y-102083739D01*
X72995059Y-102084260D01*
X73546572Y-101856380D01*
X73968897Y-101434791D01*
X74197739Y-100883677D01*
X74198260Y-100286941D01*
X73970380Y-99735428D01*
X73548791Y-99313103D01*
X72997677Y-99084261D01*
X72400941Y-99083740D01*
X71849428Y-99311620D01*
X71427103Y-99733209D01*
X71198261Y-100284323D01*
X71197740Y-100881059D01*
X69317741Y-100881059D01*
X69318260Y-100286941D01*
X69090380Y-99735428D01*
X68668791Y-99313103D01*
X68117677Y-99084261D01*
X67520941Y-99083740D01*
X66969428Y-99311620D01*
X66547103Y-99733209D01*
X66318261Y-100284323D01*
X66317740Y-100881059D01*
X62547792Y-100881059D01*
X62359840Y-100426182D01*
X61577934Y-99642910D01*
X60555802Y-99218484D01*
X59449054Y-99217518D01*
X58426182Y-99640160D01*
X57642910Y-100422066D01*
X57218484Y-101444198D01*
X57217518Y-102550946D01*
X50825000Y-102550946D01*
X50825000Y-98251942D01*
X75911818Y-98251942D01*
X76071334Y-98638000D01*
X76087000Y-98653693D01*
X76087000Y-98957844D01*
X76072372Y-98972446D01*
X75912182Y-99358226D01*
X75911818Y-99775942D01*
X76071334Y-100162000D01*
X76366446Y-100457628D01*
X76752226Y-100617818D01*
X77169942Y-100618182D01*
X77556000Y-100458666D01*
X77851628Y-100163554D01*
X78011818Y-99777774D01*
X78012182Y-99360058D01*
X77852666Y-98974000D01*
X77837000Y-98958307D01*
X77837000Y-98774654D01*
X98984000Y-98774654D01*
X98984000Y-98837346D01*
X99105793Y-99449639D01*
X99452629Y-99968717D01*
X99971707Y-100315553D01*
X100584000Y-100437346D01*
X101196293Y-100315553D01*
X101584739Y-100056002D01*
X101619233Y-100056002D01*
X101631399Y-100085373D01*
X101844628Y-100298602D01*
X102123225Y-100414000D01*
X102509500Y-100414000D01*
X102699000Y-100224500D01*
X102699000Y-99231000D01*
X103549000Y-99231000D01*
X103549000Y-100224500D01*
X103738500Y-100414000D01*
X104124775Y-100414000D01*
X104403372Y-100298602D01*
X104616601Y-100085373D01*
X104732000Y-99806776D01*
X104732000Y-99420500D01*
X104542500Y-99231000D01*
X103549000Y-99231000D01*
X102699000Y-99231000D01*
X102274000Y-99231000D01*
X102274000Y-98381000D01*
X102699000Y-98381000D01*
X102699000Y-97387500D01*
X103549000Y-97387500D01*
X103549000Y-98381000D01*
X104542500Y-98381000D01*
X104732000Y-98191500D01*
X104732000Y-97805224D01*
X104616601Y-97526627D01*
X104403372Y-97313398D01*
X104124775Y-97198000D01*
X103738500Y-97198000D01*
X103549000Y-97387500D01*
X102699000Y-97387500D01*
X102509500Y-97198000D01*
X102123225Y-97198000D01*
X101844628Y-97313398D01*
X101631399Y-97526627D01*
X101619233Y-97555998D01*
X101584739Y-97555998D01*
X101196293Y-97296447D01*
X100584000Y-97174654D01*
X99971707Y-97296447D01*
X99452629Y-97643283D01*
X99105793Y-98162361D01*
X98984000Y-98774654D01*
X77837000Y-98774654D01*
X77837000Y-98654156D01*
X77851628Y-98639554D01*
X78011818Y-98253774D01*
X78012182Y-97836058D01*
X77852666Y-97450000D01*
X77557554Y-97154372D01*
X77171774Y-96994182D01*
X76754058Y-96993818D01*
X76368000Y-97153334D01*
X76072372Y-97448446D01*
X75912182Y-97834226D01*
X75911818Y-98251942D01*
X50825000Y-98251942D01*
X50825000Y-90123942D01*
X106391818Y-90123942D01*
X106551334Y-90510000D01*
X106846446Y-90805628D01*
X107232226Y-90965818D01*
X107649942Y-90966182D01*
X108036000Y-90806666D01*
X108204034Y-90638925D01*
X108370446Y-90805628D01*
X108756226Y-90965818D01*
X109173942Y-90966182D01*
X109560000Y-90806666D01*
X109855628Y-90511554D01*
X110015818Y-90125774D01*
X110016018Y-89895342D01*
X120275458Y-89895342D01*
X120434974Y-90281400D01*
X120730086Y-90577028D01*
X121115866Y-90737218D01*
X121533582Y-90737582D01*
X121836545Y-90612400D01*
X125387271Y-90612400D01*
X125687866Y-90737218D01*
X126105582Y-90737582D01*
X126491640Y-90578066D01*
X126787268Y-90282954D01*
X126947458Y-89897174D01*
X126947822Y-89479458D01*
X126788306Y-89093400D01*
X126493194Y-88797772D01*
X126107414Y-88637582D01*
X125689698Y-88637218D01*
X125386735Y-88762400D01*
X121836009Y-88762400D01*
X121535414Y-88637582D01*
X121117698Y-88637218D01*
X120731640Y-88796734D01*
X120436012Y-89091846D01*
X120275822Y-89477626D01*
X120275458Y-89895342D01*
X110016018Y-89895342D01*
X110016182Y-89708058D01*
X109891000Y-89405095D01*
X109891000Y-87376000D01*
X109827428Y-87056400D01*
X110224618Y-87056400D01*
X110316086Y-87148028D01*
X110701866Y-87308218D01*
X111119582Y-87308582D01*
X111505640Y-87149066D01*
X111801268Y-86853954D01*
X111961458Y-86468174D01*
X111961822Y-86050458D01*
X111802306Y-85664400D01*
X111588622Y-85450342D01*
X118624458Y-85450342D01*
X118783974Y-85836400D01*
X119079086Y-86132028D01*
X119381832Y-86257739D01*
X119655564Y-86531471D01*
X119655566Y-86531474D01*
X119817089Y-86639400D01*
X119955658Y-86731989D01*
X120309640Y-86802401D01*
X120309645Y-86802400D01*
X128796314Y-86802400D01*
X128816974Y-86852400D01*
X129112086Y-87148028D01*
X129497866Y-87308218D01*
X129915582Y-87308582D01*
X130301640Y-87149066D01*
X130597268Y-86853954D01*
X130600013Y-86847342D01*
X134220058Y-86847342D01*
X134379574Y-87233400D01*
X134674686Y-87529028D01*
X135060466Y-87689218D01*
X135478182Y-87689582D01*
X135818029Y-87549160D01*
X136847751Y-87549160D01*
X137148346Y-87673978D01*
X137566062Y-87674342D01*
X137952120Y-87514826D01*
X138247748Y-87219714D01*
X138407938Y-86833934D01*
X138408302Y-86416218D01*
X138248786Y-86030160D01*
X137953674Y-85734532D01*
X137567894Y-85574342D01*
X137150178Y-85573978D01*
X136847215Y-85699160D01*
X135743907Y-85699160D01*
X135480014Y-85589582D01*
X135062298Y-85589218D01*
X134676240Y-85748734D01*
X134380612Y-86043846D01*
X134220422Y-86429626D01*
X134220058Y-86847342D01*
X130600013Y-86847342D01*
X130757458Y-86468174D01*
X130757822Y-86050458D01*
X130598306Y-85664400D01*
X130303194Y-85368772D01*
X130000449Y-85243061D01*
X129980714Y-85223326D01*
X129680623Y-85022811D01*
X129326640Y-84952400D01*
X120692787Y-84952400D01*
X120689599Y-84949211D01*
X120565306Y-84648400D01*
X120270194Y-84352772D01*
X119884414Y-84192582D01*
X119466698Y-84192218D01*
X119080640Y-84351734D01*
X118785012Y-84646846D01*
X118624822Y-85032626D01*
X118624458Y-85450342D01*
X111588622Y-85450342D01*
X111507194Y-85368772D01*
X111121414Y-85208582D01*
X110794176Y-85208297D01*
X110784640Y-85206400D01*
X109643787Y-85206400D01*
X109550640Y-85113252D01*
X109550640Y-82958769D01*
X109675458Y-82658174D01*
X109675822Y-82240458D01*
X109516306Y-81854400D01*
X109221194Y-81558772D01*
X108835414Y-81398582D01*
X108417698Y-81398218D01*
X108367000Y-81419166D01*
X108367000Y-80901148D01*
X108497190Y-80770958D01*
X108798000Y-80646666D01*
X109093628Y-80351554D01*
X109161765Y-80187462D01*
X131883258Y-80187462D01*
X132042774Y-80573520D01*
X132337886Y-80869148D01*
X132723666Y-81029338D01*
X133141382Y-81029702D01*
X133527440Y-80870186D01*
X133798379Y-80599720D01*
X134170591Y-80599720D01*
X134471186Y-80724538D01*
X134888902Y-80724902D01*
X135274960Y-80565386D01*
X135570588Y-80270274D01*
X135730778Y-79884494D01*
X135731142Y-79466778D01*
X135571626Y-79080720D01*
X135276514Y-78785092D01*
X134890734Y-78624902D01*
X134473018Y-78624538D01*
X134170055Y-78749720D01*
X133238240Y-78749720D01*
X132884257Y-78820131D01*
X132713234Y-78934406D01*
X132339440Y-79088854D01*
X132043812Y-79383966D01*
X131883622Y-79769746D01*
X131883258Y-80187462D01*
X109161765Y-80187462D01*
X109253818Y-79965774D01*
X109254182Y-79548058D01*
X109094666Y-79162000D01*
X108799554Y-78866372D01*
X108413774Y-78706182D01*
X107996058Y-78705818D01*
X107610000Y-78865334D01*
X107314372Y-79160446D01*
X107188661Y-79463191D01*
X106787926Y-79863926D01*
X106587411Y-80164017D01*
X106550417Y-80350000D01*
X106517000Y-80518000D01*
X106517000Y-89405631D01*
X106392182Y-89706226D01*
X106391818Y-90123942D01*
X50825000Y-90123942D01*
X50825000Y-82107702D01*
X91868098Y-82107702D01*
X92027614Y-82493760D01*
X92322726Y-82789388D01*
X92708506Y-82949578D01*
X93126222Y-82949942D01*
X93207884Y-82916200D01*
X96763400Y-82916200D01*
X96763400Y-83836041D01*
X96714782Y-83953126D01*
X96714418Y-84370842D01*
X96873934Y-84756900D01*
X97169046Y-85052528D01*
X97554826Y-85212718D01*
X97972542Y-85213082D01*
X98358600Y-85053566D01*
X98654228Y-84758454D01*
X98814418Y-84372674D01*
X98814782Y-83954958D01*
X98655266Y-83568900D01*
X98613400Y-83526961D01*
X98613400Y-82916200D01*
X99311631Y-82916200D01*
X99612226Y-83041018D01*
X100029942Y-83041382D01*
X100416000Y-82881866D01*
X100711628Y-82586754D01*
X100871818Y-82200974D01*
X100872182Y-81783258D01*
X100712666Y-81397200D01*
X100417554Y-81101572D01*
X100031774Y-80941382D01*
X99614058Y-80941018D01*
X99311095Y-81066200D01*
X93569804Y-81066200D01*
X93513834Y-81010132D01*
X93128054Y-80849942D01*
X92710338Y-80849578D01*
X92324280Y-81009094D01*
X92028652Y-81304206D01*
X91868462Y-81689986D01*
X91868098Y-82107702D01*
X50825000Y-82107702D01*
X50825000Y-77322342D01*
X138182458Y-77322342D01*
X138341974Y-77708400D01*
X138637086Y-78004028D01*
X139022866Y-78164218D01*
X139440582Y-78164582D01*
X139743545Y-78039400D01*
X140500271Y-78039400D01*
X140800866Y-78164218D01*
X141218582Y-78164582D01*
X141604640Y-78005066D01*
X141900268Y-77709954D01*
X142060458Y-77324174D01*
X142060822Y-76906458D01*
X141901306Y-76520400D01*
X141606194Y-76224772D01*
X141220414Y-76064582D01*
X140802698Y-76064218D01*
X140499735Y-76189400D01*
X139743009Y-76189400D01*
X139442414Y-76064582D01*
X139024698Y-76064218D01*
X138638640Y-76223734D01*
X138343012Y-76518846D01*
X138182822Y-76904626D01*
X138182458Y-77322342D01*
X50825000Y-77322342D01*
X50825000Y-75840961D01*
X59331699Y-75840961D01*
X59525361Y-76115784D01*
X60419149Y-76205592D01*
X60870639Y-76115784D01*
X61064301Y-75840961D01*
X60198000Y-74974660D01*
X59331699Y-75840961D01*
X50825000Y-75840961D01*
X50825000Y-74135149D01*
X57906408Y-74135149D01*
X57996216Y-74586639D01*
X58271039Y-74780301D01*
X59137340Y-73914000D01*
X61258660Y-73914000D01*
X62124961Y-74780301D01*
X62399784Y-74586639D01*
X62422598Y-74359589D01*
X66075610Y-74359589D01*
X66417431Y-75186858D01*
X67049813Y-75820345D01*
X67876484Y-76163608D01*
X68771589Y-76164390D01*
X69598858Y-75822569D01*
X70232345Y-75190187D01*
X70575608Y-74363516D01*
X70575683Y-74276882D01*
X89112198Y-74276882D01*
X89271714Y-74662940D01*
X89566826Y-74958568D01*
X89869571Y-75084279D01*
X90430326Y-75645034D01*
X90730417Y-75845549D01*
X91084400Y-75915960D01*
X98999432Y-75915960D01*
X99226726Y-76143254D01*
X99226478Y-76428262D01*
X99385994Y-76814320D01*
X99681106Y-77109948D01*
X100066886Y-77270138D01*
X100484602Y-77270502D01*
X100870660Y-77110986D01*
X101166288Y-76815874D01*
X101326478Y-76430094D01*
X101326842Y-76012378D01*
X101167326Y-75626320D01*
X101145935Y-75604892D01*
X101131249Y-75531058D01*
X101131249Y-75531057D01*
X100930734Y-75230966D01*
X100036654Y-74336886D01*
X99736563Y-74136371D01*
X99490157Y-74087358D01*
X99538318Y-73971374D01*
X99538682Y-73553658D01*
X99379166Y-73167600D01*
X99084054Y-72871972D01*
X98698274Y-72711782D01*
X98280558Y-72711418D01*
X97977595Y-72836600D01*
X97170069Y-72836600D01*
X96869474Y-72711782D01*
X96451758Y-72711418D01*
X96065700Y-72870934D01*
X95770072Y-73166046D01*
X95609882Y-73551826D01*
X95609518Y-73969542D01*
X95649357Y-74065960D01*
X91467548Y-74065960D01*
X91177338Y-73775750D01*
X91053046Y-73474940D01*
X90757934Y-73179312D01*
X90372154Y-73019122D01*
X89954438Y-73018758D01*
X89568380Y-73178274D01*
X89272752Y-73473386D01*
X89112562Y-73859166D01*
X89112198Y-74276882D01*
X70575683Y-74276882D01*
X70576390Y-73468411D01*
X70234569Y-72641142D01*
X69602187Y-72007655D01*
X68775516Y-71664392D01*
X67880411Y-71663610D01*
X67053142Y-72005431D01*
X66419655Y-72637813D01*
X66076392Y-73464484D01*
X66075610Y-74359589D01*
X62422598Y-74359589D01*
X62489592Y-73692851D01*
X62399784Y-73241361D01*
X62124961Y-73047699D01*
X61258660Y-73914000D01*
X59137340Y-73914000D01*
X58271039Y-73047699D01*
X57996216Y-73241361D01*
X57906408Y-74135149D01*
X50825000Y-74135149D01*
X50825000Y-71987039D01*
X59331699Y-71987039D01*
X60198000Y-72853340D01*
X61064301Y-71987039D01*
X60870639Y-71712216D01*
X59976851Y-71622408D01*
X59525361Y-71712216D01*
X59331699Y-71987039D01*
X50825000Y-71987039D01*
X50825000Y-70506961D01*
X53997699Y-70506961D01*
X54191361Y-70781784D01*
X55085149Y-70871592D01*
X55536639Y-70781784D01*
X55730301Y-70506961D01*
X54864000Y-69640660D01*
X53997699Y-70506961D01*
X50825000Y-70506961D01*
X50825000Y-68801149D01*
X52572408Y-68801149D01*
X52662216Y-69252639D01*
X52937039Y-69446301D01*
X53803340Y-68580000D01*
X55924660Y-68580000D01*
X56790961Y-69446301D01*
X57065784Y-69252639D01*
X57085476Y-69056654D01*
X71298000Y-69056654D01*
X71298000Y-69119346D01*
X71419793Y-69731639D01*
X71766629Y-70250717D01*
X72285707Y-70597553D01*
X72898000Y-70719346D01*
X73510293Y-70597553D01*
X74029371Y-70250717D01*
X74168000Y-70043244D01*
X74306629Y-70250717D01*
X74825707Y-70597553D01*
X75438000Y-70719346D01*
X76050293Y-70597553D01*
X76477491Y-70312109D01*
X76579862Y-70471198D01*
X76830492Y-70642446D01*
X77128000Y-70702693D01*
X78828000Y-70702693D01*
X79105933Y-70650396D01*
X79361198Y-70486138D01*
X79532446Y-70235508D01*
X79537542Y-70210342D01*
X95383458Y-70210342D01*
X95542974Y-70596400D01*
X95838086Y-70892028D01*
X96223866Y-71052218D01*
X96641582Y-71052582D01*
X97027640Y-70893066D01*
X97323268Y-70597954D01*
X97448979Y-70295209D01*
X98976565Y-68767622D01*
X123592698Y-68767622D01*
X123752214Y-69153680D01*
X124047326Y-69449308D01*
X124433106Y-69609498D01*
X124850822Y-69609862D01*
X125153785Y-69484680D01*
X125839391Y-69484680D01*
X126139986Y-69609498D01*
X126557702Y-69609862D01*
X126943760Y-69450346D01*
X127239388Y-69155234D01*
X127399578Y-68769454D01*
X127399942Y-68351738D01*
X127240426Y-67965680D01*
X126945314Y-67670052D01*
X126559534Y-67509862D01*
X126141818Y-67509498D01*
X125838855Y-67634680D01*
X125153249Y-67634680D01*
X124852654Y-67509862D01*
X124434938Y-67509498D01*
X124048880Y-67669014D01*
X123753252Y-67964126D01*
X123593062Y-68349906D01*
X123592698Y-68767622D01*
X98976565Y-68767622D01*
X99627711Y-68116476D01*
X99627714Y-68116474D01*
X99828229Y-67816382D01*
X99898640Y-67462400D01*
X99898640Y-62176796D01*
X99999440Y-62135146D01*
X100295068Y-61840034D01*
X100455258Y-61454254D01*
X100455622Y-61036538D01*
X100296106Y-60650480D01*
X100000994Y-60354852D01*
X99615214Y-60194662D01*
X99197498Y-60194298D01*
X98811440Y-60353814D01*
X98515812Y-60648926D01*
X98390101Y-60951671D01*
X98319566Y-61022206D01*
X98119051Y-61322297D01*
X98119051Y-61322298D01*
X98048640Y-61676280D01*
X98048640Y-67079253D01*
X96140451Y-68987442D01*
X95839640Y-69111734D01*
X95544012Y-69406846D01*
X95383822Y-69792626D01*
X95383458Y-70210342D01*
X79537542Y-70210342D01*
X79592693Y-69938000D01*
X79592693Y-68238000D01*
X79540396Y-67960067D01*
X79376138Y-67704802D01*
X79125508Y-67533554D01*
X78828000Y-67473307D01*
X77128000Y-67473307D01*
X76850067Y-67525604D01*
X76594802Y-67689862D01*
X76476394Y-67863158D01*
X76050293Y-67578447D01*
X75438000Y-67456654D01*
X74825707Y-67578447D01*
X74306629Y-67925283D01*
X74168000Y-68132756D01*
X74029371Y-67925283D01*
X73510293Y-67578447D01*
X72898000Y-67456654D01*
X72285707Y-67578447D01*
X71766629Y-67925283D01*
X71419793Y-68444361D01*
X71298000Y-69056654D01*
X57085476Y-69056654D01*
X57155592Y-68358851D01*
X57065784Y-67907361D01*
X56790961Y-67713699D01*
X55924660Y-68580000D01*
X53803340Y-68580000D01*
X52937039Y-67713699D01*
X52662216Y-67907361D01*
X52572408Y-68801149D01*
X50825000Y-68801149D01*
X50825000Y-66653039D01*
X53997699Y-66653039D01*
X54864000Y-67519340D01*
X55730301Y-66653039D01*
X55536639Y-66378216D01*
X54642851Y-66288408D01*
X54191361Y-66378216D01*
X53997699Y-66653039D01*
X50825000Y-66653039D01*
X50825000Y-65977589D01*
X57947610Y-65977589D01*
X58289431Y-66804858D01*
X58921813Y-67438345D01*
X59748484Y-67781608D01*
X60643589Y-67782390D01*
X61470858Y-67440569D01*
X62104345Y-66808187D01*
X62447608Y-65981516D01*
X62447611Y-65977589D01*
X65821610Y-65977589D01*
X66163431Y-66804858D01*
X66795813Y-67438345D01*
X67622484Y-67781608D01*
X68517589Y-67782390D01*
X69344858Y-67440569D01*
X69978345Y-66808187D01*
X70321608Y-65981516D01*
X70322390Y-65086411D01*
X69980569Y-64259142D01*
X69348187Y-63625655D01*
X68521516Y-63282392D01*
X67626411Y-63281610D01*
X66799142Y-63623431D01*
X66165655Y-64255813D01*
X65822392Y-65082484D01*
X65821610Y-65977589D01*
X62447611Y-65977589D01*
X62448390Y-65086411D01*
X62106569Y-64259142D01*
X61474187Y-63625655D01*
X60647516Y-63282392D01*
X59752411Y-63281610D01*
X58925142Y-63623431D01*
X58291655Y-64255813D01*
X57948392Y-65082484D01*
X57947610Y-65977589D01*
X50825000Y-65977589D01*
X50825000Y-58550946D01*
X57217518Y-58550946D01*
X57640160Y-59573818D01*
X58422066Y-60357090D01*
X59444198Y-60781516D01*
X60550946Y-60782482D01*
X61573818Y-60359840D01*
X62357090Y-59577934D01*
X62781516Y-58555802D01*
X62781520Y-58550946D01*
X134217518Y-58550946D01*
X134640160Y-59573818D01*
X135422066Y-60357090D01*
X136444198Y-60781516D01*
X137550946Y-60782482D01*
X138573818Y-60359840D01*
X139357090Y-59577934D01*
X139781516Y-58555802D01*
X139782482Y-57449054D01*
X139359840Y-56426182D01*
X138577934Y-55642910D01*
X137555802Y-55218484D01*
X136449054Y-55217518D01*
X135426182Y-55640160D01*
X134642910Y-56422066D01*
X134218484Y-57444198D01*
X134217518Y-58550946D01*
X62781520Y-58550946D01*
X62782482Y-57449054D01*
X62359840Y-56426182D01*
X61577934Y-55642910D01*
X60722012Y-55287500D01*
X63076000Y-55287500D01*
X63076000Y-56538775D01*
X63191398Y-56817372D01*
X63404627Y-57030601D01*
X63683224Y-57146000D01*
X64269500Y-57146000D01*
X64459000Y-56956500D01*
X64459000Y-55098000D01*
X65709000Y-55098000D01*
X65709000Y-56956500D01*
X65898500Y-57146000D01*
X66484776Y-57146000D01*
X66763373Y-57030601D01*
X66976602Y-56817372D01*
X67092000Y-56538775D01*
X67092000Y-55287500D01*
X70576000Y-55287500D01*
X70576000Y-56538775D01*
X70691398Y-56817372D01*
X70904627Y-57030601D01*
X71183224Y-57146000D01*
X71769500Y-57146000D01*
X71959000Y-56956500D01*
X71959000Y-55098000D01*
X73209000Y-55098000D01*
X73209000Y-56956500D01*
X73398500Y-57146000D01*
X73984776Y-57146000D01*
X74263373Y-57030601D01*
X74476602Y-56817372D01*
X74592000Y-56538775D01*
X74592000Y-55880000D01*
X75330654Y-55880000D01*
X75452447Y-56492293D01*
X75799283Y-57011371D01*
X76318361Y-57358207D01*
X76930654Y-57480000D01*
X76993346Y-57480000D01*
X77605639Y-57358207D01*
X78124717Y-57011371D01*
X78471553Y-56492293D01*
X78593346Y-55880000D01*
X78475491Y-55287500D01*
X122258000Y-55287500D01*
X122258000Y-56538775D01*
X122373398Y-56817372D01*
X122586627Y-57030601D01*
X122865224Y-57146000D01*
X123451500Y-57146000D01*
X123641000Y-56956500D01*
X123641000Y-55098000D01*
X124891000Y-55098000D01*
X124891000Y-56956500D01*
X125080500Y-57146000D01*
X125666776Y-57146000D01*
X125945373Y-57030601D01*
X126158602Y-56817372D01*
X126274000Y-56538775D01*
X126274000Y-55287500D01*
X129758000Y-55287500D01*
X129758000Y-56538775D01*
X129873398Y-56817372D01*
X130086627Y-57030601D01*
X130365224Y-57146000D01*
X130951500Y-57146000D01*
X131141000Y-56956500D01*
X131141000Y-55098000D01*
X132391000Y-55098000D01*
X132391000Y-56956500D01*
X132580500Y-57146000D01*
X133166776Y-57146000D01*
X133445373Y-57030601D01*
X133658602Y-56817372D01*
X133774000Y-56538775D01*
X133774000Y-55287500D01*
X133584500Y-55098000D01*
X132391000Y-55098000D01*
X131141000Y-55098000D01*
X129947500Y-55098000D01*
X129758000Y-55287500D01*
X126274000Y-55287500D01*
X126084500Y-55098000D01*
X124891000Y-55098000D01*
X123641000Y-55098000D01*
X122447500Y-55098000D01*
X122258000Y-55287500D01*
X78475491Y-55287500D01*
X78471553Y-55267707D01*
X78212002Y-54879261D01*
X78212002Y-54844767D01*
X78241373Y-54832601D01*
X78454602Y-54619372D01*
X78570000Y-54340775D01*
X78570000Y-53954500D01*
X78380500Y-53765000D01*
X77387000Y-53765000D01*
X77387000Y-54190000D01*
X76537000Y-54190000D01*
X76537000Y-53765000D01*
X75543500Y-53765000D01*
X75354000Y-53954500D01*
X75354000Y-54340775D01*
X75469398Y-54619372D01*
X75682627Y-54832601D01*
X75711998Y-54844767D01*
X75711998Y-54879261D01*
X75452447Y-55267707D01*
X75330654Y-55880000D01*
X74592000Y-55880000D01*
X74592000Y-55287500D01*
X74402500Y-55098000D01*
X73209000Y-55098000D01*
X71959000Y-55098000D01*
X70765500Y-55098000D01*
X70576000Y-55287500D01*
X67092000Y-55287500D01*
X66902500Y-55098000D01*
X65709000Y-55098000D01*
X64459000Y-55098000D01*
X63265500Y-55098000D01*
X63076000Y-55287500D01*
X60722012Y-55287500D01*
X60555802Y-55218484D01*
X59449054Y-55217518D01*
X58426182Y-55640160D01*
X57642910Y-56422066D01*
X57218484Y-57444198D01*
X57217518Y-58550946D01*
X50825000Y-58550946D01*
X50825000Y-55515848D01*
X51538461Y-56229309D01*
X51853001Y-55914769D01*
X52202263Y-56224618D01*
X53496996Y-56284439D01*
X53797737Y-56224618D01*
X54147001Y-55914768D01*
X53000000Y-54767767D01*
X52985858Y-54781910D01*
X51218091Y-53014143D01*
X51232233Y-53000000D01*
X51218091Y-52985858D01*
X52985858Y-51218091D01*
X53000000Y-51232233D01*
X53014143Y-51218091D01*
X54781910Y-52985858D01*
X54767767Y-53000000D01*
X55914768Y-54147001D01*
X56224618Y-53797737D01*
X56284439Y-52503004D01*
X56224618Y-52202263D01*
X55914769Y-51853001D01*
X56229309Y-51538461D01*
X55515848Y-50825000D01*
X63245026Y-50825000D01*
X63191398Y-50878628D01*
G36*
X138029283Y-137021371D02*
X138236756Y-137160000D01*
X138029283Y-137298629D01*
X137682447Y-137817707D01*
X137560654Y-138430000D01*
X137682447Y-139042293D01*
X138029283Y-139561371D01*
X138548361Y-139908207D01*
X139160654Y-140030000D01*
X139223346Y-140030000D01*
X139835639Y-139908207D01*
X140354717Y-139561371D01*
X140442496Y-139430000D01*
X146558000Y-139430000D01*
X146940684Y-139353880D01*
X147265107Y-139137107D01*
X149175000Y-137227214D01*
X149175000Y-144484152D01*
X148461539Y-143770691D01*
X148146999Y-144085231D01*
X147797737Y-143775382D01*
X146503004Y-143715561D01*
X146202263Y-143775382D01*
X145852999Y-144085232D01*
X147000000Y-145232233D01*
X147014143Y-145218091D01*
X148781910Y-146985858D01*
X148767767Y-147000000D01*
X148781910Y-147014143D01*
X147014143Y-148781910D01*
X147000000Y-148767767D01*
X146985858Y-148781910D01*
X145218091Y-147014143D01*
X145232233Y-147000000D01*
X144085232Y-145852999D01*
X143775382Y-146202263D01*
X143715561Y-147496996D01*
X143775382Y-147797737D01*
X144085231Y-148146999D01*
X143770691Y-148461539D01*
X144484152Y-149175000D01*
X117669214Y-149175000D01*
X118563107Y-148281107D01*
X118779880Y-147956684D01*
X118856000Y-147574000D01*
X118856000Y-146550946D01*
X134217518Y-146550946D01*
X134640160Y-147573818D01*
X135422066Y-148357090D01*
X136444198Y-148781516D01*
X137550946Y-148782482D01*
X138573818Y-148359840D01*
X139357090Y-147577934D01*
X139781516Y-146555802D01*
X139782482Y-145449054D01*
X139359840Y-144426182D01*
X138577934Y-143642910D01*
X137555802Y-143218484D01*
X136449054Y-143217518D01*
X135426182Y-143640160D01*
X134642910Y-144422066D01*
X134218484Y-145444198D01*
X134217518Y-146550946D01*
X118856000Y-146550946D01*
X118856000Y-145871749D01*
X118905818Y-145751774D01*
X118905975Y-145571561D01*
X118916226Y-145575818D01*
X119333942Y-145576182D01*
X119720000Y-145416666D01*
X120015628Y-145121554D01*
X120141339Y-144818809D01*
X120734206Y-144225942D01*
X128489818Y-144225942D01*
X128649334Y-144612000D01*
X128944446Y-144907628D01*
X129330226Y-145067818D01*
X129747942Y-145068182D01*
X130050905Y-144943000D01*
X130556000Y-144943000D01*
X130701415Y-144914075D01*
X130848511Y-144895532D01*
X131610511Y-144641532D01*
X131667929Y-144608801D01*
X131731673Y-144591345D01*
X131823299Y-144520234D01*
X131924062Y-144462795D01*
X131964584Y-144410583D01*
X132016795Y-144370062D01*
X132074232Y-144269303D01*
X132145346Y-144177673D01*
X132162803Y-144113926D01*
X132195532Y-144056511D01*
X132800110Y-142242776D01*
X132969628Y-142073554D01*
X133129818Y-141687774D01*
X133130182Y-141270058D01*
X132970666Y-140884000D01*
X132675554Y-140588372D01*
X132289774Y-140428182D01*
X131872058Y-140427818D01*
X131486000Y-140587334D01*
X131190372Y-140882446D01*
X131030182Y-141268226D01*
X131029818Y-141685942D01*
X131033046Y-141693755D01*
X130586723Y-143032723D01*
X130405893Y-143093000D01*
X130050369Y-143093000D01*
X129749774Y-142968182D01*
X129332058Y-142967818D01*
X128946000Y-143127334D01*
X128650372Y-143422446D01*
X128490182Y-143808226D01*
X128489818Y-144225942D01*
X120734206Y-144225942D01*
X120796074Y-144164074D01*
X120996589Y-143863983D01*
X121067000Y-143510000D01*
X121067000Y-139521435D01*
X121158000Y-139385244D01*
X121296629Y-139592717D01*
X121815707Y-139939553D01*
X122428000Y-140061346D01*
X123040293Y-139939553D01*
X123559371Y-139592717D01*
X123698000Y-139385244D01*
X123836629Y-139592717D01*
X124355707Y-139939553D01*
X124968000Y-140061346D01*
X125580293Y-139939553D01*
X125968739Y-139680002D01*
X126523466Y-139680002D01*
X126845631Y-139895241D01*
X127083000Y-139783336D01*
X127083000Y-138855000D01*
X126658000Y-138855000D01*
X126658000Y-138005000D01*
X127083000Y-138005000D01*
X127083000Y-137580000D01*
X127933000Y-137580000D01*
X127933000Y-138005000D01*
X128358000Y-138005000D01*
X128358000Y-138855000D01*
X127933000Y-138855000D01*
X127933000Y-139783336D01*
X128170369Y-139895241D01*
X128492534Y-139680002D01*
X129047261Y-139680002D01*
X129123000Y-139730609D01*
X129123000Y-140840852D01*
X129015964Y-140947888D01*
X128987774Y-140936182D01*
X128570058Y-140935818D01*
X128184000Y-141095334D01*
X127888372Y-141390446D01*
X127728182Y-141776226D01*
X127727818Y-142193942D01*
X127887334Y-142580000D01*
X128182446Y-142875628D01*
X128568226Y-143035818D01*
X128985942Y-143036182D01*
X129291602Y-142909886D01*
X129639983Y-142840589D01*
X129940074Y-142640074D01*
X130702074Y-141878074D01*
X130902589Y-141577982D01*
X130973001Y-141224000D01*
X130973000Y-141223995D01*
X130973000Y-139730609D01*
X131179371Y-139592717D01*
X131318000Y-139385244D01*
X131456629Y-139592717D01*
X131975707Y-139939553D01*
X132588000Y-140061346D01*
X133200293Y-139939553D01*
X133719371Y-139592717D01*
X134066207Y-139073639D01*
X134188000Y-138461346D01*
X134188000Y-138398654D01*
X134066207Y-137786361D01*
X133804835Y-137395189D01*
X133971198Y-137288138D01*
X134142446Y-137037508D01*
X134172317Y-136890000D01*
X137941504Y-136890000D01*
X138029283Y-137021371D01*
X138029283Y-137021371D01*
G37*
X138029283Y-137021371D02*
X138236756Y-137160000D01*
X138029283Y-137298629D01*
X137682447Y-137817707D01*
X137560654Y-138430000D01*
X137682447Y-139042293D01*
X138029283Y-139561371D01*
X138548361Y-139908207D01*
X139160654Y-140030000D01*
X139223346Y-140030000D01*
X139835639Y-139908207D01*
X140354717Y-139561371D01*
X140442496Y-139430000D01*
X146558000Y-139430000D01*
X146940684Y-139353880D01*
X147265107Y-139137107D01*
X149175000Y-137227214D01*
X149175000Y-144484152D01*
X148461539Y-143770691D01*
X148146999Y-144085231D01*
X147797737Y-143775382D01*
X146503004Y-143715561D01*
X146202263Y-143775382D01*
X145852999Y-144085232D01*
X147000000Y-145232233D01*
X147014143Y-145218091D01*
X148781910Y-146985858D01*
X148767767Y-147000000D01*
X148781910Y-147014143D01*
X147014143Y-148781910D01*
X147000000Y-148767767D01*
X146985858Y-148781910D01*
X145218091Y-147014143D01*
X145232233Y-147000000D01*
X144085232Y-145852999D01*
X143775382Y-146202263D01*
X143715561Y-147496996D01*
X143775382Y-147797737D01*
X144085231Y-148146999D01*
X143770691Y-148461539D01*
X144484152Y-149175000D01*
X117669214Y-149175000D01*
X118563107Y-148281107D01*
X118779880Y-147956684D01*
X118856000Y-147574000D01*
X118856000Y-146550946D01*
X134217518Y-146550946D01*
X134640160Y-147573818D01*
X135422066Y-148357090D01*
X136444198Y-148781516D01*
X137550946Y-148782482D01*
X138573818Y-148359840D01*
X139357090Y-147577934D01*
X139781516Y-146555802D01*
X139782482Y-145449054D01*
X139359840Y-144426182D01*
X138577934Y-143642910D01*
X137555802Y-143218484D01*
X136449054Y-143217518D01*
X135426182Y-143640160D01*
X134642910Y-144422066D01*
X134218484Y-145444198D01*
X134217518Y-146550946D01*
X118856000Y-146550946D01*
X118856000Y-145871749D01*
X118905818Y-145751774D01*
X118905975Y-145571561D01*
X118916226Y-145575818D01*
X119333942Y-145576182D01*
X119720000Y-145416666D01*
X120015628Y-145121554D01*
X120141339Y-144818809D01*
X120734206Y-144225942D01*
X128489818Y-144225942D01*
X128649334Y-144612000D01*
X128944446Y-144907628D01*
X129330226Y-145067818D01*
X129747942Y-145068182D01*
X130050905Y-144943000D01*
X130556000Y-144943000D01*
X130701415Y-144914075D01*
X130848511Y-144895532D01*
X131610511Y-144641532D01*
X131667929Y-144608801D01*
X131731673Y-144591345D01*
X131823299Y-144520234D01*
X131924062Y-144462795D01*
X131964584Y-144410583D01*
X132016795Y-144370062D01*
X132074232Y-144269303D01*
X132145346Y-144177673D01*
X132162803Y-144113926D01*
X132195532Y-144056511D01*
X132800110Y-142242776D01*
X132969628Y-142073554D01*
X133129818Y-141687774D01*
X133130182Y-141270058D01*
X132970666Y-140884000D01*
X132675554Y-140588372D01*
X132289774Y-140428182D01*
X131872058Y-140427818D01*
X131486000Y-140587334D01*
X131190372Y-140882446D01*
X131030182Y-141268226D01*
X131029818Y-141685942D01*
X131033046Y-141693755D01*
X130586723Y-143032723D01*
X130405893Y-143093000D01*
X130050369Y-143093000D01*
X129749774Y-142968182D01*
X129332058Y-142967818D01*
X128946000Y-143127334D01*
X128650372Y-143422446D01*
X128490182Y-143808226D01*
X128489818Y-144225942D01*
X120734206Y-144225942D01*
X120796074Y-144164074D01*
X120996589Y-143863983D01*
X121067000Y-143510000D01*
X121067000Y-139521435D01*
X121158000Y-139385244D01*
X121296629Y-139592717D01*
X121815707Y-139939553D01*
X122428000Y-140061346D01*
X123040293Y-139939553D01*
X123559371Y-139592717D01*
X123698000Y-139385244D01*
X123836629Y-139592717D01*
X124355707Y-139939553D01*
X124968000Y-140061346D01*
X125580293Y-139939553D01*
X125968739Y-139680002D01*
X126523466Y-139680002D01*
X126845631Y-139895241D01*
X127083000Y-139783336D01*
X127083000Y-138855000D01*
X126658000Y-138855000D01*
X126658000Y-138005000D01*
X127083000Y-138005000D01*
X127083000Y-137580000D01*
X127933000Y-137580000D01*
X127933000Y-138005000D01*
X128358000Y-138005000D01*
X128358000Y-138855000D01*
X127933000Y-138855000D01*
X127933000Y-139783336D01*
X128170369Y-139895241D01*
X128492534Y-139680002D01*
X129047261Y-139680002D01*
X129123000Y-139730609D01*
X129123000Y-140840852D01*
X129015964Y-140947888D01*
X128987774Y-140936182D01*
X128570058Y-140935818D01*
X128184000Y-141095334D01*
X127888372Y-141390446D01*
X127728182Y-141776226D01*
X127727818Y-142193942D01*
X127887334Y-142580000D01*
X128182446Y-142875628D01*
X128568226Y-143035818D01*
X128985942Y-143036182D01*
X129291602Y-142909886D01*
X129639983Y-142840589D01*
X129940074Y-142640074D01*
X130702074Y-141878074D01*
X130902589Y-141577982D01*
X130973001Y-141224000D01*
X130973000Y-141223995D01*
X130973000Y-139730609D01*
X131179371Y-139592717D01*
X131318000Y-139385244D01*
X131456629Y-139592717D01*
X131975707Y-139939553D01*
X132588000Y-140061346D01*
X133200293Y-139939553D01*
X133719371Y-139592717D01*
X134066207Y-139073639D01*
X134188000Y-138461346D01*
X134188000Y-138398654D01*
X134066207Y-137786361D01*
X133804835Y-137395189D01*
X133971198Y-137288138D01*
X134142446Y-137037508D01*
X134172317Y-136890000D01*
X137941504Y-136890000D01*
X138029283Y-137021371D01*
M02*
