G04 #@! TF.FileFunction,Soldermask,Bot*
%FSLAX46Y46*%
G04 Gerber Fmt 4.6, Leading zero omitted, Abs format (unit mm)*
G04 Created by KiCad (PCBNEW 4.0.7) date 01/13/20 13:42:08*
%MOMM*%
%LPD*%
G01*
G04 APERTURE LIST*
%ADD10C,0.100000*%
%ADD11C,1.920000*%
%ADD12C,3.100000*%
%ADD13R,2.100000X2.100000*%
%ADD14O,2.100000X2.100000*%
%ADD15R,2.900000X5.480000*%
%ADD16C,3.400000*%
%ADD17C,5.400000*%
%ADD18C,4.464000*%
%ADD19R,3.900000X3.900000*%
%ADD20R,3.000000X2.400000*%
%ADD21O,3.000000X2.400000*%
%ADD22R,2.400000X3.000000*%
%ADD23O,2.400000X3.000000*%
%ADD24C,1.924000*%
%ADD25C,0.254000*%
G04 APERTURE END LIST*
D10*
D11*
X100838000Y-128524000D03*
X103378000Y-128524000D03*
X103378000Y-130524000D03*
X100838000Y-130524000D03*
D12*
X96108000Y-133224000D03*
X108108000Y-133224000D03*
D13*
X132588000Y-128524000D03*
D14*
X132588000Y-131064000D03*
X130048000Y-128524000D03*
X130048000Y-131064000D03*
X127508000Y-128524000D03*
X127508000Y-131064000D03*
X124968000Y-128524000D03*
X124968000Y-131064000D03*
X122428000Y-128524000D03*
X122428000Y-131064000D03*
X119888000Y-128524000D03*
X119888000Y-131064000D03*
X117348000Y-128524000D03*
X117348000Y-131064000D03*
D15*
X72584000Y-53848000D03*
X65084000Y-53848000D03*
D16*
X68326000Y-73914000D03*
X60198000Y-73914000D03*
X54864000Y-68580000D03*
X60198000Y-65532000D03*
X68072000Y-65532000D03*
D17*
X53000000Y-53000000D03*
X147000000Y-53000000D03*
X53000000Y-132000000D03*
X147000000Y-132000000D03*
D13*
X79248000Y-133350000D03*
D14*
X79248000Y-130810000D03*
D18*
X60000000Y-102000000D03*
X137000000Y-102000000D03*
D19*
X87630000Y-127000000D03*
X87630000Y-133000000D03*
X92330000Y-130000000D03*
D13*
X76962000Y-53340000D03*
D14*
X76962000Y-55880000D03*
D13*
X77978000Y-69088000D03*
D14*
X75438000Y-69088000D03*
X72898000Y-69088000D03*
D13*
X103200000Y-98200000D03*
D14*
X100660000Y-98200000D03*
D13*
X144050000Y-122450000D03*
D14*
X144050000Y-119910000D03*
X144050000Y-117370000D03*
D15*
X131766000Y-53848000D03*
X124266000Y-53848000D03*
D18*
X60000000Y-58000000D03*
X137000000Y-58000000D03*
D13*
X77978000Y-125984000D03*
D14*
X75438000Y-125984000D03*
D20*
X55626000Y-119380000D03*
D21*
X55626000Y-116840000D03*
X55626000Y-114300000D03*
X55626000Y-111760000D03*
X55626000Y-109220000D03*
X55626000Y-106680000D03*
D22*
X62484000Y-131318000D03*
D23*
X59944000Y-131318000D03*
D24*
X135890000Y-107380000D03*
X133350000Y-107380000D03*
X130810000Y-107380000D03*
X128270000Y-107380000D03*
X125730000Y-107380000D03*
X123190000Y-107380000D03*
X120650000Y-107380000D03*
X118110000Y-107380000D03*
X115570000Y-107380000D03*
X113030000Y-107380000D03*
X110490000Y-107380000D03*
X107950000Y-107380000D03*
X105410000Y-107380000D03*
X102870000Y-107380000D03*
X100330000Y-107380000D03*
X97790000Y-107380000D03*
X95250000Y-107380000D03*
X92710000Y-107380000D03*
X90170000Y-107380000D03*
X87630000Y-107380000D03*
X135890000Y-122620000D03*
X133350000Y-122620000D03*
X130810000Y-122620000D03*
X128270000Y-122620000D03*
X125730000Y-122620000D03*
X123190000Y-122620000D03*
X120650000Y-122620000D03*
X118110000Y-122620000D03*
X115570000Y-122620000D03*
X113030000Y-122620000D03*
X110490000Y-122620000D03*
X107950000Y-122620000D03*
X105410000Y-122620000D03*
X102870000Y-122620000D03*
X100330000Y-122620000D03*
X97790000Y-122620000D03*
X95250000Y-122620000D03*
X92710000Y-122620000D03*
X90170000Y-122620000D03*
X87630000Y-122620000D03*
D25*
G36*
X56702960Y-76987400D02*
X50810160Y-76987400D01*
X50810160Y-51313080D01*
X56702960Y-51313080D01*
X56702960Y-76987400D01*
X56702960Y-76987400D01*
G37*
X56702960Y-76987400D02*
X50810160Y-76987400D01*
X50810160Y-51313080D01*
X56702960Y-51313080D01*
X56702960Y-76987400D01*
G36*
X149225373Y-76375260D02*
X139192377Y-76375260D01*
X139267832Y-50919046D01*
X149300818Y-50688659D01*
X149225373Y-76375260D01*
X149225373Y-76375260D01*
G37*
X149225373Y-76375260D02*
X139192377Y-76375260D01*
X139267832Y-50919046D01*
X149300818Y-50688659D01*
X149225373Y-76375260D01*
M02*
