G04 #@! TF.FileFunction,Copper,L2,Bot,Signal*
%FSLAX46Y46*%
G04 Gerber Fmt 4.6, Leading zero omitted, Abs format (unit mm)*
G04 Created by KiCad (PCBNEW 4.0.7) date 12/29/18 11:11:08*
%MOMM*%
%LPD*%
G01*
G04 APERTURE LIST*
%ADD10C,0.100000*%
%ADD11C,1.524000*%
%ADD12C,3.000000*%
%ADD13R,1.700000X1.700000*%
%ADD14O,1.700000X1.700000*%
%ADD15C,1.500000*%
%ADD16C,5.000000*%
%ADD17R,3.000000X3.000000*%
%ADD18C,4.064000*%
%ADD19R,3.500000X3.500000*%
%ADD20C,1.000000*%
%ADD21R,1.000000X1.000000*%
%ADD22R,1.500000X5.080000*%
%ADD23C,0.600000*%
%ADD24C,0.350000*%
%ADD25C,0.500000*%
G04 APERTURE END LIST*
D10*
D11*
X69342000Y-138430000D03*
X71882000Y-138430000D03*
X74422000Y-138430000D03*
X76962000Y-138430000D03*
X79502000Y-138430000D03*
X82042000Y-138430000D03*
X84582000Y-138430000D03*
X87122000Y-138430000D03*
X89662000Y-138430000D03*
X92202000Y-138430000D03*
X94742000Y-138430000D03*
X97282000Y-138430000D03*
X99822000Y-138430000D03*
X102362000Y-138430000D03*
X104902000Y-138430000D03*
X107442000Y-138430000D03*
X109982000Y-138430000D03*
X112522000Y-138430000D03*
X115062000Y-138430000D03*
X117602000Y-138430000D03*
X69342000Y-123190000D03*
X71882000Y-123190000D03*
X74422000Y-123190000D03*
X76962000Y-123190000D03*
X79502000Y-123190000D03*
X82042000Y-123190000D03*
X84582000Y-123190000D03*
X87122000Y-123190000D03*
X89662000Y-123190000D03*
X92202000Y-123190000D03*
X94742000Y-123190000D03*
X97282000Y-123190000D03*
X99822000Y-123190000D03*
X102362000Y-123190000D03*
X104902000Y-123190000D03*
X107442000Y-123190000D03*
X109982000Y-123190000D03*
X112522000Y-123190000D03*
X115062000Y-123190000D03*
X117602000Y-123190000D03*
D12*
X65953640Y-72796400D03*
X59603640Y-72796400D03*
X54864000Y-68580000D03*
X59428380Y-63703200D03*
X65826640Y-63731140D03*
D13*
X143421100Y-96164400D03*
D14*
X145961100Y-96164400D03*
X143421100Y-98704400D03*
X145961100Y-98704400D03*
X143421100Y-101244400D03*
X145961100Y-101244400D03*
X143421100Y-103784400D03*
X145961100Y-103784400D03*
X143421100Y-106324400D03*
X145961100Y-106324400D03*
D13*
X99568000Y-114300000D03*
D14*
X102108000Y-114300000D03*
X104648000Y-114300000D03*
X107188000Y-114300000D03*
D15*
X71079360Y-110837980D03*
X71079360Y-115717980D03*
D16*
X53000000Y-53000000D03*
X147000000Y-53000000D03*
X53000000Y-147000000D03*
X147000000Y-147000000D03*
D17*
X145389600Y-137007600D03*
D12*
X145389600Y-131927600D03*
D13*
X137020300Y-137299700D03*
D14*
X139560300Y-137299700D03*
D18*
X60000000Y-102000000D03*
X60000000Y-146000000D03*
X137000000Y-102000000D03*
X137000000Y-146000000D03*
D19*
X126288800Y-140474700D03*
X126288800Y-146474700D03*
X130988800Y-143474700D03*
D13*
X73256140Y-57683400D03*
D14*
X73256140Y-60223400D03*
D20*
X70396100Y-101660960D03*
X71666100Y-100390960D03*
D21*
X71666100Y-102930960D03*
D13*
X77917040Y-67233800D03*
D14*
X75377040Y-67233800D03*
X72837040Y-67233800D03*
D13*
X58562240Y-134924800D03*
D14*
X56022240Y-134924800D03*
X58562240Y-132384800D03*
X56022240Y-132384800D03*
X58562240Y-129844800D03*
X56022240Y-129844800D03*
X58562240Y-127304800D03*
X56022240Y-127304800D03*
X58562240Y-124764800D03*
X56022240Y-124764800D03*
D13*
X126339600Y-133324600D03*
D14*
X128879600Y-133324600D03*
D22*
X69060640Y-53238400D03*
X60560640Y-53238400D03*
X135517200Y-53225700D03*
X127017200Y-53225700D03*
D23*
X73914000Y-78219300D03*
X133898640Y-75539600D03*
X76809600Y-146517360D03*
X99405440Y-61244480D03*
X96433640Y-70002400D03*
X139232640Y-77114400D03*
X141010640Y-77114400D03*
X119674640Y-85242400D03*
X129707640Y-86258400D03*
X137358120Y-86624160D03*
X135270240Y-86639400D03*
X134721600Y-62992000D03*
X71577200Y-80213200D03*
X123913900Y-55714900D03*
X123926600Y-57226200D03*
X138239500Y-57099200D03*
X137337800Y-58343800D03*
X74919840Y-108661200D03*
X77144880Y-108310680D03*
X77891640Y-109148880D03*
X79979520Y-109636560D03*
X80863440Y-108767880D03*
X83149440Y-109260640D03*
X83494880Y-110723680D03*
X82763360Y-113548160D03*
X84104480Y-113507520D03*
X83210400Y-116372640D03*
X81869280Y-116372640D03*
X80406240Y-116291360D03*
X77419200Y-116108480D03*
X74797920Y-116088160D03*
X73741280Y-117165120D03*
X71465440Y-117165120D03*
X69819520Y-117205760D03*
X66690240Y-117957600D03*
X57556400Y-72951340D03*
X56327040Y-73482200D03*
X55069740Y-75074780D03*
X53952140Y-76751180D03*
X62613540Y-70688200D03*
X64569340Y-70464680D03*
X66301620Y-70380860D03*
X67419220Y-70520560D03*
X69151500Y-70548500D03*
X71135240Y-70436740D03*
X73314560Y-70492620D03*
X75465940Y-70520560D03*
X69933820Y-67363340D03*
X67726560Y-67419220D03*
X65463420Y-67363340D03*
X63591440Y-67419220D03*
X61942980Y-67614800D03*
X60154820Y-67586860D03*
X58003440Y-67642740D03*
X96514920Y-59679840D03*
X94686120Y-59756040D03*
X94366080Y-58536840D03*
X97398840Y-53187600D03*
X96072960Y-53294280D03*
X94990920Y-53644800D03*
X94396560Y-54574440D03*
X94198440Y-56083200D03*
X94259400Y-57241440D03*
X92186760Y-58460640D03*
X92247720Y-52456080D03*
X92323920Y-53614320D03*
X92339160Y-54665880D03*
X92308680Y-55930800D03*
X92247720Y-57104280D03*
X128991360Y-67757040D03*
X127650240Y-67787520D03*
X126507240Y-67650360D03*
X124508260Y-67678300D03*
X139537440Y-67635120D03*
X137922000Y-67726560D03*
X136916160Y-67650360D03*
X135666480Y-67711320D03*
X134294880Y-67909440D03*
X133075680Y-67863720D03*
X132085080Y-67863720D03*
X131018280Y-67901820D03*
X127741680Y-70180200D03*
X128549400Y-69936360D03*
X140467080Y-70088760D03*
X139095480Y-70119240D03*
X136916160Y-70164960D03*
X135392160Y-70195440D03*
X134005320Y-70088760D03*
X132938520Y-69982080D03*
X131521200Y-70073520D03*
X130042920Y-69982080D03*
X129997200Y-67894200D03*
X83179920Y-57957720D03*
X83225640Y-59786520D03*
X83210400Y-61569600D03*
X83314540Y-62923420D03*
X83461860Y-63723520D03*
X83553300Y-65425320D03*
X83271360Y-66995040D03*
X82677000Y-67863720D03*
X82646520Y-69829680D03*
X82661760Y-71450200D03*
X82499200Y-72969120D03*
X81300320Y-74086720D03*
X81320640Y-75265280D03*
X81076800Y-76809600D03*
X81153000Y-78486000D03*
X81000600Y-79362300D03*
X80924400Y-81038700D03*
X80962500Y-82791300D03*
X80467200Y-85229700D03*
X81076800Y-87668100D03*
X80942180Y-89855040D03*
X81500980Y-91196160D03*
X83959700Y-91419680D03*
X86418420Y-91838780D03*
X88430100Y-92341700D03*
X90050620Y-93543120D03*
X91257120Y-94914720D03*
X92496640Y-96032320D03*
X93959680Y-97170240D03*
X95869760Y-97678240D03*
X98389440Y-97739200D03*
X100868480Y-97759520D03*
X71810880Y-94228920D03*
X72938640Y-94137480D03*
X74828400Y-94061280D03*
X76718160Y-94503240D03*
X81457800Y-94609920D03*
X83230720Y-94447360D03*
X84734400Y-94345760D03*
X86116160Y-94305120D03*
X88209120Y-95585280D03*
X90200480Y-97373440D03*
X92049600Y-99100640D03*
X92735400Y-99832160D03*
X95331280Y-99888040D03*
X99273360Y-99745800D03*
X101396800Y-99801680D03*
X74676000Y-50749200D03*
X76657200Y-50711100D03*
X78562200Y-50673000D03*
X80924400Y-50673000D03*
X83172300Y-50596800D03*
X85344000Y-50558700D03*
X87983060Y-50627280D03*
X89882980Y-50599340D03*
X91978480Y-50571400D03*
X94129860Y-50655220D03*
X96560640Y-50655220D03*
X99047300Y-50655220D03*
X101338380Y-50487580D03*
X103992680Y-50599340D03*
X106646980Y-50431700D03*
X105082340Y-72560180D03*
X106283760Y-72560180D03*
X107848400Y-72644000D03*
X109776260Y-72644000D03*
X111368840Y-72783700D03*
X113073180Y-72699880D03*
X115364260Y-72839580D03*
X116900960Y-72755760D03*
X118828820Y-72699880D03*
X120449340Y-72532240D03*
X105724960Y-74292460D03*
X107652820Y-74264520D03*
X109049820Y-74236580D03*
X110837980Y-74292460D03*
X112709960Y-74264520D03*
X115224560Y-74404220D03*
X117320060Y-74348340D03*
X119415560Y-74599800D03*
X121427240Y-75102720D03*
X101092000Y-88127840D03*
X101701600Y-88717120D03*
X101092000Y-91440000D03*
X101701600Y-92069920D03*
X104358440Y-102529640D03*
X104160320Y-102092760D03*
X104023160Y-100304600D03*
X104134920Y-97652840D03*
X104216200Y-95387160D03*
X105643680Y-92202000D03*
X104775000Y-91729560D03*
X105745280Y-88574880D03*
X104719120Y-88265000D03*
X104241600Y-84963000D03*
X103977440Y-83251040D03*
X104053640Y-80584040D03*
X104089200Y-78714600D03*
X104129840Y-76393040D03*
X104190800Y-74599800D03*
X104272080Y-71749920D03*
X104216200Y-70271640D03*
X104216200Y-68453000D03*
X104216200Y-67279520D03*
X104119680Y-65166240D03*
X103916480Y-63886080D03*
X103692960Y-62280800D03*
X101564440Y-64180720D03*
X101579680Y-84896960D03*
X102148640Y-82758280D03*
X102067360Y-80888840D03*
X102290880Y-79435960D03*
X102148640Y-77983080D03*
X102092760Y-76641960D03*
X102011480Y-75046840D03*
X102245160Y-73304400D03*
X102179120Y-71526400D03*
X102148640Y-69682360D03*
X101981000Y-68259960D03*
X101813360Y-66639440D03*
X101620320Y-65267840D03*
X102402640Y-96001840D03*
X102483920Y-98013520D03*
X102483920Y-99578160D03*
X102316280Y-101173280D03*
X101310440Y-102402640D03*
X80584040Y-67706240D03*
X80391000Y-69037200D03*
X80431640Y-69916040D03*
X80660240Y-71399400D03*
X79781400Y-72237600D03*
X78983840Y-73497440D03*
X78145640Y-74640440D03*
X77952600Y-76545440D03*
X77876400Y-78679040D03*
X77876400Y-79517240D03*
X77729080Y-80802480D03*
X78623160Y-81671160D03*
X78541880Y-83738720D03*
X78541880Y-86166960D03*
X78567280Y-88066880D03*
X78597760Y-89773760D03*
X78374240Y-91480640D03*
X77155040Y-91663520D03*
X75326240Y-91765120D03*
X74005440Y-91927680D03*
X71932800Y-91907360D03*
X70469760Y-91988640D03*
X68214240Y-92069920D03*
X66324480Y-92125800D03*
X64389000Y-92064840D03*
X62133480Y-90007440D03*
X61904880Y-88894920D03*
X61691520Y-86822280D03*
X59481720Y-86913720D03*
X59527440Y-88620600D03*
X59664600Y-90901520D03*
X60594240Y-92095320D03*
X61950600Y-94015560D03*
X63916560Y-93985080D03*
X65760600Y-94152720D03*
X68107560Y-94152720D03*
X70332600Y-94167960D03*
X133197600Y-55671720D03*
X133532880Y-53751480D03*
X133807200Y-52197000D03*
X129138680Y-52278280D03*
X129326640Y-55214520D03*
X129341880Y-54178200D03*
X66944240Y-52359560D03*
X66873120Y-55046880D03*
X66796920Y-53370480D03*
X62712600Y-55031640D03*
X62346840Y-53934360D03*
X149011640Y-68199000D03*
X149240240Y-66141600D03*
X149047200Y-63210440D03*
X148920200Y-61442600D03*
X148640800Y-60629800D03*
X148336000Y-58562240D03*
X147746720Y-56804560D03*
X146740880Y-56636920D03*
X145288000Y-56438800D03*
X144200880Y-55519320D03*
X143443960Y-54737000D03*
X143418560Y-53060600D03*
X142605760Y-51633120D03*
X140848080Y-51663600D03*
X139141200Y-51719480D03*
X137520680Y-51719480D03*
X149255480Y-76667360D03*
X149352000Y-74828400D03*
X149240240Y-73268840D03*
X149199600Y-70830440D03*
X124388880Y-50794920D03*
X122768360Y-50881280D03*
X120253760Y-50683160D03*
X117434360Y-50657760D03*
X114726720Y-50698400D03*
X112958880Y-50779680D03*
X110317280Y-50718720D03*
X108204000Y-51043840D03*
X77144880Y-65156080D03*
X73065640Y-65410080D03*
X72867520Y-64292480D03*
X78008480Y-63804800D03*
X76321920Y-60025280D03*
X74554080Y-59131200D03*
X62194440Y-52247800D03*
X57724040Y-51633120D03*
X57277000Y-52583080D03*
X56327040Y-54874160D03*
X54594760Y-57053480D03*
X52806600Y-57835800D03*
X51241960Y-59847480D03*
X51130200Y-61020960D03*
X50739040Y-62976760D03*
X50794920Y-65211960D03*
X50683160Y-67223640D03*
X51074320Y-69347080D03*
X50962560Y-71582280D03*
X51353720Y-73593960D03*
X81224120Y-136961880D03*
X99019360Y-136768840D03*
X86222840Y-136850120D03*
X95778320Y-146796760D03*
X87005160Y-146547840D03*
X51968400Y-130190240D03*
X143560800Y-113385600D03*
X144792700Y-126047500D03*
X121737120Y-64780160D03*
X113492280Y-97845880D03*
X73202800Y-51046380D03*
X73230740Y-52555140D03*
X73286620Y-53756560D03*
X73146920Y-55293260D03*
X79573120Y-59316620D03*
X78287880Y-59316620D03*
X77337920Y-59316620D03*
X116481860Y-86334600D03*
X119440960Y-76098400D03*
X105003600Y-63055500D03*
X114223800Y-51549300D03*
X114338100Y-72618600D03*
X114300000Y-70370700D03*
X114376200Y-68160900D03*
X114528600Y-65836800D03*
X114482880Y-62199520D03*
X114300000Y-60769500D03*
X114147600Y-58559700D03*
X114223800Y-56235600D03*
X114185700Y-54406800D03*
X114223800Y-52616100D03*
X128816100Y-104241600D03*
X133416040Y-95707200D03*
X103952040Y-55829200D03*
X136540240Y-91186000D03*
X98465640Y-69748400D03*
X98719640Y-70383400D03*
X62397640Y-76987400D03*
X61254640Y-77114400D03*
X89067640Y-68351400D03*
X89956640Y-67081400D03*
X131104640Y-86385400D03*
X119674640Y-80416400D03*
X71208900Y-82067400D03*
X66217800Y-89535000D03*
X123525280Y-87147400D03*
X133746240Y-77480160D03*
X128290320Y-82433160D03*
X97764600Y-84162900D03*
X92918280Y-81899760D03*
X99822000Y-81991200D03*
X98488500Y-73761600D03*
X96659700Y-73761600D03*
X111539020Y-117632480D03*
X111424720Y-103154480D03*
X111404400Y-98869500D03*
X107838240Y-79385160D03*
X109766100Y-88468200D03*
X119852440Y-122758200D03*
X89468960Y-118790720D03*
X149199600Y-141960600D03*
X147690840Y-125730000D03*
X137454640Y-120700800D03*
X100279200Y-120853200D03*
X58587640Y-139573000D03*
X148021040Y-87198200D03*
X63512700Y-105879900D03*
X146192240Y-109550200D03*
X73573640Y-129692400D03*
X77307440Y-128549400D03*
X109971840Y-117655340D03*
X109943900Y-102958900D03*
X109999780Y-97510600D03*
X108013500Y-87363300D03*
X104927400Y-79781400D03*
X110911640Y-86258400D03*
X108625640Y-82448400D03*
X61610240Y-131699000D03*
X85079840Y-126949200D03*
X88026240Y-126161800D03*
X124500640Y-130276600D03*
X105135680Y-52120800D03*
X102270560Y-52161440D03*
X124642880Y-68559680D03*
X126349760Y-68559680D03*
X90162380Y-74068940D03*
X100276660Y-76220320D03*
X121325640Y-89687400D03*
X125897640Y-89687400D03*
X134680960Y-79674720D03*
X132933440Y-79979520D03*
D24*
X72047100Y-78524100D02*
X73609200Y-78524100D01*
X73609200Y-78524100D02*
X73914000Y-78219300D01*
X132577840Y-76606400D02*
X132831840Y-76606400D01*
X132831840Y-76606400D02*
X133898640Y-75539600D01*
X102499160Y-60985400D02*
X102539800Y-60944760D01*
X79212440Y-146827240D02*
X77119480Y-146827240D01*
X77119480Y-146827240D02*
X76809600Y-146517360D01*
X98973640Y-67056000D02*
X98973640Y-61676280D01*
X98973640Y-61676280D02*
X99405440Y-61244480D01*
X98973640Y-67462400D02*
X98973640Y-67056000D01*
X98973640Y-67056000D02*
X98973640Y-66700400D01*
X96433640Y-70002400D02*
X98973640Y-67462400D01*
X139232640Y-77114400D02*
X141010640Y-77114400D01*
X120309640Y-85877400D02*
X119674640Y-85242400D01*
X129326640Y-85877400D02*
X120309640Y-85877400D01*
X129707640Y-86258400D02*
X129326640Y-85877400D01*
X135285480Y-86624160D02*
X137358120Y-86624160D01*
X135270240Y-86639400D02*
X135285480Y-86624160D01*
X123913900Y-57213500D02*
X123913900Y-55714900D01*
X123926600Y-57226200D02*
X123913900Y-57213500D01*
X138239500Y-57442100D02*
X138239500Y-57099200D01*
X137337800Y-58343800D02*
X138239500Y-57442100D01*
X76794360Y-108661200D02*
X74919840Y-108661200D01*
X77144880Y-108310680D02*
X76794360Y-108661200D01*
X79491840Y-109148880D02*
X77891640Y-109148880D01*
X79979520Y-109636560D02*
X79491840Y-109148880D01*
X82656680Y-108767880D02*
X80863440Y-108767880D01*
X83149440Y-109260640D02*
X82656680Y-108767880D01*
X83494880Y-112816640D02*
X83494880Y-110723680D01*
X82763360Y-113548160D02*
X83494880Y-112816640D01*
X84104480Y-115478560D02*
X84104480Y-113507520D01*
X83210400Y-116372640D02*
X84104480Y-115478560D01*
X80487520Y-116372640D02*
X81869280Y-116372640D01*
X80406240Y-116291360D02*
X80487520Y-116372640D01*
X74818240Y-116108480D02*
X77419200Y-116108480D01*
X74797920Y-116088160D02*
X74818240Y-116108480D01*
X71465440Y-117165120D02*
X73741280Y-117165120D01*
X68559680Y-118465600D02*
X69819520Y-117205760D01*
X67198240Y-118465600D02*
X68559680Y-118465600D01*
X66690240Y-117957600D02*
X67198240Y-118465600D01*
X56857900Y-72951340D02*
X57556400Y-72951340D01*
X56327040Y-73482200D02*
X56857900Y-72951340D01*
X55069740Y-75633580D02*
X55069740Y-75074780D01*
X53952140Y-76751180D02*
X55069740Y-75633580D01*
X62613540Y-70688200D02*
X62837060Y-70464680D01*
X62837060Y-70464680D02*
X64569340Y-70464680D01*
X66301620Y-70380860D02*
X66441320Y-70520560D01*
X66441320Y-70520560D02*
X67419220Y-70520560D01*
X69151500Y-70548500D02*
X69263260Y-70436740D01*
X69263260Y-70436740D02*
X71135240Y-70436740D01*
X73314560Y-70492620D02*
X73342500Y-70520560D01*
X73342500Y-70520560D02*
X75465940Y-70520560D01*
X54864000Y-68580000D02*
X57066180Y-68580000D01*
X67782440Y-67363340D02*
X69933820Y-67363340D01*
X67726560Y-67419220D02*
X67782440Y-67363340D01*
X63647320Y-67363340D02*
X65463420Y-67363340D01*
X63591440Y-67419220D02*
X63647320Y-67363340D01*
X60182760Y-67614800D02*
X61942980Y-67614800D01*
X60154820Y-67586860D02*
X60182760Y-67614800D01*
X57066180Y-68580000D02*
X58003440Y-67642740D01*
X94259400Y-57241440D02*
X94259400Y-58430160D01*
X94762320Y-59679840D02*
X96514920Y-59679840D01*
X94686120Y-59756040D02*
X94762320Y-59679840D01*
X94259400Y-58430160D02*
X94366080Y-58536840D01*
X92247720Y-57104280D02*
X94122240Y-57104280D01*
X95341440Y-53294280D02*
X96072960Y-53294280D01*
X94990920Y-53644800D02*
X95341440Y-53294280D01*
X94396560Y-55885080D02*
X94396560Y-54574440D01*
X94198440Y-56083200D02*
X94396560Y-55885080D01*
X94122240Y-57104280D02*
X94259400Y-57241440D01*
X92247720Y-57104280D02*
X92247720Y-58399680D01*
X92247720Y-58399680D02*
X92186760Y-58460640D01*
X92323920Y-54650640D02*
X92323920Y-53614320D01*
X92339160Y-54665880D02*
X92323920Y-54650640D01*
X92308680Y-57043320D02*
X92308680Y-55930800D01*
X92247720Y-57104280D02*
X92308680Y-57043320D01*
X126507240Y-67650360D02*
X124536200Y-67650360D01*
X129997200Y-67894200D02*
X129860040Y-67757040D01*
X129860040Y-67757040D02*
X128991360Y-67757040D01*
X127650240Y-67787520D02*
X127513080Y-67650360D01*
X127513080Y-67650360D02*
X126507240Y-67650360D01*
X124536200Y-67650360D02*
X124508260Y-67678300D01*
X138013440Y-67635120D02*
X139537440Y-67635120D01*
X137922000Y-67726560D02*
X138013440Y-67635120D01*
X135727440Y-67650360D02*
X136916160Y-67650360D01*
X135666480Y-67711320D02*
X135727440Y-67650360D01*
X133121400Y-67909440D02*
X134294880Y-67909440D01*
X133075680Y-67863720D02*
X133121400Y-67909440D01*
X131056380Y-67863720D02*
X132085080Y-67863720D01*
X131018280Y-67901820D02*
X131056380Y-67863720D01*
X128305560Y-70180200D02*
X127741680Y-70180200D01*
X128549400Y-69936360D02*
X128305560Y-70180200D01*
X129997200Y-67894200D02*
X129997200Y-69936360D01*
X136961880Y-70119240D02*
X139095480Y-70119240D01*
X136916160Y-70164960D02*
X136961880Y-70119240D01*
X134112000Y-70195440D02*
X135392160Y-70195440D01*
X134005320Y-70088760D02*
X134112000Y-70195440D01*
X131612640Y-69982080D02*
X132938520Y-69982080D01*
X131521200Y-70073520D02*
X131612640Y-69982080D01*
X129997200Y-69936360D02*
X130042920Y-69982080D01*
X102483920Y-98013520D02*
X101122480Y-98013520D01*
X83179920Y-57957720D02*
X83225640Y-58003440D01*
X83225640Y-58003440D02*
X83225640Y-59786520D01*
X83314540Y-63576200D02*
X83314540Y-62923420D01*
X83461860Y-63723520D02*
X83314540Y-63576200D01*
X83553300Y-66713100D02*
X83553300Y-65425320D01*
X83271360Y-66995040D02*
X83553300Y-66713100D01*
X82677000Y-69799200D02*
X82677000Y-67863720D01*
X82646520Y-69829680D02*
X82677000Y-69799200D01*
X82661760Y-72806560D02*
X82661760Y-71450200D01*
X82499200Y-72969120D02*
X82661760Y-72806560D01*
X81300320Y-75244960D02*
X81300320Y-74086720D01*
X81320640Y-75265280D02*
X81300320Y-75244960D01*
X81076800Y-78409800D02*
X81076800Y-76809600D01*
X81153000Y-78486000D02*
X81076800Y-78409800D01*
X81000600Y-80962500D02*
X81000600Y-79362300D01*
X80924400Y-81038700D02*
X81000600Y-80962500D01*
X80733900Y-83019900D02*
X80962500Y-82791300D01*
X80733900Y-84963000D02*
X80733900Y-83019900D01*
X80467200Y-85229700D02*
X80733900Y-84963000D01*
X81076800Y-89720420D02*
X81076800Y-87668100D01*
X80942180Y-89855040D02*
X81076800Y-89720420D01*
X83736180Y-91196160D02*
X81500980Y-91196160D01*
X83959700Y-91419680D02*
X83736180Y-91196160D01*
X87927180Y-91838780D02*
X86418420Y-91838780D01*
X88430100Y-92341700D02*
X87927180Y-91838780D01*
X90050620Y-93708220D02*
X90050620Y-93543120D01*
X91257120Y-94914720D02*
X90050620Y-93708220D01*
X92821760Y-96032320D02*
X92496640Y-96032320D01*
X93959680Y-97170240D02*
X92821760Y-96032320D01*
X98328480Y-97678240D02*
X95869760Y-97678240D01*
X98389440Y-97739200D02*
X98328480Y-97678240D01*
X101122480Y-98013520D02*
X100868480Y-97759520D01*
X70332600Y-94167960D02*
X71749920Y-94167960D01*
X71749920Y-94167960D02*
X71810880Y-94228920D01*
X72938640Y-94137480D02*
X73014840Y-94061280D01*
X73014840Y-94061280D02*
X74828400Y-94061280D01*
X76718160Y-94503240D02*
X76779120Y-94564200D01*
X76779120Y-94564200D02*
X81412080Y-94564200D01*
X81412080Y-94564200D02*
X81457800Y-94609920D01*
X83230720Y-94447360D02*
X83332320Y-94345760D01*
X83332320Y-94345760D02*
X84734400Y-94345760D01*
X86116160Y-94305120D02*
X87396320Y-95585280D01*
X87396320Y-95585280D02*
X88209120Y-95585280D01*
X90200480Y-97373440D02*
X91927680Y-99100640D01*
X91927680Y-99100640D02*
X92049600Y-99100640D01*
X92735400Y-99832160D02*
X92791280Y-99888040D01*
X92791280Y-99888040D02*
X95331280Y-99888040D01*
X99273360Y-99745800D02*
X99329240Y-99801680D01*
X99329240Y-99801680D02*
X101396800Y-99801680D01*
X108204000Y-51043840D02*
X107259120Y-51043840D01*
X76619100Y-50749200D02*
X74676000Y-50749200D01*
X76657200Y-50711100D02*
X76619100Y-50749200D01*
X80924400Y-50673000D02*
X78562200Y-50673000D01*
X85305900Y-50596800D02*
X83172300Y-50596800D01*
X85344000Y-50558700D02*
X85305900Y-50596800D01*
X89855040Y-50627280D02*
X87983060Y-50627280D01*
X89882980Y-50599340D02*
X89855040Y-50627280D01*
X94046040Y-50571400D02*
X91978480Y-50571400D01*
X94129860Y-50655220D02*
X94046040Y-50571400D01*
X99047300Y-50655220D02*
X96560640Y-50655220D01*
X103880920Y-50487580D02*
X101338380Y-50487580D01*
X103992680Y-50599340D02*
X103880920Y-50487580D01*
X107259120Y-51043840D02*
X106646980Y-50431700D01*
X114338100Y-72618600D02*
X113154460Y-72618600D01*
X107764580Y-72560180D02*
X106283760Y-72560180D01*
X107848400Y-72644000D02*
X107764580Y-72560180D01*
X111229140Y-72644000D02*
X109776260Y-72644000D01*
X111368840Y-72783700D02*
X111229140Y-72644000D01*
X113154460Y-72618600D02*
X113073180Y-72699880D01*
X121737120Y-64780160D02*
X121737120Y-71244460D01*
X115143280Y-72618600D02*
X114338100Y-72618600D01*
X115364260Y-72839580D02*
X115143280Y-72618600D01*
X118772940Y-72755760D02*
X116900960Y-72755760D01*
X118828820Y-72699880D02*
X118772940Y-72755760D01*
X121737120Y-71244460D02*
X120449340Y-72532240D01*
X105417620Y-74599800D02*
X104190800Y-74599800D01*
X105724960Y-74292460D02*
X105417620Y-74599800D01*
X109021880Y-74264520D02*
X107652820Y-74264520D01*
X109049820Y-74236580D02*
X109021880Y-74264520D01*
X112682020Y-74292460D02*
X110837980Y-74292460D01*
X112709960Y-74264520D02*
X112682020Y-74292460D01*
X117264180Y-74404220D02*
X115224560Y-74404220D01*
X117320060Y-74348340D02*
X117264180Y-74404220D01*
X120924320Y-74599800D02*
X119415560Y-74599800D01*
X121427240Y-75102720D02*
X120924320Y-74599800D01*
X102402640Y-96001840D02*
X102402640Y-95717360D01*
X101579680Y-87640160D02*
X101579680Y-84896960D01*
X101092000Y-88127840D02*
X101579680Y-87640160D01*
X101701600Y-90830400D02*
X101701600Y-88717120D01*
X101092000Y-91440000D02*
X101701600Y-90830400D01*
X101701600Y-95016320D02*
X101701600Y-92069920D01*
X102402640Y-95717360D02*
X101701600Y-95016320D01*
X104358440Y-102290880D02*
X104358440Y-102529640D01*
X104160320Y-102092760D02*
X104358440Y-102290880D01*
X104023160Y-97764600D02*
X104023160Y-100304600D01*
X104134920Y-97652840D02*
X104023160Y-97764600D01*
X104216200Y-93629480D02*
X104216200Y-95387160D01*
X105643680Y-92202000D02*
X104216200Y-93629480D01*
X104775000Y-89997280D02*
X104775000Y-91729560D01*
X105745280Y-88574880D02*
X104775000Y-89997280D01*
X104546400Y-88092280D02*
X104719120Y-88265000D01*
X104546400Y-85267800D02*
X104546400Y-88092280D01*
X104241600Y-84963000D02*
X104546400Y-85267800D01*
X103977440Y-80660240D02*
X103977440Y-83251040D01*
X104053640Y-80584040D02*
X103977440Y-80660240D01*
X104089200Y-76433680D02*
X104089200Y-78714600D01*
X104129840Y-76393040D02*
X104089200Y-76433680D01*
X104190800Y-71831200D02*
X104190800Y-74599800D01*
X104272080Y-71749920D02*
X104190800Y-71831200D01*
X104216200Y-68453000D02*
X104216200Y-70271640D01*
X104216200Y-65262760D02*
X104216200Y-67279520D01*
X104119680Y-65166240D02*
X104216200Y-65262760D01*
X103916480Y-62504320D02*
X103916480Y-63886080D01*
X103692960Y-62280800D02*
X103916480Y-62504320D01*
X102148640Y-82758280D02*
X102067360Y-82677000D01*
X102067360Y-82677000D02*
X102067360Y-80888840D01*
X102290880Y-79435960D02*
X102148640Y-79293720D01*
X102148640Y-79293720D02*
X102148640Y-77983080D01*
X102092760Y-76641960D02*
X101925120Y-76474320D01*
X101925120Y-76474320D02*
X101925120Y-75133200D01*
X101925120Y-75133200D02*
X102011480Y-75046840D01*
X102245160Y-73304400D02*
X102179120Y-73238360D01*
X102179120Y-73238360D02*
X102179120Y-71526400D01*
X102148640Y-69682360D02*
X101981000Y-69514720D01*
X101981000Y-69514720D02*
X101981000Y-68259960D01*
X101813360Y-66639440D02*
X101620320Y-66446400D01*
X101620320Y-66446400D02*
X101620320Y-65267840D01*
X102483920Y-99578160D02*
X102483920Y-98013520D01*
X102316280Y-101396800D02*
X102316280Y-101173280D01*
X101310440Y-102402640D02*
X102316280Y-101396800D01*
X80391000Y-69875400D02*
X80391000Y-69037200D01*
X80431640Y-69916040D02*
X80391000Y-69875400D01*
X80924400Y-71135240D02*
X80660240Y-71399400D01*
X80924400Y-71094600D02*
X80924400Y-71135240D01*
X79781400Y-72237600D02*
X80924400Y-71094600D01*
X78983840Y-73802240D02*
X78983840Y-73497440D01*
X78145640Y-74640440D02*
X78983840Y-73802240D01*
X77952600Y-78602840D02*
X77952600Y-76545440D01*
X77876400Y-78679040D02*
X77952600Y-78602840D01*
X78008480Y-79649320D02*
X77876400Y-79517240D01*
X78008480Y-80523080D02*
X78008480Y-79649320D01*
X77729080Y-80802480D02*
X78008480Y-80523080D01*
X78623160Y-83657440D02*
X78623160Y-81671160D01*
X78541880Y-83738720D02*
X78623160Y-83657440D01*
X78541880Y-88041480D02*
X78541880Y-86166960D01*
X78567280Y-88066880D02*
X78541880Y-88041480D01*
X78577440Y-89794080D02*
X78597760Y-89773760D01*
X78577440Y-91277440D02*
X78577440Y-89794080D01*
X78374240Y-91480640D02*
X78577440Y-91277440D01*
X75427840Y-91663520D02*
X77155040Y-91663520D01*
X75326240Y-91765120D02*
X75427840Y-91663520D01*
X71953120Y-91927680D02*
X74005440Y-91927680D01*
X71932800Y-91907360D02*
X71953120Y-91927680D01*
X68295520Y-91988640D02*
X70469760Y-91988640D01*
X68214240Y-92069920D02*
X68295520Y-91988640D01*
X64449960Y-92125800D02*
X66324480Y-92125800D01*
X64389000Y-92064840D02*
X64449960Y-92125800D01*
X62133480Y-89123520D02*
X62133480Y-90007440D01*
X61904880Y-88894920D02*
X62133480Y-89123520D01*
X59573160Y-86822280D02*
X61691520Y-86822280D01*
X59481720Y-86913720D02*
X59573160Y-86822280D01*
X59527440Y-90764360D02*
X59527440Y-88620600D01*
X59664600Y-90901520D02*
X59527440Y-90764360D01*
X60594240Y-92659200D02*
X60594240Y-92095320D01*
X61950600Y-94015560D02*
X60594240Y-92659200D01*
X65592960Y-93985080D02*
X63916560Y-93985080D01*
X65760600Y-94152720D02*
X65592960Y-93985080D01*
X70317360Y-94152720D02*
X68107560Y-94152720D01*
X70332600Y-94167960D02*
X70317360Y-94152720D01*
X133532880Y-52471320D02*
X133532880Y-53751480D01*
X133807200Y-52197000D02*
X133532880Y-52471320D01*
X129138680Y-52278280D02*
X129138680Y-53975000D01*
X129326640Y-55214520D02*
X129326640Y-55229760D01*
X129138680Y-53975000D02*
X129341880Y-54178200D01*
X66944240Y-52359560D02*
X66944240Y-53223160D01*
X66944240Y-53223160D02*
X66796920Y-53370480D01*
X62194440Y-52247800D02*
X62194440Y-53781960D01*
X62194440Y-53781960D02*
X62346840Y-53934360D01*
X149011640Y-66370200D02*
X149011640Y-68199000D01*
X149240240Y-66141600D02*
X149011640Y-66370200D01*
X149047200Y-61569600D02*
X149047200Y-63210440D01*
X148920200Y-61442600D02*
X149047200Y-61569600D01*
X148640800Y-58867040D02*
X148640800Y-60629800D01*
X148336000Y-58562240D02*
X148640800Y-58867040D01*
X146908520Y-56804560D02*
X147746720Y-56804560D01*
X146740880Y-56636920D02*
X146908520Y-56804560D01*
X145120360Y-56438800D02*
X145288000Y-56438800D01*
X144200880Y-55519320D02*
X145120360Y-56438800D01*
X143443960Y-53086000D02*
X143443960Y-54737000D01*
X143418560Y-53060600D02*
X143443960Y-53086000D01*
X140878560Y-51633120D02*
X142605760Y-51633120D01*
X140848080Y-51663600D02*
X140878560Y-51633120D01*
X137520680Y-51719480D02*
X139141200Y-51719480D01*
X149255480Y-74924920D02*
X149255480Y-76667360D01*
X149352000Y-74828400D02*
X149255480Y-74924920D01*
X149240240Y-70871080D02*
X149240240Y-73268840D01*
X149199600Y-70830440D02*
X149240240Y-70871080D01*
X103952040Y-55829200D02*
X103952040Y-55397400D01*
X120451880Y-50881280D02*
X122768360Y-50881280D01*
X120253760Y-50683160D02*
X120451880Y-50881280D01*
X114767360Y-50657760D02*
X117434360Y-50657760D01*
X114726720Y-50698400D02*
X114767360Y-50657760D01*
X110378240Y-50779680D02*
X112958880Y-50779680D01*
X110317280Y-50718720D02*
X110378240Y-50779680D01*
X108204000Y-51145440D02*
X108204000Y-51043840D01*
X103952040Y-55397400D02*
X108204000Y-51145440D01*
X73319640Y-65156080D02*
X77144880Y-65156080D01*
X73065640Y-65410080D02*
X73319640Y-65156080D01*
X73172320Y-63987680D02*
X72867520Y-64292480D01*
X77825600Y-63987680D02*
X73172320Y-63987680D01*
X78008480Y-63804800D02*
X77825600Y-63987680D01*
X75448160Y-60025280D02*
X76321920Y-60025280D01*
X74554080Y-59131200D02*
X75448160Y-60025280D01*
X62194440Y-52247800D02*
X62417960Y-52247800D01*
X57277000Y-53924200D02*
X57277000Y-52583080D01*
X56327040Y-54874160D02*
X57277000Y-53924200D01*
X53588920Y-57053480D02*
X54594760Y-57053480D01*
X52806600Y-57835800D02*
X53588920Y-57053480D01*
X51241960Y-60909200D02*
X51241960Y-59847480D01*
X51130200Y-61020960D02*
X51241960Y-60909200D01*
X50739040Y-65156080D02*
X50739040Y-62976760D01*
X50794920Y-65211960D02*
X50739040Y-65156080D01*
X50683160Y-68955920D02*
X50683160Y-67223640D01*
X51074320Y-69347080D02*
X50683160Y-68955920D01*
X50962560Y-73202800D02*
X50962560Y-71582280D01*
X51353720Y-73593960D02*
X50962560Y-73202800D01*
X81280000Y-136906000D02*
X82031840Y-136906000D01*
X81224120Y-136961880D02*
X81280000Y-136906000D01*
X99019360Y-136768840D02*
X99745800Y-136768840D01*
X86248240Y-136824720D02*
X87116920Y-136824720D01*
X86222840Y-136850120D02*
X86248240Y-136824720D01*
X95473520Y-146461480D02*
X95387160Y-146461480D01*
X95778320Y-146796760D02*
X95473520Y-146491960D01*
X95473520Y-146491960D02*
X95473520Y-146461480D01*
X95387160Y-146461480D02*
X95219520Y-146629120D01*
X87035640Y-146517360D02*
X87370920Y-146517360D01*
X87005160Y-146547840D02*
X87035640Y-146517360D01*
D25*
X56022240Y-129844800D02*
X52313840Y-129844800D01*
X52313840Y-129844800D02*
X51968400Y-130190240D01*
D24*
X143560800Y-113385600D02*
X143581120Y-113385600D01*
D25*
X144805400Y-126060200D02*
X144805400Y-126187200D01*
X144792700Y-126047500D02*
X144805400Y-126060200D01*
D24*
X121737120Y-64780160D02*
X121716800Y-64759840D01*
X121716800Y-64759840D02*
X121716800Y-64394080D01*
X113520220Y-97873820D02*
X113911380Y-97873820D01*
X113492280Y-97845880D02*
X113520220Y-97873820D01*
X73256140Y-57683400D02*
X73256140Y-55402480D01*
X73230740Y-53700680D02*
X73230740Y-52555140D01*
X73286620Y-53756560D02*
X73230740Y-53700680D01*
X73256140Y-55402480D02*
X73146920Y-55293260D01*
X77337920Y-59316620D02*
X78287880Y-59316620D01*
X105003600Y-63055500D02*
X114338100Y-72390000D01*
X114338100Y-72390000D02*
X114338100Y-72618600D01*
X114300000Y-70370700D02*
X114376200Y-70294500D01*
X114376200Y-70294500D02*
X114376200Y-68160900D01*
X114528600Y-65836800D02*
X114376200Y-65684400D01*
X114376200Y-65684400D02*
X114482880Y-62199520D01*
X114300000Y-60769500D02*
X114147600Y-60617100D01*
X114147600Y-60617100D02*
X114147600Y-58559700D01*
X114223800Y-56235600D02*
X114185700Y-56197500D01*
X114185700Y-56197500D02*
X114185700Y-54406800D01*
X114223800Y-52616100D02*
X114223800Y-51549300D01*
X103977440Y-55854600D02*
X104383840Y-55854600D01*
X103952040Y-55829200D02*
X103977440Y-55854600D01*
X98465640Y-70129400D02*
X98465640Y-69748400D01*
X98719640Y-70383400D02*
X98465640Y-70129400D01*
X61381640Y-76987400D02*
X62397640Y-76987400D01*
X61254640Y-77114400D02*
X61381640Y-76987400D01*
X89067640Y-67970400D02*
X89067640Y-68351400D01*
X89956640Y-67081400D02*
X89067640Y-67970400D01*
X131104640Y-86385400D02*
X131358640Y-86385400D01*
X107188000Y-114300000D02*
X107188000Y-113522760D01*
X97688400Y-81991200D02*
X97688400Y-84086700D01*
X97688400Y-84086700D02*
X97764600Y-84162900D01*
X92918280Y-81899760D02*
X93009720Y-81991200D01*
X93009720Y-81991200D02*
X97688400Y-81991200D01*
X97688400Y-81991200D02*
X99822000Y-81991200D01*
X96659700Y-73761600D02*
X98488500Y-73761600D01*
X143230600Y-98513900D02*
X143421100Y-98704400D01*
X143319500Y-96266000D02*
X143421100Y-96164400D01*
X143421100Y-96164400D02*
X143421100Y-96240600D01*
X143421100Y-96164400D02*
X143421100Y-96342200D01*
X84328000Y-138684000D02*
X84582000Y-138430000D01*
X143624300Y-101244400D02*
X143421100Y-101244400D01*
X143421100Y-101244400D02*
X143840200Y-101244400D01*
X143421100Y-101244400D02*
X143484600Y-101244400D01*
X143421100Y-101244400D02*
X143471900Y-101244400D01*
X143421100Y-101244400D02*
X143421100Y-101168200D01*
X111564420Y-118018560D02*
X111561880Y-117632480D01*
X111561880Y-117632480D02*
X111539020Y-117632480D01*
X111424720Y-103154480D02*
X111404400Y-102679500D01*
X111404400Y-102679500D02*
X111404400Y-98869500D01*
X109776260Y-87563960D02*
X107076240Y-84863940D01*
X107076240Y-84863940D02*
X107076240Y-80147160D01*
X107076240Y-80147160D02*
X107838240Y-79385160D01*
X111564420Y-118018560D02*
X111564420Y-121691400D01*
X109776260Y-88458040D02*
X109776260Y-87563960D01*
X109766100Y-88468200D02*
X109776260Y-88458040D01*
X109982000Y-123190000D02*
X109982000Y-122824240D01*
X109982000Y-122824240D02*
X111114840Y-121691400D01*
X111114840Y-121691400D02*
X111564420Y-121691400D01*
X118785640Y-121691400D02*
X119852440Y-122758200D01*
X111564420Y-121691400D02*
X118785640Y-121691400D01*
X109982000Y-123190000D02*
X109982000Y-123428760D01*
X109982000Y-123190000D02*
X109982000Y-123571000D01*
X109982000Y-123190000D02*
X109982000Y-122682000D01*
X109982000Y-123190000D02*
X109982000Y-123698000D01*
X143421100Y-106324400D02*
X143421100Y-106456480D01*
X84582000Y-123190000D02*
X84582000Y-122809000D01*
X82042000Y-123190000D02*
X82042000Y-121076720D01*
X84328000Y-118790720D02*
X89468960Y-118790720D01*
X82042000Y-121076720D02*
X84328000Y-118790720D01*
X143256000Y-103784400D02*
X143421100Y-103784400D01*
X82042000Y-123190000D02*
X82042000Y-122936000D01*
D25*
X139560300Y-137299700D02*
X140002260Y-137299700D01*
X140002260Y-137299700D02*
X142529560Y-139827000D01*
X149199600Y-141960600D02*
X149189440Y-141950440D01*
X149189440Y-141950440D02*
X149189440Y-138851640D01*
X149189440Y-125841760D02*
X147802600Y-125841760D01*
X147802600Y-125841760D02*
X147690840Y-125730000D01*
X149189440Y-123362720D02*
X149189440Y-125841760D01*
X149189440Y-125841760D02*
X149189440Y-138851640D01*
X149189440Y-138851640D02*
X149227540Y-138889740D01*
X142529560Y-139827000D02*
X146812000Y-139827000D01*
X146812000Y-139827000D02*
X148290280Y-139827000D01*
X148290280Y-139827000D02*
X149227540Y-138889740D01*
X149138640Y-138800840D02*
X149227540Y-138889740D01*
X149189440Y-120802400D02*
X137556240Y-120802400D01*
X137454640Y-120700800D02*
X137556240Y-120802400D01*
X99936300Y-120510300D02*
X99936300Y-114668300D01*
X100279200Y-120853200D02*
X99936300Y-120510300D01*
X99936300Y-114668300D02*
X99568000Y-114300000D01*
X58562240Y-139547600D02*
X58562240Y-134924800D01*
X58587640Y-139573000D02*
X58562240Y-139547600D01*
X145961100Y-98704400D02*
X148656040Y-98704400D01*
X148656040Y-98704400D02*
X149189440Y-99237800D01*
X149189440Y-123367800D02*
X149189440Y-123362720D01*
X149189440Y-123362720D02*
X149189440Y-120802400D01*
X149138640Y-123418600D02*
X149189440Y-123367800D01*
X149189440Y-120802400D02*
X149189440Y-99237800D01*
X149189440Y-99237800D02*
X149189440Y-88366600D01*
X149189440Y-88366600D02*
X148021040Y-87198200D01*
X145961100Y-98704400D02*
X146725640Y-98704400D01*
D24*
X99568000Y-114300000D02*
X99568000Y-114681000D01*
X112522000Y-138430000D02*
X112522000Y-144614900D01*
X58597800Y-105879900D02*
X63512700Y-105879900D01*
X51247040Y-112671860D02*
X58597800Y-105879900D01*
X51247040Y-140307060D02*
X51247040Y-112671860D01*
X52197000Y-140931900D02*
X51247040Y-140307060D01*
X60502800Y-140931900D02*
X52197000Y-140931900D01*
X68745100Y-149174200D02*
X60502800Y-140931900D01*
X107962700Y-149174200D02*
X68745100Y-149174200D01*
X112522000Y-144614900D02*
X107962700Y-149174200D01*
D25*
X145961100Y-101244400D02*
X145961100Y-101394260D01*
X145961100Y-101394260D02*
X147868640Y-103301800D01*
X146344640Y-109550200D02*
X146192240Y-109550200D01*
X147868640Y-108026200D02*
X146344640Y-109550200D01*
X147868640Y-103301800D02*
X147868640Y-108026200D01*
X112522000Y-138430000D02*
X112255300Y-138430000D01*
D24*
X102108000Y-114300000D02*
X102108000Y-122936000D01*
X102108000Y-122936000D02*
X102362000Y-123190000D01*
D25*
X102362000Y-114554000D02*
X102108000Y-114300000D01*
D24*
X104648000Y-114300000D02*
X104648000Y-122936000D01*
X104648000Y-122936000D02*
X104902000Y-123190000D01*
D25*
X104648000Y-122936000D02*
X104902000Y-123190000D01*
X137020300Y-137299700D02*
X137020300Y-138173460D01*
X137020300Y-138173460D02*
X134719060Y-140474700D01*
X126288800Y-140474700D02*
X134719060Y-140474700D01*
X126288800Y-140474700D02*
X126288800Y-140411200D01*
X144830800Y-131368800D02*
X145389600Y-131927600D01*
D24*
X76962000Y-123190000D02*
X76962000Y-126304040D01*
X76962000Y-126304040D02*
X73573640Y-129692400D01*
X58562240Y-129844800D02*
X58740040Y-129844800D01*
X79502000Y-123190000D02*
X79502000Y-126354840D01*
X79502000Y-126354840D02*
X77307440Y-128549400D01*
X59019440Y-127762000D02*
X58562240Y-127304800D01*
X107442000Y-123190000D02*
X107594400Y-123190000D01*
X107594400Y-123190000D02*
X109971840Y-120812560D01*
X109971840Y-120812560D02*
X109971840Y-117655340D01*
X109943900Y-102958900D02*
X109999780Y-102903020D01*
X109999780Y-102903020D02*
X109999780Y-97510600D01*
X108013500Y-87363300D02*
X104927400Y-84277200D01*
X104927400Y-84277200D02*
X104927400Y-79781400D01*
X110784640Y-86131400D02*
X110911640Y-86258400D01*
X109260640Y-86131400D02*
X110784640Y-86131400D01*
X108625640Y-85496400D02*
X109260640Y-86131400D01*
X108625640Y-82448400D02*
X108625640Y-85496400D01*
X76024740Y-103426260D02*
X75719940Y-102885240D01*
X75719940Y-102885240D02*
X71688960Y-100390960D01*
X71688960Y-100390960D02*
X71666100Y-100390960D01*
X145961100Y-103784400D02*
X145961100Y-104127300D01*
X112522000Y-123190000D02*
X112522000Y-122834400D01*
X61610240Y-131699000D02*
X61051440Y-131140200D01*
X61051440Y-131140200D02*
X57495440Y-131140200D01*
X57495440Y-131140200D02*
X56250840Y-132384800D01*
X56250840Y-132384800D02*
X56022240Y-132384800D01*
X92202000Y-123190000D02*
X92202000Y-123698000D01*
X87122000Y-123190000D02*
X87122000Y-124907040D01*
X87122000Y-124907040D02*
X85079840Y-126949200D01*
X58562240Y-124764800D02*
X58689240Y-124764800D01*
X89662000Y-123190000D02*
X89662000Y-124449840D01*
X89662000Y-124449840D02*
X88026240Y-126161800D01*
X128879600Y-133324600D02*
X128879600Y-132613400D01*
X115062000Y-123190000D02*
X115062000Y-124495560D01*
X120843040Y-130276600D02*
X124500640Y-130276600D01*
X115062000Y-124495560D02*
X120843040Y-130276600D01*
X105135680Y-52120800D02*
X105095040Y-52161440D01*
X105095040Y-52161440D02*
X102270560Y-52161440D01*
X126349760Y-68559680D02*
X124642880Y-68559680D01*
X90162380Y-74068940D02*
X91084400Y-74990960D01*
X91084400Y-74990960D02*
X99382580Y-74990960D01*
X99382580Y-74990960D02*
X100276660Y-75885040D01*
X100276660Y-75885040D02*
X100276660Y-76220320D01*
X125897640Y-89687400D02*
X121325640Y-89687400D01*
X133238240Y-79674720D02*
X134680960Y-79674720D01*
X132933440Y-79979520D02*
X133238240Y-79674720D01*
D25*
G36*
X51688680Y-141704711D02*
X51770027Y-141737718D01*
X51843018Y-141786489D01*
X51935621Y-141804909D01*
X52023115Y-141840410D01*
X52110902Y-141839774D01*
X52197000Y-141856900D01*
X60119652Y-141856900D01*
X67437753Y-149175000D01*
X55515848Y-149175000D01*
X56229309Y-148461539D01*
X55914769Y-148146999D01*
X56224618Y-147797737D01*
X56282223Y-146550946D01*
X57217518Y-146550946D01*
X57640160Y-147573818D01*
X58422066Y-148357090D01*
X59444198Y-148781516D01*
X60550946Y-148782482D01*
X61573818Y-148359840D01*
X62357090Y-147577934D01*
X62781516Y-146555802D01*
X62782482Y-145449054D01*
X62359840Y-144426182D01*
X61577934Y-143642910D01*
X60555802Y-143218484D01*
X59449054Y-143217518D01*
X58426182Y-143640160D01*
X57642910Y-144422066D01*
X57218484Y-145444198D01*
X57217518Y-146550946D01*
X56282223Y-146550946D01*
X56284439Y-146503004D01*
X56224618Y-146202263D01*
X55914768Y-145852999D01*
X54767767Y-147000000D01*
X54781910Y-147014143D01*
X53014143Y-148781910D01*
X53000000Y-148767767D01*
X52985858Y-148781910D01*
X51218091Y-147014143D01*
X51232233Y-147000000D01*
X51218091Y-146985858D01*
X52985858Y-145218091D01*
X53000000Y-145232233D01*
X54147001Y-144085232D01*
X53797737Y-143775382D01*
X52503004Y-143715561D01*
X52202263Y-143775382D01*
X51853001Y-144085231D01*
X51538461Y-143770691D01*
X50825000Y-144484152D01*
X50825000Y-141136621D01*
X51688680Y-141704711D01*
X51688680Y-141704711D01*
G37*
X51688680Y-141704711D02*
X51770027Y-141737718D01*
X51843018Y-141786489D01*
X51935621Y-141804909D01*
X52023115Y-141840410D01*
X52110902Y-141839774D01*
X52197000Y-141856900D01*
X60119652Y-141856900D01*
X67437753Y-149175000D01*
X55515848Y-149175000D01*
X56229309Y-148461539D01*
X55914769Y-148146999D01*
X56224618Y-147797737D01*
X56282223Y-146550946D01*
X57217518Y-146550946D01*
X57640160Y-147573818D01*
X58422066Y-148357090D01*
X59444198Y-148781516D01*
X60550946Y-148782482D01*
X61573818Y-148359840D01*
X62357090Y-147577934D01*
X62781516Y-146555802D01*
X62782482Y-145449054D01*
X62359840Y-144426182D01*
X61577934Y-143642910D01*
X60555802Y-143218484D01*
X59449054Y-143217518D01*
X58426182Y-143640160D01*
X57642910Y-144422066D01*
X57218484Y-145444198D01*
X57217518Y-146550946D01*
X56282223Y-146550946D01*
X56284439Y-146503004D01*
X56224618Y-146202263D01*
X55914768Y-145852999D01*
X54767767Y-147000000D01*
X54781910Y-147014143D01*
X53014143Y-148781910D01*
X53000000Y-148767767D01*
X52985858Y-148781910D01*
X51218091Y-147014143D01*
X51232233Y-147000000D01*
X51218091Y-146985858D01*
X52985858Y-145218091D01*
X53000000Y-145232233D01*
X54147001Y-144085232D01*
X53797737Y-143775382D01*
X52503004Y-143715561D01*
X52202263Y-143775382D01*
X51853001Y-144085231D01*
X51538461Y-143770691D01*
X50825000Y-144484152D01*
X50825000Y-141136621D01*
X51688680Y-141704711D01*
G36*
X59052640Y-51798900D02*
X59242140Y-51988400D01*
X60185640Y-51988400D01*
X60185640Y-51968400D01*
X60935640Y-51968400D01*
X60935640Y-51988400D01*
X61879140Y-51988400D01*
X62068640Y-51798900D01*
X62068640Y-50825000D01*
X67552640Y-50825000D01*
X67552640Y-51798900D01*
X67742140Y-51988400D01*
X68685640Y-51988400D01*
X68685640Y-51968400D01*
X69435640Y-51968400D01*
X69435640Y-51988400D01*
X70379140Y-51988400D01*
X70568640Y-51798900D01*
X70568640Y-50825000D01*
X125509200Y-50825000D01*
X125509200Y-51786200D01*
X125698700Y-51975700D01*
X126642200Y-51975700D01*
X126642200Y-51955700D01*
X127392200Y-51955700D01*
X127392200Y-51975700D01*
X128335700Y-51975700D01*
X128525200Y-51786200D01*
X128525200Y-50825000D01*
X134009200Y-50825000D01*
X134009200Y-51786200D01*
X134198700Y-51975700D01*
X135142200Y-51975700D01*
X135142200Y-51955700D01*
X135892200Y-51955700D01*
X135892200Y-51975700D01*
X136835700Y-51975700D01*
X137025200Y-51786200D01*
X137025200Y-50825000D01*
X144484152Y-50825000D01*
X143770691Y-51538461D01*
X144085231Y-51853001D01*
X143775382Y-52202263D01*
X143715561Y-53496996D01*
X143775382Y-53797737D01*
X144085232Y-54147001D01*
X145232233Y-53000000D01*
X145218091Y-52985858D01*
X146985858Y-51218091D01*
X147000000Y-51232233D01*
X147014143Y-51218091D01*
X148781910Y-52985858D01*
X148767767Y-53000000D01*
X148781910Y-53014143D01*
X147014143Y-54781910D01*
X147000000Y-54767767D01*
X145852999Y-55914768D01*
X146202263Y-56224618D01*
X147496996Y-56284439D01*
X147797737Y-56224618D01*
X148146999Y-55914769D01*
X148461539Y-56229309D01*
X149175000Y-55515848D01*
X149175000Y-86937946D01*
X148961314Y-86724260D01*
X148911706Y-86604200D01*
X148616594Y-86308572D01*
X148230814Y-86148382D01*
X147813098Y-86148018D01*
X147427040Y-86307534D01*
X147131412Y-86602646D01*
X146971222Y-86988426D01*
X146970858Y-87406142D01*
X147130374Y-87792200D01*
X147425486Y-88087828D01*
X147546848Y-88138222D01*
X148189440Y-88780814D01*
X148189440Y-97704400D01*
X147211596Y-97704400D01*
X147211102Y-97703661D01*
X147211102Y-97148934D01*
X147426341Y-96826769D01*
X147314436Y-96589400D01*
X146386100Y-96589400D01*
X146386100Y-97014400D01*
X145536100Y-97014400D01*
X145536100Y-96589400D01*
X145111100Y-96589400D01*
X145111100Y-95739400D01*
X145536100Y-95739400D01*
X145536100Y-94803050D01*
X146386100Y-94803050D01*
X146386100Y-95739400D01*
X147314436Y-95739400D01*
X147426341Y-95502031D01*
X147133789Y-95064145D01*
X146623474Y-94699128D01*
X146386100Y-94803050D01*
X145536100Y-94803050D01*
X145298726Y-94699128D01*
X144997766Y-94914398D01*
X144904947Y-94914398D01*
X144819238Y-94781202D01*
X144568608Y-94609954D01*
X144271100Y-94549707D01*
X142571100Y-94549707D01*
X142293167Y-94602004D01*
X142037902Y-94766262D01*
X141866654Y-95016892D01*
X141806407Y-95314400D01*
X141806407Y-97014400D01*
X141858704Y-97292333D01*
X142022962Y-97547598D01*
X142196258Y-97666006D01*
X141911547Y-98092107D01*
X141789754Y-98704400D01*
X141911547Y-99316693D01*
X142258383Y-99835771D01*
X142465856Y-99974400D01*
X142258383Y-100113029D01*
X141911547Y-100632107D01*
X141789754Y-101244400D01*
X141911547Y-101856693D01*
X142258383Y-102375771D01*
X142465856Y-102514400D01*
X142258383Y-102653029D01*
X141911547Y-103172107D01*
X141789754Y-103784400D01*
X141911547Y-104396693D01*
X142258383Y-104915771D01*
X142465856Y-105054400D01*
X142258383Y-105193029D01*
X141911547Y-105712107D01*
X141789754Y-106324400D01*
X141911547Y-106936693D01*
X142258383Y-107455771D01*
X142777461Y-107802607D01*
X143389754Y-107924400D01*
X143452446Y-107924400D01*
X144064739Y-107802607D01*
X144583817Y-107455771D01*
X144691100Y-107295210D01*
X144798383Y-107455771D01*
X145317461Y-107802607D01*
X145929754Y-107924400D01*
X145992446Y-107924400D01*
X146604739Y-107802607D01*
X146825582Y-107655045D01*
X145978010Y-108502616D01*
X145598240Y-108659534D01*
X145302612Y-108954646D01*
X145142422Y-109340426D01*
X145142058Y-109758142D01*
X145301574Y-110144200D01*
X145596686Y-110439828D01*
X145982466Y-110600018D01*
X146400182Y-110600382D01*
X146685928Y-110482314D01*
X146727324Y-110474080D01*
X146762111Y-110450836D01*
X146786240Y-110440866D01*
X146804880Y-110422259D01*
X147051747Y-110257307D01*
X148189440Y-109119613D01*
X148189440Y-119802400D01*
X138029069Y-119802400D01*
X137664414Y-119650982D01*
X137246698Y-119650618D01*
X136860640Y-119810134D01*
X136565012Y-120105246D01*
X136404822Y-120491026D01*
X136404458Y-120908742D01*
X136563974Y-121294800D01*
X136859086Y-121590428D01*
X137152714Y-121712353D01*
X137173557Y-121726280D01*
X137197928Y-121731128D01*
X137244866Y-121750618D01*
X137296138Y-121750663D01*
X137556240Y-121802400D01*
X148189440Y-121802400D01*
X148189440Y-123163209D01*
X148138640Y-123418600D01*
X148189440Y-123673991D01*
X148189440Y-124800113D01*
X147900614Y-124680182D01*
X147482898Y-124679818D01*
X147096840Y-124839334D01*
X146801212Y-125134446D01*
X146641022Y-125520226D01*
X146640658Y-125937942D01*
X146800174Y-126324000D01*
X147095286Y-126619628D01*
X147375583Y-126736018D01*
X147419916Y-126765640D01*
X147471754Y-126775951D01*
X147481066Y-126779818D01*
X147491238Y-126779827D01*
X147802600Y-126841761D01*
X147802605Y-126841760D01*
X148189440Y-126841760D01*
X148189440Y-138513626D01*
X147876066Y-138827000D01*
X147577753Y-138827000D01*
X147647600Y-138658376D01*
X147647600Y-137947100D01*
X147458100Y-137757600D01*
X146139600Y-137757600D01*
X146139600Y-138277600D01*
X144639600Y-138277600D01*
X144639600Y-137757600D01*
X143321100Y-137757600D01*
X143131600Y-137947100D01*
X143131600Y-138658376D01*
X143201447Y-138827000D01*
X142943774Y-138827000D01*
X141104474Y-136987700D01*
X141038507Y-136656061D01*
X140691671Y-136136983D01*
X140172593Y-135790147D01*
X139560300Y-135668354D01*
X138948007Y-135790147D01*
X138520809Y-136075591D01*
X138418438Y-135916502D01*
X138167808Y-135745254D01*
X137870300Y-135685007D01*
X136170300Y-135685007D01*
X135892367Y-135737304D01*
X135637102Y-135901562D01*
X135465854Y-136152192D01*
X135405607Y-136449700D01*
X135405607Y-138149700D01*
X135441119Y-138338427D01*
X134304846Y-139474700D01*
X128803493Y-139474700D01*
X128803493Y-138724700D01*
X128751196Y-138446767D01*
X128586938Y-138191502D01*
X128336308Y-138020254D01*
X128038800Y-137960007D01*
X124538800Y-137960007D01*
X124260867Y-138012304D01*
X124005602Y-138176562D01*
X123834354Y-138427192D01*
X123774107Y-138724700D01*
X123774107Y-142224700D01*
X123826404Y-142502633D01*
X123990662Y-142757898D01*
X124241292Y-142929146D01*
X124538800Y-142989393D01*
X128038800Y-142989393D01*
X128316733Y-142937096D01*
X128474107Y-142835829D01*
X128474107Y-144088033D01*
X128468172Y-144082098D01*
X128189575Y-143966700D01*
X127353300Y-143966700D01*
X127163800Y-144156200D01*
X127163800Y-145599700D01*
X128588865Y-145599700D01*
X128690662Y-145757898D01*
X128941292Y-145929146D01*
X129238800Y-145989393D01*
X132738800Y-145989393D01*
X133016733Y-145937096D01*
X133271998Y-145772838D01*
X133443246Y-145522208D01*
X133503493Y-145224700D01*
X133503493Y-141724700D01*
X133456452Y-141474700D01*
X134719060Y-141474700D01*
X135101744Y-141398580D01*
X135426167Y-141181807D01*
X137693581Y-138914393D01*
X137870300Y-138914393D01*
X138148233Y-138862096D01*
X138403498Y-138697838D01*
X138521906Y-138524542D01*
X138948007Y-138809253D01*
X139560300Y-138931046D01*
X140110041Y-138821695D01*
X141822453Y-140534107D01*
X142146876Y-140750880D01*
X142529560Y-140827000D01*
X148189440Y-140827000D01*
X148189440Y-141655319D01*
X148149782Y-141750826D01*
X148149418Y-142168542D01*
X148308934Y-142554600D01*
X148604046Y-142850228D01*
X148989826Y-143010418D01*
X149175000Y-143010579D01*
X149175000Y-144484152D01*
X148461539Y-143770691D01*
X148146999Y-144085231D01*
X147797737Y-143775382D01*
X146503004Y-143715561D01*
X146202263Y-143775382D01*
X145852999Y-144085232D01*
X147000000Y-145232233D01*
X147014143Y-145218091D01*
X148781910Y-146985858D01*
X148767767Y-147000000D01*
X148781910Y-147014143D01*
X147014143Y-148781910D01*
X147000000Y-148767767D01*
X146985858Y-148781910D01*
X145218091Y-147014143D01*
X145232233Y-147000000D01*
X144085232Y-145852999D01*
X143775382Y-146202263D01*
X143715561Y-147496996D01*
X143775382Y-147797737D01*
X144085231Y-148146999D01*
X143770691Y-148461539D01*
X144484152Y-149175000D01*
X109270048Y-149175000D01*
X110905848Y-147539200D01*
X123780800Y-147539200D01*
X123780800Y-148375476D01*
X123896199Y-148654073D01*
X124109428Y-148867302D01*
X124388025Y-148982700D01*
X125224300Y-148982700D01*
X125413800Y-148793200D01*
X125413800Y-147349700D01*
X127163800Y-147349700D01*
X127163800Y-148793200D01*
X127353300Y-148982700D01*
X128189575Y-148982700D01*
X128468172Y-148867302D01*
X128681401Y-148654073D01*
X128796800Y-148375476D01*
X128796800Y-147539200D01*
X128607300Y-147349700D01*
X127163800Y-147349700D01*
X125413800Y-147349700D01*
X123970300Y-147349700D01*
X123780800Y-147539200D01*
X110905848Y-147539200D01*
X111894102Y-146550946D01*
X134217518Y-146550946D01*
X134640160Y-147573818D01*
X135422066Y-148357090D01*
X136444198Y-148781516D01*
X137550946Y-148782482D01*
X138573818Y-148359840D01*
X139357090Y-147577934D01*
X139781516Y-146555802D01*
X139782482Y-145449054D01*
X139359840Y-144426182D01*
X138577934Y-143642910D01*
X137555802Y-143218484D01*
X136449054Y-143217518D01*
X135426182Y-143640160D01*
X134642910Y-144422066D01*
X134218484Y-145444198D01*
X134217518Y-146550946D01*
X111894102Y-146550946D01*
X113176074Y-145268974D01*
X113376589Y-144968883D01*
X113447000Y-144614900D01*
X113447000Y-144573924D01*
X123780800Y-144573924D01*
X123780800Y-145410200D01*
X123970300Y-145599700D01*
X125413800Y-145599700D01*
X125413800Y-144156200D01*
X125224300Y-143966700D01*
X124388025Y-143966700D01*
X124109428Y-144082098D01*
X123896199Y-144295327D01*
X123780800Y-144573924D01*
X113447000Y-144573924D01*
X113447000Y-139643041D01*
X113467306Y-139622770D01*
X114408045Y-139622770D01*
X114487255Y-139869265D01*
X115081788Y-139979653D01*
X115636745Y-139869265D01*
X115715955Y-139622770D01*
X116948045Y-139622770D01*
X117027255Y-139869265D01*
X117621788Y-139979653D01*
X118176745Y-139869265D01*
X118255955Y-139622770D01*
X117602000Y-138968815D01*
X116948045Y-139622770D01*
X115715955Y-139622770D01*
X115062000Y-138968815D01*
X114408045Y-139622770D01*
X113467306Y-139622770D01*
X113803064Y-139287598D01*
X113900685Y-139052500D01*
X114523185Y-138430000D01*
X115600815Y-138430000D01*
X116159551Y-138988736D01*
X116162735Y-139004745D01*
X116181633Y-139010818D01*
X116254770Y-139083955D01*
X116332000Y-139059138D01*
X116409230Y-139083955D01*
X116482367Y-139010818D01*
X116501265Y-139004745D01*
X116504189Y-138988996D01*
X117063185Y-138430000D01*
X118140815Y-138430000D01*
X118794770Y-139083955D01*
X119041265Y-139004745D01*
X119151653Y-138410212D01*
X119041265Y-137855255D01*
X118794770Y-137776045D01*
X118140815Y-138430000D01*
X117063185Y-138430000D01*
X116504449Y-137871264D01*
X116501265Y-137855255D01*
X116482367Y-137849182D01*
X116409230Y-137776045D01*
X116332000Y-137800862D01*
X116254770Y-137776045D01*
X116181633Y-137849182D01*
X116162735Y-137855255D01*
X116159811Y-137871004D01*
X115600815Y-138430000D01*
X114523185Y-138430000D01*
X113900838Y-137807653D01*
X113804559Y-137574640D01*
X113467738Y-137237230D01*
X114408045Y-137237230D01*
X115062000Y-137891185D01*
X115715955Y-137237230D01*
X116948045Y-137237230D01*
X117602000Y-137891185D01*
X118255955Y-137237230D01*
X118176745Y-136990735D01*
X117582212Y-136880347D01*
X117027255Y-136990735D01*
X116948045Y-137237230D01*
X115715955Y-137237230D01*
X115636745Y-136990735D01*
X115042212Y-136880347D01*
X114487255Y-136990735D01*
X114408045Y-137237230D01*
X113467738Y-137237230D01*
X113379598Y-137148936D01*
X112824075Y-136918263D01*
X112222564Y-136917738D01*
X111666640Y-137147441D01*
X111251649Y-137561708D01*
X110839598Y-137148936D01*
X110284075Y-136918263D01*
X109682564Y-136917738D01*
X109126640Y-137147441D01*
X108711649Y-137561708D01*
X108299598Y-137148936D01*
X107744075Y-136918263D01*
X107142564Y-136917738D01*
X106586640Y-137147441D01*
X106171649Y-137561708D01*
X105759598Y-137148936D01*
X105204075Y-136918263D01*
X104602564Y-136917738D01*
X104046640Y-137147441D01*
X103631649Y-137561708D01*
X103219598Y-137148936D01*
X102664075Y-136918263D01*
X102062564Y-136917738D01*
X101506640Y-137147441D01*
X101091649Y-137561708D01*
X100679598Y-137148936D01*
X100124075Y-136918263D01*
X99522564Y-136917738D01*
X98966640Y-137147441D01*
X98551649Y-137561708D01*
X98139598Y-137148936D01*
X97584075Y-136918263D01*
X96982564Y-136917738D01*
X96426640Y-137147441D01*
X96011649Y-137561708D01*
X95599598Y-137148936D01*
X95044075Y-136918263D01*
X94442564Y-136917738D01*
X93886640Y-137147441D01*
X93471649Y-137561708D01*
X93059598Y-137148936D01*
X92504075Y-136918263D01*
X91902564Y-136917738D01*
X91346640Y-137147441D01*
X90931649Y-137561708D01*
X90519598Y-137148936D01*
X89964075Y-136918263D01*
X89362564Y-136917738D01*
X88806640Y-137147441D01*
X88391649Y-137561708D01*
X87979598Y-137148936D01*
X87424075Y-136918263D01*
X86822564Y-136917738D01*
X86266640Y-137147441D01*
X85851649Y-137561708D01*
X85439598Y-137148936D01*
X84884075Y-136918263D01*
X84282564Y-136917738D01*
X83726640Y-137147441D01*
X83311649Y-137561708D01*
X82899598Y-137148936D01*
X82344075Y-136918263D01*
X81742564Y-136917738D01*
X81186640Y-137147441D01*
X80771649Y-137561708D01*
X80359598Y-137148936D01*
X79804075Y-136918263D01*
X79202564Y-136917738D01*
X78646640Y-137147441D01*
X78231649Y-137561708D01*
X77819598Y-137148936D01*
X77264075Y-136918263D01*
X76662564Y-136917738D01*
X76106640Y-137147441D01*
X75691649Y-137561708D01*
X75279598Y-137148936D01*
X74724075Y-136918263D01*
X74122564Y-136917738D01*
X73566640Y-137147441D01*
X73151649Y-137561708D01*
X72739598Y-137148936D01*
X72184075Y-136918263D01*
X71582564Y-136917738D01*
X71026640Y-137147441D01*
X70611649Y-137561708D01*
X70199598Y-137148936D01*
X69644075Y-136918263D01*
X69042564Y-136917738D01*
X68486640Y-137147441D01*
X68060936Y-137572402D01*
X67830263Y-138127925D01*
X67829738Y-138729436D01*
X68059441Y-139285360D01*
X68484402Y-139711064D01*
X69039925Y-139941737D01*
X69641436Y-139942262D01*
X70197360Y-139712559D01*
X70612351Y-139298292D01*
X71024402Y-139711064D01*
X71579925Y-139941737D01*
X72181436Y-139942262D01*
X72737360Y-139712559D01*
X73152351Y-139298292D01*
X73564402Y-139711064D01*
X74119925Y-139941737D01*
X74721436Y-139942262D01*
X75277360Y-139712559D01*
X75692351Y-139298292D01*
X76104402Y-139711064D01*
X76659925Y-139941737D01*
X77261436Y-139942262D01*
X77817360Y-139712559D01*
X78232351Y-139298292D01*
X78644402Y-139711064D01*
X79199925Y-139941737D01*
X79801436Y-139942262D01*
X80357360Y-139712559D01*
X80772351Y-139298292D01*
X81184402Y-139711064D01*
X81739925Y-139941737D01*
X82341436Y-139942262D01*
X82897360Y-139712559D01*
X83312351Y-139298292D01*
X83724402Y-139711064D01*
X84279925Y-139941737D01*
X84881436Y-139942262D01*
X85437360Y-139712559D01*
X85852351Y-139298292D01*
X86264402Y-139711064D01*
X86819925Y-139941737D01*
X87421436Y-139942262D01*
X87977360Y-139712559D01*
X88392351Y-139298292D01*
X88804402Y-139711064D01*
X89359925Y-139941737D01*
X89961436Y-139942262D01*
X90517360Y-139712559D01*
X90932351Y-139298292D01*
X91344402Y-139711064D01*
X91899925Y-139941737D01*
X92501436Y-139942262D01*
X93057360Y-139712559D01*
X93472351Y-139298292D01*
X93884402Y-139711064D01*
X94439925Y-139941737D01*
X95041436Y-139942262D01*
X95597360Y-139712559D01*
X96012351Y-139298292D01*
X96424402Y-139711064D01*
X96979925Y-139941737D01*
X97581436Y-139942262D01*
X98137360Y-139712559D01*
X98552351Y-139298292D01*
X98964402Y-139711064D01*
X99519925Y-139941737D01*
X100121436Y-139942262D01*
X100677360Y-139712559D01*
X101092351Y-139298292D01*
X101504402Y-139711064D01*
X102059925Y-139941737D01*
X102661436Y-139942262D01*
X103217360Y-139712559D01*
X103632351Y-139298292D01*
X104044402Y-139711064D01*
X104599925Y-139941737D01*
X105201436Y-139942262D01*
X105757360Y-139712559D01*
X106172351Y-139298292D01*
X106584402Y-139711064D01*
X107139925Y-139941737D01*
X107741436Y-139942262D01*
X108297360Y-139712559D01*
X108712351Y-139298292D01*
X109124402Y-139711064D01*
X109679925Y-139941737D01*
X110281436Y-139942262D01*
X110837360Y-139712559D01*
X111252351Y-139298292D01*
X111597000Y-139643544D01*
X111597000Y-144231752D01*
X107579552Y-148249200D01*
X69128247Y-148249200D01*
X67604350Y-146725302D01*
X75759418Y-146725302D01*
X75918934Y-147111360D01*
X76214046Y-147406988D01*
X76584200Y-147560689D01*
X76765498Y-147681829D01*
X77119480Y-147752240D01*
X79212440Y-147752240D01*
X79566422Y-147681829D01*
X79866514Y-147481314D01*
X80067029Y-147181222D01*
X80137440Y-146827240D01*
X80067029Y-146473258D01*
X79866514Y-146173166D01*
X79566422Y-145972651D01*
X79212440Y-145902240D01*
X77679183Y-145902240D01*
X77405154Y-145627732D01*
X77019374Y-145467542D01*
X76601658Y-145467178D01*
X76215600Y-145626694D01*
X75919972Y-145921806D01*
X75759782Y-146307586D01*
X75759418Y-146725302D01*
X67604350Y-146725302D01*
X61156874Y-140277826D01*
X60856783Y-140077311D01*
X60502800Y-140006900D01*
X59544393Y-140006900D01*
X59637458Y-139782774D01*
X59637822Y-139365058D01*
X59562240Y-139182136D01*
X59562240Y-136511268D01*
X59690173Y-136487196D01*
X59945438Y-136322938D01*
X60116686Y-136072308D01*
X60176933Y-135774800D01*
X60176933Y-135356824D01*
X143131600Y-135356824D01*
X143131600Y-136068100D01*
X143321100Y-136257600D01*
X144639600Y-136257600D01*
X144639600Y-134939100D01*
X146139600Y-134939100D01*
X146139600Y-136257600D01*
X147458100Y-136257600D01*
X147647600Y-136068100D01*
X147647600Y-135356824D01*
X147532201Y-135078227D01*
X147318972Y-134864998D01*
X147040375Y-134749600D01*
X146329100Y-134749600D01*
X146139600Y-134939100D01*
X144639600Y-134939100D01*
X144450100Y-134749600D01*
X143738825Y-134749600D01*
X143460228Y-134864998D01*
X143246999Y-135078227D01*
X143131600Y-135356824D01*
X60176933Y-135356824D01*
X60176933Y-134074800D01*
X60151400Y-133939100D01*
X124731600Y-133939100D01*
X124731600Y-134325376D01*
X124846999Y-134603973D01*
X125060228Y-134817202D01*
X125338825Y-134932600D01*
X125725100Y-134932600D01*
X125914600Y-134743100D01*
X125914600Y-133749600D01*
X124921100Y-133749600D01*
X124731600Y-133939100D01*
X60151400Y-133939100D01*
X60124636Y-133796867D01*
X59960378Y-133541602D01*
X59787082Y-133423194D01*
X60071793Y-132997093D01*
X60193586Y-132384800D01*
X60130013Y-132065200D01*
X60625449Y-132065200D01*
X60719574Y-132293000D01*
X61014686Y-132588628D01*
X61400466Y-132748818D01*
X61818182Y-132749182D01*
X62204240Y-132589666D01*
X62470546Y-132323824D01*
X124731600Y-132323824D01*
X124731600Y-132710100D01*
X124921100Y-132899600D01*
X125914600Y-132899600D01*
X125914600Y-131906100D01*
X126764600Y-131906100D01*
X126764600Y-132899600D01*
X127189600Y-132899600D01*
X127189600Y-133749600D01*
X126764600Y-133749600D01*
X126764600Y-134743100D01*
X126954100Y-134932600D01*
X127340375Y-134932600D01*
X127618972Y-134817202D01*
X127832201Y-134603973D01*
X127844367Y-134574602D01*
X127878861Y-134574602D01*
X128267307Y-134834153D01*
X128879600Y-134955946D01*
X129491893Y-134834153D01*
X130010971Y-134487317D01*
X130357807Y-133968239D01*
X130479600Y-133355946D01*
X130479600Y-133293254D01*
X130357807Y-132680961D01*
X130152161Y-132373189D01*
X143139210Y-132373189D01*
X143481031Y-133200458D01*
X144113413Y-133833945D01*
X144940084Y-134177208D01*
X145835189Y-134177990D01*
X146662458Y-133836169D01*
X147295945Y-133203787D01*
X147639208Y-132377116D01*
X147639990Y-131482011D01*
X147298169Y-130654742D01*
X146665787Y-130021255D01*
X145839116Y-129677992D01*
X144944011Y-129677210D01*
X144116742Y-130019031D01*
X143483255Y-130651413D01*
X143139992Y-131478084D01*
X143139210Y-132373189D01*
X130152161Y-132373189D01*
X130010971Y-132161883D01*
X129491893Y-131815047D01*
X129243927Y-131765723D01*
X129233582Y-131758811D01*
X128879600Y-131688400D01*
X128525618Y-131758811D01*
X128515273Y-131765723D01*
X128267307Y-131815047D01*
X127878861Y-132074598D01*
X127844367Y-132074598D01*
X127832201Y-132045227D01*
X127618972Y-131831998D01*
X127340375Y-131716600D01*
X126954100Y-131716600D01*
X126764600Y-131906100D01*
X125914600Y-131906100D01*
X125725100Y-131716600D01*
X125338825Y-131716600D01*
X125060228Y-131831998D01*
X124846999Y-132045227D01*
X124731600Y-132323824D01*
X62470546Y-132323824D01*
X62499868Y-132294554D01*
X62660058Y-131908774D01*
X62660422Y-131491058D01*
X62500906Y-131105000D01*
X62205794Y-130809372D01*
X61903049Y-130683661D01*
X61705514Y-130486126D01*
X61405423Y-130285611D01*
X61051440Y-130215200D01*
X60119909Y-130215200D01*
X60193586Y-129844800D01*
X60071793Y-129232507D01*
X59724957Y-128713429D01*
X59517484Y-128574800D01*
X59724957Y-128436171D01*
X60071793Y-127917093D01*
X60193586Y-127304800D01*
X60071793Y-126692507D01*
X59724957Y-126173429D01*
X59517484Y-126034800D01*
X59724957Y-125896171D01*
X60071793Y-125377093D01*
X60193586Y-124764800D01*
X60071793Y-124152507D01*
X59724957Y-123633429D01*
X59509456Y-123489436D01*
X67829738Y-123489436D01*
X68059441Y-124045360D01*
X68484402Y-124471064D01*
X69039925Y-124701737D01*
X69641436Y-124702262D01*
X70197360Y-124472559D01*
X70287305Y-124382770D01*
X71228045Y-124382770D01*
X71307255Y-124629265D01*
X71901788Y-124739653D01*
X72456745Y-124629265D01*
X72535955Y-124382770D01*
X71882000Y-123728815D01*
X71228045Y-124382770D01*
X70287305Y-124382770D01*
X70623064Y-124047598D01*
X70720685Y-123812500D01*
X71343185Y-123190000D01*
X72420815Y-123190000D01*
X73043162Y-123812347D01*
X73139441Y-124045360D01*
X73564402Y-124471064D01*
X74119925Y-124701737D01*
X74721436Y-124702262D01*
X75277360Y-124472559D01*
X75692351Y-124058292D01*
X76037000Y-124403544D01*
X76037000Y-125920892D01*
X73280450Y-128677442D01*
X72979640Y-128801734D01*
X72684012Y-129096846D01*
X72523822Y-129482626D01*
X72523458Y-129900342D01*
X72682974Y-130286400D01*
X72978086Y-130582028D01*
X73363866Y-130742218D01*
X73781582Y-130742582D01*
X74167640Y-130583066D01*
X74463268Y-130287954D01*
X74588979Y-129985209D01*
X76273997Y-128300191D01*
X76257622Y-128339626D01*
X76257258Y-128757342D01*
X76416774Y-129143400D01*
X76711886Y-129439028D01*
X77097666Y-129599218D01*
X77515382Y-129599582D01*
X77901440Y-129440066D01*
X78197068Y-129144954D01*
X78322779Y-128842209D01*
X80156071Y-127008916D01*
X80156074Y-127008914D01*
X80356589Y-126708822D01*
X80374331Y-126619628D01*
X80427001Y-126354840D01*
X80427000Y-126354835D01*
X80427000Y-124403041D01*
X80772351Y-124058292D01*
X81184402Y-124471064D01*
X81739925Y-124701737D01*
X82341436Y-124702262D01*
X82897360Y-124472559D01*
X83312351Y-124058292D01*
X83724402Y-124471064D01*
X84279925Y-124701737D01*
X84881436Y-124702262D01*
X85437360Y-124472559D01*
X85852351Y-124058292D01*
X86197000Y-124403544D01*
X86197000Y-124523892D01*
X84786650Y-125934242D01*
X84485840Y-126058534D01*
X84190212Y-126353646D01*
X84030022Y-126739426D01*
X84029658Y-127157142D01*
X84189174Y-127543200D01*
X84484286Y-127838828D01*
X84870066Y-127999018D01*
X85287782Y-127999382D01*
X85673840Y-127839866D01*
X85969468Y-127544754D01*
X86095179Y-127242009D01*
X86976066Y-126361122D01*
X86976058Y-126369742D01*
X87135574Y-126755800D01*
X87430686Y-127051428D01*
X87816466Y-127211618D01*
X88234182Y-127211982D01*
X88620240Y-127052466D01*
X88915868Y-126757354D01*
X89053684Y-126425457D01*
X90330789Y-125088860D01*
X90422071Y-124945278D01*
X90516589Y-124803822D01*
X90518678Y-124793321D01*
X90524423Y-124784284D01*
X90553812Y-124616689D01*
X90587000Y-124449840D01*
X90587000Y-124403041D01*
X90932351Y-124058292D01*
X91344402Y-124471064D01*
X91899925Y-124701737D01*
X92501436Y-124702262D01*
X93057360Y-124472559D01*
X93472351Y-124058292D01*
X93884402Y-124471064D01*
X94439925Y-124701737D01*
X95041436Y-124702262D01*
X95597360Y-124472559D01*
X96012351Y-124058292D01*
X96424402Y-124471064D01*
X96979925Y-124701737D01*
X97581436Y-124702262D01*
X98137360Y-124472559D01*
X98552351Y-124058292D01*
X98964402Y-124471064D01*
X99519925Y-124701737D01*
X100121436Y-124702262D01*
X100677360Y-124472559D01*
X101092351Y-124058292D01*
X101504402Y-124471064D01*
X102059925Y-124701737D01*
X102661436Y-124702262D01*
X103217360Y-124472559D01*
X103632351Y-124058292D01*
X104044402Y-124471064D01*
X104599925Y-124701737D01*
X105201436Y-124702262D01*
X105757360Y-124472559D01*
X106172351Y-124058292D01*
X106584402Y-124471064D01*
X107139925Y-124701737D01*
X107741436Y-124702262D01*
X108297360Y-124472559D01*
X108712351Y-124058292D01*
X109124402Y-124471064D01*
X109679925Y-124701737D01*
X110281436Y-124702262D01*
X110837360Y-124472559D01*
X111252351Y-124058292D01*
X111664402Y-124471064D01*
X112219925Y-124701737D01*
X112821436Y-124702262D01*
X113377360Y-124472559D01*
X113792351Y-124058292D01*
X114137000Y-124403544D01*
X114137000Y-124495560D01*
X114207411Y-124849543D01*
X114407926Y-125149634D01*
X120188966Y-130930674D01*
X120489057Y-131131189D01*
X120843040Y-131201600D01*
X123990271Y-131201600D01*
X124290866Y-131326418D01*
X124708582Y-131326782D01*
X125094640Y-131167266D01*
X125390268Y-130872154D01*
X125550458Y-130486374D01*
X125550822Y-130068658D01*
X125391306Y-129682600D01*
X125096194Y-129386972D01*
X124710414Y-129226782D01*
X124292698Y-129226418D01*
X123989735Y-129351600D01*
X121226188Y-129351600D01*
X116132441Y-124257853D01*
X116332351Y-124058292D01*
X116744402Y-124471064D01*
X117299925Y-124701737D01*
X117901436Y-124702262D01*
X118457360Y-124472559D01*
X118883064Y-124047598D01*
X119110114Y-123500800D01*
X119256886Y-123647828D01*
X119642666Y-123808018D01*
X120060382Y-123808382D01*
X120446440Y-123648866D01*
X120742068Y-123353754D01*
X120902258Y-122967974D01*
X120902622Y-122550258D01*
X120743106Y-122164200D01*
X120447994Y-121868572D01*
X120145249Y-121742861D01*
X119439714Y-121037326D01*
X119139623Y-120836811D01*
X118785640Y-120766400D01*
X112489420Y-120766400D01*
X112489420Y-118081679D01*
X112588838Y-117842254D01*
X112589202Y-117424538D01*
X112429686Y-117038480D01*
X112134574Y-116742852D01*
X111748794Y-116582662D01*
X111331078Y-116582298D01*
X110945020Y-116741814D01*
X110743928Y-116942555D01*
X110567394Y-116765712D01*
X110181614Y-116605522D01*
X109763898Y-116605158D01*
X109377840Y-116764674D01*
X109082212Y-117059786D01*
X108922022Y-117445566D01*
X108921658Y-117863282D01*
X109046840Y-118166245D01*
X109046840Y-120429412D01*
X107782170Y-121694082D01*
X107744075Y-121678263D01*
X107142564Y-121677738D01*
X106586640Y-121907441D01*
X106171649Y-122321708D01*
X105759598Y-121908936D01*
X105573000Y-121831454D01*
X105573000Y-115600609D01*
X105648739Y-115550002D01*
X106203466Y-115550002D01*
X106525631Y-115765241D01*
X106763000Y-115653336D01*
X106763000Y-114725000D01*
X107613000Y-114725000D01*
X107613000Y-115653336D01*
X107850369Y-115765241D01*
X108288255Y-115472689D01*
X108653272Y-114962374D01*
X108549350Y-114725000D01*
X107613000Y-114725000D01*
X106763000Y-114725000D01*
X106338000Y-114725000D01*
X106338000Y-113875000D01*
X106763000Y-113875000D01*
X106763000Y-112946664D01*
X107613000Y-112946664D01*
X107613000Y-113875000D01*
X108549350Y-113875000D01*
X108653272Y-113637626D01*
X108288255Y-113127311D01*
X107850369Y-112834759D01*
X107613000Y-112946664D01*
X106763000Y-112946664D01*
X106525631Y-112834759D01*
X106203466Y-113049998D01*
X105648739Y-113049998D01*
X105260293Y-112790447D01*
X104648000Y-112668654D01*
X104035707Y-112790447D01*
X103516629Y-113137283D01*
X103378000Y-113344756D01*
X103239371Y-113137283D01*
X102720293Y-112790447D01*
X102108000Y-112668654D01*
X101495707Y-112790447D01*
X101068509Y-113075891D01*
X100966138Y-112916802D01*
X100715508Y-112745554D01*
X100418000Y-112685307D01*
X98718000Y-112685307D01*
X98440067Y-112737604D01*
X98184802Y-112901862D01*
X98013554Y-113152492D01*
X97953307Y-113450000D01*
X97953307Y-115150000D01*
X98005604Y-115427933D01*
X98169862Y-115683198D01*
X98420492Y-115854446D01*
X98718000Y-115914693D01*
X98936300Y-115914693D01*
X98936300Y-120510300D01*
X99012420Y-120892984D01*
X99229193Y-121217407D01*
X99338926Y-121327140D01*
X99388534Y-121447200D01*
X99618753Y-121677822D01*
X99522564Y-121677738D01*
X98966640Y-121907441D01*
X98551649Y-122321708D01*
X98139598Y-121908936D01*
X97584075Y-121678263D01*
X96982564Y-121677738D01*
X96426640Y-121907441D01*
X96011649Y-122321708D01*
X95599598Y-121908936D01*
X95044075Y-121678263D01*
X94442564Y-121677738D01*
X93886640Y-121907441D01*
X93471649Y-122321708D01*
X93059598Y-121908936D01*
X92504075Y-121678263D01*
X91902564Y-121677738D01*
X91346640Y-121907441D01*
X90931649Y-122321708D01*
X90519598Y-121908936D01*
X89964075Y-121678263D01*
X89362564Y-121677738D01*
X88806640Y-121907441D01*
X88391649Y-122321708D01*
X87979598Y-121908936D01*
X87424075Y-121678263D01*
X86822564Y-121677738D01*
X86266640Y-121907441D01*
X85851649Y-122321708D01*
X85439598Y-121908936D01*
X84884075Y-121678263D01*
X84282564Y-121677738D01*
X83726640Y-121907441D01*
X83311649Y-122321708D01*
X82967000Y-121976456D01*
X82967000Y-121459868D01*
X84711148Y-119715720D01*
X88958591Y-119715720D01*
X89259186Y-119840538D01*
X89676902Y-119840902D01*
X90062960Y-119681386D01*
X90358588Y-119386274D01*
X90518778Y-119000494D01*
X90519142Y-118582778D01*
X90359626Y-118196720D01*
X90064514Y-117901092D01*
X89678734Y-117740902D01*
X89261018Y-117740538D01*
X88958055Y-117865720D01*
X84328000Y-117865720D01*
X83974017Y-117936131D01*
X83673926Y-118136646D01*
X81387926Y-120422646D01*
X81187411Y-120722737D01*
X81161461Y-120853200D01*
X81117000Y-121076720D01*
X81117000Y-121976959D01*
X80771649Y-122321708D01*
X80359598Y-121908936D01*
X79804075Y-121678263D01*
X79202564Y-121677738D01*
X78646640Y-121907441D01*
X78231649Y-122321708D01*
X77819598Y-121908936D01*
X77264075Y-121678263D01*
X76662564Y-121677738D01*
X76106640Y-121907441D01*
X75691649Y-122321708D01*
X75279598Y-121908936D01*
X74724075Y-121678263D01*
X74122564Y-121677738D01*
X73566640Y-121907441D01*
X73140936Y-122332402D01*
X73043315Y-122567500D01*
X72420815Y-123190000D01*
X71343185Y-123190000D01*
X70720838Y-122567653D01*
X70624559Y-122334640D01*
X70287738Y-121997230D01*
X71228045Y-121997230D01*
X71882000Y-122651185D01*
X72535955Y-121997230D01*
X72456745Y-121750735D01*
X71862212Y-121640347D01*
X71307255Y-121750735D01*
X71228045Y-121997230D01*
X70287738Y-121997230D01*
X70199598Y-121908936D01*
X69644075Y-121678263D01*
X69042564Y-121677738D01*
X68486640Y-121907441D01*
X68060936Y-122332402D01*
X67830263Y-122887925D01*
X67829738Y-123489436D01*
X59509456Y-123489436D01*
X59205879Y-123286593D01*
X58593586Y-123164800D01*
X58530894Y-123164800D01*
X57918601Y-123286593D01*
X57399523Y-123633429D01*
X57292240Y-123793990D01*
X57184957Y-123633429D01*
X56665879Y-123286593D01*
X56053586Y-123164800D01*
X55990894Y-123164800D01*
X55378601Y-123286593D01*
X54859523Y-123633429D01*
X54512687Y-124152507D01*
X54390894Y-124764800D01*
X54512687Y-125377093D01*
X54859523Y-125896171D01*
X55066996Y-126034800D01*
X54859523Y-126173429D01*
X54512687Y-126692507D01*
X54390894Y-127304800D01*
X54512687Y-127917093D01*
X54772238Y-128305539D01*
X54772238Y-128860266D01*
X54556999Y-129182431D01*
X54668904Y-129419800D01*
X55597240Y-129419800D01*
X55597240Y-128994800D01*
X56447240Y-128994800D01*
X56447240Y-129419800D01*
X56872240Y-129419800D01*
X56872240Y-130269800D01*
X56447240Y-130269800D01*
X56447240Y-130694800D01*
X55597240Y-130694800D01*
X55597240Y-130269800D01*
X54668904Y-130269800D01*
X54556999Y-130507169D01*
X54772238Y-130829334D01*
X54772238Y-131384061D01*
X54512687Y-131772507D01*
X54390894Y-132384800D01*
X54512687Y-132997093D01*
X54859523Y-133516171D01*
X55066996Y-133654800D01*
X54859523Y-133793429D01*
X54512687Y-134312507D01*
X54390894Y-134924800D01*
X54512687Y-135537093D01*
X54859523Y-136056171D01*
X55378601Y-136403007D01*
X55990894Y-136524800D01*
X56053586Y-136524800D01*
X56665879Y-136403007D01*
X57057051Y-136141635D01*
X57164102Y-136307998D01*
X57414732Y-136479246D01*
X57562240Y-136509117D01*
X57562240Y-139304421D01*
X57537822Y-139363226D01*
X57537458Y-139780942D01*
X57630822Y-140006900D01*
X52473942Y-140006900D01*
X52172040Y-139808323D01*
X52172040Y-116015039D01*
X69579100Y-116015039D01*
X69806980Y-116566552D01*
X70228569Y-116988877D01*
X70779683Y-117217719D01*
X71376419Y-117218240D01*
X71927932Y-116990360D01*
X72350257Y-116568771D01*
X72579099Y-116017657D01*
X72579620Y-115420921D01*
X72351740Y-114869408D01*
X71930151Y-114447083D01*
X71379037Y-114218241D01*
X70782301Y-114217720D01*
X70230788Y-114445600D01*
X69808463Y-114867189D01*
X69579621Y-115418303D01*
X69579100Y-116015039D01*
X52172040Y-116015039D01*
X52172040Y-113076585D01*
X54273324Y-111135039D01*
X69579100Y-111135039D01*
X69806980Y-111686552D01*
X70228569Y-112108877D01*
X70779683Y-112337719D01*
X71376419Y-112338240D01*
X71927932Y-112110360D01*
X72350257Y-111688771D01*
X72579099Y-111137657D01*
X72579620Y-110540921D01*
X72351740Y-109989408D01*
X71930151Y-109567083D01*
X71379037Y-109338241D01*
X70782301Y-109337720D01*
X70230788Y-109565600D01*
X69808463Y-109987189D01*
X69579621Y-110538303D01*
X69579100Y-111135039D01*
X54273324Y-111135039D01*
X58959720Y-106804900D01*
X63002331Y-106804900D01*
X63302926Y-106929718D01*
X63720642Y-106930082D01*
X64106700Y-106770566D01*
X64402328Y-106475454D01*
X64562518Y-106089674D01*
X64562882Y-105671958D01*
X64403366Y-105285900D01*
X64108254Y-104990272D01*
X63722474Y-104830082D01*
X63304758Y-104829718D01*
X63001795Y-104954900D01*
X58597800Y-104954900D01*
X58438384Y-104986610D01*
X58277833Y-105012002D01*
X58262013Y-105021692D01*
X58243818Y-105025311D01*
X58108669Y-105115615D01*
X57970059Y-105200513D01*
X50825000Y-111802409D01*
X50825000Y-102550946D01*
X57217518Y-102550946D01*
X57640160Y-103573818D01*
X58422066Y-104357090D01*
X59444198Y-104781516D01*
X60550946Y-104782482D01*
X61573818Y-104359840D01*
X62357090Y-103577934D01*
X62443240Y-103370460D01*
X70408100Y-103370460D01*
X70408100Y-103581735D01*
X70523498Y-103860332D01*
X70736727Y-104073561D01*
X71015324Y-104188960D01*
X71226600Y-104188960D01*
X71416100Y-103999460D01*
X71416100Y-103180960D01*
X71916100Y-103180960D01*
X71916100Y-103999460D01*
X72105600Y-104188960D01*
X72316876Y-104188960D01*
X72595473Y-104073561D01*
X72808702Y-103860332D01*
X72924100Y-103581735D01*
X72924100Y-103370460D01*
X72734600Y-103180960D01*
X71916100Y-103180960D01*
X71416100Y-103180960D01*
X70597600Y-103180960D01*
X70408100Y-103370460D01*
X62443240Y-103370460D01*
X62781516Y-102555802D01*
X62782080Y-101908510D01*
X69145883Y-101908510D01*
X69335784Y-102368103D01*
X69687107Y-102720041D01*
X70146369Y-102910743D01*
X70643650Y-102911177D01*
X71103243Y-102721276D01*
X71143630Y-102680960D01*
X71416100Y-102680960D01*
X71416100Y-102408966D01*
X71455181Y-102369953D01*
X71645883Y-101910691D01*
X71646118Y-101640944D01*
X71913650Y-101641177D01*
X71936344Y-101631800D01*
X72066329Y-101712231D01*
X71916100Y-101862460D01*
X71916100Y-102680960D01*
X72734600Y-102680960D01*
X72924100Y-102491460D01*
X72924100Y-102280185D01*
X72903390Y-102230186D01*
X75030846Y-103546608D01*
X75218836Y-103880291D01*
X75453931Y-104154136D01*
X75775928Y-104317169D01*
X76135804Y-104344569D01*
X76478771Y-104232164D01*
X76752616Y-103997069D01*
X76915649Y-103675073D01*
X76943049Y-103315197D01*
X76894427Y-103166842D01*
X108893718Y-103166842D01*
X109053234Y-103552900D01*
X109348346Y-103848528D01*
X109734126Y-104008718D01*
X110151842Y-104009082D01*
X110537900Y-103849566D01*
X110586517Y-103801034D01*
X110829166Y-104044108D01*
X111214946Y-104204298D01*
X111632662Y-104204662D01*
X112018720Y-104045146D01*
X112314348Y-103750034D01*
X112474538Y-103364254D01*
X112474902Y-102946538D01*
X112329400Y-102594396D01*
X112329400Y-102550946D01*
X134217518Y-102550946D01*
X134640160Y-103573818D01*
X135422066Y-104357090D01*
X136444198Y-104781516D01*
X137550946Y-104782482D01*
X138573818Y-104359840D01*
X139357090Y-103577934D01*
X139781516Y-102555802D01*
X139782482Y-101449054D01*
X139359840Y-100426182D01*
X138577934Y-99642910D01*
X137555802Y-99218484D01*
X136449054Y-99217518D01*
X135426182Y-99640160D01*
X134642910Y-100422066D01*
X134218484Y-101444198D01*
X134217518Y-102550946D01*
X112329400Y-102550946D01*
X112329400Y-99379869D01*
X112454218Y-99079274D01*
X112454582Y-98661558D01*
X112295066Y-98275500D01*
X111999954Y-97979872D01*
X111614174Y-97819682D01*
X111196458Y-97819318D01*
X110969588Y-97913059D01*
X111049598Y-97720374D01*
X111049962Y-97302658D01*
X110890446Y-96916600D01*
X110595334Y-96620972D01*
X110209554Y-96460782D01*
X109791838Y-96460418D01*
X109405780Y-96619934D01*
X109110152Y-96915046D01*
X108949962Y-97300826D01*
X108949598Y-97718542D01*
X109074780Y-98021505D01*
X109074780Y-102342874D01*
X109054272Y-102363346D01*
X108894082Y-102749126D01*
X108893718Y-103166842D01*
X76894427Y-103166842D01*
X76830644Y-102972230D01*
X76525844Y-102431210D01*
X76492110Y-102391915D01*
X76470630Y-102344786D01*
X76375486Y-102256068D01*
X76290749Y-102157364D01*
X76244542Y-102133968D01*
X76206665Y-102098650D01*
X72871489Y-100034918D01*
X72726416Y-99683817D01*
X72375093Y-99331879D01*
X71915831Y-99141177D01*
X71418550Y-99140743D01*
X70958957Y-99330644D01*
X70607019Y-99681967D01*
X70416317Y-100141229D01*
X70416082Y-100410976D01*
X70148550Y-100410743D01*
X69688957Y-100600644D01*
X69337019Y-100951967D01*
X69146317Y-101411229D01*
X69145883Y-101908510D01*
X62782080Y-101908510D01*
X62782482Y-101449054D01*
X62359840Y-100426182D01*
X61577934Y-99642910D01*
X60555802Y-99218484D01*
X59449054Y-99217518D01*
X58426182Y-99640160D01*
X57642910Y-100422066D01*
X57218484Y-101444198D01*
X57217518Y-102550946D01*
X50825000Y-102550946D01*
X50825000Y-89895342D01*
X120275458Y-89895342D01*
X120434974Y-90281400D01*
X120730086Y-90577028D01*
X121115866Y-90737218D01*
X121533582Y-90737582D01*
X121836545Y-90612400D01*
X125387271Y-90612400D01*
X125687866Y-90737218D01*
X126105582Y-90737582D01*
X126491640Y-90578066D01*
X126787268Y-90282954D01*
X126947458Y-89897174D01*
X126947822Y-89479458D01*
X126788306Y-89093400D01*
X126493194Y-88797772D01*
X126107414Y-88637582D01*
X125689698Y-88637218D01*
X125386735Y-88762400D01*
X121836009Y-88762400D01*
X121535414Y-88637582D01*
X121117698Y-88637218D01*
X120731640Y-88796734D01*
X120436012Y-89091846D01*
X120275822Y-89477626D01*
X120275458Y-89895342D01*
X50825000Y-89895342D01*
X50825000Y-82107702D01*
X91868098Y-82107702D01*
X92027614Y-82493760D01*
X92322726Y-82789388D01*
X92708506Y-82949578D01*
X93126222Y-82949942D01*
X93207884Y-82916200D01*
X96763400Y-82916200D01*
X96763400Y-83836041D01*
X96714782Y-83953126D01*
X96714418Y-84370842D01*
X96873934Y-84756900D01*
X97169046Y-85052528D01*
X97554826Y-85212718D01*
X97972542Y-85213082D01*
X98358600Y-85053566D01*
X98654228Y-84758454D01*
X98814418Y-84372674D01*
X98814782Y-83954958D01*
X98655266Y-83568900D01*
X98613400Y-83526961D01*
X98613400Y-82916200D01*
X99311631Y-82916200D01*
X99612226Y-83041018D01*
X100029942Y-83041382D01*
X100416000Y-82881866D01*
X100711628Y-82586754D01*
X100871818Y-82200974D01*
X100872182Y-81783258D01*
X100712666Y-81397200D01*
X100417554Y-81101572D01*
X100031774Y-80941382D01*
X99614058Y-80941018D01*
X99311095Y-81066200D01*
X93569804Y-81066200D01*
X93513834Y-81010132D01*
X93128054Y-80849942D01*
X92710338Y-80849578D01*
X92324280Y-81009094D01*
X92028652Y-81304206D01*
X91868462Y-81689986D01*
X91868098Y-82107702D01*
X50825000Y-82107702D01*
X50825000Y-79989342D01*
X103877218Y-79989342D01*
X104002400Y-80292305D01*
X104002400Y-84277200D01*
X104072811Y-84631183D01*
X104273326Y-84931274D01*
X106998541Y-87656488D01*
X107122834Y-87957300D01*
X107417946Y-88252928D01*
X107803726Y-88413118D01*
X108221442Y-88413482D01*
X108607500Y-88253966D01*
X108796460Y-88065336D01*
X108716282Y-88258426D01*
X108715918Y-88676142D01*
X108875434Y-89062200D01*
X109170546Y-89357828D01*
X109556326Y-89518018D01*
X109974042Y-89518382D01*
X110360100Y-89358866D01*
X110655728Y-89063754D01*
X110815918Y-88677974D01*
X110816282Y-88260258D01*
X110701260Y-87981884D01*
X110701260Y-87563960D01*
X110672303Y-87418382D01*
X110645756Y-87284919D01*
X110701866Y-87308218D01*
X111119582Y-87308582D01*
X111505640Y-87149066D01*
X111801268Y-86853954D01*
X111961458Y-86468174D01*
X111961822Y-86050458D01*
X111802306Y-85664400D01*
X111588622Y-85450342D01*
X118624458Y-85450342D01*
X118783974Y-85836400D01*
X119079086Y-86132028D01*
X119381832Y-86257739D01*
X119655564Y-86531471D01*
X119655566Y-86531474D01*
X119817089Y-86639400D01*
X119955658Y-86731989D01*
X120309640Y-86802401D01*
X120309645Y-86802400D01*
X128796314Y-86802400D01*
X128816974Y-86852400D01*
X129112086Y-87148028D01*
X129497866Y-87308218D01*
X129915582Y-87308582D01*
X130301640Y-87149066D01*
X130597268Y-86853954D01*
X130600013Y-86847342D01*
X134220058Y-86847342D01*
X134379574Y-87233400D01*
X134674686Y-87529028D01*
X135060466Y-87689218D01*
X135478182Y-87689582D01*
X135818029Y-87549160D01*
X136847751Y-87549160D01*
X137148346Y-87673978D01*
X137566062Y-87674342D01*
X137952120Y-87514826D01*
X138247748Y-87219714D01*
X138407938Y-86833934D01*
X138408302Y-86416218D01*
X138248786Y-86030160D01*
X137953674Y-85734532D01*
X137567894Y-85574342D01*
X137150178Y-85573978D01*
X136847215Y-85699160D01*
X135743907Y-85699160D01*
X135480014Y-85589582D01*
X135062298Y-85589218D01*
X134676240Y-85748734D01*
X134380612Y-86043846D01*
X134220422Y-86429626D01*
X134220058Y-86847342D01*
X130600013Y-86847342D01*
X130757458Y-86468174D01*
X130757822Y-86050458D01*
X130598306Y-85664400D01*
X130303194Y-85368772D01*
X130000449Y-85243061D01*
X129980714Y-85223326D01*
X129680623Y-85022811D01*
X129326640Y-84952400D01*
X120692787Y-84952400D01*
X120689599Y-84949211D01*
X120565306Y-84648400D01*
X120270194Y-84352772D01*
X119884414Y-84192582D01*
X119466698Y-84192218D01*
X119080640Y-84351734D01*
X118785012Y-84646846D01*
X118624822Y-85032626D01*
X118624458Y-85450342D01*
X111588622Y-85450342D01*
X111507194Y-85368772D01*
X111121414Y-85208582D01*
X110794176Y-85208297D01*
X110784640Y-85206400D01*
X109643787Y-85206400D01*
X109550640Y-85113252D01*
X109550640Y-82958769D01*
X109675458Y-82658174D01*
X109675822Y-82240458D01*
X109516306Y-81854400D01*
X109221194Y-81558772D01*
X108835414Y-81398582D01*
X108417698Y-81398218D01*
X108031640Y-81557734D01*
X108001240Y-81588081D01*
X108001240Y-80530308D01*
X108131430Y-80400118D01*
X108432240Y-80275826D01*
X108520758Y-80187462D01*
X131883258Y-80187462D01*
X132042774Y-80573520D01*
X132337886Y-80869148D01*
X132723666Y-81029338D01*
X133141382Y-81029702D01*
X133527440Y-80870186D01*
X133798379Y-80599720D01*
X134170591Y-80599720D01*
X134471186Y-80724538D01*
X134888902Y-80724902D01*
X135274960Y-80565386D01*
X135570588Y-80270274D01*
X135730778Y-79884494D01*
X135731142Y-79466778D01*
X135571626Y-79080720D01*
X135276514Y-78785092D01*
X134890734Y-78624902D01*
X134473018Y-78624538D01*
X134170055Y-78749720D01*
X133238240Y-78749720D01*
X132884257Y-78820131D01*
X132713234Y-78934406D01*
X132339440Y-79088854D01*
X132043812Y-79383966D01*
X131883622Y-79769746D01*
X131883258Y-80187462D01*
X108520758Y-80187462D01*
X108727868Y-79980714D01*
X108888058Y-79594934D01*
X108888422Y-79177218D01*
X108728906Y-78791160D01*
X108433794Y-78495532D01*
X108048014Y-78335342D01*
X107630298Y-78334978D01*
X107244240Y-78494494D01*
X106948612Y-78789606D01*
X106822901Y-79092351D01*
X106422166Y-79493086D01*
X106221651Y-79793177D01*
X106203487Y-79884494D01*
X106151240Y-80147160D01*
X106151240Y-84192892D01*
X105852400Y-83894052D01*
X105852400Y-80291769D01*
X105977218Y-79991174D01*
X105977582Y-79573458D01*
X105818066Y-79187400D01*
X105522954Y-78891772D01*
X105137174Y-78731582D01*
X104719458Y-78731218D01*
X104333400Y-78890734D01*
X104037772Y-79185846D01*
X103877582Y-79571626D01*
X103877218Y-79989342D01*
X50825000Y-79989342D01*
X50825000Y-78524100D01*
X71122100Y-78524100D01*
X71192511Y-78878082D01*
X71393026Y-79178174D01*
X71693118Y-79378689D01*
X72047100Y-79449100D01*
X73609200Y-79449100D01*
X73963183Y-79378689D01*
X74134206Y-79264414D01*
X74508000Y-79109966D01*
X74803628Y-78814854D01*
X74963818Y-78429074D01*
X74964182Y-78011358D01*
X74804666Y-77625300D01*
X74509554Y-77329672D01*
X74123774Y-77169482D01*
X73706058Y-77169118D01*
X73320000Y-77328634D01*
X73049061Y-77599100D01*
X72047100Y-77599100D01*
X71693118Y-77669511D01*
X71393026Y-77870026D01*
X71192511Y-78170118D01*
X71122100Y-78524100D01*
X50825000Y-78524100D01*
X50825000Y-74723361D01*
X58737339Y-74723361D01*
X58931001Y-74998184D01*
X59824789Y-75087992D01*
X60276279Y-74998184D01*
X60469941Y-74723361D01*
X59603640Y-73857060D01*
X58737339Y-74723361D01*
X50825000Y-74723361D01*
X50825000Y-73017549D01*
X57312048Y-73017549D01*
X57401856Y-73469039D01*
X57676679Y-73662701D01*
X58542980Y-72796400D01*
X60664300Y-72796400D01*
X61530601Y-73662701D01*
X61805424Y-73469039D01*
X61828238Y-73241989D01*
X63703250Y-73241989D01*
X64045071Y-74069258D01*
X64677453Y-74702745D01*
X65504124Y-75046008D01*
X66399229Y-75046790D01*
X67226498Y-74704969D01*
X67655333Y-74276882D01*
X89112198Y-74276882D01*
X89271714Y-74662940D01*
X89566826Y-74958568D01*
X89869571Y-75084279D01*
X90430326Y-75645034D01*
X90730417Y-75845549D01*
X91084400Y-75915960D01*
X98999432Y-75915960D01*
X99226726Y-76143254D01*
X99226478Y-76428262D01*
X99385994Y-76814320D01*
X99681106Y-77109948D01*
X100066886Y-77270138D01*
X100484602Y-77270502D01*
X100870660Y-77110986D01*
X101166288Y-76815874D01*
X101253269Y-76606400D01*
X131652840Y-76606400D01*
X131723251Y-76960382D01*
X131923766Y-77260474D01*
X132223858Y-77460989D01*
X132577840Y-77531400D01*
X132831840Y-77531400D01*
X133185823Y-77460989D01*
X133393322Y-77322342D01*
X138182458Y-77322342D01*
X138341974Y-77708400D01*
X138637086Y-78004028D01*
X139022866Y-78164218D01*
X139440582Y-78164582D01*
X139743545Y-78039400D01*
X140500271Y-78039400D01*
X140800866Y-78164218D01*
X141218582Y-78164582D01*
X141604640Y-78005066D01*
X141900268Y-77709954D01*
X142060458Y-77324174D01*
X142060822Y-76906458D01*
X141901306Y-76520400D01*
X141606194Y-76224772D01*
X141220414Y-76064582D01*
X140802698Y-76064218D01*
X140499735Y-76189400D01*
X139743009Y-76189400D01*
X139442414Y-76064582D01*
X139024698Y-76064218D01*
X138638640Y-76223734D01*
X138343012Y-76518846D01*
X138182822Y-76904626D01*
X138182458Y-77322342D01*
X133393322Y-77322342D01*
X133485914Y-77260474D01*
X134191830Y-76554558D01*
X134492640Y-76430266D01*
X134788268Y-76135154D01*
X134948458Y-75749374D01*
X134948822Y-75331658D01*
X134789306Y-74945600D01*
X134494194Y-74649972D01*
X134108414Y-74489782D01*
X133690698Y-74489418D01*
X133304640Y-74648934D01*
X133009012Y-74944046D01*
X132883301Y-75246791D01*
X132416624Y-75713468D01*
X132223858Y-75751811D01*
X131923766Y-75952326D01*
X131723251Y-76252418D01*
X131652840Y-76606400D01*
X101253269Y-76606400D01*
X101326478Y-76430094D01*
X101326842Y-76012378D01*
X101167326Y-75626320D01*
X101145935Y-75604892D01*
X101131249Y-75531058D01*
X101131249Y-75531057D01*
X100930734Y-75230966D01*
X100036654Y-74336886D01*
X99736563Y-74136371D01*
X99490157Y-74087358D01*
X99538318Y-73971374D01*
X99538682Y-73553658D01*
X99379166Y-73167600D01*
X99084054Y-72871972D01*
X98698274Y-72711782D01*
X98280558Y-72711418D01*
X97977595Y-72836600D01*
X97170069Y-72836600D01*
X96869474Y-72711782D01*
X96451758Y-72711418D01*
X96065700Y-72870934D01*
X95770072Y-73166046D01*
X95609882Y-73551826D01*
X95609518Y-73969542D01*
X95649357Y-74065960D01*
X91467548Y-74065960D01*
X91177338Y-73775750D01*
X91053046Y-73474940D01*
X90757934Y-73179312D01*
X90372154Y-73019122D01*
X89954438Y-73018758D01*
X89568380Y-73178274D01*
X89272752Y-73473386D01*
X89112562Y-73859166D01*
X89112198Y-74276882D01*
X67655333Y-74276882D01*
X67859985Y-74072587D01*
X68203248Y-73245916D01*
X68204030Y-72350811D01*
X67862209Y-71523542D01*
X67229827Y-70890055D01*
X66403156Y-70546792D01*
X65508051Y-70546010D01*
X64680782Y-70887831D01*
X64047295Y-71520213D01*
X63704032Y-72346884D01*
X63703250Y-73241989D01*
X61828238Y-73241989D01*
X61895232Y-72575251D01*
X61805424Y-72123761D01*
X61530601Y-71930099D01*
X60664300Y-72796400D01*
X58542980Y-72796400D01*
X57676679Y-71930099D01*
X57401856Y-72123761D01*
X57312048Y-73017549D01*
X50825000Y-73017549D01*
X50825000Y-70506961D01*
X53997699Y-70506961D01*
X54191361Y-70781784D01*
X55085149Y-70871592D01*
X55095972Y-70869439D01*
X58737339Y-70869439D01*
X59603640Y-71735740D01*
X60469941Y-70869439D01*
X60276279Y-70594616D01*
X59382491Y-70504808D01*
X58931001Y-70594616D01*
X58737339Y-70869439D01*
X55095972Y-70869439D01*
X55536639Y-70781784D01*
X55730301Y-70506961D01*
X55433682Y-70210342D01*
X95383458Y-70210342D01*
X95542974Y-70596400D01*
X95838086Y-70892028D01*
X96223866Y-71052218D01*
X96641582Y-71052582D01*
X97027640Y-70893066D01*
X97323268Y-70597954D01*
X97448979Y-70295209D01*
X98976565Y-68767622D01*
X123592698Y-68767622D01*
X123752214Y-69153680D01*
X124047326Y-69449308D01*
X124433106Y-69609498D01*
X124850822Y-69609862D01*
X125153785Y-69484680D01*
X125839391Y-69484680D01*
X126139986Y-69609498D01*
X126557702Y-69609862D01*
X126943760Y-69450346D01*
X127239388Y-69155234D01*
X127399578Y-68769454D01*
X127399942Y-68351738D01*
X127240426Y-67965680D01*
X126945314Y-67670052D01*
X126559534Y-67509862D01*
X126141818Y-67509498D01*
X125838855Y-67634680D01*
X125153249Y-67634680D01*
X124852654Y-67509862D01*
X124434938Y-67509498D01*
X124048880Y-67669014D01*
X123753252Y-67964126D01*
X123593062Y-68349906D01*
X123592698Y-68767622D01*
X98976565Y-68767622D01*
X99627711Y-68116476D01*
X99627714Y-68116474D01*
X99828229Y-67816382D01*
X99898640Y-67462400D01*
X99898640Y-62176796D01*
X99999440Y-62135146D01*
X100295068Y-61840034D01*
X100455258Y-61454254D01*
X100455622Y-61036538D01*
X100434493Y-60985400D01*
X101574160Y-60985400D01*
X101644571Y-61339383D01*
X101845086Y-61639474D01*
X102145177Y-61839989D01*
X102499160Y-61910400D01*
X102853143Y-61839989D01*
X103153234Y-61639474D01*
X103193874Y-61598834D01*
X103394389Y-61298742D01*
X103464801Y-60944760D01*
X103394389Y-60590777D01*
X103193874Y-60290686D01*
X102893783Y-60090171D01*
X102539800Y-60019759D01*
X102185818Y-60090171D01*
X101885726Y-60290686D01*
X101845086Y-60331326D01*
X101644571Y-60631417D01*
X101574160Y-60985400D01*
X100434493Y-60985400D01*
X100296106Y-60650480D01*
X100000994Y-60354852D01*
X99615214Y-60194662D01*
X99197498Y-60194298D01*
X98811440Y-60353814D01*
X98515812Y-60648926D01*
X98390101Y-60951671D01*
X98319566Y-61022206D01*
X98119051Y-61322297D01*
X98064119Y-61598463D01*
X98048640Y-61676280D01*
X98048640Y-67079253D01*
X96140451Y-68987442D01*
X95839640Y-69111734D01*
X95544012Y-69406846D01*
X95383822Y-69792626D01*
X95383458Y-70210342D01*
X55433682Y-70210342D01*
X54864000Y-69640660D01*
X53997699Y-70506961D01*
X50825000Y-70506961D01*
X50825000Y-68801149D01*
X52572408Y-68801149D01*
X52662216Y-69252639D01*
X52937039Y-69446301D01*
X53803340Y-68580000D01*
X55924660Y-68580000D01*
X56790961Y-69446301D01*
X57065784Y-69252639D01*
X57155592Y-68358851D01*
X57065784Y-67907361D01*
X56790961Y-67713699D01*
X55924660Y-68580000D01*
X53803340Y-68580000D01*
X52937039Y-67713699D01*
X52662216Y-67907361D01*
X52572408Y-68801149D01*
X50825000Y-68801149D01*
X50825000Y-66653039D01*
X53997699Y-66653039D01*
X54864000Y-67519340D01*
X55180886Y-67202454D01*
X71237040Y-67202454D01*
X71237040Y-67265146D01*
X71358833Y-67877439D01*
X71705669Y-68396517D01*
X72224747Y-68743353D01*
X72837040Y-68865146D01*
X73449333Y-68743353D01*
X73968411Y-68396517D01*
X74107040Y-68189044D01*
X74245669Y-68396517D01*
X74764747Y-68743353D01*
X75377040Y-68865146D01*
X75989333Y-68743353D01*
X76416531Y-68457909D01*
X76518902Y-68616998D01*
X76769532Y-68788246D01*
X77067040Y-68848493D01*
X78767040Y-68848493D01*
X79044973Y-68796196D01*
X79300238Y-68631938D01*
X79471486Y-68381308D01*
X79531733Y-68083800D01*
X79531733Y-66383800D01*
X79479436Y-66105867D01*
X79315178Y-65850602D01*
X79064548Y-65679354D01*
X78767040Y-65619107D01*
X77067040Y-65619107D01*
X76789107Y-65671404D01*
X76533842Y-65835662D01*
X76415434Y-66008958D01*
X75989333Y-65724247D01*
X75377040Y-65602454D01*
X74764747Y-65724247D01*
X74245669Y-66071083D01*
X74107040Y-66278556D01*
X73968411Y-66071083D01*
X73449333Y-65724247D01*
X72837040Y-65602454D01*
X72224747Y-65724247D01*
X71705669Y-66071083D01*
X71358833Y-66590161D01*
X71237040Y-67202454D01*
X55180886Y-67202454D01*
X55730301Y-66653039D01*
X55536639Y-66378216D01*
X54642851Y-66288408D01*
X54191361Y-66378216D01*
X53997699Y-66653039D01*
X50825000Y-66653039D01*
X50825000Y-64148789D01*
X57177990Y-64148789D01*
X57519811Y-64976058D01*
X58152193Y-65609545D01*
X58978864Y-65952808D01*
X59873969Y-65953590D01*
X60701238Y-65611769D01*
X61334725Y-64979387D01*
X61668016Y-64176729D01*
X63576250Y-64176729D01*
X63918071Y-65003998D01*
X64550453Y-65637485D01*
X65377124Y-65980748D01*
X66272229Y-65981530D01*
X67099498Y-65639709D01*
X67732985Y-65007327D01*
X68076248Y-64180656D01*
X68077030Y-63285551D01*
X67735209Y-62458282D01*
X67102827Y-61824795D01*
X66276156Y-61481532D01*
X65381051Y-61480750D01*
X64553782Y-61822571D01*
X63920295Y-62454953D01*
X63577032Y-63281624D01*
X63576250Y-64176729D01*
X61668016Y-64176729D01*
X61677988Y-64152716D01*
X61678770Y-63257611D01*
X61336949Y-62430342D01*
X60704567Y-61796855D01*
X59877896Y-61453592D01*
X58982791Y-61452810D01*
X58155522Y-61794631D01*
X57522035Y-62427013D01*
X57178772Y-63253684D01*
X57177990Y-64148789D01*
X50825000Y-64148789D01*
X50825000Y-60223400D01*
X71624794Y-60223400D01*
X71746587Y-60835693D01*
X72093423Y-61354771D01*
X72612501Y-61701607D01*
X73224794Y-61823400D01*
X73287486Y-61823400D01*
X73899779Y-61701607D01*
X74418857Y-61354771D01*
X74765693Y-60835693D01*
X74887486Y-60223400D01*
X74765693Y-59611107D01*
X74506142Y-59222661D01*
X74506142Y-59188167D01*
X74535513Y-59176001D01*
X74748742Y-58962772D01*
X74864140Y-58684175D01*
X74864140Y-58297900D01*
X74674640Y-58108400D01*
X73681140Y-58108400D01*
X73681140Y-58533400D01*
X72831140Y-58533400D01*
X72831140Y-58108400D01*
X71837640Y-58108400D01*
X71648140Y-58297900D01*
X71648140Y-58684175D01*
X71763538Y-58962772D01*
X71976767Y-59176001D01*
X72006138Y-59188167D01*
X72006138Y-59222661D01*
X71746587Y-59611107D01*
X71624794Y-60223400D01*
X50825000Y-60223400D01*
X50825000Y-56682625D01*
X71648140Y-56682625D01*
X71648140Y-57068900D01*
X71837640Y-57258400D01*
X72831140Y-57258400D01*
X72831140Y-56264900D01*
X73681140Y-56264900D01*
X73681140Y-57258400D01*
X74674640Y-57258400D01*
X74864140Y-57068900D01*
X74864140Y-56682625D01*
X74748742Y-56404028D01*
X74535513Y-56190799D01*
X74256916Y-56075400D01*
X73870640Y-56075400D01*
X73681140Y-56264900D01*
X72831140Y-56264900D01*
X72641640Y-56075400D01*
X72255364Y-56075400D01*
X71976767Y-56190799D01*
X71763538Y-56404028D01*
X71648140Y-56682625D01*
X50825000Y-56682625D01*
X50825000Y-55515848D01*
X51538461Y-56229309D01*
X51853001Y-55914769D01*
X52202263Y-56224618D01*
X53496996Y-56284439D01*
X53797737Y-56224618D01*
X54147001Y-55914768D01*
X53000000Y-54767767D01*
X52985858Y-54781910D01*
X52881848Y-54677900D01*
X59052640Y-54677900D01*
X59052640Y-55929175D01*
X59168038Y-56207772D01*
X59381267Y-56421001D01*
X59659864Y-56536400D01*
X59996140Y-56536400D01*
X60185640Y-56346900D01*
X60185640Y-54488400D01*
X60935640Y-54488400D01*
X60935640Y-56346900D01*
X61125140Y-56536400D01*
X61461416Y-56536400D01*
X61740013Y-56421001D01*
X61953242Y-56207772D01*
X62068640Y-55929175D01*
X62068640Y-54677900D01*
X67552640Y-54677900D01*
X67552640Y-55929175D01*
X67668038Y-56207772D01*
X67881267Y-56421001D01*
X68159864Y-56536400D01*
X68496140Y-56536400D01*
X68685640Y-56346900D01*
X68685640Y-54488400D01*
X69435640Y-54488400D01*
X69435640Y-56346900D01*
X69625140Y-56536400D01*
X69961416Y-56536400D01*
X70240013Y-56421001D01*
X70453242Y-56207772D01*
X70568640Y-55929175D01*
X70568640Y-54677900D01*
X70555940Y-54665200D01*
X125509200Y-54665200D01*
X125509200Y-55916475D01*
X125624598Y-56195072D01*
X125837827Y-56408301D01*
X126116424Y-56523700D01*
X126452700Y-56523700D01*
X126642200Y-56334200D01*
X126642200Y-54475700D01*
X127392200Y-54475700D01*
X127392200Y-56334200D01*
X127581700Y-56523700D01*
X127917976Y-56523700D01*
X128196573Y-56408301D01*
X128409802Y-56195072D01*
X128525200Y-55916475D01*
X128525200Y-54665200D01*
X134009200Y-54665200D01*
X134009200Y-55916475D01*
X134124598Y-56195072D01*
X134337827Y-56408301D01*
X134616424Y-56523700D01*
X134952700Y-56523700D01*
X135142200Y-56334200D01*
X135142200Y-54475700D01*
X135892200Y-54475700D01*
X135892200Y-56334200D01*
X136081700Y-56523700D01*
X136417976Y-56523700D01*
X136696573Y-56408301D01*
X136909802Y-56195072D01*
X137025200Y-55916475D01*
X137025200Y-54665200D01*
X136835700Y-54475700D01*
X135892200Y-54475700D01*
X135142200Y-54475700D01*
X134198700Y-54475700D01*
X134009200Y-54665200D01*
X128525200Y-54665200D01*
X128335700Y-54475700D01*
X127392200Y-54475700D01*
X126642200Y-54475700D01*
X125698700Y-54475700D01*
X125509200Y-54665200D01*
X70555940Y-54665200D01*
X70379140Y-54488400D01*
X69435640Y-54488400D01*
X68685640Y-54488400D01*
X67742140Y-54488400D01*
X67552640Y-54677900D01*
X62068640Y-54677900D01*
X61879140Y-54488400D01*
X60935640Y-54488400D01*
X60185640Y-54488400D01*
X59242140Y-54488400D01*
X59052640Y-54677900D01*
X52881848Y-54677900D01*
X51218091Y-53014143D01*
X51232233Y-53000000D01*
X51218091Y-52985858D01*
X52985858Y-51218091D01*
X53000000Y-51232233D01*
X53014143Y-51218091D01*
X54781910Y-52985858D01*
X54767767Y-53000000D01*
X55914768Y-54147001D01*
X56224618Y-53797737D01*
X56284439Y-52503004D01*
X56257860Y-52369382D01*
X101220378Y-52369382D01*
X101379894Y-52755440D01*
X101675006Y-53051068D01*
X102060786Y-53211258D01*
X102478502Y-53211622D01*
X102781465Y-53086440D01*
X104723183Y-53086440D01*
X104925906Y-53170618D01*
X105343622Y-53170982D01*
X105729680Y-53011466D01*
X106025308Y-52716354D01*
X106185498Y-52330574D01*
X106185862Y-51912858D01*
X106026346Y-51526800D01*
X105731234Y-51231172D01*
X105345454Y-51070982D01*
X104927738Y-51070618D01*
X104541680Y-51230134D01*
X104535363Y-51236440D01*
X102780929Y-51236440D01*
X102480334Y-51111622D01*
X102062618Y-51111258D01*
X101676560Y-51270774D01*
X101380932Y-51565886D01*
X101220742Y-51951666D01*
X101220378Y-52369382D01*
X56257860Y-52369382D01*
X56224618Y-52202263D01*
X55914769Y-51853001D01*
X56229309Y-51538461D01*
X55515848Y-50825000D01*
X59052640Y-50825000D01*
X59052640Y-51798900D01*
X59052640Y-51798900D01*
G37*
X59052640Y-51798900D02*
X59242140Y-51988400D01*
X60185640Y-51988400D01*
X60185640Y-51968400D01*
X60935640Y-51968400D01*
X60935640Y-51988400D01*
X61879140Y-51988400D01*
X62068640Y-51798900D01*
X62068640Y-50825000D01*
X67552640Y-50825000D01*
X67552640Y-51798900D01*
X67742140Y-51988400D01*
X68685640Y-51988400D01*
X68685640Y-51968400D01*
X69435640Y-51968400D01*
X69435640Y-51988400D01*
X70379140Y-51988400D01*
X70568640Y-51798900D01*
X70568640Y-50825000D01*
X125509200Y-50825000D01*
X125509200Y-51786200D01*
X125698700Y-51975700D01*
X126642200Y-51975700D01*
X126642200Y-51955700D01*
X127392200Y-51955700D01*
X127392200Y-51975700D01*
X128335700Y-51975700D01*
X128525200Y-51786200D01*
X128525200Y-50825000D01*
X134009200Y-50825000D01*
X134009200Y-51786200D01*
X134198700Y-51975700D01*
X135142200Y-51975700D01*
X135142200Y-51955700D01*
X135892200Y-51955700D01*
X135892200Y-51975700D01*
X136835700Y-51975700D01*
X137025200Y-51786200D01*
X137025200Y-50825000D01*
X144484152Y-50825000D01*
X143770691Y-51538461D01*
X144085231Y-51853001D01*
X143775382Y-52202263D01*
X143715561Y-53496996D01*
X143775382Y-53797737D01*
X144085232Y-54147001D01*
X145232233Y-53000000D01*
X145218091Y-52985858D01*
X146985858Y-51218091D01*
X147000000Y-51232233D01*
X147014143Y-51218091D01*
X148781910Y-52985858D01*
X148767767Y-53000000D01*
X148781910Y-53014143D01*
X147014143Y-54781910D01*
X147000000Y-54767767D01*
X145852999Y-55914768D01*
X146202263Y-56224618D01*
X147496996Y-56284439D01*
X147797737Y-56224618D01*
X148146999Y-55914769D01*
X148461539Y-56229309D01*
X149175000Y-55515848D01*
X149175000Y-86937946D01*
X148961314Y-86724260D01*
X148911706Y-86604200D01*
X148616594Y-86308572D01*
X148230814Y-86148382D01*
X147813098Y-86148018D01*
X147427040Y-86307534D01*
X147131412Y-86602646D01*
X146971222Y-86988426D01*
X146970858Y-87406142D01*
X147130374Y-87792200D01*
X147425486Y-88087828D01*
X147546848Y-88138222D01*
X148189440Y-88780814D01*
X148189440Y-97704400D01*
X147211596Y-97704400D01*
X147211102Y-97703661D01*
X147211102Y-97148934D01*
X147426341Y-96826769D01*
X147314436Y-96589400D01*
X146386100Y-96589400D01*
X146386100Y-97014400D01*
X145536100Y-97014400D01*
X145536100Y-96589400D01*
X145111100Y-96589400D01*
X145111100Y-95739400D01*
X145536100Y-95739400D01*
X145536100Y-94803050D01*
X146386100Y-94803050D01*
X146386100Y-95739400D01*
X147314436Y-95739400D01*
X147426341Y-95502031D01*
X147133789Y-95064145D01*
X146623474Y-94699128D01*
X146386100Y-94803050D01*
X145536100Y-94803050D01*
X145298726Y-94699128D01*
X144997766Y-94914398D01*
X144904947Y-94914398D01*
X144819238Y-94781202D01*
X144568608Y-94609954D01*
X144271100Y-94549707D01*
X142571100Y-94549707D01*
X142293167Y-94602004D01*
X142037902Y-94766262D01*
X141866654Y-95016892D01*
X141806407Y-95314400D01*
X141806407Y-97014400D01*
X141858704Y-97292333D01*
X142022962Y-97547598D01*
X142196258Y-97666006D01*
X141911547Y-98092107D01*
X141789754Y-98704400D01*
X141911547Y-99316693D01*
X142258383Y-99835771D01*
X142465856Y-99974400D01*
X142258383Y-100113029D01*
X141911547Y-100632107D01*
X141789754Y-101244400D01*
X141911547Y-101856693D01*
X142258383Y-102375771D01*
X142465856Y-102514400D01*
X142258383Y-102653029D01*
X141911547Y-103172107D01*
X141789754Y-103784400D01*
X141911547Y-104396693D01*
X142258383Y-104915771D01*
X142465856Y-105054400D01*
X142258383Y-105193029D01*
X141911547Y-105712107D01*
X141789754Y-106324400D01*
X141911547Y-106936693D01*
X142258383Y-107455771D01*
X142777461Y-107802607D01*
X143389754Y-107924400D01*
X143452446Y-107924400D01*
X144064739Y-107802607D01*
X144583817Y-107455771D01*
X144691100Y-107295210D01*
X144798383Y-107455771D01*
X145317461Y-107802607D01*
X145929754Y-107924400D01*
X145992446Y-107924400D01*
X146604739Y-107802607D01*
X146825582Y-107655045D01*
X145978010Y-108502616D01*
X145598240Y-108659534D01*
X145302612Y-108954646D01*
X145142422Y-109340426D01*
X145142058Y-109758142D01*
X145301574Y-110144200D01*
X145596686Y-110439828D01*
X145982466Y-110600018D01*
X146400182Y-110600382D01*
X146685928Y-110482314D01*
X146727324Y-110474080D01*
X146762111Y-110450836D01*
X146786240Y-110440866D01*
X146804880Y-110422259D01*
X147051747Y-110257307D01*
X148189440Y-109119613D01*
X148189440Y-119802400D01*
X138029069Y-119802400D01*
X137664414Y-119650982D01*
X137246698Y-119650618D01*
X136860640Y-119810134D01*
X136565012Y-120105246D01*
X136404822Y-120491026D01*
X136404458Y-120908742D01*
X136563974Y-121294800D01*
X136859086Y-121590428D01*
X137152714Y-121712353D01*
X137173557Y-121726280D01*
X137197928Y-121731128D01*
X137244866Y-121750618D01*
X137296138Y-121750663D01*
X137556240Y-121802400D01*
X148189440Y-121802400D01*
X148189440Y-123163209D01*
X148138640Y-123418600D01*
X148189440Y-123673991D01*
X148189440Y-124800113D01*
X147900614Y-124680182D01*
X147482898Y-124679818D01*
X147096840Y-124839334D01*
X146801212Y-125134446D01*
X146641022Y-125520226D01*
X146640658Y-125937942D01*
X146800174Y-126324000D01*
X147095286Y-126619628D01*
X147375583Y-126736018D01*
X147419916Y-126765640D01*
X147471754Y-126775951D01*
X147481066Y-126779818D01*
X147491238Y-126779827D01*
X147802600Y-126841761D01*
X147802605Y-126841760D01*
X148189440Y-126841760D01*
X148189440Y-138513626D01*
X147876066Y-138827000D01*
X147577753Y-138827000D01*
X147647600Y-138658376D01*
X147647600Y-137947100D01*
X147458100Y-137757600D01*
X146139600Y-137757600D01*
X146139600Y-138277600D01*
X144639600Y-138277600D01*
X144639600Y-137757600D01*
X143321100Y-137757600D01*
X143131600Y-137947100D01*
X143131600Y-138658376D01*
X143201447Y-138827000D01*
X142943774Y-138827000D01*
X141104474Y-136987700D01*
X141038507Y-136656061D01*
X140691671Y-136136983D01*
X140172593Y-135790147D01*
X139560300Y-135668354D01*
X138948007Y-135790147D01*
X138520809Y-136075591D01*
X138418438Y-135916502D01*
X138167808Y-135745254D01*
X137870300Y-135685007D01*
X136170300Y-135685007D01*
X135892367Y-135737304D01*
X135637102Y-135901562D01*
X135465854Y-136152192D01*
X135405607Y-136449700D01*
X135405607Y-138149700D01*
X135441119Y-138338427D01*
X134304846Y-139474700D01*
X128803493Y-139474700D01*
X128803493Y-138724700D01*
X128751196Y-138446767D01*
X128586938Y-138191502D01*
X128336308Y-138020254D01*
X128038800Y-137960007D01*
X124538800Y-137960007D01*
X124260867Y-138012304D01*
X124005602Y-138176562D01*
X123834354Y-138427192D01*
X123774107Y-138724700D01*
X123774107Y-142224700D01*
X123826404Y-142502633D01*
X123990662Y-142757898D01*
X124241292Y-142929146D01*
X124538800Y-142989393D01*
X128038800Y-142989393D01*
X128316733Y-142937096D01*
X128474107Y-142835829D01*
X128474107Y-144088033D01*
X128468172Y-144082098D01*
X128189575Y-143966700D01*
X127353300Y-143966700D01*
X127163800Y-144156200D01*
X127163800Y-145599700D01*
X128588865Y-145599700D01*
X128690662Y-145757898D01*
X128941292Y-145929146D01*
X129238800Y-145989393D01*
X132738800Y-145989393D01*
X133016733Y-145937096D01*
X133271998Y-145772838D01*
X133443246Y-145522208D01*
X133503493Y-145224700D01*
X133503493Y-141724700D01*
X133456452Y-141474700D01*
X134719060Y-141474700D01*
X135101744Y-141398580D01*
X135426167Y-141181807D01*
X137693581Y-138914393D01*
X137870300Y-138914393D01*
X138148233Y-138862096D01*
X138403498Y-138697838D01*
X138521906Y-138524542D01*
X138948007Y-138809253D01*
X139560300Y-138931046D01*
X140110041Y-138821695D01*
X141822453Y-140534107D01*
X142146876Y-140750880D01*
X142529560Y-140827000D01*
X148189440Y-140827000D01*
X148189440Y-141655319D01*
X148149782Y-141750826D01*
X148149418Y-142168542D01*
X148308934Y-142554600D01*
X148604046Y-142850228D01*
X148989826Y-143010418D01*
X149175000Y-143010579D01*
X149175000Y-144484152D01*
X148461539Y-143770691D01*
X148146999Y-144085231D01*
X147797737Y-143775382D01*
X146503004Y-143715561D01*
X146202263Y-143775382D01*
X145852999Y-144085232D01*
X147000000Y-145232233D01*
X147014143Y-145218091D01*
X148781910Y-146985858D01*
X148767767Y-147000000D01*
X148781910Y-147014143D01*
X147014143Y-148781910D01*
X147000000Y-148767767D01*
X146985858Y-148781910D01*
X145218091Y-147014143D01*
X145232233Y-147000000D01*
X144085232Y-145852999D01*
X143775382Y-146202263D01*
X143715561Y-147496996D01*
X143775382Y-147797737D01*
X144085231Y-148146999D01*
X143770691Y-148461539D01*
X144484152Y-149175000D01*
X109270048Y-149175000D01*
X110905848Y-147539200D01*
X123780800Y-147539200D01*
X123780800Y-148375476D01*
X123896199Y-148654073D01*
X124109428Y-148867302D01*
X124388025Y-148982700D01*
X125224300Y-148982700D01*
X125413800Y-148793200D01*
X125413800Y-147349700D01*
X127163800Y-147349700D01*
X127163800Y-148793200D01*
X127353300Y-148982700D01*
X128189575Y-148982700D01*
X128468172Y-148867302D01*
X128681401Y-148654073D01*
X128796800Y-148375476D01*
X128796800Y-147539200D01*
X128607300Y-147349700D01*
X127163800Y-147349700D01*
X125413800Y-147349700D01*
X123970300Y-147349700D01*
X123780800Y-147539200D01*
X110905848Y-147539200D01*
X111894102Y-146550946D01*
X134217518Y-146550946D01*
X134640160Y-147573818D01*
X135422066Y-148357090D01*
X136444198Y-148781516D01*
X137550946Y-148782482D01*
X138573818Y-148359840D01*
X139357090Y-147577934D01*
X139781516Y-146555802D01*
X139782482Y-145449054D01*
X139359840Y-144426182D01*
X138577934Y-143642910D01*
X137555802Y-143218484D01*
X136449054Y-143217518D01*
X135426182Y-143640160D01*
X134642910Y-144422066D01*
X134218484Y-145444198D01*
X134217518Y-146550946D01*
X111894102Y-146550946D01*
X113176074Y-145268974D01*
X113376589Y-144968883D01*
X113447000Y-144614900D01*
X113447000Y-144573924D01*
X123780800Y-144573924D01*
X123780800Y-145410200D01*
X123970300Y-145599700D01*
X125413800Y-145599700D01*
X125413800Y-144156200D01*
X125224300Y-143966700D01*
X124388025Y-143966700D01*
X124109428Y-144082098D01*
X123896199Y-144295327D01*
X123780800Y-144573924D01*
X113447000Y-144573924D01*
X113447000Y-139643041D01*
X113467306Y-139622770D01*
X114408045Y-139622770D01*
X114487255Y-139869265D01*
X115081788Y-139979653D01*
X115636745Y-139869265D01*
X115715955Y-139622770D01*
X116948045Y-139622770D01*
X117027255Y-139869265D01*
X117621788Y-139979653D01*
X118176745Y-139869265D01*
X118255955Y-139622770D01*
X117602000Y-138968815D01*
X116948045Y-139622770D01*
X115715955Y-139622770D01*
X115062000Y-138968815D01*
X114408045Y-139622770D01*
X113467306Y-139622770D01*
X113803064Y-139287598D01*
X113900685Y-139052500D01*
X114523185Y-138430000D01*
X115600815Y-138430000D01*
X116159551Y-138988736D01*
X116162735Y-139004745D01*
X116181633Y-139010818D01*
X116254770Y-139083955D01*
X116332000Y-139059138D01*
X116409230Y-139083955D01*
X116482367Y-139010818D01*
X116501265Y-139004745D01*
X116504189Y-138988996D01*
X117063185Y-138430000D01*
X118140815Y-138430000D01*
X118794770Y-139083955D01*
X119041265Y-139004745D01*
X119151653Y-138410212D01*
X119041265Y-137855255D01*
X118794770Y-137776045D01*
X118140815Y-138430000D01*
X117063185Y-138430000D01*
X116504449Y-137871264D01*
X116501265Y-137855255D01*
X116482367Y-137849182D01*
X116409230Y-137776045D01*
X116332000Y-137800862D01*
X116254770Y-137776045D01*
X116181633Y-137849182D01*
X116162735Y-137855255D01*
X116159811Y-137871004D01*
X115600815Y-138430000D01*
X114523185Y-138430000D01*
X113900838Y-137807653D01*
X113804559Y-137574640D01*
X113467738Y-137237230D01*
X114408045Y-137237230D01*
X115062000Y-137891185D01*
X115715955Y-137237230D01*
X116948045Y-137237230D01*
X117602000Y-137891185D01*
X118255955Y-137237230D01*
X118176745Y-136990735D01*
X117582212Y-136880347D01*
X117027255Y-136990735D01*
X116948045Y-137237230D01*
X115715955Y-137237230D01*
X115636745Y-136990735D01*
X115042212Y-136880347D01*
X114487255Y-136990735D01*
X114408045Y-137237230D01*
X113467738Y-137237230D01*
X113379598Y-137148936D01*
X112824075Y-136918263D01*
X112222564Y-136917738D01*
X111666640Y-137147441D01*
X111251649Y-137561708D01*
X110839598Y-137148936D01*
X110284075Y-136918263D01*
X109682564Y-136917738D01*
X109126640Y-137147441D01*
X108711649Y-137561708D01*
X108299598Y-137148936D01*
X107744075Y-136918263D01*
X107142564Y-136917738D01*
X106586640Y-137147441D01*
X106171649Y-137561708D01*
X105759598Y-137148936D01*
X105204075Y-136918263D01*
X104602564Y-136917738D01*
X104046640Y-137147441D01*
X103631649Y-137561708D01*
X103219598Y-137148936D01*
X102664075Y-136918263D01*
X102062564Y-136917738D01*
X101506640Y-137147441D01*
X101091649Y-137561708D01*
X100679598Y-137148936D01*
X100124075Y-136918263D01*
X99522564Y-136917738D01*
X98966640Y-137147441D01*
X98551649Y-137561708D01*
X98139598Y-137148936D01*
X97584075Y-136918263D01*
X96982564Y-136917738D01*
X96426640Y-137147441D01*
X96011649Y-137561708D01*
X95599598Y-137148936D01*
X95044075Y-136918263D01*
X94442564Y-136917738D01*
X93886640Y-137147441D01*
X93471649Y-137561708D01*
X93059598Y-137148936D01*
X92504075Y-136918263D01*
X91902564Y-136917738D01*
X91346640Y-137147441D01*
X90931649Y-137561708D01*
X90519598Y-137148936D01*
X89964075Y-136918263D01*
X89362564Y-136917738D01*
X88806640Y-137147441D01*
X88391649Y-137561708D01*
X87979598Y-137148936D01*
X87424075Y-136918263D01*
X86822564Y-136917738D01*
X86266640Y-137147441D01*
X85851649Y-137561708D01*
X85439598Y-137148936D01*
X84884075Y-136918263D01*
X84282564Y-136917738D01*
X83726640Y-137147441D01*
X83311649Y-137561708D01*
X82899598Y-137148936D01*
X82344075Y-136918263D01*
X81742564Y-136917738D01*
X81186640Y-137147441D01*
X80771649Y-137561708D01*
X80359598Y-137148936D01*
X79804075Y-136918263D01*
X79202564Y-136917738D01*
X78646640Y-137147441D01*
X78231649Y-137561708D01*
X77819598Y-137148936D01*
X77264075Y-136918263D01*
X76662564Y-136917738D01*
X76106640Y-137147441D01*
X75691649Y-137561708D01*
X75279598Y-137148936D01*
X74724075Y-136918263D01*
X74122564Y-136917738D01*
X73566640Y-137147441D01*
X73151649Y-137561708D01*
X72739598Y-137148936D01*
X72184075Y-136918263D01*
X71582564Y-136917738D01*
X71026640Y-137147441D01*
X70611649Y-137561708D01*
X70199598Y-137148936D01*
X69644075Y-136918263D01*
X69042564Y-136917738D01*
X68486640Y-137147441D01*
X68060936Y-137572402D01*
X67830263Y-138127925D01*
X67829738Y-138729436D01*
X68059441Y-139285360D01*
X68484402Y-139711064D01*
X69039925Y-139941737D01*
X69641436Y-139942262D01*
X70197360Y-139712559D01*
X70612351Y-139298292D01*
X71024402Y-139711064D01*
X71579925Y-139941737D01*
X72181436Y-139942262D01*
X72737360Y-139712559D01*
X73152351Y-139298292D01*
X73564402Y-139711064D01*
X74119925Y-139941737D01*
X74721436Y-139942262D01*
X75277360Y-139712559D01*
X75692351Y-139298292D01*
X76104402Y-139711064D01*
X76659925Y-139941737D01*
X77261436Y-139942262D01*
X77817360Y-139712559D01*
X78232351Y-139298292D01*
X78644402Y-139711064D01*
X79199925Y-139941737D01*
X79801436Y-139942262D01*
X80357360Y-139712559D01*
X80772351Y-139298292D01*
X81184402Y-139711064D01*
X81739925Y-139941737D01*
X82341436Y-139942262D01*
X82897360Y-139712559D01*
X83312351Y-139298292D01*
X83724402Y-139711064D01*
X84279925Y-139941737D01*
X84881436Y-139942262D01*
X85437360Y-139712559D01*
X85852351Y-139298292D01*
X86264402Y-139711064D01*
X86819925Y-139941737D01*
X87421436Y-139942262D01*
X87977360Y-139712559D01*
X88392351Y-139298292D01*
X88804402Y-139711064D01*
X89359925Y-139941737D01*
X89961436Y-139942262D01*
X90517360Y-139712559D01*
X90932351Y-139298292D01*
X91344402Y-139711064D01*
X91899925Y-139941737D01*
X92501436Y-139942262D01*
X93057360Y-139712559D01*
X93472351Y-139298292D01*
X93884402Y-139711064D01*
X94439925Y-139941737D01*
X95041436Y-139942262D01*
X95597360Y-139712559D01*
X96012351Y-139298292D01*
X96424402Y-139711064D01*
X96979925Y-139941737D01*
X97581436Y-139942262D01*
X98137360Y-139712559D01*
X98552351Y-139298292D01*
X98964402Y-139711064D01*
X99519925Y-139941737D01*
X100121436Y-139942262D01*
X100677360Y-139712559D01*
X101092351Y-139298292D01*
X101504402Y-139711064D01*
X102059925Y-139941737D01*
X102661436Y-139942262D01*
X103217360Y-139712559D01*
X103632351Y-139298292D01*
X104044402Y-139711064D01*
X104599925Y-139941737D01*
X105201436Y-139942262D01*
X105757360Y-139712559D01*
X106172351Y-139298292D01*
X106584402Y-139711064D01*
X107139925Y-139941737D01*
X107741436Y-139942262D01*
X108297360Y-139712559D01*
X108712351Y-139298292D01*
X109124402Y-139711064D01*
X109679925Y-139941737D01*
X110281436Y-139942262D01*
X110837360Y-139712559D01*
X111252351Y-139298292D01*
X111597000Y-139643544D01*
X111597000Y-144231752D01*
X107579552Y-148249200D01*
X69128247Y-148249200D01*
X67604350Y-146725302D01*
X75759418Y-146725302D01*
X75918934Y-147111360D01*
X76214046Y-147406988D01*
X76584200Y-147560689D01*
X76765498Y-147681829D01*
X77119480Y-147752240D01*
X79212440Y-147752240D01*
X79566422Y-147681829D01*
X79866514Y-147481314D01*
X80067029Y-147181222D01*
X80137440Y-146827240D01*
X80067029Y-146473258D01*
X79866514Y-146173166D01*
X79566422Y-145972651D01*
X79212440Y-145902240D01*
X77679183Y-145902240D01*
X77405154Y-145627732D01*
X77019374Y-145467542D01*
X76601658Y-145467178D01*
X76215600Y-145626694D01*
X75919972Y-145921806D01*
X75759782Y-146307586D01*
X75759418Y-146725302D01*
X67604350Y-146725302D01*
X61156874Y-140277826D01*
X60856783Y-140077311D01*
X60502800Y-140006900D01*
X59544393Y-140006900D01*
X59637458Y-139782774D01*
X59637822Y-139365058D01*
X59562240Y-139182136D01*
X59562240Y-136511268D01*
X59690173Y-136487196D01*
X59945438Y-136322938D01*
X60116686Y-136072308D01*
X60176933Y-135774800D01*
X60176933Y-135356824D01*
X143131600Y-135356824D01*
X143131600Y-136068100D01*
X143321100Y-136257600D01*
X144639600Y-136257600D01*
X144639600Y-134939100D01*
X146139600Y-134939100D01*
X146139600Y-136257600D01*
X147458100Y-136257600D01*
X147647600Y-136068100D01*
X147647600Y-135356824D01*
X147532201Y-135078227D01*
X147318972Y-134864998D01*
X147040375Y-134749600D01*
X146329100Y-134749600D01*
X146139600Y-134939100D01*
X144639600Y-134939100D01*
X144450100Y-134749600D01*
X143738825Y-134749600D01*
X143460228Y-134864998D01*
X143246999Y-135078227D01*
X143131600Y-135356824D01*
X60176933Y-135356824D01*
X60176933Y-134074800D01*
X60151400Y-133939100D01*
X124731600Y-133939100D01*
X124731600Y-134325376D01*
X124846999Y-134603973D01*
X125060228Y-134817202D01*
X125338825Y-134932600D01*
X125725100Y-134932600D01*
X125914600Y-134743100D01*
X125914600Y-133749600D01*
X124921100Y-133749600D01*
X124731600Y-133939100D01*
X60151400Y-133939100D01*
X60124636Y-133796867D01*
X59960378Y-133541602D01*
X59787082Y-133423194D01*
X60071793Y-132997093D01*
X60193586Y-132384800D01*
X60130013Y-132065200D01*
X60625449Y-132065200D01*
X60719574Y-132293000D01*
X61014686Y-132588628D01*
X61400466Y-132748818D01*
X61818182Y-132749182D01*
X62204240Y-132589666D01*
X62470546Y-132323824D01*
X124731600Y-132323824D01*
X124731600Y-132710100D01*
X124921100Y-132899600D01*
X125914600Y-132899600D01*
X125914600Y-131906100D01*
X126764600Y-131906100D01*
X126764600Y-132899600D01*
X127189600Y-132899600D01*
X127189600Y-133749600D01*
X126764600Y-133749600D01*
X126764600Y-134743100D01*
X126954100Y-134932600D01*
X127340375Y-134932600D01*
X127618972Y-134817202D01*
X127832201Y-134603973D01*
X127844367Y-134574602D01*
X127878861Y-134574602D01*
X128267307Y-134834153D01*
X128879600Y-134955946D01*
X129491893Y-134834153D01*
X130010971Y-134487317D01*
X130357807Y-133968239D01*
X130479600Y-133355946D01*
X130479600Y-133293254D01*
X130357807Y-132680961D01*
X130152161Y-132373189D01*
X143139210Y-132373189D01*
X143481031Y-133200458D01*
X144113413Y-133833945D01*
X144940084Y-134177208D01*
X145835189Y-134177990D01*
X146662458Y-133836169D01*
X147295945Y-133203787D01*
X147639208Y-132377116D01*
X147639990Y-131482011D01*
X147298169Y-130654742D01*
X146665787Y-130021255D01*
X145839116Y-129677992D01*
X144944011Y-129677210D01*
X144116742Y-130019031D01*
X143483255Y-130651413D01*
X143139992Y-131478084D01*
X143139210Y-132373189D01*
X130152161Y-132373189D01*
X130010971Y-132161883D01*
X129491893Y-131815047D01*
X129243927Y-131765723D01*
X129233582Y-131758811D01*
X128879600Y-131688400D01*
X128525618Y-131758811D01*
X128515273Y-131765723D01*
X128267307Y-131815047D01*
X127878861Y-132074598D01*
X127844367Y-132074598D01*
X127832201Y-132045227D01*
X127618972Y-131831998D01*
X127340375Y-131716600D01*
X126954100Y-131716600D01*
X126764600Y-131906100D01*
X125914600Y-131906100D01*
X125725100Y-131716600D01*
X125338825Y-131716600D01*
X125060228Y-131831998D01*
X124846999Y-132045227D01*
X124731600Y-132323824D01*
X62470546Y-132323824D01*
X62499868Y-132294554D01*
X62660058Y-131908774D01*
X62660422Y-131491058D01*
X62500906Y-131105000D01*
X62205794Y-130809372D01*
X61903049Y-130683661D01*
X61705514Y-130486126D01*
X61405423Y-130285611D01*
X61051440Y-130215200D01*
X60119909Y-130215200D01*
X60193586Y-129844800D01*
X60071793Y-129232507D01*
X59724957Y-128713429D01*
X59517484Y-128574800D01*
X59724957Y-128436171D01*
X60071793Y-127917093D01*
X60193586Y-127304800D01*
X60071793Y-126692507D01*
X59724957Y-126173429D01*
X59517484Y-126034800D01*
X59724957Y-125896171D01*
X60071793Y-125377093D01*
X60193586Y-124764800D01*
X60071793Y-124152507D01*
X59724957Y-123633429D01*
X59509456Y-123489436D01*
X67829738Y-123489436D01*
X68059441Y-124045360D01*
X68484402Y-124471064D01*
X69039925Y-124701737D01*
X69641436Y-124702262D01*
X70197360Y-124472559D01*
X70287305Y-124382770D01*
X71228045Y-124382770D01*
X71307255Y-124629265D01*
X71901788Y-124739653D01*
X72456745Y-124629265D01*
X72535955Y-124382770D01*
X71882000Y-123728815D01*
X71228045Y-124382770D01*
X70287305Y-124382770D01*
X70623064Y-124047598D01*
X70720685Y-123812500D01*
X71343185Y-123190000D01*
X72420815Y-123190000D01*
X73043162Y-123812347D01*
X73139441Y-124045360D01*
X73564402Y-124471064D01*
X74119925Y-124701737D01*
X74721436Y-124702262D01*
X75277360Y-124472559D01*
X75692351Y-124058292D01*
X76037000Y-124403544D01*
X76037000Y-125920892D01*
X73280450Y-128677442D01*
X72979640Y-128801734D01*
X72684012Y-129096846D01*
X72523822Y-129482626D01*
X72523458Y-129900342D01*
X72682974Y-130286400D01*
X72978086Y-130582028D01*
X73363866Y-130742218D01*
X73781582Y-130742582D01*
X74167640Y-130583066D01*
X74463268Y-130287954D01*
X74588979Y-129985209D01*
X76273997Y-128300191D01*
X76257622Y-128339626D01*
X76257258Y-128757342D01*
X76416774Y-129143400D01*
X76711886Y-129439028D01*
X77097666Y-129599218D01*
X77515382Y-129599582D01*
X77901440Y-129440066D01*
X78197068Y-129144954D01*
X78322779Y-128842209D01*
X80156071Y-127008916D01*
X80156074Y-127008914D01*
X80356589Y-126708822D01*
X80374331Y-126619628D01*
X80427001Y-126354840D01*
X80427000Y-126354835D01*
X80427000Y-124403041D01*
X80772351Y-124058292D01*
X81184402Y-124471064D01*
X81739925Y-124701737D01*
X82341436Y-124702262D01*
X82897360Y-124472559D01*
X83312351Y-124058292D01*
X83724402Y-124471064D01*
X84279925Y-124701737D01*
X84881436Y-124702262D01*
X85437360Y-124472559D01*
X85852351Y-124058292D01*
X86197000Y-124403544D01*
X86197000Y-124523892D01*
X84786650Y-125934242D01*
X84485840Y-126058534D01*
X84190212Y-126353646D01*
X84030022Y-126739426D01*
X84029658Y-127157142D01*
X84189174Y-127543200D01*
X84484286Y-127838828D01*
X84870066Y-127999018D01*
X85287782Y-127999382D01*
X85673840Y-127839866D01*
X85969468Y-127544754D01*
X86095179Y-127242009D01*
X86976066Y-126361122D01*
X86976058Y-126369742D01*
X87135574Y-126755800D01*
X87430686Y-127051428D01*
X87816466Y-127211618D01*
X88234182Y-127211982D01*
X88620240Y-127052466D01*
X88915868Y-126757354D01*
X89053684Y-126425457D01*
X90330789Y-125088860D01*
X90422071Y-124945278D01*
X90516589Y-124803822D01*
X90518678Y-124793321D01*
X90524423Y-124784284D01*
X90553812Y-124616689D01*
X90587000Y-124449840D01*
X90587000Y-124403041D01*
X90932351Y-124058292D01*
X91344402Y-124471064D01*
X91899925Y-124701737D01*
X92501436Y-124702262D01*
X93057360Y-124472559D01*
X93472351Y-124058292D01*
X93884402Y-124471064D01*
X94439925Y-124701737D01*
X95041436Y-124702262D01*
X95597360Y-124472559D01*
X96012351Y-124058292D01*
X96424402Y-124471064D01*
X96979925Y-124701737D01*
X97581436Y-124702262D01*
X98137360Y-124472559D01*
X98552351Y-124058292D01*
X98964402Y-124471064D01*
X99519925Y-124701737D01*
X100121436Y-124702262D01*
X100677360Y-124472559D01*
X101092351Y-124058292D01*
X101504402Y-124471064D01*
X102059925Y-124701737D01*
X102661436Y-124702262D01*
X103217360Y-124472559D01*
X103632351Y-124058292D01*
X104044402Y-124471064D01*
X104599925Y-124701737D01*
X105201436Y-124702262D01*
X105757360Y-124472559D01*
X106172351Y-124058292D01*
X106584402Y-124471064D01*
X107139925Y-124701737D01*
X107741436Y-124702262D01*
X108297360Y-124472559D01*
X108712351Y-124058292D01*
X109124402Y-124471064D01*
X109679925Y-124701737D01*
X110281436Y-124702262D01*
X110837360Y-124472559D01*
X111252351Y-124058292D01*
X111664402Y-124471064D01*
X112219925Y-124701737D01*
X112821436Y-124702262D01*
X113377360Y-124472559D01*
X113792351Y-124058292D01*
X114137000Y-124403544D01*
X114137000Y-124495560D01*
X114207411Y-124849543D01*
X114407926Y-125149634D01*
X120188966Y-130930674D01*
X120489057Y-131131189D01*
X120843040Y-131201600D01*
X123990271Y-131201600D01*
X124290866Y-131326418D01*
X124708582Y-131326782D01*
X125094640Y-131167266D01*
X125390268Y-130872154D01*
X125550458Y-130486374D01*
X125550822Y-130068658D01*
X125391306Y-129682600D01*
X125096194Y-129386972D01*
X124710414Y-129226782D01*
X124292698Y-129226418D01*
X123989735Y-129351600D01*
X121226188Y-129351600D01*
X116132441Y-124257853D01*
X116332351Y-124058292D01*
X116744402Y-124471064D01*
X117299925Y-124701737D01*
X117901436Y-124702262D01*
X118457360Y-124472559D01*
X118883064Y-124047598D01*
X119110114Y-123500800D01*
X119256886Y-123647828D01*
X119642666Y-123808018D01*
X120060382Y-123808382D01*
X120446440Y-123648866D01*
X120742068Y-123353754D01*
X120902258Y-122967974D01*
X120902622Y-122550258D01*
X120743106Y-122164200D01*
X120447994Y-121868572D01*
X120145249Y-121742861D01*
X119439714Y-121037326D01*
X119139623Y-120836811D01*
X118785640Y-120766400D01*
X112489420Y-120766400D01*
X112489420Y-118081679D01*
X112588838Y-117842254D01*
X112589202Y-117424538D01*
X112429686Y-117038480D01*
X112134574Y-116742852D01*
X111748794Y-116582662D01*
X111331078Y-116582298D01*
X110945020Y-116741814D01*
X110743928Y-116942555D01*
X110567394Y-116765712D01*
X110181614Y-116605522D01*
X109763898Y-116605158D01*
X109377840Y-116764674D01*
X109082212Y-117059786D01*
X108922022Y-117445566D01*
X108921658Y-117863282D01*
X109046840Y-118166245D01*
X109046840Y-120429412D01*
X107782170Y-121694082D01*
X107744075Y-121678263D01*
X107142564Y-121677738D01*
X106586640Y-121907441D01*
X106171649Y-122321708D01*
X105759598Y-121908936D01*
X105573000Y-121831454D01*
X105573000Y-115600609D01*
X105648739Y-115550002D01*
X106203466Y-115550002D01*
X106525631Y-115765241D01*
X106763000Y-115653336D01*
X106763000Y-114725000D01*
X107613000Y-114725000D01*
X107613000Y-115653336D01*
X107850369Y-115765241D01*
X108288255Y-115472689D01*
X108653272Y-114962374D01*
X108549350Y-114725000D01*
X107613000Y-114725000D01*
X106763000Y-114725000D01*
X106338000Y-114725000D01*
X106338000Y-113875000D01*
X106763000Y-113875000D01*
X106763000Y-112946664D01*
X107613000Y-112946664D01*
X107613000Y-113875000D01*
X108549350Y-113875000D01*
X108653272Y-113637626D01*
X108288255Y-113127311D01*
X107850369Y-112834759D01*
X107613000Y-112946664D01*
X106763000Y-112946664D01*
X106525631Y-112834759D01*
X106203466Y-113049998D01*
X105648739Y-113049998D01*
X105260293Y-112790447D01*
X104648000Y-112668654D01*
X104035707Y-112790447D01*
X103516629Y-113137283D01*
X103378000Y-113344756D01*
X103239371Y-113137283D01*
X102720293Y-112790447D01*
X102108000Y-112668654D01*
X101495707Y-112790447D01*
X101068509Y-113075891D01*
X100966138Y-112916802D01*
X100715508Y-112745554D01*
X100418000Y-112685307D01*
X98718000Y-112685307D01*
X98440067Y-112737604D01*
X98184802Y-112901862D01*
X98013554Y-113152492D01*
X97953307Y-113450000D01*
X97953307Y-115150000D01*
X98005604Y-115427933D01*
X98169862Y-115683198D01*
X98420492Y-115854446D01*
X98718000Y-115914693D01*
X98936300Y-115914693D01*
X98936300Y-120510300D01*
X99012420Y-120892984D01*
X99229193Y-121217407D01*
X99338926Y-121327140D01*
X99388534Y-121447200D01*
X99618753Y-121677822D01*
X99522564Y-121677738D01*
X98966640Y-121907441D01*
X98551649Y-122321708D01*
X98139598Y-121908936D01*
X97584075Y-121678263D01*
X96982564Y-121677738D01*
X96426640Y-121907441D01*
X96011649Y-122321708D01*
X95599598Y-121908936D01*
X95044075Y-121678263D01*
X94442564Y-121677738D01*
X93886640Y-121907441D01*
X93471649Y-122321708D01*
X93059598Y-121908936D01*
X92504075Y-121678263D01*
X91902564Y-121677738D01*
X91346640Y-121907441D01*
X90931649Y-122321708D01*
X90519598Y-121908936D01*
X89964075Y-121678263D01*
X89362564Y-121677738D01*
X88806640Y-121907441D01*
X88391649Y-122321708D01*
X87979598Y-121908936D01*
X87424075Y-121678263D01*
X86822564Y-121677738D01*
X86266640Y-121907441D01*
X85851649Y-122321708D01*
X85439598Y-121908936D01*
X84884075Y-121678263D01*
X84282564Y-121677738D01*
X83726640Y-121907441D01*
X83311649Y-122321708D01*
X82967000Y-121976456D01*
X82967000Y-121459868D01*
X84711148Y-119715720D01*
X88958591Y-119715720D01*
X89259186Y-119840538D01*
X89676902Y-119840902D01*
X90062960Y-119681386D01*
X90358588Y-119386274D01*
X90518778Y-119000494D01*
X90519142Y-118582778D01*
X90359626Y-118196720D01*
X90064514Y-117901092D01*
X89678734Y-117740902D01*
X89261018Y-117740538D01*
X88958055Y-117865720D01*
X84328000Y-117865720D01*
X83974017Y-117936131D01*
X83673926Y-118136646D01*
X81387926Y-120422646D01*
X81187411Y-120722737D01*
X81161461Y-120853200D01*
X81117000Y-121076720D01*
X81117000Y-121976959D01*
X80771649Y-122321708D01*
X80359598Y-121908936D01*
X79804075Y-121678263D01*
X79202564Y-121677738D01*
X78646640Y-121907441D01*
X78231649Y-122321708D01*
X77819598Y-121908936D01*
X77264075Y-121678263D01*
X76662564Y-121677738D01*
X76106640Y-121907441D01*
X75691649Y-122321708D01*
X75279598Y-121908936D01*
X74724075Y-121678263D01*
X74122564Y-121677738D01*
X73566640Y-121907441D01*
X73140936Y-122332402D01*
X73043315Y-122567500D01*
X72420815Y-123190000D01*
X71343185Y-123190000D01*
X70720838Y-122567653D01*
X70624559Y-122334640D01*
X70287738Y-121997230D01*
X71228045Y-121997230D01*
X71882000Y-122651185D01*
X72535955Y-121997230D01*
X72456745Y-121750735D01*
X71862212Y-121640347D01*
X71307255Y-121750735D01*
X71228045Y-121997230D01*
X70287738Y-121997230D01*
X70199598Y-121908936D01*
X69644075Y-121678263D01*
X69042564Y-121677738D01*
X68486640Y-121907441D01*
X68060936Y-122332402D01*
X67830263Y-122887925D01*
X67829738Y-123489436D01*
X59509456Y-123489436D01*
X59205879Y-123286593D01*
X58593586Y-123164800D01*
X58530894Y-123164800D01*
X57918601Y-123286593D01*
X57399523Y-123633429D01*
X57292240Y-123793990D01*
X57184957Y-123633429D01*
X56665879Y-123286593D01*
X56053586Y-123164800D01*
X55990894Y-123164800D01*
X55378601Y-123286593D01*
X54859523Y-123633429D01*
X54512687Y-124152507D01*
X54390894Y-124764800D01*
X54512687Y-125377093D01*
X54859523Y-125896171D01*
X55066996Y-126034800D01*
X54859523Y-126173429D01*
X54512687Y-126692507D01*
X54390894Y-127304800D01*
X54512687Y-127917093D01*
X54772238Y-128305539D01*
X54772238Y-128860266D01*
X54556999Y-129182431D01*
X54668904Y-129419800D01*
X55597240Y-129419800D01*
X55597240Y-128994800D01*
X56447240Y-128994800D01*
X56447240Y-129419800D01*
X56872240Y-129419800D01*
X56872240Y-130269800D01*
X56447240Y-130269800D01*
X56447240Y-130694800D01*
X55597240Y-130694800D01*
X55597240Y-130269800D01*
X54668904Y-130269800D01*
X54556999Y-130507169D01*
X54772238Y-130829334D01*
X54772238Y-131384061D01*
X54512687Y-131772507D01*
X54390894Y-132384800D01*
X54512687Y-132997093D01*
X54859523Y-133516171D01*
X55066996Y-133654800D01*
X54859523Y-133793429D01*
X54512687Y-134312507D01*
X54390894Y-134924800D01*
X54512687Y-135537093D01*
X54859523Y-136056171D01*
X55378601Y-136403007D01*
X55990894Y-136524800D01*
X56053586Y-136524800D01*
X56665879Y-136403007D01*
X57057051Y-136141635D01*
X57164102Y-136307998D01*
X57414732Y-136479246D01*
X57562240Y-136509117D01*
X57562240Y-139304421D01*
X57537822Y-139363226D01*
X57537458Y-139780942D01*
X57630822Y-140006900D01*
X52473942Y-140006900D01*
X52172040Y-139808323D01*
X52172040Y-116015039D01*
X69579100Y-116015039D01*
X69806980Y-116566552D01*
X70228569Y-116988877D01*
X70779683Y-117217719D01*
X71376419Y-117218240D01*
X71927932Y-116990360D01*
X72350257Y-116568771D01*
X72579099Y-116017657D01*
X72579620Y-115420921D01*
X72351740Y-114869408D01*
X71930151Y-114447083D01*
X71379037Y-114218241D01*
X70782301Y-114217720D01*
X70230788Y-114445600D01*
X69808463Y-114867189D01*
X69579621Y-115418303D01*
X69579100Y-116015039D01*
X52172040Y-116015039D01*
X52172040Y-113076585D01*
X54273324Y-111135039D01*
X69579100Y-111135039D01*
X69806980Y-111686552D01*
X70228569Y-112108877D01*
X70779683Y-112337719D01*
X71376419Y-112338240D01*
X71927932Y-112110360D01*
X72350257Y-111688771D01*
X72579099Y-111137657D01*
X72579620Y-110540921D01*
X72351740Y-109989408D01*
X71930151Y-109567083D01*
X71379037Y-109338241D01*
X70782301Y-109337720D01*
X70230788Y-109565600D01*
X69808463Y-109987189D01*
X69579621Y-110538303D01*
X69579100Y-111135039D01*
X54273324Y-111135039D01*
X58959720Y-106804900D01*
X63002331Y-106804900D01*
X63302926Y-106929718D01*
X63720642Y-106930082D01*
X64106700Y-106770566D01*
X64402328Y-106475454D01*
X64562518Y-106089674D01*
X64562882Y-105671958D01*
X64403366Y-105285900D01*
X64108254Y-104990272D01*
X63722474Y-104830082D01*
X63304758Y-104829718D01*
X63001795Y-104954900D01*
X58597800Y-104954900D01*
X58438384Y-104986610D01*
X58277833Y-105012002D01*
X58262013Y-105021692D01*
X58243818Y-105025311D01*
X58108669Y-105115615D01*
X57970059Y-105200513D01*
X50825000Y-111802409D01*
X50825000Y-102550946D01*
X57217518Y-102550946D01*
X57640160Y-103573818D01*
X58422066Y-104357090D01*
X59444198Y-104781516D01*
X60550946Y-104782482D01*
X61573818Y-104359840D01*
X62357090Y-103577934D01*
X62443240Y-103370460D01*
X70408100Y-103370460D01*
X70408100Y-103581735D01*
X70523498Y-103860332D01*
X70736727Y-104073561D01*
X71015324Y-104188960D01*
X71226600Y-104188960D01*
X71416100Y-103999460D01*
X71416100Y-103180960D01*
X71916100Y-103180960D01*
X71916100Y-103999460D01*
X72105600Y-104188960D01*
X72316876Y-104188960D01*
X72595473Y-104073561D01*
X72808702Y-103860332D01*
X72924100Y-103581735D01*
X72924100Y-103370460D01*
X72734600Y-103180960D01*
X71916100Y-103180960D01*
X71416100Y-103180960D01*
X70597600Y-103180960D01*
X70408100Y-103370460D01*
X62443240Y-103370460D01*
X62781516Y-102555802D01*
X62782080Y-101908510D01*
X69145883Y-101908510D01*
X69335784Y-102368103D01*
X69687107Y-102720041D01*
X70146369Y-102910743D01*
X70643650Y-102911177D01*
X71103243Y-102721276D01*
X71143630Y-102680960D01*
X71416100Y-102680960D01*
X71416100Y-102408966D01*
X71455181Y-102369953D01*
X71645883Y-101910691D01*
X71646118Y-101640944D01*
X71913650Y-101641177D01*
X71936344Y-101631800D01*
X72066329Y-101712231D01*
X71916100Y-101862460D01*
X71916100Y-102680960D01*
X72734600Y-102680960D01*
X72924100Y-102491460D01*
X72924100Y-102280185D01*
X72903390Y-102230186D01*
X75030846Y-103546608D01*
X75218836Y-103880291D01*
X75453931Y-104154136D01*
X75775928Y-104317169D01*
X76135804Y-104344569D01*
X76478771Y-104232164D01*
X76752616Y-103997069D01*
X76915649Y-103675073D01*
X76943049Y-103315197D01*
X76894427Y-103166842D01*
X108893718Y-103166842D01*
X109053234Y-103552900D01*
X109348346Y-103848528D01*
X109734126Y-104008718D01*
X110151842Y-104009082D01*
X110537900Y-103849566D01*
X110586517Y-103801034D01*
X110829166Y-104044108D01*
X111214946Y-104204298D01*
X111632662Y-104204662D01*
X112018720Y-104045146D01*
X112314348Y-103750034D01*
X112474538Y-103364254D01*
X112474902Y-102946538D01*
X112329400Y-102594396D01*
X112329400Y-102550946D01*
X134217518Y-102550946D01*
X134640160Y-103573818D01*
X135422066Y-104357090D01*
X136444198Y-104781516D01*
X137550946Y-104782482D01*
X138573818Y-104359840D01*
X139357090Y-103577934D01*
X139781516Y-102555802D01*
X139782482Y-101449054D01*
X139359840Y-100426182D01*
X138577934Y-99642910D01*
X137555802Y-99218484D01*
X136449054Y-99217518D01*
X135426182Y-99640160D01*
X134642910Y-100422066D01*
X134218484Y-101444198D01*
X134217518Y-102550946D01*
X112329400Y-102550946D01*
X112329400Y-99379869D01*
X112454218Y-99079274D01*
X112454582Y-98661558D01*
X112295066Y-98275500D01*
X111999954Y-97979872D01*
X111614174Y-97819682D01*
X111196458Y-97819318D01*
X110969588Y-97913059D01*
X111049598Y-97720374D01*
X111049962Y-97302658D01*
X110890446Y-96916600D01*
X110595334Y-96620972D01*
X110209554Y-96460782D01*
X109791838Y-96460418D01*
X109405780Y-96619934D01*
X109110152Y-96915046D01*
X108949962Y-97300826D01*
X108949598Y-97718542D01*
X109074780Y-98021505D01*
X109074780Y-102342874D01*
X109054272Y-102363346D01*
X108894082Y-102749126D01*
X108893718Y-103166842D01*
X76894427Y-103166842D01*
X76830644Y-102972230D01*
X76525844Y-102431210D01*
X76492110Y-102391915D01*
X76470630Y-102344786D01*
X76375486Y-102256068D01*
X76290749Y-102157364D01*
X76244542Y-102133968D01*
X76206665Y-102098650D01*
X72871489Y-100034918D01*
X72726416Y-99683817D01*
X72375093Y-99331879D01*
X71915831Y-99141177D01*
X71418550Y-99140743D01*
X70958957Y-99330644D01*
X70607019Y-99681967D01*
X70416317Y-100141229D01*
X70416082Y-100410976D01*
X70148550Y-100410743D01*
X69688957Y-100600644D01*
X69337019Y-100951967D01*
X69146317Y-101411229D01*
X69145883Y-101908510D01*
X62782080Y-101908510D01*
X62782482Y-101449054D01*
X62359840Y-100426182D01*
X61577934Y-99642910D01*
X60555802Y-99218484D01*
X59449054Y-99217518D01*
X58426182Y-99640160D01*
X57642910Y-100422066D01*
X57218484Y-101444198D01*
X57217518Y-102550946D01*
X50825000Y-102550946D01*
X50825000Y-89895342D01*
X120275458Y-89895342D01*
X120434974Y-90281400D01*
X120730086Y-90577028D01*
X121115866Y-90737218D01*
X121533582Y-90737582D01*
X121836545Y-90612400D01*
X125387271Y-90612400D01*
X125687866Y-90737218D01*
X126105582Y-90737582D01*
X126491640Y-90578066D01*
X126787268Y-90282954D01*
X126947458Y-89897174D01*
X126947822Y-89479458D01*
X126788306Y-89093400D01*
X126493194Y-88797772D01*
X126107414Y-88637582D01*
X125689698Y-88637218D01*
X125386735Y-88762400D01*
X121836009Y-88762400D01*
X121535414Y-88637582D01*
X121117698Y-88637218D01*
X120731640Y-88796734D01*
X120436012Y-89091846D01*
X120275822Y-89477626D01*
X120275458Y-89895342D01*
X50825000Y-89895342D01*
X50825000Y-82107702D01*
X91868098Y-82107702D01*
X92027614Y-82493760D01*
X92322726Y-82789388D01*
X92708506Y-82949578D01*
X93126222Y-82949942D01*
X93207884Y-82916200D01*
X96763400Y-82916200D01*
X96763400Y-83836041D01*
X96714782Y-83953126D01*
X96714418Y-84370842D01*
X96873934Y-84756900D01*
X97169046Y-85052528D01*
X97554826Y-85212718D01*
X97972542Y-85213082D01*
X98358600Y-85053566D01*
X98654228Y-84758454D01*
X98814418Y-84372674D01*
X98814782Y-83954958D01*
X98655266Y-83568900D01*
X98613400Y-83526961D01*
X98613400Y-82916200D01*
X99311631Y-82916200D01*
X99612226Y-83041018D01*
X100029942Y-83041382D01*
X100416000Y-82881866D01*
X100711628Y-82586754D01*
X100871818Y-82200974D01*
X100872182Y-81783258D01*
X100712666Y-81397200D01*
X100417554Y-81101572D01*
X100031774Y-80941382D01*
X99614058Y-80941018D01*
X99311095Y-81066200D01*
X93569804Y-81066200D01*
X93513834Y-81010132D01*
X93128054Y-80849942D01*
X92710338Y-80849578D01*
X92324280Y-81009094D01*
X92028652Y-81304206D01*
X91868462Y-81689986D01*
X91868098Y-82107702D01*
X50825000Y-82107702D01*
X50825000Y-79989342D01*
X103877218Y-79989342D01*
X104002400Y-80292305D01*
X104002400Y-84277200D01*
X104072811Y-84631183D01*
X104273326Y-84931274D01*
X106998541Y-87656488D01*
X107122834Y-87957300D01*
X107417946Y-88252928D01*
X107803726Y-88413118D01*
X108221442Y-88413482D01*
X108607500Y-88253966D01*
X108796460Y-88065336D01*
X108716282Y-88258426D01*
X108715918Y-88676142D01*
X108875434Y-89062200D01*
X109170546Y-89357828D01*
X109556326Y-89518018D01*
X109974042Y-89518382D01*
X110360100Y-89358866D01*
X110655728Y-89063754D01*
X110815918Y-88677974D01*
X110816282Y-88260258D01*
X110701260Y-87981884D01*
X110701260Y-87563960D01*
X110672303Y-87418382D01*
X110645756Y-87284919D01*
X110701866Y-87308218D01*
X111119582Y-87308582D01*
X111505640Y-87149066D01*
X111801268Y-86853954D01*
X111961458Y-86468174D01*
X111961822Y-86050458D01*
X111802306Y-85664400D01*
X111588622Y-85450342D01*
X118624458Y-85450342D01*
X118783974Y-85836400D01*
X119079086Y-86132028D01*
X119381832Y-86257739D01*
X119655564Y-86531471D01*
X119655566Y-86531474D01*
X119817089Y-86639400D01*
X119955658Y-86731989D01*
X120309640Y-86802401D01*
X120309645Y-86802400D01*
X128796314Y-86802400D01*
X128816974Y-86852400D01*
X129112086Y-87148028D01*
X129497866Y-87308218D01*
X129915582Y-87308582D01*
X130301640Y-87149066D01*
X130597268Y-86853954D01*
X130600013Y-86847342D01*
X134220058Y-86847342D01*
X134379574Y-87233400D01*
X134674686Y-87529028D01*
X135060466Y-87689218D01*
X135478182Y-87689582D01*
X135818029Y-87549160D01*
X136847751Y-87549160D01*
X137148346Y-87673978D01*
X137566062Y-87674342D01*
X137952120Y-87514826D01*
X138247748Y-87219714D01*
X138407938Y-86833934D01*
X138408302Y-86416218D01*
X138248786Y-86030160D01*
X137953674Y-85734532D01*
X137567894Y-85574342D01*
X137150178Y-85573978D01*
X136847215Y-85699160D01*
X135743907Y-85699160D01*
X135480014Y-85589582D01*
X135062298Y-85589218D01*
X134676240Y-85748734D01*
X134380612Y-86043846D01*
X134220422Y-86429626D01*
X134220058Y-86847342D01*
X130600013Y-86847342D01*
X130757458Y-86468174D01*
X130757822Y-86050458D01*
X130598306Y-85664400D01*
X130303194Y-85368772D01*
X130000449Y-85243061D01*
X129980714Y-85223326D01*
X129680623Y-85022811D01*
X129326640Y-84952400D01*
X120692787Y-84952400D01*
X120689599Y-84949211D01*
X120565306Y-84648400D01*
X120270194Y-84352772D01*
X119884414Y-84192582D01*
X119466698Y-84192218D01*
X119080640Y-84351734D01*
X118785012Y-84646846D01*
X118624822Y-85032626D01*
X118624458Y-85450342D01*
X111588622Y-85450342D01*
X111507194Y-85368772D01*
X111121414Y-85208582D01*
X110794176Y-85208297D01*
X110784640Y-85206400D01*
X109643787Y-85206400D01*
X109550640Y-85113252D01*
X109550640Y-82958769D01*
X109675458Y-82658174D01*
X109675822Y-82240458D01*
X109516306Y-81854400D01*
X109221194Y-81558772D01*
X108835414Y-81398582D01*
X108417698Y-81398218D01*
X108031640Y-81557734D01*
X108001240Y-81588081D01*
X108001240Y-80530308D01*
X108131430Y-80400118D01*
X108432240Y-80275826D01*
X108520758Y-80187462D01*
X131883258Y-80187462D01*
X132042774Y-80573520D01*
X132337886Y-80869148D01*
X132723666Y-81029338D01*
X133141382Y-81029702D01*
X133527440Y-80870186D01*
X133798379Y-80599720D01*
X134170591Y-80599720D01*
X134471186Y-80724538D01*
X134888902Y-80724902D01*
X135274960Y-80565386D01*
X135570588Y-80270274D01*
X135730778Y-79884494D01*
X135731142Y-79466778D01*
X135571626Y-79080720D01*
X135276514Y-78785092D01*
X134890734Y-78624902D01*
X134473018Y-78624538D01*
X134170055Y-78749720D01*
X133238240Y-78749720D01*
X132884257Y-78820131D01*
X132713234Y-78934406D01*
X132339440Y-79088854D01*
X132043812Y-79383966D01*
X131883622Y-79769746D01*
X131883258Y-80187462D01*
X108520758Y-80187462D01*
X108727868Y-79980714D01*
X108888058Y-79594934D01*
X108888422Y-79177218D01*
X108728906Y-78791160D01*
X108433794Y-78495532D01*
X108048014Y-78335342D01*
X107630298Y-78334978D01*
X107244240Y-78494494D01*
X106948612Y-78789606D01*
X106822901Y-79092351D01*
X106422166Y-79493086D01*
X106221651Y-79793177D01*
X106203487Y-79884494D01*
X106151240Y-80147160D01*
X106151240Y-84192892D01*
X105852400Y-83894052D01*
X105852400Y-80291769D01*
X105977218Y-79991174D01*
X105977582Y-79573458D01*
X105818066Y-79187400D01*
X105522954Y-78891772D01*
X105137174Y-78731582D01*
X104719458Y-78731218D01*
X104333400Y-78890734D01*
X104037772Y-79185846D01*
X103877582Y-79571626D01*
X103877218Y-79989342D01*
X50825000Y-79989342D01*
X50825000Y-78524100D01*
X71122100Y-78524100D01*
X71192511Y-78878082D01*
X71393026Y-79178174D01*
X71693118Y-79378689D01*
X72047100Y-79449100D01*
X73609200Y-79449100D01*
X73963183Y-79378689D01*
X74134206Y-79264414D01*
X74508000Y-79109966D01*
X74803628Y-78814854D01*
X74963818Y-78429074D01*
X74964182Y-78011358D01*
X74804666Y-77625300D01*
X74509554Y-77329672D01*
X74123774Y-77169482D01*
X73706058Y-77169118D01*
X73320000Y-77328634D01*
X73049061Y-77599100D01*
X72047100Y-77599100D01*
X71693118Y-77669511D01*
X71393026Y-77870026D01*
X71192511Y-78170118D01*
X71122100Y-78524100D01*
X50825000Y-78524100D01*
X50825000Y-74723361D01*
X58737339Y-74723361D01*
X58931001Y-74998184D01*
X59824789Y-75087992D01*
X60276279Y-74998184D01*
X60469941Y-74723361D01*
X59603640Y-73857060D01*
X58737339Y-74723361D01*
X50825000Y-74723361D01*
X50825000Y-73017549D01*
X57312048Y-73017549D01*
X57401856Y-73469039D01*
X57676679Y-73662701D01*
X58542980Y-72796400D01*
X60664300Y-72796400D01*
X61530601Y-73662701D01*
X61805424Y-73469039D01*
X61828238Y-73241989D01*
X63703250Y-73241989D01*
X64045071Y-74069258D01*
X64677453Y-74702745D01*
X65504124Y-75046008D01*
X66399229Y-75046790D01*
X67226498Y-74704969D01*
X67655333Y-74276882D01*
X89112198Y-74276882D01*
X89271714Y-74662940D01*
X89566826Y-74958568D01*
X89869571Y-75084279D01*
X90430326Y-75645034D01*
X90730417Y-75845549D01*
X91084400Y-75915960D01*
X98999432Y-75915960D01*
X99226726Y-76143254D01*
X99226478Y-76428262D01*
X99385994Y-76814320D01*
X99681106Y-77109948D01*
X100066886Y-77270138D01*
X100484602Y-77270502D01*
X100870660Y-77110986D01*
X101166288Y-76815874D01*
X101253269Y-76606400D01*
X131652840Y-76606400D01*
X131723251Y-76960382D01*
X131923766Y-77260474D01*
X132223858Y-77460989D01*
X132577840Y-77531400D01*
X132831840Y-77531400D01*
X133185823Y-77460989D01*
X133393322Y-77322342D01*
X138182458Y-77322342D01*
X138341974Y-77708400D01*
X138637086Y-78004028D01*
X139022866Y-78164218D01*
X139440582Y-78164582D01*
X139743545Y-78039400D01*
X140500271Y-78039400D01*
X140800866Y-78164218D01*
X141218582Y-78164582D01*
X141604640Y-78005066D01*
X141900268Y-77709954D01*
X142060458Y-77324174D01*
X142060822Y-76906458D01*
X141901306Y-76520400D01*
X141606194Y-76224772D01*
X141220414Y-76064582D01*
X140802698Y-76064218D01*
X140499735Y-76189400D01*
X139743009Y-76189400D01*
X139442414Y-76064582D01*
X139024698Y-76064218D01*
X138638640Y-76223734D01*
X138343012Y-76518846D01*
X138182822Y-76904626D01*
X138182458Y-77322342D01*
X133393322Y-77322342D01*
X133485914Y-77260474D01*
X134191830Y-76554558D01*
X134492640Y-76430266D01*
X134788268Y-76135154D01*
X134948458Y-75749374D01*
X134948822Y-75331658D01*
X134789306Y-74945600D01*
X134494194Y-74649972D01*
X134108414Y-74489782D01*
X133690698Y-74489418D01*
X133304640Y-74648934D01*
X133009012Y-74944046D01*
X132883301Y-75246791D01*
X132416624Y-75713468D01*
X132223858Y-75751811D01*
X131923766Y-75952326D01*
X131723251Y-76252418D01*
X131652840Y-76606400D01*
X101253269Y-76606400D01*
X101326478Y-76430094D01*
X101326842Y-76012378D01*
X101167326Y-75626320D01*
X101145935Y-75604892D01*
X101131249Y-75531058D01*
X101131249Y-75531057D01*
X100930734Y-75230966D01*
X100036654Y-74336886D01*
X99736563Y-74136371D01*
X99490157Y-74087358D01*
X99538318Y-73971374D01*
X99538682Y-73553658D01*
X99379166Y-73167600D01*
X99084054Y-72871972D01*
X98698274Y-72711782D01*
X98280558Y-72711418D01*
X97977595Y-72836600D01*
X97170069Y-72836600D01*
X96869474Y-72711782D01*
X96451758Y-72711418D01*
X96065700Y-72870934D01*
X95770072Y-73166046D01*
X95609882Y-73551826D01*
X95609518Y-73969542D01*
X95649357Y-74065960D01*
X91467548Y-74065960D01*
X91177338Y-73775750D01*
X91053046Y-73474940D01*
X90757934Y-73179312D01*
X90372154Y-73019122D01*
X89954438Y-73018758D01*
X89568380Y-73178274D01*
X89272752Y-73473386D01*
X89112562Y-73859166D01*
X89112198Y-74276882D01*
X67655333Y-74276882D01*
X67859985Y-74072587D01*
X68203248Y-73245916D01*
X68204030Y-72350811D01*
X67862209Y-71523542D01*
X67229827Y-70890055D01*
X66403156Y-70546792D01*
X65508051Y-70546010D01*
X64680782Y-70887831D01*
X64047295Y-71520213D01*
X63704032Y-72346884D01*
X63703250Y-73241989D01*
X61828238Y-73241989D01*
X61895232Y-72575251D01*
X61805424Y-72123761D01*
X61530601Y-71930099D01*
X60664300Y-72796400D01*
X58542980Y-72796400D01*
X57676679Y-71930099D01*
X57401856Y-72123761D01*
X57312048Y-73017549D01*
X50825000Y-73017549D01*
X50825000Y-70506961D01*
X53997699Y-70506961D01*
X54191361Y-70781784D01*
X55085149Y-70871592D01*
X55095972Y-70869439D01*
X58737339Y-70869439D01*
X59603640Y-71735740D01*
X60469941Y-70869439D01*
X60276279Y-70594616D01*
X59382491Y-70504808D01*
X58931001Y-70594616D01*
X58737339Y-70869439D01*
X55095972Y-70869439D01*
X55536639Y-70781784D01*
X55730301Y-70506961D01*
X55433682Y-70210342D01*
X95383458Y-70210342D01*
X95542974Y-70596400D01*
X95838086Y-70892028D01*
X96223866Y-71052218D01*
X96641582Y-71052582D01*
X97027640Y-70893066D01*
X97323268Y-70597954D01*
X97448979Y-70295209D01*
X98976565Y-68767622D01*
X123592698Y-68767622D01*
X123752214Y-69153680D01*
X124047326Y-69449308D01*
X124433106Y-69609498D01*
X124850822Y-69609862D01*
X125153785Y-69484680D01*
X125839391Y-69484680D01*
X126139986Y-69609498D01*
X126557702Y-69609862D01*
X126943760Y-69450346D01*
X127239388Y-69155234D01*
X127399578Y-68769454D01*
X127399942Y-68351738D01*
X127240426Y-67965680D01*
X126945314Y-67670052D01*
X126559534Y-67509862D01*
X126141818Y-67509498D01*
X125838855Y-67634680D01*
X125153249Y-67634680D01*
X124852654Y-67509862D01*
X124434938Y-67509498D01*
X124048880Y-67669014D01*
X123753252Y-67964126D01*
X123593062Y-68349906D01*
X123592698Y-68767622D01*
X98976565Y-68767622D01*
X99627711Y-68116476D01*
X99627714Y-68116474D01*
X99828229Y-67816382D01*
X99898640Y-67462400D01*
X99898640Y-62176796D01*
X99999440Y-62135146D01*
X100295068Y-61840034D01*
X100455258Y-61454254D01*
X100455622Y-61036538D01*
X100434493Y-60985400D01*
X101574160Y-60985400D01*
X101644571Y-61339383D01*
X101845086Y-61639474D01*
X102145177Y-61839989D01*
X102499160Y-61910400D01*
X102853143Y-61839989D01*
X103153234Y-61639474D01*
X103193874Y-61598834D01*
X103394389Y-61298742D01*
X103464801Y-60944760D01*
X103394389Y-60590777D01*
X103193874Y-60290686D01*
X102893783Y-60090171D01*
X102539800Y-60019759D01*
X102185818Y-60090171D01*
X101885726Y-60290686D01*
X101845086Y-60331326D01*
X101644571Y-60631417D01*
X101574160Y-60985400D01*
X100434493Y-60985400D01*
X100296106Y-60650480D01*
X100000994Y-60354852D01*
X99615214Y-60194662D01*
X99197498Y-60194298D01*
X98811440Y-60353814D01*
X98515812Y-60648926D01*
X98390101Y-60951671D01*
X98319566Y-61022206D01*
X98119051Y-61322297D01*
X98064119Y-61598463D01*
X98048640Y-61676280D01*
X98048640Y-67079253D01*
X96140451Y-68987442D01*
X95839640Y-69111734D01*
X95544012Y-69406846D01*
X95383822Y-69792626D01*
X95383458Y-70210342D01*
X55433682Y-70210342D01*
X54864000Y-69640660D01*
X53997699Y-70506961D01*
X50825000Y-70506961D01*
X50825000Y-68801149D01*
X52572408Y-68801149D01*
X52662216Y-69252639D01*
X52937039Y-69446301D01*
X53803340Y-68580000D01*
X55924660Y-68580000D01*
X56790961Y-69446301D01*
X57065784Y-69252639D01*
X57155592Y-68358851D01*
X57065784Y-67907361D01*
X56790961Y-67713699D01*
X55924660Y-68580000D01*
X53803340Y-68580000D01*
X52937039Y-67713699D01*
X52662216Y-67907361D01*
X52572408Y-68801149D01*
X50825000Y-68801149D01*
X50825000Y-66653039D01*
X53997699Y-66653039D01*
X54864000Y-67519340D01*
X55180886Y-67202454D01*
X71237040Y-67202454D01*
X71237040Y-67265146D01*
X71358833Y-67877439D01*
X71705669Y-68396517D01*
X72224747Y-68743353D01*
X72837040Y-68865146D01*
X73449333Y-68743353D01*
X73968411Y-68396517D01*
X74107040Y-68189044D01*
X74245669Y-68396517D01*
X74764747Y-68743353D01*
X75377040Y-68865146D01*
X75989333Y-68743353D01*
X76416531Y-68457909D01*
X76518902Y-68616998D01*
X76769532Y-68788246D01*
X77067040Y-68848493D01*
X78767040Y-68848493D01*
X79044973Y-68796196D01*
X79300238Y-68631938D01*
X79471486Y-68381308D01*
X79531733Y-68083800D01*
X79531733Y-66383800D01*
X79479436Y-66105867D01*
X79315178Y-65850602D01*
X79064548Y-65679354D01*
X78767040Y-65619107D01*
X77067040Y-65619107D01*
X76789107Y-65671404D01*
X76533842Y-65835662D01*
X76415434Y-66008958D01*
X75989333Y-65724247D01*
X75377040Y-65602454D01*
X74764747Y-65724247D01*
X74245669Y-66071083D01*
X74107040Y-66278556D01*
X73968411Y-66071083D01*
X73449333Y-65724247D01*
X72837040Y-65602454D01*
X72224747Y-65724247D01*
X71705669Y-66071083D01*
X71358833Y-66590161D01*
X71237040Y-67202454D01*
X55180886Y-67202454D01*
X55730301Y-66653039D01*
X55536639Y-66378216D01*
X54642851Y-66288408D01*
X54191361Y-66378216D01*
X53997699Y-66653039D01*
X50825000Y-66653039D01*
X50825000Y-64148789D01*
X57177990Y-64148789D01*
X57519811Y-64976058D01*
X58152193Y-65609545D01*
X58978864Y-65952808D01*
X59873969Y-65953590D01*
X60701238Y-65611769D01*
X61334725Y-64979387D01*
X61668016Y-64176729D01*
X63576250Y-64176729D01*
X63918071Y-65003998D01*
X64550453Y-65637485D01*
X65377124Y-65980748D01*
X66272229Y-65981530D01*
X67099498Y-65639709D01*
X67732985Y-65007327D01*
X68076248Y-64180656D01*
X68077030Y-63285551D01*
X67735209Y-62458282D01*
X67102827Y-61824795D01*
X66276156Y-61481532D01*
X65381051Y-61480750D01*
X64553782Y-61822571D01*
X63920295Y-62454953D01*
X63577032Y-63281624D01*
X63576250Y-64176729D01*
X61668016Y-64176729D01*
X61677988Y-64152716D01*
X61678770Y-63257611D01*
X61336949Y-62430342D01*
X60704567Y-61796855D01*
X59877896Y-61453592D01*
X58982791Y-61452810D01*
X58155522Y-61794631D01*
X57522035Y-62427013D01*
X57178772Y-63253684D01*
X57177990Y-64148789D01*
X50825000Y-64148789D01*
X50825000Y-60223400D01*
X71624794Y-60223400D01*
X71746587Y-60835693D01*
X72093423Y-61354771D01*
X72612501Y-61701607D01*
X73224794Y-61823400D01*
X73287486Y-61823400D01*
X73899779Y-61701607D01*
X74418857Y-61354771D01*
X74765693Y-60835693D01*
X74887486Y-60223400D01*
X74765693Y-59611107D01*
X74506142Y-59222661D01*
X74506142Y-59188167D01*
X74535513Y-59176001D01*
X74748742Y-58962772D01*
X74864140Y-58684175D01*
X74864140Y-58297900D01*
X74674640Y-58108400D01*
X73681140Y-58108400D01*
X73681140Y-58533400D01*
X72831140Y-58533400D01*
X72831140Y-58108400D01*
X71837640Y-58108400D01*
X71648140Y-58297900D01*
X71648140Y-58684175D01*
X71763538Y-58962772D01*
X71976767Y-59176001D01*
X72006138Y-59188167D01*
X72006138Y-59222661D01*
X71746587Y-59611107D01*
X71624794Y-60223400D01*
X50825000Y-60223400D01*
X50825000Y-56682625D01*
X71648140Y-56682625D01*
X71648140Y-57068900D01*
X71837640Y-57258400D01*
X72831140Y-57258400D01*
X72831140Y-56264900D01*
X73681140Y-56264900D01*
X73681140Y-57258400D01*
X74674640Y-57258400D01*
X74864140Y-57068900D01*
X74864140Y-56682625D01*
X74748742Y-56404028D01*
X74535513Y-56190799D01*
X74256916Y-56075400D01*
X73870640Y-56075400D01*
X73681140Y-56264900D01*
X72831140Y-56264900D01*
X72641640Y-56075400D01*
X72255364Y-56075400D01*
X71976767Y-56190799D01*
X71763538Y-56404028D01*
X71648140Y-56682625D01*
X50825000Y-56682625D01*
X50825000Y-55515848D01*
X51538461Y-56229309D01*
X51853001Y-55914769D01*
X52202263Y-56224618D01*
X53496996Y-56284439D01*
X53797737Y-56224618D01*
X54147001Y-55914768D01*
X53000000Y-54767767D01*
X52985858Y-54781910D01*
X52881848Y-54677900D01*
X59052640Y-54677900D01*
X59052640Y-55929175D01*
X59168038Y-56207772D01*
X59381267Y-56421001D01*
X59659864Y-56536400D01*
X59996140Y-56536400D01*
X60185640Y-56346900D01*
X60185640Y-54488400D01*
X60935640Y-54488400D01*
X60935640Y-56346900D01*
X61125140Y-56536400D01*
X61461416Y-56536400D01*
X61740013Y-56421001D01*
X61953242Y-56207772D01*
X62068640Y-55929175D01*
X62068640Y-54677900D01*
X67552640Y-54677900D01*
X67552640Y-55929175D01*
X67668038Y-56207772D01*
X67881267Y-56421001D01*
X68159864Y-56536400D01*
X68496140Y-56536400D01*
X68685640Y-56346900D01*
X68685640Y-54488400D01*
X69435640Y-54488400D01*
X69435640Y-56346900D01*
X69625140Y-56536400D01*
X69961416Y-56536400D01*
X70240013Y-56421001D01*
X70453242Y-56207772D01*
X70568640Y-55929175D01*
X70568640Y-54677900D01*
X70555940Y-54665200D01*
X125509200Y-54665200D01*
X125509200Y-55916475D01*
X125624598Y-56195072D01*
X125837827Y-56408301D01*
X126116424Y-56523700D01*
X126452700Y-56523700D01*
X126642200Y-56334200D01*
X126642200Y-54475700D01*
X127392200Y-54475700D01*
X127392200Y-56334200D01*
X127581700Y-56523700D01*
X127917976Y-56523700D01*
X128196573Y-56408301D01*
X128409802Y-56195072D01*
X128525200Y-55916475D01*
X128525200Y-54665200D01*
X134009200Y-54665200D01*
X134009200Y-55916475D01*
X134124598Y-56195072D01*
X134337827Y-56408301D01*
X134616424Y-56523700D01*
X134952700Y-56523700D01*
X135142200Y-56334200D01*
X135142200Y-54475700D01*
X135892200Y-54475700D01*
X135892200Y-56334200D01*
X136081700Y-56523700D01*
X136417976Y-56523700D01*
X136696573Y-56408301D01*
X136909802Y-56195072D01*
X137025200Y-55916475D01*
X137025200Y-54665200D01*
X136835700Y-54475700D01*
X135892200Y-54475700D01*
X135142200Y-54475700D01*
X134198700Y-54475700D01*
X134009200Y-54665200D01*
X128525200Y-54665200D01*
X128335700Y-54475700D01*
X127392200Y-54475700D01*
X126642200Y-54475700D01*
X125698700Y-54475700D01*
X125509200Y-54665200D01*
X70555940Y-54665200D01*
X70379140Y-54488400D01*
X69435640Y-54488400D01*
X68685640Y-54488400D01*
X67742140Y-54488400D01*
X67552640Y-54677900D01*
X62068640Y-54677900D01*
X61879140Y-54488400D01*
X60935640Y-54488400D01*
X60185640Y-54488400D01*
X59242140Y-54488400D01*
X59052640Y-54677900D01*
X52881848Y-54677900D01*
X51218091Y-53014143D01*
X51232233Y-53000000D01*
X51218091Y-52985858D01*
X52985858Y-51218091D01*
X53000000Y-51232233D01*
X53014143Y-51218091D01*
X54781910Y-52985858D01*
X54767767Y-53000000D01*
X55914768Y-54147001D01*
X56224618Y-53797737D01*
X56284439Y-52503004D01*
X56257860Y-52369382D01*
X101220378Y-52369382D01*
X101379894Y-52755440D01*
X101675006Y-53051068D01*
X102060786Y-53211258D01*
X102478502Y-53211622D01*
X102781465Y-53086440D01*
X104723183Y-53086440D01*
X104925906Y-53170618D01*
X105343622Y-53170982D01*
X105729680Y-53011466D01*
X106025308Y-52716354D01*
X106185498Y-52330574D01*
X106185862Y-51912858D01*
X106026346Y-51526800D01*
X105731234Y-51231172D01*
X105345454Y-51070982D01*
X104927738Y-51070618D01*
X104541680Y-51230134D01*
X104535363Y-51236440D01*
X102780929Y-51236440D01*
X102480334Y-51111622D01*
X102062618Y-51111258D01*
X101676560Y-51270774D01*
X101380932Y-51565886D01*
X101220742Y-51951666D01*
X101220378Y-52369382D01*
X56257860Y-52369382D01*
X56224618Y-52202263D01*
X55914769Y-51853001D01*
X56229309Y-51538461D01*
X55515848Y-50825000D01*
X59052640Y-50825000D01*
X59052640Y-51798900D01*
M02*
