G04 #@! TF.FileFunction,Soldermask,Top*
%FSLAX46Y46*%
G04 Gerber Fmt 4.6, Leading zero omitted, Abs format (unit mm)*
G04 Created by KiCad (PCBNEW 4.0.7) date 04/30/20 00:01:24*
%MOMM*%
%LPD*%
G01*
G04 APERTURE LIST*
%ADD10C,0.100000*%
%ADD11C,1.924000*%
%ADD12C,1.920000*%
%ADD13C,3.100000*%
%ADD14R,2.100000X2.100000*%
%ADD15O,2.100000X2.100000*%
%ADD16R,1.700000X1.900000*%
%ADD17R,1.900000X2.600000*%
%ADD18R,3.000000X2.000000*%
%ADD19R,1.010000X2.310000*%
%ADD20R,1.950000X1.605000*%
%ADD21R,2.000000X3.000000*%
%ADD22R,1.900000X1.700000*%
%ADD23R,2.600000X1.900000*%
%ADD24R,2.900000X5.480000*%
%ADD25R,1.900000X5.480000*%
%ADD26R,1.000000X1.950000*%
%ADD27C,3.400000*%
%ADD28R,0.700000X1.800000*%
%ADD29C,5.400000*%
%ADD30C,4.464000*%
%ADD31R,3.900000X3.900000*%
%ADD32R,1.650000X1.900000*%
%ADD33R,1.900000X1.650000*%
%ADD34R,1.900000X1.000000*%
%ADD35R,1.950000X1.000000*%
%ADD36R,1.200000X1.300000*%
%ADD37R,4.200000X2.400000*%
%ADD38R,1.900000X2.400000*%
%ADD39R,1.460000X1.050000*%
%ADD40R,1.600000X1.600000*%
%ADD41R,3.000000X2.400000*%
%ADD42O,3.000000X2.400000*%
%ADD43R,2.400000X3.000000*%
%ADD44O,2.400000X3.000000*%
%ADD45R,2.500000X2.200000*%
%ADD46R,1.300000X1.600000*%
%ADD47R,1.300000X1.200000*%
%ADD48R,2.200000X2.900000*%
%ADD49R,2.400000X2.900000*%
%ADD50R,2.000000X2.400000*%
%ADD51R,2.600000X1.600000*%
%ADD52R,6.800000X6.200000*%
%ADD53R,4.400000X2.900000*%
%ADD54R,2.000000X1.100000*%
%ADD55R,1.800000X1.600000*%
%ADD56R,1.800000X2.000000*%
%ADD57C,1.400000*%
%ADD58C,0.254000*%
G04 APERTURE END LIST*
D10*
D11*
X135290000Y-106880000D03*
X132750000Y-106880000D03*
X130210000Y-106880000D03*
X127670000Y-106880000D03*
X125130000Y-106880000D03*
X122590000Y-106880000D03*
X120050000Y-106880000D03*
X117510000Y-106880000D03*
X114970000Y-106880000D03*
X112430000Y-106880000D03*
X109890000Y-106880000D03*
X107350000Y-106880000D03*
X104810000Y-106880000D03*
X102270000Y-106880000D03*
X99730000Y-106880000D03*
X97190000Y-106880000D03*
X94650000Y-106880000D03*
X92110000Y-106880000D03*
X89570000Y-106880000D03*
X87030000Y-106880000D03*
X135290000Y-122120000D03*
X132750000Y-122120000D03*
X130210000Y-122120000D03*
X127670000Y-122120000D03*
X125130000Y-122120000D03*
X122590000Y-122120000D03*
X120050000Y-122120000D03*
X117510000Y-122120000D03*
X114970000Y-122120000D03*
X112430000Y-122120000D03*
X109890000Y-122120000D03*
X107350000Y-122120000D03*
X104810000Y-122120000D03*
X102270000Y-122120000D03*
X99730000Y-122120000D03*
X97190000Y-122120000D03*
X94650000Y-122120000D03*
X92110000Y-122120000D03*
X89570000Y-122120000D03*
X87030000Y-122120000D03*
D12*
X101660000Y-128590000D03*
X104200000Y-128590000D03*
X104200000Y-130590000D03*
X101660000Y-130590000D03*
D13*
X96930000Y-133290000D03*
X108930000Y-133290000D03*
D14*
X52850000Y-62480000D03*
D15*
X55390000Y-62480000D03*
D16*
X106625000Y-100625000D03*
X106625000Y-103325000D03*
X54356000Y-125556000D03*
X54356000Y-122856000D03*
D17*
X73254000Y-120396000D03*
X79654000Y-120396000D03*
D18*
X66526000Y-120904000D03*
X70126000Y-120904000D03*
D19*
X59817000Y-126224000D03*
X61087000Y-126224000D03*
X62357000Y-126224000D03*
X63627000Y-126224000D03*
X63627000Y-120664000D03*
X62357000Y-120664000D03*
X61087000Y-120664000D03*
X59817000Y-120664000D03*
D20*
X62497000Y-122841500D03*
X60947000Y-122841500D03*
X62497000Y-124046500D03*
X60947000Y-124046500D03*
D21*
X53340000Y-103146000D03*
X53340000Y-99546000D03*
D22*
X109066320Y-83713320D03*
X106366320Y-83713320D03*
D23*
X63246000Y-106782000D03*
X63246000Y-113182000D03*
D14*
X132588000Y-128524000D03*
D15*
X132588000Y-131064000D03*
X130048000Y-128524000D03*
X130048000Y-131064000D03*
X127508000Y-128524000D03*
X127508000Y-131064000D03*
X124968000Y-128524000D03*
X124968000Y-131064000D03*
X122428000Y-128524000D03*
X122428000Y-131064000D03*
X119888000Y-128524000D03*
X119888000Y-131064000D03*
X117348000Y-128524000D03*
X117348000Y-131064000D03*
D24*
X72584000Y-53848000D03*
X65084000Y-53848000D03*
D25*
X68834000Y-53848000D03*
D16*
X72500000Y-65900000D03*
X72500000Y-68600000D03*
D26*
X132603240Y-65956200D03*
X131333240Y-65956200D03*
X130063240Y-65956200D03*
X128793240Y-65956200D03*
X128793240Y-71356200D03*
X130063240Y-71356200D03*
X131333240Y-71356200D03*
X132603240Y-71356200D03*
D27*
X68250000Y-71500000D03*
X60250000Y-71750000D03*
X60500000Y-63500000D03*
X68250000Y-63500000D03*
D28*
X63262000Y-95418000D03*
X63762000Y-95418000D03*
X64262000Y-95418000D03*
X64762000Y-95418000D03*
X65262000Y-95418000D03*
X65262000Y-91018000D03*
X64762000Y-91018000D03*
X64262000Y-91018000D03*
X63762000Y-91018000D03*
X63262000Y-91018000D03*
D29*
X53000000Y-53000000D03*
X147000000Y-53000000D03*
X53000000Y-132000000D03*
X147000000Y-132000000D03*
D14*
X77070000Y-133200000D03*
D15*
X77070000Y-130660000D03*
D30*
X60000000Y-101000000D03*
X137000000Y-101000000D03*
D31*
X87725000Y-127925000D03*
X87725000Y-133925000D03*
X92425000Y-130925000D03*
D14*
X144780000Y-90932000D03*
D15*
X142240000Y-90932000D03*
D32*
X104561640Y-58084400D03*
X104561640Y-60584400D03*
D33*
X58510000Y-94230000D03*
X61010000Y-94230000D03*
X143530000Y-73914000D03*
X146030000Y-73914000D03*
X143784000Y-59182000D03*
X146284000Y-59182000D03*
D32*
X64262000Y-76688000D03*
X64262000Y-74188000D03*
D33*
X87015640Y-53746400D03*
X84515640Y-53746400D03*
X87269640Y-57048400D03*
X84769640Y-57048400D03*
X75500000Y-76000000D03*
X73000000Y-76000000D03*
X78760000Y-78994000D03*
X81260000Y-78994000D03*
X131810000Y-63790000D03*
X129310000Y-63790000D03*
D32*
X136235440Y-65740600D03*
X136235440Y-63240600D03*
D33*
X84795040Y-60172600D03*
X87295040Y-60172600D03*
D32*
X65532000Y-84562000D03*
X65532000Y-82062000D03*
D33*
X123845000Y-66167000D03*
X126345000Y-66167000D03*
X93873640Y-61747400D03*
X91373640Y-61747400D03*
D32*
X69088000Y-84308000D03*
X69088000Y-81808000D03*
X125592840Y-72649400D03*
X125592840Y-70149400D03*
X101196140Y-59938600D03*
X101196140Y-62438600D03*
D33*
X73740960Y-89016840D03*
X76240960Y-89016840D03*
D32*
X99227640Y-57028400D03*
X99227640Y-54528400D03*
D33*
X81260000Y-85839300D03*
X78760000Y-85839300D03*
D32*
X131064000Y-74061000D03*
X131064000Y-76561000D03*
X133807200Y-76840400D03*
X133807200Y-74340400D03*
X88813640Y-76459400D03*
X88813640Y-73959400D03*
D33*
X97853180Y-78315820D03*
X100353180Y-78315820D03*
X128698940Y-79883000D03*
X131198940Y-79883000D03*
D32*
X96946720Y-64709360D03*
X96946720Y-62209360D03*
X94757240Y-73680000D03*
X94757240Y-76180000D03*
X136425940Y-83419000D03*
X136425940Y-80919000D03*
D33*
X96402840Y-71805800D03*
X98902840Y-71805800D03*
D32*
X134950200Y-88325640D03*
X134950200Y-90825640D03*
X125500000Y-102700000D03*
X125500000Y-100200000D03*
X120150000Y-102800000D03*
X120150000Y-100300000D03*
X103450000Y-103100000D03*
X103450000Y-100600000D03*
D33*
X117368640Y-76329540D03*
X114868640Y-76329540D03*
D32*
X57912000Y-88920000D03*
X57912000Y-91420000D03*
D33*
X116312000Y-96012000D03*
X113812000Y-96012000D03*
D32*
X87670640Y-71125400D03*
X87670640Y-68625400D03*
D33*
X71354000Y-126492000D03*
X68854000Y-126492000D03*
D22*
X143496040Y-86868000D03*
X146196040Y-86868000D03*
X57340000Y-96530000D03*
X60040000Y-96530000D03*
D16*
X102275640Y-54428400D03*
X102275640Y-57128400D03*
X85852000Y-83646000D03*
X85852000Y-80946000D03*
X136260840Y-74316600D03*
X136260840Y-77016600D03*
X67564000Y-96346000D03*
X67564000Y-93646000D03*
X69596000Y-96346000D03*
X69596000Y-93646000D03*
D22*
X146196040Y-71831200D03*
X143496040Y-71831200D03*
X127135880Y-88432640D03*
X124435880Y-88432640D03*
X72860000Y-72200000D03*
X75560000Y-72200000D03*
X112990640Y-89687400D03*
X115690640Y-89687400D03*
X79259440Y-92791280D03*
X81959440Y-92791280D03*
X113712000Y-92964000D03*
X116412000Y-92964000D03*
D16*
X78750000Y-64650000D03*
X78750000Y-67350000D03*
X82042000Y-59610000D03*
X82042000Y-62310000D03*
X81788000Y-56976000D03*
X81788000Y-54276000D03*
D22*
X81817200Y-89128600D03*
X79117200Y-89128600D03*
X59864000Y-81788000D03*
X62564000Y-81788000D03*
X59950000Y-85150000D03*
X57250000Y-85150000D03*
D16*
X125730000Y-61548000D03*
X125730000Y-58848000D03*
X128050000Y-61530000D03*
X128050000Y-58830000D03*
D22*
X85457040Y-63373000D03*
X88157040Y-63373000D03*
X81868000Y-82550000D03*
X79168000Y-82550000D03*
D16*
X125719840Y-80354160D03*
X125719840Y-77654160D03*
D22*
X89038440Y-78994000D03*
X91738440Y-78994000D03*
X94753440Y-80162400D03*
X97453440Y-80162400D03*
D16*
X122341640Y-82597000D03*
X122341640Y-85297000D03*
X85054440Y-69828400D03*
X85054440Y-67128400D03*
X91480640Y-73859400D03*
X91480640Y-76559400D03*
X125694440Y-85347800D03*
X125694440Y-82647800D03*
D22*
X104570520Y-89961720D03*
X101870520Y-89961720D03*
D16*
X139019280Y-88278960D03*
X139019280Y-85578960D03*
X127850000Y-100050000D03*
X127850000Y-102750000D03*
X118100000Y-100300000D03*
X118100000Y-103000000D03*
D22*
X104504480Y-93405960D03*
X101804480Y-93405960D03*
D16*
X109377480Y-81329520D03*
X109377480Y-78629520D03*
X106070400Y-81309200D03*
X106070400Y-78609200D03*
D22*
X111626640Y-76504800D03*
X108926640Y-76504800D03*
X52752000Y-89662000D03*
X55452000Y-89662000D03*
X55452000Y-93218000D03*
X52752000Y-93218000D03*
X54530000Y-81788000D03*
X57230000Y-81788000D03*
X104565440Y-86715600D03*
X101865440Y-86715600D03*
X142160000Y-94488000D03*
X144860000Y-94488000D03*
D34*
X112529640Y-78638400D03*
X112529640Y-79908400D03*
X112529640Y-81178400D03*
X112529640Y-82448400D03*
X112529640Y-83718400D03*
X112529640Y-84988400D03*
X112529640Y-86258400D03*
X117929640Y-86258400D03*
X117929640Y-84988400D03*
X117929640Y-83718400D03*
X117929640Y-82448400D03*
X117929640Y-81178400D03*
X117929640Y-79908400D03*
X117929640Y-78638400D03*
D35*
X90685640Y-54635400D03*
X90685640Y-55905400D03*
X90685640Y-57175400D03*
X90685640Y-58445400D03*
X96085640Y-58445400D03*
X96085640Y-57175400D03*
X96085640Y-55905400D03*
X96085640Y-54635400D03*
D26*
X76047600Y-80446900D03*
X74777600Y-80446900D03*
X73507600Y-80446900D03*
X72237600Y-80446900D03*
X72237600Y-85846900D03*
X73507600Y-85846900D03*
X74777600Y-85846900D03*
X76047600Y-85846900D03*
X94020640Y-65778400D03*
X92750640Y-65778400D03*
X91480640Y-65778400D03*
X90210640Y-65778400D03*
X90210640Y-71178400D03*
X91480640Y-71178400D03*
X92750640Y-71178400D03*
X94020640Y-71178400D03*
X133085840Y-82466200D03*
X131815840Y-82466200D03*
X130545840Y-82466200D03*
X129275840Y-82466200D03*
X129275840Y-87866200D03*
X130545840Y-87866200D03*
X131815840Y-87866200D03*
X133085840Y-87866200D03*
D33*
X141400000Y-109460000D03*
X143900000Y-109460000D03*
D14*
X142300000Y-106680000D03*
D15*
X144840000Y-106680000D03*
X147380000Y-106680000D03*
D36*
X52644000Y-86344000D03*
X54544000Y-86344000D03*
X53594000Y-84344000D03*
D37*
X145000000Y-97150000D03*
D38*
X145000000Y-103450000D03*
X147300000Y-103450000D03*
X142700000Y-103450000D03*
D24*
X131766000Y-53848000D03*
X124266000Y-53848000D03*
D25*
X128016000Y-53848000D03*
D16*
X102616000Y-69770000D03*
X102616000Y-72470000D03*
X103886000Y-67390000D03*
X103886000Y-64690000D03*
D22*
X126826000Y-75438000D03*
X124126000Y-75438000D03*
D16*
X128905000Y-73961000D03*
X128905000Y-76661000D03*
D30*
X60000000Y-57000000D03*
X137000000Y-57000000D03*
D22*
X102300000Y-118950000D03*
X105000000Y-118950000D03*
X110075000Y-118925000D03*
X107375000Y-118925000D03*
D16*
X99810000Y-119250000D03*
X99810000Y-116550000D03*
D33*
X81554000Y-122682000D03*
X84054000Y-122682000D03*
D32*
X83566000Y-110470000D03*
X83566000Y-107970000D03*
D22*
X75264000Y-109982000D03*
X72564000Y-109982000D03*
X72564000Y-107950000D03*
X75264000Y-107950000D03*
D16*
X80264000Y-108124000D03*
X80264000Y-110824000D03*
D39*
X72306000Y-112080000D03*
X72306000Y-113030000D03*
X72306000Y-113980000D03*
X74506000Y-113980000D03*
X74506000Y-112080000D03*
X74506000Y-113030000D03*
D40*
X57658000Y-123106000D03*
X57658000Y-125306000D03*
D14*
X77978000Y-125984000D03*
D15*
X75438000Y-125984000D03*
D22*
X69676000Y-124460000D03*
X66976000Y-124460000D03*
D41*
X55626000Y-119380000D03*
D42*
X55626000Y-116840000D03*
X55626000Y-114300000D03*
X55626000Y-111760000D03*
X55626000Y-109220000D03*
X55626000Y-106680000D03*
D43*
X62484000Y-131318000D03*
D44*
X59944000Y-131318000D03*
D45*
X69522000Y-99688000D03*
X66622000Y-99688000D03*
X66622000Y-101988000D03*
X69522000Y-101988000D03*
D16*
X76708000Y-111934000D03*
X76708000Y-114634000D03*
D46*
X70484000Y-117094000D03*
X67184000Y-117094000D03*
D33*
X93960000Y-95504000D03*
X91460000Y-95504000D03*
D22*
X95550000Y-98000000D03*
X92850000Y-98000000D03*
D16*
X94650000Y-103100000D03*
X94650000Y-100400000D03*
X96800000Y-103000000D03*
X96800000Y-100300000D03*
D28*
X87300000Y-100300000D03*
X87800000Y-100300000D03*
X88300000Y-100300000D03*
X88800000Y-100300000D03*
X89300000Y-100300000D03*
X89300000Y-95900000D03*
X88800000Y-95900000D03*
X88300000Y-95900000D03*
X87800000Y-95900000D03*
X87300000Y-95900000D03*
D32*
X85190000Y-100870000D03*
X85190000Y-98370000D03*
D16*
X78140000Y-101060000D03*
X78140000Y-98360000D03*
X81720000Y-98240000D03*
X81720000Y-100940000D03*
D36*
X67884000Y-59674000D03*
X69784000Y-59674000D03*
X68834000Y-57674000D03*
D47*
X132210000Y-60660000D03*
X132210000Y-58760000D03*
X130210000Y-59710000D03*
D48*
X69596000Y-109252000D03*
X69596000Y-113252000D03*
D22*
X82216000Y-95504000D03*
X84916000Y-95504000D03*
D21*
X83058000Y-120164000D03*
X83058000Y-116564000D03*
D49*
X83026000Y-113284000D03*
X79026000Y-113284000D03*
X64738000Y-116332000D03*
X60738000Y-116332000D03*
D50*
X81600000Y-129600000D03*
X81600000Y-125600000D03*
D51*
X74140000Y-133910000D03*
X74140000Y-131630000D03*
X74140000Y-129350000D03*
D52*
X67840000Y-131630000D03*
D53*
X141730000Y-80518000D03*
X147830000Y-80518000D03*
X141222000Y-65532000D03*
X147322000Y-65532000D03*
D54*
X138150000Y-123450000D03*
X138150000Y-122350000D03*
X138150000Y-121250000D03*
X138150000Y-120150000D03*
X138150000Y-119050000D03*
X138150000Y-117950000D03*
X138150000Y-116850000D03*
X138150000Y-115750000D03*
D55*
X138750000Y-125750000D03*
D56*
X138750000Y-111150000D03*
D51*
X148350000Y-110250000D03*
X148250000Y-125750000D03*
D54*
X138150000Y-124550000D03*
D57*
X148650000Y-122950000D03*
X148650000Y-114950000D03*
D33*
X133110000Y-116700000D03*
X130610000Y-116700000D03*
D14*
X103500000Y-125000000D03*
D15*
X100960000Y-125000000D03*
X98420000Y-125000000D03*
X95880000Y-125000000D03*
D22*
X55670000Y-72870000D03*
X52970000Y-72870000D03*
X55680000Y-69460000D03*
X52980000Y-69460000D03*
D14*
X52850000Y-66410000D03*
D15*
X55390000Y-66410000D03*
D58*
G36*
X121356120Y-68884800D02*
X109959140Y-68884800D01*
X109959140Y-51521360D01*
X109949134Y-51471950D01*
X109920693Y-51430325D01*
X109912169Y-51424840D01*
X121356120Y-51424840D01*
X121356120Y-68884800D01*
X121356120Y-68884800D01*
G37*
X121356120Y-68884800D02*
X109959140Y-68884800D01*
X109959140Y-51521360D01*
X109949134Y-51471950D01*
X109920693Y-51430325D01*
X109912169Y-51424840D01*
X121356120Y-51424840D01*
X121356120Y-68884800D01*
G36*
X109730540Y-51445160D02*
X109540040Y-51699160D01*
X109540040Y-51424840D01*
X109755809Y-51424840D01*
X109730540Y-51445160D01*
X109730540Y-51445160D01*
G37*
X109730540Y-51445160D02*
X109540040Y-51699160D01*
X109540040Y-51424840D01*
X109755809Y-51424840D01*
X109730540Y-51445160D01*
M02*
