G04 #@! TF.FileFunction,Soldermask,Bot*
%FSLAX46Y46*%
G04 Gerber Fmt 4.6, Leading zero omitted, Abs format (unit mm)*
G04 Created by KiCad (PCBNEW 4.0.7) date 01/12/20 11:33:55*
%MOMM*%
%LPD*%
G01*
G04 APERTURE LIST*
%ADD10C,0.100000*%
%ADD11C,1.920000*%
%ADD12C,3.100000*%
%ADD13R,2.100000X2.100000*%
%ADD14O,2.100000X2.100000*%
%ADD15C,1.924000*%
%ADD16R,2.900000X5.480000*%
%ADD17C,3.400000*%
%ADD18C,5.400000*%
%ADD19R,3.400000X3.400000*%
%ADD20C,4.464000*%
%ADD21R,3.900000X3.900000*%
%ADD22R,3.000000X2.400000*%
%ADD23O,3.000000X2.400000*%
%ADD24C,0.254000*%
G04 APERTURE END LIST*
D10*
D11*
X76139040Y-141320520D03*
X78679040Y-141320520D03*
X78679040Y-143320520D03*
X76139040Y-143320520D03*
D12*
X71409040Y-146020520D03*
X83409040Y-146020520D03*
D13*
X132588000Y-135890000D03*
D14*
X132588000Y-138430000D03*
X130048000Y-135890000D03*
X130048000Y-138430000D03*
X127508000Y-135890000D03*
X127508000Y-138430000D03*
X124968000Y-135890000D03*
X124968000Y-138430000D03*
X122428000Y-135890000D03*
X122428000Y-138430000D03*
X119888000Y-135890000D03*
X119888000Y-138430000D03*
X117348000Y-135890000D03*
X117348000Y-138430000D03*
D15*
X135890000Y-110236000D03*
X133350000Y-110236000D03*
X130810000Y-110236000D03*
X128270000Y-110236000D03*
X125730000Y-110236000D03*
X123190000Y-110236000D03*
X120650000Y-110236000D03*
X118110000Y-110236000D03*
X115570000Y-110236000D03*
X113030000Y-110236000D03*
X110490000Y-110236000D03*
X107950000Y-110236000D03*
X105410000Y-110236000D03*
X102870000Y-110236000D03*
X100330000Y-110236000D03*
X97790000Y-110236000D03*
X95250000Y-110236000D03*
X92710000Y-110236000D03*
X90170000Y-110236000D03*
X87630000Y-110236000D03*
X135890000Y-125476000D03*
X133350000Y-125476000D03*
X130810000Y-125476000D03*
X128270000Y-125476000D03*
X125730000Y-125476000D03*
X123190000Y-125476000D03*
X120650000Y-125476000D03*
X118110000Y-125476000D03*
X115570000Y-125476000D03*
X113030000Y-125476000D03*
X110490000Y-125476000D03*
X107950000Y-125476000D03*
X105410000Y-125476000D03*
X102870000Y-125476000D03*
X100330000Y-125476000D03*
X97790000Y-125476000D03*
X95250000Y-125476000D03*
X92710000Y-125476000D03*
X90170000Y-125476000D03*
X87630000Y-125476000D03*
D16*
X72584000Y-53848000D03*
X65084000Y-53848000D03*
D17*
X68326000Y-73914000D03*
X60198000Y-73914000D03*
X54864000Y-68580000D03*
X60198000Y-65532000D03*
X68072000Y-65532000D03*
D13*
X105156000Y-133350000D03*
D14*
X102616000Y-133350000D03*
X100076000Y-133350000D03*
X97536000Y-133350000D03*
D18*
X53000000Y-53000000D03*
X147000000Y-53000000D03*
X53000000Y-147000000D03*
X147000000Y-147000000D03*
D19*
X125437900Y-146507200D03*
D17*
X130517900Y-146507200D03*
D13*
X103378000Y-139954000D03*
D14*
X105918000Y-139954000D03*
D20*
X60000000Y-102000000D03*
X60000000Y-146000000D03*
X137000000Y-102000000D03*
X137000000Y-146000000D03*
D21*
X91922600Y-140903960D03*
X91922600Y-146903960D03*
X96622600Y-143903960D03*
D13*
X76962000Y-53340000D03*
D14*
X76962000Y-55880000D03*
D13*
X77978000Y-69088000D03*
D14*
X75438000Y-69088000D03*
X72898000Y-69088000D03*
D13*
X103124000Y-98806000D03*
D14*
X100584000Y-98806000D03*
D13*
X139192000Y-133350000D03*
D14*
X139192000Y-135890000D03*
X139192000Y-138430000D03*
D16*
X131766000Y-53848000D03*
X124266000Y-53848000D03*
D20*
X60000000Y-58000000D03*
X137000000Y-58000000D03*
D13*
X61700000Y-129600000D03*
D14*
X59160000Y-129600000D03*
D22*
X54102000Y-125476000D03*
D23*
X54102000Y-122936000D03*
X54102000Y-120396000D03*
X54102000Y-117856000D03*
X54102000Y-115316000D03*
X54102000Y-112776000D03*
D22*
X54102000Y-136398000D03*
D23*
X54102000Y-133858000D03*
D13*
X75650000Y-133700000D03*
D14*
X78190000Y-133700000D03*
D24*
G36*
X56702960Y-76987400D02*
X50810160Y-76987400D01*
X50810160Y-51313080D01*
X56702960Y-51313080D01*
X56702960Y-76987400D01*
X56702960Y-76987400D01*
G37*
X56702960Y-76987400D02*
X50810160Y-76987400D01*
X50810160Y-51313080D01*
X56702960Y-51313080D01*
X56702960Y-76987400D01*
G36*
X149225373Y-76375260D02*
X139192377Y-76375260D01*
X139267832Y-50919046D01*
X149300818Y-50688659D01*
X149225373Y-76375260D01*
X149225373Y-76375260D01*
G37*
X149225373Y-76375260D02*
X139192377Y-76375260D01*
X139267832Y-50919046D01*
X149300818Y-50688659D01*
X149225373Y-76375260D01*
M02*
