G04 #@! TF.FileFunction,Soldermask,Top*
%FSLAX46Y46*%
G04 Gerber Fmt 4.6, Leading zero omitted, Abs format (unit mm)*
G04 Created by KiCad (PCBNEW 4.0.7) date 11/20/19 22:33:58*
%MOMM*%
%LPD*%
G01*
G04 APERTURE LIST*
%ADD10C,0.100000*%
%ADD11R,1.900000X1.700000*%
%ADD12R,2.600000X1.900000*%
%ADD13C,1.920000*%
%ADD14C,3.100000*%
%ADD15R,2.100000X2.100000*%
%ADD16O,2.100000X2.100000*%
%ADD17C,1.924000*%
%ADD18R,2.900000X5.480000*%
%ADD19R,1.900000X5.480000*%
%ADD20R,1.700000X1.900000*%
%ADD21R,1.000000X1.950000*%
%ADD22C,3.400000*%
%ADD23R,0.700000X1.800000*%
%ADD24C,5.400000*%
%ADD25R,3.400000X3.400000*%
%ADD26C,4.464000*%
%ADD27R,3.900000X3.900000*%
%ADD28R,1.650000X1.900000*%
%ADD29R,1.900000X1.650000*%
%ADD30R,3.400000X2.000000*%
%ADD31R,1.300000X1.600000*%
%ADD32R,1.600000X1.300000*%
%ADD33R,1.900000X1.000000*%
%ADD34R,1.950000X1.000000*%
%ADD35R,2.600000X1.600000*%
%ADD36R,6.800000X6.200000*%
%ADD37R,1.200000X1.300000*%
%ADD38R,4.200000X2.400000*%
%ADD39R,1.900000X2.400000*%
%ADD40R,1.050000X1.460000*%
%ADD41R,2.000000X3.000000*%
%ADD42R,3.000000X2.000000*%
%ADD43R,1.600000X1.600000*%
%ADD44R,3.000000X2.400000*%
%ADD45O,3.000000X2.400000*%
%ADD46R,2.500000X2.200000*%
%ADD47C,1.400000*%
%ADD48R,1.900000X1.400000*%
%ADD49C,0.254000*%
G04 APERTURE END LIST*
D10*
D11*
X109066320Y-83713320D03*
X106366320Y-83713320D03*
D12*
X70358000Y-111354000D03*
X70358000Y-117754000D03*
D13*
X76139040Y-141320520D03*
X78679040Y-141320520D03*
X78679040Y-143320520D03*
X76139040Y-143320520D03*
D14*
X71409040Y-146020520D03*
X83409040Y-146020520D03*
D15*
X132588000Y-135890000D03*
D16*
X132588000Y-138430000D03*
X130048000Y-135890000D03*
X130048000Y-138430000D03*
X127508000Y-135890000D03*
X127508000Y-138430000D03*
X124968000Y-135890000D03*
X124968000Y-138430000D03*
X122428000Y-135890000D03*
X122428000Y-138430000D03*
X119888000Y-135890000D03*
X119888000Y-138430000D03*
X117348000Y-135890000D03*
X117348000Y-138430000D03*
D17*
X135890000Y-110236000D03*
X133350000Y-110236000D03*
X130810000Y-110236000D03*
X128270000Y-110236000D03*
X125730000Y-110236000D03*
X123190000Y-110236000D03*
X120650000Y-110236000D03*
X118110000Y-110236000D03*
X115570000Y-110236000D03*
X113030000Y-110236000D03*
X110490000Y-110236000D03*
X107950000Y-110236000D03*
X105410000Y-110236000D03*
X102870000Y-110236000D03*
X100330000Y-110236000D03*
X97790000Y-110236000D03*
X95250000Y-110236000D03*
X92710000Y-110236000D03*
X90170000Y-110236000D03*
X87630000Y-110236000D03*
X135890000Y-125476000D03*
X133350000Y-125476000D03*
X130810000Y-125476000D03*
X128270000Y-125476000D03*
X125730000Y-125476000D03*
X123190000Y-125476000D03*
X120650000Y-125476000D03*
X118110000Y-125476000D03*
X115570000Y-125476000D03*
X113030000Y-125476000D03*
X110490000Y-125476000D03*
X107950000Y-125476000D03*
X105410000Y-125476000D03*
X102870000Y-125476000D03*
X100330000Y-125476000D03*
X97790000Y-125476000D03*
X95250000Y-125476000D03*
X92710000Y-125476000D03*
X90170000Y-125476000D03*
X87630000Y-125476000D03*
D18*
X72584000Y-53848000D03*
X65084000Y-53848000D03*
D19*
X68834000Y-53848000D03*
D20*
X73660000Y-66120000D03*
X73660000Y-63420000D03*
D21*
X132603240Y-65956200D03*
X131333240Y-65956200D03*
X130063240Y-65956200D03*
X128793240Y-65956200D03*
X128793240Y-71356200D03*
X130063240Y-71356200D03*
X131333240Y-71356200D03*
X132603240Y-71356200D03*
D22*
X68326000Y-73914000D03*
X60198000Y-73914000D03*
X54864000Y-68580000D03*
X60198000Y-65532000D03*
X68072000Y-65532000D03*
D15*
X105156000Y-133350000D03*
D16*
X102616000Y-133350000D03*
X100076000Y-133350000D03*
X97536000Y-133350000D03*
D23*
X63262000Y-95418000D03*
X63762000Y-95418000D03*
X64262000Y-95418000D03*
X64762000Y-95418000D03*
X65262000Y-95418000D03*
X65262000Y-91018000D03*
X64762000Y-91018000D03*
X64262000Y-91018000D03*
X63762000Y-91018000D03*
X63262000Y-91018000D03*
D24*
X53000000Y-53000000D03*
X147000000Y-53000000D03*
X53000000Y-147000000D03*
X147000000Y-147000000D03*
D25*
X125437900Y-146507200D03*
D22*
X130517900Y-146507200D03*
D15*
X103378000Y-139954000D03*
D16*
X105918000Y-139954000D03*
D26*
X60000000Y-102000000D03*
X60000000Y-146000000D03*
X137000000Y-102000000D03*
X137000000Y-146000000D03*
D27*
X91922600Y-140903960D03*
X91922600Y-146903960D03*
X96622600Y-143903960D03*
D15*
X76962000Y-53340000D03*
D16*
X76962000Y-55880000D03*
D15*
X77978000Y-69088000D03*
D16*
X75438000Y-69088000D03*
X72898000Y-69088000D03*
D15*
X103124000Y-98806000D03*
D16*
X100584000Y-98806000D03*
D28*
X104561640Y-58084400D03*
X104561640Y-60584400D03*
D29*
X58440000Y-94742000D03*
X60940000Y-94742000D03*
X143545240Y-75666600D03*
X146045240Y-75666600D03*
D30*
X142417440Y-81203800D03*
X146817440Y-81203800D03*
D29*
X143900840Y-61036200D03*
X146400840Y-61036200D03*
D28*
X64262000Y-76688000D03*
X64262000Y-74188000D03*
D30*
X142290440Y-66395600D03*
X146690440Y-66395600D03*
D29*
X87015640Y-53746400D03*
X84515640Y-53746400D03*
X87269640Y-57048400D03*
X84769640Y-57048400D03*
D28*
X72390000Y-77196000D03*
X72390000Y-74696000D03*
D29*
X78760000Y-78994000D03*
X81260000Y-78994000D03*
X128605600Y-64008000D03*
X126105600Y-64008000D03*
D28*
X136235440Y-65740600D03*
X136235440Y-63240600D03*
D29*
X84795040Y-60172600D03*
X87295040Y-60172600D03*
D28*
X65532000Y-84562000D03*
X65532000Y-82062000D03*
D29*
X123845000Y-66167000D03*
X126345000Y-66167000D03*
X93873640Y-61747400D03*
X91373640Y-61747400D03*
D28*
X69088000Y-84308000D03*
X69088000Y-81808000D03*
X125592840Y-72649400D03*
X125592840Y-70149400D03*
X101196140Y-59938600D03*
X101196140Y-62438600D03*
D29*
X73740960Y-89016840D03*
X76240960Y-89016840D03*
D28*
X99227640Y-57028400D03*
X99227640Y-54528400D03*
D29*
X81260000Y-85839300D03*
X78760000Y-85839300D03*
D28*
X131064000Y-74061000D03*
X131064000Y-76561000D03*
X133807200Y-76840400D03*
X133807200Y-74340400D03*
X88813640Y-76459400D03*
X88813640Y-73959400D03*
D29*
X97853180Y-78315820D03*
X100353180Y-78315820D03*
X128698940Y-79883000D03*
X131198940Y-79883000D03*
D28*
X96946720Y-64709360D03*
X96946720Y-62209360D03*
X94757240Y-73680000D03*
X94757240Y-76180000D03*
X136425940Y-83419000D03*
X136425940Y-80919000D03*
D29*
X96402840Y-71805800D03*
X98902840Y-71805800D03*
D28*
X134950200Y-88325640D03*
X134950200Y-90825640D03*
X125476000Y-104628000D03*
X125476000Y-102128000D03*
X120396000Y-104628000D03*
X120396000Y-102128000D03*
X103886000Y-104882000D03*
X103886000Y-102382000D03*
D29*
X117368640Y-76329540D03*
X114868640Y-76329540D03*
D28*
X57912000Y-88920000D03*
X57912000Y-91420000D03*
D29*
X115590640Y-96164400D03*
X113090640Y-96164400D03*
D28*
X87670640Y-71125400D03*
X87670640Y-68625400D03*
D30*
X115904920Y-146014440D03*
X120304920Y-146014440D03*
D28*
X112522000Y-144292000D03*
X112522000Y-146792000D03*
D31*
X70740000Y-58928000D03*
X74040000Y-58928000D03*
X65406000Y-58928000D03*
X68706000Y-58928000D03*
D32*
X132105400Y-59157600D03*
X132105400Y-62457600D03*
D31*
X125883400Y-59436000D03*
X129183400Y-59436000D03*
D11*
X143496040Y-86868000D03*
X146196040Y-86868000D03*
X57324000Y-97028000D03*
X60024000Y-97028000D03*
D20*
X102275640Y-54428400D03*
X102275640Y-57128400D03*
X85852000Y-83646000D03*
X85852000Y-80946000D03*
X136260840Y-74316600D03*
X136260840Y-77016600D03*
X67564000Y-96346000D03*
X67564000Y-93646000D03*
X69596000Y-96346000D03*
X69596000Y-93646000D03*
D11*
X146196040Y-71831200D03*
X143496040Y-71831200D03*
X127135880Y-88432640D03*
X124435880Y-88432640D03*
X74088000Y-72136000D03*
X76788000Y-72136000D03*
X112990640Y-89687400D03*
X115690640Y-89687400D03*
X75612000Y-75692000D03*
X78312000Y-75692000D03*
X79259440Y-92791280D03*
X81959440Y-92791280D03*
X112990640Y-92735400D03*
X115690640Y-92735400D03*
X78058000Y-61468000D03*
X75358000Y-61468000D03*
D20*
X82042000Y-59610000D03*
X82042000Y-62310000D03*
X81788000Y-56976000D03*
X81788000Y-54276000D03*
D11*
X81817200Y-89128600D03*
X79117200Y-89128600D03*
X59864000Y-81788000D03*
X62564000Y-81788000D03*
X59950000Y-85150000D03*
X57250000Y-85150000D03*
D20*
X123952000Y-61929000D03*
X123952000Y-59229000D03*
D11*
X125980200Y-62001400D03*
X128680200Y-62001400D03*
X85457040Y-63373000D03*
X88157040Y-63373000D03*
X81868000Y-82550000D03*
X79168000Y-82550000D03*
D20*
X125719840Y-80354160D03*
X125719840Y-77654160D03*
D11*
X89038440Y-78994000D03*
X91738440Y-78994000D03*
X94753440Y-80162400D03*
X97453440Y-80162400D03*
D20*
X122341640Y-82597000D03*
X122341640Y-85297000D03*
X85054440Y-69828400D03*
X85054440Y-67128400D03*
X91480640Y-73859400D03*
X91480640Y-76559400D03*
X125694440Y-85347800D03*
X125694440Y-82647800D03*
D11*
X104570520Y-89961720D03*
X101870520Y-89961720D03*
D20*
X139019280Y-88278960D03*
X139019280Y-85578960D03*
X128016000Y-102028000D03*
X128016000Y-104728000D03*
X118110000Y-102028000D03*
X118110000Y-104728000D03*
D11*
X104504480Y-93405960D03*
X101804480Y-93405960D03*
D20*
X106426000Y-102282000D03*
X106426000Y-104982000D03*
X109377480Y-81329520D03*
X109377480Y-78629520D03*
X106070400Y-81309200D03*
X106070400Y-78609200D03*
D11*
X111626640Y-76504800D03*
X108926640Y-76504800D03*
X52752000Y-89662000D03*
X55452000Y-89662000D03*
X55452000Y-93218000D03*
X52752000Y-93218000D03*
X54530000Y-81788000D03*
X57230000Y-81788000D03*
X104565440Y-86715600D03*
X101865440Y-86715600D03*
D20*
X100330000Y-102282000D03*
X100330000Y-104982000D03*
D33*
X112529640Y-78638400D03*
X112529640Y-79908400D03*
X112529640Y-81178400D03*
X112529640Y-82448400D03*
X112529640Y-83718400D03*
X112529640Y-84988400D03*
X112529640Y-86258400D03*
X117929640Y-86258400D03*
X117929640Y-84988400D03*
X117929640Y-83718400D03*
X117929640Y-82448400D03*
X117929640Y-81178400D03*
X117929640Y-79908400D03*
X117929640Y-78638400D03*
D34*
X90685640Y-54635400D03*
X90685640Y-55905400D03*
X90685640Y-57175400D03*
X90685640Y-58445400D03*
X96085640Y-58445400D03*
X96085640Y-57175400D03*
X96085640Y-55905400D03*
X96085640Y-54635400D03*
D21*
X76047600Y-80446900D03*
X74777600Y-80446900D03*
X73507600Y-80446900D03*
X72237600Y-80446900D03*
X72237600Y-85846900D03*
X73507600Y-85846900D03*
X74777600Y-85846900D03*
X76047600Y-85846900D03*
X94020640Y-65778400D03*
X92750640Y-65778400D03*
X91480640Y-65778400D03*
X90210640Y-65778400D03*
X90210640Y-71178400D03*
X91480640Y-71178400D03*
X92750640Y-71178400D03*
X94020640Y-71178400D03*
X133085840Y-82466200D03*
X131815840Y-82466200D03*
X130545840Y-82466200D03*
X129275840Y-82466200D03*
X129275840Y-87866200D03*
X130545840Y-87866200D03*
X131815840Y-87866200D03*
X133085840Y-87866200D03*
D35*
X110118000Y-147314000D03*
X110118000Y-145034000D03*
X110118000Y-142754000D03*
D36*
X103818000Y-145034000D03*
D29*
X135362000Y-130556000D03*
X132862000Y-130556000D03*
D15*
X139192000Y-133350000D03*
D16*
X139192000Y-135890000D03*
X139192000Y-138430000D03*
D37*
X52644000Y-86344000D03*
X54544000Y-86344000D03*
X53594000Y-84344000D03*
D38*
X145034000Y-132436000D03*
D39*
X145034000Y-126136000D03*
X142734000Y-126136000D03*
X147334000Y-126136000D03*
D18*
X131766000Y-53848000D03*
X124266000Y-53848000D03*
D19*
X128016000Y-53848000D03*
D20*
X102616000Y-69770000D03*
X102616000Y-72470000D03*
X103886000Y-67390000D03*
X103886000Y-64690000D03*
D11*
X126826000Y-75438000D03*
X124126000Y-75438000D03*
D20*
X128905000Y-73961000D03*
X128905000Y-76661000D03*
D26*
X60000000Y-58000000D03*
X137000000Y-58000000D03*
D11*
X104822000Y-130302000D03*
X107522000Y-130302000D03*
X109902000Y-130302000D03*
X112602000Y-130302000D03*
X86186020Y-132938520D03*
X88886020Y-132938520D03*
D28*
X60625000Y-137225000D03*
X60625000Y-139725000D03*
D29*
X71350000Y-132800000D03*
X73850000Y-132800000D03*
D31*
X62104000Y-108966000D03*
X65404000Y-108966000D03*
D20*
X56159400Y-108578640D03*
X56159400Y-105878640D03*
X53858160Y-105970080D03*
X53858160Y-108670080D03*
X59436000Y-113364000D03*
X59436000Y-110664000D03*
D40*
X64958000Y-111168000D03*
X64008000Y-111168000D03*
X63058000Y-111168000D03*
X63058000Y-113368000D03*
X64958000Y-113368000D03*
X64008000Y-113368000D03*
D12*
X65900000Y-139000000D03*
X65900000Y-132600000D03*
D41*
X77230000Y-110100000D03*
X77230000Y-113700000D03*
D42*
X59414000Y-117348000D03*
X63014000Y-117348000D03*
X74654000Y-121158000D03*
X78254000Y-121158000D03*
X59414000Y-123190000D03*
X63014000Y-123190000D03*
D43*
X79210000Y-128120000D03*
X79210000Y-125920000D03*
D15*
X62260480Y-128950720D03*
D16*
X59720480Y-128950720D03*
D11*
X76955640Y-129250440D03*
X74255640Y-129250440D03*
X77011520Y-125704600D03*
X74311520Y-125704600D03*
D21*
X67945000Y-127922000D03*
X69215000Y-127922000D03*
X70485000Y-127922000D03*
X71755000Y-127922000D03*
X71755000Y-122522000D03*
X70485000Y-122522000D03*
X69215000Y-122522000D03*
X67945000Y-122522000D03*
D44*
X54102000Y-125476000D03*
D45*
X54102000Y-122936000D03*
X54102000Y-120396000D03*
X54102000Y-117856000D03*
X54102000Y-115316000D03*
X54102000Y-112776000D03*
D44*
X54102000Y-136398000D03*
D45*
X54102000Y-133858000D03*
D46*
X69268000Y-99942000D03*
X66368000Y-99942000D03*
X66368000Y-102242000D03*
X69268000Y-102242000D03*
D11*
X78580000Y-117600000D03*
X75880000Y-117600000D03*
D32*
X60575000Y-134875000D03*
X60575000Y-131575000D03*
D29*
X93960000Y-95504000D03*
X91460000Y-95504000D03*
D47*
X85540000Y-95170000D03*
X82040000Y-95170000D03*
D48*
X84830000Y-95170000D03*
X82790000Y-95170000D03*
D47*
X76736000Y-94742000D03*
X80236000Y-94742000D03*
D48*
X77446000Y-94742000D03*
X79486000Y-94742000D03*
D11*
X95584000Y-98298000D03*
X92884000Y-98298000D03*
D20*
X94742000Y-104220000D03*
X94742000Y-101520000D03*
X97028000Y-104220000D03*
X97028000Y-101520000D03*
D23*
X87300000Y-100300000D03*
X87800000Y-100300000D03*
X88300000Y-100300000D03*
X88800000Y-100300000D03*
X89300000Y-100300000D03*
X89300000Y-95900000D03*
X88800000Y-95900000D03*
X88300000Y-95900000D03*
X87800000Y-95900000D03*
X87300000Y-95900000D03*
D28*
X85190000Y-100870000D03*
X85190000Y-98370000D03*
D20*
X78140000Y-101060000D03*
X78140000Y-98360000D03*
X81720000Y-98240000D03*
X81720000Y-100940000D03*
D49*
G36*
X121356120Y-68884800D02*
X109959140Y-68884800D01*
X109959140Y-51521360D01*
X109949134Y-51471950D01*
X109920693Y-51430325D01*
X109912169Y-51424840D01*
X121356120Y-51424840D01*
X121356120Y-68884800D01*
X121356120Y-68884800D01*
G37*
X121356120Y-68884800D02*
X109959140Y-68884800D01*
X109959140Y-51521360D01*
X109949134Y-51471950D01*
X109920693Y-51430325D01*
X109912169Y-51424840D01*
X121356120Y-51424840D01*
X121356120Y-68884800D01*
G36*
X109730540Y-51445160D02*
X109540040Y-51699160D01*
X109540040Y-51424840D01*
X109755809Y-51424840D01*
X109730540Y-51445160D01*
X109730540Y-51445160D01*
G37*
X109730540Y-51445160D02*
X109540040Y-51699160D01*
X109540040Y-51424840D01*
X109755809Y-51424840D01*
X109730540Y-51445160D01*
M02*
