G04 #@! TF.FileFunction,Soldermask,Bot*
%FSLAX46Y46*%
G04 Gerber Fmt 4.6, Leading zero omitted, Abs format (unit mm)*
G04 Created by KiCad (PCBNEW 4.0.7) date 10/27/19 20:13:01*
%MOMM*%
%LPD*%
G01*
G04 APERTURE LIST*
%ADD10C,0.100000*%
%ADD11C,1.924000*%
%ADD12R,2.900000X5.480000*%
%ADD13C,3.400000*%
%ADD14R,2.100000X2.100000*%
%ADD15O,2.100000X2.100000*%
%ADD16C,1.900000*%
%ADD17C,5.400000*%
%ADD18R,3.400000X3.400000*%
%ADD19C,4.464000*%
%ADD20R,3.900000X3.900000*%
%ADD21C,0.254000*%
G04 APERTURE END LIST*
D10*
D11*
X69342000Y-138430000D03*
X71882000Y-138430000D03*
X74422000Y-138430000D03*
X76962000Y-138430000D03*
X79502000Y-138430000D03*
X82042000Y-138430000D03*
X84582000Y-138430000D03*
X87122000Y-138430000D03*
X89662000Y-138430000D03*
X92202000Y-138430000D03*
X94742000Y-138430000D03*
X97282000Y-138430000D03*
X99822000Y-138430000D03*
X102362000Y-138430000D03*
X104902000Y-138430000D03*
X107442000Y-138430000D03*
X109982000Y-138430000D03*
X112522000Y-138430000D03*
X115062000Y-138430000D03*
X117602000Y-138430000D03*
X69342000Y-123190000D03*
X71882000Y-123190000D03*
X74422000Y-123190000D03*
X76962000Y-123190000D03*
X79502000Y-123190000D03*
X82042000Y-123190000D03*
X84582000Y-123190000D03*
X87122000Y-123190000D03*
X89662000Y-123190000D03*
X92202000Y-123190000D03*
X94742000Y-123190000D03*
X97282000Y-123190000D03*
X99822000Y-123190000D03*
X102362000Y-123190000D03*
X104902000Y-123190000D03*
X107442000Y-123190000D03*
X109982000Y-123190000D03*
X112522000Y-123190000D03*
X115062000Y-123190000D03*
X117602000Y-123190000D03*
D12*
X72584000Y-53848000D03*
X65084000Y-53848000D03*
D13*
X68326000Y-73914000D03*
X60198000Y-73914000D03*
X54864000Y-68580000D03*
X60198000Y-65532000D03*
X68072000Y-65532000D03*
D14*
X143421100Y-96164400D03*
D15*
X145961100Y-96164400D03*
X143421100Y-98704400D03*
X145961100Y-98704400D03*
X143421100Y-101244400D03*
X145961100Y-101244400D03*
X143421100Y-103784400D03*
X145961100Y-103784400D03*
X143421100Y-106324400D03*
X145961100Y-106324400D03*
D14*
X99568000Y-109220000D03*
D15*
X102108000Y-109220000D03*
X104648000Y-109220000D03*
X107188000Y-109220000D03*
D16*
X67818000Y-100584000D03*
X72698000Y-100584000D03*
D17*
X53000000Y-53000000D03*
X147000000Y-53000000D03*
X53000000Y-147000000D03*
X147000000Y-147000000D03*
D18*
X145389600Y-137007600D03*
D13*
X145389600Y-131927600D03*
D14*
X137020300Y-137299700D03*
D15*
X139560300Y-137299700D03*
D19*
X60000000Y-102000000D03*
X60000000Y-146000000D03*
X137000000Y-102000000D03*
X137000000Y-146000000D03*
D20*
X126288800Y-140474700D03*
X126288800Y-146474700D03*
X130988800Y-143474700D03*
D14*
X76962000Y-53340000D03*
D15*
X76962000Y-55880000D03*
D14*
X77978000Y-69088000D03*
D15*
X75438000Y-69088000D03*
X72898000Y-69088000D03*
D14*
X126339600Y-133324600D03*
D15*
X128879600Y-133324600D03*
D14*
X63703200Y-135597900D03*
D15*
X63703200Y-138137900D03*
X63703200Y-140677900D03*
D12*
X131766000Y-53848000D03*
X124266000Y-53848000D03*
D19*
X60000000Y-58000000D03*
X137000000Y-58000000D03*
D14*
X58562240Y-134924800D03*
D15*
X56022240Y-134924800D03*
X58562240Y-132384800D03*
X56022240Y-132384800D03*
X58562240Y-129844800D03*
X56022240Y-129844800D03*
X58562240Y-127304800D03*
X56022240Y-127304800D03*
X58562240Y-124764800D03*
X56022240Y-124764800D03*
X58562240Y-122224800D03*
X56022240Y-122224800D03*
X58562240Y-119684800D03*
X56022240Y-119684800D03*
D21*
G36*
X56702960Y-76987400D02*
X50810160Y-76987400D01*
X50810160Y-51313080D01*
X56702960Y-51313080D01*
X56702960Y-76987400D01*
X56702960Y-76987400D01*
G37*
X56702960Y-76987400D02*
X50810160Y-76987400D01*
X50810160Y-51313080D01*
X56702960Y-51313080D01*
X56702960Y-76987400D01*
G36*
X149225373Y-76375260D02*
X139192377Y-76375260D01*
X139267832Y-50919046D01*
X149300818Y-50688659D01*
X149225373Y-76375260D01*
X149225373Y-76375260D01*
G37*
X149225373Y-76375260D02*
X139192377Y-76375260D01*
X139267832Y-50919046D01*
X149300818Y-50688659D01*
X149225373Y-76375260D01*
M02*
