M48
;DRILL file {KiCad 4.0.7} date 02/04/20 14:09:29
;FORMAT={-:-/ absolute / metric / decimal}
FMAT,2
METRIC,TZ
T1C0.400
T2C0.762
T3C0.810
T4C1.000
T5C1.200
T6C1.500
T7C2.300
T8C3.048
%
G90
G05
M71
T1
X50.98Y-66.77
X51.15Y-68.7
X51.42Y-61.512
X51.638Y-77.902
X51.791Y-79.858
X51.867Y-75.895
X51.918Y-73.711
X52.019Y-82.093
X52.146Y-71.806
X52.426Y-70.129
X52.578Y-78.74
X53.137Y-82.753
X53.594Y-77.724
X54.864Y-57.887
X54.864Y-76.708
X54.864Y-100.838
X55.22Y-60.503
X55.626Y-86.868
X55.626Y-102.108
X55.626Y-121.412
X56.109Y-56.439
X56.134Y-75.692
X56.388Y-103.124
X56.642Y-70.866
X56.896Y-87.122
X57.1Y-93.05
X57.15Y-71.882
X57.785Y-54.991
X57.81Y-61.697
X58.166Y-104.902
X58.674Y-79.756
X58.674Y-112.776
X58.85Y-127.725
X58.928Y-125.73
X59.1Y-53.4
X59.182Y-87.63
X59.436Y-78.232
X59.69Y-91.948
X59.69Y-119.126
X59.944Y-105.156
X60.198Y-109.474
X60.452Y-88.138
X60.452Y-113.284
X60.706Y-77.47
X60.858Y-61.62
X60.96Y-91.948
X61.1Y-127.925
X61.214Y-90.932
X61.468Y-110.49
X61.976Y-54.661
X61.976Y-83.312
X61.976Y-105.156
X61.976Y-108.204
X62.418Y-79.489
X62.484Y-51.816
X62.738Y-75.184
X62.738Y-76.708
X62.738Y-84.328
X62.738Y-86.106
X62.941Y-56.439
X62.941Y-60.401
X62.992Y-69.088
X62.992Y-70.866
X62.992Y-72.39
X62.992Y-73.66
X63.246Y-66.294
X63.246Y-67.564
X63.246Y-110.998
X63.424Y-58.928
X63.5Y-63.246
X63.5Y-64.516
X63.754Y-92.71
X63.754Y-108.204
X64.008Y-105.156
X64.2Y-82.5
X64.2Y-84.4
X64.25Y-86.05
X64.3Y-81.3
X64.516Y-62.484
X64.516Y-80.01
X64.516Y-111.506
X65.024Y-69.088
X65.024Y-70.358
X65.024Y-79.248
X65.024Y-87.884
X65.024Y-108.966
X65.024Y-118.364
X65.278Y-65.278
X65.278Y-67.056
X65.278Y-72.136
X65.525Y-126.15
X65.532Y-73.152
X65.532Y-74.422
X65.532Y-75.692
X65.532Y-77.47
X65.786Y-61.722
X65.786Y-63.754
X65.786Y-105.664
X65.786Y-110.236
X65.95Y-85.95
X66.04Y-87.884
X66.294Y-111.76
X66.548Y-80.01
X66.548Y-122.682
X66.548Y-126.492
X66.802Y-62.992
X66.9Y-85.35
X67.056Y-52.07
X67.056Y-53.848
X67.31Y-61.214
X67.31Y-87.884
X67.818Y-89.662
X67.818Y-105.918
X67.818Y-122.682
X68.072Y-62.738
X68.326Y-80.01
X68.834Y-60.706
X68.834Y-87.884
X69.342Y-89.662
X69.596Y-62.484
X69.85Y-105.918
X70.104Y-80.264
X70.104Y-87.884
X70.104Y-122.428
X70.358Y-52.07
X70.358Y-55.626
X70.358Y-90.424
X70.612Y-54.102
X70.612Y-60.452
X70.866Y-88.392
X71.12Y-62.484
X71.12Y-91.44
X71.12Y-108.458
X71.12Y-113.538
X71.12Y-114.554
X71.374Y-123.444
X71.68Y-129.48
X71.81Y-131.02
X71.882Y-89.662
X71.882Y-105.664
X71.89Y-132.36
X71.96Y-133.58
X72.136Y-60.198
X72.136Y-82.296
X72.136Y-92.202
X72.39Y-62.23
X72.39Y-84.328
X72.898Y-90.678
X72.898Y-93.98
X73.406Y-84.328
X73.406Y-94.996
X73.66Y-60.198
X73.66Y-82.55
X74.168Y-90.932
X74.168Y-96.012
X74.168Y-105.664
X74.168Y-117.602
X74.59Y-58.81
X74.676Y-52.324
X74.676Y-54.102
X74.676Y-84.328
X74.8Y-55.25
X74.84Y-56.9
X74.93Y-82.55
X75.692Y-90.932
X75.692Y-96.52
X75.692Y-118.11
X75.946Y-84.328
X76.454Y-51.308
X76.454Y-105.664
X76.962Y-119.888
X77.47Y-84.328
X77.47Y-110.236
X77.47Y-118.364
X77.47Y-121.158
X77.724Y-90.932
X77.724Y-96.774
X77.724Y-105.664
X78.232Y-110.998
X78.232Y-117.094
X78.74Y-51.054
X78.994Y-115.316
X79.248Y-96.774
X79.248Y-105.664
X79.6Y-122.42
X79.756Y-55.118
X79.756Y-56.388
X80.01Y-53.594
X80.01Y-57.912
X80.18Y-101.91
X80.264Y-63.246
X80.264Y-69.85
X80.264Y-76.962
X80.264Y-90.932
X80.518Y-64.262
X80.518Y-75.184
X80.772Y-66.04
X80.772Y-72.136
X80.772Y-96.774
X81.026Y-73.66
X81.28Y-51.054
X81.28Y-105.664
X81.28Y-117.348
X81.28Y-118.364
X81.534Y-90.932
X81.534Y-119.38
X82.042Y-105.664
X82.296Y-96.774
X83.058Y-106.426
X83.195Y-80.284
X83.3Y-101.5
X83.312Y-90.932
X83.312Y-93.726
X83.363Y-81.885
X83.439Y-83.744
X83.541Y-85.552
X83.566Y-51.054
X83.566Y-61.976
X83.566Y-96.774
X83.652Y-87.092
X83.652Y-89.159
X84.328Y-118.618
X84.582Y-91.694
X84.582Y-119.888
X84.582Y-121.412
X84.65Y-133.
X84.8Y-128.2
X84.836Y-55.626
X84.836Y-108.458
X84.85Y-131.05
X84.9Y-126.5
X85.09Y-96.774
X85.4Y-124.4
X85.45Y-121.45
X85.5Y-113.1
X85.55Y-118.2
X85.598Y-93.726
X85.6Y-111.15
X85.7Y-109.2
X85.8Y-120.25
X85.85Y-123.4
X85.852Y-51.054
X86.Y-114.7
X86.05Y-116.3
X86.36Y-91.694
X86.614Y-97.028
X88.138Y-51.054
X88.138Y-91.694
X88.138Y-93.726
X88.138Y-97.282
X89.068Y-68.351
X89.662Y-93.726
X89.916Y-91.694
X89.957Y-67.081
X90.162Y-74.069
X90.17Y-51.054
X91.44Y-93.726
X91.948Y-91.694
X92.187Y-58.461
X92.248Y-57.104
X92.309Y-55.931
X92.324Y-53.614
X92.339Y-54.666
X92.456Y-112.268
X92.71Y-51.054
X92.71Y-99.568
X92.918Y-81.9
X93.218Y-93.726
X93.726Y-91.694
X94.198Y-56.083
X94.259Y-57.241
X94.366Y-58.537
X94.397Y-54.574
X94.686Y-59.756
X94.991Y-53.645
X94.996Y-51.054
X95.25Y-91.694
X95.25Y-112.014
X95.504Y-93.726
X96.434Y-70.002
X96.515Y-59.68
X96.66Y-73.762
X96.774Y-91.948
X97.282Y-93.98
X97.536Y-91.44
X97.765Y-84.163
X97.79Y-51.054
X98.298Y-94.742
X98.466Y-69.748
X98.489Y-73.762
X98.72Y-70.383
X99.405Y-61.244
X99.568Y-95.504
X99.822Y-81.991
X100.076Y-64.516
X100.277Y-76.22
X100.33Y-86.868
X100.584Y-51.054
X100.838Y-91.44
X101.092Y-68.072
X101.092Y-69.596
X101.092Y-71.882
X101.092Y-74.168
X101.092Y-96.012
X101.255Y-52.669
X101.346Y-65.786
X101.346Y-85.09
X101.346Y-88.392
X101.6Y-76.454
X101.6Y-121.158
X101.854Y-78.486
X101.854Y-83.058
X101.854Y-91.948
X102.108Y-80.264
X102.108Y-81.534
X102.3Y-116.95
X102.87Y-96.012
X102.9Y-117.7
X103.124Y-51.308
X103.952Y-55.829
X103.977Y-83.251
X104.054Y-80.584
X104.089Y-78.715
X104.13Y-76.393
X104.191Y-74.6
X104.242Y-84.963
X104.272Y-71.75
X104.57Y-87.99
X104.648Y-96.012
X104.68Y-88.72
X104.775Y-91.73
X105.029Y-62.611
X105.082Y-72.56
X105.156Y-52.832
X105.156Y-63.627
X105.283Y-65.278
X105.283Y-67.31
X105.283Y-68.453
X105.41Y-51.562
X105.41Y-70.358
X105.644Y-92.202
X105.664Y-94.996
X105.725Y-74.292
X106.284Y-72.56
X106.553Y-62.357
X106.6Y-113.2
X106.807Y-60.833
X107.061Y-59.563
X107.122Y-92.573
X107.122Y-93.647
X107.135Y-94.927
X107.147Y-96.215
X107.2Y-97.5
X107.315Y-55.626
X107.315Y-57.277
X107.315Y-58.801
X107.4Y-98.8
X107.442Y-87.122
X107.442Y-90.678
X107.6Y-114.
X107.653Y-74.265
X107.681Y-82.159
X107.706Y-79.314
X107.848Y-72.644
X108.204Y-51.044
X108.204Y-53.975
X108.5Y-90.61
X108.549Y-87.071
X109.05Y-74.237
X109.22Y-52.578
X109.36Y-121.17
X109.776Y-72.644
X109.855Y-51.689
X110.2Y-131.
X110.236Y-91.948
X110.236Y-93.726
X110.236Y-95.504
X110.236Y-97.028
X110.236Y-98.552
X110.317Y-50.719
X110.49Y-99.822
X110.838Y-74.292
X111.252Y-100.584
X111.369Y-72.784
X111.506Y-89.154
X111.506Y-90.424
X111.76Y-96.266
X112.014Y-91.948
X112.014Y-93.218
X112.014Y-94.742
X112.268Y-101.6
X112.522Y-97.79
X112.71Y-74.265
X112.959Y-50.78
X113.073Y-72.7
X113.284Y-101.6
X113.284Y-132.08
X113.538Y-97.536
X114.186Y-54.407
X114.224Y-51.549
X114.224Y-52.616
X114.224Y-56.236
X114.224Y-57.785
X114.3Y-60.77
X114.3Y-71.501
X114.338Y-72.619
X114.376Y-68.161
X114.483Y-62.2
X114.529Y-65.837
X114.554Y-97.536
X114.727Y-50.698
X114.808Y-102.108
X115.225Y-74.404
X115.364Y-72.84
X115.57Y-98.044
X116.078Y-102.108
X116.482Y-86.335
X116.84Y-133.096
X116.901Y-72.756
X117.32Y-74.348
X117.434Y-50.658
X117.856Y-97.79
X118.829Y-72.7
X118.872Y-50.8
X119.253Y-71.501
X119.38Y-97.028
X119.416Y-74.6
X119.441Y-76.098
X119.675Y-80.416
X119.675Y-85.242
X120.449Y-72.532
X120.523Y-67.564
X120.523Y-69.215
X120.777Y-82.677
X120.904Y-50.8
X120.904Y-81.026
X120.904Y-96.012
X121.031Y-63.373
X121.031Y-65.151
X121.1Y-126.05
X121.285Y-51.816
X121.285Y-61.976
X121.326Y-89.687
X121.412Y-59.055
X121.412Y-60.579
X121.427Y-75.103
X121.539Y-55.245
X121.539Y-57.023
X121.793Y-77.597
X121.793Y-79.248
X121.92Y-53.34
X122.047Y-74.422
X122.174Y-50.8
X122.174Y-76.073
X122.428Y-57.709
X122.428Y-61.214
X122.479Y-67.64
X122.682Y-95.25
X123.525Y-87.147
X123.698Y-61.976
X123.774Y-57.556
X124.206Y-94.234
X124.508Y-67.678
X124.643Y-68.56
X125.898Y-89.687
X126.111Y-50.8
X126.238Y-93.98
X126.35Y-68.56
X126.365Y-52.197
X126.365Y-53.848
X126.492Y-55.626
X126.507Y-67.65
X127.127Y-72.39
X127.254Y-73.406
X127.508Y-71.501
X127.65Y-67.788
X127.742Y-70.18
X128.29Y-82.433
X128.524Y-93.726
X128.549Y-69.936
X128.991Y-67.757
X129.54Y-51.181
X129.54Y-52.578
X129.667Y-55.499
X129.708Y-86.258
X129.794Y-53.848
X129.997Y-67.894
X130.043Y-69.982
X130.81Y-93.726
X131.105Y-86.385
X131.521Y-70.074
X132.334Y-62.23
X132.842Y-93.472
X132.933Y-79.98
X132.939Y-69.982
X133.81Y-56.45
X133.833Y-58.318
X133.909Y-59.868
X133.985Y-61.671
X134.005Y-70.089
X134.036Y-63.195
X134.366Y-51.054
X134.51Y-53.98
X134.681Y-79.675
X134.696Y-64.389
X134.747Y-77.216
X134.874Y-93.218
X135.27Y-86.639
X135.392Y-70.195
X136.08Y-53.14
X136.271Y-50.958
X136.54Y-91.186
X136.652Y-93.218
X136.916Y-70.165
X137.358Y-86.624
X137.922Y-93.218
X138.01Y-50.94
X138.125Y-63.221
X139.065Y-62.357
X139.095Y-70.119
X139.192Y-75.438
X139.7Y-51.435
X139.725Y-54.458
X140.467Y-70.089
X140.716Y-62.484
X140.97Y-51.181
X140.97Y-92.202
X141.224Y-60.452
X141.224Y-75.438
X141.732Y-54.356
X141.732Y-56.388
X141.732Y-58.42
X143.091Y-51.88
X143.358Y-54.064
X144.018Y-92.202
X144.221Y-55.321
X145.517Y-56.807
X145.796Y-92.202
X146.774Y-56.858
X147.066Y-92.202
X147.828Y-92.964
X147.85Y-111.8
X148.021Y-87.198
X148.082Y-94.488
X148.107Y-57.112
X148.361Y-58.941
X148.448Y-66.535
X148.476Y-60.617
X148.476Y-62.408
X148.562Y-64.325
X148.628Y-64.16
X148.819Y-69.19
T2
X87.63Y-106.88
X87.63Y-122.12
X90.17Y-106.88
X90.17Y-122.12
X92.71Y-106.88
X92.71Y-122.12
X95.25Y-106.88
X95.25Y-122.12
X97.79Y-106.88
X97.79Y-122.12
X100.33Y-106.88
X100.33Y-122.12
X102.87Y-106.88
X102.87Y-122.12
X105.41Y-106.88
X105.41Y-122.12
X107.95Y-106.88
X107.95Y-122.12
X110.49Y-106.88
X110.49Y-122.12
X113.03Y-106.88
X113.03Y-122.12
X115.57Y-106.88
X115.57Y-122.12
X118.11Y-106.88
X118.11Y-122.12
X120.65Y-106.88
X120.65Y-122.12
X123.19Y-106.88
X123.19Y-122.12
X125.73Y-106.88
X125.73Y-122.12
X128.27Y-106.88
X128.27Y-122.12
X130.81Y-106.88
X130.81Y-122.12
X133.35Y-106.88
X133.35Y-122.12
X135.89Y-106.88
X135.89Y-122.12
T3
X101.66Y-128.59
X101.66Y-130.59
X104.2Y-128.59
X104.2Y-130.59
T4
X52.85Y-64.2
X55.39Y-64.2
X72.898Y-69.088
X75.438Y-69.088
X75.438Y-125.984
X77.07Y-130.66
X77.07Y-133.2
X77.978Y-69.088
X77.978Y-125.984
X100.56Y-97.8
X103.1Y-97.8
X117.348Y-128.524
X117.348Y-131.064
X119.888Y-128.524
X119.888Y-131.064
X122.428Y-128.524
X122.428Y-131.064
X124.968Y-128.524
X124.968Y-131.064
X127.508Y-128.524
X127.508Y-131.064
X130.048Y-128.524
X130.048Y-131.064
X132.588Y-128.524
X132.588Y-131.064
X144.05Y-117.37
X144.05Y-119.91
X144.05Y-122.45
T5
X55.626Y-106.68
X55.626Y-109.22
X55.626Y-111.76
X55.626Y-114.3
X55.626Y-116.84
X55.626Y-119.38
X59.944Y-131.318
X62.484Y-131.318
T6
X54.864Y-68.58
X60.198Y-65.532
X60.198Y-73.914
X68.072Y-65.532
X68.326Y-73.914
T7
X96.93Y-133.29
X108.93Y-133.29
T8
X53.Y-53.
X53.Y-132.
X60.Y-57.
X60.Y-101.
X137.Y-57.
X137.Y-101.
X147.Y-53.
X147.Y-132.
T4
X86.725Y-127.925G85X88.725Y-127.925
G05
X86.725Y-133.925G85X88.725Y-133.925
G05
X92.425Y-131.925G85X92.425Y-129.925
G05
T0
M30
