M48
;DRILL file {KiCad 4.0.7} date 11/25/19 22:19:50
;FORMAT={-:-/ absolute / metric / decimal}
FMAT,2
METRIC,TZ
T1C0.400
T2C0.762
T3C0.810
T4C1.000
T5C1.200
T6C1.500
T7C1.520
T8C2.300
T9C3.048
%
G90
G05
M71
T1
X51.054Y-115.316
X51.054Y-117.856
X51.054Y-120.396
X51.054Y-122.682
X51.308Y-106.68
X51.308Y-108.712
X51.308Y-110.998
X51.308Y-113.03
X51.308Y-125.73
X51.308Y-127.762
X51.308Y-129.54
X51.308Y-131.826
X51.562Y-134.112
X51.562Y-136.144
X51.638Y-77.902
X51.791Y-79.858
X51.816Y-138.176
X51.816Y-139.954
X51.816Y-141.986
X51.846Y-103.8
X51.867Y-75.895
X51.918Y-73.711
X52.019Y-82.093
X52.07Y-143.51
X52.146Y-71.806
X52.426Y-70.129
X52.578Y-78.74
X53.081Y-102.753
X53.137Y-82.753
X53.34Y-61.722
X53.594Y-64.516
X53.594Y-67.31
X53.594Y-77.724
X54.864Y-57.887
X54.864Y-76.708
X54.864Y-102.616
X55.118Y-143.51
X55.22Y-60.503
X55.626Y-86.868
X55.88Y-103.378
X56.109Y-56.439
X56.134Y-75.692
X56.388Y-142.748
X56.642Y-70.866
X56.896Y-87.122
X57.15Y-71.882
X57.394Y-104.348
X57.658Y-119.634
X57.785Y-54.991
X57.81Y-61.697
X58.674Y-79.756
X58.674Y-142.494
X59.182Y-87.63
X59.436Y-54.077
X59.436Y-78.232
X59.436Y-106.426
X59.69Y-91.948
X60.452Y-88.138
X60.706Y-77.47
X60.858Y-61.62
X60.96Y-91.948
X60.96Y-142.494
X61.214Y-90.932
X61.214Y-110.744
X61.976Y-54.661
X61.976Y-83.312
X62.418Y-79.489
X62.484Y-51.816
X62.484Y-106.68
X62.738Y-75.184
X62.738Y-76.708
X62.738Y-84.328
X62.738Y-86.106
X62.941Y-56.439
X62.941Y-60.401
X62.992Y-69.088
X62.992Y-70.866
X62.992Y-72.39
X62.992Y-73.66
X63.1Y-136.35
X63.225Y-133.15
X63.246Y-66.294
X63.246Y-67.564
X63.424Y-58.928
X63.5Y-63.246
X63.5Y-64.516
X63.754Y-92.71
X63.754Y-142.748
X63.754Y-145.034
X64.008Y-109.982
X64.2Y-82.5
X64.2Y-84.4
X64.25Y-86.05
X64.25Y-137.6
X64.3Y-81.3
X64.516Y-62.484
X64.516Y-80.01
X64.516Y-125.984
X64.516Y-146.558
X64.569Y-127.378
X64.77Y-118.618
X65.024Y-69.088
X65.024Y-70.358
X65.024Y-79.248
X65.024Y-87.884
X65.024Y-89.408
X65.184Y-128.692
X65.278Y-65.278
X65.278Y-67.056
X65.278Y-72.136
X65.278Y-124.714
X65.475Y-134.35
X65.532Y-73.152
X65.532Y-74.422
X65.532Y-75.692
X65.532Y-77.47
X65.532Y-106.426
X65.532Y-122.936
X65.6Y-136.525
X65.786Y-61.722
X65.786Y-63.754
X65.95Y-85.95
X66.022Y-130.117
X66.04Y-87.884
X66.04Y-89.408
X66.548Y-80.01
X66.548Y-146.812
X66.802Y-62.992
X66.802Y-118.872
X66.9Y-85.35
X67.056Y-52.07
X67.056Y-53.848
X67.056Y-89.408
X67.31Y-61.214
X67.31Y-87.884
X67.4Y-137.6
X67.564Y-106.426
X67.782Y-112.878
X67.894Y-116.205
X67.978Y-131.011
X68.072Y-62.738
X68.072Y-89.916
X68.325Y-136.25
X68.326Y-80.01
X68.326Y-118.872
X68.35Y-134.175
X68.514Y-144.358
X68.58Y-146.812
X68.834Y-60.706
X68.834Y-87.884
X69.342Y-90.17
X69.596Y-62.484
X69.9Y-142.5
X70.074Y-131.011
X70.104Y-80.264
X70.104Y-87.884
X70.358Y-52.07
X70.358Y-55.626
X70.358Y-90.424
X70.358Y-106.172
X70.4Y-135.8
X70.612Y-54.102
X70.612Y-60.452
X70.653Y-114.117
X70.866Y-88.392
X71.12Y-62.484
X71.12Y-91.186
X71.12Y-140.452
X71.275Y-134.7
X71.628Y-131.14
X71.882Y-89.662
X71.882Y-92.202
X72.05Y-139.2
X72.136Y-60.198
X72.136Y-82.296
X72.39Y-62.23
X72.39Y-84.328
X72.39Y-93.218
X72.655Y-138.413
X72.809Y-131.14
X72.898Y-90.678
X73.152Y-93.98
X73.274Y-113.894
X73.335Y-116.23
X73.396Y-111.699
X73.406Y-84.328
X73.406Y-106.68
X73.66Y-60.198
X73.66Y-82.55
X74.168Y-90.932
X74.168Y-94.996
X74.25Y-137.15
X74.257Y-131.026
X74.676Y-52.324
X74.676Y-54.102
X74.676Y-84.328
X74.93Y-82.55
X74.93Y-95.758
X75.692Y-90.932
X75.946Y-84.328
X76.2Y-96.52
X76.454Y-51.308
X76.79Y-137.15
X77.47Y-84.328
X77.724Y-90.932
X77.724Y-96.774
X77.724Y-119.38
X78.486Y-106.68
X78.486Y-136.398
X78.74Y-51.054
X78.994Y-119.38
X79.019Y-130.874
X79.248Y-96.52
X79.756Y-55.118
X79.756Y-56.388
X80.01Y-53.594
X80.01Y-57.912
X80.18Y-101.91
X80.264Y-63.246
X80.264Y-69.85
X80.264Y-76.962
X80.264Y-90.932
X80.264Y-134.874
X80.518Y-64.262
X80.518Y-75.184
X80.518Y-96.52
X80.518Y-107.442
X80.772Y-66.04
X80.772Y-72.136
X81.026Y-73.66
X81.28Y-51.054
X81.534Y-90.932
X81.788Y-96.774
X81.788Y-133.858
X82.042Y-109.474
X82.804Y-110.998
X82.804Y-131.318
X83.195Y-80.284
X83.3Y-101.5
X83.312Y-90.932
X83.312Y-93.726
X83.312Y-113.284
X83.363Y-81.885
X83.439Y-83.744
X83.541Y-85.552
X83.566Y-51.054
X83.566Y-61.976
X83.566Y-96.774
X83.652Y-87.092
X83.652Y-89.159
X83.82Y-114.808
X83.82Y-116.332
X83.82Y-118.364
X83.82Y-120.142
X83.82Y-122.174
X83.82Y-124.206
X83.82Y-126.492
X84.074Y-129.286
X84.582Y-91.694
X84.582Y-113.284
X84.836Y-55.626
X85.09Y-96.774
X85.598Y-93.726
X85.852Y-51.054
X85.852Y-112.014
X85.915Y-136.934
X86.Y-143.675
X86.36Y-91.694
X87.675Y-142.15
X88.138Y-51.054
X88.138Y-91.694
X88.138Y-93.726
X88.138Y-97.282
X88.9Y-112.268
X88.9Y-116.586
X88.975Y-140.775
X89.068Y-68.351
X89.352Y-135.593
X89.662Y-93.726
X89.916Y-91.694
X89.916Y-129.286
X89.957Y-67.081
X90.162Y-74.069
X90.17Y-51.054
X90.581Y-133.05
X91.44Y-93.726
X91.694Y-101.6
X91.948Y-91.694
X92.187Y-58.461
X92.248Y-57.104
X92.309Y-55.931
X92.324Y-53.614
X92.339Y-54.666
X92.71Y-51.054
X92.71Y-105.156
X92.918Y-81.9
X93.218Y-93.726
X93.472Y-100.076
X93.726Y-91.694
X94.198Y-56.083
X94.259Y-57.241
X94.366Y-58.537
X94.397Y-54.574
X94.686Y-59.756
X94.991Y-53.645
X94.996Y-51.054
X94.996Y-131.064
X95.108Y-129.614
X95.25Y-91.694
X95.504Y-93.726
X96.434Y-70.002
X96.515Y-59.68
X96.66Y-73.762
X96.774Y-91.948
X97.028Y-115.57
X97.079Y-127.559
X97.282Y-93.98
X97.536Y-91.44
X97.765Y-84.163
X97.79Y-51.054
X98.298Y-94.742
X98.466Y-69.748
X98.489Y-73.762
X98.72Y-70.383
X99.314Y-114.808
X99.405Y-61.244
X99.568Y-95.504
X99.822Y-81.991
X100.076Y-64.516
X100.277Y-76.22
X100.33Y-86.868
X100.584Y-51.054
X100.838Y-91.44
X101.092Y-68.072
X101.092Y-69.596
X101.092Y-71.882
X101.092Y-74.168
X101.092Y-96.012
X101.255Y-52.669
X101.346Y-65.786
X101.346Y-85.09
X101.346Y-88.392
X101.6Y-76.454
X101.854Y-78.486
X101.854Y-83.058
X101.854Y-91.948
X102.072Y-122.951
X102.108Y-80.264
X102.108Y-81.534
X102.5Y-116.7
X102.87Y-96.012
X103.1Y-116.
X103.124Y-51.308
X103.9Y-115.3
X103.952Y-55.829
X103.977Y-83.251
X104.054Y-80.584
X104.089Y-78.715
X104.13Y-76.393
X104.191Y-74.6
X104.242Y-84.963
X104.272Y-71.75
X104.57Y-87.99
X104.648Y-96.012
X104.68Y-88.72
X104.775Y-91.73
X104.9Y-114.6
X104.9Y-118.9
X105.029Y-62.611
X105.082Y-72.56
X105.156Y-52.832
X105.156Y-63.627
X105.283Y-65.278
X105.283Y-67.31
X105.283Y-68.453
X105.41Y-51.562
X105.41Y-70.358
X105.6Y-118.3
X105.644Y-92.202
X105.664Y-94.996
X105.725Y-74.292
X106.284Y-72.56
X106.4Y-117.6
X106.553Y-62.357
X106.741Y-100.32
X106.807Y-60.833
X107.061Y-59.563
X107.122Y-92.573
X107.122Y-93.647
X107.135Y-94.927
X107.137Y-98.694
X107.147Y-96.215
X107.2Y-117.
X107.315Y-55.626
X107.315Y-57.277
X107.315Y-58.801
X107.442Y-87.122
X107.442Y-90.678
X107.653Y-74.265
X107.681Y-82.159
X107.706Y-79.314
X107.848Y-72.644
X107.95Y-143.51
X108.204Y-51.044
X108.204Y-53.975
X108.5Y-90.61
X108.549Y-87.071
X109.05Y-74.237
X109.22Y-52.578
X109.776Y-72.644
X109.855Y-51.689
X110.317Y-50.719
X110.838Y-74.292
X111.252Y-100.584
X111.369Y-72.784
X112.268Y-101.6
X112.71Y-74.265
X112.959Y-50.78
X113.073Y-72.7
X113.284Y-101.6
X113.538Y-97.536
X114.186Y-54.407
X114.224Y-51.549
X114.224Y-52.616
X114.224Y-56.236
X114.224Y-57.785
X114.3Y-60.77
X114.3Y-71.501
X114.338Y-72.619
X114.376Y-68.161
X114.483Y-62.2
X114.529Y-65.837
X114.554Y-97.536
X114.727Y-50.698
X114.808Y-102.108
X115.225Y-74.404
X115.364Y-72.84
X115.57Y-98.044
X116.078Y-102.108
X116.482Y-86.335
X116.901Y-72.756
X117.32Y-74.348
X117.434Y-50.658
X117.856Y-97.79
X118.212Y-143.18
X118.829Y-72.7
X118.872Y-50.8
X119.253Y-71.501
X119.38Y-97.028
X119.416Y-74.6
X119.441Y-76.098
X119.507Y-142.24
X119.675Y-80.416
X119.675Y-85.242
X120.396Y-133.35
X120.449Y-72.532
X120.523Y-67.564
X120.523Y-69.215
X120.777Y-82.677
X120.904Y-50.8
X120.904Y-81.026
X120.904Y-96.012
X121.031Y-63.373
X121.031Y-65.151
X121.285Y-51.816
X121.285Y-61.976
X121.326Y-89.687
X121.412Y-59.055
X121.412Y-60.579
X121.427Y-75.103
X121.539Y-55.245
X121.539Y-57.023
X121.793Y-77.597
X121.793Y-79.248
X121.92Y-53.34
X122.047Y-74.422
X122.174Y-50.8
X122.174Y-76.073
X122.174Y-102.108
X122.428Y-57.709
X122.428Y-103.378
X122.428Y-104.648
X122.479Y-67.64
X122.682Y-95.25
X123.444Y-105.156
X123.525Y-87.147
X123.774Y-57.556
X124.206Y-94.234
X124.508Y-67.678
X124.643Y-68.56
X125.476Y-100.33
X125.898Y-89.687
X126.111Y-50.8
X126.238Y-93.98
X126.35Y-68.56
X126.365Y-52.197
X126.365Y-53.848
X126.492Y-55.626
X126.507Y-67.65
X127.Y-100.076
X127.127Y-72.39
X127.254Y-73.406
X127.508Y-71.501
X127.65Y-67.788
X127.742Y-70.18
X128.29Y-82.433
X128.524Y-93.726
X128.549Y-69.936
X128.778Y-141.478
X128.991Y-67.757
X129.032Y-99.822
X129.337Y-143.154
X129.54Y-51.181
X129.54Y-52.578
X129.667Y-55.499
X129.708Y-86.258
X129.794Y-53.848
X129.997Y-67.894
X130.043Y-69.982
X130.048Y-100.076
X130.81Y-93.726
X130.81Y-100.838
X131.105Y-86.385
X131.521Y-70.074
X132.842Y-93.472
X132.933Y-79.98
X132.939Y-69.982
X133.096Y-140.716
X133.833Y-58.318
X133.909Y-59.868
X133.985Y-61.671
X134.005Y-70.089
X134.036Y-63.195
X134.239Y-56.134
X134.366Y-51.054
X134.681Y-79.675
X134.696Y-55.194
X134.696Y-64.389
X134.747Y-77.216
X134.874Y-93.218
X135.27Y-86.639
X135.392Y-70.195
X136.271Y-51.308
X136.54Y-91.186
X136.652Y-93.218
X136.916Y-70.165
X137.358Y-86.624
X137.668Y-54.661
X137.922Y-93.218
X138.049Y-51.435
X138.125Y-63.221
X139.065Y-62.357
X139.095Y-70.119
X139.233Y-77.114
X139.7Y-51.435
X139.725Y-54.458
X140.467Y-70.089
X140.716Y-62.484
X140.97Y-51.181
X140.97Y-92.202
X141.011Y-77.114
X141.224Y-60.452
X141.732Y-54.356
X141.732Y-56.388
X141.732Y-58.42
X143.091Y-51.88
X143.358Y-54.064
X144.018Y-92.202
X144.221Y-55.321
X145.517Y-56.807
X145.796Y-92.202
X146.774Y-56.858
X147.066Y-92.202
X147.828Y-92.964
X148.021Y-87.198
X148.082Y-94.488
X148.107Y-57.112
X148.361Y-58.941
X148.476Y-60.617
X148.476Y-62.408
X148.628Y-64.16
X148.666Y-67.399
X148.78Y-65.189
X148.819Y-69.19
T2
X87.63Y-110.236
X87.63Y-125.476
X90.17Y-110.236
X90.17Y-125.476
X92.71Y-110.236
X92.71Y-125.476
X95.25Y-110.236
X95.25Y-125.476
X97.79Y-110.236
X97.79Y-125.476
X100.33Y-110.236
X100.33Y-125.476
X102.87Y-110.236
X102.87Y-125.476
X105.41Y-110.236
X105.41Y-125.476
X107.95Y-110.236
X107.95Y-125.476
X110.49Y-110.236
X110.49Y-125.476
X113.03Y-110.236
X113.03Y-125.476
X115.57Y-110.236
X115.57Y-125.476
X118.11Y-110.236
X118.11Y-125.476
X120.65Y-110.236
X120.65Y-125.476
X123.19Y-110.236
X123.19Y-125.476
X125.73Y-110.236
X125.73Y-125.476
X128.27Y-110.236
X128.27Y-125.476
X130.81Y-110.236
X130.81Y-125.476
X133.35Y-110.236
X133.35Y-125.476
X135.89Y-110.236
X135.89Y-125.476
T3
X76.139Y-141.321
X76.139Y-143.321
X78.679Y-141.321
X78.679Y-143.321
T4
X59.72Y-128.951
X62.26Y-128.951
X72.898Y-69.088
X75.438Y-69.088
X76.962Y-53.34
X76.962Y-55.88
X77.978Y-69.088
X97.536Y-133.35
X100.076Y-133.35
X100.584Y-98.806
X102.616Y-133.35
X103.124Y-98.806
X103.378Y-139.954
X105.156Y-133.35
X105.918Y-139.954
X117.348Y-135.89
X117.348Y-138.43
X119.888Y-135.89
X119.888Y-138.43
X122.428Y-135.89
X122.428Y-138.43
X124.968Y-135.89
X124.968Y-138.43
X127.508Y-135.89
X127.508Y-138.43
X130.048Y-135.89
X130.048Y-138.43
X132.588Y-135.89
X132.588Y-138.43
X139.192Y-133.35
X139.192Y-135.89
X139.192Y-138.43
T5
X54.102Y-112.776
X54.102Y-115.316
X54.102Y-117.856
X54.102Y-120.396
X54.102Y-122.936
X54.102Y-125.476
X54.102Y-133.858
X54.102Y-136.398
T6
X54.864Y-68.58
X60.198Y-65.532
X60.198Y-73.914
X68.072Y-65.532
X68.326Y-73.914
T7
X125.438Y-146.507
X130.518Y-146.507
T8
X71.409Y-146.021
X83.409Y-146.021
T9
X53.Y-53.
X53.Y-147.
X60.Y-58.
X60.Y-102.
X60.Y-146.
X137.Y-58.
X137.Y-102.
X137.Y-146.
X147.Y-53.
X147.Y-147.
T4
X90.923Y-140.904G85X92.923Y-140.904
G05
X90.923Y-146.904G85X92.923Y-146.904
G05
X96.623Y-144.904G85X96.623Y-142.904
G05
T0
M30
