M48
;DRILL file {KiCad 4.0.7} date 10/02/19 00:35:46
;FORMAT={-:-/ absolute / metric / decimal}
FMAT,2
METRIC,TZ
T1C0.400
T2C0.762
T3C0.800
T4C1.000
T5C1.500
T6C1.520
T7C3.048
%
G90
G05
M71
T1
X51.968Y-130.19
X52.578Y-78.74
X52.832Y-82.55
X53.594Y-77.724
X53.594Y-83.058
X54.864Y-76.708
X54.864Y-83.82
X55.118Y-85.344
X56.134Y-75.692
X56.134Y-86.868
X56.642Y-89.408
X59.69Y-70.866
X60.579Y-69.075
X60.846Y-70.447
X60.96Y-66.599
X61.112Y-65.197
X61.468Y-92.202
X61.6Y-63.795
X61.61Y-131.699
X62.24Y-62.682
X62.418Y-79.489
X62.738Y-92.964
X63.312Y-78.511
X63.513Y-105.88
X63.561Y-61.305
X63.703Y-65.603
X63.731Y-67.335
X63.754Y-93.726
X63.759Y-63.815
X63.871Y-71.219
X64.008Y-72.898
X64.008Y-75.438
X64.427Y-68.809
X64.516Y-76.962
X64.821Y-60.005
X65.024Y-94.996
X65.184Y-62.278
X65.278Y-86.36
X66.04Y-86.868
X66.802Y-96.52
X66.805Y-61.887
X67.056Y-87.122
X67.084Y-60.015
X68.326Y-98.298
X68.58Y-87.122
X68.618Y-140.678
X68.621Y-61.999
X68.732Y-59.931
X69.85Y-99.822
X70.104Y-87.122
X70.353Y-59.959
X70.353Y-62.334
X71.374Y-101.346
X71.806Y-59.959
X72.136Y-82.296
X72.281Y-62.697
X72.39Y-84.328
X73.406Y-84.328
X73.574Y-129.692
X73.622Y-60.099
X73.66Y-82.55
X73.66Y-102.616
X74.168Y-114.808
X74.676Y-84.328
X74.93Y-82.55
X75.214Y-59.959
X75.946Y-84.328
X76.5Y-94.188
X76.835Y-92.456
X76.962Y-116.078
X77.089Y-91.003
X77.307Y-128.549
X77.47Y-84.328
X77.66Y-146.393
X78.029Y-94.569
X78.232Y-136.459
X79.248Y-116.332
X79.654Y-104.381
X79.756Y-55.118
X79.756Y-56.388
X79.756Y-75.438
X79.919Y-94.691
X80.01Y-53.594
X80.01Y-57.912
X80.01Y-73.914
X80.264Y-63.246
X80.264Y-69.85
X80.264Y-72.136
X80.264Y-76.962
X80.518Y-64.262
X80.665Y-91.084
X80.772Y-66.04
X80.772Y-107.188
X81.28Y-116.332
X81.458Y-94.61
X82.398Y-90.973
X82.804Y-107.442
X83.058Y-116.332
X83.195Y-80.284
X83.231Y-94.447
X83.236Y-137.13
X83.312Y-108.966
X83.312Y-110.998
X83.312Y-113.538
X83.363Y-81.885
X83.439Y-83.744
X83.541Y-85.552
X83.652Y-87.092
X83.652Y-89.159
X83.932Y-91.003
X84.328Y-109.728
X84.582Y-113.538
X84.734Y-94.346
X85.08Y-126.949
X85.09Y-55.372
X85.776Y-91.531
X86.055Y-147.015
X86.106Y-145.339
X86.116Y-94.305
X86.36Y-55.372
X87.508Y-91.699
X88.026Y-126.162
X88.209Y-95.585
X88.392Y-55.118
X89.068Y-68.351
X89.469Y-118.791
X89.957Y-67.081
X90.079Y-92.426
X90.162Y-74.069
X90.2Y-97.373
X91.587Y-94.102
X92.05Y-99.101
X92.187Y-58.461
X92.248Y-52.456
X92.248Y-57.104
X92.309Y-55.931
X92.324Y-53.614
X92.339Y-54.666
X92.735Y-99.832
X92.918Y-81.9
X93.096Y-95.667
X94.198Y-56.083
X94.259Y-57.241
X94.366Y-58.537
X94.397Y-54.574
X94.549Y-97.343
X94.686Y-59.756
X94.991Y-53.645
X95.331Y-99.888
X95.778Y-146.797
X96.073Y-53.294
X96.434Y-70.002
X96.515Y-59.68
X96.66Y-73.762
X97.175Y-97.734
X97.399Y-53.188
X97.765Y-84.163
X98.466Y-69.748
X98.489Y-73.762
X98.72Y-70.383
X99.019Y-136.769
X99.273Y-99.746
X99.405Y-61.244
X99.822Y-81.991
X100.025Y-97.678
X100.277Y-76.22
X100.279Y-120.853
X100.33Y-64.262
X100.838Y-65.532
X100.838Y-91.186
X101.092Y-66.802
X101.092Y-68.58
X101.092Y-71.12
X101.092Y-72.644
X101.092Y-88.138
X101.397Y-99.802
X101.6Y-75.438
X101.854Y-81.026
X101.854Y-83.312
X101.981Y-100.584
X102.108Y-77.978
X102.108Y-79.248
X102.108Y-85.09
X102.108Y-88.392
X102.108Y-91.694
X102.225Y-97.881
X102.235Y-103.759
X102.271Y-52.161
X102.362Y-96.012
X103.505Y-103.886
X103.952Y-55.829
X103.977Y-83.251
X104.023Y-100.305
X104.054Y-80.584
X104.089Y-78.715
X104.13Y-76.393
X104.135Y-97.653
X104.14Y-101.473
X104.191Y-74.6
X104.216Y-95.387
X104.242Y-84.963
X104.272Y-71.75
X104.358Y-102.53
X104.719Y-88.265
X104.775Y-91.73
X104.927Y-79.781
X105.029Y-62.611
X105.082Y-72.56
X105.136Y-52.121
X105.156Y-63.627
X105.283Y-65.278
X105.283Y-67.31
X105.283Y-68.453
X105.41Y-70.358
X105.644Y-92.202
X105.725Y-74.292
X105.745Y-88.575
X106.284Y-72.56
X106.553Y-62.357
X106.807Y-60.833
X107.061Y-59.563
X107.315Y-55.626
X107.315Y-57.277
X107.315Y-58.801
X107.653Y-74.265
X107.838Y-79.385
X107.848Y-72.644
X108.013Y-87.363
X108.204Y-51.044
X108.204Y-53.975
X108.626Y-82.448
X109.05Y-74.237
X109.22Y-52.578
X109.766Y-88.468
X109.776Y-72.644
X109.855Y-51.689
X109.944Y-102.959
X109.972Y-117.655
X110.Y-97.511
X110.317Y-50.719
X110.838Y-74.292
X110.912Y-86.258
X111.369Y-72.784
X111.404Y-98.87
X111.425Y-103.154
X111.539Y-117.632
X112.71Y-74.265
X112.959Y-50.78
X113.073Y-72.7
X113.492Y-97.846
X114.186Y-54.407
X114.224Y-51.549
X114.224Y-52.616
X114.224Y-56.236
X114.224Y-57.785
X114.3Y-60.77
X114.3Y-71.501
X114.338Y-72.619
X114.376Y-68.161
X114.483Y-62.2
X114.529Y-65.837
X114.727Y-50.698
X115.225Y-74.404
X115.364Y-72.84
X116.482Y-86.335
X116.901Y-72.756
X117.32Y-74.348
X117.434Y-50.658
X118.829Y-72.7
X119.253Y-71.501
X119.416Y-74.6
X119.441Y-76.098
X119.675Y-80.416
X119.675Y-85.242
X119.852Y-122.758
X120.254Y-50.683
X120.449Y-72.532
X120.523Y-67.564
X120.523Y-69.215
X120.777Y-82.677
X120.904Y-81.026
X121.031Y-63.373
X121.031Y-65.151
X121.285Y-61.976
X121.326Y-89.687
X121.412Y-59.055
X121.412Y-60.579
X121.427Y-75.103
X121.539Y-55.245
X121.539Y-57.023
X121.737Y-64.78
X121.793Y-77.597
X121.793Y-79.248
X121.92Y-53.34
X122.047Y-74.422
X122.174Y-76.073
X122.301Y-51.816
X122.768Y-50.881
X123.525Y-87.147
X123.914Y-55.715
X123.927Y-57.226
X124.389Y-50.795
X124.501Y-130.277
X124.508Y-67.678
X124.643Y-68.56
X125.146Y-51.524
X125.898Y-89.687
X126.35Y-68.56
X126.507Y-67.65
X127.127Y-72.39
X127.254Y-73.406
X127.508Y-71.501
X127.65Y-67.788
X127.742Y-70.18
X128.29Y-82.433
X128.549Y-69.936
X128.816Y-104.242
X128.991Y-67.757
X129.476Y-53.657
X129.515Y-52.527
X129.515Y-54.94
X129.642Y-51.41
X129.708Y-86.258
X129.997Y-67.894
X130.043Y-69.982
X131.018Y-67.902
X131.105Y-86.385
X131.521Y-70.074
X132.085Y-67.864
X132.766Y-52.591
X132.857Y-120.625
X132.867Y-51.41
X132.88Y-54.026
X132.88Y-55.118
X132.933Y-79.98
X132.939Y-69.982
X133.076Y-67.864
X133.416Y-95.707
X134.005Y-70.089
X134.295Y-67.909
X134.681Y-79.675
X134.722Y-62.992
X134.747Y-77.216
X135.27Y-86.639
X135.392Y-70.195
X135.666Y-67.711
X136.54Y-91.186
X136.916Y-67.65
X136.916Y-70.165
X136.919Y-51.41
X137.338Y-58.344
X137.358Y-86.624
X137.922Y-67.727
X138.214Y-51.816
X138.239Y-57.099
X139.095Y-70.119
X139.233Y-77.114
X139.446Y-59.487
X139.446Y-61.392
X139.497Y-54.712
X139.497Y-56.159
X139.497Y-57.963
X139.497Y-63.246
X139.537Y-67.635
X139.573Y-64.922
X139.598Y-66.37
X139.827Y-53.086
X139.941Y-51.752
X140.467Y-70.089
X141.011Y-77.114
X141.707Y-51.816
X143.068Y-109.347
X143.091Y-51.88
X143.358Y-54.064
X144.221Y-55.321
X144.719Y-109.952
X144.793Y-126.047
X145.517Y-56.807
X146.192Y-109.55
X146.774Y-56.858
X147.691Y-125.73
X148.021Y-87.198
X148.107Y-57.112
X148.361Y-58.941
X148.476Y-60.617
X148.476Y-62.408
X148.628Y-64.16
X148.666Y-67.399
X148.78Y-65.189
X148.819Y-69.19
X149.2Y-141.961
T2
X69.342Y-123.19
X69.342Y-138.43
X71.882Y-123.19
X71.882Y-138.43
X74.422Y-123.19
X74.422Y-138.43
X76.962Y-123.19
X76.962Y-138.43
X79.502Y-123.19
X79.502Y-138.43
X82.042Y-123.19
X82.042Y-138.43
X84.582Y-123.19
X84.582Y-138.43
X87.122Y-123.19
X87.122Y-138.43
X89.662Y-123.19
X89.662Y-138.43
X92.202Y-123.19
X92.202Y-138.43
X94.742Y-123.19
X94.742Y-138.43
X97.282Y-123.19
X97.282Y-138.43
X99.822Y-123.19
X99.822Y-138.43
X102.362Y-123.19
X102.362Y-138.43
X104.902Y-123.19
X104.902Y-138.43
X107.442Y-123.19
X107.442Y-138.43
X109.982Y-123.19
X109.982Y-138.43
X112.522Y-123.19
X112.522Y-138.43
X115.062Y-123.19
X115.062Y-138.43
X117.602Y-123.19
X117.602Y-138.43
T3
X71.079Y-110.838
X71.079Y-115.718
T4
X56.022Y-124.765
X56.022Y-127.305
X56.022Y-129.845
X56.022Y-132.385
X56.022Y-134.925
X58.562Y-124.765
X58.562Y-127.305
X58.562Y-129.845
X58.562Y-132.385
X58.562Y-134.925
X63.703Y-135.598
X63.703Y-138.138
X63.703Y-140.678
X72.136Y-68.58
X74.31Y-53.137
X74.31Y-55.677
X74.676Y-68.58
X77.216Y-68.58
X99.568Y-114.3
X102.108Y-114.3
X104.648Y-114.3
X107.188Y-114.3
X126.34Y-133.325
X128.88Y-133.325
X137.02Y-137.3
X139.56Y-137.3
X143.421Y-96.164
X143.421Y-98.704
X143.421Y-101.244
X143.421Y-103.784
X143.421Y-106.324
X145.961Y-96.164
X145.961Y-98.704
X145.961Y-101.244
X145.961Y-103.784
X145.961Y-106.324
T5
X54.864Y-68.58
X58.989Y-64.211
X59.055Y-73.876
X66.487Y-73.574
X66.639Y-64.77
T6
X145.39Y-131.928
X145.39Y-137.008
T7
X53.Y-53.
X53.Y-147.
X60.Y-102.
X60.Y-146.
X137.Y-102.
X137.Y-146.
X147.Y-53.
X147.Y-147.
T4
X125.289Y-140.475G85X127.289Y-140.475
G05
X125.289Y-146.475G85X127.289Y-146.475
G05
X130.989Y-144.475G85X130.989Y-142.475
G05
T0
M30
