M48
;DRILL file {KiCad 4.0.7} date 11/11/19 10:10:19
;FORMAT={-:-/ absolute / metric / decimal}
FMAT,2
METRIC,TZ
T1C0.400
T2C0.762
T3C0.800
T4C1.000
T5C1.500
T6C1.520
T7C3.048
%
G90
G05
M71
T1
X51.638Y-77.902
X51.791Y-79.858
X51.867Y-75.895
X51.918Y-73.711
X51.968Y-130.19
X52.019Y-82.093
X52.146Y-71.806
X52.426Y-70.129
X52.578Y-78.74
X53.137Y-82.753
X53.34Y-61.722
X53.594Y-64.516
X53.594Y-67.31
X53.594Y-77.724
X54.864Y-57.887
X54.864Y-76.708
X55.22Y-60.503
X56.109Y-56.439
X56.134Y-75.692
X56.642Y-70.866
X57.15Y-71.882
X57.785Y-54.991
X57.81Y-61.697
X58.42Y-97.028
X58.674Y-79.756
X59.436Y-54.077
X59.436Y-78.232
X60.706Y-77.47
X60.858Y-61.62
X61.57Y-122.453
X61.874Y-132.461
X61.976Y-54.661
X62.039Y-121.171
X62.418Y-79.489
X62.484Y-51.816
X62.55Y-83.2
X62.55Y-84.5
X62.738Y-75.184
X62.738Y-76.708
X62.75Y-86.
X62.9Y-87.8
X62.941Y-56.439
X62.941Y-60.401
X62.992Y-69.088
X62.992Y-70.866
X62.992Y-72.39
X62.992Y-73.66
X63.246Y-66.294
X63.246Y-67.564
X63.424Y-58.928
X63.5Y-63.246
X63.5Y-64.516
X64.2Y-82.5
X64.2Y-84.4
X64.25Y-86.05
X64.25Y-88.8
X64.3Y-81.3
X64.516Y-62.484
X64.516Y-80.01
X65.024Y-69.088
X65.024Y-70.358
X65.024Y-79.248
X65.15Y-86.7
X65.278Y-65.278
X65.278Y-67.056
X65.278Y-72.136
X65.5Y-89.15
X65.532Y-73.152
X65.532Y-74.422
X65.532Y-75.692
X65.532Y-77.47
X65.786Y-61.722
X65.786Y-64.262
X65.95Y-85.95
X66.548Y-80.01
X66.75Y-86.75
X66.802Y-63.246
X66.9Y-85.35
X67.056Y-52.07
X67.056Y-53.848
X67.056Y-55.372
X67.31Y-61.214
X67.65Y-89.6
X68.072Y-62.738
X68.2Y-86.65
X68.326Y-80.01
X68.618Y-140.678
X68.834Y-60.706
X69.2Y-86.65
X69.596Y-62.484
X70.Y-88.
X70.104Y-80.264
X70.358Y-52.07
X70.358Y-55.626
X70.358Y-88.9
X70.358Y-90.424
X70.5Y-85.65
X70.612Y-54.102
X70.612Y-60.452
X71.1Y-86.65
X71.12Y-62.484
X71.7Y-87.8
X71.882Y-92.202
X71.9Y-89.3
X72.136Y-60.198
X72.136Y-82.296
X72.15Y-90.6
X72.39Y-62.23
X72.39Y-84.328
X72.644Y-130.861
X72.898Y-93.218
X73.406Y-84.328
X73.45Y-91.4
X73.66Y-60.198
X73.66Y-82.55
X73.914Y-94.234
X74.422Y-56.388
X74.5Y-92.25
X74.676Y-52.324
X74.676Y-54.102
X74.676Y-84.328
X74.93Y-82.55
X75.65Y-95.
X75.7Y-92.9
X75.946Y-84.328
X76.454Y-51.308
X76.581Y-130.023
X77.1Y-93.05
X77.3Y-95.
X77.47Y-84.328
X77.66Y-146.393
X78.232Y-136.459
X78.74Y-51.054
X79.7Y-94.9
X79.756Y-55.118
X79.756Y-56.388
X80.01Y-53.594
X80.01Y-57.912
X80.264Y-63.246
X80.264Y-69.85
X80.264Y-76.962
X80.518Y-64.262
X80.518Y-75.184
X80.772Y-66.04
X80.772Y-72.136
X81.026Y-73.66
X81.28Y-51.054
X82.804Y-94.996
X83.195Y-80.284
X83.236Y-137.13
X83.363Y-81.885
X83.439Y-83.744
X83.541Y-85.552
X83.566Y-51.054
X83.566Y-61.976
X83.652Y-87.092
X83.652Y-89.159
X83.82Y-91.44
X84.226Y-129.083
X84.328Y-93.98
X84.582Y-117.348
X84.836Y-55.626
X85.344Y-95.25
X85.852Y-51.054
X85.852Y-91.694
X86.055Y-147.015
X86.106Y-145.339
X86.614Y-92.964
X86.614Y-96.52
X86.97Y-128.41
X87.63Y-136.398
X88.138Y-51.054
X88.138Y-93.98
X88.138Y-97.536
X89.068Y-68.351
X89.662Y-94.996
X89.916Y-97.536
X89.916Y-127.648
X89.916Y-136.398
X89.957Y-67.081
X90.162Y-74.069
X90.17Y-51.054
X91.948Y-136.398
X92.187Y-58.461
X92.202Y-97.536
X92.248Y-57.104
X92.309Y-55.931
X92.324Y-53.614
X92.339Y-54.666
X92.392Y-126.835
X92.71Y-51.054
X92.71Y-95.758
X92.918Y-81.9
X93.98Y-136.398
X94.198Y-56.083
X94.259Y-57.241
X94.366Y-58.537
X94.397Y-54.574
X94.488Y-98.044
X94.686Y-59.756
X94.991Y-53.645
X94.996Y-51.054
X95.758Y-95.758
X95.778Y-146.797
X96.434Y-70.002
X96.515Y-59.68
X96.66Y-73.762
X97.282Y-98.044
X97.282Y-135.89
X97.765Y-84.163
X97.79Y-51.054
X98.298Y-95.504
X98.466Y-69.748
X98.489Y-73.762
X98.72Y-70.383
X99.019Y-136.769
X99.314Y-118.11
X99.405Y-61.244
X99.822Y-81.991
X100.076Y-64.516
X100.076Y-95.25
X100.076Y-97.79
X100.277Y-76.22
X100.279Y-120.853
X100.33Y-86.868
X100.584Y-51.054
X100.838Y-91.44
X101.092Y-68.072
X101.092Y-69.596
X101.092Y-71.882
X101.092Y-74.168
X101.255Y-52.669
X101.346Y-65.786
X101.346Y-85.09
X101.346Y-88.392
X101.6Y-76.454
X101.854Y-78.486
X101.854Y-83.058
X101.854Y-91.948
X102.108Y-80.264
X102.108Y-81.534
X102.362Y-118.11
X103.124Y-51.308
X103.124Y-97.282
X103.952Y-55.829
X103.977Y-83.251
X104.054Y-80.584
X104.089Y-78.715
X104.13Y-76.393
X104.191Y-74.6
X104.242Y-84.963
X104.272Y-71.75
X104.394Y-96.012
X104.648Y-118.11
X104.719Y-88.265
X104.775Y-91.73
X104.927Y-79.781
X105.029Y-62.611
X105.082Y-72.56
X105.156Y-52.832
X105.156Y-63.627
X105.283Y-65.278
X105.283Y-67.31
X105.283Y-68.453
X105.41Y-51.562
X105.41Y-70.358
X105.644Y-92.202
X105.664Y-94.996
X105.725Y-74.292
X105.745Y-88.575
X106.284Y-72.56
X106.553Y-62.357
X106.807Y-60.833
X107.061Y-59.563
X107.315Y-55.626
X107.315Y-57.277
X107.315Y-58.801
X107.653Y-74.265
X107.838Y-79.385
X107.848Y-72.644
X108.013Y-87.363
X108.204Y-51.044
X108.204Y-53.975
X108.626Y-82.448
X109.05Y-74.237
X109.22Y-52.578
X109.766Y-88.468
X109.776Y-72.644
X109.855Y-51.689
X109.944Y-102.959
X109.972Y-117.655
X110.Y-97.511
X110.317Y-50.719
X110.838Y-74.292
X110.912Y-86.258
X111.369Y-72.784
X111.404Y-98.87
X111.425Y-103.154
X111.539Y-117.632
X112.71Y-74.265
X112.959Y-50.78
X113.073Y-72.7
X113.492Y-97.846
X114.186Y-54.407
X114.224Y-51.549
X114.224Y-52.616
X114.224Y-56.236
X114.224Y-57.785
X114.3Y-60.77
X114.3Y-71.501
X114.338Y-72.619
X114.376Y-68.161
X114.483Y-62.2
X114.529Y-65.837
X114.727Y-50.698
X115.225Y-74.404
X115.364Y-72.84
X116.482Y-86.335
X116.586Y-134.874
X116.901Y-72.756
X117.32Y-74.348
X117.434Y-50.658
X118.364Y-133.35
X118.829Y-72.7
X118.872Y-50.8
X119.253Y-71.501
X119.416Y-74.6
X119.441Y-76.098
X119.675Y-80.416
X119.675Y-85.242
X119.852Y-122.758
X120.449Y-72.532
X120.523Y-67.564
X120.523Y-69.215
X120.65Y-132.08
X120.777Y-82.677
X120.904Y-50.8
X120.904Y-81.026
X121.031Y-63.373
X121.031Y-65.151
X121.285Y-51.816
X121.285Y-61.976
X121.326Y-89.687
X121.412Y-59.055
X121.412Y-60.579
X121.427Y-75.103
X121.539Y-55.245
X121.539Y-57.023
X121.793Y-77.597
X121.793Y-79.248
X121.92Y-53.34
X122.047Y-74.422
X122.174Y-50.8
X122.174Y-76.073
X122.428Y-57.709
X122.479Y-67.64
X122.936Y-132.842
X123.525Y-87.147
X123.774Y-57.556
X124.508Y-67.678
X124.643Y-68.56
X125.898Y-89.687
X126.111Y-50.8
X126.35Y-68.56
X126.365Y-52.197
X126.365Y-53.848
X126.492Y-55.626
X126.507Y-67.65
X127.127Y-72.39
X127.254Y-73.406
X127.508Y-71.501
X127.508Y-131.572
X127.65Y-67.788
X127.742Y-70.18
X128.29Y-82.433
X128.549Y-69.936
X128.778Y-128.27
X128.816Y-104.242
X128.991Y-67.757
X129.54Y-51.181
X129.54Y-52.578
X129.667Y-55.499
X129.708Y-86.258
X129.794Y-53.848
X129.997Y-67.894
X130.043Y-69.982
X130.556Y-127.762
X131.105Y-86.385
X131.521Y-70.074
X132.842Y-127.
X132.857Y-120.625
X132.933Y-79.98
X132.939Y-69.982
X133.416Y-95.707
X133.833Y-58.318
X133.909Y-59.868
X133.985Y-61.671
X134.005Y-70.089
X134.036Y-63.195
X134.239Y-56.134
X134.366Y-51.054
X134.62Y-124.206
X134.681Y-79.675
X134.696Y-55.194
X134.696Y-64.389
X134.747Y-77.216
X135.27Y-86.639
X135.392Y-70.195
X136.271Y-51.308
X136.54Y-91.186
X136.916Y-70.165
X137.358Y-86.624
X137.668Y-54.661
X137.668Y-123.19
X138.049Y-51.435
X138.125Y-63.221
X138.176Y-116.078
X138.176Y-117.856
X138.176Y-119.634
X138.43Y-112.776
X138.43Y-114.3
X138.938Y-122.174
X139.065Y-62.357
X139.095Y-70.119
X139.233Y-77.114
X139.7Y-51.435
X139.725Y-54.458
X140.467Y-70.089
X140.716Y-62.484
X140.97Y-51.181
X141.011Y-77.114
X141.224Y-60.452
X141.732Y-54.356
X141.732Y-56.388
X141.732Y-58.42
X143.068Y-109.347
X143.091Y-51.88
X143.358Y-54.064
X143.51Y-112.776
X144.221Y-55.321
X144.719Y-109.952
X144.793Y-126.047
X145.517Y-56.807
X146.192Y-109.55
X146.774Y-56.858
X147.691Y-125.73
X148.021Y-87.198
X148.107Y-57.112
X148.361Y-58.941
X148.476Y-60.617
X148.476Y-62.408
X148.628Y-64.16
X148.666Y-67.399
X148.78Y-65.189
X148.819Y-69.19
X149.2Y-141.961
T2
X69.342Y-123.19
X69.342Y-138.43
X71.882Y-123.19
X71.882Y-138.43
X74.422Y-123.19
X74.422Y-138.43
X76.962Y-123.19
X76.962Y-138.43
X79.502Y-123.19
X79.502Y-138.43
X82.042Y-123.19
X82.042Y-138.43
X84.582Y-123.19
X84.582Y-138.43
X87.122Y-123.19
X87.122Y-138.43
X89.662Y-123.19
X89.662Y-138.43
X92.202Y-123.19
X92.202Y-138.43
X94.742Y-123.19
X94.742Y-138.43
X97.282Y-123.19
X97.282Y-138.43
X99.822Y-123.19
X99.822Y-138.43
X102.362Y-123.19
X102.362Y-138.43
X104.902Y-123.19
X104.902Y-138.43
X107.442Y-123.19
X107.442Y-138.43
X109.982Y-123.19
X109.982Y-138.43
X112.522Y-123.19
X112.522Y-138.43
X115.062Y-123.19
X115.062Y-138.43
X117.602Y-123.19
X117.602Y-138.43
T3
X67.818Y-100.584
X72.698Y-100.584
T4
X56.022Y-119.685
X56.022Y-122.225
X56.022Y-124.765
X56.022Y-127.305
X56.022Y-129.845
X56.022Y-132.385
X56.022Y-134.925
X58.562Y-119.685
X58.562Y-122.225
X58.562Y-124.765
X58.562Y-127.305
X58.562Y-129.845
X58.562Y-132.385
X58.562Y-134.925
X63.703Y-135.598
X63.703Y-138.138
X63.703Y-140.678
X72.898Y-69.088
X75.438Y-69.088
X76.962Y-53.34
X76.962Y-55.88
X77.978Y-69.088
X99.568Y-109.22
X102.108Y-109.22
X104.648Y-109.22
X107.188Y-109.22
X126.34Y-133.325
X128.88Y-133.325
X137.02Y-137.3
X139.56Y-137.3
X143.421Y-96.164
X143.421Y-98.704
X143.421Y-101.244
X143.421Y-103.784
X143.421Y-106.324
X145.961Y-96.164
X145.961Y-98.704
X145.961Y-101.244
X145.961Y-103.784
X145.961Y-106.324
T5
X54.864Y-68.58
X60.198Y-65.532
X60.198Y-73.914
X68.072Y-65.532
X68.326Y-73.914
T6
X145.39Y-131.928
X145.39Y-137.008
T7
X53.Y-53.
X53.Y-147.
X60.Y-58.
X60.Y-102.
X60.Y-146.
X137.Y-58.
X137.Y-102.
X137.Y-146.
X147.Y-53.
X147.Y-147.
T4
X125.289Y-140.475G85X127.289Y-140.475
G05
X125.289Y-146.475G85X127.289Y-146.475
G05
X130.989Y-144.475G85X130.989Y-142.475
G05
T0
M30
