M48
;DRILL file {KiCad 4.0.7} date 06/07/20 18:44:15
;FORMAT={-:-/ absolute / metric / decimal}
FMAT,2
METRIC,TZ
T1C0.400
T2C0.810
T3C1.000
T4C1.100
T5C1.200
T6C2.300
T7C3.048
%
G90
G05
M71
T1
X50.9Y-77.8
X50.98Y-59.64
X50.98Y-61.73
X51.Y-63.89
X51.1Y-66.4
X51.1Y-80.
X51.2Y-68.8
X51.2Y-75.7
X51.2Y-82.
X51.3Y-71.1
X51.33Y-73.8
X51.35Y-57.87
X51.6Y-84.8
X51.6Y-87.7
X51.7Y-93.3
X51.8Y-90.7
X51.9Y-95.4
X52.6Y-69.9
X52.6Y-78.7
X52.7Y-97.3
X52.9Y-71.7
X52.9Y-73.7
X52.95Y-57.44
X53.1Y-61.6
X53.1Y-64.3
X53.3Y-82.8
X53.4Y-59.3
X53.6Y-86.5
X53.8Y-66.9
X53.8Y-76.6
X54.1Y-90.6
X54.5Y-79.1
X54.7Y-73.3
X54.8Y-75.1
X54.864Y-100.838
X54.9Y-63.6
X54.9Y-81.
X54.9Y-103.6
X55.09Y-56.31
X55.1Y-70.8
X55.2Y-68.8
X55.3Y-84.4
X55.3Y-87.6
X55.5Y-60.8
X55.5Y-66.7
X55.5Y-94.7
X55.626Y-102.108
X55.7Y-57.61
X55.8Y-75.7
X55.826Y-122.612
X55.9Y-72.1
X56.1Y-63.1
X56.1Y-64.5
X56.1Y-77.5
X56.388Y-103.124
X56.4Y-70.8
X56.4Y-90.5
X56.5Y-69.7
X56.6Y-58.1
X56.9Y-80.2
X57.1Y-66.4
X57.2Y-92.9
X57.3Y-62.3
X57.4Y-96.6
X57.785Y-54.991
X57.8Y-59.2
X57.9Y-103.6
X58.Y-75.5
X58.1Y-83.
X58.2Y-88.1
X58.3Y-74.2
X58.6Y-85.9
X58.85Y-127.725
X58.928Y-125.73
X58.974Y-112.776
X59.1Y-53.4
X59.5Y-64.4
X59.69Y-119.126
X59.9Y-76.6
X59.9Y-90.8
X59.9Y-94.2
X60.Y-59.7
X60.1Y-97.4
X60.144Y-104.256
X60.198Y-109.474
X60.4Y-70.8
X60.452Y-113.284
X61.Y-60.3
X61.1Y-127.925
X61.4Y-70.2
X61.468Y-110.49
X61.5Y-92.6
X61.6Y-83.6
X61.7Y-79.8
X61.7Y-81.9
X61.8Y-61.
X61.8Y-62.2
X61.8Y-63.5
X61.8Y-85.9
X61.8Y-95.2
X61.876Y-104.356
X61.976Y-54.661
X61.976Y-108.204
X62.1Y-76.7
X62.2Y-71.1
X62.2Y-98.2
X62.4Y-57.9
X62.5Y-87.8
X62.6Y-75.7
X62.941Y-56.439
X63.246Y-110.998
X63.5Y-51.
X63.754Y-108.204
X63.808Y-104.156
X63.9Y-75.3
X64.2Y-95.9
X64.516Y-111.506
X64.6Y-92.8
X64.8Y-88.4
X65.024Y-108.966
X65.024Y-118.364
X65.2Y-99.2
X65.5Y-67.1
X65.525Y-126.15
X65.6Y-56.2
X65.7Y-53.4
X65.7Y-55.1
X65.7Y-66.
X65.786Y-110.236
X65.9Y-52.
X66.Y-50.6
X66.1Y-88.4
X66.1Y-101.5
X66.1Y-104.1
X66.2Y-75.3
X66.294Y-111.76
X66.5Y-96.9
X66.548Y-122.682
X67.3Y-74.6
X67.3Y-76.9
X67.818Y-122.682
X68.2Y-67.
X68.4Y-98.7
X68.6Y-88.9
X68.6Y-95.6
X68.7Y-105.3
X69.2Y-76.1
X69.3Y-75.2
X69.4Y-50.6
X69.4Y-93.
X69.6Y-100.6
X69.9Y-103.
X70.Y-127.1
X70.1Y-75.8
X70.104Y-122.428
X70.4Y-105.7
X70.7Y-88.7
X70.8Y-99.3
X71.12Y-108.458
X71.12Y-113.538
X71.12Y-114.554
X71.374Y-123.444
X71.68Y-129.48
X71.7Y-71.9
X71.7Y-96.4
X71.81Y-131.02
X71.89Y-132.36
X71.96Y-133.58
X72.Y-89.6
X72.Y-92.1
X72.Y-105.7
X72.9Y-70.4
X73.Y-99.1
X73.3Y-89.7
X73.3Y-92.3
X73.4Y-60.1
X73.5Y-72.8
X73.8Y-105.7
X74.168Y-117.602
X74.6Y-60.9
X74.6Y-77.6
X75.Y-50.6
X75.2Y-75.3
X75.3Y-100.8
X75.6Y-60.2
X75.6Y-65.7
X75.692Y-118.11
X75.8Y-76.8
X76.1Y-132.6
X76.4Y-86.5
X76.454Y-105.664
X76.6Y-50.7
X76.6Y-83.5
X76.962Y-119.888
X77.Y-65.8
X77.47Y-110.236
X77.47Y-118.364
X77.47Y-121.158
X77.5Y-68.7
X77.724Y-105.664
X77.8Y-131.
X78.2Y-50.7
X78.2Y-65.9
X78.232Y-110.998
X78.232Y-117.094
X78.3Y-52.
X78.3Y-53.3
X78.3Y-73.1
X78.3Y-75.5
X78.4Y-71.9
X78.4Y-74.2
X78.7Y-68.5
X78.9Y-82.
X78.9Y-86.2
X78.994Y-115.316
X79.2Y-94.7
X79.248Y-105.664
X79.7Y-66.5
X80.Y-78.2
X80.2Y-97.2
X80.4Y-82.
X80.5Y-83.1
X80.7Y-81.1
X81.1Y-79.1
X81.28Y-51.054
X81.28Y-105.664
X81.7Y-125.1
X81.8Y-60.5
X81.8Y-127.5
X81.9Y-53.8
X82.042Y-105.664
X82.5Y-62.8
X82.6Y-66.2
X82.7Y-60.5
X82.9Y-55.6
X83.Y-53.9
X83.Y-105.5
X83.058Y-106.426
X83.4Y-126.7
X83.566Y-51.054
X84.1Y-64.3
X84.2Y-127.
X84.3Y-94.7
X84.328Y-118.618
X84.582Y-119.888
X84.582Y-121.412
X84.6Y-117.2
X84.65Y-133.
X84.7Y-79.4
X84.7Y-115.3
X84.8Y-128.2
X84.836Y-108.458
X84.85Y-131.05
X84.9Y-66.7
X84.9Y-105.6
X85.1Y-114.5
X85.2Y-94.4
X85.2Y-113.1
X85.3Y-109.3
X85.3Y-111.15
X85.3Y-123.6
X85.45Y-121.45
X85.5Y-91.
X85.55Y-118.2
X85.6Y-57.2
X85.6Y-60.3
X85.7Y-58.
X85.7Y-59.2
X85.7Y-71.6
X85.8Y-120.25
X85.852Y-51.054
X86.05Y-116.3
X86.1Y-74.9
X86.1Y-80.4
X86.2Y-78.
X86.4Y-90.6
X86.6Y-70.6
X86.7Y-105.6
X87.5Y-76.4
X87.5Y-89.1
X87.5Y-90.6
X88.138Y-51.054
X88.2Y-71.8
X88.3Y-89.2
X88.3Y-106.
X88.5Y-75.4
X88.7Y-90.6
X88.8Y-65.5
X89.2Y-89.2
X89.5Y-107.
X89.6Y-64.8
X89.7Y-90.7
X89.9Y-63.6
X90.17Y-51.054
X90.4Y-89.2
X90.9Y-90.8
X91.1Y-100.
X91.3Y-54.7
X91.3Y-107.8
X91.5Y-89.2
X91.5Y-92.4
X91.5Y-101.9
X91.6Y-65.4
X91.6Y-91.
X91.7Y-63.8
X91.7Y-102.8
X91.8Y-103.9
X92.4Y-91.5
X92.6Y-114.7
X92.71Y-51.054
X92.9Y-63.
X92.9Y-89.2
X93.Y-65.7
X93.Y-98.3
X93.1Y-56.3
X93.3Y-90.9
X93.4Y-108.1
X93.9Y-54.2
X94.Y-106.7
X94.2Y-90.7
X94.3Y-79.
X94.4Y-63.1
X94.4Y-66.
X94.8Y-103.6
X94.9Y-77.3
X94.9Y-94.3
X94.9Y-97.1
X94.9Y-113.4
X94.996Y-51.054
X95.Y-92.6
X95.1Y-105.5
X95.2Y-89.2
X95.2Y-111.6
X95.4Y-90.7
X95.4Y-108.2
X95.5Y-110.
X95.7Y-97.3
X95.7Y-100.8
X95.9Y-104.5
X96.Y-55.9
X96.5Y-81.3
X96.5Y-107.3
X96.6Y-119.5
X96.7Y-64.2
X96.8Y-80.1
X96.9Y-115.
X97.Y-54.5
X97.Y-79.3
X97.1Y-83.7
X97.2Y-65.7
X97.3Y-58.6
X97.5Y-104.4
X97.6Y-86.
X97.6Y-101.1
X97.6Y-102.7
X97.6Y-105.8
X97.7Y-82.8
X97.79Y-51.054
X97.8Y-87.1
X97.9Y-56.1
X97.9Y-95.2
X97.9Y-114.4
X98.Y-63.6
X98.Y-81.9
X98.Y-92.6
X98.Y-112.7
X98.1Y-110.
X98.1Y-111.5
X98.3Y-84.8
X98.5Y-66.6
X98.5Y-108.3
X98.5Y-119.6
X98.7Y-58.4
X98.7Y-60.1
X99.Y-55.5
X99.Y-62.
X99.Y-64.7
X99.3Y-83.2
X99.4Y-104.9
X99.5Y-53.7
X99.6Y-68.7
X99.8Y-65.5
X99.8Y-112.8
X99.9Y-80.2
X99.9Y-95.4
X100.1Y-62.9
X100.1Y-81.4
X100.1Y-93.3
X100.2Y-84.
X100.2Y-85.8
X100.3Y-82.5
X100.3Y-86.9
X100.4Y-114.1
X100.584Y-51.054
X100.7Y-72.8
X100.7Y-75.3
X100.8Y-70.4
X100.8Y-77.2
X100.9Y-69.
X101.Y-66.6
X101.3Y-52.7
X101.3Y-120.1
X101.4Y-63.8
X101.5Y-54.6
X101.6Y-67.6
X101.8Y-72.6
X101.9Y-76.6
X102.Y-74.8
X102.Y-82.5
X102.Y-84.1
X102.1Y-70.4
X102.1Y-78.5
X102.1Y-80.3
X102.1Y-81.4
X102.2Y-64.8
X102.2Y-86.9
X102.2Y-99.
X102.3Y-85.7
X102.3Y-93.1
X102.3Y-96.3
X102.3Y-98.1
X102.4Y-59.8
X102.4Y-95.5
X102.4Y-97.1
X102.5Y-56.3
X102.5Y-89.1
X102.6Y-100.
X102.6Y-115.7
X102.8Y-68.6
X102.8Y-90.9
X102.8Y-114.8
X103.Y-52.9
X103.Y-62.3
X103.Y-66.
X103.Y-84.8
X103.024Y-50.908
X103.1Y-83.2
X103.3Y-85.9
X103.4Y-72.5
X103.5Y-70.7
X103.5Y-120.2
X103.6Y-74.8
X103.6Y-87.4
X103.7Y-69.8
X103.7Y-77.
X103.7Y-81.3
X103.7Y-90.9
X103.8Y-89.1
X103.9Y-54.9
X103.9Y-79.3
X104.Y-106.6
X104.1Y-109.9
X104.2Y-57.4
X104.2Y-67.
X104.2Y-111.3
X104.3Y-109.
X104.4Y-60.7
X104.5Y-95.1
X104.6Y-64.4
X104.9Y-88.7
X105.Y-52.7
X105.1Y-90.9
X105.2Y-71.7
X105.3Y-70.8
X105.3Y-72.9
X105.3Y-74.5
X105.3Y-77.1
X105.4Y-68.2
X105.4Y-75.7
X105.4Y-78.3
X105.4Y-87.7
X105.4Y-93.
X105.4Y-115.4
X105.5Y-79.6
X105.5Y-81.2
X105.5Y-86.4
X105.5Y-95.2
X105.61Y-50.862
X105.8Y-55.4
X105.8Y-63.1
X106.Y-57.6
X106.3Y-59.7
X106.4Y-90.1
X106.5Y-69.2
X106.7Y-66.9
X106.9Y-61.9
X107.1Y-52.9
X107.1Y-78.7
X107.1Y-126.2
X107.2Y-71.6
X107.2Y-76.3
X107.2Y-89.3
X107.3Y-75.2
X107.3Y-77.4
X107.3Y-79.9
X107.3Y-81.2
X107.3Y-95.2
X107.4Y-70.4
X107.4Y-86.2
X107.5Y-74.
X107.5Y-87.
X107.6Y-58.
X107.6Y-65.2
X107.6Y-88.1
X107.6Y-94.2
X107.9Y-92.7
X107.9Y-119.8
X108.Y-55.7
X108.1Y-60.9
X108.1Y-72.1
X108.2Y-63.7
X108.204Y-51.044
X108.4Y-68.9
X108.4Y-73.6
X108.7Y-66.7
X108.9Y-52.8
X108.9Y-101.4
X108.9Y-119.8
X109.Y-91.1
X109.Y-102.5
X109.1Y-59.
X109.1Y-63.1
X109.4Y-65.7
X109.5Y-70.6
X109.5Y-75.
X109.5Y-107.4
X109.6Y-73.7
X109.7Y-89.8
X109.7Y-95.1
X109.7Y-105.
X109.8Y-72.1
X109.9Y-61.9
X110.Y-68.1
X110.Y-76.8
X110.Y-88.4
X110.2Y-78.4
X110.3Y-80.9
X110.317Y-50.719
X110.4Y-56.4
X110.4Y-79.6
X110.4Y-81.8
X110.4Y-87.
X110.5Y-83.3
X110.5Y-85.8
X110.8Y-73.7
X110.8Y-114.
X110.9Y-107.4
X111.1Y-64.7
X111.1Y-84.2
X111.1Y-112.1
X111.1Y-113.3
X111.2Y-75.2
X111.2Y-110.5
X111.3Y-58.9
X111.3Y-76.9
X111.3Y-114.8
X111.4Y-68.8
X111.4Y-106.6
X111.5Y-70.6
X111.6Y-72.1
X111.6Y-115.7
X111.7Y-79.1
X111.8Y-60.7
X111.9Y-52.7
X112.Y-92.1
X112.Y-95.1
X112.1Y-56.2
X112.1Y-73.8
X112.2Y-93.9
X112.2Y-112.9
X112.3Y-66.8
X112.3Y-81.5
X112.3Y-101.9
X112.3Y-110.3
X112.4Y-90.4
X112.7Y-63.2
X112.8Y-88.9
X112.9Y-59.3
X112.9Y-87.3
X112.959Y-50.78
X113.Y-69.
X113.Y-101.4
X113.1Y-72.2
X113.1Y-112.9
X113.2Y-75.4
X113.2Y-103.9
X113.4Y-77.1
X113.5Y-78.5
X113.5Y-86.1
X113.6Y-73.8
X113.7Y-66.6
X113.8Y-100.3
X113.8Y-123.
X113.9Y-67.9
X113.9Y-79.9
X113.9Y-112.8
X114.Y-95.4
X114.1Y-62.4
X114.2Y-84.
X114.3Y-121.8
X114.4Y-81.1
X114.5Y-56.
X114.5Y-102.7
X114.6Y-99.5
X114.7Y-52.7
X114.727Y-50.698
X114.8Y-69.1
X114.8Y-70.6
X114.8Y-110.9
X114.9Y-65.7
X114.9Y-73.8
X114.9Y-119.2
X115.2Y-72.2
X115.2Y-75.2
X115.3Y-67.7
X115.4Y-59.5
X115.6Y-61.5
X115.7Y-69.7
X115.7Y-97.2
X115.8Y-79.5
X115.9Y-63.9
X115.9Y-91.6
X115.9Y-95.8
X116.Y-83.9
X116.1Y-77.4
X116.2Y-66.6
X116.2Y-68.5
X116.2Y-89.6
X116.2Y-93.4
X116.2Y-94.4
X116.2Y-112.2
X116.2Y-116.2
X116.5Y-73.7
X116.5Y-123.9
X116.7Y-87.9
X116.8Y-113.4
X116.9Y-72.
X116.9Y-122.8
X117.Y-111.
X117.1Y-90.6
X117.2Y-69.7
X117.4Y-70.7
X117.4Y-75.4
X117.434Y-50.658
X117.7Y-73.7
X117.7Y-96.6
X118.Y-81.7
X118.Y-104.9
X118.1Y-76.9
X118.1Y-78.6
X118.4Y-58.2
X118.4Y-59.
X118.5Y-52.8
X118.5Y-72.1
X118.5Y-86.1
X118.6Y-63.5
X118.6Y-79.9
X118.7Y-84.1
X118.7Y-106.2
X118.8Y-60.9
X118.8Y-81.2
X118.872Y-50.8
X118.9Y-73.7
X118.9Y-119.6
X119.3Y-54.2
X119.4Y-124.
X119.6Y-61.3
X119.6Y-89.3
X119.9Y-52.7
X120.Y-118.2
X120.1Y-86.8
X120.5Y-81.7
X120.5Y-84.8
X120.6Y-54.
X120.904Y-50.8
X121.Y-62.
X121.2Y-57.4
X121.2Y-59.
X121.2Y-60.
X121.2Y-64.7
X121.5Y-109.5
X121.7Y-88.8
X121.8Y-86.8
X122.Y-53.5
X122.Y-85.
X122.1Y-66.6
X122.174Y-50.8
X122.2Y-52.1
X122.3Y-55.
X122.5Y-64.9
X122.5Y-119.3
X122.6Y-83.7
X122.8Y-81.6
X122.8Y-118.1
X123.Y-94.2
X123.Y-113.9
X123.2Y-87.4
X123.2Y-116.7
X123.3Y-66.5
X123.4Y-108.1
X123.6Y-97.4
X123.7Y-64.9
X123.9Y-85.4
X123.9Y-86.5
X124.Y-109.5
X124.3Y-66.5
X124.3Y-98.3
X125.2Y-64.8
X125.3Y-66.6
X125.3Y-85.6
X125.5Y-81.5
X125.8Y-83.3
X126.3Y-66.6
X126.3Y-94.7
X126.3Y-123.3
X126.5Y-64.8
X127.2Y-123.4
X127.3Y-66.6
X127.4Y-118.9
X127.9Y-65.
X128.1Y-83.9
X128.1Y-85.5
X128.1Y-86.6
X128.325Y-133.5
X128.4Y-66.7
X128.6Y-82.6
X128.8Y-113.4
X128.9Y-92.7
X129.Y-123.4
X129.1Y-65.
X129.1Y-97.6
X129.5Y-66.7
X129.7Y-84.8
X129.7Y-117.
X129.9Y-86.3
X130.Y-92.
X130.1Y-65.
X130.1Y-73.4
X130.2Y-122.4
X130.3Y-81.3
X130.375Y-133.5
X130.5Y-119.2
X130.7Y-66.6
X131.1Y-65.
X131.3Y-89.1
X131.5Y-84.6
X131.8Y-66.5
X132.1Y-68.2
X132.1Y-69.3
X132.2Y-65.
X132.6Y-86.
X132.9Y-72.9
X132.9Y-74.2
X133.1Y-75.5
X133.475Y-133.575
X133.5Y-51.8
X133.5Y-54.8
X133.5Y-64.8
X133.5Y-84.4
X133.6Y-66.4
X133.7Y-52.9
X133.7Y-61.4
X133.8Y-89.9
X133.8Y-97.3
X133.8Y-118.2
X133.81Y-56.45
X133.833Y-58.318
X134.Y-119.
X134.Y-119.8
X134.366Y-51.054
X134.4Y-87.1
X134.4Y-88.7
X134.51Y-53.98
X134.6Y-69.2
X134.7Y-85.7
X134.8Y-63.3
X134.9Y-83.4
X135.Y-62.2
X135.Y-75.5
X135.1Y-104.3
X135.5Y-60.3
X135.975Y-133.55
X136.08Y-53.14
X136.1Y-85.3
X136.2Y-87.1
X136.271Y-50.958
X136.4Y-79.
X136.9Y-81.3
X137.Y-64.
X137.1Y-83.5
X137.3Y-60.3
X137.4Y-66.9
X137.4Y-70.1
X137.4Y-79.8
X137.5Y-72.2
X137.5Y-85.3
X137.5Y-88.4
X137.6Y-62.4
X137.6Y-68.6
X137.8Y-74.7
X138.Y-76.3
X138.01Y-50.94
X138.2Y-82.5
X138.3Y-86.8
X138.35Y-133.35
X138.5Y-64.1
X138.5Y-66.6
X138.5Y-80.7
X138.8Y-62.7
X138.9Y-68.
X138.9Y-69.8
X138.9Y-84.3
X139.Y-72.4
X139.Y-79.6
X139.1Y-60.2
X139.2Y-82.6
X139.3Y-75.
X139.3Y-76.8
X139.3Y-87.7
X139.7Y-51.435
X139.725Y-54.458
X139.8Y-85.8
X140.5Y-80.7
X140.5Y-83.4
X140.6Y-64.2
X140.6Y-79.
X140.8Y-75.6
X140.9Y-59.3
X140.9Y-61.6
X140.97Y-51.181
X141.2Y-67.8
X141.2Y-72.3
X141.3Y-70.1
X141.732Y-54.356
X141.732Y-56.388
X141.9Y-65.4
X142.Y-76.5
X142.1Y-73.7
X142.5Y-59.8
X143.091Y-51.88
X143.1Y-133.725
X143.358Y-54.064
X144.Y-104.
X144.221Y-55.321
X144.3Y-59.7
X145.517Y-56.807
X146.Y-106.6
X146.6Y-74.1
X146.774Y-56.858
X147.Y-104.
X147.6Y-93.9
X147.7Y-89.9
X148.1Y-59.8
X148.1Y-70.6
X148.107Y-57.112
X148.3Y-89.4
X148.7Y-87.2
X148.9Y-67.4
X148.9Y-88.6
X149.Y-85.7
X149.1Y-69.
X149.1Y-70.5
X149.2Y-73.6
X149.2Y-75.2
X149.2Y-78.3
X149.2Y-79.9
X149.2Y-81.5
X149.2Y-84.2
X149.3Y-63.9
X149.3Y-77.
X149.361Y-58.941
X149.376Y-60.717
X149.376Y-62.508
X149.4Y-71.6
T2
X101.66Y-128.59
X101.66Y-130.59
X104.2Y-128.59
X104.2Y-130.59
T3
X65.7Y-61.8
X65.8Y-58.8
X68.24Y-61.8
X68.34Y-58.8
X101.2Y-124.7
X102.5Y-102.
X103.74Y-124.7
X105.04Y-102.
X117.348Y-128.524
X117.348Y-131.064
X119.888Y-128.524
X119.888Y-131.064
X121.2Y-103.6
X122.428Y-128.524
X122.428Y-131.064
X123.74Y-103.6
X124.968Y-128.524
X124.968Y-131.064
X126.28Y-103.6
X126.9Y-108.3
X126.9Y-110.84
X126.9Y-113.38
X126.9Y-115.92
X127.508Y-128.524
X127.508Y-131.064
X128.82Y-103.6
X130.048Y-128.524
X130.048Y-131.064
X132.588Y-128.524
X132.588Y-131.064
X139.7Y-126.1
X139.7Y-128.64
X139.7Y-131.18
T4
X87.5Y-116.8
X87.5Y-123.3
X92.Y-116.8
X92.Y-123.3
T5
X54.9Y-106.8
X54.9Y-109.34
X54.9Y-111.88
X54.9Y-114.42
X54.9Y-116.96
X54.9Y-119.5
X59.944Y-131.318
X62.484Y-131.318
T6
X96.93Y-133.29
X108.93Y-133.29
T7
X53.Y-53.
X53.Y-132.
X60.Y-57.
X60.Y-101.
X137.Y-57.
X137.Y-101.
X147.Y-53.
X147.Y-132.
T3
X86.725Y-127.925G85X88.725Y-127.925
G05
X86.725Y-133.925G85X88.725Y-133.925
G05
X92.425Y-131.925G85X92.425Y-129.925
G05
T0
M30
