M48
;DRILL file {KiCad 4.0.7} date 07/13/19 10:12:26
;FORMAT={-:-/ absolute / metric / decimal}
FMAT,2
METRIC,TZ
T1C0.400
T2C0.762
T3C0.800
T4C1.000
T5C1.500
T6C1.520
T7C3.048
%
G90
G05
M71
T1
X50.683Y-67.224
X50.739Y-62.977
X50.795Y-65.212
X50.963Y-71.582
X51.074Y-69.347
X51.13Y-61.021
X51.242Y-59.847
X51.354Y-73.594
X51.968Y-130.19
X52.807Y-57.836
X53.952Y-76.751
X54.595Y-57.053
X55.07Y-75.075
X56.327Y-54.874
X56.327Y-73.482
X57.277Y-52.583
X57.556Y-72.951
X57.724Y-51.633
X58.003Y-67.643
X59.482Y-86.914
X59.527Y-88.621
X59.665Y-90.902
X60.155Y-67.587
X60.594Y-92.095
X61.255Y-77.114
X61.61Y-131.699
X61.692Y-86.822
X61.905Y-88.895
X61.943Y-67.615
X61.951Y-94.016
X62.133Y-90.007
X62.398Y-76.987
X62.614Y-70.688
X63.081Y-51.562
X63.233Y-52.438
X63.259Y-53.645
X63.297Y-54.712
X63.513Y-105.88
X63.591Y-67.419
X63.917Y-93.985
X64.389Y-92.065
X64.569Y-70.465
X65.463Y-67.363
X65.761Y-94.153
X66.015Y-147.828
X66.218Y-89.535
X66.302Y-70.381
X66.324Y-92.126
X66.345Y-53.823
X66.37Y-52.705
X66.383Y-54.839
X66.396Y-51.575
X66.69Y-117.958
X67.419Y-70.521
X67.727Y-67.419
X68.108Y-94.153
X68.214Y-92.07
X68.618Y-140.678
X69.151Y-70.548
X69.82Y-117.206
X69.934Y-67.363
X70.333Y-94.168
X70.47Y-91.989
X70.714Y-103.429
X71.135Y-70.437
X71.209Y-82.067
X71.465Y-117.165
X71.577Y-80.213
X71.806Y-99.339
X71.811Y-94.229
X71.933Y-91.907
X72.868Y-64.292
X72.939Y-94.137
X73.066Y-65.41
X73.147Y-55.293
X73.203Y-51.046
X73.231Y-52.555
X73.287Y-53.757
X73.315Y-70.493
X73.574Y-129.692
X73.741Y-117.165
X73.914Y-78.219
X74.005Y-91.928
X74.554Y-59.131
X74.676Y-50.749
X74.798Y-116.088
X74.828Y-94.061
X74.92Y-108.661
X75.326Y-91.765
X75.466Y-70.521
X76.322Y-60.025
X76.657Y-50.711
X76.718Y-94.503
X77.145Y-65.156
X77.145Y-108.311
X77.155Y-91.664
X77.307Y-128.549
X77.338Y-59.317
X77.419Y-116.108
X77.66Y-146.393
X77.729Y-80.802
X77.876Y-78.679
X77.876Y-79.517
X77.892Y-109.149
X77.953Y-76.545
X78.008Y-63.805
X78.146Y-74.64
X78.288Y-59.317
X78.374Y-91.481
X78.542Y-83.739
X78.542Y-86.167
X78.562Y-50.673
X78.567Y-88.067
X78.598Y-89.774
X78.623Y-81.671
X78.984Y-73.497
X79.573Y-59.317
X79.654Y-104.381
X79.781Y-72.238
X79.98Y-109.637
X80.391Y-69.037
X80.406Y-116.291
X80.432Y-69.916
X80.467Y-85.23
X80.584Y-67.706
X80.66Y-71.399
X80.863Y-108.768
X80.924Y-50.673
X80.924Y-81.039
X80.942Y-89.855
X80.962Y-82.791
X81.001Y-79.362
X81.077Y-76.81
X81.077Y-87.668
X81.153Y-78.486
X81.224Y-136.962
X81.3Y-74.087
X81.321Y-75.265
X81.458Y-94.61
X81.501Y-91.196
X81.869Y-116.373
X82.499Y-72.969
X82.647Y-69.83
X82.662Y-71.45
X82.677Y-67.864
X82.763Y-113.548
X83.149Y-109.261
X83.172Y-50.597
X83.18Y-57.958
X83.21Y-61.57
X83.21Y-116.373
X83.226Y-59.787
X83.231Y-94.447
X83.271Y-66.995
X83.315Y-62.923
X83.462Y-63.724
X83.495Y-110.724
X83.553Y-65.425
X83.96Y-91.42
X84.104Y-113.508
X84.734Y-94.346
X85.08Y-126.949
X85.344Y-50.559
X86.116Y-94.305
X86.223Y-136.85
X86.418Y-91.839
X87.005Y-146.548
X87.983Y-50.627
X88.026Y-126.162
X88.209Y-95.585
X88.43Y-92.342
X89.068Y-68.351
X89.469Y-118.791
X89.883Y-50.599
X89.957Y-67.081
X90.051Y-93.543
X90.162Y-74.069
X90.2Y-97.373
X91.257Y-94.915
X91.978Y-50.571
X92.05Y-99.101
X92.187Y-58.461
X92.248Y-52.456
X92.248Y-57.104
X92.309Y-55.931
X92.324Y-53.614
X92.339Y-54.666
X92.497Y-96.032
X92.735Y-99.832
X92.918Y-81.9
X93.96Y-97.17
X94.13Y-50.655
X94.198Y-56.083
X94.259Y-57.241
X94.366Y-58.537
X94.397Y-54.574
X94.686Y-59.756
X94.991Y-53.645
X95.331Y-99.888
X95.778Y-146.797
X95.87Y-97.678
X96.073Y-53.294
X96.434Y-70.002
X96.515Y-59.68
X96.561Y-50.655
X96.66Y-73.762
X97.399Y-53.188
X97.765Y-84.163
X98.389Y-97.739
X98.466Y-69.748
X98.489Y-73.762
X98.72Y-70.383
X99.019Y-136.769
X99.047Y-50.655
X99.273Y-99.746
X99.405Y-61.244
X99.822Y-81.991
X100.277Y-76.22
X100.279Y-120.853
X100.868Y-97.76
X101.092Y-88.128
X101.092Y-91.44
X101.31Y-102.403
X101.338Y-50.488
X101.397Y-99.802
X101.564Y-64.181
X101.58Y-84.897
X101.62Y-65.268
X101.702Y-88.717
X101.702Y-92.07
X101.813Y-66.639
X101.981Y-68.26
X102.011Y-75.047
X102.067Y-80.889
X102.093Y-76.642
X102.149Y-69.682
X102.149Y-77.983
X102.149Y-82.758
X102.179Y-71.526
X102.245Y-73.304
X102.271Y-52.161
X102.291Y-79.436
X102.316Y-101.173
X102.403Y-96.002
X102.484Y-98.014
X102.484Y-99.578
X103.693Y-62.281
X103.916Y-63.886
X103.952Y-55.829
X103.977Y-83.251
X103.993Y-50.599
X104.023Y-100.305
X104.054Y-80.584
X104.089Y-78.715
X104.12Y-65.166
X104.13Y-76.393
X104.135Y-97.653
X104.16Y-102.093
X104.191Y-74.6
X104.216Y-67.28
X104.216Y-68.453
X104.216Y-70.272
X104.216Y-95.387
X104.242Y-84.963
X104.272Y-71.75
X104.358Y-102.53
X104.719Y-88.265
X104.775Y-91.73
X104.927Y-79.781
X105.004Y-63.055
X105.082Y-72.56
X105.136Y-52.121
X105.644Y-92.202
X105.725Y-74.292
X105.745Y-88.575
X106.284Y-72.56
X106.647Y-50.432
X107.653Y-74.265
X107.838Y-79.385
X107.848Y-72.644
X108.013Y-87.363
X108.204Y-51.044
X108.626Y-82.448
X109.05Y-74.237
X109.766Y-88.468
X109.776Y-72.644
X109.944Y-102.959
X109.972Y-117.655
X110.Y-97.511
X110.317Y-50.719
X110.838Y-74.292
X110.912Y-86.258
X111.369Y-72.784
X111.404Y-98.87
X111.425Y-103.154
X111.539Y-117.632
X112.71Y-74.265
X112.959Y-50.78
X113.073Y-72.7
X113.492Y-97.846
X114.148Y-58.56
X114.186Y-54.407
X114.224Y-51.549
X114.224Y-52.616
X114.224Y-56.236
X114.3Y-60.77
X114.3Y-70.371
X114.338Y-72.619
X114.376Y-68.161
X114.483Y-62.2
X114.529Y-65.837
X114.727Y-50.698
X115.225Y-74.404
X115.364Y-72.84
X116.482Y-86.335
X116.901Y-72.756
X117.32Y-74.348
X117.434Y-50.658
X118.829Y-72.7
X119.416Y-74.6
X119.441Y-76.098
X119.675Y-80.416
X119.675Y-85.242
X119.852Y-122.758
X120.254Y-50.683
X120.449Y-72.532
X121.326Y-89.687
X121.427Y-75.103
X121.737Y-64.78
X122.768Y-50.881
X123.525Y-87.147
X123.914Y-55.715
X123.927Y-57.226
X124.389Y-50.795
X124.501Y-130.277
X124.508Y-67.678
X124.643Y-68.56
X125.146Y-51.524
X125.898Y-89.687
X126.35Y-68.56
X126.507Y-67.65
X127.65Y-67.788
X127.742Y-70.18
X128.29Y-82.433
X128.549Y-69.936
X128.816Y-104.242
X128.991Y-67.757
X129.476Y-53.657
X129.515Y-52.527
X129.515Y-54.94
X129.642Y-51.41
X129.708Y-86.258
X129.997Y-67.894
X130.043Y-69.982
X131.018Y-67.902
X131.105Y-86.385
X131.521Y-70.074
X132.085Y-67.864
X132.766Y-52.591
X132.867Y-51.41
X132.88Y-54.026
X132.88Y-55.118
X132.933Y-79.98
X132.939Y-69.982
X133.076Y-67.864
X133.416Y-95.707
X133.746Y-77.48
X133.899Y-75.54
X134.005Y-70.089
X134.295Y-67.909
X134.681Y-79.675
X134.722Y-62.992
X135.27Y-86.639
X135.392Y-70.195
X135.666Y-67.711
X136.54Y-91.186
X136.916Y-67.65
X136.916Y-70.165
X136.919Y-51.41
X137.338Y-58.344
X137.358Y-86.624
X137.455Y-120.701
X137.922Y-67.727
X138.214Y-51.816
X138.239Y-57.099
X139.095Y-70.119
X139.233Y-77.114
X139.537Y-67.635
X139.941Y-51.752
X140.467Y-70.089
X141.011Y-77.114
X141.707Y-51.816
X143.091Y-51.88
X143.358Y-54.064
X143.561Y-113.386
X144.221Y-55.321
X144.793Y-126.047
X145.517Y-56.807
X146.192Y-109.55
X146.774Y-56.858
X147.691Y-125.73
X148.021Y-87.198
X148.107Y-57.112
X148.361Y-58.941
X148.476Y-60.617
X148.476Y-62.408
X148.628Y-64.16
X148.666Y-67.399
X148.78Y-65.189
X148.819Y-69.19
X149.2Y-141.961
T2
X69.342Y-123.19
X69.342Y-138.43
X71.882Y-123.19
X71.882Y-138.43
X74.422Y-123.19
X74.422Y-138.43
X76.962Y-123.19
X76.962Y-138.43
X79.502Y-123.19
X79.502Y-138.43
X82.042Y-123.19
X82.042Y-138.43
X84.582Y-123.19
X84.582Y-138.43
X87.122Y-123.19
X87.122Y-138.43
X89.662Y-123.19
X89.662Y-138.43
X92.202Y-123.19
X92.202Y-138.43
X94.742Y-123.19
X94.742Y-138.43
X97.282Y-123.19
X97.282Y-138.43
X99.822Y-123.19
X99.822Y-138.43
X102.362Y-123.19
X102.362Y-138.43
X104.902Y-123.19
X104.902Y-138.43
X107.442Y-123.19
X107.442Y-138.43
X109.982Y-123.19
X109.982Y-138.43
X112.522Y-123.19
X112.522Y-138.43
X115.062Y-123.19
X115.062Y-138.43
X117.602Y-123.19
X117.602Y-138.43
T3
X71.079Y-110.838
X71.079Y-115.718
T4
X56.022Y-124.765
X56.022Y-127.305
X56.022Y-129.845
X56.022Y-132.385
X56.022Y-134.925
X58.562Y-124.765
X58.562Y-127.305
X58.562Y-129.845
X58.562Y-132.385
X58.562Y-134.925
X63.703Y-135.598
X63.703Y-138.138
X63.703Y-140.678
X72.837Y-67.234
X73.256Y-57.683
X73.256Y-60.223
X75.377Y-67.234
X77.917Y-67.234
X99.568Y-114.3
X102.108Y-114.3
X104.648Y-114.3
X107.188Y-114.3
X126.34Y-133.325
X128.88Y-133.325
X137.02Y-137.3
X139.56Y-137.3
X143.421Y-96.164
X143.421Y-98.704
X143.421Y-101.244
X143.421Y-103.784
X143.421Y-106.324
X145.961Y-96.164
X145.961Y-98.704
X145.961Y-101.244
X145.961Y-103.784
X145.961Y-106.324
T5
X54.864Y-68.58
X59.428Y-63.703
X59.604Y-72.796
X65.827Y-63.731
X65.954Y-72.796
T6
X145.39Y-131.928
X145.39Y-137.008
T7
X53.Y-53.
X53.Y-147.
X60.Y-102.
X60.Y-146.
X137.Y-102.
X137.Y-146.
X147.Y-53.
X147.Y-147.
T4
X125.289Y-140.475G85X127.289Y-140.475
G05
X125.289Y-146.475G85X127.289Y-146.475
G05
X130.989Y-144.475G85X130.989Y-142.475
G05
T0
M30
